G04 #@! TF.GenerationSoftware,KiCad,Pcbnew,(6.0.1-0)*
G04 #@! TF.CreationDate,2022-06-04T21:55:58-05:00*
G04 #@! TF.ProjectId,pcb,7063622e-6b69-4636-9164-5f7063625858,rev?*
G04 #@! TF.SameCoordinates,Original*
G04 #@! TF.FileFunction,Profile,NP*
%FSLAX46Y46*%
G04 Gerber Fmt 4.6, Leading zero omitted, Abs format (unit mm)*
G04 Created by KiCad (PCBNEW (6.0.1-0)) date 2022-06-04 21:55:58*
%MOMM*%
%LPD*%
G01*
G04 APERTURE LIST*
G04 #@! TA.AperFunction,Profile*
%ADD10C,0.050000*%
G04 #@! TD*
G04 APERTURE END LIST*
D10*
X91057416Y-43668942D02*
X91057416Y-38608805D01*
X329182616Y-49026759D02*
G75*
G03*
X324420112Y-44264255I-4762504J0D01*
G01*
X96415233Y-101414303D02*
X286915393Y-101414303D01*
X324420112Y-119273693D02*
G75*
G03*
X329182616Y-114511189I0J4762504D01*
G01*
X199404383Y-119273693D02*
X82723034Y-119273693D01*
X286915393Y-82364287D02*
G75*
G03*
X286915393Y-81173661I0J595313D01*
G01*
X82723034Y-44264255D02*
G75*
G03*
X77960530Y-49026759I0J-4762504D01*
G01*
X329182616Y-49026759D02*
X329182616Y-114511189D01*
X286915393Y-100223677D02*
X96415233Y-100223677D01*
X77960530Y-114511189D02*
G75*
G03*
X82723034Y-119273693I4762504J0D01*
G01*
X207738763Y-119273693D02*
X324420112Y-119273693D01*
X101773051Y-43668958D02*
G75*
G03*
X102368363Y-44264270I595313J1D01*
G01*
X324420112Y-44264255D02*
X102368363Y-44264270D01*
X91652729Y-38013494D02*
X101177738Y-38013494D01*
X207738763Y-119273693D02*
G75*
G03*
X199404383Y-119273693I-4167190J-2381252D01*
G01*
X286915393Y-62123645D02*
X96415233Y-62123645D01*
X96415233Y-63314271D02*
X286915393Y-63314271D01*
X96415233Y-62123645D02*
G75*
G03*
X96415233Y-63314271I0J-595313D01*
G01*
X286915393Y-63314271D02*
G75*
G03*
X286915393Y-62123645I0J595313D01*
G01*
X77960530Y-114511189D02*
X77960530Y-49026759D01*
X101773050Y-38608806D02*
X101773050Y-43668958D01*
X101773050Y-38608806D02*
G75*
G03*
X101177738Y-38013494I-595313J-1D01*
G01*
X286915393Y-101414303D02*
G75*
G03*
X286915393Y-100223677I0J595313D01*
G01*
X91652728Y-38013494D02*
G75*
G03*
X91057416Y-38608806I1J-595313D01*
G01*
X96415233Y-100223677D02*
G75*
G03*
X96415233Y-101414303I0J-595313D01*
G01*
X90462104Y-44264255D02*
G75*
G03*
X91057416Y-43668943I-1J595313D01*
G01*
X286915393Y-81173661D02*
X96415233Y-81173661D01*
X82723034Y-44264255D02*
X90462104Y-44264255D01*
X96415233Y-81173661D02*
G75*
G03*
X96415233Y-82364287I0J-595313D01*
G01*
X96415233Y-82364287D02*
X286915393Y-82364287D01*
M02*
