M48
; DRILL file {KiCad (6.0.5-0)} date Wednesday, September 07, 2022 at 06:39:25 AM
; FORMAT={-:-/ absolute / inch / decimal}
; #@! TF.CreationDate,2022-09-07T06:39:25-05:00
; #@! TF.GenerationSoftware,Kicad,Pcbnew,(6.0.5-0)
; #@! TF.FileFunction,Plated,1,2,PTH
FMAT,2
INCH
; #@! TA.AperFunction,Plated,PTH,ViaDrill
T1C0.0138
; #@! TA.AperFunction,Plated,PTH,ViaDrill
T2C0.0197
; #@! TA.AperFunction,Plated,PTH,ComponentDrill
T3C0.0236
; #@! TA.AperFunction,Plated,PTH,ComponentDrill
T4C0.0320
; #@! TA.AperFunction,Plated,PTH,ComponentDrill
T5C0.0394
; #@! TA.AperFunction,Plated,PTH,ComponentDrill
T6C0.0579
; #@! TA.AperFunction,Plated,PTH,ComponentDrill
T7C0.0591
; #@! TA.AperFunction,Plated,PTH,ComponentDrill
T8C0.0866
%
G90
G05
T1
X2.2619Y-3.9523
X2.2619Y-3.983
X2.2624Y-3.7586
X2.2624Y-3.7909
X2.2624Y-3.8216
X2.2624Y-3.8523
X2.2624Y-3.883
X2.2624Y-3.7279
X2.7126Y-3.0354
X2.7126Y-3.1457
X2.789Y-4.2244
X2.8197Y-4.2244
X2.8504Y-4.2244
X2.8819Y-4.2244
X2.8937Y-3.3661
X2.9126Y-4.2244
X2.9331Y-2.4567
X3.0056Y-3.3735
X3.1417Y-3.0039
X3.1417Y-3.0984
X3.1659Y-4.1619
X3.2292Y-4.1308
X3.2638Y-2.626
X3.2992Y-3.5906
X3.3293Y-3.6681
X3.3307Y-3.9413
X3.4721Y-3.0272
X3.5157Y-3.8543
X3.535Y-2.2813
X3.5357Y-2.9958
X3.5866Y-3.3307
X3.6116Y-2.2399
X3.6535Y-3.4685
X3.6575Y-3.7323
X3.7459Y-1.7878
X3.8543Y-3.6929
X3.8658Y-1.7872
X3.8691Y-3.3436
X3.8714Y-4.0683
X3.8918Y-2.8413
X3.8933Y-4.173
X3.9134Y-2.9961
X3.9148Y-3.3937
X3.9173Y-3.0512
X3.9287Y-2.3108
X3.9449Y-3.7165
X3.9449Y-3.7472
X3.9449Y-3.7779
X3.9488Y-3.3664
X3.9567Y-3.0551
X4.0Y-3.6772
X4.0Y-3.8504
X4.0685Y-2.1809
X4.2645Y-3.8103
X4.2953Y-3.8268
X4.5394Y-2.2864
X4.5415Y-3.1259
X4.5421Y-3.0952
X4.5459Y-3.1563
X4.5459Y-3.2988
X4.5459Y-3.3295
X4.5459Y-3.361
X4.5634Y-2.1917
X4.5862Y-1.8487
X4.6419Y-2.6276
X4.6433Y-3.6553
X4.6433Y-4.1238
X4.6689Y-3.7813
X5.3343Y-1.8526
X5.3343Y-2.6021
X5.3343Y-3.3565
X5.3343Y-4.1125
X6.0848Y-2.5173
X6.0862Y-1.8526
X6.0862Y-2.5785
X6.0862Y-3.3565
X6.0862Y-3.7681
X6.0862Y-4.1125
X6.8382Y-1.8526
X6.8382Y-2.608
X6.8382Y-3.3565
X6.8382Y-4.1125
X7.602Y-3.3541
X7.602Y-4.11
X7.6024Y-2.6458
X7.6413Y-2.11
X8.3382Y-1.8487
X8.3382Y-2.5982
X8.3382Y-3.3565
X8.3382Y-4.1125
X9.0902Y-1.8526
X9.0902Y-2.5982
X9.0902Y-3.3565
X9.0902Y-4.1125
X9.8382Y-1.8526
X9.8382Y-2.608
X9.8382Y-3.3565
X9.8382Y-4.1125
X10.5808Y-3.3925
X10.5848Y-2.6011
X10.5941Y-1.8526
X10.6413Y-4.4407
X11.1561Y-3.7192
X11.3333Y-3.3767
X11.3422Y-1.8565
X11.3923Y-2.6326
X11.3933Y-4.1257
T2
X2.6158Y-3.9196
X2.7886Y-3.4476
X3.063Y-3.5394
X3.126Y-4.1654
X3.2696Y-3.7265
X3.2696Y-3.8839
X3.7087Y-2.4252
X4.4986Y-2.2848
X7.6217Y-2.2754
T4
X2.2835Y-4.4397
X2.2835Y-4.5827
X2.3858Y-4.4397
X2.3858Y-4.5827
X2.4882Y-4.5827
X7.5459Y-1.8679
X7.5459Y-1.9679
X7.5459Y-2.0679
X7.5459Y-2.1679
X7.5459Y-2.2679
X7.5459Y-2.3679
T5
X2.3849Y-1.8187
X2.3849Y-2.3895
X2.4834Y-2.3895
X2.5818Y-1.8187
X2.5818Y-2.3895
T6
X2.3334Y-1.9943
X2.5834Y-1.8943
T8
X2.9521Y-2.0943
X3.7959Y-3.9693
X4.0303Y-2.4693
X11.0615Y-3.9693
X11.2959Y-2.4693
T3
G00X3.6266Y-1.5282
M15
G01X3.6266Y-1.5518
M16
G05
G00X3.6266Y-1.6837
M15
G01X3.6266Y-1.727
M16
G05
G00X3.9652Y-1.5282
M15
G01X3.9652Y-1.5518
M16
G05
G00X3.9652Y-1.6837
M15
G01X3.9652Y-1.727
M16
G05
T7
G00X2.2629Y-2.1198
M15
G01X2.2629Y-2.0687
M16
G05
G00X2.7038Y-2.1198
M15
G01X2.7038Y-2.0687
M16
G05
T0
M30
