G04 #@! TF.GenerationSoftware,KiCad,Pcbnew,(6.0.5-0)*
G04 #@! TF.CreationDate,2022-09-07T06:39:23-05:00*
G04 #@! TF.ProjectId,pcb,7063622e-6b69-4636-9164-5f7063625858,rev?*
G04 #@! TF.SameCoordinates,Original*
G04 #@! TF.FileFunction,Soldermask,Bot*
G04 #@! TF.FilePolarity,Negative*
%FSLAX46Y46*%
G04 Gerber Fmt 4.6, Leading zero omitted, Abs format (unit mm)*
G04 Created by KiCad (PCBNEW (6.0.5-0)) date 2022-09-07 06:39:23*
%MOMM*%
%LPD*%
G01*
G04 APERTURE LIST*
G04 Aperture macros list*
%AMRoundRect*
0 Rectangle with rounded corners*
0 $1 Rounding radius*
0 $2 $3 $4 $5 $6 $7 $8 $9 X,Y pos of 4 corners*
0 Add a 4 corners polygon primitive as box body*
4,1,4,$2,$3,$4,$5,$6,$7,$8,$9,$2,$3,0*
0 Add four circle primitives for the rounded corners*
1,1,$1+$1,$2,$3*
1,1,$1+$1,$4,$5*
1,1,$1+$1,$6,$7*
1,1,$1+$1,$8,$9*
0 Add four rect primitives between the rounded corners*
20,1,$1+$1,$2,$3,$4,$5,0*
20,1,$1+$1,$4,$5,$6,$7,0*
20,1,$1+$1,$6,$7,$8,$9,0*
20,1,$1+$1,$8,$9,$2,$3,0*%
%AMRotRect*
0 Rectangle, with rotation*
0 The origin of the aperture is its center*
0 $1 length*
0 $2 width*
0 $3 Rotation angle, in degrees counterclockwise*
0 Add horizontal line*
21,1,$1,$2,0,0,$3*%
G04 Aperture macros list end*
%ADD10C,0.200000*%
%ADD11C,3.000000*%
%ADD12C,1.750000*%
%ADD13C,3.987800*%
%ADD14R,2.550000X2.500000*%
%ADD15R,2.000000X2.000000*%
%ADD16C,2.000000*%
%ADD17R,2.000000X3.200000*%
%ADD18C,3.800000*%
%ADD19C,2.250000*%
%ADD20RoundRect,0.250000X0.475000X-0.337500X0.475000X0.337500X-0.475000X0.337500X-0.475000X-0.337500X0*%
%ADD21RoundRect,0.250000X0.350000X-0.250000X0.350000X0.250000X-0.350000X0.250000X-0.350000X-0.250000X0*%
%ADD22O,1.700000X1.700000*%
%ADD23R,1.700000X1.700000*%
%ADD24R,1.800000X1.100000*%
%ADD25RoundRect,0.200000X0.750000X0.250000X-0.750000X0.250000X-0.750000X-0.250000X0.750000X-0.250000X0*%
%ADD26RoundRect,0.200000X0.250000X0.750000X-0.250000X0.750000X-0.250000X-0.750000X0.250000X-0.750000X0*%
%ADD27RoundRect,0.250000X-0.475000X0.337500X-0.475000X-0.337500X0.475000X-0.337500X0.475000X0.337500X0*%
%ADD28RotRect,2.100000X1.800000X225.000000*%
%ADD29RoundRect,0.249999X0.450001X-0.325001X0.450001X0.325001X-0.450001X0.325001X-0.450001X-0.325001X0*%
%ADD30C,0.650000*%
%ADD31RoundRect,0.150000X-0.150000X-0.575000X0.150000X-0.575000X0.150000X0.575000X-0.150000X0.575000X0*%
%ADD32RoundRect,0.075000X-0.075000X-0.650000X0.075000X-0.650000X0.075000X0.650000X-0.075000X0.650000X0*%
%ADD33O,1.300000X2.400000*%
%ADD34O,1.300000X1.900000*%
%ADD35RoundRect,0.249999X-0.450001X0.325001X-0.450001X-0.325001X0.450001X-0.325001X0.450001X0.325001X0*%
%ADD36RoundRect,0.250000X0.337500X0.475000X-0.337500X0.475000X-0.337500X-0.475000X0.337500X-0.475000X0*%
%ADD37RoundRect,0.250000X-0.337500X-0.475000X0.337500X-0.475000X0.337500X0.475000X-0.337500X0.475000X0*%
%ADD38RoundRect,0.249999X-0.325001X-0.450001X0.325001X-0.450001X0.325001X0.450001X-0.325001X0.450001X0*%
%ADD39RoundRect,0.050000X-0.350000X0.500000X-0.350000X-0.500000X0.350000X-0.500000X0.350000X0.500000X0*%
%ADD40RoundRect,0.050000X-0.350000X0.300000X-0.350000X-0.300000X0.350000X-0.300000X0.350000X0.300000X0*%
%ADD41C,1.700000*%
%ADD42RoundRect,0.150000X-0.150000X-0.625000X0.150000X-0.625000X0.150000X0.625000X-0.150000X0.625000X0*%
%ADD43RoundRect,0.250000X-0.350000X-0.650000X0.350000X-0.650000X0.350000X0.650000X-0.350000X0.650000X0*%
G04 APERTURE END LIST*
D10*
X124173356Y-117065476D02*
X124292403Y-117005952D01*
X124351927Y-116886904D01*
X124351927Y-115815476D01*
X123220975Y-117005952D02*
X123340022Y-117065476D01*
X123578118Y-117065476D01*
X123697165Y-117005952D01*
X123756689Y-116886904D01*
X123756689Y-116410714D01*
X123697165Y-116291666D01*
X123578118Y-116232142D01*
X123340022Y-116232142D01*
X123220975Y-116291666D01*
X123161451Y-116410714D01*
X123161451Y-116529761D01*
X123756689Y-116648809D01*
X122804308Y-116232142D02*
X122328118Y-116232142D01*
X122625737Y-117065476D02*
X122625737Y-115994047D01*
X122566213Y-115875000D01*
X122447165Y-115815476D01*
X122328118Y-115815476D01*
X122090022Y-116232142D02*
X121613832Y-116232142D01*
X121911451Y-115815476D02*
X121911451Y-116886904D01*
X121851927Y-117005952D01*
X121732880Y-117065476D01*
X121613832Y-117065476D01*
X121316213Y-116232142D02*
X121018594Y-117065476D01*
X120720975Y-116232142D02*
X121018594Y-117065476D01*
X121137641Y-117363095D01*
X121197165Y-117422619D01*
X121316213Y-117482142D01*
X119113832Y-117065476D02*
X119232880Y-117005952D01*
X119292403Y-116886904D01*
X119292403Y-115815476D01*
X118101927Y-116232142D02*
X118101927Y-117065476D01*
X118637641Y-116232142D02*
X118637641Y-116886904D01*
X118578118Y-117005952D01*
X118459070Y-117065476D01*
X118280499Y-117065476D01*
X118161451Y-117005952D01*
X118101927Y-116946428D01*
X116970975Y-117005952D02*
X117090022Y-117065476D01*
X117328118Y-117065476D01*
X117447165Y-117005952D01*
X117506689Y-116946428D01*
X117566213Y-116827380D01*
X117566213Y-116470238D01*
X117506689Y-116351190D01*
X117447165Y-116291666D01*
X117328118Y-116232142D01*
X117090022Y-116232142D01*
X116970975Y-116291666D01*
X116554308Y-116232142D02*
X116256689Y-117065476D01*
X115959070Y-116232142D02*
X116256689Y-117065476D01*
X116375737Y-117363095D01*
X116435260Y-117422619D01*
X116554308Y-117482142D01*
X114530499Y-117065476D02*
X114530499Y-116232142D01*
X114530499Y-116470238D02*
X114470975Y-116351190D01*
X114411451Y-116291666D01*
X114292403Y-116232142D01*
X114173356Y-116232142D01*
X113280499Y-117005952D02*
X113399546Y-117065476D01*
X113637641Y-117065476D01*
X113756689Y-117005952D01*
X113816213Y-116886904D01*
X113816213Y-116410714D01*
X113756689Y-116291666D01*
X113637641Y-116232142D01*
X113399546Y-116232142D01*
X113280499Y-116291666D01*
X113220975Y-116410714D01*
X113220975Y-116529761D01*
X113816213Y-116648809D01*
X112804308Y-116232142D02*
X112506689Y-117065476D01*
X112209070Y-116232142D01*
X110840022Y-115934523D02*
X110780499Y-115875000D01*
X110661451Y-115815476D01*
X110363832Y-115815476D01*
X110244784Y-115875000D01*
X110185260Y-115934523D01*
X110125737Y-116053571D01*
X110125737Y-116172619D01*
X110185260Y-116351190D01*
X110899546Y-117065476D01*
X110125737Y-117065476D01*
X109590022Y-116946428D02*
X109530499Y-117005952D01*
X109590022Y-117065476D01*
X109649546Y-117005952D01*
X109590022Y-116946428D01*
X109590022Y-117065476D01*
X108756689Y-115815476D02*
X108637641Y-115815476D01*
X108518594Y-115875000D01*
X108459070Y-115934523D01*
X108399546Y-116053571D01*
X108340022Y-116291666D01*
X108340022Y-116589285D01*
X108399546Y-116827380D01*
X108459070Y-116946428D01*
X108518594Y-117005952D01*
X108637641Y-117065476D01*
X108756689Y-117065476D01*
X108875737Y-117005952D01*
X108935260Y-116946428D01*
X108994784Y-116827380D01*
X109054308Y-116589285D01*
X109054308Y-116291666D01*
X108994784Y-116053571D01*
X108935260Y-115934523D01*
X108875737Y-115875000D01*
X108756689Y-115815476D01*
X107804308Y-116946428D02*
X107744784Y-117005952D01*
X107804308Y-117065476D01*
X107863832Y-117005952D01*
X107804308Y-116946428D01*
X107804308Y-117065476D01*
X106554308Y-117065476D02*
X107268594Y-117065476D01*
X106911451Y-117065476D02*
X106911451Y-115815476D01*
X107030499Y-115994047D01*
X107149546Y-116113095D01*
X107268594Y-116172619D01*
D11*
X121180225Y-50653950D03*
D12*
X119910225Y-53193950D03*
D13*
X124990225Y-53193950D03*
D11*
X127530225Y-48113950D03*
D12*
X130070225Y-53193950D03*
D14*
X117905225Y-50653950D03*
X130832225Y-48113950D03*
D12*
X206270225Y-53193950D03*
D11*
X203730225Y-48113950D03*
X197380225Y-50653950D03*
D12*
X196110225Y-53193950D03*
D13*
X201190225Y-53193950D03*
D14*
X194105225Y-50653950D03*
X207032225Y-48113950D03*
D12*
X187220225Y-53193950D03*
D11*
X178330225Y-50653950D03*
X184680225Y-48113950D03*
D12*
X177060225Y-53193950D03*
D13*
X182140225Y-53193950D03*
D14*
X175055225Y-50653950D03*
X187982225Y-48113950D03*
D12*
X168170225Y-53193950D03*
D13*
X163090225Y-53193950D03*
D11*
X165630225Y-48113950D03*
X159280225Y-50653950D03*
D12*
X158010225Y-53193950D03*
D14*
X156005225Y-50653950D03*
X168932225Y-48113950D03*
D12*
X81810225Y-53193950D03*
D13*
X86890225Y-53193950D03*
D11*
X83080225Y-50653950D03*
X89430225Y-48113950D03*
D12*
X91970225Y-53193950D03*
D14*
X79805225Y-50653950D03*
X92732225Y-48113950D03*
D12*
X225320225Y-53193950D03*
D11*
X222780225Y-48113950D03*
D13*
X220240225Y-53193950D03*
D12*
X215160225Y-53193950D03*
D11*
X216430225Y-50653950D03*
D14*
X213155225Y-50653950D03*
X226082225Y-48113950D03*
D12*
X244370225Y-53193950D03*
D11*
X235480225Y-50653950D03*
X241830225Y-48113950D03*
D12*
X234210225Y-53193950D03*
D13*
X239290225Y-53193950D03*
D14*
X232205225Y-50653950D03*
X245132225Y-48113950D03*
D12*
X91970225Y-72243950D03*
D13*
X86890225Y-72243950D03*
D11*
X83080225Y-69703950D03*
D12*
X81810225Y-72243950D03*
D11*
X89430225Y-67163950D03*
D14*
X79805225Y-69703950D03*
X92732225Y-67163950D03*
D12*
X111020225Y-72243950D03*
D11*
X102130225Y-69703950D03*
D12*
X100860225Y-72243950D03*
D11*
X108480225Y-67163950D03*
D13*
X105940225Y-72243950D03*
D14*
X98855225Y-69703950D03*
X111782225Y-67163950D03*
D13*
X144045399Y-72243950D03*
D11*
X146585399Y-67163950D03*
D12*
X138965399Y-72243950D03*
X149125399Y-72243950D03*
D11*
X140235399Y-69703950D03*
D14*
X136960399Y-69703950D03*
X149887399Y-67163950D03*
D11*
X273580225Y-50653950D03*
D13*
X277390225Y-53193950D03*
D11*
X279930225Y-48113950D03*
D12*
X272310225Y-53193950D03*
X282470225Y-53193950D03*
D14*
X270305225Y-50653950D03*
X283232225Y-48113950D03*
D11*
X165630225Y-67163950D03*
X159280225Y-69703950D03*
D12*
X168170225Y-72243950D03*
X158010225Y-72243950D03*
D13*
X163090225Y-72243950D03*
D14*
X156005225Y-69703950D03*
X168932225Y-67163950D03*
D12*
X187220225Y-72243950D03*
D13*
X182140225Y-72243950D03*
D12*
X177060225Y-72243950D03*
D11*
X184680225Y-67163950D03*
X178330225Y-69703950D03*
D14*
X175055225Y-69703950D03*
X187982225Y-67163950D03*
D12*
X196110225Y-72243950D03*
D13*
X201190225Y-72243950D03*
D11*
X203730225Y-67163950D03*
D12*
X206270225Y-72243950D03*
D11*
X197380225Y-69703950D03*
D14*
X194105225Y-69703950D03*
X207032225Y-67163950D03*
D12*
X111020225Y-110343950D03*
D13*
X105940225Y-110343950D03*
D12*
X100860225Y-110343950D03*
D11*
X108480225Y-105263950D03*
X102130225Y-107803950D03*
D14*
X98855225Y-107803950D03*
X111782225Y-105263950D03*
D12*
X119910225Y-110343950D03*
D11*
X127530225Y-105263950D03*
D12*
X130070225Y-110343950D03*
D13*
X124990225Y-110343950D03*
D11*
X121180225Y-107803950D03*
D14*
X117905225Y-107803950D03*
X130832225Y-105263950D03*
D11*
X140230225Y-107803950D03*
X146580225Y-105263950D03*
D13*
X144040225Y-110343950D03*
D12*
X149120225Y-110343950D03*
X138960225Y-110343950D03*
D14*
X136955225Y-107803950D03*
X149882225Y-105263950D03*
D11*
X159280225Y-107803950D03*
D12*
X168170225Y-110343950D03*
D11*
X165630225Y-105263950D03*
D12*
X158010225Y-110343950D03*
D13*
X163090225Y-110343950D03*
D14*
X156005225Y-107803950D03*
X168932225Y-105263950D03*
D13*
X182140225Y-110343950D03*
D12*
X187220225Y-110343950D03*
D11*
X178330225Y-107803950D03*
X184680225Y-105263950D03*
D12*
X177060225Y-110343950D03*
D14*
X175055225Y-107803950D03*
X187982225Y-105263950D03*
D13*
X220240225Y-110343950D03*
D12*
X225320225Y-110343950D03*
D11*
X222780225Y-105263950D03*
D12*
X215160225Y-110343950D03*
D11*
X216430225Y-107803950D03*
D14*
X213155225Y-107803950D03*
X226082225Y-105263950D03*
D11*
X241830225Y-105263950D03*
X235480225Y-107803950D03*
D12*
X244370225Y-110343950D03*
X234210225Y-110343950D03*
D13*
X239290225Y-110343950D03*
D14*
X232205225Y-107803950D03*
X245132225Y-105263950D03*
D12*
X253260225Y-110343950D03*
D11*
X254530225Y-107803950D03*
X260880225Y-105263950D03*
D12*
X263420225Y-110343950D03*
D13*
X258340225Y-110343950D03*
D14*
X251255225Y-107803950D03*
X264182225Y-105263950D03*
D11*
X279930225Y-105263950D03*
D13*
X277390225Y-110343950D03*
D12*
X282470225Y-110343950D03*
X272310225Y-110343950D03*
D11*
X273580225Y-107803950D03*
D14*
X270305225Y-107803950D03*
X283232225Y-105263950D03*
D12*
X196110225Y-110343950D03*
X206270225Y-110343950D03*
D11*
X203730225Y-105263950D03*
D13*
X201190225Y-110343950D03*
D11*
X197380225Y-107803950D03*
D14*
X194105225Y-107803950D03*
X207032225Y-105263950D03*
D11*
X279930225Y-86213950D03*
D13*
X277390225Y-91293950D03*
D11*
X273580225Y-88753950D03*
D12*
X272310225Y-91293950D03*
X282470225Y-91293950D03*
D14*
X270305225Y-88753950D03*
X283232225Y-86213950D03*
D12*
X253260225Y-91293950D03*
D11*
X260880225Y-86213950D03*
D13*
X258340225Y-91293950D03*
D11*
X254530225Y-88753950D03*
D12*
X263420225Y-91293950D03*
D14*
X251255225Y-88753950D03*
X264182225Y-86213950D03*
D11*
X216430225Y-88753950D03*
D12*
X215160225Y-91293950D03*
D11*
X222780225Y-86213950D03*
D12*
X225320225Y-91293950D03*
D13*
X220240225Y-91293950D03*
D14*
X213155225Y-88753950D03*
X226082225Y-86213950D03*
D12*
X187220225Y-91293950D03*
X177060225Y-91293950D03*
D13*
X182140225Y-91293950D03*
D11*
X184680225Y-86213950D03*
X178330225Y-88753950D03*
D14*
X175055225Y-88753950D03*
X187982225Y-86213950D03*
D12*
X138960225Y-91293950D03*
D11*
X146580225Y-86213950D03*
D12*
X149120225Y-91293950D03*
D13*
X144040225Y-91293950D03*
D11*
X140230225Y-88753950D03*
D14*
X136955225Y-88753950D03*
X149882225Y-86213950D03*
D11*
X83080225Y-88753950D03*
X89430225Y-86213950D03*
D12*
X91970225Y-91293950D03*
X81810225Y-91293950D03*
D13*
X86890225Y-91293950D03*
D14*
X79805225Y-88753950D03*
X92732225Y-86213950D03*
D12*
X158010225Y-91293950D03*
D11*
X159280225Y-88753950D03*
X165630225Y-86213950D03*
D12*
X168170225Y-91293950D03*
D13*
X163090225Y-91293950D03*
D14*
X156005225Y-88753950D03*
X168932225Y-86213950D03*
D11*
X298980225Y-67163950D03*
D12*
X301520225Y-72243950D03*
D11*
X292630225Y-69703950D03*
D12*
X291360225Y-72243950D03*
D13*
X296440225Y-72243950D03*
D14*
X289355225Y-69703950D03*
X302282225Y-67163950D03*
D11*
X127530225Y-86213950D03*
D12*
X130070225Y-91293950D03*
D11*
X121180225Y-88753950D03*
D12*
X119910225Y-91293950D03*
D13*
X124990225Y-91293950D03*
D14*
X117905225Y-88753950D03*
X130832225Y-86213950D03*
D13*
X105940225Y-91293950D03*
D12*
X111020225Y-91293950D03*
D11*
X108480225Y-86213950D03*
X102130225Y-88753950D03*
D12*
X100860225Y-91293950D03*
D14*
X98855225Y-88753950D03*
X111782225Y-86213950D03*
D12*
X263420225Y-72243950D03*
D11*
X260880225Y-67163950D03*
D13*
X258340225Y-72243950D03*
D11*
X254530225Y-69703950D03*
D12*
X253260225Y-72243950D03*
D14*
X251255225Y-69703950D03*
X264182225Y-67163950D03*
D12*
X234210225Y-72243950D03*
D11*
X241830225Y-67163950D03*
D13*
X239290225Y-72243950D03*
D11*
X235480225Y-69703950D03*
D12*
X244370225Y-72243950D03*
D14*
X232205225Y-69703950D03*
X245132225Y-67163950D03*
D11*
X273580225Y-69703950D03*
D13*
X277390225Y-72243950D03*
D12*
X282470225Y-72243950D03*
D11*
X279930225Y-67163950D03*
D12*
X272310225Y-72243950D03*
D14*
X270305225Y-69703950D03*
X283232225Y-67163950D03*
D11*
X298980225Y-105263950D03*
D12*
X291360225Y-110343950D03*
D13*
X296440225Y-110343950D03*
D12*
X301520225Y-110343950D03*
D11*
X292630225Y-107803950D03*
D14*
X289355225Y-107803950D03*
X302282225Y-105263950D03*
D11*
X298980225Y-86213950D03*
X292630225Y-88753950D03*
D13*
X296440225Y-91293950D03*
D12*
X301520225Y-91293950D03*
X291360225Y-91293950D03*
D14*
X289355225Y-88753950D03*
X302282225Y-86213950D03*
D11*
X292630225Y-50653950D03*
D13*
X296440225Y-53193950D03*
D12*
X301520225Y-53193950D03*
X291360225Y-53193950D03*
D11*
X298980225Y-48113950D03*
D14*
X289355225Y-50653950D03*
X302282225Y-48113950D03*
D15*
X60577713Y-60693958D03*
D16*
X65577713Y-60693958D03*
X63077713Y-60693958D03*
D17*
X57477713Y-53193958D03*
X68677713Y-53193958D03*
D16*
X65577713Y-46193958D03*
X60577713Y-46193958D03*
D11*
X108480225Y-48113950D03*
X102130225Y-50653950D03*
D12*
X111020225Y-53193950D03*
X100860225Y-53193950D03*
D13*
X105940225Y-53193950D03*
D14*
X98855225Y-50653950D03*
X111782225Y-48113950D03*
D13*
X144040225Y-53193950D03*
D12*
X149120225Y-53193950D03*
D11*
X140230225Y-50653950D03*
D12*
X138960225Y-53193950D03*
D11*
X146580225Y-48113950D03*
D14*
X136955225Y-50653950D03*
X149882225Y-48113950D03*
D13*
X63077713Y-110344006D03*
D11*
X65617713Y-105264006D03*
D12*
X57997713Y-110344006D03*
X68157713Y-110344006D03*
D11*
X59267713Y-107804006D03*
D14*
X55992713Y-107804006D03*
X68919713Y-105264006D03*
D12*
X57997713Y-72243974D03*
D11*
X59267713Y-69703974D03*
X65617713Y-67163974D03*
D12*
X68157713Y-72243974D03*
D13*
X63077713Y-72243974D03*
D14*
X55992713Y-69703974D03*
X68919713Y-67163974D03*
D11*
X59267713Y-88753990D03*
X65617713Y-86213990D03*
D12*
X68157713Y-91293990D03*
D13*
X63077713Y-91293990D03*
D12*
X57997713Y-91293990D03*
D14*
X55992713Y-88753990D03*
X68919713Y-86213990D03*
D13*
X201190225Y-91293950D03*
D11*
X203730225Y-86213950D03*
D12*
X206270225Y-91293950D03*
X196110225Y-91293950D03*
D11*
X197380225Y-88753950D03*
D14*
X194105225Y-88753950D03*
X207032225Y-86213950D03*
D11*
X241830225Y-86213950D03*
D12*
X244370225Y-91293950D03*
D13*
X239290225Y-91293950D03*
D12*
X234210225Y-91293950D03*
D11*
X235480225Y-88753950D03*
D14*
X232205225Y-88753950D03*
X245132225Y-86213950D03*
D12*
X91970225Y-110343950D03*
D11*
X89430225Y-105263950D03*
D12*
X81810225Y-110343950D03*
D11*
X83080225Y-107803950D03*
D13*
X86890225Y-110343950D03*
D14*
X79805225Y-107803950D03*
X92732225Y-105263950D03*
D11*
X254530225Y-50653950D03*
X260880225Y-48113950D03*
D12*
X253260225Y-53193950D03*
D13*
X258340225Y-53193950D03*
D12*
X263420225Y-53193950D03*
D14*
X251255225Y-50653950D03*
X264182225Y-48113950D03*
D11*
X121180225Y-69703950D03*
X127530225Y-67163950D03*
D12*
X119910225Y-72243950D03*
D13*
X124990225Y-72243950D03*
D12*
X130070225Y-72243950D03*
D14*
X117905225Y-69703950D03*
X130832225Y-67163950D03*
D12*
X215160225Y-72243950D03*
D13*
X220240225Y-72243950D03*
D11*
X222780225Y-67163950D03*
D12*
X225320225Y-72243950D03*
D11*
X216430225Y-69703950D03*
D14*
X213155225Y-69703950D03*
X226082225Y-67163950D03*
D18*
X74983973Y-53193950D03*
X286915393Y-62718958D03*
X280962279Y-100818990D03*
X96415233Y-100818990D03*
X102368363Y-62718958D03*
D12*
X68157713Y-53193958D03*
D13*
X63077713Y-53193958D03*
D12*
X57997713Y-53193958D03*
D19*
X59267713Y-50653958D03*
X65617713Y-48113958D03*
D20*
X72200000Y-87506450D03*
X72200000Y-85431450D03*
D21*
X116590225Y-94443950D03*
X116590225Y-91143950D03*
X208590225Y-76043950D03*
X208590225Y-72743950D03*
X170490225Y-76043950D03*
X170490225Y-72743950D03*
X135581415Y-76043950D03*
X135581415Y-72743950D03*
X113490225Y-76043950D03*
X113490225Y-72743950D03*
X284890625Y-56306250D03*
X284890625Y-53006250D03*
X249881415Y-56306250D03*
X249881415Y-53006250D03*
X211781415Y-56306250D03*
X211781415Y-53006250D03*
X208681415Y-56306250D03*
X208681415Y-53006250D03*
X173651789Y-56333377D03*
X173651789Y-53033377D03*
X170476789Y-56333377D03*
X170476789Y-53033377D03*
X154751789Y-56306250D03*
X154751789Y-53006250D03*
X287990625Y-113750000D03*
X287990625Y-110450000D03*
X284890625Y-113750000D03*
X284890625Y-110450000D03*
X249890625Y-113713123D03*
X249890625Y-110413123D03*
X246790625Y-113706250D03*
X246790625Y-110406250D03*
X211783999Y-113706250D03*
X211783999Y-110406250D03*
X208700000Y-113706250D03*
X208700000Y-110406250D03*
X211790625Y-94506250D03*
X211790625Y-91206250D03*
X284890625Y-76043950D03*
X284890625Y-72743950D03*
X208690625Y-94506250D03*
X208690625Y-91206250D03*
X170585999Y-94506250D03*
X170585999Y-91206250D03*
X132490225Y-94443950D03*
X132490225Y-91143950D03*
X287990625Y-76043950D03*
X287990625Y-72743950D03*
X284890625Y-94506250D03*
X284890625Y-91206250D03*
X249890625Y-94506250D03*
X249890625Y-91206250D03*
X246790625Y-94506250D03*
X246790625Y-91206250D03*
X173690625Y-113706250D03*
X173690625Y-110406250D03*
X151576789Y-56306250D03*
X151576789Y-53006250D03*
X211690225Y-76043950D03*
X211690225Y-72743950D03*
D22*
X191665313Y-60143950D03*
X191665313Y-49983950D03*
X191665313Y-55063950D03*
X191665313Y-57603950D03*
X191665313Y-52523950D03*
D23*
X191665313Y-47443950D03*
D21*
X287990625Y-56306250D03*
X287990625Y-53006250D03*
X66000000Y-115950000D03*
X66000000Y-112650000D03*
X79200000Y-62443950D03*
X79200000Y-59143950D03*
X70700000Y-76043950D03*
X70700000Y-72743950D03*
D24*
X203690225Y-57443950D03*
X197490225Y-61143950D03*
X203690225Y-61143950D03*
X197490225Y-57443950D03*
D25*
X80765225Y-93868950D03*
X80765225Y-94668950D03*
X80765225Y-95468950D03*
X80765225Y-96268950D03*
X80765225Y-97068950D03*
X80765225Y-97868950D03*
X80765225Y-98668950D03*
X80765225Y-99468950D03*
X80765225Y-100268950D03*
X80765225Y-101068950D03*
X80765225Y-101868950D03*
D26*
X78865225Y-103768950D03*
X78065225Y-103768950D03*
X77265225Y-103768950D03*
X76465225Y-103768950D03*
X75665225Y-103768950D03*
X74865225Y-103768950D03*
X74065225Y-103768950D03*
X73265225Y-103768950D03*
X72465225Y-103768950D03*
X71665225Y-103768950D03*
X70865225Y-103768950D03*
D25*
X68965225Y-101868950D03*
X68965225Y-101068950D03*
X68965225Y-100268950D03*
X68965225Y-99468950D03*
X68965225Y-98668950D03*
X68965225Y-97868950D03*
X68965225Y-97068950D03*
X68965225Y-96268950D03*
X68965225Y-95468950D03*
X68965225Y-94668950D03*
X68965225Y-93868950D03*
D26*
X70865225Y-91968950D03*
X71665225Y-91968950D03*
X72465225Y-91968950D03*
X73265225Y-91968950D03*
X74065225Y-91968950D03*
X74865225Y-91968950D03*
X75665225Y-91968950D03*
X76465225Y-91968950D03*
X77265225Y-91968950D03*
X78065225Y-91968950D03*
X78865225Y-91968950D03*
D27*
X77165225Y-106431450D03*
X77165225Y-108506450D03*
X70165225Y-114231450D03*
X70165225Y-116306450D03*
X81265225Y-114231450D03*
X81265225Y-116306450D03*
D28*
X77303703Y-114056818D03*
X75253093Y-116107428D03*
X73626747Y-114481082D03*
X75677357Y-112430472D03*
D29*
X92390225Y-62518950D03*
X92390225Y-60468950D03*
D30*
X93525217Y-42765450D03*
X99305217Y-42765450D03*
D31*
X93165217Y-44091450D03*
X93965217Y-44091450D03*
D32*
X95165217Y-44091450D03*
X96161217Y-44091450D03*
X96665217Y-44091450D03*
X97665217Y-44091450D03*
D31*
X99665217Y-44091450D03*
X98865217Y-44091450D03*
D32*
X98165217Y-44091450D03*
X97165217Y-44091450D03*
X95665217Y-44091450D03*
X94665217Y-44091450D03*
D33*
X100715217Y-43316450D03*
D34*
X100715217Y-39116450D03*
X92115217Y-39116450D03*
D33*
X92115217Y-43316450D03*
D29*
X97490625Y-58518950D03*
X97490625Y-56468950D03*
X84940225Y-62568950D03*
X84940225Y-60518950D03*
D35*
X90090225Y-60468950D03*
X90090225Y-62518950D03*
D29*
X87790225Y-62518950D03*
X87790225Y-60468950D03*
D21*
X135590625Y-113706250D03*
X135590625Y-110406250D03*
X132490625Y-113713123D03*
X132490625Y-110413123D03*
D36*
X64837500Y-99900000D03*
X62762500Y-99900000D03*
D29*
X95490625Y-58518950D03*
X95490625Y-56468950D03*
D37*
X89412500Y-93850000D03*
X91487500Y-93850000D03*
X85727725Y-97900000D03*
X87802725Y-97900000D03*
D38*
X63640225Y-94500000D03*
X65690225Y-94500000D03*
D21*
X82090225Y-62443950D03*
X82090225Y-59143950D03*
X94290225Y-113743950D03*
X94290225Y-110443950D03*
X97390225Y-113743950D03*
X97390225Y-110443950D03*
X170590625Y-113706250D03*
X170590625Y-110406250D03*
X135590225Y-94443950D03*
X135590225Y-91143950D03*
X173650000Y-94506250D03*
X173650000Y-91206250D03*
X287990625Y-94506250D03*
X287990625Y-91206250D03*
X113490225Y-94443950D03*
X113490225Y-91143950D03*
X135581415Y-56306250D03*
X135581415Y-53006250D03*
X76300000Y-62443950D03*
X76300000Y-59143950D03*
X246781415Y-56306250D03*
X246781415Y-53006250D03*
X132490625Y-56299950D03*
X132490625Y-52999950D03*
D29*
X194990225Y-59818950D03*
X194990225Y-57768950D03*
D21*
X249881415Y-76043950D03*
X249881415Y-72743950D03*
X246781415Y-76043950D03*
X246781415Y-72743950D03*
X173590225Y-76043950D03*
X173590225Y-72743950D03*
X132431415Y-76043950D03*
X132431415Y-72743950D03*
D29*
X108465225Y-59693950D03*
X108465225Y-57643950D03*
D39*
X97490625Y-46743950D03*
D40*
X97490625Y-48443950D03*
X95490625Y-48443950D03*
X95490625Y-46543950D03*
D41*
X58000000Y-116400000D03*
X60600000Y-116400000D03*
X63200000Y-116400000D03*
X58000000Y-112768958D03*
X60600000Y-112768958D03*
D42*
X94990225Y-77993950D03*
X95990225Y-77993950D03*
X96990225Y-77993950D03*
X97990225Y-77993950D03*
D43*
X99290225Y-74118950D03*
X93690225Y-74118950D03*
M02*
