G04 #@! TF.GenerationSoftware,KiCad,Pcbnew,(5.1.4-0)*
G04 #@! TF.CreationDate,2021-11-04T10:17:46-05:00*
G04 #@! TF.ProjectId,top_plate,746f705f-706c-4617-9465-2e6b69636164,rev?*
G04 #@! TF.SameCoordinates,Original*
G04 #@! TF.FileFunction,Paste,Bot*
G04 #@! TF.FilePolarity,Positive*
%FSLAX46Y46*%
G04 Gerber Fmt 4.6, Leading zero omitted, Abs format (unit mm)*
G04 Created by KiCad (PCBNEW (5.1.4-0)) date 2021-11-04 10:17:46*
%MOMM*%
%LPD*%
G04 APERTURE LIST*
%ADD10C,0.100000*%
%ADD11C,0.950000*%
G04 APERTURE END LIST*
D10*
G36*
X377690449Y-50357604D02*
G01*
X377713504Y-50361023D01*
X377736113Y-50366687D01*
X377758057Y-50374539D01*
X377779127Y-50384504D01*
X377799118Y-50396486D01*
X377817838Y-50410370D01*
X377835108Y-50426022D01*
X377850760Y-50443292D01*
X377864644Y-50462012D01*
X377876626Y-50482003D01*
X377886591Y-50503073D01*
X377894443Y-50525017D01*
X377900107Y-50547626D01*
X377903526Y-50570681D01*
X377904670Y-50593960D01*
X377904670Y-51168960D01*
X377903526Y-51192239D01*
X377900107Y-51215294D01*
X377894443Y-51237903D01*
X377886591Y-51259847D01*
X377876626Y-51280917D01*
X377864644Y-51300908D01*
X377850760Y-51319628D01*
X377835108Y-51336898D01*
X377817838Y-51352550D01*
X377799118Y-51366434D01*
X377779127Y-51378416D01*
X377758057Y-51388381D01*
X377736113Y-51396233D01*
X377713504Y-51401897D01*
X377690449Y-51405316D01*
X377667170Y-51406460D01*
X377192170Y-51406460D01*
X377168891Y-51405316D01*
X377145836Y-51401897D01*
X377123227Y-51396233D01*
X377101283Y-51388381D01*
X377080213Y-51378416D01*
X377060222Y-51366434D01*
X377041502Y-51352550D01*
X377024232Y-51336898D01*
X377008580Y-51319628D01*
X376994696Y-51300908D01*
X376982714Y-51280917D01*
X376972749Y-51259847D01*
X376964897Y-51237903D01*
X376959233Y-51215294D01*
X376955814Y-51192239D01*
X376954670Y-51168960D01*
X376954670Y-50593960D01*
X376955814Y-50570681D01*
X376959233Y-50547626D01*
X376964897Y-50525017D01*
X376972749Y-50503073D01*
X376982714Y-50482003D01*
X376994696Y-50462012D01*
X377008580Y-50443292D01*
X377024232Y-50426022D01*
X377041502Y-50410370D01*
X377060222Y-50396486D01*
X377080213Y-50384504D01*
X377101283Y-50374539D01*
X377123227Y-50366687D01*
X377145836Y-50361023D01*
X377168891Y-50357604D01*
X377192170Y-50356460D01*
X377667170Y-50356460D01*
X377690449Y-50357604D01*
X377690449Y-50357604D01*
G37*
D11*
X377429670Y-50881460D03*
D10*
G36*
X377690449Y-48607604D02*
G01*
X377713504Y-48611023D01*
X377736113Y-48616687D01*
X377758057Y-48624539D01*
X377779127Y-48634504D01*
X377799118Y-48646486D01*
X377817838Y-48660370D01*
X377835108Y-48676022D01*
X377850760Y-48693292D01*
X377864644Y-48712012D01*
X377876626Y-48732003D01*
X377886591Y-48753073D01*
X377894443Y-48775017D01*
X377900107Y-48797626D01*
X377903526Y-48820681D01*
X377904670Y-48843960D01*
X377904670Y-49418960D01*
X377903526Y-49442239D01*
X377900107Y-49465294D01*
X377894443Y-49487903D01*
X377886591Y-49509847D01*
X377876626Y-49530917D01*
X377864644Y-49550908D01*
X377850760Y-49569628D01*
X377835108Y-49586898D01*
X377817838Y-49602550D01*
X377799118Y-49616434D01*
X377779127Y-49628416D01*
X377758057Y-49638381D01*
X377736113Y-49646233D01*
X377713504Y-49651897D01*
X377690449Y-49655316D01*
X377667170Y-49656460D01*
X377192170Y-49656460D01*
X377168891Y-49655316D01*
X377145836Y-49651897D01*
X377123227Y-49646233D01*
X377101283Y-49638381D01*
X377080213Y-49628416D01*
X377060222Y-49616434D01*
X377041502Y-49602550D01*
X377024232Y-49586898D01*
X377008580Y-49569628D01*
X376994696Y-49550908D01*
X376982714Y-49530917D01*
X376972749Y-49509847D01*
X376964897Y-49487903D01*
X376959233Y-49465294D01*
X376955814Y-49442239D01*
X376954670Y-49418960D01*
X376954670Y-48843960D01*
X376955814Y-48820681D01*
X376959233Y-48797626D01*
X376964897Y-48775017D01*
X376972749Y-48753073D01*
X376982714Y-48732003D01*
X376994696Y-48712012D01*
X377008580Y-48693292D01*
X377024232Y-48676022D01*
X377041502Y-48660370D01*
X377060222Y-48646486D01*
X377080213Y-48634504D01*
X377101283Y-48624539D01*
X377123227Y-48616687D01*
X377145836Y-48611023D01*
X377168891Y-48607604D01*
X377192170Y-48606460D01*
X377667170Y-48606460D01*
X377690449Y-48607604D01*
X377690449Y-48607604D01*
G37*
D11*
X377429670Y-49131460D03*
M02*
