G04 #@! TF.GenerationSoftware,KiCad,Pcbnew,(5.1.10-1-10_14)*
G04 #@! TF.CreationDate,2021-08-22T11:54:37-05:00*
G04 #@! TF.ProjectId,ori_bottom_plate,6f72695f-626f-4747-946f-6d5f706c6174,rev?*
G04 #@! TF.SameCoordinates,Original*
G04 #@! TF.FileFunction,Copper,L2,Bot*
G04 #@! TF.FilePolarity,Positive*
%FSLAX46Y46*%
G04 Gerber Fmt 4.6, Leading zero omitted, Abs format (unit mm)*
G04 Created by KiCad (PCBNEW (5.1.10-1-10_14)) date 2021-08-22 11:54:37*
%MOMM*%
%LPD*%
G01*
G04 APERTURE LIST*
G04 #@! TA.AperFunction,ComponentPad*
%ADD10C,3.500000*%
G04 #@! TD*
G04 #@! TA.AperFunction,ViaPad*
%ADD11C,0.500000*%
G04 #@! TD*
G04 #@! TA.AperFunction,Conductor*
%ADD12C,0.254000*%
G04 #@! TD*
G04 #@! TA.AperFunction,Conductor*
%ADD13C,0.100000*%
G04 #@! TD*
G04 APERTURE END LIST*
D10*
X356023442Y-117264265D03*
X356023442Y-39873575D03*
X260773394Y-117264265D03*
X260773394Y-39873575D03*
X165523314Y-117264265D03*
X165523314Y-39873575D03*
X389360818Y-39873640D03*
X389360818Y-117264200D03*
D11*
X385194165Y-59518840D03*
D12*
X353909882Y-41003296D02*
X354170892Y-41393924D01*
X354503093Y-41726125D01*
X354893721Y-41987135D01*
X355327763Y-42166921D01*
X355788540Y-42258575D01*
X356258344Y-42258575D01*
X356719121Y-42166921D01*
X357153163Y-41987135D01*
X357543791Y-41726125D01*
X357875992Y-41393924D01*
X358137002Y-41003296D01*
X358204230Y-40840992D01*
X358253148Y-40880889D01*
X358302967Y-40913988D01*
X358352330Y-40947788D01*
X358360437Y-40952170D01*
X358463022Y-41006716D01*
X358518329Y-41029511D01*
X358573307Y-41053075D01*
X358582111Y-41055800D01*
X358693337Y-41089381D01*
X358751988Y-41100994D01*
X358810525Y-41113437D01*
X358819690Y-41114400D01*
X358935321Y-41125738D01*
X358935325Y-41125738D01*
X358967308Y-41128888D01*
X386416488Y-41128888D01*
X386444470Y-41126132D01*
X386448039Y-41126157D01*
X386457211Y-41125258D01*
X386572758Y-41113114D01*
X386631361Y-41101084D01*
X386690119Y-41089876D01*
X386698941Y-41087212D01*
X386809930Y-41052855D01*
X386865012Y-41029701D01*
X386920536Y-41007268D01*
X386928672Y-41002941D01*
X387030874Y-40947681D01*
X387080442Y-40914246D01*
X387130523Y-40881475D01*
X387137664Y-40875651D01*
X387179890Y-40840719D01*
X387247258Y-41003361D01*
X387508268Y-41393989D01*
X387840469Y-41726190D01*
X388231097Y-41987200D01*
X388665139Y-42166986D01*
X389125916Y-42258640D01*
X389595720Y-42258640D01*
X390056497Y-42166986D01*
X390490539Y-41987200D01*
X390881167Y-41726190D01*
X391213368Y-41393989D01*
X391474378Y-41003361D01*
X391541651Y-40840950D01*
X391590620Y-40880889D01*
X391640439Y-40913988D01*
X391689802Y-40947788D01*
X391697909Y-40952170D01*
X391800494Y-41006716D01*
X391855801Y-41029511D01*
X391910779Y-41053075D01*
X391919583Y-41055800D01*
X392030809Y-41089381D01*
X392089460Y-41100994D01*
X392147997Y-41113437D01*
X392157162Y-41114400D01*
X392272793Y-41125738D01*
X392272808Y-41125738D01*
X392304801Y-41128888D01*
X396472881Y-41128761D01*
X396838861Y-41164646D01*
X397159864Y-41261562D01*
X397455930Y-41418983D01*
X397715777Y-41630909D01*
X397929515Y-41889272D01*
X398088998Y-42184230D01*
X398188154Y-42504552D01*
X398226411Y-42868543D01*
X398226410Y-114255541D01*
X398190524Y-114621531D01*
X398093607Y-114942538D01*
X397936187Y-115238599D01*
X397724259Y-115498448D01*
X397465896Y-115712186D01*
X397170940Y-115871668D01*
X396850618Y-115970824D01*
X396486642Y-116009079D01*
X392305169Y-116008952D01*
X392277177Y-116011708D01*
X392273596Y-116011683D01*
X392264425Y-116012582D01*
X392148877Y-116024726D01*
X392090267Y-116036757D01*
X392031517Y-116047964D01*
X392022695Y-116050628D01*
X391911706Y-116084985D01*
X391856624Y-116108139D01*
X391801100Y-116130572D01*
X391792964Y-116134899D01*
X391690762Y-116190159D01*
X391641171Y-116223609D01*
X391591113Y-116256365D01*
X391583972Y-116262189D01*
X391541746Y-116297121D01*
X391474378Y-116134479D01*
X391213368Y-115743851D01*
X390881167Y-115411650D01*
X390490539Y-115150640D01*
X390056497Y-114970854D01*
X389595720Y-114879200D01*
X389125916Y-114879200D01*
X388665139Y-114970854D01*
X388231097Y-115150640D01*
X387840469Y-115411650D01*
X387508268Y-115743851D01*
X387247258Y-116134479D01*
X387179985Y-116296890D01*
X387131016Y-116256952D01*
X387081212Y-116223863D01*
X387031834Y-116190053D01*
X387023728Y-116185670D01*
X386921142Y-116131125D01*
X386865856Y-116108338D01*
X386810857Y-116084765D01*
X386802054Y-116082040D01*
X386690827Y-116048459D01*
X386632176Y-116036846D01*
X386573639Y-116024403D01*
X386564474Y-116023440D01*
X386448844Y-116012102D01*
X386448837Y-116012102D01*
X386416854Y-116008952D01*
X358967776Y-116009017D01*
X358939804Y-116011772D01*
X358936225Y-116011747D01*
X358927054Y-116012646D01*
X358811506Y-116024790D01*
X358752896Y-116036821D01*
X358694146Y-116048028D01*
X358685324Y-116050692D01*
X358574335Y-116085049D01*
X358519253Y-116108203D01*
X358463729Y-116130636D01*
X358455593Y-116134963D01*
X358353391Y-116190223D01*
X358303800Y-116223673D01*
X358253742Y-116256429D01*
X358246601Y-116262253D01*
X358204371Y-116297188D01*
X358137002Y-116134544D01*
X357875992Y-115743916D01*
X357543791Y-115411715D01*
X357153163Y-115150705D01*
X356719121Y-114970919D01*
X356258344Y-114879265D01*
X355788540Y-114879265D01*
X355327763Y-114970919D01*
X354893721Y-115150705D01*
X354503093Y-115411715D01*
X354170892Y-115743916D01*
X353909882Y-116134544D01*
X353842611Y-116296951D01*
X353793645Y-116257016D01*
X353743841Y-116223927D01*
X353694463Y-116190117D01*
X353686357Y-116185734D01*
X353583771Y-116131189D01*
X353528485Y-116108402D01*
X353473486Y-116084829D01*
X353464683Y-116082104D01*
X353353456Y-116048523D01*
X353294805Y-116036910D01*
X353236268Y-116024467D01*
X353227103Y-116023504D01*
X353111473Y-116012166D01*
X353111458Y-116012166D01*
X353079485Y-116009017D01*
X263717757Y-116008952D01*
X263689775Y-116011708D01*
X263686204Y-116011683D01*
X263677033Y-116012582D01*
X263561485Y-116024726D01*
X263502875Y-116036757D01*
X263444125Y-116047964D01*
X263435303Y-116050628D01*
X263324314Y-116084985D01*
X263269232Y-116108139D01*
X263213708Y-116130572D01*
X263205572Y-116134899D01*
X263103370Y-116190159D01*
X263053779Y-116223609D01*
X263003721Y-116256365D01*
X262996580Y-116262189D01*
X262954311Y-116297157D01*
X262886954Y-116134544D01*
X262625944Y-115743916D01*
X262293743Y-115411715D01*
X261903115Y-115150705D01*
X261469073Y-114970919D01*
X261008296Y-114879265D01*
X260538492Y-114879265D01*
X260077715Y-114970919D01*
X259643673Y-115150705D01*
X259253045Y-115411715D01*
X258920844Y-115743916D01*
X258659834Y-116134544D01*
X258592589Y-116296887D01*
X258543624Y-116256952D01*
X258493820Y-116223863D01*
X258444442Y-116190053D01*
X258436336Y-116185670D01*
X258333750Y-116131125D01*
X258278464Y-116108338D01*
X258223465Y-116084765D01*
X258214662Y-116082040D01*
X258103435Y-116048459D01*
X258044784Y-116036846D01*
X257986247Y-116024403D01*
X257977082Y-116023440D01*
X257861452Y-116012102D01*
X257861446Y-116012102D01*
X257829463Y-116008952D01*
X168467649Y-116009017D01*
X168439677Y-116011772D01*
X168436097Y-116011747D01*
X168426926Y-116012646D01*
X168311378Y-116024790D01*
X168252768Y-116036821D01*
X168194018Y-116048028D01*
X168185196Y-116050692D01*
X168074207Y-116085049D01*
X168019125Y-116108203D01*
X167963601Y-116130636D01*
X167955465Y-116134963D01*
X167853263Y-116190223D01*
X167803672Y-116223673D01*
X167753614Y-116256429D01*
X167746473Y-116262253D01*
X167704243Y-116297188D01*
X167636874Y-116134544D01*
X167375864Y-115743916D01*
X167043663Y-115411715D01*
X166653035Y-115150705D01*
X166218993Y-114970919D01*
X165758216Y-114879265D01*
X165288412Y-114879265D01*
X164827635Y-114970919D01*
X164393593Y-115150705D01*
X164002965Y-115411715D01*
X163670764Y-115743916D01*
X163409754Y-116134544D01*
X163342483Y-116296951D01*
X163293517Y-116257016D01*
X163243713Y-116223927D01*
X163194335Y-116190117D01*
X163186229Y-116185734D01*
X163083643Y-116131189D01*
X163028357Y-116108402D01*
X162973358Y-116084829D01*
X162964555Y-116082104D01*
X162853328Y-116048523D01*
X162794677Y-116036910D01*
X162736140Y-116024467D01*
X162726975Y-116023504D01*
X162611345Y-116012166D01*
X162611336Y-116012166D01*
X162579353Y-116009016D01*
X148886396Y-116009081D01*
X148520399Y-115973194D01*
X148199392Y-115876277D01*
X147903331Y-115718857D01*
X147643482Y-115506929D01*
X147429744Y-115248566D01*
X147270262Y-114953610D01*
X147171106Y-114633288D01*
X147132850Y-114269307D01*
X147132850Y-49823061D01*
X201888474Y-49823061D01*
X201888474Y-50164827D01*
X201955149Y-50500025D01*
X202085937Y-50815775D01*
X202275811Y-51099942D01*
X202517476Y-51341607D01*
X202801643Y-51531481D01*
X203117393Y-51662269D01*
X203452591Y-51728944D01*
X203794357Y-51728944D01*
X204129555Y-51662269D01*
X204445305Y-51531481D01*
X204729472Y-51341607D01*
X204971137Y-51099942D01*
X205161011Y-50815775D01*
X205291799Y-50500025D01*
X205358474Y-50164827D01*
X205358474Y-49823061D01*
X205291799Y-49487863D01*
X205161011Y-49172113D01*
X204971137Y-48887946D01*
X204729472Y-48646281D01*
X204445305Y-48456407D01*
X204129555Y-48325619D01*
X203794357Y-48258944D01*
X203452591Y-48258944D01*
X203117393Y-48325619D01*
X202801643Y-48456407D01*
X202517476Y-48646281D01*
X202275811Y-48887946D01*
X202085937Y-49172113D01*
X201955149Y-49487863D01*
X201888474Y-49823061D01*
X147132850Y-49823061D01*
X147132850Y-42882299D01*
X147168736Y-42516309D01*
X147265652Y-42195306D01*
X147423073Y-41899240D01*
X147634999Y-41639393D01*
X147893362Y-41425655D01*
X148188320Y-41266172D01*
X148508642Y-41167016D01*
X148872628Y-41128759D01*
X162579169Y-41128888D01*
X162607154Y-41126132D01*
X162610727Y-41126157D01*
X162619899Y-41125258D01*
X162735446Y-41113114D01*
X162794049Y-41101084D01*
X162852807Y-41089876D01*
X162861629Y-41087212D01*
X162972618Y-41052855D01*
X163027700Y-41029701D01*
X163083224Y-41007268D01*
X163091360Y-41002941D01*
X163193562Y-40947681D01*
X163243130Y-40914246D01*
X163293211Y-40881475D01*
X163300352Y-40875651D01*
X163342455Y-40840821D01*
X163409754Y-41003296D01*
X163670764Y-41393924D01*
X164002965Y-41726125D01*
X164393593Y-41987135D01*
X164827635Y-42166921D01*
X165288412Y-42258575D01*
X165758216Y-42258575D01*
X166218993Y-42166921D01*
X166653035Y-41987135D01*
X167043663Y-41726125D01*
X167375864Y-41393924D01*
X167636874Y-41003296D01*
X167704175Y-40840817D01*
X167753308Y-40880889D01*
X167803127Y-40913988D01*
X167852490Y-40947788D01*
X167860597Y-40952170D01*
X167963182Y-41006716D01*
X168018489Y-41029511D01*
X168073467Y-41053075D01*
X168082271Y-41055800D01*
X168193497Y-41089381D01*
X168252148Y-41100994D01*
X168310685Y-41113437D01*
X168319850Y-41114400D01*
X168435481Y-41125738D01*
X168435485Y-41125738D01*
X168467468Y-41128888D01*
X257829096Y-41128888D01*
X257857078Y-41126132D01*
X257860647Y-41126157D01*
X257869819Y-41125258D01*
X257985366Y-41113114D01*
X258043969Y-41101084D01*
X258102727Y-41089876D01*
X258111549Y-41087212D01*
X258222538Y-41052855D01*
X258277620Y-41029701D01*
X258333144Y-41007268D01*
X258341280Y-41002941D01*
X258443482Y-40947681D01*
X258493050Y-40914246D01*
X258543131Y-40881475D01*
X258550272Y-40875651D01*
X258592494Y-40840722D01*
X258659834Y-41003296D01*
X258920844Y-41393924D01*
X259253045Y-41726125D01*
X259643673Y-41987135D01*
X260077715Y-42166921D01*
X260538492Y-42258575D01*
X261008296Y-42258575D01*
X261469073Y-42166921D01*
X261903115Y-41987135D01*
X262293743Y-41726125D01*
X262625944Y-41393924D01*
X262886954Y-41003296D01*
X262954215Y-40840914D01*
X263003228Y-40880889D01*
X263053047Y-40913988D01*
X263102410Y-40947788D01*
X263110517Y-40952170D01*
X263213102Y-41006716D01*
X263268409Y-41029511D01*
X263323387Y-41053075D01*
X263332191Y-41055800D01*
X263443417Y-41089381D01*
X263502068Y-41100994D01*
X263560605Y-41113437D01*
X263569770Y-41114400D01*
X263685401Y-41125738D01*
X263685405Y-41125738D01*
X263717388Y-41128888D01*
X353079016Y-41128888D01*
X353106998Y-41126132D01*
X353110567Y-41126157D01*
X353119739Y-41125258D01*
X353235286Y-41113114D01*
X353293889Y-41101084D01*
X353352647Y-41089876D01*
X353361469Y-41087212D01*
X353472458Y-41052855D01*
X353527540Y-41029701D01*
X353583064Y-41007268D01*
X353591200Y-41002941D01*
X353693402Y-40947681D01*
X353742970Y-40914246D01*
X353793051Y-40881475D01*
X353800192Y-40875651D01*
X353842509Y-40840643D01*
X353909882Y-41003296D01*
G04 #@! TA.AperFunction,Conductor*
D13*
G36*
X353909882Y-41003296D02*
G01*
X354170892Y-41393924D01*
X354503093Y-41726125D01*
X354893721Y-41987135D01*
X355327763Y-42166921D01*
X355788540Y-42258575D01*
X356258344Y-42258575D01*
X356719121Y-42166921D01*
X357153163Y-41987135D01*
X357543791Y-41726125D01*
X357875992Y-41393924D01*
X358137002Y-41003296D01*
X358204230Y-40840992D01*
X358253148Y-40880889D01*
X358302967Y-40913988D01*
X358352330Y-40947788D01*
X358360437Y-40952170D01*
X358463022Y-41006716D01*
X358518329Y-41029511D01*
X358573307Y-41053075D01*
X358582111Y-41055800D01*
X358693337Y-41089381D01*
X358751988Y-41100994D01*
X358810525Y-41113437D01*
X358819690Y-41114400D01*
X358935321Y-41125738D01*
X358935325Y-41125738D01*
X358967308Y-41128888D01*
X386416488Y-41128888D01*
X386444470Y-41126132D01*
X386448039Y-41126157D01*
X386457211Y-41125258D01*
X386572758Y-41113114D01*
X386631361Y-41101084D01*
X386690119Y-41089876D01*
X386698941Y-41087212D01*
X386809930Y-41052855D01*
X386865012Y-41029701D01*
X386920536Y-41007268D01*
X386928672Y-41002941D01*
X387030874Y-40947681D01*
X387080442Y-40914246D01*
X387130523Y-40881475D01*
X387137664Y-40875651D01*
X387179890Y-40840719D01*
X387247258Y-41003361D01*
X387508268Y-41393989D01*
X387840469Y-41726190D01*
X388231097Y-41987200D01*
X388665139Y-42166986D01*
X389125916Y-42258640D01*
X389595720Y-42258640D01*
X390056497Y-42166986D01*
X390490539Y-41987200D01*
X390881167Y-41726190D01*
X391213368Y-41393989D01*
X391474378Y-41003361D01*
X391541651Y-40840950D01*
X391590620Y-40880889D01*
X391640439Y-40913988D01*
X391689802Y-40947788D01*
X391697909Y-40952170D01*
X391800494Y-41006716D01*
X391855801Y-41029511D01*
X391910779Y-41053075D01*
X391919583Y-41055800D01*
X392030809Y-41089381D01*
X392089460Y-41100994D01*
X392147997Y-41113437D01*
X392157162Y-41114400D01*
X392272793Y-41125738D01*
X392272808Y-41125738D01*
X392304801Y-41128888D01*
X396472881Y-41128761D01*
X396838861Y-41164646D01*
X397159864Y-41261562D01*
X397455930Y-41418983D01*
X397715777Y-41630909D01*
X397929515Y-41889272D01*
X398088998Y-42184230D01*
X398188154Y-42504552D01*
X398226411Y-42868543D01*
X398226410Y-114255541D01*
X398190524Y-114621531D01*
X398093607Y-114942538D01*
X397936187Y-115238599D01*
X397724259Y-115498448D01*
X397465896Y-115712186D01*
X397170940Y-115871668D01*
X396850618Y-115970824D01*
X396486642Y-116009079D01*
X392305169Y-116008952D01*
X392277177Y-116011708D01*
X392273596Y-116011683D01*
X392264425Y-116012582D01*
X392148877Y-116024726D01*
X392090267Y-116036757D01*
X392031517Y-116047964D01*
X392022695Y-116050628D01*
X391911706Y-116084985D01*
X391856624Y-116108139D01*
X391801100Y-116130572D01*
X391792964Y-116134899D01*
X391690762Y-116190159D01*
X391641171Y-116223609D01*
X391591113Y-116256365D01*
X391583972Y-116262189D01*
X391541746Y-116297121D01*
X391474378Y-116134479D01*
X391213368Y-115743851D01*
X390881167Y-115411650D01*
X390490539Y-115150640D01*
X390056497Y-114970854D01*
X389595720Y-114879200D01*
X389125916Y-114879200D01*
X388665139Y-114970854D01*
X388231097Y-115150640D01*
X387840469Y-115411650D01*
X387508268Y-115743851D01*
X387247258Y-116134479D01*
X387179985Y-116296890D01*
X387131016Y-116256952D01*
X387081212Y-116223863D01*
X387031834Y-116190053D01*
X387023728Y-116185670D01*
X386921142Y-116131125D01*
X386865856Y-116108338D01*
X386810857Y-116084765D01*
X386802054Y-116082040D01*
X386690827Y-116048459D01*
X386632176Y-116036846D01*
X386573639Y-116024403D01*
X386564474Y-116023440D01*
X386448844Y-116012102D01*
X386448837Y-116012102D01*
X386416854Y-116008952D01*
X358967776Y-116009017D01*
X358939804Y-116011772D01*
X358936225Y-116011747D01*
X358927054Y-116012646D01*
X358811506Y-116024790D01*
X358752896Y-116036821D01*
X358694146Y-116048028D01*
X358685324Y-116050692D01*
X358574335Y-116085049D01*
X358519253Y-116108203D01*
X358463729Y-116130636D01*
X358455593Y-116134963D01*
X358353391Y-116190223D01*
X358303800Y-116223673D01*
X358253742Y-116256429D01*
X358246601Y-116262253D01*
X358204371Y-116297188D01*
X358137002Y-116134544D01*
X357875992Y-115743916D01*
X357543791Y-115411715D01*
X357153163Y-115150705D01*
X356719121Y-114970919D01*
X356258344Y-114879265D01*
X355788540Y-114879265D01*
X355327763Y-114970919D01*
X354893721Y-115150705D01*
X354503093Y-115411715D01*
X354170892Y-115743916D01*
X353909882Y-116134544D01*
X353842611Y-116296951D01*
X353793645Y-116257016D01*
X353743841Y-116223927D01*
X353694463Y-116190117D01*
X353686357Y-116185734D01*
X353583771Y-116131189D01*
X353528485Y-116108402D01*
X353473486Y-116084829D01*
X353464683Y-116082104D01*
X353353456Y-116048523D01*
X353294805Y-116036910D01*
X353236268Y-116024467D01*
X353227103Y-116023504D01*
X353111473Y-116012166D01*
X353111458Y-116012166D01*
X353079485Y-116009017D01*
X263717757Y-116008952D01*
X263689775Y-116011708D01*
X263686204Y-116011683D01*
X263677033Y-116012582D01*
X263561485Y-116024726D01*
X263502875Y-116036757D01*
X263444125Y-116047964D01*
X263435303Y-116050628D01*
X263324314Y-116084985D01*
X263269232Y-116108139D01*
X263213708Y-116130572D01*
X263205572Y-116134899D01*
X263103370Y-116190159D01*
X263053779Y-116223609D01*
X263003721Y-116256365D01*
X262996580Y-116262189D01*
X262954311Y-116297157D01*
X262886954Y-116134544D01*
X262625944Y-115743916D01*
X262293743Y-115411715D01*
X261903115Y-115150705D01*
X261469073Y-114970919D01*
X261008296Y-114879265D01*
X260538492Y-114879265D01*
X260077715Y-114970919D01*
X259643673Y-115150705D01*
X259253045Y-115411715D01*
X258920844Y-115743916D01*
X258659834Y-116134544D01*
X258592589Y-116296887D01*
X258543624Y-116256952D01*
X258493820Y-116223863D01*
X258444442Y-116190053D01*
X258436336Y-116185670D01*
X258333750Y-116131125D01*
X258278464Y-116108338D01*
X258223465Y-116084765D01*
X258214662Y-116082040D01*
X258103435Y-116048459D01*
X258044784Y-116036846D01*
X257986247Y-116024403D01*
X257977082Y-116023440D01*
X257861452Y-116012102D01*
X257861446Y-116012102D01*
X257829463Y-116008952D01*
X168467649Y-116009017D01*
X168439677Y-116011772D01*
X168436097Y-116011747D01*
X168426926Y-116012646D01*
X168311378Y-116024790D01*
X168252768Y-116036821D01*
X168194018Y-116048028D01*
X168185196Y-116050692D01*
X168074207Y-116085049D01*
X168019125Y-116108203D01*
X167963601Y-116130636D01*
X167955465Y-116134963D01*
X167853263Y-116190223D01*
X167803672Y-116223673D01*
X167753614Y-116256429D01*
X167746473Y-116262253D01*
X167704243Y-116297188D01*
X167636874Y-116134544D01*
X167375864Y-115743916D01*
X167043663Y-115411715D01*
X166653035Y-115150705D01*
X166218993Y-114970919D01*
X165758216Y-114879265D01*
X165288412Y-114879265D01*
X164827635Y-114970919D01*
X164393593Y-115150705D01*
X164002965Y-115411715D01*
X163670764Y-115743916D01*
X163409754Y-116134544D01*
X163342483Y-116296951D01*
X163293517Y-116257016D01*
X163243713Y-116223927D01*
X163194335Y-116190117D01*
X163186229Y-116185734D01*
X163083643Y-116131189D01*
X163028357Y-116108402D01*
X162973358Y-116084829D01*
X162964555Y-116082104D01*
X162853328Y-116048523D01*
X162794677Y-116036910D01*
X162736140Y-116024467D01*
X162726975Y-116023504D01*
X162611345Y-116012166D01*
X162611336Y-116012166D01*
X162579353Y-116009016D01*
X148886396Y-116009081D01*
X148520399Y-115973194D01*
X148199392Y-115876277D01*
X147903331Y-115718857D01*
X147643482Y-115506929D01*
X147429744Y-115248566D01*
X147270262Y-114953610D01*
X147171106Y-114633288D01*
X147132850Y-114269307D01*
X147132850Y-49823061D01*
X201888474Y-49823061D01*
X201888474Y-50164827D01*
X201955149Y-50500025D01*
X202085937Y-50815775D01*
X202275811Y-51099942D01*
X202517476Y-51341607D01*
X202801643Y-51531481D01*
X203117393Y-51662269D01*
X203452591Y-51728944D01*
X203794357Y-51728944D01*
X204129555Y-51662269D01*
X204445305Y-51531481D01*
X204729472Y-51341607D01*
X204971137Y-51099942D01*
X205161011Y-50815775D01*
X205291799Y-50500025D01*
X205358474Y-50164827D01*
X205358474Y-49823061D01*
X205291799Y-49487863D01*
X205161011Y-49172113D01*
X204971137Y-48887946D01*
X204729472Y-48646281D01*
X204445305Y-48456407D01*
X204129555Y-48325619D01*
X203794357Y-48258944D01*
X203452591Y-48258944D01*
X203117393Y-48325619D01*
X202801643Y-48456407D01*
X202517476Y-48646281D01*
X202275811Y-48887946D01*
X202085937Y-49172113D01*
X201955149Y-49487863D01*
X201888474Y-49823061D01*
X147132850Y-49823061D01*
X147132850Y-42882299D01*
X147168736Y-42516309D01*
X147265652Y-42195306D01*
X147423073Y-41899240D01*
X147634999Y-41639393D01*
X147893362Y-41425655D01*
X148188320Y-41266172D01*
X148508642Y-41167016D01*
X148872628Y-41128759D01*
X162579169Y-41128888D01*
X162607154Y-41126132D01*
X162610727Y-41126157D01*
X162619899Y-41125258D01*
X162735446Y-41113114D01*
X162794049Y-41101084D01*
X162852807Y-41089876D01*
X162861629Y-41087212D01*
X162972618Y-41052855D01*
X163027700Y-41029701D01*
X163083224Y-41007268D01*
X163091360Y-41002941D01*
X163193562Y-40947681D01*
X163243130Y-40914246D01*
X163293211Y-40881475D01*
X163300352Y-40875651D01*
X163342455Y-40840821D01*
X163409754Y-41003296D01*
X163670764Y-41393924D01*
X164002965Y-41726125D01*
X164393593Y-41987135D01*
X164827635Y-42166921D01*
X165288412Y-42258575D01*
X165758216Y-42258575D01*
X166218993Y-42166921D01*
X166653035Y-41987135D01*
X167043663Y-41726125D01*
X167375864Y-41393924D01*
X167636874Y-41003296D01*
X167704175Y-40840817D01*
X167753308Y-40880889D01*
X167803127Y-40913988D01*
X167852490Y-40947788D01*
X167860597Y-40952170D01*
X167963182Y-41006716D01*
X168018489Y-41029511D01*
X168073467Y-41053075D01*
X168082271Y-41055800D01*
X168193497Y-41089381D01*
X168252148Y-41100994D01*
X168310685Y-41113437D01*
X168319850Y-41114400D01*
X168435481Y-41125738D01*
X168435485Y-41125738D01*
X168467468Y-41128888D01*
X257829096Y-41128888D01*
X257857078Y-41126132D01*
X257860647Y-41126157D01*
X257869819Y-41125258D01*
X257985366Y-41113114D01*
X258043969Y-41101084D01*
X258102727Y-41089876D01*
X258111549Y-41087212D01*
X258222538Y-41052855D01*
X258277620Y-41029701D01*
X258333144Y-41007268D01*
X258341280Y-41002941D01*
X258443482Y-40947681D01*
X258493050Y-40914246D01*
X258543131Y-40881475D01*
X258550272Y-40875651D01*
X258592494Y-40840722D01*
X258659834Y-41003296D01*
X258920844Y-41393924D01*
X259253045Y-41726125D01*
X259643673Y-41987135D01*
X260077715Y-42166921D01*
X260538492Y-42258575D01*
X261008296Y-42258575D01*
X261469073Y-42166921D01*
X261903115Y-41987135D01*
X262293743Y-41726125D01*
X262625944Y-41393924D01*
X262886954Y-41003296D01*
X262954215Y-40840914D01*
X263003228Y-40880889D01*
X263053047Y-40913988D01*
X263102410Y-40947788D01*
X263110517Y-40952170D01*
X263213102Y-41006716D01*
X263268409Y-41029511D01*
X263323387Y-41053075D01*
X263332191Y-41055800D01*
X263443417Y-41089381D01*
X263502068Y-41100994D01*
X263560605Y-41113437D01*
X263569770Y-41114400D01*
X263685401Y-41125738D01*
X263685405Y-41125738D01*
X263717388Y-41128888D01*
X353079016Y-41128888D01*
X353106998Y-41126132D01*
X353110567Y-41126157D01*
X353119739Y-41125258D01*
X353235286Y-41113114D01*
X353293889Y-41101084D01*
X353352647Y-41089876D01*
X353361469Y-41087212D01*
X353472458Y-41052855D01*
X353527540Y-41029701D01*
X353583064Y-41007268D01*
X353591200Y-41002941D01*
X353693402Y-40947681D01*
X353742970Y-40914246D01*
X353793051Y-40881475D01*
X353800192Y-40875651D01*
X353842509Y-40840643D01*
X353909882Y-41003296D01*
G37*
G04 #@! TD.AperFunction*
M02*
