M48
; DRILL file {KiCad (6.0.1-0)} date Tuesday, April 19, 2022 at 10:54:22 PM
; FORMAT={-:-/ absolute / inch / decimal}
; #@! TF.CreationDate,2022-04-19T22:54:22-05:00
; #@! TF.GenerationSoftware,Kicad,Pcbnew,(6.0.1-0)
; #@! TF.FileFunction,NonPlated,1,2,NPTH
FMAT,2
INCH
; #@! TA.AperFunction,NonPlated,NPTH,ComponentDrill
T1C0.0256
; #@! TA.AperFunction,NonPlated,NPTH,ComponentDrill
T2C0.0689
; #@! TA.AperFunction,NonPlated,NPTH,ComponentDrill
T3C0.1181
; #@! TA.AperFunction,NonPlated,NPTH,ComponentDrill
T4C0.1570
%
G90
G05
T1
X3.6821Y-1.6837
X3.9097Y-1.6837
T2
X3.2209Y-2.0943
X3.2209Y-2.8442
X3.2209Y-3.5942
X3.2209Y-4.3442
X3.6209Y-2.0943
X3.6209Y-2.8442
X3.6209Y-3.5942
X3.6209Y-4.3442
X3.9709Y-2.0943
X3.9709Y-2.8442
X3.9709Y-3.5942
X3.9709Y-4.3442
X4.3709Y-2.0943
X4.3709Y-2.8442
X4.3709Y-3.5942
X4.3709Y-4.3442
X4.7209Y-2.0943
X4.7209Y-2.8442
X4.7209Y-3.5942
X4.7209Y-4.3442
X5.1209Y-2.0943
X5.1209Y-2.8442
X5.1209Y-3.5942
X5.1209Y-4.3442
X5.4709Y-2.0943
X5.4709Y-3.5942
X5.4709Y-4.3442
X5.4711Y-2.8442
X5.8709Y-2.0943
X5.8709Y-3.5942
X5.8709Y-4.3442
X5.8711Y-2.8442
X6.2209Y-2.0943
X6.2209Y-2.8442
X6.2209Y-3.5942
X6.2209Y-4.3442
X6.6209Y-2.0943
X6.6209Y-2.8442
X6.6209Y-3.5942
X6.6209Y-4.3442
X6.9709Y-2.0943
X6.9709Y-2.8442
X6.9709Y-3.5942
X6.9709Y-4.3442
X7.3709Y-2.0943
X7.3709Y-2.8442
X7.3709Y-3.5942
X7.3709Y-4.3442
X7.7209Y-2.0943
X7.7209Y-2.8442
X7.7209Y-3.5942
X7.7209Y-4.3442
X8.1209Y-2.0943
X8.1209Y-2.8442
X8.1209Y-3.5942
X8.1209Y-4.3442
X8.4709Y-2.0943
X8.4709Y-2.8442
X8.4709Y-3.5942
X8.4709Y-4.3442
X8.8709Y-2.0943
X8.8709Y-2.8442
X8.8709Y-3.5942
X8.8709Y-4.3442
X9.2209Y-2.0943
X9.2209Y-2.8442
X9.2209Y-3.5942
X9.2209Y-4.3442
X9.6209Y-2.0943
X9.6209Y-2.8442
X9.6209Y-3.5942
X9.6209Y-4.3442
X9.9709Y-2.0943
X9.9709Y-2.8442
X9.9709Y-3.5942
X9.9709Y-4.3442
X10.3709Y-2.0943
X10.3709Y-2.8442
X10.3709Y-3.5942
X10.3709Y-4.3442
X10.7209Y-2.0943
X10.7209Y-2.8442
X10.7209Y-3.5942
X10.7209Y-4.3442
X11.1209Y-2.0943
X11.1209Y-2.8442
X11.1209Y-3.5942
X11.1209Y-4.3442
X11.4709Y-2.0943
X11.4709Y-2.8442
X11.4709Y-3.5942
X11.4709Y-4.3442
X11.8709Y-2.0943
X11.8709Y-2.8442
X11.8709Y-3.5942
X11.8709Y-4.3442
X12.4084Y-2.8443
X12.4084Y-3.5943
X12.4084Y-4.3443
X12.8084Y-2.8443
X12.8084Y-3.5943
X12.8084Y-4.3443
T3
X3.2709Y-1.9942
X3.2709Y-2.7443
X3.2709Y-3.4943
X3.2709Y-4.2443
X3.5209Y-1.8942
X3.5209Y-2.6442
X3.5209Y-3.3942
X3.5209Y-4.1442
X4.0209Y-1.9942
X4.0209Y-2.7443
X4.0209Y-3.4943
X4.0209Y-4.2443
X4.2709Y-1.8942
X4.2709Y-2.6442
X4.2709Y-3.3942
X4.2709Y-4.1442
X4.7709Y-1.9942
X4.7709Y-2.7443
X4.7709Y-3.4943
X4.7709Y-4.2443
X5.0209Y-1.8942
X5.0209Y-2.6442
X5.0209Y-3.3942
X5.0209Y-4.1442
X5.5209Y-1.9942
X5.5209Y-3.4943
X5.5209Y-4.2443
X5.5211Y-2.7443
X5.7709Y-1.8942
X5.7709Y-3.3942
X5.7709Y-4.1442
X5.7711Y-2.6442
X6.2709Y-1.9942
X6.2709Y-2.7443
X6.2709Y-3.4943
X6.2709Y-4.2443
X6.5209Y-1.8942
X6.5209Y-2.6442
X6.5209Y-3.3942
X6.5209Y-4.1442
X7.0209Y-1.9942
X7.0209Y-2.7443
X7.0209Y-3.4943
X7.0209Y-4.2443
X7.2709Y-1.8942
X7.2709Y-2.6442
X7.2709Y-3.3942
X7.2709Y-4.1442
X7.7709Y-1.9942
X7.7709Y-2.7443
X7.7709Y-3.4943
X7.7709Y-4.2443
X8.0209Y-1.8942
X8.0209Y-2.6442
X8.0209Y-3.3942
X8.0209Y-4.1442
X8.5209Y-1.9942
X8.5209Y-2.7443
X8.5209Y-3.4943
X8.5209Y-4.2443
X8.7709Y-1.8942
X8.7709Y-2.6442
X8.7709Y-3.3942
X8.7709Y-4.1442
X9.2709Y-1.9942
X9.2709Y-2.7443
X9.2709Y-3.4943
X9.2709Y-4.2443
X9.5209Y-1.8942
X9.5209Y-2.6442
X9.5209Y-3.3942
X9.5209Y-4.1442
X10.0209Y-1.9942
X10.0209Y-2.7443
X10.0209Y-3.4943
X10.0209Y-4.2443
X10.2709Y-1.8942
X10.2709Y-2.6442
X10.2709Y-3.3942
X10.2709Y-4.1442
X10.7709Y-1.9942
X10.7709Y-2.7443
X10.7709Y-3.4943
X10.7709Y-4.2443
X11.0209Y-1.8942
X11.0209Y-2.6442
X11.0209Y-3.3942
X11.0209Y-4.1442
X11.5209Y-1.9942
X11.5209Y-2.7443
X11.5209Y-3.4943
X11.5209Y-4.2443
X11.7709Y-1.8942
X11.7709Y-2.6442
X11.7709Y-3.3942
X11.7709Y-4.1442
X12.4584Y-2.7443
X12.4584Y-3.4943
X12.4584Y-4.2443
X12.7084Y-2.6443
X12.7084Y-3.3943
X12.7084Y-4.1443
T4
X3.4209Y-2.0943
X3.4209Y-2.8442
X3.4209Y-3.5942
X3.4209Y-4.3442
X4.1709Y-2.0943
X4.1709Y-2.8442
X4.1709Y-3.5942
X4.1709Y-4.3442
X4.9209Y-2.0943
X4.9209Y-2.8442
X4.9209Y-3.5942
X4.9209Y-4.3442
X5.6709Y-2.0943
X5.6709Y-3.5942
X5.6709Y-4.3442
X5.6711Y-2.8442
X6.4209Y-2.0943
X6.4209Y-2.8442
X6.4209Y-3.5942
X6.4209Y-4.3442
X7.1709Y-2.0943
X7.1709Y-2.8442
X7.1709Y-3.5942
X7.1709Y-4.3442
X7.9209Y-2.0943
X7.9209Y-2.8442
X7.9209Y-3.5942
X7.9209Y-4.3442
X8.6709Y-2.0943
X8.6709Y-2.8442
X8.6709Y-3.5942
X8.6709Y-4.3442
X9.4209Y-2.0943
X9.4209Y-2.8442
X9.4209Y-3.5942
X9.4209Y-4.3442
X10.1709Y-2.0943
X10.1709Y-2.8442
X10.1709Y-3.5942
X10.1709Y-4.3442
X10.9209Y-2.0943
X10.9209Y-2.8442
X10.9209Y-3.5942
X10.9209Y-4.3442
X11.6709Y-2.0943
X11.6709Y-2.8442
X11.6709Y-3.5942
X11.6709Y-4.3442
X12.6084Y-2.8443
X12.6084Y-3.5943
X12.6084Y-4.3443
T0
M30
