G04 #@! TF.GenerationSoftware,KiCad,Pcbnew,(6.0.5-0)*
G04 #@! TF.CreationDate,2022-08-30T21:52:40-05:00*
G04 #@! TF.ProjectId,plate,706c6174-652e-46b6-9963-61645f706362,rev?*
G04 #@! TF.SameCoordinates,Original*
G04 #@! TF.FileFunction,Copper,L1,Top*
G04 #@! TF.FilePolarity,Positive*
%FSLAX46Y46*%
G04 Gerber Fmt 4.6, Leading zero omitted, Abs format (unit mm)*
G04 Created by KiCad (PCBNEW (6.0.5-0)) date 2022-08-30 21:52:40*
%MOMM*%
%LPD*%
G01*
G04 APERTURE LIST*
G04 #@! TA.AperFunction,ViaPad*
%ADD10C,0.500000*%
G04 #@! TD*
G04 APERTURE END LIST*
D10*
X387531243Y-60133041D03*
G04 #@! TA.AperFunction,Conductor*
G36*
X379804671Y-34553674D02*
G01*
X379809694Y-34555755D01*
X379813759Y-34554071D01*
X379815162Y-34554132D01*
X380001036Y-34570394D01*
X380022666Y-34574209D01*
X380197529Y-34621065D01*
X380218168Y-34628577D01*
X380382249Y-34705092D01*
X380401271Y-34716075D01*
X380549572Y-34819922D01*
X380566397Y-34834040D01*
X380694407Y-34962058D01*
X380708525Y-34978884D01*
X380812363Y-35127192D01*
X380823344Y-35146214D01*
X380899846Y-35310292D01*
X380907358Y-35330933D01*
X380954206Y-35505815D01*
X380958018Y-35527445D01*
X380974341Y-35714143D01*
X380974369Y-35714795D01*
X380972719Y-35718778D01*
X380974758Y-35723702D01*
X380974820Y-35725117D01*
X380974820Y-35740187D01*
X380974769Y-35741130D01*
X380974820Y-35741482D01*
X380974818Y-38094524D01*
X380974797Y-38095009D01*
X380972717Y-38100030D01*
X380974400Y-38104094D01*
X380974338Y-38105509D01*
X380958073Y-38291365D01*
X380954259Y-38312994D01*
X380907397Y-38487870D01*
X380899885Y-38508508D01*
X380823368Y-38672590D01*
X380812386Y-38691610D01*
X380708543Y-38839908D01*
X380694425Y-38856732D01*
X380566404Y-38984750D01*
X380549585Y-38998863D01*
X380423834Y-39086912D01*
X380401275Y-39102707D01*
X380382256Y-39113687D01*
X380218174Y-39190198D01*
X380197538Y-39197709D01*
X380022654Y-39244567D01*
X380001035Y-39248379D01*
X379814717Y-39264678D01*
X379813714Y-39264722D01*
X379809692Y-39263056D01*
X379804724Y-39265114D01*
X379803737Y-39265157D01*
X379788213Y-39265157D01*
X379787314Y-39265109D01*
X379786980Y-39265157D01*
X357582143Y-39265158D01*
X357193181Y-39265158D01*
X357192799Y-39265128D01*
X357187800Y-39263057D01*
X357187800Y-39261259D01*
X357170775Y-39263177D01*
X357170774Y-39263177D01*
X357055813Y-39276130D01*
X357055811Y-39276130D01*
X357048786Y-39276922D01*
X357042114Y-39279257D01*
X357042112Y-39279257D01*
X356923418Y-39320788D01*
X356923415Y-39320789D01*
X356916743Y-39323124D01*
X356798291Y-39397550D01*
X356699369Y-39496467D01*
X356624937Y-39614915D01*
X356622601Y-39621589D01*
X356622600Y-39621592D01*
X356581064Y-39740281D01*
X356578728Y-39746957D01*
X356563059Y-39885970D01*
X356563088Y-39885970D01*
X356564487Y-39898393D01*
X356564487Y-39898394D01*
X356577369Y-40012766D01*
X356578745Y-40024986D01*
X356624945Y-40157033D01*
X356628709Y-40163023D01*
X356628709Y-40163024D01*
X356658044Y-40209713D01*
X356699370Y-40275488D01*
X356704371Y-40280489D01*
X356704374Y-40280493D01*
X356793284Y-40369407D01*
X356798288Y-40374411D01*
X356804280Y-40378176D01*
X356910744Y-40445075D01*
X356910749Y-40445077D01*
X356916740Y-40448842D01*
X356937539Y-40456120D01*
X357042104Y-40492711D01*
X357042108Y-40492712D01*
X357048784Y-40495048D01*
X357123958Y-40503518D01*
X357169799Y-40508684D01*
X357169800Y-40508684D01*
X357187800Y-40510712D01*
X357187800Y-40510328D01*
X357192872Y-40510900D01*
X357192872Y-40506784D01*
X396474562Y-40506956D01*
X396474562Y-40507015D01*
X396474664Y-40506998D01*
X396479634Y-40509057D01*
X396484060Y-40507224D01*
X396590673Y-40513674D01*
X396755977Y-40523676D01*
X396771081Y-40525510D01*
X397035904Y-40574044D01*
X397050677Y-40577686D01*
X397307707Y-40657784D01*
X397321933Y-40663179D01*
X397567441Y-40773676D01*
X397580914Y-40780747D01*
X397811317Y-40920035D01*
X397823839Y-40928679D01*
X398035766Y-41094717D01*
X398047154Y-41104806D01*
X398237528Y-41295183D01*
X398247618Y-41306573D01*
X398393698Y-41493034D01*
X398413650Y-41518502D01*
X398422293Y-41531023D01*
X398561575Y-41761428D01*
X398568646Y-41774901D01*
X398679139Y-42020413D01*
X398684534Y-42034639D01*
X398688313Y-42046766D01*
X398764630Y-42291683D01*
X398768268Y-42306446D01*
X398801399Y-42487245D01*
X398816796Y-42571266D01*
X398818630Y-42586370D01*
X398835083Y-42858395D01*
X398832609Y-42858545D01*
X398833376Y-42862517D01*
X398833293Y-42862716D01*
X398833520Y-42863263D01*
X398834393Y-42867788D01*
X398835394Y-42867788D01*
X398835394Y-42884153D01*
X398835344Y-42885079D01*
X398835394Y-42885424D01*
X398835394Y-114295071D01*
X398835334Y-114295071D01*
X398835351Y-114295175D01*
X398833293Y-114300143D01*
X398835126Y-114304569D01*
X398834326Y-114317798D01*
X398834325Y-114317799D01*
X398818673Y-114576488D01*
X398816839Y-114591592D01*
X398768304Y-114856417D01*
X398764662Y-114871190D01*
X398684565Y-115128221D01*
X398679170Y-115142447D01*
X398568670Y-115387961D01*
X398561599Y-115401433D01*
X398422317Y-115631830D01*
X398413674Y-115644352D01*
X398247632Y-115856287D01*
X398237542Y-115867676D01*
X398047168Y-116058049D01*
X398035781Y-116068137D01*
X397988851Y-116104905D01*
X397823845Y-116234179D01*
X397811323Y-116242822D01*
X397580925Y-116382103D01*
X397567453Y-116389174D01*
X397321938Y-116499673D01*
X397307711Y-116505068D01*
X397050679Y-116585165D01*
X397035906Y-116588807D01*
X396771083Y-116637340D01*
X396755979Y-116639174D01*
X396484039Y-116655627D01*
X396483889Y-116653142D01*
X396479898Y-116653912D01*
X396479634Y-116653803D01*
X396478909Y-116654103D01*
X396474560Y-116654943D01*
X396474560Y-116655905D01*
X396469575Y-116655905D01*
X396458477Y-116655906D01*
X396458169Y-116655906D01*
X396457260Y-116655857D01*
X396456922Y-116655906D01*
X394690490Y-116656016D01*
X394579147Y-116656016D01*
X357195522Y-116655848D01*
X357192189Y-116655592D01*
X357187732Y-116653747D01*
X357187731Y-116651367D01*
X357038109Y-116669572D01*
X357030983Y-116672276D01*
X357030980Y-116672277D01*
X356938629Y-116707324D01*
X356897190Y-116723050D01*
X356890920Y-116727380D01*
X356890917Y-116727381D01*
X356791820Y-116795807D01*
X356773159Y-116808692D01*
X356673224Y-116921524D01*
X356669681Y-116928276D01*
X356606756Y-117048195D01*
X356603190Y-117054990D01*
X356567125Y-117201337D01*
X356567125Y-117352063D01*
X356603190Y-117498410D01*
X356606730Y-117505156D01*
X356606731Y-117505159D01*
X356656728Y-117600440D01*
X356673224Y-117631876D01*
X356773159Y-117744708D01*
X356779430Y-117749038D01*
X356890917Y-117826019D01*
X356890920Y-117826020D01*
X356897190Y-117830350D01*
X356914776Y-117837024D01*
X357030980Y-117881123D01*
X357030983Y-117881124D01*
X357038109Y-117883828D01*
X357187731Y-117902033D01*
X357187732Y-117899575D01*
X357192407Y-117897640D01*
X357194418Y-117897474D01*
X375047158Y-117897475D01*
X379804192Y-117897475D01*
X379804671Y-117897496D01*
X379809693Y-117899576D01*
X379813757Y-117897892D01*
X379815172Y-117897954D01*
X380001039Y-117914215D01*
X380022661Y-117918027D01*
X380120414Y-117944220D01*
X380197546Y-117964887D01*
X380218184Y-117972399D01*
X380382270Y-118048912D01*
X380401289Y-118059893D01*
X380423866Y-118075701D01*
X380549592Y-118163735D01*
X380566417Y-118177852D01*
X380694441Y-118305875D01*
X380708557Y-118322698D01*
X380724570Y-118345566D01*
X380812403Y-118471005D01*
X380823385Y-118490026D01*
X380899900Y-118654112D01*
X380907411Y-118674749D01*
X380954271Y-118849629D01*
X380958084Y-118871254D01*
X380974334Y-119056983D01*
X380974340Y-119057052D01*
X380974404Y-119058530D01*
X380972718Y-119062601D01*
X380974801Y-119067631D01*
X380974819Y-119068034D01*
X380974819Y-119084035D01*
X380974769Y-119084961D01*
X380974819Y-119085306D01*
X380974820Y-121438344D01*
X380974799Y-121438828D01*
X380972718Y-121443852D01*
X380974402Y-121447918D01*
X380974341Y-121449322D01*
X380958085Y-121635198D01*
X380954272Y-121656827D01*
X380907418Y-121831714D01*
X380899906Y-121852354D01*
X380823396Y-122016442D01*
X380812415Y-122035463D01*
X380708571Y-122183775D01*
X380694453Y-122200601D01*
X380566431Y-122328628D01*
X380549608Y-122342744D01*
X380423863Y-122430794D01*
X380401299Y-122446594D01*
X380382278Y-122457576D01*
X380218189Y-122534093D01*
X380197557Y-122541603D01*
X380022665Y-122588466D01*
X380001043Y-122592278D01*
X379815601Y-122608502D01*
X379811750Y-122607728D01*
X379809693Y-122606876D01*
X379808981Y-122607171D01*
X379805035Y-122606378D01*
X379804621Y-122606438D01*
X379804621Y-122608977D01*
X379788211Y-122608977D01*
X379787312Y-122608929D01*
X379786978Y-122608977D01*
X321474521Y-122608977D01*
X321474043Y-122608956D01*
X321469021Y-122606876D01*
X321464957Y-122608560D01*
X321463541Y-122608498D01*
X321277673Y-122592239D01*
X321256055Y-122588427D01*
X321081171Y-122541568D01*
X321060539Y-122534059D01*
X320896443Y-122457540D01*
X320877434Y-122446565D01*
X320729124Y-122342717D01*
X320712300Y-122328598D01*
X320584282Y-122200577D01*
X320570164Y-122183752D01*
X320466325Y-122035449D01*
X320455343Y-122016427D01*
X320378835Y-121852343D01*
X320371323Y-121831704D01*
X320324468Y-121656820D01*
X320320655Y-121635189D01*
X320304374Y-121449013D01*
X320304325Y-121447886D01*
X320305996Y-121443852D01*
X320303931Y-121438867D01*
X320303895Y-121438036D01*
X320303895Y-121422431D01*
X320303945Y-121421497D01*
X320303895Y-121421148D01*
X320303895Y-119068092D01*
X320303915Y-119067624D01*
X320305996Y-119062601D01*
X320304313Y-119058538D01*
X320304375Y-119057110D01*
X320320635Y-118871267D01*
X320324448Y-118849638D01*
X320371308Y-118674754D01*
X320378820Y-118654115D01*
X320455337Y-118490026D01*
X320466313Y-118471016D01*
X320570161Y-118322707D01*
X320584279Y-118305883D01*
X320712300Y-118177865D01*
X320729125Y-118163747D01*
X320877429Y-118059906D01*
X320896449Y-118048925D01*
X321053514Y-117975686D01*
X321060535Y-117972412D01*
X321081173Y-117964901D01*
X321081237Y-117964884D01*
X321089040Y-117962793D01*
X321256051Y-117918046D01*
X321277680Y-117914232D01*
X321440201Y-117900016D01*
X321463777Y-117897954D01*
X321464978Y-117897901D01*
X321469021Y-117899576D01*
X321474015Y-117897507D01*
X321474754Y-117897475D01*
X321490485Y-117897475D01*
X321491393Y-117897524D01*
X321491731Y-117897475D01*
X340115963Y-117897474D01*
X344081980Y-117897474D01*
X344086594Y-117897830D01*
X344090806Y-117899575D01*
X344090806Y-117902112D01*
X344240494Y-117883958D01*
X344248107Y-117881072D01*
X344374359Y-117833207D01*
X344381486Y-117830505D01*
X344505587Y-117744861D01*
X344605584Y-117632004D01*
X344622250Y-117600253D01*
X344672121Y-117505243D01*
X344672122Y-117505239D01*
X344675663Y-117498494D01*
X344711751Y-117352092D01*
X344711751Y-117201308D01*
X344675663Y-117054906D01*
X344672122Y-117048161D01*
X344672121Y-117048157D01*
X344609128Y-116928148D01*
X344605584Y-116921396D01*
X344505587Y-116808539D01*
X344381486Y-116722895D01*
X344344701Y-116708949D01*
X344247624Y-116672145D01*
X344247623Y-116672145D01*
X344240494Y-116669442D01*
X344090807Y-116651288D01*
X344090807Y-116653747D01*
X344086148Y-116655678D01*
X344084088Y-116655848D01*
X317297986Y-116656016D01*
X317297985Y-116656016D01*
X238726514Y-116656035D01*
X201224850Y-116655736D01*
X201220106Y-116655370D01*
X201215920Y-116653635D01*
X201215921Y-116651078D01*
X201198632Y-116653174D01*
X201176107Y-116655905D01*
X201066226Y-116669227D01*
X201058180Y-116672277D01*
X200932353Y-116719975D01*
X200932351Y-116719976D01*
X200925226Y-116722677D01*
X200801117Y-116808322D01*
X200796067Y-116814022D01*
X200796064Y-116814024D01*
X200763945Y-116850273D01*
X200701114Y-116921182D01*
X200697571Y-116927931D01*
X200697570Y-116927933D01*
X200697390Y-116928276D01*
X200631030Y-117054696D01*
X200629206Y-117062094D01*
X200629206Y-117062095D01*
X200612985Y-117127900D01*
X200594939Y-117201104D01*
X200594939Y-117351896D01*
X200631030Y-117498304D01*
X200701114Y-117631818D01*
X200706170Y-117637524D01*
X200796064Y-117738976D01*
X200796067Y-117738978D01*
X200801117Y-117744678D01*
X200925226Y-117830323D01*
X200932351Y-117833024D01*
X200932353Y-117833025D01*
X200997580Y-117857751D01*
X201066226Y-117883773D01*
X201130687Y-117891588D01*
X201197936Y-117899742D01*
X201197938Y-117899742D01*
X201215921Y-117901922D01*
X201215921Y-117899463D01*
X201220577Y-117897533D01*
X201222648Y-117897362D01*
X219201845Y-117897452D01*
X223832187Y-117897475D01*
X223832664Y-117897496D01*
X223837687Y-117899576D01*
X223841751Y-117897892D01*
X223843167Y-117897954D01*
X224029032Y-117914214D01*
X224050660Y-117918028D01*
X224225539Y-117964884D01*
X224246176Y-117972395D01*
X224410264Y-118048909D01*
X224429280Y-118059887D01*
X224451865Y-118075701D01*
X224577594Y-118163736D01*
X224594419Y-118177854D01*
X224722439Y-118305873D01*
X224736557Y-118322698D01*
X224840404Y-118471005D01*
X224851382Y-118490019D01*
X224917841Y-118632540D01*
X224927900Y-118654111D01*
X224935412Y-118674750D01*
X224946086Y-118714584D01*
X224982271Y-118849628D01*
X224982271Y-118849629D01*
X224986084Y-118871254D01*
X225002334Y-119056983D01*
X225002401Y-119058524D01*
X225000712Y-119062601D01*
X225002799Y-119067639D01*
X225002813Y-119067965D01*
X225002813Y-119084025D01*
X225002763Y-119084959D01*
X225002813Y-119085308D01*
X225002813Y-121438355D01*
X225002792Y-121438829D01*
X225000712Y-121443852D01*
X225002396Y-121447916D01*
X225002334Y-121449333D01*
X224986079Y-121635197D01*
X224982266Y-121656826D01*
X224935412Y-121831713D01*
X224927900Y-121852353D01*
X224851390Y-122016440D01*
X224840409Y-122035461D01*
X224736565Y-122183773D01*
X224722447Y-122200599D01*
X224594425Y-122328625D01*
X224577603Y-122342741D01*
X224476964Y-122413211D01*
X224429294Y-122446590D01*
X224410273Y-122457572D01*
X224246184Y-122534089D01*
X224225544Y-122541601D01*
X224050659Y-122588461D01*
X224029035Y-122592273D01*
X223894587Y-122604035D01*
X223843569Y-122608498D01*
X223841791Y-122608576D01*
X223837687Y-122606876D01*
X223832618Y-122608976D01*
X223832589Y-122608977D01*
X223816205Y-122608977D01*
X223815306Y-122608929D01*
X223814972Y-122608977D01*
X165502516Y-122608977D01*
X165502037Y-122608956D01*
X165497015Y-122606876D01*
X165492951Y-122608560D01*
X165491535Y-122608498D01*
X165305673Y-122592238D01*
X165284044Y-122588424D01*
X165196608Y-122564997D01*
X165109167Y-122541567D01*
X165088530Y-122534056D01*
X164924444Y-122457540D01*
X164905423Y-122446558D01*
X164757124Y-122342715D01*
X164740300Y-122328598D01*
X164676289Y-122264586D01*
X164612277Y-122200573D01*
X164598163Y-122183752D01*
X164494334Y-122035461D01*
X164494322Y-122035444D01*
X164483341Y-122016423D01*
X164406834Y-121852341D01*
X164399322Y-121831701D01*
X164352469Y-121656820D01*
X164348656Y-121635190D01*
X164332368Y-121448944D01*
X164332322Y-121447879D01*
X164333990Y-121443852D01*
X164331929Y-121438875D01*
X164331889Y-121437967D01*
X164331889Y-121422431D01*
X164331939Y-121421497D01*
X164331889Y-121421148D01*
X164331889Y-119068092D01*
X164331909Y-119067624D01*
X164333990Y-119062601D01*
X164332307Y-119058538D01*
X164332369Y-119057110D01*
X164348629Y-118871266D01*
X164352442Y-118849637D01*
X164399302Y-118674754D01*
X164406814Y-118654115D01*
X164474581Y-118508788D01*
X164483331Y-118490024D01*
X164494310Y-118471009D01*
X164494315Y-118471003D01*
X164554528Y-118385010D01*
X164598155Y-118322706D01*
X164612272Y-118305882D01*
X164740293Y-118177862D01*
X164757119Y-118163744D01*
X164905423Y-118059903D01*
X164924442Y-118048922D01*
X165088533Y-117972406D01*
X165109164Y-117964898D01*
X165170879Y-117948362D01*
X165284043Y-117918041D01*
X165305673Y-117914227D01*
X165491700Y-117897954D01*
X165492966Y-117897899D01*
X165497015Y-117899576D01*
X165502017Y-117897504D01*
X165502680Y-117897475D01*
X165518480Y-117897475D01*
X165519386Y-117897524D01*
X165519724Y-117897475D01*
X184732653Y-117897516D01*
X188110735Y-117897523D01*
X188114545Y-117897817D01*
X188118908Y-117899624D01*
X188118908Y-117902063D01*
X188268566Y-117883889D01*
X188339046Y-117857159D01*
X188402400Y-117833132D01*
X188402403Y-117833130D01*
X188409526Y-117830429D01*
X188533596Y-117744788D01*
X188570539Y-117703087D01*
X188628513Y-117637647D01*
X188628514Y-117637645D01*
X188633565Y-117631944D01*
X188637174Y-117625067D01*
X188700083Y-117505205D01*
X188700085Y-117505201D01*
X188703625Y-117498455D01*
X188708492Y-117478711D01*
X188737880Y-117359475D01*
X188739703Y-117352079D01*
X188739703Y-117201321D01*
X188732296Y-117171268D01*
X188705450Y-117062348D01*
X188705449Y-117062345D01*
X188703625Y-117054945D01*
X188700085Y-117048199D01*
X188700083Y-117048195D01*
X188637104Y-116928199D01*
X188633565Y-116921456D01*
X188628455Y-116915687D01*
X188538653Y-116814320D01*
X188538652Y-116814319D01*
X188533596Y-116808612D01*
X188409526Y-116722971D01*
X188402403Y-116720270D01*
X188402400Y-116720268D01*
X188339046Y-116696241D01*
X188268566Y-116669511D01*
X188157595Y-116656035D01*
X188136893Y-116653521D01*
X188118908Y-116651337D01*
X188118908Y-116653796D01*
X188114244Y-116655728D01*
X188112198Y-116655897D01*
X150610345Y-116655904D01*
X148834885Y-116655904D01*
X148834885Y-116655867D01*
X148834821Y-116655877D01*
X148829842Y-116653815D01*
X148825416Y-116655648D01*
X148553488Y-116639204D01*
X148538388Y-116637370D01*
X148405976Y-116613107D01*
X148273567Y-116588844D01*
X148258793Y-116585203D01*
X148001752Y-116505108D01*
X147987525Y-116499713D01*
X147742009Y-116389218D01*
X147728536Y-116382147D01*
X147498126Y-116242861D01*
X147485604Y-116234217D01*
X147273672Y-116068180D01*
X147262283Y-116058090D01*
X147071913Y-115867720D01*
X147061822Y-115856331D01*
X146895777Y-115644388D01*
X146887134Y-115631866D01*
X146747852Y-115401462D01*
X146740781Y-115387989D01*
X146630286Y-115142473D01*
X146624891Y-115128246D01*
X146568863Y-114948438D01*
X146544796Y-114871203D01*
X146541156Y-114856433D01*
X146534900Y-114822289D01*
X146492629Y-114591611D01*
X146490795Y-114576506D01*
X146474351Y-114304579D01*
X146476847Y-114304428D01*
X146476073Y-114300424D01*
X146476183Y-114300157D01*
X146475879Y-114299423D01*
X146475040Y-114295084D01*
X146474082Y-114295084D01*
X146474082Y-114278733D01*
X146474132Y-114277799D01*
X146474082Y-114277450D01*
X146474082Y-113856700D01*
X148942943Y-113856700D01*
X148959075Y-113958545D01*
X149005891Y-114050419D01*
X149078807Y-114123329D01*
X149087643Y-114127830D01*
X149087644Y-114127831D01*
X149161850Y-114165634D01*
X149161852Y-114165635D01*
X149170686Y-114170135D01*
X149272533Y-114186257D01*
X149272533Y-114184301D01*
X149272536Y-114184300D01*
X149277604Y-114185102D01*
X149277604Y-114182200D01*
X162667459Y-114182200D01*
X162667459Y-114185020D01*
X162672481Y-114184280D01*
X162672533Y-114184301D01*
X162672533Y-114186288D01*
X162690878Y-114183381D01*
X162690880Y-114183381D01*
X162753638Y-114173435D01*
X162774373Y-114170149D01*
X162819707Y-114147046D01*
X162857410Y-114127833D01*
X162857413Y-114127831D01*
X162866243Y-114123331D01*
X162939150Y-114050416D01*
X162943654Y-114041577D01*
X162955649Y-114018032D01*
X162985959Y-113958542D01*
X162987512Y-113948740D01*
X162999254Y-113874595D01*
X162999254Y-113874594D01*
X163002088Y-113856700D01*
X167993043Y-113856700D01*
X167995949Y-113875046D01*
X168007622Y-113948747D01*
X168009173Y-113958541D01*
X168035287Y-114009791D01*
X168051477Y-114041564D01*
X168055985Y-114050412D01*
X168128897Y-114123321D01*
X168137733Y-114127823D01*
X168149698Y-114133919D01*
X168220770Y-114170130D01*
X168247672Y-114174390D01*
X168304718Y-114183424D01*
X168304720Y-114183424D01*
X168322611Y-114186257D01*
X168322611Y-114184301D01*
X168322617Y-114184299D01*
X168327683Y-114185101D01*
X168327683Y-114182200D01*
X181717538Y-114182200D01*
X181717538Y-114185002D01*
X181722527Y-114184266D01*
X181722611Y-114184301D01*
X181722611Y-114186268D01*
X181793835Y-114174985D01*
X181814660Y-114171686D01*
X181814661Y-114171686D01*
X181824450Y-114170135D01*
X181895524Y-114133919D01*
X181907490Y-114127822D01*
X181907491Y-114127821D01*
X181916321Y-114123322D01*
X181989229Y-114050412D01*
X181993729Y-114041580D01*
X181993731Y-114041577D01*
X182031539Y-113967371D01*
X182031540Y-113967369D01*
X182036038Y-113958540D01*
X182052168Y-113856700D01*
X182050211Y-113856700D01*
X182050209Y-113856694D01*
X182051011Y-113851628D01*
X182048110Y-113851628D01*
X182048110Y-100461772D01*
X182050893Y-100461772D01*
X182050163Y-100456817D01*
X182050211Y-100456700D01*
X182052157Y-100456700D01*
X187043132Y-100456700D01*
X187045089Y-100456700D01*
X187045091Y-100456706D01*
X187044289Y-100461772D01*
X187047190Y-100461772D01*
X187047190Y-113851628D01*
X187044407Y-113851628D01*
X187045137Y-113856583D01*
X187045089Y-113856700D01*
X187043143Y-113856700D01*
X187059272Y-113958537D01*
X187063773Y-113967371D01*
X187063774Y-113967373D01*
X187065460Y-113970682D01*
X187106080Y-114050405D01*
X187178986Y-114123313D01*
X187270853Y-114170125D01*
X187280644Y-114171676D01*
X187280647Y-114171677D01*
X187316855Y-114177412D01*
X187372689Y-114186257D01*
X187372689Y-114184301D01*
X187372699Y-114184297D01*
X187377762Y-114185099D01*
X187377762Y-114182200D01*
X200767617Y-114182200D01*
X200767617Y-114184983D01*
X200772572Y-114184253D01*
X200772689Y-114184301D01*
X200772689Y-114186247D01*
X200791035Y-114183342D01*
X200791036Y-114183342D01*
X200864675Y-114171681D01*
X200874527Y-114170121D01*
X200945540Y-114133940D01*
X200957562Y-114127815D01*
X200966398Y-114123313D01*
X201039307Y-114050406D01*
X201043812Y-114041565D01*
X201081616Y-113967372D01*
X201081617Y-113967369D01*
X201086117Y-113958538D01*
X201088289Y-113944829D01*
X201099413Y-113874594D01*
X201099413Y-113874593D01*
X201102247Y-113856700D01*
X201100291Y-113856700D01*
X201100288Y-113856692D01*
X201101090Y-113851628D01*
X201098190Y-113851628D01*
X201098190Y-100461772D01*
X201100993Y-100461772D01*
X201100257Y-100456781D01*
X201100291Y-100456700D01*
X201102257Y-100456700D01*
X206093212Y-100456700D01*
X206095169Y-100456700D01*
X206095171Y-100456706D01*
X206094369Y-100461772D01*
X206097270Y-100461772D01*
X206097270Y-113851628D01*
X206094507Y-113851628D01*
X206095232Y-113856548D01*
X206095169Y-113856700D01*
X206093243Y-113856700D01*
X206096149Y-113875046D01*
X206106679Y-113941532D01*
X206109371Y-113958532D01*
X206113870Y-113967363D01*
X206113871Y-113967365D01*
X206151671Y-114041558D01*
X206156175Y-114050398D01*
X206163185Y-114057409D01*
X206163186Y-114057410D01*
X206192612Y-114086839D01*
X206229075Y-114123306D01*
X206320936Y-114170119D01*
X206352170Y-114175069D01*
X206404876Y-114183422D01*
X206404877Y-114183422D01*
X206422767Y-114186257D01*
X206422767Y-114184301D01*
X206422781Y-114184295D01*
X206427841Y-114185097D01*
X206427841Y-114182200D01*
X219817696Y-114182200D01*
X219817696Y-114184967D01*
X219822622Y-114184241D01*
X219822767Y-114184301D01*
X219822767Y-114186227D01*
X219841108Y-114183324D01*
X219841110Y-114183324D01*
X219914808Y-114171658D01*
X219914810Y-114171657D01*
X219924604Y-114170107D01*
X220016475Y-114123305D01*
X220089385Y-114050402D01*
X220136197Y-113958536D01*
X220152327Y-113856700D01*
X220150371Y-113856700D01*
X220150368Y-113856692D01*
X220151170Y-113851628D01*
X220148270Y-113851628D01*
X220148270Y-100461772D01*
X220151092Y-100461772D01*
X220150351Y-100456747D01*
X220150371Y-100456700D01*
X220152357Y-100456700D01*
X225143292Y-100456700D01*
X225145249Y-100456700D01*
X225145251Y-100456706D01*
X225144449Y-100461772D01*
X225147350Y-100461772D01*
X225147350Y-113851628D01*
X225144607Y-113851628D01*
X225145327Y-113856512D01*
X225145249Y-113856700D01*
X225143343Y-113856700D01*
X225159469Y-113958528D01*
X225163970Y-113967362D01*
X225163970Y-113967363D01*
X225165661Y-113970682D01*
X225206270Y-114050391D01*
X225213277Y-114057399D01*
X225213279Y-114057402D01*
X225272154Y-114116286D01*
X225279165Y-114123298D01*
X225371019Y-114170114D01*
X225380813Y-114171667D01*
X225380814Y-114171667D01*
X225389021Y-114172968D01*
X225472845Y-114186257D01*
X225472845Y-114184301D01*
X225472863Y-114184293D01*
X225477920Y-114185095D01*
X225477920Y-114182200D01*
X238867780Y-114182200D01*
X238867780Y-114185038D01*
X238872835Y-114184293D01*
X238872855Y-114184301D01*
X238872855Y-114186308D01*
X238974696Y-114170162D01*
X239066565Y-114123339D01*
X239073617Y-114116286D01*
X239132462Y-114057432D01*
X239132464Y-114057429D01*
X239139471Y-114050421D01*
X239186279Y-113958544D01*
X239202408Y-113856700D01*
X244193343Y-113856700D01*
X244209475Y-113958545D01*
X244256291Y-114050419D01*
X244329207Y-114123329D01*
X244338043Y-114127830D01*
X244338044Y-114127831D01*
X244412250Y-114165634D01*
X244412252Y-114165635D01*
X244421086Y-114170135D01*
X244522933Y-114186257D01*
X244522933Y-114184301D01*
X244522936Y-114184300D01*
X244528004Y-114185102D01*
X244528004Y-114182200D01*
X257917859Y-114182200D01*
X257917859Y-114185020D01*
X257922881Y-114184280D01*
X257922933Y-114184301D01*
X257922933Y-114186288D01*
X257941278Y-114183381D01*
X257941280Y-114183381D01*
X258004038Y-114173435D01*
X258024773Y-114170149D01*
X258070107Y-114147046D01*
X258107810Y-114127833D01*
X258107813Y-114127831D01*
X258116643Y-114123331D01*
X258189550Y-114050416D01*
X258194054Y-114041577D01*
X258206049Y-114018032D01*
X258236359Y-113958542D01*
X258237912Y-113948740D01*
X258249654Y-113874595D01*
X258249654Y-113874594D01*
X258252488Y-113856700D01*
X263243443Y-113856700D01*
X263246349Y-113875046D01*
X263258022Y-113948747D01*
X263259573Y-113958541D01*
X263285687Y-114009791D01*
X263301877Y-114041564D01*
X263306385Y-114050412D01*
X263379297Y-114123321D01*
X263388133Y-114127823D01*
X263400098Y-114133919D01*
X263471170Y-114170130D01*
X263498072Y-114174390D01*
X263555118Y-114183424D01*
X263555120Y-114183424D01*
X263573011Y-114186257D01*
X263573011Y-114184301D01*
X263573017Y-114184299D01*
X263578083Y-114185101D01*
X263578083Y-114182200D01*
X276967938Y-114182200D01*
X276967938Y-114185002D01*
X276972927Y-114184266D01*
X276973011Y-114184301D01*
X276973011Y-114186268D01*
X277044235Y-114174985D01*
X277065060Y-114171686D01*
X277065061Y-114171686D01*
X277074850Y-114170135D01*
X277145924Y-114133919D01*
X277157890Y-114127822D01*
X277157891Y-114127821D01*
X277166721Y-114123322D01*
X277239629Y-114050412D01*
X277244129Y-114041580D01*
X277244131Y-114041577D01*
X277281939Y-113967371D01*
X277281940Y-113967369D01*
X277286438Y-113958540D01*
X277302568Y-113856700D01*
X277300611Y-113856700D01*
X277300609Y-113856694D01*
X277301411Y-113851628D01*
X277298510Y-113851628D01*
X277298510Y-100461772D01*
X277301293Y-100461772D01*
X277300563Y-100456817D01*
X277300611Y-100456700D01*
X277302557Y-100456700D01*
X282293532Y-100456700D01*
X282295489Y-100456700D01*
X282295491Y-100456706D01*
X282294689Y-100461772D01*
X282297590Y-100461772D01*
X282297590Y-113851628D01*
X282294807Y-113851628D01*
X282295537Y-113856583D01*
X282295489Y-113856700D01*
X282293543Y-113856700D01*
X282309672Y-113958537D01*
X282314173Y-113967371D01*
X282314174Y-113967373D01*
X282315860Y-113970682D01*
X282356480Y-114050405D01*
X282429386Y-114123313D01*
X282521253Y-114170125D01*
X282531044Y-114171676D01*
X282531047Y-114171677D01*
X282567255Y-114177412D01*
X282623089Y-114186257D01*
X282623089Y-114184301D01*
X282623099Y-114184297D01*
X282628162Y-114185099D01*
X282628162Y-114182200D01*
X296018017Y-114182200D01*
X296018017Y-114184983D01*
X296022972Y-114184253D01*
X296023089Y-114184301D01*
X296023089Y-114186247D01*
X296041435Y-114183342D01*
X296041436Y-114183342D01*
X296115075Y-114171681D01*
X296124927Y-114170121D01*
X296195940Y-114133940D01*
X296207962Y-114127815D01*
X296216798Y-114123313D01*
X296289707Y-114050406D01*
X296294212Y-114041565D01*
X296332016Y-113967372D01*
X296332017Y-113967369D01*
X296336517Y-113958538D01*
X296338689Y-113944829D01*
X296349813Y-113874594D01*
X296349813Y-113874593D01*
X296352647Y-113856700D01*
X296350691Y-113856700D01*
X296350688Y-113856692D01*
X296351490Y-113851628D01*
X296348590Y-113851628D01*
X296348590Y-100461772D01*
X296351393Y-100461772D01*
X296350657Y-100456781D01*
X296350691Y-100456700D01*
X296352657Y-100456700D01*
X301343612Y-100456700D01*
X301345569Y-100456700D01*
X301345571Y-100456706D01*
X301344769Y-100461772D01*
X301347670Y-100461772D01*
X301347670Y-113851628D01*
X301344907Y-113851628D01*
X301345632Y-113856548D01*
X301345569Y-113856700D01*
X301343643Y-113856700D01*
X301346549Y-113875046D01*
X301357079Y-113941532D01*
X301359771Y-113958532D01*
X301364270Y-113967363D01*
X301364271Y-113967365D01*
X301402071Y-114041558D01*
X301406575Y-114050398D01*
X301413585Y-114057409D01*
X301413586Y-114057410D01*
X301443012Y-114086839D01*
X301479475Y-114123306D01*
X301571336Y-114170119D01*
X301602570Y-114175069D01*
X301655276Y-114183422D01*
X301655277Y-114183422D01*
X301673167Y-114186257D01*
X301673167Y-114184301D01*
X301673181Y-114184295D01*
X301678241Y-114185097D01*
X301678241Y-114182200D01*
X315068096Y-114182200D01*
X315068096Y-114184967D01*
X315073022Y-114184241D01*
X315073167Y-114184301D01*
X315073167Y-114186227D01*
X315091508Y-114183324D01*
X315091510Y-114183324D01*
X315165208Y-114171658D01*
X315165210Y-114171657D01*
X315175004Y-114170107D01*
X315266875Y-114123305D01*
X315339785Y-114050402D01*
X315386597Y-113958536D01*
X315402727Y-113856700D01*
X315400771Y-113856700D01*
X315400768Y-113856692D01*
X315401570Y-113851628D01*
X315398670Y-113851628D01*
X315398670Y-100461772D01*
X315401492Y-100461772D01*
X315400751Y-100456747D01*
X315400771Y-100456700D01*
X315402757Y-100456700D01*
X320393692Y-100456700D01*
X320395649Y-100456700D01*
X320395651Y-100456706D01*
X320394849Y-100461772D01*
X320397750Y-100461772D01*
X320397750Y-113851628D01*
X320395007Y-113851628D01*
X320395727Y-113856512D01*
X320395649Y-113856700D01*
X320393743Y-113856700D01*
X320409869Y-113958528D01*
X320414370Y-113967362D01*
X320414370Y-113967363D01*
X320416061Y-113970682D01*
X320456670Y-114050391D01*
X320463677Y-114057399D01*
X320463679Y-114057402D01*
X320522554Y-114116286D01*
X320529565Y-114123298D01*
X320621419Y-114170114D01*
X320631213Y-114171667D01*
X320631214Y-114171667D01*
X320639421Y-114172968D01*
X320723245Y-114186257D01*
X320723245Y-114184301D01*
X320723263Y-114184293D01*
X320728320Y-114185095D01*
X320728320Y-114182200D01*
X334118180Y-114182200D01*
X334118180Y-114185038D01*
X334123235Y-114184293D01*
X334123255Y-114184301D01*
X334123255Y-114186308D01*
X334225096Y-114170162D01*
X334316965Y-114123339D01*
X334324017Y-114116286D01*
X334382862Y-114057432D01*
X334382864Y-114057429D01*
X334389871Y-114050421D01*
X334436679Y-113958544D01*
X334452285Y-113860000D01*
X339443743Y-113860000D01*
X339459875Y-113961845D01*
X339506691Y-114053719D01*
X339579607Y-114126629D01*
X339588443Y-114131130D01*
X339588444Y-114131131D01*
X339662650Y-114168934D01*
X339662652Y-114168935D01*
X339671486Y-114173435D01*
X339773333Y-114189557D01*
X339773333Y-114187601D01*
X339773336Y-114187600D01*
X339778404Y-114188402D01*
X339778404Y-114185500D01*
X353168259Y-114185500D01*
X353168259Y-114188320D01*
X353173281Y-114187580D01*
X353173333Y-114187601D01*
X353173333Y-114189588D01*
X353191678Y-114186681D01*
X353191680Y-114186681D01*
X353254055Y-114176796D01*
X353275173Y-114173449D01*
X353320507Y-114150346D01*
X353358210Y-114131133D01*
X353358213Y-114131131D01*
X353367043Y-114126631D01*
X353439950Y-114053716D01*
X353446145Y-114041558D01*
X353458118Y-114018056D01*
X353486759Y-113961842D01*
X353488833Y-113948751D01*
X353500054Y-113877895D01*
X353502888Y-113860000D01*
X353500931Y-113860000D01*
X353500929Y-113859994D01*
X353501450Y-113856700D01*
X358493843Y-113856700D01*
X358496749Y-113875046D01*
X358508422Y-113948747D01*
X358509973Y-113958541D01*
X358536087Y-114009791D01*
X358552277Y-114041564D01*
X358556785Y-114050412D01*
X358629697Y-114123321D01*
X358638533Y-114127823D01*
X358650498Y-114133919D01*
X358721570Y-114170130D01*
X358748472Y-114174390D01*
X358805518Y-114183424D01*
X358805520Y-114183424D01*
X358823411Y-114186257D01*
X358823411Y-114184301D01*
X358823417Y-114184299D01*
X358828483Y-114185101D01*
X358828483Y-114182200D01*
X372218338Y-114182200D01*
X372218338Y-114185002D01*
X372223327Y-114184266D01*
X372223411Y-114184301D01*
X372223411Y-114186268D01*
X372294635Y-114174985D01*
X372315460Y-114171686D01*
X372315461Y-114171686D01*
X372325250Y-114170135D01*
X372351616Y-114156700D01*
X382306583Y-114156700D01*
X382308006Y-114172967D01*
X382308006Y-114172968D01*
X382309460Y-114189588D01*
X382322222Y-114335458D01*
X382368665Y-114508783D01*
X382400245Y-114576506D01*
X382442174Y-114666424D01*
X382442177Y-114666429D01*
X382444500Y-114671411D01*
X382547424Y-114818400D01*
X382670419Y-114941395D01*
X382670425Y-114941400D01*
X382674308Y-114945283D01*
X382678814Y-114948438D01*
X382678815Y-114948439D01*
X382816784Y-115045045D01*
X382821297Y-115048205D01*
X382826287Y-115050532D01*
X382826289Y-115050533D01*
X382978939Y-115121713D01*
X382978943Y-115121714D01*
X382983926Y-115124038D01*
X382989234Y-115125460D01*
X382989239Y-115125462D01*
X383026704Y-115135500D01*
X383157253Y-115170479D01*
X383162730Y-115170958D01*
X383162735Y-115170959D01*
X383318323Y-115184570D01*
X383318325Y-115184570D01*
X383336010Y-115186117D01*
X383336010Y-115184301D01*
X383340749Y-115182338D01*
X383342134Y-115182200D01*
X395326978Y-115182200D01*
X395331968Y-115182627D01*
X395336010Y-115184301D01*
X395336010Y-115186127D01*
X395514767Y-115170486D01*
X395520086Y-115169061D01*
X395520090Y-115169060D01*
X395662745Y-115130834D01*
X395688092Y-115124042D01*
X395850719Y-115048207D01*
X395855235Y-115045045D01*
X395993202Y-114948438D01*
X395993206Y-114948435D01*
X395997707Y-114945283D01*
X396124590Y-114818399D01*
X396224356Y-114675919D01*
X396224356Y-114675918D01*
X396227512Y-114671411D01*
X396271775Y-114576488D01*
X396301023Y-114513766D01*
X396301025Y-114513760D01*
X396303346Y-114508783D01*
X396349788Y-114335457D01*
X396365427Y-114156700D01*
X396363611Y-114156700D01*
X396361648Y-114151961D01*
X396361510Y-114150575D01*
X396361510Y-100165620D01*
X396361924Y-100160772D01*
X396363611Y-100156700D01*
X396365417Y-100156700D01*
X396349778Y-99977945D01*
X396303336Y-99804621D01*
X396227503Y-99641994D01*
X396124582Y-99495007D01*
X396120699Y-99491124D01*
X396120694Y-99491118D01*
X395997701Y-99368125D01*
X395918639Y-99312764D01*
X395855222Y-99268358D01*
X395855217Y-99268355D01*
X395850714Y-99265202D01*
X395845730Y-99262878D01*
X395845725Y-99262875D01*
X395693077Y-99191693D01*
X395688089Y-99189367D01*
X395682775Y-99187943D01*
X395682772Y-99187942D01*
X395520088Y-99144350D01*
X395520084Y-99144349D01*
X395514765Y-99142924D01*
X395336010Y-99127283D01*
X395336010Y-99129099D01*
X395331269Y-99131063D01*
X395329890Y-99131200D01*
X383344932Y-99131200D01*
X383340081Y-99130785D01*
X383336010Y-99129099D01*
X383336010Y-99127293D01*
X383319740Y-99128716D01*
X383319738Y-99128716D01*
X383212824Y-99138069D01*
X383157254Y-99142930D01*
X383151945Y-99144352D01*
X383151942Y-99144353D01*
X382989244Y-99187947D01*
X382989242Y-99187948D01*
X382983930Y-99189371D01*
X382978944Y-99191696D01*
X382978941Y-99191697D01*
X382967556Y-99197006D01*
X382821302Y-99265204D01*
X382816800Y-99268356D01*
X382816797Y-99268358D01*
X382678818Y-99364971D01*
X382674314Y-99368125D01*
X382547431Y-99495006D01*
X382444509Y-99641994D01*
X382442186Y-99646976D01*
X382442183Y-99646981D01*
X382394009Y-99750292D01*
X382368675Y-99804620D01*
X382367253Y-99809928D01*
X382367252Y-99809930D01*
X382363642Y-99823403D01*
X382322232Y-99977944D01*
X382306593Y-100156700D01*
X382308409Y-100156700D01*
X382310372Y-100161440D01*
X382310510Y-100162824D01*
X382310510Y-100626630D01*
X382310458Y-100626630D01*
X382310473Y-100626720D01*
X382308410Y-100631700D01*
X382310510Y-100636770D01*
X382310510Y-100653161D01*
X382310461Y-100654069D01*
X382310510Y-100654407D01*
X382310510Y-114147663D01*
X382310083Y-114152659D01*
X382308409Y-114156700D01*
X382306583Y-114156700D01*
X372351616Y-114156700D01*
X372396324Y-114133919D01*
X372408290Y-114127822D01*
X372408291Y-114127821D01*
X372417121Y-114123322D01*
X372490029Y-114050412D01*
X372494529Y-114041580D01*
X372494531Y-114041577D01*
X372532339Y-113967371D01*
X372532340Y-113967369D01*
X372536838Y-113958540D01*
X372552968Y-113856700D01*
X372551011Y-113856700D01*
X372551009Y-113856694D01*
X372551811Y-113851628D01*
X372548910Y-113851628D01*
X372548910Y-100461772D01*
X372551693Y-100461772D01*
X372550963Y-100456817D01*
X372551011Y-100456700D01*
X372552957Y-100456700D01*
X372536828Y-100354863D01*
X372490020Y-100262995D01*
X372417114Y-100190087D01*
X372325247Y-100143275D01*
X372315456Y-100141724D01*
X372315453Y-100141723D01*
X372279245Y-100135988D01*
X372223411Y-100127143D01*
X372223411Y-100129099D01*
X372223401Y-100129103D01*
X372218338Y-100128301D01*
X372218338Y-100131200D01*
X358828483Y-100131200D01*
X358828483Y-100128417D01*
X358823528Y-100129147D01*
X358823411Y-100129099D01*
X358823411Y-100127153D01*
X358805065Y-100130058D01*
X358805064Y-100130058D01*
X358740478Y-100140285D01*
X358721573Y-100143279D01*
X358703451Y-100152512D01*
X358638570Y-100185569D01*
X358629702Y-100190087D01*
X358556793Y-100262994D01*
X358552290Y-100271832D01*
X358552289Y-100271833D01*
X358540310Y-100295344D01*
X358509983Y-100354862D01*
X358508433Y-100364649D01*
X358508432Y-100364653D01*
X358507287Y-100371884D01*
X358493853Y-100456700D01*
X358495809Y-100456700D01*
X358495812Y-100456708D01*
X358495010Y-100461772D01*
X358497910Y-100461772D01*
X358497910Y-113851628D01*
X358495107Y-113851628D01*
X358495843Y-113856619D01*
X358495809Y-113856700D01*
X358493843Y-113856700D01*
X353501450Y-113856700D01*
X353501731Y-113854928D01*
X353498830Y-113854928D01*
X353498830Y-100465072D01*
X353501593Y-100465072D01*
X353500868Y-100460152D01*
X353500931Y-100460000D01*
X353502857Y-100460000D01*
X353486729Y-100358168D01*
X353480549Y-100346037D01*
X353444426Y-100275136D01*
X353444425Y-100275135D01*
X353439925Y-100266302D01*
X353408268Y-100234641D01*
X353374034Y-100200404D01*
X353367025Y-100193394D01*
X353275164Y-100146581D01*
X353227385Y-100139009D01*
X353191224Y-100133278D01*
X353191223Y-100133278D01*
X353173333Y-100130443D01*
X353173333Y-100132399D01*
X353173319Y-100132405D01*
X353168259Y-100131603D01*
X353168259Y-100134500D01*
X339778404Y-100134500D01*
X339778404Y-100131733D01*
X339773478Y-100132459D01*
X339773333Y-100132399D01*
X339773333Y-100130473D01*
X339754992Y-100133376D01*
X339754990Y-100133376D01*
X339681292Y-100145042D01*
X339681290Y-100145043D01*
X339671496Y-100146593D01*
X339579625Y-100193395D01*
X339506715Y-100266298D01*
X339459903Y-100358164D01*
X339458352Y-100367954D01*
X339458352Y-100367955D01*
X339447202Y-100438354D01*
X339443773Y-100460000D01*
X339445729Y-100460000D01*
X339445732Y-100460008D01*
X339444930Y-100465072D01*
X339447830Y-100465072D01*
X339447830Y-113854928D01*
X339445008Y-113854928D01*
X339445749Y-113859953D01*
X339445729Y-113860000D01*
X339443743Y-113860000D01*
X334452285Y-113860000D01*
X334452808Y-113856700D01*
X334450851Y-113856700D01*
X334450849Y-113856694D01*
X334451651Y-113851628D01*
X334448750Y-113851628D01*
X334448750Y-100461772D01*
X334451493Y-100461772D01*
X334450773Y-100456888D01*
X334450851Y-100456700D01*
X334452757Y-100456700D01*
X334436631Y-100354872D01*
X334389830Y-100263009D01*
X334382823Y-100256001D01*
X334382821Y-100255998D01*
X334323946Y-100197114D01*
X334323945Y-100197114D01*
X334316935Y-100190102D01*
X334225081Y-100143286D01*
X334215287Y-100141733D01*
X334215286Y-100141733D01*
X334192336Y-100138095D01*
X334123255Y-100127143D01*
X334123255Y-100129099D01*
X334123237Y-100129107D01*
X334118180Y-100128305D01*
X334118180Y-100131200D01*
X320728320Y-100131200D01*
X320728320Y-100128362D01*
X320723265Y-100129107D01*
X320723245Y-100129099D01*
X320723245Y-100127092D01*
X320621404Y-100143238D01*
X320529535Y-100190061D01*
X320522525Y-100197073D01*
X320522524Y-100197073D01*
X320463638Y-100255968D01*
X320463636Y-100255971D01*
X320456629Y-100262979D01*
X320409821Y-100354856D01*
X320393692Y-100456700D01*
X315402757Y-100456700D01*
X315386625Y-100354855D01*
X315339809Y-100262981D01*
X315266893Y-100190071D01*
X315258034Y-100185558D01*
X315183850Y-100147766D01*
X315183848Y-100147765D01*
X315175014Y-100143265D01*
X315073167Y-100127143D01*
X315073167Y-100129099D01*
X315073164Y-100129100D01*
X315068096Y-100128298D01*
X315068096Y-100131200D01*
X301678241Y-100131200D01*
X301678241Y-100128380D01*
X301673219Y-100129120D01*
X301673167Y-100129099D01*
X301673167Y-100127112D01*
X301654822Y-100130019D01*
X301654820Y-100130019D01*
X301592445Y-100139904D01*
X301571327Y-100143251D01*
X301527433Y-100165620D01*
X301488290Y-100185567D01*
X301488287Y-100185569D01*
X301479457Y-100190069D01*
X301406550Y-100262984D01*
X301402051Y-100271814D01*
X301402050Y-100271816D01*
X301402040Y-100271835D01*
X301359741Y-100354858D01*
X301358190Y-100364652D01*
X301358189Y-100364656D01*
X301346446Y-100438805D01*
X301343612Y-100456700D01*
X296352657Y-100456700D01*
X296339746Y-100375180D01*
X296338078Y-100364649D01*
X296338077Y-100364646D01*
X296336527Y-100354859D01*
X296295905Y-100275136D01*
X296294219Y-100271827D01*
X296294218Y-100271826D01*
X296289715Y-100262988D01*
X296216803Y-100190079D01*
X296205463Y-100184301D01*
X296133766Y-100147772D01*
X296124930Y-100143270D01*
X296088802Y-100137549D01*
X296040982Y-100129976D01*
X296040980Y-100129976D01*
X296023089Y-100127143D01*
X296023089Y-100129099D01*
X296023083Y-100129101D01*
X296018017Y-100128299D01*
X296018017Y-100131200D01*
X282628162Y-100131200D01*
X282628162Y-100128398D01*
X282623173Y-100129134D01*
X282623089Y-100129099D01*
X282623089Y-100127132D01*
X282576579Y-100134500D01*
X282531040Y-100141714D01*
X282531039Y-100141714D01*
X282521250Y-100143265D01*
X282494884Y-100156700D01*
X282438250Y-100185558D01*
X282429379Y-100190078D01*
X282356471Y-100262988D01*
X282351971Y-100271820D01*
X282351969Y-100271823D01*
X282314163Y-100346026D01*
X282309662Y-100354860D01*
X282293532Y-100456700D01*
X277302557Y-100456700D01*
X277286428Y-100354863D01*
X277239620Y-100262995D01*
X277166714Y-100190087D01*
X277074847Y-100143275D01*
X277065056Y-100141724D01*
X277065053Y-100141723D01*
X277028845Y-100135988D01*
X276973011Y-100127143D01*
X276973011Y-100129099D01*
X276973001Y-100129103D01*
X276967938Y-100128301D01*
X276967938Y-100131200D01*
X263578083Y-100131200D01*
X263578083Y-100128417D01*
X263573128Y-100129147D01*
X263573011Y-100129099D01*
X263573011Y-100127153D01*
X263554665Y-100130058D01*
X263554664Y-100130058D01*
X263490078Y-100140285D01*
X263471173Y-100143279D01*
X263453051Y-100152512D01*
X263388170Y-100185569D01*
X263379302Y-100190087D01*
X263306393Y-100262994D01*
X263301890Y-100271832D01*
X263301889Y-100271833D01*
X263289910Y-100295344D01*
X263259583Y-100354862D01*
X263258033Y-100364649D01*
X263258032Y-100364653D01*
X263256887Y-100371884D01*
X263243453Y-100456700D01*
X263245409Y-100456700D01*
X263245412Y-100456708D01*
X263244610Y-100461772D01*
X263247510Y-100461772D01*
X263247510Y-113851628D01*
X263244707Y-113851628D01*
X263245443Y-113856619D01*
X263245409Y-113856700D01*
X263243443Y-113856700D01*
X258252488Y-113856700D01*
X258250531Y-113856700D01*
X258250529Y-113856694D01*
X258251331Y-113851628D01*
X258248430Y-113851628D01*
X258248430Y-100461772D01*
X258251193Y-100461772D01*
X258250468Y-100456852D01*
X258250531Y-100456700D01*
X258252457Y-100456700D01*
X258239022Y-100371870D01*
X258237880Y-100364660D01*
X258237879Y-100364656D01*
X258236329Y-100354868D01*
X258189525Y-100263002D01*
X258116625Y-100190094D01*
X258024764Y-100143281D01*
X257993530Y-100138331D01*
X257940824Y-100129978D01*
X257940823Y-100129978D01*
X257922933Y-100127143D01*
X257922933Y-100129099D01*
X257922919Y-100129105D01*
X257917859Y-100128303D01*
X257917859Y-100131200D01*
X244528004Y-100131200D01*
X244528004Y-100128433D01*
X244523078Y-100129159D01*
X244522933Y-100129099D01*
X244522933Y-100127173D01*
X244504592Y-100130076D01*
X244504590Y-100130076D01*
X244430892Y-100141742D01*
X244430890Y-100141743D01*
X244421096Y-100143293D01*
X244329225Y-100190095D01*
X244256315Y-100262998D01*
X244209503Y-100354864D01*
X244193373Y-100456700D01*
X244195329Y-100456700D01*
X244195332Y-100456708D01*
X244194530Y-100461772D01*
X244197430Y-100461772D01*
X244197430Y-113851628D01*
X244194608Y-113851628D01*
X244195349Y-113856653D01*
X244195329Y-113856700D01*
X244193343Y-113856700D01*
X239202408Y-113856700D01*
X239200451Y-113856700D01*
X239200449Y-113856694D01*
X239201251Y-113851628D01*
X239198350Y-113851628D01*
X239198350Y-100461772D01*
X239201093Y-100461772D01*
X239200373Y-100456888D01*
X239200451Y-100456700D01*
X239202357Y-100456700D01*
X239186231Y-100354872D01*
X239139430Y-100263009D01*
X239132423Y-100256001D01*
X239132421Y-100255998D01*
X239073546Y-100197114D01*
X239073545Y-100197114D01*
X239066535Y-100190102D01*
X238974681Y-100143286D01*
X238964887Y-100141733D01*
X238964886Y-100141733D01*
X238941936Y-100138095D01*
X238872855Y-100127143D01*
X238872855Y-100129099D01*
X238872837Y-100129107D01*
X238867780Y-100128305D01*
X238867780Y-100131200D01*
X225477920Y-100131200D01*
X225477920Y-100128362D01*
X225472865Y-100129107D01*
X225472845Y-100129099D01*
X225472845Y-100127092D01*
X225371004Y-100143238D01*
X225279135Y-100190061D01*
X225272125Y-100197073D01*
X225272124Y-100197073D01*
X225213238Y-100255968D01*
X225213236Y-100255971D01*
X225206229Y-100262979D01*
X225159421Y-100354856D01*
X225143292Y-100456700D01*
X220152357Y-100456700D01*
X220136225Y-100354855D01*
X220089409Y-100262981D01*
X220016493Y-100190071D01*
X220007634Y-100185558D01*
X219933450Y-100147766D01*
X219933448Y-100147765D01*
X219924614Y-100143265D01*
X219822767Y-100127143D01*
X219822767Y-100129099D01*
X219822764Y-100129100D01*
X219817696Y-100128298D01*
X219817696Y-100131200D01*
X206427841Y-100131200D01*
X206427841Y-100128380D01*
X206422819Y-100129120D01*
X206422767Y-100129099D01*
X206422767Y-100127112D01*
X206404422Y-100130019D01*
X206404420Y-100130019D01*
X206342045Y-100139904D01*
X206320927Y-100143251D01*
X206277033Y-100165620D01*
X206237890Y-100185567D01*
X206237887Y-100185569D01*
X206229057Y-100190069D01*
X206156150Y-100262984D01*
X206151651Y-100271814D01*
X206151650Y-100271816D01*
X206151640Y-100271835D01*
X206109341Y-100354858D01*
X206107790Y-100364652D01*
X206107789Y-100364656D01*
X206096046Y-100438805D01*
X206093212Y-100456700D01*
X201102257Y-100456700D01*
X201089346Y-100375180D01*
X201087678Y-100364649D01*
X201087677Y-100364646D01*
X201086127Y-100354859D01*
X201045505Y-100275136D01*
X201043819Y-100271827D01*
X201043818Y-100271826D01*
X201039315Y-100262988D01*
X200966403Y-100190079D01*
X200955063Y-100184301D01*
X200883366Y-100147772D01*
X200874530Y-100143270D01*
X200838402Y-100137549D01*
X200790582Y-100129976D01*
X200790580Y-100129976D01*
X200772689Y-100127143D01*
X200772689Y-100129099D01*
X200772683Y-100129101D01*
X200767617Y-100128299D01*
X200767617Y-100131200D01*
X187377762Y-100131200D01*
X187377762Y-100128398D01*
X187372773Y-100129134D01*
X187372689Y-100129099D01*
X187372689Y-100127132D01*
X187326179Y-100134500D01*
X187280640Y-100141714D01*
X187280639Y-100141714D01*
X187270850Y-100143265D01*
X187244484Y-100156700D01*
X187187850Y-100185558D01*
X187178979Y-100190078D01*
X187106071Y-100262988D01*
X187101571Y-100271820D01*
X187101569Y-100271823D01*
X187063763Y-100346026D01*
X187059262Y-100354860D01*
X187043132Y-100456700D01*
X182052157Y-100456700D01*
X182036028Y-100354863D01*
X181989220Y-100262995D01*
X181916314Y-100190087D01*
X181824447Y-100143275D01*
X181814656Y-100141724D01*
X181814653Y-100141723D01*
X181778445Y-100135988D01*
X181722611Y-100127143D01*
X181722611Y-100129099D01*
X181722601Y-100129103D01*
X181717538Y-100128301D01*
X181717538Y-100131200D01*
X168327683Y-100131200D01*
X168327683Y-100128417D01*
X168322728Y-100129147D01*
X168322611Y-100129099D01*
X168322611Y-100127153D01*
X168304265Y-100130058D01*
X168304264Y-100130058D01*
X168239678Y-100140285D01*
X168220773Y-100143279D01*
X168202651Y-100152512D01*
X168137770Y-100185569D01*
X168128902Y-100190087D01*
X168055993Y-100262994D01*
X168051490Y-100271832D01*
X168051489Y-100271833D01*
X168039510Y-100295344D01*
X168009183Y-100354862D01*
X168007633Y-100364649D01*
X168007632Y-100364653D01*
X168006487Y-100371884D01*
X167993053Y-100456700D01*
X167995009Y-100456700D01*
X167995012Y-100456708D01*
X167994210Y-100461772D01*
X167997110Y-100461772D01*
X167997110Y-113851628D01*
X167994307Y-113851628D01*
X167995043Y-113856619D01*
X167995009Y-113856700D01*
X167993043Y-113856700D01*
X163002088Y-113856700D01*
X163000131Y-113856700D01*
X163000129Y-113856694D01*
X163000931Y-113851628D01*
X162998030Y-113851628D01*
X162998030Y-100461772D01*
X163000793Y-100461772D01*
X163000068Y-100456852D01*
X163000131Y-100456700D01*
X163002057Y-100456700D01*
X162988622Y-100371870D01*
X162987480Y-100364660D01*
X162987479Y-100364656D01*
X162985929Y-100354868D01*
X162939125Y-100263002D01*
X162866225Y-100190094D01*
X162774364Y-100143281D01*
X162743130Y-100138331D01*
X162690424Y-100129978D01*
X162690423Y-100129978D01*
X162672533Y-100127143D01*
X162672533Y-100129099D01*
X162672519Y-100129105D01*
X162667459Y-100128303D01*
X162667459Y-100131200D01*
X149277604Y-100131200D01*
X149277604Y-100128433D01*
X149272678Y-100129159D01*
X149272533Y-100129099D01*
X149272533Y-100127173D01*
X149254192Y-100130076D01*
X149254190Y-100130076D01*
X149180492Y-100141742D01*
X149180490Y-100141743D01*
X149170696Y-100143293D01*
X149078825Y-100190095D01*
X149005915Y-100262998D01*
X148959103Y-100354864D01*
X148942973Y-100456700D01*
X148944929Y-100456700D01*
X148944932Y-100456708D01*
X148944130Y-100461772D01*
X148947030Y-100461772D01*
X148947030Y-113851628D01*
X148944208Y-113851628D01*
X148944949Y-113856653D01*
X148944929Y-113856700D01*
X148942943Y-113856700D01*
X146474082Y-113856700D01*
X146474082Y-97631332D01*
X164141355Y-97631332D01*
X164161951Y-97866740D01*
X164163375Y-97872054D01*
X164163375Y-97872055D01*
X164213169Y-98057889D01*
X164223111Y-98094995D01*
X164225433Y-98099975D01*
X164225434Y-98099977D01*
X164298567Y-98256809D01*
X164322979Y-98309161D01*
X164458519Y-98502733D01*
X164625613Y-98669827D01*
X164819185Y-98805367D01*
X164824163Y-98807688D01*
X164824166Y-98807690D01*
X165028369Y-98902912D01*
X165033351Y-98905235D01*
X165038659Y-98906657D01*
X165038661Y-98906658D01*
X165256291Y-98964971D01*
X165261606Y-98966395D01*
X165364696Y-98975414D01*
X165435324Y-98981594D01*
X165435331Y-98981594D01*
X165438048Y-98981832D01*
X165555980Y-98981832D01*
X165558697Y-98981594D01*
X165558704Y-98981594D01*
X165629332Y-98975414D01*
X165732422Y-98966395D01*
X165737737Y-98964971D01*
X165955367Y-98906658D01*
X165955369Y-98906657D01*
X165960677Y-98905235D01*
X165965659Y-98902912D01*
X166169862Y-98807690D01*
X166169865Y-98807688D01*
X166174843Y-98805367D01*
X166368415Y-98669827D01*
X166535509Y-98502733D01*
X166538669Y-98498221D01*
X166667892Y-98313671D01*
X166667895Y-98313666D01*
X166671049Y-98309162D01*
X166673372Y-98304180D01*
X166673375Y-98304175D01*
X166768594Y-98099977D01*
X166768595Y-98099976D01*
X166770917Y-98094995D01*
X166780860Y-98057889D01*
X166830653Y-97872055D01*
X166830653Y-97872054D01*
X166832077Y-97866740D01*
X166846080Y-97706683D01*
X167852755Y-97706683D01*
X167888834Y-97853067D01*
X167892374Y-97859811D01*
X167892375Y-97859815D01*
X167898799Y-97872055D01*
X167958897Y-97986564D01*
X168058871Y-98099414D01*
X168182946Y-98185062D01*
X168190070Y-98187764D01*
X168190072Y-98187765D01*
X168223964Y-98200619D01*
X168323913Y-98238527D01*
X168332410Y-98239559D01*
X168455594Y-98254521D01*
X168455595Y-98254521D01*
X168473578Y-98256705D01*
X168473578Y-98254246D01*
X168478244Y-98252314D01*
X168480287Y-98252145D01*
X184163522Y-98252155D01*
X219661700Y-98252177D01*
X219666249Y-98252527D01*
X219670475Y-98254278D01*
X219670475Y-98256809D01*
X219820149Y-98238641D01*
X219961127Y-98185180D01*
X220085213Y-98099534D01*
X220090265Y-98093832D01*
X220090268Y-98093829D01*
X220180143Y-97992385D01*
X220180145Y-97992382D01*
X220185196Y-97986681D01*
X220188750Y-97979911D01*
X220251725Y-97859926D01*
X220251726Y-97859924D01*
X220255266Y-97853179D01*
X220257123Y-97845647D01*
X220289527Y-97714181D01*
X220289527Y-97714177D01*
X220291349Y-97706787D01*
X220291349Y-97706689D01*
X225002755Y-97706689D01*
X225004579Y-97714088D01*
X225004579Y-97714089D01*
X225037008Y-97845647D01*
X225038841Y-97853085D01*
X225108915Y-97986590D01*
X225113964Y-97992289D01*
X225113965Y-97992290D01*
X225200257Y-98089685D01*
X225208904Y-98099444D01*
X225215174Y-98103771D01*
X225215177Y-98103774D01*
X225261848Y-98135984D01*
X225332997Y-98185088D01*
X225473981Y-98238544D01*
X225481539Y-98239461D01*
X225481543Y-98239462D01*
X225568878Y-98250058D01*
X225623661Y-98256705D01*
X225623661Y-98254246D01*
X225628321Y-98252315D01*
X225630380Y-98252145D01*
X241842505Y-98252152D01*
X295859968Y-98252177D01*
X295867172Y-98252886D01*
X295870532Y-98254278D01*
X295870533Y-98254278D01*
X295870533Y-98256809D01*
X295886136Y-98254914D01*
X295886137Y-98254914D01*
X295998230Y-98241297D01*
X296020197Y-98238629D01*
X296161162Y-98185162D01*
X296232502Y-98135916D01*
X296278964Y-98103844D01*
X296278966Y-98103842D01*
X296285236Y-98099514D01*
X296385209Y-97986662D01*
X296455270Y-97853166D01*
X296457115Y-97845683D01*
X296489526Y-97714178D01*
X296491349Y-97706782D01*
X296491349Y-97706777D01*
X301202924Y-97706777D01*
X301204746Y-97714167D01*
X301204746Y-97714171D01*
X301237179Y-97845755D01*
X301239002Y-97853150D01*
X301242540Y-97859892D01*
X301242542Y-97859896D01*
X301292511Y-97955102D01*
X301309062Y-97986636D01*
X301314118Y-97992343D01*
X301403976Y-98093771D01*
X301403979Y-98093774D01*
X301409031Y-98099476D01*
X301533100Y-98185112D01*
X301674059Y-98238568D01*
X301748404Y-98247593D01*
X301805731Y-98254553D01*
X301823714Y-98256736D01*
X301823714Y-98254278D01*
X301828378Y-98252346D01*
X301830423Y-98252177D01*
X320679793Y-98252165D01*
X353012738Y-98252145D01*
X353016188Y-98252411D01*
X353020619Y-98254246D01*
X353020619Y-98256640D01*
X353037902Y-98254541D01*
X353162703Y-98239384D01*
X353162704Y-98239384D01*
X353170269Y-98238465D01*
X353177396Y-98235762D01*
X353304097Y-98187708D01*
X353304102Y-98187706D01*
X353311222Y-98185005D01*
X353428772Y-98103863D01*
X353429014Y-98103696D01*
X353429015Y-98103695D01*
X353435285Y-98099367D01*
X353535249Y-97986528D01*
X353605305Y-97853045D01*
X353641381Y-97706675D01*
X353641381Y-97631332D01*
X354641515Y-97631332D01*
X354662111Y-97866740D01*
X354663535Y-97872054D01*
X354663535Y-97872055D01*
X354713329Y-98057889D01*
X354723271Y-98094995D01*
X354725593Y-98099975D01*
X354725594Y-98099977D01*
X354798727Y-98256809D01*
X354823139Y-98309161D01*
X354958679Y-98502733D01*
X355125773Y-98669827D01*
X355319345Y-98805367D01*
X355324323Y-98807688D01*
X355324326Y-98807690D01*
X355528529Y-98902912D01*
X355533511Y-98905235D01*
X355538819Y-98906657D01*
X355538821Y-98906658D01*
X355756451Y-98964971D01*
X355761766Y-98966395D01*
X355864856Y-98975414D01*
X355935484Y-98981594D01*
X355935491Y-98981594D01*
X355938208Y-98981832D01*
X356056140Y-98981832D01*
X356058857Y-98981594D01*
X356058864Y-98981594D01*
X356129492Y-98975414D01*
X356232582Y-98966395D01*
X356237897Y-98964971D01*
X356455527Y-98906658D01*
X356455529Y-98906657D01*
X356460837Y-98905235D01*
X356465819Y-98902912D01*
X356670022Y-98807690D01*
X356670025Y-98807688D01*
X356675003Y-98805367D01*
X356868575Y-98669827D01*
X357035669Y-98502733D01*
X357038829Y-98498221D01*
X357168052Y-98313671D01*
X357168055Y-98313666D01*
X357171209Y-98309162D01*
X357173532Y-98304180D01*
X357173535Y-98304175D01*
X357268754Y-98099977D01*
X357268755Y-98099976D01*
X357271077Y-98094995D01*
X357281020Y-98057889D01*
X357330813Y-97872055D01*
X357330813Y-97872054D01*
X357332237Y-97866740D01*
X357352833Y-97631332D01*
X376072783Y-97631332D01*
X376093379Y-97866740D01*
X376094803Y-97872054D01*
X376094803Y-97872055D01*
X376144597Y-98057889D01*
X376154539Y-98094995D01*
X376156861Y-98099975D01*
X376156862Y-98099977D01*
X376229995Y-98256809D01*
X376254407Y-98309161D01*
X376389947Y-98502733D01*
X376557041Y-98669827D01*
X376750613Y-98805367D01*
X376755591Y-98807688D01*
X376755594Y-98807690D01*
X376959797Y-98902912D01*
X376964779Y-98905235D01*
X376970087Y-98906657D01*
X376970089Y-98906658D01*
X377187719Y-98964971D01*
X377193034Y-98966395D01*
X377296124Y-98975414D01*
X377366752Y-98981594D01*
X377366759Y-98981594D01*
X377369476Y-98981832D01*
X377487408Y-98981832D01*
X377490125Y-98981594D01*
X377490132Y-98981594D01*
X377560760Y-98975414D01*
X377663850Y-98966395D01*
X377669165Y-98964971D01*
X377886795Y-98906658D01*
X377886797Y-98906657D01*
X377892105Y-98905235D01*
X377897087Y-98902912D01*
X378101290Y-98807690D01*
X378101293Y-98807688D01*
X378106271Y-98805367D01*
X378299843Y-98669827D01*
X378466937Y-98502733D01*
X378470097Y-98498221D01*
X378599320Y-98313671D01*
X378599323Y-98313666D01*
X378602477Y-98309162D01*
X378604800Y-98304180D01*
X378604803Y-98304175D01*
X378700022Y-98099977D01*
X378700023Y-98099976D01*
X378702345Y-98094995D01*
X378712288Y-98057889D01*
X378762081Y-97872055D01*
X378762081Y-97872054D01*
X378763505Y-97866740D01*
X378784101Y-97631332D01*
X378763505Y-97395924D01*
X378739848Y-97307633D01*
X378703768Y-97172979D01*
X378703767Y-97172977D01*
X378702345Y-97167669D01*
X378698236Y-97158857D01*
X378604800Y-96958484D01*
X378604798Y-96958481D01*
X378602477Y-96953503D01*
X378466937Y-96759931D01*
X378299843Y-96592837D01*
X378106271Y-96457297D01*
X378101293Y-96454976D01*
X378101290Y-96454974D01*
X377897087Y-96359752D01*
X377897085Y-96359751D01*
X377892105Y-96357429D01*
X377886797Y-96356007D01*
X377886795Y-96356006D01*
X377669165Y-96297693D01*
X377669164Y-96297693D01*
X377663850Y-96296269D01*
X377560760Y-96287250D01*
X377490132Y-96281070D01*
X377490125Y-96281070D01*
X377487408Y-96280832D01*
X377369476Y-96280832D01*
X377366759Y-96281070D01*
X377366752Y-96281070D01*
X377296124Y-96287250D01*
X377193034Y-96296269D01*
X377187720Y-96297693D01*
X377187719Y-96297693D01*
X376970089Y-96356006D01*
X376970087Y-96356007D01*
X376964779Y-96357429D01*
X376959799Y-96359751D01*
X376959797Y-96359752D01*
X376755594Y-96454974D01*
X376755591Y-96454976D01*
X376750613Y-96457297D01*
X376557041Y-96592837D01*
X376389947Y-96759931D01*
X376386790Y-96764439D01*
X376386788Y-96764442D01*
X376257564Y-96948993D01*
X376254407Y-96953502D01*
X376252084Y-96958484D01*
X376252081Y-96958489D01*
X376158648Y-97158857D01*
X376154539Y-97167669D01*
X376153117Y-97172977D01*
X376153116Y-97172979D01*
X376117036Y-97307633D01*
X376093379Y-97395924D01*
X376072783Y-97631332D01*
X357352833Y-97631332D01*
X357332237Y-97395924D01*
X357308580Y-97307633D01*
X357272500Y-97172979D01*
X357272499Y-97172977D01*
X357271077Y-97167669D01*
X357266968Y-97158857D01*
X357173532Y-96958484D01*
X357173530Y-96958481D01*
X357171209Y-96953503D01*
X357035669Y-96759931D01*
X356868575Y-96592837D01*
X356675003Y-96457297D01*
X356670025Y-96454976D01*
X356670022Y-96454974D01*
X356465819Y-96359752D01*
X356465817Y-96359751D01*
X356460837Y-96357429D01*
X356455529Y-96356007D01*
X356455527Y-96356006D01*
X356237897Y-96297693D01*
X356237896Y-96297693D01*
X356232582Y-96296269D01*
X356129492Y-96287250D01*
X356058864Y-96281070D01*
X356058857Y-96281070D01*
X356056140Y-96280832D01*
X355938208Y-96280832D01*
X355935491Y-96281070D01*
X355935484Y-96281070D01*
X355864856Y-96287250D01*
X355761766Y-96296269D01*
X355756452Y-96297693D01*
X355756451Y-96297693D01*
X355538821Y-96356006D01*
X355538819Y-96356007D01*
X355533511Y-96357429D01*
X355528531Y-96359751D01*
X355528529Y-96359752D01*
X355324326Y-96454974D01*
X355324323Y-96454976D01*
X355319345Y-96457297D01*
X355125773Y-96592837D01*
X354958679Y-96759931D01*
X354955522Y-96764439D01*
X354955520Y-96764442D01*
X354826296Y-96948993D01*
X354823139Y-96953502D01*
X354820816Y-96958484D01*
X354820813Y-96958489D01*
X354727380Y-97158857D01*
X354723271Y-97167669D01*
X354721849Y-97172977D01*
X354721848Y-97172979D01*
X354685768Y-97307633D01*
X354662111Y-97395924D01*
X354641515Y-97631332D01*
X353641381Y-97631332D01*
X353641381Y-97555925D01*
X353605305Y-97409555D01*
X353535249Y-97276072D01*
X353435285Y-97163233D01*
X353311222Y-97077595D01*
X353304102Y-97074894D01*
X353304097Y-97074892D01*
X353177396Y-97026838D01*
X353177395Y-97026838D01*
X353170269Y-97024135D01*
X353162704Y-97023216D01*
X353162703Y-97023216D01*
X353038603Y-97008144D01*
X353038602Y-97008144D01*
X353020619Y-97005960D01*
X353020619Y-97008418D01*
X353015952Y-97010351D01*
X353013915Y-97010519D01*
X334028599Y-97010531D01*
X301831552Y-97010551D01*
X301828154Y-97010289D01*
X301823714Y-97008450D01*
X301823714Y-97006064D01*
X301674059Y-97024232D01*
X301533100Y-97077688D01*
X301461961Y-97126790D01*
X301415435Y-97158904D01*
X301409031Y-97163324D01*
X301403979Y-97169026D01*
X301403976Y-97169029D01*
X301314248Y-97270310D01*
X301309062Y-97276164D01*
X301305519Y-97282915D01*
X301305518Y-97282916D01*
X301242542Y-97402904D01*
X301242540Y-97402908D01*
X301239002Y-97409650D01*
X301237180Y-97417043D01*
X301237179Y-97417045D01*
X301204749Y-97548619D01*
X301202924Y-97556023D01*
X301202924Y-97706777D01*
X296491349Y-97706777D01*
X296491349Y-97556018D01*
X296460123Y-97429324D01*
X296457094Y-97417033D01*
X296457093Y-97417030D01*
X296455270Y-97409634D01*
X296385209Y-97276138D01*
X296285236Y-97163286D01*
X296278966Y-97158958D01*
X296278964Y-97158956D01*
X296223199Y-97120462D01*
X296161162Y-97077638D01*
X296020197Y-97024171D01*
X295870533Y-97005991D01*
X295870533Y-97008450D01*
X295870532Y-97008450D01*
X295867172Y-97009842D01*
X295859969Y-97010551D01*
X253723423Y-97010532D01*
X225632392Y-97010519D01*
X225627896Y-97010172D01*
X225623661Y-97008418D01*
X225623661Y-97005895D01*
X225542998Y-97015682D01*
X225481543Y-97023138D01*
X225481539Y-97023139D01*
X225473981Y-97024056D01*
X225332997Y-97077512D01*
X225326723Y-97081842D01*
X225215177Y-97158826D01*
X225215174Y-97158829D01*
X225208904Y-97163156D01*
X225203852Y-97168858D01*
X225203851Y-97168859D01*
X225203701Y-97169029D01*
X225108915Y-97276010D01*
X225038841Y-97409515D01*
X225037017Y-97416914D01*
X225037016Y-97416917D01*
X225033958Y-97429324D01*
X225002755Y-97555911D01*
X225002755Y-97706689D01*
X220291349Y-97706689D01*
X220291349Y-97556013D01*
X220289505Y-97548529D01*
X220257090Y-97417020D01*
X220257089Y-97417018D01*
X220255266Y-97409621D01*
X220248077Y-97395924D01*
X220188737Y-97282865D01*
X220188736Y-97282863D01*
X220185196Y-97276119D01*
X220180145Y-97270418D01*
X220180143Y-97270415D01*
X220090268Y-97168971D01*
X220090265Y-97168968D01*
X220085213Y-97163266D01*
X219961127Y-97077620D01*
X219820149Y-97024159D01*
X219708042Y-97010551D01*
X219688460Y-97008174D01*
X219670475Y-97005991D01*
X219670475Y-97008450D01*
X219665812Y-97010382D01*
X219663760Y-97010551D01*
X203746449Y-97010541D01*
X168482291Y-97010519D01*
X168477819Y-97010174D01*
X168473578Y-97008418D01*
X168473578Y-97005895D01*
X168456296Y-97007994D01*
X168435507Y-97010519D01*
X168323913Y-97024073D01*
X168235224Y-97057710D01*
X168190072Y-97074835D01*
X168190070Y-97074836D01*
X168182946Y-97077538D01*
X168176674Y-97081867D01*
X168176673Y-97081868D01*
X168145057Y-97103692D01*
X168058871Y-97163186D01*
X167958897Y-97276036D01*
X167955286Y-97282916D01*
X167892375Y-97402785D01*
X167892374Y-97402789D01*
X167888834Y-97409533D01*
X167852755Y-97555917D01*
X167852755Y-97706683D01*
X166846080Y-97706683D01*
X166852673Y-97631332D01*
X166832077Y-97395924D01*
X166808420Y-97307633D01*
X166772340Y-97172979D01*
X166772339Y-97172977D01*
X166770917Y-97167669D01*
X166766808Y-97158857D01*
X166673372Y-96958484D01*
X166673370Y-96958481D01*
X166671049Y-96953503D01*
X166535509Y-96759931D01*
X166368415Y-96592837D01*
X166174843Y-96457297D01*
X166169865Y-96454976D01*
X166169862Y-96454974D01*
X165965659Y-96359752D01*
X165965657Y-96359751D01*
X165960677Y-96357429D01*
X165955369Y-96356007D01*
X165955367Y-96356006D01*
X165737737Y-96297693D01*
X165737736Y-96297693D01*
X165732422Y-96296269D01*
X165629332Y-96287250D01*
X165558704Y-96281070D01*
X165558697Y-96281070D01*
X165555980Y-96280832D01*
X165438048Y-96280832D01*
X165435331Y-96281070D01*
X165435324Y-96281070D01*
X165364696Y-96287250D01*
X165261606Y-96296269D01*
X165256292Y-96297693D01*
X165256291Y-96297693D01*
X165038661Y-96356006D01*
X165038659Y-96356007D01*
X165033351Y-96357429D01*
X165028371Y-96359751D01*
X165028369Y-96359752D01*
X164824166Y-96454974D01*
X164824163Y-96454976D01*
X164819185Y-96457297D01*
X164625613Y-96592837D01*
X164458519Y-96759931D01*
X164455362Y-96764439D01*
X164455360Y-96764442D01*
X164326136Y-96948993D01*
X164322979Y-96953502D01*
X164320656Y-96958484D01*
X164320653Y-96958489D01*
X164227220Y-97158857D01*
X164223111Y-97167669D01*
X164221689Y-97172977D01*
X164221688Y-97172979D01*
X164185608Y-97307633D01*
X164161951Y-97395924D01*
X164141355Y-97631332D01*
X146474082Y-97631332D01*
X146474082Y-94806622D01*
X148942922Y-94806622D01*
X148959060Y-94908468D01*
X149005881Y-95000342D01*
X149078802Y-95073251D01*
X149170684Y-95120057D01*
X149220873Y-95128001D01*
X149254639Y-95133346D01*
X149254640Y-95133346D01*
X149272533Y-95136178D01*
X149272533Y-95134221D01*
X149277604Y-95135024D01*
X149277604Y-95132120D01*
X162667459Y-95132120D01*
X162667459Y-95134920D01*
X162672446Y-95134185D01*
X162672533Y-95134221D01*
X162672533Y-95136188D01*
X162690878Y-95133281D01*
X162690880Y-95133281D01*
X162731306Y-95126874D01*
X162774369Y-95120050D01*
X162783203Y-95115548D01*
X162783207Y-95115547D01*
X162842418Y-95085373D01*
X162866236Y-95073236D01*
X162939142Y-95000327D01*
X162967134Y-94945392D01*
X162981452Y-94917293D01*
X162981453Y-94917290D01*
X162985953Y-94908459D01*
X162987504Y-94898668D01*
X162987505Y-94898666D01*
X162993709Y-94859506D01*
X163002088Y-94806622D01*
X167993022Y-94806622D01*
X167995929Y-94824969D01*
X167995929Y-94824971D01*
X168007607Y-94898667D01*
X168009159Y-94908464D01*
X168013657Y-94917290D01*
X168013659Y-94917295D01*
X168024346Y-94938267D01*
X168055976Y-95000335D01*
X168128891Y-95073243D01*
X168137723Y-95077743D01*
X168137725Y-95077744D01*
X168143975Y-95080928D01*
X168220767Y-95120051D01*
X168230564Y-95121602D01*
X168230566Y-95121603D01*
X168304718Y-95133345D01*
X168304719Y-95133345D01*
X168322611Y-95136178D01*
X168322611Y-95134221D01*
X168322615Y-95134219D01*
X168327683Y-95135022D01*
X168327683Y-95132120D01*
X181717538Y-95132120D01*
X181717538Y-95134902D01*
X181722492Y-95134172D01*
X181722611Y-95134221D01*
X181722611Y-95136168D01*
X181824446Y-95120036D01*
X181916313Y-95073227D01*
X181989221Y-95000322D01*
X181993723Y-94991488D01*
X182031533Y-94917289D01*
X182031534Y-94917286D01*
X182036033Y-94908457D01*
X182052168Y-94806622D01*
X187043122Y-94806622D01*
X187046029Y-94824969D01*
X187057674Y-94898466D01*
X187059257Y-94908460D01*
X187106071Y-95000328D01*
X187178981Y-95073235D01*
X187193357Y-95080560D01*
X187262006Y-95115539D01*
X187270851Y-95120046D01*
X187372689Y-95136178D01*
X187372689Y-95134221D01*
X187372697Y-95134217D01*
X187377762Y-95135020D01*
X187377762Y-95132120D01*
X200767617Y-95132120D01*
X200767617Y-95134884D01*
X200772538Y-95134159D01*
X200772689Y-95134221D01*
X200772689Y-95136147D01*
X200874523Y-95120022D01*
X200951257Y-95080928D01*
X200957556Y-95077719D01*
X200957557Y-95077718D01*
X200966390Y-95073218D01*
X200976417Y-95063192D01*
X201032287Y-95007329D01*
X201032289Y-95007326D01*
X201039299Y-95000317D01*
X201086112Y-94908454D01*
X201088807Y-94891450D01*
X201099412Y-94824514D01*
X201099412Y-94824513D01*
X201102247Y-94806622D01*
X201100291Y-94806622D01*
X201100287Y-94806612D01*
X201101089Y-94801549D01*
X201098190Y-94801549D01*
X201098190Y-81411694D01*
X201100975Y-81411694D01*
X201100244Y-81406735D01*
X201100291Y-81406622D01*
X201102237Y-81406622D01*
X206093212Y-81406622D01*
X206095169Y-81406622D01*
X206095170Y-81406624D01*
X206094367Y-81411694D01*
X206097270Y-81411694D01*
X206097270Y-94801549D01*
X206094488Y-94801549D01*
X206095218Y-94806503D01*
X206095169Y-94806622D01*
X206093222Y-94806622D01*
X206109356Y-94908456D01*
X206113856Y-94917287D01*
X206113857Y-94917290D01*
X206151663Y-94991485D01*
X206151665Y-94991488D01*
X206156166Y-95000321D01*
X206229070Y-95073228D01*
X206237901Y-95077728D01*
X206237902Y-95077729D01*
X206276231Y-95097261D01*
X206320934Y-95120041D01*
X206330728Y-95121593D01*
X206404875Y-95133343D01*
X206404876Y-95133343D01*
X206422767Y-95136178D01*
X206422767Y-95134221D01*
X206422779Y-95134216D01*
X206427841Y-95135018D01*
X206427841Y-95132120D01*
X219817696Y-95132120D01*
X219817696Y-95134867D01*
X219822586Y-95134146D01*
X219822767Y-95134221D01*
X219822767Y-95136127D01*
X219841108Y-95133224D01*
X219841110Y-95133224D01*
X219914441Y-95121616D01*
X219924600Y-95120008D01*
X220016468Y-95073210D01*
X220089377Y-95000312D01*
X220093969Y-94991303D01*
X220114169Y-94951664D01*
X220136191Y-94908452D01*
X220138918Y-94891243D01*
X220149492Y-94824515D01*
X220149492Y-94824513D01*
X220152327Y-94806622D01*
X220150371Y-94806622D01*
X220150365Y-94806608D01*
X220151167Y-94801549D01*
X220148270Y-94801549D01*
X220148270Y-81411694D01*
X220151075Y-81411694D01*
X220150339Y-81406700D01*
X220150371Y-81406622D01*
X220152337Y-81406622D01*
X225143292Y-81406622D01*
X225145249Y-81406622D01*
X225145250Y-81406624D01*
X225144447Y-81411694D01*
X225147350Y-81411694D01*
X225147350Y-94801549D01*
X225144588Y-94801549D01*
X225145313Y-94806467D01*
X225145249Y-94806622D01*
X225143322Y-94806622D01*
X225159455Y-94908451D01*
X225174647Y-94938267D01*
X225201670Y-94991303D01*
X225206261Y-95000314D01*
X225279159Y-95073220D01*
X225294660Y-95081120D01*
X225362156Y-95115519D01*
X225371017Y-95120035D01*
X225380811Y-95121588D01*
X225380812Y-95121588D01*
X225404263Y-95125306D01*
X225472845Y-95136178D01*
X225472845Y-95134221D01*
X225472861Y-95134214D01*
X225477920Y-95135016D01*
X225477920Y-95132120D01*
X238867780Y-95132120D01*
X238867780Y-95134938D01*
X238872800Y-95134198D01*
X238872855Y-95134221D01*
X238872855Y-95136208D01*
X238974692Y-95120064D01*
X239066558Y-95073244D01*
X239139464Y-95000332D01*
X239186274Y-94908461D01*
X239202408Y-94806622D01*
X244193322Y-94806622D01*
X244209460Y-94908468D01*
X244256281Y-95000342D01*
X244329202Y-95073251D01*
X244421084Y-95120057D01*
X244471273Y-95128001D01*
X244505039Y-95133346D01*
X244505040Y-95133346D01*
X244522933Y-95136178D01*
X244522933Y-95134221D01*
X244528004Y-95135024D01*
X244528004Y-95132120D01*
X257917859Y-95132120D01*
X257917859Y-95134920D01*
X257922846Y-95134185D01*
X257922933Y-95134221D01*
X257922933Y-95136188D01*
X257941278Y-95133281D01*
X257941280Y-95133281D01*
X257981706Y-95126874D01*
X258024769Y-95120050D01*
X258033603Y-95115548D01*
X258033607Y-95115547D01*
X258092818Y-95085373D01*
X258116636Y-95073236D01*
X258189542Y-95000327D01*
X258217534Y-94945392D01*
X258231852Y-94917293D01*
X258231853Y-94917290D01*
X258236353Y-94908459D01*
X258237904Y-94898668D01*
X258237905Y-94898666D01*
X258244109Y-94859506D01*
X258252488Y-94806622D01*
X263243422Y-94806622D01*
X263246329Y-94824969D01*
X263246329Y-94824971D01*
X263258007Y-94898667D01*
X263259559Y-94908464D01*
X263264057Y-94917290D01*
X263264059Y-94917295D01*
X263274746Y-94938267D01*
X263306376Y-95000335D01*
X263379291Y-95073243D01*
X263388123Y-95077743D01*
X263388125Y-95077744D01*
X263394375Y-95080928D01*
X263471167Y-95120051D01*
X263480964Y-95121602D01*
X263480966Y-95121603D01*
X263555118Y-95133345D01*
X263555119Y-95133345D01*
X263573011Y-95136178D01*
X263573011Y-95134221D01*
X263573015Y-95134219D01*
X263578083Y-95135022D01*
X263578083Y-95132120D01*
X276967938Y-95132120D01*
X276967938Y-95134902D01*
X276972892Y-95134172D01*
X276973011Y-95134221D01*
X276973011Y-95136168D01*
X277074846Y-95120036D01*
X277166713Y-95073227D01*
X277239621Y-95000322D01*
X277244123Y-94991488D01*
X277281933Y-94917289D01*
X277281934Y-94917286D01*
X277286433Y-94908457D01*
X277302568Y-94806622D01*
X282293522Y-94806622D01*
X282296429Y-94824969D01*
X282308074Y-94898466D01*
X282309657Y-94908460D01*
X282356471Y-95000328D01*
X282429381Y-95073235D01*
X282443757Y-95080560D01*
X282512406Y-95115539D01*
X282521251Y-95120046D01*
X282623089Y-95136178D01*
X282623089Y-95134221D01*
X282623097Y-95134217D01*
X282628162Y-95135020D01*
X282628162Y-95132120D01*
X296018017Y-95132120D01*
X296018017Y-95134884D01*
X296022938Y-95134159D01*
X296023089Y-95134221D01*
X296023089Y-95136147D01*
X296124923Y-95120022D01*
X296201657Y-95080928D01*
X296207956Y-95077719D01*
X296207957Y-95077718D01*
X296216790Y-95073218D01*
X296226817Y-95063192D01*
X296282687Y-95007329D01*
X296282689Y-95007326D01*
X296289699Y-95000317D01*
X296336512Y-94908454D01*
X296339207Y-94891450D01*
X296349812Y-94824514D01*
X296349812Y-94824513D01*
X296352647Y-94806622D01*
X296350691Y-94806622D01*
X296350687Y-94806612D01*
X296351489Y-94801549D01*
X296348590Y-94801549D01*
X296348590Y-81411694D01*
X296351375Y-81411694D01*
X296350644Y-81406735D01*
X296350691Y-81406622D01*
X296352637Y-81406622D01*
X301343612Y-81406622D01*
X301345569Y-81406622D01*
X301345570Y-81406624D01*
X301344767Y-81411694D01*
X301347670Y-81411694D01*
X301347670Y-94801549D01*
X301344888Y-94801549D01*
X301345618Y-94806503D01*
X301345569Y-94806622D01*
X301343622Y-94806622D01*
X301359756Y-94908456D01*
X301364256Y-94917287D01*
X301364257Y-94917290D01*
X301402063Y-94991485D01*
X301402065Y-94991488D01*
X301406566Y-95000321D01*
X301479470Y-95073228D01*
X301488301Y-95077728D01*
X301488302Y-95077729D01*
X301526631Y-95097261D01*
X301571334Y-95120041D01*
X301581128Y-95121593D01*
X301655275Y-95133343D01*
X301655276Y-95133343D01*
X301673167Y-95136178D01*
X301673167Y-95134221D01*
X301673179Y-95134216D01*
X301678241Y-95135018D01*
X301678241Y-95132120D01*
X315068096Y-95132120D01*
X315068096Y-95134867D01*
X315072986Y-95134146D01*
X315073167Y-95134221D01*
X315073167Y-95136127D01*
X315091508Y-95133224D01*
X315091510Y-95133224D01*
X315164841Y-95121616D01*
X315175000Y-95120008D01*
X315266868Y-95073210D01*
X315339777Y-95000312D01*
X315344369Y-94991303D01*
X315364569Y-94951664D01*
X315386591Y-94908452D01*
X315389318Y-94891243D01*
X315399892Y-94824515D01*
X315399892Y-94824513D01*
X315402727Y-94806622D01*
X315400771Y-94806622D01*
X315400765Y-94806608D01*
X315401567Y-94801549D01*
X315398670Y-94801549D01*
X315398670Y-81411694D01*
X315401475Y-81411694D01*
X315400739Y-81406700D01*
X315400771Y-81406622D01*
X315402737Y-81406622D01*
X320393692Y-81406622D01*
X320395649Y-81406622D01*
X320395650Y-81406624D01*
X320394847Y-81411694D01*
X320397750Y-81411694D01*
X320397750Y-94801549D01*
X320394988Y-94801549D01*
X320395713Y-94806467D01*
X320395649Y-94806622D01*
X320393722Y-94806622D01*
X320409855Y-94908451D01*
X320425047Y-94938267D01*
X320452070Y-94991303D01*
X320456661Y-95000314D01*
X320529559Y-95073220D01*
X320545060Y-95081120D01*
X320612556Y-95115519D01*
X320621417Y-95120035D01*
X320631211Y-95121588D01*
X320631212Y-95121588D01*
X320654663Y-95125306D01*
X320723245Y-95136178D01*
X320723245Y-95134221D01*
X320723261Y-95134214D01*
X320728320Y-95135016D01*
X320728320Y-95132120D01*
X334118180Y-95132120D01*
X334118180Y-95134938D01*
X334123200Y-95134198D01*
X334123255Y-95134221D01*
X334123255Y-95136208D01*
X334225092Y-95120064D01*
X334316958Y-95073244D01*
X334389864Y-95000332D01*
X334436674Y-94908461D01*
X334452808Y-94806622D01*
X339443722Y-94806622D01*
X339459860Y-94908468D01*
X339506681Y-95000342D01*
X339579602Y-95073251D01*
X339671484Y-95120057D01*
X339721673Y-95128001D01*
X339755439Y-95133346D01*
X339755440Y-95133346D01*
X339773333Y-95136178D01*
X339773333Y-95134221D01*
X339778404Y-95135024D01*
X339778404Y-95132120D01*
X353168259Y-95132120D01*
X353168259Y-95134920D01*
X353173246Y-95134185D01*
X353173333Y-95134221D01*
X353173333Y-95136188D01*
X353191678Y-95133281D01*
X353191680Y-95133281D01*
X353232106Y-95126874D01*
X353275169Y-95120050D01*
X353284003Y-95115548D01*
X353284007Y-95115547D01*
X353343218Y-95085373D01*
X353367036Y-95073236D01*
X353439942Y-95000327D01*
X353467934Y-94945392D01*
X353482252Y-94917293D01*
X353482253Y-94917290D01*
X353486753Y-94908459D01*
X353488304Y-94898668D01*
X353488305Y-94898666D01*
X353494509Y-94859506D01*
X353502888Y-94806622D01*
X358493822Y-94806622D01*
X358496729Y-94824969D01*
X358496729Y-94824971D01*
X358508407Y-94898667D01*
X358509959Y-94908464D01*
X358514457Y-94917290D01*
X358514459Y-94917295D01*
X358525146Y-94938267D01*
X358556776Y-95000335D01*
X358629691Y-95073243D01*
X358638523Y-95077743D01*
X358638525Y-95077744D01*
X358644775Y-95080928D01*
X358721567Y-95120051D01*
X358731364Y-95121602D01*
X358731366Y-95121603D01*
X358805518Y-95133345D01*
X358805519Y-95133345D01*
X358823411Y-95136178D01*
X358823411Y-95134221D01*
X358823415Y-95134219D01*
X358828483Y-95135022D01*
X358828483Y-95132120D01*
X372218338Y-95132120D01*
X372218338Y-95134902D01*
X372223292Y-95134172D01*
X372223411Y-95134221D01*
X372223411Y-95136168D01*
X372325246Y-95120036D01*
X372417113Y-95073227D01*
X372490021Y-95000322D01*
X372494523Y-94991488D01*
X372532333Y-94917289D01*
X372532334Y-94917286D01*
X372536833Y-94908457D01*
X372552968Y-94806622D01*
X372551011Y-94806622D01*
X372551008Y-94806614D01*
X372551810Y-94801549D01*
X372548910Y-94801549D01*
X372548910Y-94654767D01*
X376803069Y-94654767D01*
X376821241Y-94804429D01*
X376874702Y-94945392D01*
X376879030Y-94951663D01*
X376879031Y-94951664D01*
X376890275Y-94967953D01*
X376960344Y-95069466D01*
X377073190Y-95169439D01*
X377079940Y-95172982D01*
X377079942Y-95172983D01*
X377199933Y-95235959D01*
X377206682Y-95239501D01*
X377353062Y-95275580D01*
X377503822Y-95275580D01*
X377650202Y-95239501D01*
X377656951Y-95235959D01*
X377776942Y-95172983D01*
X377776944Y-95172982D01*
X377783694Y-95169439D01*
X377896540Y-95069466D01*
X377966609Y-94967953D01*
X377977853Y-94951664D01*
X377977854Y-94951663D01*
X377982182Y-94945392D01*
X378034884Y-94806431D01*
X382306314Y-94806431D01*
X382309221Y-94824777D01*
X382309221Y-94824778D01*
X382320900Y-94898476D01*
X382322452Y-94908269D01*
X382326953Y-94917102D01*
X382326954Y-94917104D01*
X382364766Y-94991303D01*
X382369268Y-95000137D01*
X382397609Y-95028476D01*
X382435168Y-95066034D01*
X382435170Y-95066036D01*
X382442179Y-95073044D01*
X382534050Y-95119854D01*
X382543843Y-95121405D01*
X382543845Y-95121406D01*
X382585904Y-95128068D01*
X382635889Y-95135986D01*
X382635889Y-95134029D01*
X382635897Y-95134026D01*
X382640962Y-95134828D01*
X382640962Y-95131928D01*
X396030817Y-95131928D01*
X396030817Y-95134684D01*
X396035724Y-95133961D01*
X396035889Y-95134029D01*
X396035889Y-95135947D01*
X396137721Y-95119822D01*
X396213689Y-95081120D01*
X396220752Y-95077522D01*
X396220754Y-95077520D01*
X396229588Y-95073020D01*
X396302496Y-95000121D01*
X396343546Y-94919572D01*
X396344807Y-94917098D01*
X396344808Y-94917095D01*
X396349310Y-94908261D01*
X396362509Y-94824970D01*
X396362612Y-94824323D01*
X396362612Y-94824322D01*
X396365447Y-94806431D01*
X396363491Y-94806431D01*
X396363485Y-94806417D01*
X396364287Y-94801357D01*
X396361390Y-94801357D01*
X396361390Y-81411502D01*
X396364168Y-81411502D01*
X396363439Y-81406557D01*
X396363491Y-81406431D01*
X396365429Y-81406431D01*
X396349308Y-81304591D01*
X396302503Y-81212719D01*
X396229597Y-81139809D01*
X396220715Y-81135283D01*
X396181875Y-81115492D01*
X396137728Y-81092998D01*
X396114014Y-81089243D01*
X396053782Y-81079704D01*
X396053780Y-81079704D01*
X396035889Y-81076871D01*
X396035889Y-81078827D01*
X396035883Y-81078829D01*
X396030817Y-81078027D01*
X396030817Y-81080928D01*
X382640962Y-81080928D01*
X382640962Y-81078098D01*
X382635923Y-81078841D01*
X382635889Y-81078827D01*
X382635889Y-81076832D01*
X382534044Y-81092967D01*
X382525210Y-81097469D01*
X382525209Y-81097469D01*
X382488107Y-81116376D01*
X382442170Y-81139785D01*
X382435162Y-81146794D01*
X382435159Y-81146796D01*
X382376275Y-81205687D01*
X382369260Y-81212703D01*
X382364757Y-81221543D01*
X382364756Y-81221544D01*
X382352776Y-81245062D01*
X382322454Y-81304583D01*
X382306332Y-81406431D01*
X382308289Y-81406431D01*
X382308290Y-81406432D01*
X382307487Y-81411502D01*
X382310390Y-81411502D01*
X382310390Y-94801357D01*
X382307582Y-94801357D01*
X382308319Y-94806358D01*
X382308289Y-94806431D01*
X382306314Y-94806431D01*
X378034884Y-94806431D01*
X378035643Y-94804429D01*
X378053815Y-94654767D01*
X378051356Y-94654767D01*
X378049424Y-94650103D01*
X378049255Y-94648056D01*
X378049255Y-75756448D01*
X382306298Y-75756448D01*
X382322441Y-75858287D01*
X382326987Y-75867207D01*
X382364746Y-75941295D01*
X382369261Y-75950155D01*
X382442175Y-76023061D01*
X382451006Y-76027561D01*
X382451007Y-76027561D01*
X382525215Y-76065370D01*
X382525217Y-76065371D01*
X382534048Y-76069870D01*
X382635889Y-76086002D01*
X382635889Y-76084045D01*
X382635897Y-76084042D01*
X382640962Y-76084844D01*
X382640962Y-76081944D01*
X396030817Y-76081944D01*
X396030817Y-76084685D01*
X396035697Y-76083966D01*
X396035889Y-76084045D01*
X396035889Y-76085947D01*
X396054236Y-76083042D01*
X396058386Y-76082385D01*
X396137718Y-76069824D01*
X396146557Y-76065321D01*
X396220746Y-76027526D01*
X396220748Y-76027524D01*
X396229582Y-76023024D01*
X396236592Y-76016015D01*
X396236595Y-76016013D01*
X396295478Y-75957140D01*
X396295479Y-75957139D01*
X396302489Y-75950130D01*
X396349305Y-75858274D01*
X396362595Y-75774439D01*
X396362611Y-75774341D01*
X396362611Y-75774339D01*
X396365447Y-75756448D01*
X396363491Y-75756448D01*
X396363483Y-75756430D01*
X396364285Y-75751373D01*
X396361390Y-75751373D01*
X396361390Y-62361518D01*
X396364154Y-62361518D01*
X396363429Y-62356598D01*
X396363491Y-62356448D01*
X396365413Y-62356448D01*
X396350863Y-62264506D01*
X396350847Y-62264404D01*
X396350847Y-62264403D01*
X396349297Y-62254610D01*
X396319038Y-62195209D01*
X396306999Y-62171576D01*
X396306998Y-62171574D01*
X396302496Y-62162737D01*
X396229593Y-62089826D01*
X396220762Y-62085326D01*
X396220759Y-62085324D01*
X396183660Y-62066421D01*
X396137726Y-62043015D01*
X396060029Y-62030710D01*
X396053784Y-62029721D01*
X396035889Y-62026887D01*
X396035889Y-62028843D01*
X396035881Y-62028846D01*
X396030817Y-62028044D01*
X396030817Y-62030944D01*
X382640962Y-62030944D01*
X382640962Y-62028098D01*
X382635894Y-62028845D01*
X382635889Y-62028843D01*
X382635889Y-62026832D01*
X382534040Y-62042968D01*
X382525205Y-62047470D01*
X382525203Y-62047471D01*
X382453435Y-62084045D01*
X382442164Y-62089789D01*
X382405700Y-62126260D01*
X382376268Y-62155696D01*
X382376266Y-62155699D01*
X382369254Y-62162712D01*
X382364751Y-62171551D01*
X382364751Y-62171552D01*
X382364695Y-62171662D01*
X382322450Y-62254597D01*
X382320900Y-62264388D01*
X382320900Y-62264390D01*
X382309219Y-62338202D01*
X382306332Y-62356448D01*
X382308288Y-62356448D01*
X382307486Y-62361518D01*
X382310390Y-62361518D01*
X382310390Y-75751373D01*
X382307567Y-75751373D01*
X382308308Y-75756401D01*
X382308289Y-75756448D01*
X382306298Y-75756448D01*
X378049255Y-75756448D01*
X378049255Y-52991160D01*
X378049561Y-52987191D01*
X378051356Y-52982857D01*
X378053815Y-52982857D01*
X378035643Y-52833195D01*
X377982182Y-52692232D01*
X377896540Y-52568158D01*
X377783694Y-52468185D01*
X377776944Y-52464642D01*
X377776942Y-52464641D01*
X377656951Y-52401665D01*
X377656950Y-52401665D01*
X377650202Y-52398123D01*
X377503822Y-52362044D01*
X377353062Y-52362044D01*
X377206682Y-52398123D01*
X377199934Y-52401665D01*
X377199933Y-52401665D01*
X377079942Y-52464641D01*
X377079940Y-52464642D01*
X377073190Y-52468185D01*
X376960344Y-52568158D01*
X376874702Y-52692232D01*
X376821241Y-52833195D01*
X376803069Y-52982857D01*
X376805528Y-52982857D01*
X376807460Y-52987521D01*
X376807629Y-52989568D01*
X376807629Y-94646464D01*
X376807323Y-94650433D01*
X376805528Y-94654767D01*
X376803069Y-94654767D01*
X372548910Y-94654767D01*
X372548910Y-81411694D01*
X372551675Y-81411694D01*
X372550949Y-81406771D01*
X372551011Y-81406622D01*
X372552937Y-81406622D01*
X372550002Y-81388085D01*
X372538365Y-81314580D01*
X372538364Y-81314576D01*
X372536814Y-81304786D01*
X372490011Y-81212917D01*
X372417109Y-81140008D01*
X372371177Y-81116602D01*
X372334080Y-81097698D01*
X372334079Y-81097698D01*
X372325245Y-81093196D01*
X372223411Y-81077063D01*
X372223411Y-81079019D01*
X372223401Y-81079023D01*
X372218338Y-81078221D01*
X372218338Y-81081120D01*
X358828483Y-81081120D01*
X358828483Y-81078317D01*
X358823492Y-81079053D01*
X358823411Y-81079019D01*
X358823411Y-81077053D01*
X358757972Y-81087416D01*
X358731368Y-81091629D01*
X358731367Y-81091629D01*
X358721569Y-81093181D01*
X358712730Y-81097685D01*
X358712729Y-81097685D01*
X358712688Y-81097706D01*
X358629695Y-81139992D01*
X358556786Y-81212904D01*
X358552287Y-81221735D01*
X358552283Y-81221741D01*
X358514481Y-81295938D01*
X358509977Y-81304779D01*
X358508427Y-81314571D01*
X358508426Y-81314573D01*
X358501773Y-81356599D01*
X358493853Y-81406622D01*
X358495809Y-81406622D01*
X358495811Y-81406626D01*
X358495008Y-81411694D01*
X358497910Y-81411694D01*
X358497910Y-94801549D01*
X358495089Y-94801549D01*
X358495830Y-94806572D01*
X358495809Y-94806622D01*
X358493822Y-94806622D01*
X353502888Y-94806622D01*
X353500931Y-94806622D01*
X353500927Y-94806613D01*
X353501730Y-94801549D01*
X353498830Y-94801549D01*
X353498830Y-81411694D01*
X353501575Y-81411694D01*
X353500855Y-81406806D01*
X353500931Y-81406622D01*
X353502837Y-81406622D01*
X353499933Y-81388278D01*
X353488267Y-81314586D01*
X353488267Y-81314585D01*
X353486716Y-81304790D01*
X353439917Y-81212924D01*
X353367020Y-81140016D01*
X353358184Y-81135513D01*
X353358183Y-81135512D01*
X353284001Y-81097706D01*
X353284002Y-81097706D01*
X353275162Y-81093201D01*
X353215249Y-81083706D01*
X353191223Y-81079898D01*
X353191222Y-81079898D01*
X353173333Y-81077063D01*
X353173333Y-81079019D01*
X353173319Y-81079025D01*
X353168259Y-81078223D01*
X353168259Y-81081120D01*
X339778404Y-81081120D01*
X339778404Y-81078334D01*
X339773444Y-81079065D01*
X339773333Y-81079019D01*
X339773333Y-81077073D01*
X339754987Y-81079977D01*
X339729588Y-81083998D01*
X339671491Y-81093194D01*
X339579618Y-81140001D01*
X339506707Y-81212909D01*
X339459898Y-81304781D01*
X339443773Y-81406622D01*
X339445729Y-81406622D01*
X339445731Y-81406626D01*
X339444928Y-81411694D01*
X339447830Y-81411694D01*
X339447830Y-94801549D01*
X339444989Y-94801549D01*
X339445735Y-94806608D01*
X339445729Y-94806622D01*
X339443722Y-94806622D01*
X334452808Y-94806622D01*
X334450851Y-94806622D01*
X334450848Y-94806614D01*
X334451650Y-94801549D01*
X334448750Y-94801549D01*
X334448750Y-81411694D01*
X334451475Y-81411694D01*
X334450760Y-81406842D01*
X334450851Y-81406622D01*
X334452737Y-81406622D01*
X334439310Y-81321804D01*
X334438168Y-81314589D01*
X334438167Y-81314586D01*
X334436617Y-81304795D01*
X334432113Y-81295952D01*
X334406290Y-81245259D01*
X334389822Y-81212931D01*
X334353364Y-81176465D01*
X334323940Y-81147034D01*
X334323938Y-81147033D01*
X334316931Y-81140024D01*
X334225079Y-81093207D01*
X334215288Y-81091655D01*
X334215286Y-81091654D01*
X334182028Y-81086381D01*
X334123255Y-81077063D01*
X334123255Y-81079019D01*
X334123237Y-81079027D01*
X334118180Y-81078225D01*
X334118180Y-81081120D01*
X320728320Y-81081120D01*
X320728320Y-81078262D01*
X320723245Y-81079010D01*
X320723245Y-81076992D01*
X320673845Y-81084824D01*
X320631192Y-81091586D01*
X320631189Y-81091587D01*
X320621400Y-81093139D01*
X320574325Y-81117133D01*
X320538364Y-81135462D01*
X320538363Y-81135463D01*
X320529528Y-81139966D01*
X320456621Y-81212890D01*
X320452120Y-81221725D01*
X320452119Y-81221727D01*
X320414315Y-81295938D01*
X320414314Y-81295941D01*
X320409815Y-81304773D01*
X320393692Y-81406622D01*
X315402737Y-81406622D01*
X315386612Y-81304778D01*
X315382011Y-81295747D01*
X315344303Y-81221738D01*
X315344301Y-81221735D01*
X315339801Y-81212903D01*
X315266888Y-81139993D01*
X315175012Y-81093185D01*
X315073167Y-81077063D01*
X315073167Y-81079019D01*
X315073164Y-81079020D01*
X315068096Y-81078218D01*
X315068096Y-81081120D01*
X301678241Y-81081120D01*
X301678241Y-81078280D01*
X301673184Y-81079026D01*
X301673167Y-81079019D01*
X301673167Y-81077012D01*
X301654818Y-81079920D01*
X301581113Y-81091601D01*
X301581111Y-81091602D01*
X301571322Y-81093153D01*
X301479450Y-81139974D01*
X301406542Y-81212894D01*
X301359736Y-81304775D01*
X301343612Y-81406622D01*
X296352637Y-81406622D01*
X296339208Y-81321804D01*
X296338064Y-81314577D01*
X296338063Y-81314573D01*
X296336513Y-81304782D01*
X296289706Y-81212910D01*
X296216799Y-81140000D01*
X296133799Y-81097710D01*
X296133768Y-81097694D01*
X296133767Y-81097694D01*
X296124928Y-81093190D01*
X296115131Y-81091638D01*
X296115129Y-81091638D01*
X296040982Y-81079896D01*
X296040980Y-81079896D01*
X296023089Y-81077063D01*
X296023089Y-81079019D01*
X296023083Y-81079021D01*
X296018017Y-81078219D01*
X296018017Y-81081120D01*
X282628162Y-81081120D01*
X282628162Y-81078298D01*
X282623137Y-81079039D01*
X282623089Y-81079019D01*
X282623089Y-81077032D01*
X282521245Y-81093166D01*
X282512415Y-81097666D01*
X282512411Y-81097667D01*
X282453586Y-81127644D01*
X282429372Y-81139983D01*
X282422364Y-81146992D01*
X282422361Y-81146994D01*
X282363675Y-81205687D01*
X282356464Y-81212899D01*
X282351963Y-81221733D01*
X282351962Y-81221735D01*
X282339984Y-81245247D01*
X282309656Y-81304777D01*
X282293532Y-81406622D01*
X282295489Y-81406622D01*
X282295490Y-81406624D01*
X282294687Y-81411694D01*
X282297590Y-81411694D01*
X282297590Y-94801549D01*
X282294788Y-94801549D01*
X282295524Y-94806538D01*
X282295489Y-94806622D01*
X282293522Y-94806622D01*
X277302568Y-94806622D01*
X277300611Y-94806622D01*
X277300608Y-94806614D01*
X277301410Y-94801549D01*
X277298510Y-94801549D01*
X277298510Y-81411694D01*
X277301275Y-81411694D01*
X277300549Y-81406771D01*
X277300611Y-81406622D01*
X277302537Y-81406622D01*
X277299602Y-81388085D01*
X277287965Y-81314580D01*
X277287964Y-81314576D01*
X277286414Y-81304786D01*
X277239611Y-81212917D01*
X277166709Y-81140008D01*
X277120777Y-81116602D01*
X277083680Y-81097698D01*
X277083679Y-81097698D01*
X277074845Y-81093196D01*
X276973011Y-81077063D01*
X276973011Y-81079019D01*
X276973001Y-81079023D01*
X276967938Y-81078221D01*
X276967938Y-81081120D01*
X263578083Y-81081120D01*
X263578083Y-81078317D01*
X263573092Y-81079053D01*
X263573011Y-81079019D01*
X263573011Y-81077053D01*
X263507572Y-81087416D01*
X263480968Y-81091629D01*
X263480967Y-81091629D01*
X263471169Y-81093181D01*
X263462330Y-81097685D01*
X263462329Y-81097685D01*
X263462288Y-81097706D01*
X263379295Y-81139992D01*
X263306386Y-81212904D01*
X263301887Y-81221735D01*
X263301883Y-81221741D01*
X263264081Y-81295938D01*
X263259577Y-81304779D01*
X263258027Y-81314571D01*
X263258026Y-81314573D01*
X263251373Y-81356599D01*
X263243453Y-81406622D01*
X263245409Y-81406622D01*
X263245411Y-81406626D01*
X263244608Y-81411694D01*
X263247510Y-81411694D01*
X263247510Y-94801549D01*
X263244689Y-94801549D01*
X263245430Y-94806572D01*
X263245409Y-94806622D01*
X263243422Y-94806622D01*
X258252488Y-94806622D01*
X258250531Y-94806622D01*
X258250527Y-94806613D01*
X258251330Y-94801549D01*
X258248430Y-94801549D01*
X258248430Y-81411694D01*
X258251175Y-81411694D01*
X258250455Y-81406806D01*
X258250531Y-81406622D01*
X258252437Y-81406622D01*
X258249533Y-81388278D01*
X258237867Y-81314586D01*
X258237867Y-81314585D01*
X258236316Y-81304790D01*
X258189517Y-81212924D01*
X258116620Y-81140016D01*
X258107784Y-81135513D01*
X258107783Y-81135512D01*
X258033601Y-81097706D01*
X258033602Y-81097706D01*
X258024762Y-81093201D01*
X257964849Y-81083706D01*
X257940823Y-81079898D01*
X257940822Y-81079898D01*
X257922933Y-81077063D01*
X257922933Y-81079019D01*
X257922919Y-81079025D01*
X257917859Y-81078223D01*
X257917859Y-81081120D01*
X244528004Y-81081120D01*
X244528004Y-81078334D01*
X244523044Y-81079065D01*
X244522933Y-81079019D01*
X244522933Y-81077073D01*
X244504587Y-81079977D01*
X244479188Y-81083998D01*
X244421091Y-81093194D01*
X244329218Y-81140001D01*
X244256307Y-81212909D01*
X244209498Y-81304781D01*
X244193373Y-81406622D01*
X244195329Y-81406622D01*
X244195331Y-81406626D01*
X244194528Y-81411694D01*
X244197430Y-81411694D01*
X244197430Y-94801549D01*
X244194589Y-94801549D01*
X244195335Y-94806608D01*
X244195329Y-94806622D01*
X244193322Y-94806622D01*
X239202408Y-94806622D01*
X239200451Y-94806622D01*
X239200448Y-94806614D01*
X239201250Y-94801549D01*
X239198350Y-94801549D01*
X239198350Y-81411694D01*
X239201075Y-81411694D01*
X239200360Y-81406842D01*
X239200451Y-81406622D01*
X239202337Y-81406622D01*
X239188910Y-81321804D01*
X239187768Y-81314589D01*
X239187767Y-81314586D01*
X239186217Y-81304795D01*
X239181713Y-81295952D01*
X239155890Y-81245259D01*
X239139422Y-81212931D01*
X239102964Y-81176465D01*
X239073540Y-81147034D01*
X239073538Y-81147033D01*
X239066531Y-81140024D01*
X238974679Y-81093207D01*
X238964888Y-81091655D01*
X238964886Y-81091654D01*
X238931628Y-81086381D01*
X238872855Y-81077063D01*
X238872855Y-81079019D01*
X238872837Y-81079027D01*
X238867780Y-81078225D01*
X238867780Y-81081120D01*
X225477920Y-81081120D01*
X225477920Y-81078262D01*
X225472845Y-81079010D01*
X225472845Y-81076992D01*
X225423445Y-81084824D01*
X225380792Y-81091586D01*
X225380789Y-81091587D01*
X225371000Y-81093139D01*
X225323925Y-81117133D01*
X225287964Y-81135462D01*
X225287963Y-81135463D01*
X225279128Y-81139966D01*
X225206221Y-81212890D01*
X225201720Y-81221725D01*
X225201719Y-81221727D01*
X225163915Y-81295938D01*
X225163914Y-81295941D01*
X225159415Y-81304773D01*
X225143292Y-81406622D01*
X220152337Y-81406622D01*
X220136212Y-81304778D01*
X220131611Y-81295747D01*
X220093903Y-81221738D01*
X220093901Y-81221735D01*
X220089401Y-81212903D01*
X220016488Y-81139993D01*
X219924612Y-81093185D01*
X219822767Y-81077063D01*
X219822767Y-81079019D01*
X219822764Y-81079020D01*
X219817696Y-81078218D01*
X219817696Y-81081120D01*
X206427841Y-81081120D01*
X206427841Y-81078280D01*
X206422784Y-81079026D01*
X206422767Y-81079019D01*
X206422767Y-81077012D01*
X206404418Y-81079920D01*
X206330713Y-81091601D01*
X206330711Y-81091602D01*
X206320922Y-81093153D01*
X206229050Y-81139974D01*
X206156142Y-81212894D01*
X206109336Y-81304775D01*
X206093212Y-81406622D01*
X201102237Y-81406622D01*
X201088808Y-81321804D01*
X201087664Y-81314577D01*
X201087663Y-81314573D01*
X201086113Y-81304782D01*
X201039306Y-81212910D01*
X200966399Y-81140000D01*
X200883399Y-81097710D01*
X200883368Y-81097694D01*
X200883367Y-81097694D01*
X200874528Y-81093190D01*
X200864731Y-81091638D01*
X200864729Y-81091638D01*
X200790582Y-81079896D01*
X200790580Y-81079896D01*
X200772689Y-81077063D01*
X200772689Y-81079019D01*
X200772683Y-81079021D01*
X200767617Y-81078219D01*
X200767617Y-81081120D01*
X187377762Y-81081120D01*
X187377762Y-81078298D01*
X187372737Y-81079039D01*
X187372689Y-81079019D01*
X187372689Y-81077032D01*
X187270845Y-81093166D01*
X187262015Y-81097666D01*
X187262011Y-81097667D01*
X187203186Y-81127644D01*
X187178972Y-81139983D01*
X187171964Y-81146992D01*
X187171961Y-81146994D01*
X187113275Y-81205687D01*
X187106064Y-81212899D01*
X187101563Y-81221733D01*
X187101562Y-81221735D01*
X187089584Y-81245247D01*
X187059256Y-81304777D01*
X187043132Y-81406622D01*
X187045089Y-81406622D01*
X187045090Y-81406624D01*
X187044287Y-81411694D01*
X187047190Y-81411694D01*
X187047190Y-94801549D01*
X187044388Y-94801549D01*
X187045124Y-94806538D01*
X187045089Y-94806622D01*
X187043122Y-94806622D01*
X182052168Y-94806622D01*
X182050211Y-94806622D01*
X182050208Y-94806614D01*
X182051010Y-94801549D01*
X182048110Y-94801549D01*
X182048110Y-81411694D01*
X182050875Y-81411694D01*
X182050149Y-81406771D01*
X182050211Y-81406622D01*
X182052137Y-81406622D01*
X182049202Y-81388085D01*
X182037565Y-81314580D01*
X182037564Y-81314576D01*
X182036014Y-81304786D01*
X181989211Y-81212917D01*
X181916309Y-81140008D01*
X181870377Y-81116602D01*
X181833280Y-81097698D01*
X181833279Y-81097698D01*
X181824445Y-81093196D01*
X181722611Y-81077063D01*
X181722611Y-81079019D01*
X181722601Y-81079023D01*
X181717538Y-81078221D01*
X181717538Y-81081120D01*
X168327683Y-81081120D01*
X168327683Y-81078317D01*
X168322692Y-81079053D01*
X168322611Y-81079019D01*
X168322611Y-81077053D01*
X168257172Y-81087416D01*
X168230568Y-81091629D01*
X168230567Y-81091629D01*
X168220769Y-81093181D01*
X168211930Y-81097685D01*
X168211929Y-81097685D01*
X168211888Y-81097706D01*
X168128895Y-81139992D01*
X168055986Y-81212904D01*
X168051487Y-81221735D01*
X168051483Y-81221741D01*
X168013681Y-81295938D01*
X168009177Y-81304779D01*
X168007627Y-81314571D01*
X168007626Y-81314573D01*
X168000973Y-81356599D01*
X167993053Y-81406622D01*
X167995009Y-81406622D01*
X167995011Y-81406626D01*
X167994208Y-81411694D01*
X167997110Y-81411694D01*
X167997110Y-94801549D01*
X167994289Y-94801549D01*
X167995030Y-94806572D01*
X167995009Y-94806622D01*
X167993022Y-94806622D01*
X163002088Y-94806622D01*
X163000131Y-94806622D01*
X163000127Y-94806613D01*
X163000930Y-94801549D01*
X162998030Y-94801549D01*
X162998030Y-81411694D01*
X163000775Y-81411694D01*
X163000055Y-81406806D01*
X163000131Y-81406622D01*
X163002037Y-81406622D01*
X162999133Y-81388278D01*
X162987467Y-81314586D01*
X162987467Y-81314585D01*
X162985916Y-81304790D01*
X162939117Y-81212924D01*
X162866220Y-81140016D01*
X162857384Y-81135513D01*
X162857383Y-81135512D01*
X162783201Y-81097706D01*
X162783202Y-81097706D01*
X162774362Y-81093201D01*
X162714449Y-81083706D01*
X162690423Y-81079898D01*
X162690422Y-81079898D01*
X162672533Y-81077063D01*
X162672533Y-81079019D01*
X162672519Y-81079025D01*
X162667459Y-81078223D01*
X162667459Y-81081120D01*
X149277604Y-81081120D01*
X149277604Y-81078334D01*
X149272644Y-81079065D01*
X149272533Y-81079019D01*
X149272533Y-81077073D01*
X149254187Y-81079977D01*
X149228788Y-81083998D01*
X149170691Y-81093194D01*
X149078818Y-81140001D01*
X149005907Y-81212909D01*
X148959098Y-81304781D01*
X148942973Y-81406622D01*
X148944929Y-81406622D01*
X148944931Y-81406626D01*
X148944128Y-81411694D01*
X148947030Y-81411694D01*
X148947030Y-94801549D01*
X148944189Y-94801549D01*
X148944935Y-94806608D01*
X148944929Y-94806622D01*
X148942922Y-94806622D01*
X146474082Y-94806622D01*
X146474082Y-78656684D01*
X167852771Y-78656684D01*
X167888853Y-78803070D01*
X167958919Y-78936568D01*
X168058898Y-79049418D01*
X168182979Y-79135061D01*
X168323951Y-79188520D01*
X168436057Y-79202129D01*
X168453496Y-79204246D01*
X168473620Y-79206689D01*
X168473620Y-79204230D01*
X168478283Y-79202299D01*
X168480336Y-79202129D01*
X187333936Y-79202135D01*
X219662584Y-79202145D01*
X219666047Y-79202412D01*
X219670475Y-79204246D01*
X219670475Y-79206640D01*
X219820133Y-79188474D01*
X219854016Y-79175625D01*
X219953968Y-79137722D01*
X219953970Y-79137721D01*
X219961095Y-79135019D01*
X220032396Y-79085806D01*
X220078891Y-79053715D01*
X220078892Y-79053714D01*
X220085167Y-79049383D01*
X220090220Y-79043680D01*
X220090224Y-79043676D01*
X220180087Y-78942245D01*
X220180089Y-78942242D01*
X220185139Y-78936542D01*
X220255201Y-78803054D01*
X220257024Y-78795659D01*
X220289458Y-78664072D01*
X220289458Y-78664068D01*
X220291277Y-78656689D01*
X225002755Y-78656689D01*
X225004579Y-78664087D01*
X225004579Y-78664089D01*
X225037016Y-78795680D01*
X225038841Y-78803085D01*
X225108915Y-78936590D01*
X225113964Y-78942289D01*
X225113965Y-78942290D01*
X225203826Y-79043713D01*
X225208904Y-79049444D01*
X225215174Y-79053771D01*
X225215177Y-79053774D01*
X225326594Y-79130669D01*
X225332997Y-79135088D01*
X225473981Y-79188544D01*
X225481539Y-79189461D01*
X225481543Y-79189462D01*
X225568878Y-79200058D01*
X225623661Y-79206705D01*
X225623661Y-79204246D01*
X225628321Y-79202315D01*
X225630380Y-79202145D01*
X295859968Y-79202145D01*
X295867172Y-79202854D01*
X295870532Y-79204246D01*
X295870533Y-79204246D01*
X295870533Y-79206640D01*
X296020180Y-79188462D01*
X296027302Y-79185761D01*
X296027305Y-79185760D01*
X296153999Y-79137706D01*
X296154001Y-79137705D01*
X296161130Y-79135001D01*
X296285190Y-79049362D01*
X296385152Y-78936523D01*
X296401715Y-78904964D01*
X296451665Y-78809790D01*
X296451666Y-78809786D01*
X296455206Y-78803042D01*
X296491278Y-78656685D01*
X301202855Y-78656685D01*
X301204676Y-78664072D01*
X301204677Y-78664079D01*
X301237114Y-78795680D01*
X301238937Y-78803075D01*
X301242476Y-78809818D01*
X301242477Y-78809820D01*
X301305461Y-78929822D01*
X301309005Y-78936575D01*
X301408985Y-79049427D01*
X301533068Y-79135073D01*
X301674042Y-79188535D01*
X301749687Y-79197718D01*
X301805731Y-79204522D01*
X301823714Y-79206705D01*
X301823714Y-79204246D01*
X301828377Y-79202314D01*
X301830429Y-79202145D01*
X319899244Y-79202139D01*
X353012575Y-79202129D01*
X353016274Y-79202414D01*
X353020660Y-79204230D01*
X353020660Y-79206657D01*
X353037944Y-79204557D01*
X353037946Y-79204557D01*
X353162746Y-79189392D01*
X353162748Y-79189392D01*
X353170307Y-79188473D01*
X353177426Y-79185772D01*
X353177428Y-79185772D01*
X353211363Y-79172899D01*
X353311255Y-79135007D01*
X353435313Y-79049365D01*
X353535272Y-78936524D01*
X353605324Y-78803042D01*
X353621589Y-78737047D01*
X353639575Y-78664071D01*
X353639575Y-78664070D01*
X353641398Y-78656674D01*
X353641398Y-78505926D01*
X353639571Y-78498511D01*
X353621589Y-78425553D01*
X353605324Y-78359558D01*
X353535272Y-78226076D01*
X353435313Y-78113235D01*
X353311255Y-78027593D01*
X353211363Y-77989701D01*
X353177428Y-77976828D01*
X353177426Y-77976828D01*
X353170307Y-77974127D01*
X353162748Y-77973208D01*
X353162746Y-77973208D01*
X353038643Y-77958128D01*
X353038642Y-77958128D01*
X353020660Y-77955943D01*
X353020660Y-77958402D01*
X353015992Y-77960335D01*
X353013956Y-77960503D01*
X337213600Y-77960508D01*
X301832436Y-77960519D01*
X301827952Y-77960174D01*
X301823714Y-77958418D01*
X301823714Y-77955895D01*
X301806432Y-77957993D01*
X301803063Y-77958402D01*
X301674042Y-77974065D01*
X301533068Y-78027527D01*
X301408985Y-78113173D01*
X301309005Y-78226025D01*
X301305462Y-78232776D01*
X301305461Y-78232777D01*
X301292436Y-78257594D01*
X301238937Y-78359525D01*
X301237115Y-78366917D01*
X301237114Y-78366920D01*
X301204680Y-78498511D01*
X301202855Y-78505915D01*
X301202855Y-78656685D01*
X296491278Y-78656685D01*
X296491281Y-78656674D01*
X296491281Y-78505926D01*
X296455206Y-78359558D01*
X296451666Y-78352814D01*
X296451665Y-78352810D01*
X296388694Y-78232826D01*
X296388693Y-78232824D01*
X296385152Y-78226077D01*
X296285190Y-78113238D01*
X296161130Y-78027599D01*
X296154001Y-78024895D01*
X296153999Y-78024894D01*
X296027305Y-77976840D01*
X296027302Y-77976839D01*
X296020180Y-77974138D01*
X295870533Y-77955960D01*
X295870533Y-77958418D01*
X295870532Y-77958418D01*
X295867172Y-77959810D01*
X295859968Y-77960519D01*
X225632392Y-77960519D01*
X225627896Y-77960172D01*
X225623661Y-77958418D01*
X225623661Y-77955895D01*
X225542998Y-77965682D01*
X225481543Y-77973138D01*
X225481539Y-77973139D01*
X225473981Y-77974056D01*
X225332997Y-78027512D01*
X225326723Y-78031842D01*
X225215177Y-78108826D01*
X225215174Y-78108829D01*
X225208904Y-78113156D01*
X225203852Y-78118858D01*
X225203851Y-78118859D01*
X225171990Y-78154820D01*
X225108915Y-78226010D01*
X225038841Y-78359515D01*
X225037017Y-78366914D01*
X225037016Y-78366917D01*
X225033974Y-78379259D01*
X225002755Y-78505911D01*
X225002755Y-78656689D01*
X220291277Y-78656689D01*
X220291280Y-78656678D01*
X220291280Y-78505922D01*
X220289454Y-78498511D01*
X220257024Y-78366941D01*
X220257023Y-78366939D01*
X220255201Y-78359546D01*
X220185139Y-78226058D01*
X220180089Y-78220358D01*
X220180087Y-78220355D01*
X220090224Y-78118924D01*
X220090220Y-78118920D01*
X220085167Y-78113217D01*
X220078845Y-78108853D01*
X219967397Y-78031931D01*
X219961095Y-78027581D01*
X219953970Y-78024879D01*
X219953968Y-78024878D01*
X219827258Y-77976828D01*
X219827259Y-77976828D01*
X219820133Y-77974126D01*
X219707902Y-77960503D01*
X219688460Y-77958143D01*
X219670475Y-77955960D01*
X219670475Y-77958418D01*
X219665811Y-77960350D01*
X219663766Y-77960519D01*
X203174034Y-77960514D01*
X168482136Y-77960503D01*
X168477905Y-77960177D01*
X168473620Y-77958402D01*
X168473620Y-77955911D01*
X168323951Y-77974080D01*
X168182979Y-78027539D01*
X168058898Y-78113182D01*
X167958919Y-78226032D01*
X167888853Y-78359530D01*
X167852771Y-78505916D01*
X167852771Y-78656684D01*
X146474082Y-78656684D01*
X146474082Y-75756544D01*
X148942902Y-75756544D01*
X148959047Y-75858391D01*
X148963547Y-75867220D01*
X148963549Y-75867225D01*
X149001367Y-75941424D01*
X149005873Y-75950265D01*
X149078797Y-76023172D01*
X149170682Y-76069977D01*
X149222833Y-76078231D01*
X149254639Y-76083266D01*
X149254640Y-76083266D01*
X149272533Y-76086098D01*
X149272533Y-76084141D01*
X149277604Y-76084944D01*
X149277604Y-76082040D01*
X162667459Y-76082040D01*
X162667459Y-76084820D01*
X162672410Y-76084090D01*
X162672533Y-76084141D01*
X162672533Y-76086088D01*
X162690879Y-76083181D01*
X162690880Y-76083181D01*
X162764508Y-76071513D01*
X162774365Y-76069951D01*
X162783199Y-76065450D01*
X162783201Y-76065449D01*
X162857395Y-76027643D01*
X162857398Y-76027641D01*
X162866229Y-76023141D01*
X162939135Y-75950238D01*
X162943641Y-75941397D01*
X162981438Y-75867225D01*
X162985948Y-75858375D01*
X163002088Y-75756544D01*
X167993002Y-75756544D01*
X168009145Y-75858387D01*
X168055968Y-75950258D01*
X168128887Y-76023165D01*
X168137721Y-76027665D01*
X168137723Y-76027667D01*
X168211635Y-76065321D01*
X168220765Y-76069972D01*
X168322611Y-76086098D01*
X168322611Y-76084141D01*
X168322613Y-76084140D01*
X168327683Y-76084943D01*
X168327683Y-76082040D01*
X181717538Y-76082040D01*
X181717538Y-76084802D01*
X181722456Y-76084077D01*
X181722611Y-76084141D01*
X181722611Y-76086068D01*
X181763335Y-76079617D01*
X181814647Y-76071490D01*
X181814650Y-76071489D01*
X181824442Y-76069938D01*
X181901943Y-76030451D01*
X181907474Y-76027633D01*
X181916306Y-76023133D01*
X181989213Y-75950233D01*
X182036028Y-75858373D01*
X182038723Y-75841371D01*
X182049332Y-75774439D01*
X182049332Y-75774436D01*
X182052168Y-75756544D01*
X187043102Y-75756544D01*
X187059244Y-75858383D01*
X187106063Y-75950251D01*
X187178976Y-76023157D01*
X187187807Y-76027657D01*
X187187808Y-76027657D01*
X187262016Y-76065466D01*
X187262018Y-76065467D01*
X187270849Y-76069966D01*
X187372689Y-76086098D01*
X187372689Y-76084141D01*
X187372697Y-76084138D01*
X187377762Y-76084940D01*
X187377762Y-76082040D01*
X200767617Y-76082040D01*
X200767617Y-76084785D01*
X200772504Y-76084064D01*
X200772689Y-76084141D01*
X200772689Y-76086047D01*
X200874519Y-76069923D01*
X200886188Y-76063978D01*
X200957547Y-76027625D01*
X200957549Y-76027623D01*
X200966383Y-76023123D01*
X200973393Y-76016114D01*
X200973396Y-76016112D01*
X201011034Y-75978480D01*
X201039291Y-75950228D01*
X201055780Y-75917874D01*
X201081603Y-75867207D01*
X201081605Y-75867202D01*
X201086106Y-75858371D01*
X201088803Y-75841360D01*
X201099410Y-75774439D01*
X201102247Y-75756544D01*
X206093202Y-75756544D01*
X206096111Y-75774894D01*
X206107774Y-75848478D01*
X206109343Y-75858379D01*
X206113845Y-75867212D01*
X206113845Y-75867214D01*
X206151656Y-75941412D01*
X206156157Y-75950244D01*
X206229065Y-76023149D01*
X206237897Y-76027649D01*
X206237899Y-76027651D01*
X206274999Y-76046555D01*
X206320932Y-76069961D01*
X206330724Y-76071513D01*
X206330725Y-76071513D01*
X206404875Y-76083263D01*
X206404876Y-76083263D01*
X206422767Y-76086098D01*
X206422767Y-76084141D01*
X206422779Y-76084136D01*
X206427841Y-76084938D01*
X206427841Y-76082040D01*
X219817696Y-76082040D01*
X219817696Y-76084767D01*
X219822551Y-76084051D01*
X219822767Y-76084141D01*
X219822767Y-76086027D01*
X219841110Y-76083124D01*
X219841111Y-76083124D01*
X219914804Y-76071460D01*
X219914805Y-76071460D01*
X219924596Y-76069910D01*
X220002046Y-76030458D01*
X220007627Y-76027615D01*
X220016461Y-76023115D01*
X220089370Y-75950223D01*
X220093921Y-75941295D01*
X220131684Y-75867202D01*
X220136186Y-75858369D01*
X220142614Y-75817817D01*
X220149491Y-75774438D01*
X220149491Y-75774436D01*
X220152327Y-75756544D01*
X220150371Y-75756544D01*
X220150364Y-75756526D01*
X220151165Y-75751469D01*
X220148270Y-75751469D01*
X220148270Y-62361614D01*
X220151057Y-62361614D01*
X220150326Y-62356653D01*
X220150371Y-62356544D01*
X220152317Y-62356544D01*
X225143292Y-62356544D01*
X225145247Y-62356544D01*
X225144445Y-62361614D01*
X225147350Y-62361614D01*
X225147350Y-75751469D01*
X225144570Y-75751469D01*
X225145300Y-75756421D01*
X225145249Y-75756544D01*
X225143302Y-75756544D01*
X225159441Y-75858374D01*
X225181879Y-75902406D01*
X225201748Y-75941397D01*
X225206252Y-75950236D01*
X225279155Y-76023141D01*
X225371015Y-76069955D01*
X225380809Y-76071508D01*
X225380810Y-76071508D01*
X225404629Y-76075284D01*
X225472845Y-76086098D01*
X225472845Y-76084141D01*
X225472861Y-76084134D01*
X225477920Y-76084936D01*
X225477920Y-76082040D01*
X238867780Y-76082040D01*
X238867780Y-76084838D01*
X238872764Y-76084103D01*
X238872855Y-76084141D01*
X238872855Y-76086108D01*
X238908804Y-76080409D01*
X238964893Y-76071518D01*
X238964895Y-76071518D01*
X238974688Y-76069965D01*
X238983544Y-76065452D01*
X239051067Y-76031040D01*
X239066551Y-76023149D01*
X239139456Y-75950242D01*
X239186268Y-75858377D01*
X239202408Y-75756544D01*
X244193302Y-75756544D01*
X244209447Y-75858391D01*
X244213947Y-75867220D01*
X244213949Y-75867225D01*
X244251767Y-75941424D01*
X244256273Y-75950265D01*
X244329197Y-76023172D01*
X244421082Y-76069977D01*
X244473233Y-76078231D01*
X244505039Y-76083266D01*
X244505040Y-76083266D01*
X244522933Y-76086098D01*
X244522933Y-76084141D01*
X244528004Y-76084944D01*
X244528004Y-76082040D01*
X257917859Y-76082040D01*
X257917859Y-76084820D01*
X257922810Y-76084090D01*
X257922933Y-76084141D01*
X257922933Y-76086088D01*
X257941279Y-76083181D01*
X257941280Y-76083181D01*
X258014908Y-76071513D01*
X258024765Y-76069951D01*
X258033599Y-76065450D01*
X258033601Y-76065449D01*
X258107795Y-76027643D01*
X258107798Y-76027641D01*
X258116629Y-76023141D01*
X258189535Y-75950238D01*
X258194041Y-75941397D01*
X258231838Y-75867225D01*
X258236348Y-75858375D01*
X258252488Y-75756544D01*
X263243402Y-75756544D01*
X263259545Y-75858387D01*
X263306368Y-75950258D01*
X263379287Y-76023165D01*
X263388121Y-76027665D01*
X263388123Y-76027667D01*
X263462035Y-76065321D01*
X263471165Y-76069972D01*
X263573011Y-76086098D01*
X263573011Y-76084141D01*
X263573013Y-76084140D01*
X263578083Y-76084943D01*
X263578083Y-76082040D01*
X276967938Y-76082040D01*
X276967938Y-76084802D01*
X276972856Y-76084077D01*
X276973011Y-76084141D01*
X276973011Y-76086068D01*
X277013735Y-76079617D01*
X277065047Y-76071490D01*
X277065050Y-76071489D01*
X277074842Y-76069938D01*
X277152343Y-76030451D01*
X277157874Y-76027633D01*
X277166706Y-76023133D01*
X277239613Y-75950233D01*
X277286428Y-75858373D01*
X277289123Y-75841371D01*
X277299732Y-75774439D01*
X277299732Y-75774436D01*
X277302568Y-75756544D01*
X282293502Y-75756544D01*
X282309644Y-75858383D01*
X282356463Y-75950251D01*
X282429376Y-76023157D01*
X282438207Y-76027657D01*
X282438208Y-76027657D01*
X282512416Y-76065466D01*
X282512418Y-76065467D01*
X282521249Y-76069966D01*
X282623089Y-76086098D01*
X282623089Y-76084141D01*
X282623097Y-76084138D01*
X282628162Y-76084940D01*
X282628162Y-76082040D01*
X296018017Y-76082040D01*
X296018017Y-76084785D01*
X296022904Y-76084064D01*
X296023089Y-76084141D01*
X296023089Y-76086047D01*
X296124919Y-76069923D01*
X296136588Y-76063978D01*
X296207947Y-76027625D01*
X296207949Y-76027623D01*
X296216783Y-76023123D01*
X296223793Y-76016114D01*
X296223796Y-76016112D01*
X296261434Y-75978480D01*
X296289691Y-75950228D01*
X296306180Y-75917874D01*
X296332003Y-75867207D01*
X296332005Y-75867202D01*
X296336506Y-75858371D01*
X296339203Y-75841360D01*
X296349810Y-75774439D01*
X296352647Y-75756544D01*
X301343602Y-75756544D01*
X301346511Y-75774894D01*
X301358174Y-75848478D01*
X301359743Y-75858379D01*
X301364245Y-75867212D01*
X301364245Y-75867214D01*
X301402056Y-75941412D01*
X301406557Y-75950244D01*
X301479465Y-76023149D01*
X301488297Y-76027649D01*
X301488299Y-76027651D01*
X301525399Y-76046555D01*
X301571332Y-76069961D01*
X301581124Y-76071513D01*
X301581125Y-76071513D01*
X301655275Y-76083263D01*
X301655276Y-76083263D01*
X301673167Y-76086098D01*
X301673167Y-76084141D01*
X301673179Y-76084136D01*
X301678241Y-76084938D01*
X301678241Y-76082040D01*
X315068096Y-76082040D01*
X315068096Y-76084767D01*
X315072951Y-76084051D01*
X315073167Y-76084141D01*
X315073167Y-76086027D01*
X315091510Y-76083124D01*
X315091511Y-76083124D01*
X315165204Y-76071460D01*
X315165205Y-76071460D01*
X315174996Y-76069910D01*
X315252446Y-76030458D01*
X315258027Y-76027615D01*
X315266861Y-76023115D01*
X315339770Y-75950223D01*
X315344321Y-75941295D01*
X315382084Y-75867202D01*
X315386586Y-75858369D01*
X315393014Y-75817817D01*
X315399891Y-75774438D01*
X315399891Y-75774436D01*
X315402727Y-75756544D01*
X315400771Y-75756544D01*
X315400764Y-75756526D01*
X315401565Y-75751469D01*
X315398670Y-75751469D01*
X315398670Y-62361614D01*
X315401457Y-62361614D01*
X315400726Y-62356653D01*
X315400771Y-62356544D01*
X315402717Y-62356544D01*
X320393692Y-62356544D01*
X320395647Y-62356544D01*
X320394845Y-62361614D01*
X320397750Y-62361614D01*
X320397750Y-75751469D01*
X320394970Y-75751469D01*
X320395700Y-75756421D01*
X320395649Y-75756544D01*
X320393702Y-75756544D01*
X320409841Y-75858374D01*
X320432279Y-75902406D01*
X320452148Y-75941397D01*
X320456652Y-75950236D01*
X320529555Y-76023141D01*
X320621415Y-76069955D01*
X320631209Y-76071508D01*
X320631210Y-76071508D01*
X320655029Y-76075284D01*
X320723245Y-76086098D01*
X320723245Y-76084141D01*
X320723261Y-76084134D01*
X320728320Y-76084936D01*
X320728320Y-76082040D01*
X334118180Y-76082040D01*
X334118180Y-76084838D01*
X334123164Y-76084103D01*
X334123255Y-76084141D01*
X334123255Y-76086108D01*
X334159204Y-76080409D01*
X334215293Y-76071518D01*
X334215295Y-76071518D01*
X334225088Y-76069965D01*
X334233944Y-76065452D01*
X334301467Y-76031040D01*
X334316951Y-76023149D01*
X334389856Y-75950242D01*
X334436668Y-75858377D01*
X334452808Y-75756544D01*
X339443702Y-75756544D01*
X339459847Y-75858391D01*
X339464347Y-75867220D01*
X339464349Y-75867225D01*
X339502167Y-75941424D01*
X339506673Y-75950265D01*
X339579597Y-76023172D01*
X339671482Y-76069977D01*
X339723633Y-76078231D01*
X339755439Y-76083266D01*
X339755440Y-76083266D01*
X339773333Y-76086098D01*
X339773333Y-76084141D01*
X339778404Y-76084944D01*
X339778404Y-76082040D01*
X353168259Y-76082040D01*
X353168259Y-76084820D01*
X353173210Y-76084090D01*
X353173333Y-76084141D01*
X353173333Y-76086088D01*
X353191679Y-76083181D01*
X353191680Y-76083181D01*
X353265308Y-76071513D01*
X353275165Y-76069951D01*
X353283999Y-76065450D01*
X353284001Y-76065449D01*
X353358195Y-76027643D01*
X353358198Y-76027641D01*
X353367029Y-76023141D01*
X353439935Y-75950238D01*
X353444441Y-75941397D01*
X353482238Y-75867225D01*
X353486748Y-75858375D01*
X353502888Y-75756544D01*
X358493802Y-75756544D01*
X358509945Y-75858387D01*
X358556768Y-75950258D01*
X358629687Y-76023165D01*
X358638521Y-76027665D01*
X358638523Y-76027667D01*
X358712435Y-76065321D01*
X358721565Y-76069972D01*
X358823411Y-76086098D01*
X358823411Y-76084141D01*
X358823413Y-76084140D01*
X358828483Y-76084943D01*
X358828483Y-76082040D01*
X372218338Y-76082040D01*
X372218338Y-76084802D01*
X372223256Y-76084077D01*
X372223411Y-76084141D01*
X372223411Y-76086068D01*
X372264135Y-76079617D01*
X372315447Y-76071490D01*
X372315450Y-76071489D01*
X372325242Y-76069938D01*
X372402743Y-76030451D01*
X372408274Y-76027633D01*
X372417106Y-76023133D01*
X372490013Y-75950233D01*
X372536828Y-75858373D01*
X372539523Y-75841371D01*
X372550132Y-75774439D01*
X372550132Y-75774436D01*
X372552968Y-75756544D01*
X372551011Y-75756544D01*
X372551004Y-75756528D01*
X372551806Y-75751469D01*
X372548910Y-75751469D01*
X372548910Y-62361614D01*
X372551658Y-62361614D01*
X372550937Y-62356723D01*
X372551011Y-62356544D01*
X372552917Y-62356544D01*
X372538353Y-62264513D01*
X372538351Y-62264502D01*
X372538350Y-62264498D01*
X372536801Y-62254709D01*
X372532303Y-62245879D01*
X372532302Y-62245876D01*
X372494503Y-62171674D01*
X372490003Y-62162840D01*
X372482994Y-62155830D01*
X372482992Y-62155827D01*
X372453554Y-62126385D01*
X372417105Y-62089929D01*
X372408210Y-62085396D01*
X372334080Y-62047619D01*
X372334078Y-62047618D01*
X372325243Y-62043116D01*
X372315449Y-62041564D01*
X372315448Y-62041564D01*
X372291138Y-62037713D01*
X372223411Y-62026983D01*
X372223411Y-62028939D01*
X372223401Y-62028943D01*
X372218338Y-62028141D01*
X372218338Y-62031040D01*
X358828483Y-62031040D01*
X358828483Y-62028217D01*
X358823456Y-62028958D01*
X358823411Y-62028939D01*
X358823411Y-62026953D01*
X358758078Y-62037300D01*
X358731363Y-62041530D01*
X358731362Y-62041530D01*
X358721564Y-62043082D01*
X358629688Y-62089897D01*
X358556778Y-62162815D01*
X358552277Y-62171651D01*
X358514523Y-62245763D01*
X358509972Y-62254696D01*
X358508423Y-62264485D01*
X358508422Y-62264489D01*
X358496701Y-62338551D01*
X358493853Y-62356544D01*
X358495809Y-62356544D01*
X358495007Y-62361614D01*
X358497910Y-62361614D01*
X358497910Y-75751469D01*
X358495071Y-75751469D01*
X358495817Y-75756525D01*
X358495809Y-75756544D01*
X358493802Y-75756544D01*
X353502888Y-75756544D01*
X353500931Y-75756544D01*
X353500925Y-75756529D01*
X353501727Y-75751469D01*
X353498830Y-75751469D01*
X353498830Y-62361614D01*
X353501558Y-62361614D01*
X353500842Y-62356758D01*
X353500931Y-62356544D01*
X353502817Y-62356544D01*
X353489394Y-62271724D01*
X353488252Y-62264506D01*
X353488251Y-62264502D01*
X353486702Y-62254713D01*
X353439908Y-62162847D01*
X353367015Y-62089937D01*
X353275160Y-62043122D01*
X353265116Y-62041530D01*
X353196791Y-62030701D01*
X353173333Y-62026983D01*
X353173333Y-62028939D01*
X353173317Y-62028946D01*
X353168259Y-62028144D01*
X353168259Y-62031040D01*
X339778404Y-62031040D01*
X339778404Y-62028235D01*
X339773410Y-62028971D01*
X339773333Y-62028939D01*
X339773333Y-62026973D01*
X339754989Y-62029877D01*
X339754988Y-62029877D01*
X339681556Y-62041502D01*
X339671487Y-62043096D01*
X339662610Y-62047619D01*
X339588485Y-62085385D01*
X339579611Y-62089906D01*
X339506699Y-62162820D01*
X339502196Y-62171659D01*
X339464397Y-62245856D01*
X339459892Y-62254698D01*
X339443773Y-62356544D01*
X339445729Y-62356544D01*
X339444926Y-62361614D01*
X339447830Y-62361614D01*
X339447830Y-75751469D01*
X339444971Y-75751469D01*
X339445719Y-75756544D01*
X339443702Y-75756544D01*
X334452808Y-75756544D01*
X334450851Y-75756544D01*
X334450846Y-75756531D01*
X334451648Y-75751469D01*
X334448750Y-75751469D01*
X334448750Y-62361614D01*
X334451458Y-62361614D01*
X334450748Y-62356794D01*
X334450851Y-62356544D01*
X334452717Y-62356544D01*
X334436604Y-62254718D01*
X334389813Y-62162854D01*
X334316926Y-62089945D01*
X334308061Y-62085426D01*
X334233910Y-62047630D01*
X334233911Y-62047630D01*
X334225076Y-62043127D01*
X334215283Y-62041574D01*
X334215282Y-62041574D01*
X334141148Y-62029820D01*
X334123255Y-62026983D01*
X334123255Y-62028939D01*
X334123235Y-62028947D01*
X334118180Y-62028146D01*
X334118180Y-62031040D01*
X320728320Y-62031040D01*
X320728320Y-62028162D01*
X320723245Y-62028910D01*
X320723245Y-62026892D01*
X320674981Y-62034544D01*
X320631187Y-62041487D01*
X320631184Y-62041488D01*
X320621395Y-62043040D01*
X320612564Y-62047541D01*
X320612562Y-62047542D01*
X320540761Y-62084141D01*
X320529520Y-62089871D01*
X320456613Y-62162800D01*
X320409810Y-62254689D01*
X320393692Y-62356544D01*
X315402717Y-62356544D01*
X315397216Y-62321785D01*
X315388149Y-62264498D01*
X315388148Y-62264496D01*
X315386598Y-62254701D01*
X315382051Y-62245774D01*
X315344295Y-62171662D01*
X315344293Y-62171659D01*
X315339793Y-62162825D01*
X315266883Y-62089914D01*
X315175010Y-62043105D01*
X315165214Y-62041554D01*
X315165213Y-62041554D01*
X315146828Y-62038644D01*
X315073167Y-62026983D01*
X315073167Y-62028939D01*
X315073164Y-62028940D01*
X315068096Y-62028138D01*
X315068096Y-62031040D01*
X301678241Y-62031040D01*
X301678241Y-62028180D01*
X301673167Y-62028928D01*
X301673167Y-62026912D01*
X301654818Y-62029820D01*
X301654817Y-62029820D01*
X301581109Y-62041502D01*
X301581108Y-62041502D01*
X301571318Y-62043054D01*
X301562486Y-62047555D01*
X301562484Y-62047556D01*
X301488277Y-62085377D01*
X301488274Y-62085379D01*
X301479443Y-62089880D01*
X301406534Y-62162805D01*
X301359730Y-62254691D01*
X301358180Y-62264485D01*
X301358179Y-62264489D01*
X301346443Y-62338652D01*
X301343612Y-62356544D01*
X301345567Y-62356544D01*
X301344765Y-62361614D01*
X301347670Y-62361614D01*
X301347670Y-75751469D01*
X301344872Y-75751469D01*
X301345607Y-75756453D01*
X301345569Y-75756544D01*
X301343602Y-75756544D01*
X296352647Y-75756544D01*
X296350691Y-75756544D01*
X296350684Y-75756526D01*
X296351485Y-75751469D01*
X296348590Y-75751469D01*
X296348590Y-62361614D01*
X296351357Y-62361614D01*
X296350631Y-62356688D01*
X296350691Y-62356544D01*
X296352617Y-62356544D01*
X296336499Y-62254705D01*
X296289698Y-62162833D01*
X296216794Y-62089922D01*
X296124926Y-62043111D01*
X296046856Y-62030747D01*
X296040984Y-62029817D01*
X296023089Y-62026983D01*
X296023089Y-62028939D01*
X296023081Y-62028942D01*
X296018017Y-62028140D01*
X296018017Y-62031040D01*
X282628162Y-62031040D01*
X282628162Y-62028198D01*
X282623101Y-62028944D01*
X282623089Y-62028939D01*
X282623089Y-62026932D01*
X282521241Y-62043068D01*
X282512301Y-62047624D01*
X282438235Y-62085368D01*
X282429365Y-62089888D01*
X282392911Y-62126349D01*
X282363466Y-62155798D01*
X282363464Y-62155801D01*
X282356456Y-62162810D01*
X282309651Y-62254693D01*
X282306956Y-62271724D01*
X282296380Y-62338551D01*
X282293532Y-62356544D01*
X282295488Y-62356544D01*
X282294686Y-62361614D01*
X282297590Y-62361614D01*
X282297590Y-75751469D01*
X282294772Y-75751469D01*
X282295512Y-75756488D01*
X282295489Y-75756544D01*
X282293502Y-75756544D01*
X277302568Y-75756544D01*
X277300611Y-75756544D01*
X277300604Y-75756528D01*
X277301406Y-75751469D01*
X277298510Y-75751469D01*
X277298510Y-62361614D01*
X277301258Y-62361614D01*
X277300537Y-62356723D01*
X277300611Y-62356544D01*
X277302517Y-62356544D01*
X277287953Y-62264513D01*
X277287951Y-62264502D01*
X277287950Y-62264498D01*
X277286401Y-62254709D01*
X277281903Y-62245879D01*
X277281902Y-62245876D01*
X277244103Y-62171674D01*
X277239603Y-62162840D01*
X277232594Y-62155830D01*
X277232592Y-62155827D01*
X277203154Y-62126385D01*
X277166705Y-62089929D01*
X277157810Y-62085396D01*
X277083680Y-62047619D01*
X277083678Y-62047618D01*
X277074843Y-62043116D01*
X277065049Y-62041564D01*
X277065048Y-62041564D01*
X277040738Y-62037713D01*
X276973011Y-62026983D01*
X276973011Y-62028939D01*
X276973001Y-62028943D01*
X276967938Y-62028141D01*
X276967938Y-62031040D01*
X263578083Y-62031040D01*
X263578083Y-62028217D01*
X263573056Y-62028958D01*
X263573011Y-62028939D01*
X263573011Y-62026953D01*
X263507678Y-62037300D01*
X263480963Y-62041530D01*
X263480962Y-62041530D01*
X263471164Y-62043082D01*
X263379288Y-62089897D01*
X263306378Y-62162815D01*
X263301877Y-62171651D01*
X263264123Y-62245763D01*
X263259572Y-62254696D01*
X263258023Y-62264485D01*
X263258022Y-62264489D01*
X263246301Y-62338551D01*
X263243453Y-62356544D01*
X263245409Y-62356544D01*
X263244607Y-62361614D01*
X263247510Y-62361614D01*
X263247510Y-75751469D01*
X263244671Y-75751469D01*
X263245417Y-75756525D01*
X263245409Y-75756544D01*
X263243402Y-75756544D01*
X258252488Y-75756544D01*
X258250531Y-75756544D01*
X258250525Y-75756529D01*
X258251327Y-75751469D01*
X258248430Y-75751469D01*
X258248430Y-62361614D01*
X258251158Y-62361614D01*
X258250442Y-62356758D01*
X258250531Y-62356544D01*
X258252417Y-62356544D01*
X258238994Y-62271724D01*
X258237852Y-62264506D01*
X258237851Y-62264502D01*
X258236302Y-62254713D01*
X258189508Y-62162847D01*
X258116615Y-62089937D01*
X258024760Y-62043122D01*
X258014716Y-62041530D01*
X257946391Y-62030701D01*
X257922933Y-62026983D01*
X257922933Y-62028939D01*
X257922917Y-62028946D01*
X257917859Y-62028144D01*
X257917859Y-62031040D01*
X244528004Y-62031040D01*
X244528004Y-62028235D01*
X244523010Y-62028971D01*
X244522933Y-62028939D01*
X244522933Y-62026973D01*
X244504589Y-62029877D01*
X244504588Y-62029877D01*
X244431156Y-62041502D01*
X244421087Y-62043096D01*
X244412210Y-62047619D01*
X244338085Y-62085385D01*
X244329211Y-62089906D01*
X244256299Y-62162820D01*
X244251796Y-62171659D01*
X244213997Y-62245856D01*
X244209492Y-62254698D01*
X244193373Y-62356544D01*
X244195329Y-62356544D01*
X244194526Y-62361614D01*
X244197430Y-62361614D01*
X244197430Y-75751469D01*
X244194571Y-75751469D01*
X244195319Y-75756544D01*
X244193302Y-75756544D01*
X239202408Y-75756544D01*
X239200451Y-75756544D01*
X239200446Y-75756531D01*
X239201248Y-75751469D01*
X239198350Y-75751469D01*
X239198350Y-62361614D01*
X239201058Y-62361614D01*
X239200348Y-62356794D01*
X239200451Y-62356544D01*
X239202317Y-62356544D01*
X239186204Y-62254718D01*
X239139413Y-62162854D01*
X239066526Y-62089945D01*
X239057661Y-62085426D01*
X238983510Y-62047630D01*
X238983511Y-62047630D01*
X238974676Y-62043127D01*
X238964883Y-62041574D01*
X238964882Y-62041574D01*
X238890748Y-62029820D01*
X238872855Y-62026983D01*
X238872855Y-62028939D01*
X238872835Y-62028947D01*
X238867780Y-62028146D01*
X238867780Y-62031040D01*
X225477920Y-62031040D01*
X225477920Y-62028162D01*
X225472845Y-62028910D01*
X225472845Y-62026892D01*
X225424581Y-62034544D01*
X225380787Y-62041487D01*
X225380784Y-62041488D01*
X225370995Y-62043040D01*
X225362164Y-62047541D01*
X225362162Y-62047542D01*
X225290361Y-62084141D01*
X225279120Y-62089871D01*
X225206213Y-62162800D01*
X225159410Y-62254689D01*
X225143292Y-62356544D01*
X220152317Y-62356544D01*
X220146816Y-62321785D01*
X220137749Y-62264498D01*
X220137748Y-62264496D01*
X220136198Y-62254701D01*
X220131651Y-62245774D01*
X220093895Y-62171662D01*
X220093893Y-62171659D01*
X220089393Y-62162825D01*
X220016483Y-62089914D01*
X219924610Y-62043105D01*
X219914814Y-62041554D01*
X219914813Y-62041554D01*
X219896428Y-62038644D01*
X219822767Y-62026983D01*
X219822767Y-62028939D01*
X219822764Y-62028940D01*
X219817696Y-62028138D01*
X219817696Y-62031040D01*
X206427841Y-62031040D01*
X206427841Y-62028180D01*
X206422767Y-62028928D01*
X206422767Y-62026912D01*
X206404418Y-62029820D01*
X206404417Y-62029820D01*
X206330709Y-62041502D01*
X206330708Y-62041502D01*
X206320918Y-62043054D01*
X206312086Y-62047555D01*
X206312084Y-62047556D01*
X206237877Y-62085377D01*
X206237874Y-62085379D01*
X206229043Y-62089880D01*
X206156134Y-62162805D01*
X206109330Y-62254691D01*
X206107780Y-62264485D01*
X206107779Y-62264489D01*
X206096043Y-62338652D01*
X206093212Y-62356544D01*
X206095167Y-62356544D01*
X206094365Y-62361614D01*
X206097270Y-62361614D01*
X206097270Y-75751469D01*
X206094472Y-75751469D01*
X206095207Y-75756453D01*
X206095169Y-75756544D01*
X206093202Y-75756544D01*
X201102247Y-75756544D01*
X201100291Y-75756544D01*
X201100284Y-75756526D01*
X201101085Y-75751469D01*
X201098190Y-75751469D01*
X201098190Y-62361614D01*
X201100957Y-62361614D01*
X201100231Y-62356688D01*
X201100291Y-62356544D01*
X201102217Y-62356544D01*
X201086099Y-62254705D01*
X201039298Y-62162833D01*
X200966394Y-62089922D01*
X200874526Y-62043111D01*
X200796456Y-62030747D01*
X200790584Y-62029817D01*
X200772689Y-62026983D01*
X200772689Y-62028939D01*
X200772681Y-62028942D01*
X200767617Y-62028140D01*
X200767617Y-62031040D01*
X187377762Y-62031040D01*
X187377762Y-62028198D01*
X187372701Y-62028944D01*
X187372689Y-62028939D01*
X187372689Y-62026932D01*
X187270841Y-62043068D01*
X187261901Y-62047624D01*
X187187835Y-62085368D01*
X187178965Y-62089888D01*
X187142511Y-62126349D01*
X187113066Y-62155798D01*
X187113064Y-62155801D01*
X187106056Y-62162810D01*
X187059251Y-62254693D01*
X187056556Y-62271724D01*
X187045980Y-62338551D01*
X187043132Y-62356544D01*
X187045088Y-62356544D01*
X187044286Y-62361614D01*
X187047190Y-62361614D01*
X187047190Y-75751469D01*
X187044372Y-75751469D01*
X187045112Y-75756488D01*
X187045089Y-75756544D01*
X187043102Y-75756544D01*
X182052168Y-75756544D01*
X182050211Y-75756544D01*
X182050204Y-75756528D01*
X182051006Y-75751469D01*
X182048110Y-75751469D01*
X182048110Y-62361614D01*
X182050858Y-62361614D01*
X182050137Y-62356723D01*
X182050211Y-62356544D01*
X182052117Y-62356544D01*
X182037553Y-62264513D01*
X182037551Y-62264502D01*
X182037550Y-62264498D01*
X182036001Y-62254709D01*
X182031503Y-62245879D01*
X182031502Y-62245876D01*
X181993703Y-62171674D01*
X181989203Y-62162840D01*
X181982194Y-62155830D01*
X181982192Y-62155827D01*
X181952754Y-62126384D01*
X181916305Y-62089929D01*
X181907410Y-62085396D01*
X181833280Y-62047619D01*
X181833278Y-62047618D01*
X181824443Y-62043116D01*
X181814649Y-62041564D01*
X181814648Y-62041564D01*
X181790338Y-62037713D01*
X181722611Y-62026983D01*
X181722611Y-62028939D01*
X181722601Y-62028943D01*
X181717538Y-62028141D01*
X181717538Y-62031040D01*
X168327683Y-62031040D01*
X168327683Y-62028217D01*
X168322656Y-62028958D01*
X168322611Y-62028939D01*
X168322611Y-62026953D01*
X168257278Y-62037300D01*
X168230563Y-62041530D01*
X168230562Y-62041530D01*
X168220764Y-62043082D01*
X168128888Y-62089897D01*
X168055978Y-62162815D01*
X168051477Y-62171651D01*
X168013723Y-62245763D01*
X168009172Y-62254696D01*
X168007623Y-62264485D01*
X168007622Y-62264489D01*
X167995901Y-62338551D01*
X167993053Y-62356544D01*
X167995009Y-62356544D01*
X167994207Y-62361614D01*
X167997110Y-62361614D01*
X167997110Y-75751469D01*
X167994271Y-75751469D01*
X167995017Y-75756525D01*
X167995009Y-75756544D01*
X167993002Y-75756544D01*
X163002088Y-75756544D01*
X163000131Y-75756544D01*
X163000125Y-75756529D01*
X163000927Y-75751469D01*
X162998030Y-75751469D01*
X162998030Y-62361614D01*
X163000758Y-62361614D01*
X163000042Y-62356758D01*
X163000131Y-62356544D01*
X163002017Y-62356544D01*
X162988594Y-62271724D01*
X162987452Y-62264506D01*
X162987451Y-62264502D01*
X162985902Y-62254713D01*
X162939108Y-62162847D01*
X162866215Y-62089937D01*
X162774360Y-62043122D01*
X162764316Y-62041530D01*
X162695991Y-62030701D01*
X162672533Y-62026983D01*
X162672533Y-62028939D01*
X162672517Y-62028946D01*
X162667459Y-62028144D01*
X162667459Y-62031040D01*
X149277604Y-62031040D01*
X149277604Y-62028235D01*
X149272610Y-62028971D01*
X149272533Y-62028939D01*
X149272533Y-62026973D01*
X149254189Y-62029877D01*
X149254188Y-62029877D01*
X149180756Y-62041502D01*
X149170687Y-62043096D01*
X149161810Y-62047619D01*
X149087685Y-62085385D01*
X149078811Y-62089906D01*
X149005899Y-62162820D01*
X149001396Y-62171659D01*
X148963597Y-62245856D01*
X148959092Y-62254698D01*
X148942973Y-62356544D01*
X148944929Y-62356544D01*
X148944126Y-62361614D01*
X148947030Y-62361614D01*
X148947030Y-75751469D01*
X148944171Y-75751469D01*
X148944919Y-75756544D01*
X148942902Y-75756544D01*
X146474082Y-75756544D01*
X146474082Y-59531300D01*
X170094485Y-59531300D01*
X170115081Y-59766708D01*
X170116505Y-59772022D01*
X170116505Y-59772023D01*
X170166292Y-59957831D01*
X170176241Y-59994963D01*
X170178563Y-59999943D01*
X170178564Y-59999945D01*
X170250631Y-60154491D01*
X170276109Y-60209129D01*
X170411649Y-60402701D01*
X170578743Y-60569795D01*
X170772315Y-60705335D01*
X170777293Y-60707656D01*
X170777296Y-60707658D01*
X170981499Y-60802880D01*
X170986481Y-60805203D01*
X170991789Y-60806625D01*
X170991791Y-60806626D01*
X171209421Y-60864939D01*
X171214736Y-60866363D01*
X171317826Y-60875382D01*
X171388454Y-60881562D01*
X171388461Y-60881562D01*
X171391178Y-60881800D01*
X171509110Y-60881800D01*
X171511827Y-60881562D01*
X171511834Y-60881562D01*
X171582462Y-60875382D01*
X171685552Y-60866363D01*
X171690867Y-60864939D01*
X171908497Y-60806626D01*
X171908499Y-60806625D01*
X171913807Y-60805203D01*
X171918789Y-60802880D01*
X172122992Y-60707658D01*
X172122995Y-60707656D01*
X172127973Y-60705335D01*
X172321545Y-60569795D01*
X172488639Y-60402701D01*
X172491799Y-60398189D01*
X172621022Y-60213639D01*
X172621025Y-60213634D01*
X172624179Y-60209130D01*
X172626502Y-60204148D01*
X172626505Y-60204143D01*
X172721724Y-59999945D01*
X172721725Y-59999944D01*
X172724047Y-59994963D01*
X172733997Y-59957831D01*
X172783783Y-59772023D01*
X172783783Y-59772022D01*
X172785207Y-59766708D01*
X172799208Y-59606681D01*
X173805887Y-59606681D01*
X173807709Y-59614071D01*
X173807709Y-59614075D01*
X173807712Y-59614086D01*
X173841967Y-59753062D01*
X173845510Y-59759812D01*
X173845511Y-59759815D01*
X173876999Y-59819809D01*
X173912030Y-59886555D01*
X173917085Y-59892260D01*
X173917085Y-59892261D01*
X174006950Y-59993697D01*
X174006953Y-59993700D01*
X174012005Y-59999402D01*
X174018277Y-60003731D01*
X174018278Y-60003732D01*
X174129797Y-60080706D01*
X174136080Y-60085043D01*
X174277046Y-60138503D01*
X174339407Y-60146074D01*
X174408726Y-60154490D01*
X174408727Y-60154490D01*
X174426709Y-60156673D01*
X174426709Y-60154214D01*
X174431372Y-60152282D01*
X174433423Y-60152113D01*
X219662194Y-60152113D01*
X219666163Y-60152419D01*
X219670497Y-60154214D01*
X219670497Y-60156673D01*
X219787975Y-60142409D01*
X219812591Y-60139420D01*
X219812592Y-60139420D01*
X219820159Y-60138501D01*
X219961123Y-60085041D01*
X219967389Y-60080716D01*
X219967391Y-60080715D01*
X220078925Y-60003730D01*
X220078926Y-60003729D01*
X220085198Y-59999400D01*
X220090249Y-59993698D01*
X220090253Y-59993695D01*
X220180097Y-59892280D01*
X220185171Y-59886553D01*
X220245282Y-59772023D01*
X220251691Y-59759812D01*
X220251693Y-59759808D01*
X220255234Y-59753061D01*
X220291312Y-59606685D01*
X225002787Y-59606685D01*
X225004611Y-59614084D01*
X225004611Y-59614085D01*
X225037046Y-59745668D01*
X225038871Y-59753073D01*
X225108941Y-59886572D01*
X225113997Y-59892278D01*
X225113998Y-59892280D01*
X225172081Y-59957835D01*
X225208926Y-59999420D01*
X225333012Y-60085060D01*
X225473989Y-60138513D01*
X225481547Y-60139430D01*
X225481551Y-60139431D01*
X225568517Y-60149982D01*
X225623661Y-60156673D01*
X225623661Y-60154214D01*
X225628321Y-60152283D01*
X225630380Y-60152113D01*
X295862208Y-60152113D01*
X295866200Y-60152421D01*
X295870528Y-60154214D01*
X295870528Y-60156673D01*
X295887806Y-60154577D01*
X295887807Y-60154577D01*
X296012637Y-60139433D01*
X296012639Y-60139433D01*
X296020202Y-60138515D01*
X296027326Y-60135814D01*
X296027330Y-60135813D01*
X296118851Y-60101113D01*
X296161181Y-60085064D01*
X296285270Y-59999424D01*
X296290351Y-59993690D01*
X296380201Y-59892280D01*
X296385256Y-59886575D01*
X296388797Y-59879829D01*
X296388799Y-59879826D01*
X296451787Y-59759823D01*
X296451789Y-59759819D01*
X296455328Y-59753076D01*
X296491413Y-59606686D01*
X296491413Y-59606681D01*
X301202887Y-59606681D01*
X301204709Y-59614071D01*
X301204709Y-59614075D01*
X301234111Y-59733361D01*
X301238967Y-59753063D01*
X301242505Y-59759805D01*
X301242507Y-59759809D01*
X301305488Y-59879807D01*
X301309031Y-59886557D01*
X301409006Y-59999403D01*
X301533083Y-60085045D01*
X301674050Y-60138504D01*
X301750310Y-60147762D01*
X301805731Y-60154490D01*
X301823714Y-60156673D01*
X301823714Y-60154214D01*
X301828377Y-60152282D01*
X301830429Y-60152113D01*
X353012307Y-60152113D01*
X353016275Y-60152419D01*
X353020609Y-60154214D01*
X353020609Y-60156673D01*
X353162578Y-60139433D01*
X353162702Y-60139418D01*
X353162703Y-60139418D01*
X353170269Y-60138499D01*
X353177394Y-60135797D01*
X353177397Y-60135796D01*
X353304102Y-60087741D01*
X353304103Y-60087740D01*
X353311231Y-60085037D01*
X353317504Y-60080707D01*
X353317506Y-60080706D01*
X353382472Y-60035862D01*
X353435303Y-59999395D01*
X353535274Y-59886549D01*
X353570305Y-59819803D01*
X353601793Y-59759808D01*
X353601795Y-59759804D01*
X353605335Y-59753058D01*
X353641413Y-59606680D01*
X353641413Y-59531300D01*
X354641515Y-59531300D01*
X354662111Y-59766708D01*
X354663535Y-59772022D01*
X354663535Y-59772023D01*
X354713322Y-59957831D01*
X354723271Y-59994963D01*
X354725593Y-59999943D01*
X354725594Y-59999945D01*
X354797661Y-60154491D01*
X354823139Y-60209129D01*
X354958679Y-60402701D01*
X355125773Y-60569795D01*
X355319345Y-60705335D01*
X355324323Y-60707656D01*
X355324326Y-60707658D01*
X355528529Y-60802880D01*
X355533511Y-60805203D01*
X355538819Y-60806625D01*
X355538821Y-60806626D01*
X355756451Y-60864939D01*
X355761766Y-60866363D01*
X355864856Y-60875382D01*
X355935484Y-60881562D01*
X355935491Y-60881562D01*
X355938208Y-60881800D01*
X356056140Y-60881800D01*
X356058857Y-60881562D01*
X356058864Y-60881562D01*
X356129492Y-60875382D01*
X356232582Y-60866363D01*
X356237897Y-60864939D01*
X356455527Y-60806626D01*
X356455529Y-60806625D01*
X356460837Y-60805203D01*
X356465819Y-60802880D01*
X356670022Y-60707658D01*
X356670025Y-60707656D01*
X356675003Y-60705335D01*
X356868575Y-60569795D01*
X357035669Y-60402701D01*
X357038829Y-60398189D01*
X357168052Y-60213639D01*
X357168055Y-60213634D01*
X357171209Y-60209130D01*
X357173532Y-60204148D01*
X357173535Y-60204143D01*
X357268754Y-59999945D01*
X357268755Y-59999944D01*
X357271077Y-59994963D01*
X357281027Y-59957831D01*
X357330813Y-59772023D01*
X357330813Y-59772022D01*
X357332237Y-59766708D01*
X357352833Y-59531300D01*
X357332237Y-59295892D01*
X357308582Y-59207608D01*
X357272500Y-59072947D01*
X357272499Y-59072945D01*
X357271077Y-59067637D01*
X357266988Y-59058868D01*
X357173532Y-58858452D01*
X357173530Y-58858449D01*
X357171209Y-58853471D01*
X357035669Y-58659899D01*
X356868575Y-58492805D01*
X356675003Y-58357265D01*
X356670025Y-58354944D01*
X356670022Y-58354942D01*
X356465819Y-58259720D01*
X356465817Y-58259719D01*
X356460837Y-58257397D01*
X356455529Y-58255975D01*
X356455527Y-58255974D01*
X356237897Y-58197661D01*
X356237896Y-58197661D01*
X356232582Y-58196237D01*
X356129492Y-58187218D01*
X356058864Y-58181038D01*
X356058857Y-58181038D01*
X356056140Y-58180800D01*
X355938208Y-58180800D01*
X355935491Y-58181038D01*
X355935484Y-58181038D01*
X355864856Y-58187218D01*
X355761766Y-58196237D01*
X355756452Y-58197661D01*
X355756451Y-58197661D01*
X355538821Y-58255974D01*
X355538819Y-58255975D01*
X355533511Y-58257397D01*
X355528531Y-58259719D01*
X355528529Y-58259720D01*
X355324326Y-58354942D01*
X355324323Y-58354944D01*
X355319345Y-58357265D01*
X355125773Y-58492805D01*
X354958679Y-58659899D01*
X354955522Y-58664407D01*
X354955520Y-58664410D01*
X354826296Y-58848961D01*
X354823139Y-58853470D01*
X354820816Y-58858452D01*
X354820813Y-58858457D01*
X354727360Y-59058868D01*
X354723271Y-59067637D01*
X354721849Y-59072945D01*
X354721848Y-59072947D01*
X354685766Y-59207608D01*
X354662111Y-59295892D01*
X354641515Y-59531300D01*
X353641413Y-59531300D01*
X353641413Y-59455920D01*
X353605335Y-59309542D01*
X353601795Y-59302796D01*
X353601793Y-59302792D01*
X353551836Y-59207608D01*
X353535274Y-59176051D01*
X353435303Y-59063205D01*
X353373267Y-59020384D01*
X353317506Y-58981894D01*
X353317504Y-58981893D01*
X353311231Y-58977563D01*
X353304103Y-58974860D01*
X353304102Y-58974859D01*
X353177397Y-58926804D01*
X353177394Y-58926803D01*
X353170269Y-58924101D01*
X353162703Y-58923182D01*
X353162702Y-58923182D01*
X353038594Y-58908111D01*
X353020609Y-58905927D01*
X353020609Y-58908386D01*
X353015945Y-58910318D01*
X353013899Y-58910487D01*
X301832023Y-58910487D01*
X301828046Y-58910181D01*
X301823714Y-58908386D01*
X301823714Y-58905927D01*
X301674050Y-58924096D01*
X301533083Y-58977555D01*
X301409006Y-59063197D01*
X301309031Y-59176043D01*
X301305489Y-59182791D01*
X301305488Y-59182793D01*
X301242507Y-59302791D01*
X301242507Y-59302792D01*
X301238967Y-59309537D01*
X301237145Y-59316930D01*
X301237144Y-59316932D01*
X301204710Y-59448524D01*
X301202887Y-59455919D01*
X301202887Y-59606681D01*
X296491413Y-59606681D01*
X296491413Y-59455914D01*
X296455328Y-59309524D01*
X296451787Y-59302777D01*
X296388799Y-59182774D01*
X296388797Y-59182771D01*
X296385256Y-59176025D01*
X296335263Y-59119600D01*
X296290325Y-59068881D01*
X296290324Y-59068880D01*
X296285270Y-59063176D01*
X296161181Y-58977536D01*
X296109821Y-58958063D01*
X296027330Y-58926787D01*
X296027326Y-58926786D01*
X296020202Y-58924085D01*
X296012639Y-58923167D01*
X296012637Y-58923167D01*
X295950341Y-58915610D01*
X295870528Y-58905927D01*
X295870528Y-58908386D01*
X295865868Y-58910317D01*
X295863809Y-58910487D01*
X225631979Y-58910487D01*
X225627990Y-58910180D01*
X225623661Y-58908386D01*
X225623661Y-58905927D01*
X225542887Y-58915727D01*
X225481551Y-58923169D01*
X225481547Y-58923170D01*
X225473989Y-58924087D01*
X225333012Y-58977540D01*
X225208926Y-59063180D01*
X225203867Y-59068890D01*
X225172078Y-59104769D01*
X225108941Y-59176028D01*
X225038871Y-59309527D01*
X225037048Y-59316922D01*
X225037047Y-59316925D01*
X225034011Y-59329243D01*
X225002787Y-59455915D01*
X225002787Y-59606685D01*
X220291312Y-59606685D01*
X220291313Y-59606681D01*
X220291313Y-59455919D01*
X220255234Y-59309539D01*
X220248072Y-59295892D01*
X220188712Y-59182794D01*
X220185171Y-59176047D01*
X220122045Y-59104792D01*
X220090253Y-59068905D01*
X220090249Y-59068902D01*
X220085198Y-59063200D01*
X220078922Y-59058868D01*
X219967391Y-58981885D01*
X219967389Y-58981884D01*
X219961123Y-58977559D01*
X219820159Y-58924099D01*
X219812592Y-58923180D01*
X219812591Y-58923180D01*
X219762498Y-58917098D01*
X219670497Y-58905927D01*
X219670497Y-58908386D01*
X219665833Y-58910318D01*
X219663786Y-58910487D01*
X174435017Y-58910487D01*
X174431042Y-58910181D01*
X174426709Y-58908386D01*
X174426709Y-58905927D01*
X174409428Y-58908025D01*
X174409427Y-58908025D01*
X174357132Y-58914374D01*
X174277046Y-58924097D01*
X174136080Y-58977557D01*
X174129809Y-58981885D01*
X174129808Y-58981886D01*
X174018278Y-59058868D01*
X174012005Y-59063198D01*
X174006953Y-59068900D01*
X174006950Y-59068903D01*
X173975155Y-59104792D01*
X173912030Y-59176045D01*
X173895462Y-59207612D01*
X173851919Y-59290577D01*
X173841967Y-59309538D01*
X173837111Y-59329239D01*
X173807710Y-59448524D01*
X173805887Y-59455919D01*
X173805887Y-59606681D01*
X172799208Y-59606681D01*
X172805803Y-59531300D01*
X172785207Y-59295892D01*
X172761552Y-59207608D01*
X172725470Y-59072947D01*
X172725469Y-59072945D01*
X172724047Y-59067637D01*
X172719958Y-59058868D01*
X172626502Y-58858452D01*
X172626500Y-58858449D01*
X172624179Y-58853471D01*
X172488639Y-58659899D01*
X172321545Y-58492805D01*
X172127973Y-58357265D01*
X172122995Y-58354944D01*
X172122992Y-58354942D01*
X171918789Y-58259720D01*
X171918787Y-58259719D01*
X171913807Y-58257397D01*
X171908499Y-58255975D01*
X171908497Y-58255974D01*
X171690867Y-58197661D01*
X171690866Y-58197661D01*
X171685552Y-58196237D01*
X171582462Y-58187218D01*
X171511834Y-58181038D01*
X171511827Y-58181038D01*
X171509110Y-58180800D01*
X171391178Y-58180800D01*
X171388461Y-58181038D01*
X171388454Y-58181038D01*
X171317826Y-58187218D01*
X171214736Y-58196237D01*
X171209422Y-58197661D01*
X171209421Y-58197661D01*
X170991791Y-58255974D01*
X170991789Y-58255975D01*
X170986481Y-58257397D01*
X170981501Y-58259719D01*
X170981499Y-58259720D01*
X170777296Y-58354942D01*
X170777293Y-58354944D01*
X170772315Y-58357265D01*
X170578743Y-58492805D01*
X170411649Y-58659899D01*
X170408492Y-58664407D01*
X170408490Y-58664410D01*
X170279266Y-58848961D01*
X170276109Y-58853470D01*
X170273786Y-58858452D01*
X170273783Y-58858457D01*
X170180330Y-59058868D01*
X170176241Y-59067637D01*
X170174819Y-59072945D01*
X170174818Y-59072947D01*
X170138736Y-59207608D01*
X170115081Y-59295892D01*
X170094485Y-59531300D01*
X146474082Y-59531300D01*
X146474082Y-43306456D01*
X148942973Y-43306456D01*
X148944929Y-43306456D01*
X148944936Y-43306474D01*
X148944135Y-43311531D01*
X148947030Y-43311531D01*
X148947030Y-56701386D01*
X148944243Y-56701386D01*
X148944974Y-56706347D01*
X148944929Y-56706456D01*
X148942983Y-56706456D01*
X148945886Y-56724797D01*
X148957551Y-56798498D01*
X148959102Y-56808299D01*
X148963603Y-56817135D01*
X148963604Y-56817137D01*
X148989427Y-56867826D01*
X149005907Y-56900175D01*
X149078817Y-56973086D01*
X149170690Y-57019895D01*
X149180486Y-57021446D01*
X149180487Y-57021446D01*
X149188586Y-57022728D01*
X149272533Y-57036017D01*
X149272533Y-57034061D01*
X149272536Y-57034060D01*
X149277604Y-57034862D01*
X149277604Y-57031960D01*
X162667459Y-57031960D01*
X162667459Y-57034820D01*
X162672533Y-57034072D01*
X162672533Y-57036088D01*
X162690882Y-57033180D01*
X162690883Y-57033180D01*
X162764591Y-57021498D01*
X162764592Y-57021498D01*
X162774382Y-57019946D01*
X162783214Y-57015445D01*
X162783216Y-57015444D01*
X162857423Y-56977623D01*
X162857426Y-56977621D01*
X162866257Y-56973120D01*
X162939166Y-56900195D01*
X162985970Y-56808309D01*
X162987522Y-56798507D01*
X162999257Y-56724348D01*
X162999257Y-56724347D01*
X163002088Y-56706456D01*
X163000133Y-56706456D01*
X163000935Y-56701386D01*
X162998030Y-56701386D01*
X162998030Y-43311531D01*
X163000828Y-43311531D01*
X163000093Y-43306547D01*
X163000131Y-43306456D01*
X163002098Y-43306456D01*
X167993053Y-43306456D01*
X167995009Y-43306456D01*
X167995016Y-43306474D01*
X167994215Y-43311531D01*
X167997110Y-43311531D01*
X167997110Y-56701386D01*
X167994343Y-56701386D01*
X167995069Y-56706312D01*
X167995009Y-56706456D01*
X167993083Y-56706456D01*
X168009201Y-56808295D01*
X168032601Y-56854231D01*
X168051492Y-56891313D01*
X168056002Y-56900167D01*
X168128906Y-56973078D01*
X168220774Y-57019889D01*
X168247667Y-57024148D01*
X168304704Y-57033181D01*
X168322611Y-57036017D01*
X168322611Y-57034061D01*
X168322619Y-57034058D01*
X168327683Y-57034860D01*
X168327683Y-57031960D01*
X181717538Y-57031960D01*
X181717538Y-57034802D01*
X181722599Y-57034056D01*
X181722611Y-57034061D01*
X181722611Y-57036068D01*
X181824459Y-57019932D01*
X181901977Y-56980429D01*
X181907499Y-56977615D01*
X181907500Y-56977614D01*
X181916335Y-56973112D01*
X181960921Y-56928518D01*
X181982234Y-56907202D01*
X181982238Y-56907197D01*
X181989244Y-56900190D01*
X182036049Y-56808307D01*
X182049265Y-56724798D01*
X182049336Y-56724352D01*
X182049336Y-56724350D01*
X182052168Y-56706456D01*
X182050212Y-56706456D01*
X182051014Y-56701386D01*
X182048110Y-56701386D01*
X182048110Y-43311531D01*
X182050928Y-43311531D01*
X182050188Y-43306512D01*
X182050211Y-43306456D01*
X182052198Y-43306456D01*
X187043132Y-43306456D01*
X187045089Y-43306456D01*
X187045096Y-43306472D01*
X187044294Y-43311531D01*
X187047190Y-43311531D01*
X187047190Y-56701386D01*
X187044442Y-56701386D01*
X187045163Y-56706277D01*
X187045089Y-56706456D01*
X187043183Y-56706456D01*
X187046086Y-56724797D01*
X187046086Y-56724799D01*
X187057749Y-56798494D01*
X187059299Y-56808291D01*
X187063797Y-56817121D01*
X187063798Y-56817124D01*
X187089626Y-56867826D01*
X187106097Y-56900160D01*
X187113106Y-56907170D01*
X187113108Y-56907173D01*
X187134450Y-56928518D01*
X187178995Y-56973071D01*
X187187830Y-56977573D01*
X187187831Y-56977574D01*
X187262020Y-57015381D01*
X187262022Y-57015382D01*
X187270857Y-57019884D01*
X187280651Y-57021436D01*
X187280652Y-57021436D01*
X187304962Y-57025287D01*
X187372689Y-57036017D01*
X187372689Y-57034061D01*
X187372699Y-57034057D01*
X187377762Y-57034859D01*
X187377762Y-57031960D01*
X200767617Y-57031960D01*
X200767617Y-57034783D01*
X200772644Y-57034042D01*
X200772689Y-57034061D01*
X200772689Y-57036047D01*
X200847826Y-57024148D01*
X200864737Y-57021470D01*
X200864738Y-57021470D01*
X200874536Y-57019918D01*
X200966412Y-56973103D01*
X201039322Y-56900185D01*
X201086128Y-56808304D01*
X201087679Y-56798502D01*
X201099415Y-56724352D01*
X201099415Y-56724350D01*
X201102247Y-56706456D01*
X201100291Y-56706456D01*
X201101093Y-56701386D01*
X201098190Y-56701386D01*
X201098190Y-43311531D01*
X201101029Y-43311531D01*
X201100283Y-43306475D01*
X201100291Y-43306456D01*
X201102298Y-43306456D01*
X206093212Y-43306456D01*
X206095169Y-43306456D01*
X206095175Y-43306471D01*
X206094373Y-43311531D01*
X206097270Y-43311531D01*
X206097270Y-56701386D01*
X206094542Y-56701386D01*
X206095258Y-56706242D01*
X206095169Y-56706456D01*
X206093283Y-56706456D01*
X206096186Y-56724797D01*
X206096186Y-56724799D01*
X206106710Y-56791299D01*
X206109398Y-56808287D01*
X206156192Y-56900153D01*
X206229085Y-56973063D01*
X206320940Y-57019878D01*
X206330732Y-57021430D01*
X206331085Y-57021486D01*
X206422767Y-57036017D01*
X206422767Y-57034061D01*
X206422783Y-57034054D01*
X206427841Y-57034856D01*
X206427841Y-57031960D01*
X219817696Y-57031960D01*
X219817696Y-57034765D01*
X219822690Y-57034029D01*
X219822767Y-57034061D01*
X219822767Y-57036027D01*
X219841111Y-57033123D01*
X219841112Y-57033123D01*
X219914816Y-57021455D01*
X219924613Y-57019904D01*
X220002177Y-56980386D01*
X220007651Y-56977597D01*
X220007652Y-56977597D01*
X220016489Y-56973094D01*
X220089401Y-56900180D01*
X220094265Y-56890632D01*
X220131706Y-56817140D01*
X220131707Y-56817137D01*
X220136208Y-56808302D01*
X220152327Y-56706456D01*
X220150371Y-56706456D01*
X220151174Y-56701386D01*
X220148270Y-56701386D01*
X220148270Y-43311531D01*
X220151129Y-43311531D01*
X220150381Y-43306456D01*
X220152398Y-43306456D01*
X225143292Y-43306456D01*
X225145249Y-43306456D01*
X225145254Y-43306469D01*
X225144452Y-43311531D01*
X225147350Y-43311531D01*
X225147350Y-56701386D01*
X225144642Y-56701386D01*
X225145352Y-56706206D01*
X225145249Y-56706456D01*
X225143383Y-56706456D01*
X225159496Y-56808282D01*
X225206287Y-56900146D01*
X225279174Y-56973055D01*
X225288007Y-56977558D01*
X225288008Y-56977558D01*
X225293556Y-56980386D01*
X225371024Y-57019873D01*
X225380817Y-57021426D01*
X225380818Y-57021426D01*
X225454952Y-57033180D01*
X225472845Y-57036017D01*
X225472845Y-57034061D01*
X225472865Y-57034053D01*
X225477920Y-57034854D01*
X225477920Y-57031960D01*
X238867780Y-57031960D01*
X238867780Y-57034838D01*
X238872855Y-57034090D01*
X238872855Y-57036108D01*
X238921119Y-57028456D01*
X238964913Y-57021513D01*
X238964916Y-57021512D01*
X238974705Y-57019960D01*
X238983536Y-57015459D01*
X238983538Y-57015458D01*
X239057746Y-56977632D01*
X239066580Y-56973129D01*
X239139487Y-56900200D01*
X239186290Y-56808311D01*
X239202408Y-56706456D01*
X239200453Y-56706456D01*
X239201255Y-56701386D01*
X239198350Y-56701386D01*
X239198350Y-43311531D01*
X239201130Y-43311531D01*
X239200400Y-43306579D01*
X239200451Y-43306456D01*
X239202398Y-43306456D01*
X244193757Y-43306456D01*
X244195713Y-43306456D01*
X244195720Y-43306474D01*
X244194919Y-43311531D01*
X244197814Y-43311531D01*
X244197814Y-56701386D01*
X244195043Y-56701386D01*
X244195770Y-56706319D01*
X244195713Y-56706456D01*
X244193783Y-56706456D01*
X244209901Y-56808296D01*
X244214410Y-56817147D01*
X244252192Y-56891313D01*
X244256703Y-56900169D01*
X244263716Y-56907182D01*
X244263717Y-56907184D01*
X244322598Y-56966070D01*
X244329608Y-56973080D01*
X244338438Y-56977579D01*
X244338441Y-56977581D01*
X244412639Y-57015387D01*
X244421477Y-57019890D01*
X244463963Y-57026618D01*
X244505423Y-57033184D01*
X244505424Y-57033184D01*
X244523315Y-57036017D01*
X244523315Y-57034061D01*
X244523321Y-57034059D01*
X244528387Y-57034861D01*
X244528387Y-57031960D01*
X257918242Y-57031960D01*
X257918242Y-57034806D01*
X257923310Y-57034059D01*
X257923315Y-57034061D01*
X257923315Y-57036072D01*
X258025163Y-57019935D01*
X258102685Y-56980429D01*
X258108199Y-56977619D01*
X258117039Y-56973114D01*
X258189948Y-56900191D01*
X258236753Y-56808307D01*
X258249969Y-56724798D01*
X258250040Y-56724352D01*
X258250040Y-56724350D01*
X258252872Y-56706456D01*
X258250916Y-56706456D01*
X258251718Y-56701386D01*
X258248814Y-56701386D01*
X258248814Y-43311531D01*
X258251629Y-43311531D01*
X258250890Y-43306517D01*
X258250915Y-43306456D01*
X258252898Y-43306456D01*
X263243773Y-43306456D01*
X263245729Y-43306456D01*
X263245736Y-43306474D01*
X263244935Y-43311531D01*
X263247830Y-43311531D01*
X263247830Y-56701386D01*
X263245043Y-56701386D01*
X263245774Y-56706347D01*
X263245729Y-56706456D01*
X263243783Y-56706456D01*
X263246686Y-56724797D01*
X263258351Y-56798498D01*
X263259902Y-56808299D01*
X263264403Y-56817135D01*
X263264404Y-56817137D01*
X263290227Y-56867826D01*
X263306707Y-56900175D01*
X263379617Y-56973086D01*
X263471490Y-57019895D01*
X263481286Y-57021446D01*
X263481287Y-57021446D01*
X263489386Y-57022728D01*
X263573333Y-57036017D01*
X263573333Y-57034061D01*
X263573336Y-57034060D01*
X263578404Y-57034862D01*
X263578404Y-57031960D01*
X276968259Y-57031960D01*
X276968259Y-57034820D01*
X276973333Y-57034072D01*
X276973333Y-57036088D01*
X276991682Y-57033180D01*
X276991683Y-57033180D01*
X277065391Y-57021498D01*
X277065392Y-57021498D01*
X277075182Y-57019946D01*
X277084014Y-57015445D01*
X277084016Y-57015444D01*
X277158223Y-56977623D01*
X277158226Y-56977621D01*
X277167057Y-56973120D01*
X277239966Y-56900195D01*
X277286770Y-56808309D01*
X277288322Y-56798507D01*
X277300057Y-56724348D01*
X277300057Y-56724347D01*
X277302888Y-56706456D01*
X282293783Y-56706456D01*
X282309903Y-56808303D01*
X282356712Y-56900180D01*
X282429625Y-56973092D01*
X282438462Y-56977594D01*
X282445069Y-56980960D01*
X282521504Y-57019899D01*
X282531684Y-57021510D01*
X282605454Y-57033185D01*
X282605455Y-57033185D01*
X282623351Y-57036017D01*
X282623351Y-57034061D01*
X282628421Y-57034863D01*
X282628421Y-57031960D01*
X296012782Y-57031960D01*
X296019989Y-57032670D01*
X296023350Y-57034061D01*
X296023351Y-57034061D01*
X296023351Y-57036104D01*
X296065906Y-57029357D01*
X296115406Y-57021510D01*
X296115408Y-57021509D01*
X296125200Y-57019957D01*
X296134033Y-57015455D01*
X296134035Y-57015454D01*
X296208241Y-56977630D01*
X296208242Y-56977629D01*
X296217075Y-56973127D01*
X296289983Y-56900199D01*
X296294487Y-56891358D01*
X296313771Y-56853496D01*
X296336786Y-56808310D01*
X296350001Y-56724800D01*
X296350073Y-56724348D01*
X296350073Y-56724347D01*
X296352904Y-56706456D01*
X296350949Y-56706456D01*
X296351751Y-56701386D01*
X296348846Y-56701386D01*
X296348846Y-43311531D01*
X296351630Y-43311531D01*
X296350899Y-43306572D01*
X296350947Y-43306456D01*
X296352898Y-43306456D01*
X301343804Y-43306456D01*
X301345761Y-43306456D01*
X301345766Y-43306469D01*
X301344964Y-43311531D01*
X301347862Y-43311531D01*
X301347862Y-56701386D01*
X301345142Y-56701386D01*
X301345856Y-56706228D01*
X301345761Y-56706456D01*
X301343883Y-56706456D01*
X301346786Y-56724798D01*
X301346786Y-56724800D01*
X301358446Y-56798487D01*
X301358447Y-56798490D01*
X301359997Y-56808285D01*
X301406790Y-56900150D01*
X301479680Y-56973060D01*
X301571534Y-57019876D01*
X301673358Y-57036017D01*
X301673358Y-57034061D01*
X301673359Y-57034061D01*
X301676720Y-57032669D01*
X301683925Y-57031960D01*
X315068287Y-57031960D01*
X315068287Y-57034759D01*
X315073270Y-57034024D01*
X315073358Y-57034061D01*
X315073358Y-57036019D01*
X315091700Y-57033116D01*
X315091702Y-57033116D01*
X315165026Y-57021510D01*
X315175204Y-57019899D01*
X315267080Y-56973091D01*
X315339992Y-56900179D01*
X315386799Y-56808301D01*
X315388351Y-56798498D01*
X315400087Y-56724351D01*
X315400087Y-56724348D01*
X315402919Y-56706456D01*
X315400963Y-56706456D01*
X315400963Y-56706455D01*
X315401765Y-56701386D01*
X315398862Y-56701386D01*
X315398862Y-43311531D01*
X315401729Y-43311531D01*
X315400981Y-43306456D01*
X315402998Y-43306456D01*
X320393692Y-43306456D01*
X320395649Y-43306456D01*
X320395654Y-43306469D01*
X320394852Y-43311531D01*
X320397750Y-43311531D01*
X320397750Y-56701386D01*
X320395042Y-56701386D01*
X320395752Y-56706206D01*
X320395649Y-56706456D01*
X320393783Y-56706456D01*
X320409896Y-56808282D01*
X320456687Y-56900146D01*
X320529574Y-56973055D01*
X320538407Y-56977558D01*
X320538408Y-56977558D01*
X320543956Y-56980386D01*
X320621424Y-57019873D01*
X320631217Y-57021426D01*
X320631218Y-57021426D01*
X320705352Y-57033180D01*
X320723245Y-57036017D01*
X320723245Y-57034061D01*
X320723265Y-57034053D01*
X320728320Y-57034854D01*
X320728320Y-57031960D01*
X334118180Y-57031960D01*
X334118180Y-57034838D01*
X334123255Y-57034090D01*
X334123255Y-57036108D01*
X334171519Y-57028456D01*
X334215313Y-57021513D01*
X334215316Y-57021512D01*
X334225105Y-57019960D01*
X334233936Y-57015459D01*
X334233938Y-57015458D01*
X334308146Y-56977632D01*
X334316980Y-56973129D01*
X334389887Y-56900200D01*
X334436690Y-56808311D01*
X334452808Y-56706456D01*
X334450853Y-56706456D01*
X334451655Y-56701386D01*
X334448750Y-56701386D01*
X334448750Y-43311531D01*
X334451530Y-43311531D01*
X334450800Y-43306579D01*
X334450851Y-43306456D01*
X334452798Y-43306456D01*
X339443773Y-43306456D01*
X339445729Y-43306456D01*
X339445736Y-43306474D01*
X339444935Y-43311531D01*
X339447830Y-43311531D01*
X339447830Y-56701386D01*
X339445043Y-56701386D01*
X339445774Y-56706347D01*
X339445729Y-56706456D01*
X339443783Y-56706456D01*
X339446686Y-56724797D01*
X339458351Y-56798498D01*
X339459902Y-56808299D01*
X339464403Y-56817135D01*
X339464404Y-56817137D01*
X339490227Y-56867826D01*
X339506707Y-56900175D01*
X339579617Y-56973086D01*
X339671490Y-57019895D01*
X339681286Y-57021446D01*
X339681287Y-57021446D01*
X339689386Y-57022728D01*
X339773333Y-57036017D01*
X339773333Y-57034061D01*
X339773336Y-57034060D01*
X339778404Y-57034862D01*
X339778404Y-57031960D01*
X353168259Y-57031960D01*
X353168259Y-57034820D01*
X353173333Y-57034072D01*
X353173333Y-57036088D01*
X353191682Y-57033180D01*
X353191683Y-57033180D01*
X353265391Y-57021498D01*
X353265392Y-57021498D01*
X353275182Y-57019946D01*
X353284014Y-57015445D01*
X353284016Y-57015444D01*
X353358223Y-56977623D01*
X353358226Y-56977621D01*
X353367057Y-56973120D01*
X353439966Y-56900195D01*
X353486770Y-56808309D01*
X353488322Y-56798507D01*
X353500057Y-56724348D01*
X353500057Y-56724347D01*
X353502888Y-56706456D01*
X353500933Y-56706456D01*
X353501735Y-56701386D01*
X353498830Y-56701386D01*
X353498830Y-43311531D01*
X353501628Y-43311531D01*
X353500893Y-43306547D01*
X353500931Y-43306456D01*
X353502898Y-43306456D01*
X358493853Y-43306456D01*
X358495809Y-43306456D01*
X358495816Y-43306474D01*
X358495015Y-43311531D01*
X358497910Y-43311531D01*
X358497910Y-56701386D01*
X358495143Y-56701386D01*
X358495869Y-56706312D01*
X358495809Y-56706456D01*
X358493883Y-56706456D01*
X358510001Y-56808295D01*
X358533401Y-56854231D01*
X358552292Y-56891313D01*
X358556802Y-56900167D01*
X358629706Y-56973078D01*
X358721574Y-57019889D01*
X358748467Y-57024148D01*
X358805504Y-57033181D01*
X358823411Y-57036017D01*
X358823411Y-57034061D01*
X358823419Y-57034058D01*
X358828483Y-57034860D01*
X358828483Y-57031960D01*
X372218338Y-57031960D01*
X372218338Y-57034802D01*
X372223399Y-57034056D01*
X372223411Y-57034061D01*
X372223411Y-57036068D01*
X372325259Y-57019932D01*
X372402777Y-56980429D01*
X372408299Y-56977615D01*
X372408300Y-56977614D01*
X372417135Y-56973112D01*
X372461721Y-56928518D01*
X372483034Y-56907202D01*
X372483038Y-56907197D01*
X372490044Y-56900190D01*
X372536849Y-56808307D01*
X372550065Y-56724798D01*
X372550136Y-56724352D01*
X372550136Y-56724350D01*
X372552968Y-56706456D01*
X372551012Y-56706456D01*
X372551814Y-56701386D01*
X372548910Y-56701386D01*
X372548910Y-50006460D01*
X376074011Y-50006460D01*
X376094607Y-50241868D01*
X376155767Y-50470123D01*
X376255635Y-50684289D01*
X376391175Y-50877861D01*
X376558269Y-51044955D01*
X376751841Y-51180495D01*
X376756819Y-51182816D01*
X376756822Y-51182818D01*
X376961025Y-51278040D01*
X376966007Y-51280363D01*
X376971315Y-51281785D01*
X376971317Y-51281786D01*
X377188947Y-51340099D01*
X377194262Y-51341523D01*
X377297352Y-51350542D01*
X377367980Y-51356722D01*
X377367987Y-51356722D01*
X377370704Y-51356960D01*
X377488636Y-51356960D01*
X377491353Y-51356722D01*
X377491360Y-51356722D01*
X377561988Y-51350542D01*
X377665078Y-51341523D01*
X377670393Y-51340099D01*
X377888023Y-51281786D01*
X377888025Y-51281785D01*
X377893333Y-51280363D01*
X377898315Y-51278040D01*
X378102518Y-51182818D01*
X378102521Y-51182816D01*
X378107499Y-51180495D01*
X378301071Y-51044955D01*
X378468165Y-50877861D01*
X378471325Y-50873349D01*
X378600548Y-50688799D01*
X378600551Y-50688794D01*
X378603705Y-50684290D01*
X378606028Y-50679308D01*
X378606031Y-50679303D01*
X378701250Y-50475105D01*
X378701251Y-50475104D01*
X378703573Y-50470123D01*
X378764733Y-50241868D01*
X378785329Y-50006460D01*
X378764733Y-49771052D01*
X378703573Y-49542797D01*
X378603705Y-49328631D01*
X378468165Y-49135059D01*
X378301071Y-48967965D01*
X378107499Y-48832425D01*
X378102521Y-48830104D01*
X378102518Y-48830102D01*
X377898315Y-48734880D01*
X377898313Y-48734879D01*
X377893333Y-48732557D01*
X377888025Y-48731135D01*
X377888023Y-48731134D01*
X377670393Y-48672821D01*
X377670392Y-48672821D01*
X377665078Y-48671397D01*
X377561988Y-48662378D01*
X377491360Y-48656198D01*
X377491353Y-48656198D01*
X377488636Y-48655960D01*
X377370704Y-48655960D01*
X377367987Y-48656198D01*
X377367980Y-48656198D01*
X377297352Y-48662378D01*
X377194262Y-48671397D01*
X377188948Y-48672821D01*
X377188947Y-48672821D01*
X376971317Y-48731134D01*
X376971315Y-48731135D01*
X376966007Y-48732557D01*
X376961027Y-48734879D01*
X376961025Y-48734880D01*
X376756822Y-48830102D01*
X376756819Y-48830104D01*
X376751841Y-48832425D01*
X376558269Y-48967965D01*
X376391175Y-49135059D01*
X376388018Y-49139567D01*
X376388016Y-49139570D01*
X376258792Y-49324121D01*
X376255635Y-49328630D01*
X376253312Y-49333612D01*
X376253309Y-49333617D01*
X376158090Y-49537815D01*
X376155767Y-49542797D01*
X376094607Y-49771052D01*
X376074011Y-50006460D01*
X372548910Y-50006460D01*
X372548910Y-43311531D01*
X372551728Y-43311531D01*
X372550988Y-43306512D01*
X372551011Y-43306456D01*
X372552998Y-43306456D01*
X372536856Y-43204617D01*
X372490037Y-43112749D01*
X372417124Y-43039843D01*
X372408272Y-43035333D01*
X372351601Y-43006459D01*
X382306593Y-43006459D01*
X382308409Y-43006459D01*
X382310373Y-43011202D01*
X382310510Y-43012577D01*
X382310510Y-43476390D01*
X382310458Y-43476390D01*
X382310473Y-43476480D01*
X382308410Y-43481460D01*
X382310510Y-43486530D01*
X382310510Y-43502921D01*
X382310461Y-43503829D01*
X382310510Y-43504167D01*
X382310510Y-56997651D01*
X382310107Y-57002359D01*
X382308409Y-57006459D01*
X382306623Y-57006459D01*
X382322255Y-57185215D01*
X382368692Y-57358540D01*
X382371015Y-57363521D01*
X382371016Y-57363525D01*
X382431718Y-57493710D01*
X382444521Y-57521168D01*
X382547440Y-57668157D01*
X382674320Y-57795040D01*
X382821306Y-57897963D01*
X382983931Y-57973798D01*
X383157255Y-58020239D01*
X383241662Y-58027623D01*
X383318323Y-58034330D01*
X383318325Y-58034330D01*
X383336010Y-58035877D01*
X383336010Y-58034061D01*
X383340749Y-58032098D01*
X383342134Y-58031960D01*
X395326746Y-58031960D01*
X395332028Y-58032412D01*
X395336010Y-58034061D01*
X395336010Y-58035927D01*
X395514772Y-58020285D01*
X395520086Y-58018861D01*
X395520092Y-58018860D01*
X395682787Y-57975263D01*
X395688101Y-57973839D01*
X395704476Y-57966203D01*
X395845748Y-57900324D01*
X395845751Y-57900323D01*
X395850731Y-57898000D01*
X395929603Y-57842770D01*
X395993212Y-57798229D01*
X395993216Y-57798225D01*
X395997721Y-57795071D01*
X396124604Y-57668182D01*
X396227525Y-57521187D01*
X396303357Y-57358553D01*
X396308393Y-57339758D01*
X396348370Y-57190536D01*
X396349794Y-57185221D01*
X396365427Y-57006459D01*
X396363611Y-57006459D01*
X396361648Y-57001721D01*
X396361510Y-57000332D01*
X396361510Y-43015605D01*
X396361949Y-43010473D01*
X396363611Y-43006459D01*
X396365457Y-43006459D01*
X396363909Y-42988767D01*
X396352876Y-42862716D01*
X396349811Y-42827702D01*
X396326587Y-42741040D01*
X396304788Y-42659693D01*
X396304786Y-42659689D01*
X396303363Y-42654377D01*
X396227524Y-42491751D01*
X396149317Y-42380064D01*
X396127754Y-42349271D01*
X396124598Y-42344764D01*
X395997713Y-42217882D01*
X395850723Y-42114961D01*
X395688094Y-42039126D01*
X395682786Y-42037704D01*
X395682784Y-42037703D01*
X395520076Y-41994106D01*
X395520073Y-41994106D01*
X395514768Y-41992684D01*
X395336010Y-41977043D01*
X395336010Y-41978859D01*
X395331269Y-41980823D01*
X395329890Y-41980960D01*
X383344699Y-41980960D01*
X383340141Y-41980570D01*
X383336010Y-41978859D01*
X383336010Y-41977093D01*
X383319742Y-41978516D01*
X383319741Y-41978516D01*
X383162742Y-41992250D01*
X383162738Y-41992251D01*
X383157259Y-41992730D01*
X383151943Y-41994154D01*
X383151939Y-41994155D01*
X383062378Y-42018151D01*
X382983938Y-42039168D01*
X382978957Y-42041490D01*
X382978953Y-42041492D01*
X382826299Y-42112672D01*
X382826294Y-42112675D01*
X382821314Y-42114997D01*
X382816807Y-42118153D01*
X382678832Y-42214759D01*
X382678829Y-42214761D01*
X382674328Y-42217913D01*
X382670441Y-42221800D01*
X382600555Y-42291683D01*
X382547446Y-42344789D01*
X382544292Y-42349294D01*
X382544288Y-42349298D01*
X382447678Y-42487264D01*
X382444523Y-42491770D01*
X382442199Y-42496753D01*
X382442198Y-42496755D01*
X382371020Y-42649385D01*
X382368686Y-42654390D01*
X382322239Y-42827708D01*
X382306593Y-43006459D01*
X372351601Y-43006459D01*
X372334084Y-42997534D01*
X372334082Y-42997533D01*
X372325251Y-42993034D01*
X372223411Y-42976902D01*
X372223411Y-42978859D01*
X372223403Y-42978862D01*
X372218338Y-42978060D01*
X372218338Y-42980960D01*
X358828483Y-42980960D01*
X358828483Y-42978215D01*
X358823596Y-42978936D01*
X358823411Y-42978859D01*
X358823411Y-42976953D01*
X358721581Y-42993077D01*
X358712746Y-42997578D01*
X358638553Y-43035375D01*
X358638551Y-43035377D01*
X358629717Y-43039877D01*
X358622707Y-43046886D01*
X358622704Y-43046888D01*
X358593260Y-43076328D01*
X358556809Y-43112772D01*
X358552306Y-43121608D01*
X358552305Y-43121609D01*
X358540311Y-43145144D01*
X358509994Y-43204629D01*
X358508441Y-43214424D01*
X358508441Y-43214425D01*
X358507296Y-43221648D01*
X358493853Y-43306456D01*
X353502898Y-43306456D01*
X353489457Y-43221653D01*
X353488310Y-43214417D01*
X353488309Y-43214415D01*
X353486757Y-43204621D01*
X353456451Y-43145149D01*
X353444444Y-43121588D01*
X353444442Y-43121585D01*
X353439943Y-43112756D01*
X353367035Y-43039851D01*
X353358203Y-43035351D01*
X353358201Y-43035349D01*
X353319453Y-43015605D01*
X353275168Y-42993039D01*
X353265376Y-42991487D01*
X353265375Y-42991487D01*
X353191225Y-42979737D01*
X353191224Y-42979737D01*
X353173333Y-42976902D01*
X353173333Y-42978859D01*
X353173321Y-42978864D01*
X353168259Y-42978062D01*
X353168259Y-42980960D01*
X339778404Y-42980960D01*
X339778404Y-42978233D01*
X339773549Y-42978949D01*
X339773333Y-42978859D01*
X339773333Y-42976973D01*
X339754990Y-42979876D01*
X339754989Y-42979876D01*
X339681296Y-42991540D01*
X339681295Y-42991540D01*
X339671504Y-42993090D01*
X339662670Y-42997590D01*
X339588556Y-43035343D01*
X339579639Y-43039885D01*
X339506730Y-43112777D01*
X339502227Y-43121613D01*
X339502225Y-43121615D01*
X339465269Y-43194125D01*
X339459914Y-43204631D01*
X339457216Y-43221651D01*
X339446609Y-43288562D01*
X339446609Y-43288564D01*
X339443773Y-43306456D01*
X334452798Y-43306456D01*
X334436659Y-43204626D01*
X334406338Y-43145124D01*
X334394349Y-43121596D01*
X334394348Y-43121594D01*
X334389848Y-43112764D01*
X334316945Y-43039859D01*
X334251406Y-43006459D01*
X334233921Y-42997548D01*
X334225085Y-42993045D01*
X334215291Y-42991492D01*
X334215290Y-42991492D01*
X334191471Y-42987716D01*
X334123255Y-42976902D01*
X334123255Y-42978859D01*
X334123239Y-42978866D01*
X334118180Y-42978064D01*
X334118180Y-42980960D01*
X320728320Y-42980960D01*
X320728320Y-42978162D01*
X320723336Y-42978897D01*
X320723245Y-42978859D01*
X320723245Y-42976892D01*
X320687296Y-42982591D01*
X320631207Y-42991482D01*
X320631205Y-42991482D01*
X320621412Y-42993035D01*
X320612576Y-42997538D01*
X320603403Y-43002213D01*
X320529549Y-43039851D01*
X320456644Y-43112758D01*
X320409832Y-43204623D01*
X320393692Y-43306456D01*
X315402998Y-43306456D01*
X315389555Y-43221651D01*
X315388406Y-43214402D01*
X315388405Y-43214400D01*
X315386853Y-43204607D01*
X315340025Y-43112732D01*
X315267098Y-43039825D01*
X315184181Y-42997590D01*
X315184048Y-42997522D01*
X315184047Y-42997522D01*
X315175211Y-42993021D01*
X315119244Y-42984164D01*
X315091254Y-42979734D01*
X315091253Y-42979734D01*
X315073358Y-42976902D01*
X315073358Y-42978858D01*
X315068287Y-42978056D01*
X315068287Y-42980960D01*
X301683925Y-42980960D01*
X301676720Y-42980251D01*
X301673359Y-42978859D01*
X301673358Y-42978859D01*
X301673358Y-42976904D01*
X301627545Y-42984165D01*
X301581316Y-42991491D01*
X301581313Y-42991492D01*
X301571526Y-42993043D01*
X301562696Y-42997543D01*
X301562695Y-42997543D01*
X301553531Y-43002213D01*
X301479662Y-43039856D01*
X301406757Y-43112761D01*
X301359944Y-43204624D01*
X301358393Y-43214411D01*
X301358392Y-43214415D01*
X301357245Y-43221651D01*
X301343804Y-43306456D01*
X296352898Y-43306456D01*
X296336759Y-43204625D01*
X296289947Y-43112762D01*
X296217043Y-43039857D01*
X296125181Y-42993043D01*
X296023351Y-42976902D01*
X296023351Y-42978859D01*
X296023350Y-42978859D01*
X296019989Y-42980250D01*
X296012782Y-42980960D01*
X282628421Y-42980960D01*
X282628421Y-42978247D01*
X282623592Y-42978959D01*
X282623351Y-42978859D01*
X282623351Y-42976989D01*
X282605010Y-42979891D01*
X282605009Y-42979891D01*
X282531317Y-42991551D01*
X282531316Y-42991551D01*
X282521522Y-42993101D01*
X282512685Y-42997602D01*
X282438491Y-43035392D01*
X282438489Y-43035393D01*
X282429657Y-43039892D01*
X282356747Y-43112781D01*
X282352247Y-43121610D01*
X282352245Y-43121613D01*
X282340254Y-43145138D01*
X282309930Y-43204632D01*
X282307232Y-43221651D01*
X282296625Y-43288562D01*
X282296625Y-43288564D01*
X282293789Y-43306456D01*
X282295745Y-43306456D01*
X282295752Y-43306474D01*
X282294951Y-43311531D01*
X282297846Y-43311531D01*
X282297846Y-56701386D01*
X282295043Y-56701386D01*
X282295778Y-56706375D01*
X282295745Y-56706456D01*
X282293783Y-56706456D01*
X277302888Y-56706456D01*
X277300933Y-56706456D01*
X277301735Y-56701386D01*
X277298830Y-56701386D01*
X277298830Y-43311531D01*
X277301628Y-43311531D01*
X277300893Y-43306547D01*
X277300931Y-43306456D01*
X277302898Y-43306456D01*
X277289457Y-43221653D01*
X277288310Y-43214417D01*
X277288309Y-43214415D01*
X277286757Y-43204621D01*
X277256451Y-43145149D01*
X277244444Y-43121588D01*
X277244442Y-43121585D01*
X277239943Y-43112756D01*
X277167035Y-43039851D01*
X277158203Y-43035351D01*
X277158201Y-43035349D01*
X277119453Y-43015605D01*
X277075168Y-42993039D01*
X277065376Y-42991487D01*
X277065375Y-42991487D01*
X276991225Y-42979737D01*
X276991224Y-42979737D01*
X276973333Y-42976902D01*
X276973333Y-42978859D01*
X276973321Y-42978864D01*
X276968259Y-42978062D01*
X276968259Y-42980960D01*
X263578404Y-42980960D01*
X263578404Y-42978233D01*
X263573549Y-42978949D01*
X263573333Y-42978859D01*
X263573333Y-42976973D01*
X263554990Y-42979876D01*
X263554989Y-42979876D01*
X263481296Y-42991540D01*
X263481295Y-42991540D01*
X263471504Y-42993090D01*
X263462670Y-42997590D01*
X263388556Y-43035343D01*
X263379639Y-43039885D01*
X263306730Y-43112777D01*
X263302227Y-43121613D01*
X263302225Y-43121615D01*
X263265269Y-43194125D01*
X263259914Y-43204631D01*
X263257216Y-43221651D01*
X263246609Y-43288562D01*
X263246609Y-43288564D01*
X263243773Y-43306456D01*
X258252898Y-43306456D01*
X258236756Y-43204618D01*
X258206447Y-43145144D01*
X258194441Y-43121584D01*
X258194439Y-43121581D01*
X258189939Y-43112751D01*
X258182928Y-43105740D01*
X258153482Y-43076298D01*
X258117026Y-43039845D01*
X258108193Y-43035344D01*
X258108191Y-43035343D01*
X258033992Y-42997537D01*
X258033989Y-42997536D01*
X258025155Y-42993035D01*
X258015360Y-42991483D01*
X258015359Y-42991483D01*
X257996310Y-42988466D01*
X257923315Y-42976902D01*
X257923315Y-42978859D01*
X257923307Y-42978863D01*
X257918242Y-42978060D01*
X257918242Y-42980960D01*
X244528387Y-42980960D01*
X244528387Y-42978219D01*
X244523507Y-42978938D01*
X244523315Y-42978859D01*
X244523315Y-42976957D01*
X244504972Y-42979861D01*
X244431281Y-42991528D01*
X244431280Y-42991528D01*
X244421486Y-42993079D01*
X244353400Y-43027764D01*
X244338496Y-43035357D01*
X244329621Y-43039878D01*
X244256713Y-43112773D01*
X244252210Y-43121609D01*
X244252209Y-43121610D01*
X244240237Y-43145100D01*
X244209898Y-43204629D01*
X244208345Y-43214424D01*
X244208345Y-43214425D01*
X244207200Y-43221648D01*
X244193757Y-43306456D01*
X239202398Y-43306456D01*
X239186259Y-43204626D01*
X239155938Y-43145124D01*
X239143949Y-43121596D01*
X239143948Y-43121594D01*
X239139448Y-43112764D01*
X239066545Y-43039859D01*
X239001006Y-43006459D01*
X238983521Y-42997548D01*
X238974685Y-42993045D01*
X238964891Y-42991492D01*
X238964890Y-42991492D01*
X238941071Y-42987716D01*
X238872855Y-42976902D01*
X238872855Y-42978859D01*
X238872839Y-42978866D01*
X238867780Y-42978064D01*
X238867780Y-42980960D01*
X225477920Y-42980960D01*
X225477920Y-42978162D01*
X225472936Y-42978897D01*
X225472845Y-42978859D01*
X225472845Y-42976892D01*
X225436896Y-42982591D01*
X225380807Y-42991482D01*
X225380805Y-42991482D01*
X225371012Y-42993035D01*
X225362176Y-42997538D01*
X225353003Y-43002213D01*
X225279149Y-43039851D01*
X225206244Y-43112758D01*
X225159432Y-43204623D01*
X225143292Y-43306456D01*
X220152398Y-43306456D01*
X220136253Y-43204609D01*
X220131751Y-43195775D01*
X220093932Y-43121573D01*
X220093928Y-43121567D01*
X220089427Y-43112735D01*
X220016503Y-43039828D01*
X219924618Y-42993023D01*
X219872467Y-42984769D01*
X219840661Y-42979734D01*
X219840660Y-42979734D01*
X219822767Y-42976902D01*
X219822767Y-42978859D01*
X219817696Y-42978056D01*
X219817696Y-42980960D01*
X206427841Y-42980960D01*
X206427841Y-42978180D01*
X206422890Y-42978910D01*
X206422767Y-42978859D01*
X206422767Y-42976912D01*
X206404421Y-42979819D01*
X206404420Y-42979819D01*
X206335095Y-42990805D01*
X206320935Y-42993049D01*
X206312101Y-42997550D01*
X206312099Y-42997551D01*
X206237905Y-43035357D01*
X206237902Y-43035359D01*
X206229071Y-43039859D01*
X206156165Y-43112762D01*
X206151665Y-43121592D01*
X206151664Y-43121594D01*
X206139675Y-43145121D01*
X206109352Y-43204625D01*
X206093212Y-43306456D01*
X201102298Y-43306456D01*
X201086155Y-43204613D01*
X201039332Y-43112742D01*
X200966413Y-43039835D01*
X200957579Y-43035335D01*
X200957577Y-43035333D01*
X200883374Y-42997531D01*
X200874535Y-42993028D01*
X200772689Y-42976902D01*
X200772689Y-42978859D01*
X200772687Y-42978860D01*
X200767617Y-42978057D01*
X200767617Y-42980960D01*
X187377762Y-42980960D01*
X187377762Y-42978198D01*
X187372844Y-42978923D01*
X187372689Y-42978859D01*
X187372689Y-42976932D01*
X187331965Y-42983383D01*
X187280653Y-42991510D01*
X187280650Y-42991511D01*
X187270858Y-42993062D01*
X187226613Y-43015605D01*
X187187911Y-43035324D01*
X187178994Y-43039867D01*
X187106087Y-43112767D01*
X187059272Y-43204627D01*
X187057719Y-43214424D01*
X187057719Y-43214425D01*
X187046041Y-43288105D01*
X187043132Y-43306456D01*
X182052198Y-43306456D01*
X182036056Y-43204617D01*
X181989237Y-43112749D01*
X181916324Y-43039843D01*
X181907472Y-43035333D01*
X181833284Y-42997534D01*
X181833282Y-42997533D01*
X181824451Y-42993034D01*
X181722611Y-42976902D01*
X181722611Y-42978859D01*
X181722603Y-42978862D01*
X181717538Y-42978060D01*
X181717538Y-42980960D01*
X168327683Y-42980960D01*
X168327683Y-42978215D01*
X168322796Y-42978936D01*
X168322611Y-42978859D01*
X168322611Y-42976953D01*
X168220781Y-42993077D01*
X168211946Y-42997578D01*
X168137753Y-43035375D01*
X168137751Y-43035377D01*
X168128917Y-43039877D01*
X168121907Y-43046886D01*
X168121904Y-43046888D01*
X168092460Y-43076328D01*
X168056009Y-43112772D01*
X168051506Y-43121608D01*
X168051505Y-43121609D01*
X168039511Y-43145144D01*
X168009194Y-43204629D01*
X168007641Y-43214424D01*
X168007641Y-43214425D01*
X168006496Y-43221648D01*
X167993053Y-43306456D01*
X163002098Y-43306456D01*
X162988657Y-43221653D01*
X162987510Y-43214417D01*
X162987509Y-43214415D01*
X162985957Y-43204621D01*
X162955651Y-43145149D01*
X162943644Y-43121588D01*
X162943642Y-43121585D01*
X162939143Y-43112756D01*
X162866235Y-43039851D01*
X162857403Y-43035351D01*
X162857401Y-43035349D01*
X162818653Y-43015605D01*
X162774368Y-42993039D01*
X162764576Y-42991487D01*
X162764575Y-42991487D01*
X162690425Y-42979737D01*
X162690424Y-42979737D01*
X162672533Y-42976902D01*
X162672533Y-42978859D01*
X162672521Y-42978864D01*
X162667459Y-42978062D01*
X162667459Y-42980960D01*
X149277604Y-42980960D01*
X149277604Y-42978233D01*
X149272749Y-42978949D01*
X149272533Y-42978859D01*
X149272533Y-42976973D01*
X149254190Y-42979876D01*
X149254189Y-42979876D01*
X149180496Y-42991540D01*
X149180495Y-42991540D01*
X149170704Y-42993090D01*
X149161870Y-42997590D01*
X149087756Y-43035343D01*
X149078839Y-43039885D01*
X149005930Y-43112777D01*
X149001427Y-43121613D01*
X149001425Y-43121615D01*
X148964469Y-43194125D01*
X148959114Y-43204631D01*
X148956416Y-43221651D01*
X148945809Y-43288562D01*
X148945809Y-43288564D01*
X148942973Y-43306456D01*
X146474082Y-43306456D01*
X146474082Y-42867800D01*
X146474138Y-42867800D01*
X146474122Y-42867703D01*
X146476183Y-42862728D01*
X146474350Y-42858302D01*
X146490795Y-42586379D01*
X146492629Y-42571274D01*
X146541157Y-42306456D01*
X146544798Y-42291683D01*
X146621100Y-42046812D01*
X146624893Y-42034640D01*
X146630284Y-42020423D01*
X146740788Y-41774890D01*
X146747857Y-41761423D01*
X146887139Y-41531023D01*
X146895782Y-41518501D01*
X147061827Y-41306561D01*
X147071917Y-41295173D01*
X147262282Y-41104808D01*
X147273671Y-41094717D01*
X147485613Y-40928674D01*
X147498135Y-40920031D01*
X147728539Y-40780749D01*
X147742012Y-40773678D01*
X147987528Y-40663183D01*
X148001755Y-40657788D01*
X148258795Y-40577694D01*
X148273569Y-40574053D01*
X148538388Y-40525527D01*
X148553493Y-40523693D01*
X148825445Y-40507248D01*
X148825595Y-40509735D01*
X148829589Y-40508964D01*
X148829842Y-40509069D01*
X148830537Y-40508781D01*
X148834916Y-40507936D01*
X148834916Y-40506968D01*
X148851308Y-40506968D01*
X148852216Y-40507017D01*
X148852554Y-40506968D01*
X150616995Y-40506952D01*
X150629080Y-40506952D01*
X188110746Y-40507120D01*
X188114589Y-40507416D01*
X188118947Y-40509221D01*
X188118947Y-40511666D01*
X188136233Y-40509566D01*
X188136234Y-40509566D01*
X188261037Y-40494403D01*
X188261039Y-40494403D01*
X188268599Y-40493484D01*
X188332731Y-40469158D01*
X188402429Y-40442721D01*
X188402433Y-40442719D01*
X188409551Y-40440019D01*
X188533613Y-40354376D01*
X188570452Y-40312791D01*
X188628522Y-40247238D01*
X188633576Y-40241533D01*
X188637115Y-40234791D01*
X188637117Y-40234787D01*
X188700090Y-40114795D01*
X188703631Y-40108048D01*
X188705522Y-40100378D01*
X188737884Y-39969072D01*
X188739707Y-39961676D01*
X188739707Y-39810924D01*
X188708408Y-39683934D01*
X188705455Y-39671951D01*
X188705454Y-39671948D01*
X188703631Y-39664552D01*
X188674437Y-39608925D01*
X188637117Y-39537813D01*
X188637115Y-39537809D01*
X188633576Y-39531067D01*
X188594703Y-39487185D01*
X188538668Y-39423930D01*
X188538667Y-39423929D01*
X188533613Y-39418224D01*
X188409551Y-39332581D01*
X188402433Y-39329881D01*
X188402429Y-39329879D01*
X188320351Y-39298746D01*
X188268599Y-39279116D01*
X188261039Y-39278197D01*
X188261037Y-39278197D01*
X188136932Y-39263119D01*
X188118947Y-39260934D01*
X188118947Y-39263393D01*
X188114280Y-39265326D01*
X188112241Y-39265494D01*
X170171673Y-39265227D01*
X165502513Y-39265157D01*
X165502038Y-39265136D01*
X165497015Y-39263056D01*
X165492951Y-39264740D01*
X165491537Y-39264678D01*
X165436216Y-39259839D01*
X165305666Y-39248418D01*
X165284038Y-39244604D01*
X165196599Y-39221177D01*
X165109158Y-39197749D01*
X165088525Y-39190240D01*
X164924431Y-39113725D01*
X164924427Y-39113723D01*
X164905407Y-39102742D01*
X164905350Y-39102702D01*
X164757093Y-38998895D01*
X164740279Y-38984787D01*
X164612248Y-38856760D01*
X164598131Y-38839938D01*
X164494277Y-38691625D01*
X164483297Y-38672608D01*
X164406779Y-38508523D01*
X164399267Y-38487885D01*
X164352402Y-38313000D01*
X164348588Y-38291370D01*
X164332361Y-38105942D01*
X164333133Y-38102099D01*
X164333990Y-38100030D01*
X164333693Y-38099314D01*
X164334488Y-38095359D01*
X164334430Y-38094958D01*
X164331889Y-38094958D01*
X164331889Y-38078523D01*
X164331936Y-38077638D01*
X164331889Y-38077315D01*
X164331889Y-35724274D01*
X164331910Y-35723803D01*
X164333990Y-35718781D01*
X164332307Y-35714718D01*
X164332369Y-35713290D01*
X164348632Y-35527445D01*
X164352446Y-35505816D01*
X164396391Y-35341820D01*
X164399309Y-35330933D01*
X164406818Y-35310303D01*
X164406824Y-35310290D01*
X164483337Y-35146214D01*
X164494317Y-35127198D01*
X164494322Y-35127192D01*
X164598162Y-34978897D01*
X164612278Y-34962074D01*
X164612299Y-34962053D01*
X164740303Y-34834054D01*
X164757123Y-34819941D01*
X164905433Y-34716096D01*
X164924449Y-34705117D01*
X165088540Y-34628603D01*
X165109163Y-34621097D01*
X165232574Y-34588031D01*
X165284044Y-34574241D01*
X165305673Y-34570427D01*
X165491923Y-34554134D01*
X165492988Y-34554088D01*
X165497015Y-34555756D01*
X165501991Y-34553695D01*
X165502903Y-34553655D01*
X165518436Y-34553655D01*
X165519370Y-34553705D01*
X165519719Y-34553655D01*
X223832186Y-34553655D01*
X223832665Y-34553676D01*
X223837687Y-34555756D01*
X223841751Y-34554072D01*
X223843167Y-34554134D01*
X224029033Y-34570394D01*
X224050661Y-34574208D01*
X224225540Y-34621064D01*
X224246179Y-34628575D01*
X224410271Y-34705089D01*
X224429286Y-34716067D01*
X224577602Y-34819916D01*
X224594422Y-34834030D01*
X224722449Y-34962053D01*
X224736566Y-34978876D01*
X224752609Y-35001788D01*
X224840414Y-35127183D01*
X224851396Y-35146204D01*
X224927913Y-35310290D01*
X224935425Y-35330928D01*
X224982288Y-35505811D01*
X224986102Y-35527440D01*
X225002333Y-35712929D01*
X225002410Y-35714683D01*
X225000712Y-35718781D01*
X225002810Y-35723846D01*
X225002813Y-35723913D01*
X225002813Y-35740218D01*
X225002763Y-35741144D01*
X225002813Y-35741489D01*
X225002813Y-38094524D01*
X225002792Y-38095009D01*
X225000712Y-38100030D01*
X225002395Y-38104094D01*
X225002333Y-38105509D01*
X224986068Y-38291365D01*
X224982254Y-38312994D01*
X224935392Y-38487869D01*
X224927880Y-38508507D01*
X224860110Y-38653834D01*
X224851365Y-38672586D01*
X224840385Y-38691603D01*
X224736536Y-38839909D01*
X224722418Y-38856733D01*
X224594398Y-38984748D01*
X224577573Y-38998865D01*
X224429273Y-39102702D01*
X224410252Y-39113684D01*
X224246165Y-39190196D01*
X224225526Y-39197707D01*
X224050654Y-39244561D01*
X224029025Y-39248375D01*
X223842656Y-39264678D01*
X223841704Y-39264720D01*
X223837687Y-39263056D01*
X223832726Y-39265111D01*
X223831676Y-39265157D01*
X223816220Y-39265157D01*
X223815312Y-39265108D01*
X223814974Y-39265157D01*
X204475483Y-39265164D01*
X201223914Y-39265165D01*
X201220270Y-39264884D01*
X201215877Y-39263064D01*
X201215877Y-39260649D01*
X201198598Y-39262745D01*
X201198597Y-39262745D01*
X201178649Y-39265165D01*
X201066207Y-39278805D01*
X201059075Y-39281509D01*
X200932417Y-39329531D01*
X200925232Y-39332255D01*
X200918960Y-39336583D01*
X200918959Y-39336584D01*
X200830620Y-39397550D01*
X200801146Y-39417891D01*
X200701163Y-39530736D01*
X200697619Y-39537488D01*
X200634638Y-39657478D01*
X200631093Y-39664231D01*
X200629270Y-39671626D01*
X200629269Y-39671629D01*
X200596833Y-39803216D01*
X200595009Y-39810616D01*
X200595009Y-39961384D01*
X200596833Y-39968783D01*
X200596833Y-39968784D01*
X200607675Y-40012766D01*
X200631093Y-40107769D01*
X200634633Y-40114513D01*
X200634634Y-40114516D01*
X200684595Y-40209700D01*
X200701163Y-40241264D01*
X200801146Y-40354109D01*
X200807416Y-40358436D01*
X200807417Y-40358437D01*
X200866706Y-40399354D01*
X200925232Y-40439745D01*
X200932360Y-40442448D01*
X200932361Y-40442448D01*
X200967593Y-40455806D01*
X201066207Y-40493195D01*
X201215877Y-40511351D01*
X201215877Y-40508892D01*
X201220536Y-40506962D01*
X201222599Y-40506791D01*
X228001035Y-40506952D01*
X317308129Y-40506952D01*
X344082428Y-40506806D01*
X344086530Y-40507122D01*
X344090838Y-40508907D01*
X344090838Y-40511380D01*
X344108115Y-40509284D01*
X344108117Y-40509284D01*
X344168410Y-40501968D01*
X344240512Y-40493220D01*
X344381491Y-40439766D01*
X344483438Y-40369407D01*
X344499311Y-40358452D01*
X344499312Y-40358452D01*
X344505579Y-40354126D01*
X344605564Y-40241276D01*
X344675635Y-40107776D01*
X344677461Y-40100371D01*
X344709896Y-39968786D01*
X344709896Y-39968784D01*
X344711720Y-39961386D01*
X344711720Y-39810614D01*
X344699042Y-39759181D01*
X344677459Y-39671622D01*
X344677458Y-39671619D01*
X344675635Y-39664224D01*
X344605564Y-39530724D01*
X344505579Y-39417874D01*
X344381491Y-39332234D01*
X344240512Y-39278780D01*
X344090838Y-39260620D01*
X344090838Y-39263079D01*
X344086178Y-39265010D01*
X344084118Y-39265180D01*
X326133593Y-39265162D01*
X321474521Y-39265157D01*
X321474043Y-39265136D01*
X321469021Y-39263056D01*
X321464957Y-39264740D01*
X321463541Y-39264678D01*
X321277672Y-39248419D01*
X321256044Y-39244605D01*
X321081166Y-39197751D01*
X321060528Y-39190241D01*
X320896428Y-39113724D01*
X320877410Y-39102743D01*
X320729101Y-38998900D01*
X320712276Y-38984783D01*
X320584248Y-38856760D01*
X320570131Y-38839937D01*
X320554120Y-38817072D01*
X320466277Y-38691626D01*
X320455299Y-38672612D01*
X320378780Y-38508527D01*
X320371267Y-38487888D01*
X320324402Y-38313002D01*
X320320588Y-38291372D01*
X320304361Y-38105942D01*
X320305127Y-38102128D01*
X320305996Y-38100030D01*
X320305695Y-38099303D01*
X320306491Y-38095342D01*
X320306436Y-38094958D01*
X320303895Y-38094958D01*
X320303895Y-38078523D01*
X320303942Y-38077638D01*
X320303895Y-38077315D01*
X320303895Y-35724298D01*
X320303917Y-35723802D01*
X320305996Y-35718783D01*
X320304313Y-35714719D01*
X320304375Y-35713305D01*
X320320653Y-35527446D01*
X320324469Y-35505819D01*
X320371337Y-35330955D01*
X320378849Y-35310319D01*
X320378857Y-35310303D01*
X320432324Y-35195656D01*
X320455370Y-35146242D01*
X320466351Y-35127224D01*
X320554206Y-35001763D01*
X320570200Y-34978924D01*
X320584315Y-34962103D01*
X320712334Y-34834089D01*
X320729157Y-34819973D01*
X320877457Y-34716132D01*
X320896473Y-34705152D01*
X321060563Y-34628631D01*
X321081184Y-34621125D01*
X321256067Y-34574259D01*
X321277687Y-34570446D01*
X321436738Y-34556521D01*
X321464003Y-34554134D01*
X321465005Y-34554090D01*
X321469023Y-34555755D01*
X321473989Y-34553698D01*
X321474992Y-34553654D01*
X321490459Y-34553654D01*
X321491385Y-34553704D01*
X321491730Y-34553654D01*
X378387827Y-34553653D01*
X379804180Y-34553653D01*
X379804671Y-34553674D01*
G37*
G04 #@! TD.AperFunction*
M02*
