G04 #@! TF.GenerationSoftware,KiCad,Pcbnew,(6.0.5-0)*
G04 #@! TF.CreationDate,2022-06-20T08:48:48-05:00*
G04 #@! TF.ProjectId,plate,706c6174-652e-46b6-9963-61645f706362,rev?*
G04 #@! TF.SameCoordinates,Original*
G04 #@! TF.FileFunction,Soldermask,Bot*
G04 #@! TF.FilePolarity,Negative*
%FSLAX46Y46*%
G04 Gerber Fmt 4.6, Leading zero omitted, Abs format (unit mm)*
G04 Created by KiCad (PCBNEW (6.0.5-0)) date 2022-06-20 08:48:48*
%MOMM*%
%LPD*%
G01*
G04 APERTURE LIST*
G04 Aperture macros list*
%AMRoundRect*
0 Rectangle with rounded corners*
0 $1 Rounding radius*
0 $2 $3 $4 $5 $6 $7 $8 $9 X,Y pos of 4 corners*
0 Add a 4 corners polygon primitive as box body*
4,1,4,$2,$3,$4,$5,$6,$7,$8,$9,$2,$3,0*
0 Add four circle primitives for the rounded corners*
1,1,$1+$1,$2,$3*
1,1,$1+$1,$4,$5*
1,1,$1+$1,$6,$7*
1,1,$1+$1,$8,$9*
0 Add four rect primitives between the rounded corners*
20,1,$1+$1,$2,$3,$4,$5,0*
20,1,$1+$1,$4,$5,$6,$7,0*
20,1,$1+$1,$6,$7,$8,$9,0*
20,1,$1+$1,$8,$9,$2,$3,0*%
G04 Aperture macros list end*
%ADD10C,0.200000*%
%ADD11C,2.200000*%
%ADD12C,3.800000*%
%ADD13RoundRect,0.237500X-0.287500X-0.237500X0.287500X-0.237500X0.287500X0.237500X-0.287500X0.237500X0*%
G04 APERTURE END LIST*
D10*
X359776261Y-37474882D02*
X359895309Y-37415358D01*
X359954833Y-37296310D01*
X359954833Y-36224882D01*
X358764357Y-36641548D02*
X358764357Y-37474882D01*
X359300071Y-36641548D02*
X359300071Y-37296310D01*
X359240547Y-37415358D01*
X359121499Y-37474882D01*
X358942928Y-37474882D01*
X358823880Y-37415358D01*
X358764357Y-37355834D01*
X357633404Y-37415358D02*
X357752452Y-37474882D01*
X357990547Y-37474882D01*
X358109595Y-37415358D01*
X358169118Y-37355834D01*
X358228642Y-37236786D01*
X358228642Y-36879644D01*
X358169118Y-36760596D01*
X358109595Y-36701072D01*
X357990547Y-36641548D01*
X357752452Y-36641548D01*
X357633404Y-36701072D01*
X357216737Y-36641548D02*
X356919118Y-37474882D01*
X356621499Y-36641548D02*
X356919118Y-37474882D01*
X357038166Y-37772501D01*
X357097690Y-37832025D01*
X357216737Y-37891548D01*
X355192928Y-36641548D02*
X355192928Y-37891548D01*
X355192928Y-36701072D02*
X355073880Y-36641548D01*
X354835785Y-36641548D01*
X354716737Y-36701072D01*
X354657214Y-36760596D01*
X354597690Y-36879644D01*
X354597690Y-37236786D01*
X354657214Y-37355834D01*
X354716737Y-37415358D01*
X354835785Y-37474882D01*
X355073880Y-37474882D01*
X355192928Y-37415358D01*
X353883404Y-37474882D02*
X354002452Y-37415358D01*
X354061976Y-37296310D01*
X354061976Y-36224882D01*
X352871499Y-37474882D02*
X352871499Y-36820120D01*
X352931023Y-36701072D01*
X353050071Y-36641548D01*
X353288166Y-36641548D01*
X353407214Y-36701072D01*
X352871499Y-37415358D02*
X352990547Y-37474882D01*
X353288166Y-37474882D01*
X353407214Y-37415358D01*
X353466737Y-37296310D01*
X353466737Y-37177263D01*
X353407214Y-37058215D01*
X353288166Y-36998691D01*
X352990547Y-36998691D01*
X352871499Y-36939167D01*
X352454833Y-36641548D02*
X351978642Y-36641548D01*
X352276261Y-36224882D02*
X352276261Y-37296310D01*
X352216737Y-37415358D01*
X352097690Y-37474882D01*
X351978642Y-37474882D01*
X351085785Y-37415358D02*
X351204833Y-37474882D01*
X351442928Y-37474882D01*
X351561976Y-37415358D01*
X351621499Y-37296310D01*
X351621499Y-36820120D01*
X351561976Y-36701072D01*
X351442928Y-36641548D01*
X351204833Y-36641548D01*
X351085785Y-36701072D01*
X351026261Y-36820120D01*
X351026261Y-36939167D01*
X351621499Y-37058215D01*
X349002452Y-37474882D02*
X349002452Y-36820120D01*
X349061976Y-36701072D01*
X349181023Y-36641548D01*
X349419118Y-36641548D01*
X349538166Y-36701072D01*
X349002452Y-37415358D02*
X349121499Y-37474882D01*
X349419118Y-37474882D01*
X349538166Y-37415358D01*
X349597690Y-37296310D01*
X349597690Y-37177263D01*
X349538166Y-37058215D01*
X349419118Y-36998691D01*
X349121499Y-36998691D01*
X349002452Y-36939167D01*
X347454833Y-37474882D02*
X347454833Y-36641548D01*
X347454833Y-36879644D02*
X347395309Y-36760596D01*
X347335785Y-36701072D01*
X347216737Y-36641548D01*
X347097690Y-36641548D01*
X346204833Y-37415358D02*
X346323880Y-37474882D01*
X346561976Y-37474882D01*
X346681023Y-37415358D01*
X346740547Y-37296310D01*
X346740547Y-36820120D01*
X346681023Y-36701072D01*
X346561976Y-36641548D01*
X346323880Y-36641548D01*
X346204833Y-36701072D01*
X346145309Y-36820120D01*
X346145309Y-36939167D01*
X346740547Y-37058215D01*
X345728642Y-36641548D02*
X345431023Y-37474882D01*
X345133404Y-36641548D01*
X343050071Y-37474882D02*
X343764357Y-37474882D01*
X343407214Y-37474882D02*
X343407214Y-36224882D01*
X343526261Y-36403453D01*
X343645309Y-36522501D01*
X343764357Y-36582025D01*
X342514357Y-37355834D02*
X342454833Y-37415358D01*
X342514357Y-37474882D01*
X342573880Y-37415358D01*
X342514357Y-37355834D01*
X342514357Y-37474882D01*
X341681023Y-36224882D02*
X341561976Y-36224882D01*
X341442928Y-36284406D01*
X341383404Y-36343929D01*
X341323880Y-36462977D01*
X341264357Y-36701072D01*
X341264357Y-36998691D01*
X341323880Y-37236786D01*
X341383404Y-37355834D01*
X341442928Y-37415358D01*
X341561976Y-37474882D01*
X341681023Y-37474882D01*
X341800071Y-37415358D01*
X341859595Y-37355834D01*
X341919118Y-37236786D01*
X341978642Y-36998691D01*
X341978642Y-36701072D01*
X341919118Y-36462977D01*
X341859595Y-36343929D01*
X341800071Y-36284406D01*
X341681023Y-36224882D01*
D11*
X377429670Y-50006460D03*
X355997174Y-97631332D03*
D12*
X233362696Y-37504719D03*
X233362696Y-119657913D03*
X155972006Y-37504719D03*
X389334702Y-37504719D03*
D11*
X165497014Y-97631332D03*
X355997174Y-59531300D03*
X171450144Y-59531300D03*
D12*
X155972006Y-119657913D03*
X311944012Y-119657913D03*
X311944012Y-37504719D03*
X389334702Y-119657913D03*
D13*
X389056243Y-60126781D03*
X390806243Y-60126781D03*
M02*
