G04 #@! TF.GenerationSoftware,KiCad,Pcbnew,(6.0.5-0)*
G04 #@! TF.CreationDate,2022-06-20T08:48:48-05:00*
G04 #@! TF.ProjectId,plate,706c6174-652e-46b6-9963-61645f706362,rev?*
G04 #@! TF.SameCoordinates,Original*
G04 #@! TF.FileFunction,Soldermask,Top*
G04 #@! TF.FilePolarity,Negative*
%FSLAX46Y46*%
G04 Gerber Fmt 4.6, Leading zero omitted, Abs format (unit mm)*
G04 Created by KiCad (PCBNEW (6.0.5-0)) date 2022-06-20 08:48:48*
%MOMM*%
%LPD*%
G01*
G04 APERTURE LIST*
%ADD10C,0.300000*%
%ADD11C,2.200000*%
%ADD12C,3.800000*%
G04 APERTURE END LIST*
D10*
X192381636Y-37814167D02*
X192191160Y-37718929D01*
X192095922Y-37528453D01*
X192095922Y-35814167D01*
X194000684Y-36480834D02*
X194000684Y-37814167D01*
X193143541Y-36480834D02*
X193143541Y-37528453D01*
X193238779Y-37718929D01*
X193429255Y-37814167D01*
X193714970Y-37814167D01*
X193905446Y-37718929D01*
X194000684Y-37623691D01*
X195810208Y-37718929D02*
X195619731Y-37814167D01*
X195238779Y-37814167D01*
X195048303Y-37718929D01*
X194953065Y-37623691D01*
X194857827Y-37433215D01*
X194857827Y-36861786D01*
X194953065Y-36671310D01*
X195048303Y-36576072D01*
X195238779Y-36480834D01*
X195619731Y-36480834D01*
X195810208Y-36576072D01*
X196476874Y-36480834D02*
X196953065Y-37814167D01*
X197429255Y-36480834D02*
X196953065Y-37814167D01*
X196762589Y-38290358D01*
X196667351Y-38385596D01*
X196476874Y-38480834D01*
D11*
X377429670Y-50006460D03*
X355997174Y-97631332D03*
D12*
X233362696Y-37504719D03*
X233362696Y-119657913D03*
X155972006Y-37504719D03*
X389334702Y-37504719D03*
D11*
X165497014Y-97631332D03*
X355997174Y-59531300D03*
X171450144Y-59531300D03*
D12*
X155972006Y-119657913D03*
X311944012Y-119657913D03*
X311944012Y-37504719D03*
X389334702Y-119657913D03*
M02*
