G04 #@! TF.GenerationSoftware,KiCad,Pcbnew,(6.0.5-0)*
G04 #@! TF.CreationDate,2022-08-31T07:14:56-05:00*
G04 #@! TF.ProjectId,plate,706c6174-652e-46b6-9963-61645f706362,rev?*
G04 #@! TF.SameCoordinates,Original*
G04 #@! TF.FileFunction,Legend,Bot*
G04 #@! TF.FilePolarity,Positive*
%FSLAX46Y46*%
G04 Gerber Fmt 4.6, Leading zero omitted, Abs format (unit mm)*
G04 Created by KiCad (PCBNEW (6.0.5-0)) date 2022-08-31 07:14:56*
%MOMM*%
%LPD*%
G01*
G04 APERTURE LIST*
%ADD10C,0.150000*%
G04 APERTURE END LIST*
D10*
X356996499Y-37587977D02*
X357139357Y-37516548D01*
X357210785Y-37373691D01*
X357210785Y-36087977D01*
X355782214Y-36587977D02*
X355782214Y-37587977D01*
X356425071Y-36587977D02*
X356425071Y-37373691D01*
X356353642Y-37516548D01*
X356210785Y-37587977D01*
X355996499Y-37587977D01*
X355853642Y-37516548D01*
X355782214Y-37445120D01*
X354425071Y-37516548D02*
X354567928Y-37587977D01*
X354853642Y-37587977D01*
X354996499Y-37516548D01*
X355067928Y-37445120D01*
X355139357Y-37302263D01*
X355139357Y-36873691D01*
X355067928Y-36730834D01*
X354996499Y-36659406D01*
X354853642Y-36587977D01*
X354567928Y-36587977D01*
X354425071Y-36659406D01*
X353925071Y-36587977D02*
X353567928Y-37587977D01*
X353210785Y-36587977D02*
X353567928Y-37587977D01*
X353710785Y-37945120D01*
X353782214Y-38016548D01*
X353925071Y-38087977D01*
X351496499Y-36587977D02*
X351496499Y-38087977D01*
X351496499Y-36659406D02*
X351353642Y-36587977D01*
X351067928Y-36587977D01*
X350925071Y-36659406D01*
X350853642Y-36730834D01*
X350782214Y-36873691D01*
X350782214Y-37302263D01*
X350853642Y-37445120D01*
X350925071Y-37516548D01*
X351067928Y-37587977D01*
X351353642Y-37587977D01*
X351496499Y-37516548D01*
X349925071Y-37587977D02*
X350067928Y-37516548D01*
X350139357Y-37373691D01*
X350139357Y-36087977D01*
X348710785Y-37587977D02*
X348710785Y-36802263D01*
X348782214Y-36659406D01*
X348925071Y-36587977D01*
X349210785Y-36587977D01*
X349353642Y-36659406D01*
X348710785Y-37516548D02*
X348853642Y-37587977D01*
X349210785Y-37587977D01*
X349353642Y-37516548D01*
X349425071Y-37373691D01*
X349425071Y-37230834D01*
X349353642Y-37087977D01*
X349210785Y-37016548D01*
X348853642Y-37016548D01*
X348710785Y-36945120D01*
X348210785Y-36587977D02*
X347639357Y-36587977D01*
X347996499Y-36087977D02*
X347996499Y-37373691D01*
X347925071Y-37516548D01*
X347782214Y-37587977D01*
X347639357Y-37587977D01*
X346567928Y-37516548D02*
X346710785Y-37587977D01*
X346996499Y-37587977D01*
X347139357Y-37516548D01*
X347210785Y-37373691D01*
X347210785Y-36802263D01*
X347139357Y-36659406D01*
X346996499Y-36587977D01*
X346710785Y-36587977D01*
X346567928Y-36659406D01*
X346496499Y-36802263D01*
X346496499Y-36945120D01*
X347210785Y-37087977D01*
X344067928Y-37587977D02*
X344067928Y-36802263D01*
X344139357Y-36659406D01*
X344282214Y-36587977D01*
X344567928Y-36587977D01*
X344710785Y-36659406D01*
X344067928Y-37516548D02*
X344210785Y-37587977D01*
X344567928Y-37587977D01*
X344710785Y-37516548D01*
X344782214Y-37373691D01*
X344782214Y-37230834D01*
X344710785Y-37087977D01*
X344567928Y-37016548D01*
X344210785Y-37016548D01*
X344067928Y-36945120D01*
X393953749Y-97083712D02*
X393953749Y-97797998D01*
X394001368Y-97940855D01*
X394096606Y-98036093D01*
X394239463Y-98083712D01*
X394334702Y-98083712D01*
X393001368Y-98083712D02*
X393477559Y-98083712D01*
X393477559Y-97083712D01*
X392096606Y-97988474D02*
X392144225Y-98036093D01*
X392287082Y-98083712D01*
X392382321Y-98083712D01*
X392525178Y-98036093D01*
X392620416Y-97940855D01*
X392668035Y-97845617D01*
X392715654Y-97655141D01*
X392715654Y-97512284D01*
X392668035Y-97321808D01*
X392620416Y-97226570D01*
X392525178Y-97131332D01*
X392382321Y-97083712D01*
X392287082Y-97083712D01*
X392144225Y-97131332D01*
X392096606Y-97178951D01*
X391382321Y-97083712D02*
X391382321Y-97797998D01*
X391429940Y-97940855D01*
X391525178Y-98036093D01*
X391668035Y-98083712D01*
X391763273Y-98083712D01*
X390429940Y-98083712D02*
X390906130Y-98083712D01*
X390906130Y-97083712D01*
X389525178Y-97988474D02*
X389572797Y-98036093D01*
X389715654Y-98083712D01*
X389810892Y-98083712D01*
X389953749Y-98036093D01*
X390048987Y-97940855D01*
X390096606Y-97845617D01*
X390144225Y-97655141D01*
X390144225Y-97512284D01*
X390096606Y-97321808D01*
X390048987Y-97226570D01*
X389953749Y-97131332D01*
X389810892Y-97083712D01*
X389715654Y-97083712D01*
X389572797Y-97131332D01*
X389525178Y-97178951D01*
X388810892Y-97083712D02*
X388810892Y-97797998D01*
X388858511Y-97940855D01*
X388953749Y-98036093D01*
X389096606Y-98083712D01*
X389191844Y-98083712D01*
X387858511Y-98083712D02*
X388334702Y-98083712D01*
X388334702Y-97083712D01*
X386953749Y-97988474D02*
X387001368Y-98036093D01*
X387144225Y-98083712D01*
X387239463Y-98083712D01*
X387382321Y-98036093D01*
X387477559Y-97940855D01*
X387525178Y-97845617D01*
X387572797Y-97655141D01*
X387572797Y-97512284D01*
X387525178Y-97321808D01*
X387477559Y-97226570D01*
X387382321Y-97131332D01*
X387239463Y-97083712D01*
X387144225Y-97083712D01*
X387001368Y-97131332D01*
X386953749Y-97178951D01*
X386239463Y-97083712D02*
X386239463Y-97797998D01*
X386287082Y-97940855D01*
X386382321Y-98036093D01*
X386525178Y-98083712D01*
X386620416Y-98083712D01*
X385287082Y-98083712D02*
X385763273Y-98083712D01*
X385763273Y-97083712D01*
X384382321Y-97988474D02*
X384429940Y-98036093D01*
X384572797Y-98083712D01*
X384668035Y-98083712D01*
X384810892Y-98036093D01*
X384906130Y-97940855D01*
X384953749Y-97845617D01*
X385001368Y-97655141D01*
X385001368Y-97512284D01*
X384953749Y-97321808D01*
X384906130Y-97226570D01*
X384810892Y-97131332D01*
X384668035Y-97083712D01*
X384572797Y-97083712D01*
X384429940Y-97131332D01*
X384382321Y-97178951D01*
M02*
