G04 #@! TF.GenerationSoftware,KiCad,Pcbnew,(5.1.4-0-10_14)*
G04 #@! TF.CreationDate,2021-10-03T12:43:46-05:00*
G04 #@! TF.ProjectId,lucy,6c756379-2e6b-4696-9361-645f70636258,rev?*
G04 #@! TF.SameCoordinates,Original*
G04 #@! TF.FileFunction,Soldermask,Top*
G04 #@! TF.FilePolarity,Negative*
%FSLAX46Y46*%
G04 Gerber Fmt 4.6, Leading zero omitted, Abs format (unit mm)*
G04 Created by KiCad (PCBNEW (5.1.4-0-10_14)) date 2021-10-03 12:43:46*
%MOMM*%
%LPD*%
G04 APERTURE LIST*
%ADD10C,2.540000*%
%ADD11C,1.701800*%
%ADD12C,3.987800*%
%ADD13R,2.000000X2.000000*%
%ADD14C,2.000000*%
%ADD15R,2.000000X3.200000*%
%ADD16C,0.100000*%
%ADD17C,1.803400*%
%ADD18O,1.300000X1.900000*%
%ADD19C,0.650000*%
%ADD20O,1.300000X2.400000*%
G04 APERTURE END LIST*
D10*
X316468185Y-69691370D03*
X322818185Y-67151370D03*
D11*
X325358185Y-72231370D03*
X315198185Y-72231370D03*
D12*
X320278185Y-72231370D03*
D10*
X121205625Y-50641250D03*
X127555625Y-48101250D03*
D11*
X130095625Y-53181250D03*
X119935625Y-53181250D03*
D12*
X125015625Y-53181250D03*
D10*
X316468185Y-107791530D03*
X322818185Y-105251530D03*
D11*
X325358185Y-110331530D03*
X315198185Y-110331530D03*
D12*
X320278185Y-110331530D03*
D13*
X317752725Y-60693950D03*
D14*
X320252725Y-60693950D03*
X322752725Y-60693950D03*
D15*
X314652725Y-53193950D03*
X325852725Y-53193950D03*
D14*
X317752725Y-46193950D03*
X322752725Y-46193950D03*
D16*
G36*
X192041441Y-55200471D02*
G01*
X192085206Y-55206963D01*
X192128125Y-55217713D01*
X192169783Y-55232619D01*
X192209779Y-55251536D01*
X192247729Y-55274282D01*
X192283266Y-55300638D01*
X192316049Y-55330351D01*
X192345762Y-55363134D01*
X192372118Y-55398671D01*
X192394864Y-55436621D01*
X192413781Y-55476617D01*
X192428687Y-55518275D01*
X192439437Y-55561194D01*
X192445929Y-55604959D01*
X192448100Y-55649150D01*
X192448100Y-56550850D01*
X192445929Y-56595041D01*
X192439437Y-56638806D01*
X192428687Y-56681725D01*
X192413781Y-56723383D01*
X192394864Y-56763379D01*
X192372118Y-56801329D01*
X192345762Y-56836866D01*
X192316049Y-56869649D01*
X192283266Y-56899362D01*
X192247729Y-56925718D01*
X192209779Y-56948464D01*
X192169783Y-56967381D01*
X192128125Y-56982287D01*
X192085206Y-56993037D01*
X192041441Y-56999529D01*
X191997250Y-57001700D01*
X191095550Y-57001700D01*
X191051359Y-56999529D01*
X191007594Y-56993037D01*
X190964675Y-56982287D01*
X190923017Y-56967381D01*
X190883021Y-56948464D01*
X190845071Y-56925718D01*
X190809534Y-56899362D01*
X190776751Y-56869649D01*
X190747038Y-56836866D01*
X190720682Y-56801329D01*
X190697936Y-56763379D01*
X190679019Y-56723383D01*
X190664113Y-56681725D01*
X190653363Y-56638806D01*
X190646871Y-56595041D01*
X190644700Y-56550850D01*
X190644700Y-55649150D01*
X190646871Y-55604959D01*
X190653363Y-55561194D01*
X190664113Y-55518275D01*
X190679019Y-55476617D01*
X190697936Y-55436621D01*
X190720682Y-55398671D01*
X190747038Y-55363134D01*
X190776751Y-55330351D01*
X190809534Y-55300638D01*
X190845071Y-55274282D01*
X190883021Y-55251536D01*
X190923017Y-55232619D01*
X190964675Y-55217713D01*
X191007594Y-55206963D01*
X191051359Y-55200471D01*
X191095550Y-55198300D01*
X191997250Y-55198300D01*
X192041441Y-55200471D01*
X192041441Y-55200471D01*
G37*
D17*
X191546400Y-56100000D03*
X191140000Y-58640000D03*
X191546400Y-61180000D03*
X191140000Y-63720000D03*
X191546400Y-66260000D03*
X191140000Y-68800000D03*
D18*
X111189825Y-43258627D03*
D19*
X112599825Y-46907627D03*
X118379825Y-46907627D03*
D18*
X119789825Y-43258627D03*
D20*
X119789825Y-47458627D03*
X111189825Y-47458627D03*
D12*
X320278125Y-53181250D03*
D11*
X315198125Y-53181250D03*
X325358125Y-53181250D03*
D10*
X322818125Y-48101250D03*
X316468125Y-50641250D03*
X316468185Y-88741450D03*
X322818185Y-86201450D03*
D11*
X325358185Y-91281450D03*
X315198185Y-91281450D03*
D12*
X320278185Y-91281450D03*
D10*
X83105625Y-50641250D03*
X89455625Y-48101250D03*
D11*
X91995625Y-53181250D03*
X81835625Y-53181250D03*
D12*
X86915625Y-53181250D03*
D10*
X102155625Y-50641250D03*
X108505625Y-48101250D03*
D11*
X111045625Y-53181250D03*
X100885625Y-53181250D03*
D12*
X105965625Y-53181250D03*
X144065625Y-53181250D03*
D11*
X138985625Y-53181250D03*
X149145625Y-53181250D03*
D10*
X146605625Y-48101250D03*
X140255625Y-50641250D03*
X159305625Y-50641250D03*
X165655625Y-48101250D03*
D11*
X168195625Y-53181250D03*
X158035625Y-53181250D03*
D12*
X163115625Y-53181250D03*
D10*
X178355625Y-50641250D03*
X184705625Y-48101250D03*
D11*
X187245625Y-53181250D03*
X177085625Y-53181250D03*
D12*
X182165625Y-53181250D03*
D10*
X197405625Y-50641250D03*
X203755625Y-48101250D03*
D11*
X206295625Y-53181250D03*
X196135625Y-53181250D03*
D12*
X201215625Y-53181250D03*
D10*
X216455625Y-50641250D03*
X222805625Y-48101250D03*
D11*
X225345625Y-53181250D03*
X215185625Y-53181250D03*
D12*
X220265625Y-53181250D03*
D10*
X235505625Y-50641250D03*
X241855625Y-48101250D03*
D11*
X244395625Y-53181250D03*
X234235625Y-53181250D03*
D12*
X239315625Y-53181250D03*
D10*
X254555625Y-50641250D03*
X260905625Y-48101250D03*
D11*
X263445625Y-53181250D03*
X253285625Y-53181250D03*
D12*
X258365625Y-53181250D03*
D10*
X273605625Y-50641250D03*
X279955625Y-48101250D03*
D11*
X282495625Y-53181250D03*
X272335625Y-53181250D03*
D12*
X277415625Y-53181250D03*
D10*
X292655625Y-50641250D03*
X299005625Y-48101250D03*
D11*
X301545625Y-53181250D03*
X291385625Y-53181250D03*
D12*
X296465625Y-53181250D03*
D10*
X83105625Y-69691250D03*
X89455625Y-67151250D03*
D11*
X91995625Y-72231250D03*
X81835625Y-72231250D03*
D12*
X86915625Y-72231250D03*
D10*
X102155625Y-69691250D03*
X108505625Y-67151250D03*
D11*
X111045625Y-72231250D03*
X100885625Y-72231250D03*
D12*
X105965625Y-72231250D03*
D10*
X121205625Y-69691250D03*
X127555625Y-67151250D03*
D11*
X130095625Y-72231250D03*
X119935625Y-72231250D03*
D12*
X125015625Y-72231250D03*
D10*
X140260799Y-69691250D03*
X146610799Y-67151250D03*
D11*
X149150799Y-72231250D03*
X138990799Y-72231250D03*
D12*
X144070799Y-72231250D03*
D10*
X159305625Y-69691250D03*
X165655625Y-67151250D03*
D11*
X168195625Y-72231250D03*
X158035625Y-72231250D03*
D12*
X163115625Y-72231250D03*
D10*
X178355625Y-69691250D03*
X184705625Y-67151250D03*
D11*
X187245625Y-72231250D03*
X177085625Y-72231250D03*
D12*
X182165625Y-72231250D03*
D10*
X197405625Y-69691250D03*
X203755625Y-67151250D03*
D11*
X206295625Y-72231250D03*
X196135625Y-72231250D03*
D12*
X201215625Y-72231250D03*
D10*
X216455625Y-69691250D03*
X222805625Y-67151250D03*
D11*
X225345625Y-72231250D03*
X215185625Y-72231250D03*
D12*
X220265625Y-72231250D03*
D10*
X235505625Y-69691250D03*
X241855625Y-67151250D03*
D11*
X244395625Y-72231250D03*
X234235625Y-72231250D03*
D12*
X239315625Y-72231250D03*
D10*
X254555625Y-69691250D03*
X260905625Y-67151250D03*
D11*
X263445625Y-72231250D03*
X253285625Y-72231250D03*
D12*
X258365625Y-72231250D03*
D10*
X273605625Y-69691250D03*
X279955625Y-67151250D03*
D11*
X282495625Y-72231250D03*
X272335625Y-72231250D03*
D12*
X277415625Y-72231250D03*
D10*
X292655625Y-69691250D03*
X299005625Y-67151250D03*
D11*
X301545625Y-72231250D03*
X291385625Y-72231250D03*
D12*
X296465625Y-72231250D03*
D10*
X83105625Y-88741250D03*
X89455625Y-86201250D03*
D11*
X91995625Y-91281250D03*
X81835625Y-91281250D03*
D12*
X86915625Y-91281250D03*
D10*
X102155625Y-88741250D03*
X108505625Y-86201250D03*
D11*
X111045625Y-91281250D03*
X100885625Y-91281250D03*
D12*
X105965625Y-91281250D03*
D10*
X121205625Y-88741250D03*
X127555625Y-86201250D03*
D11*
X130095625Y-91281250D03*
X119935625Y-91281250D03*
D12*
X125015625Y-91281250D03*
D10*
X140255625Y-88741250D03*
X146605625Y-86201250D03*
D11*
X149145625Y-91281250D03*
X138985625Y-91281250D03*
D12*
X144065625Y-91281250D03*
D10*
X159305625Y-88741250D03*
X165655625Y-86201250D03*
D11*
X168195625Y-91281250D03*
X158035625Y-91281250D03*
D12*
X163115625Y-91281250D03*
D10*
X178355625Y-88741250D03*
X184705625Y-86201250D03*
D11*
X187245625Y-91281250D03*
X177085625Y-91281250D03*
D12*
X182165625Y-91281250D03*
D10*
X216455625Y-88741250D03*
X222805625Y-86201250D03*
D11*
X225345625Y-91281250D03*
X215185625Y-91281250D03*
D12*
X220265625Y-91281250D03*
D10*
X235505625Y-88741250D03*
X241855625Y-86201250D03*
D11*
X244395625Y-91281250D03*
X234235625Y-91281250D03*
D12*
X239315625Y-91281250D03*
D10*
X254555625Y-88741250D03*
X260905625Y-86201250D03*
D11*
X263445625Y-91281250D03*
X253285625Y-91281250D03*
D12*
X258365625Y-91281250D03*
D10*
X273605625Y-88741250D03*
X279955625Y-86201250D03*
D11*
X282495625Y-91281250D03*
X272335625Y-91281250D03*
D12*
X277415625Y-91281250D03*
D10*
X83105625Y-107791250D03*
X89455625Y-105251250D03*
D11*
X91995625Y-110331250D03*
X81835625Y-110331250D03*
D12*
X86915625Y-110331250D03*
D10*
X102155625Y-107791250D03*
X108505625Y-105251250D03*
D11*
X111045625Y-110331250D03*
X100885625Y-110331250D03*
D12*
X105965625Y-110331250D03*
D10*
X121205625Y-107791250D03*
X127555625Y-105251250D03*
D11*
X130095625Y-110331250D03*
X119935625Y-110331250D03*
D12*
X125015625Y-110331250D03*
D10*
X140255625Y-107791250D03*
X146605625Y-105251250D03*
D11*
X149145625Y-110331250D03*
X138985625Y-110331250D03*
D12*
X144065625Y-110331250D03*
D10*
X159305625Y-107791250D03*
X165655625Y-105251250D03*
D11*
X168195625Y-110331250D03*
X158035625Y-110331250D03*
D12*
X163115625Y-110331250D03*
D10*
X178355625Y-107791250D03*
X184705625Y-105251250D03*
D11*
X187245625Y-110331250D03*
X177085625Y-110331250D03*
D12*
X182165625Y-110331250D03*
D10*
X216455625Y-107791250D03*
X222805625Y-105251250D03*
D11*
X225345625Y-110331250D03*
X215185625Y-110331250D03*
D12*
X220265625Y-110331250D03*
D10*
X235505625Y-107791250D03*
X241855625Y-105251250D03*
D11*
X244395625Y-110331250D03*
X234235625Y-110331250D03*
D12*
X239315625Y-110331250D03*
D10*
X254555625Y-107791250D03*
X260905625Y-105251250D03*
D11*
X263445625Y-110331250D03*
X253285625Y-110331250D03*
D12*
X258365625Y-110331250D03*
D10*
X273605625Y-107791250D03*
X279955625Y-105251250D03*
D11*
X282495625Y-110331250D03*
X272335625Y-110331250D03*
D12*
X277415625Y-110331250D03*
D10*
X197405625Y-88741250D03*
X203755625Y-86201250D03*
D11*
X206295625Y-91281250D03*
X196135625Y-91281250D03*
D12*
X201215625Y-91281250D03*
D10*
X197405625Y-107791250D03*
X203755625Y-105251250D03*
D11*
X206295625Y-110331250D03*
X196135625Y-110331250D03*
D12*
X201215625Y-110331250D03*
D10*
X292655625Y-88741250D03*
X299005625Y-86201250D03*
D11*
X301545625Y-91281250D03*
X291385625Y-91281250D03*
D12*
X296465625Y-91281250D03*
D10*
X292655625Y-107791250D03*
X299005625Y-105251250D03*
D11*
X301545625Y-110331250D03*
X291385625Y-110331250D03*
D12*
X296465625Y-110331250D03*
M02*
