G04 #@! TF.GenerationSoftware,KiCad,Pcbnew,(6.0.5-0)*
G04 #@! TF.CreationDate,2022-06-14T17:56:37-05:00*
G04 #@! TF.ProjectId,plate,706c6174-652e-46b6-9963-61645f706362,rev?*
G04 #@! TF.SameCoordinates,Original*
G04 #@! TF.FileFunction,Soldermask,Bot*
G04 #@! TF.FilePolarity,Negative*
%FSLAX46Y46*%
G04 Gerber Fmt 4.6, Leading zero omitted, Abs format (unit mm)*
G04 Created by KiCad (PCBNEW (6.0.5-0)) date 2022-06-14 17:56:37*
%MOMM*%
%LPD*%
G01*
G04 APERTURE LIST*
G04 Aperture macros list*
%AMRoundRect*
0 Rectangle with rounded corners*
0 $1 Rounding radius*
0 $2 $3 $4 $5 $6 $7 $8 $9 X,Y pos of 4 corners*
0 Add a 4 corners polygon primitive as box body*
4,1,4,$2,$3,$4,$5,$6,$7,$8,$9,$2,$3,0*
0 Add four circle primitives for the rounded corners*
1,1,$1+$1,$2,$3*
1,1,$1+$1,$4,$5*
1,1,$1+$1,$6,$7*
1,1,$1+$1,$8,$9*
0 Add four rect primitives between the rounded corners*
20,1,$1+$1,$2,$3,$4,$5,0*
20,1,$1+$1,$4,$5,$6,$7,0*
20,1,$1+$1,$6,$7,$8,$9,0*
20,1,$1+$1,$8,$9,$2,$3,0*%
G04 Aperture macros list end*
%ADD10C,0.200000*%
%ADD11C,2.000000*%
%ADD12C,2.200000*%
%ADD13C,3.800000*%
%ADD14RoundRect,0.237500X-0.287500X-0.237500X0.287500X-0.237500X0.287500X0.237500X-0.287500X0.237500X0*%
G04 APERTURE END LIST*
D10*
X337391129Y-38070015D02*
X337510176Y-38010491D01*
X337569700Y-37891443D01*
X337569700Y-36820015D01*
X336914938Y-38070015D02*
X336914938Y-37236681D01*
X336914938Y-36820015D02*
X336974462Y-36879539D01*
X336914938Y-36939062D01*
X336855414Y-36879539D01*
X336914938Y-36820015D01*
X336914938Y-36939062D01*
X336141129Y-38070015D02*
X336260176Y-38010491D01*
X336319700Y-37891443D01*
X336319700Y-36820015D01*
X334533986Y-38070015D02*
X334653033Y-38010491D01*
X334712557Y-37891443D01*
X334712557Y-36820015D01*
X333522081Y-37236681D02*
X333522081Y-38070015D01*
X334057795Y-37236681D02*
X334057795Y-37891443D01*
X333998272Y-38010491D01*
X333879224Y-38070015D01*
X333700653Y-38070015D01*
X333581605Y-38010491D01*
X333522081Y-37950967D01*
X332391129Y-38010491D02*
X332510176Y-38070015D01*
X332748272Y-38070015D01*
X332867319Y-38010491D01*
X332926843Y-37950967D01*
X332986367Y-37831919D01*
X332986367Y-37474777D01*
X332926843Y-37355729D01*
X332867319Y-37296205D01*
X332748272Y-37236681D01*
X332510176Y-37236681D01*
X332391129Y-37296205D01*
X331974462Y-37236681D02*
X331676843Y-38070015D01*
X331379224Y-37236681D02*
X331676843Y-38070015D01*
X331795891Y-38367634D01*
X331855414Y-38427158D01*
X331974462Y-38486681D01*
X329950653Y-37236681D02*
X329950653Y-38486681D01*
X329950653Y-37296205D02*
X329831605Y-37236681D01*
X329593510Y-37236681D01*
X329474462Y-37296205D01*
X329414938Y-37355729D01*
X329355414Y-37474777D01*
X329355414Y-37831919D01*
X329414938Y-37950967D01*
X329474462Y-38010491D01*
X329593510Y-38070015D01*
X329831605Y-38070015D01*
X329950653Y-38010491D01*
X328641129Y-38070015D02*
X328760176Y-38010491D01*
X328819700Y-37891443D01*
X328819700Y-36820015D01*
X327629224Y-38070015D02*
X327629224Y-37415253D01*
X327688748Y-37296205D01*
X327807795Y-37236681D01*
X328045891Y-37236681D01*
X328164938Y-37296205D01*
X327629224Y-38010491D02*
X327748272Y-38070015D01*
X328045891Y-38070015D01*
X328164938Y-38010491D01*
X328224462Y-37891443D01*
X328224462Y-37772396D01*
X328164938Y-37653348D01*
X328045891Y-37593824D01*
X327748272Y-37593824D01*
X327629224Y-37534300D01*
X327212557Y-37236681D02*
X326736367Y-37236681D01*
X327033986Y-36820015D02*
X327033986Y-37891443D01*
X326974462Y-38010491D01*
X326855414Y-38070015D01*
X326736367Y-38070015D01*
X325843510Y-38010491D02*
X325962557Y-38070015D01*
X326200653Y-38070015D01*
X326319700Y-38010491D01*
X326379224Y-37891443D01*
X326379224Y-37415253D01*
X326319700Y-37296205D01*
X326200653Y-37236681D01*
X325962557Y-37236681D01*
X325843510Y-37296205D01*
X325783986Y-37415253D01*
X325783986Y-37534300D01*
X326379224Y-37653348D01*
X324295891Y-38070015D02*
X324295891Y-36820015D01*
X324295891Y-37296205D02*
X324176843Y-37236681D01*
X323938748Y-37236681D01*
X323819700Y-37296205D01*
X323760176Y-37355729D01*
X323700653Y-37474777D01*
X323700653Y-37831919D01*
X323760176Y-37950967D01*
X323819700Y-38010491D01*
X323938748Y-38070015D01*
X324176843Y-38070015D01*
X324295891Y-38010491D01*
X322212557Y-38070015D02*
X322212557Y-37236681D01*
X322212557Y-37474777D02*
X322153033Y-37355729D01*
X322093510Y-37296205D01*
X321974462Y-37236681D01*
X321855414Y-37236681D01*
X320962557Y-38010491D02*
X321081605Y-38070015D01*
X321319700Y-38070015D01*
X321438748Y-38010491D01*
X321498272Y-37891443D01*
X321498272Y-37415253D01*
X321438748Y-37296205D01*
X321319700Y-37236681D01*
X321081605Y-37236681D01*
X320962557Y-37296205D01*
X320903033Y-37415253D01*
X320903033Y-37534300D01*
X321498272Y-37653348D01*
X320486367Y-37236681D02*
X320188748Y-38070015D01*
X319891129Y-37236681D01*
X317807795Y-38070015D02*
X318522081Y-38070015D01*
X318164938Y-38070015D02*
X318164938Y-36820015D01*
X318283986Y-36998586D01*
X318403033Y-37117634D01*
X318522081Y-37177158D01*
X317272081Y-37950967D02*
X317212557Y-38010491D01*
X317272081Y-38070015D01*
X317331605Y-38010491D01*
X317272081Y-37950967D01*
X317272081Y-38070015D01*
X316438748Y-36820015D02*
X316319700Y-36820015D01*
X316200653Y-36879539D01*
X316141129Y-36939062D01*
X316081605Y-37058110D01*
X316022081Y-37296205D01*
X316022081Y-37593824D01*
X316081605Y-37831919D01*
X316141129Y-37950967D01*
X316200653Y-38010491D01*
X316319700Y-38070015D01*
X316438748Y-38070015D01*
X316557795Y-38010491D01*
X316617319Y-37950967D01*
X316676843Y-37831919D01*
X316736367Y-37593824D01*
X316736367Y-37296205D01*
X316676843Y-37058110D01*
X316617319Y-36939062D01*
X316557795Y-36879539D01*
X316438748Y-36820015D01*
D11*
X161972530Y-43006460D02*
X149972530Y-43006460D01*
X162972530Y-56006460D02*
X162972530Y-44006460D01*
X161972530Y-57006460D02*
X149972530Y-57006460D01*
X148972530Y-56006460D02*
X148972530Y-44006460D01*
X148972530Y-56006460D02*
G75*
G03*
X149972530Y-57006460I999999J-1D01*
G01*
X161972530Y-57006460D02*
G75*
G03*
X162972530Y-56006460I0J1000000D01*
G01*
X162972530Y-44006460D02*
G75*
G03*
X161972530Y-43006460I-1000000J0D01*
G01*
X149972530Y-43006460D02*
G75*
G03*
X148972530Y-44006460I-1J-999999D01*
G01*
X182022610Y-56006460D02*
X182022610Y-44006460D01*
X168022610Y-56006460D02*
X168022610Y-44006460D01*
X181022610Y-57006460D02*
X169022610Y-57006460D01*
X181022610Y-43006460D02*
X169022610Y-43006460D01*
X169022610Y-43006460D02*
G75*
G03*
X168022610Y-44006460I-1J-999999D01*
G01*
X168022610Y-56006460D02*
G75*
G03*
X169022610Y-57006460I999999J-1D01*
G01*
X181022610Y-57006460D02*
G75*
G03*
X182022610Y-56006460I0J1000000D01*
G01*
X182022610Y-44006460D02*
G75*
G03*
X181022610Y-43006460I-1000000J0D01*
G01*
X200072690Y-43006460D02*
X188072690Y-43006460D01*
X200072690Y-57006460D02*
X188072690Y-57006460D01*
X201072690Y-56006460D02*
X201072690Y-44006460D01*
X187072690Y-56006460D02*
X187072690Y-44006460D01*
X187072690Y-56006460D02*
G75*
G03*
X188072690Y-57006460I999999J-1D01*
G01*
X200072690Y-57006460D02*
G75*
G03*
X201072690Y-56006460I0J1000000D01*
G01*
X188072690Y-43006460D02*
G75*
G03*
X187072690Y-44006460I-1J-999999D01*
G01*
X201072690Y-44006460D02*
G75*
G03*
X200072690Y-43006460I-1000000J0D01*
G01*
X206122770Y-56006460D02*
X206122770Y-44006460D01*
X220122770Y-56006460D02*
X220122770Y-44006460D01*
X219122770Y-43006460D02*
X207122770Y-43006460D01*
X219122770Y-57006460D02*
X207122770Y-57006460D01*
X220122770Y-44006460D02*
G75*
G03*
X219122770Y-43006460I-1000000J0D01*
G01*
X219122770Y-57006460D02*
G75*
G03*
X220122770Y-56006460I0J1000000D01*
G01*
X206122770Y-56006460D02*
G75*
G03*
X207122770Y-57006460I999999J-1D01*
G01*
X207122770Y-43006460D02*
G75*
G03*
X206122770Y-44006460I-1J-999999D01*
G01*
X225172850Y-56006460D02*
X225172850Y-44006460D01*
X239172850Y-56006460D02*
X239172850Y-44006460D01*
X238172850Y-57006460D02*
X226172850Y-57006460D01*
X238172850Y-43006460D02*
X226172850Y-43006460D01*
X238172850Y-57006460D02*
G75*
G03*
X239172850Y-56006460I0J1000000D01*
G01*
X225172850Y-56006460D02*
G75*
G03*
X226172850Y-57006460I999999J-1D01*
G01*
X239172850Y-44006460D02*
G75*
G03*
X238172850Y-43006460I-1000000J0D01*
G01*
X226172850Y-43006460D02*
G75*
G03*
X225172850Y-44006460I-1J-999999D01*
G01*
X334423250Y-56006460D02*
X334423250Y-44006460D01*
X333423250Y-57006460D02*
X321423250Y-57006460D01*
X320423250Y-56006460D02*
X320423250Y-44006460D01*
X333423250Y-43006460D02*
X321423250Y-43006460D01*
X334423250Y-44006460D02*
G75*
G03*
X333423250Y-43006460I-1000000J0D01*
G01*
X320423250Y-56006460D02*
G75*
G03*
X321423250Y-57006460I999999J-1D01*
G01*
X333423250Y-57006460D02*
G75*
G03*
X334423250Y-56006460I0J1000000D01*
G01*
X321423250Y-43006460D02*
G75*
G03*
X320423250Y-44006460I-1J-999999D01*
G01*
X353473330Y-56006460D02*
X353473330Y-44006460D01*
X352473330Y-43006460D02*
X340473330Y-43006460D01*
X339473330Y-56006460D02*
X339473330Y-44006460D01*
X352473330Y-57006460D02*
X340473330Y-57006460D01*
X353473330Y-44006460D02*
G75*
G03*
X352473330Y-43006460I-1000000J0D01*
G01*
X352473330Y-57006460D02*
G75*
G03*
X353473330Y-56006460I0J1000000D01*
G01*
X340473330Y-43006460D02*
G75*
G03*
X339473330Y-44006460I-1J-999999D01*
G01*
X339473330Y-56006460D02*
G75*
G03*
X340473330Y-57006460I999999J-1D01*
G01*
X161972530Y-76056540D02*
X149972530Y-76056540D01*
X148972530Y-75056540D02*
X148972530Y-63056540D01*
X161972530Y-62056540D02*
X149972530Y-62056540D01*
X162972530Y-75056540D02*
X162972530Y-63056540D01*
X161972530Y-76056540D02*
G75*
G03*
X162972530Y-75056540I0J1000000D01*
G01*
X149972530Y-62056540D02*
G75*
G03*
X148972530Y-63056540I-1J-999999D01*
G01*
X162972530Y-63056540D02*
G75*
G03*
X161972530Y-62056540I-1000000J0D01*
G01*
X148972530Y-75056540D02*
G75*
G03*
X149972530Y-76056540I999999J-1D01*
G01*
X201072690Y-75056540D02*
X201072690Y-63056540D01*
X200072690Y-62056540D02*
X188072690Y-62056540D01*
X200072690Y-76056540D02*
X188072690Y-76056540D01*
X187072690Y-75056540D02*
X187072690Y-63056540D01*
X187072690Y-75056540D02*
G75*
G03*
X188072690Y-76056540I999999J-1D01*
G01*
X200072690Y-76056540D02*
G75*
G03*
X201072690Y-75056540I0J1000000D01*
G01*
X201072690Y-63056540D02*
G75*
G03*
X200072690Y-62056540I-1000000J0D01*
G01*
X188072690Y-62056540D02*
G75*
G03*
X187072690Y-63056540I-1J-999999D01*
G01*
X239172850Y-75056540D02*
X239172850Y-63056540D01*
X225172850Y-75056540D02*
X225172850Y-63056540D01*
X238172850Y-76056540D02*
X226172850Y-76056540D01*
X238172850Y-62056540D02*
X226172850Y-62056540D01*
X225172850Y-75056540D02*
G75*
G03*
X226172850Y-76056540I999999J-1D01*
G01*
X238172850Y-76056540D02*
G75*
G03*
X239172850Y-75056540I0J1000000D01*
G01*
X239172850Y-63056540D02*
G75*
G03*
X238172850Y-62056540I-1000000J0D01*
G01*
X226172850Y-62056540D02*
G75*
G03*
X225172850Y-63056540I-1J-999999D01*
G01*
X257222930Y-62056540D02*
X245222930Y-62056540D01*
X258222930Y-75056540D02*
X258222930Y-63056540D01*
X257222930Y-76056540D02*
X245222930Y-76056540D01*
X244222930Y-75056540D02*
X244222930Y-63056540D01*
X257222930Y-76056540D02*
G75*
G03*
X258222930Y-75056540I0J1000000D01*
G01*
X244222930Y-75056540D02*
G75*
G03*
X245222930Y-76056540I999999J-1D01*
G01*
X258222930Y-63056540D02*
G75*
G03*
X257222930Y-62056540I-1000000J0D01*
G01*
X245222930Y-62056540D02*
G75*
G03*
X244222930Y-63056540I-1J-999999D01*
G01*
X276273010Y-76056540D02*
X264273010Y-76056540D01*
X277273010Y-75056540D02*
X277273010Y-63056540D01*
X276273010Y-62056540D02*
X264273010Y-62056540D01*
X263273010Y-75056540D02*
X263273010Y-63056540D01*
X264273010Y-62056540D02*
G75*
G03*
X263273010Y-63056540I-1J-999999D01*
G01*
X277273010Y-63056540D02*
G75*
G03*
X276273010Y-62056540I-1000000J0D01*
G01*
X263273010Y-75056540D02*
G75*
G03*
X264273010Y-76056540I999999J-1D01*
G01*
X276273010Y-76056540D02*
G75*
G03*
X277273010Y-75056540I0J1000000D01*
G01*
X295323090Y-76056540D02*
X283323090Y-76056540D01*
X282323090Y-75056540D02*
X282323090Y-63056540D01*
X295323090Y-62056540D02*
X283323090Y-62056540D01*
X296323090Y-75056540D02*
X296323090Y-63056540D01*
X295323090Y-76056540D02*
G75*
G03*
X296323090Y-75056540I0J1000000D01*
G01*
X282323090Y-75056540D02*
G75*
G03*
X283323090Y-76056540I999999J-1D01*
G01*
X296323090Y-63056540D02*
G75*
G03*
X295323090Y-62056540I-1000000J0D01*
G01*
X283323090Y-62056540D02*
G75*
G03*
X282323090Y-63056540I-1J-999999D01*
G01*
X301373170Y-75056540D02*
X301373170Y-63056540D01*
X314373170Y-62056540D02*
X302373170Y-62056540D01*
X315373170Y-75056540D02*
X315373170Y-63056540D01*
X314373170Y-76056540D02*
X302373170Y-76056540D01*
X301373170Y-75056540D02*
G75*
G03*
X302373170Y-76056540I999999J-1D01*
G01*
X302373170Y-62056540D02*
G75*
G03*
X301373170Y-63056540I-1J-999999D01*
G01*
X315373170Y-63056540D02*
G75*
G03*
X314373170Y-62056540I-1000000J0D01*
G01*
X314373170Y-76056540D02*
G75*
G03*
X315373170Y-75056540I0J1000000D01*
G01*
X333423250Y-76056540D02*
X321423250Y-76056540D01*
X333423250Y-62056540D02*
X321423250Y-62056540D01*
X334423250Y-75056540D02*
X334423250Y-63056540D01*
X320423250Y-75056540D02*
X320423250Y-63056540D01*
X333423250Y-76056540D02*
G75*
G03*
X334423250Y-75056540I0J1000000D01*
G01*
X321423250Y-62056540D02*
G75*
G03*
X320423250Y-63056540I-1J-999999D01*
G01*
X334423250Y-63056540D02*
G75*
G03*
X333423250Y-62056540I-1000000J0D01*
G01*
X320423250Y-75056540D02*
G75*
G03*
X321423250Y-76056540I999999J-1D01*
G01*
X339473330Y-75056540D02*
X339473330Y-63056540D01*
X352473330Y-76056540D02*
X340473330Y-76056540D01*
X352473330Y-62056540D02*
X340473330Y-62056540D01*
X353473330Y-75056540D02*
X353473330Y-63056540D01*
X339473330Y-75056540D02*
G75*
G03*
X340473330Y-76056540I999999J-1D01*
G01*
X352473330Y-76056540D02*
G75*
G03*
X353473330Y-75056540I0J1000000D01*
G01*
X340473330Y-62056540D02*
G75*
G03*
X339473330Y-63056540I-1J-999999D01*
G01*
X353473330Y-63056540D02*
G75*
G03*
X352473330Y-62056540I-1000000J0D01*
G01*
X372523410Y-75056540D02*
X372523410Y-63056540D01*
X358523410Y-75056540D02*
X358523410Y-63056540D01*
X371523410Y-76056540D02*
X359523410Y-76056540D01*
X371523410Y-62056540D02*
X359523410Y-62056540D01*
X372523410Y-63056540D02*
G75*
G03*
X371523410Y-62056540I-1000000J0D01*
G01*
X371523410Y-76056540D02*
G75*
G03*
X372523410Y-75056540I0J1000000D01*
G01*
X358523410Y-75056540D02*
G75*
G03*
X359523410Y-76056540I999999J-1D01*
G01*
X359523410Y-62056540D02*
G75*
G03*
X358523410Y-63056540I-1J-999999D01*
G01*
X161972530Y-81106620D02*
X149972530Y-81106620D01*
X148972530Y-94106620D02*
X148972530Y-82106620D01*
X162972530Y-94106620D02*
X162972530Y-82106620D01*
X161972530Y-95106620D02*
X149972530Y-95106620D01*
X148972530Y-94106620D02*
G75*
G03*
X149972530Y-95106620I999999J-1D01*
G01*
X149972530Y-81106620D02*
G75*
G03*
X148972530Y-82106620I-1J-999999D01*
G01*
X162972530Y-82106620D02*
G75*
G03*
X161972530Y-81106620I-1000000J0D01*
G01*
X161972530Y-95106620D02*
G75*
G03*
X162972530Y-94106620I0J1000000D01*
G01*
X181022610Y-95106620D02*
X169022610Y-95106620D01*
X168022610Y-94106620D02*
X168022610Y-82106620D01*
X182022610Y-94106620D02*
X182022610Y-82106620D01*
X181022610Y-81106620D02*
X169022610Y-81106620D01*
X169022610Y-81106620D02*
G75*
G03*
X168022610Y-82106620I-1J-999999D01*
G01*
X181022610Y-95106620D02*
G75*
G03*
X182022610Y-94106620I0J1000000D01*
G01*
X168022610Y-94106620D02*
G75*
G03*
X169022610Y-95106620I999999J-1D01*
G01*
X182022610Y-82106620D02*
G75*
G03*
X181022610Y-81106620I-1000000J0D01*
G01*
X201072690Y-94106620D02*
X201072690Y-82106620D01*
X200072690Y-95106620D02*
X188072690Y-95106620D01*
X187072690Y-94106620D02*
X187072690Y-82106620D01*
X200072690Y-81106620D02*
X188072690Y-81106620D01*
X201072690Y-82106620D02*
G75*
G03*
X200072690Y-81106620I-1000000J0D01*
G01*
X187072690Y-94106620D02*
G75*
G03*
X188072690Y-95106620I999999J-1D01*
G01*
X188072690Y-81106620D02*
G75*
G03*
X187072690Y-82106620I-1J-999999D01*
G01*
X200072690Y-95106620D02*
G75*
G03*
X201072690Y-94106620I0J1000000D01*
G01*
X206122770Y-94106620D02*
X206122770Y-82106620D01*
X220122770Y-94106620D02*
X220122770Y-82106620D01*
X219122770Y-81106620D02*
X207122770Y-81106620D01*
X219122770Y-95106620D02*
X207122770Y-95106620D01*
X219122770Y-95106620D02*
G75*
G03*
X220122770Y-94106620I0J1000000D01*
G01*
X206122770Y-94106620D02*
G75*
G03*
X207122770Y-95106620I999999J-1D01*
G01*
X207122770Y-81106620D02*
G75*
G03*
X206122770Y-82106620I-1J-999999D01*
G01*
X220122770Y-82106620D02*
G75*
G03*
X219122770Y-81106620I-1000000J0D01*
G01*
X238172850Y-81106620D02*
X226172850Y-81106620D01*
X225172850Y-94106620D02*
X225172850Y-82106620D01*
X239172850Y-94106620D02*
X239172850Y-82106620D01*
X238172850Y-95106620D02*
X226172850Y-95106620D01*
X239172850Y-82106620D02*
G75*
G03*
X238172850Y-81106620I-1000000J0D01*
G01*
X226172850Y-81106620D02*
G75*
G03*
X225172850Y-82106620I-1J-999999D01*
G01*
X225172850Y-94106620D02*
G75*
G03*
X226172850Y-95106620I999999J-1D01*
G01*
X238172850Y-95106620D02*
G75*
G03*
X239172850Y-94106620I0J1000000D01*
G01*
X244222930Y-94106620D02*
X244222930Y-82106620D01*
X257222930Y-95106620D02*
X245222930Y-95106620D01*
X258222930Y-94106620D02*
X258222930Y-82106620D01*
X257222930Y-81106620D02*
X245222930Y-81106620D01*
X245222930Y-81106620D02*
G75*
G03*
X244222930Y-82106620I-1J-999999D01*
G01*
X244222930Y-94106620D02*
G75*
G03*
X245222930Y-95106620I999999J-1D01*
G01*
X257222930Y-95106620D02*
G75*
G03*
X258222930Y-94106620I0J1000000D01*
G01*
X258222930Y-82106620D02*
G75*
G03*
X257222930Y-81106620I-1000000J0D01*
G01*
X276273010Y-81106620D02*
X264273010Y-81106620D01*
X276273010Y-95106620D02*
X264273010Y-95106620D01*
X263273010Y-94106620D02*
X263273010Y-82106620D01*
X277273010Y-94106620D02*
X277273010Y-82106620D01*
X264273010Y-81106620D02*
G75*
G03*
X263273010Y-82106620I-1J-999999D01*
G01*
X276273010Y-95106620D02*
G75*
G03*
X277273010Y-94106620I0J1000000D01*
G01*
X277273010Y-82106620D02*
G75*
G03*
X276273010Y-81106620I-1000000J0D01*
G01*
X263273010Y-94106620D02*
G75*
G03*
X264273010Y-95106620I999999J-1D01*
G01*
X295323090Y-81106620D02*
X283323090Y-81106620D01*
X282323090Y-94106620D02*
X282323090Y-82106620D01*
X295323090Y-95106620D02*
X283323090Y-95106620D01*
X296323090Y-94106620D02*
X296323090Y-82106620D01*
X282323090Y-94106620D02*
G75*
G03*
X283323090Y-95106620I999999J-1D01*
G01*
X283323090Y-81106620D02*
G75*
G03*
X282323090Y-82106620I-1J-999999D01*
G01*
X296323090Y-82106620D02*
G75*
G03*
X295323090Y-81106620I-1000000J0D01*
G01*
X295323090Y-95106620D02*
G75*
G03*
X296323090Y-94106620I0J1000000D01*
G01*
X314373170Y-95106620D02*
X302373170Y-95106620D01*
X301373170Y-94106620D02*
X301373170Y-82106620D01*
X314373170Y-81106620D02*
X302373170Y-81106620D01*
X315373170Y-94106620D02*
X315373170Y-82106620D01*
X315373170Y-82106620D02*
G75*
G03*
X314373170Y-81106620I-1000000J0D01*
G01*
X314373170Y-95106620D02*
G75*
G03*
X315373170Y-94106620I0J1000000D01*
G01*
X301373170Y-94106620D02*
G75*
G03*
X302373170Y-95106620I999999J-1D01*
G01*
X302373170Y-81106620D02*
G75*
G03*
X301373170Y-82106620I-1J-999999D01*
G01*
X333423250Y-95106620D02*
X321423250Y-95106620D01*
X333423250Y-81106620D02*
X321423250Y-81106620D01*
X320423250Y-94106620D02*
X320423250Y-82106620D01*
X334423250Y-94106620D02*
X334423250Y-82106620D01*
X333423250Y-95106620D02*
G75*
G03*
X334423250Y-94106620I0J1000000D01*
G01*
X320423250Y-94106620D02*
G75*
G03*
X321423250Y-95106620I999999J-1D01*
G01*
X334423250Y-82106620D02*
G75*
G03*
X333423250Y-81106620I-1000000J0D01*
G01*
X321423250Y-81106620D02*
G75*
G03*
X320423250Y-82106620I-1J-999999D01*
G01*
X353473330Y-94106620D02*
X353473330Y-82106620D01*
X339473330Y-94106620D02*
X339473330Y-82106620D01*
X352473330Y-95106620D02*
X340473330Y-95106620D01*
X352473330Y-81106620D02*
X340473330Y-81106620D01*
X340473330Y-81106620D02*
G75*
G03*
X339473330Y-82106620I-1J-999999D01*
G01*
X353473330Y-82106620D02*
G75*
G03*
X352473330Y-81106620I-1000000J0D01*
G01*
X352473330Y-95106620D02*
G75*
G03*
X353473330Y-94106620I0J1000000D01*
G01*
X339473330Y-94106620D02*
G75*
G03*
X340473330Y-95106620I999999J-1D01*
G01*
X358523410Y-94106620D02*
X358523410Y-82106620D01*
X372523410Y-94106620D02*
X372523410Y-82106620D01*
X371523410Y-81106620D02*
X359523410Y-81106620D01*
X371523410Y-95106620D02*
X359523410Y-95106620D01*
X371523410Y-95106620D02*
G75*
G03*
X372523410Y-94106620I0J1000000D01*
G01*
X372523410Y-82106620D02*
G75*
G03*
X371523410Y-81106620I-1000000J0D01*
G01*
X358523410Y-94106620D02*
G75*
G03*
X359523410Y-95106620I999999J-1D01*
G01*
X359523410Y-81106620D02*
G75*
G03*
X358523410Y-82106620I-1J-999999D01*
G01*
X181022610Y-100156700D02*
X169022610Y-100156700D01*
X168022610Y-113156700D02*
X168022610Y-101156700D01*
X182022610Y-113156700D02*
X182022610Y-101156700D01*
X181022610Y-114156700D02*
X169022610Y-114156700D01*
X169022610Y-100156700D02*
G75*
G03*
X168022610Y-101156700I-1J-999999D01*
G01*
X168022610Y-113156700D02*
G75*
G03*
X169022610Y-114156700I999999J-1D01*
G01*
X181022610Y-114156700D02*
G75*
G03*
X182022610Y-113156700I0J1000000D01*
G01*
X182022610Y-101156700D02*
G75*
G03*
X181022610Y-100156700I-1000000J0D01*
G01*
X200072690Y-100156700D02*
X188072690Y-100156700D01*
X200072690Y-114156700D02*
X188072690Y-114156700D01*
X201072690Y-113156700D02*
X201072690Y-101156700D01*
X187072690Y-113156700D02*
X187072690Y-101156700D01*
X200072690Y-114156700D02*
G75*
G03*
X201072690Y-113156700I0J1000000D01*
G01*
X201072690Y-101156700D02*
G75*
G03*
X200072690Y-100156700I-1000000J0D01*
G01*
X188072690Y-100156700D02*
G75*
G03*
X187072690Y-101156700I-1J-999999D01*
G01*
X187072690Y-113156700D02*
G75*
G03*
X188072690Y-114156700I999999J-1D01*
G01*
X206122770Y-113156700D02*
X206122770Y-101156700D01*
X220122770Y-113156700D02*
X220122770Y-101156700D01*
X219122770Y-114156700D02*
X207122770Y-114156700D01*
X219122770Y-100156700D02*
X207122770Y-100156700D01*
X219122770Y-114156700D02*
G75*
G03*
X220122770Y-113156700I0J1000000D01*
G01*
X206122770Y-113156700D02*
G75*
G03*
X207122770Y-114156700I999999J-1D01*
G01*
X207122770Y-100156700D02*
G75*
G03*
X206122770Y-101156700I-1J-999999D01*
G01*
X220122770Y-101156700D02*
G75*
G03*
X219122770Y-100156700I-1000000J0D01*
G01*
X238172850Y-100156700D02*
X226172850Y-100156700D01*
X225172850Y-113156700D02*
X225172850Y-101156700D01*
X238172850Y-114156700D02*
X226172850Y-114156700D01*
X239172850Y-113156700D02*
X239172850Y-101156700D01*
X225172850Y-113156700D02*
G75*
G03*
X226172850Y-114156700I999999J-1D01*
G01*
X239172850Y-101156700D02*
G75*
G03*
X238172850Y-100156700I-1000000J0D01*
G01*
X226172850Y-100156700D02*
G75*
G03*
X225172850Y-101156700I-1J-999999D01*
G01*
X238172850Y-114156700D02*
G75*
G03*
X239172850Y-113156700I0J1000000D01*
G01*
X244222930Y-113156700D02*
X244222930Y-101156700D01*
X257222930Y-100156700D02*
X245222930Y-100156700D01*
X258222930Y-113156700D02*
X258222930Y-101156700D01*
X257222930Y-114156700D02*
X245222930Y-114156700D01*
X245222930Y-100156700D02*
G75*
G03*
X244222930Y-101156700I-1J-999999D01*
G01*
X258222930Y-101156700D02*
G75*
G03*
X257222930Y-100156700I-1000000J0D01*
G01*
X244222930Y-113156700D02*
G75*
G03*
X245222930Y-114156700I999999J-1D01*
G01*
X257222930Y-114156700D02*
G75*
G03*
X258222930Y-113156700I0J1000000D01*
G01*
X276273010Y-114156700D02*
X264273010Y-114156700D01*
X276273010Y-100156700D02*
X264273010Y-100156700D01*
X263273010Y-113156700D02*
X263273010Y-101156700D01*
X277273010Y-113156700D02*
X277273010Y-101156700D01*
X263273010Y-113156700D02*
G75*
G03*
X264273010Y-114156700I999999J-1D01*
G01*
X276273010Y-114156700D02*
G75*
G03*
X277273010Y-113156700I0J1000000D01*
G01*
X264273010Y-100156700D02*
G75*
G03*
X263273010Y-101156700I-1J-999999D01*
G01*
X277273010Y-101156700D02*
G75*
G03*
X276273010Y-100156700I-1000000J0D01*
G01*
X295323090Y-114156700D02*
X283323090Y-114156700D01*
X296323090Y-113156700D02*
X296323090Y-101156700D01*
X295323090Y-100156700D02*
X283323090Y-100156700D01*
X282323090Y-113156700D02*
X282323090Y-101156700D01*
X282323090Y-113156700D02*
G75*
G03*
X283323090Y-114156700I999999J-1D01*
G01*
X295323090Y-114156700D02*
G75*
G03*
X296323090Y-113156700I0J1000000D01*
G01*
X296323090Y-101156700D02*
G75*
G03*
X295323090Y-100156700I-1000000J0D01*
G01*
X283323090Y-100156700D02*
G75*
G03*
X282323090Y-101156700I-1J-999999D01*
G01*
X314373170Y-100156700D02*
X302373170Y-100156700D01*
X315373170Y-113156700D02*
X315373170Y-101156700D01*
X314373170Y-114156700D02*
X302373170Y-114156700D01*
X301373170Y-113156700D02*
X301373170Y-101156700D01*
X315373170Y-101156700D02*
G75*
G03*
X314373170Y-100156700I-1000000J0D01*
G01*
X314373170Y-114156700D02*
G75*
G03*
X315373170Y-113156700I0J1000000D01*
G01*
X301373170Y-113156700D02*
G75*
G03*
X302373170Y-114156700I999999J-1D01*
G01*
X302373170Y-100156700D02*
G75*
G03*
X301373170Y-101156700I-1J-999999D01*
G01*
X334423250Y-113156700D02*
X334423250Y-101156700D01*
X333423250Y-100156700D02*
X321423250Y-100156700D01*
X320423250Y-113156700D02*
X320423250Y-101156700D01*
X333423250Y-114156700D02*
X321423250Y-114156700D01*
X333423250Y-114156700D02*
G75*
G03*
X334423250Y-113156700I0J1000000D01*
G01*
X320423250Y-113156700D02*
G75*
G03*
X321423250Y-114156700I999999J-1D01*
G01*
X321423250Y-100156700D02*
G75*
G03*
X320423250Y-101156700I-1J-999999D01*
G01*
X334423250Y-101156700D02*
G75*
G03*
X333423250Y-100156700I-1000000J0D01*
G01*
X352473330Y-114160000D02*
X340473330Y-114160000D01*
X339473330Y-113160000D02*
X339473330Y-101160000D01*
X353473330Y-113160000D02*
X353473330Y-101160000D01*
X352473330Y-100160000D02*
X340473330Y-100160000D01*
X340473330Y-100160000D02*
G75*
G03*
X339473330Y-101160000I-1J-999999D01*
G01*
X352473330Y-114160000D02*
G75*
G03*
X353473330Y-113160000I0J1000000D01*
G01*
X339473330Y-113160000D02*
G75*
G03*
X340473330Y-114160000I999999J-1D01*
G01*
X353473330Y-101160000D02*
G75*
G03*
X352473330Y-100160000I-1000000J0D01*
G01*
X371523410Y-100156700D02*
X359523410Y-100156700D01*
X372523410Y-113156700D02*
X372523410Y-101156700D01*
X358523410Y-113156700D02*
X358523410Y-101156700D01*
X371523410Y-114156700D02*
X359523410Y-114156700D01*
X358523410Y-113156700D02*
G75*
G03*
X359523410Y-114156700I999999J-1D01*
G01*
X359523410Y-100156700D02*
G75*
G03*
X358523410Y-101156700I-1J-999999D01*
G01*
X372523410Y-101156700D02*
G75*
G03*
X371523410Y-100156700I-1000000J0D01*
G01*
X371523410Y-114156700D02*
G75*
G03*
X372523410Y-113156700I0J1000000D01*
G01*
X162972530Y-113156700D02*
X162972530Y-101156700D01*
X148972530Y-113156700D02*
X148972530Y-101156700D01*
X161972530Y-114156700D02*
X149972530Y-114156700D01*
X161972530Y-100156700D02*
X149972530Y-100156700D01*
X162972530Y-101156700D02*
G75*
G03*
X161972530Y-100156700I-1000000J0D01*
G01*
X149972530Y-100156700D02*
G75*
G03*
X148972530Y-101156700I-1J-999999D01*
G01*
X161972530Y-114156700D02*
G75*
G03*
X162972530Y-113156700I0J1000000D01*
G01*
X148972530Y-113156700D02*
G75*
G03*
X149972530Y-114156700I999999J-1D01*
G01*
X168022610Y-75056540D02*
X168022610Y-63056540D01*
X182022610Y-75056540D02*
X182022610Y-63056540D01*
X181022610Y-76056540D02*
X169022610Y-76056540D01*
X181022610Y-62056540D02*
X169022610Y-62056540D01*
X181022610Y-76056540D02*
G75*
G03*
X182022610Y-75056540I0J1000000D01*
G01*
X182022610Y-63056540D02*
G75*
G03*
X181022610Y-62056540I-1000000J0D01*
G01*
X169022610Y-62056540D02*
G75*
G03*
X168022610Y-63056540I-1J-999999D01*
G01*
X168022610Y-75056540D02*
G75*
G03*
X169022610Y-76056540I999999J-1D01*
G01*
X371523410Y-57006460D02*
X359523410Y-57006460D01*
X372523410Y-56006460D02*
X372523410Y-44006460D01*
X371523410Y-43006460D02*
X359523410Y-43006460D01*
X358523410Y-56006460D02*
X358523410Y-44006460D01*
X371523410Y-57006460D02*
G75*
G03*
X372523410Y-56006460I0J1000000D01*
G01*
X359523410Y-43006460D02*
G75*
G03*
X358523410Y-44006460I-1J-999999D01*
G01*
X372523410Y-44006460D02*
G75*
G03*
X371523410Y-43006460I-1000000J0D01*
G01*
X358523410Y-56006460D02*
G75*
G03*
X359523410Y-57006460I999999J-1D01*
G01*
X206122770Y-75056540D02*
X206122770Y-63056540D01*
X220122770Y-75056540D02*
X220122770Y-63056540D01*
X219122770Y-76056540D02*
X207122770Y-76056540D01*
X219122770Y-62056540D02*
X207122770Y-62056540D01*
X219122770Y-76056540D02*
G75*
G03*
X220122770Y-75056540I0J1000000D01*
G01*
X220122770Y-63056540D02*
G75*
G03*
X219122770Y-62056540I-1000000J0D01*
G01*
X207122770Y-62056540D02*
G75*
G03*
X206122770Y-63056540I-1J-999999D01*
G01*
X206122770Y-75056540D02*
G75*
G03*
X207122770Y-76056540I999999J-1D01*
G01*
X257223314Y-57006460D02*
X245223314Y-57006460D01*
X244223314Y-56006460D02*
X244223314Y-44006460D01*
X257223314Y-43006460D02*
X245223314Y-43006460D01*
X258223314Y-56006460D02*
X258223314Y-44006460D01*
X257223314Y-57006460D02*
G75*
G03*
X258223314Y-56006460I0J1000000D01*
G01*
X245223314Y-43006460D02*
G75*
G03*
X244223314Y-44006460I-1J-999999D01*
G01*
X258223314Y-44006460D02*
G75*
G03*
X257223314Y-43006460I-1000000J0D01*
G01*
X244223314Y-56006460D02*
G75*
G03*
X245223314Y-57006460I999999J-1D01*
G01*
X263273330Y-56006460D02*
X263273330Y-44006460D01*
X276273330Y-57006460D02*
X264273330Y-57006460D01*
X277273330Y-56006460D02*
X277273330Y-44006460D01*
X276273330Y-43006460D02*
X264273330Y-43006460D01*
X264273330Y-43006460D02*
G75*
G03*
X263273330Y-44006460I-1J-999999D01*
G01*
X263273330Y-56006460D02*
G75*
G03*
X264273330Y-57006460I999999J-1D01*
G01*
X277273330Y-44006460D02*
G75*
G03*
X276273330Y-43006460I-1000000J0D01*
G01*
X276273330Y-57006460D02*
G75*
G03*
X277273330Y-56006460I0J1000000D01*
G01*
X295323346Y-43006460D02*
X283323346Y-43006460D01*
X295323346Y-57006460D02*
X283323346Y-57006460D01*
X296323346Y-56006460D02*
X296323346Y-44006460D01*
X282323346Y-56006460D02*
X282323346Y-44006460D01*
X283323346Y-43006460D02*
G75*
G03*
X282323346Y-44006460I-1J-999999D01*
G01*
X296323346Y-44006460D02*
G75*
G03*
X295323346Y-43006460I-1000000J0D01*
G01*
X282323346Y-56006460D02*
G75*
G03*
X283323346Y-57006460I999999J-1D01*
G01*
X295323346Y-57006460D02*
G75*
G03*
X296323346Y-56006460I0J1000000D01*
G01*
X301373362Y-56006460D02*
X301373362Y-44006460D01*
X315373362Y-56006460D02*
X315373362Y-44006460D01*
X314373362Y-43006460D02*
X302373362Y-43006460D01*
X314373362Y-57006460D02*
X302373362Y-57006460D01*
X302373362Y-43006460D02*
G75*
G03*
X301373362Y-44006460I-1J-999999D01*
G01*
X315373362Y-44006460D02*
G75*
G03*
X314373362Y-43006460I-1000000J0D01*
G01*
X301373362Y-56006460D02*
G75*
G03*
X302373362Y-57006460I999999J-1D01*
G01*
X314373362Y-57006460D02*
G75*
G03*
X315373362Y-56006460I0J1000000D01*
G01*
D12*
X355997174Y-97631332D03*
X165497014Y-97631332D03*
X355997174Y-59531300D03*
X171450144Y-59531300D03*
D13*
X365520998Y-119657745D03*
X288130308Y-119657745D03*
X233362696Y-119657745D03*
X155972006Y-119657745D03*
X365520998Y-37504539D03*
X288130308Y-37504539D03*
X233362696Y-37504719D03*
X155972006Y-37504719D03*
D14*
X364647182Y-59531300D03*
X366397182Y-59531300D03*
M02*
