G04 #@! TF.GenerationSoftware,KiCad,Pcbnew,(6.0.5-0)*
G04 #@! TF.CreationDate,2022-06-14T17:56:37-05:00*
G04 #@! TF.ProjectId,plate,706c6174-652e-46b6-9963-61645f706362,rev?*
G04 #@! TF.SameCoordinates,Original*
G04 #@! TF.FileFunction,Profile,NP*
%FSLAX46Y46*%
G04 Gerber Fmt 4.6, Leading zero omitted, Abs format (unit mm)*
G04 Created by KiCad (PCBNEW (6.0.5-0)) date 2022-06-14 17:56:37*
%MOMM*%
%LPD*%
G01*
G04 APERTURE LIST*
G04 #@! TA.AperFunction,Profile*
%ADD10C,0.050000*%
G04 #@! TD*
G04 APERTURE END LIST*
D10*
X372665930Y-116681390D02*
G75*
G03*
X375047190Y-114300144I-30J2381290D01*
G01*
X372665930Y-116681404D02*
X370880043Y-116681516D01*
X375047224Y-42862536D02*
G75*
G03*
X372665930Y-40481276I-2381324J-64D01*
G01*
X372665930Y-40481276D02*
X370880043Y-40481272D01*
X282773719Y-40481272D02*
X238721741Y-40481452D01*
X150615417Y-40481452D02*
X148829842Y-40481468D01*
X148829842Y-116681404D02*
X150615417Y-116681404D01*
X238721741Y-116681535D02*
X282773719Y-116681516D01*
X146448582Y-42862728D02*
X146448582Y-114300156D01*
X148829842Y-40481482D02*
G75*
G03*
X146448582Y-42862728I-42J-2381218D01*
G01*
X235743948Y-35718780D02*
G75*
G03*
X230981444Y-35718780I-2381252J-1785939D01*
G01*
X158354486Y-35718948D02*
X161331051Y-40481452D01*
X164905385Y-121443684D02*
X164905385Y-117872664D01*
X230981789Y-121442339D02*
X228006107Y-116681535D01*
X356590096Y-39290143D02*
G75*
G03*
X357780701Y-40481104I1190604J-357D01*
G01*
X293489353Y-40481272D02*
X295869376Y-40481104D01*
X146448584Y-114300156D02*
G75*
G03*
X148829842Y-116681416I2381216J-44D01*
G01*
X166092326Y-34527800D02*
G75*
G03*
X164901700Y-35718780I-26J-1190600D01*
G01*
X357784386Y-116681660D02*
G75*
G03*
X356593760Y-117872645I14J-1190640D01*
G01*
X356590061Y-35718600D02*
G75*
G03*
X355399449Y-34527639I-1190561J400D01*
G01*
X367902775Y-35719295D02*
G75*
G03*
X363139746Y-35718600I-2381775J-1785205D01*
G01*
X367902772Y-35719297D02*
X370880043Y-40481272D01*
X297059650Y-121443684D02*
G75*
G03*
X298254313Y-122634644I1190950J-16D01*
G01*
X285749056Y-35718768D02*
X282773719Y-40481272D01*
X357780701Y-40481104D02*
X360163180Y-40481272D01*
X224431773Y-35718780D02*
X224431773Y-39290323D01*
X355400677Y-122636760D02*
G75*
G03*
X356593760Y-121443684I23J1193060D01*
G01*
X164905355Y-121443684D02*
G75*
G03*
X166096011Y-122634645I1190645J-316D01*
G01*
X298250628Y-34527602D02*
G75*
G03*
X297060002Y-35718600I-28J-1190598D01*
G01*
X290511469Y-35718669D02*
G75*
G03*
X285749056Y-35718768I-2381169J-1785831D01*
G01*
X224431816Y-39290323D02*
G75*
G03*
X225622399Y-40481284I1190584J-377D01*
G01*
X363139405Y-121445030D02*
G75*
G03*
X367903478Y-121443852I2381595J1787330D01*
G01*
X230981444Y-35718780D02*
X228006107Y-40481452D01*
X290511479Y-35718661D02*
X293489353Y-40481272D01*
X223244832Y-122634645D02*
X166096011Y-122634645D01*
X153591092Y-121442344D02*
G75*
G03*
X158352029Y-121443517I2380908J1784644D01*
G01*
X298250628Y-34527639D02*
X355399449Y-34527639D01*
X297059663Y-121443684D02*
X297063687Y-117872645D01*
X158352029Y-121443517D02*
X161331051Y-116681404D01*
X166092326Y-34527819D02*
X223241147Y-34527819D01*
X375047190Y-114300144D02*
X375047190Y-42862536D01*
X225626084Y-116681658D02*
G75*
G03*
X224435458Y-117872664I16J-1190642D01*
G01*
X285748713Y-121445031D02*
X282773719Y-116681516D01*
X363139403Y-121445031D02*
X360164409Y-116681516D01*
X163714759Y-116681703D02*
X161331051Y-116681535D01*
X360164409Y-116681516D02*
X357784386Y-116681684D01*
X295869376Y-40481102D02*
G75*
G03*
X297060002Y-39290143I24J1190602D01*
G01*
X224435458Y-117872664D02*
X224435458Y-121443684D01*
X223244832Y-122634658D02*
G75*
G03*
X224435458Y-121443684I-32J1190658D01*
G01*
X153591099Y-121442339D02*
X150615417Y-116681404D01*
X235742719Y-121443517D02*
X238721741Y-116681535D01*
X161331051Y-40481452D02*
X163711074Y-40481284D01*
X356593760Y-117872645D02*
X356593760Y-121443684D01*
X158354486Y-35718948D02*
G75*
G03*
X153591982Y-35718948I-2381252J-1786682D01*
G01*
X367903478Y-121443852D02*
X370880043Y-116681516D01*
X224431681Y-35718780D02*
G75*
G03*
X223241147Y-34527819I-1190581J380D01*
G01*
X363139746Y-35718600D02*
X360163180Y-40481272D01*
X164901700Y-39290323D02*
X164901700Y-35718780D01*
X228006107Y-116681535D02*
X225626084Y-116681703D01*
X285748702Y-121445039D02*
G75*
G03*
X290512788Y-121443852I2381598J1787339D01*
G01*
X164905397Y-117872664D02*
G75*
G03*
X163714759Y-116681703I-1190597J364D01*
G01*
X153591982Y-35718948D02*
X150615417Y-40481452D01*
X163711074Y-40481300D02*
G75*
G03*
X164901700Y-39290323I26J1190600D01*
G01*
X356590075Y-35718600D02*
X356590075Y-39290143D01*
X230981795Y-121442335D02*
G75*
G03*
X235742719Y-121443517I2380905J1784635D01*
G01*
X225622399Y-40481284D02*
X228006107Y-40481452D01*
X297063716Y-117872645D02*
G75*
G03*
X295873061Y-116681684I-1190616J345D01*
G01*
X290512788Y-121443852D02*
X293489353Y-116681516D01*
X297060002Y-39290143D02*
X297060002Y-35718600D01*
X355400677Y-122636767D02*
X298254313Y-122634644D01*
X295873061Y-116681684D02*
X293489353Y-116681516D01*
X235743948Y-35718780D02*
X238721741Y-40481452D01*
X148972530Y-56006460D02*
X148972530Y-44006460D01*
X149972530Y-57006460D02*
X161972530Y-57006460D01*
X149972530Y-43006460D02*
X161972530Y-43006460D01*
X162972530Y-44006460D02*
X162972530Y-56006460D01*
X161972530Y-57006460D02*
G75*
G03*
X162972530Y-56006460I0J1000000D01*
G01*
X162972530Y-44006460D02*
G75*
G03*
X161972530Y-43006460I-1000000J0D01*
G01*
X148972530Y-56006460D02*
G75*
G03*
X149972530Y-57006460I999999J-1D01*
G01*
X149972530Y-43006460D02*
G75*
G03*
X148972530Y-44006460I-1J-999999D01*
G01*
X168022610Y-56006460D02*
X168022610Y-44006460D01*
X169022610Y-43006460D02*
X181022610Y-43006460D01*
X182022610Y-44006460D02*
X182022610Y-56006460D01*
X169022610Y-57006460D02*
X181022610Y-57006460D01*
X182022610Y-44006460D02*
G75*
G03*
X181022610Y-43006460I-1000000J0D01*
G01*
X168022610Y-56006460D02*
G75*
G03*
X169022610Y-57006460I999999J-1D01*
G01*
X181022610Y-57006460D02*
G75*
G03*
X182022610Y-56006460I0J1000000D01*
G01*
X169022610Y-43006460D02*
G75*
G03*
X168022610Y-44006460I-1J-999999D01*
G01*
X188072690Y-57006460D02*
X200072690Y-57006460D01*
X187072690Y-56006460D02*
X187072690Y-44006460D01*
X201072690Y-44006460D02*
X201072690Y-56006460D01*
X188072690Y-43006460D02*
X200072690Y-43006460D01*
X200072690Y-57006460D02*
G75*
G03*
X201072690Y-56006460I0J1000000D01*
G01*
X188072690Y-43006460D02*
G75*
G03*
X187072690Y-44006460I-1J-999999D01*
G01*
X187072690Y-56006460D02*
G75*
G03*
X188072690Y-57006460I999999J-1D01*
G01*
X201072690Y-44006460D02*
G75*
G03*
X200072690Y-43006460I-1000000J0D01*
G01*
X206122770Y-56006460D02*
X206122770Y-44006460D01*
X207122770Y-57006460D02*
X219122770Y-57006460D01*
X207122770Y-43006460D02*
X219122770Y-43006460D01*
X220122770Y-44006460D02*
X220122770Y-56006460D01*
X207122770Y-43006460D02*
G75*
G03*
X206122770Y-44006460I-1J-999999D01*
G01*
X219122770Y-57006460D02*
G75*
G03*
X220122770Y-56006460I0J1000000D01*
G01*
X220122770Y-44006460D02*
G75*
G03*
X219122770Y-43006460I-1000000J0D01*
G01*
X206122770Y-56006460D02*
G75*
G03*
X207122770Y-57006460I999999J-1D01*
G01*
X239172850Y-44006460D02*
X239172850Y-56006460D01*
X225172850Y-56006460D02*
X225172850Y-44006460D01*
X226172850Y-57006460D02*
X238172850Y-57006460D01*
X226172850Y-43006460D02*
X238172850Y-43006460D01*
X226172850Y-43006460D02*
G75*
G03*
X225172850Y-44006460I-1J-999999D01*
G01*
X225172850Y-56006460D02*
G75*
G03*
X226172850Y-57006460I999999J-1D01*
G01*
X239172850Y-44006460D02*
G75*
G03*
X238172850Y-43006460I-1000000J0D01*
G01*
X238172850Y-57006460D02*
G75*
G03*
X239172850Y-56006460I0J1000000D01*
G01*
X321423250Y-57006460D02*
X333423250Y-57006460D01*
X321423250Y-43006460D02*
X333423250Y-43006460D01*
X334423250Y-44006460D02*
X334423250Y-56006460D01*
X320423250Y-56006460D02*
X320423250Y-44006460D01*
X320423250Y-56006460D02*
G75*
G03*
X321423250Y-57006460I999999J-1D01*
G01*
X321423250Y-43006460D02*
G75*
G03*
X320423250Y-44006460I-1J-999999D01*
G01*
X334423250Y-44006460D02*
G75*
G03*
X333423250Y-43006460I-1000000J0D01*
G01*
X333423250Y-57006460D02*
G75*
G03*
X334423250Y-56006460I0J1000000D01*
G01*
X339473330Y-56006460D02*
X339473330Y-44006460D01*
X340473330Y-43006460D02*
X352473330Y-43006460D01*
X340473330Y-57006460D02*
X352473330Y-57006460D01*
X353473330Y-44006460D02*
X353473330Y-56006460D01*
X353473330Y-44006460D02*
G75*
G03*
X352473330Y-43006460I-1000000J0D01*
G01*
X339473330Y-56006460D02*
G75*
G03*
X340473330Y-57006460I999999J-1D01*
G01*
X352473330Y-57006460D02*
G75*
G03*
X353473330Y-56006460I0J1000000D01*
G01*
X340473330Y-43006460D02*
G75*
G03*
X339473330Y-44006460I-1J-999999D01*
G01*
X148972530Y-75056540D02*
X148972530Y-63056540D01*
X149972530Y-76056540D02*
X161972530Y-76056540D01*
X162972530Y-63056540D02*
X162972530Y-75056540D01*
X149972530Y-62056540D02*
X161972530Y-62056540D01*
X161972530Y-76056540D02*
G75*
G03*
X162972530Y-75056540I0J1000000D01*
G01*
X149972530Y-62056540D02*
G75*
G03*
X148972530Y-63056540I-1J-999999D01*
G01*
X148972530Y-75056540D02*
G75*
G03*
X149972530Y-76056540I999999J-1D01*
G01*
X162972530Y-63056540D02*
G75*
G03*
X161972530Y-62056540I-1000000J0D01*
G01*
X201072690Y-63056540D02*
X201072690Y-75056540D01*
X188072690Y-76056540D02*
X200072690Y-76056540D01*
X188072690Y-62056540D02*
X200072690Y-62056540D01*
X187072690Y-75056540D02*
X187072690Y-63056540D01*
X187072690Y-75056540D02*
G75*
G03*
X188072690Y-76056540I999999J-1D01*
G01*
X201072690Y-63056540D02*
G75*
G03*
X200072690Y-62056540I-1000000J0D01*
G01*
X200072690Y-76056540D02*
G75*
G03*
X201072690Y-75056540I0J1000000D01*
G01*
X188072690Y-62056540D02*
G75*
G03*
X187072690Y-63056540I-1J-999999D01*
G01*
X239172850Y-63056540D02*
X239172850Y-75056540D01*
X225172850Y-75056540D02*
X225172850Y-63056540D01*
X226172850Y-62056540D02*
X238172850Y-62056540D01*
X226172850Y-76056540D02*
X238172850Y-76056540D01*
X239172850Y-63056540D02*
G75*
G03*
X238172850Y-62056540I-1000000J0D01*
G01*
X226172850Y-62056540D02*
G75*
G03*
X225172850Y-63056540I-1J-999999D01*
G01*
X238172850Y-76056540D02*
G75*
G03*
X239172850Y-75056540I0J1000000D01*
G01*
X225172850Y-75056540D02*
G75*
G03*
X226172850Y-76056540I999999J-1D01*
G01*
X245222930Y-76056540D02*
X257222930Y-76056540D01*
X258222930Y-63056540D02*
X258222930Y-75056540D01*
X245222930Y-62056540D02*
X257222930Y-62056540D01*
X244222930Y-75056540D02*
X244222930Y-63056540D01*
X244222930Y-75056540D02*
G75*
G03*
X245222930Y-76056540I999999J-1D01*
G01*
X258222930Y-63056540D02*
G75*
G03*
X257222930Y-62056540I-1000000J0D01*
G01*
X245222930Y-62056540D02*
G75*
G03*
X244222930Y-63056540I-1J-999999D01*
G01*
X257222930Y-76056540D02*
G75*
G03*
X258222930Y-75056540I0J1000000D01*
G01*
X263273010Y-75056540D02*
X263273010Y-63056540D01*
X264273010Y-62056540D02*
X276273010Y-62056540D01*
X264273010Y-76056540D02*
X276273010Y-76056540D01*
X277273010Y-63056540D02*
X277273010Y-75056540D01*
X263273010Y-75056540D02*
G75*
G03*
X264273010Y-76056540I999999J-1D01*
G01*
X264273010Y-62056540D02*
G75*
G03*
X263273010Y-63056540I-1J-999999D01*
G01*
X276273010Y-76056540D02*
G75*
G03*
X277273010Y-75056540I0J1000000D01*
G01*
X277273010Y-63056540D02*
G75*
G03*
X276273010Y-62056540I-1000000J0D01*
G01*
X296323090Y-63056540D02*
X296323090Y-75056540D01*
X283323090Y-76056540D02*
X295323090Y-76056540D01*
X283323090Y-62056540D02*
X295323090Y-62056540D01*
X282323090Y-75056540D02*
X282323090Y-63056540D01*
X282323090Y-75056540D02*
G75*
G03*
X283323090Y-76056540I999999J-1D01*
G01*
X283323090Y-62056540D02*
G75*
G03*
X282323090Y-63056540I-1J-999999D01*
G01*
X296323090Y-63056540D02*
G75*
G03*
X295323090Y-62056540I-1000000J0D01*
G01*
X295323090Y-76056540D02*
G75*
G03*
X296323090Y-75056540I0J1000000D01*
G01*
X315373170Y-63056540D02*
X315373170Y-75056540D01*
X301373170Y-75056540D02*
X301373170Y-63056540D01*
X302373170Y-76056540D02*
X314373170Y-76056540D01*
X302373170Y-62056540D02*
X314373170Y-62056540D01*
X302373170Y-62056540D02*
G75*
G03*
X301373170Y-63056540I-1J-999999D01*
G01*
X301373170Y-75056540D02*
G75*
G03*
X302373170Y-76056540I999999J-1D01*
G01*
X314373170Y-76056540D02*
G75*
G03*
X315373170Y-75056540I0J1000000D01*
G01*
X315373170Y-63056540D02*
G75*
G03*
X314373170Y-62056540I-1000000J0D01*
G01*
X321423250Y-76056540D02*
X333423250Y-76056540D01*
X334423250Y-63056540D02*
X334423250Y-75056540D01*
X321423250Y-62056540D02*
X333423250Y-62056540D01*
X320423250Y-75056540D02*
X320423250Y-63056540D01*
X321423250Y-62056540D02*
G75*
G03*
X320423250Y-63056540I-1J-999999D01*
G01*
X334423250Y-63056540D02*
G75*
G03*
X333423250Y-62056540I-1000000J0D01*
G01*
X333423250Y-76056540D02*
G75*
G03*
X334423250Y-75056540I0J1000000D01*
G01*
X320423250Y-75056540D02*
G75*
G03*
X321423250Y-76056540I999999J-1D01*
G01*
X340473330Y-62056540D02*
X352473330Y-62056540D01*
X339473330Y-75056540D02*
X339473330Y-63056540D01*
X353473330Y-63056540D02*
X353473330Y-75056540D01*
X340473330Y-76056540D02*
X352473330Y-76056540D01*
X353473330Y-63056540D02*
G75*
G03*
X352473330Y-62056540I-1000000J0D01*
G01*
X352473330Y-76056540D02*
G75*
G03*
X353473330Y-75056540I0J1000000D01*
G01*
X339473330Y-75056540D02*
G75*
G03*
X340473330Y-76056540I999999J-1D01*
G01*
X340473330Y-62056540D02*
G75*
G03*
X339473330Y-63056540I-1J-999999D01*
G01*
X358523410Y-75056540D02*
X358523410Y-63056540D01*
X359523410Y-76056540D02*
X371523410Y-76056540D01*
X372523410Y-63056540D02*
X372523410Y-75056540D01*
X359523410Y-62056540D02*
X371523410Y-62056540D01*
X358523410Y-75056540D02*
G75*
G03*
X359523410Y-76056540I999999J-1D01*
G01*
X359523410Y-62056540D02*
G75*
G03*
X358523410Y-63056540I-1J-999999D01*
G01*
X372523410Y-63056540D02*
G75*
G03*
X371523410Y-62056540I-1000000J0D01*
G01*
X371523410Y-76056540D02*
G75*
G03*
X372523410Y-75056540I0J1000000D01*
G01*
X162972530Y-82106620D02*
X162972530Y-94106620D01*
X148972530Y-94106620D02*
X148972530Y-82106620D01*
X149972530Y-81106620D02*
X161972530Y-81106620D01*
X149972530Y-95106620D02*
X161972530Y-95106620D01*
X148972530Y-94106620D02*
G75*
G03*
X149972530Y-95106620I999999J-1D01*
G01*
X162972530Y-82106620D02*
G75*
G03*
X161972530Y-81106620I-1000000J0D01*
G01*
X161972530Y-95106620D02*
G75*
G03*
X162972530Y-94106620I0J1000000D01*
G01*
X149972530Y-81106620D02*
G75*
G03*
X148972530Y-82106620I-1J-999999D01*
G01*
X169022610Y-81106620D02*
X181022610Y-81106620D01*
X169022610Y-95106620D02*
X181022610Y-95106620D01*
X168022610Y-94106620D02*
X168022610Y-82106620D01*
X182022610Y-82106620D02*
X182022610Y-94106620D01*
X181022610Y-95106620D02*
G75*
G03*
X182022610Y-94106620I0J1000000D01*
G01*
X168022610Y-94106620D02*
G75*
G03*
X169022610Y-95106620I999999J-1D01*
G01*
X182022610Y-82106620D02*
G75*
G03*
X181022610Y-81106620I-1000000J0D01*
G01*
X169022610Y-81106620D02*
G75*
G03*
X168022610Y-82106620I-1J-999999D01*
G01*
X187072690Y-94106620D02*
X187072690Y-82106620D01*
X201072690Y-82106620D02*
X201072690Y-94106620D01*
X188072690Y-81106620D02*
X200072690Y-81106620D01*
X188072690Y-95106620D02*
X200072690Y-95106620D01*
X187072690Y-94106620D02*
G75*
G03*
X188072690Y-95106620I999999J-1D01*
G01*
X188072690Y-81106620D02*
G75*
G03*
X187072690Y-82106620I-1J-999999D01*
G01*
X201072690Y-82106620D02*
G75*
G03*
X200072690Y-81106620I-1000000J0D01*
G01*
X200072690Y-95106620D02*
G75*
G03*
X201072690Y-94106620I0J1000000D01*
G01*
X207122770Y-95106620D02*
X219122770Y-95106620D01*
X206122770Y-94106620D02*
X206122770Y-82106620D01*
X220122770Y-82106620D02*
X220122770Y-94106620D01*
X207122770Y-81106620D02*
X219122770Y-81106620D01*
X220122770Y-82106620D02*
G75*
G03*
X219122770Y-81106620I-1000000J0D01*
G01*
X219122770Y-95106620D02*
G75*
G03*
X220122770Y-94106620I0J1000000D01*
G01*
X206122770Y-94106620D02*
G75*
G03*
X207122770Y-95106620I999999J-1D01*
G01*
X207122770Y-81106620D02*
G75*
G03*
X206122770Y-82106620I-1J-999999D01*
G01*
X226172850Y-81106620D02*
X238172850Y-81106620D01*
X225172850Y-94106620D02*
X225172850Y-82106620D01*
X226172850Y-95106620D02*
X238172850Y-95106620D01*
X239172850Y-82106620D02*
X239172850Y-94106620D01*
X238172850Y-95106620D02*
G75*
G03*
X239172850Y-94106620I0J1000000D01*
G01*
X225172850Y-94106620D02*
G75*
G03*
X226172850Y-95106620I999999J-1D01*
G01*
X239172850Y-82106620D02*
G75*
G03*
X238172850Y-81106620I-1000000J0D01*
G01*
X226172850Y-81106620D02*
G75*
G03*
X225172850Y-82106620I-1J-999999D01*
G01*
X245222930Y-81106620D02*
X257222930Y-81106620D01*
X245222930Y-95106620D02*
X257222930Y-95106620D01*
X244222930Y-94106620D02*
X244222930Y-82106620D01*
X258222930Y-82106620D02*
X258222930Y-94106620D01*
X258222930Y-82106620D02*
G75*
G03*
X257222930Y-81106620I-1000000J0D01*
G01*
X244222930Y-94106620D02*
G75*
G03*
X245222930Y-95106620I999999J-1D01*
G01*
X245222930Y-81106620D02*
G75*
G03*
X244222930Y-82106620I-1J-999999D01*
G01*
X257222930Y-95106620D02*
G75*
G03*
X258222930Y-94106620I0J1000000D01*
G01*
X264273010Y-81106620D02*
X276273010Y-81106620D01*
X277273010Y-82106620D02*
X277273010Y-94106620D01*
X263273010Y-94106620D02*
X263273010Y-82106620D01*
X264273010Y-95106620D02*
X276273010Y-95106620D01*
X277273010Y-82106620D02*
G75*
G03*
X276273010Y-81106620I-1000000J0D01*
G01*
X263273010Y-94106620D02*
G75*
G03*
X264273010Y-95106620I999999J-1D01*
G01*
X264273010Y-81106620D02*
G75*
G03*
X263273010Y-82106620I-1J-999999D01*
G01*
X276273010Y-95106620D02*
G75*
G03*
X277273010Y-94106620I0J1000000D01*
G01*
X282323090Y-94106620D02*
X282323090Y-82106620D01*
X296323090Y-82106620D02*
X296323090Y-94106620D01*
X283323090Y-95106620D02*
X295323090Y-95106620D01*
X283323090Y-81106620D02*
X295323090Y-81106620D01*
X282323090Y-94106620D02*
G75*
G03*
X283323090Y-95106620I999999J-1D01*
G01*
X283323090Y-81106620D02*
G75*
G03*
X282323090Y-82106620I-1J-999999D01*
G01*
X295323090Y-95106620D02*
G75*
G03*
X296323090Y-94106620I0J1000000D01*
G01*
X296323090Y-82106620D02*
G75*
G03*
X295323090Y-81106620I-1000000J0D01*
G01*
X302373170Y-81106620D02*
X314373170Y-81106620D01*
X302373170Y-95106620D02*
X314373170Y-95106620D01*
X315373170Y-82106620D02*
X315373170Y-94106620D01*
X301373170Y-94106620D02*
X301373170Y-82106620D01*
X302373170Y-81106620D02*
G75*
G03*
X301373170Y-82106620I-1J-999999D01*
G01*
X315373170Y-82106620D02*
G75*
G03*
X314373170Y-81106620I-1000000J0D01*
G01*
X301373170Y-94106620D02*
G75*
G03*
X302373170Y-95106620I999999J-1D01*
G01*
X314373170Y-95106620D02*
G75*
G03*
X315373170Y-94106620I0J1000000D01*
G01*
X321423250Y-81106620D02*
X333423250Y-81106620D01*
X321423250Y-95106620D02*
X333423250Y-95106620D01*
X320423250Y-94106620D02*
X320423250Y-82106620D01*
X334423250Y-82106620D02*
X334423250Y-94106620D01*
X334423250Y-82106620D02*
G75*
G03*
X333423250Y-81106620I-1000000J0D01*
G01*
X321423250Y-81106620D02*
G75*
G03*
X320423250Y-82106620I-1J-999999D01*
G01*
X333423250Y-95106620D02*
G75*
G03*
X334423250Y-94106620I0J1000000D01*
G01*
X320423250Y-94106620D02*
G75*
G03*
X321423250Y-95106620I999999J-1D01*
G01*
X353473330Y-82106620D02*
X353473330Y-94106620D01*
X340473330Y-95106620D02*
X352473330Y-95106620D01*
X339473330Y-94106620D02*
X339473330Y-82106620D01*
X340473330Y-81106620D02*
X352473330Y-81106620D01*
X352473330Y-95106620D02*
G75*
G03*
X353473330Y-94106620I0J1000000D01*
G01*
X340473330Y-81106620D02*
G75*
G03*
X339473330Y-82106620I-1J-999999D01*
G01*
X353473330Y-82106620D02*
G75*
G03*
X352473330Y-81106620I-1000000J0D01*
G01*
X339473330Y-94106620D02*
G75*
G03*
X340473330Y-95106620I999999J-1D01*
G01*
X372523410Y-82106620D02*
X372523410Y-94106620D01*
X358523410Y-94106620D02*
X358523410Y-82106620D01*
X359523410Y-81106620D02*
X371523410Y-81106620D01*
X359523410Y-95106620D02*
X371523410Y-95106620D01*
X371523410Y-95106620D02*
G75*
G03*
X372523410Y-94106620I0J1000000D01*
G01*
X359523410Y-81106620D02*
G75*
G03*
X358523410Y-82106620I-1J-999999D01*
G01*
X358523410Y-94106620D02*
G75*
G03*
X359523410Y-95106620I999999J-1D01*
G01*
X372523410Y-82106620D02*
G75*
G03*
X371523410Y-81106620I-1000000J0D01*
G01*
X182022610Y-101156700D02*
X182022610Y-113156700D01*
X169022610Y-114156700D02*
X181022610Y-114156700D01*
X169022610Y-100156700D02*
X181022610Y-100156700D01*
X168022610Y-113156700D02*
X168022610Y-101156700D01*
X182022610Y-101156700D02*
G75*
G03*
X181022610Y-100156700I-1000000J0D01*
G01*
X169022610Y-100156700D02*
G75*
G03*
X168022610Y-101156700I-1J-999999D01*
G01*
X181022610Y-114156700D02*
G75*
G03*
X182022610Y-113156700I0J1000000D01*
G01*
X168022610Y-113156700D02*
G75*
G03*
X169022610Y-114156700I999999J-1D01*
G01*
X187072690Y-113156700D02*
X187072690Y-101156700D01*
X188072690Y-114156700D02*
X200072690Y-114156700D01*
X188072690Y-100156700D02*
X200072690Y-100156700D01*
X201072690Y-101156700D02*
X201072690Y-113156700D01*
X188072690Y-100156700D02*
G75*
G03*
X187072690Y-101156700I-1J-999999D01*
G01*
X187072690Y-113156700D02*
G75*
G03*
X188072690Y-114156700I999999J-1D01*
G01*
X200072690Y-114156700D02*
G75*
G03*
X201072690Y-113156700I0J1000000D01*
G01*
X201072690Y-101156700D02*
G75*
G03*
X200072690Y-100156700I-1000000J0D01*
G01*
X207122770Y-100156700D02*
X219122770Y-100156700D01*
X206122770Y-113156700D02*
X206122770Y-101156700D01*
X220122770Y-101156700D02*
X220122770Y-113156700D01*
X207122770Y-114156700D02*
X219122770Y-114156700D01*
X219122770Y-114156700D02*
G75*
G03*
X220122770Y-113156700I0J1000000D01*
G01*
X207122770Y-100156700D02*
G75*
G03*
X206122770Y-101156700I-1J-999999D01*
G01*
X206122770Y-113156700D02*
G75*
G03*
X207122770Y-114156700I999999J-1D01*
G01*
X220122770Y-101156700D02*
G75*
G03*
X219122770Y-100156700I-1000000J0D01*
G01*
X226172850Y-100156700D02*
X238172850Y-100156700D01*
X225172850Y-113156700D02*
X225172850Y-101156700D01*
X226172850Y-114156700D02*
X238172850Y-114156700D01*
X239172850Y-101156700D02*
X239172850Y-113156700D01*
X239172850Y-101156700D02*
G75*
G03*
X238172850Y-100156700I-1000000J0D01*
G01*
X225172850Y-113156700D02*
G75*
G03*
X226172850Y-114156700I999999J-1D01*
G01*
X226172850Y-100156700D02*
G75*
G03*
X225172850Y-101156700I-1J-999999D01*
G01*
X238172850Y-114156700D02*
G75*
G03*
X239172850Y-113156700I0J1000000D01*
G01*
X245222930Y-100156700D02*
X257222930Y-100156700D01*
X258222930Y-101156700D02*
X258222930Y-113156700D01*
X244222930Y-113156700D02*
X244222930Y-101156700D01*
X245222930Y-114156700D02*
X257222930Y-114156700D01*
X258222930Y-101156700D02*
G75*
G03*
X257222930Y-100156700I-1000000J0D01*
G01*
X245222930Y-100156700D02*
G75*
G03*
X244222930Y-101156700I-1J-999999D01*
G01*
X244222930Y-113156700D02*
G75*
G03*
X245222930Y-114156700I999999J-1D01*
G01*
X257222930Y-114156700D02*
G75*
G03*
X258222930Y-113156700I0J1000000D01*
G01*
X264273010Y-114156700D02*
X276273010Y-114156700D01*
X263273010Y-113156700D02*
X263273010Y-101156700D01*
X264273010Y-100156700D02*
X276273010Y-100156700D01*
X277273010Y-101156700D02*
X277273010Y-113156700D01*
X263273010Y-113156700D02*
G75*
G03*
X264273010Y-114156700I999999J-1D01*
G01*
X277273010Y-101156700D02*
G75*
G03*
X276273010Y-100156700I-1000000J0D01*
G01*
X276273010Y-114156700D02*
G75*
G03*
X277273010Y-113156700I0J1000000D01*
G01*
X264273010Y-100156700D02*
G75*
G03*
X263273010Y-101156700I-1J-999999D01*
G01*
X282323090Y-113156700D02*
X282323090Y-101156700D01*
X296323090Y-101156700D02*
X296323090Y-113156700D01*
X283323090Y-114156700D02*
X295323090Y-114156700D01*
X283323090Y-100156700D02*
X295323090Y-100156700D01*
X282323090Y-113156700D02*
G75*
G03*
X283323090Y-114156700I999999J-1D01*
G01*
X295323090Y-114156700D02*
G75*
G03*
X296323090Y-113156700I0J1000000D01*
G01*
X296323090Y-101156700D02*
G75*
G03*
X295323090Y-100156700I-1000000J0D01*
G01*
X283323090Y-100156700D02*
G75*
G03*
X282323090Y-101156700I-1J-999999D01*
G01*
X302373170Y-100156700D02*
X314373170Y-100156700D01*
X302373170Y-114156700D02*
X314373170Y-114156700D01*
X315373170Y-101156700D02*
X315373170Y-113156700D01*
X301373170Y-113156700D02*
X301373170Y-101156700D01*
X315373170Y-101156700D02*
G75*
G03*
X314373170Y-100156700I-1000000J0D01*
G01*
X301373170Y-113156700D02*
G75*
G03*
X302373170Y-114156700I999999J-1D01*
G01*
X314373170Y-114156700D02*
G75*
G03*
X315373170Y-113156700I0J1000000D01*
G01*
X302373170Y-100156700D02*
G75*
G03*
X301373170Y-101156700I-1J-999999D01*
G01*
X320423250Y-113156700D02*
X320423250Y-101156700D01*
X334423250Y-101156700D02*
X334423250Y-113156700D01*
X321423250Y-114156700D02*
X333423250Y-114156700D01*
X321423250Y-100156700D02*
X333423250Y-100156700D01*
X333423250Y-114156700D02*
G75*
G03*
X334423250Y-113156700I0J1000000D01*
G01*
X321423250Y-100156700D02*
G75*
G03*
X320423250Y-101156700I-1J-999999D01*
G01*
X320423250Y-113156700D02*
G75*
G03*
X321423250Y-114156700I999999J-1D01*
G01*
X334423250Y-101156700D02*
G75*
G03*
X333423250Y-100156700I-1000000J0D01*
G01*
X340473330Y-114160000D02*
X352473330Y-114160000D01*
X353473330Y-101160000D02*
X353473330Y-113160000D01*
X340473330Y-100160000D02*
X352473330Y-100160000D01*
X339473330Y-113160000D02*
X339473330Y-101160000D01*
X340473330Y-100160000D02*
G75*
G03*
X339473330Y-101160000I-1J-999999D01*
G01*
X353473330Y-101160000D02*
G75*
G03*
X352473330Y-100160000I-1000000J0D01*
G01*
X339473330Y-113160000D02*
G75*
G03*
X340473330Y-114160000I999999J-1D01*
G01*
X352473330Y-114160000D02*
G75*
G03*
X353473330Y-113160000I0J1000000D01*
G01*
X359523410Y-100156700D02*
X371523410Y-100156700D01*
X359523410Y-114156700D02*
X371523410Y-114156700D01*
X358523410Y-113156700D02*
X358523410Y-101156700D01*
X372523410Y-101156700D02*
X372523410Y-113156700D01*
X371523410Y-114156700D02*
G75*
G03*
X372523410Y-113156700I0J1000000D01*
G01*
X372523410Y-101156700D02*
G75*
G03*
X371523410Y-100156700I-1000000J0D01*
G01*
X359523410Y-100156700D02*
G75*
G03*
X358523410Y-101156700I-1J-999999D01*
G01*
X358523410Y-113156700D02*
G75*
G03*
X359523410Y-114156700I999999J-1D01*
G01*
X149972530Y-114156700D02*
X161972530Y-114156700D01*
X149972530Y-100156700D02*
X161972530Y-100156700D01*
X162972530Y-101156700D02*
X162972530Y-113156700D01*
X148972530Y-113156700D02*
X148972530Y-101156700D01*
X162972530Y-101156700D02*
G75*
G03*
X161972530Y-100156700I-1000000J0D01*
G01*
X148972530Y-113156700D02*
G75*
G03*
X149972530Y-114156700I999999J-1D01*
G01*
X149972530Y-100156700D02*
G75*
G03*
X148972530Y-101156700I-1J-999999D01*
G01*
X161972530Y-114156700D02*
G75*
G03*
X162972530Y-113156700I0J1000000D01*
G01*
X182022610Y-63056540D02*
X182022610Y-75056540D01*
X169022610Y-62056540D02*
X181022610Y-62056540D01*
X169022610Y-76056540D02*
X181022610Y-76056540D01*
X168022610Y-75056540D02*
X168022610Y-63056540D01*
X169022610Y-62056540D02*
G75*
G03*
X168022610Y-63056540I-1J-999999D01*
G01*
X182022610Y-63056540D02*
G75*
G03*
X181022610Y-62056540I-1000000J0D01*
G01*
X168022610Y-75056540D02*
G75*
G03*
X169022610Y-76056540I999999J-1D01*
G01*
X181022610Y-76056540D02*
G75*
G03*
X182022610Y-75056540I0J1000000D01*
G01*
X358523410Y-56006460D02*
X358523410Y-44006460D01*
X359523410Y-57006460D02*
X371523410Y-57006460D01*
X372523410Y-44006460D02*
X372523410Y-56006460D01*
X359523410Y-43006460D02*
X371523410Y-43006460D01*
X358523410Y-56006460D02*
G75*
G03*
X359523410Y-57006460I999999J-1D01*
G01*
X359523410Y-43006460D02*
G75*
G03*
X358523410Y-44006460I-1J-999999D01*
G01*
X371523410Y-57006460D02*
G75*
G03*
X372523410Y-56006460I0J1000000D01*
G01*
X372523410Y-44006460D02*
G75*
G03*
X371523410Y-43006460I-1000000J0D01*
G01*
X207122770Y-62056540D02*
X219122770Y-62056540D01*
X207122770Y-76056540D02*
X219122770Y-76056540D01*
X206122770Y-75056540D02*
X206122770Y-63056540D01*
X220122770Y-63056540D02*
X220122770Y-75056540D01*
X219122770Y-76056540D02*
G75*
G03*
X220122770Y-75056540I0J1000000D01*
G01*
X207122770Y-62056540D02*
G75*
G03*
X206122770Y-63056540I-1J-999999D01*
G01*
X220122770Y-63056540D02*
G75*
G03*
X219122770Y-62056540I-1000000J0D01*
G01*
X206122770Y-75056540D02*
G75*
G03*
X207122770Y-76056540I999999J-1D01*
G01*
X245223314Y-43006460D02*
X257223314Y-43006460D01*
X244223314Y-56006460D02*
X244223314Y-44006460D01*
X245223314Y-57006460D02*
X257223314Y-57006460D01*
X258223314Y-44006460D02*
X258223314Y-56006460D01*
X258223314Y-44006460D02*
G75*
G03*
X257223314Y-43006460I-1000000J0D01*
G01*
X257223314Y-57006460D02*
G75*
G03*
X258223314Y-56006460I0J1000000D01*
G01*
X244223314Y-56006460D02*
G75*
G03*
X245223314Y-57006460I999999J-1D01*
G01*
X245223314Y-43006460D02*
G75*
G03*
X244223314Y-44006460I-1J-999999D01*
G01*
X264273330Y-57006460D02*
X276273330Y-57006460D01*
X277273330Y-44006460D02*
X277273330Y-56006460D01*
X263273330Y-56006460D02*
X263273330Y-44006460D01*
X264273330Y-43006460D02*
X276273330Y-43006460D01*
X276273330Y-57006460D02*
G75*
G03*
X277273330Y-56006460I0J1000000D01*
G01*
X264273330Y-43006460D02*
G75*
G03*
X263273330Y-44006460I-1J-999999D01*
G01*
X277273330Y-44006460D02*
G75*
G03*
X276273330Y-43006460I-1000000J0D01*
G01*
X263273330Y-56006460D02*
G75*
G03*
X264273330Y-57006460I999999J-1D01*
G01*
X283323346Y-43006460D02*
X295323346Y-43006460D01*
X282323346Y-56006460D02*
X282323346Y-44006460D01*
X296323346Y-44006460D02*
X296323346Y-56006460D01*
X283323346Y-57006460D02*
X295323346Y-57006460D01*
X295323346Y-57006460D02*
G75*
G03*
X296323346Y-56006460I0J1000000D01*
G01*
X283323346Y-43006460D02*
G75*
G03*
X282323346Y-44006460I-1J-999999D01*
G01*
X296323346Y-44006460D02*
G75*
G03*
X295323346Y-43006460I-1000000J0D01*
G01*
X282323346Y-56006460D02*
G75*
G03*
X283323346Y-57006460I999999J-1D01*
G01*
X302373362Y-43006460D02*
X314373362Y-43006460D01*
X315373362Y-44006460D02*
X315373362Y-56006460D01*
X302373362Y-57006460D02*
X314373362Y-57006460D01*
X301373362Y-56006460D02*
X301373362Y-44006460D01*
X302373362Y-43006460D02*
G75*
G03*
X301373362Y-44006460I-1J-999999D01*
G01*
X315373362Y-44006460D02*
G75*
G03*
X314373362Y-43006460I-1000000J0D01*
G01*
X301373362Y-56006460D02*
G75*
G03*
X302373362Y-57006460I999999J-1D01*
G01*
X314373362Y-57006460D02*
G75*
G03*
X315373362Y-56006460I0J1000000D01*
G01*
M02*
