G04 #@! TF.GenerationSoftware,KiCad,Pcbnew,(5.1.2-1)-1*
G04 #@! TF.CreationDate,2020-07-22T22:24:17-05:00*
G04 #@! TF.ProjectId,Ori,4f72692e-6b69-4636-9164-5f7063625858,rev?*
G04 #@! TF.SameCoordinates,Original*
G04 #@! TF.FileFunction,Profile,NP*
%FSLAX46Y46*%
G04 Gerber Fmt 4.6, Leading zero omitted, Abs format (unit mm)*
G04 Created by KiCad (PCBNEW (5.1.2-1)-1) date 2020-07-22 22:24:17*
%MOMM*%
%LPD*%
G04 APERTURE LIST*
%ADD10C,0.050000*%
G04 APERTURE END LIST*
D10*
X304760004Y-58039000D02*
X304759999Y-47500002D01*
X306280000Y-115899820D02*
G75*
G03X309320000Y-118939820I3040000J0D01*
G01*
X309320000Y-44460000D02*
G75*
G03X306280000Y-47500000I0J-3040000D01*
G01*
X304759647Y-115900125D02*
X304760004Y-105410000D01*
X306280000Y-58039000D02*
X306280000Y-47500000D01*
X306280000Y-115899820D02*
X306280000Y-105410000D01*
X309319992Y-118939812D02*
X327179929Y-118939812D01*
X306280000Y-105410000D02*
G75*
G03X304760004Y-105410000I-759998J0D01*
G01*
X304760004Y-58039000D02*
G75*
G03X306280000Y-58039000I759998J0D01*
G01*
X306319996Y-67310000D02*
G75*
G03X304800000Y-67310000I-759998J0D01*
G01*
X304760004Y-96012000D02*
G75*
G03X306280000Y-96012000I759998J0D01*
G01*
X304800000Y-67310000D02*
X304760004Y-96012000D01*
X306319996Y-67310000D02*
X306280000Y-96012000D01*
X330219945Y-47500008D02*
G75*
G03X327179945Y-44460008I-3040000J0D01*
G01*
X327179929Y-118939812D02*
G75*
G03X330219929Y-115899812I0J3040000D01*
G01*
X327179945Y-44460008D02*
X309320000Y-44460000D01*
X330219929Y-115899812D02*
X330219945Y-47500008D01*
X52819717Y-115899689D02*
X52819701Y-47499885D01*
X55859701Y-44459885D02*
X73719646Y-44459877D01*
X55859717Y-118939689D02*
G75*
G02X52819717Y-115899689I0J3040000D01*
G01*
X52819701Y-47499885D02*
G75*
G02X55859701Y-44459885I3040000J0D01*
G01*
X76759646Y-67310000D02*
X76759646Y-96012000D01*
X78279642Y-67310000D02*
X78279642Y-96012000D01*
X78279642Y-96012000D02*
G75*
G02X76759646Y-96012000I-759998J0D01*
G01*
X76759646Y-67310000D02*
G75*
G02X78279642Y-67310000I759998J0D01*
G01*
X78279642Y-58039000D02*
G75*
G02X76759646Y-58039000I-759998J0D01*
G01*
X76759646Y-105410000D02*
G75*
G02X78279642Y-105410000I759998J0D01*
G01*
X73719654Y-118939689D02*
X55859717Y-118939689D01*
X76759646Y-115899697D02*
X76759646Y-105410000D01*
X78279999Y-47498752D02*
X78279642Y-58039000D01*
X76759646Y-58039000D02*
X76759646Y-47499877D01*
X78279999Y-115900002D02*
X78279642Y-105410000D01*
X110440019Y-43906302D02*
X110440043Y-43941818D01*
X120597479Y-43941818D02*
X120597479Y-43906302D01*
X110440043Y-43941818D02*
G75*
G02X109921859Y-44460002I-518184J0D01*
G01*
X121115663Y-44460002D02*
G75*
G02X120597479Y-43941818I0J518184D01*
G01*
X111217259Y-43129062D02*
X119820239Y-43129062D01*
X110440019Y-43906302D02*
G75*
G02X111217259Y-43129062I777240J0D01*
G01*
X119820239Y-43129062D02*
G75*
G02X120597479Y-43906302I0J-777240D01*
G01*
X304759999Y-115900002D02*
G75*
G02X301719999Y-118940002I-3040000J0D01*
G01*
X301719999Y-44460002D02*
G75*
G02X304759999Y-47500002I0J-3040000D01*
G01*
X81319999Y-118940002D02*
G75*
G02X78279999Y-115900002I0J3040000D01*
G01*
X78279999Y-47498752D02*
G75*
G02X81319999Y-44458752I3040000J0D01*
G01*
X73719646Y-44459877D02*
G75*
G02X76759646Y-47499877I0J-3040000D01*
G01*
X76759646Y-115899697D02*
G75*
G02X73719646Y-118939697I-3040000J0D01*
G01*
X109921859Y-44460002D02*
X81319999Y-44458752D01*
X81319999Y-118940002D02*
X301719999Y-118940002D01*
X301719999Y-44461252D02*
X121115663Y-44460002D01*
M02*
