M48
; DRILL file {KiCad (5.1.2-1)-1} date Sunday, July 26, 2020 at 10:55:13 AM
; FORMAT={-:-/ absolute / inch / decimal}
; #@! TF.CreationDate,2020-07-26T10:55:13-05:00
; #@! TF.GenerationSoftware,Kicad,Pcbnew,(5.1.2-1)-1
; #@! TF.FileFunction,NonPlated,1,2,NPTH
FMAT,2
INCH
T1C0.0256
T2C0.0315
T3C0.0670
T4C0.1570
%
G90
G05
T1
X4.4343Y-1.8842
X4.6618Y-1.8842
T2
X11.9835Y-3.8446
X11.9835Y-3.9046
X11.9835Y-3.9646
X11.9835Y-4.0246
X11.9835Y-4.0846
X11.9835Y-2.3485
X11.9835Y-2.4085
X11.9835Y-2.4685
X11.9835Y-2.5285
X11.9835Y-2.5885
X3.0969Y-2.3485
X3.0969Y-2.4085
X3.0969Y-2.4685
X3.0969Y-2.5285
X3.0969Y-2.5885
X3.0969Y-3.8446
X3.0969Y-3.9046
X3.0969Y-3.9646
X3.0969Y-4.0246
X3.0969Y-4.0846
T3
X9.2102Y-4.3386
X9.6102Y-4.3386
X7.7141Y-3.5905
X8.1141Y-3.5905
X6.2181Y-2.0945
X6.6181Y-2.0945
X3.226Y-4.3386
X3.626Y-4.3386
X2.2236Y-3.5905
X2.6236Y-3.5905
X2.2236Y-2.8425
X2.6236Y-2.8425
X6.2181Y-4.3386
X6.6181Y-4.3386
X9.2102Y-2.8425
X9.6102Y-2.8425
X9.2102Y-3.5905
X9.6102Y-3.5905
X9.9582Y-2.8425
X10.3582Y-2.8425
X9.9582Y-2.0945
X10.3582Y-2.0945
X6.9661Y-2.0945
X7.3661Y-2.0945
X4.722Y-2.8425
X5.122Y-2.8425
X12.4567Y-4.3386
X12.8567Y-4.3386
X3.226Y-3.5906
X3.626Y-3.5906
X7.7141Y-4.3386
X8.1141Y-4.3386
X3.974Y-4.3386
X4.374Y-4.3386
X6.2181Y-3.5905
X6.6181Y-3.5905
X7.7141Y-2.0945
X8.1141Y-2.0945
X6.9661Y-4.3386
X7.3661Y-4.3386
X9.9582Y-4.3386
X10.3582Y-4.3386
X3.226Y-2.0945
X3.626Y-2.0945
X9.9582Y-3.5905
X10.3582Y-3.5905
X10.7063Y-2.0945
X11.1063Y-2.0945
X3.974Y-2.8425
X4.374Y-2.8425
X12.4567Y-2.0945
X12.8567Y-2.0945
X2.2236Y-4.3386
X2.6236Y-4.3386
X5.4701Y-2.8425
X5.8701Y-2.8425
X6.2181Y-2.8425
X6.6181Y-2.8425
X8.4622Y-2.0945
X8.8622Y-2.0945
X3.974Y-3.5906
X4.374Y-3.5906
X11.4543Y-3.5905
X11.8543Y-3.5905
X3.974Y-2.0945
X4.374Y-2.0945
X10.7063Y-2.8425
X11.1063Y-2.8425
X2.2236Y-2.0945
X2.6236Y-2.0945
X6.9661Y-3.5905
X7.3661Y-3.5905
X6.9661Y-2.8425
X7.3661Y-2.8425
X4.722Y-4.3386
X5.122Y-4.3386
X4.722Y-2.0945
X5.122Y-2.0945
X8.4622Y-4.3386
X8.8622Y-4.3386
X10.7063Y-4.3386
X11.1063Y-4.3386
X12.4567Y-2.8425
X12.8567Y-2.8425
X11.4543Y-2.8425
X11.8543Y-2.8425
X10.7063Y-3.5905
X11.1063Y-3.5905
X9.2102Y-2.0945
X9.6102Y-2.0945
X11.4543Y-2.0945
X11.8543Y-2.0945
X7.7141Y-2.8425
X8.1141Y-2.8425
X4.722Y-3.5906
X5.122Y-3.5906
X11.4543Y-4.3386
X11.8543Y-4.3386
X5.4701Y-4.3386
X5.8701Y-4.3386
X8.4622Y-3.5906
X8.8622Y-3.5906
X5.4701Y-2.0945
X5.8701Y-2.0945
X12.4567Y-3.5905
X12.8567Y-3.5905
X3.226Y-2.8425
X3.626Y-2.8425
X8.4612Y-2.843
X8.8612Y-2.843
X5.4701Y-3.5905
X5.8701Y-3.5905
T4
X9.4102Y-2.8425
X9.4102Y-3.5905
X10.1582Y-2.8425
X10.1582Y-2.0945
X7.1661Y-2.0945
X4.922Y-2.8425
X12.6567Y-4.3386
X3.426Y-3.5906
X7.9141Y-4.3386
X4.174Y-4.3386
X6.4181Y-3.5905
X7.9141Y-2.0945
X7.1661Y-4.3386
X10.1582Y-4.3386
X3.426Y-2.0945
X10.1582Y-3.5905
X10.9063Y-2.0945
X4.174Y-2.8425
X12.6567Y-2.0945
X2.4236Y-4.3386
X5.6701Y-2.8425
X6.4181Y-2.8425
X8.6622Y-2.0945
X4.174Y-3.5906
X11.6543Y-3.5905
X4.174Y-2.0945
X10.9063Y-2.8425
X2.4236Y-2.0945
X7.1661Y-3.5905
X7.1661Y-2.8425
X4.922Y-4.3386
X4.922Y-2.0945
X8.6622Y-4.3386
X10.9063Y-4.3386
X12.6567Y-2.8425
X11.6543Y-2.8425
X10.9063Y-3.5905
X9.4102Y-2.0945
X11.6543Y-2.0945
X7.9141Y-2.8425
X4.922Y-3.5906
X11.6543Y-4.3386
X5.6701Y-4.3386
X8.6622Y-3.5906
X5.6701Y-2.0945
X12.6567Y-3.5905
X3.426Y-2.8425
X8.6612Y-2.843
X5.6701Y-3.5905
X9.4102Y-4.3386
X7.9141Y-3.5905
X6.4181Y-2.0945
X3.426Y-4.3386
X2.4236Y-3.5905
X2.4236Y-2.8425
X6.4181Y-4.3386
T0
M30
