M48
; DRILL file {KiCad (5.1.4-0-10_14)} date Sunday, August 02, 2020 at 10:32:42 PM
; FORMAT={-:-/ absolute / inch / decimal}
; #@! TF.CreationDate,2020-08-02T22:32:42-05:00
; #@! TF.GenerationSoftware,Kicad,Pcbnew,(5.1.4-0-10_14)
; #@! TF.FileFunction,Plated,1,2,PTH
FMAT,2
INCH
T1C0.0098
T2C0.0157
T3C0.0236
T4C0.0394
T5C0.0420
T6C0.0591
T7C0.0600
T8C0.0866
%
G90
G05
T1
X2.35Y-1.87
X2.931Y-3.9549
X2.9741Y-3.9938
X3.3482Y-1.9022
X3.5397Y-3.4048
X3.5411Y-3.9828
X3.555Y-4.005
X3.5594Y-3.42
X3.591Y-3.4599
X3.6067Y-3.4041
X3.6517Y-3.4841
X3.8547Y-4.11
X3.876Y-4.1299
X3.92Y-1.965
X3.939Y-3.4646
X3.9392Y-3.3543
X3.9646Y-3.3642
X3.9646Y-3.4409
X3.976Y-4.1299
X3.9961Y-4.1102
X4.0317Y-3.1741
X4.0317Y-3.4241
X4.2Y-3.2697
X4.29Y-1.99
X4.3Y-2.645
X4.346Y-2.7149
X4.355Y-2.645
X4.355Y-4.1974
X4.3761Y-4.1825
X4.4067Y-2.7691
X4.4582Y-3.6269
X4.4597Y-2.9799
X4.4808Y-3.6003
X4.4861Y-1.9924
X4.491Y-2.9799
X4.5217Y-2.7953
X4.5225Y-2.9779
X4.554Y-2.9779
X4.5855Y-2.9779
X4.617Y-2.9779
X4.6311Y-1.9924
X4.7559Y-2.7992
X4.805Y-1.99
X4.813Y-2.7421
X4.8386Y-2.7126
X4.8574Y-3.1207
X4.8602Y-2.7321
X4.896Y-1.9449
X4.9587Y-3.1707
X4.9587Y-3.2441
X4.9705Y-3.0807
X5.1065Y-3.2246
X5.175Y-4.2124
X5.176Y-4.0849
X5.2206Y-3.1839
X5.2226Y-3.1441
X5.2441Y-3.1242
X5.2441Y-3.2037
X5.2447Y-3.164
X5.3017Y-3.2891
X5.4659Y-2.65
X11.665Y-4.1
X11.6652Y-4.2021
X11.73Y-4.07
X11.7538Y-4.092
T2
X4.2452Y-3.3757
X4.4055Y-2.8996
X4.665Y-2.74
X4.7559Y-3.0039
X4.79Y-3.63
X4.8071Y-2.6811
X4.8563Y-3.311
X4.8577Y-3.1522
T4
X11.5569Y-1.7987
X11.5569Y-2.3696
X11.6553Y-1.7987
X11.7537Y-1.7987
X11.7537Y-2.3696
X2.3262Y-4.6137
X2.523Y-4.6137
X12.5593Y-2.3696
X7.0687Y-4.0428
X7.1671Y-4.0428
X7.2655Y-4.0428
X2.3262Y-4.0428
X2.4246Y-4.0428
X7.0687Y-4.6137
X7.2655Y-4.6137
X2.523Y-4.0428
X12.5593Y-1.7987
X12.6577Y-1.7987
X12.7561Y-1.7987
X12.7561Y-2.3696
X7.8167Y-4.0428
X7.8167Y-4.6137
X7.9151Y-4.0428
X8.0136Y-4.0428
X12.5593Y-4.0428
X12.6577Y-4.0428
X12.7561Y-4.0428
X2.4246Y-1.7987
X2.523Y-1.7987
X12.5593Y-4.6137
X12.7561Y-4.6137
X2.3262Y-2.3696
X2.523Y-2.3696
X3.3286Y-2.3696
X3.5254Y-2.3696
X8.0136Y-4.6137
X2.3262Y-1.7987
X3.3286Y-1.7987
X3.427Y-1.7987
X3.5254Y-1.7987
T5
X7.5252Y-2.3087
X7.5252Y-2.5087
X7.5252Y-2.7087
X7.5412Y-2.2087
X7.5412Y-2.4087
X7.5412Y-2.6087
T7
X7.0661Y-4.5386
X7.3161Y-4.4386
X9.3102Y-2.2945
X9.5602Y-2.1945
X6.3181Y-3.0425
X6.5681Y-2.9425
X7.8141Y-4.5386
X8.0641Y-4.4386
X7.3161Y-2.9425
X11.5543Y-4.5386
X11.8043Y-4.4386
X8.0641Y-2.9425
X4.822Y-4.5386
X5.072Y-4.4386
X7.0661Y-3.0425
X12.5567Y-4.5386
X12.8067Y-4.4386
X4.822Y-3.7906
X5.072Y-3.6906
X7.8141Y-3.0425
X4.822Y-2.2945
X5.072Y-2.1945
X5.5701Y-2.2945
X5.8201Y-2.1945
X4.074Y-4.5386
X4.324Y-4.4386
X11.5543Y-3.7905
X11.8043Y-3.6905
X6.3181Y-3.7905
X6.5681Y-3.6905
X7.8141Y-2.2945
X8.0641Y-2.1945
X5.5701Y-3.7905
X5.8201Y-3.6905
X7.0661Y-2.2945
X7.3161Y-2.1945
X8.5622Y-2.2945
X8.8122Y-2.1945
X4.074Y-3.0425
X4.324Y-2.9425
X3.326Y-2.2945
X3.576Y-2.1945
X7.0661Y-3.7905
X7.3161Y-3.6905
X4.074Y-2.2945
X4.324Y-2.1945
X10.8063Y-3.0425
X11.0563Y-2.9425
X6.3181Y-4.5386
X6.5681Y-4.4386
X12.5567Y-2.2945
X12.8067Y-2.1945
X8.5612Y-3.043
X8.5622Y-3.7906
X8.8122Y-3.6906
X9.3102Y-3.0425
X9.5602Y-2.9425
X2.3236Y-2.2945
X2.5736Y-2.1945
X10.0582Y-2.2945
X4.822Y-3.0425
X11.5543Y-3.0425
X11.8043Y-2.9425
X5.072Y-2.9425
X8.8122Y-4.4386
X9.3102Y-3.7905
X8.8112Y-2.943
X8.5622Y-4.5386
X9.5602Y-3.6905
X12.5567Y-3.0425
X12.8067Y-2.9425
X10.3082Y-2.1945
X3.326Y-3.7906
X11.0563Y-2.1945
X2.3236Y-3.0425
X10.8063Y-2.2945
X2.5736Y-2.9425
X5.5701Y-3.0425
X11.5543Y-2.2945
X11.8043Y-2.1945
X10.3082Y-3.6905
X3.576Y-3.6906
X10.0582Y-4.5386
X10.3082Y-4.4386
X9.3102Y-4.5386
X9.5602Y-4.4386
X10.0582Y-3.7905
X10.8063Y-3.7905
X11.0563Y-3.6905
X2.3236Y-4.5386
X2.5736Y-4.4386
X3.576Y-2.9425
X5.8201Y-2.9425
X3.326Y-3.0425
X12.5567Y-3.7905
X12.8067Y-3.6905
X4.074Y-3.7906
X4.324Y-3.6906
X5.5701Y-4.5386
X5.8201Y-4.4386
X10.8063Y-4.5386
X11.0563Y-4.4386
X7.8141Y-3.7905
X8.0641Y-3.6905
X2.3236Y-3.7905
X2.5736Y-3.6905
X3.326Y-4.5386
X3.576Y-4.4386
X10.0582Y-3.0425
X10.3082Y-2.9425
X6.3181Y-2.2945
X6.5681Y-2.1945
T8
X11.2803Y-3.2165
X3.8Y-2.4685
X9.0362Y-2.4685
X12.2827Y-2.4685
X3.8Y-3.2165
X3.8Y-3.9646
X11.2803Y-3.9646
X2.7976Y-2.4685
X9.0362Y-3.9646
X9.7843Y-2.4685
X11.2803Y-2.4685
X5.2961Y-2.4685
X12.2827Y-3.9646
X6.0441Y-3.9646
X9.7843Y-3.9646
X2.7976Y-3.9646
X5.2961Y-3.9646
X6.0441Y-2.4685
T3
G00X4.3787Y-1.7287
M15
G01X4.3787Y-1.7523
M16
G05
G00X4.3787Y-1.8842
M15
G01X4.3787Y-1.9275
M16
G05
G00X4.7173Y-1.7287
M15
G01X4.7173Y-1.7523
M16
G05
G00X4.7173Y-1.8842
M15
G01X4.7173Y-1.9275
M16
G05
T6
G00X2.2041Y-4.3125
M15
G01X2.2041Y-4.3637
M16
G05
G00X2.6451Y-4.3125
M15
G01X2.6451Y-4.3637
M16
G05
G00X11.4348Y-2.0684
M15
G01X11.4348Y-2.1196
M16
G05
G00X11.8758Y-2.0684
M15
G01X11.8758Y-2.1196
M16
G05
G00X6.9466Y-4.3125
M15
G01X6.9466Y-4.3637
M16
G05
G00X7.3876Y-4.3125
M15
G01X7.3876Y-4.3637
M16
G05
G00X12.4372Y-2.0684
M15
G01X12.4372Y-2.1196
M16
G05
G00X12.8782Y-2.0684
M15
G01X12.8782Y-2.1196
M16
G05
G00X3.2065Y-2.0684
M15
G01X3.2065Y-2.1196
M16
G05
G00X12.4372Y-4.3125
M15
G01X12.4372Y-4.3637
M16
G05
G00X12.8782Y-4.3125
M15
G01X12.8782Y-4.3637
M16
G05
G00X2.2041Y-2.0684
M15
G01X2.2041Y-2.1196
M16
G05
G00X2.6451Y-2.0684
M15
G01X2.6451Y-2.1196
M16
G05
G00X3.6475Y-2.0684
M15
G01X3.6475Y-2.1196
M16
G05
G00X7.6947Y-4.3125
M15
G01X7.6947Y-4.3637
M16
G05
G00X8.1356Y-4.3125
M15
G01X8.1356Y-4.3637
M16
G05
T0
M30
