G04 #@! TF.GenerationSoftware,KiCad,Pcbnew,(5.1.4-0)*
G04 #@! TF.CreationDate,2021-05-08T11:21:02-05:00*
G04 #@! TF.ProjectId,ori,6f72692e-6b69-4636-9164-5f7063625858,rev?*
G04 #@! TF.SameCoordinates,Original*
G04 #@! TF.FileFunction,Legend,Top*
G04 #@! TF.FilePolarity,Positive*
%FSLAX46Y46*%
G04 Gerber Fmt 4.6, Leading zero omitted, Abs format (unit mm)*
G04 Created by KiCad (PCBNEW (5.1.4-0)) date 2021-05-08 11:21:02*
%MOMM*%
%LPD*%
G04 APERTURE LIST*
%ADD10C,0.200000*%
%ADD11C,0.150000*%
%ADD12C,0.120000*%
%ADD13C,2.642000*%
%ADD14C,1.803800*%
%ADD15C,4.089800*%
%ADD16C,0.902000*%
%ADD17R,2.102000X2.102000*%
%ADD18C,2.102000*%
%ADD19R,2.102000X3.302000*%
%ADD20C,0.100000*%
%ADD21C,1.803400*%
%ADD22O,1.402000X2.002000*%
%ADD23C,0.752000*%
%ADD24O,1.402000X2.502000*%
%ADD25C,3.602000*%
G04 APERTURE END LIST*
D10*
X176452380Y-115815476D02*
X176690476Y-115815476D01*
X176809523Y-115875000D01*
X176928571Y-115994047D01*
X176988095Y-116232142D01*
X176988095Y-116648809D01*
X176928571Y-116886904D01*
X176809523Y-117005952D01*
X176690476Y-117065476D01*
X176452380Y-117065476D01*
X176333333Y-117005952D01*
X176214285Y-116886904D01*
X176154761Y-116648809D01*
X176154761Y-116232142D01*
X176214285Y-115994047D01*
X176333333Y-115875000D01*
X176452380Y-115815476D01*
X177523809Y-117065476D02*
X177523809Y-116232142D01*
X177523809Y-116470238D02*
X177583333Y-116351190D01*
X177642857Y-116291666D01*
X177761904Y-116232142D01*
X177880952Y-116232142D01*
X178297619Y-117065476D02*
X178297619Y-116232142D01*
X178297619Y-115815476D02*
X178238095Y-115875000D01*
X178297619Y-115934523D01*
X178357142Y-115875000D01*
X178297619Y-115815476D01*
X178297619Y-115934523D01*
X179845238Y-117065476D02*
X179845238Y-115815476D01*
X180321428Y-115815476D01*
X180440476Y-115875000D01*
X180500000Y-115934523D01*
X180559523Y-116053571D01*
X180559523Y-116232142D01*
X180500000Y-116351190D01*
X180440476Y-116410714D01*
X180321428Y-116470238D01*
X179845238Y-116470238D01*
X181809523Y-116946428D02*
X181750000Y-117005952D01*
X181571428Y-117065476D01*
X181452380Y-117065476D01*
X181273809Y-117005952D01*
X181154761Y-116886904D01*
X181095238Y-116767857D01*
X181035714Y-116529761D01*
X181035714Y-116351190D01*
X181095238Y-116113095D01*
X181154761Y-115994047D01*
X181273809Y-115875000D01*
X181452380Y-115815476D01*
X181571428Y-115815476D01*
X181750000Y-115875000D01*
X181809523Y-115934523D01*
X182761904Y-116410714D02*
X182940476Y-116470238D01*
X183000000Y-116529761D01*
X183059523Y-116648809D01*
X183059523Y-116827380D01*
X183000000Y-116946428D01*
X182940476Y-117005952D01*
X182821428Y-117065476D01*
X182345238Y-117065476D01*
X182345238Y-115815476D01*
X182761904Y-115815476D01*
X182880952Y-115875000D01*
X182940476Y-115934523D01*
X183000000Y-116053571D01*
X183000000Y-116172619D01*
X182940476Y-116291666D01*
X182880952Y-116351190D01*
X182761904Y-116410714D01*
X182345238Y-116410714D01*
X185261904Y-117065476D02*
X184845238Y-116470238D01*
X184547619Y-117065476D02*
X184547619Y-115815476D01*
X185023809Y-115815476D01*
X185142857Y-115875000D01*
X185202380Y-115934523D01*
X185261904Y-116053571D01*
X185261904Y-116232142D01*
X185202380Y-116351190D01*
X185142857Y-116410714D01*
X185023809Y-116470238D01*
X184547619Y-116470238D01*
X186273809Y-117005952D02*
X186154761Y-117065476D01*
X185916666Y-117065476D01*
X185797619Y-117005952D01*
X185738095Y-116886904D01*
X185738095Y-116410714D01*
X185797619Y-116291666D01*
X185916666Y-116232142D01*
X186154761Y-116232142D01*
X186273809Y-116291666D01*
X186333333Y-116410714D01*
X186333333Y-116529761D01*
X185738095Y-116648809D01*
X186750000Y-116232142D02*
X187047619Y-117065476D01*
X187345238Y-116232142D01*
X187821428Y-117065476D02*
X187821428Y-116232142D01*
X187821428Y-115815476D02*
X187761904Y-115875000D01*
X187821428Y-115934523D01*
X187880952Y-115875000D01*
X187821428Y-115815476D01*
X187821428Y-115934523D01*
X188357142Y-117005952D02*
X188476190Y-117065476D01*
X188714285Y-117065476D01*
X188833333Y-117005952D01*
X188892857Y-116886904D01*
X188892857Y-116827380D01*
X188833333Y-116708333D01*
X188714285Y-116648809D01*
X188535714Y-116648809D01*
X188416666Y-116589285D01*
X188357142Y-116470238D01*
X188357142Y-116410714D01*
X188416666Y-116291666D01*
X188535714Y-116232142D01*
X188714285Y-116232142D01*
X188833333Y-116291666D01*
X189428571Y-117065476D02*
X189428571Y-116232142D01*
X189428571Y-115815476D02*
X189369047Y-115875000D01*
X189428571Y-115934523D01*
X189488095Y-115875000D01*
X189428571Y-115815476D01*
X189428571Y-115934523D01*
X190202380Y-117065476D02*
X190083333Y-117005952D01*
X190023809Y-116946428D01*
X189964285Y-116827380D01*
X189964285Y-116470238D01*
X190023809Y-116351190D01*
X190083333Y-116291666D01*
X190202380Y-116232142D01*
X190380952Y-116232142D01*
X190500000Y-116291666D01*
X190559523Y-116351190D01*
X190619047Y-116470238D01*
X190619047Y-116827380D01*
X190559523Y-116946428D01*
X190500000Y-117005952D01*
X190380952Y-117065476D01*
X190202380Y-117065476D01*
X191154761Y-116232142D02*
X191154761Y-117065476D01*
X191154761Y-116351190D02*
X191214285Y-116291666D01*
X191333333Y-116232142D01*
X191511904Y-116232142D01*
X191630952Y-116291666D01*
X191690476Y-116410714D01*
X191690476Y-117065476D01*
X193892857Y-117065476D02*
X193178571Y-117065476D01*
X193535714Y-117065476D02*
X193535714Y-115815476D01*
X193416666Y-115994047D01*
X193297619Y-116113095D01*
X193178571Y-116172619D01*
X194428571Y-116946428D02*
X194488095Y-117005952D01*
X194428571Y-117065476D01*
X194369047Y-117005952D01*
X194428571Y-116946428D01*
X194428571Y-117065476D01*
X195261904Y-115815476D02*
X195380952Y-115815476D01*
X195500000Y-115875000D01*
X195559523Y-115934523D01*
X195619047Y-116053571D01*
X195678571Y-116291666D01*
X195678571Y-116589285D01*
X195619047Y-116827380D01*
X195559523Y-116946428D01*
X195500000Y-117005952D01*
X195380952Y-117065476D01*
X195261904Y-117065476D01*
X195142857Y-117005952D01*
X195083333Y-116946428D01*
X195023809Y-116827380D01*
X194964285Y-116589285D01*
X194964285Y-116291666D01*
X195023809Y-116053571D01*
X195083333Y-115934523D01*
X195142857Y-115875000D01*
X195261904Y-115815476D01*
X197107142Y-115934523D02*
X197166666Y-115875000D01*
X197285714Y-115815476D01*
X197583333Y-115815476D01*
X197702380Y-115875000D01*
X197761904Y-115934523D01*
X197821428Y-116053571D01*
X197821428Y-116172619D01*
X197761904Y-116351190D01*
X197047619Y-117065476D01*
X197821428Y-117065476D01*
X198595238Y-115815476D02*
X198714285Y-115815476D01*
X198833333Y-115875000D01*
X198892857Y-115934523D01*
X198952380Y-116053571D01*
X199011904Y-116291666D01*
X199011904Y-116589285D01*
X198952380Y-116827380D01*
X198892857Y-116946428D01*
X198833333Y-117005952D01*
X198714285Y-117065476D01*
X198595238Y-117065476D01*
X198476190Y-117005952D01*
X198416666Y-116946428D01*
X198357142Y-116827380D01*
X198297619Y-116589285D01*
X198297619Y-116291666D01*
X198357142Y-116053571D01*
X198416666Y-115934523D01*
X198476190Y-115875000D01*
X198595238Y-115815476D01*
X199488095Y-115934523D02*
X199547619Y-115875000D01*
X199666666Y-115815476D01*
X199964285Y-115815476D01*
X200083333Y-115875000D01*
X200142857Y-115934523D01*
X200202380Y-116053571D01*
X200202380Y-116172619D01*
X200142857Y-116351190D01*
X199428571Y-117065476D01*
X200202380Y-117065476D01*
X201392857Y-117065476D02*
X200678571Y-117065476D01*
X201035714Y-117065476D02*
X201035714Y-115815476D01*
X200916666Y-115994047D01*
X200797619Y-116113095D01*
X200678571Y-116172619D01*
X201928571Y-116946428D02*
X201988095Y-117005952D01*
X201928571Y-117065476D01*
X201869047Y-117005952D01*
X201928571Y-116946428D01*
X201928571Y-117065476D01*
X202761904Y-115815476D02*
X202880952Y-115815476D01*
X203000000Y-115875000D01*
X203059523Y-115934523D01*
X203119047Y-116053571D01*
X203178571Y-116291666D01*
X203178571Y-116589285D01*
X203119047Y-116827380D01*
X203059523Y-116946428D01*
X203000000Y-117005952D01*
X202880952Y-117065476D01*
X202761904Y-117065476D01*
X202642857Y-117005952D01*
X202583333Y-116946428D01*
X202523809Y-116827380D01*
X202464285Y-116589285D01*
X202464285Y-116291666D01*
X202523809Y-116053571D01*
X202583333Y-115934523D01*
X202642857Y-115875000D01*
X202761904Y-115815476D01*
X204250000Y-116232142D02*
X204250000Y-117065476D01*
X203952380Y-115755952D02*
X203654761Y-116648809D01*
X204428571Y-116648809D01*
X204904761Y-116946428D02*
X204964285Y-117005952D01*
X204904761Y-117065476D01*
X204845238Y-117005952D01*
X204904761Y-116946428D01*
X204904761Y-117065476D01*
X205440476Y-115934523D02*
X205500000Y-115875000D01*
X205619047Y-115815476D01*
X205916666Y-115815476D01*
X206035714Y-115875000D01*
X206095238Y-115934523D01*
X206154761Y-116053571D01*
X206154761Y-116172619D01*
X206095238Y-116351190D01*
X205380952Y-117065476D01*
X206154761Y-117065476D01*
X207285714Y-115815476D02*
X206690476Y-115815476D01*
X206630952Y-116410714D01*
X206690476Y-116351190D01*
X206809523Y-116291666D01*
X207107142Y-116291666D01*
X207226190Y-116351190D01*
X207285714Y-116410714D01*
X207345238Y-116529761D01*
X207345238Y-116827380D01*
X207285714Y-116946428D01*
X207226190Y-117005952D01*
X207107142Y-117065476D01*
X206809523Y-117065476D01*
X206690476Y-117005952D01*
X206630952Y-116946428D01*
D11*
X80392380Y-86319047D02*
X81106666Y-86319047D01*
X81249523Y-86366666D01*
X81344761Y-86461904D01*
X81392380Y-86604761D01*
X81392380Y-86700000D01*
X81392380Y-85366666D02*
X81392380Y-85842857D01*
X80392380Y-85842857D01*
X81297142Y-84461904D02*
X81344761Y-84509523D01*
X81392380Y-84652380D01*
X81392380Y-84747619D01*
X81344761Y-84890476D01*
X81249523Y-84985714D01*
X81154285Y-85033333D01*
X80963809Y-85080952D01*
X80820952Y-85080952D01*
X80630476Y-85033333D01*
X80535238Y-84985714D01*
X80440000Y-84890476D01*
X80392380Y-84747619D01*
X80392380Y-84652380D01*
X80440000Y-84509523D01*
X80487619Y-84461904D01*
X80392380Y-83747619D02*
X81106666Y-83747619D01*
X81249523Y-83795238D01*
X81344761Y-83890476D01*
X81392380Y-84033333D01*
X81392380Y-84128571D01*
X81392380Y-82795238D02*
X81392380Y-83271428D01*
X80392380Y-83271428D01*
X81297142Y-81890476D02*
X81344761Y-81938095D01*
X81392380Y-82080952D01*
X81392380Y-82176190D01*
X81344761Y-82319047D01*
X81249523Y-82414285D01*
X81154285Y-82461904D01*
X80963809Y-82509523D01*
X80820952Y-82509523D01*
X80630476Y-82461904D01*
X80535238Y-82414285D01*
X80440000Y-82319047D01*
X80392380Y-82176190D01*
X80392380Y-82080952D01*
X80440000Y-81938095D01*
X80487619Y-81890476D01*
X80392380Y-81176190D02*
X81106666Y-81176190D01*
X81249523Y-81223809D01*
X81344761Y-81319047D01*
X81392380Y-81461904D01*
X81392380Y-81557142D01*
X81392380Y-80223809D02*
X81392380Y-80700000D01*
X80392380Y-80700000D01*
X81297142Y-79319047D02*
X81344761Y-79366666D01*
X81392380Y-79509523D01*
X81392380Y-79604761D01*
X81344761Y-79747619D01*
X81249523Y-79842857D01*
X81154285Y-79890476D01*
X80963809Y-79938095D01*
X80820952Y-79938095D01*
X80630476Y-79890476D01*
X80535238Y-79842857D01*
X80440000Y-79747619D01*
X80392380Y-79604761D01*
X80392380Y-79509523D01*
X80440000Y-79366666D01*
X80487619Y-79319047D01*
X80392380Y-78604761D02*
X81106666Y-78604761D01*
X81249523Y-78652380D01*
X81344761Y-78747619D01*
X81392380Y-78890476D01*
X81392380Y-78985714D01*
X81392380Y-77652380D02*
X81392380Y-78128571D01*
X80392380Y-78128571D01*
X81297142Y-76747619D02*
X81344761Y-76795238D01*
X81392380Y-76938095D01*
X81392380Y-77033333D01*
X81344761Y-77176190D01*
X81249523Y-77271428D01*
X81154285Y-77319047D01*
X80963809Y-77366666D01*
X80820952Y-77366666D01*
X80630476Y-77319047D01*
X80535238Y-77271428D01*
X80440000Y-77176190D01*
X80392380Y-77033333D01*
X80392380Y-76938095D01*
X80440000Y-76795238D01*
X80487619Y-76747619D01*
D12*
X66865088Y-91187062D02*
G75*
G03X66865088Y-91187062I-3000000J0D01*
G01*
X57965088Y-89187062D02*
X57965088Y-85087062D01*
X69765088Y-85087062D02*
X69765088Y-89187062D01*
X69765088Y-93187062D02*
X69765088Y-97287062D01*
X57965088Y-93187062D02*
X57965088Y-97287062D01*
X57965088Y-97287062D02*
X69765088Y-97287062D01*
X60065088Y-98687062D02*
X59765088Y-98987062D01*
X59765088Y-98987062D02*
X59765088Y-98387062D01*
X59765088Y-98387062D02*
X60065088Y-98687062D01*
X57965088Y-85087062D02*
X60365088Y-85087062D01*
X62565088Y-85087062D02*
X65165088Y-85087062D01*
X67365088Y-85087062D02*
X69765088Y-85087062D01*
X66865088Y-72187112D02*
G75*
G03X66865088Y-72187112I-3000000J0D01*
G01*
X57965088Y-70187112D02*
X57965088Y-66087112D01*
X69765088Y-66087112D02*
X69765088Y-70187112D01*
X69765088Y-74187112D02*
X69765088Y-78287112D01*
X57965088Y-74187112D02*
X57965088Y-78287112D01*
X57965088Y-78287112D02*
X69765088Y-78287112D01*
X60065088Y-79687112D02*
X59765088Y-79987112D01*
X59765088Y-79987112D02*
X59765088Y-79387112D01*
X59765088Y-79387112D02*
X60065088Y-79687112D01*
X57965088Y-66087112D02*
X60365088Y-66087112D01*
X62565088Y-66087112D02*
X65165088Y-66087112D01*
X67365088Y-66087112D02*
X69765088Y-66087112D01*
X66865088Y-110187012D02*
G75*
G03X66865088Y-110187012I-3000000J0D01*
G01*
X57965088Y-108187012D02*
X57965088Y-104087012D01*
X69765088Y-104087012D02*
X69765088Y-108187012D01*
X69765088Y-112187012D02*
X69765088Y-116287012D01*
X57965088Y-112187012D02*
X57965088Y-116287012D01*
X57965088Y-116287012D02*
X69765088Y-116287012D01*
X60065088Y-117687012D02*
X59765088Y-117987012D01*
X59765088Y-117987012D02*
X59765088Y-117387012D01*
X59765088Y-117387012D02*
X60065088Y-117687012D01*
X57965088Y-104087012D02*
X60365088Y-104087012D01*
X62565088Y-104087012D02*
X65165088Y-104087012D01*
X67365088Y-104087012D02*
X69765088Y-104087012D01*
X66865088Y-53187162D02*
G75*
G03X66865088Y-53187162I-3000000J0D01*
G01*
X57965088Y-51187162D02*
X57965088Y-47087162D01*
X69765088Y-47087162D02*
X69765088Y-51187162D01*
X69765088Y-55187162D02*
X69765088Y-59287162D01*
X57965088Y-55187162D02*
X57965088Y-59287162D01*
X57965088Y-59287162D02*
X69765088Y-59287162D01*
X60065088Y-60687162D02*
X59765088Y-60987162D01*
X59765088Y-60987162D02*
X59765088Y-60387162D01*
X59765088Y-60387162D02*
X60065088Y-60687162D01*
X57965088Y-47087162D02*
X60365088Y-47087162D01*
X62565088Y-47087162D02*
X65165088Y-47087162D01*
X67365088Y-47087162D02*
X69765088Y-47087162D01*
%LPC*%
D13*
X121260799Y-50634602D03*
X127610799Y-48094602D03*
D14*
X130150799Y-53174602D03*
X119990799Y-53174602D03*
D15*
X125070799Y-53174602D03*
D13*
X60080488Y-107634312D03*
X66430488Y-105094312D03*
D14*
X68970488Y-110174312D03*
X58810488Y-110174312D03*
D15*
X63890488Y-110174312D03*
D16*
X78660000Y-75248000D03*
X78660000Y-73724000D03*
X78660000Y-69152000D03*
X78660000Y-70676000D03*
X78660000Y-72200000D03*
X78660000Y-94248000D03*
X78660000Y-92724000D03*
X78660000Y-88152000D03*
X78660000Y-89676000D03*
X78660000Y-91200000D03*
D17*
X61365088Y-98687062D03*
D18*
X63865088Y-98687062D03*
X66365088Y-98687062D03*
D19*
X58265088Y-91187062D03*
X69465088Y-91187062D03*
D18*
X61365088Y-84187062D03*
X66365088Y-84187062D03*
D13*
X60080488Y-69634412D03*
X66430488Y-67094412D03*
D14*
X68970488Y-72174412D03*
X58810488Y-72174412D03*
D15*
X63890488Y-72174412D03*
D17*
X61365088Y-79687112D03*
D18*
X63865088Y-79687112D03*
X66365088Y-79687112D03*
D19*
X58265088Y-72187112D03*
X69465088Y-72187112D03*
D18*
X61365088Y-65187112D03*
X66365088Y-65187112D03*
D17*
X61365088Y-117687012D03*
D18*
X63865088Y-117687012D03*
X66365088Y-117687012D03*
D19*
X58265088Y-110187012D03*
X69465088Y-110187012D03*
D18*
X61365088Y-103187012D03*
X66365088Y-103187012D03*
D17*
X61365088Y-60687162D03*
D18*
X63865088Y-60687162D03*
X66365088Y-60687162D03*
D19*
X58265088Y-53187162D03*
X69465088Y-53187162D03*
D18*
X61365088Y-46187162D03*
X66365088Y-46187162D03*
D16*
X78660000Y-113248000D03*
X78660000Y-111724000D03*
X78660000Y-107152000D03*
X78660000Y-108676000D03*
X78660000Y-110200000D03*
X78660000Y-53200000D03*
X78660000Y-51676000D03*
X78660000Y-50152000D03*
X78660000Y-54724000D03*
X78660000Y-56248000D03*
D20*
G36*
X192041441Y-55200471D02*
G01*
X192085206Y-55206963D01*
X192128125Y-55217713D01*
X192169783Y-55232619D01*
X192209779Y-55251536D01*
X192247729Y-55274282D01*
X192283266Y-55300638D01*
X192316049Y-55330351D01*
X192345762Y-55363134D01*
X192372118Y-55398671D01*
X192394864Y-55436621D01*
X192413781Y-55476617D01*
X192428687Y-55518275D01*
X192439437Y-55561194D01*
X192445929Y-55604959D01*
X192448100Y-55649150D01*
X192448100Y-56550850D01*
X192445929Y-56595041D01*
X192439437Y-56638806D01*
X192428687Y-56681725D01*
X192413781Y-56723383D01*
X192394864Y-56763379D01*
X192372118Y-56801329D01*
X192345762Y-56836866D01*
X192316049Y-56869649D01*
X192283266Y-56899362D01*
X192247729Y-56925718D01*
X192209779Y-56948464D01*
X192169783Y-56967381D01*
X192128125Y-56982287D01*
X192085206Y-56993037D01*
X192041441Y-56999529D01*
X191997250Y-57001700D01*
X191095550Y-57001700D01*
X191051359Y-56999529D01*
X191007594Y-56993037D01*
X190964675Y-56982287D01*
X190923017Y-56967381D01*
X190883021Y-56948464D01*
X190845071Y-56925718D01*
X190809534Y-56899362D01*
X190776751Y-56869649D01*
X190747038Y-56836866D01*
X190720682Y-56801329D01*
X190697936Y-56763379D01*
X190679019Y-56723383D01*
X190664113Y-56681725D01*
X190653363Y-56638806D01*
X190646871Y-56595041D01*
X190644700Y-56550850D01*
X190644700Y-55649150D01*
X190646871Y-55604959D01*
X190653363Y-55561194D01*
X190664113Y-55518275D01*
X190679019Y-55476617D01*
X190697936Y-55436621D01*
X190720682Y-55398671D01*
X190747038Y-55363134D01*
X190776751Y-55330351D01*
X190809534Y-55300638D01*
X190845071Y-55274282D01*
X190883021Y-55251536D01*
X190923017Y-55232619D01*
X190964675Y-55217713D01*
X191007594Y-55206963D01*
X191051359Y-55200471D01*
X191095550Y-55198300D01*
X191997250Y-55198300D01*
X192041441Y-55200471D01*
X192041441Y-55200471D01*
G37*
D21*
X191546400Y-56100000D03*
X191140000Y-58640000D03*
X191546400Y-61180000D03*
X191140000Y-63720000D03*
X191546400Y-66260000D03*
X191140000Y-68800000D03*
D22*
X111219999Y-43258627D03*
D23*
X112629999Y-46907627D03*
X118409999Y-46907627D03*
D22*
X119819999Y-43258627D03*
D24*
X119819999Y-47458627D03*
X111219999Y-47458627D03*
D13*
X60080488Y-50634462D03*
X66430488Y-48094462D03*
D14*
X68970488Y-53174462D03*
X58810488Y-53174462D03*
D15*
X63890488Y-53174462D03*
D13*
X60080488Y-88634362D03*
X66430488Y-86094362D03*
D14*
X68970488Y-91174362D03*
X58810488Y-91174362D03*
D15*
X63890488Y-91174362D03*
D13*
X83260799Y-50634602D03*
X89610799Y-48094602D03*
D14*
X92150799Y-53174602D03*
X81990799Y-53174602D03*
D15*
X87070799Y-53174602D03*
D13*
X102260799Y-50634602D03*
X108610799Y-48094602D03*
D14*
X111150799Y-53174602D03*
X100990799Y-53174602D03*
D15*
X106070799Y-53174602D03*
X144070799Y-53174602D03*
D14*
X138990799Y-53174602D03*
X149150799Y-53174602D03*
D13*
X146610799Y-48094602D03*
X140260799Y-50634602D03*
X159260219Y-50634462D03*
X165610219Y-48094462D03*
D14*
X168150219Y-53174462D03*
X157990219Y-53174462D03*
D15*
X163070219Y-53174462D03*
D13*
X178260169Y-50634462D03*
X184610169Y-48094462D03*
D14*
X187150169Y-53174462D03*
X176990169Y-53174462D03*
D15*
X182070169Y-53174462D03*
D13*
X197260119Y-50634602D03*
X203610119Y-48094602D03*
D14*
X206150119Y-53174602D03*
X195990119Y-53174602D03*
D15*
X201070119Y-53174602D03*
D13*
X216260799Y-50634602D03*
X222610799Y-48094602D03*
D14*
X225150799Y-53174602D03*
X214990799Y-53174602D03*
D15*
X220070799Y-53174602D03*
D13*
X235260799Y-50634602D03*
X241610799Y-48094602D03*
D14*
X244150799Y-53174602D03*
X233990799Y-53174602D03*
D15*
X239070799Y-53174602D03*
D13*
X254259969Y-50634462D03*
X260609969Y-48094462D03*
D14*
X263149969Y-53174462D03*
X252989969Y-53174462D03*
D15*
X258069969Y-53174462D03*
D13*
X273259919Y-50634462D03*
X279609919Y-48094462D03*
D14*
X282149919Y-53174462D03*
X271989919Y-53174462D03*
D15*
X277069919Y-53174462D03*
D13*
X292259869Y-50634462D03*
X298609869Y-48094462D03*
D14*
X301149869Y-53174462D03*
X290989869Y-53174462D03*
D15*
X296069869Y-53174462D03*
D13*
X83260799Y-69634602D03*
X89610799Y-67094602D03*
D14*
X92150799Y-72174602D03*
X81990799Y-72174602D03*
D15*
X87070799Y-72174602D03*
D13*
X102260799Y-69634602D03*
X108610799Y-67094602D03*
D14*
X111150799Y-72174602D03*
X100990799Y-72174602D03*
D15*
X106070799Y-72174602D03*
D13*
X121260799Y-69634602D03*
X127610799Y-67094602D03*
D14*
X130150799Y-72174602D03*
X119990799Y-72174602D03*
D15*
X125070799Y-72174602D03*
D13*
X140260799Y-69634602D03*
X146610799Y-67094602D03*
D14*
X149150799Y-72174602D03*
X138990799Y-72174602D03*
D15*
X144070799Y-72174602D03*
D13*
X159260799Y-69634602D03*
X165610799Y-67094602D03*
D14*
X168150799Y-72174602D03*
X157990799Y-72174602D03*
D15*
X163070799Y-72174602D03*
D13*
X178260799Y-69634602D03*
X184610799Y-67094602D03*
D14*
X187150799Y-72174602D03*
X176990799Y-72174602D03*
D15*
X182070799Y-72174602D03*
D13*
X197260119Y-69634602D03*
X203610119Y-67094602D03*
D14*
X206150119Y-72174602D03*
X195990119Y-72174602D03*
D15*
X201070119Y-72174602D03*
D13*
X216235400Y-69647300D03*
X222585400Y-67107300D03*
D14*
X225125400Y-72187300D03*
X214965400Y-72187300D03*
D15*
X220045400Y-72187300D03*
D13*
X235260799Y-69634602D03*
X241610799Y-67094602D03*
D14*
X244150799Y-72174602D03*
X233990799Y-72174602D03*
D15*
X239070799Y-72174602D03*
D13*
X254259969Y-69634412D03*
X260609969Y-67094412D03*
D14*
X263149969Y-72174412D03*
X252989969Y-72174412D03*
D15*
X258069969Y-72174412D03*
D13*
X273259919Y-69634412D03*
X279609919Y-67094412D03*
D14*
X282149919Y-72174412D03*
X271989919Y-72174412D03*
D15*
X277069919Y-72174412D03*
D13*
X292259869Y-69634412D03*
X298609869Y-67094412D03*
D14*
X301149869Y-72174412D03*
X290989869Y-72174412D03*
D15*
X296069869Y-72174412D03*
D13*
X83260799Y-88634602D03*
X89610799Y-86094602D03*
D14*
X92150799Y-91174602D03*
X81990799Y-91174602D03*
D15*
X87070799Y-91174602D03*
D13*
X102260799Y-88634602D03*
X108610799Y-86094602D03*
D14*
X111150799Y-91174602D03*
X100990799Y-91174602D03*
D15*
X106070799Y-91174602D03*
D13*
X121260799Y-88634602D03*
X127610799Y-86094602D03*
D14*
X130150799Y-91174602D03*
X119990799Y-91174602D03*
D15*
X125070799Y-91174602D03*
D13*
X140260269Y-88634362D03*
X146610269Y-86094362D03*
D14*
X149150269Y-91174362D03*
X138990269Y-91174362D03*
D15*
X144070269Y-91174362D03*
D13*
X159260219Y-88634362D03*
X165610219Y-86094362D03*
D14*
X168150219Y-91174362D03*
X157990219Y-91174362D03*
D15*
X163070219Y-91174362D03*
D13*
X178260169Y-88634362D03*
X184610169Y-86094362D03*
D14*
X187150169Y-91174362D03*
X176990169Y-91174362D03*
D15*
X182070169Y-91174362D03*
D13*
X216260069Y-88634602D03*
X222610069Y-86094602D03*
D14*
X225150069Y-91174602D03*
X214990069Y-91174602D03*
D15*
X220070069Y-91174602D03*
D13*
X235260019Y-88634362D03*
X241610019Y-86094362D03*
D14*
X244150019Y-91174362D03*
X233990019Y-91174362D03*
D15*
X239070019Y-91174362D03*
D13*
X254259969Y-88634362D03*
X260609969Y-86094362D03*
D14*
X263149969Y-91174362D03*
X252989969Y-91174362D03*
D15*
X258069969Y-91174362D03*
D13*
X273259919Y-88634362D03*
X279609919Y-86094362D03*
D14*
X282149919Y-91174362D03*
X271989919Y-91174362D03*
D15*
X277069919Y-91174362D03*
D13*
X83260419Y-107634602D03*
X89610419Y-105094602D03*
D14*
X92150419Y-110174602D03*
X81990419Y-110174602D03*
D15*
X87070419Y-110174602D03*
D13*
X102260799Y-107634602D03*
X108610799Y-105094602D03*
D14*
X111150799Y-110174602D03*
X100990799Y-110174602D03*
D15*
X106070799Y-110174602D03*
D13*
X121260799Y-107634602D03*
X127610799Y-105094602D03*
D14*
X130150799Y-110174602D03*
X119990799Y-110174602D03*
D15*
X125070799Y-110174602D03*
D13*
X140260269Y-107634312D03*
X146610269Y-105094312D03*
D14*
X149150269Y-110174312D03*
X138990269Y-110174312D03*
D15*
X144070269Y-110174312D03*
D13*
X159260799Y-107634602D03*
X165610799Y-105094602D03*
D14*
X168150799Y-110174602D03*
X157990799Y-110174602D03*
D15*
X163070799Y-110174602D03*
D13*
X178260169Y-107634312D03*
X184610169Y-105094312D03*
D14*
X187150169Y-110174312D03*
X176990169Y-110174312D03*
D15*
X182070169Y-110174312D03*
D13*
X216260069Y-107634312D03*
X222610069Y-105094312D03*
D14*
X225150069Y-110174312D03*
X214990069Y-110174312D03*
D15*
X220070069Y-110174312D03*
D13*
X235260019Y-107634312D03*
X241610019Y-105094312D03*
D14*
X244150019Y-110174312D03*
X233990019Y-110174312D03*
D15*
X239070019Y-110174312D03*
D13*
X254259969Y-107634312D03*
X260609969Y-105094312D03*
D14*
X263149969Y-110174312D03*
X252989969Y-110174312D03*
D15*
X258069969Y-110174312D03*
D13*
X273259919Y-107634312D03*
X279609919Y-105094312D03*
D14*
X282149919Y-110174312D03*
X271989919Y-110174312D03*
D15*
X277069919Y-110174312D03*
D13*
X197260119Y-88634362D03*
X203610119Y-86094362D03*
D14*
X206150119Y-91174362D03*
X195990119Y-91174362D03*
D15*
X201070119Y-91174362D03*
D13*
X197260119Y-107634312D03*
X203610119Y-105094312D03*
D14*
X206150119Y-110174312D03*
X195990119Y-110174312D03*
D15*
X201070119Y-110174312D03*
D13*
X292259869Y-88634362D03*
X298609869Y-86094362D03*
D14*
X301149869Y-91174362D03*
X290989869Y-91174362D03*
D15*
X296069869Y-91174362D03*
D13*
X292260799Y-107634602D03*
X298610799Y-105094602D03*
D14*
X301150799Y-110174602D03*
X290990799Y-110174602D03*
D15*
X296070799Y-110174602D03*
D25*
X96519999Y-81700000D03*
X134520000Y-62700000D03*
X134520000Y-100700000D03*
X248520000Y-62700000D03*
X248520000Y-100700000D03*
X286520000Y-81700000D03*
X73719663Y-62699837D03*
X73719663Y-100699737D03*
X96520000Y-62700000D03*
X96520000Y-100700000D03*
X229520000Y-100700000D03*
X153520000Y-100700000D03*
X153520000Y-62700000D03*
X229520000Y-62700000D03*
X286520000Y-100700000D03*
X286520000Y-62700000D03*
M02*
