G04 #@! TF.GenerationSoftware,KiCad,Pcbnew,(5.1.2-1)-1*
G04 #@! TF.CreationDate,2020-07-25T15:19:09-05:00*
G04 #@! TF.ProjectId,Ori,4f72692e-6b69-4636-9164-5f7063625858,rev?*
G04 #@! TF.SameCoordinates,Original*
G04 #@! TF.FileFunction,Legend,Top*
G04 #@! TF.FilePolarity,Positive*
%FSLAX46Y46*%
G04 Gerber Fmt 4.6, Leading zero omitted, Abs format (unit mm)*
G04 Created by KiCad (PCBNEW (5.1.2-1)-1) date 2020-07-25 15:19:09*
%MOMM*%
%LPD*%
G04 APERTURE LIST*
%ADD10C,0.200000*%
%ADD11C,0.150000*%
%ADD12C,0.120000*%
%ADD13R,2.102000X2.102000*%
%ADD14C,2.102000*%
%ADD15R,2.102000X3.302000*%
%ADD16C,0.902000*%
%ADD17C,2.642000*%
%ADD18C,1.803800*%
%ADD19C,4.089800*%
%ADD20C,0.100000*%
%ADD21C,1.803400*%
%ADD22O,1.402000X2.002000*%
%ADD23C,0.752000*%
%ADD24O,1.402000X2.502000*%
%ADD25C,3.602000*%
G04 APERTURE END LIST*
D10*
X175270000Y-46435476D02*
X175508095Y-46435476D01*
X175627142Y-46495000D01*
X175746190Y-46614047D01*
X175805714Y-46852142D01*
X175805714Y-47268809D01*
X175746190Y-47506904D01*
X175627142Y-47625952D01*
X175508095Y-47685476D01*
X175270000Y-47685476D01*
X175150952Y-47625952D01*
X175031904Y-47506904D01*
X174972380Y-47268809D01*
X174972380Y-46852142D01*
X175031904Y-46614047D01*
X175150952Y-46495000D01*
X175270000Y-46435476D01*
X176341428Y-47685476D02*
X176341428Y-46852142D01*
X176341428Y-47090238D02*
X176400952Y-46971190D01*
X176460476Y-46911666D01*
X176579523Y-46852142D01*
X176698571Y-46852142D01*
X177115238Y-47685476D02*
X177115238Y-46852142D01*
X177115238Y-46435476D02*
X177055714Y-46495000D01*
X177115238Y-46554523D01*
X177174761Y-46495000D01*
X177115238Y-46435476D01*
X177115238Y-46554523D01*
X178662857Y-47685476D02*
X178662857Y-46435476D01*
X179139047Y-46435476D01*
X179258095Y-46495000D01*
X179317619Y-46554523D01*
X179377142Y-46673571D01*
X179377142Y-46852142D01*
X179317619Y-46971190D01*
X179258095Y-47030714D01*
X179139047Y-47090238D01*
X178662857Y-47090238D01*
X180627142Y-47566428D02*
X180567619Y-47625952D01*
X180389047Y-47685476D01*
X180270000Y-47685476D01*
X180091428Y-47625952D01*
X179972380Y-47506904D01*
X179912857Y-47387857D01*
X179853333Y-47149761D01*
X179853333Y-46971190D01*
X179912857Y-46733095D01*
X179972380Y-46614047D01*
X180091428Y-46495000D01*
X180270000Y-46435476D01*
X180389047Y-46435476D01*
X180567619Y-46495000D01*
X180627142Y-46554523D01*
X181579523Y-47030714D02*
X181758095Y-47090238D01*
X181817619Y-47149761D01*
X181877142Y-47268809D01*
X181877142Y-47447380D01*
X181817619Y-47566428D01*
X181758095Y-47625952D01*
X181639047Y-47685476D01*
X181162857Y-47685476D01*
X181162857Y-46435476D01*
X181579523Y-46435476D01*
X181698571Y-46495000D01*
X181758095Y-46554523D01*
X181817619Y-46673571D01*
X181817619Y-46792619D01*
X181758095Y-46911666D01*
X181698571Y-46971190D01*
X181579523Y-47030714D01*
X181162857Y-47030714D01*
X184079523Y-47685476D02*
X183662857Y-47090238D01*
X183365238Y-47685476D02*
X183365238Y-46435476D01*
X183841428Y-46435476D01*
X183960476Y-46495000D01*
X184020000Y-46554523D01*
X184079523Y-46673571D01*
X184079523Y-46852142D01*
X184020000Y-46971190D01*
X183960476Y-47030714D01*
X183841428Y-47090238D01*
X183365238Y-47090238D01*
X185091428Y-47625952D02*
X184972380Y-47685476D01*
X184734285Y-47685476D01*
X184615238Y-47625952D01*
X184555714Y-47506904D01*
X184555714Y-47030714D01*
X184615238Y-46911666D01*
X184734285Y-46852142D01*
X184972380Y-46852142D01*
X185091428Y-46911666D01*
X185150952Y-47030714D01*
X185150952Y-47149761D01*
X184555714Y-47268809D01*
X185567619Y-46852142D02*
X185865238Y-47685476D01*
X186162857Y-46852142D01*
X186639047Y-47685476D02*
X186639047Y-46852142D01*
X186639047Y-46435476D02*
X186579523Y-46495000D01*
X186639047Y-46554523D01*
X186698571Y-46495000D01*
X186639047Y-46435476D01*
X186639047Y-46554523D01*
X187174761Y-47625952D02*
X187293809Y-47685476D01*
X187531904Y-47685476D01*
X187650952Y-47625952D01*
X187710476Y-47506904D01*
X187710476Y-47447380D01*
X187650952Y-47328333D01*
X187531904Y-47268809D01*
X187353333Y-47268809D01*
X187234285Y-47209285D01*
X187174761Y-47090238D01*
X187174761Y-47030714D01*
X187234285Y-46911666D01*
X187353333Y-46852142D01*
X187531904Y-46852142D01*
X187650952Y-46911666D01*
X188246190Y-47685476D02*
X188246190Y-46852142D01*
X188246190Y-46435476D02*
X188186666Y-46495000D01*
X188246190Y-46554523D01*
X188305714Y-46495000D01*
X188246190Y-46435476D01*
X188246190Y-46554523D01*
X189019999Y-47685476D02*
X188900952Y-47625952D01*
X188841428Y-47566428D01*
X188781904Y-47447380D01*
X188781904Y-47090238D01*
X188841428Y-46971190D01*
X188900952Y-46911666D01*
X189019999Y-46852142D01*
X189198571Y-46852142D01*
X189317619Y-46911666D01*
X189377142Y-46971190D01*
X189436666Y-47090238D01*
X189436666Y-47447380D01*
X189377142Y-47566428D01*
X189317619Y-47625952D01*
X189198571Y-47685476D01*
X189019999Y-47685476D01*
X189972380Y-46852142D02*
X189972380Y-47685476D01*
X189972380Y-46971190D02*
X190031904Y-46911666D01*
X190150952Y-46852142D01*
X190329523Y-46852142D01*
X190448571Y-46911666D01*
X190508095Y-47030714D01*
X190508095Y-47685476D01*
X192710476Y-47685476D02*
X191996190Y-47685476D01*
X192353333Y-47685476D02*
X192353333Y-46435476D01*
X192234285Y-46614047D01*
X192115238Y-46733095D01*
X191996190Y-46792619D01*
X193246190Y-47566428D02*
X193305714Y-47625952D01*
X193246190Y-47685476D01*
X193186666Y-47625952D01*
X193246190Y-47566428D01*
X193246190Y-47685476D01*
X194079523Y-46435476D02*
X194198571Y-46435476D01*
X194317619Y-46495000D01*
X194377142Y-46554523D01*
X194436666Y-46673571D01*
X194496190Y-46911666D01*
X194496190Y-47209285D01*
X194436666Y-47447380D01*
X194377142Y-47566428D01*
X194317619Y-47625952D01*
X194198571Y-47685476D01*
X194079523Y-47685476D01*
X193960476Y-47625952D01*
X193900952Y-47566428D01*
X193841428Y-47447380D01*
X193781904Y-47209285D01*
X193781904Y-46911666D01*
X193841428Y-46673571D01*
X193900952Y-46554523D01*
X193960476Y-46495000D01*
X194079523Y-46435476D01*
X195924761Y-46554523D02*
X195984285Y-46495000D01*
X196103333Y-46435476D01*
X196400952Y-46435476D01*
X196519999Y-46495000D01*
X196579523Y-46554523D01*
X196639047Y-46673571D01*
X196639047Y-46792619D01*
X196579523Y-46971190D01*
X195865238Y-47685476D01*
X196639047Y-47685476D01*
X197412857Y-46435476D02*
X197531904Y-46435476D01*
X197650952Y-46495000D01*
X197710476Y-46554523D01*
X197769999Y-46673571D01*
X197829523Y-46911666D01*
X197829523Y-47209285D01*
X197769999Y-47447380D01*
X197710476Y-47566428D01*
X197650952Y-47625952D01*
X197531904Y-47685476D01*
X197412857Y-47685476D01*
X197293809Y-47625952D01*
X197234285Y-47566428D01*
X197174761Y-47447380D01*
X197115238Y-47209285D01*
X197115238Y-46911666D01*
X197174761Y-46673571D01*
X197234285Y-46554523D01*
X197293809Y-46495000D01*
X197412857Y-46435476D01*
X198305714Y-46554523D02*
X198365238Y-46495000D01*
X198484285Y-46435476D01*
X198781904Y-46435476D01*
X198900952Y-46495000D01*
X198960476Y-46554523D01*
X199019999Y-46673571D01*
X199019999Y-46792619D01*
X198960476Y-46971190D01*
X198246190Y-47685476D01*
X199019999Y-47685476D01*
X199793809Y-46435476D02*
X199912857Y-46435476D01*
X200031904Y-46495000D01*
X200091428Y-46554523D01*
X200150952Y-46673571D01*
X200210476Y-46911666D01*
X200210476Y-47209285D01*
X200150952Y-47447380D01*
X200091428Y-47566428D01*
X200031904Y-47625952D01*
X199912857Y-47685476D01*
X199793809Y-47685476D01*
X199674761Y-47625952D01*
X199615238Y-47566428D01*
X199555714Y-47447380D01*
X199496190Y-47209285D01*
X199496190Y-46911666D01*
X199555714Y-46673571D01*
X199615238Y-46554523D01*
X199674761Y-46495000D01*
X199793809Y-46435476D01*
X200746190Y-47209285D02*
X201698571Y-47209285D01*
X202531904Y-46435476D02*
X202650952Y-46435476D01*
X202769999Y-46495000D01*
X202829523Y-46554523D01*
X202889047Y-46673571D01*
X202948571Y-46911666D01*
X202948571Y-47209285D01*
X202889047Y-47447380D01*
X202829523Y-47566428D01*
X202769999Y-47625952D01*
X202650952Y-47685476D01*
X202531904Y-47685476D01*
X202412857Y-47625952D01*
X202353333Y-47566428D01*
X202293809Y-47447380D01*
X202234285Y-47209285D01*
X202234285Y-46911666D01*
X202293809Y-46673571D01*
X202353333Y-46554523D01*
X202412857Y-46495000D01*
X202531904Y-46435476D01*
X203365238Y-46435476D02*
X204198571Y-46435476D01*
X203662857Y-47685476D01*
X204674761Y-47209285D02*
X205627142Y-47209285D01*
X206162857Y-46554523D02*
X206222380Y-46495000D01*
X206341428Y-46435476D01*
X206639047Y-46435476D01*
X206758095Y-46495000D01*
X206817619Y-46554523D01*
X206877142Y-46673571D01*
X206877142Y-46792619D01*
X206817619Y-46971190D01*
X206103333Y-47685476D01*
X206877142Y-47685476D01*
X207293809Y-46435476D02*
X208067619Y-46435476D01*
X207650952Y-46911666D01*
X207829523Y-46911666D01*
X207948571Y-46971190D01*
X208008095Y-47030714D01*
X208067619Y-47149761D01*
X208067619Y-47447380D01*
X208008095Y-47566428D01*
X207948571Y-47625952D01*
X207829523Y-47685476D01*
X207472380Y-47685476D01*
X207353333Y-47625952D01*
X207293809Y-47566428D01*
D11*
X80392380Y-86319047D02*
X81106666Y-86319047D01*
X81249523Y-86366666D01*
X81344761Y-86461904D01*
X81392380Y-86604761D01*
X81392380Y-86700000D01*
X81392380Y-85366666D02*
X81392380Y-85842857D01*
X80392380Y-85842857D01*
X81297142Y-84461904D02*
X81344761Y-84509523D01*
X81392380Y-84652380D01*
X81392380Y-84747619D01*
X81344761Y-84890476D01*
X81249523Y-84985714D01*
X81154285Y-85033333D01*
X80963809Y-85080952D01*
X80820952Y-85080952D01*
X80630476Y-85033333D01*
X80535238Y-84985714D01*
X80440000Y-84890476D01*
X80392380Y-84747619D01*
X80392380Y-84652380D01*
X80440000Y-84509523D01*
X80487619Y-84461904D01*
X80392380Y-83747619D02*
X81106666Y-83747619D01*
X81249523Y-83795238D01*
X81344761Y-83890476D01*
X81392380Y-84033333D01*
X81392380Y-84128571D01*
X81392380Y-82795238D02*
X81392380Y-83271428D01*
X80392380Y-83271428D01*
X81297142Y-81890476D02*
X81344761Y-81938095D01*
X81392380Y-82080952D01*
X81392380Y-82176190D01*
X81344761Y-82319047D01*
X81249523Y-82414285D01*
X81154285Y-82461904D01*
X80963809Y-82509523D01*
X80820952Y-82509523D01*
X80630476Y-82461904D01*
X80535238Y-82414285D01*
X80440000Y-82319047D01*
X80392380Y-82176190D01*
X80392380Y-82080952D01*
X80440000Y-81938095D01*
X80487619Y-81890476D01*
X80392380Y-81176190D02*
X81106666Y-81176190D01*
X81249523Y-81223809D01*
X81344761Y-81319047D01*
X81392380Y-81461904D01*
X81392380Y-81557142D01*
X81392380Y-80223809D02*
X81392380Y-80700000D01*
X80392380Y-80700000D01*
X81297142Y-79319047D02*
X81344761Y-79366666D01*
X81392380Y-79509523D01*
X81392380Y-79604761D01*
X81344761Y-79747619D01*
X81249523Y-79842857D01*
X81154285Y-79890476D01*
X80963809Y-79938095D01*
X80820952Y-79938095D01*
X80630476Y-79890476D01*
X80535238Y-79842857D01*
X80440000Y-79747619D01*
X80392380Y-79604761D01*
X80392380Y-79509523D01*
X80440000Y-79366666D01*
X80487619Y-79319047D01*
X80392380Y-78604761D02*
X81106666Y-78604761D01*
X81249523Y-78652380D01*
X81344761Y-78747619D01*
X81392380Y-78890476D01*
X81392380Y-78985714D01*
X81392380Y-77652380D02*
X81392380Y-78128571D01*
X80392380Y-78128571D01*
X81297142Y-76747619D02*
X81344761Y-76795238D01*
X81392380Y-76938095D01*
X81392380Y-77033333D01*
X81344761Y-77176190D01*
X81249523Y-77271428D01*
X81154285Y-77319047D01*
X80963809Y-77366666D01*
X80820952Y-77366666D01*
X80630476Y-77319047D01*
X80535238Y-77271428D01*
X80440000Y-77176190D01*
X80392380Y-77033333D01*
X80392380Y-76938095D01*
X80440000Y-76795238D01*
X80487619Y-76747619D01*
D12*
X324505136Y-53187162D02*
G75*
G03X324505136Y-53187162I-3000000J0D01*
G01*
X327405136Y-55187162D02*
X327405136Y-59287162D01*
X315605136Y-59287162D02*
X315605136Y-55187162D01*
X315605136Y-51187162D02*
X315605136Y-47087162D01*
X327405136Y-51187162D02*
X327405136Y-47087162D01*
X327405136Y-47087162D02*
X315605136Y-47087162D01*
X325305136Y-45687162D02*
X325605136Y-45387162D01*
X325605136Y-45387162D02*
X325605136Y-45987162D01*
X325605136Y-45987162D02*
X325305136Y-45687162D01*
X327405136Y-59287162D02*
X325005136Y-59287162D01*
X322805136Y-59287162D02*
X320205136Y-59287162D01*
X318005136Y-59287162D02*
X315605136Y-59287162D01*
X204044719Y-110187012D02*
G75*
G03X204044719Y-110187012I-3000000J0D01*
G01*
X206944719Y-112187012D02*
X206944719Y-116287012D01*
X195144719Y-116287012D02*
X195144719Y-112187012D01*
X195144719Y-108187012D02*
X195144719Y-104087012D01*
X206944719Y-108187012D02*
X206944719Y-104087012D01*
X206944719Y-104087012D02*
X195144719Y-104087012D01*
X204844719Y-102687012D02*
X205144719Y-102387012D01*
X205144719Y-102387012D02*
X205144719Y-102987012D01*
X205144719Y-102987012D02*
X204844719Y-102687012D01*
X206944719Y-116287012D02*
X204544719Y-116287012D01*
X202344719Y-116287012D02*
X199744719Y-116287012D01*
X197544719Y-116287012D02*
X195144719Y-116287012D01*
X185044769Y-110187012D02*
G75*
G03X185044769Y-110187012I-3000000J0D01*
G01*
X187944769Y-112187012D02*
X187944769Y-116287012D01*
X176144769Y-116287012D02*
X176144769Y-112187012D01*
X176144769Y-108187012D02*
X176144769Y-104087012D01*
X187944769Y-108187012D02*
X187944769Y-104087012D01*
X187944769Y-104087012D02*
X176144769Y-104087012D01*
X185844769Y-102687012D02*
X186144769Y-102387012D01*
X186144769Y-102387012D02*
X186144769Y-102987012D01*
X186144769Y-102987012D02*
X185844769Y-102687012D01*
X187944769Y-116287012D02*
X185544769Y-116287012D01*
X183344769Y-116287012D02*
X180744769Y-116287012D01*
X178544769Y-116287012D02*
X176144769Y-116287012D01*
X299044469Y-53187162D02*
G75*
G03X299044469Y-53187162I-3000000J0D01*
G01*
X301944469Y-55187162D02*
X301944469Y-59287162D01*
X290144469Y-59287162D02*
X290144469Y-55187162D01*
X290144469Y-51187162D02*
X290144469Y-47087162D01*
X301944469Y-51187162D02*
X301944469Y-47087162D01*
X301944469Y-47087162D02*
X290144469Y-47087162D01*
X299844469Y-45687162D02*
X300144469Y-45387162D01*
X300144469Y-45387162D02*
X300144469Y-45987162D01*
X300144469Y-45987162D02*
X299844469Y-45687162D01*
X301944469Y-59287162D02*
X299544469Y-59287162D01*
X297344469Y-59287162D02*
X294744469Y-59287162D01*
X292544469Y-59287162D02*
X290144469Y-59287162D01*
X324505136Y-110187012D02*
G75*
G03X324505136Y-110187012I-3000000J0D01*
G01*
X327405136Y-112187012D02*
X327405136Y-116287012D01*
X315605136Y-116287012D02*
X315605136Y-112187012D01*
X315605136Y-108187012D02*
X315605136Y-104087012D01*
X327405136Y-108187012D02*
X327405136Y-104087012D01*
X327405136Y-104087012D02*
X315605136Y-104087012D01*
X325305136Y-102687012D02*
X325605136Y-102387012D01*
X325605136Y-102387012D02*
X325605136Y-102987012D01*
X325605136Y-102987012D02*
X325305136Y-102687012D01*
X327405136Y-116287012D02*
X325005136Y-116287012D01*
X322805136Y-116287012D02*
X320205136Y-116287012D01*
X318005136Y-116287012D02*
X315605136Y-116287012D01*
X64585086Y-110187012D02*
G75*
G03X64585086Y-110187012I-3000000J0D01*
G01*
X67485086Y-112187012D02*
X67485086Y-116287012D01*
X55685086Y-116287012D02*
X55685086Y-112187012D01*
X55685086Y-108187012D02*
X55685086Y-104087012D01*
X67485086Y-108187012D02*
X67485086Y-104087012D01*
X67485086Y-104087012D02*
X55685086Y-104087012D01*
X65385086Y-102687012D02*
X65685086Y-102387012D01*
X65685086Y-102387012D02*
X65685086Y-102987012D01*
X65685086Y-102987012D02*
X65385086Y-102687012D01*
X67485086Y-116287012D02*
X65085086Y-116287012D01*
X62885086Y-116287012D02*
X60285086Y-116287012D01*
X58085086Y-116287012D02*
X55685086Y-116287012D01*
X90045399Y-53187302D02*
G75*
G03X90045399Y-53187302I-3000000J0D01*
G01*
X92945399Y-55187302D02*
X92945399Y-59287302D01*
X81145399Y-59287302D02*
X81145399Y-55187302D01*
X81145399Y-51187302D02*
X81145399Y-47087302D01*
X92945399Y-51187302D02*
X92945399Y-47087302D01*
X92945399Y-47087302D02*
X81145399Y-47087302D01*
X90845399Y-45687302D02*
X91145399Y-45387302D01*
X91145399Y-45387302D02*
X91145399Y-45987302D01*
X91145399Y-45987302D02*
X90845399Y-45687302D01*
X92945399Y-59287302D02*
X90545399Y-59287302D01*
X88345399Y-59287302D02*
X85745399Y-59287302D01*
X83545399Y-59287302D02*
X81145399Y-59287302D01*
X64585086Y-53187162D02*
G75*
G03X64585086Y-53187162I-3000000J0D01*
G01*
X67485086Y-55187162D02*
X67485086Y-59287162D01*
X55685086Y-59287162D02*
X55685086Y-55187162D01*
X55685086Y-51187162D02*
X55685086Y-47087162D01*
X67485086Y-51187162D02*
X67485086Y-47087162D01*
X67485086Y-47087162D02*
X55685086Y-47087162D01*
X65385086Y-45687162D02*
X65685086Y-45387162D01*
X65685086Y-45387162D02*
X65685086Y-45987162D01*
X65685086Y-45987162D02*
X65385086Y-45687162D01*
X67485086Y-59287162D02*
X65085086Y-59287162D01*
X62885086Y-59287162D02*
X60285086Y-59287162D01*
X58085086Y-59287162D02*
X55685086Y-59287162D01*
%LPC*%
D13*
X324005136Y-45687162D03*
D14*
X321505136Y-45687162D03*
X319005136Y-45687162D03*
D15*
X327105136Y-53187162D03*
X315905136Y-53187162D03*
D14*
X324005136Y-60187162D03*
X319005136Y-60187162D03*
D13*
X203544719Y-102687012D03*
D14*
X201044719Y-102687012D03*
X198544719Y-102687012D03*
D15*
X206644719Y-110187012D03*
X195444719Y-110187012D03*
D14*
X203544719Y-117187012D03*
X198544719Y-117187012D03*
D13*
X184544769Y-102687012D03*
D14*
X182044769Y-102687012D03*
X179544769Y-102687012D03*
D15*
X187644769Y-110187012D03*
X176444769Y-110187012D03*
D14*
X184544769Y-117187012D03*
X179544769Y-117187012D03*
D13*
X298544469Y-45687162D03*
D14*
X296044469Y-45687162D03*
X293544469Y-45687162D03*
D15*
X301644469Y-53187162D03*
X290444469Y-53187162D03*
D14*
X298544469Y-60187162D03*
X293544469Y-60187162D03*
D13*
X324005136Y-102687012D03*
D14*
X321505136Y-102687012D03*
X319005136Y-102687012D03*
D15*
X327105136Y-110187012D03*
X315905136Y-110187012D03*
D14*
X324005136Y-117187012D03*
X319005136Y-117187012D03*
D13*
X64085086Y-102687012D03*
D14*
X61585086Y-102687012D03*
X59085086Y-102687012D03*
D15*
X67185086Y-110187012D03*
X55985086Y-110187012D03*
D14*
X64085086Y-117187012D03*
X59085086Y-117187012D03*
D13*
X89545399Y-45687302D03*
D14*
X87045399Y-45687302D03*
X84545399Y-45687302D03*
D15*
X92645399Y-53187302D03*
X81445399Y-53187302D03*
D14*
X89545399Y-60187302D03*
X84545399Y-60187302D03*
D13*
X64085086Y-45687162D03*
D14*
X61585086Y-45687162D03*
X59085086Y-45687162D03*
D15*
X67185086Y-53187162D03*
X55985086Y-53187162D03*
D14*
X64085086Y-60187162D03*
X59085086Y-60187162D03*
D16*
X304380000Y-65748000D03*
X304380000Y-64224000D03*
X304380000Y-59652000D03*
X304380000Y-61176000D03*
X304380000Y-62700000D03*
X304380000Y-100700000D03*
X304380000Y-99176000D03*
X304380000Y-97652000D03*
X304380000Y-102224000D03*
X304380000Y-103748000D03*
X78660000Y-103748000D03*
X78660000Y-102224000D03*
X78660000Y-97652000D03*
X78660000Y-99176000D03*
X78660000Y-100700000D03*
X78660000Y-65748000D03*
X78660000Y-64224000D03*
X78660000Y-59652000D03*
X78660000Y-61176000D03*
X78660000Y-62700000D03*
D17*
X65369686Y-74739812D03*
X59019686Y-77279812D03*
D18*
X56479686Y-72199812D03*
X66639686Y-72199812D03*
D19*
X61559686Y-72199812D03*
D20*
G36*
X192041441Y-55200471D02*
G01*
X192085206Y-55206963D01*
X192128125Y-55217713D01*
X192169783Y-55232619D01*
X192209779Y-55251536D01*
X192247729Y-55274282D01*
X192283266Y-55300638D01*
X192316049Y-55330351D01*
X192345762Y-55363134D01*
X192372118Y-55398671D01*
X192394864Y-55436621D01*
X192413781Y-55476617D01*
X192428687Y-55518275D01*
X192439437Y-55561194D01*
X192445929Y-55604959D01*
X192448100Y-55649150D01*
X192448100Y-56550850D01*
X192445929Y-56595041D01*
X192439437Y-56638806D01*
X192428687Y-56681725D01*
X192413781Y-56723383D01*
X192394864Y-56763379D01*
X192372118Y-56801329D01*
X192345762Y-56836866D01*
X192316049Y-56869649D01*
X192283266Y-56899362D01*
X192247729Y-56925718D01*
X192209779Y-56948464D01*
X192169783Y-56967381D01*
X192128125Y-56982287D01*
X192085206Y-56993037D01*
X192041441Y-56999529D01*
X191997250Y-57001700D01*
X191095550Y-57001700D01*
X191051359Y-56999529D01*
X191007594Y-56993037D01*
X190964675Y-56982287D01*
X190923017Y-56967381D01*
X190883021Y-56948464D01*
X190845071Y-56925718D01*
X190809534Y-56899362D01*
X190776751Y-56869649D01*
X190747038Y-56836866D01*
X190720682Y-56801329D01*
X190697936Y-56763379D01*
X190679019Y-56723383D01*
X190664113Y-56681725D01*
X190653363Y-56638806D01*
X190646871Y-56595041D01*
X190644700Y-56550850D01*
X190644700Y-55649150D01*
X190646871Y-55604959D01*
X190653363Y-55561194D01*
X190664113Y-55518275D01*
X190679019Y-55476617D01*
X190697936Y-55436621D01*
X190720682Y-55398671D01*
X190747038Y-55363134D01*
X190776751Y-55330351D01*
X190809534Y-55300638D01*
X190845071Y-55274282D01*
X190883021Y-55251536D01*
X190923017Y-55232619D01*
X190964675Y-55217713D01*
X191007594Y-55206963D01*
X191051359Y-55200471D01*
X191095550Y-55198300D01*
X191997250Y-55198300D01*
X192041441Y-55200471D01*
X192041441Y-55200471D01*
G37*
D21*
X191546400Y-56100000D03*
X191140000Y-58640000D03*
X191546400Y-61180000D03*
X191140000Y-63720000D03*
X191546400Y-66260000D03*
X191140000Y-68800000D03*
D17*
X65369686Y-112739712D03*
X59019686Y-115279712D03*
D18*
X56479686Y-110199712D03*
X66639686Y-110199712D03*
D19*
X61559686Y-110199712D03*
D22*
X111219999Y-44208627D03*
D23*
X112629999Y-47857627D03*
X118409999Y-47857627D03*
D22*
X119819999Y-44208627D03*
D24*
X119819999Y-48408627D03*
X111219999Y-48408627D03*
D17*
X325289736Y-55739862D03*
X318939736Y-58279862D03*
D18*
X316399736Y-53199862D03*
X326559736Y-53199862D03*
D19*
X321479736Y-53199862D03*
D17*
X65369686Y-55739862D03*
X59019686Y-58279862D03*
D18*
X56479686Y-53199862D03*
X66639686Y-53199862D03*
D19*
X61559686Y-53199862D03*
D17*
X325289736Y-74739812D03*
X318939736Y-77279812D03*
D18*
X316399736Y-72199812D03*
X326559736Y-72199812D03*
D19*
X321479736Y-72199812D03*
D17*
X325289736Y-93739762D03*
X318939736Y-96279762D03*
D18*
X316399736Y-91199762D03*
X326559736Y-91199762D03*
D19*
X321479736Y-91199762D03*
D17*
X65369686Y-93739762D03*
X59019686Y-96279762D03*
D18*
X56479686Y-91199762D03*
X66639686Y-91199762D03*
D19*
X61559686Y-91199762D03*
D17*
X325289736Y-112739712D03*
X318939736Y-115279712D03*
D18*
X316399736Y-110199712D03*
X326559736Y-110199712D03*
D19*
X321479736Y-110199712D03*
D17*
X90829999Y-55740002D03*
X84479999Y-58280002D03*
D18*
X81939999Y-53200002D03*
X92099999Y-53200002D03*
D19*
X87019999Y-53200002D03*
D17*
X109829999Y-55740002D03*
X103479999Y-58280002D03*
D18*
X100939999Y-53200002D03*
X111099999Y-53200002D03*
D19*
X106019999Y-53200002D03*
D17*
X128829999Y-55740002D03*
X122479999Y-58280002D03*
D18*
X119939999Y-53200002D03*
X130099999Y-53200002D03*
D19*
X125019999Y-53200002D03*
X144019999Y-53200002D03*
D18*
X149099999Y-53200002D03*
X138939999Y-53200002D03*
D17*
X141479999Y-58280002D03*
X147829999Y-55740002D03*
X166829419Y-55739862D03*
X160479419Y-58279862D03*
D18*
X157939419Y-53199862D03*
X168099419Y-53199862D03*
D19*
X163019419Y-53199862D03*
D17*
X185829369Y-55739862D03*
X179479369Y-58279862D03*
D18*
X176939369Y-53199862D03*
X187099369Y-53199862D03*
D19*
X182019369Y-53199862D03*
D17*
X204829319Y-55740002D03*
X198479319Y-58280002D03*
D18*
X195939319Y-53200002D03*
X206099319Y-53200002D03*
D19*
X201019319Y-53200002D03*
D17*
X223829999Y-55740002D03*
X217479999Y-58280002D03*
D18*
X214939999Y-53200002D03*
X225099999Y-53200002D03*
D19*
X220019999Y-53200002D03*
D17*
X242829999Y-55740002D03*
X236479999Y-58280002D03*
D18*
X233939999Y-53200002D03*
X244099999Y-53200002D03*
D19*
X239019999Y-53200002D03*
D17*
X261829169Y-55739862D03*
X255479169Y-58279862D03*
D18*
X252939169Y-53199862D03*
X263099169Y-53199862D03*
D19*
X258019169Y-53199862D03*
D17*
X280829119Y-55739862D03*
X274479119Y-58279862D03*
D18*
X271939119Y-53199862D03*
X282099119Y-53199862D03*
D19*
X277019119Y-53199862D03*
D17*
X299829069Y-55739862D03*
X293479069Y-58279862D03*
D18*
X290939069Y-53199862D03*
X301099069Y-53199862D03*
D19*
X296019069Y-53199862D03*
D17*
X90829999Y-74740002D03*
X84479999Y-77280002D03*
D18*
X81939999Y-72200002D03*
X92099999Y-72200002D03*
D19*
X87019999Y-72200002D03*
D17*
X109829999Y-74740002D03*
X103479999Y-77280002D03*
D18*
X100939999Y-72200002D03*
X111099999Y-72200002D03*
D19*
X106019999Y-72200002D03*
D17*
X128829999Y-74740002D03*
X122479999Y-77280002D03*
D18*
X119939999Y-72200002D03*
X130099999Y-72200002D03*
D19*
X125019999Y-72200002D03*
D17*
X147829999Y-74740002D03*
X141479999Y-77280002D03*
D18*
X138939999Y-72200002D03*
X149099999Y-72200002D03*
D19*
X144019999Y-72200002D03*
D17*
X166829999Y-74740002D03*
X160479999Y-77280002D03*
D18*
X157939999Y-72200002D03*
X168099999Y-72200002D03*
D19*
X163019999Y-72200002D03*
D17*
X185829999Y-74740002D03*
X179479999Y-77280002D03*
D18*
X176939999Y-72200002D03*
X187099999Y-72200002D03*
D19*
X182019999Y-72200002D03*
D17*
X204829319Y-74740002D03*
X198479319Y-77280002D03*
D18*
X195939319Y-72200002D03*
X206099319Y-72200002D03*
D19*
X201019319Y-72200002D03*
D17*
X223804600Y-74752700D03*
X217454600Y-77292700D03*
D18*
X214914600Y-72212700D03*
X225074600Y-72212700D03*
D19*
X219994600Y-72212700D03*
D17*
X242829999Y-74740002D03*
X236479999Y-77280002D03*
D18*
X233939999Y-72200002D03*
X244099999Y-72200002D03*
D19*
X239019999Y-72200002D03*
D17*
X261829169Y-74739812D03*
X255479169Y-77279812D03*
D18*
X252939169Y-72199812D03*
X263099169Y-72199812D03*
D19*
X258019169Y-72199812D03*
D17*
X280829119Y-74739812D03*
X274479119Y-77279812D03*
D18*
X271939119Y-72199812D03*
X282099119Y-72199812D03*
D19*
X277019119Y-72199812D03*
D17*
X299829069Y-74739812D03*
X293479069Y-77279812D03*
D18*
X290939069Y-72199812D03*
X301099069Y-72199812D03*
D19*
X296019069Y-72199812D03*
D17*
X90829999Y-93740002D03*
X84479999Y-96280002D03*
D18*
X81939999Y-91200002D03*
X92099999Y-91200002D03*
D19*
X87019999Y-91200002D03*
D17*
X109829999Y-93740002D03*
X103479999Y-96280002D03*
D18*
X100939999Y-91200002D03*
X111099999Y-91200002D03*
D19*
X106019999Y-91200002D03*
D17*
X128829999Y-93740002D03*
X122479999Y-96280002D03*
D18*
X119939999Y-91200002D03*
X130099999Y-91200002D03*
D19*
X125019999Y-91200002D03*
D17*
X147829469Y-93739762D03*
X141479469Y-96279762D03*
D18*
X138939469Y-91199762D03*
X149099469Y-91199762D03*
D19*
X144019469Y-91199762D03*
D17*
X166829419Y-93739762D03*
X160479419Y-96279762D03*
D18*
X157939419Y-91199762D03*
X168099419Y-91199762D03*
D19*
X163019419Y-91199762D03*
D17*
X185829369Y-93739762D03*
X179479369Y-96279762D03*
D18*
X176939369Y-91199762D03*
X187099369Y-91199762D03*
D19*
X182019369Y-91199762D03*
D17*
X223829269Y-93740002D03*
X217479269Y-96280002D03*
D18*
X214939269Y-91200002D03*
X225099269Y-91200002D03*
D19*
X220019269Y-91200002D03*
D17*
X242829219Y-93739762D03*
X236479219Y-96279762D03*
D18*
X233939219Y-91199762D03*
X244099219Y-91199762D03*
D19*
X239019219Y-91199762D03*
D17*
X261829169Y-93739762D03*
X255479169Y-96279762D03*
D18*
X252939169Y-91199762D03*
X263099169Y-91199762D03*
D19*
X258019169Y-91199762D03*
D17*
X280829119Y-93739762D03*
X274479119Y-96279762D03*
D18*
X271939119Y-91199762D03*
X282099119Y-91199762D03*
D19*
X277019119Y-91199762D03*
D17*
X90829619Y-112740002D03*
X84479619Y-115280002D03*
D18*
X81939619Y-110200002D03*
X92099619Y-110200002D03*
D19*
X87019619Y-110200002D03*
D17*
X109829999Y-112740002D03*
X103479999Y-115280002D03*
D18*
X100939999Y-110200002D03*
X111099999Y-110200002D03*
D19*
X106019999Y-110200002D03*
D17*
X128829999Y-112740002D03*
X122479999Y-115280002D03*
D18*
X119939999Y-110200002D03*
X130099999Y-110200002D03*
D19*
X125019999Y-110200002D03*
D17*
X147829469Y-112739712D03*
X141479469Y-115279712D03*
D18*
X138939469Y-110199712D03*
X149099469Y-110199712D03*
D19*
X144019469Y-110199712D03*
D17*
X166829999Y-112740002D03*
X160479999Y-115280002D03*
D18*
X157939999Y-110200002D03*
X168099999Y-110200002D03*
D19*
X163019999Y-110200002D03*
D17*
X185829369Y-112739712D03*
X179479369Y-115279712D03*
D18*
X176939369Y-110199712D03*
X187099369Y-110199712D03*
D19*
X182019369Y-110199712D03*
D17*
X223829269Y-112739712D03*
X217479269Y-115279712D03*
D18*
X214939269Y-110199712D03*
X225099269Y-110199712D03*
D19*
X220019269Y-110199712D03*
D17*
X242829219Y-112739712D03*
X236479219Y-115279712D03*
D18*
X233939219Y-110199712D03*
X244099219Y-110199712D03*
D19*
X239019219Y-110199712D03*
D17*
X261829169Y-112739712D03*
X255479169Y-115279712D03*
D18*
X252939169Y-110199712D03*
X263099169Y-110199712D03*
D19*
X258019169Y-110199712D03*
D17*
X280829119Y-112739712D03*
X274479119Y-115279712D03*
D18*
X271939119Y-110199712D03*
X282099119Y-110199712D03*
D19*
X277019119Y-110199712D03*
D17*
X204829319Y-93739762D03*
X198479319Y-96279762D03*
D18*
X195939319Y-91199762D03*
X206099319Y-91199762D03*
D19*
X201019319Y-91199762D03*
D17*
X204829319Y-112739712D03*
X198479319Y-115279712D03*
D18*
X195939319Y-110199712D03*
X206099319Y-110199712D03*
D19*
X201019319Y-110199712D03*
D17*
X299829069Y-93739762D03*
X293479069Y-96279762D03*
D18*
X290939069Y-91199762D03*
X301099069Y-91199762D03*
D19*
X296019069Y-91199762D03*
D17*
X299829999Y-112740002D03*
X293479999Y-115280002D03*
D18*
X290939999Y-110200002D03*
X301099999Y-110200002D03*
D19*
X296019999Y-110200002D03*
D25*
X96519999Y-81700000D03*
X134520000Y-62700000D03*
X134520000Y-100700000D03*
X248520000Y-62700000D03*
X248520000Y-100700000D03*
X286520000Y-81700000D03*
X311980000Y-62700000D03*
X71059661Y-62699837D03*
X311980000Y-100700000D03*
X71059661Y-100699737D03*
X96520000Y-62700000D03*
X96520000Y-100700000D03*
X229520000Y-100700000D03*
X153520000Y-100700000D03*
X153520000Y-62700000D03*
X229520000Y-62700000D03*
X286520000Y-100700000D03*
X286520000Y-62700000D03*
M02*
