M48
; DRILL file {KiCad (5.1.4-0)} date Saturday, April 24, 2021 at 11:51:21 PM
; FORMAT={-:-/ absolute / inch / decimal}
; #@! TF.CreationDate,2021-04-24T23:51:21-05:00
; #@! TF.GenerationSoftware,Kicad,Pcbnew,(5.1.4-0)
; #@! TF.FileFunction,NonPlated,1,2,NPTH
FMAT,2
INCH
T1C0.0256
T2C0.0315
T3C0.0670
T4C0.1570
%
G90
G05
T1
X4.4343Y-1.8468
X4.6618Y-1.8468
T2
X3.0969Y-4.3386
X3.0969Y-2.7225
X3.0969Y-2.7825
X3.0969Y-2.8425
X3.0969Y-2.9025
X3.0969Y-2.9625
X3.0969Y-4.2186
X3.0969Y-4.2786
X3.0969Y-4.3986
X3.0969Y-4.4586
X3.0969Y-1.9745
X3.0969Y-2.0345
X3.0969Y-2.0945
X3.0969Y-2.1545
X3.0969Y-2.2145
X3.0969Y-3.4706
X3.0969Y-3.5306
X3.0969Y-3.5906
X3.0969Y-3.6506
X3.0969Y-3.7106
T3
X9.2122Y-3.5895
X9.6122Y-3.5895
X3.976Y-2.0935
X3.628Y-2.8415
X11.4563Y-2.8415
X11.8563Y-2.8415
X8.4642Y-4.3376
X8.8642Y-4.3376
X2.2256Y-2.8415
X2.6256Y-2.8415
X9.2122Y-4.3376
X9.6122Y-4.3376
X3.228Y-3.5896
X3.628Y-3.5896
X4.376Y-2.0935
X3.228Y-2.8415
X5.4721Y-2.0935
X5.8721Y-2.0935
X4.724Y-2.8415
X5.124Y-2.8415
X3.976Y-2.8415
X4.376Y-2.8415
X9.9602Y-4.3376
X10.3602Y-4.3376
X4.724Y-3.5896
X6.2201Y-2.0935
X3.628Y-4.3376
X6.9681Y-2.0935
X7.3681Y-2.0935
X6.6201Y-2.0935
X3.976Y-4.3376
X7.7161Y-2.0935
X8.1161Y-2.0935
X5.124Y-3.5896
X10.7083Y-3.5895
X11.1083Y-3.5895
X3.976Y-3.5896
X4.376Y-3.5896
X5.4721Y-3.5895
X5.8721Y-3.5895
X3.228Y-4.3376
X4.376Y-4.3376
X8.4642Y-2.0935
X8.8642Y-2.0935
X4.724Y-4.3376
X5.124Y-4.3376
X6.2201Y-2.8415
X6.6201Y-2.8415
X5.4721Y-2.8415
X5.8721Y-2.8415
X10.7083Y-4.3376
X11.1083Y-4.3376
X2.2256Y-4.3376
X2.6256Y-4.3376
X7.7161Y-2.8415
X7.7161Y-3.5895
X8.1161Y-3.5895
X8.1161Y-4.3376
X6.9681Y-2.8415
X7.3681Y-2.8415
X6.2201Y-3.5895
X6.6201Y-3.5895
X6.9681Y-3.5895
X7.3681Y-3.5895
X9.2122Y-2.0935
X9.6122Y-2.0935
X7.7161Y-4.3376
X8.4632Y-2.842
X8.8632Y-2.842
X2.2256Y-3.5895
X11.8563Y-3.5895
X8.1161Y-2.8415
X5.4721Y-4.3376
X5.8721Y-4.3376
X2.2256Y-2.0935
X9.9602Y-2.8415
X10.3602Y-2.8415
X7.3681Y-4.3376
X10.7083Y-2.8415
X11.1083Y-2.8415
X2.6256Y-3.5895
X2.6256Y-2.0935
X10.7083Y-2.0935
X11.1083Y-2.0935
X9.9602Y-2.0935
X9.6122Y-2.8415
X10.3602Y-2.0935
X9.2122Y-2.8415
X11.4563Y-3.5895
X6.2201Y-4.3376
X3.228Y-2.0935
X6.9681Y-4.3376
X11.4563Y-4.3376
X11.8563Y-4.3376
X3.628Y-2.0935
X11.4563Y-2.0935
X11.8563Y-2.0935
X8.4642Y-3.5896
X8.8642Y-3.5896
X6.6201Y-4.3376
X9.9602Y-3.5895
X10.3602Y-3.5895
X4.724Y-2.0935
X5.124Y-2.0935
T4
X10.9083Y-4.3376
X7.9161Y-2.0935
X5.6721Y-3.5895
X6.4201Y-3.5895
X8.6642Y-2.0935
X5.6721Y-4.3376
X7.9161Y-3.5895
X7.1681Y-3.5895
X9.4122Y-2.0935
X7.9161Y-4.3376
X2.4256Y-2.0935
X10.1602Y-2.0935
X6.4201Y-4.3376
X9.4122Y-2.8415
X8.6632Y-2.842
X7.9161Y-2.8415
X7.1681Y-2.8415
X4.924Y-4.3376
X11.6563Y-3.5895
X11.6563Y-4.3376
X8.6642Y-3.5896
X9.4122Y-3.5895
X4.176Y-2.0935
X3.428Y-2.0935
X10.9083Y-2.8415
X2.4256Y-3.5895
X10.1602Y-2.8415
X10.9083Y-2.0935
X7.1681Y-4.3376
X3.428Y-2.8415
X8.6642Y-4.3376
X10.9083Y-3.5895
X9.4122Y-4.3376
X4.924Y-2.0935
X2.4256Y-2.8415
X5.6721Y-2.0935
X10.1602Y-3.5895
X3.428Y-3.5896
X11.6563Y-2.8415
X11.6563Y-2.0935
X3.428Y-4.3376
X4.176Y-2.8415
X10.1602Y-4.3376
X6.4201Y-2.0935
X4.924Y-3.5896
X4.176Y-3.5896
X4.176Y-4.3376
X2.4256Y-4.3376
X6.4201Y-2.8415
X5.6721Y-2.8415
X4.924Y-2.8415
X7.1681Y-2.0935
T0
M30
