G04 #@! TF.GenerationSoftware,KiCad,Pcbnew,(5.1.4-0)*
G04 #@! TF.CreationDate,2021-11-04T10:19:40-05:00*
G04 #@! TF.ProjectId,bottom_plate,626f7474-6f6d-45f7-906c-6174652e6b69,rev?*
G04 #@! TF.SameCoordinates,Original*
G04 #@! TF.FileFunction,Profile,NP*
%FSLAX46Y46*%
G04 Gerber Fmt 4.6, Leading zero omitted, Abs format (unit mm)*
G04 Created by KiCad (PCBNEW (5.1.4-0)) date 2021-11-04 10:19:40*
%MOMM*%
%LPD*%
G04 APERTURE LIST*
%ADD10C,0.050000*%
G04 APERTURE END LIST*
D10*
X317328058Y-36301704D02*
X322090562Y-36301704D01*
X325067122Y-40468888D02*
X322090741Y-36301704D01*
X314351506Y-40468888D02*
X317328058Y-36301704D01*
X397695186Y-40468952D02*
G75*
G02X398885810Y-41659576I0J-1190624D01*
G01*
X398885810Y-115478264D02*
G75*
G02X397695186Y-116668888I-1190624J0D01*
G01*
X147664146Y-116668888D02*
G75*
G02X146473522Y-115478264I0J1190624D01*
G01*
X146473522Y-41659576D02*
G75*
G02X147664146Y-40468952I1190624J0D01*
G01*
X166714130Y-116668952D02*
X163737375Y-120836072D01*
X155998514Y-116668888D02*
X158974871Y-120836072D01*
X163737375Y-120836072D02*
X158974871Y-120836072D01*
X231007826Y-116668952D02*
X228031266Y-120836072D01*
X220292210Y-116668888D02*
X223268675Y-120836072D01*
X228031179Y-120836072D02*
X223268675Y-120836072D01*
X325067122Y-116668888D02*
X322090633Y-120836072D01*
X314351506Y-116668888D02*
X317328066Y-120836072D01*
X322090570Y-120836072D02*
X317328066Y-120836072D01*
X389360818Y-116668952D02*
X386384258Y-120836072D01*
X378645202Y-116668888D02*
X381621754Y-120836072D01*
X386384258Y-120836072D02*
X381621754Y-120836072D01*
X378645202Y-40468952D02*
X381621754Y-36301768D01*
X389360818Y-40468952D02*
X386384437Y-36301768D01*
X381621754Y-36301768D02*
X386384258Y-36301768D01*
X220887522Y-40468952D02*
X223863988Y-36301768D01*
X231603138Y-40468952D02*
X228626492Y-36301768D01*
X223863988Y-36301768D02*
X228626492Y-36301768D01*
X166714130Y-40468888D02*
X163737570Y-36301768D01*
X155998514Y-40468952D02*
X147664146Y-40468952D01*
X158974871Y-36301768D02*
X163737375Y-36301768D01*
X155998514Y-40468952D02*
X158975074Y-36301768D01*
X389360818Y-116668952D02*
X397695186Y-116668888D01*
X325067122Y-116668888D02*
X378645202Y-116668952D01*
X231007826Y-116668952D02*
X314351506Y-116668888D01*
X166714130Y-116669016D02*
X220292210Y-116668888D01*
X147664146Y-116668888D02*
X155998514Y-116668888D01*
X146473522Y-41659576D02*
X146473522Y-115478264D01*
X220887522Y-40468888D02*
X166714130Y-40468888D01*
X314351506Y-40468888D02*
X231603138Y-40468888D01*
X378645202Y-40468952D02*
X325067122Y-40468888D01*
X397695186Y-40468952D02*
X389360818Y-40468888D01*
X398885810Y-115478264D02*
X398885810Y-41659576D01*
M02*
