G04 #@! TF.GenerationSoftware,KiCad,Pcbnew,(5.1.4-0)*
G04 #@! TF.CreationDate,2021-10-30T11:04:40-05:00*
G04 #@! TF.ProjectId,bottom_plate,626f7474-6f6d-45f7-906c-6174652e6b69,rev?*
G04 #@! TF.SameCoordinates,Original*
G04 #@! TF.FileFunction,Copper,L2,Bot*
G04 #@! TF.FilePolarity,Positive*
%FSLAX46Y46*%
G04 Gerber Fmt 4.6, Leading zero omitted, Abs format (unit mm)*
G04 Created by KiCad (PCBNEW (5.1.4-0)) date 2021-10-30 11:04:40*
%MOMM*%
%LPD*%
G04 APERTURE LIST*
%ADD10C,3.500000*%
%ADD11C,0.500000*%
%ADD12C,0.254000*%
G04 APERTURE END LIST*
D10*
X319709314Y-118454824D03*
X319709381Y-38682951D03*
X225649927Y-118454824D03*
X226245240Y-38683016D03*
X161356123Y-118454824D03*
X161356322Y-38683016D03*
X384003010Y-38683016D03*
X384003010Y-118454824D03*
D11*
X385194165Y-59518840D03*
D12*
G36*
X317856831Y-37162602D02*
G01*
X317595821Y-37553230D01*
X317416035Y-37987272D01*
X317324381Y-38448049D01*
X317324381Y-38917853D01*
X317416035Y-39378630D01*
X317595821Y-39812672D01*
X317856831Y-40203300D01*
X318189032Y-40535501D01*
X318579660Y-40796511D01*
X319013702Y-40976297D01*
X319474479Y-41067951D01*
X319944283Y-41067951D01*
X320405060Y-40976297D01*
X320839102Y-40796511D01*
X321229730Y-40535501D01*
X321561931Y-40203300D01*
X321822941Y-39812672D01*
X322002727Y-39378630D01*
X322094381Y-38917853D01*
X322094381Y-38448049D01*
X322002727Y-37987272D01*
X321822941Y-37553230D01*
X321561931Y-37162602D01*
X321361033Y-36961704D01*
X321751082Y-36961704D01*
X324505207Y-40817712D01*
X324515697Y-40837337D01*
X324542894Y-40870476D01*
X324548889Y-40878870D01*
X324563476Y-40895556D01*
X324598174Y-40937835D01*
X324606186Y-40944411D01*
X324613017Y-40952224D01*
X324656388Y-40985610D01*
X324698672Y-41020312D01*
X324707820Y-41025202D01*
X324716037Y-41031527D01*
X324765079Y-41055807D01*
X324813329Y-41081597D01*
X324823249Y-41084606D01*
X324832548Y-41089210D01*
X324885386Y-41103456D01*
X324937739Y-41119337D01*
X324948062Y-41120354D01*
X324958074Y-41123053D01*
X325012664Y-41126716D01*
X325034703Y-41128887D01*
X325045010Y-41128887D01*
X325087792Y-41131758D01*
X325109862Y-41128887D01*
X378602454Y-41128952D01*
X378624514Y-41131822D01*
X378667301Y-41128952D01*
X378677620Y-41128952D01*
X378699655Y-41126782D01*
X378754231Y-41123121D01*
X378764251Y-41120420D01*
X378774584Y-41119402D01*
X378826936Y-41103521D01*
X378879758Y-41089281D01*
X378889063Y-41084675D01*
X378898994Y-41081662D01*
X378947247Y-41055871D01*
X378996271Y-41031601D01*
X379004494Y-41025272D01*
X379013651Y-41020377D01*
X379055933Y-40985677D01*
X379099293Y-40952301D01*
X379106129Y-40944482D01*
X379114149Y-40937900D01*
X379148851Y-40895616D01*
X379163423Y-40878948D01*
X379169419Y-40870554D01*
X379196626Y-40837402D01*
X379207113Y-40817781D01*
X381961402Y-36961768D01*
X382351359Y-36961768D01*
X382150460Y-37162667D01*
X381889450Y-37553295D01*
X381709664Y-37987337D01*
X381618010Y-38448114D01*
X381618010Y-38917918D01*
X381709664Y-39378695D01*
X381889450Y-39812737D01*
X382150460Y-40203365D01*
X382482661Y-40535566D01*
X382873289Y-40796576D01*
X383307331Y-40976362D01*
X383768108Y-41068016D01*
X384237912Y-41068016D01*
X384698689Y-40976362D01*
X385132731Y-40796576D01*
X385523359Y-40535566D01*
X385855560Y-40203365D01*
X386116570Y-39812737D01*
X386296356Y-39378695D01*
X386388010Y-38917918D01*
X386388010Y-38448114D01*
X386296356Y-37987337D01*
X386116570Y-37553295D01*
X385855560Y-37162667D01*
X385654661Y-36961768D01*
X386044778Y-36961768D01*
X388799040Y-40817968D01*
X388809391Y-40837333D01*
X388836233Y-40870040D01*
X388842585Y-40878934D01*
X388858033Y-40896605D01*
X388891867Y-40937832D01*
X388899683Y-40944247D01*
X388906713Y-40952288D01*
X388951331Y-40986634D01*
X388992364Y-41020310D01*
X389001245Y-41025057D01*
X389009733Y-41031591D01*
X389060380Y-41056666D01*
X389107021Y-41081596D01*
X389116613Y-41084506D01*
X389126244Y-41089274D01*
X389180955Y-41104025D01*
X389231431Y-41119337D01*
X389241387Y-41120318D01*
X389251770Y-41123117D01*
X389308384Y-41126916D01*
X389328394Y-41128887D01*
X389337753Y-41128887D01*
X389381488Y-41131822D01*
X389404047Y-41128888D01*
X397662903Y-41128951D01*
X397797637Y-41142162D01*
X397896182Y-41171915D01*
X397987079Y-41220245D01*
X398066848Y-41285303D01*
X398132471Y-41364628D01*
X398181431Y-41455178D01*
X398211872Y-41553515D01*
X398225811Y-41686135D01*
X398225810Y-115445987D01*
X398212600Y-115580714D01*
X398182846Y-115679263D01*
X398134516Y-115770157D01*
X398069459Y-115849926D01*
X397990136Y-115915547D01*
X397899584Y-115964509D01*
X397801249Y-115994949D01*
X397668624Y-116008888D01*
X389403565Y-116008952D01*
X389381511Y-116006083D01*
X389338720Y-116008953D01*
X389328394Y-116008953D01*
X389306355Y-116011124D01*
X389251794Y-116014783D01*
X389241773Y-116017484D01*
X389231431Y-116018503D01*
X389179063Y-116034389D01*
X389126266Y-116048622D01*
X389116959Y-116053229D01*
X389107021Y-116056244D01*
X389058771Y-116082034D01*
X389009753Y-116106300D01*
X389001525Y-116112633D01*
X388992364Y-116117530D01*
X388950087Y-116152227D01*
X388906730Y-116185600D01*
X388899890Y-116193424D01*
X388891867Y-116200008D01*
X388857196Y-116242255D01*
X388842599Y-116258951D01*
X388836585Y-116267370D01*
X388809391Y-116300507D01*
X388798913Y-116320111D01*
X386044614Y-120176072D01*
X385654661Y-120176072D01*
X385855560Y-119975173D01*
X386116570Y-119584545D01*
X386296356Y-119150503D01*
X386388010Y-118689726D01*
X386388010Y-118219922D01*
X386296356Y-117759145D01*
X386116570Y-117325103D01*
X385855560Y-116934475D01*
X385523359Y-116602274D01*
X385132731Y-116341264D01*
X384698689Y-116161478D01*
X384237912Y-116069824D01*
X383768108Y-116069824D01*
X383307331Y-116161478D01*
X382873289Y-116341264D01*
X382482661Y-116602274D01*
X382150460Y-116934475D01*
X381889450Y-117325103D01*
X381709664Y-117759145D01*
X381618010Y-118219922D01*
X381618010Y-118689726D01*
X381709664Y-119150503D01*
X381889450Y-119584545D01*
X382150460Y-119975173D01*
X382351359Y-120176072D01*
X381961402Y-120176072D01*
X379206979Y-116319871D01*
X379196627Y-116300503D01*
X379169770Y-116267778D01*
X379163423Y-116258892D01*
X379147997Y-116241247D01*
X379114150Y-116200005D01*
X379106328Y-116193585D01*
X379099293Y-116185539D01*
X379054674Y-116151194D01*
X379013652Y-116117528D01*
X379004768Y-116112779D01*
X378996271Y-116106239D01*
X378945613Y-116081161D01*
X378898995Y-116056243D01*
X378889400Y-116053332D01*
X378879758Y-116048559D01*
X378825020Y-116033802D01*
X378774585Y-116018503D01*
X378764631Y-116017523D01*
X378754231Y-116014719D01*
X378697589Y-116010920D01*
X378677621Y-116008953D01*
X378668270Y-116008953D01*
X378624514Y-116006018D01*
X378601956Y-116008953D01*
X325109865Y-116008888D01*
X325087803Y-116006018D01*
X325045026Y-116008888D01*
X325034704Y-116008888D01*
X325012647Y-116011060D01*
X324958086Y-116014721D01*
X324948074Y-116017420D01*
X324937740Y-116018438D01*
X324885368Y-116034325D01*
X324832559Y-116048562D01*
X324823259Y-116053166D01*
X324813330Y-116056178D01*
X324765082Y-116081967D01*
X324716047Y-116106242D01*
X324707824Y-116112572D01*
X324698673Y-116117463D01*
X324656400Y-116152156D01*
X324613025Y-116185544D01*
X324606190Y-116193363D01*
X324598175Y-116199940D01*
X324563486Y-116242208D01*
X324548896Y-116258897D01*
X324542895Y-116267298D01*
X324515698Y-116300438D01*
X324505212Y-116320056D01*
X321750981Y-120176072D01*
X321360965Y-120176072D01*
X321561864Y-119975173D01*
X321822874Y-119584545D01*
X322002660Y-119150503D01*
X322094314Y-118689726D01*
X322094314Y-118219922D01*
X322002660Y-117759145D01*
X321822874Y-117325103D01*
X321561864Y-116934475D01*
X321229663Y-116602274D01*
X320839035Y-116341264D01*
X320404993Y-116161478D01*
X319944216Y-116069824D01*
X319474412Y-116069824D01*
X319013635Y-116161478D01*
X318579593Y-116341264D01*
X318188965Y-116602274D01*
X317856764Y-116934475D01*
X317595754Y-117325103D01*
X317415968Y-117759145D01*
X317324314Y-118219922D01*
X317324314Y-118689726D01*
X317415968Y-119150503D01*
X317595754Y-119584545D01*
X317856764Y-119975173D01*
X318057663Y-120176072D01*
X317667713Y-120176072D01*
X314913418Y-116320060D01*
X314902930Y-116300438D01*
X314875721Y-116267283D01*
X314869726Y-116258891D01*
X314855160Y-116242230D01*
X314820453Y-116199940D01*
X314812430Y-116193355D01*
X314805596Y-116185539D01*
X314762244Y-116152169D01*
X314719955Y-116117463D01*
X314710798Y-116112569D01*
X314702574Y-116106238D01*
X314653549Y-116081968D01*
X314605298Y-116056178D01*
X314595365Y-116053165D01*
X314586061Y-116048559D01*
X314533248Y-116034321D01*
X314480888Y-116018438D01*
X314470554Y-116017420D01*
X314460534Y-116014719D01*
X314405961Y-116011058D01*
X314383924Y-116008888D01*
X314373604Y-116008888D01*
X314330817Y-116006018D01*
X314308758Y-116008888D01*
X231050577Y-116008953D01*
X231028519Y-116006083D01*
X230985727Y-116008953D01*
X230975407Y-116008953D01*
X230953378Y-116011123D01*
X230898802Y-116014783D01*
X230888779Y-116017485D01*
X230878443Y-116018503D01*
X230826095Y-116034383D01*
X230773274Y-116048622D01*
X230763966Y-116053230D01*
X230754033Y-116056243D01*
X230705798Y-116082025D01*
X230656761Y-116106300D01*
X230648532Y-116112634D01*
X230639376Y-116117528D01*
X230597105Y-116152219D01*
X230553738Y-116185600D01*
X230546899Y-116193422D01*
X230538878Y-116200005D01*
X230504201Y-116242259D01*
X230489607Y-116258951D01*
X230483598Y-116267364D01*
X230456401Y-116300503D01*
X230445920Y-116320112D01*
X227691622Y-120176072D01*
X227301578Y-120176072D01*
X227502477Y-119975173D01*
X227763487Y-119584545D01*
X227943273Y-119150503D01*
X228034927Y-118689726D01*
X228034927Y-118219922D01*
X227943273Y-117759145D01*
X227763487Y-117325103D01*
X227502477Y-116934475D01*
X227170276Y-116602274D01*
X226779648Y-116341264D01*
X226345606Y-116161478D01*
X225884829Y-116069824D01*
X225415025Y-116069824D01*
X224954248Y-116161478D01*
X224520206Y-116341264D01*
X224129578Y-116602274D01*
X223797377Y-116934475D01*
X223536367Y-117325103D01*
X223356581Y-117759145D01*
X223264927Y-118219922D01*
X223264927Y-118689726D01*
X223356581Y-119150503D01*
X223536367Y-119584545D01*
X223797377Y-119975173D01*
X223998276Y-120176072D01*
X223608329Y-120176072D01*
X220854124Y-116320063D01*
X220843634Y-116300437D01*
X220816430Y-116267289D01*
X220810437Y-116258899D01*
X220795865Y-116242231D01*
X220761156Y-116199939D01*
X220753136Y-116193357D01*
X220746307Y-116185546D01*
X220702949Y-116152170D01*
X220660658Y-116117463D01*
X220651509Y-116112573D01*
X220643286Y-116106243D01*
X220594244Y-116081964D01*
X220546001Y-116056178D01*
X220536074Y-116053167D01*
X220526775Y-116048563D01*
X220473956Y-116034323D01*
X220421591Y-116018438D01*
X220411262Y-116017421D01*
X220401248Y-116014721D01*
X220346677Y-116011060D01*
X220324627Y-116008888D01*
X220314308Y-116008888D01*
X220271531Y-116006018D01*
X220249468Y-116008888D01*
X166757387Y-116009017D01*
X166734844Y-116006083D01*
X166691078Y-116009017D01*
X166681710Y-116009017D01*
X166661744Y-116010983D01*
X166605126Y-116014779D01*
X166594715Y-116017585D01*
X166584746Y-116018567D01*
X166534310Y-116033867D01*
X166479598Y-116048614D01*
X166469946Y-116053392D01*
X166460336Y-116056307D01*
X166413718Y-116081224D01*
X166363083Y-116106289D01*
X166354577Y-116112836D01*
X166345679Y-116117592D01*
X166304663Y-116151254D01*
X166260058Y-116185585D01*
X166253013Y-116193642D01*
X166245181Y-116200070D01*
X166211366Y-116241274D01*
X166195924Y-116258935D01*
X166189555Y-116267851D01*
X166162705Y-116300568D01*
X166152365Y-116319912D01*
X163397744Y-120176072D01*
X163007774Y-120176072D01*
X163208673Y-119975173D01*
X163469683Y-119584545D01*
X163649469Y-119150503D01*
X163741123Y-118689726D01*
X163741123Y-118219922D01*
X163649469Y-117759145D01*
X163469683Y-117325103D01*
X163208673Y-116934475D01*
X162876472Y-116602274D01*
X162485844Y-116341264D01*
X162051802Y-116161478D01*
X161591025Y-116069824D01*
X161121221Y-116069824D01*
X160660444Y-116161478D01*
X160226402Y-116341264D01*
X159835774Y-116602274D01*
X159503573Y-116934475D01*
X159242563Y-117325103D01*
X159062777Y-117759145D01*
X158971123Y-118219922D01*
X158971123Y-118689726D01*
X159062777Y-119150503D01*
X159242563Y-119584545D01*
X159503573Y-119975173D01*
X159704472Y-120176072D01*
X159314532Y-120176072D01*
X156560433Y-116320072D01*
X156549939Y-116300438D01*
X156522733Y-116267288D01*
X156516748Y-116258908D01*
X156502181Y-116242246D01*
X156467462Y-116199940D01*
X156459447Y-116193362D01*
X156452620Y-116185553D01*
X156409272Y-116152185D01*
X156366964Y-116117463D01*
X156357811Y-116112571D01*
X156349600Y-116106250D01*
X156300595Y-116081988D01*
X156252307Y-116056178D01*
X156242379Y-116053166D01*
X156233089Y-116048567D01*
X156180289Y-116034331D01*
X156127897Y-116018438D01*
X156117569Y-116017421D01*
X156107563Y-116014723D01*
X156053000Y-116011061D01*
X156030933Y-116008888D01*
X156020614Y-116008888D01*
X155977847Y-116006018D01*
X155955782Y-116008888D01*
X147696423Y-116008888D01*
X147561696Y-115995678D01*
X147463147Y-115965924D01*
X147372253Y-115917594D01*
X147292484Y-115852537D01*
X147226863Y-115773214D01*
X147177901Y-115682662D01*
X147147461Y-115584327D01*
X147133522Y-115451707D01*
X147133522Y-49823061D01*
X182838490Y-49823061D01*
X182838490Y-50164827D01*
X182905165Y-50500025D01*
X183035953Y-50815775D01*
X183225827Y-51099942D01*
X183467492Y-51341607D01*
X183751659Y-51531481D01*
X184067409Y-51662269D01*
X184402607Y-51728944D01*
X184744373Y-51728944D01*
X185079571Y-51662269D01*
X185395321Y-51531481D01*
X185679488Y-51341607D01*
X185921153Y-51099942D01*
X186111027Y-50815775D01*
X186241815Y-50500025D01*
X186308490Y-50164827D01*
X186308490Y-49823061D01*
X186241815Y-49487863D01*
X186111027Y-49172113D01*
X185921153Y-48887946D01*
X185679488Y-48646281D01*
X185395321Y-48456407D01*
X185079571Y-48325619D01*
X184744373Y-48258944D01*
X184402607Y-48258944D01*
X184067409Y-48325619D01*
X183751659Y-48456407D01*
X183467492Y-48646281D01*
X183225827Y-48887946D01*
X183035953Y-49172113D01*
X182905165Y-49487863D01*
X182838490Y-49823061D01*
X147133522Y-49823061D01*
X147133522Y-41691853D01*
X147146732Y-41557125D01*
X147176485Y-41458580D01*
X147224815Y-41367683D01*
X147289873Y-41287914D01*
X147369198Y-41222291D01*
X147459748Y-41173331D01*
X147558085Y-41142890D01*
X147690695Y-41128952D01*
X155955767Y-41128952D01*
X155977825Y-41131822D01*
X156020612Y-41128952D01*
X156030933Y-41128952D01*
X156052972Y-41126781D01*
X156107542Y-41123121D01*
X156117561Y-41120420D01*
X156127897Y-41119402D01*
X156180265Y-41103516D01*
X156233069Y-41089281D01*
X156242371Y-41084676D01*
X156252307Y-41081662D01*
X156300570Y-41055865D01*
X156349582Y-41031602D01*
X156357804Y-41025273D01*
X156366964Y-41020377D01*
X156409268Y-40985659D01*
X156452604Y-40952301D01*
X156459435Y-40944487D01*
X156467462Y-40937900D01*
X156502184Y-40895591D01*
X156516734Y-40878949D01*
X156522722Y-40870566D01*
X156549939Y-40837402D01*
X156560430Y-40817775D01*
X159314721Y-36961768D01*
X159704671Y-36961768D01*
X159503772Y-37162667D01*
X159242762Y-37553295D01*
X159062976Y-37987337D01*
X158971322Y-38448114D01*
X158971322Y-38917918D01*
X159062976Y-39378695D01*
X159242762Y-39812737D01*
X159503772Y-40203365D01*
X159835973Y-40535566D01*
X160226601Y-40796576D01*
X160660643Y-40976362D01*
X161121420Y-41068016D01*
X161591224Y-41068016D01*
X162052001Y-40976362D01*
X162486043Y-40796576D01*
X162876671Y-40535566D01*
X163208872Y-40203365D01*
X163469882Y-39812737D01*
X163649668Y-39378695D01*
X163741322Y-38917918D01*
X163741322Y-38448114D01*
X163649668Y-37987337D01*
X163469882Y-37553295D01*
X163208872Y-37162667D01*
X163007973Y-36961768D01*
X163397926Y-36961768D01*
X166152221Y-40817725D01*
X166162705Y-40837338D01*
X166189907Y-40870484D01*
X166195911Y-40878889D01*
X166210491Y-40895566D01*
X166245182Y-40937836D01*
X166253206Y-40944421D01*
X166260042Y-40952240D01*
X166303390Y-40985606D01*
X166345680Y-41020313D01*
X166354841Y-41025209D01*
X166363065Y-41031540D01*
X166412076Y-41055802D01*
X166460337Y-41081598D01*
X166470275Y-41084613D01*
X166479578Y-41089218D01*
X166532369Y-41103449D01*
X166584747Y-41119338D01*
X166595088Y-41120357D01*
X166605106Y-41123057D01*
X166659650Y-41126715D01*
X166681711Y-41128888D01*
X166692046Y-41128888D01*
X166734823Y-41131757D01*
X166756874Y-41128888D01*
X220844289Y-41128888D01*
X220866843Y-41131822D01*
X220910574Y-41128888D01*
X220919941Y-41128888D01*
X220939958Y-41126917D01*
X220996559Y-41123119D01*
X221006945Y-41120319D01*
X221016905Y-41119338D01*
X221067394Y-41104022D01*
X221122087Y-41089277D01*
X221131717Y-41084510D01*
X221141315Y-41081598D01*
X221187961Y-41056665D01*
X221238598Y-41031597D01*
X221247088Y-41025061D01*
X221255972Y-41020313D01*
X221297028Y-40986619D01*
X221341619Y-40952294D01*
X221348644Y-40944259D01*
X221356470Y-40937836D01*
X221390332Y-40896575D01*
X221405749Y-40878941D01*
X221412091Y-40870062D01*
X221438947Y-40837338D01*
X221449302Y-40817964D01*
X224203642Y-36961768D01*
X224593589Y-36961768D01*
X224392690Y-37162667D01*
X224131680Y-37553295D01*
X223951894Y-37987337D01*
X223860240Y-38448114D01*
X223860240Y-38917918D01*
X223951894Y-39378695D01*
X224131680Y-39812737D01*
X224392690Y-40203365D01*
X224724891Y-40535566D01*
X225115519Y-40796576D01*
X225549561Y-40976362D01*
X226010338Y-41068016D01*
X226480142Y-41068016D01*
X226940919Y-40976362D01*
X227374961Y-40796576D01*
X227765589Y-40535566D01*
X228097790Y-40203365D01*
X228358800Y-39812737D01*
X228538586Y-39378695D01*
X228630240Y-38917918D01*
X228630240Y-38448114D01*
X228538586Y-37987337D01*
X228358800Y-37553295D01*
X228097790Y-37162667D01*
X227896891Y-36961768D01*
X228286850Y-36961768D01*
X231041365Y-40817977D01*
X231051713Y-40837338D01*
X231078568Y-40870061D01*
X231084922Y-40878956D01*
X231100350Y-40896602D01*
X231134190Y-40937836D01*
X231142017Y-40944260D01*
X231149053Y-40952307D01*
X231193659Y-40986641D01*
X231234688Y-41020313D01*
X231243577Y-41025064D01*
X231252076Y-41031606D01*
X231302713Y-41056673D01*
X231349345Y-41081598D01*
X231358949Y-41084511D01*
X231368590Y-41089284D01*
X231423286Y-41104028D01*
X231473755Y-41119338D01*
X231483722Y-41120320D01*
X231494118Y-41123122D01*
X231550704Y-41126917D01*
X231570719Y-41128888D01*
X231580099Y-41128888D01*
X231623835Y-41131821D01*
X231646376Y-41128888D01*
X314308759Y-41128888D01*
X314330818Y-41131758D01*
X314373605Y-41128888D01*
X314383925Y-41128888D01*
X314405962Y-41126718D01*
X314460535Y-41123057D01*
X314470555Y-41120356D01*
X314480889Y-41119338D01*
X314533249Y-41103455D01*
X314586062Y-41089217D01*
X314595365Y-41084611D01*
X314605299Y-41081598D01*
X314653564Y-41055800D01*
X314702575Y-41031537D01*
X314710796Y-41025209D01*
X314719956Y-41020313D01*
X314762254Y-40985600D01*
X314805597Y-40952237D01*
X314812430Y-40944421D01*
X314820454Y-40937836D01*
X314855171Y-40895533D01*
X314869727Y-40878884D01*
X314875716Y-40870500D01*
X314902931Y-40837338D01*
X314913421Y-40817712D01*
X317667706Y-36961704D01*
X318057729Y-36961704D01*
X317856831Y-37162602D01*
X317856831Y-37162602D01*
G37*
X317856831Y-37162602D02*
X317595821Y-37553230D01*
X317416035Y-37987272D01*
X317324381Y-38448049D01*
X317324381Y-38917853D01*
X317416035Y-39378630D01*
X317595821Y-39812672D01*
X317856831Y-40203300D01*
X318189032Y-40535501D01*
X318579660Y-40796511D01*
X319013702Y-40976297D01*
X319474479Y-41067951D01*
X319944283Y-41067951D01*
X320405060Y-40976297D01*
X320839102Y-40796511D01*
X321229730Y-40535501D01*
X321561931Y-40203300D01*
X321822941Y-39812672D01*
X322002727Y-39378630D01*
X322094381Y-38917853D01*
X322094381Y-38448049D01*
X322002727Y-37987272D01*
X321822941Y-37553230D01*
X321561931Y-37162602D01*
X321361033Y-36961704D01*
X321751082Y-36961704D01*
X324505207Y-40817712D01*
X324515697Y-40837337D01*
X324542894Y-40870476D01*
X324548889Y-40878870D01*
X324563476Y-40895556D01*
X324598174Y-40937835D01*
X324606186Y-40944411D01*
X324613017Y-40952224D01*
X324656388Y-40985610D01*
X324698672Y-41020312D01*
X324707820Y-41025202D01*
X324716037Y-41031527D01*
X324765079Y-41055807D01*
X324813329Y-41081597D01*
X324823249Y-41084606D01*
X324832548Y-41089210D01*
X324885386Y-41103456D01*
X324937739Y-41119337D01*
X324948062Y-41120354D01*
X324958074Y-41123053D01*
X325012664Y-41126716D01*
X325034703Y-41128887D01*
X325045010Y-41128887D01*
X325087792Y-41131758D01*
X325109862Y-41128887D01*
X378602454Y-41128952D01*
X378624514Y-41131822D01*
X378667301Y-41128952D01*
X378677620Y-41128952D01*
X378699655Y-41126782D01*
X378754231Y-41123121D01*
X378764251Y-41120420D01*
X378774584Y-41119402D01*
X378826936Y-41103521D01*
X378879758Y-41089281D01*
X378889063Y-41084675D01*
X378898994Y-41081662D01*
X378947247Y-41055871D01*
X378996271Y-41031601D01*
X379004494Y-41025272D01*
X379013651Y-41020377D01*
X379055933Y-40985677D01*
X379099293Y-40952301D01*
X379106129Y-40944482D01*
X379114149Y-40937900D01*
X379148851Y-40895616D01*
X379163423Y-40878948D01*
X379169419Y-40870554D01*
X379196626Y-40837402D01*
X379207113Y-40817781D01*
X381961402Y-36961768D01*
X382351359Y-36961768D01*
X382150460Y-37162667D01*
X381889450Y-37553295D01*
X381709664Y-37987337D01*
X381618010Y-38448114D01*
X381618010Y-38917918D01*
X381709664Y-39378695D01*
X381889450Y-39812737D01*
X382150460Y-40203365D01*
X382482661Y-40535566D01*
X382873289Y-40796576D01*
X383307331Y-40976362D01*
X383768108Y-41068016D01*
X384237912Y-41068016D01*
X384698689Y-40976362D01*
X385132731Y-40796576D01*
X385523359Y-40535566D01*
X385855560Y-40203365D01*
X386116570Y-39812737D01*
X386296356Y-39378695D01*
X386388010Y-38917918D01*
X386388010Y-38448114D01*
X386296356Y-37987337D01*
X386116570Y-37553295D01*
X385855560Y-37162667D01*
X385654661Y-36961768D01*
X386044778Y-36961768D01*
X388799040Y-40817968D01*
X388809391Y-40837333D01*
X388836233Y-40870040D01*
X388842585Y-40878934D01*
X388858033Y-40896605D01*
X388891867Y-40937832D01*
X388899683Y-40944247D01*
X388906713Y-40952288D01*
X388951331Y-40986634D01*
X388992364Y-41020310D01*
X389001245Y-41025057D01*
X389009733Y-41031591D01*
X389060380Y-41056666D01*
X389107021Y-41081596D01*
X389116613Y-41084506D01*
X389126244Y-41089274D01*
X389180955Y-41104025D01*
X389231431Y-41119337D01*
X389241387Y-41120318D01*
X389251770Y-41123117D01*
X389308384Y-41126916D01*
X389328394Y-41128887D01*
X389337753Y-41128887D01*
X389381488Y-41131822D01*
X389404047Y-41128888D01*
X397662903Y-41128951D01*
X397797637Y-41142162D01*
X397896182Y-41171915D01*
X397987079Y-41220245D01*
X398066848Y-41285303D01*
X398132471Y-41364628D01*
X398181431Y-41455178D01*
X398211872Y-41553515D01*
X398225811Y-41686135D01*
X398225810Y-115445987D01*
X398212600Y-115580714D01*
X398182846Y-115679263D01*
X398134516Y-115770157D01*
X398069459Y-115849926D01*
X397990136Y-115915547D01*
X397899584Y-115964509D01*
X397801249Y-115994949D01*
X397668624Y-116008888D01*
X389403565Y-116008952D01*
X389381511Y-116006083D01*
X389338720Y-116008953D01*
X389328394Y-116008953D01*
X389306355Y-116011124D01*
X389251794Y-116014783D01*
X389241773Y-116017484D01*
X389231431Y-116018503D01*
X389179063Y-116034389D01*
X389126266Y-116048622D01*
X389116959Y-116053229D01*
X389107021Y-116056244D01*
X389058771Y-116082034D01*
X389009753Y-116106300D01*
X389001525Y-116112633D01*
X388992364Y-116117530D01*
X388950087Y-116152227D01*
X388906730Y-116185600D01*
X388899890Y-116193424D01*
X388891867Y-116200008D01*
X388857196Y-116242255D01*
X388842599Y-116258951D01*
X388836585Y-116267370D01*
X388809391Y-116300507D01*
X388798913Y-116320111D01*
X386044614Y-120176072D01*
X385654661Y-120176072D01*
X385855560Y-119975173D01*
X386116570Y-119584545D01*
X386296356Y-119150503D01*
X386388010Y-118689726D01*
X386388010Y-118219922D01*
X386296356Y-117759145D01*
X386116570Y-117325103D01*
X385855560Y-116934475D01*
X385523359Y-116602274D01*
X385132731Y-116341264D01*
X384698689Y-116161478D01*
X384237912Y-116069824D01*
X383768108Y-116069824D01*
X383307331Y-116161478D01*
X382873289Y-116341264D01*
X382482661Y-116602274D01*
X382150460Y-116934475D01*
X381889450Y-117325103D01*
X381709664Y-117759145D01*
X381618010Y-118219922D01*
X381618010Y-118689726D01*
X381709664Y-119150503D01*
X381889450Y-119584545D01*
X382150460Y-119975173D01*
X382351359Y-120176072D01*
X381961402Y-120176072D01*
X379206979Y-116319871D01*
X379196627Y-116300503D01*
X379169770Y-116267778D01*
X379163423Y-116258892D01*
X379147997Y-116241247D01*
X379114150Y-116200005D01*
X379106328Y-116193585D01*
X379099293Y-116185539D01*
X379054674Y-116151194D01*
X379013652Y-116117528D01*
X379004768Y-116112779D01*
X378996271Y-116106239D01*
X378945613Y-116081161D01*
X378898995Y-116056243D01*
X378889400Y-116053332D01*
X378879758Y-116048559D01*
X378825020Y-116033802D01*
X378774585Y-116018503D01*
X378764631Y-116017523D01*
X378754231Y-116014719D01*
X378697589Y-116010920D01*
X378677621Y-116008953D01*
X378668270Y-116008953D01*
X378624514Y-116006018D01*
X378601956Y-116008953D01*
X325109865Y-116008888D01*
X325087803Y-116006018D01*
X325045026Y-116008888D01*
X325034704Y-116008888D01*
X325012647Y-116011060D01*
X324958086Y-116014721D01*
X324948074Y-116017420D01*
X324937740Y-116018438D01*
X324885368Y-116034325D01*
X324832559Y-116048562D01*
X324823259Y-116053166D01*
X324813330Y-116056178D01*
X324765082Y-116081967D01*
X324716047Y-116106242D01*
X324707824Y-116112572D01*
X324698673Y-116117463D01*
X324656400Y-116152156D01*
X324613025Y-116185544D01*
X324606190Y-116193363D01*
X324598175Y-116199940D01*
X324563486Y-116242208D01*
X324548896Y-116258897D01*
X324542895Y-116267298D01*
X324515698Y-116300438D01*
X324505212Y-116320056D01*
X321750981Y-120176072D01*
X321360965Y-120176072D01*
X321561864Y-119975173D01*
X321822874Y-119584545D01*
X322002660Y-119150503D01*
X322094314Y-118689726D01*
X322094314Y-118219922D01*
X322002660Y-117759145D01*
X321822874Y-117325103D01*
X321561864Y-116934475D01*
X321229663Y-116602274D01*
X320839035Y-116341264D01*
X320404993Y-116161478D01*
X319944216Y-116069824D01*
X319474412Y-116069824D01*
X319013635Y-116161478D01*
X318579593Y-116341264D01*
X318188965Y-116602274D01*
X317856764Y-116934475D01*
X317595754Y-117325103D01*
X317415968Y-117759145D01*
X317324314Y-118219922D01*
X317324314Y-118689726D01*
X317415968Y-119150503D01*
X317595754Y-119584545D01*
X317856764Y-119975173D01*
X318057663Y-120176072D01*
X317667713Y-120176072D01*
X314913418Y-116320060D01*
X314902930Y-116300438D01*
X314875721Y-116267283D01*
X314869726Y-116258891D01*
X314855160Y-116242230D01*
X314820453Y-116199940D01*
X314812430Y-116193355D01*
X314805596Y-116185539D01*
X314762244Y-116152169D01*
X314719955Y-116117463D01*
X314710798Y-116112569D01*
X314702574Y-116106238D01*
X314653549Y-116081968D01*
X314605298Y-116056178D01*
X314595365Y-116053165D01*
X314586061Y-116048559D01*
X314533248Y-116034321D01*
X314480888Y-116018438D01*
X314470554Y-116017420D01*
X314460534Y-116014719D01*
X314405961Y-116011058D01*
X314383924Y-116008888D01*
X314373604Y-116008888D01*
X314330817Y-116006018D01*
X314308758Y-116008888D01*
X231050577Y-116008953D01*
X231028519Y-116006083D01*
X230985727Y-116008953D01*
X230975407Y-116008953D01*
X230953378Y-116011123D01*
X230898802Y-116014783D01*
X230888779Y-116017485D01*
X230878443Y-116018503D01*
X230826095Y-116034383D01*
X230773274Y-116048622D01*
X230763966Y-116053230D01*
X230754033Y-116056243D01*
X230705798Y-116082025D01*
X230656761Y-116106300D01*
X230648532Y-116112634D01*
X230639376Y-116117528D01*
X230597105Y-116152219D01*
X230553738Y-116185600D01*
X230546899Y-116193422D01*
X230538878Y-116200005D01*
X230504201Y-116242259D01*
X230489607Y-116258951D01*
X230483598Y-116267364D01*
X230456401Y-116300503D01*
X230445920Y-116320112D01*
X227691622Y-120176072D01*
X227301578Y-120176072D01*
X227502477Y-119975173D01*
X227763487Y-119584545D01*
X227943273Y-119150503D01*
X228034927Y-118689726D01*
X228034927Y-118219922D01*
X227943273Y-117759145D01*
X227763487Y-117325103D01*
X227502477Y-116934475D01*
X227170276Y-116602274D01*
X226779648Y-116341264D01*
X226345606Y-116161478D01*
X225884829Y-116069824D01*
X225415025Y-116069824D01*
X224954248Y-116161478D01*
X224520206Y-116341264D01*
X224129578Y-116602274D01*
X223797377Y-116934475D01*
X223536367Y-117325103D01*
X223356581Y-117759145D01*
X223264927Y-118219922D01*
X223264927Y-118689726D01*
X223356581Y-119150503D01*
X223536367Y-119584545D01*
X223797377Y-119975173D01*
X223998276Y-120176072D01*
X223608329Y-120176072D01*
X220854124Y-116320063D01*
X220843634Y-116300437D01*
X220816430Y-116267289D01*
X220810437Y-116258899D01*
X220795865Y-116242231D01*
X220761156Y-116199939D01*
X220753136Y-116193357D01*
X220746307Y-116185546D01*
X220702949Y-116152170D01*
X220660658Y-116117463D01*
X220651509Y-116112573D01*
X220643286Y-116106243D01*
X220594244Y-116081964D01*
X220546001Y-116056178D01*
X220536074Y-116053167D01*
X220526775Y-116048563D01*
X220473956Y-116034323D01*
X220421591Y-116018438D01*
X220411262Y-116017421D01*
X220401248Y-116014721D01*
X220346677Y-116011060D01*
X220324627Y-116008888D01*
X220314308Y-116008888D01*
X220271531Y-116006018D01*
X220249468Y-116008888D01*
X166757387Y-116009017D01*
X166734844Y-116006083D01*
X166691078Y-116009017D01*
X166681710Y-116009017D01*
X166661744Y-116010983D01*
X166605126Y-116014779D01*
X166594715Y-116017585D01*
X166584746Y-116018567D01*
X166534310Y-116033867D01*
X166479598Y-116048614D01*
X166469946Y-116053392D01*
X166460336Y-116056307D01*
X166413718Y-116081224D01*
X166363083Y-116106289D01*
X166354577Y-116112836D01*
X166345679Y-116117592D01*
X166304663Y-116151254D01*
X166260058Y-116185585D01*
X166253013Y-116193642D01*
X166245181Y-116200070D01*
X166211366Y-116241274D01*
X166195924Y-116258935D01*
X166189555Y-116267851D01*
X166162705Y-116300568D01*
X166152365Y-116319912D01*
X163397744Y-120176072D01*
X163007774Y-120176072D01*
X163208673Y-119975173D01*
X163469683Y-119584545D01*
X163649469Y-119150503D01*
X163741123Y-118689726D01*
X163741123Y-118219922D01*
X163649469Y-117759145D01*
X163469683Y-117325103D01*
X163208673Y-116934475D01*
X162876472Y-116602274D01*
X162485844Y-116341264D01*
X162051802Y-116161478D01*
X161591025Y-116069824D01*
X161121221Y-116069824D01*
X160660444Y-116161478D01*
X160226402Y-116341264D01*
X159835774Y-116602274D01*
X159503573Y-116934475D01*
X159242563Y-117325103D01*
X159062777Y-117759145D01*
X158971123Y-118219922D01*
X158971123Y-118689726D01*
X159062777Y-119150503D01*
X159242563Y-119584545D01*
X159503573Y-119975173D01*
X159704472Y-120176072D01*
X159314532Y-120176072D01*
X156560433Y-116320072D01*
X156549939Y-116300438D01*
X156522733Y-116267288D01*
X156516748Y-116258908D01*
X156502181Y-116242246D01*
X156467462Y-116199940D01*
X156459447Y-116193362D01*
X156452620Y-116185553D01*
X156409272Y-116152185D01*
X156366964Y-116117463D01*
X156357811Y-116112571D01*
X156349600Y-116106250D01*
X156300595Y-116081988D01*
X156252307Y-116056178D01*
X156242379Y-116053166D01*
X156233089Y-116048567D01*
X156180289Y-116034331D01*
X156127897Y-116018438D01*
X156117569Y-116017421D01*
X156107563Y-116014723D01*
X156053000Y-116011061D01*
X156030933Y-116008888D01*
X156020614Y-116008888D01*
X155977847Y-116006018D01*
X155955782Y-116008888D01*
X147696423Y-116008888D01*
X147561696Y-115995678D01*
X147463147Y-115965924D01*
X147372253Y-115917594D01*
X147292484Y-115852537D01*
X147226863Y-115773214D01*
X147177901Y-115682662D01*
X147147461Y-115584327D01*
X147133522Y-115451707D01*
X147133522Y-49823061D01*
X182838490Y-49823061D01*
X182838490Y-50164827D01*
X182905165Y-50500025D01*
X183035953Y-50815775D01*
X183225827Y-51099942D01*
X183467492Y-51341607D01*
X183751659Y-51531481D01*
X184067409Y-51662269D01*
X184402607Y-51728944D01*
X184744373Y-51728944D01*
X185079571Y-51662269D01*
X185395321Y-51531481D01*
X185679488Y-51341607D01*
X185921153Y-51099942D01*
X186111027Y-50815775D01*
X186241815Y-50500025D01*
X186308490Y-50164827D01*
X186308490Y-49823061D01*
X186241815Y-49487863D01*
X186111027Y-49172113D01*
X185921153Y-48887946D01*
X185679488Y-48646281D01*
X185395321Y-48456407D01*
X185079571Y-48325619D01*
X184744373Y-48258944D01*
X184402607Y-48258944D01*
X184067409Y-48325619D01*
X183751659Y-48456407D01*
X183467492Y-48646281D01*
X183225827Y-48887946D01*
X183035953Y-49172113D01*
X182905165Y-49487863D01*
X182838490Y-49823061D01*
X147133522Y-49823061D01*
X147133522Y-41691853D01*
X147146732Y-41557125D01*
X147176485Y-41458580D01*
X147224815Y-41367683D01*
X147289873Y-41287914D01*
X147369198Y-41222291D01*
X147459748Y-41173331D01*
X147558085Y-41142890D01*
X147690695Y-41128952D01*
X155955767Y-41128952D01*
X155977825Y-41131822D01*
X156020612Y-41128952D01*
X156030933Y-41128952D01*
X156052972Y-41126781D01*
X156107542Y-41123121D01*
X156117561Y-41120420D01*
X156127897Y-41119402D01*
X156180265Y-41103516D01*
X156233069Y-41089281D01*
X156242371Y-41084676D01*
X156252307Y-41081662D01*
X156300570Y-41055865D01*
X156349582Y-41031602D01*
X156357804Y-41025273D01*
X156366964Y-41020377D01*
X156409268Y-40985659D01*
X156452604Y-40952301D01*
X156459435Y-40944487D01*
X156467462Y-40937900D01*
X156502184Y-40895591D01*
X156516734Y-40878949D01*
X156522722Y-40870566D01*
X156549939Y-40837402D01*
X156560430Y-40817775D01*
X159314721Y-36961768D01*
X159704671Y-36961768D01*
X159503772Y-37162667D01*
X159242762Y-37553295D01*
X159062976Y-37987337D01*
X158971322Y-38448114D01*
X158971322Y-38917918D01*
X159062976Y-39378695D01*
X159242762Y-39812737D01*
X159503772Y-40203365D01*
X159835973Y-40535566D01*
X160226601Y-40796576D01*
X160660643Y-40976362D01*
X161121420Y-41068016D01*
X161591224Y-41068016D01*
X162052001Y-40976362D01*
X162486043Y-40796576D01*
X162876671Y-40535566D01*
X163208872Y-40203365D01*
X163469882Y-39812737D01*
X163649668Y-39378695D01*
X163741322Y-38917918D01*
X163741322Y-38448114D01*
X163649668Y-37987337D01*
X163469882Y-37553295D01*
X163208872Y-37162667D01*
X163007973Y-36961768D01*
X163397926Y-36961768D01*
X166152221Y-40817725D01*
X166162705Y-40837338D01*
X166189907Y-40870484D01*
X166195911Y-40878889D01*
X166210491Y-40895566D01*
X166245182Y-40937836D01*
X166253206Y-40944421D01*
X166260042Y-40952240D01*
X166303390Y-40985606D01*
X166345680Y-41020313D01*
X166354841Y-41025209D01*
X166363065Y-41031540D01*
X166412076Y-41055802D01*
X166460337Y-41081598D01*
X166470275Y-41084613D01*
X166479578Y-41089218D01*
X166532369Y-41103449D01*
X166584747Y-41119338D01*
X166595088Y-41120357D01*
X166605106Y-41123057D01*
X166659650Y-41126715D01*
X166681711Y-41128888D01*
X166692046Y-41128888D01*
X166734823Y-41131757D01*
X166756874Y-41128888D01*
X220844289Y-41128888D01*
X220866843Y-41131822D01*
X220910574Y-41128888D01*
X220919941Y-41128888D01*
X220939958Y-41126917D01*
X220996559Y-41123119D01*
X221006945Y-41120319D01*
X221016905Y-41119338D01*
X221067394Y-41104022D01*
X221122087Y-41089277D01*
X221131717Y-41084510D01*
X221141315Y-41081598D01*
X221187961Y-41056665D01*
X221238598Y-41031597D01*
X221247088Y-41025061D01*
X221255972Y-41020313D01*
X221297028Y-40986619D01*
X221341619Y-40952294D01*
X221348644Y-40944259D01*
X221356470Y-40937836D01*
X221390332Y-40896575D01*
X221405749Y-40878941D01*
X221412091Y-40870062D01*
X221438947Y-40837338D01*
X221449302Y-40817964D01*
X224203642Y-36961768D01*
X224593589Y-36961768D01*
X224392690Y-37162667D01*
X224131680Y-37553295D01*
X223951894Y-37987337D01*
X223860240Y-38448114D01*
X223860240Y-38917918D01*
X223951894Y-39378695D01*
X224131680Y-39812737D01*
X224392690Y-40203365D01*
X224724891Y-40535566D01*
X225115519Y-40796576D01*
X225549561Y-40976362D01*
X226010338Y-41068016D01*
X226480142Y-41068016D01*
X226940919Y-40976362D01*
X227374961Y-40796576D01*
X227765589Y-40535566D01*
X228097790Y-40203365D01*
X228358800Y-39812737D01*
X228538586Y-39378695D01*
X228630240Y-38917918D01*
X228630240Y-38448114D01*
X228538586Y-37987337D01*
X228358800Y-37553295D01*
X228097790Y-37162667D01*
X227896891Y-36961768D01*
X228286850Y-36961768D01*
X231041365Y-40817977D01*
X231051713Y-40837338D01*
X231078568Y-40870061D01*
X231084922Y-40878956D01*
X231100350Y-40896602D01*
X231134190Y-40937836D01*
X231142017Y-40944260D01*
X231149053Y-40952307D01*
X231193659Y-40986641D01*
X231234688Y-41020313D01*
X231243577Y-41025064D01*
X231252076Y-41031606D01*
X231302713Y-41056673D01*
X231349345Y-41081598D01*
X231358949Y-41084511D01*
X231368590Y-41089284D01*
X231423286Y-41104028D01*
X231473755Y-41119338D01*
X231483722Y-41120320D01*
X231494118Y-41123122D01*
X231550704Y-41126917D01*
X231570719Y-41128888D01*
X231580099Y-41128888D01*
X231623835Y-41131821D01*
X231646376Y-41128888D01*
X314308759Y-41128888D01*
X314330818Y-41131758D01*
X314373605Y-41128888D01*
X314383925Y-41128888D01*
X314405962Y-41126718D01*
X314460535Y-41123057D01*
X314470555Y-41120356D01*
X314480889Y-41119338D01*
X314533249Y-41103455D01*
X314586062Y-41089217D01*
X314595365Y-41084611D01*
X314605299Y-41081598D01*
X314653564Y-41055800D01*
X314702575Y-41031537D01*
X314710796Y-41025209D01*
X314719956Y-41020313D01*
X314762254Y-40985600D01*
X314805597Y-40952237D01*
X314812430Y-40944421D01*
X314820454Y-40937836D01*
X314855171Y-40895533D01*
X314869727Y-40878884D01*
X314875716Y-40870500D01*
X314902931Y-40837338D01*
X314913421Y-40817712D01*
X317667706Y-36961704D01*
X318057729Y-36961704D01*
X317856831Y-37162602D01*
M02*
