G04 #@! TF.GenerationSoftware,KiCad,Pcbnew,(5.1.4-0)*
G04 #@! TF.CreationDate,2021-11-04T10:19:40-05:00*
G04 #@! TF.ProjectId,bottom_plate,626f7474-6f6d-45f7-906c-6174652e6b69,rev?*
G04 #@! TF.SameCoordinates,Original*
G04 #@! TF.FileFunction,Legend,Top*
G04 #@! TF.FilePolarity,Positive*
%FSLAX46Y46*%
G04 Gerber Fmt 4.6, Leading zero omitted, Abs format (unit mm)*
G04 Created by KiCad (PCBNEW (5.1.4-0)) date 2021-11-04 10:19:40*
%MOMM*%
%LPD*%
G04 APERTURE LIST*
%ADD10C,0.150000*%
%ADD11C,0.200000*%
%ADD12C,0.120000*%
G04 APERTURE END LIST*
D10*
X368073034Y-111954084D02*
X368073034Y-112668370D01*
X368025415Y-112811227D01*
X367930177Y-112906465D01*
X367787320Y-112954084D01*
X367692082Y-112954084D01*
X369025415Y-112954084D02*
X368549224Y-112954084D01*
X368549224Y-111954084D01*
X369930177Y-112858846D02*
X369882558Y-112906465D01*
X369739701Y-112954084D01*
X369644462Y-112954084D01*
X369501605Y-112906465D01*
X369406367Y-112811227D01*
X369358748Y-112715989D01*
X369311129Y-112525513D01*
X369311129Y-112382656D01*
X369358748Y-112192180D01*
X369406367Y-112096942D01*
X369501605Y-112001704D01*
X369644462Y-111954084D01*
X369739701Y-111954084D01*
X369882558Y-112001704D01*
X369930177Y-112049323D01*
X370644462Y-111954084D02*
X370644462Y-112668370D01*
X370596843Y-112811227D01*
X370501605Y-112906465D01*
X370358748Y-112954084D01*
X370263510Y-112954084D01*
X371596843Y-112954084D02*
X371120653Y-112954084D01*
X371120653Y-111954084D01*
X372501605Y-112858846D02*
X372453986Y-112906465D01*
X372311129Y-112954084D01*
X372215891Y-112954084D01*
X372073034Y-112906465D01*
X371977796Y-112811227D01*
X371930177Y-112715989D01*
X371882558Y-112525513D01*
X371882558Y-112382656D01*
X371930177Y-112192180D01*
X371977796Y-112096942D01*
X372073034Y-112001704D01*
X372215891Y-111954084D01*
X372311129Y-111954084D01*
X372453986Y-112001704D01*
X372501605Y-112049323D01*
X373215891Y-111954084D02*
X373215891Y-112668370D01*
X373168272Y-112811227D01*
X373073034Y-112906465D01*
X372930177Y-112954084D01*
X372834939Y-112954084D01*
X374168272Y-112954084D02*
X373692082Y-112954084D01*
X373692082Y-111954084D01*
X375073034Y-112858846D02*
X375025415Y-112906465D01*
X374882558Y-112954084D01*
X374787320Y-112954084D01*
X374644462Y-112906465D01*
X374549224Y-112811227D01*
X374501605Y-112715989D01*
X374453986Y-112525513D01*
X374453986Y-112382656D01*
X374501605Y-112192180D01*
X374549224Y-112096942D01*
X374644462Y-112001704D01*
X374787320Y-111954084D01*
X374882558Y-111954084D01*
X375025415Y-112001704D01*
X375073034Y-112049323D01*
X375787320Y-111954084D02*
X375787320Y-112668370D01*
X375739701Y-112811227D01*
X375644462Y-112906465D01*
X375501605Y-112954084D01*
X375406367Y-112954084D01*
X376739701Y-112954084D02*
X376263510Y-112954084D01*
X376263510Y-111954084D01*
X377644462Y-112858846D02*
X377596843Y-112906465D01*
X377453986Y-112954084D01*
X377358748Y-112954084D01*
X377215891Y-112906465D01*
X377120653Y-112811227D01*
X377073034Y-112715989D01*
X377025415Y-112525513D01*
X377025415Y-112382656D01*
X377073034Y-112192180D01*
X377120653Y-112096942D01*
X377215891Y-112001704D01*
X377358748Y-111954084D01*
X377453986Y-111954084D01*
X377596843Y-112001704D01*
X377644462Y-112049323D01*
D11*
X188910581Y-112868218D02*
X188910581Y-113880123D01*
X188851057Y-113999171D01*
X188791533Y-114058695D01*
X188672486Y-114118218D01*
X188493914Y-114118218D01*
X188374867Y-114058695D01*
X188910581Y-113642028D02*
X188791533Y-113701552D01*
X188553438Y-113701552D01*
X188434390Y-113642028D01*
X188374867Y-113582504D01*
X188315343Y-113463456D01*
X188315343Y-113106314D01*
X188374867Y-112987266D01*
X188434390Y-112927742D01*
X188553438Y-112868218D01*
X188791533Y-112868218D01*
X188910581Y-112927742D01*
X189505819Y-113701552D02*
X189505819Y-112868218D01*
X189505819Y-112451552D02*
X189446295Y-112511076D01*
X189505819Y-112570599D01*
X189565343Y-112511076D01*
X189505819Y-112451552D01*
X189505819Y-112570599D01*
X189922486Y-112868218D02*
X190398676Y-112868218D01*
X190101057Y-112451552D02*
X190101057Y-113522980D01*
X190160581Y-113642028D01*
X190279628Y-113701552D01*
X190398676Y-113701552D01*
X190815343Y-113701552D02*
X190815343Y-112451552D01*
X191351057Y-113701552D02*
X191351057Y-113046790D01*
X191291533Y-112927742D01*
X191172486Y-112868218D01*
X190993914Y-112868218D01*
X190874867Y-112927742D01*
X190815343Y-112987266D01*
X192482009Y-112868218D02*
X192482009Y-113701552D01*
X191946295Y-112868218D02*
X191946295Y-113522980D01*
X192005819Y-113642028D01*
X192124867Y-113701552D01*
X192303438Y-113701552D01*
X192422486Y-113642028D01*
X192482009Y-113582504D01*
X193077248Y-113701552D02*
X193077248Y-112451552D01*
X193077248Y-112927742D02*
X193196295Y-112868218D01*
X193434390Y-112868218D01*
X193553438Y-112927742D01*
X193612962Y-112987266D01*
X193672486Y-113106314D01*
X193672486Y-113463456D01*
X193612962Y-113582504D01*
X193553438Y-113642028D01*
X193434390Y-113701552D01*
X193196295Y-113701552D01*
X193077248Y-113642028D01*
X194208200Y-113582504D02*
X194267724Y-113642028D01*
X194208200Y-113701552D01*
X194148676Y-113642028D01*
X194208200Y-113582504D01*
X194208200Y-113701552D01*
X195339152Y-113642028D02*
X195220105Y-113701552D01*
X194982009Y-113701552D01*
X194862962Y-113642028D01*
X194803438Y-113582504D01*
X194743914Y-113463456D01*
X194743914Y-113106314D01*
X194803438Y-112987266D01*
X194862962Y-112927742D01*
X194982009Y-112868218D01*
X195220105Y-112868218D01*
X195339152Y-112927742D01*
X196053438Y-113701552D02*
X195934390Y-113642028D01*
X195874867Y-113582504D01*
X195815343Y-113463456D01*
X195815343Y-113106314D01*
X195874867Y-112987266D01*
X195934390Y-112927742D01*
X196053438Y-112868218D01*
X196232009Y-112868218D01*
X196351057Y-112927742D01*
X196410581Y-112987266D01*
X196470105Y-113106314D01*
X196470105Y-113463456D01*
X196410581Y-113582504D01*
X196351057Y-113642028D01*
X196232009Y-113701552D01*
X196053438Y-113701552D01*
X197005819Y-113701552D02*
X197005819Y-112868218D01*
X197005819Y-112987266D02*
X197065343Y-112927742D01*
X197184390Y-112868218D01*
X197362962Y-112868218D01*
X197482009Y-112927742D01*
X197541533Y-113046790D01*
X197541533Y-113701552D01*
X197541533Y-113046790D02*
X197601057Y-112927742D01*
X197720105Y-112868218D01*
X197898676Y-112868218D01*
X198017724Y-112927742D01*
X198077248Y-113046790D01*
X198077248Y-113701552D01*
X199565343Y-112392028D02*
X198493914Y-113999171D01*
X199982009Y-113701552D02*
X199982009Y-112868218D01*
X199982009Y-113106314D02*
X200041533Y-112987266D01*
X200101057Y-112927742D01*
X200220105Y-112868218D01*
X200339152Y-112868218D01*
X200755819Y-113701552D02*
X200755819Y-112868218D01*
X200755819Y-112451552D02*
X200696295Y-112511076D01*
X200755819Y-112570599D01*
X200815343Y-112511076D01*
X200755819Y-112451552D01*
X200755819Y-112570599D01*
X201886771Y-113642028D02*
X201767724Y-113701552D01*
X201529628Y-113701552D01*
X201410581Y-113642028D01*
X201351057Y-113582504D01*
X201291533Y-113463456D01*
X201291533Y-113106314D01*
X201351057Y-112987266D01*
X201410581Y-112927742D01*
X201529628Y-112868218D01*
X201767724Y-112868218D01*
X201886771Y-112927742D01*
X202422486Y-113701552D02*
X202422486Y-112451552D01*
X202541533Y-113225361D02*
X202898676Y-113701552D01*
X202898676Y-112868218D02*
X202422486Y-113344409D01*
X203612962Y-113701552D02*
X203493914Y-113642028D01*
X203434390Y-113522980D01*
X203434390Y-112451552D01*
X204089152Y-113701552D02*
X204089152Y-112868218D01*
X204089152Y-112451552D02*
X204029628Y-112511076D01*
X204089152Y-112570599D01*
X204148676Y-112511076D01*
X204089152Y-112451552D01*
X204089152Y-112570599D01*
X205220105Y-113642028D02*
X205101057Y-113701552D01*
X204862962Y-113701552D01*
X204743914Y-113642028D01*
X204684390Y-113582504D01*
X204624867Y-113463456D01*
X204624867Y-113106314D01*
X204684390Y-112987266D01*
X204743914Y-112927742D01*
X204862962Y-112868218D01*
X205101057Y-112868218D01*
X205220105Y-112927742D01*
X205755819Y-113701552D02*
X205755819Y-112868218D01*
X205755819Y-112451552D02*
X205696295Y-112511076D01*
X205755819Y-112570599D01*
X205815343Y-112511076D01*
X205755819Y-112451552D01*
X205755819Y-112570599D01*
X206529628Y-113701552D02*
X206410581Y-113642028D01*
X206351057Y-113582504D01*
X206291533Y-113463456D01*
X206291533Y-113106314D01*
X206351057Y-112987266D01*
X206410581Y-112927742D01*
X206529628Y-112868218D01*
X206708200Y-112868218D01*
X206827248Y-112927742D01*
X206886771Y-112987266D01*
X206946295Y-113106314D01*
X206946295Y-113463456D01*
X206886771Y-113582504D01*
X206827248Y-113642028D01*
X206708200Y-113701552D01*
X206529628Y-113701552D01*
X208017724Y-112868218D02*
X208017724Y-113701552D01*
X207482009Y-112868218D02*
X207482009Y-113522980D01*
X207541533Y-113642028D01*
X207660581Y-113701552D01*
X207839152Y-113701552D01*
X207958200Y-113642028D01*
X208017724Y-113582504D01*
X208553438Y-113642028D02*
X208672486Y-113701552D01*
X208910581Y-113701552D01*
X209029628Y-113642028D01*
X209089152Y-113522980D01*
X209089152Y-113463456D01*
X209029628Y-113344409D01*
X208910581Y-113284885D01*
X208732009Y-113284885D01*
X208612962Y-113225361D01*
X208553438Y-113106314D01*
X208553438Y-113046790D01*
X208612962Y-112927742D01*
X208732009Y-112868218D01*
X208910581Y-112868218D01*
X209029628Y-112927742D01*
X231434290Y-113701552D02*
X231315243Y-113642028D01*
X231255719Y-113522980D01*
X231255719Y-112451552D01*
X232446195Y-112868218D02*
X232446195Y-113701552D01*
X231910481Y-112868218D02*
X231910481Y-113522980D01*
X231970005Y-113642028D01*
X232089052Y-113701552D01*
X232267624Y-113701552D01*
X232386671Y-113642028D01*
X232446195Y-113582504D01*
X233577148Y-113642028D02*
X233458100Y-113701552D01*
X233220005Y-113701552D01*
X233100957Y-113642028D01*
X233041433Y-113582504D01*
X232981909Y-113463456D01*
X232981909Y-113106314D01*
X233041433Y-112987266D01*
X233100957Y-112927742D01*
X233220005Y-112868218D01*
X233458100Y-112868218D01*
X233577148Y-112927742D01*
X233993814Y-112868218D02*
X234291433Y-113701552D01*
X234589052Y-112868218D02*
X234291433Y-113701552D01*
X234172386Y-113999171D01*
X234112862Y-114058695D01*
X233993814Y-114118218D01*
X236017624Y-113701552D02*
X236017624Y-112868218D01*
X236017624Y-113106314D02*
X236077148Y-112987266D01*
X236136671Y-112927742D01*
X236255719Y-112868218D01*
X236374767Y-112868218D01*
X237267624Y-113642028D02*
X237148576Y-113701552D01*
X236910481Y-113701552D01*
X236791433Y-113642028D01*
X236731909Y-113522980D01*
X236731909Y-113046790D01*
X236791433Y-112927742D01*
X236910481Y-112868218D01*
X237148576Y-112868218D01*
X237267624Y-112927742D01*
X237327148Y-113046790D01*
X237327148Y-113165837D01*
X236731909Y-113284885D01*
X237743814Y-112868218D02*
X238041433Y-113701552D01*
X238339052Y-112868218D01*
X240422386Y-113701552D02*
X239708100Y-113701552D01*
X240065243Y-113701552D02*
X240065243Y-112451552D01*
X239946195Y-112630123D01*
X239827148Y-112749171D01*
X239708100Y-112808695D01*
X240958100Y-113582504D02*
X241017624Y-113642028D01*
X240958100Y-113701552D01*
X240898576Y-113642028D01*
X240958100Y-113582504D01*
X240958100Y-113701552D01*
X241493814Y-112570599D02*
X241553338Y-112511076D01*
X241672386Y-112451552D01*
X241970005Y-112451552D01*
X242089052Y-112511076D01*
X242148576Y-112570599D01*
X242208100Y-112689647D01*
X242208100Y-112808695D01*
X242148576Y-112987266D01*
X241434290Y-113701552D01*
X242208100Y-113701552D01*
D12*
X388594422Y-60028904D02*
X388936956Y-60028904D01*
X388594422Y-59008904D02*
X388936956Y-59008904D01*
M02*
