G04 #@! TF.GenerationSoftware,KiCad,Pcbnew,(5.1.10-1-10_14)*
G04 #@! TF.CreationDate,2021-08-14T15:39:06-05:00*
G04 #@! TF.ProjectId,ori_bottom_plate,6f72695f-626f-4747-946f-6d5f706c6174,rev?*
G04 #@! TF.SameCoordinates,Original*
G04 #@! TF.FileFunction,Profile,NP*
%FSLAX46Y46*%
G04 Gerber Fmt 4.6, Leading zero omitted, Abs format (unit mm)*
G04 Created by KiCad (PCBNEW (5.1.10-1-10_14)) date 2021-08-14 15:39:06*
%MOMM*%
%LPD*%
G01*
G04 APERTURE LIST*
G04 #@! TA.AperFunction,Profile*
%ADD10C,0.150000*%
G04 #@! TD*
G04 APERTURE END LIST*
D10*
X396505150Y-40468760D02*
X379836330Y-40468760D01*
X396505150Y-116669080D02*
X379836330Y-116669080D01*
X372692550Y-116669080D02*
X148854110Y-116669080D01*
X148854110Y-40468760D02*
X372692550Y-40468760D01*
X146472850Y-42850020D02*
X146472850Y-114287820D01*
X377455070Y-111311245D02*
X377455070Y-114287820D01*
X375073810Y-111311245D02*
X375073810Y-114287820D01*
X375073810Y-82736125D02*
X375073810Y-102976835D01*
X377455070Y-82736125D02*
X377455070Y-102976835D01*
X377455070Y-74401715D02*
X377455070Y-54161005D01*
X375073810Y-54161005D02*
X375073810Y-74401715D01*
X377455070Y-42850020D02*
X377455070Y-45826595D01*
X398886410Y-114287820D02*
X398886410Y-42850020D01*
X375073810Y-42850020D02*
X375073810Y-45826595D01*
X377455070Y-42850020D02*
G75*
G02*
X379836330Y-40468760I2381260J0D01*
G01*
X379836330Y-116669080D02*
G75*
G02*
X377455070Y-114287820I0J2381260D01*
G01*
X375073810Y-111311245D02*
G75*
G02*
X377455070Y-111311245I1190630J0D01*
G01*
X377455070Y-102976835D02*
G75*
G02*
X375073810Y-102976835I-1190630J0D01*
G01*
X375073810Y-82736125D02*
G75*
G02*
X377455070Y-82736125I1190630J0D01*
G01*
X377455070Y-74401715D02*
G75*
G02*
X375073810Y-74401715I-1190630J0D01*
G01*
X375073810Y-54161005D02*
G75*
G02*
X377455070Y-54161005I1190630J0D01*
G01*
X377455070Y-45826595D02*
G75*
G02*
X375073810Y-45826595I-1190630J0D01*
G01*
X396505150Y-40468760D02*
G75*
G02*
X398886410Y-42850020I0J-2381260D01*
G01*
X398886410Y-114287820D02*
G75*
G02*
X396505150Y-116669080I-2381260J0D01*
G01*
X372692550Y-40468760D02*
G75*
G02*
X375073810Y-42850020I0J-2381260D01*
G01*
X375073810Y-114287820D02*
G75*
G02*
X372692550Y-116669080I-2381260J0D01*
G01*
X148854110Y-116669080D02*
G75*
G02*
X146472850Y-114287820I0J2381260D01*
G01*
X146472850Y-42850020D02*
G75*
G02*
X148854110Y-40468760I2381260J0D01*
G01*
M02*
