G04 #@! TF.GenerationSoftware,KiCad,Pcbnew,(5.1.10-1-10_14)*
G04 #@! TF.CreationDate,2021-08-14T15:39:06-05:00*
G04 #@! TF.ProjectId,ori_bottom_plate,6f72695f-626f-4747-946f-6d5f706c6174,rev?*
G04 #@! TF.SameCoordinates,Original*
G04 #@! TF.FileFunction,Copper,L1,Top*
G04 #@! TF.FilePolarity,Positive*
%FSLAX46Y46*%
G04 Gerber Fmt 4.6, Leading zero omitted, Abs format (unit mm)*
G04 Created by KiCad (PCBNEW (5.1.10-1-10_14)) date 2021-08-14 15:39:06*
%MOMM*%
%LPD*%
G01*
G04 APERTURE LIST*
G04 #@! TA.AperFunction,ComponentPad*
%ADD10C,3.500000*%
G04 #@! TD*
G04 #@! TA.AperFunction,ViaPad*
%ADD11C,0.500000*%
G04 #@! TD*
G04 #@! TA.AperFunction,Conductor*
%ADD12C,0.250000*%
G04 #@! TD*
G04 #@! TA.AperFunction,Conductor*
%ADD13C,0.130000*%
G04 #@! TD*
G04 #@! TA.AperFunction,Conductor*
%ADD14C,0.254000*%
G04 #@! TD*
G04 #@! TA.AperFunction,Conductor*
%ADD15C,0.100000*%
G04 #@! TD*
G04 APERTURE END LIST*
D10*
X379835826Y-97618904D03*
X379835826Y-59518936D03*
G04 #@! TA.AperFunction,SMDPad,CuDef*
G36*
G01*
X388211370Y-59168840D02*
X388211370Y-59868840D01*
G75*
G02*
X387961370Y-60118840I-250000J0D01*
G01*
X387461370Y-60118840D01*
G75*
G02*
X387211370Y-59868840I0J250000D01*
G01*
X387211370Y-59168840D01*
G75*
G02*
X387461370Y-58918840I250000J0D01*
G01*
X387961370Y-58918840D01*
G75*
G02*
X388211370Y-59168840I0J-250000D01*
G01*
G37*
G04 #@! TD.AperFunction*
G04 #@! TA.AperFunction,SMDPad,CuDef*
G36*
G01*
X391511370Y-59168840D02*
X391511370Y-59868840D01*
G75*
G02*
X391261370Y-60118840I-250000J0D01*
G01*
X390761370Y-60118840D01*
G75*
G02*
X390511370Y-59868840I0J250000D01*
G01*
X390511370Y-59168840D01*
G75*
G02*
X390761370Y-58918840I250000J0D01*
G01*
X391261370Y-58918840D01*
G75*
G02*
X391511370Y-59168840I0J-250000D01*
G01*
G37*
G04 #@! TD.AperFunction*
X356023346Y-97618904D03*
X356023346Y-59518936D03*
X298873394Y-97618904D03*
X298848130Y-59518936D03*
X222673458Y-97618904D03*
X222673458Y-59518936D03*
X165523506Y-97618904D03*
X165523314Y-59518904D03*
D11*
X373287865Y-49398485D03*
X385194165Y-59518840D03*
D12*
X387711370Y-59518840D02*
X385194165Y-59518840D01*
D13*
X376859755Y-49398485D02*
X373287865Y-49398485D01*
D14*
X396829101Y-41213928D02*
X397140721Y-41308012D01*
X397428128Y-41460828D01*
X397680375Y-41666557D01*
X397887864Y-41917367D01*
X398042684Y-42203701D01*
X398138940Y-42514654D01*
X398176411Y-42871163D01*
X398176410Y-114253099D01*
X398141242Y-114611772D01*
X398047158Y-114923390D01*
X397894340Y-115210799D01*
X397688613Y-115463045D01*
X397437803Y-115670534D01*
X397151469Y-115825354D01*
X396840516Y-115921610D01*
X396484017Y-115959080D01*
X379871051Y-115959080D01*
X379512378Y-115923912D01*
X379200760Y-115829828D01*
X378913351Y-115677010D01*
X378661105Y-115471283D01*
X378453616Y-115220473D01*
X378298796Y-114934139D01*
X378202540Y-114623186D01*
X378165070Y-114266687D01*
X378165070Y-111276368D01*
X378161566Y-111240790D01*
X378161566Y-111225337D01*
X378160529Y-111215478D01*
X378134627Y-110984556D01*
X378121255Y-110921644D01*
X378108749Y-110858485D01*
X378105817Y-110849015D01*
X378035555Y-110627523D01*
X378010214Y-110568399D01*
X377985683Y-110508882D01*
X377980968Y-110500161D01*
X377869023Y-110296534D01*
X377832685Y-110243464D01*
X377797055Y-110189836D01*
X377790736Y-110182198D01*
X377641371Y-110004192D01*
X377595422Y-109959196D01*
X377550051Y-109913507D01*
X377542368Y-109907242D01*
X377361273Y-109761638D01*
X377307477Y-109726435D01*
X377254078Y-109690417D01*
X377245325Y-109685763D01*
X377039398Y-109578107D01*
X376979712Y-109553992D01*
X376920411Y-109529064D01*
X376910921Y-109526199D01*
X376688005Y-109460591D01*
X376624787Y-109448531D01*
X376561756Y-109435593D01*
X376551894Y-109434626D01*
X376551890Y-109434626D01*
X376320476Y-109413566D01*
X376256161Y-109414015D01*
X376191780Y-109413566D01*
X376181914Y-109414533D01*
X376058145Y-109427542D01*
X376043676Y-109354802D01*
X375965655Y-109166444D01*
X375875622Y-109031700D01*
X375965655Y-108896956D01*
X376043676Y-108708598D01*
X376083450Y-108508639D01*
X376083450Y-108304761D01*
X376043676Y-108104802D01*
X375965655Y-107916444D01*
X375875622Y-107781700D01*
X375965655Y-107646956D01*
X376043676Y-107458598D01*
X376083450Y-107258639D01*
X376083450Y-107054761D01*
X376043676Y-106854802D01*
X375965655Y-106666444D01*
X375875622Y-106531700D01*
X375965655Y-106396956D01*
X376043676Y-106208598D01*
X376083450Y-106008639D01*
X376083450Y-105804761D01*
X376043676Y-105604802D01*
X375965655Y-105416444D01*
X375875622Y-105281700D01*
X375965655Y-105146956D01*
X376043676Y-104958598D01*
X376063033Y-104861284D01*
X376208404Y-104874514D01*
X376272719Y-104874065D01*
X376337100Y-104874514D01*
X376346966Y-104873547D01*
X376578063Y-104849258D01*
X376641100Y-104836318D01*
X376704312Y-104824260D01*
X376713802Y-104821395D01*
X376935781Y-104752681D01*
X376995101Y-104727745D01*
X377054769Y-104703637D01*
X377063522Y-104698983D01*
X377267925Y-104588462D01*
X377321234Y-104552505D01*
X377375121Y-104517242D01*
X377382803Y-104510977D01*
X377561847Y-104362858D01*
X377607165Y-104317222D01*
X377653167Y-104272174D01*
X377659486Y-104264535D01*
X377806351Y-104084461D01*
X377841969Y-104030852D01*
X377878319Y-103977764D01*
X377883034Y-103969044D01*
X377992125Y-103763873D01*
X378016646Y-103704382D01*
X378041997Y-103645233D01*
X378044928Y-103635763D01*
X378112091Y-103413310D01*
X378124579Y-103350242D01*
X378137971Y-103287238D01*
X378139007Y-103277379D01*
X378161682Y-103046118D01*
X378161682Y-103046112D01*
X378165070Y-103011712D01*
X378165070Y-99321047D01*
X378315477Y-99471454D01*
X378706105Y-99732464D01*
X379140147Y-99912250D01*
X379600924Y-100003904D01*
X380070728Y-100003904D01*
X380531505Y-99912250D01*
X380965547Y-99732464D01*
X381356175Y-99471454D01*
X381688376Y-99139253D01*
X381949386Y-98748625D01*
X382129172Y-98314583D01*
X382220826Y-97853806D01*
X382220826Y-97384002D01*
X382129172Y-96923225D01*
X381949386Y-96489183D01*
X381688376Y-96098555D01*
X381356175Y-95766354D01*
X380965547Y-95505344D01*
X380531505Y-95325558D01*
X380070728Y-95233904D01*
X379600924Y-95233904D01*
X379140147Y-95325558D01*
X378706105Y-95505344D01*
X378315477Y-95766354D01*
X378165070Y-95916761D01*
X378165070Y-82701248D01*
X378161566Y-82665670D01*
X378161566Y-82650217D01*
X378160529Y-82640358D01*
X378134627Y-82409436D01*
X378121255Y-82346524D01*
X378108749Y-82283365D01*
X378105817Y-82273895D01*
X378035555Y-82052403D01*
X378010214Y-81993279D01*
X377985683Y-81933762D01*
X377980968Y-81925041D01*
X377869023Y-81721414D01*
X377832685Y-81668344D01*
X377797055Y-81614716D01*
X377790736Y-81607078D01*
X377641371Y-81429072D01*
X377595422Y-81384076D01*
X377550051Y-81338387D01*
X377542368Y-81332122D01*
X377361273Y-81186518D01*
X377307477Y-81151315D01*
X377254078Y-81115297D01*
X377245325Y-81110643D01*
X377039398Y-81002987D01*
X376979712Y-80978872D01*
X376920411Y-80953944D01*
X376910921Y-80951079D01*
X376688005Y-80885471D01*
X376624787Y-80873411D01*
X376561756Y-80860473D01*
X376551894Y-80859506D01*
X376551890Y-80859506D01*
X376320476Y-80838446D01*
X376256161Y-80838895D01*
X376191780Y-80838446D01*
X376181914Y-80839413D01*
X376058145Y-80852422D01*
X376043676Y-80779682D01*
X375965655Y-80591324D01*
X375875622Y-80456580D01*
X375965655Y-80321836D01*
X376043676Y-80133478D01*
X376083450Y-79933519D01*
X376083450Y-79729641D01*
X376043676Y-79529682D01*
X375965655Y-79341324D01*
X375875622Y-79206580D01*
X375965655Y-79071836D01*
X376043676Y-78883478D01*
X376083450Y-78683519D01*
X376083450Y-78479641D01*
X376043676Y-78279682D01*
X375965655Y-78091324D01*
X375875622Y-77956580D01*
X375965655Y-77821836D01*
X376043676Y-77633478D01*
X376083450Y-77433519D01*
X376083450Y-77229641D01*
X376043676Y-77029682D01*
X375965655Y-76841324D01*
X375875622Y-76706580D01*
X375965655Y-76571836D01*
X376043676Y-76383478D01*
X376063033Y-76286164D01*
X376208404Y-76299394D01*
X376272719Y-76298945D01*
X376337100Y-76299394D01*
X376346966Y-76298427D01*
X376578063Y-76274138D01*
X376641100Y-76261198D01*
X376704312Y-76249140D01*
X376713802Y-76246275D01*
X376935781Y-76177561D01*
X376995101Y-76152625D01*
X377054769Y-76128517D01*
X377063522Y-76123863D01*
X377267925Y-76013342D01*
X377321234Y-75977385D01*
X377375121Y-75942122D01*
X377382803Y-75935857D01*
X377561847Y-75787738D01*
X377607165Y-75742102D01*
X377653167Y-75697054D01*
X377659486Y-75689415D01*
X377806351Y-75509341D01*
X377841969Y-75455732D01*
X377878319Y-75402644D01*
X377883034Y-75393924D01*
X377992125Y-75188753D01*
X378016646Y-75129262D01*
X378041997Y-75070113D01*
X378044928Y-75060643D01*
X378112091Y-74838190D01*
X378124579Y-74775122D01*
X378137971Y-74712118D01*
X378139007Y-74702259D01*
X378161682Y-74470998D01*
X378161682Y-74470992D01*
X378165070Y-74436592D01*
X378165070Y-61221079D01*
X378315477Y-61371486D01*
X378706105Y-61632496D01*
X379140147Y-61812282D01*
X379600924Y-61903936D01*
X380070728Y-61903936D01*
X380531505Y-61812282D01*
X380965547Y-61632496D01*
X381356175Y-61371486D01*
X381688376Y-61039285D01*
X381949386Y-60648657D01*
X382129172Y-60214615D01*
X382148222Y-60118840D01*
X386573298Y-60118840D01*
X386585558Y-60243322D01*
X386621868Y-60363020D01*
X386680833Y-60473334D01*
X386760185Y-60570025D01*
X386856876Y-60649377D01*
X386967190Y-60708342D01*
X387086888Y-60744652D01*
X387211370Y-60756912D01*
X387425620Y-60753840D01*
X387584370Y-60595090D01*
X387584370Y-59645840D01*
X387838370Y-59645840D01*
X387838370Y-60595090D01*
X387997120Y-60753840D01*
X388211370Y-60756912D01*
X388335852Y-60744652D01*
X388455550Y-60708342D01*
X388565864Y-60649377D01*
X388662555Y-60570025D01*
X388741907Y-60473334D01*
X388800872Y-60363020D01*
X388837182Y-60243322D01*
X388849442Y-60118840D01*
X388846370Y-59804590D01*
X388687620Y-59645840D01*
X387838370Y-59645840D01*
X387584370Y-59645840D01*
X386735120Y-59645840D01*
X386576370Y-59804590D01*
X386573298Y-60118840D01*
X382148222Y-60118840D01*
X382220826Y-59753838D01*
X382220826Y-59284034D01*
X382148185Y-58918840D01*
X386573298Y-58918840D01*
X386576370Y-59233090D01*
X386735120Y-59391840D01*
X387584370Y-59391840D01*
X387584370Y-58442590D01*
X387838370Y-58442590D01*
X387838370Y-59391840D01*
X388687620Y-59391840D01*
X388846370Y-59233090D01*
X388846998Y-59168840D01*
X389873298Y-59168840D01*
X389873298Y-59868840D01*
X389890362Y-60042094D01*
X389940898Y-60208690D01*
X390022965Y-60362226D01*
X390133408Y-60496802D01*
X390267984Y-60607245D01*
X390421520Y-60689312D01*
X390588116Y-60739848D01*
X390761370Y-60756912D01*
X391261370Y-60756912D01*
X391434624Y-60739848D01*
X391601220Y-60689312D01*
X391754756Y-60607245D01*
X391889332Y-60496802D01*
X391999775Y-60362226D01*
X392081842Y-60208690D01*
X392132378Y-60042094D01*
X392149442Y-59868840D01*
X392149442Y-59168840D01*
X392132378Y-58995586D01*
X392081842Y-58828990D01*
X391999775Y-58675454D01*
X391889332Y-58540878D01*
X391754756Y-58430435D01*
X391601220Y-58348368D01*
X391434624Y-58297832D01*
X391261370Y-58280768D01*
X390761370Y-58280768D01*
X390588116Y-58297832D01*
X390421520Y-58348368D01*
X390267984Y-58430435D01*
X390133408Y-58540878D01*
X390022965Y-58675454D01*
X389940898Y-58828990D01*
X389890362Y-58995586D01*
X389873298Y-59168840D01*
X388846998Y-59168840D01*
X388849442Y-58918840D01*
X388837182Y-58794358D01*
X388800872Y-58674660D01*
X388741907Y-58564346D01*
X388662555Y-58467655D01*
X388565864Y-58388303D01*
X388455550Y-58329338D01*
X388335852Y-58293028D01*
X388211370Y-58280768D01*
X387997120Y-58283840D01*
X387838370Y-58442590D01*
X387584370Y-58442590D01*
X387425620Y-58283840D01*
X387211370Y-58280768D01*
X387086888Y-58293028D01*
X386967190Y-58329338D01*
X386856876Y-58388303D01*
X386760185Y-58467655D01*
X386680833Y-58564346D01*
X386621868Y-58674660D01*
X386585558Y-58794358D01*
X386573298Y-58918840D01*
X382148185Y-58918840D01*
X382129172Y-58823257D01*
X381949386Y-58389215D01*
X381688376Y-57998587D01*
X381356175Y-57666386D01*
X380965547Y-57405376D01*
X380531505Y-57225590D01*
X380070728Y-57133936D01*
X379600924Y-57133936D01*
X379140147Y-57225590D01*
X378706105Y-57405376D01*
X378315477Y-57666386D01*
X378165070Y-57816793D01*
X378165070Y-54126128D01*
X378161566Y-54090550D01*
X378161566Y-54075097D01*
X378160529Y-54065238D01*
X378134627Y-53834316D01*
X378121255Y-53771404D01*
X378108749Y-53708245D01*
X378105817Y-53698775D01*
X378035555Y-53477283D01*
X378010214Y-53418159D01*
X377985683Y-53358642D01*
X377980968Y-53349921D01*
X377869023Y-53146294D01*
X377832685Y-53093224D01*
X377797055Y-53039596D01*
X377790736Y-53031958D01*
X377641371Y-52853952D01*
X377595422Y-52808956D01*
X377550051Y-52763267D01*
X377542368Y-52757002D01*
X377361273Y-52611398D01*
X377307477Y-52576195D01*
X377254078Y-52540177D01*
X377245325Y-52535523D01*
X377039398Y-52427867D01*
X376979712Y-52403752D01*
X376920411Y-52378824D01*
X376910921Y-52375959D01*
X376688005Y-52310351D01*
X376624787Y-52298291D01*
X376561756Y-52285353D01*
X376551894Y-52284386D01*
X376551890Y-52284386D01*
X376320476Y-52263326D01*
X376256161Y-52263775D01*
X376191780Y-52263326D01*
X376181914Y-52264293D01*
X376060611Y-52277042D01*
X376043676Y-52191902D01*
X375965655Y-52003544D01*
X375875622Y-51868800D01*
X375965655Y-51734056D01*
X376043676Y-51545698D01*
X376083450Y-51345739D01*
X376083450Y-51141861D01*
X376043676Y-50941902D01*
X375965655Y-50753544D01*
X375875622Y-50618800D01*
X375965655Y-50484056D01*
X376043676Y-50295698D01*
X376083450Y-50095739D01*
X376083450Y-49891861D01*
X376043676Y-49691902D01*
X375965655Y-49503544D01*
X375875622Y-49368800D01*
X375965655Y-49234056D01*
X376043676Y-49045698D01*
X376083450Y-48845739D01*
X376083450Y-48641861D01*
X376043676Y-48441902D01*
X375965655Y-48253544D01*
X375875622Y-48118800D01*
X375965655Y-47984056D01*
X376043676Y-47795698D01*
X376060559Y-47710819D01*
X376208404Y-47724274D01*
X376272719Y-47723825D01*
X376337100Y-47724274D01*
X376346966Y-47723307D01*
X376578063Y-47699018D01*
X376641100Y-47686078D01*
X376704312Y-47674020D01*
X376713802Y-47671155D01*
X376935781Y-47602441D01*
X376995101Y-47577505D01*
X377054769Y-47553397D01*
X377063522Y-47548743D01*
X377267925Y-47438222D01*
X377321234Y-47402265D01*
X377375121Y-47367002D01*
X377382803Y-47360737D01*
X377561847Y-47212618D01*
X377607165Y-47166982D01*
X377653167Y-47121934D01*
X377659486Y-47114295D01*
X377806351Y-46934221D01*
X377841969Y-46880612D01*
X377878319Y-46827524D01*
X377883034Y-46818804D01*
X377992125Y-46613633D01*
X378016646Y-46554142D01*
X378041997Y-46494993D01*
X378044928Y-46485523D01*
X378112091Y-46263070D01*
X378124579Y-46200002D01*
X378137971Y-46136998D01*
X378139007Y-46127139D01*
X378161682Y-45895878D01*
X378161682Y-45895872D01*
X378165070Y-45861472D01*
X378165070Y-42884741D01*
X378200238Y-42526069D01*
X378294322Y-42214449D01*
X378447138Y-41927042D01*
X378652867Y-41674795D01*
X378903677Y-41467306D01*
X379190011Y-41312486D01*
X379500964Y-41216230D01*
X379857463Y-41178760D01*
X396470429Y-41178760D01*
X396829101Y-41213928D01*
G04 #@! TA.AperFunction,Conductor*
D15*
G36*
X396829101Y-41213928D02*
G01*
X397140721Y-41308012D01*
X397428128Y-41460828D01*
X397680375Y-41666557D01*
X397887864Y-41917367D01*
X398042684Y-42203701D01*
X398138940Y-42514654D01*
X398176411Y-42871163D01*
X398176410Y-114253099D01*
X398141242Y-114611772D01*
X398047158Y-114923390D01*
X397894340Y-115210799D01*
X397688613Y-115463045D01*
X397437803Y-115670534D01*
X397151469Y-115825354D01*
X396840516Y-115921610D01*
X396484017Y-115959080D01*
X379871051Y-115959080D01*
X379512378Y-115923912D01*
X379200760Y-115829828D01*
X378913351Y-115677010D01*
X378661105Y-115471283D01*
X378453616Y-115220473D01*
X378298796Y-114934139D01*
X378202540Y-114623186D01*
X378165070Y-114266687D01*
X378165070Y-111276368D01*
X378161566Y-111240790D01*
X378161566Y-111225337D01*
X378160529Y-111215478D01*
X378134627Y-110984556D01*
X378121255Y-110921644D01*
X378108749Y-110858485D01*
X378105817Y-110849015D01*
X378035555Y-110627523D01*
X378010214Y-110568399D01*
X377985683Y-110508882D01*
X377980968Y-110500161D01*
X377869023Y-110296534D01*
X377832685Y-110243464D01*
X377797055Y-110189836D01*
X377790736Y-110182198D01*
X377641371Y-110004192D01*
X377595422Y-109959196D01*
X377550051Y-109913507D01*
X377542368Y-109907242D01*
X377361273Y-109761638D01*
X377307477Y-109726435D01*
X377254078Y-109690417D01*
X377245325Y-109685763D01*
X377039398Y-109578107D01*
X376979712Y-109553992D01*
X376920411Y-109529064D01*
X376910921Y-109526199D01*
X376688005Y-109460591D01*
X376624787Y-109448531D01*
X376561756Y-109435593D01*
X376551894Y-109434626D01*
X376551890Y-109434626D01*
X376320476Y-109413566D01*
X376256161Y-109414015D01*
X376191780Y-109413566D01*
X376181914Y-109414533D01*
X376058145Y-109427542D01*
X376043676Y-109354802D01*
X375965655Y-109166444D01*
X375875622Y-109031700D01*
X375965655Y-108896956D01*
X376043676Y-108708598D01*
X376083450Y-108508639D01*
X376083450Y-108304761D01*
X376043676Y-108104802D01*
X375965655Y-107916444D01*
X375875622Y-107781700D01*
X375965655Y-107646956D01*
X376043676Y-107458598D01*
X376083450Y-107258639D01*
X376083450Y-107054761D01*
X376043676Y-106854802D01*
X375965655Y-106666444D01*
X375875622Y-106531700D01*
X375965655Y-106396956D01*
X376043676Y-106208598D01*
X376083450Y-106008639D01*
X376083450Y-105804761D01*
X376043676Y-105604802D01*
X375965655Y-105416444D01*
X375875622Y-105281700D01*
X375965655Y-105146956D01*
X376043676Y-104958598D01*
X376063033Y-104861284D01*
X376208404Y-104874514D01*
X376272719Y-104874065D01*
X376337100Y-104874514D01*
X376346966Y-104873547D01*
X376578063Y-104849258D01*
X376641100Y-104836318D01*
X376704312Y-104824260D01*
X376713802Y-104821395D01*
X376935781Y-104752681D01*
X376995101Y-104727745D01*
X377054769Y-104703637D01*
X377063522Y-104698983D01*
X377267925Y-104588462D01*
X377321234Y-104552505D01*
X377375121Y-104517242D01*
X377382803Y-104510977D01*
X377561847Y-104362858D01*
X377607165Y-104317222D01*
X377653167Y-104272174D01*
X377659486Y-104264535D01*
X377806351Y-104084461D01*
X377841969Y-104030852D01*
X377878319Y-103977764D01*
X377883034Y-103969044D01*
X377992125Y-103763873D01*
X378016646Y-103704382D01*
X378041997Y-103645233D01*
X378044928Y-103635763D01*
X378112091Y-103413310D01*
X378124579Y-103350242D01*
X378137971Y-103287238D01*
X378139007Y-103277379D01*
X378161682Y-103046118D01*
X378161682Y-103046112D01*
X378165070Y-103011712D01*
X378165070Y-99321047D01*
X378315477Y-99471454D01*
X378706105Y-99732464D01*
X379140147Y-99912250D01*
X379600924Y-100003904D01*
X380070728Y-100003904D01*
X380531505Y-99912250D01*
X380965547Y-99732464D01*
X381356175Y-99471454D01*
X381688376Y-99139253D01*
X381949386Y-98748625D01*
X382129172Y-98314583D01*
X382220826Y-97853806D01*
X382220826Y-97384002D01*
X382129172Y-96923225D01*
X381949386Y-96489183D01*
X381688376Y-96098555D01*
X381356175Y-95766354D01*
X380965547Y-95505344D01*
X380531505Y-95325558D01*
X380070728Y-95233904D01*
X379600924Y-95233904D01*
X379140147Y-95325558D01*
X378706105Y-95505344D01*
X378315477Y-95766354D01*
X378165070Y-95916761D01*
X378165070Y-82701248D01*
X378161566Y-82665670D01*
X378161566Y-82650217D01*
X378160529Y-82640358D01*
X378134627Y-82409436D01*
X378121255Y-82346524D01*
X378108749Y-82283365D01*
X378105817Y-82273895D01*
X378035555Y-82052403D01*
X378010214Y-81993279D01*
X377985683Y-81933762D01*
X377980968Y-81925041D01*
X377869023Y-81721414D01*
X377832685Y-81668344D01*
X377797055Y-81614716D01*
X377790736Y-81607078D01*
X377641371Y-81429072D01*
X377595422Y-81384076D01*
X377550051Y-81338387D01*
X377542368Y-81332122D01*
X377361273Y-81186518D01*
X377307477Y-81151315D01*
X377254078Y-81115297D01*
X377245325Y-81110643D01*
X377039398Y-81002987D01*
X376979712Y-80978872D01*
X376920411Y-80953944D01*
X376910921Y-80951079D01*
X376688005Y-80885471D01*
X376624787Y-80873411D01*
X376561756Y-80860473D01*
X376551894Y-80859506D01*
X376551890Y-80859506D01*
X376320476Y-80838446D01*
X376256161Y-80838895D01*
X376191780Y-80838446D01*
X376181914Y-80839413D01*
X376058145Y-80852422D01*
X376043676Y-80779682D01*
X375965655Y-80591324D01*
X375875622Y-80456580D01*
X375965655Y-80321836D01*
X376043676Y-80133478D01*
X376083450Y-79933519D01*
X376083450Y-79729641D01*
X376043676Y-79529682D01*
X375965655Y-79341324D01*
X375875622Y-79206580D01*
X375965655Y-79071836D01*
X376043676Y-78883478D01*
X376083450Y-78683519D01*
X376083450Y-78479641D01*
X376043676Y-78279682D01*
X375965655Y-78091324D01*
X375875622Y-77956580D01*
X375965655Y-77821836D01*
X376043676Y-77633478D01*
X376083450Y-77433519D01*
X376083450Y-77229641D01*
X376043676Y-77029682D01*
X375965655Y-76841324D01*
X375875622Y-76706580D01*
X375965655Y-76571836D01*
X376043676Y-76383478D01*
X376063033Y-76286164D01*
X376208404Y-76299394D01*
X376272719Y-76298945D01*
X376337100Y-76299394D01*
X376346966Y-76298427D01*
X376578063Y-76274138D01*
X376641100Y-76261198D01*
X376704312Y-76249140D01*
X376713802Y-76246275D01*
X376935781Y-76177561D01*
X376995101Y-76152625D01*
X377054769Y-76128517D01*
X377063522Y-76123863D01*
X377267925Y-76013342D01*
X377321234Y-75977385D01*
X377375121Y-75942122D01*
X377382803Y-75935857D01*
X377561847Y-75787738D01*
X377607165Y-75742102D01*
X377653167Y-75697054D01*
X377659486Y-75689415D01*
X377806351Y-75509341D01*
X377841969Y-75455732D01*
X377878319Y-75402644D01*
X377883034Y-75393924D01*
X377992125Y-75188753D01*
X378016646Y-75129262D01*
X378041997Y-75070113D01*
X378044928Y-75060643D01*
X378112091Y-74838190D01*
X378124579Y-74775122D01*
X378137971Y-74712118D01*
X378139007Y-74702259D01*
X378161682Y-74470998D01*
X378161682Y-74470992D01*
X378165070Y-74436592D01*
X378165070Y-61221079D01*
X378315477Y-61371486D01*
X378706105Y-61632496D01*
X379140147Y-61812282D01*
X379600924Y-61903936D01*
X380070728Y-61903936D01*
X380531505Y-61812282D01*
X380965547Y-61632496D01*
X381356175Y-61371486D01*
X381688376Y-61039285D01*
X381949386Y-60648657D01*
X382129172Y-60214615D01*
X382148222Y-60118840D01*
X386573298Y-60118840D01*
X386585558Y-60243322D01*
X386621868Y-60363020D01*
X386680833Y-60473334D01*
X386760185Y-60570025D01*
X386856876Y-60649377D01*
X386967190Y-60708342D01*
X387086888Y-60744652D01*
X387211370Y-60756912D01*
X387425620Y-60753840D01*
X387584370Y-60595090D01*
X387584370Y-59645840D01*
X387838370Y-59645840D01*
X387838370Y-60595090D01*
X387997120Y-60753840D01*
X388211370Y-60756912D01*
X388335852Y-60744652D01*
X388455550Y-60708342D01*
X388565864Y-60649377D01*
X388662555Y-60570025D01*
X388741907Y-60473334D01*
X388800872Y-60363020D01*
X388837182Y-60243322D01*
X388849442Y-60118840D01*
X388846370Y-59804590D01*
X388687620Y-59645840D01*
X387838370Y-59645840D01*
X387584370Y-59645840D01*
X386735120Y-59645840D01*
X386576370Y-59804590D01*
X386573298Y-60118840D01*
X382148222Y-60118840D01*
X382220826Y-59753838D01*
X382220826Y-59284034D01*
X382148185Y-58918840D01*
X386573298Y-58918840D01*
X386576370Y-59233090D01*
X386735120Y-59391840D01*
X387584370Y-59391840D01*
X387584370Y-58442590D01*
X387838370Y-58442590D01*
X387838370Y-59391840D01*
X388687620Y-59391840D01*
X388846370Y-59233090D01*
X388846998Y-59168840D01*
X389873298Y-59168840D01*
X389873298Y-59868840D01*
X389890362Y-60042094D01*
X389940898Y-60208690D01*
X390022965Y-60362226D01*
X390133408Y-60496802D01*
X390267984Y-60607245D01*
X390421520Y-60689312D01*
X390588116Y-60739848D01*
X390761370Y-60756912D01*
X391261370Y-60756912D01*
X391434624Y-60739848D01*
X391601220Y-60689312D01*
X391754756Y-60607245D01*
X391889332Y-60496802D01*
X391999775Y-60362226D01*
X392081842Y-60208690D01*
X392132378Y-60042094D01*
X392149442Y-59868840D01*
X392149442Y-59168840D01*
X392132378Y-58995586D01*
X392081842Y-58828990D01*
X391999775Y-58675454D01*
X391889332Y-58540878D01*
X391754756Y-58430435D01*
X391601220Y-58348368D01*
X391434624Y-58297832D01*
X391261370Y-58280768D01*
X390761370Y-58280768D01*
X390588116Y-58297832D01*
X390421520Y-58348368D01*
X390267984Y-58430435D01*
X390133408Y-58540878D01*
X390022965Y-58675454D01*
X389940898Y-58828990D01*
X389890362Y-58995586D01*
X389873298Y-59168840D01*
X388846998Y-59168840D01*
X388849442Y-58918840D01*
X388837182Y-58794358D01*
X388800872Y-58674660D01*
X388741907Y-58564346D01*
X388662555Y-58467655D01*
X388565864Y-58388303D01*
X388455550Y-58329338D01*
X388335852Y-58293028D01*
X388211370Y-58280768D01*
X387997120Y-58283840D01*
X387838370Y-58442590D01*
X387584370Y-58442590D01*
X387425620Y-58283840D01*
X387211370Y-58280768D01*
X387086888Y-58293028D01*
X386967190Y-58329338D01*
X386856876Y-58388303D01*
X386760185Y-58467655D01*
X386680833Y-58564346D01*
X386621868Y-58674660D01*
X386585558Y-58794358D01*
X386573298Y-58918840D01*
X382148185Y-58918840D01*
X382129172Y-58823257D01*
X381949386Y-58389215D01*
X381688376Y-57998587D01*
X381356175Y-57666386D01*
X380965547Y-57405376D01*
X380531505Y-57225590D01*
X380070728Y-57133936D01*
X379600924Y-57133936D01*
X379140147Y-57225590D01*
X378706105Y-57405376D01*
X378315477Y-57666386D01*
X378165070Y-57816793D01*
X378165070Y-54126128D01*
X378161566Y-54090550D01*
X378161566Y-54075097D01*
X378160529Y-54065238D01*
X378134627Y-53834316D01*
X378121255Y-53771404D01*
X378108749Y-53708245D01*
X378105817Y-53698775D01*
X378035555Y-53477283D01*
X378010214Y-53418159D01*
X377985683Y-53358642D01*
X377980968Y-53349921D01*
X377869023Y-53146294D01*
X377832685Y-53093224D01*
X377797055Y-53039596D01*
X377790736Y-53031958D01*
X377641371Y-52853952D01*
X377595422Y-52808956D01*
X377550051Y-52763267D01*
X377542368Y-52757002D01*
X377361273Y-52611398D01*
X377307477Y-52576195D01*
X377254078Y-52540177D01*
X377245325Y-52535523D01*
X377039398Y-52427867D01*
X376979712Y-52403752D01*
X376920411Y-52378824D01*
X376910921Y-52375959D01*
X376688005Y-52310351D01*
X376624787Y-52298291D01*
X376561756Y-52285353D01*
X376551894Y-52284386D01*
X376551890Y-52284386D01*
X376320476Y-52263326D01*
X376256161Y-52263775D01*
X376191780Y-52263326D01*
X376181914Y-52264293D01*
X376060611Y-52277042D01*
X376043676Y-52191902D01*
X375965655Y-52003544D01*
X375875622Y-51868800D01*
X375965655Y-51734056D01*
X376043676Y-51545698D01*
X376083450Y-51345739D01*
X376083450Y-51141861D01*
X376043676Y-50941902D01*
X375965655Y-50753544D01*
X375875622Y-50618800D01*
X375965655Y-50484056D01*
X376043676Y-50295698D01*
X376083450Y-50095739D01*
X376083450Y-49891861D01*
X376043676Y-49691902D01*
X375965655Y-49503544D01*
X375875622Y-49368800D01*
X375965655Y-49234056D01*
X376043676Y-49045698D01*
X376083450Y-48845739D01*
X376083450Y-48641861D01*
X376043676Y-48441902D01*
X375965655Y-48253544D01*
X375875622Y-48118800D01*
X375965655Y-47984056D01*
X376043676Y-47795698D01*
X376060559Y-47710819D01*
X376208404Y-47724274D01*
X376272719Y-47723825D01*
X376337100Y-47724274D01*
X376346966Y-47723307D01*
X376578063Y-47699018D01*
X376641100Y-47686078D01*
X376704312Y-47674020D01*
X376713802Y-47671155D01*
X376935781Y-47602441D01*
X376995101Y-47577505D01*
X377054769Y-47553397D01*
X377063522Y-47548743D01*
X377267925Y-47438222D01*
X377321234Y-47402265D01*
X377375121Y-47367002D01*
X377382803Y-47360737D01*
X377561847Y-47212618D01*
X377607165Y-47166982D01*
X377653167Y-47121934D01*
X377659486Y-47114295D01*
X377806351Y-46934221D01*
X377841969Y-46880612D01*
X377878319Y-46827524D01*
X377883034Y-46818804D01*
X377992125Y-46613633D01*
X378016646Y-46554142D01*
X378041997Y-46494993D01*
X378044928Y-46485523D01*
X378112091Y-46263070D01*
X378124579Y-46200002D01*
X378137971Y-46136998D01*
X378139007Y-46127139D01*
X378161682Y-45895878D01*
X378161682Y-45895872D01*
X378165070Y-45861472D01*
X378165070Y-42884741D01*
X378200238Y-42526069D01*
X378294322Y-42214449D01*
X378447138Y-41927042D01*
X378652867Y-41674795D01*
X378903677Y-41467306D01*
X379190011Y-41312486D01*
X379500964Y-41216230D01*
X379857463Y-41178760D01*
X396470429Y-41178760D01*
X396829101Y-41213928D01*
G37*
G04 #@! TD.AperFunction*
D14*
X373016501Y-41213928D02*
X373328121Y-41308012D01*
X373615528Y-41460828D01*
X373867775Y-41666557D01*
X374075264Y-41917367D01*
X374230084Y-42203701D01*
X374326340Y-42514654D01*
X374363810Y-42871153D01*
X374363811Y-45861472D01*
X374367314Y-45897040D01*
X374367314Y-45912503D01*
X374368351Y-45922362D01*
X374394253Y-46153284D01*
X374407625Y-46216196D01*
X374420131Y-46279355D01*
X374423063Y-46288824D01*
X374493325Y-46510317D01*
X374518666Y-46569441D01*
X374529513Y-46595759D01*
X374388676Y-46689863D01*
X374244513Y-46834026D01*
X374131245Y-47003544D01*
X374053224Y-47191902D01*
X374013450Y-47391861D01*
X374013450Y-47595739D01*
X374053224Y-47795698D01*
X374131245Y-47984056D01*
X374221278Y-48118800D01*
X374131245Y-48253544D01*
X374053224Y-48441902D01*
X374013450Y-48641861D01*
X374013450Y-48845739D01*
X374053224Y-49045698D01*
X374131245Y-49234056D01*
X374221278Y-49368800D01*
X374131245Y-49503544D01*
X374053224Y-49691902D01*
X374013450Y-49891861D01*
X374013450Y-50095739D01*
X374053224Y-50295698D01*
X374131245Y-50484056D01*
X374221278Y-50618800D01*
X374131245Y-50753544D01*
X374053224Y-50941902D01*
X374013450Y-51141861D01*
X374013450Y-51345739D01*
X374053224Y-51545698D01*
X374131245Y-51734056D01*
X374221278Y-51868800D01*
X374131245Y-52003544D01*
X374053224Y-52191902D01*
X374013450Y-52391861D01*
X374013450Y-52595739D01*
X374053224Y-52795698D01*
X374131245Y-52984056D01*
X374244513Y-53153574D01*
X374388676Y-53297737D01*
X374529415Y-53391775D01*
X374512234Y-53433458D01*
X374486883Y-53492607D01*
X374483952Y-53502077D01*
X374416789Y-53724530D01*
X374404300Y-53787605D01*
X374390909Y-53850602D01*
X374389873Y-53860461D01*
X374367198Y-54091722D01*
X374367198Y-54091729D01*
X374363810Y-54126129D01*
X374363811Y-74436592D01*
X374367314Y-74472160D01*
X374367314Y-74487623D01*
X374368351Y-74497482D01*
X374394253Y-74728404D01*
X374407625Y-74791316D01*
X374420131Y-74854475D01*
X374423063Y-74863944D01*
X374493325Y-75085437D01*
X374518666Y-75144561D01*
X374533605Y-75180805D01*
X374388676Y-75277643D01*
X374244513Y-75421806D01*
X374131245Y-75591324D01*
X374053224Y-75779682D01*
X374013450Y-75979641D01*
X374013450Y-76183519D01*
X374053224Y-76383478D01*
X374131245Y-76571836D01*
X374221278Y-76706580D01*
X374131245Y-76841324D01*
X374053224Y-77029682D01*
X374013450Y-77229641D01*
X374013450Y-77433519D01*
X374053224Y-77633478D01*
X374131245Y-77821836D01*
X374221278Y-77956580D01*
X374131245Y-78091324D01*
X374053224Y-78279682D01*
X374013450Y-78479641D01*
X374013450Y-78683519D01*
X374053224Y-78883478D01*
X374131245Y-79071836D01*
X374221278Y-79206580D01*
X374131245Y-79341324D01*
X374053224Y-79529682D01*
X374013450Y-79729641D01*
X374013450Y-79933519D01*
X374053224Y-80133478D01*
X374131245Y-80321836D01*
X374221278Y-80456580D01*
X374131245Y-80591324D01*
X374053224Y-80779682D01*
X374013450Y-80979641D01*
X374013450Y-81183519D01*
X374053224Y-81383478D01*
X374131245Y-81571836D01*
X374244513Y-81741354D01*
X374388676Y-81885517D01*
X374525324Y-81976822D01*
X374512234Y-82008578D01*
X374486883Y-82067727D01*
X374483952Y-82077197D01*
X374416789Y-82299650D01*
X374404300Y-82362725D01*
X374390909Y-82425722D01*
X374389873Y-82435581D01*
X374367198Y-82666842D01*
X374367198Y-82666849D01*
X374363810Y-82701249D01*
X374363811Y-103011712D01*
X374367314Y-103047280D01*
X374367314Y-103062743D01*
X374368351Y-103072602D01*
X374394253Y-103303524D01*
X374407625Y-103366436D01*
X374420131Y-103429595D01*
X374423063Y-103439064D01*
X374493325Y-103660557D01*
X374518666Y-103719681D01*
X374533605Y-103755925D01*
X374388676Y-103852763D01*
X374244513Y-103996926D01*
X374131245Y-104166444D01*
X374053224Y-104354802D01*
X374013450Y-104554761D01*
X374013450Y-104758639D01*
X374053224Y-104958598D01*
X374131245Y-105146956D01*
X374221278Y-105281700D01*
X374131245Y-105416444D01*
X374053224Y-105604802D01*
X374013450Y-105804761D01*
X374013450Y-106008639D01*
X374053224Y-106208598D01*
X374131245Y-106396956D01*
X374221278Y-106531700D01*
X374131245Y-106666444D01*
X374053224Y-106854802D01*
X374013450Y-107054761D01*
X374013450Y-107258639D01*
X374053224Y-107458598D01*
X374131245Y-107646956D01*
X374221278Y-107781700D01*
X374131245Y-107916444D01*
X374053224Y-108104802D01*
X374013450Y-108304761D01*
X374013450Y-108508639D01*
X374053224Y-108708598D01*
X374131245Y-108896956D01*
X374221278Y-109031700D01*
X374131245Y-109166444D01*
X374053224Y-109354802D01*
X374013450Y-109554761D01*
X374013450Y-109758639D01*
X374053224Y-109958598D01*
X374131245Y-110146956D01*
X374244513Y-110316474D01*
X374388676Y-110460637D01*
X374525324Y-110551942D01*
X374512234Y-110583698D01*
X374486883Y-110642847D01*
X374483952Y-110652317D01*
X374416789Y-110874770D01*
X374404300Y-110937845D01*
X374390909Y-111000842D01*
X374389873Y-111010701D01*
X374367198Y-111241962D01*
X374367198Y-111241969D01*
X374363810Y-111276369D01*
X374363811Y-114253089D01*
X374328642Y-114611772D01*
X374234558Y-114923390D01*
X374081740Y-115210799D01*
X373876013Y-115463045D01*
X373625203Y-115670534D01*
X373338869Y-115825354D01*
X373027916Y-115921610D01*
X372671417Y-115959080D01*
X148888831Y-115959080D01*
X148530158Y-115923912D01*
X148218540Y-115829828D01*
X147931131Y-115677010D01*
X147678885Y-115471283D01*
X147471396Y-115220473D01*
X147316576Y-114934139D01*
X147220320Y-114623186D01*
X147182850Y-114266687D01*
X147182850Y-97384002D01*
X163138506Y-97384002D01*
X163138506Y-97853806D01*
X163230160Y-98314583D01*
X163409946Y-98748625D01*
X163670956Y-99139253D01*
X164003157Y-99471454D01*
X164393785Y-99732464D01*
X164827827Y-99912250D01*
X165288604Y-100003904D01*
X165758408Y-100003904D01*
X166219185Y-99912250D01*
X166653227Y-99732464D01*
X167043855Y-99471454D01*
X167376056Y-99139253D01*
X167637066Y-98748625D01*
X167816852Y-98314583D01*
X167908506Y-97853806D01*
X167908506Y-97384002D01*
X220288458Y-97384002D01*
X220288458Y-97853806D01*
X220380112Y-98314583D01*
X220559898Y-98748625D01*
X220820908Y-99139253D01*
X221153109Y-99471454D01*
X221543737Y-99732464D01*
X221977779Y-99912250D01*
X222438556Y-100003904D01*
X222908360Y-100003904D01*
X223369137Y-99912250D01*
X223803179Y-99732464D01*
X224193807Y-99471454D01*
X224526008Y-99139253D01*
X224787018Y-98748625D01*
X224966804Y-98314583D01*
X225058458Y-97853806D01*
X225058458Y-97384002D01*
X296488394Y-97384002D01*
X296488394Y-97853806D01*
X296580048Y-98314583D01*
X296759834Y-98748625D01*
X297020844Y-99139253D01*
X297353045Y-99471454D01*
X297743673Y-99732464D01*
X298177715Y-99912250D01*
X298638492Y-100003904D01*
X299108296Y-100003904D01*
X299569073Y-99912250D01*
X300003115Y-99732464D01*
X300393743Y-99471454D01*
X300725944Y-99139253D01*
X300986954Y-98748625D01*
X301166740Y-98314583D01*
X301258394Y-97853806D01*
X301258394Y-97384002D01*
X353638346Y-97384002D01*
X353638346Y-97853806D01*
X353730000Y-98314583D01*
X353909786Y-98748625D01*
X354170796Y-99139253D01*
X354502997Y-99471454D01*
X354893625Y-99732464D01*
X355327667Y-99912250D01*
X355788444Y-100003904D01*
X356258248Y-100003904D01*
X356719025Y-99912250D01*
X357153067Y-99732464D01*
X357543695Y-99471454D01*
X357875896Y-99139253D01*
X358136906Y-98748625D01*
X358316692Y-98314583D01*
X358408346Y-97853806D01*
X358408346Y-97384002D01*
X358316692Y-96923225D01*
X358136906Y-96489183D01*
X357875896Y-96098555D01*
X357543695Y-95766354D01*
X357153067Y-95505344D01*
X356719025Y-95325558D01*
X356258248Y-95233904D01*
X355788444Y-95233904D01*
X355327667Y-95325558D01*
X354893625Y-95505344D01*
X354502997Y-95766354D01*
X354170796Y-96098555D01*
X353909786Y-96489183D01*
X353730000Y-96923225D01*
X353638346Y-97384002D01*
X301258394Y-97384002D01*
X301166740Y-96923225D01*
X300986954Y-96489183D01*
X300725944Y-96098555D01*
X300393743Y-95766354D01*
X300003115Y-95505344D01*
X299569073Y-95325558D01*
X299108296Y-95233904D01*
X298638492Y-95233904D01*
X298177715Y-95325558D01*
X297743673Y-95505344D01*
X297353045Y-95766354D01*
X297020844Y-96098555D01*
X296759834Y-96489183D01*
X296580048Y-96923225D01*
X296488394Y-97384002D01*
X225058458Y-97384002D01*
X224966804Y-96923225D01*
X224787018Y-96489183D01*
X224526008Y-96098555D01*
X224193807Y-95766354D01*
X223803179Y-95505344D01*
X223369137Y-95325558D01*
X222908360Y-95233904D01*
X222438556Y-95233904D01*
X221977779Y-95325558D01*
X221543737Y-95505344D01*
X221153109Y-95766354D01*
X220820908Y-96098555D01*
X220559898Y-96489183D01*
X220380112Y-96923225D01*
X220288458Y-97384002D01*
X167908506Y-97384002D01*
X167816852Y-96923225D01*
X167637066Y-96489183D01*
X167376056Y-96098555D01*
X167043855Y-95766354D01*
X166653227Y-95505344D01*
X166219185Y-95325558D01*
X165758408Y-95233904D01*
X165288604Y-95233904D01*
X164827827Y-95325558D01*
X164393785Y-95505344D01*
X164003157Y-95766354D01*
X163670956Y-96098555D01*
X163409946Y-96489183D01*
X163230160Y-96923225D01*
X163138506Y-97384002D01*
X147182850Y-97384002D01*
X147182850Y-59284002D01*
X163138314Y-59284002D01*
X163138314Y-59753806D01*
X163229968Y-60214583D01*
X163409754Y-60648625D01*
X163670764Y-61039253D01*
X164002965Y-61371454D01*
X164393593Y-61632464D01*
X164827635Y-61812250D01*
X165288412Y-61903904D01*
X165758216Y-61903904D01*
X166218993Y-61812250D01*
X166653035Y-61632464D01*
X167043663Y-61371454D01*
X167375864Y-61039253D01*
X167636874Y-60648625D01*
X167816660Y-60214583D01*
X167908314Y-59753806D01*
X167908314Y-59284034D01*
X220288458Y-59284034D01*
X220288458Y-59753838D01*
X220380112Y-60214615D01*
X220559898Y-60648657D01*
X220820908Y-61039285D01*
X221153109Y-61371486D01*
X221543737Y-61632496D01*
X221977779Y-61812282D01*
X222438556Y-61903936D01*
X222908360Y-61903936D01*
X223369137Y-61812282D01*
X223803179Y-61632496D01*
X224193807Y-61371486D01*
X224526008Y-61039285D01*
X224787018Y-60648657D01*
X224966804Y-60214615D01*
X225058458Y-59753838D01*
X225058458Y-59284034D01*
X296463130Y-59284034D01*
X296463130Y-59753838D01*
X296554784Y-60214615D01*
X296734570Y-60648657D01*
X296995580Y-61039285D01*
X297327781Y-61371486D01*
X297718409Y-61632496D01*
X298152451Y-61812282D01*
X298613228Y-61903936D01*
X299083032Y-61903936D01*
X299543809Y-61812282D01*
X299977851Y-61632496D01*
X300368479Y-61371486D01*
X300700680Y-61039285D01*
X300961690Y-60648657D01*
X301141476Y-60214615D01*
X301233130Y-59753838D01*
X301233130Y-59284034D01*
X353638346Y-59284034D01*
X353638346Y-59753838D01*
X353730000Y-60214615D01*
X353909786Y-60648657D01*
X354170796Y-61039285D01*
X354502997Y-61371486D01*
X354893625Y-61632496D01*
X355327667Y-61812282D01*
X355788444Y-61903936D01*
X356258248Y-61903936D01*
X356719025Y-61812282D01*
X357153067Y-61632496D01*
X357543695Y-61371486D01*
X357875896Y-61039285D01*
X358136906Y-60648657D01*
X358316692Y-60214615D01*
X358408346Y-59753838D01*
X358408346Y-59284034D01*
X358316692Y-58823257D01*
X358136906Y-58389215D01*
X357875896Y-57998587D01*
X357543695Y-57666386D01*
X357153067Y-57405376D01*
X356719025Y-57225590D01*
X356258248Y-57133936D01*
X355788444Y-57133936D01*
X355327667Y-57225590D01*
X354893625Y-57405376D01*
X354502997Y-57666386D01*
X354170796Y-57998587D01*
X353909786Y-58389215D01*
X353730000Y-58823257D01*
X353638346Y-59284034D01*
X301233130Y-59284034D01*
X301141476Y-58823257D01*
X300961690Y-58389215D01*
X300700680Y-57998587D01*
X300368479Y-57666386D01*
X299977851Y-57405376D01*
X299543809Y-57225590D01*
X299083032Y-57133936D01*
X298613228Y-57133936D01*
X298152451Y-57225590D01*
X297718409Y-57405376D01*
X297327781Y-57666386D01*
X296995580Y-57998587D01*
X296734570Y-58389215D01*
X296554784Y-58823257D01*
X296463130Y-59284034D01*
X225058458Y-59284034D01*
X224966804Y-58823257D01*
X224787018Y-58389215D01*
X224526008Y-57998587D01*
X224193807Y-57666386D01*
X223803179Y-57405376D01*
X223369137Y-57225590D01*
X222908360Y-57133936D01*
X222438556Y-57133936D01*
X221977779Y-57225590D01*
X221543737Y-57405376D01*
X221153109Y-57666386D01*
X220820908Y-57998587D01*
X220559898Y-58389215D01*
X220380112Y-58823257D01*
X220288458Y-59284034D01*
X167908314Y-59284034D01*
X167908314Y-59284002D01*
X167816660Y-58823225D01*
X167636874Y-58389183D01*
X167375864Y-57998555D01*
X167043663Y-57666354D01*
X166653035Y-57405344D01*
X166218993Y-57225558D01*
X165758216Y-57133904D01*
X165288412Y-57133904D01*
X164827635Y-57225558D01*
X164393593Y-57405344D01*
X164002965Y-57666354D01*
X163670764Y-57998555D01*
X163409754Y-58389183D01*
X163229968Y-58823225D01*
X163138314Y-59284002D01*
X147182850Y-59284002D01*
X147182850Y-42884741D01*
X147218018Y-42526069D01*
X147312102Y-42214449D01*
X147464918Y-41927042D01*
X147670647Y-41674795D01*
X147921457Y-41467306D01*
X148207791Y-41312486D01*
X148518744Y-41216230D01*
X148875243Y-41178760D01*
X372657829Y-41178760D01*
X373016501Y-41213928D01*
G04 #@! TA.AperFunction,Conductor*
D15*
G36*
X373016501Y-41213928D02*
G01*
X373328121Y-41308012D01*
X373615528Y-41460828D01*
X373867775Y-41666557D01*
X374075264Y-41917367D01*
X374230084Y-42203701D01*
X374326340Y-42514654D01*
X374363810Y-42871153D01*
X374363811Y-45861472D01*
X374367314Y-45897040D01*
X374367314Y-45912503D01*
X374368351Y-45922362D01*
X374394253Y-46153284D01*
X374407625Y-46216196D01*
X374420131Y-46279355D01*
X374423063Y-46288824D01*
X374493325Y-46510317D01*
X374518666Y-46569441D01*
X374529513Y-46595759D01*
X374388676Y-46689863D01*
X374244513Y-46834026D01*
X374131245Y-47003544D01*
X374053224Y-47191902D01*
X374013450Y-47391861D01*
X374013450Y-47595739D01*
X374053224Y-47795698D01*
X374131245Y-47984056D01*
X374221278Y-48118800D01*
X374131245Y-48253544D01*
X374053224Y-48441902D01*
X374013450Y-48641861D01*
X374013450Y-48845739D01*
X374053224Y-49045698D01*
X374131245Y-49234056D01*
X374221278Y-49368800D01*
X374131245Y-49503544D01*
X374053224Y-49691902D01*
X374013450Y-49891861D01*
X374013450Y-50095739D01*
X374053224Y-50295698D01*
X374131245Y-50484056D01*
X374221278Y-50618800D01*
X374131245Y-50753544D01*
X374053224Y-50941902D01*
X374013450Y-51141861D01*
X374013450Y-51345739D01*
X374053224Y-51545698D01*
X374131245Y-51734056D01*
X374221278Y-51868800D01*
X374131245Y-52003544D01*
X374053224Y-52191902D01*
X374013450Y-52391861D01*
X374013450Y-52595739D01*
X374053224Y-52795698D01*
X374131245Y-52984056D01*
X374244513Y-53153574D01*
X374388676Y-53297737D01*
X374529415Y-53391775D01*
X374512234Y-53433458D01*
X374486883Y-53492607D01*
X374483952Y-53502077D01*
X374416789Y-53724530D01*
X374404300Y-53787605D01*
X374390909Y-53850602D01*
X374389873Y-53860461D01*
X374367198Y-54091722D01*
X374367198Y-54091729D01*
X374363810Y-54126129D01*
X374363811Y-74436592D01*
X374367314Y-74472160D01*
X374367314Y-74487623D01*
X374368351Y-74497482D01*
X374394253Y-74728404D01*
X374407625Y-74791316D01*
X374420131Y-74854475D01*
X374423063Y-74863944D01*
X374493325Y-75085437D01*
X374518666Y-75144561D01*
X374533605Y-75180805D01*
X374388676Y-75277643D01*
X374244513Y-75421806D01*
X374131245Y-75591324D01*
X374053224Y-75779682D01*
X374013450Y-75979641D01*
X374013450Y-76183519D01*
X374053224Y-76383478D01*
X374131245Y-76571836D01*
X374221278Y-76706580D01*
X374131245Y-76841324D01*
X374053224Y-77029682D01*
X374013450Y-77229641D01*
X374013450Y-77433519D01*
X374053224Y-77633478D01*
X374131245Y-77821836D01*
X374221278Y-77956580D01*
X374131245Y-78091324D01*
X374053224Y-78279682D01*
X374013450Y-78479641D01*
X374013450Y-78683519D01*
X374053224Y-78883478D01*
X374131245Y-79071836D01*
X374221278Y-79206580D01*
X374131245Y-79341324D01*
X374053224Y-79529682D01*
X374013450Y-79729641D01*
X374013450Y-79933519D01*
X374053224Y-80133478D01*
X374131245Y-80321836D01*
X374221278Y-80456580D01*
X374131245Y-80591324D01*
X374053224Y-80779682D01*
X374013450Y-80979641D01*
X374013450Y-81183519D01*
X374053224Y-81383478D01*
X374131245Y-81571836D01*
X374244513Y-81741354D01*
X374388676Y-81885517D01*
X374525324Y-81976822D01*
X374512234Y-82008578D01*
X374486883Y-82067727D01*
X374483952Y-82077197D01*
X374416789Y-82299650D01*
X374404300Y-82362725D01*
X374390909Y-82425722D01*
X374389873Y-82435581D01*
X374367198Y-82666842D01*
X374367198Y-82666849D01*
X374363810Y-82701249D01*
X374363811Y-103011712D01*
X374367314Y-103047280D01*
X374367314Y-103062743D01*
X374368351Y-103072602D01*
X374394253Y-103303524D01*
X374407625Y-103366436D01*
X374420131Y-103429595D01*
X374423063Y-103439064D01*
X374493325Y-103660557D01*
X374518666Y-103719681D01*
X374533605Y-103755925D01*
X374388676Y-103852763D01*
X374244513Y-103996926D01*
X374131245Y-104166444D01*
X374053224Y-104354802D01*
X374013450Y-104554761D01*
X374013450Y-104758639D01*
X374053224Y-104958598D01*
X374131245Y-105146956D01*
X374221278Y-105281700D01*
X374131245Y-105416444D01*
X374053224Y-105604802D01*
X374013450Y-105804761D01*
X374013450Y-106008639D01*
X374053224Y-106208598D01*
X374131245Y-106396956D01*
X374221278Y-106531700D01*
X374131245Y-106666444D01*
X374053224Y-106854802D01*
X374013450Y-107054761D01*
X374013450Y-107258639D01*
X374053224Y-107458598D01*
X374131245Y-107646956D01*
X374221278Y-107781700D01*
X374131245Y-107916444D01*
X374053224Y-108104802D01*
X374013450Y-108304761D01*
X374013450Y-108508639D01*
X374053224Y-108708598D01*
X374131245Y-108896956D01*
X374221278Y-109031700D01*
X374131245Y-109166444D01*
X374053224Y-109354802D01*
X374013450Y-109554761D01*
X374013450Y-109758639D01*
X374053224Y-109958598D01*
X374131245Y-110146956D01*
X374244513Y-110316474D01*
X374388676Y-110460637D01*
X374525324Y-110551942D01*
X374512234Y-110583698D01*
X374486883Y-110642847D01*
X374483952Y-110652317D01*
X374416789Y-110874770D01*
X374404300Y-110937845D01*
X374390909Y-111000842D01*
X374389873Y-111010701D01*
X374367198Y-111241962D01*
X374367198Y-111241969D01*
X374363810Y-111276369D01*
X374363811Y-114253089D01*
X374328642Y-114611772D01*
X374234558Y-114923390D01*
X374081740Y-115210799D01*
X373876013Y-115463045D01*
X373625203Y-115670534D01*
X373338869Y-115825354D01*
X373027916Y-115921610D01*
X372671417Y-115959080D01*
X148888831Y-115959080D01*
X148530158Y-115923912D01*
X148218540Y-115829828D01*
X147931131Y-115677010D01*
X147678885Y-115471283D01*
X147471396Y-115220473D01*
X147316576Y-114934139D01*
X147220320Y-114623186D01*
X147182850Y-114266687D01*
X147182850Y-97384002D01*
X163138506Y-97384002D01*
X163138506Y-97853806D01*
X163230160Y-98314583D01*
X163409946Y-98748625D01*
X163670956Y-99139253D01*
X164003157Y-99471454D01*
X164393785Y-99732464D01*
X164827827Y-99912250D01*
X165288604Y-100003904D01*
X165758408Y-100003904D01*
X166219185Y-99912250D01*
X166653227Y-99732464D01*
X167043855Y-99471454D01*
X167376056Y-99139253D01*
X167637066Y-98748625D01*
X167816852Y-98314583D01*
X167908506Y-97853806D01*
X167908506Y-97384002D01*
X220288458Y-97384002D01*
X220288458Y-97853806D01*
X220380112Y-98314583D01*
X220559898Y-98748625D01*
X220820908Y-99139253D01*
X221153109Y-99471454D01*
X221543737Y-99732464D01*
X221977779Y-99912250D01*
X222438556Y-100003904D01*
X222908360Y-100003904D01*
X223369137Y-99912250D01*
X223803179Y-99732464D01*
X224193807Y-99471454D01*
X224526008Y-99139253D01*
X224787018Y-98748625D01*
X224966804Y-98314583D01*
X225058458Y-97853806D01*
X225058458Y-97384002D01*
X296488394Y-97384002D01*
X296488394Y-97853806D01*
X296580048Y-98314583D01*
X296759834Y-98748625D01*
X297020844Y-99139253D01*
X297353045Y-99471454D01*
X297743673Y-99732464D01*
X298177715Y-99912250D01*
X298638492Y-100003904D01*
X299108296Y-100003904D01*
X299569073Y-99912250D01*
X300003115Y-99732464D01*
X300393743Y-99471454D01*
X300725944Y-99139253D01*
X300986954Y-98748625D01*
X301166740Y-98314583D01*
X301258394Y-97853806D01*
X301258394Y-97384002D01*
X353638346Y-97384002D01*
X353638346Y-97853806D01*
X353730000Y-98314583D01*
X353909786Y-98748625D01*
X354170796Y-99139253D01*
X354502997Y-99471454D01*
X354893625Y-99732464D01*
X355327667Y-99912250D01*
X355788444Y-100003904D01*
X356258248Y-100003904D01*
X356719025Y-99912250D01*
X357153067Y-99732464D01*
X357543695Y-99471454D01*
X357875896Y-99139253D01*
X358136906Y-98748625D01*
X358316692Y-98314583D01*
X358408346Y-97853806D01*
X358408346Y-97384002D01*
X358316692Y-96923225D01*
X358136906Y-96489183D01*
X357875896Y-96098555D01*
X357543695Y-95766354D01*
X357153067Y-95505344D01*
X356719025Y-95325558D01*
X356258248Y-95233904D01*
X355788444Y-95233904D01*
X355327667Y-95325558D01*
X354893625Y-95505344D01*
X354502997Y-95766354D01*
X354170796Y-96098555D01*
X353909786Y-96489183D01*
X353730000Y-96923225D01*
X353638346Y-97384002D01*
X301258394Y-97384002D01*
X301166740Y-96923225D01*
X300986954Y-96489183D01*
X300725944Y-96098555D01*
X300393743Y-95766354D01*
X300003115Y-95505344D01*
X299569073Y-95325558D01*
X299108296Y-95233904D01*
X298638492Y-95233904D01*
X298177715Y-95325558D01*
X297743673Y-95505344D01*
X297353045Y-95766354D01*
X297020844Y-96098555D01*
X296759834Y-96489183D01*
X296580048Y-96923225D01*
X296488394Y-97384002D01*
X225058458Y-97384002D01*
X224966804Y-96923225D01*
X224787018Y-96489183D01*
X224526008Y-96098555D01*
X224193807Y-95766354D01*
X223803179Y-95505344D01*
X223369137Y-95325558D01*
X222908360Y-95233904D01*
X222438556Y-95233904D01*
X221977779Y-95325558D01*
X221543737Y-95505344D01*
X221153109Y-95766354D01*
X220820908Y-96098555D01*
X220559898Y-96489183D01*
X220380112Y-96923225D01*
X220288458Y-97384002D01*
X167908506Y-97384002D01*
X167816852Y-96923225D01*
X167637066Y-96489183D01*
X167376056Y-96098555D01*
X167043855Y-95766354D01*
X166653227Y-95505344D01*
X166219185Y-95325558D01*
X165758408Y-95233904D01*
X165288604Y-95233904D01*
X164827827Y-95325558D01*
X164393785Y-95505344D01*
X164003157Y-95766354D01*
X163670956Y-96098555D01*
X163409946Y-96489183D01*
X163230160Y-96923225D01*
X163138506Y-97384002D01*
X147182850Y-97384002D01*
X147182850Y-59284002D01*
X163138314Y-59284002D01*
X163138314Y-59753806D01*
X163229968Y-60214583D01*
X163409754Y-60648625D01*
X163670764Y-61039253D01*
X164002965Y-61371454D01*
X164393593Y-61632464D01*
X164827635Y-61812250D01*
X165288412Y-61903904D01*
X165758216Y-61903904D01*
X166218993Y-61812250D01*
X166653035Y-61632464D01*
X167043663Y-61371454D01*
X167375864Y-61039253D01*
X167636874Y-60648625D01*
X167816660Y-60214583D01*
X167908314Y-59753806D01*
X167908314Y-59284034D01*
X220288458Y-59284034D01*
X220288458Y-59753838D01*
X220380112Y-60214615D01*
X220559898Y-60648657D01*
X220820908Y-61039285D01*
X221153109Y-61371486D01*
X221543737Y-61632496D01*
X221977779Y-61812282D01*
X222438556Y-61903936D01*
X222908360Y-61903936D01*
X223369137Y-61812282D01*
X223803179Y-61632496D01*
X224193807Y-61371486D01*
X224526008Y-61039285D01*
X224787018Y-60648657D01*
X224966804Y-60214615D01*
X225058458Y-59753838D01*
X225058458Y-59284034D01*
X296463130Y-59284034D01*
X296463130Y-59753838D01*
X296554784Y-60214615D01*
X296734570Y-60648657D01*
X296995580Y-61039285D01*
X297327781Y-61371486D01*
X297718409Y-61632496D01*
X298152451Y-61812282D01*
X298613228Y-61903936D01*
X299083032Y-61903936D01*
X299543809Y-61812282D01*
X299977851Y-61632496D01*
X300368479Y-61371486D01*
X300700680Y-61039285D01*
X300961690Y-60648657D01*
X301141476Y-60214615D01*
X301233130Y-59753838D01*
X301233130Y-59284034D01*
X353638346Y-59284034D01*
X353638346Y-59753838D01*
X353730000Y-60214615D01*
X353909786Y-60648657D01*
X354170796Y-61039285D01*
X354502997Y-61371486D01*
X354893625Y-61632496D01*
X355327667Y-61812282D01*
X355788444Y-61903936D01*
X356258248Y-61903936D01*
X356719025Y-61812282D01*
X357153067Y-61632496D01*
X357543695Y-61371486D01*
X357875896Y-61039285D01*
X358136906Y-60648657D01*
X358316692Y-60214615D01*
X358408346Y-59753838D01*
X358408346Y-59284034D01*
X358316692Y-58823257D01*
X358136906Y-58389215D01*
X357875896Y-57998587D01*
X357543695Y-57666386D01*
X357153067Y-57405376D01*
X356719025Y-57225590D01*
X356258248Y-57133936D01*
X355788444Y-57133936D01*
X355327667Y-57225590D01*
X354893625Y-57405376D01*
X354502997Y-57666386D01*
X354170796Y-57998587D01*
X353909786Y-58389215D01*
X353730000Y-58823257D01*
X353638346Y-59284034D01*
X301233130Y-59284034D01*
X301141476Y-58823257D01*
X300961690Y-58389215D01*
X300700680Y-57998587D01*
X300368479Y-57666386D01*
X299977851Y-57405376D01*
X299543809Y-57225590D01*
X299083032Y-57133936D01*
X298613228Y-57133936D01*
X298152451Y-57225590D01*
X297718409Y-57405376D01*
X297327781Y-57666386D01*
X296995580Y-57998587D01*
X296734570Y-58389215D01*
X296554784Y-58823257D01*
X296463130Y-59284034D01*
X225058458Y-59284034D01*
X224966804Y-58823257D01*
X224787018Y-58389215D01*
X224526008Y-57998587D01*
X224193807Y-57666386D01*
X223803179Y-57405376D01*
X223369137Y-57225590D01*
X222908360Y-57133936D01*
X222438556Y-57133936D01*
X221977779Y-57225590D01*
X221543737Y-57405376D01*
X221153109Y-57666386D01*
X220820908Y-57998587D01*
X220559898Y-58389215D01*
X220380112Y-58823257D01*
X220288458Y-59284034D01*
X167908314Y-59284034D01*
X167908314Y-59284002D01*
X167816660Y-58823225D01*
X167636874Y-58389183D01*
X167375864Y-57998555D01*
X167043663Y-57666354D01*
X166653035Y-57405344D01*
X166218993Y-57225558D01*
X165758216Y-57133904D01*
X165288412Y-57133904D01*
X164827635Y-57225558D01*
X164393593Y-57405344D01*
X164002965Y-57666354D01*
X163670764Y-57998555D01*
X163409754Y-58389183D01*
X163229968Y-58823225D01*
X163138314Y-59284002D01*
X147182850Y-59284002D01*
X147182850Y-42884741D01*
X147218018Y-42526069D01*
X147312102Y-42214449D01*
X147464918Y-41927042D01*
X147670647Y-41674795D01*
X147921457Y-41467306D01*
X148207791Y-41312486D01*
X148518744Y-41216230D01*
X148875243Y-41178760D01*
X372657829Y-41178760D01*
X373016501Y-41213928D01*
G37*
G04 #@! TD.AperFunction*
M02*
