%TF.GenerationSoftware,KiCad,Pcbnew,7.0.1-0*%
%TF.CreationDate,2023-08-03T16:04:49-05:00*%
%TF.ProjectId,plate,706c6174-652e-46b6-9963-61645f706362,rev?*%
%TF.SameCoordinates,Original*%
%TF.FileFunction,Copper,L1,Top*%
%TF.FilePolarity,Positive*%
%FSLAX46Y46*%
G04 Gerber Fmt 4.6, Leading zero omitted, Abs format (unit mm)*
G04 Created by KiCad (PCBNEW 7.0.1-0) date 2023-08-03 16:04:49*
%MOMM*%
%LPD*%
G01*
G04 APERTURE LIST*
%TA.AperFunction,ViaPad*%
%ADD10C,0.800000*%
%TD*%
G04 APERTURE END LIST*
D10*
%TO.N,GND*%
X254375000Y-41550000D03*
%TD*%
%TA.AperFunction,Conductor*%
%TO.N,GND*%
G36*
X100677290Y-39494760D02*
G01*
X100716687Y-39498206D01*
X100717870Y-39498316D01*
X100843676Y-39510707D01*
X100863593Y-39514331D01*
X100928268Y-39531660D01*
X100932104Y-39532756D01*
X100933478Y-39533173D01*
X101023470Y-39560472D01*
X101039877Y-39566749D01*
X101105690Y-39597437D01*
X101111739Y-39600461D01*
X101112390Y-39600809D01*
X101190988Y-39642820D01*
X101203636Y-39650590D01*
X101264731Y-39693368D01*
X101272263Y-39699082D01*
X101340415Y-39755014D01*
X101349426Y-39763181D01*
X101402496Y-39816251D01*
X101410668Y-39825267D01*
X101466624Y-39893449D01*
X101472339Y-39900981D01*
X101513502Y-39959768D01*
X101515063Y-39961996D01*
X101522846Y-39974666D01*
X101565290Y-40054071D01*
X101568314Y-40060120D01*
X101598912Y-40125737D01*
X101605191Y-40142147D01*
X101633031Y-40233924D01*
X101634144Y-40237824D01*
X101651339Y-40301993D01*
X101654968Y-40321933D01*
X101667497Y-40449135D01*
X101667622Y-40450482D01*
X101670923Y-40488209D01*
X101671395Y-40499017D01*
X101671395Y-42238377D01*
X101670923Y-42249185D01*
X101667486Y-42288468D01*
X101667361Y-42289815D01*
X101654975Y-42415567D01*
X101651347Y-42435505D01*
X101634048Y-42500066D01*
X101632934Y-42503967D01*
X101605208Y-42595371D01*
X101598930Y-42611781D01*
X101568255Y-42677565D01*
X101565230Y-42683615D01*
X101522863Y-42762877D01*
X101515081Y-42775545D01*
X101472321Y-42836614D01*
X101466598Y-42844157D01*
X101410678Y-42912295D01*
X101402507Y-42921310D01*
X101349421Y-42974397D01*
X101340403Y-42982571D01*
X101272250Y-43038502D01*
X101264711Y-43044222D01*
X101203669Y-43086965D01*
X101190998Y-43094749D01*
X101111664Y-43137155D01*
X101105612Y-43140180D01*
X101039911Y-43170815D01*
X101023503Y-43177093D01*
X100931955Y-43204863D01*
X100928055Y-43205977D01*
X100863641Y-43223237D01*
X100843702Y-43226865D01*
X100717321Y-43239313D01*
X100715975Y-43239438D01*
X100684523Y-43242190D01*
X100677368Y-43242816D01*
X100666563Y-43243288D01*
X76694768Y-43243288D01*
X76671894Y-43243246D01*
X76671511Y-43243403D01*
X76671353Y-43243639D01*
X76671371Y-43268404D01*
X76671366Y-43268404D01*
X76671395Y-43268548D01*
X76671395Y-44219028D01*
X76671354Y-44219234D01*
X76671354Y-44243788D01*
X76671395Y-44243887D01*
X76671512Y-44244171D01*
X76671513Y-44244172D01*
X76671703Y-44244250D01*
X76671895Y-44244329D01*
X76671897Y-44244327D01*
X76696511Y-44244312D01*
X76696511Y-44244316D01*
X76696655Y-44244288D01*
X223340885Y-44244288D01*
X223341028Y-44244316D01*
X223341029Y-44244312D01*
X223365642Y-44244327D01*
X223365645Y-44244329D01*
X223366028Y-44244171D01*
X223366145Y-44243887D01*
X223366186Y-44243788D01*
X223366186Y-44219234D01*
X223366145Y-44219028D01*
X223366145Y-43268548D01*
X223366173Y-43268404D01*
X223366169Y-43268404D01*
X223366186Y-43243786D01*
X223366028Y-43243404D01*
X223366027Y-43243403D01*
X223365646Y-43243246D01*
X223341071Y-43243280D01*
X223341070Y-43243250D01*
X223340885Y-43243288D01*
X199371062Y-43243288D01*
X199360256Y-43242816D01*
X199321011Y-43239383D01*
X199319663Y-43239258D01*
X199193829Y-43226865D01*
X199173894Y-43223238D01*
X199109610Y-43206016D01*
X199105703Y-43204900D01*
X199013972Y-43177073D01*
X198997567Y-43170797D01*
X198932094Y-43140269D01*
X198926041Y-43137243D01*
X198846435Y-43094692D01*
X198833769Y-43086911D01*
X198772996Y-43044360D01*
X198765451Y-43038636D01*
X198696968Y-42982433D01*
X198687960Y-42974269D01*
X198635167Y-42921478D01*
X198627013Y-42912481D01*
X198570718Y-42843886D01*
X198565018Y-42836374D01*
X198522549Y-42775723D01*
X198514788Y-42763089D01*
X198472041Y-42683115D01*
X198469038Y-42677108D01*
X198438670Y-42611983D01*
X198432396Y-42595588D01*
X198404316Y-42503017D01*
X198403216Y-42499165D01*
X198386210Y-42435698D01*
X198382584Y-42415770D01*
X198369855Y-42286540D01*
X198369784Y-42285776D01*
X198366615Y-42249549D01*
X198366145Y-42238766D01*
X198366145Y-40499201D01*
X198366617Y-40488396D01*
X198367072Y-40483192D01*
X198370086Y-40448743D01*
X198370167Y-40447874D01*
X198382562Y-40322027D01*
X198386184Y-40302122D01*
X198403581Y-40237198D01*
X198404643Y-40233480D01*
X198432313Y-40142262D01*
X198438578Y-40125889D01*
X198469423Y-40059744D01*
X198472427Y-40053739D01*
X198514598Y-39974843D01*
X198522382Y-39962172D01*
X198565421Y-39900709D01*
X198571089Y-39893236D01*
X198626709Y-39825463D01*
X198634830Y-39816503D01*
X198688383Y-39762955D01*
X198697346Y-39754831D01*
X198764954Y-39699347D01*
X198772443Y-39693666D01*
X198834179Y-39650440D01*
X198846797Y-39642689D01*
X198925216Y-39600773D01*
X198931157Y-39597803D01*
X198997959Y-39566656D01*
X199014332Y-39560391D01*
X199104145Y-39533147D01*
X199107890Y-39532079D01*
X199174248Y-39514301D01*
X199194161Y-39510677D01*
X199314684Y-39498807D01*
X199315737Y-39498709D01*
X199360912Y-39494758D01*
X199371709Y-39494288D01*
X257360227Y-39494288D01*
X257371036Y-39494760D01*
X257374116Y-39495029D01*
X257410876Y-39498247D01*
X257411677Y-39498321D01*
X257537361Y-39510700D01*
X257557286Y-39514326D01*
X257622363Y-39531766D01*
X257626245Y-39532875D01*
X257638353Y-39536547D01*
X257717105Y-39560436D01*
X257733497Y-39566708D01*
X257799808Y-39597631D01*
X257805812Y-39600633D01*
X257873451Y-39636787D01*
X257884531Y-39642710D01*
X257897203Y-39650495D01*
X257958776Y-39693611D01*
X257966314Y-39699330D01*
X258033882Y-39754781D01*
X258042901Y-39762955D01*
X258096488Y-39816544D01*
X258104658Y-39825559D01*
X258160036Y-39893037D01*
X258165758Y-39900579D01*
X258208979Y-39962306D01*
X258216762Y-39974976D01*
X258258656Y-40053354D01*
X258261680Y-40059403D01*
X258292755Y-40126044D01*
X258299034Y-40142453D01*
X258326353Y-40232512D01*
X258327467Y-40236414D01*
X258345119Y-40302294D01*
X258348747Y-40322232D01*
X258360805Y-40444650D01*
X258360930Y-40445996D01*
X258364673Y-40488772D01*
X258365145Y-40499581D01*
X258365145Y-42238375D01*
X258364673Y-42249184D01*
X258361234Y-42288487D01*
X258361109Y-42289832D01*
X258348725Y-42415573D01*
X258345097Y-42435511D01*
X258327818Y-42500001D01*
X258326704Y-42503905D01*
X258298947Y-42595407D01*
X258292669Y-42611813D01*
X258262057Y-42677465D01*
X258259032Y-42683517D01*
X258216578Y-42762942D01*
X258208796Y-42775609D01*
X258166154Y-42836511D01*
X258160432Y-42844054D01*
X258104341Y-42912402D01*
X258096170Y-42921418D01*
X258043292Y-42974298D01*
X258034275Y-42982471D01*
X257965795Y-43038672D01*
X257958254Y-43044393D01*
X257897587Y-43086874D01*
X257884916Y-43094658D01*
X257804952Y-43137400D01*
X257798907Y-43140422D01*
X257733882Y-43170747D01*
X257717468Y-43177028D01*
X257624589Y-43205202D01*
X257620693Y-43206314D01*
X257557643Y-43223211D01*
X257537698Y-43226841D01*
X257406755Y-43239738D01*
X257405416Y-43239862D01*
X257371688Y-43242815D01*
X257360873Y-43243288D01*
X233388518Y-43243288D01*
X233365644Y-43243246D01*
X233365261Y-43243403D01*
X233365103Y-43243639D01*
X233365121Y-43268404D01*
X233365116Y-43268404D01*
X233365145Y-43268548D01*
X233365145Y-44219028D01*
X233365104Y-44219234D01*
X233365104Y-44243788D01*
X233365145Y-44243887D01*
X233365262Y-44244171D01*
X233365263Y-44244172D01*
X233365453Y-44244250D01*
X233365645Y-44244329D01*
X233365647Y-44244327D01*
X233390261Y-44244312D01*
X233390261Y-44244316D01*
X233390405Y-44244288D01*
X275219605Y-44244288D01*
X275230412Y-44244760D01*
X275238185Y-44245440D01*
X275269994Y-44248223D01*
X275271063Y-44248322D01*
X275396778Y-44260705D01*
X275416688Y-44264328D01*
X275481565Y-44281712D01*
X275485351Y-44282793D01*
X275576546Y-44310456D01*
X275592939Y-44316729D01*
X275659036Y-44347551D01*
X275664985Y-44350525D01*
X275744015Y-44392768D01*
X275756671Y-44400544D01*
X275777800Y-44415339D01*
X275818001Y-44443489D01*
X275825540Y-44449208D01*
X275864066Y-44480824D01*
X275893394Y-44504894D01*
X275902408Y-44513064D01*
X275955747Y-44566404D01*
X275963918Y-44575419D01*
X276019580Y-44643243D01*
X276025294Y-44650774D01*
X276068275Y-44712158D01*
X276076054Y-44724820D01*
X276118225Y-44803715D01*
X276121240Y-44809746D01*
X276125719Y-44819351D01*
X276152083Y-44875890D01*
X276158361Y-44892298D01*
X276185946Y-44983234D01*
X276187059Y-44987134D01*
X276204478Y-45052139D01*
X276208107Y-45072080D01*
X276220402Y-45196915D01*
X276220527Y-45198257D01*
X276224048Y-45238483D01*
X276224520Y-45249295D01*
X276224520Y-119438376D01*
X276224048Y-119449182D01*
X276220612Y-119488460D01*
X276220487Y-119489809D01*
X276208100Y-119615569D01*
X276204472Y-119635506D01*
X276187181Y-119700041D01*
X276186067Y-119703944D01*
X276158328Y-119795387D01*
X276152050Y-119811795D01*
X276121403Y-119877520D01*
X276118378Y-119883571D01*
X276075970Y-119962910D01*
X276068188Y-119975577D01*
X276025490Y-120036559D01*
X276019767Y-120044103D01*
X275963758Y-120112350D01*
X275955587Y-120121365D01*
X275902608Y-120174345D01*
X275893592Y-120182517D01*
X275825272Y-120238587D01*
X275817731Y-120244309D01*
X275756875Y-120286922D01*
X275744203Y-120294706D01*
X275664564Y-120337274D01*
X275658517Y-120340298D01*
X275593146Y-120370782D01*
X275576736Y-120377061D01*
X275484509Y-120405038D01*
X275480608Y-120406151D01*
X275416897Y-120423223D01*
X275396957Y-120426852D01*
X275268303Y-120439524D01*
X275266960Y-120439649D01*
X275237393Y-120442236D01*
X275230774Y-120442816D01*
X275219966Y-120443288D01*
X233390405Y-120443288D01*
X233390199Y-120443247D01*
X233365643Y-120443247D01*
X233365452Y-120443326D01*
X233365264Y-120443403D01*
X233365260Y-120443406D01*
X233365104Y-120443787D01*
X233365121Y-120468404D01*
X233365116Y-120468404D01*
X233365145Y-120468548D01*
X233365145Y-121419028D01*
X233365104Y-121419234D01*
X233365104Y-121443788D01*
X233365145Y-121443887D01*
X233365262Y-121444171D01*
X233365263Y-121444172D01*
X233365453Y-121444250D01*
X233365645Y-121444329D01*
X233365647Y-121444327D01*
X233390261Y-121444312D01*
X233390261Y-121444316D01*
X233390405Y-121444288D01*
X257360227Y-121444288D01*
X257371036Y-121444760D01*
X257374116Y-121445029D01*
X257410876Y-121448247D01*
X257411677Y-121448321D01*
X257537361Y-121460700D01*
X257557286Y-121464326D01*
X257622363Y-121481766D01*
X257626245Y-121482875D01*
X257638353Y-121486547D01*
X257717105Y-121510436D01*
X257733497Y-121516708D01*
X257799808Y-121547631D01*
X257805812Y-121550633D01*
X257873451Y-121586787D01*
X257884531Y-121592710D01*
X257897203Y-121600495D01*
X257958776Y-121643611D01*
X257966314Y-121649330D01*
X258033882Y-121704781D01*
X258042901Y-121712955D01*
X258096488Y-121766544D01*
X258104658Y-121775559D01*
X258160036Y-121843037D01*
X258165758Y-121850579D01*
X258208979Y-121912306D01*
X258216762Y-121924976D01*
X258258656Y-122003354D01*
X258261680Y-122009403D01*
X258292755Y-122076044D01*
X258299034Y-122092453D01*
X258326353Y-122182512D01*
X258327467Y-122186414D01*
X258345119Y-122252294D01*
X258348747Y-122272232D01*
X258360805Y-122394650D01*
X258360930Y-122395996D01*
X258364673Y-122438772D01*
X258365145Y-122449581D01*
X258365145Y-124188375D01*
X258364673Y-124199184D01*
X258361234Y-124238487D01*
X258361109Y-124239832D01*
X258348725Y-124365573D01*
X258345097Y-124385511D01*
X258327818Y-124450001D01*
X258326704Y-124453905D01*
X258298947Y-124545407D01*
X258292669Y-124561813D01*
X258262057Y-124627465D01*
X258259032Y-124633517D01*
X258216578Y-124712942D01*
X258208796Y-124725609D01*
X258166154Y-124786511D01*
X258160432Y-124794054D01*
X258104341Y-124862402D01*
X258096170Y-124871418D01*
X258043292Y-124924298D01*
X258034275Y-124932471D01*
X257965795Y-124988672D01*
X257958254Y-124994393D01*
X257897587Y-125036874D01*
X257884916Y-125044658D01*
X257804952Y-125087400D01*
X257798907Y-125090422D01*
X257733882Y-125120747D01*
X257717468Y-125127028D01*
X257624589Y-125155202D01*
X257620693Y-125156314D01*
X257557643Y-125173211D01*
X257537698Y-125176841D01*
X257406755Y-125189738D01*
X257405416Y-125189862D01*
X257371688Y-125192815D01*
X257360873Y-125193288D01*
X199371062Y-125193288D01*
X199360256Y-125192816D01*
X199321011Y-125189383D01*
X199319663Y-125189258D01*
X199193829Y-125176865D01*
X199173894Y-125173238D01*
X199109610Y-125156016D01*
X199105703Y-125154900D01*
X199013972Y-125127073D01*
X198997567Y-125120797D01*
X198932094Y-125090269D01*
X198926041Y-125087243D01*
X198846435Y-125044692D01*
X198833769Y-125036911D01*
X198772996Y-124994360D01*
X198765451Y-124988636D01*
X198696968Y-124932433D01*
X198687960Y-124924269D01*
X198635167Y-124871478D01*
X198627013Y-124862481D01*
X198570718Y-124793886D01*
X198565018Y-124786374D01*
X198522549Y-124725723D01*
X198514788Y-124713089D01*
X198472041Y-124633115D01*
X198469038Y-124627108D01*
X198438670Y-124561983D01*
X198432396Y-124545588D01*
X198404316Y-124453017D01*
X198403216Y-124449165D01*
X198386210Y-124385698D01*
X198382584Y-124365770D01*
X198369855Y-124236540D01*
X198369784Y-124235776D01*
X198366615Y-124199549D01*
X198366145Y-124188766D01*
X198366145Y-122449201D01*
X198366617Y-122438396D01*
X198367072Y-122433192D01*
X198370086Y-122398743D01*
X198370167Y-122397874D01*
X198382562Y-122272027D01*
X198386184Y-122252122D01*
X198403581Y-122187198D01*
X198404643Y-122183480D01*
X198432313Y-122092262D01*
X198438578Y-122075889D01*
X198469423Y-122009744D01*
X198472427Y-122003739D01*
X198514598Y-121924843D01*
X198522382Y-121912172D01*
X198565421Y-121850709D01*
X198571089Y-121843236D01*
X198626709Y-121775463D01*
X198634830Y-121766503D01*
X198688383Y-121712955D01*
X198697346Y-121704831D01*
X198764954Y-121649347D01*
X198772443Y-121643666D01*
X198834179Y-121600440D01*
X198846797Y-121592689D01*
X198925216Y-121550773D01*
X198931157Y-121547803D01*
X198997959Y-121516656D01*
X199014332Y-121510391D01*
X199104145Y-121483147D01*
X199107890Y-121482079D01*
X199174248Y-121464301D01*
X199194161Y-121460677D01*
X199314684Y-121448807D01*
X199315737Y-121448709D01*
X199360912Y-121444758D01*
X199371709Y-121444288D01*
X223340885Y-121444288D01*
X223341028Y-121444316D01*
X223341029Y-121444312D01*
X223365642Y-121444327D01*
X223365645Y-121444329D01*
X223366028Y-121444171D01*
X223366145Y-121443887D01*
X223366186Y-121443788D01*
X223366186Y-121419234D01*
X223366145Y-121419028D01*
X223366145Y-120468548D01*
X223366173Y-120468404D01*
X223366169Y-120468404D01*
X223366184Y-120443790D01*
X223366186Y-120443788D01*
X223366106Y-120443596D01*
X223366029Y-120443406D01*
X223366025Y-120443402D01*
X223365839Y-120443326D01*
X223365647Y-120443247D01*
X223341091Y-120443247D01*
X223340885Y-120443288D01*
X76696655Y-120443288D01*
X76696449Y-120443247D01*
X76671893Y-120443247D01*
X76671702Y-120443326D01*
X76671514Y-120443403D01*
X76671510Y-120443406D01*
X76671354Y-120443787D01*
X76671371Y-120468404D01*
X76671366Y-120468404D01*
X76671395Y-120468548D01*
X76671395Y-121419028D01*
X76671354Y-121419234D01*
X76671354Y-121443788D01*
X76671395Y-121443887D01*
X76671511Y-121444170D01*
X76671512Y-121444171D01*
X76671513Y-121444172D01*
X76671703Y-121444250D01*
X76671895Y-121444329D01*
X76671897Y-121444327D01*
X76696511Y-121444312D01*
X76696511Y-121444316D01*
X76696655Y-121444288D01*
X100666485Y-121444288D01*
X100677290Y-121444760D01*
X100716687Y-121448206D01*
X100717870Y-121448316D01*
X100843676Y-121460707D01*
X100863593Y-121464331D01*
X100928268Y-121481660D01*
X100932104Y-121482756D01*
X100933478Y-121483173D01*
X101023470Y-121510472D01*
X101039877Y-121516749D01*
X101105690Y-121547437D01*
X101111739Y-121550461D01*
X101112390Y-121550809D01*
X101190988Y-121592820D01*
X101203636Y-121600590D01*
X101264731Y-121643368D01*
X101272263Y-121649082D01*
X101340415Y-121705014D01*
X101349426Y-121713181D01*
X101402496Y-121766251D01*
X101410668Y-121775267D01*
X101466624Y-121843449D01*
X101472339Y-121850981D01*
X101513502Y-121909768D01*
X101515063Y-121911996D01*
X101522846Y-121924666D01*
X101565290Y-122004071D01*
X101568314Y-122010120D01*
X101598912Y-122075737D01*
X101605191Y-122092147D01*
X101633031Y-122183924D01*
X101634144Y-122187824D01*
X101651339Y-122251993D01*
X101654968Y-122271933D01*
X101667497Y-122399135D01*
X101667622Y-122400482D01*
X101670923Y-122438209D01*
X101671395Y-122449017D01*
X101671395Y-124188377D01*
X101670923Y-124199185D01*
X101667486Y-124238468D01*
X101667361Y-124239815D01*
X101654975Y-124365567D01*
X101651347Y-124385505D01*
X101634048Y-124450066D01*
X101632934Y-124453967D01*
X101605208Y-124545371D01*
X101598930Y-124561781D01*
X101568255Y-124627565D01*
X101565230Y-124633615D01*
X101522863Y-124712877D01*
X101515081Y-124725545D01*
X101472321Y-124786614D01*
X101466598Y-124794157D01*
X101410678Y-124862295D01*
X101402507Y-124871310D01*
X101349421Y-124924397D01*
X101340403Y-124932571D01*
X101272250Y-124988502D01*
X101264711Y-124994222D01*
X101203669Y-125036965D01*
X101190998Y-125044749D01*
X101111664Y-125087155D01*
X101105612Y-125090180D01*
X101039911Y-125120815D01*
X101023503Y-125127093D01*
X100931955Y-125154863D01*
X100928055Y-125155977D01*
X100863641Y-125173237D01*
X100843702Y-125176865D01*
X100717321Y-125189313D01*
X100715975Y-125189438D01*
X100684523Y-125192190D01*
X100677368Y-125192816D01*
X100666563Y-125193288D01*
X42677311Y-125193288D01*
X42666501Y-125192816D01*
X42663433Y-125192547D01*
X42627116Y-125189369D01*
X42625774Y-125189244D01*
X42500138Y-125176870D01*
X42480199Y-125173242D01*
X42415476Y-125155900D01*
X42411588Y-125154790D01*
X42320353Y-125127114D01*
X42303948Y-125120837D01*
X42281639Y-125110434D01*
X42237979Y-125090074D01*
X42231934Y-125087051D01*
X42152889Y-125044801D01*
X42140219Y-125037018D01*
X42078947Y-124994115D01*
X42071406Y-124988394D01*
X42003486Y-124932653D01*
X41994479Y-124924490D01*
X41967826Y-124897837D01*
X41941190Y-124871200D01*
X41933020Y-124862186D01*
X41877295Y-124794284D01*
X41871599Y-124786777D01*
X41828644Y-124725429D01*
X41820866Y-124712766D01*
X41778687Y-124633854D01*
X41775663Y-124627805D01*
X41775551Y-124627565D01*
X41744823Y-124561667D01*
X41738552Y-124545277D01*
X41711005Y-124454464D01*
X41709891Y-124450563D01*
X41709758Y-124450066D01*
X41692429Y-124385391D01*
X41688804Y-124365470D01*
X41676556Y-124241116D01*
X41676488Y-124240386D01*
X41672865Y-124198973D01*
X41672395Y-124188181D01*
X41672395Y-122449200D01*
X41672867Y-122438395D01*
X41673337Y-122433012D01*
X41676326Y-122398857D01*
X41676420Y-122397843D01*
X41688812Y-122272029D01*
X41692437Y-122252103D01*
X41709806Y-122187282D01*
X41710890Y-122183489D01*
X41738570Y-122092239D01*
X41744836Y-122075861D01*
X41775627Y-122009831D01*
X41778624Y-122003837D01*
X41820887Y-121924769D01*
X41828653Y-121912126D01*
X41871586Y-121850813D01*
X41877274Y-121843316D01*
X41933046Y-121775358D01*
X41941174Y-121766390D01*
X41994504Y-121713061D01*
X42003462Y-121704941D01*
X42071420Y-121649169D01*
X42078897Y-121643497D01*
X42140254Y-121600534D01*
X42152878Y-121592779D01*
X42231929Y-121550525D01*
X42237860Y-121547560D01*
X42303997Y-121516720D01*
X42320366Y-121510457D01*
X42411474Y-121482820D01*
X42415215Y-121481752D01*
X42480251Y-121464325D01*
X42500164Y-121460702D01*
X42625532Y-121448354D01*
X42626045Y-121448306D01*
X42666596Y-121444758D01*
X42677388Y-121444288D01*
X66647135Y-121444288D01*
X66647278Y-121444316D01*
X66647279Y-121444312D01*
X66671892Y-121444327D01*
X66671895Y-121444329D01*
X66672278Y-121444171D01*
X66672395Y-121443887D01*
X66672436Y-121443788D01*
X66672436Y-121419234D01*
X66672395Y-121419028D01*
X66672395Y-120468548D01*
X66672423Y-120468404D01*
X66672419Y-120468404D01*
X66672434Y-120443790D01*
X66672436Y-120443788D01*
X66672357Y-120443596D01*
X66672279Y-120443406D01*
X66672275Y-120443402D01*
X66672089Y-120443326D01*
X66671897Y-120443247D01*
X66647341Y-120443247D01*
X66647135Y-120443288D01*
X24817930Y-120443288D01*
X24807126Y-120442816D01*
X24799829Y-120442177D01*
X24767852Y-120439380D01*
X24766506Y-120439255D01*
X24640735Y-120426868D01*
X24620797Y-120423240D01*
X24556296Y-120405958D01*
X24552393Y-120404844D01*
X24460913Y-120377094D01*
X24444506Y-120370816D01*
X24378790Y-120340174D01*
X24372757Y-120337158D01*
X24293401Y-120294741D01*
X24280737Y-120286962D01*
X24280680Y-120286922D01*
X24219715Y-120244234D01*
X24212207Y-120238538D01*
X24143977Y-120182544D01*
X24134969Y-120174378D01*
X24081932Y-120121342D01*
X24073759Y-120112325D01*
X24017755Y-120044083D01*
X24012063Y-120036581D01*
X23969348Y-119975577D01*
X23961574Y-119962922D01*
X23919160Y-119883571D01*
X23919118Y-119883492D01*
X23916110Y-119877476D01*
X23885493Y-119811817D01*
X23879221Y-119795424D01*
X23851412Y-119703746D01*
X23850305Y-119699870D01*
X23833068Y-119635538D01*
X23829444Y-119615622D01*
X23816953Y-119488799D01*
X23816892Y-119488152D01*
X23813490Y-119449252D01*
X23813020Y-119438472D01*
X23813020Y-117475180D01*
X26337011Y-117475180D01*
X26362107Y-117585143D01*
X26386366Y-117635517D01*
X26411043Y-117686760D01*
X26481365Y-117774941D01*
X26569547Y-117845261D01*
X26671166Y-117894196D01*
X26781126Y-117919290D01*
X26837520Y-117919288D01*
X26838020Y-117919288D01*
X39786127Y-117919288D01*
X39786297Y-117919321D01*
X39837520Y-117919320D01*
X39893915Y-117919318D01*
X40003875Y-117894216D01*
X40105492Y-117845275D01*
X40193672Y-117774949D01*
X40263992Y-117686765D01*
X40312926Y-117585144D01*
X40338021Y-117475182D01*
X40338021Y-117475180D01*
X50149511Y-117475180D01*
X50174607Y-117585143D01*
X50198866Y-117635517D01*
X50223543Y-117686760D01*
X50293865Y-117774941D01*
X50382047Y-117845261D01*
X50483666Y-117894196D01*
X50593626Y-117919290D01*
X50650020Y-117919288D01*
X50650520Y-117919288D01*
X63598627Y-117919288D01*
X63598797Y-117919321D01*
X63650020Y-117919320D01*
X63706415Y-117919318D01*
X63816375Y-117894216D01*
X63917992Y-117845275D01*
X64006172Y-117774949D01*
X64076492Y-117686765D01*
X64125426Y-117585144D01*
X64150521Y-117475182D01*
X64150521Y-117475180D01*
X69199511Y-117475180D01*
X69224607Y-117585143D01*
X69248866Y-117635517D01*
X69273543Y-117686760D01*
X69343865Y-117774941D01*
X69432047Y-117845261D01*
X69533666Y-117894196D01*
X69643626Y-117919290D01*
X69700020Y-117919288D01*
X69700520Y-117919288D01*
X82648627Y-117919288D01*
X82648797Y-117919321D01*
X82700020Y-117919320D01*
X82756415Y-117919318D01*
X82866375Y-117894216D01*
X82967992Y-117845275D01*
X83056172Y-117774949D01*
X83126492Y-117686765D01*
X83175426Y-117585144D01*
X83200521Y-117475182D01*
X83200521Y-117475180D01*
X88249511Y-117475180D01*
X88274607Y-117585143D01*
X88298866Y-117635517D01*
X88323543Y-117686760D01*
X88393865Y-117774941D01*
X88482047Y-117845261D01*
X88583666Y-117894196D01*
X88693626Y-117919290D01*
X88750020Y-117919288D01*
X88750520Y-117919288D01*
X101698627Y-117919288D01*
X101698797Y-117919321D01*
X101750020Y-117919320D01*
X101806415Y-117919318D01*
X101916375Y-117894216D01*
X102017992Y-117845275D01*
X102106172Y-117774949D01*
X102176492Y-117686765D01*
X102225426Y-117585144D01*
X102250521Y-117475182D01*
X102250521Y-117475180D01*
X107299511Y-117475180D01*
X107324607Y-117585143D01*
X107348866Y-117635517D01*
X107373543Y-117686760D01*
X107443865Y-117774941D01*
X107532047Y-117845261D01*
X107633666Y-117894196D01*
X107743626Y-117919290D01*
X107800020Y-117919288D01*
X107800520Y-117919288D01*
X120748627Y-117919288D01*
X120748797Y-117919321D01*
X120800020Y-117919320D01*
X120856415Y-117919318D01*
X120966375Y-117894216D01*
X121067992Y-117845275D01*
X121156172Y-117774949D01*
X121226492Y-117686765D01*
X121275426Y-117585144D01*
X121300521Y-117475182D01*
X121300521Y-117475180D01*
X126349511Y-117475180D01*
X126374607Y-117585143D01*
X126398866Y-117635517D01*
X126423543Y-117686760D01*
X126493865Y-117774941D01*
X126582047Y-117845261D01*
X126683666Y-117894196D01*
X126793626Y-117919290D01*
X126850020Y-117919288D01*
X126850520Y-117919288D01*
X139798627Y-117919288D01*
X139798797Y-117919321D01*
X139850020Y-117919320D01*
X139906415Y-117919318D01*
X140016375Y-117894216D01*
X140117992Y-117845275D01*
X140206172Y-117774949D01*
X140276492Y-117686765D01*
X140325426Y-117585144D01*
X140350521Y-117475182D01*
X140350521Y-117475180D01*
X145399511Y-117475180D01*
X145424607Y-117585143D01*
X145448866Y-117635517D01*
X145473543Y-117686760D01*
X145543865Y-117774941D01*
X145632047Y-117845261D01*
X145733666Y-117894196D01*
X145843626Y-117919290D01*
X145900020Y-117919288D01*
X145900520Y-117919288D01*
X158848627Y-117919288D01*
X158848797Y-117919321D01*
X158900020Y-117919320D01*
X158956415Y-117919318D01*
X159066375Y-117894216D01*
X159167992Y-117845275D01*
X159256172Y-117774949D01*
X159326492Y-117686765D01*
X159375426Y-117585144D01*
X159400521Y-117475182D01*
X159400521Y-117475180D01*
X164449511Y-117475180D01*
X164474607Y-117585143D01*
X164498866Y-117635517D01*
X164523543Y-117686760D01*
X164593865Y-117774941D01*
X164682047Y-117845261D01*
X164783666Y-117894196D01*
X164893626Y-117919290D01*
X164950020Y-117919288D01*
X164950520Y-117919288D01*
X177898627Y-117919288D01*
X177898797Y-117919321D01*
X177950020Y-117919320D01*
X178006415Y-117919318D01*
X178116375Y-117894216D01*
X178217992Y-117845275D01*
X178306172Y-117774949D01*
X178376492Y-117686765D01*
X178425426Y-117585144D01*
X178450521Y-117475182D01*
X178450521Y-117475180D01*
X183499511Y-117475180D01*
X183524607Y-117585143D01*
X183548866Y-117635517D01*
X183573543Y-117686760D01*
X183643865Y-117774941D01*
X183732047Y-117845261D01*
X183833666Y-117894196D01*
X183943626Y-117919290D01*
X184000020Y-117919288D01*
X184000520Y-117919288D01*
X196948627Y-117919288D01*
X196948797Y-117919321D01*
X197000020Y-117919320D01*
X197056415Y-117919318D01*
X197166375Y-117894216D01*
X197267992Y-117845275D01*
X197356172Y-117774949D01*
X197426492Y-117686765D01*
X197475426Y-117585144D01*
X197500521Y-117475182D01*
X197500521Y-117475180D01*
X202549511Y-117475180D01*
X202574607Y-117585143D01*
X202598866Y-117635517D01*
X202623543Y-117686760D01*
X202693865Y-117774941D01*
X202782047Y-117845261D01*
X202883666Y-117894196D01*
X202993626Y-117919290D01*
X203050020Y-117919288D01*
X203050520Y-117919288D01*
X215998627Y-117919288D01*
X215998797Y-117919321D01*
X216050020Y-117919320D01*
X216106415Y-117919318D01*
X216216375Y-117894216D01*
X216317992Y-117845275D01*
X216406172Y-117774949D01*
X216476492Y-117686765D01*
X216525426Y-117585144D01*
X216550521Y-117475182D01*
X216550521Y-117475180D01*
X221599511Y-117475180D01*
X221624607Y-117585143D01*
X221648866Y-117635517D01*
X221673543Y-117686760D01*
X221743865Y-117774941D01*
X221832047Y-117845261D01*
X221933666Y-117894196D01*
X222043626Y-117919290D01*
X222100020Y-117919288D01*
X222100520Y-117919288D01*
X235048627Y-117919288D01*
X235048797Y-117919321D01*
X235100020Y-117919320D01*
X235156415Y-117919318D01*
X235266375Y-117894216D01*
X235367992Y-117845275D01*
X235456172Y-117774949D01*
X235526492Y-117686765D01*
X235575426Y-117585144D01*
X235600521Y-117475182D01*
X235600521Y-117475180D01*
X240649511Y-117475180D01*
X240674607Y-117585143D01*
X240698866Y-117635517D01*
X240723543Y-117686760D01*
X240793865Y-117774941D01*
X240882047Y-117845261D01*
X240983666Y-117894196D01*
X241093626Y-117919290D01*
X241150020Y-117919288D01*
X241150520Y-117919288D01*
X254098627Y-117919288D01*
X254098797Y-117919321D01*
X254150020Y-117919320D01*
X254206415Y-117919318D01*
X254316375Y-117894216D01*
X254417992Y-117845275D01*
X254506172Y-117774949D01*
X254576492Y-117686765D01*
X254625426Y-117585144D01*
X254650521Y-117475182D01*
X254650521Y-117475180D01*
X259699511Y-117475180D01*
X259724607Y-117585143D01*
X259748866Y-117635517D01*
X259773543Y-117686760D01*
X259843865Y-117774941D01*
X259932047Y-117845261D01*
X260033666Y-117894196D01*
X260143626Y-117919290D01*
X260200020Y-117919288D01*
X260200520Y-117919288D01*
X273148627Y-117919288D01*
X273148797Y-117919321D01*
X273200020Y-117919320D01*
X273256415Y-117919318D01*
X273366375Y-117894216D01*
X273467992Y-117845275D01*
X273556172Y-117774949D01*
X273626492Y-117686765D01*
X273675426Y-117585144D01*
X273700521Y-117475182D01*
X273700520Y-117418788D01*
X273700520Y-117418288D01*
X273700520Y-104418689D01*
X273700520Y-104418688D01*
X273700520Y-104392096D01*
X273700511Y-104392054D01*
X273700511Y-104362397D01*
X273675413Y-104252440D01*
X273626477Y-104150826D01*
X273556158Y-104062648D01*
X273467981Y-103992327D01*
X273366366Y-103943389D01*
X273256412Y-103918289D01*
X273200119Y-103918288D01*
X260199921Y-103918288D01*
X260176267Y-103918288D01*
X260176105Y-103918318D01*
X260143628Y-103918318D01*
X260033675Y-103943408D01*
X259932057Y-103992341D01*
X259843878Y-104062656D01*
X259773562Y-104150826D01*
X259773558Y-104150831D01*
X259727661Y-104246130D01*
X259724620Y-104252445D01*
X259699520Y-104362396D01*
X259699520Y-117367417D01*
X259699512Y-117367452D01*
X259699511Y-117475180D01*
X254650521Y-117475180D01*
X254650520Y-117418788D01*
X254650520Y-117418288D01*
X254650520Y-104418689D01*
X254650520Y-104418688D01*
X254650520Y-104392096D01*
X254650511Y-104392054D01*
X254650511Y-104362397D01*
X254625413Y-104252440D01*
X254576477Y-104150826D01*
X254506158Y-104062648D01*
X254417981Y-103992327D01*
X254316366Y-103943389D01*
X254206412Y-103918289D01*
X254150119Y-103918288D01*
X241149921Y-103918288D01*
X241126267Y-103918288D01*
X241126105Y-103918318D01*
X241093628Y-103918318D01*
X240983675Y-103943408D01*
X240882057Y-103992341D01*
X240793878Y-104062656D01*
X240723562Y-104150826D01*
X240723558Y-104150831D01*
X240677661Y-104246130D01*
X240674620Y-104252445D01*
X240649520Y-104362396D01*
X240649520Y-117367417D01*
X240649512Y-117367452D01*
X240649511Y-117475180D01*
X235600521Y-117475180D01*
X235600520Y-117418788D01*
X235600520Y-117418288D01*
X235600520Y-104418689D01*
X235600520Y-104418688D01*
X235600520Y-104392096D01*
X235600511Y-104392054D01*
X235600511Y-104362397D01*
X235575413Y-104252440D01*
X235526477Y-104150826D01*
X235456158Y-104062648D01*
X235367981Y-103992327D01*
X235266366Y-103943389D01*
X235156412Y-103918289D01*
X235100119Y-103918288D01*
X222099921Y-103918288D01*
X222076267Y-103918288D01*
X222076105Y-103918318D01*
X222043628Y-103918318D01*
X221933675Y-103943408D01*
X221832057Y-103992341D01*
X221743878Y-104062656D01*
X221673562Y-104150826D01*
X221673558Y-104150831D01*
X221627661Y-104246130D01*
X221624620Y-104252445D01*
X221599520Y-104362396D01*
X221599520Y-117367417D01*
X221599512Y-117367452D01*
X221599511Y-117475180D01*
X216550521Y-117475180D01*
X216550520Y-117418788D01*
X216550520Y-117418288D01*
X216550520Y-104418689D01*
X216550520Y-104418688D01*
X216550520Y-104392096D01*
X216550511Y-104392054D01*
X216550511Y-104362397D01*
X216525413Y-104252440D01*
X216476477Y-104150826D01*
X216406158Y-104062648D01*
X216317981Y-103992327D01*
X216216366Y-103943389D01*
X216106412Y-103918289D01*
X216050119Y-103918288D01*
X203049921Y-103918288D01*
X203026267Y-103918288D01*
X203026105Y-103918318D01*
X202993628Y-103918318D01*
X202883675Y-103943408D01*
X202782057Y-103992341D01*
X202693878Y-104062656D01*
X202623562Y-104150826D01*
X202623558Y-104150831D01*
X202577661Y-104246130D01*
X202574620Y-104252445D01*
X202549520Y-104362396D01*
X202549520Y-117367417D01*
X202549512Y-117367452D01*
X202549511Y-117475180D01*
X197500521Y-117475180D01*
X197500520Y-117418788D01*
X197500520Y-117418288D01*
X197500520Y-104418689D01*
X197500520Y-104418688D01*
X197500520Y-104392096D01*
X197500511Y-104392054D01*
X197500511Y-104362397D01*
X197475413Y-104252440D01*
X197426477Y-104150826D01*
X197356158Y-104062648D01*
X197267981Y-103992327D01*
X197166366Y-103943389D01*
X197056412Y-103918289D01*
X197000119Y-103918288D01*
X183999921Y-103918288D01*
X183976267Y-103918288D01*
X183976105Y-103918318D01*
X183943628Y-103918318D01*
X183833675Y-103943408D01*
X183732057Y-103992341D01*
X183643878Y-104062656D01*
X183573562Y-104150826D01*
X183573558Y-104150831D01*
X183527661Y-104246130D01*
X183524620Y-104252445D01*
X183499520Y-104362396D01*
X183499520Y-117367417D01*
X183499512Y-117367452D01*
X183499511Y-117475180D01*
X178450521Y-117475180D01*
X178450520Y-117418788D01*
X178450520Y-117418288D01*
X178450520Y-104418689D01*
X178450520Y-104418688D01*
X178450520Y-104392096D01*
X178450511Y-104392054D01*
X178450511Y-104362397D01*
X178425413Y-104252440D01*
X178376477Y-104150826D01*
X178306158Y-104062648D01*
X178217981Y-103992327D01*
X178116366Y-103943389D01*
X178006412Y-103918289D01*
X177950119Y-103918288D01*
X164949921Y-103918288D01*
X164926267Y-103918288D01*
X164926105Y-103918318D01*
X164893628Y-103918318D01*
X164783675Y-103943408D01*
X164682057Y-103992341D01*
X164593878Y-104062656D01*
X164523562Y-104150826D01*
X164523558Y-104150831D01*
X164477661Y-104246130D01*
X164474620Y-104252445D01*
X164449520Y-104362396D01*
X164449520Y-117367417D01*
X164449512Y-117367452D01*
X164449511Y-117475180D01*
X159400521Y-117475180D01*
X159400520Y-117418788D01*
X159400520Y-117418288D01*
X159400520Y-104418689D01*
X159400520Y-104418688D01*
X159400520Y-104392096D01*
X159400511Y-104392054D01*
X159400511Y-104362397D01*
X159375413Y-104252440D01*
X159326477Y-104150826D01*
X159256158Y-104062648D01*
X159167981Y-103992327D01*
X159066366Y-103943389D01*
X158956412Y-103918289D01*
X158900119Y-103918288D01*
X145899921Y-103918288D01*
X145876267Y-103918288D01*
X145876105Y-103918318D01*
X145843628Y-103918318D01*
X145733675Y-103943408D01*
X145632057Y-103992341D01*
X145543878Y-104062656D01*
X145473562Y-104150826D01*
X145473558Y-104150831D01*
X145427661Y-104246130D01*
X145424620Y-104252445D01*
X145399520Y-104362396D01*
X145399520Y-117367417D01*
X145399512Y-117367452D01*
X145399511Y-117475180D01*
X140350521Y-117475180D01*
X140350520Y-117418788D01*
X140350520Y-117418288D01*
X140350520Y-104418689D01*
X140350520Y-104418688D01*
X140350520Y-104392096D01*
X140350511Y-104392054D01*
X140350511Y-104362397D01*
X140325413Y-104252440D01*
X140276477Y-104150826D01*
X140206158Y-104062648D01*
X140117981Y-103992327D01*
X140016366Y-103943389D01*
X139906412Y-103918289D01*
X139850119Y-103918288D01*
X126849921Y-103918288D01*
X126826267Y-103918288D01*
X126826105Y-103918318D01*
X126793628Y-103918318D01*
X126683675Y-103943408D01*
X126582057Y-103992341D01*
X126493878Y-104062656D01*
X126423562Y-104150826D01*
X126423558Y-104150831D01*
X126377661Y-104246130D01*
X126374620Y-104252445D01*
X126349520Y-104362396D01*
X126349520Y-117367417D01*
X126349512Y-117367452D01*
X126349511Y-117475180D01*
X121300521Y-117475180D01*
X121300520Y-117418788D01*
X121300520Y-117418288D01*
X121300520Y-104418689D01*
X121300520Y-104418688D01*
X121300520Y-104392096D01*
X121300511Y-104392054D01*
X121300511Y-104362397D01*
X121275413Y-104252440D01*
X121226477Y-104150826D01*
X121156158Y-104062648D01*
X121067981Y-103992327D01*
X120966366Y-103943389D01*
X120856412Y-103918289D01*
X120800119Y-103918288D01*
X107799921Y-103918288D01*
X107776267Y-103918288D01*
X107776105Y-103918318D01*
X107743628Y-103918318D01*
X107633675Y-103943408D01*
X107532057Y-103992341D01*
X107443878Y-104062656D01*
X107373562Y-104150826D01*
X107373558Y-104150831D01*
X107327661Y-104246130D01*
X107324620Y-104252445D01*
X107299520Y-104362396D01*
X107299520Y-117367417D01*
X107299512Y-117367452D01*
X107299511Y-117475180D01*
X102250521Y-117475180D01*
X102250520Y-117418788D01*
X102250520Y-117418288D01*
X102250520Y-104418689D01*
X102250520Y-104418688D01*
X102250520Y-104392096D01*
X102250511Y-104392054D01*
X102250511Y-104362397D01*
X102225413Y-104252440D01*
X102176477Y-104150826D01*
X102106158Y-104062648D01*
X102017981Y-103992327D01*
X101916366Y-103943389D01*
X101806412Y-103918289D01*
X101750119Y-103918288D01*
X88749921Y-103918288D01*
X88726267Y-103918288D01*
X88726105Y-103918318D01*
X88693628Y-103918318D01*
X88583675Y-103943408D01*
X88482057Y-103992341D01*
X88393878Y-104062656D01*
X88323562Y-104150826D01*
X88323558Y-104150831D01*
X88277661Y-104246130D01*
X88274620Y-104252445D01*
X88249520Y-104362396D01*
X88249520Y-117367417D01*
X88249512Y-117367452D01*
X88249511Y-117475180D01*
X83200521Y-117475180D01*
X83200520Y-117418788D01*
X83200520Y-117418288D01*
X83200520Y-104418689D01*
X83200520Y-104418688D01*
X83200520Y-104392096D01*
X83200511Y-104392054D01*
X83200511Y-104362397D01*
X83175413Y-104252440D01*
X83126477Y-104150826D01*
X83056158Y-104062648D01*
X82967981Y-103992327D01*
X82866366Y-103943389D01*
X82756412Y-103918289D01*
X82700119Y-103918288D01*
X69699921Y-103918288D01*
X69676267Y-103918288D01*
X69676105Y-103918318D01*
X69643628Y-103918318D01*
X69533675Y-103943408D01*
X69432057Y-103992341D01*
X69343878Y-104062656D01*
X69273562Y-104150826D01*
X69273558Y-104150831D01*
X69227661Y-104246130D01*
X69224620Y-104252445D01*
X69199520Y-104362396D01*
X69199520Y-117367417D01*
X69199512Y-117367452D01*
X69199511Y-117475180D01*
X64150521Y-117475180D01*
X64150520Y-117418788D01*
X64150520Y-117418288D01*
X64150520Y-104418689D01*
X64150520Y-104418688D01*
X64150520Y-104392096D01*
X64150511Y-104392054D01*
X64150511Y-104362397D01*
X64125413Y-104252440D01*
X64076477Y-104150826D01*
X64006158Y-104062648D01*
X63917981Y-103992327D01*
X63816366Y-103943389D01*
X63706412Y-103918289D01*
X63650119Y-103918288D01*
X50649921Y-103918288D01*
X50626267Y-103918288D01*
X50626105Y-103918318D01*
X50593628Y-103918318D01*
X50483675Y-103943408D01*
X50382057Y-103992341D01*
X50293878Y-104062656D01*
X50223562Y-104150826D01*
X50223558Y-104150831D01*
X50177661Y-104246130D01*
X50174620Y-104252445D01*
X50149520Y-104362396D01*
X50149520Y-117367417D01*
X50149512Y-117367452D01*
X50149511Y-117475180D01*
X40338021Y-117475180D01*
X40338020Y-117418788D01*
X40338020Y-117418288D01*
X40338020Y-104418689D01*
X40338020Y-104418688D01*
X40338020Y-104392096D01*
X40338011Y-104392054D01*
X40338011Y-104362397D01*
X40312913Y-104252440D01*
X40263977Y-104150826D01*
X40193658Y-104062648D01*
X40105481Y-103992327D01*
X40003866Y-103943389D01*
X39893912Y-103918289D01*
X39837619Y-103918288D01*
X26837421Y-103918288D01*
X26813767Y-103918288D01*
X26813605Y-103918318D01*
X26781128Y-103918318D01*
X26671175Y-103943408D01*
X26569557Y-103992341D01*
X26481378Y-104062656D01*
X26411062Y-104150826D01*
X26411058Y-104150831D01*
X26365161Y-104246130D01*
X26362120Y-104252445D01*
X26337020Y-104362396D01*
X26337020Y-117367417D01*
X26337012Y-117367452D01*
X26337011Y-117475180D01*
X23813020Y-117475180D01*
X23813020Y-98425180D01*
X26337011Y-98425180D01*
X26362107Y-98535143D01*
X26386366Y-98585517D01*
X26411043Y-98636760D01*
X26481365Y-98724941D01*
X26569547Y-98795261D01*
X26671166Y-98844196D01*
X26781126Y-98869290D01*
X26837520Y-98869288D01*
X26838020Y-98869288D01*
X39786127Y-98869288D01*
X39786297Y-98869321D01*
X39837520Y-98869320D01*
X39893915Y-98869318D01*
X40003875Y-98844216D01*
X40105492Y-98795275D01*
X40193672Y-98724949D01*
X40263992Y-98636765D01*
X40312926Y-98535144D01*
X40338021Y-98425182D01*
X40338021Y-98425180D01*
X50149511Y-98425180D01*
X50174607Y-98535143D01*
X50198866Y-98585517D01*
X50223543Y-98636760D01*
X50293865Y-98724941D01*
X50382047Y-98795261D01*
X50483666Y-98844196D01*
X50593626Y-98869290D01*
X50650020Y-98869288D01*
X50650520Y-98869288D01*
X63598627Y-98869288D01*
X63598797Y-98869321D01*
X63650020Y-98869320D01*
X63706415Y-98869318D01*
X63816375Y-98844216D01*
X63917992Y-98795275D01*
X64006172Y-98724949D01*
X64076492Y-98636765D01*
X64125426Y-98535144D01*
X64150521Y-98425182D01*
X64150521Y-98425180D01*
X69199511Y-98425180D01*
X69224607Y-98535143D01*
X69248866Y-98585517D01*
X69273543Y-98636760D01*
X69343865Y-98724941D01*
X69432047Y-98795261D01*
X69533666Y-98844196D01*
X69643626Y-98869290D01*
X69700020Y-98869288D01*
X69700520Y-98869288D01*
X82648627Y-98869288D01*
X82648797Y-98869321D01*
X82700020Y-98869320D01*
X82756415Y-98869318D01*
X82866375Y-98844216D01*
X82967992Y-98795275D01*
X83056172Y-98724949D01*
X83126492Y-98636765D01*
X83175426Y-98535144D01*
X83200521Y-98425182D01*
X83200521Y-98425180D01*
X88249511Y-98425180D01*
X88274607Y-98535143D01*
X88298866Y-98585517D01*
X88323543Y-98636760D01*
X88393865Y-98724941D01*
X88482047Y-98795261D01*
X88583666Y-98844196D01*
X88693626Y-98869290D01*
X88750020Y-98869288D01*
X88750520Y-98869288D01*
X101698627Y-98869288D01*
X101698797Y-98869321D01*
X101750020Y-98869320D01*
X101806415Y-98869318D01*
X101916375Y-98844216D01*
X102017992Y-98795275D01*
X102106172Y-98724949D01*
X102176492Y-98636765D01*
X102225426Y-98535144D01*
X102250521Y-98425182D01*
X102250521Y-98425180D01*
X107299511Y-98425180D01*
X107324607Y-98535143D01*
X107348866Y-98585517D01*
X107373543Y-98636760D01*
X107443865Y-98724941D01*
X107532047Y-98795261D01*
X107633666Y-98844196D01*
X107743626Y-98869290D01*
X107800020Y-98869288D01*
X107800520Y-98869288D01*
X120748627Y-98869288D01*
X120748797Y-98869321D01*
X120800020Y-98869320D01*
X120856415Y-98869318D01*
X120966375Y-98844216D01*
X121067992Y-98795275D01*
X121156172Y-98724949D01*
X121226492Y-98636765D01*
X121275426Y-98535144D01*
X121300521Y-98425182D01*
X121300521Y-98425180D01*
X126349511Y-98425180D01*
X126374607Y-98535143D01*
X126398866Y-98585517D01*
X126423543Y-98636760D01*
X126493865Y-98724941D01*
X126582047Y-98795261D01*
X126683666Y-98844196D01*
X126793626Y-98869290D01*
X126850020Y-98869288D01*
X126850520Y-98869288D01*
X139798627Y-98869288D01*
X139798797Y-98869321D01*
X139850020Y-98869320D01*
X139906415Y-98869318D01*
X140016375Y-98844216D01*
X140117992Y-98795275D01*
X140206172Y-98724949D01*
X140276492Y-98636765D01*
X140325426Y-98535144D01*
X140350521Y-98425182D01*
X140350521Y-98425180D01*
X145399511Y-98425180D01*
X145424607Y-98535143D01*
X145448866Y-98585517D01*
X145473543Y-98636760D01*
X145543865Y-98724941D01*
X145632047Y-98795261D01*
X145733666Y-98844196D01*
X145843626Y-98869290D01*
X145900020Y-98869288D01*
X145900520Y-98869288D01*
X158848627Y-98869288D01*
X158848797Y-98869321D01*
X158900020Y-98869320D01*
X158956415Y-98869318D01*
X159066375Y-98844216D01*
X159167992Y-98795275D01*
X159256172Y-98724949D01*
X159326492Y-98636765D01*
X159375426Y-98535144D01*
X159400521Y-98425182D01*
X159400521Y-98425180D01*
X164449511Y-98425180D01*
X164474607Y-98535143D01*
X164498866Y-98585517D01*
X164523543Y-98636760D01*
X164593865Y-98724941D01*
X164682047Y-98795261D01*
X164783666Y-98844196D01*
X164893626Y-98869290D01*
X164950020Y-98869288D01*
X164950520Y-98869288D01*
X177898627Y-98869288D01*
X177898797Y-98869321D01*
X177950020Y-98869320D01*
X178006415Y-98869318D01*
X178116375Y-98844216D01*
X178217992Y-98795275D01*
X178306172Y-98724949D01*
X178376492Y-98636765D01*
X178425426Y-98535144D01*
X178450521Y-98425182D01*
X178450521Y-98425180D01*
X183499511Y-98425180D01*
X183524607Y-98535143D01*
X183548866Y-98585517D01*
X183573543Y-98636760D01*
X183643865Y-98724941D01*
X183732047Y-98795261D01*
X183833666Y-98844196D01*
X183943626Y-98869290D01*
X184000020Y-98869288D01*
X184000520Y-98869288D01*
X196948627Y-98869288D01*
X196948797Y-98869321D01*
X197000020Y-98869320D01*
X197056415Y-98869318D01*
X197166375Y-98844216D01*
X197267992Y-98795275D01*
X197356172Y-98724949D01*
X197426492Y-98636765D01*
X197475426Y-98535144D01*
X197500521Y-98425182D01*
X197500521Y-98425180D01*
X202549511Y-98425180D01*
X202574607Y-98535143D01*
X202598866Y-98585517D01*
X202623543Y-98636760D01*
X202693865Y-98724941D01*
X202782047Y-98795261D01*
X202883666Y-98844196D01*
X202993626Y-98869290D01*
X203050020Y-98869288D01*
X203050520Y-98869288D01*
X215998627Y-98869288D01*
X215998797Y-98869321D01*
X216050020Y-98869320D01*
X216106415Y-98869318D01*
X216216375Y-98844216D01*
X216317992Y-98795275D01*
X216406172Y-98724949D01*
X216476492Y-98636765D01*
X216525426Y-98535144D01*
X216550521Y-98425182D01*
X216550521Y-98425180D01*
X221599511Y-98425180D01*
X221624607Y-98535143D01*
X221648866Y-98585517D01*
X221673543Y-98636760D01*
X221743865Y-98724941D01*
X221832047Y-98795261D01*
X221933666Y-98844196D01*
X222043626Y-98869290D01*
X222100020Y-98869288D01*
X222100520Y-98869288D01*
X235048627Y-98869288D01*
X235048797Y-98869321D01*
X235100020Y-98869320D01*
X235156415Y-98869318D01*
X235266375Y-98844216D01*
X235367992Y-98795275D01*
X235456172Y-98724949D01*
X235526492Y-98636765D01*
X235575426Y-98535144D01*
X235600521Y-98425182D01*
X235600521Y-98425180D01*
X240649511Y-98425180D01*
X240674607Y-98535143D01*
X240698866Y-98585517D01*
X240723543Y-98636760D01*
X240793865Y-98724941D01*
X240882047Y-98795261D01*
X240983666Y-98844196D01*
X241093626Y-98869290D01*
X241150020Y-98869288D01*
X241150520Y-98869288D01*
X254098627Y-98869288D01*
X254098797Y-98869321D01*
X254150020Y-98869320D01*
X254206415Y-98869318D01*
X254316375Y-98844216D01*
X254417992Y-98795275D01*
X254506172Y-98724949D01*
X254576492Y-98636765D01*
X254625426Y-98535144D01*
X254650521Y-98425182D01*
X254650521Y-98425180D01*
X259699511Y-98425180D01*
X259724607Y-98535143D01*
X259748866Y-98585517D01*
X259773543Y-98636760D01*
X259843865Y-98724941D01*
X259932047Y-98795261D01*
X260033666Y-98844196D01*
X260143626Y-98869290D01*
X260200020Y-98869288D01*
X260200520Y-98869288D01*
X273148627Y-98869288D01*
X273148797Y-98869321D01*
X273200020Y-98869320D01*
X273256415Y-98869318D01*
X273366375Y-98844216D01*
X273467992Y-98795275D01*
X273556172Y-98724949D01*
X273626492Y-98636765D01*
X273675426Y-98535144D01*
X273700521Y-98425182D01*
X273700520Y-98368788D01*
X273700520Y-98368288D01*
X273700520Y-85368689D01*
X273700520Y-85368688D01*
X273700520Y-85342096D01*
X273700511Y-85342054D01*
X273700511Y-85312397D01*
X273675413Y-85202440D01*
X273626477Y-85100826D01*
X273556158Y-85012648D01*
X273467981Y-84942327D01*
X273366366Y-84893389D01*
X273256412Y-84868289D01*
X273200119Y-84868288D01*
X260199921Y-84868288D01*
X260176267Y-84868288D01*
X260176105Y-84868318D01*
X260143628Y-84868318D01*
X260033675Y-84893408D01*
X259932057Y-84942341D01*
X259843878Y-85012656D01*
X259773562Y-85100826D01*
X259773558Y-85100831D01*
X259727661Y-85196130D01*
X259724620Y-85202445D01*
X259699520Y-85312396D01*
X259699520Y-98317417D01*
X259699512Y-98317452D01*
X259699511Y-98425180D01*
X254650521Y-98425180D01*
X254650520Y-98368788D01*
X254650520Y-98368288D01*
X254650520Y-85368689D01*
X254650520Y-85368688D01*
X254650520Y-85342096D01*
X254650511Y-85342054D01*
X254650511Y-85312397D01*
X254625413Y-85202440D01*
X254576477Y-85100826D01*
X254506158Y-85012648D01*
X254417981Y-84942327D01*
X254316366Y-84893389D01*
X254206412Y-84868289D01*
X254150119Y-84868288D01*
X241149921Y-84868288D01*
X241126267Y-84868288D01*
X241126105Y-84868318D01*
X241093628Y-84868318D01*
X240983675Y-84893408D01*
X240882057Y-84942341D01*
X240793878Y-85012656D01*
X240723562Y-85100826D01*
X240723558Y-85100831D01*
X240677661Y-85196130D01*
X240674620Y-85202445D01*
X240649520Y-85312396D01*
X240649520Y-98317417D01*
X240649512Y-98317452D01*
X240649511Y-98425180D01*
X235600521Y-98425180D01*
X235600520Y-98368788D01*
X235600520Y-98368288D01*
X235600520Y-85368689D01*
X235600520Y-85368688D01*
X235600520Y-85342096D01*
X235600511Y-85342054D01*
X235600511Y-85312397D01*
X235575413Y-85202440D01*
X235526477Y-85100826D01*
X235456158Y-85012648D01*
X235367981Y-84942327D01*
X235266366Y-84893389D01*
X235156412Y-84868289D01*
X235100119Y-84868288D01*
X222099921Y-84868288D01*
X222076267Y-84868288D01*
X222076105Y-84868318D01*
X222043628Y-84868318D01*
X221933675Y-84893408D01*
X221832057Y-84942341D01*
X221743878Y-85012656D01*
X221673562Y-85100826D01*
X221673558Y-85100831D01*
X221627661Y-85196130D01*
X221624620Y-85202445D01*
X221599520Y-85312396D01*
X221599520Y-98317417D01*
X221599512Y-98317452D01*
X221599511Y-98425180D01*
X216550521Y-98425180D01*
X216550520Y-98368788D01*
X216550520Y-98368288D01*
X216550520Y-85368689D01*
X216550520Y-85368688D01*
X216550520Y-85342096D01*
X216550511Y-85342054D01*
X216550511Y-85312397D01*
X216525413Y-85202440D01*
X216476477Y-85100826D01*
X216406158Y-85012648D01*
X216317981Y-84942327D01*
X216216366Y-84893389D01*
X216106412Y-84868289D01*
X216050119Y-84868288D01*
X203049921Y-84868288D01*
X203026267Y-84868288D01*
X203026105Y-84868318D01*
X202993628Y-84868318D01*
X202883675Y-84893408D01*
X202782057Y-84942341D01*
X202693878Y-85012656D01*
X202623562Y-85100826D01*
X202623558Y-85100831D01*
X202577661Y-85196130D01*
X202574620Y-85202445D01*
X202549520Y-85312396D01*
X202549520Y-98317417D01*
X202549512Y-98317452D01*
X202549511Y-98425180D01*
X197500521Y-98425180D01*
X197500520Y-98368788D01*
X197500520Y-98368288D01*
X197500520Y-85368689D01*
X197500520Y-85368688D01*
X197500520Y-85342096D01*
X197500511Y-85342054D01*
X197500511Y-85312397D01*
X197475413Y-85202440D01*
X197426477Y-85100826D01*
X197356158Y-85012648D01*
X197267981Y-84942327D01*
X197166366Y-84893389D01*
X197056412Y-84868289D01*
X197000119Y-84868288D01*
X183999921Y-84868288D01*
X183976267Y-84868288D01*
X183976105Y-84868318D01*
X183943628Y-84868318D01*
X183833675Y-84893408D01*
X183732057Y-84942341D01*
X183643878Y-85012656D01*
X183573562Y-85100826D01*
X183573558Y-85100831D01*
X183527661Y-85196130D01*
X183524620Y-85202445D01*
X183499520Y-85312396D01*
X183499520Y-98317417D01*
X183499512Y-98317452D01*
X183499511Y-98425180D01*
X178450521Y-98425180D01*
X178450520Y-98368788D01*
X178450520Y-98368288D01*
X178450520Y-85368689D01*
X178450520Y-85368688D01*
X178450520Y-85342096D01*
X178450511Y-85342054D01*
X178450511Y-85312397D01*
X178425413Y-85202440D01*
X178376477Y-85100826D01*
X178306158Y-85012648D01*
X178217981Y-84942327D01*
X178116366Y-84893389D01*
X178006412Y-84868289D01*
X177950119Y-84868288D01*
X164949921Y-84868288D01*
X164926267Y-84868288D01*
X164926105Y-84868318D01*
X164893628Y-84868318D01*
X164783675Y-84893408D01*
X164682057Y-84942341D01*
X164593878Y-85012656D01*
X164523562Y-85100826D01*
X164523558Y-85100831D01*
X164477661Y-85196130D01*
X164474620Y-85202445D01*
X164449520Y-85312396D01*
X164449520Y-98317417D01*
X164449512Y-98317452D01*
X164449511Y-98425180D01*
X159400521Y-98425180D01*
X159400520Y-98368788D01*
X159400520Y-98368288D01*
X159400520Y-85368689D01*
X159400520Y-85368688D01*
X159400520Y-85342096D01*
X159400511Y-85342054D01*
X159400511Y-85312397D01*
X159375413Y-85202440D01*
X159375412Y-85202439D01*
X159326477Y-85100826D01*
X159256158Y-85012648D01*
X159167981Y-84942327D01*
X159066366Y-84893389D01*
X158956412Y-84868289D01*
X158900119Y-84868288D01*
X145899921Y-84868288D01*
X145876267Y-84868288D01*
X145876105Y-84868318D01*
X145843628Y-84868318D01*
X145733675Y-84893408D01*
X145632057Y-84942341D01*
X145543878Y-85012656D01*
X145473562Y-85100826D01*
X145473558Y-85100831D01*
X145427661Y-85196130D01*
X145424620Y-85202445D01*
X145399520Y-85312396D01*
X145399520Y-98317417D01*
X145399512Y-98317452D01*
X145399511Y-98425180D01*
X140350521Y-98425180D01*
X140350520Y-98368788D01*
X140350520Y-98368288D01*
X140350520Y-85368689D01*
X140350520Y-85368688D01*
X140350520Y-85342096D01*
X140350511Y-85342054D01*
X140350511Y-85312397D01*
X140325413Y-85202440D01*
X140325412Y-85202439D01*
X140276477Y-85100826D01*
X140206158Y-85012648D01*
X140117981Y-84942327D01*
X140016366Y-84893389D01*
X139906412Y-84868289D01*
X139850119Y-84868288D01*
X126849921Y-84868288D01*
X126826267Y-84868288D01*
X126826105Y-84868318D01*
X126793628Y-84868318D01*
X126683675Y-84893408D01*
X126582057Y-84942341D01*
X126493878Y-85012656D01*
X126423562Y-85100826D01*
X126423558Y-85100831D01*
X126377661Y-85196130D01*
X126374620Y-85202445D01*
X126349520Y-85312396D01*
X126349520Y-98317417D01*
X126349512Y-98317452D01*
X126349511Y-98425180D01*
X121300521Y-98425180D01*
X121300520Y-98368788D01*
X121300520Y-98368288D01*
X121300520Y-85368689D01*
X121300520Y-85368688D01*
X121300520Y-85342096D01*
X121300511Y-85342054D01*
X121300511Y-85312397D01*
X121275413Y-85202440D01*
X121275412Y-85202439D01*
X121226477Y-85100826D01*
X121156158Y-85012648D01*
X121067981Y-84942327D01*
X120966366Y-84893389D01*
X120856412Y-84868289D01*
X120800119Y-84868288D01*
X107799921Y-84868288D01*
X107776267Y-84868288D01*
X107776105Y-84868318D01*
X107743628Y-84868318D01*
X107633675Y-84893408D01*
X107532057Y-84942341D01*
X107443878Y-85012656D01*
X107373562Y-85100826D01*
X107373558Y-85100831D01*
X107327661Y-85196130D01*
X107324620Y-85202445D01*
X107299520Y-85312396D01*
X107299520Y-98317417D01*
X107299512Y-98317452D01*
X107299511Y-98425180D01*
X102250521Y-98425180D01*
X102250520Y-98368788D01*
X102250520Y-98368288D01*
X102250520Y-85368689D01*
X102250520Y-85368688D01*
X102250520Y-85342096D01*
X102250511Y-85342054D01*
X102250511Y-85312397D01*
X102225413Y-85202440D01*
X102176477Y-85100826D01*
X102106158Y-85012648D01*
X102017981Y-84942327D01*
X101916366Y-84893389D01*
X101806412Y-84868289D01*
X101750119Y-84868288D01*
X88749921Y-84868288D01*
X88726267Y-84868288D01*
X88726105Y-84868318D01*
X88693628Y-84868318D01*
X88583675Y-84893408D01*
X88482057Y-84942341D01*
X88393878Y-85012656D01*
X88323562Y-85100826D01*
X88323558Y-85100831D01*
X88277661Y-85196130D01*
X88274620Y-85202445D01*
X88249520Y-85312396D01*
X88249520Y-98317417D01*
X88249512Y-98317452D01*
X88249511Y-98425180D01*
X83200521Y-98425180D01*
X83200520Y-98368788D01*
X83200520Y-98368288D01*
X83200520Y-85368689D01*
X83200520Y-85368688D01*
X83200520Y-85342096D01*
X83200511Y-85342054D01*
X83200511Y-85312397D01*
X83175413Y-85202440D01*
X83126477Y-85100826D01*
X83056158Y-85012648D01*
X82967981Y-84942327D01*
X82866366Y-84893389D01*
X82756412Y-84868289D01*
X82700119Y-84868288D01*
X69699921Y-84868288D01*
X69676267Y-84868288D01*
X69676105Y-84868318D01*
X69643628Y-84868318D01*
X69533675Y-84893408D01*
X69432057Y-84942341D01*
X69343878Y-85012656D01*
X69273562Y-85100826D01*
X69273558Y-85100831D01*
X69227661Y-85196130D01*
X69224620Y-85202445D01*
X69199520Y-85312396D01*
X69199520Y-98317417D01*
X69199512Y-98317452D01*
X69199511Y-98425180D01*
X64150521Y-98425180D01*
X64150520Y-98368788D01*
X64150520Y-98368288D01*
X64150520Y-85368689D01*
X64150520Y-85368688D01*
X64150520Y-85342096D01*
X64150511Y-85342054D01*
X64150511Y-85312397D01*
X64125413Y-85202440D01*
X64076477Y-85100826D01*
X64006158Y-85012648D01*
X63917981Y-84942327D01*
X63816366Y-84893389D01*
X63706412Y-84868289D01*
X63650119Y-84868288D01*
X50649921Y-84868288D01*
X50626267Y-84868288D01*
X50626105Y-84868318D01*
X50593628Y-84868318D01*
X50483675Y-84893408D01*
X50382057Y-84942341D01*
X50293878Y-85012656D01*
X50223562Y-85100826D01*
X50223558Y-85100831D01*
X50177661Y-85196130D01*
X50174620Y-85202445D01*
X50149520Y-85312396D01*
X50149520Y-98317417D01*
X50149512Y-98317452D01*
X50149511Y-98425180D01*
X40338021Y-98425180D01*
X40338020Y-98368788D01*
X40338020Y-98368288D01*
X40338020Y-85368689D01*
X40338020Y-85368688D01*
X40338020Y-85342096D01*
X40338011Y-85342054D01*
X40338011Y-85312397D01*
X40312913Y-85202440D01*
X40263977Y-85100826D01*
X40193658Y-85012648D01*
X40105481Y-84942327D01*
X40003866Y-84893389D01*
X39893912Y-84868289D01*
X39837619Y-84868288D01*
X26837421Y-84868288D01*
X26813767Y-84868288D01*
X26813605Y-84868318D01*
X26781128Y-84868318D01*
X26671175Y-84893408D01*
X26569557Y-84942341D01*
X26481378Y-85012656D01*
X26411062Y-85100826D01*
X26411058Y-85100831D01*
X26365161Y-85196130D01*
X26362120Y-85202445D01*
X26337020Y-85312396D01*
X26337020Y-98317417D01*
X26337012Y-98317452D01*
X26337011Y-98425180D01*
X23813020Y-98425180D01*
X23813020Y-79375180D01*
X26337011Y-79375180D01*
X26362107Y-79485143D01*
X26386366Y-79535517D01*
X26411043Y-79586760D01*
X26481365Y-79674941D01*
X26569547Y-79745261D01*
X26671166Y-79794196D01*
X26781126Y-79819290D01*
X26837520Y-79819288D01*
X26838020Y-79819288D01*
X39786127Y-79819288D01*
X39786297Y-79819321D01*
X39837520Y-79819320D01*
X39893915Y-79819318D01*
X40003875Y-79794216D01*
X40105492Y-79745275D01*
X40193672Y-79674949D01*
X40263992Y-79586765D01*
X40312926Y-79485144D01*
X40338021Y-79375182D01*
X40338021Y-79375180D01*
X50149511Y-79375180D01*
X50174607Y-79485143D01*
X50198866Y-79535517D01*
X50223543Y-79586760D01*
X50293865Y-79674941D01*
X50382047Y-79745261D01*
X50483666Y-79794196D01*
X50593626Y-79819290D01*
X50650020Y-79819288D01*
X50650520Y-79819288D01*
X63598627Y-79819288D01*
X63598797Y-79819321D01*
X63650020Y-79819320D01*
X63706415Y-79819318D01*
X63816375Y-79794216D01*
X63917992Y-79745275D01*
X64006172Y-79674949D01*
X64076492Y-79586765D01*
X64125426Y-79485144D01*
X64150521Y-79375182D01*
X64150521Y-79375180D01*
X69199511Y-79375180D01*
X69224607Y-79485143D01*
X69248866Y-79535517D01*
X69273543Y-79586760D01*
X69343865Y-79674941D01*
X69432047Y-79745261D01*
X69533666Y-79794196D01*
X69643626Y-79819290D01*
X69700020Y-79819288D01*
X69700520Y-79819288D01*
X82648627Y-79819288D01*
X82648797Y-79819321D01*
X82700020Y-79819320D01*
X82756415Y-79819318D01*
X82866375Y-79794216D01*
X82967992Y-79745275D01*
X83056172Y-79674949D01*
X83126492Y-79586765D01*
X83175426Y-79485144D01*
X83200521Y-79375182D01*
X83200521Y-79375180D01*
X88249511Y-79375180D01*
X88274607Y-79485143D01*
X88298866Y-79535517D01*
X88323543Y-79586760D01*
X88393865Y-79674941D01*
X88482047Y-79745261D01*
X88583666Y-79794196D01*
X88693626Y-79819290D01*
X88750020Y-79819288D01*
X88750520Y-79819288D01*
X101698627Y-79819288D01*
X101698797Y-79819321D01*
X101750020Y-79819320D01*
X101806415Y-79819318D01*
X101916375Y-79794216D01*
X102017992Y-79745275D01*
X102106172Y-79674949D01*
X102176492Y-79586765D01*
X102225426Y-79485144D01*
X102250521Y-79375182D01*
X102250521Y-79375180D01*
X107299511Y-79375180D01*
X107324607Y-79485143D01*
X107348866Y-79535517D01*
X107373543Y-79586760D01*
X107443865Y-79674941D01*
X107532047Y-79745261D01*
X107633666Y-79794196D01*
X107743626Y-79819290D01*
X107800020Y-79819288D01*
X107800520Y-79819288D01*
X120748627Y-79819288D01*
X120748797Y-79819321D01*
X120800020Y-79819320D01*
X120856415Y-79819318D01*
X120966375Y-79794216D01*
X121067992Y-79745275D01*
X121156172Y-79674949D01*
X121226492Y-79586765D01*
X121275426Y-79485144D01*
X121300521Y-79375182D01*
X121300521Y-79375180D01*
X126349511Y-79375180D01*
X126374607Y-79485143D01*
X126398866Y-79535517D01*
X126423543Y-79586760D01*
X126493865Y-79674941D01*
X126582047Y-79745261D01*
X126683666Y-79794196D01*
X126793626Y-79819290D01*
X126850020Y-79819288D01*
X126850520Y-79819288D01*
X139798627Y-79819288D01*
X139798797Y-79819321D01*
X139850020Y-79819320D01*
X139906415Y-79819318D01*
X140016375Y-79794216D01*
X140117992Y-79745275D01*
X140206172Y-79674949D01*
X140276492Y-79586765D01*
X140325426Y-79485144D01*
X140350521Y-79375182D01*
X140350521Y-79375180D01*
X145399511Y-79375180D01*
X145424607Y-79485143D01*
X145448866Y-79535517D01*
X145473543Y-79586760D01*
X145543865Y-79674941D01*
X145632047Y-79745261D01*
X145733666Y-79794196D01*
X145843626Y-79819290D01*
X145900020Y-79819288D01*
X145900520Y-79819288D01*
X158848627Y-79819288D01*
X158848797Y-79819321D01*
X158900020Y-79819320D01*
X158956415Y-79819318D01*
X159066375Y-79794216D01*
X159167992Y-79745275D01*
X159256172Y-79674949D01*
X159326492Y-79586765D01*
X159375426Y-79485144D01*
X159400521Y-79375182D01*
X159400521Y-79375180D01*
X164449511Y-79375180D01*
X164474607Y-79485143D01*
X164498866Y-79535517D01*
X164523543Y-79586760D01*
X164593865Y-79674941D01*
X164682047Y-79745261D01*
X164783666Y-79794196D01*
X164893626Y-79819290D01*
X164950020Y-79819288D01*
X164950520Y-79819288D01*
X177898627Y-79819288D01*
X177898797Y-79819321D01*
X177950020Y-79819320D01*
X178006415Y-79819318D01*
X178116375Y-79794216D01*
X178217992Y-79745275D01*
X178306172Y-79674949D01*
X178376492Y-79586765D01*
X178425426Y-79485144D01*
X178450521Y-79375182D01*
X178450521Y-79375180D01*
X183499511Y-79375180D01*
X183524607Y-79485143D01*
X183548866Y-79535517D01*
X183573543Y-79586760D01*
X183643865Y-79674941D01*
X183732047Y-79745261D01*
X183833666Y-79794196D01*
X183943626Y-79819290D01*
X184000020Y-79819288D01*
X184000520Y-79819288D01*
X196948627Y-79819288D01*
X196948797Y-79819321D01*
X197000020Y-79819320D01*
X197056415Y-79819318D01*
X197166375Y-79794216D01*
X197267992Y-79745275D01*
X197356172Y-79674949D01*
X197426492Y-79586765D01*
X197475426Y-79485144D01*
X197500521Y-79375182D01*
X197500521Y-79375180D01*
X202549511Y-79375180D01*
X202574607Y-79485143D01*
X202598866Y-79535517D01*
X202623543Y-79586760D01*
X202693865Y-79674941D01*
X202782047Y-79745261D01*
X202883666Y-79794196D01*
X202993626Y-79819290D01*
X203050020Y-79819288D01*
X203050520Y-79819288D01*
X215998627Y-79819288D01*
X215998797Y-79819321D01*
X216050020Y-79819320D01*
X216106415Y-79819318D01*
X216216375Y-79794216D01*
X216317992Y-79745275D01*
X216406172Y-79674949D01*
X216476492Y-79586765D01*
X216525426Y-79485144D01*
X216550521Y-79375182D01*
X216550521Y-79375180D01*
X221599511Y-79375180D01*
X221624607Y-79485143D01*
X221648866Y-79535517D01*
X221673543Y-79586760D01*
X221743865Y-79674941D01*
X221832047Y-79745261D01*
X221933666Y-79794196D01*
X222043626Y-79819290D01*
X222100020Y-79819288D01*
X222100520Y-79819288D01*
X235048627Y-79819288D01*
X235048797Y-79819321D01*
X235100020Y-79819320D01*
X235156415Y-79819318D01*
X235266375Y-79794216D01*
X235367992Y-79745275D01*
X235456172Y-79674949D01*
X235526492Y-79586765D01*
X235575426Y-79485144D01*
X235600521Y-79375182D01*
X235600521Y-79375180D01*
X240649511Y-79375180D01*
X240674607Y-79485143D01*
X240698866Y-79535517D01*
X240723543Y-79586760D01*
X240793865Y-79674941D01*
X240882047Y-79745261D01*
X240983666Y-79794196D01*
X241093626Y-79819290D01*
X241150020Y-79819288D01*
X241150520Y-79819288D01*
X254098627Y-79819288D01*
X254098797Y-79819321D01*
X254150020Y-79819320D01*
X254206415Y-79819318D01*
X254316375Y-79794216D01*
X254417992Y-79745275D01*
X254506172Y-79674949D01*
X254576492Y-79586765D01*
X254625426Y-79485144D01*
X254650521Y-79375182D01*
X254650521Y-79375180D01*
X259699511Y-79375180D01*
X259724607Y-79485143D01*
X259748866Y-79535517D01*
X259773543Y-79586760D01*
X259843865Y-79674941D01*
X259932047Y-79745261D01*
X260033666Y-79794196D01*
X260143626Y-79819290D01*
X260200020Y-79819288D01*
X260200520Y-79819288D01*
X273148627Y-79819288D01*
X273148797Y-79819321D01*
X273200020Y-79819320D01*
X273256415Y-79819318D01*
X273366375Y-79794216D01*
X273467992Y-79745275D01*
X273556172Y-79674949D01*
X273626492Y-79586765D01*
X273675426Y-79485144D01*
X273700521Y-79375182D01*
X273700520Y-79318788D01*
X273700520Y-79318288D01*
X273700520Y-66318689D01*
X273700520Y-66318688D01*
X273700520Y-66292096D01*
X273700511Y-66292054D01*
X273700511Y-66262397D01*
X273675413Y-66152440D01*
X273626477Y-66050826D01*
X273556158Y-65962648D01*
X273467981Y-65892327D01*
X273366366Y-65843389D01*
X273256412Y-65818289D01*
X273200119Y-65818288D01*
X260199921Y-65818288D01*
X260176267Y-65818288D01*
X260176105Y-65818318D01*
X260143628Y-65818318D01*
X260033675Y-65843408D01*
X259932057Y-65892341D01*
X259843878Y-65962656D01*
X259773562Y-66050826D01*
X259773558Y-66050831D01*
X259727661Y-66146130D01*
X259724620Y-66152445D01*
X259699520Y-66262396D01*
X259699520Y-79267417D01*
X259699512Y-79267452D01*
X259699511Y-79375180D01*
X254650521Y-79375180D01*
X254650520Y-79318788D01*
X254650520Y-79318288D01*
X254650520Y-66318689D01*
X254650520Y-66318688D01*
X254650520Y-66292096D01*
X254650511Y-66292054D01*
X254650511Y-66262397D01*
X254625413Y-66152440D01*
X254576477Y-66050826D01*
X254506158Y-65962648D01*
X254417981Y-65892327D01*
X254316366Y-65843389D01*
X254206412Y-65818289D01*
X254150119Y-65818288D01*
X241149921Y-65818288D01*
X241126267Y-65818288D01*
X241126105Y-65818318D01*
X241093628Y-65818318D01*
X240983675Y-65843408D01*
X240882057Y-65892341D01*
X240793878Y-65962656D01*
X240723562Y-66050826D01*
X240723558Y-66050831D01*
X240677661Y-66146130D01*
X240674620Y-66152445D01*
X240649520Y-66262396D01*
X240649520Y-79267417D01*
X240649512Y-79267452D01*
X240649511Y-79375180D01*
X235600521Y-79375180D01*
X235600520Y-79318788D01*
X235600520Y-79318288D01*
X235600520Y-66318689D01*
X235600520Y-66318688D01*
X235600520Y-66292096D01*
X235600511Y-66292054D01*
X235600511Y-66262397D01*
X235575413Y-66152440D01*
X235526477Y-66050826D01*
X235456158Y-65962648D01*
X235367981Y-65892327D01*
X235266366Y-65843389D01*
X235156412Y-65818289D01*
X235100119Y-65818288D01*
X222099921Y-65818288D01*
X222076267Y-65818288D01*
X222076105Y-65818318D01*
X222043628Y-65818318D01*
X221933675Y-65843408D01*
X221832057Y-65892341D01*
X221743878Y-65962656D01*
X221673562Y-66050826D01*
X221673558Y-66050831D01*
X221627661Y-66146130D01*
X221624620Y-66152445D01*
X221599520Y-66262396D01*
X221599520Y-79267417D01*
X221599512Y-79267452D01*
X221599511Y-79375180D01*
X216550521Y-79375180D01*
X216550520Y-79318788D01*
X216550520Y-79318288D01*
X216550520Y-66318689D01*
X216550520Y-66318688D01*
X216550520Y-66292096D01*
X216550511Y-66292054D01*
X216550511Y-66262397D01*
X216525413Y-66152440D01*
X216476477Y-66050826D01*
X216406158Y-65962648D01*
X216317981Y-65892327D01*
X216216366Y-65843389D01*
X216106412Y-65818289D01*
X216050119Y-65818288D01*
X203049921Y-65818288D01*
X203026267Y-65818288D01*
X203026105Y-65818318D01*
X202993628Y-65818318D01*
X202883675Y-65843408D01*
X202782057Y-65892341D01*
X202693878Y-65962656D01*
X202623562Y-66050826D01*
X202623558Y-66050831D01*
X202577661Y-66146130D01*
X202574620Y-66152445D01*
X202549520Y-66262396D01*
X202549520Y-79267417D01*
X202549512Y-79267452D01*
X202549511Y-79375180D01*
X197500521Y-79375180D01*
X197500520Y-79318788D01*
X197500520Y-79318288D01*
X197500520Y-66318689D01*
X197500520Y-66318688D01*
X197500520Y-66292096D01*
X197500511Y-66292054D01*
X197500511Y-66262397D01*
X197475413Y-66152440D01*
X197426477Y-66050826D01*
X197356158Y-65962648D01*
X197267981Y-65892327D01*
X197166366Y-65843389D01*
X197056412Y-65818289D01*
X197000119Y-65818288D01*
X183999921Y-65818288D01*
X183976267Y-65818288D01*
X183976105Y-65818318D01*
X183943628Y-65818318D01*
X183833675Y-65843408D01*
X183732057Y-65892341D01*
X183643878Y-65962656D01*
X183573562Y-66050826D01*
X183573558Y-66050831D01*
X183527661Y-66146130D01*
X183524620Y-66152445D01*
X183499520Y-66262396D01*
X183499520Y-79267417D01*
X183499512Y-79267452D01*
X183499511Y-79375180D01*
X178450521Y-79375180D01*
X178450520Y-79318788D01*
X178450520Y-79318288D01*
X178450520Y-66318689D01*
X178450520Y-66318688D01*
X178450520Y-66292096D01*
X178450511Y-66292054D01*
X178450511Y-66262397D01*
X178425413Y-66152440D01*
X178376477Y-66050826D01*
X178306158Y-65962648D01*
X178217981Y-65892327D01*
X178116366Y-65843389D01*
X178006412Y-65818289D01*
X177950119Y-65818288D01*
X164949921Y-65818288D01*
X164926267Y-65818288D01*
X164926105Y-65818318D01*
X164893628Y-65818318D01*
X164783675Y-65843408D01*
X164682057Y-65892341D01*
X164593878Y-65962656D01*
X164523562Y-66050826D01*
X164523558Y-66050831D01*
X164477661Y-66146130D01*
X164474620Y-66152445D01*
X164449520Y-66262396D01*
X164449520Y-79267417D01*
X164449512Y-79267452D01*
X164449511Y-79375180D01*
X159400521Y-79375180D01*
X159400520Y-79318788D01*
X159400520Y-79318288D01*
X159400520Y-66318689D01*
X159400520Y-66318688D01*
X159400520Y-66292096D01*
X159400511Y-66292054D01*
X159400511Y-66262397D01*
X159375413Y-66152440D01*
X159326477Y-66050826D01*
X159256158Y-65962648D01*
X159167981Y-65892327D01*
X159066366Y-65843389D01*
X158956412Y-65818289D01*
X158900119Y-65818288D01*
X145899921Y-65818288D01*
X145876267Y-65818288D01*
X145876105Y-65818318D01*
X145843628Y-65818318D01*
X145733675Y-65843408D01*
X145632057Y-65892341D01*
X145543878Y-65962656D01*
X145473562Y-66050826D01*
X145473558Y-66050831D01*
X145427661Y-66146130D01*
X145424620Y-66152445D01*
X145399520Y-66262396D01*
X145399520Y-79267417D01*
X145399512Y-79267452D01*
X145399511Y-79375180D01*
X140350521Y-79375180D01*
X140350520Y-79318788D01*
X140350520Y-79318288D01*
X140350520Y-66318689D01*
X140350520Y-66318688D01*
X140350520Y-66292096D01*
X140350511Y-66292054D01*
X140350511Y-66262397D01*
X140325413Y-66152440D01*
X140276477Y-66050826D01*
X140206158Y-65962648D01*
X140117981Y-65892327D01*
X140016366Y-65843389D01*
X139906412Y-65818289D01*
X139850119Y-65818288D01*
X126849921Y-65818288D01*
X126826267Y-65818288D01*
X126826105Y-65818318D01*
X126793628Y-65818318D01*
X126683675Y-65843408D01*
X126582057Y-65892341D01*
X126493878Y-65962656D01*
X126423562Y-66050826D01*
X126423558Y-66050831D01*
X126377661Y-66146130D01*
X126374620Y-66152445D01*
X126349520Y-66262396D01*
X126349520Y-79267417D01*
X126349512Y-79267452D01*
X126349511Y-79375180D01*
X121300521Y-79375180D01*
X121300520Y-79318788D01*
X121300520Y-79318288D01*
X121300520Y-66318689D01*
X121300520Y-66318688D01*
X121300520Y-66292096D01*
X121300511Y-66292054D01*
X121300511Y-66262397D01*
X121275413Y-66152440D01*
X121226477Y-66050826D01*
X121156158Y-65962648D01*
X121067981Y-65892327D01*
X120966366Y-65843389D01*
X120856412Y-65818289D01*
X120800119Y-65818288D01*
X107799921Y-65818288D01*
X107776267Y-65818288D01*
X107776105Y-65818318D01*
X107743628Y-65818318D01*
X107633675Y-65843408D01*
X107532057Y-65892341D01*
X107443878Y-65962656D01*
X107373562Y-66050826D01*
X107373558Y-66050831D01*
X107327661Y-66146130D01*
X107324620Y-66152445D01*
X107299520Y-66262396D01*
X107299520Y-79267417D01*
X107299512Y-79267452D01*
X107299511Y-79375180D01*
X102250521Y-79375180D01*
X102250520Y-79318788D01*
X102250520Y-79318288D01*
X102250520Y-66318689D01*
X102250520Y-66318688D01*
X102250520Y-66292096D01*
X102250511Y-66292054D01*
X102250511Y-66262397D01*
X102225413Y-66152440D01*
X102176477Y-66050826D01*
X102106158Y-65962648D01*
X102017981Y-65892327D01*
X101916366Y-65843389D01*
X101806412Y-65818289D01*
X101750119Y-65818288D01*
X88749921Y-65818288D01*
X88726267Y-65818288D01*
X88726105Y-65818318D01*
X88693628Y-65818318D01*
X88583675Y-65843408D01*
X88482057Y-65892341D01*
X88393878Y-65962656D01*
X88323562Y-66050826D01*
X88323558Y-66050831D01*
X88277661Y-66146130D01*
X88274620Y-66152445D01*
X88249520Y-66262396D01*
X88249520Y-79267417D01*
X88249512Y-79267452D01*
X88249511Y-79375180D01*
X83200521Y-79375180D01*
X83200520Y-79318788D01*
X83200520Y-79318288D01*
X83200520Y-66318689D01*
X83200520Y-66318688D01*
X83200520Y-66292096D01*
X83200511Y-66292054D01*
X83200511Y-66262397D01*
X83175413Y-66152440D01*
X83175412Y-66152439D01*
X83126477Y-66050826D01*
X83056158Y-65962648D01*
X82967981Y-65892327D01*
X82866366Y-65843389D01*
X82756412Y-65818289D01*
X82700119Y-65818288D01*
X69699921Y-65818288D01*
X69676267Y-65818288D01*
X69676105Y-65818318D01*
X69643628Y-65818318D01*
X69533675Y-65843408D01*
X69432057Y-65892341D01*
X69343878Y-65962656D01*
X69273562Y-66050826D01*
X69273558Y-66050831D01*
X69227661Y-66146130D01*
X69224620Y-66152445D01*
X69199520Y-66262396D01*
X69199520Y-79267417D01*
X69199512Y-79267452D01*
X69199511Y-79375180D01*
X64150521Y-79375180D01*
X64150520Y-79318788D01*
X64150520Y-79318288D01*
X64150520Y-66318689D01*
X64150520Y-66318688D01*
X64150520Y-66292096D01*
X64150511Y-66292054D01*
X64150511Y-66262397D01*
X64125413Y-66152440D01*
X64076477Y-66050826D01*
X64006158Y-65962648D01*
X63917981Y-65892327D01*
X63816366Y-65843389D01*
X63706412Y-65818289D01*
X63650119Y-65818288D01*
X50649921Y-65818288D01*
X50626267Y-65818288D01*
X50626105Y-65818318D01*
X50593628Y-65818318D01*
X50483675Y-65843408D01*
X50382057Y-65892341D01*
X50293878Y-65962656D01*
X50223562Y-66050826D01*
X50223558Y-66050831D01*
X50177661Y-66146130D01*
X50174620Y-66152445D01*
X50149520Y-66262396D01*
X50149520Y-79267417D01*
X50149512Y-79267452D01*
X50149511Y-79375180D01*
X40338021Y-79375180D01*
X40338020Y-79318788D01*
X40338020Y-79318288D01*
X40338020Y-66318689D01*
X40338020Y-66318688D01*
X40338020Y-66292096D01*
X40338011Y-66292054D01*
X40338011Y-66262397D01*
X40312913Y-66152440D01*
X40263977Y-66050826D01*
X40193658Y-65962648D01*
X40105481Y-65892327D01*
X40003866Y-65843389D01*
X39893912Y-65818289D01*
X39837619Y-65818288D01*
X26837421Y-65818288D01*
X26813767Y-65818288D01*
X26813605Y-65818318D01*
X26781128Y-65818318D01*
X26671175Y-65843408D01*
X26569557Y-65892341D01*
X26481378Y-65962656D01*
X26411062Y-66050826D01*
X26411058Y-66050831D01*
X26365161Y-66146130D01*
X26362120Y-66152445D01*
X26337020Y-66262396D01*
X26337020Y-79267417D01*
X26337012Y-79267452D01*
X26337011Y-79375180D01*
X23813020Y-79375180D01*
X23813020Y-60325180D01*
X26337011Y-60325180D01*
X26362107Y-60435143D01*
X26386366Y-60485517D01*
X26411043Y-60536760D01*
X26481365Y-60624941D01*
X26569547Y-60695261D01*
X26671166Y-60744196D01*
X26781126Y-60769290D01*
X26837520Y-60769288D01*
X26838020Y-60769288D01*
X39786127Y-60769288D01*
X39786297Y-60769321D01*
X39837520Y-60769320D01*
X39893915Y-60769318D01*
X40003875Y-60744216D01*
X40105492Y-60695275D01*
X40193672Y-60624949D01*
X40263992Y-60536765D01*
X40312926Y-60435144D01*
X40338021Y-60325182D01*
X40338021Y-60325180D01*
X50149511Y-60325180D01*
X50174607Y-60435143D01*
X50198866Y-60485517D01*
X50223543Y-60536760D01*
X50293865Y-60624941D01*
X50382047Y-60695261D01*
X50483666Y-60744196D01*
X50593626Y-60769290D01*
X50650020Y-60769288D01*
X50650520Y-60769288D01*
X63598627Y-60769288D01*
X63598797Y-60769321D01*
X63650020Y-60769320D01*
X63706415Y-60769318D01*
X63816375Y-60744216D01*
X63917992Y-60695275D01*
X64006172Y-60624949D01*
X64076492Y-60536765D01*
X64125426Y-60435144D01*
X64150521Y-60325182D01*
X64150521Y-60325180D01*
X69199511Y-60325180D01*
X69224607Y-60435143D01*
X69248866Y-60485517D01*
X69273543Y-60536760D01*
X69343865Y-60624941D01*
X69432047Y-60695261D01*
X69533666Y-60744196D01*
X69643626Y-60769290D01*
X69700020Y-60769288D01*
X69700520Y-60769288D01*
X82648627Y-60769288D01*
X82648797Y-60769321D01*
X82700020Y-60769320D01*
X82756415Y-60769318D01*
X82866375Y-60744216D01*
X82967992Y-60695275D01*
X83056172Y-60624949D01*
X83126492Y-60536765D01*
X83175426Y-60435144D01*
X83200521Y-60325182D01*
X83200521Y-60325180D01*
X88249511Y-60325180D01*
X88274607Y-60435143D01*
X88298866Y-60485517D01*
X88323543Y-60536760D01*
X88393865Y-60624941D01*
X88482047Y-60695261D01*
X88583666Y-60744196D01*
X88693626Y-60769290D01*
X88750020Y-60769288D01*
X88750520Y-60769288D01*
X101698627Y-60769288D01*
X101698797Y-60769321D01*
X101750020Y-60769320D01*
X101806415Y-60769318D01*
X101916375Y-60744216D01*
X102017992Y-60695275D01*
X102106172Y-60624949D01*
X102176492Y-60536765D01*
X102225426Y-60435144D01*
X102250521Y-60325182D01*
X102250521Y-60325180D01*
X107299511Y-60325180D01*
X107324607Y-60435143D01*
X107348866Y-60485517D01*
X107373543Y-60536760D01*
X107443865Y-60624941D01*
X107532047Y-60695261D01*
X107633666Y-60744196D01*
X107743626Y-60769290D01*
X107800020Y-60769288D01*
X107800520Y-60769288D01*
X120748627Y-60769288D01*
X120748797Y-60769321D01*
X120800020Y-60769320D01*
X120856415Y-60769318D01*
X120966375Y-60744216D01*
X121067992Y-60695275D01*
X121156172Y-60624949D01*
X121226492Y-60536765D01*
X121275426Y-60435144D01*
X121300521Y-60325182D01*
X121300521Y-60325180D01*
X126349511Y-60325180D01*
X126374607Y-60435143D01*
X126398866Y-60485517D01*
X126423543Y-60536760D01*
X126493865Y-60624941D01*
X126582047Y-60695261D01*
X126683666Y-60744196D01*
X126793626Y-60769290D01*
X126850020Y-60769288D01*
X126850520Y-60769288D01*
X139798627Y-60769288D01*
X139798797Y-60769321D01*
X139850020Y-60769320D01*
X139906415Y-60769318D01*
X140016375Y-60744216D01*
X140117992Y-60695275D01*
X140206172Y-60624949D01*
X140276492Y-60536765D01*
X140325426Y-60435144D01*
X140350521Y-60325182D01*
X140350521Y-60325180D01*
X145399511Y-60325180D01*
X145424607Y-60435143D01*
X145448866Y-60485517D01*
X145473543Y-60536760D01*
X145543865Y-60624941D01*
X145632047Y-60695261D01*
X145733666Y-60744196D01*
X145843626Y-60769290D01*
X145900020Y-60769288D01*
X145900520Y-60769288D01*
X158848627Y-60769288D01*
X158848797Y-60769321D01*
X158900020Y-60769320D01*
X158956415Y-60769318D01*
X159066375Y-60744216D01*
X159167992Y-60695275D01*
X159256172Y-60624949D01*
X159326492Y-60536765D01*
X159375426Y-60435144D01*
X159400521Y-60325182D01*
X159400521Y-60325180D01*
X164449511Y-60325180D01*
X164474607Y-60435143D01*
X164498866Y-60485517D01*
X164523543Y-60536760D01*
X164593865Y-60624941D01*
X164682047Y-60695261D01*
X164783666Y-60744196D01*
X164893626Y-60769290D01*
X164950020Y-60769288D01*
X164950520Y-60769288D01*
X177898627Y-60769288D01*
X177898797Y-60769321D01*
X177950020Y-60769320D01*
X178006415Y-60769318D01*
X178116375Y-60744216D01*
X178217992Y-60695275D01*
X178306172Y-60624949D01*
X178376492Y-60536765D01*
X178425426Y-60435144D01*
X178450521Y-60325182D01*
X178450521Y-60325180D01*
X183499511Y-60325180D01*
X183524607Y-60435143D01*
X183548866Y-60485517D01*
X183573543Y-60536760D01*
X183643865Y-60624941D01*
X183732047Y-60695261D01*
X183833666Y-60744196D01*
X183943626Y-60769290D01*
X184000020Y-60769288D01*
X184000520Y-60769288D01*
X196948627Y-60769288D01*
X196948797Y-60769321D01*
X197000020Y-60769320D01*
X197056415Y-60769318D01*
X197166375Y-60744216D01*
X197267992Y-60695275D01*
X197356172Y-60624949D01*
X197426492Y-60536765D01*
X197475426Y-60435144D01*
X197500521Y-60325182D01*
X197500521Y-60325180D01*
X202549511Y-60325180D01*
X202574607Y-60435143D01*
X202598866Y-60485517D01*
X202623543Y-60536760D01*
X202693865Y-60624941D01*
X202782047Y-60695261D01*
X202883666Y-60744196D01*
X202993626Y-60769290D01*
X203050020Y-60769288D01*
X203050520Y-60769288D01*
X215998627Y-60769288D01*
X215998797Y-60769321D01*
X216050020Y-60769320D01*
X216106415Y-60769318D01*
X216216375Y-60744216D01*
X216317992Y-60695275D01*
X216406172Y-60624949D01*
X216476492Y-60536765D01*
X216525426Y-60435144D01*
X216550521Y-60325182D01*
X216550521Y-60325180D01*
X221599511Y-60325180D01*
X221624607Y-60435143D01*
X221648866Y-60485517D01*
X221673543Y-60536760D01*
X221743865Y-60624941D01*
X221832047Y-60695261D01*
X221933666Y-60744196D01*
X222043626Y-60769290D01*
X222100020Y-60769288D01*
X222100520Y-60769288D01*
X235048627Y-60769288D01*
X235048797Y-60769321D01*
X235100020Y-60769320D01*
X235156415Y-60769318D01*
X235266375Y-60744216D01*
X235367992Y-60695275D01*
X235456172Y-60624949D01*
X235526492Y-60536765D01*
X235575426Y-60435144D01*
X235600521Y-60325182D01*
X235600521Y-60325180D01*
X240649511Y-60325180D01*
X240674607Y-60435143D01*
X240698866Y-60485517D01*
X240723543Y-60536760D01*
X240793865Y-60624941D01*
X240882047Y-60695261D01*
X240983666Y-60744196D01*
X241093626Y-60769290D01*
X241150020Y-60769288D01*
X241150520Y-60769288D01*
X254098627Y-60769288D01*
X254098797Y-60769321D01*
X254150020Y-60769320D01*
X254206415Y-60769318D01*
X254316375Y-60744216D01*
X254417992Y-60695275D01*
X254506172Y-60624949D01*
X254576492Y-60536765D01*
X254625426Y-60435144D01*
X254650521Y-60325182D01*
X254650521Y-60325180D01*
X259699511Y-60325180D01*
X259724607Y-60435143D01*
X259748866Y-60485517D01*
X259773543Y-60536760D01*
X259843865Y-60624941D01*
X259932047Y-60695261D01*
X260033666Y-60744196D01*
X260143626Y-60769290D01*
X260200020Y-60769288D01*
X260200520Y-60769288D01*
X273148627Y-60769288D01*
X273148797Y-60769321D01*
X273200020Y-60769320D01*
X273256415Y-60769318D01*
X273366375Y-60744216D01*
X273467992Y-60695275D01*
X273556172Y-60624949D01*
X273626492Y-60536765D01*
X273675426Y-60435144D01*
X273700521Y-60325182D01*
X273700520Y-60268788D01*
X273700520Y-60268288D01*
X273700520Y-47268689D01*
X273700520Y-47268688D01*
X273700520Y-47242096D01*
X273700511Y-47242054D01*
X273700511Y-47212397D01*
X273675413Y-47102440D01*
X273675412Y-47102439D01*
X273626477Y-47000826D01*
X273556158Y-46912648D01*
X273467981Y-46842327D01*
X273467980Y-46842326D01*
X273366366Y-46793389D01*
X273256412Y-46768289D01*
X273200119Y-46768288D01*
X260199921Y-46768288D01*
X260176267Y-46768288D01*
X260176105Y-46768318D01*
X260143628Y-46768318D01*
X260033675Y-46793408D01*
X259932057Y-46842341D01*
X259843878Y-46912656D01*
X259773562Y-47000826D01*
X259773558Y-47000831D01*
X259727661Y-47096130D01*
X259724620Y-47102445D01*
X259699520Y-47212396D01*
X259699520Y-60217417D01*
X259699512Y-60217452D01*
X259699511Y-60325180D01*
X254650521Y-60325180D01*
X254650520Y-60268788D01*
X254650520Y-60268288D01*
X254650520Y-47268689D01*
X254650520Y-47268688D01*
X254650520Y-47242096D01*
X254650511Y-47242054D01*
X254650511Y-47212397D01*
X254625413Y-47102440D01*
X254625412Y-47102439D01*
X254576477Y-47000826D01*
X254506158Y-46912648D01*
X254417981Y-46842327D01*
X254417980Y-46842326D01*
X254316366Y-46793389D01*
X254206412Y-46768289D01*
X254150119Y-46768288D01*
X241149921Y-46768288D01*
X241126267Y-46768288D01*
X241126105Y-46768318D01*
X241093628Y-46768318D01*
X240983675Y-46793408D01*
X240882057Y-46842341D01*
X240793878Y-46912656D01*
X240723562Y-47000826D01*
X240723558Y-47000831D01*
X240677661Y-47096130D01*
X240674620Y-47102445D01*
X240649520Y-47212396D01*
X240649520Y-60217417D01*
X240649512Y-60217452D01*
X240649511Y-60325180D01*
X235600521Y-60325180D01*
X235600520Y-60268788D01*
X235600520Y-60268288D01*
X235600520Y-47268689D01*
X235600520Y-47268688D01*
X235600520Y-47242096D01*
X235600511Y-47242054D01*
X235600511Y-47212397D01*
X235575413Y-47102440D01*
X235575412Y-47102439D01*
X235526477Y-47000826D01*
X235456158Y-46912648D01*
X235367981Y-46842327D01*
X235367980Y-46842326D01*
X235266366Y-46793389D01*
X235156412Y-46768289D01*
X235100119Y-46768288D01*
X222099921Y-46768288D01*
X222076267Y-46768288D01*
X222076105Y-46768318D01*
X222043628Y-46768318D01*
X221933675Y-46793408D01*
X221832057Y-46842341D01*
X221743878Y-46912656D01*
X221673562Y-47000826D01*
X221673558Y-47000831D01*
X221627661Y-47096130D01*
X221624620Y-47102445D01*
X221599520Y-47212396D01*
X221599520Y-60217417D01*
X221599512Y-60217452D01*
X221599511Y-60325180D01*
X216550521Y-60325180D01*
X216550520Y-60268788D01*
X216550520Y-60268288D01*
X216550520Y-47268689D01*
X216550520Y-47268688D01*
X216550520Y-47242096D01*
X216550511Y-47242054D01*
X216550511Y-47212397D01*
X216525413Y-47102440D01*
X216525412Y-47102439D01*
X216476477Y-47000826D01*
X216406158Y-46912648D01*
X216317981Y-46842327D01*
X216317980Y-46842326D01*
X216216366Y-46793389D01*
X216106412Y-46768289D01*
X216050119Y-46768288D01*
X203049921Y-46768288D01*
X203026267Y-46768288D01*
X203026105Y-46768318D01*
X202993628Y-46768318D01*
X202883675Y-46793408D01*
X202782057Y-46842341D01*
X202693878Y-46912656D01*
X202623562Y-47000826D01*
X202623558Y-47000831D01*
X202577661Y-47096130D01*
X202574620Y-47102445D01*
X202549520Y-47212396D01*
X202549520Y-60217417D01*
X202549512Y-60217452D01*
X202549511Y-60325180D01*
X197500521Y-60325180D01*
X197500520Y-60268788D01*
X197500520Y-60268288D01*
X197500520Y-47268689D01*
X197500520Y-47268688D01*
X197500520Y-47242096D01*
X197500511Y-47242054D01*
X197500511Y-47212397D01*
X197475413Y-47102440D01*
X197475412Y-47102439D01*
X197426477Y-47000826D01*
X197356158Y-46912648D01*
X197267981Y-46842327D01*
X197267980Y-46842326D01*
X197166366Y-46793389D01*
X197056412Y-46768289D01*
X197000119Y-46768288D01*
X183999921Y-46768288D01*
X183976267Y-46768288D01*
X183976105Y-46768318D01*
X183943628Y-46768318D01*
X183833675Y-46793408D01*
X183732057Y-46842341D01*
X183643878Y-46912656D01*
X183573562Y-47000826D01*
X183573558Y-47000831D01*
X183527661Y-47096130D01*
X183524620Y-47102445D01*
X183499520Y-47212396D01*
X183499520Y-60217417D01*
X183499512Y-60217452D01*
X183499511Y-60325180D01*
X178450521Y-60325180D01*
X178450520Y-60268788D01*
X178450520Y-60268288D01*
X178450520Y-47268689D01*
X178450520Y-47268688D01*
X178450520Y-47242096D01*
X178450511Y-47242054D01*
X178450511Y-47212397D01*
X178425413Y-47102440D01*
X178425412Y-47102439D01*
X178376477Y-47000826D01*
X178306158Y-46912648D01*
X178217981Y-46842327D01*
X178217980Y-46842326D01*
X178116366Y-46793389D01*
X178006412Y-46768289D01*
X177950119Y-46768288D01*
X164949921Y-46768288D01*
X164926267Y-46768288D01*
X164926105Y-46768318D01*
X164893628Y-46768318D01*
X164783675Y-46793408D01*
X164682057Y-46842341D01*
X164593878Y-46912656D01*
X164523562Y-47000826D01*
X164523558Y-47000831D01*
X164477661Y-47096130D01*
X164474620Y-47102445D01*
X164449520Y-47212396D01*
X164449520Y-60217417D01*
X164449512Y-60217452D01*
X164449511Y-60325180D01*
X159400521Y-60325180D01*
X159400520Y-60268788D01*
X159400520Y-60268288D01*
X159400520Y-47268689D01*
X159400520Y-47268688D01*
X159400520Y-47242096D01*
X159400511Y-47242054D01*
X159400511Y-47212397D01*
X159375413Y-47102440D01*
X159375412Y-47102439D01*
X159326477Y-47000826D01*
X159256158Y-46912648D01*
X159167981Y-46842327D01*
X159167980Y-46842326D01*
X159066366Y-46793389D01*
X158956412Y-46768289D01*
X158900119Y-46768288D01*
X145899921Y-46768288D01*
X145876267Y-46768288D01*
X145876105Y-46768318D01*
X145843628Y-46768318D01*
X145733675Y-46793408D01*
X145632057Y-46842341D01*
X145543878Y-46912656D01*
X145473562Y-47000826D01*
X145473558Y-47000831D01*
X145427661Y-47096130D01*
X145424620Y-47102445D01*
X145399520Y-47212396D01*
X145399520Y-60217417D01*
X145399512Y-60217452D01*
X145399511Y-60325180D01*
X140350521Y-60325180D01*
X140350520Y-60268788D01*
X140350520Y-60268288D01*
X140350520Y-47268689D01*
X140350520Y-47268688D01*
X140350520Y-47242096D01*
X140350511Y-47242054D01*
X140350511Y-47212397D01*
X140325413Y-47102440D01*
X140325412Y-47102439D01*
X140276477Y-47000826D01*
X140206158Y-46912648D01*
X140117981Y-46842327D01*
X140117980Y-46842326D01*
X140016366Y-46793389D01*
X139906412Y-46768289D01*
X139850119Y-46768288D01*
X126849921Y-46768288D01*
X126826267Y-46768288D01*
X126826105Y-46768318D01*
X126793628Y-46768318D01*
X126683675Y-46793408D01*
X126582057Y-46842341D01*
X126493878Y-46912656D01*
X126423562Y-47000826D01*
X126423558Y-47000831D01*
X126377661Y-47096130D01*
X126374620Y-47102445D01*
X126349520Y-47212396D01*
X126349520Y-60217417D01*
X126349512Y-60217452D01*
X126349511Y-60325180D01*
X121300521Y-60325180D01*
X121300520Y-60268788D01*
X121300520Y-60268288D01*
X121300520Y-47268689D01*
X121300520Y-47268688D01*
X121300520Y-47242096D01*
X121300511Y-47242054D01*
X121300511Y-47212397D01*
X121275413Y-47102440D01*
X121275412Y-47102439D01*
X121226477Y-47000826D01*
X121156158Y-46912648D01*
X121067981Y-46842327D01*
X121067980Y-46842326D01*
X120966366Y-46793389D01*
X120856412Y-46768289D01*
X120800119Y-46768288D01*
X107799921Y-46768288D01*
X107776267Y-46768288D01*
X107776105Y-46768318D01*
X107743628Y-46768318D01*
X107633675Y-46793408D01*
X107532057Y-46842341D01*
X107443878Y-46912656D01*
X107373562Y-47000826D01*
X107373558Y-47000831D01*
X107327661Y-47096130D01*
X107324620Y-47102445D01*
X107299520Y-47212396D01*
X107299520Y-60217417D01*
X107299512Y-60217452D01*
X107299511Y-60325180D01*
X102250521Y-60325180D01*
X102250520Y-60268788D01*
X102250520Y-60268288D01*
X102250520Y-47268689D01*
X102250520Y-47268688D01*
X102250520Y-47242096D01*
X102250511Y-47242054D01*
X102250511Y-47212397D01*
X102225413Y-47102440D01*
X102225412Y-47102439D01*
X102176477Y-47000826D01*
X102106158Y-46912648D01*
X102017981Y-46842327D01*
X102017980Y-46842326D01*
X101916366Y-46793389D01*
X101806412Y-46768289D01*
X101750119Y-46768288D01*
X88749921Y-46768288D01*
X88726267Y-46768288D01*
X88726105Y-46768318D01*
X88693628Y-46768318D01*
X88583675Y-46793408D01*
X88482057Y-46842341D01*
X88393878Y-46912656D01*
X88323562Y-47000826D01*
X88323558Y-47000831D01*
X88277661Y-47096130D01*
X88274620Y-47102445D01*
X88249520Y-47212396D01*
X88249520Y-60217417D01*
X88249512Y-60217452D01*
X88249511Y-60325180D01*
X83200521Y-60325180D01*
X83200520Y-60268788D01*
X83200520Y-60268288D01*
X83200520Y-47268689D01*
X83200520Y-47268688D01*
X83200520Y-47242096D01*
X83200511Y-47242054D01*
X83200511Y-47212397D01*
X83175413Y-47102440D01*
X83126477Y-47000826D01*
X83056158Y-46912648D01*
X82967981Y-46842327D01*
X82967980Y-46842326D01*
X82866366Y-46793389D01*
X82756412Y-46768289D01*
X82700119Y-46768288D01*
X69699921Y-46768288D01*
X69676267Y-46768288D01*
X69676105Y-46768318D01*
X69643628Y-46768318D01*
X69533675Y-46793408D01*
X69432057Y-46842341D01*
X69343878Y-46912656D01*
X69273562Y-47000826D01*
X69273558Y-47000831D01*
X69227661Y-47096130D01*
X69224620Y-47102445D01*
X69199520Y-47212396D01*
X69199520Y-60217417D01*
X69199512Y-60217452D01*
X69199511Y-60325180D01*
X64150521Y-60325180D01*
X64150520Y-60268788D01*
X64150520Y-60268288D01*
X64150520Y-47268689D01*
X64150520Y-47268688D01*
X64150520Y-47242096D01*
X64150511Y-47242054D01*
X64150511Y-47212397D01*
X64125413Y-47102440D01*
X64076477Y-47000826D01*
X64006158Y-46912648D01*
X63917981Y-46842327D01*
X63917980Y-46842326D01*
X63816366Y-46793389D01*
X63706412Y-46768289D01*
X63650119Y-46768288D01*
X50649921Y-46768288D01*
X50626267Y-46768288D01*
X50626105Y-46768318D01*
X50593628Y-46768318D01*
X50483675Y-46793408D01*
X50382057Y-46842341D01*
X50293878Y-46912656D01*
X50223562Y-47000826D01*
X50223558Y-47000831D01*
X50177661Y-47096130D01*
X50174620Y-47102445D01*
X50149520Y-47212396D01*
X50149520Y-60217417D01*
X50149512Y-60217452D01*
X50149511Y-60325180D01*
X40338021Y-60325180D01*
X40338020Y-60268788D01*
X40338020Y-60268288D01*
X40338020Y-47268689D01*
X40338020Y-47268688D01*
X40338020Y-47242096D01*
X40338011Y-47242054D01*
X40338011Y-47212397D01*
X40312913Y-47102440D01*
X40263977Y-47000826D01*
X40193658Y-46912648D01*
X40105481Y-46842327D01*
X40105480Y-46842326D01*
X40003866Y-46793389D01*
X39893912Y-46768289D01*
X39837619Y-46768288D01*
X26837421Y-46768288D01*
X26813767Y-46768288D01*
X26813605Y-46768318D01*
X26781128Y-46768318D01*
X26671175Y-46793408D01*
X26569557Y-46842341D01*
X26481378Y-46912656D01*
X26411062Y-47000826D01*
X26411058Y-47000831D01*
X26365161Y-47096130D01*
X26362120Y-47102445D01*
X26337020Y-47212396D01*
X26337020Y-60217417D01*
X26337012Y-60217452D01*
X26337011Y-60325180D01*
X23813020Y-60325180D01*
X23813020Y-45249202D01*
X23813492Y-45238393D01*
X23816945Y-45198933D01*
X23817070Y-45197588D01*
X23829436Y-45072037D01*
X23833061Y-45052111D01*
X23850457Y-44987194D01*
X23851503Y-44983527D01*
X23879193Y-44892246D01*
X23885455Y-44875880D01*
X23916286Y-44809766D01*
X23919257Y-44803823D01*
X23961499Y-44724793D01*
X23969267Y-44712150D01*
X24012247Y-44650770D01*
X24017954Y-44643250D01*
X24017960Y-44643243D01*
X24073622Y-44575419D01*
X24081747Y-44566452D01*
X24135188Y-44513012D01*
X24144157Y-44504883D01*
X24211947Y-44449250D01*
X24219422Y-44443579D01*
X24280946Y-44400501D01*
X24293603Y-44392725D01*
X24372294Y-44350664D01*
X24378304Y-44347660D01*
X24444717Y-44316693D01*
X24461106Y-44310422D01*
X24551571Y-44282980D01*
X24555301Y-44281915D01*
X24621004Y-44264312D01*
X24640905Y-44260690D01*
X24763778Y-44248588D01*
X24764677Y-44248504D01*
X24807506Y-44244758D01*
X24818298Y-44244288D01*
X66647135Y-44244288D01*
X66647278Y-44244316D01*
X66647279Y-44244312D01*
X66671892Y-44244327D01*
X66671895Y-44244329D01*
X66672278Y-44244171D01*
X66672395Y-44243887D01*
X66672436Y-44243788D01*
X66672436Y-44219234D01*
X66672395Y-44219028D01*
X66672395Y-43268548D01*
X66672423Y-43268404D01*
X66672419Y-43268404D01*
X66672436Y-43243786D01*
X66672278Y-43243404D01*
X66672277Y-43243403D01*
X66671896Y-43243246D01*
X66647321Y-43243280D01*
X66647320Y-43243250D01*
X66647135Y-43243288D01*
X42677311Y-43243288D01*
X42666501Y-43242816D01*
X42663433Y-43242547D01*
X42627116Y-43239369D01*
X42625774Y-43239244D01*
X42500138Y-43226870D01*
X42480199Y-43223242D01*
X42415476Y-43205900D01*
X42411588Y-43204790D01*
X42320353Y-43177114D01*
X42303948Y-43170837D01*
X42281639Y-43160434D01*
X42237979Y-43140074D01*
X42231934Y-43137051D01*
X42152889Y-43094801D01*
X42140219Y-43087018D01*
X42078947Y-43044115D01*
X42071406Y-43038394D01*
X42003486Y-42982653D01*
X41994479Y-42974490D01*
X41967826Y-42947837D01*
X41941190Y-42921200D01*
X41933020Y-42912186D01*
X41877295Y-42844284D01*
X41871599Y-42836777D01*
X41828644Y-42775429D01*
X41820866Y-42762766D01*
X41778687Y-42683854D01*
X41775663Y-42677805D01*
X41775551Y-42677565D01*
X41744823Y-42611667D01*
X41738552Y-42595277D01*
X41711005Y-42504464D01*
X41709891Y-42500563D01*
X41709758Y-42500066D01*
X41692429Y-42435391D01*
X41688804Y-42415470D01*
X41676556Y-42291116D01*
X41676488Y-42290386D01*
X41672865Y-42248973D01*
X41672395Y-42238181D01*
X41672395Y-40499200D01*
X41672867Y-40488395D01*
X41673337Y-40483012D01*
X41676326Y-40448857D01*
X41676420Y-40447843D01*
X41688812Y-40322029D01*
X41692437Y-40302103D01*
X41709806Y-40237282D01*
X41710890Y-40233489D01*
X41738570Y-40142239D01*
X41744836Y-40125861D01*
X41775627Y-40059831D01*
X41778624Y-40053837D01*
X41820887Y-39974769D01*
X41828653Y-39962126D01*
X41871586Y-39900813D01*
X41877274Y-39893316D01*
X41933046Y-39825358D01*
X41941174Y-39816390D01*
X41994504Y-39763061D01*
X42003462Y-39754941D01*
X42071420Y-39699169D01*
X42078897Y-39693497D01*
X42140254Y-39650534D01*
X42152878Y-39642779D01*
X42231929Y-39600525D01*
X42237860Y-39597560D01*
X42303997Y-39566720D01*
X42320366Y-39560457D01*
X42411474Y-39532820D01*
X42415215Y-39531752D01*
X42480251Y-39514325D01*
X42500164Y-39510702D01*
X42625532Y-39498354D01*
X42626045Y-39498306D01*
X42666596Y-39494758D01*
X42677388Y-39494288D01*
X100666485Y-39494288D01*
X100677290Y-39494760D01*
G37*
%TD.AperFunction*%
%TD*%
M02*
