%TF.GenerationSoftware,KiCad,Pcbnew,7.0.1-0*%
%TF.CreationDate,2023-08-03T16:04:49-05:00*%
%TF.ProjectId,plate,706c6174-652e-46b6-9963-61645f706362,rev?*%
%TF.SameCoordinates,Original*%
%TF.FileFunction,Profile,NP*%
%FSLAX46Y46*%
G04 Gerber Fmt 4.6, Leading zero omitted, Abs format (unit mm)*
G04 Created by KiCad (PCBNEW 7.0.1-0) date 2023-08-03 16:04:49*
%MOMM*%
%LPD*%
G01*
G04 APERTURE LIST*
%TA.AperFunction,Profile*%
%ADD10C,0.200000*%
%TD*%
G04 APERTURE END LIST*
D10*
X145900020Y-98868788D02*
X158900020Y-98868788D01*
X145400020Y-98368788D02*
G75*
G03*
X145900020Y-98868788I500001J1D01*
G01*
X145400020Y-85368788D02*
X145400020Y-98368788D01*
X145900020Y-84868788D02*
G75*
G03*
X145400020Y-85368788I1J-500001D01*
G01*
X158900020Y-84868788D02*
X145900020Y-84868788D01*
X159400020Y-85368788D02*
G75*
G03*
X158900020Y-84868788I-500001J-1D01*
G01*
X159400020Y-98368788D02*
X159400020Y-85368788D01*
X158900020Y-98868788D02*
G75*
G03*
X159400020Y-98368788I-1J500001D01*
G01*
X178450020Y-66318788D02*
G75*
G03*
X177950020Y-65818788I-500001J-1D01*
G01*
X164950020Y-65818788D02*
X177950020Y-65818788D01*
X164950020Y-65818788D02*
G75*
G03*
X164450020Y-66318788I1J-500001D01*
G01*
X164450020Y-79318788D02*
X164450020Y-66318788D01*
X164450020Y-79318788D02*
G75*
G03*
X164950020Y-79818788I500001J1D01*
G01*
X177950020Y-79818788D02*
X164950020Y-79818788D01*
X177950020Y-79818788D02*
G75*
G03*
X178450020Y-79318788I-1J500001D01*
G01*
X178450020Y-66318788D02*
X178450020Y-79318788D01*
X203050020Y-117918788D02*
X216050020Y-117918788D01*
X202550020Y-117418788D02*
G75*
G03*
X203050020Y-117918788I500001J1D01*
G01*
X202550020Y-104418788D02*
X202550020Y-117418788D01*
X203050020Y-103918788D02*
G75*
G03*
X202550020Y-104418788I1J-500001D01*
G01*
X216050020Y-103918788D02*
X203050020Y-103918788D01*
X216550020Y-104418788D02*
G75*
G03*
X216050020Y-103918788I-500001J-1D01*
G01*
X216550020Y-117418788D02*
X216550020Y-104418788D01*
X216050020Y-117918788D02*
G75*
G03*
X216550020Y-117418788I-1J500001D01*
G01*
X240650020Y-85368788D02*
X240650020Y-98368788D01*
X241150020Y-84868788D02*
G75*
G03*
X240650020Y-85368788I1J-500001D01*
G01*
X254150020Y-84868788D02*
X241150020Y-84868788D01*
X254650020Y-85368788D02*
G75*
G03*
X254150020Y-84868788I-500001J-1D01*
G01*
X254650020Y-98368788D02*
X254650020Y-85368788D01*
X254150020Y-98868788D02*
G75*
G03*
X254650020Y-98368788I-1J500001D01*
G01*
X241150020Y-98868788D02*
X254150020Y-98868788D01*
X240650020Y-98368788D02*
G75*
G03*
X241150020Y-98868788I500001J1D01*
G01*
X126350020Y-66318788D02*
X126350020Y-79318788D01*
X126850020Y-65818788D02*
G75*
G03*
X126350020Y-66318788I1J-500001D01*
G01*
X139850020Y-65818788D02*
X126850020Y-65818788D01*
X140350020Y-66318788D02*
G75*
G03*
X139850020Y-65818788I-500001J-1D01*
G01*
X140350020Y-79318788D02*
X140350020Y-66318788D01*
X139850020Y-79818788D02*
G75*
G03*
X140350020Y-79318788I-1J500001D01*
G01*
X126850020Y-79818788D02*
X139850020Y-79818788D01*
X126350020Y-79318788D02*
G75*
G03*
X126850020Y-79818788I500001J1D01*
G01*
X235600020Y-85368788D02*
G75*
G03*
X235100020Y-84868788I-500001J-1D01*
G01*
X222100020Y-84868788D02*
X235100020Y-84868788D01*
X222100020Y-84868788D02*
G75*
G03*
X221600020Y-85368788I1J-500001D01*
G01*
X221600020Y-98368788D02*
X221600020Y-85368788D01*
X221600020Y-98368788D02*
G75*
G03*
X222100020Y-98868788I500001J1D01*
G01*
X235100020Y-98868788D02*
X222100020Y-98868788D01*
X235100020Y-98868788D02*
G75*
G03*
X235600020Y-98368788I-1J500001D01*
G01*
X235600020Y-85368788D02*
X235600020Y-98368788D01*
X241150020Y-60768788D02*
X254150020Y-60768788D01*
X240650020Y-60268788D02*
G75*
G03*
X241150020Y-60768788I500001J1D01*
G01*
X240650020Y-47268788D02*
X240650020Y-60268788D01*
X241150020Y-46768788D02*
G75*
G03*
X240650020Y-47268788I1J-500001D01*
G01*
X254150020Y-46768788D02*
X241150020Y-46768788D01*
X254650020Y-47268788D02*
G75*
G03*
X254150020Y-46768788I-500001J-1D01*
G01*
X254650020Y-60268788D02*
X254650020Y-47268788D01*
X254150020Y-60768788D02*
G75*
G03*
X254650020Y-60268788I-1J500001D01*
G01*
X184000020Y-117918788D02*
X197000020Y-117918788D01*
X183500020Y-117418788D02*
G75*
G03*
X184000020Y-117918788I500001J1D01*
G01*
X183500020Y-104418788D02*
X183500020Y-117418788D01*
X184000020Y-103918788D02*
G75*
G03*
X183500020Y-104418788I1J-500001D01*
G01*
X197000020Y-103918788D02*
X184000020Y-103918788D01*
X197500020Y-104418788D02*
G75*
G03*
X197000020Y-103918788I-500001J-1D01*
G01*
X197500020Y-117418788D02*
X197500020Y-104418788D01*
X197000020Y-117918788D02*
G75*
G03*
X197500020Y-117418788I-1J500001D01*
G01*
X164950020Y-98868788D02*
X177950020Y-98868788D01*
X164450020Y-98368788D02*
G75*
G03*
X164950020Y-98868788I500001J1D01*
G01*
X164450020Y-85368788D02*
X164450020Y-98368788D01*
X164950020Y-84868788D02*
G75*
G03*
X164450020Y-85368788I1J-500001D01*
G01*
X177950020Y-84868788D02*
X164950020Y-84868788D01*
X178450020Y-85368788D02*
G75*
G03*
X177950020Y-84868788I-500001J-1D01*
G01*
X178450020Y-98368788D02*
X178450020Y-85368788D01*
X177950020Y-98868788D02*
G75*
G03*
X178450020Y-98368788I-1J500001D01*
G01*
X69700020Y-79818788D02*
X82700020Y-79818788D01*
X69200020Y-79318788D02*
G75*
G03*
X69700020Y-79818788I500001J1D01*
G01*
X69200020Y-66318788D02*
X69200020Y-79318788D01*
X69700020Y-65818788D02*
G75*
G03*
X69200020Y-66318788I1J-500001D01*
G01*
X82700020Y-65818788D02*
X69700020Y-65818788D01*
X83200020Y-66318788D02*
G75*
G03*
X82700020Y-65818788I-500001J-1D01*
G01*
X83200020Y-79318788D02*
X83200020Y-66318788D01*
X82700020Y-79818788D02*
G75*
G03*
X83200020Y-79318788I-1J500001D01*
G01*
X221600020Y-104418788D02*
X221600020Y-117418788D01*
X222100020Y-103918788D02*
G75*
G03*
X221600020Y-104418788I1J-500001D01*
G01*
X235100020Y-103918788D02*
X222100020Y-103918788D01*
X235600020Y-104418788D02*
G75*
G03*
X235100020Y-103918788I-500001J-1D01*
G01*
X235600020Y-117418788D02*
X235600020Y-104418788D01*
X235100020Y-117918788D02*
G75*
G03*
X235600020Y-117418788I-1J500001D01*
G01*
X222100020Y-117918788D02*
X235100020Y-117918788D01*
X221600020Y-117418788D02*
G75*
G03*
X222100020Y-117918788I500001J1D01*
G01*
X126850020Y-117918788D02*
X139850020Y-117918788D01*
X126350020Y-117418788D02*
G75*
G03*
X126850020Y-117918788I500001J1D01*
G01*
X126350020Y-104418788D02*
X126350020Y-117418788D01*
X126850020Y-103918788D02*
G75*
G03*
X126350020Y-104418788I1J-500001D01*
G01*
X139850020Y-103918788D02*
X126850020Y-103918788D01*
X140350020Y-104418788D02*
G75*
G03*
X139850020Y-103918788I-500001J-1D01*
G01*
X140350020Y-117418788D02*
X140350020Y-104418788D01*
X139850020Y-117918788D02*
G75*
G03*
X140350020Y-117418788I-1J500001D01*
G01*
X164950020Y-117918788D02*
X177950020Y-117918788D01*
X164450020Y-117418788D02*
G75*
G03*
X164950020Y-117918788I500001J1D01*
G01*
X164450020Y-104418788D02*
X164450020Y-117418788D01*
X164950020Y-103918788D02*
G75*
G03*
X164450020Y-104418788I1J-500001D01*
G01*
X177950020Y-103918788D02*
X164950020Y-103918788D01*
X178450020Y-104418788D02*
G75*
G03*
X177950020Y-103918788I-500001J-1D01*
G01*
X178450020Y-117418788D02*
X178450020Y-104418788D01*
X177950020Y-117918788D02*
G75*
G03*
X178450020Y-117418788I-1J500001D01*
G01*
X26837520Y-98868788D02*
X39837520Y-98868788D01*
X26337520Y-98368788D02*
G75*
G03*
X26837520Y-98868788I500001J1D01*
G01*
X26337520Y-85368788D02*
X26337520Y-98368788D01*
X26837520Y-84868788D02*
G75*
G03*
X26337520Y-85368788I1J-500001D01*
G01*
X39837520Y-84868788D02*
X26837520Y-84868788D01*
X40337520Y-85368788D02*
G75*
G03*
X39837520Y-84868788I-500001J-1D01*
G01*
X40337520Y-98368788D02*
X40337520Y-85368788D01*
X39837520Y-98868788D02*
G75*
G03*
X40337520Y-98368788I-1J500001D01*
G01*
X50650020Y-98868788D02*
X63650020Y-98868788D01*
X50150020Y-98368788D02*
G75*
G03*
X50650020Y-98868788I500001J1D01*
G01*
X50150020Y-85368788D02*
X50150020Y-98368788D01*
X50650020Y-84868788D02*
G75*
G03*
X50150020Y-85368788I1J-500001D01*
G01*
X63650020Y-84868788D02*
X50650020Y-84868788D01*
X64150020Y-85368788D02*
G75*
G03*
X63650020Y-84868788I-500001J-1D01*
G01*
X64150020Y-98368788D02*
X64150020Y-85368788D01*
X63650020Y-98868788D02*
G75*
G03*
X64150020Y-98368788I-1J500001D01*
G01*
X88750020Y-60768788D02*
X101750020Y-60768788D01*
X88250020Y-60268788D02*
G75*
G03*
X88750020Y-60768788I500001J1D01*
G01*
X88250020Y-47268788D02*
X88250020Y-60268788D01*
X88750020Y-46768788D02*
G75*
G03*
X88250020Y-47268788I1J-500001D01*
G01*
X101750020Y-46768788D02*
X88750020Y-46768788D01*
X102250020Y-47268788D02*
G75*
G03*
X101750020Y-46768788I-500001J-1D01*
G01*
X102250020Y-60268788D02*
X102250020Y-47268788D01*
X101750020Y-60768788D02*
G75*
G03*
X102250020Y-60268788I-1J500001D01*
G01*
X69700020Y-60768788D02*
X82700020Y-60768788D01*
X69200020Y-60268788D02*
G75*
G03*
X69700020Y-60768788I500001J1D01*
G01*
X69200020Y-47268788D02*
X69200020Y-60268788D01*
X69700020Y-46768788D02*
G75*
G03*
X69200020Y-47268788I1J-500001D01*
G01*
X82700020Y-46768788D02*
X69700020Y-46768788D01*
X83200020Y-47268788D02*
G75*
G03*
X82700020Y-46768788I-500001J-1D01*
G01*
X83200020Y-60268788D02*
X83200020Y-47268788D01*
X82700020Y-60768788D02*
G75*
G03*
X83200020Y-60268788I-1J500001D01*
G01*
X26837520Y-60768788D02*
X39837520Y-60768788D01*
X26337520Y-60268788D02*
G75*
G03*
X26837520Y-60768788I500001J1D01*
G01*
X26337520Y-47268788D02*
X26337520Y-60268788D01*
X26837520Y-46768788D02*
G75*
G03*
X26337520Y-47268788I1J-500001D01*
G01*
X39837520Y-46768788D02*
X26837520Y-46768788D01*
X40337520Y-47268788D02*
G75*
G03*
X39837520Y-46768788I-500001J-1D01*
G01*
X40337520Y-60268788D02*
X40337520Y-47268788D01*
X39837520Y-60768788D02*
G75*
G03*
X40337520Y-60268788I-1J500001D01*
G01*
X107800020Y-60768788D02*
X120800020Y-60768788D01*
X107300020Y-60268788D02*
G75*
G03*
X107800020Y-60768788I500001J1D01*
G01*
X107300020Y-47268788D02*
X107300020Y-60268788D01*
X107800020Y-46768788D02*
G75*
G03*
X107300020Y-47268788I1J-500001D01*
G01*
X120800020Y-46768788D02*
X107800020Y-46768788D01*
X121300020Y-47268788D02*
G75*
G03*
X120800020Y-46768788I-500001J-1D01*
G01*
X121300020Y-60268788D02*
X121300020Y-47268788D01*
X120800020Y-60768788D02*
G75*
G03*
X121300020Y-60268788I-1J500001D01*
G01*
X107800020Y-79818788D02*
X120800020Y-79818788D01*
X107300020Y-79318788D02*
G75*
G03*
X107800020Y-79818788I500001J1D01*
G01*
X107300020Y-66318788D02*
X107300020Y-79318788D01*
X107800020Y-65818788D02*
G75*
G03*
X107300020Y-66318788I1J-500001D01*
G01*
X120800020Y-65818788D02*
X107800020Y-65818788D01*
X121300020Y-66318788D02*
G75*
G03*
X120800020Y-65818788I-500001J-1D01*
G01*
X121300020Y-79318788D02*
X121300020Y-66318788D01*
X120800020Y-79818788D02*
G75*
G03*
X121300020Y-79318788I-1J500001D01*
G01*
X145900020Y-117918788D02*
X158900020Y-117918788D01*
X145400020Y-117418788D02*
G75*
G03*
X145900020Y-117918788I500001J1D01*
G01*
X145400020Y-104418788D02*
X145400020Y-117418788D01*
X145900020Y-103918788D02*
G75*
G03*
X145400020Y-104418788I1J-500001D01*
G01*
X158900020Y-103918788D02*
X145900020Y-103918788D01*
X159400020Y-104418788D02*
G75*
G03*
X158900020Y-103918788I-500001J-1D01*
G01*
X159400020Y-117418788D02*
X159400020Y-104418788D01*
X158900020Y-117918788D02*
G75*
G03*
X159400020Y-117418788I-1J500001D01*
G01*
X107800020Y-117918788D02*
X120800020Y-117918788D01*
X107300020Y-117418788D02*
G75*
G03*
X107800020Y-117918788I500001J1D01*
G01*
X107300020Y-104418788D02*
X107300020Y-117418788D01*
X107800020Y-103918788D02*
G75*
G03*
X107300020Y-104418788I1J-500001D01*
G01*
X120800020Y-103918788D02*
X107800020Y-103918788D01*
X121300020Y-104418788D02*
G75*
G03*
X120800020Y-103918788I-500001J-1D01*
G01*
X121300020Y-117418788D02*
X121300020Y-104418788D01*
X120800020Y-117918788D02*
G75*
G03*
X121300020Y-117418788I-1J500001D01*
G01*
X50650020Y-60768788D02*
X63650020Y-60768788D01*
X50150020Y-60268788D02*
G75*
G03*
X50650020Y-60768788I500001J1D01*
G01*
X50150020Y-47268788D02*
X50150020Y-60268788D01*
X50650020Y-46768788D02*
G75*
G03*
X50150020Y-47268788I1J-500001D01*
G01*
X63650020Y-46768788D02*
X50650020Y-46768788D01*
X64150020Y-47268788D02*
G75*
G03*
X63650020Y-46768788I-500001J-1D01*
G01*
X64150020Y-60268788D02*
X64150020Y-47268788D01*
X63650020Y-60768788D02*
G75*
G03*
X64150020Y-60268788I-1J500001D01*
G01*
X69700020Y-98868788D02*
X82700020Y-98868788D01*
X69200020Y-98368788D02*
G75*
G03*
X69700020Y-98868788I500001J1D01*
G01*
X69200020Y-85368788D02*
X69200020Y-98368788D01*
X69700020Y-84868788D02*
G75*
G03*
X69200020Y-85368788I1J-500001D01*
G01*
X82700020Y-84868788D02*
X69700020Y-84868788D01*
X83200020Y-85368788D02*
G75*
G03*
X82700020Y-84868788I-500001J-1D01*
G01*
X83200020Y-98368788D02*
X83200020Y-85368788D01*
X82700020Y-98868788D02*
G75*
G03*
X83200020Y-98368788I-1J500001D01*
G01*
X140350020Y-85368788D02*
G75*
G03*
X139850020Y-84868788I-500001J-1D01*
G01*
X126850020Y-84868788D02*
X139850020Y-84868788D01*
X126850020Y-84868788D02*
G75*
G03*
X126350020Y-85368788I1J-500001D01*
G01*
X126350020Y-98368788D02*
X126350020Y-85368788D01*
X126350020Y-98368788D02*
G75*
G03*
X126850020Y-98868788I500001J1D01*
G01*
X139850020Y-98868788D02*
X126850020Y-98868788D01*
X139850020Y-98868788D02*
G75*
G03*
X140350020Y-98368788I-1J500001D01*
G01*
X140350020Y-85368788D02*
X140350020Y-98368788D01*
X260200020Y-117918788D02*
X273200020Y-117918788D01*
X259700020Y-117418788D02*
G75*
G03*
X260200020Y-117918788I500001J1D01*
G01*
X259700020Y-104418788D02*
X259700020Y-117418788D01*
X260200020Y-103918788D02*
G75*
G03*
X259700020Y-104418788I1J-500001D01*
G01*
X273200020Y-103918788D02*
X260200020Y-103918788D01*
X273700020Y-104418788D02*
G75*
G03*
X273200020Y-103918788I-500001J-1D01*
G01*
X273700020Y-117418788D02*
X273700020Y-104418788D01*
X273200020Y-117918788D02*
G75*
G03*
X273700020Y-117418788I-1J500001D01*
G01*
X50650020Y-117918788D02*
X63650020Y-117918788D01*
X50150020Y-117418788D02*
G75*
G03*
X50650020Y-117918788I500001J1D01*
G01*
X50150020Y-104418788D02*
X50150020Y-117418788D01*
X50650020Y-103918788D02*
G75*
G03*
X50150020Y-104418788I1J-500001D01*
G01*
X63650020Y-103918788D02*
X50650020Y-103918788D01*
X64150020Y-104418788D02*
G75*
G03*
X63650020Y-103918788I-500001J-1D01*
G01*
X64150020Y-117418788D02*
X64150020Y-104418788D01*
X63650020Y-117918788D02*
G75*
G03*
X64150020Y-117418788I-1J500001D01*
G01*
X88750020Y-98868788D02*
X101750020Y-98868788D01*
X88250020Y-98368788D02*
G75*
G03*
X88750020Y-98868788I500001J1D01*
G01*
X88250020Y-85368788D02*
X88250020Y-98368788D01*
X88750020Y-84868788D02*
G75*
G03*
X88250020Y-85368788I1J-500001D01*
G01*
X101750020Y-84868788D02*
X88750020Y-84868788D01*
X102250020Y-85368788D02*
G75*
G03*
X101750020Y-84868788I-500001J-1D01*
G01*
X102250020Y-98368788D02*
X102250020Y-85368788D01*
X101750020Y-98868788D02*
G75*
G03*
X102250020Y-98368788I-1J500001D01*
G01*
X26837520Y-79818788D02*
X39837520Y-79818788D01*
X26337520Y-79318788D02*
G75*
G03*
X26837520Y-79818788I500001J1D01*
G01*
X26337520Y-66318788D02*
X26337520Y-79318788D01*
X26837520Y-65818788D02*
G75*
G03*
X26337520Y-66318788I1J-500001D01*
G01*
X39837520Y-65818788D02*
X26837520Y-65818788D01*
X40337520Y-66318788D02*
G75*
G03*
X39837520Y-65818788I-500001J-1D01*
G01*
X40337520Y-79318788D02*
X40337520Y-66318788D01*
X39837520Y-79818788D02*
G75*
G03*
X40337520Y-79318788I-1J500001D01*
G01*
X203050020Y-79818788D02*
X216050020Y-79818788D01*
X202550020Y-79318788D02*
G75*
G03*
X203050020Y-79818788I500001J1D01*
G01*
X202550020Y-66318788D02*
X202550020Y-79318788D01*
X203050020Y-65818788D02*
G75*
G03*
X202550020Y-66318788I1J-500001D01*
G01*
X216050020Y-65818788D02*
X203050020Y-65818788D01*
X216550020Y-66318788D02*
G75*
G03*
X216050020Y-65818788I-500001J-1D01*
G01*
X216550020Y-79318788D02*
X216550020Y-66318788D01*
X216050020Y-79818788D02*
G75*
G03*
X216550020Y-79318788I-1J500001D01*
G01*
X184000020Y-79818788D02*
X197000020Y-79818788D01*
X183500020Y-79318788D02*
G75*
G03*
X184000020Y-79818788I500001J1D01*
G01*
X183500020Y-66318788D02*
X183500020Y-79318788D01*
X184000020Y-65818788D02*
G75*
G03*
X183500020Y-66318788I1J-500001D01*
G01*
X197000020Y-65818788D02*
X184000020Y-65818788D01*
X197500020Y-66318788D02*
G75*
G03*
X197000020Y-65818788I-500001J-1D01*
G01*
X197500020Y-79318788D02*
X197500020Y-66318788D01*
X197000020Y-79818788D02*
G75*
G03*
X197500020Y-79318788I-1J500001D01*
G01*
X260200020Y-98868788D02*
X273200020Y-98868788D01*
X259700020Y-98368788D02*
G75*
G03*
X260200020Y-98868788I500001J1D01*
G01*
X259700020Y-85368788D02*
X259700020Y-98368788D01*
X260200020Y-84868788D02*
G75*
G03*
X259700020Y-85368788I1J-500001D01*
G01*
X273200020Y-84868788D02*
X260200020Y-84868788D01*
X273700020Y-85368788D02*
G75*
G03*
X273200020Y-84868788I-500001J-1D01*
G01*
X273700020Y-98368788D02*
X273700020Y-85368788D01*
X273200020Y-98868788D02*
G75*
G03*
X273700020Y-98368788I-1J500001D01*
G01*
X50650020Y-79818788D02*
X63650020Y-79818788D01*
X50150020Y-79318788D02*
G75*
G03*
X50650020Y-79818788I500001J1D01*
G01*
X50150020Y-66318788D02*
X50150020Y-79318788D01*
X50650020Y-65818788D02*
G75*
G03*
X50150020Y-66318788I1J-500001D01*
G01*
X63650020Y-65818788D02*
X50650020Y-65818788D01*
X64150020Y-66318788D02*
G75*
G03*
X63650020Y-65818788I-500001J-1D01*
G01*
X64150020Y-79318788D02*
X64150020Y-66318788D01*
X63650020Y-79818788D02*
G75*
G03*
X64150020Y-79318788I-1J500001D01*
G01*
X88750020Y-117918788D02*
X101750020Y-117918788D01*
X88250020Y-117418788D02*
G75*
G03*
X88750020Y-117918788I500001J1D01*
G01*
X88250020Y-104418788D02*
X88250020Y-117418788D01*
X88750020Y-103918788D02*
G75*
G03*
X88250020Y-104418788I1J-500001D01*
G01*
X101750020Y-103918788D02*
X88750020Y-103918788D01*
X102250020Y-104418788D02*
G75*
G03*
X101750020Y-103918788I-500001J-1D01*
G01*
X102250020Y-117418788D02*
X102250020Y-104418788D01*
X101750020Y-117918788D02*
G75*
G03*
X102250020Y-117418788I-1J500001D01*
G01*
X88250020Y-66318788D02*
X88250020Y-79318788D01*
X88750020Y-65818788D02*
G75*
G03*
X88250020Y-66318788I1J-500001D01*
G01*
X101750020Y-65818788D02*
X88750020Y-65818788D01*
X102250020Y-66318788D02*
G75*
G03*
X101750020Y-65818788I-500001J-1D01*
G01*
X102250020Y-79318788D02*
X102250020Y-66318788D01*
X101750020Y-79818788D02*
G75*
G03*
X102250020Y-79318788I-1J500001D01*
G01*
X88750020Y-79818788D02*
X101750020Y-79818788D01*
X88250020Y-79318788D02*
G75*
G03*
X88750020Y-79818788I500001J1D01*
G01*
X203050020Y-98868788D02*
X216050020Y-98868788D01*
X202550020Y-98368788D02*
G75*
G03*
X203050020Y-98868788I500001J1D01*
G01*
X202550020Y-85368788D02*
X202550020Y-98368788D01*
X203050020Y-84868788D02*
G75*
G03*
X202550020Y-85368788I1J-500001D01*
G01*
X216050020Y-84868788D02*
X203050020Y-84868788D01*
X216550020Y-85368788D02*
G75*
G03*
X216050020Y-84868788I-500001J-1D01*
G01*
X216550020Y-98368788D02*
X216550020Y-85368788D01*
X216050020Y-98868788D02*
G75*
G03*
X216550020Y-98368788I-1J500001D01*
G01*
X145900020Y-60768788D02*
X158900020Y-60768788D01*
X145400020Y-60268788D02*
G75*
G03*
X145900020Y-60768788I500001J1D01*
G01*
X145400020Y-47268788D02*
X145400020Y-60268788D01*
X145900020Y-46768788D02*
G75*
G03*
X145400020Y-47268788I1J-500001D01*
G01*
X158900020Y-46768788D02*
X145900020Y-46768788D01*
X159400020Y-47268788D02*
G75*
G03*
X158900020Y-46768788I-500001J-1D01*
G01*
X159400020Y-60268788D02*
X159400020Y-47268788D01*
X158900020Y-60768788D02*
G75*
G03*
X159400020Y-60268788I-1J500001D01*
G01*
X273700020Y-66318788D02*
G75*
G03*
X273200020Y-65818788I-500001J-1D01*
G01*
X260200020Y-65818788D02*
X273200020Y-65818788D01*
X260200020Y-65818788D02*
G75*
G03*
X259700020Y-66318788I1J-500001D01*
G01*
X259700020Y-79318788D02*
X259700020Y-66318788D01*
X259700020Y-79318788D02*
G75*
G03*
X260200020Y-79818788I500001J1D01*
G01*
X273200020Y-79818788D02*
X260200020Y-79818788D01*
X273200020Y-79818788D02*
G75*
G03*
X273700020Y-79318788I-1J500001D01*
G01*
X273700020Y-66318788D02*
X273700020Y-79318788D01*
X222100020Y-60768788D02*
X235100020Y-60768788D01*
X221600020Y-60268788D02*
G75*
G03*
X222100020Y-60768788I500001J1D01*
G01*
X221600020Y-47268788D02*
X221600020Y-60268788D01*
X222100020Y-46768788D02*
G75*
G03*
X221600020Y-47268788I1J-500001D01*
G01*
X235100020Y-46768788D02*
X222100020Y-46768788D01*
X235600020Y-47268788D02*
G75*
G03*
X235100020Y-46768788I-500001J-1D01*
G01*
X235600020Y-60268788D02*
X235600020Y-47268788D01*
X235100020Y-60768788D02*
G75*
G03*
X235600020Y-60268788I-1J500001D01*
G01*
X164950020Y-60768788D02*
X177950020Y-60768788D01*
X164450020Y-60268788D02*
G75*
G03*
X164950020Y-60768788I500001J1D01*
G01*
X164450020Y-47268788D02*
X164450020Y-60268788D01*
X164950020Y-46768788D02*
G75*
G03*
X164450020Y-47268788I1J-500001D01*
G01*
X177950020Y-46768788D02*
X164950020Y-46768788D01*
X178450020Y-47268788D02*
G75*
G03*
X177950020Y-46768788I-500001J-1D01*
G01*
X178450020Y-60268788D02*
X178450020Y-47268788D01*
X177950020Y-60768788D02*
G75*
G03*
X178450020Y-60268788I-1J500001D01*
G01*
X273700020Y-47268788D02*
G75*
G03*
X273200020Y-46768788I-500001J-1D01*
G01*
X260200020Y-46768788D02*
X273200020Y-46768788D01*
X260200020Y-46768788D02*
G75*
G03*
X259700020Y-47268788I1J-500001D01*
G01*
X259700020Y-60268788D02*
X259700020Y-47268788D01*
X259700020Y-60268788D02*
G75*
G03*
X260200020Y-60768788I500001J1D01*
G01*
X273200020Y-60768788D02*
X260200020Y-60768788D01*
X273200020Y-60768788D02*
G75*
G03*
X273700020Y-60268788I-1J500001D01*
G01*
X273700020Y-47268788D02*
X273700020Y-60268788D01*
X140350020Y-47268788D02*
G75*
G03*
X139850020Y-46768788I-500001J-1D01*
G01*
X126850020Y-46768788D02*
X139850020Y-46768788D01*
X126850020Y-46768788D02*
G75*
G03*
X126350020Y-47268788I1J-500001D01*
G01*
X126350020Y-60268788D02*
X126350020Y-47268788D01*
X126350020Y-60268788D02*
G75*
G03*
X126850020Y-60768788I500001J1D01*
G01*
X139850020Y-60768788D02*
X126850020Y-60768788D01*
X139850020Y-60768788D02*
G75*
G03*
X140350020Y-60268788I-1J500001D01*
G01*
X140350020Y-47268788D02*
X140350020Y-60268788D01*
X241150020Y-79818788D02*
X254150020Y-79818788D01*
X240650020Y-79318788D02*
G75*
G03*
X241150020Y-79818788I500001J1D01*
G01*
X240650020Y-66318788D02*
X240650020Y-79318788D01*
X241150020Y-65818788D02*
G75*
G03*
X240650020Y-66318788I1J-500001D01*
G01*
X254150020Y-65818788D02*
X241150020Y-65818788D01*
X254650020Y-66318788D02*
G75*
G03*
X254150020Y-65818788I-500001J-1D01*
G01*
X254650020Y-79318788D02*
X254650020Y-66318788D01*
X254150020Y-79818788D02*
G75*
G03*
X254650020Y-79318788I-1J500001D01*
G01*
X184000020Y-60768788D02*
X197000020Y-60768788D01*
X183500020Y-60268788D02*
G75*
G03*
X184000020Y-60768788I500001J1D01*
G01*
X183500020Y-47268788D02*
X183500020Y-60268788D01*
X184000020Y-46768788D02*
G75*
G03*
X183500020Y-47268788I1J-500001D01*
G01*
X197000020Y-46768788D02*
X184000020Y-46768788D01*
X197500020Y-47268788D02*
G75*
G03*
X197000020Y-46768788I-500001J-1D01*
G01*
X197500020Y-60268788D02*
X197500020Y-47268788D01*
X197000020Y-60768788D02*
G75*
G03*
X197500020Y-60268788I-1J500001D01*
G01*
X203050020Y-60768788D02*
X216050020Y-60768788D01*
X202550020Y-60268788D02*
G75*
G03*
X203050020Y-60768788I500001J1D01*
G01*
X202550020Y-47268788D02*
X202550020Y-60268788D01*
X203050020Y-46768788D02*
G75*
G03*
X202550020Y-47268788I1J-500001D01*
G01*
X216050020Y-46768788D02*
X203050020Y-46768788D01*
X216550020Y-47268788D02*
G75*
G03*
X216050020Y-46768788I-500001J-1D01*
G01*
X216550020Y-60268788D02*
X216550020Y-47268788D01*
X216050020Y-60768788D02*
G75*
G03*
X216550020Y-60268788I-1J500001D01*
G01*
X222100020Y-79818788D02*
X235100020Y-79818788D01*
X221600020Y-79318788D02*
G75*
G03*
X222100020Y-79818788I500001J1D01*
G01*
X221600020Y-66318788D02*
X221600020Y-79318788D01*
X222100020Y-65818788D02*
G75*
G03*
X221600020Y-66318788I1J-500001D01*
G01*
X235100020Y-65818788D02*
X222100020Y-65818788D01*
X235600020Y-66318788D02*
G75*
G03*
X235100020Y-65818788I-500001J-1D01*
G01*
X235600020Y-79318788D02*
X235600020Y-66318788D01*
X235100020Y-79818788D02*
G75*
G03*
X235600020Y-79318788I-1J500001D01*
G01*
X184000020Y-98868788D02*
X197000020Y-98868788D01*
X183500020Y-98368788D02*
G75*
G03*
X184000020Y-98868788I500001J1D01*
G01*
X183500020Y-85368788D02*
X183500020Y-98368788D01*
X184000020Y-84868788D02*
G75*
G03*
X183500020Y-85368788I1J-500001D01*
G01*
X197000020Y-84868788D02*
X184000020Y-84868788D01*
X197500020Y-85368788D02*
G75*
G03*
X197000020Y-84868788I-500001J-1D01*
G01*
X197500020Y-98368788D02*
X197500020Y-85368788D01*
X197000020Y-98868788D02*
G75*
G03*
X197500020Y-98368788I-1J500001D01*
G01*
X241150020Y-117918788D02*
X254150020Y-117918788D01*
X240650020Y-117418788D02*
G75*
G03*
X241150020Y-117918788I500001J1D01*
G01*
X240650020Y-104418788D02*
X240650020Y-117418788D01*
X241150020Y-103918788D02*
G75*
G03*
X240650020Y-104418788I1J-500001D01*
G01*
X254150020Y-103918788D02*
X241150020Y-103918788D01*
X254650020Y-104418788D02*
G75*
G03*
X254150020Y-103918788I-500001J-1D01*
G01*
X254650020Y-117418788D02*
X254650020Y-104418788D01*
X254150020Y-117918788D02*
G75*
G03*
X254650020Y-117418788I-1J500001D01*
G01*
X107800020Y-98868788D02*
X120800020Y-98868788D01*
X107300020Y-98368788D02*
G75*
G03*
X107800020Y-98868788I500001J1D01*
G01*
X107300020Y-85368788D02*
X107300020Y-98368788D01*
X107800020Y-84868788D02*
G75*
G03*
X107300020Y-85368788I1J-500001D01*
G01*
X120800020Y-84868788D02*
X107800020Y-84868788D01*
X121300020Y-85368788D02*
G75*
G03*
X120800020Y-84868788I-500001J-1D01*
G01*
X121300020Y-98368788D02*
X121300020Y-85368788D01*
X120800020Y-98868788D02*
G75*
G03*
X121300020Y-98368788I-1J500001D01*
G01*
X145900020Y-79818788D02*
X158900020Y-79818788D01*
X145400020Y-79318788D02*
G75*
G03*
X145900020Y-79818788I500001J1D01*
G01*
X145400020Y-66318788D02*
X145400020Y-79318788D01*
X145900020Y-65818788D02*
G75*
G03*
X145400020Y-66318788I1J-500001D01*
G01*
X158900020Y-65818788D02*
X145900020Y-65818788D01*
X159400020Y-66318788D02*
G75*
G03*
X158900020Y-65818788I-500001J-1D01*
G01*
X159400020Y-79318788D02*
X159400020Y-66318788D01*
X158900020Y-79818788D02*
G75*
G03*
X159400020Y-79318788I-1J500001D01*
G01*
X69700020Y-117918788D02*
X82700020Y-117918788D01*
X69200020Y-117418788D02*
G75*
G03*
X69700020Y-117918788I500001J1D01*
G01*
X69200020Y-104418788D02*
X69200020Y-117418788D01*
X69700020Y-103918788D02*
G75*
G03*
X69200020Y-104418788I1J-500001D01*
G01*
X82700020Y-103918788D02*
X69700020Y-103918788D01*
X83200020Y-104418788D02*
G75*
G03*
X82700020Y-103918788I-500001J-1D01*
G01*
X83200020Y-117418788D02*
X83200020Y-104418788D01*
X82700020Y-117918788D02*
G75*
G03*
X83200020Y-117418788I-1J500001D01*
G01*
X40337520Y-104418788D02*
G75*
G03*
X39837520Y-103918788I-500001J-1D01*
G01*
X26837520Y-103918788D02*
X39837520Y-103918788D01*
X26837520Y-103918788D02*
G75*
G03*
X26337520Y-104418788I1J-500001D01*
G01*
X26337520Y-117418788D02*
X26337520Y-104418788D01*
X26337520Y-117418788D02*
G75*
G03*
X26837520Y-117918788I500001J1D01*
G01*
X39837520Y-117918788D02*
X26837520Y-117918788D01*
X39837520Y-117918788D02*
G75*
G03*
X40337520Y-117418788I-1J500001D01*
G01*
X40337520Y-104418788D02*
X40337520Y-117418788D01*
X257365645Y-39493788D02*
X199365645Y-39493788D01*
X258365645Y-40493788D02*
G75*
G03*
X257365645Y-39493788I-999999J1D01*
G01*
X258365645Y-42243788D02*
X258365645Y-40493788D01*
X257365645Y-43243788D02*
G75*
G03*
X258365645Y-42243788I1J999999D01*
G01*
X233365645Y-43243788D02*
X257365645Y-43243788D01*
X233365645Y-44243788D02*
X233365645Y-43243788D01*
X275225020Y-44243788D02*
X233365645Y-44243788D01*
X276225020Y-45243788D02*
G75*
G03*
X275225020Y-44243788I-999999J1D01*
G01*
X276225020Y-119443788D02*
X276225020Y-45243788D01*
X275225020Y-120443788D02*
G75*
G03*
X276225020Y-119443788I1J999999D01*
G01*
X233365645Y-120443788D02*
X275225020Y-120443788D01*
X233365645Y-121443788D02*
X233365645Y-120443788D01*
X257365645Y-121443788D02*
X233365645Y-121443788D01*
X258365645Y-122443788D02*
G75*
G03*
X257365645Y-121443788I-999999J1D01*
G01*
X258365645Y-124193788D02*
X258365645Y-122443788D01*
X257365645Y-125193788D02*
G75*
G03*
X258365645Y-124193788I1J999999D01*
G01*
X199365645Y-125193788D02*
X257365645Y-125193788D01*
X198365645Y-124193788D02*
G75*
G03*
X199365645Y-125193788I999999J-1D01*
G01*
X198365645Y-122443788D02*
X198365645Y-124193788D01*
X199365645Y-121443788D02*
G75*
G03*
X198365645Y-122443788I-1J-999999D01*
G01*
X223365645Y-121443788D02*
X199365645Y-121443788D01*
X223365645Y-120443788D02*
X223365645Y-121443788D01*
X76671895Y-120443788D02*
X223365645Y-120443788D01*
X76671895Y-121443788D02*
X76671895Y-120443788D01*
X100671895Y-121443788D02*
X76671895Y-121443788D01*
X101671895Y-122443788D02*
G75*
G03*
X100671895Y-121443788I-999999J1D01*
G01*
X101671895Y-124193788D02*
X101671895Y-122443788D01*
X100671895Y-125193788D02*
G75*
G03*
X101671895Y-124193788I1J999999D01*
G01*
X42671895Y-125193788D02*
X100671895Y-125193788D01*
X41671895Y-124193788D02*
G75*
G03*
X42671895Y-125193788I999999J-1D01*
G01*
X41671895Y-122443788D02*
X41671895Y-124193788D01*
X42671895Y-121443788D02*
G75*
G03*
X41671895Y-122443788I-1J-999999D01*
G01*
X66671895Y-121443788D02*
X42671895Y-121443788D01*
X66671895Y-120443788D02*
X66671895Y-121443788D01*
X24812520Y-120443788D02*
X66671895Y-120443788D01*
X23812520Y-119443788D02*
G75*
G03*
X24812520Y-120443788I999999J-1D01*
G01*
X23812520Y-45243788D02*
X23812520Y-119443788D01*
X24812520Y-44243788D02*
G75*
G03*
X23812520Y-45243788I-1J-999999D01*
G01*
X66671895Y-44243788D02*
X24812520Y-44243788D01*
X66671895Y-43243788D02*
X66671895Y-44243788D01*
X42671895Y-43243788D02*
X66671895Y-43243788D01*
X41671895Y-42243788D02*
G75*
G03*
X42671895Y-43243788I999999J-1D01*
G01*
X41671895Y-40493788D02*
X41671895Y-42243788D01*
X42671895Y-39493788D02*
G75*
G03*
X41671895Y-40493788I-1J-999999D01*
G01*
X100671895Y-39493788D02*
X42671895Y-39493788D01*
X101671895Y-40493788D02*
G75*
G03*
X100671895Y-39493788I-999999J1D01*
G01*
X101671895Y-42243788D02*
X101671895Y-40493788D01*
X100671895Y-43243788D02*
G75*
G03*
X101671895Y-42243788I1J999999D01*
G01*
X76671895Y-43243788D02*
X100671895Y-43243788D01*
X76671895Y-44243788D02*
X76671895Y-43243788D01*
X223365645Y-44243788D02*
X76671895Y-44243788D01*
X223365645Y-43243788D02*
X223365645Y-44243788D01*
X199365645Y-43243788D02*
X223365645Y-43243788D01*
X198365645Y-42243788D02*
G75*
G03*
X199365645Y-43243788I999999J-1D01*
G01*
X198365645Y-40493788D02*
X198365645Y-42243788D01*
X199365645Y-39493788D02*
G75*
G03*
X198365645Y-40493788I-1J-999999D01*
G01*
M02*
