G04 #@! TF.GenerationSoftware,KiCad,Pcbnew,(5.1.4-0)*
G04 #@! TF.CreationDate,2021-05-08T11:23:34-05:00*
G04 #@! TF.ProjectId,ori_top_plate,6f72695f-746f-4705-9f70-6c6174652e6b,rev?*
G04 #@! TF.SameCoordinates,Original*
G04 #@! TF.FileFunction,Soldermask,Bot*
G04 #@! TF.FilePolarity,Negative*
%FSLAX46Y46*%
G04 Gerber Fmt 4.6, Leading zero omitted, Abs format (unit mm)*
G04 Created by KiCad (PCBNEW (5.1.4-0)) date 2021-05-08 11:23:34*
%MOMM*%
%LPD*%
G04 APERTURE LIST*
%ADD10C,0.100000*%
G04 APERTURE END LIST*
D10*
G36*
X131355714Y-101292389D02*
G01*
X131436645Y-101325912D01*
X131509480Y-101374579D01*
X131571421Y-101436520D01*
X131620088Y-101509355D01*
X131653611Y-101590286D01*
X131670700Y-101676201D01*
X131670700Y-101763799D01*
X131653611Y-101849714D01*
X131620088Y-101930645D01*
X131571421Y-102003480D01*
X131509480Y-102065421D01*
X131436645Y-102114088D01*
X131436644Y-102114089D01*
X131436643Y-102114089D01*
X131355714Y-102147611D01*
X131269801Y-102164700D01*
X131182199Y-102164700D01*
X131096286Y-102147611D01*
X131015357Y-102114089D01*
X131015356Y-102114089D01*
X131015355Y-102114088D01*
X130942520Y-102065421D01*
X130880579Y-102003480D01*
X130831912Y-101930645D01*
X130798389Y-101849714D01*
X130781300Y-101763799D01*
X130781300Y-101676201D01*
X130798389Y-101590286D01*
X130831912Y-101509355D01*
X130880579Y-101436520D01*
X130942520Y-101374579D01*
X131015355Y-101325912D01*
X131096286Y-101292389D01*
X131182199Y-101275300D01*
X131269801Y-101275300D01*
X131355714Y-101292389D01*
X131355714Y-101292389D01*
G37*
G36*
X302548903Y-96923213D02*
G01*
X302771177Y-96967426D01*
X303189932Y-97140880D01*
X303566802Y-97392696D01*
X303887304Y-97713198D01*
X304139120Y-98090068D01*
X304312574Y-98508823D01*
X304401000Y-98953371D01*
X304401000Y-99406629D01*
X304312574Y-99851177D01*
X304139120Y-100269932D01*
X303887304Y-100646802D01*
X303566802Y-100967304D01*
X303189932Y-101219120D01*
X302771177Y-101392574D01*
X302550245Y-101436520D01*
X302326630Y-101481000D01*
X301873370Y-101481000D01*
X301649755Y-101436520D01*
X301428823Y-101392574D01*
X301010068Y-101219120D01*
X300633198Y-100967304D01*
X300312696Y-100646802D01*
X300060880Y-100269932D01*
X299887426Y-99851177D01*
X299799000Y-99406629D01*
X299799000Y-98953371D01*
X299887426Y-98508823D01*
X300060880Y-98090068D01*
X300312696Y-97713198D01*
X300633198Y-97392696D01*
X301010068Y-97140880D01*
X301428823Y-96967426D01*
X301651097Y-96923213D01*
X301873370Y-96879000D01*
X302326630Y-96879000D01*
X302548903Y-96923213D01*
X302548903Y-96923213D01*
G37*
G36*
X283548903Y-96923213D02*
G01*
X283771177Y-96967426D01*
X284189932Y-97140880D01*
X284566802Y-97392696D01*
X284887304Y-97713198D01*
X285139120Y-98090068D01*
X285312574Y-98508823D01*
X285401000Y-98953371D01*
X285401000Y-99406629D01*
X285312574Y-99851177D01*
X285139120Y-100269932D01*
X284887304Y-100646802D01*
X284566802Y-100967304D01*
X284189932Y-101219120D01*
X283771177Y-101392574D01*
X283550245Y-101436520D01*
X283326630Y-101481000D01*
X282873370Y-101481000D01*
X282649755Y-101436520D01*
X282428823Y-101392574D01*
X282010068Y-101219120D01*
X281633198Y-100967304D01*
X281312696Y-100646802D01*
X281060880Y-100269932D01*
X280887426Y-99851177D01*
X280799000Y-99406629D01*
X280799000Y-98953371D01*
X280887426Y-98508823D01*
X281060880Y-98090068D01*
X281312696Y-97713198D01*
X281633198Y-97392696D01*
X282010068Y-97140880D01*
X282428823Y-96967426D01*
X282651097Y-96923213D01*
X282873370Y-96879000D01*
X283326630Y-96879000D01*
X283548903Y-96923213D01*
X283548903Y-96923213D01*
G37*
G36*
X207548903Y-96923213D02*
G01*
X207771177Y-96967426D01*
X208189932Y-97140880D01*
X208566802Y-97392696D01*
X208887304Y-97713198D01*
X209139120Y-98090068D01*
X209312574Y-98508823D01*
X209401000Y-98953371D01*
X209401000Y-99406629D01*
X209312574Y-99851177D01*
X209139120Y-100269932D01*
X208887304Y-100646802D01*
X208566802Y-100967304D01*
X208189932Y-101219120D01*
X207771177Y-101392574D01*
X207550245Y-101436520D01*
X207326630Y-101481000D01*
X206873370Y-101481000D01*
X206649755Y-101436520D01*
X206428823Y-101392574D01*
X206010068Y-101219120D01*
X205633198Y-100967304D01*
X205312696Y-100646802D01*
X205060880Y-100269932D01*
X204887426Y-99851177D01*
X204799000Y-99406629D01*
X204799000Y-98953371D01*
X204887426Y-98508823D01*
X205060880Y-98090068D01*
X205312696Y-97713198D01*
X205633198Y-97392696D01*
X206010068Y-97140880D01*
X206428823Y-96967426D01*
X206651097Y-96923213D01*
X206873370Y-96879000D01*
X207326630Y-96879000D01*
X207548903Y-96923213D01*
X207548903Y-96923213D01*
G37*
G36*
X188548903Y-96923213D02*
G01*
X188771177Y-96967426D01*
X189189932Y-97140880D01*
X189566802Y-97392696D01*
X189887304Y-97713198D01*
X190139120Y-98090068D01*
X190312574Y-98508823D01*
X190401000Y-98953371D01*
X190401000Y-99406629D01*
X190312574Y-99851177D01*
X190139120Y-100269932D01*
X189887304Y-100646802D01*
X189566802Y-100967304D01*
X189189932Y-101219120D01*
X188771177Y-101392574D01*
X188550245Y-101436520D01*
X188326630Y-101481000D01*
X187873370Y-101481000D01*
X187649755Y-101436520D01*
X187428823Y-101392574D01*
X187010068Y-101219120D01*
X186633198Y-100967304D01*
X186312696Y-100646802D01*
X186060880Y-100269932D01*
X185887426Y-99851177D01*
X185799000Y-99406629D01*
X185799000Y-98953371D01*
X185887426Y-98508823D01*
X186060880Y-98090068D01*
X186312696Y-97713198D01*
X186633198Y-97392696D01*
X187010068Y-97140880D01*
X187428823Y-96967426D01*
X187651097Y-96923213D01*
X187873370Y-96879000D01*
X188326630Y-96879000D01*
X188548903Y-96923213D01*
X188548903Y-96923213D01*
G37*
G36*
X150548903Y-96923213D02*
G01*
X150771177Y-96967426D01*
X151189932Y-97140880D01*
X151566802Y-97392696D01*
X151887304Y-97713198D01*
X152139120Y-98090068D01*
X152312574Y-98508823D01*
X152401000Y-98953371D01*
X152401000Y-99406629D01*
X152312574Y-99851177D01*
X152139120Y-100269932D01*
X151887304Y-100646802D01*
X151566802Y-100967304D01*
X151189932Y-101219120D01*
X150771177Y-101392574D01*
X150550245Y-101436520D01*
X150326630Y-101481000D01*
X149873370Y-101481000D01*
X149649755Y-101436520D01*
X149428823Y-101392574D01*
X149010068Y-101219120D01*
X148633198Y-100967304D01*
X148312696Y-100646802D01*
X148060880Y-100269932D01*
X147887426Y-99851177D01*
X147799000Y-99406629D01*
X147799000Y-98953371D01*
X147887426Y-98508823D01*
X148060880Y-98090068D01*
X148312696Y-97713198D01*
X148633198Y-97392696D01*
X149010068Y-97140880D01*
X149428823Y-96967426D01*
X149651097Y-96923213D01*
X149873370Y-96879000D01*
X150326630Y-96879000D01*
X150548903Y-96923213D01*
X150548903Y-96923213D01*
G37*
G36*
X127368569Y-96923213D02*
G01*
X127590843Y-96967426D01*
X128009598Y-97140880D01*
X128386468Y-97392696D01*
X128706970Y-97713198D01*
X128958786Y-98090068D01*
X129132240Y-98508823D01*
X129220666Y-98953371D01*
X129220666Y-99406629D01*
X129132240Y-99851177D01*
X128958786Y-100269932D01*
X128706970Y-100646802D01*
X128386468Y-100967304D01*
X128009598Y-101219120D01*
X127590843Y-101392574D01*
X127369911Y-101436520D01*
X127146296Y-101481000D01*
X126693036Y-101481000D01*
X126469421Y-101436520D01*
X126248489Y-101392574D01*
X125829734Y-101219120D01*
X125452864Y-100967304D01*
X125132362Y-100646802D01*
X124880546Y-100269932D01*
X124707092Y-99851177D01*
X124618666Y-99406629D01*
X124618666Y-98953371D01*
X124707092Y-98508823D01*
X124880546Y-98090068D01*
X125132362Y-97713198D01*
X125452864Y-97392696D01*
X125829734Y-97140880D01*
X126248489Y-96967426D01*
X126470763Y-96923213D01*
X126693036Y-96879000D01*
X127146296Y-96879000D01*
X127368569Y-96923213D01*
X127368569Y-96923213D01*
G37*
G36*
X340548903Y-96923213D02*
G01*
X340771177Y-96967426D01*
X341189932Y-97140880D01*
X341566802Y-97392696D01*
X341887304Y-97713198D01*
X342139120Y-98090068D01*
X342312574Y-98508823D01*
X342401000Y-98953371D01*
X342401000Y-99406629D01*
X342312574Y-99851177D01*
X342139120Y-100269932D01*
X341887304Y-100646802D01*
X341566802Y-100967304D01*
X341189932Y-101219120D01*
X340771177Y-101392574D01*
X340550245Y-101436520D01*
X340326630Y-101481000D01*
X339873370Y-101481000D01*
X339649755Y-101436520D01*
X339428823Y-101392574D01*
X339010068Y-101219120D01*
X338633198Y-100967304D01*
X338312696Y-100646802D01*
X338060880Y-100269932D01*
X337887426Y-99851177D01*
X337799000Y-99406629D01*
X337799000Y-98953371D01*
X337887426Y-98508823D01*
X338060880Y-98090068D01*
X338312696Y-97713198D01*
X338633198Y-97392696D01*
X339010068Y-97140880D01*
X339428823Y-96967426D01*
X339651097Y-96923213D01*
X339873370Y-96879000D01*
X340326630Y-96879000D01*
X340548903Y-96923213D01*
X340548903Y-96923213D01*
G37*
G36*
X131355714Y-100022389D02*
G01*
X131436645Y-100055912D01*
X131509480Y-100104579D01*
X131571421Y-100166520D01*
X131571422Y-100166522D01*
X131620089Y-100239357D01*
X131653611Y-100320286D01*
X131670700Y-100406199D01*
X131670700Y-100493801D01*
X131653611Y-100579714D01*
X131625823Y-100646801D01*
X131620088Y-100660645D01*
X131571421Y-100733480D01*
X131509480Y-100795421D01*
X131436645Y-100844088D01*
X131436644Y-100844089D01*
X131436643Y-100844089D01*
X131355714Y-100877611D01*
X131269801Y-100894700D01*
X131182199Y-100894700D01*
X131096286Y-100877611D01*
X131015357Y-100844089D01*
X131015356Y-100844089D01*
X131015355Y-100844088D01*
X130942520Y-100795421D01*
X130880579Y-100733480D01*
X130831912Y-100660645D01*
X130826178Y-100646801D01*
X130798389Y-100579714D01*
X130781300Y-100493801D01*
X130781300Y-100406199D01*
X130798389Y-100320286D01*
X130831911Y-100239357D01*
X130880578Y-100166522D01*
X130880579Y-100166520D01*
X130942520Y-100104579D01*
X131015355Y-100055912D01*
X131096286Y-100022389D01*
X131182199Y-100005300D01*
X131269801Y-100005300D01*
X131355714Y-100022389D01*
X131355714Y-100022389D01*
G37*
G36*
X131355714Y-98752389D02*
G01*
X131436645Y-98785912D01*
X131509480Y-98834579D01*
X131571421Y-98896520D01*
X131620088Y-98969355D01*
X131653611Y-99050286D01*
X131670700Y-99136201D01*
X131670700Y-99223799D01*
X131653611Y-99309714D01*
X131620088Y-99390645D01*
X131571421Y-99463480D01*
X131509480Y-99525421D01*
X131436645Y-99574088D01*
X131436644Y-99574089D01*
X131436643Y-99574089D01*
X131355714Y-99607611D01*
X131269801Y-99624700D01*
X131182199Y-99624700D01*
X131096286Y-99607611D01*
X131015357Y-99574089D01*
X131015356Y-99574089D01*
X131015355Y-99574088D01*
X130942520Y-99525421D01*
X130880579Y-99463480D01*
X130831912Y-99390645D01*
X130798389Y-99309714D01*
X130781300Y-99223799D01*
X130781300Y-99136201D01*
X130798389Y-99050286D01*
X130831912Y-98969355D01*
X130880579Y-98896520D01*
X130942520Y-98834579D01*
X131015355Y-98785912D01*
X131096286Y-98752389D01*
X131182199Y-98735300D01*
X131269801Y-98735300D01*
X131355714Y-98752389D01*
X131355714Y-98752389D01*
G37*
G36*
X131355714Y-97482389D02*
G01*
X131436645Y-97515912D01*
X131509480Y-97564579D01*
X131571421Y-97626520D01*
X131571422Y-97626522D01*
X131620089Y-97699357D01*
X131653611Y-97780286D01*
X131670700Y-97866201D01*
X131670700Y-97953799D01*
X131653611Y-98039714D01*
X131620088Y-98120645D01*
X131571421Y-98193480D01*
X131509480Y-98255421D01*
X131436645Y-98304088D01*
X131436644Y-98304089D01*
X131436643Y-98304089D01*
X131355714Y-98337611D01*
X131269801Y-98354700D01*
X131182199Y-98354700D01*
X131096286Y-98337611D01*
X131015357Y-98304089D01*
X131015356Y-98304089D01*
X131015355Y-98304088D01*
X130942520Y-98255421D01*
X130880579Y-98193480D01*
X130831912Y-98120645D01*
X130798389Y-98039714D01*
X130781300Y-97953799D01*
X130781300Y-97866201D01*
X130798389Y-97780286D01*
X130831911Y-97699357D01*
X130880578Y-97626522D01*
X130880579Y-97626520D01*
X130942520Y-97564579D01*
X131015355Y-97515912D01*
X131096286Y-97482389D01*
X131182199Y-97465300D01*
X131269801Y-97465300D01*
X131355714Y-97482389D01*
X131355714Y-97482389D01*
G37*
G36*
X131355714Y-96212389D02*
G01*
X131436645Y-96245912D01*
X131509480Y-96294579D01*
X131571421Y-96356520D01*
X131620088Y-96429355D01*
X131653611Y-96510286D01*
X131670700Y-96596201D01*
X131670700Y-96683799D01*
X131653611Y-96769714D01*
X131620088Y-96850645D01*
X131571421Y-96923480D01*
X131509480Y-96985421D01*
X131436645Y-97034088D01*
X131436644Y-97034089D01*
X131436643Y-97034089D01*
X131355714Y-97067611D01*
X131269801Y-97084700D01*
X131182199Y-97084700D01*
X131096286Y-97067611D01*
X131015357Y-97034089D01*
X131015356Y-97034089D01*
X131015355Y-97034088D01*
X130942520Y-96985421D01*
X130880579Y-96923480D01*
X130831912Y-96850645D01*
X130798389Y-96769714D01*
X130781300Y-96683799D01*
X130781300Y-96596201D01*
X130798389Y-96510286D01*
X130831912Y-96429355D01*
X130880579Y-96356520D01*
X130942520Y-96294579D01*
X131015355Y-96245912D01*
X131096286Y-96212389D01*
X131182199Y-96195300D01*
X131269801Y-96195300D01*
X131355714Y-96212389D01*
X131355714Y-96212389D01*
G37*
G36*
X131229714Y-82292389D02*
G01*
X131310645Y-82325912D01*
X131383480Y-82374579D01*
X131445421Y-82436520D01*
X131494088Y-82509355D01*
X131527611Y-82590286D01*
X131544700Y-82676201D01*
X131544700Y-82763799D01*
X131527611Y-82849714D01*
X131494088Y-82930645D01*
X131445421Y-83003480D01*
X131383480Y-83065421D01*
X131310645Y-83114088D01*
X131310644Y-83114089D01*
X131310643Y-83114089D01*
X131229714Y-83147611D01*
X131143801Y-83164700D01*
X131056199Y-83164700D01*
X130970286Y-83147611D01*
X130889357Y-83114089D01*
X130889356Y-83114089D01*
X130889355Y-83114088D01*
X130816520Y-83065421D01*
X130754579Y-83003480D01*
X130705912Y-82930645D01*
X130672389Y-82849714D01*
X130655300Y-82763799D01*
X130655300Y-82676201D01*
X130672389Y-82590286D01*
X130705912Y-82509355D01*
X130754579Y-82436520D01*
X130816520Y-82374579D01*
X130889355Y-82325912D01*
X130970286Y-82292389D01*
X131056199Y-82275300D01*
X131143801Y-82275300D01*
X131229714Y-82292389D01*
X131229714Y-82292389D01*
G37*
G36*
X150548903Y-77923213D02*
G01*
X150771177Y-77967426D01*
X151189932Y-78140880D01*
X151566802Y-78392696D01*
X151887304Y-78713198D01*
X152139120Y-79090068D01*
X152312574Y-79508823D01*
X152401000Y-79953371D01*
X152401000Y-80406629D01*
X152312574Y-80851177D01*
X152139120Y-81269932D01*
X151887304Y-81646802D01*
X151566802Y-81967304D01*
X151189932Y-82219120D01*
X150771177Y-82392574D01*
X150550245Y-82436520D01*
X150326630Y-82481000D01*
X149873370Y-82481000D01*
X149649755Y-82436520D01*
X149428823Y-82392574D01*
X149010068Y-82219120D01*
X148633198Y-81967304D01*
X148312696Y-81646802D01*
X148060880Y-81269932D01*
X147887426Y-80851177D01*
X147799000Y-80406629D01*
X147799000Y-79953371D01*
X147887426Y-79508823D01*
X148060880Y-79090068D01*
X148312696Y-78713198D01*
X148633198Y-78392696D01*
X149010068Y-78140880D01*
X149428823Y-77967426D01*
X149651097Y-77923213D01*
X149873370Y-77879000D01*
X150326630Y-77879000D01*
X150548903Y-77923213D01*
X150548903Y-77923213D01*
G37*
G36*
X340548903Y-77923213D02*
G01*
X340771177Y-77967426D01*
X341189932Y-78140880D01*
X341566802Y-78392696D01*
X341887304Y-78713198D01*
X342139120Y-79090068D01*
X342312574Y-79508823D01*
X342401000Y-79953371D01*
X342401000Y-80406629D01*
X342312574Y-80851177D01*
X342139120Y-81269932D01*
X341887304Y-81646802D01*
X341566802Y-81967304D01*
X341189932Y-82219120D01*
X340771177Y-82392574D01*
X340550245Y-82436520D01*
X340326630Y-82481000D01*
X339873370Y-82481000D01*
X339649755Y-82436520D01*
X339428823Y-82392574D01*
X339010068Y-82219120D01*
X338633198Y-81967304D01*
X338312696Y-81646802D01*
X338060880Y-81269932D01*
X337887426Y-80851177D01*
X337799000Y-80406629D01*
X337799000Y-79953371D01*
X337887426Y-79508823D01*
X338060880Y-79090068D01*
X338312696Y-78713198D01*
X338633198Y-78392696D01*
X339010068Y-78140880D01*
X339428823Y-77967426D01*
X339651097Y-77923213D01*
X339873370Y-77879000D01*
X340326630Y-77879000D01*
X340548903Y-77923213D01*
X340548903Y-77923213D01*
G37*
G36*
X131229714Y-81022389D02*
G01*
X131310645Y-81055912D01*
X131383480Y-81104579D01*
X131445421Y-81166520D01*
X131445422Y-81166522D01*
X131494089Y-81239357D01*
X131527611Y-81320286D01*
X131544700Y-81406199D01*
X131544700Y-81493801D01*
X131527611Y-81579714D01*
X131499823Y-81646801D01*
X131494088Y-81660645D01*
X131445421Y-81733480D01*
X131383480Y-81795421D01*
X131310645Y-81844088D01*
X131310644Y-81844089D01*
X131310643Y-81844089D01*
X131229714Y-81877611D01*
X131143801Y-81894700D01*
X131056199Y-81894700D01*
X130970286Y-81877611D01*
X130889357Y-81844089D01*
X130889356Y-81844089D01*
X130889355Y-81844088D01*
X130816520Y-81795421D01*
X130754579Y-81733480D01*
X130705912Y-81660645D01*
X130700178Y-81646801D01*
X130672389Y-81579714D01*
X130655300Y-81493801D01*
X130655300Y-81406199D01*
X130672389Y-81320286D01*
X130705911Y-81239357D01*
X130754578Y-81166522D01*
X130754579Y-81166520D01*
X130816520Y-81104579D01*
X130889355Y-81055912D01*
X130970286Y-81022389D01*
X131056199Y-81005300D01*
X131143801Y-81005300D01*
X131229714Y-81022389D01*
X131229714Y-81022389D01*
G37*
G36*
X131229714Y-79752389D02*
G01*
X131310645Y-79785912D01*
X131383480Y-79834579D01*
X131445421Y-79896520D01*
X131494088Y-79969355D01*
X131527611Y-80050286D01*
X131544700Y-80136201D01*
X131544700Y-80223799D01*
X131527611Y-80309714D01*
X131494088Y-80390645D01*
X131445421Y-80463480D01*
X131383480Y-80525421D01*
X131310645Y-80574088D01*
X131310644Y-80574089D01*
X131310643Y-80574089D01*
X131229714Y-80607611D01*
X131143801Y-80624700D01*
X131056199Y-80624700D01*
X130970286Y-80607611D01*
X130889357Y-80574089D01*
X130889356Y-80574089D01*
X130889355Y-80574088D01*
X130816520Y-80525421D01*
X130754579Y-80463480D01*
X130705912Y-80390645D01*
X130672389Y-80309714D01*
X130655300Y-80223799D01*
X130655300Y-80136201D01*
X130672389Y-80050286D01*
X130705912Y-79969355D01*
X130754579Y-79896520D01*
X130816520Y-79834579D01*
X130889355Y-79785912D01*
X130970286Y-79752389D01*
X131056199Y-79735300D01*
X131143801Y-79735300D01*
X131229714Y-79752389D01*
X131229714Y-79752389D01*
G37*
G36*
X131229714Y-78482389D02*
G01*
X131310645Y-78515912D01*
X131383480Y-78564579D01*
X131445421Y-78626520D01*
X131445422Y-78626522D01*
X131494089Y-78699357D01*
X131527611Y-78780286D01*
X131544700Y-78866201D01*
X131544700Y-78953799D01*
X131527611Y-79039714D01*
X131494088Y-79120645D01*
X131445421Y-79193480D01*
X131383480Y-79255421D01*
X131310645Y-79304088D01*
X131310644Y-79304089D01*
X131310643Y-79304089D01*
X131229714Y-79337611D01*
X131143801Y-79354700D01*
X131056199Y-79354700D01*
X130970286Y-79337611D01*
X130889357Y-79304089D01*
X130889356Y-79304089D01*
X130889355Y-79304088D01*
X130816520Y-79255421D01*
X130754579Y-79193480D01*
X130705912Y-79120645D01*
X130672389Y-79039714D01*
X130655300Y-78953799D01*
X130655300Y-78866201D01*
X130672389Y-78780286D01*
X130705911Y-78699357D01*
X130754578Y-78626522D01*
X130754579Y-78626520D01*
X130816520Y-78564579D01*
X130889355Y-78515912D01*
X130970286Y-78482389D01*
X131056199Y-78465300D01*
X131143801Y-78465300D01*
X131229714Y-78482389D01*
X131229714Y-78482389D01*
G37*
G36*
X131229714Y-77212389D02*
G01*
X131310645Y-77245912D01*
X131383480Y-77294579D01*
X131445421Y-77356520D01*
X131494088Y-77429355D01*
X131527611Y-77510286D01*
X131544700Y-77596201D01*
X131544700Y-77683799D01*
X131527611Y-77769714D01*
X131494088Y-77850645D01*
X131445421Y-77923480D01*
X131383480Y-77985421D01*
X131310645Y-78034088D01*
X131310644Y-78034089D01*
X131310643Y-78034089D01*
X131229714Y-78067611D01*
X131143801Y-78084700D01*
X131056199Y-78084700D01*
X130970286Y-78067611D01*
X130889357Y-78034089D01*
X130889356Y-78034089D01*
X130889355Y-78034088D01*
X130816520Y-77985421D01*
X130754579Y-77923480D01*
X130705912Y-77850645D01*
X130672389Y-77769714D01*
X130655300Y-77683799D01*
X130655300Y-77596201D01*
X130672389Y-77510286D01*
X130705912Y-77429355D01*
X130754579Y-77356520D01*
X130816520Y-77294579D01*
X130889355Y-77245912D01*
X130970286Y-77212389D01*
X131056199Y-77195300D01*
X131143801Y-77195300D01*
X131229714Y-77212389D01*
X131229714Y-77212389D01*
G37*
G36*
X131355714Y-63292389D02*
G01*
X131436645Y-63325912D01*
X131509480Y-63374579D01*
X131571421Y-63436520D01*
X131620088Y-63509355D01*
X131653611Y-63590286D01*
X131670700Y-63676201D01*
X131670700Y-63763799D01*
X131653611Y-63849714D01*
X131620088Y-63930645D01*
X131571421Y-64003480D01*
X131509480Y-64065421D01*
X131436645Y-64114088D01*
X131436644Y-64114089D01*
X131436643Y-64114089D01*
X131355714Y-64147611D01*
X131269801Y-64164700D01*
X131182199Y-64164700D01*
X131096286Y-64147611D01*
X131015357Y-64114089D01*
X131015356Y-64114089D01*
X131015355Y-64114088D01*
X130942520Y-64065421D01*
X130880579Y-64003480D01*
X130831912Y-63930645D01*
X130798389Y-63849714D01*
X130781300Y-63763799D01*
X130781300Y-63676201D01*
X130798389Y-63590286D01*
X130831912Y-63509355D01*
X130880579Y-63436520D01*
X130942520Y-63374579D01*
X131015355Y-63325912D01*
X131096286Y-63292389D01*
X131182199Y-63275300D01*
X131269801Y-63275300D01*
X131355714Y-63292389D01*
X131355714Y-63292389D01*
G37*
G36*
X150548903Y-58923213D02*
G01*
X150771177Y-58967426D01*
X151189932Y-59140880D01*
X151566802Y-59392696D01*
X151887304Y-59713198D01*
X152139120Y-60090068D01*
X152312574Y-60508823D01*
X152401000Y-60953371D01*
X152401000Y-61406629D01*
X152312574Y-61851177D01*
X152139120Y-62269932D01*
X151887304Y-62646802D01*
X151566802Y-62967304D01*
X151189932Y-63219120D01*
X150771177Y-63392574D01*
X150550245Y-63436520D01*
X150326630Y-63481000D01*
X149873370Y-63481000D01*
X149649755Y-63436520D01*
X149428823Y-63392574D01*
X149010068Y-63219120D01*
X148633198Y-62967304D01*
X148312696Y-62646802D01*
X148060880Y-62269932D01*
X147887426Y-61851177D01*
X147799000Y-61406629D01*
X147799000Y-60953371D01*
X147887426Y-60508823D01*
X148060880Y-60090068D01*
X148312696Y-59713198D01*
X148633198Y-59392696D01*
X149010068Y-59140880D01*
X149428823Y-58967426D01*
X149651097Y-58923213D01*
X149873370Y-58879000D01*
X150326630Y-58879000D01*
X150548903Y-58923213D01*
X150548903Y-58923213D01*
G37*
G36*
X188548903Y-58923213D02*
G01*
X188771177Y-58967426D01*
X189189932Y-59140880D01*
X189566802Y-59392696D01*
X189887304Y-59713198D01*
X190139120Y-60090068D01*
X190312574Y-60508823D01*
X190401000Y-60953371D01*
X190401000Y-61406629D01*
X190312574Y-61851177D01*
X190139120Y-62269932D01*
X189887304Y-62646802D01*
X189566802Y-62967304D01*
X189189932Y-63219120D01*
X188771177Y-63392574D01*
X188550245Y-63436520D01*
X188326630Y-63481000D01*
X187873370Y-63481000D01*
X187649755Y-63436520D01*
X187428823Y-63392574D01*
X187010068Y-63219120D01*
X186633198Y-62967304D01*
X186312696Y-62646802D01*
X186060880Y-62269932D01*
X185887426Y-61851177D01*
X185799000Y-61406629D01*
X185799000Y-60953371D01*
X185887426Y-60508823D01*
X186060880Y-60090068D01*
X186312696Y-59713198D01*
X186633198Y-59392696D01*
X187010068Y-59140880D01*
X187428823Y-58967426D01*
X187651097Y-58923213D01*
X187873370Y-58879000D01*
X188326630Y-58879000D01*
X188548903Y-58923213D01*
X188548903Y-58923213D01*
G37*
G36*
X302548903Y-58923213D02*
G01*
X302771177Y-58967426D01*
X303189932Y-59140880D01*
X303566802Y-59392696D01*
X303887304Y-59713198D01*
X304139120Y-60090068D01*
X304312574Y-60508823D01*
X304401000Y-60953371D01*
X304401000Y-61406629D01*
X304312574Y-61851177D01*
X304139120Y-62269932D01*
X303887304Y-62646802D01*
X303566802Y-62967304D01*
X303189932Y-63219120D01*
X302771177Y-63392574D01*
X302550245Y-63436520D01*
X302326630Y-63481000D01*
X301873370Y-63481000D01*
X301649755Y-63436520D01*
X301428823Y-63392574D01*
X301010068Y-63219120D01*
X300633198Y-62967304D01*
X300312696Y-62646802D01*
X300060880Y-62269932D01*
X299887426Y-61851177D01*
X299799000Y-61406629D01*
X299799000Y-60953371D01*
X299887426Y-60508823D01*
X300060880Y-60090068D01*
X300312696Y-59713198D01*
X300633198Y-59392696D01*
X301010068Y-59140880D01*
X301428823Y-58967426D01*
X301651097Y-58923213D01*
X301873370Y-58879000D01*
X302326630Y-58879000D01*
X302548903Y-58923213D01*
X302548903Y-58923213D01*
G37*
G36*
X207548903Y-58923213D02*
G01*
X207771177Y-58967426D01*
X208189932Y-59140880D01*
X208566802Y-59392696D01*
X208887304Y-59713198D01*
X209139120Y-60090068D01*
X209312574Y-60508823D01*
X209401000Y-60953371D01*
X209401000Y-61406629D01*
X209312574Y-61851177D01*
X209139120Y-62269932D01*
X208887304Y-62646802D01*
X208566802Y-62967304D01*
X208189932Y-63219120D01*
X207771177Y-63392574D01*
X207550245Y-63436520D01*
X207326630Y-63481000D01*
X206873370Y-63481000D01*
X206649755Y-63436520D01*
X206428823Y-63392574D01*
X206010068Y-63219120D01*
X205633198Y-62967304D01*
X205312696Y-62646802D01*
X205060880Y-62269932D01*
X204887426Y-61851177D01*
X204799000Y-61406629D01*
X204799000Y-60953371D01*
X204887426Y-60508823D01*
X205060880Y-60090068D01*
X205312696Y-59713198D01*
X205633198Y-59392696D01*
X206010068Y-59140880D01*
X206428823Y-58967426D01*
X206651097Y-58923213D01*
X206873370Y-58879000D01*
X207326630Y-58879000D01*
X207548903Y-58923213D01*
X207548903Y-58923213D01*
G37*
G36*
X283548903Y-58923213D02*
G01*
X283771177Y-58967426D01*
X284189932Y-59140880D01*
X284566802Y-59392696D01*
X284887304Y-59713198D01*
X285139120Y-60090068D01*
X285312574Y-60508823D01*
X285401000Y-60953371D01*
X285401000Y-61406629D01*
X285312574Y-61851177D01*
X285139120Y-62269932D01*
X284887304Y-62646802D01*
X284566802Y-62967304D01*
X284189932Y-63219120D01*
X283771177Y-63392574D01*
X283550245Y-63436520D01*
X283326630Y-63481000D01*
X282873370Y-63481000D01*
X282649755Y-63436520D01*
X282428823Y-63392574D01*
X282010068Y-63219120D01*
X281633198Y-62967304D01*
X281312696Y-62646802D01*
X281060880Y-62269932D01*
X280887426Y-61851177D01*
X280799000Y-61406629D01*
X280799000Y-60953371D01*
X280887426Y-60508823D01*
X281060880Y-60090068D01*
X281312696Y-59713198D01*
X281633198Y-59392696D01*
X282010068Y-59140880D01*
X282428823Y-58967426D01*
X282651097Y-58923213D01*
X282873370Y-58879000D01*
X283326630Y-58879000D01*
X283548903Y-58923213D01*
X283548903Y-58923213D01*
G37*
G36*
X340548903Y-58923213D02*
G01*
X340771177Y-58967426D01*
X341189932Y-59140880D01*
X341566802Y-59392696D01*
X341887304Y-59713198D01*
X342139120Y-60090068D01*
X342312574Y-60508823D01*
X342401000Y-60953371D01*
X342401000Y-61406629D01*
X342312574Y-61851177D01*
X342139120Y-62269932D01*
X341887304Y-62646802D01*
X341566802Y-62967304D01*
X341189932Y-63219120D01*
X340771177Y-63392574D01*
X340550245Y-63436520D01*
X340326630Y-63481000D01*
X339873370Y-63481000D01*
X339649755Y-63436520D01*
X339428823Y-63392574D01*
X339010068Y-63219120D01*
X338633198Y-62967304D01*
X338312696Y-62646802D01*
X338060880Y-62269932D01*
X337887426Y-61851177D01*
X337799000Y-61406629D01*
X337799000Y-60953371D01*
X337887426Y-60508823D01*
X338060880Y-60090068D01*
X338312696Y-59713198D01*
X338633198Y-59392696D01*
X339010068Y-59140880D01*
X339428823Y-58967426D01*
X339651097Y-58923213D01*
X339873370Y-58879000D01*
X340326630Y-58879000D01*
X340548903Y-58923213D01*
X340548903Y-58923213D01*
G37*
G36*
X127368569Y-58923052D02*
G01*
X127590843Y-58967265D01*
X128009598Y-59140719D01*
X128386468Y-59392535D01*
X128706970Y-59713037D01*
X128958786Y-60089907D01*
X129132240Y-60508662D01*
X129220666Y-60953210D01*
X129220666Y-61406468D01*
X129132240Y-61851016D01*
X128958786Y-62269771D01*
X128706970Y-62646641D01*
X128386468Y-62967143D01*
X128009598Y-63218959D01*
X127590843Y-63392413D01*
X127369102Y-63436520D01*
X127146296Y-63480839D01*
X126693036Y-63480839D01*
X126470230Y-63436520D01*
X126248489Y-63392413D01*
X125829734Y-63218959D01*
X125452864Y-62967143D01*
X125132362Y-62646641D01*
X124880546Y-62269771D01*
X124707092Y-61851016D01*
X124618666Y-61406468D01*
X124618666Y-60953210D01*
X124707092Y-60508662D01*
X124880546Y-60089907D01*
X125132362Y-59713037D01*
X125452864Y-59392535D01*
X125829734Y-59140719D01*
X126248489Y-58967265D01*
X126470763Y-58923052D01*
X126693036Y-58878839D01*
X127146296Y-58878839D01*
X127368569Y-58923052D01*
X127368569Y-58923052D01*
G37*
G36*
X131355714Y-62022389D02*
G01*
X131436645Y-62055912D01*
X131509480Y-62104579D01*
X131571421Y-62166520D01*
X131571422Y-62166522D01*
X131620089Y-62239357D01*
X131653611Y-62320286D01*
X131670700Y-62406199D01*
X131670700Y-62493801D01*
X131653611Y-62579714D01*
X131625823Y-62646801D01*
X131620088Y-62660645D01*
X131571421Y-62733480D01*
X131509480Y-62795421D01*
X131436645Y-62844088D01*
X131436644Y-62844089D01*
X131436643Y-62844089D01*
X131355714Y-62877611D01*
X131269801Y-62894700D01*
X131182199Y-62894700D01*
X131096286Y-62877611D01*
X131015357Y-62844089D01*
X131015356Y-62844089D01*
X131015355Y-62844088D01*
X130942520Y-62795421D01*
X130880579Y-62733480D01*
X130831912Y-62660645D01*
X130826178Y-62646801D01*
X130798389Y-62579714D01*
X130781300Y-62493801D01*
X130781300Y-62406199D01*
X130798389Y-62320286D01*
X130831911Y-62239357D01*
X130880578Y-62166522D01*
X130880579Y-62166520D01*
X130942520Y-62104579D01*
X131015355Y-62055912D01*
X131096286Y-62022389D01*
X131182199Y-62005300D01*
X131269801Y-62005300D01*
X131355714Y-62022389D01*
X131355714Y-62022389D01*
G37*
G36*
X131355714Y-60752389D02*
G01*
X131436645Y-60785912D01*
X131509480Y-60834579D01*
X131571421Y-60896520D01*
X131620088Y-60969355D01*
X131653611Y-61050286D01*
X131670700Y-61136201D01*
X131670700Y-61223799D01*
X131653611Y-61309714D01*
X131620088Y-61390645D01*
X131571421Y-61463480D01*
X131509480Y-61525421D01*
X131436645Y-61574088D01*
X131436644Y-61574089D01*
X131436643Y-61574089D01*
X131355714Y-61607611D01*
X131269801Y-61624700D01*
X131182199Y-61624700D01*
X131096286Y-61607611D01*
X131015357Y-61574089D01*
X131015356Y-61574089D01*
X131015355Y-61574088D01*
X130942520Y-61525421D01*
X130880579Y-61463480D01*
X130831912Y-61390645D01*
X130798389Y-61309714D01*
X130781300Y-61223799D01*
X130781300Y-61136201D01*
X130798389Y-61050286D01*
X130831912Y-60969355D01*
X130880579Y-60896520D01*
X130942520Y-60834579D01*
X131015355Y-60785912D01*
X131096286Y-60752389D01*
X131182199Y-60735300D01*
X131269801Y-60735300D01*
X131355714Y-60752389D01*
X131355714Y-60752389D01*
G37*
G36*
X131355714Y-59482389D02*
G01*
X131436645Y-59515912D01*
X131509480Y-59564579D01*
X131571421Y-59626520D01*
X131571422Y-59626522D01*
X131620089Y-59699357D01*
X131653611Y-59780286D01*
X131670700Y-59866201D01*
X131670700Y-59953799D01*
X131653611Y-60039714D01*
X131620088Y-60120645D01*
X131571421Y-60193480D01*
X131509480Y-60255421D01*
X131436645Y-60304088D01*
X131436644Y-60304089D01*
X131436643Y-60304089D01*
X131355714Y-60337611D01*
X131269801Y-60354700D01*
X131182199Y-60354700D01*
X131096286Y-60337611D01*
X131015357Y-60304089D01*
X131015356Y-60304089D01*
X131015355Y-60304088D01*
X130942520Y-60255421D01*
X130880579Y-60193480D01*
X130831912Y-60120645D01*
X130798389Y-60039714D01*
X130781300Y-59953799D01*
X130781300Y-59866201D01*
X130798389Y-59780286D01*
X130831911Y-59699357D01*
X130880578Y-59626522D01*
X130880579Y-59626520D01*
X130942520Y-59564579D01*
X131015355Y-59515912D01*
X131096286Y-59482389D01*
X131182199Y-59465300D01*
X131269801Y-59465300D01*
X131355714Y-59482389D01*
X131355714Y-59482389D01*
G37*
G36*
X131355714Y-58212389D02*
G01*
X131436645Y-58245912D01*
X131509480Y-58294579D01*
X131571421Y-58356520D01*
X131620088Y-58429355D01*
X131653611Y-58510286D01*
X131670700Y-58596201D01*
X131670700Y-58683799D01*
X131653611Y-58769714D01*
X131620088Y-58850645D01*
X131571421Y-58923480D01*
X131509480Y-58985421D01*
X131436645Y-59034088D01*
X131436644Y-59034089D01*
X131436643Y-59034089D01*
X131355714Y-59067611D01*
X131269801Y-59084700D01*
X131182199Y-59084700D01*
X131096286Y-59067611D01*
X131015357Y-59034089D01*
X131015356Y-59034089D01*
X131015355Y-59034088D01*
X130942520Y-58985421D01*
X130880579Y-58923480D01*
X130831912Y-58850645D01*
X130798389Y-58769714D01*
X130781300Y-58683799D01*
X130781300Y-58596201D01*
X130798389Y-58510286D01*
X130831912Y-58429355D01*
X130880579Y-58356520D01*
X130942520Y-58294579D01*
X131015355Y-58245912D01*
X131096286Y-58212389D01*
X131182199Y-58195300D01*
X131269801Y-58195300D01*
X131355714Y-58212389D01*
X131355714Y-58212389D01*
G37*
M02*
