G04 #@! TF.GenerationSoftware,KiCad,Pcbnew,(5.1.10-1-10_14)*
G04 #@! TF.CreationDate,2021-08-22T11:13:13-05:00*
G04 #@! TF.ProjectId,ori,6f72692e-6b69-4636-9164-5f7063625858,rev?*
G04 #@! TF.SameCoordinates,Original*
G04 #@! TF.FileFunction,Soldermask,Top*
G04 #@! TF.FilePolarity,Negative*
%FSLAX46Y46*%
G04 Gerber Fmt 4.6, Leading zero omitted, Abs format (unit mm)*
G04 Created by KiCad (PCBNEW (5.1.10-1-10_14)) date 2021-08-22 11:13:13*
%MOMM*%
%LPD*%
G01*
G04 APERTURE LIST*
%ADD10C,4.500000*%
%ADD11C,2.540000*%
%ADD12C,1.701800*%
%ADD13C,3.987800*%
%ADD14R,2.000000X2.000000*%
%ADD15C,2.000000*%
%ADD16R,2.000000X3.200000*%
%ADD17C,1.803400*%
%ADD18O,1.300000X1.900000*%
%ADD19C,0.650000*%
%ADD20O,1.300000X2.400000*%
G04 APERTURE END LIST*
D10*
X96440641Y-62706266D03*
X153590689Y-100806298D03*
X286940801Y-62706266D03*
X286940801Y-100806298D03*
X229790753Y-62706266D03*
X153590689Y-62706266D03*
X229790753Y-100806298D03*
X96440641Y-100806298D03*
X310753321Y-100806298D03*
X310753321Y-62706266D03*
D11*
X316468185Y-69691370D03*
X322818185Y-67151370D03*
D12*
X325358185Y-72231370D03*
X315198185Y-72231370D03*
D13*
X320278185Y-72231370D03*
D11*
X121205625Y-50641250D03*
X127555625Y-48101250D03*
D12*
X130095625Y-53181250D03*
X119935625Y-53181250D03*
D13*
X125015625Y-53181250D03*
D11*
X316468185Y-107791530D03*
X322818185Y-105251530D03*
D12*
X325358185Y-110331530D03*
X315198185Y-110331530D03*
D13*
X320278185Y-110331530D03*
D14*
X317752725Y-60693950D03*
D15*
X320252725Y-60693950D03*
X322752725Y-60693950D03*
D16*
X314652725Y-53193950D03*
X325852725Y-53193950D03*
D15*
X317752725Y-46193950D03*
X322752725Y-46193950D03*
G36*
G01*
X192448100Y-55649150D02*
X192448100Y-56550850D01*
G75*
G02*
X191997250Y-57001700I-450850J0D01*
G01*
X191095550Y-57001700D01*
G75*
G02*
X190644700Y-56550850I0J450850D01*
G01*
X190644700Y-55649150D01*
G75*
G02*
X191095550Y-55198300I450850J0D01*
G01*
X191997250Y-55198300D01*
G75*
G02*
X192448100Y-55649150I0J-450850D01*
G01*
G37*
D17*
X191140000Y-58640000D03*
X191546400Y-61180000D03*
X191140000Y-63720000D03*
X191546400Y-66260000D03*
X191140000Y-68800000D03*
D18*
X111189825Y-43258627D03*
D19*
X112599825Y-46907627D03*
X118379825Y-46907627D03*
D18*
X119789825Y-43258627D03*
D20*
X119789825Y-47458627D03*
X111189825Y-47458627D03*
D13*
X320278125Y-53181250D03*
D12*
X315198125Y-53181250D03*
X325358125Y-53181250D03*
D11*
X322818125Y-48101250D03*
X316468125Y-50641250D03*
X316468185Y-88741450D03*
X322818185Y-86201450D03*
D12*
X325358185Y-91281450D03*
X315198185Y-91281450D03*
D13*
X320278185Y-91281450D03*
D11*
X83105625Y-50641250D03*
X89455625Y-48101250D03*
D12*
X91995625Y-53181250D03*
X81835625Y-53181250D03*
D13*
X86915625Y-53181250D03*
D11*
X102155625Y-50641250D03*
X108505625Y-48101250D03*
D12*
X111045625Y-53181250D03*
X100885625Y-53181250D03*
D13*
X105965625Y-53181250D03*
X144065625Y-53181250D03*
D12*
X138985625Y-53181250D03*
X149145625Y-53181250D03*
D11*
X146605625Y-48101250D03*
X140255625Y-50641250D03*
X159305625Y-50641250D03*
X165655625Y-48101250D03*
D12*
X168195625Y-53181250D03*
X158035625Y-53181250D03*
D13*
X163115625Y-53181250D03*
D11*
X178355625Y-50641250D03*
X184705625Y-48101250D03*
D12*
X187245625Y-53181250D03*
X177085625Y-53181250D03*
D13*
X182165625Y-53181250D03*
D11*
X197405625Y-50641250D03*
X203755625Y-48101250D03*
D12*
X206295625Y-53181250D03*
X196135625Y-53181250D03*
D13*
X201215625Y-53181250D03*
D11*
X216455625Y-50641250D03*
X222805625Y-48101250D03*
D12*
X225345625Y-53181250D03*
X215185625Y-53181250D03*
D13*
X220265625Y-53181250D03*
D11*
X235505625Y-50641250D03*
X241855625Y-48101250D03*
D12*
X244395625Y-53181250D03*
X234235625Y-53181250D03*
D13*
X239315625Y-53181250D03*
D11*
X254555625Y-50641250D03*
X260905625Y-48101250D03*
D12*
X263445625Y-53181250D03*
X253285625Y-53181250D03*
D13*
X258365625Y-53181250D03*
D11*
X273605625Y-50641250D03*
X279955625Y-48101250D03*
D12*
X282495625Y-53181250D03*
X272335625Y-53181250D03*
D13*
X277415625Y-53181250D03*
D11*
X292655625Y-50641250D03*
X299005625Y-48101250D03*
D12*
X301545625Y-53181250D03*
X291385625Y-53181250D03*
D13*
X296465625Y-53181250D03*
D11*
X83105625Y-69691250D03*
X89455625Y-67151250D03*
D12*
X91995625Y-72231250D03*
X81835625Y-72231250D03*
D13*
X86915625Y-72231250D03*
D11*
X102155625Y-69691250D03*
X108505625Y-67151250D03*
D12*
X111045625Y-72231250D03*
X100885625Y-72231250D03*
D13*
X105965625Y-72231250D03*
D11*
X121205625Y-69691250D03*
X127555625Y-67151250D03*
D12*
X130095625Y-72231250D03*
X119935625Y-72231250D03*
D13*
X125015625Y-72231250D03*
D11*
X140260799Y-69691250D03*
X146610799Y-67151250D03*
D12*
X149150799Y-72231250D03*
X138990799Y-72231250D03*
D13*
X144070799Y-72231250D03*
D11*
X159305625Y-69691250D03*
X165655625Y-67151250D03*
D12*
X168195625Y-72231250D03*
X158035625Y-72231250D03*
D13*
X163115625Y-72231250D03*
D11*
X178355625Y-69691250D03*
X184705625Y-67151250D03*
D12*
X187245625Y-72231250D03*
X177085625Y-72231250D03*
D13*
X182165625Y-72231250D03*
D11*
X197405625Y-69691250D03*
X203755625Y-67151250D03*
D12*
X206295625Y-72231250D03*
X196135625Y-72231250D03*
D13*
X201215625Y-72231250D03*
D11*
X216455625Y-69691250D03*
X222805625Y-67151250D03*
D12*
X225345625Y-72231250D03*
X215185625Y-72231250D03*
D13*
X220265625Y-72231250D03*
D11*
X235505625Y-69691250D03*
X241855625Y-67151250D03*
D12*
X244395625Y-72231250D03*
X234235625Y-72231250D03*
D13*
X239315625Y-72231250D03*
D11*
X254555625Y-69691250D03*
X260905625Y-67151250D03*
D12*
X263445625Y-72231250D03*
X253285625Y-72231250D03*
D13*
X258365625Y-72231250D03*
D11*
X273605625Y-69691250D03*
X279955625Y-67151250D03*
D12*
X282495625Y-72231250D03*
X272335625Y-72231250D03*
D13*
X277415625Y-72231250D03*
D11*
X292655625Y-69691250D03*
X299005625Y-67151250D03*
D12*
X301545625Y-72231250D03*
X291385625Y-72231250D03*
D13*
X296465625Y-72231250D03*
D11*
X83105625Y-88741250D03*
X89455625Y-86201250D03*
D12*
X91995625Y-91281250D03*
X81835625Y-91281250D03*
D13*
X86915625Y-91281250D03*
D11*
X102155625Y-88741250D03*
X108505625Y-86201250D03*
D12*
X111045625Y-91281250D03*
X100885625Y-91281250D03*
D13*
X105965625Y-91281250D03*
D11*
X121205625Y-88741250D03*
X127555625Y-86201250D03*
D12*
X130095625Y-91281250D03*
X119935625Y-91281250D03*
D13*
X125015625Y-91281250D03*
D11*
X140255625Y-88741250D03*
X146605625Y-86201250D03*
D12*
X149145625Y-91281250D03*
X138985625Y-91281250D03*
D13*
X144065625Y-91281250D03*
D11*
X159305625Y-88741250D03*
X165655625Y-86201250D03*
D12*
X168195625Y-91281250D03*
X158035625Y-91281250D03*
D13*
X163115625Y-91281250D03*
D11*
X178355625Y-88741250D03*
X184705625Y-86201250D03*
D12*
X187245625Y-91281250D03*
X177085625Y-91281250D03*
D13*
X182165625Y-91281250D03*
D11*
X216455625Y-88741250D03*
X222805625Y-86201250D03*
D12*
X225345625Y-91281250D03*
X215185625Y-91281250D03*
D13*
X220265625Y-91281250D03*
D11*
X235505625Y-88741250D03*
X241855625Y-86201250D03*
D12*
X244395625Y-91281250D03*
X234235625Y-91281250D03*
D13*
X239315625Y-91281250D03*
D11*
X254555625Y-88741250D03*
X260905625Y-86201250D03*
D12*
X263445625Y-91281250D03*
X253285625Y-91281250D03*
D13*
X258365625Y-91281250D03*
D11*
X273605625Y-88741250D03*
X279955625Y-86201250D03*
D12*
X282495625Y-91281250D03*
X272335625Y-91281250D03*
D13*
X277415625Y-91281250D03*
D11*
X83105625Y-107791250D03*
X89455625Y-105251250D03*
D12*
X91995625Y-110331250D03*
X81835625Y-110331250D03*
D13*
X86915625Y-110331250D03*
D11*
X102155625Y-107791250D03*
X108505625Y-105251250D03*
D12*
X111045625Y-110331250D03*
X100885625Y-110331250D03*
D13*
X105965625Y-110331250D03*
D11*
X121205625Y-107791250D03*
X127555625Y-105251250D03*
D12*
X130095625Y-110331250D03*
X119935625Y-110331250D03*
D13*
X125015625Y-110331250D03*
D11*
X140255625Y-107791250D03*
X146605625Y-105251250D03*
D12*
X149145625Y-110331250D03*
X138985625Y-110331250D03*
D13*
X144065625Y-110331250D03*
D11*
X159305625Y-107791250D03*
X165655625Y-105251250D03*
D12*
X168195625Y-110331250D03*
X158035625Y-110331250D03*
D13*
X163115625Y-110331250D03*
D11*
X178355625Y-107791250D03*
X184705625Y-105251250D03*
D12*
X187245625Y-110331250D03*
X177085625Y-110331250D03*
D13*
X182165625Y-110331250D03*
D11*
X216455625Y-107791250D03*
X222805625Y-105251250D03*
D12*
X225345625Y-110331250D03*
X215185625Y-110331250D03*
D13*
X220265625Y-110331250D03*
D11*
X235505625Y-107791250D03*
X241855625Y-105251250D03*
D12*
X244395625Y-110331250D03*
X234235625Y-110331250D03*
D13*
X239315625Y-110331250D03*
D11*
X254555625Y-107791250D03*
X260905625Y-105251250D03*
D12*
X263445625Y-110331250D03*
X253285625Y-110331250D03*
D13*
X258365625Y-110331250D03*
D11*
X273605625Y-107791250D03*
X279955625Y-105251250D03*
D12*
X282495625Y-110331250D03*
X272335625Y-110331250D03*
D13*
X277415625Y-110331250D03*
D11*
X197405625Y-88741250D03*
X203755625Y-86201250D03*
D12*
X206295625Y-91281250D03*
X196135625Y-91281250D03*
D13*
X201215625Y-91281250D03*
D11*
X197405625Y-107791250D03*
X203755625Y-105251250D03*
D12*
X206295625Y-110331250D03*
X196135625Y-110331250D03*
D13*
X201215625Y-110331250D03*
D11*
X292655625Y-88741250D03*
X299005625Y-86201250D03*
D12*
X301545625Y-91281250D03*
X291385625Y-91281250D03*
D13*
X296465625Y-91281250D03*
D11*
X292655625Y-107791250D03*
X299005625Y-105251250D03*
D12*
X301545625Y-110331250D03*
X291385625Y-110331250D03*
D13*
X296465625Y-110331250D03*
M02*
