G04 #@! TF.GenerationSoftware,KiCad,Pcbnew,(5.1.10-1-10_14)*
G04 #@! TF.CreationDate,2021-08-22T11:13:13-05:00*
G04 #@! TF.ProjectId,ori,6f72692e-6b69-4636-9164-5f7063625858,rev?*
G04 #@! TF.SameCoordinates,Original*
G04 #@! TF.FileFunction,Legend,Top*
G04 #@! TF.FilePolarity,Positive*
%FSLAX46Y46*%
G04 Gerber Fmt 4.6, Leading zero omitted, Abs format (unit mm)*
G04 Created by KiCad (PCBNEW (5.1.10-1-10_14)) date 2021-08-22 11:13:13*
%MOMM*%
%LPD*%
G01*
G04 APERTURE LIST*
%ADD10C,0.200000*%
%ADD11C,0.150000*%
%ADD12C,0.120000*%
%ADD13C,4.500000*%
%ADD14C,2.540000*%
%ADD15C,1.701800*%
%ADD16C,3.987800*%
%ADD17R,2.000000X2.000000*%
%ADD18C,2.000000*%
%ADD19R,2.000000X3.200000*%
%ADD20C,1.803400*%
%ADD21O,1.300000X1.900000*%
%ADD22C,0.650000*%
%ADD23O,1.300000X2.400000*%
G04 APERTURE END LIST*
D10*
X106919407Y-115815476D02*
X107157502Y-115815476D01*
X107276550Y-115875000D01*
X107395597Y-115994047D01*
X107455121Y-116232142D01*
X107455121Y-116648809D01*
X107395597Y-116886904D01*
X107276550Y-117005952D01*
X107157502Y-117065476D01*
X106919407Y-117065476D01*
X106800359Y-117005952D01*
X106681312Y-116886904D01*
X106621788Y-116648809D01*
X106621788Y-116232142D01*
X106681312Y-115994047D01*
X106800359Y-115875000D01*
X106919407Y-115815476D01*
X107990835Y-117065476D02*
X107990835Y-116232142D01*
X107990835Y-116470238D02*
X108050359Y-116351190D01*
X108109883Y-116291666D01*
X108228931Y-116232142D01*
X108347978Y-116232142D01*
X108764645Y-117065476D02*
X108764645Y-116232142D01*
X108764645Y-115815476D02*
X108705121Y-115875000D01*
X108764645Y-115934523D01*
X108824169Y-115875000D01*
X108764645Y-115815476D01*
X108764645Y-115934523D01*
X111026550Y-117065476D02*
X110609883Y-116470238D01*
X110312264Y-117065476D02*
X110312264Y-115815476D01*
X110788454Y-115815476D01*
X110907502Y-115875000D01*
X110967026Y-115934523D01*
X111026550Y-116053571D01*
X111026550Y-116232142D01*
X110967026Y-116351190D01*
X110907502Y-116410714D01*
X110788454Y-116470238D01*
X110312264Y-116470238D01*
X112038454Y-117005952D02*
X111919407Y-117065476D01*
X111681312Y-117065476D01*
X111562264Y-117005952D01*
X111502740Y-116886904D01*
X111502740Y-116410714D01*
X111562264Y-116291666D01*
X111681312Y-116232142D01*
X111919407Y-116232142D01*
X112038454Y-116291666D01*
X112097978Y-116410714D01*
X112097978Y-116529761D01*
X111502740Y-116648809D01*
X112514645Y-116232142D02*
X112812264Y-117065476D01*
X113109883Y-116232142D01*
X113586073Y-116946428D02*
X113645597Y-117005952D01*
X113586073Y-117065476D01*
X113526550Y-117005952D01*
X113586073Y-116946428D01*
X113586073Y-117065476D01*
X115788454Y-117065476D02*
X115074169Y-117065476D01*
X115431312Y-117065476D02*
X115431312Y-115815476D01*
X115312264Y-115994047D01*
X115193216Y-116113095D01*
X115074169Y-116172619D01*
X116324169Y-116946428D02*
X116383692Y-117005952D01*
X116324169Y-117065476D01*
X116264645Y-117005952D01*
X116324169Y-116946428D01*
X116324169Y-117065476D01*
X117157502Y-115815476D02*
X117276550Y-115815476D01*
X117395597Y-115875000D01*
X117455121Y-115934523D01*
X117514645Y-116053571D01*
X117574169Y-116291666D01*
X117574169Y-116589285D01*
X117514645Y-116827380D01*
X117455121Y-116946428D01*
X117395597Y-117005952D01*
X117276550Y-117065476D01*
X117157502Y-117065476D01*
X117038454Y-117005952D01*
X116978931Y-116946428D01*
X116919407Y-116827380D01*
X116859883Y-116589285D01*
X116859883Y-116291666D01*
X116919407Y-116053571D01*
X116978931Y-115934523D01*
X117038454Y-115875000D01*
X117157502Y-115815476D01*
X119002740Y-115934523D02*
X119062264Y-115875000D01*
X119181312Y-115815476D01*
X119478931Y-115815476D01*
X119597978Y-115875000D01*
X119657502Y-115934523D01*
X119717026Y-116053571D01*
X119717026Y-116172619D01*
X119657502Y-116351190D01*
X118943216Y-117065476D01*
X119717026Y-117065476D01*
X120490835Y-115815476D02*
X120609883Y-115815476D01*
X120728931Y-115875000D01*
X120788454Y-115934523D01*
X120847978Y-116053571D01*
X120907502Y-116291666D01*
X120907502Y-116589285D01*
X120847978Y-116827380D01*
X120788454Y-116946428D01*
X120728931Y-117005952D01*
X120609883Y-117065476D01*
X120490835Y-117065476D01*
X120371788Y-117005952D01*
X120312264Y-116946428D01*
X120252740Y-116827380D01*
X120193216Y-116589285D01*
X120193216Y-116291666D01*
X120252740Y-116053571D01*
X120312264Y-115934523D01*
X120371788Y-115875000D01*
X120490835Y-115815476D01*
X121383692Y-115934523D02*
X121443216Y-115875000D01*
X121562264Y-115815476D01*
X121859883Y-115815476D01*
X121978931Y-115875000D01*
X122038454Y-115934523D01*
X122097978Y-116053571D01*
X122097978Y-116172619D01*
X122038454Y-116351190D01*
X121324169Y-117065476D01*
X122097978Y-117065476D01*
X123288454Y-117065476D02*
X122574169Y-117065476D01*
X122931312Y-117065476D02*
X122931312Y-115815476D01*
X122812264Y-115994047D01*
X122693216Y-116113095D01*
X122574169Y-116172619D01*
X123824169Y-116946428D02*
X123883692Y-117005952D01*
X123824169Y-117065476D01*
X123764645Y-117005952D01*
X123824169Y-116946428D01*
X123824169Y-117065476D01*
X124657502Y-115815476D02*
X124776550Y-115815476D01*
X124895597Y-115875000D01*
X124955121Y-115934523D01*
X125014645Y-116053571D01*
X125074169Y-116291666D01*
X125074169Y-116589285D01*
X125014645Y-116827380D01*
X124955121Y-116946428D01*
X124895597Y-117005952D01*
X124776550Y-117065476D01*
X124657502Y-117065476D01*
X124538454Y-117005952D01*
X124478931Y-116946428D01*
X124419407Y-116827380D01*
X124359883Y-116589285D01*
X124359883Y-116291666D01*
X124419407Y-116053571D01*
X124478931Y-115934523D01*
X124538454Y-115875000D01*
X124657502Y-115815476D01*
X125788454Y-116351190D02*
X125669407Y-116291666D01*
X125609883Y-116232142D01*
X125550359Y-116113095D01*
X125550359Y-116053571D01*
X125609883Y-115934523D01*
X125669407Y-115875000D01*
X125788454Y-115815476D01*
X126026550Y-115815476D01*
X126145597Y-115875000D01*
X126205121Y-115934523D01*
X126264645Y-116053571D01*
X126264645Y-116113095D01*
X126205121Y-116232142D01*
X126145597Y-116291666D01*
X126026550Y-116351190D01*
X125788454Y-116351190D01*
X125669407Y-116410714D01*
X125609883Y-116470238D01*
X125550359Y-116589285D01*
X125550359Y-116827380D01*
X125609883Y-116946428D01*
X125669407Y-117005952D01*
X125788454Y-117065476D01*
X126026550Y-117065476D01*
X126145597Y-117005952D01*
X126205121Y-116946428D01*
X126264645Y-116827380D01*
X126264645Y-116589285D01*
X126205121Y-116470238D01*
X126145597Y-116410714D01*
X126026550Y-116351190D01*
X126800359Y-116946428D02*
X126859883Y-117005952D01*
X126800359Y-117065476D01*
X126740835Y-117005952D01*
X126800359Y-116946428D01*
X126800359Y-117065476D01*
X127336073Y-115934523D02*
X127395597Y-115875000D01*
X127514645Y-115815476D01*
X127812264Y-115815476D01*
X127931312Y-115875000D01*
X127990835Y-115934523D01*
X128050359Y-116053571D01*
X128050359Y-116172619D01*
X127990835Y-116351190D01*
X127276550Y-117065476D01*
X128050359Y-117065476D01*
X128526550Y-115934523D02*
X128586073Y-115875000D01*
X128705121Y-115815476D01*
X129002740Y-115815476D01*
X129121788Y-115875000D01*
X129181312Y-115934523D01*
X129240835Y-116053571D01*
X129240835Y-116172619D01*
X129181312Y-116351190D01*
X128467026Y-117065476D01*
X129240835Y-117065476D01*
D11*
X296013577Y-115736694D02*
X296013577Y-116450980D01*
X295965958Y-116593837D01*
X295870720Y-116689075D01*
X295727863Y-116736694D01*
X295632625Y-116736694D01*
X296965958Y-116736694D02*
X296489767Y-116736694D01*
X296489767Y-115736694D01*
X297870720Y-116641456D02*
X297823101Y-116689075D01*
X297680244Y-116736694D01*
X297585005Y-116736694D01*
X297442148Y-116689075D01*
X297346910Y-116593837D01*
X297299291Y-116498599D01*
X297251672Y-116308123D01*
X297251672Y-116165266D01*
X297299291Y-115974790D01*
X297346910Y-115879552D01*
X297442148Y-115784314D01*
X297585005Y-115736694D01*
X297680244Y-115736694D01*
X297823101Y-115784314D01*
X297870720Y-115831933D01*
X298585005Y-115736694D02*
X298585005Y-116450980D01*
X298537386Y-116593837D01*
X298442148Y-116689075D01*
X298299291Y-116736694D01*
X298204053Y-116736694D01*
X299537386Y-116736694D02*
X299061196Y-116736694D01*
X299061196Y-115736694D01*
X300442148Y-116641456D02*
X300394529Y-116689075D01*
X300251672Y-116736694D01*
X300156434Y-116736694D01*
X300013577Y-116689075D01*
X299918339Y-116593837D01*
X299870720Y-116498599D01*
X299823101Y-116308123D01*
X299823101Y-116165266D01*
X299870720Y-115974790D01*
X299918339Y-115879552D01*
X300013577Y-115784314D01*
X300156434Y-115736694D01*
X300251672Y-115736694D01*
X300394529Y-115784314D01*
X300442148Y-115831933D01*
X301156434Y-115736694D02*
X301156434Y-116450980D01*
X301108815Y-116593837D01*
X301013577Y-116689075D01*
X300870720Y-116736694D01*
X300775482Y-116736694D01*
X302108815Y-116736694D02*
X301632625Y-116736694D01*
X301632625Y-115736694D01*
X303013577Y-116641456D02*
X302965958Y-116689075D01*
X302823101Y-116736694D01*
X302727863Y-116736694D01*
X302585005Y-116689075D01*
X302489767Y-116593837D01*
X302442148Y-116498599D01*
X302394529Y-116308123D01*
X302394529Y-116165266D01*
X302442148Y-115974790D01*
X302489767Y-115879552D01*
X302585005Y-115784314D01*
X302727863Y-115736694D01*
X302823101Y-115736694D01*
X302965958Y-115784314D01*
X303013577Y-115831933D01*
X303727863Y-115736694D02*
X303727863Y-116450980D01*
X303680244Y-116593837D01*
X303585005Y-116689075D01*
X303442148Y-116736694D01*
X303346910Y-116736694D01*
X304680244Y-116736694D02*
X304204053Y-116736694D01*
X304204053Y-115736694D01*
X305585005Y-116641456D02*
X305537386Y-116689075D01*
X305394529Y-116736694D01*
X305299291Y-116736694D01*
X305156434Y-116689075D01*
X305061196Y-116593837D01*
X305013577Y-116498599D01*
X304965958Y-116308123D01*
X304965958Y-116165266D01*
X305013577Y-115974790D01*
X305061196Y-115879552D01*
X305156434Y-115784314D01*
X305299291Y-115736694D01*
X305394529Y-115736694D01*
X305537386Y-115784314D01*
X305585005Y-115831933D01*
D12*
X323252725Y-53193950D02*
G75*
G03*
X323252725Y-53193950I-3000000J0D01*
G01*
X314352725Y-51193950D02*
X314352725Y-47093950D01*
X326152725Y-47093950D02*
X326152725Y-51193950D01*
X326152725Y-55193950D02*
X326152725Y-59293950D01*
X314352725Y-55193950D02*
X314352725Y-59293950D01*
X314352725Y-59293950D02*
X326152725Y-59293950D01*
X316452725Y-60693950D02*
X316152725Y-60993950D01*
X316152725Y-60993950D02*
X316152725Y-60393950D01*
X316152725Y-60393950D02*
X316452725Y-60693950D01*
X314352725Y-47093950D02*
X316752725Y-47093950D01*
X318952725Y-47093950D02*
X321552725Y-47093950D01*
X323752725Y-47093950D02*
X326152725Y-47093950D01*
%LPC*%
D13*
X96440641Y-62706266D03*
X153590689Y-100806298D03*
X286940801Y-62706266D03*
X286940801Y-100806298D03*
X229790753Y-62706266D03*
X153590689Y-62706266D03*
X229790753Y-100806298D03*
X96440641Y-100806298D03*
X310753321Y-100806298D03*
X310753321Y-62706266D03*
D14*
X316468185Y-69691370D03*
X322818185Y-67151370D03*
D15*
X325358185Y-72231370D03*
X315198185Y-72231370D03*
D16*
X320278185Y-72231370D03*
D14*
X121205625Y-50641250D03*
X127555625Y-48101250D03*
D15*
X130095625Y-53181250D03*
X119935625Y-53181250D03*
D16*
X125015625Y-53181250D03*
D14*
X316468185Y-107791530D03*
X322818185Y-105251530D03*
D15*
X325358185Y-110331530D03*
X315198185Y-110331530D03*
D16*
X320278185Y-110331530D03*
D17*
X317752725Y-60693950D03*
D18*
X320252725Y-60693950D03*
X322752725Y-60693950D03*
D19*
X314652725Y-53193950D03*
X325852725Y-53193950D03*
D18*
X317752725Y-46193950D03*
X322752725Y-46193950D03*
G36*
G01*
X192448100Y-55649150D02*
X192448100Y-56550850D01*
G75*
G02*
X191997250Y-57001700I-450850J0D01*
G01*
X191095550Y-57001700D01*
G75*
G02*
X190644700Y-56550850I0J450850D01*
G01*
X190644700Y-55649150D01*
G75*
G02*
X191095550Y-55198300I450850J0D01*
G01*
X191997250Y-55198300D01*
G75*
G02*
X192448100Y-55649150I0J-450850D01*
G01*
G37*
D20*
X191140000Y-58640000D03*
X191546400Y-61180000D03*
X191140000Y-63720000D03*
X191546400Y-66260000D03*
X191140000Y-68800000D03*
D21*
X111189825Y-43258627D03*
D22*
X112599825Y-46907627D03*
X118379825Y-46907627D03*
D21*
X119789825Y-43258627D03*
D23*
X119789825Y-47458627D03*
X111189825Y-47458627D03*
D16*
X320278125Y-53181250D03*
D15*
X315198125Y-53181250D03*
X325358125Y-53181250D03*
D14*
X322818125Y-48101250D03*
X316468125Y-50641250D03*
X316468185Y-88741450D03*
X322818185Y-86201450D03*
D15*
X325358185Y-91281450D03*
X315198185Y-91281450D03*
D16*
X320278185Y-91281450D03*
D14*
X83105625Y-50641250D03*
X89455625Y-48101250D03*
D15*
X91995625Y-53181250D03*
X81835625Y-53181250D03*
D16*
X86915625Y-53181250D03*
D14*
X102155625Y-50641250D03*
X108505625Y-48101250D03*
D15*
X111045625Y-53181250D03*
X100885625Y-53181250D03*
D16*
X105965625Y-53181250D03*
X144065625Y-53181250D03*
D15*
X138985625Y-53181250D03*
X149145625Y-53181250D03*
D14*
X146605625Y-48101250D03*
X140255625Y-50641250D03*
X159305625Y-50641250D03*
X165655625Y-48101250D03*
D15*
X168195625Y-53181250D03*
X158035625Y-53181250D03*
D16*
X163115625Y-53181250D03*
D14*
X178355625Y-50641250D03*
X184705625Y-48101250D03*
D15*
X187245625Y-53181250D03*
X177085625Y-53181250D03*
D16*
X182165625Y-53181250D03*
D14*
X197405625Y-50641250D03*
X203755625Y-48101250D03*
D15*
X206295625Y-53181250D03*
X196135625Y-53181250D03*
D16*
X201215625Y-53181250D03*
D14*
X216455625Y-50641250D03*
X222805625Y-48101250D03*
D15*
X225345625Y-53181250D03*
X215185625Y-53181250D03*
D16*
X220265625Y-53181250D03*
D14*
X235505625Y-50641250D03*
X241855625Y-48101250D03*
D15*
X244395625Y-53181250D03*
X234235625Y-53181250D03*
D16*
X239315625Y-53181250D03*
D14*
X254555625Y-50641250D03*
X260905625Y-48101250D03*
D15*
X263445625Y-53181250D03*
X253285625Y-53181250D03*
D16*
X258365625Y-53181250D03*
D14*
X273605625Y-50641250D03*
X279955625Y-48101250D03*
D15*
X282495625Y-53181250D03*
X272335625Y-53181250D03*
D16*
X277415625Y-53181250D03*
D14*
X292655625Y-50641250D03*
X299005625Y-48101250D03*
D15*
X301545625Y-53181250D03*
X291385625Y-53181250D03*
D16*
X296465625Y-53181250D03*
D14*
X83105625Y-69691250D03*
X89455625Y-67151250D03*
D15*
X91995625Y-72231250D03*
X81835625Y-72231250D03*
D16*
X86915625Y-72231250D03*
D14*
X102155625Y-69691250D03*
X108505625Y-67151250D03*
D15*
X111045625Y-72231250D03*
X100885625Y-72231250D03*
D16*
X105965625Y-72231250D03*
D14*
X121205625Y-69691250D03*
X127555625Y-67151250D03*
D15*
X130095625Y-72231250D03*
X119935625Y-72231250D03*
D16*
X125015625Y-72231250D03*
D14*
X140260799Y-69691250D03*
X146610799Y-67151250D03*
D15*
X149150799Y-72231250D03*
X138990799Y-72231250D03*
D16*
X144070799Y-72231250D03*
D14*
X159305625Y-69691250D03*
X165655625Y-67151250D03*
D15*
X168195625Y-72231250D03*
X158035625Y-72231250D03*
D16*
X163115625Y-72231250D03*
D14*
X178355625Y-69691250D03*
X184705625Y-67151250D03*
D15*
X187245625Y-72231250D03*
X177085625Y-72231250D03*
D16*
X182165625Y-72231250D03*
D14*
X197405625Y-69691250D03*
X203755625Y-67151250D03*
D15*
X206295625Y-72231250D03*
X196135625Y-72231250D03*
D16*
X201215625Y-72231250D03*
D14*
X216455625Y-69691250D03*
X222805625Y-67151250D03*
D15*
X225345625Y-72231250D03*
X215185625Y-72231250D03*
D16*
X220265625Y-72231250D03*
D14*
X235505625Y-69691250D03*
X241855625Y-67151250D03*
D15*
X244395625Y-72231250D03*
X234235625Y-72231250D03*
D16*
X239315625Y-72231250D03*
D14*
X254555625Y-69691250D03*
X260905625Y-67151250D03*
D15*
X263445625Y-72231250D03*
X253285625Y-72231250D03*
D16*
X258365625Y-72231250D03*
D14*
X273605625Y-69691250D03*
X279955625Y-67151250D03*
D15*
X282495625Y-72231250D03*
X272335625Y-72231250D03*
D16*
X277415625Y-72231250D03*
D14*
X292655625Y-69691250D03*
X299005625Y-67151250D03*
D15*
X301545625Y-72231250D03*
X291385625Y-72231250D03*
D16*
X296465625Y-72231250D03*
D14*
X83105625Y-88741250D03*
X89455625Y-86201250D03*
D15*
X91995625Y-91281250D03*
X81835625Y-91281250D03*
D16*
X86915625Y-91281250D03*
D14*
X102155625Y-88741250D03*
X108505625Y-86201250D03*
D15*
X111045625Y-91281250D03*
X100885625Y-91281250D03*
D16*
X105965625Y-91281250D03*
D14*
X121205625Y-88741250D03*
X127555625Y-86201250D03*
D15*
X130095625Y-91281250D03*
X119935625Y-91281250D03*
D16*
X125015625Y-91281250D03*
D14*
X140255625Y-88741250D03*
X146605625Y-86201250D03*
D15*
X149145625Y-91281250D03*
X138985625Y-91281250D03*
D16*
X144065625Y-91281250D03*
D14*
X159305625Y-88741250D03*
X165655625Y-86201250D03*
D15*
X168195625Y-91281250D03*
X158035625Y-91281250D03*
D16*
X163115625Y-91281250D03*
D14*
X178355625Y-88741250D03*
X184705625Y-86201250D03*
D15*
X187245625Y-91281250D03*
X177085625Y-91281250D03*
D16*
X182165625Y-91281250D03*
D14*
X216455625Y-88741250D03*
X222805625Y-86201250D03*
D15*
X225345625Y-91281250D03*
X215185625Y-91281250D03*
D16*
X220265625Y-91281250D03*
D14*
X235505625Y-88741250D03*
X241855625Y-86201250D03*
D15*
X244395625Y-91281250D03*
X234235625Y-91281250D03*
D16*
X239315625Y-91281250D03*
D14*
X254555625Y-88741250D03*
X260905625Y-86201250D03*
D15*
X263445625Y-91281250D03*
X253285625Y-91281250D03*
D16*
X258365625Y-91281250D03*
D14*
X273605625Y-88741250D03*
X279955625Y-86201250D03*
D15*
X282495625Y-91281250D03*
X272335625Y-91281250D03*
D16*
X277415625Y-91281250D03*
D14*
X83105625Y-107791250D03*
X89455625Y-105251250D03*
D15*
X91995625Y-110331250D03*
X81835625Y-110331250D03*
D16*
X86915625Y-110331250D03*
D14*
X102155625Y-107791250D03*
X108505625Y-105251250D03*
D15*
X111045625Y-110331250D03*
X100885625Y-110331250D03*
D16*
X105965625Y-110331250D03*
D14*
X121205625Y-107791250D03*
X127555625Y-105251250D03*
D15*
X130095625Y-110331250D03*
X119935625Y-110331250D03*
D16*
X125015625Y-110331250D03*
D14*
X140255625Y-107791250D03*
X146605625Y-105251250D03*
D15*
X149145625Y-110331250D03*
X138985625Y-110331250D03*
D16*
X144065625Y-110331250D03*
D14*
X159305625Y-107791250D03*
X165655625Y-105251250D03*
D15*
X168195625Y-110331250D03*
X158035625Y-110331250D03*
D16*
X163115625Y-110331250D03*
D14*
X178355625Y-107791250D03*
X184705625Y-105251250D03*
D15*
X187245625Y-110331250D03*
X177085625Y-110331250D03*
D16*
X182165625Y-110331250D03*
D14*
X216455625Y-107791250D03*
X222805625Y-105251250D03*
D15*
X225345625Y-110331250D03*
X215185625Y-110331250D03*
D16*
X220265625Y-110331250D03*
D14*
X235505625Y-107791250D03*
X241855625Y-105251250D03*
D15*
X244395625Y-110331250D03*
X234235625Y-110331250D03*
D16*
X239315625Y-110331250D03*
D14*
X254555625Y-107791250D03*
X260905625Y-105251250D03*
D15*
X263445625Y-110331250D03*
X253285625Y-110331250D03*
D16*
X258365625Y-110331250D03*
D14*
X273605625Y-107791250D03*
X279955625Y-105251250D03*
D15*
X282495625Y-110331250D03*
X272335625Y-110331250D03*
D16*
X277415625Y-110331250D03*
D14*
X197405625Y-88741250D03*
X203755625Y-86201250D03*
D15*
X206295625Y-91281250D03*
X196135625Y-91281250D03*
D16*
X201215625Y-91281250D03*
D14*
X197405625Y-107791250D03*
X203755625Y-105251250D03*
D15*
X206295625Y-110331250D03*
X196135625Y-110331250D03*
D16*
X201215625Y-110331250D03*
D14*
X292655625Y-88741250D03*
X299005625Y-86201250D03*
D15*
X301545625Y-91281250D03*
X291385625Y-91281250D03*
D16*
X296465625Y-91281250D03*
D14*
X292655625Y-107791250D03*
X299005625Y-105251250D03*
D15*
X301545625Y-110331250D03*
X291385625Y-110331250D03*
D16*
X296465625Y-110331250D03*
M02*
