M48
; DRILL file {KiCad 7.0.1-0} date 2023 August 02, Wednesday 22:09:26
; FORMAT={-:-/ absolute / inch / decimal}
; #@! TF.CreationDate,2023-08-02T22:09:26-05:00
; #@! TF.GenerationSoftware,Kicad,Pcbnew,7.0.1-0
; #@! TF.FileFunction,Plated,1,2,PTH
FMAT,2
INCH
; #@! TA.AperFunction,Plated,PTH,ViaDrill
T1C0.0160
; #@! TA.AperFunction,Plated,PTH,ComponentDrill
T2C0.0300
; #@! TA.AperFunction,Plated,PTH,ComponentDrill
T3C0.0394
; #@! TA.AperFunction,Plated,PTH,ComponentDrill
T4C0.1181
%
G90
G05
T1
X0.9808Y-1.6063
X1.0615Y-2.0187
X1.0645Y-2.7579
X1.0655Y-3.1112
X1.0664Y-1.2559
X1.1658Y-2.7579
X1.1668Y-3.1112
X1.1678Y-1.2559
X1.1816Y-2.1258
X1.1823Y-2.1797
X1.185Y-2.0718
X1.1855Y-2.0187
X1.2072Y-2.9813
X1.2101Y-2.2067
X1.2105Y-2.1527
X1.2165Y-2.0988
X1.3312Y-2.9813
X1.3893Y-1.3612
X1.4473Y-1.997
X1.4882Y-2.2579
X1.5236Y-2.3199
X1.5566Y-2.8504
X1.5802Y-1.5541
X1.6038Y-2.5089
X1.7106Y-1.8868
X1.7362Y-2.7687
X1.8533Y-1.44
X1.8661Y-1.8868
X1.8976Y-1.8484
X1.9291Y-1.8711
X1.937Y-2.7687
X1.9478Y-2.6102
X1.9528Y-2.8504
X1.9606Y-1.8465
X1.9813Y-1.6506
X1.9921Y-1.872
X2.0512Y-3.5
X2.0512Y-3.6014
X2.06Y-2.9311
X2.06Y-3.1319
X2.0913Y-1.9427
X2.1004Y-2.0246
X2.1023Y-1.3593
X2.2283Y-2.1841
X2.2293Y-1.9852
X2.2835Y-1.251
X2.311Y-1.4085
X2.311Y-1.5187
X2.3898Y-1.4085
X2.3898Y-1.5187
X2.4695Y-1.4085
X2.4695Y-1.5187
X2.4833Y-1.2461
X2.561Y-1.2451
X2.561Y-1.4085
X2.561Y-1.5187
X2.5876Y-2.2402
X2.5906Y-2.1339
X2.7982Y-2.753
X2.7982Y-2.8543
X2.7982Y-2.9311
X2.7982Y-3.1319
X2.7982Y-3.501
X2.7982Y-3.6024
X2.8179Y-1.4646
X2.8858Y-2.002
X2.8858Y-2.1033
X2.8868Y-2.3027
X2.8868Y-2.4316
X3.5502Y-1.252
X3.5502Y-1.3533
X3.5502Y-2.001
X3.5502Y-2.1024
X3.5502Y-2.3022
X3.5502Y-2.4311
X3.5502Y-2.752
X3.5502Y-2.8533
X3.5502Y-2.9301
X3.5502Y-3.1309
X3.5502Y-3.5
X3.5502Y-3.6014
X3.7406Y-2.3278
X4.3189Y-1.252
X4.3189Y-1.3533
X4.3189Y-2.001
X4.3189Y-2.1024
X4.3189Y-2.752
X4.3189Y-2.8533
X4.3189Y-2.9311
X4.3189Y-3.1319
X4.3189Y-3.5
X4.3189Y-3.6014
X4.3258Y-2.3159
X4.3258Y-2.438
X4.4906Y-2.3356
X5.061Y-2.9301
X5.061Y-3.1309
X5.062Y-1.252
X5.062Y-1.3533
X5.062Y-2.001
X5.062Y-2.1024
X5.062Y-2.3307
X5.062Y-2.4321
X5.062Y-2.752
X5.062Y-2.8533
X5.062Y-3.5
X5.062Y-3.6014
X5.2406Y-2.3583
X5.814Y-1.252
X5.814Y-1.3533
X5.814Y-2.001
X5.814Y-2.1024
X5.814Y-2.752
X5.814Y-2.8533
X5.814Y-2.9291
X5.814Y-3.1299
X5.814Y-3.5
X5.814Y-3.6014
X5.8189Y-2.3376
X5.8189Y-2.439
X5.9906Y-2.377
X6.5659Y-1.252
X6.5659Y-1.3533
X6.5659Y-2.001
X6.5659Y-2.1024
X6.5659Y-2.752
X6.5659Y-2.8533
X6.5659Y-2.9291
X6.5659Y-3.1299
X6.5659Y-3.5
X6.5659Y-3.6014
X6.7406Y-2.9705
X7.3169Y-1.252
X7.3169Y-1.3533
X7.3169Y-2.001
X7.3169Y-2.1024
X7.3169Y-2.752
X7.3169Y-2.8533
X7.3169Y-2.9488
X7.3169Y-3.122
X7.3169Y-3.5
X7.3169Y-3.6014
X7.4906Y-2.9929
X8.063Y-1.252
X8.063Y-1.3533
X8.063Y-2.001
X8.063Y-2.1024
X8.063Y-2.752
X8.063Y-2.8533
X8.063Y-2.9744
X8.063Y-3.1181
X8.063Y-3.5
X8.063Y-3.6014
X8.2406Y-3.0089
X8.8169Y-1.252
X8.8169Y-1.3533
X8.8169Y-2.001
X8.8169Y-2.1024
X8.8169Y-2.752
X8.8169Y-2.8533
X8.8169Y-2.9931
X8.8169Y-3.1152
X8.8169Y-3.5
X8.8169Y-3.6014
X8.9906Y-3.0217
X9.5669Y-1.252
X9.5669Y-1.3533
X9.5669Y-2.001
X9.5669Y-2.1024
X9.5669Y-2.752
X9.5669Y-2.8533
X9.5669Y-3.0108
X9.5669Y-3.1122
X9.5669Y-3.5
X9.5669Y-3.6014
X9.7406Y-3.0409
X10.314Y-1.252
X10.314Y-1.3533
X10.314Y-2.001
X10.314Y-2.1024
X10.314Y-2.752
X10.314Y-2.8533
X10.314Y-3.0187
X10.314Y-3.1201
X10.314Y-3.5
X10.314Y-3.6014
X10.4906Y-3.0679
T2
X1.9252Y-0.9094
X1.9252Y-1.0094
X1.9252Y-1.1094
X1.9252Y-1.2094
X1.9252Y-1.3094
X1.9252Y-1.4094
T3
X1.0063Y-3.6841
X1.1063Y-3.6841
X1.2063Y-3.6841
X1.3063Y-3.6841
X1.4063Y-3.6841
X1.5063Y-3.6841
X1.6063Y-3.6841
X1.7063Y-3.6841
T4
X1.1156Y-1.0719
X1.1156Y-1.8219
X1.1156Y-2.5719
X1.1156Y-3.3219
X1.3656Y-0.9719
X1.3656Y-1.7219
X1.3656Y-2.4719
X1.3656Y-3.2219
X2.2406Y-1.0719
X2.2406Y-1.8219
X2.2406Y-2.5719
X2.2406Y-3.3219
X2.4906Y-0.9719
X2.4906Y-1.7219
X2.4906Y-2.4719
X2.4906Y-3.2219
X2.9906Y-1.0719
X2.9906Y-1.8219
X2.9906Y-2.5719
X2.9906Y-3.3219
X3.2406Y-0.9719
X3.2406Y-1.7219
X3.2406Y-2.4719
X3.2406Y-3.2219
X3.7406Y-1.0719
X3.7406Y-1.8219
X3.7406Y-2.5719
X3.7406Y-3.3219
X3.9906Y-0.9719
X3.9906Y-1.7219
X3.9906Y-2.4719
X3.9906Y-3.2219
X4.4906Y-1.0719
X4.4906Y-1.8219
X4.4906Y-2.5719
X4.4906Y-3.3219
X4.7406Y-0.9719
X4.7406Y-1.7219
X4.7406Y-2.4719
X4.7406Y-3.2219
X5.2406Y-1.0719
X5.2406Y-1.8219
X5.2406Y-2.5719
X5.2406Y-3.3219
X5.4906Y-0.9719
X5.4906Y-1.7219
X5.4906Y-2.4719
X5.4906Y-3.2219
X5.9906Y-1.0719
X5.9906Y-1.8219
X5.9906Y-2.5719
X5.9906Y-3.3219
X6.2406Y-0.9719
X6.2406Y-1.7219
X6.2406Y-2.4719
X6.2406Y-3.2219
X6.7406Y-1.0719
X6.7406Y-1.8219
X6.7406Y-2.5719
X6.7406Y-3.3219
X6.9906Y-0.9719
X6.9906Y-1.7219
X6.9906Y-2.4719
X6.9906Y-3.2219
X7.4906Y-1.0719
X7.4906Y-1.8219
X7.4906Y-2.5719
X7.4906Y-3.3219
X7.7406Y-0.9719
X7.7406Y-1.7219
X7.7406Y-2.4719
X7.7406Y-3.2219
X8.2406Y-1.0719
X8.2406Y-1.8219
X8.2406Y-2.5719
X8.2406Y-3.3219
X8.4906Y-0.9719
X8.4906Y-1.7219
X8.4906Y-2.4719
X8.4906Y-3.2219
X8.9906Y-1.0719
X8.9906Y-1.8219
X8.9906Y-2.5719
X8.9906Y-3.3219
X9.2406Y-0.9719
X9.2406Y-1.7219
X9.2406Y-2.4719
X9.2406Y-3.2219
X9.7406Y-1.0719
X9.7406Y-1.8219
X9.7406Y-2.5719
X9.7406Y-3.3219
X9.9906Y-0.9719
X9.9906Y-1.7219
X9.9906Y-2.4719
X9.9906Y-3.2219
X10.4906Y-1.0719
X10.4906Y-1.8219
X10.4906Y-2.5719
X10.4906Y-3.3219
X10.7406Y-0.9719
X10.7406Y-1.7219
X10.7406Y-2.4719
X10.7406Y-3.2219
T0
M30
