%TF.GenerationSoftware,KiCad,Pcbnew,7.0.1-0*%
%TF.CreationDate,2023-08-02T22:09:24-05:00*%
%TF.ProjectId,pcb,7063622e-6b69-4636-9164-5f7063625858,rev?*%
%TF.SameCoordinates,Original*%
%TF.FileFunction,Soldermask,Bot*%
%TF.FilePolarity,Negative*%
%FSLAX46Y46*%
G04 Gerber Fmt 4.6, Leading zero omitted, Abs format (unit mm)*
G04 Created by KiCad (PCBNEW 7.0.1-0) date 2023-08-02 22:09:24*
%MOMM*%
%LPD*%
G01*
G04 APERTURE LIST*
G04 Aperture macros list*
%AMRoundRect*
0 Rectangle with rounded corners*
0 $1 Rounding radius*
0 $2 $3 $4 $5 $6 $7 $8 $9 X,Y pos of 4 corners*
0 Add a 4 corners polygon primitive as box body*
4,1,4,$2,$3,$4,$5,$6,$7,$8,$9,$2,$3,0*
0 Add four circle primitives for the rounded corners*
1,1,$1+$1,$2,$3*
1,1,$1+$1,$4,$5*
1,1,$1+$1,$6,$7*
1,1,$1+$1,$8,$9*
0 Add four rect primitives between the rounded corners*
20,1,$1+$1,$2,$3,$4,$5,0*
20,1,$1+$1,$4,$5,$6,$7,0*
20,1,$1+$1,$6,$7,$8,$9,0*
20,1,$1+$1,$8,$9,$2,$3,0*%
G04 Aperture macros list end*
%ADD10C,0.300000*%
%ADD11RoundRect,0.225000X0.375000X-0.225000X0.375000X0.225000X-0.375000X0.225000X-0.375000X-0.225000X0*%
%ADD12RoundRect,0.250000X-0.475000X0.250000X-0.475000X-0.250000X0.475000X-0.250000X0.475000X0.250000X0*%
%ADD13RoundRect,0.250000X-0.450000X0.262500X-0.450000X-0.262500X0.450000X-0.262500X0.450000X0.262500X0*%
%ADD14C,1.750000*%
%ADD15C,3.987800*%
%ADD16C,3.300000*%
%ADD17RoundRect,0.250000X1.025000X1.000000X-1.025000X1.000000X-1.025000X-1.000000X1.025000X-1.000000X0*%
%ADD18RoundRect,0.250000X-0.250000X-0.475000X0.250000X-0.475000X0.250000X0.475000X-0.250000X0.475000X0*%
%ADD19RoundRect,0.250000X0.450000X-0.262500X0.450000X0.262500X-0.450000X0.262500X-0.450000X-0.262500X0*%
%ADD20RoundRect,0.250000X0.250000X0.475000X-0.250000X0.475000X-0.250000X-0.475000X0.250000X-0.475000X0*%
%ADD21R,1.200000X1.400000*%
%ADD22RoundRect,0.250000X0.475000X-0.250000X0.475000X0.250000X-0.475000X0.250000X-0.475000X-0.250000X0*%
%ADD23RoundRect,0.150000X-0.625000X0.150000X-0.625000X-0.150000X0.625000X-0.150000X0.625000X0.150000X0*%
%ADD24RoundRect,0.250000X-0.650000X0.350000X-0.650000X-0.350000X0.650000X-0.350000X0.650000X0.350000X0*%
%ADD25RoundRect,0.250000X-0.262500X-0.450000X0.262500X-0.450000X0.262500X0.450000X-0.262500X0.450000X0*%
%ADD26O,1.700000X1.700000*%
%ADD27C,1.700000*%
%ADD28R,0.550000X1.500000*%
%ADD29R,1.500000X0.550000*%
%ADD30O,1.524000X1.524000*%
%ADD31R,1.524000X1.524000*%
%ADD32R,1.800000X1.100000*%
G04 APERTURE END LIST*
D10*
X77982140Y-94468928D02*
X78124997Y-94397500D01*
X78124997Y-94397500D02*
X78196426Y-94254642D01*
X78196426Y-94254642D02*
X78196426Y-92968928D01*
X76839283Y-94397500D02*
X76982140Y-94468928D01*
X76982140Y-94468928D02*
X77267855Y-94468928D01*
X77267855Y-94468928D02*
X77410712Y-94397500D01*
X77410712Y-94397500D02*
X77482140Y-94254642D01*
X77482140Y-94254642D02*
X77482140Y-93683214D01*
X77482140Y-93683214D02*
X77410712Y-93540357D01*
X77410712Y-93540357D02*
X77267855Y-93468928D01*
X77267855Y-93468928D02*
X76982140Y-93468928D01*
X76982140Y-93468928D02*
X76839283Y-93540357D01*
X76839283Y-93540357D02*
X76767855Y-93683214D01*
X76767855Y-93683214D02*
X76767855Y-93826071D01*
X76767855Y-93826071D02*
X77482140Y-93968928D01*
X76339283Y-93468928D02*
X75767855Y-93468928D01*
X76124998Y-94468928D02*
X76124998Y-93183214D01*
X76124998Y-93183214D02*
X76053569Y-93040357D01*
X76053569Y-93040357D02*
X75910712Y-92968928D01*
X75910712Y-92968928D02*
X75767855Y-92968928D01*
X75482140Y-93468928D02*
X74910712Y-93468928D01*
X75267855Y-92968928D02*
X75267855Y-94254642D01*
X75267855Y-94254642D02*
X75196426Y-94397500D01*
X75196426Y-94397500D02*
X75053569Y-94468928D01*
X75053569Y-94468928D02*
X74910712Y-94468928D01*
X74553569Y-93468928D02*
X74196426Y-94468928D01*
X73839283Y-93468928D02*
X74196426Y-94468928D01*
X74196426Y-94468928D02*
X74339283Y-94826071D01*
X74339283Y-94826071D02*
X74410712Y-94897500D01*
X74410712Y-94897500D02*
X74553569Y-94968928D01*
X71910712Y-94468928D02*
X72053569Y-94397500D01*
X72053569Y-94397500D02*
X72124998Y-94254642D01*
X72124998Y-94254642D02*
X72124998Y-92968928D01*
X70696427Y-93468928D02*
X70696427Y-94468928D01*
X71339284Y-93468928D02*
X71339284Y-94254642D01*
X71339284Y-94254642D02*
X71267855Y-94397500D01*
X71267855Y-94397500D02*
X71124998Y-94468928D01*
X71124998Y-94468928D02*
X70910712Y-94468928D01*
X70910712Y-94468928D02*
X70767855Y-94397500D01*
X70767855Y-94397500D02*
X70696427Y-94326071D01*
X69339284Y-94397500D02*
X69482141Y-94468928D01*
X69482141Y-94468928D02*
X69767855Y-94468928D01*
X69767855Y-94468928D02*
X69910712Y-94397500D01*
X69910712Y-94397500D02*
X69982141Y-94326071D01*
X69982141Y-94326071D02*
X70053569Y-94183214D01*
X70053569Y-94183214D02*
X70053569Y-93754642D01*
X70053569Y-93754642D02*
X69982141Y-93611785D01*
X69982141Y-93611785D02*
X69910712Y-93540357D01*
X69910712Y-93540357D02*
X69767855Y-93468928D01*
X69767855Y-93468928D02*
X69482141Y-93468928D01*
X69482141Y-93468928D02*
X69339284Y-93540357D01*
X68839284Y-93468928D02*
X68482141Y-94468928D01*
X68124998Y-93468928D02*
X68482141Y-94468928D01*
X68482141Y-94468928D02*
X68624998Y-94826071D01*
X68624998Y-94826071D02*
X68696427Y-94897500D01*
X68696427Y-94897500D02*
X68839284Y-94968928D01*
X66410713Y-94468928D02*
X66410713Y-93468928D01*
X66410713Y-93754642D02*
X66339284Y-93611785D01*
X66339284Y-93611785D02*
X66267856Y-93540357D01*
X66267856Y-93540357D02*
X66124998Y-93468928D01*
X66124998Y-93468928D02*
X65982141Y-93468928D01*
X64910713Y-94397500D02*
X65053570Y-94468928D01*
X65053570Y-94468928D02*
X65339285Y-94468928D01*
X65339285Y-94468928D02*
X65482142Y-94397500D01*
X65482142Y-94397500D02*
X65553570Y-94254642D01*
X65553570Y-94254642D02*
X65553570Y-93683214D01*
X65553570Y-93683214D02*
X65482142Y-93540357D01*
X65482142Y-93540357D02*
X65339285Y-93468928D01*
X65339285Y-93468928D02*
X65053570Y-93468928D01*
X65053570Y-93468928D02*
X64910713Y-93540357D01*
X64910713Y-93540357D02*
X64839285Y-93683214D01*
X64839285Y-93683214D02*
X64839285Y-93826071D01*
X64839285Y-93826071D02*
X65553570Y-93968928D01*
X64339285Y-93468928D02*
X63982142Y-94468928D01*
X63982142Y-94468928D02*
X63624999Y-93468928D01*
X62053571Y-92968928D02*
X61124999Y-92968928D01*
X61124999Y-92968928D02*
X61624999Y-93540357D01*
X61624999Y-93540357D02*
X61410714Y-93540357D01*
X61410714Y-93540357D02*
X61267857Y-93611785D01*
X61267857Y-93611785D02*
X61196428Y-93683214D01*
X61196428Y-93683214D02*
X61124999Y-93826071D01*
X61124999Y-93826071D02*
X61124999Y-94183214D01*
X61124999Y-94183214D02*
X61196428Y-94326071D01*
X61196428Y-94326071D02*
X61267857Y-94397500D01*
X61267857Y-94397500D02*
X61410714Y-94468928D01*
X61410714Y-94468928D02*
X61839285Y-94468928D01*
X61839285Y-94468928D02*
X61982142Y-94397500D01*
X61982142Y-94397500D02*
X62053571Y-94326071D01*
X60482143Y-94326071D02*
X60410714Y-94397500D01*
X60410714Y-94397500D02*
X60482143Y-94468928D01*
X60482143Y-94468928D02*
X60553571Y-94397500D01*
X60553571Y-94397500D02*
X60482143Y-94326071D01*
X60482143Y-94326071D02*
X60482143Y-94468928D01*
X59839285Y-93111785D02*
X59767857Y-93040357D01*
X59767857Y-93040357D02*
X59625000Y-92968928D01*
X59625000Y-92968928D02*
X59267857Y-92968928D01*
X59267857Y-92968928D02*
X59125000Y-93040357D01*
X59125000Y-93040357D02*
X59053571Y-93111785D01*
X59053571Y-93111785D02*
X58982142Y-93254642D01*
X58982142Y-93254642D02*
X58982142Y-93397500D01*
X58982142Y-93397500D02*
X59053571Y-93611785D01*
X59053571Y-93611785D02*
X59910714Y-94468928D01*
X59910714Y-94468928D02*
X58982142Y-94468928D01*
X58339286Y-94326071D02*
X58267857Y-94397500D01*
X58267857Y-94397500D02*
X58339286Y-94468928D01*
X58339286Y-94468928D02*
X58410714Y-94397500D01*
X58410714Y-94397500D02*
X58339286Y-94326071D01*
X58339286Y-94326071D02*
X58339286Y-94468928D01*
X57767857Y-92968928D02*
X56839285Y-92968928D01*
X56839285Y-92968928D02*
X57339285Y-93540357D01*
X57339285Y-93540357D02*
X57125000Y-93540357D01*
X57125000Y-93540357D02*
X56982143Y-93611785D01*
X56982143Y-93611785D02*
X56910714Y-93683214D01*
X56910714Y-93683214D02*
X56839285Y-93826071D01*
X56839285Y-93826071D02*
X56839285Y-94183214D01*
X56839285Y-94183214D02*
X56910714Y-94326071D01*
X56910714Y-94326071D02*
X56982143Y-94397500D01*
X56982143Y-94397500D02*
X57125000Y-94468928D01*
X57125000Y-94468928D02*
X57553571Y-94468928D01*
X57553571Y-94468928D02*
X57696428Y-94397500D01*
X57696428Y-94397500D02*
X57767857Y-94326071D01*
X56339286Y-92968928D02*
X55339286Y-92968928D01*
X55339286Y-92968928D02*
X55982143Y-94468928D01*
X54053572Y-92968928D02*
X54767858Y-92968928D01*
X54767858Y-92968928D02*
X54839286Y-93683214D01*
X54839286Y-93683214D02*
X54767858Y-93611785D01*
X54767858Y-93611785D02*
X54625001Y-93540357D01*
X54625001Y-93540357D02*
X54267858Y-93540357D01*
X54267858Y-93540357D02*
X54125001Y-93611785D01*
X54125001Y-93611785D02*
X54053572Y-93683214D01*
X54053572Y-93683214D02*
X53982143Y-93826071D01*
X53982143Y-93826071D02*
X53982143Y-94183214D01*
X53982143Y-94183214D02*
X54053572Y-94326071D01*
X54053572Y-94326071D02*
X54125001Y-94397500D01*
X54125001Y-94397500D02*
X54267858Y-94468928D01*
X54267858Y-94468928D02*
X54625001Y-94468928D01*
X54625001Y-94468928D02*
X54767858Y-94397500D01*
X54767858Y-94397500D02*
X54839286Y-94326071D01*
D11*
%TO.C,D7*%
X163368756Y-33075000D03*
X163368756Y-29775000D03*
%TD*%
D12*
%TO.C,C4*%
X55175000Y-51550000D03*
X55175000Y-53450000D03*
%TD*%
D13*
%TO.C,RSW1*%
X33737496Y-33837500D03*
X33737496Y-35662500D03*
%TD*%
D11*
%TO.C,D8*%
X182418756Y-33075000D03*
X182418756Y-29775000D03*
%TD*%
%TO.C,D14*%
X36187496Y-39050000D03*
X36187496Y-35750000D03*
%TD*%
D14*
%TO.C,MX42*%
X84851942Y-86915698D03*
D15*
X79771942Y-86915698D03*
D14*
X74691942Y-86915698D03*
D16*
X75961942Y-84375698D03*
D17*
X72411942Y-84375698D03*
X85861942Y-81835698D03*
D16*
X82311942Y-81835698D03*
%TD*%
D11*
%TO.C,D35*%
X201468756Y-71200000D03*
X201468756Y-67900000D03*
%TD*%
%TO.C,D11*%
X239568756Y-33075000D03*
X239568756Y-29775000D03*
%TD*%
D13*
%TO.C,R3*%
X46075000Y-41962500D03*
X46075000Y-43787500D03*
%TD*%
D14*
%TO.C,MX9*%
X199152038Y-29765650D03*
D15*
X194072038Y-29765650D03*
D14*
X188992038Y-29765650D03*
D16*
X190262038Y-27225650D03*
D17*
X186712038Y-27225650D03*
X200162038Y-24685650D03*
D16*
X196612038Y-24685650D03*
%TD*%
D14*
%TO.C,MX3*%
X84851942Y-29765650D03*
D15*
X79771942Y-29765650D03*
D14*
X74691942Y-29765650D03*
D16*
X75961942Y-27225650D03*
D17*
X72411942Y-27225650D03*
X85861942Y-24685650D03*
D16*
X82311942Y-24685650D03*
%TD*%
D11*
%TO.C,D39*%
X277700000Y-71200000D03*
X277700000Y-67900000D03*
%TD*%
D14*
%TO.C,MX41*%
X65801926Y-86915698D03*
D15*
X60721926Y-86915698D03*
D14*
X55641926Y-86915698D03*
D16*
X56911926Y-84375698D03*
D17*
X53361926Y-84375698D03*
X66811926Y-81835698D03*
D16*
X63261926Y-81835698D03*
%TD*%
D14*
%TO.C,MX25*%
X256302086Y-48815666D03*
D15*
X251222086Y-48815666D03*
D14*
X246142086Y-48815666D03*
D16*
X247412086Y-46275666D03*
D17*
X243862086Y-46275666D03*
X257312086Y-43735666D03*
D16*
X253762086Y-43735666D03*
%TD*%
D14*
%TO.C,MX22*%
X199152038Y-48815666D03*
D15*
X194072038Y-48815666D03*
D14*
X188992038Y-48815666D03*
D16*
X190262038Y-46275666D03*
D17*
X186712038Y-46275666D03*
X200162038Y-43735666D03*
D16*
X196612038Y-43735666D03*
%TD*%
D14*
%TO.C,MX49*%
X218202054Y-86915698D03*
D15*
X213122054Y-86915698D03*
D14*
X208042054Y-86915698D03*
D16*
X209312054Y-84375698D03*
D17*
X205762054Y-84375698D03*
X219212054Y-81835698D03*
D16*
X215662054Y-81835698D03*
%TD*%
D11*
%TO.C,D46*%
X163368756Y-90200000D03*
X163368756Y-86900000D03*
%TD*%
%TO.C,D40*%
X39662496Y-88200000D03*
X39662496Y-84900000D03*
%TD*%
D14*
%TO.C,MX10*%
X218202054Y-29765650D03*
D15*
X213122054Y-29765650D03*
D14*
X208042054Y-29765650D03*
D16*
X209312054Y-27225650D03*
D17*
X205762054Y-27225650D03*
X219212054Y-24685650D03*
D16*
X215662054Y-24685650D03*
%TD*%
D18*
%TO.C,CX1*%
X62500000Y-54200000D03*
X64400000Y-54200000D03*
%TD*%
D19*
%TO.C,R2*%
X43775000Y-43787500D03*
X43775000Y-41962500D03*
%TD*%
D20*
%TO.C,C1*%
X35787496Y-51925000D03*
X33887496Y-51925000D03*
%TD*%
D11*
%TO.C,D4*%
X106218756Y-33075000D03*
X106218756Y-29775000D03*
%TD*%
D21*
%TO.C,Y1*%
X59900000Y-54475000D03*
X59900000Y-56675000D03*
X58200000Y-56675000D03*
X58200000Y-54475000D03*
%TD*%
D20*
%TO.C,C2*%
X36600000Y-57375000D03*
X34700000Y-57375000D03*
%TD*%
D14*
%TO.C,MX19*%
X142001990Y-48815666D03*
D15*
X136921990Y-48815666D03*
D14*
X131841990Y-48815666D03*
D16*
X133111990Y-46275666D03*
D17*
X129561990Y-46275666D03*
X143011990Y-43735666D03*
D16*
X139461990Y-43735666D03*
%TD*%
D11*
%TO.C,D29*%
X87168756Y-71200000D03*
X87168756Y-67900000D03*
%TD*%
D14*
%TO.C,MX21*%
X180102022Y-48815666D03*
D15*
X175022022Y-48815666D03*
D14*
X169942022Y-48815666D03*
D16*
X171212022Y-46275666D03*
D17*
X167662022Y-46275666D03*
X181112022Y-43735666D03*
D16*
X177562022Y-43735666D03*
%TD*%
D11*
%TO.C,D24*%
X239568756Y-52125000D03*
X239568756Y-48825000D03*
%TD*%
%TO.C,D31*%
X125268756Y-71200000D03*
X125268756Y-67900000D03*
%TD*%
%TO.C,D45*%
X144318756Y-90200000D03*
X144318756Y-86900000D03*
%TD*%
%TO.C,D16*%
X87168756Y-52125000D03*
X87168756Y-48825000D03*
%TD*%
%TO.C,D41*%
X68118756Y-90200000D03*
X68118756Y-86900000D03*
%TD*%
D14*
%TO.C,MX16*%
X84851942Y-48815666D03*
D15*
X79771942Y-48815666D03*
D14*
X74691942Y-48815666D03*
D16*
X75961942Y-46275666D03*
D17*
X72411942Y-46275666D03*
X85861942Y-43735666D03*
D16*
X82311942Y-43735666D03*
%TD*%
D11*
%TO.C,D13*%
X277675000Y-33075000D03*
X277675000Y-29775000D03*
%TD*%
D14*
%TO.C,MX32*%
X142001990Y-67865682D03*
D15*
X136921990Y-67865682D03*
D14*
X131841990Y-67865682D03*
D16*
X133111990Y-65325682D03*
D17*
X129561990Y-65325682D03*
X143011990Y-62785682D03*
D16*
X139461990Y-62785682D03*
%TD*%
D11*
%TO.C,D49*%
X220518756Y-90200000D03*
X220518756Y-86900000D03*
%TD*%
D14*
%TO.C,MX8*%
X180102022Y-29765650D03*
D15*
X175022022Y-29765650D03*
D14*
X169942022Y-29765650D03*
D16*
X171212022Y-27225650D03*
D17*
X167662022Y-27225650D03*
X181112022Y-24685650D03*
D16*
X177562022Y-24685650D03*
%TD*%
D11*
%TO.C,D51*%
X258625000Y-90200000D03*
X258625000Y-86900000D03*
%TD*%
%TO.C,D50*%
X239568756Y-90200000D03*
X239568756Y-86900000D03*
%TD*%
D22*
%TO.C,C5*%
X48700000Y-43825000D03*
X48700000Y-41925000D03*
%TD*%
D11*
%TO.C,D52*%
X277668748Y-90200000D03*
X277668748Y-86900000D03*
%TD*%
D14*
%TO.C,MX33*%
X161052006Y-67865682D03*
D15*
X155972006Y-67865682D03*
D14*
X150892006Y-67865682D03*
D16*
X152162006Y-65325682D03*
D17*
X148612006Y-65325682D03*
X162062006Y-62785682D03*
D16*
X158512006Y-62785682D03*
%TD*%
D11*
%TO.C,D37*%
X239568756Y-71200000D03*
X239568756Y-67900000D03*
%TD*%
%TO.C,D3*%
X87168756Y-33075000D03*
X87168756Y-29775000D03*
%TD*%
D12*
%TO.C,C3*%
X50450000Y-65350000D03*
X50450000Y-67250000D03*
%TD*%
D14*
%TO.C,MX37*%
X237252070Y-67865682D03*
D15*
X232172070Y-67865682D03*
D14*
X227092070Y-67865682D03*
D16*
X228362070Y-65325682D03*
D17*
X224812070Y-65325682D03*
X238262070Y-62785682D03*
D16*
X234712070Y-62785682D03*
%TD*%
D11*
%TO.C,D18*%
X125268756Y-52125000D03*
X125268756Y-48825000D03*
%TD*%
%TO.C,D28*%
X68118756Y-71200000D03*
X68118756Y-67900000D03*
%TD*%
D14*
%TO.C,MX34*%
X180102022Y-67865682D03*
D15*
X175022022Y-67865682D03*
D14*
X169942022Y-67865682D03*
D16*
X171212022Y-65325682D03*
D17*
X167662022Y-65325682D03*
X181112022Y-62785682D03*
D16*
X177562022Y-62785682D03*
%TD*%
D14*
%TO.C,MX28*%
X65801926Y-67865682D03*
D15*
X60721926Y-67865682D03*
D14*
X55641926Y-67865682D03*
D16*
X56911926Y-65325682D03*
D17*
X53361926Y-65325682D03*
X66811926Y-62785682D03*
D16*
X63261926Y-62785682D03*
%TD*%
D14*
%TO.C,MX47*%
X180102022Y-86915698D03*
D15*
X175022022Y-86915698D03*
D14*
X169942022Y-86915698D03*
D16*
X171212022Y-84375698D03*
D17*
X167662022Y-84375698D03*
X181112022Y-81835698D03*
D16*
X177562022Y-81835698D03*
%TD*%
D11*
%TO.C,D32*%
X144318756Y-71200000D03*
X144318756Y-67900000D03*
%TD*%
D14*
%TO.C,MX45*%
X142001990Y-86915698D03*
D15*
X136921990Y-86915698D03*
D14*
X131841990Y-86915698D03*
D16*
X133111990Y-84375698D03*
D17*
X129561990Y-84375698D03*
X143011990Y-81835698D03*
D16*
X139461990Y-81835698D03*
%TD*%
D11*
%TO.C,D5*%
X125268756Y-33075000D03*
X125268756Y-29775000D03*
%TD*%
D14*
%TO.C,MX4*%
X103901958Y-29765650D03*
D15*
X98821958Y-29765650D03*
D14*
X93741958Y-29765650D03*
D16*
X95011958Y-27225650D03*
D17*
X91461958Y-27225650D03*
X104911958Y-24685650D03*
D16*
X101361958Y-24685650D03*
%TD*%
D11*
%TO.C,D27*%
X39543748Y-71200000D03*
X39543748Y-67900000D03*
%TD*%
D14*
%TO.C,MX29*%
X84851942Y-67865682D03*
D15*
X79771942Y-67865682D03*
D14*
X74691942Y-67865682D03*
D16*
X75961942Y-65325682D03*
D17*
X72411942Y-65325682D03*
X85861942Y-62785682D03*
D16*
X82311942Y-62785682D03*
%TD*%
D14*
%TO.C,MX7*%
X161052006Y-29765650D03*
D15*
X155972006Y-29765650D03*
D14*
X150892006Y-29765650D03*
D16*
X152162006Y-27225650D03*
D17*
X148612006Y-27225650D03*
X162062006Y-24685650D03*
D16*
X158512006Y-24685650D03*
%TD*%
D11*
%TO.C,D48*%
X201468756Y-90200000D03*
X201468756Y-86900000D03*
%TD*%
%TO.C,D34*%
X182418756Y-71200000D03*
X182418756Y-67900000D03*
%TD*%
D14*
%TO.C,MX18*%
X122951974Y-48815666D03*
D15*
X117871974Y-48815666D03*
D14*
X112791974Y-48815666D03*
D16*
X114061974Y-46275666D03*
D17*
X110511974Y-46275666D03*
X123961974Y-43735666D03*
D16*
X120411974Y-43735666D03*
%TD*%
D11*
%TO.C,D20*%
X163368756Y-52125000D03*
X163368756Y-48825000D03*
%TD*%
D14*
%TO.C,MX39*%
X275352102Y-67865682D03*
D15*
X270272102Y-67865682D03*
D14*
X265192102Y-67865682D03*
D16*
X266462102Y-65325682D03*
D17*
X262912102Y-65325682D03*
X276362102Y-62785682D03*
D16*
X272812102Y-62785682D03*
%TD*%
D23*
%TO.C,J3*%
X73175000Y-34175000D03*
X73175000Y-35175000D03*
X73175000Y-36175000D03*
X73175000Y-37175000D03*
D24*
X77050000Y-32875000D03*
X77050000Y-38475000D03*
%TD*%
D14*
%TO.C,MX24*%
X237252070Y-48815666D03*
D15*
X232172070Y-48815666D03*
D14*
X227092070Y-48815666D03*
D16*
X228362070Y-46275666D03*
D17*
X224812070Y-46275666D03*
X238262070Y-43735666D03*
D16*
X234712070Y-43735666D03*
%TD*%
D11*
%TO.C,D19*%
X144318756Y-52125000D03*
X144318756Y-48825000D03*
%TD*%
D14*
%TO.C,MX43*%
X103901958Y-86915698D03*
D15*
X98821958Y-86915698D03*
D14*
X93741958Y-86915698D03*
D16*
X95011958Y-84375698D03*
D17*
X91461958Y-84375698D03*
X104911958Y-81835698D03*
D16*
X101361958Y-81835698D03*
%TD*%
D14*
%TO.C,MX13*%
X275352102Y-29765650D03*
D15*
X270272102Y-29765650D03*
D14*
X265192102Y-29765650D03*
D16*
X266462102Y-27225650D03*
D17*
X262912102Y-27225650D03*
X276362102Y-24685650D03*
D16*
X272812102Y-24685650D03*
%TD*%
D14*
%TO.C,MX6*%
X142001990Y-29765650D03*
D15*
X136921990Y-29765650D03*
D14*
X131841990Y-29765650D03*
D16*
X133111990Y-27225650D03*
D17*
X129561990Y-27225650D03*
X143011990Y-24685650D03*
D16*
X139461990Y-24685650D03*
%TD*%
D14*
%TO.C,MX36*%
X218202054Y-67865682D03*
D15*
X213122054Y-67865682D03*
D14*
X208042054Y-67865682D03*
D16*
X209312054Y-65325682D03*
D17*
X205762054Y-65325682D03*
X219212054Y-62785682D03*
D16*
X215662054Y-62785682D03*
%TD*%
D25*
%TO.C,R1*%
X34737500Y-59575000D03*
X36562500Y-59575000D03*
%TD*%
D26*
%TO.C,J5*%
X43338780Y-93575000D03*
X40798780Y-93575000D03*
X38258780Y-93575000D03*
X35718780Y-93575000D03*
X33178780Y-93575000D03*
X30638780Y-93575000D03*
X28098780Y-93575000D03*
D27*
X25558780Y-93575000D03*
%TD*%
D11*
%TO.C,D6*%
X144318756Y-33075000D03*
X144318756Y-29775000D03*
%TD*%
D14*
%TO.C,MX30*%
X103901958Y-67865682D03*
D15*
X98821958Y-67865682D03*
D14*
X93741958Y-67865682D03*
D16*
X95011958Y-65325682D03*
D17*
X91461958Y-65325682D03*
X104911958Y-62785682D03*
D16*
X101361958Y-62785682D03*
%TD*%
D11*
%TO.C,D12*%
X258625000Y-33075000D03*
X258625000Y-29775000D03*
%TD*%
%TO.C,D30*%
X106218756Y-71200000D03*
X106218756Y-67900000D03*
%TD*%
%TO.C,D2*%
X68113756Y-33075000D03*
X68113756Y-29775000D03*
%TD*%
D18*
%TO.C,CX2*%
X62500000Y-56900000D03*
X64400000Y-56900000D03*
%TD*%
D14*
%TO.C,MX35*%
X199152038Y-67865682D03*
D15*
X194072038Y-67865682D03*
D14*
X188992038Y-67865682D03*
D16*
X190262038Y-65325682D03*
D17*
X186712038Y-65325682D03*
X200162038Y-62785682D03*
D16*
X196612038Y-62785682D03*
%TD*%
D14*
%TO.C,MX15*%
X65801926Y-48815666D03*
D15*
X60721926Y-48815666D03*
D14*
X55641926Y-48815666D03*
D16*
X56911926Y-46275666D03*
D17*
X53361926Y-46275666D03*
X66811926Y-43735666D03*
D16*
X63261926Y-43735666D03*
%TD*%
D14*
%TO.C,MX48*%
X199152038Y-86915698D03*
D15*
X194072038Y-86915698D03*
D14*
X188992038Y-86915698D03*
D16*
X190262038Y-84375698D03*
D17*
X186712038Y-84375698D03*
X200162038Y-81835698D03*
D16*
X196612038Y-81835698D03*
%TD*%
D11*
%TO.C,D33*%
X163368756Y-71200000D03*
X163368756Y-67900000D03*
%TD*%
D14*
%TO.C,MX31*%
X122951974Y-67865682D03*
D15*
X117871974Y-67865682D03*
D14*
X112791974Y-67865682D03*
D16*
X114061974Y-65325682D03*
D17*
X110511974Y-65325682D03*
X123961974Y-62785682D03*
D16*
X120411974Y-62785682D03*
%TD*%
D11*
%TO.C,D22*%
X201468756Y-52125000D03*
X201468756Y-48825000D03*
%TD*%
D14*
%TO.C,MX17*%
X103901958Y-48815666D03*
D15*
X98821958Y-48815666D03*
D14*
X93741958Y-48815666D03*
D16*
X95011958Y-46275666D03*
D17*
X91461958Y-46275666D03*
X104911958Y-43735666D03*
D16*
X101361958Y-43735666D03*
%TD*%
D11*
%TO.C,D36*%
X220518756Y-71200000D03*
X220518756Y-67900000D03*
%TD*%
D14*
%TO.C,MX51*%
X256302086Y-86915698D03*
D15*
X251222086Y-86915698D03*
D14*
X246142086Y-86915698D03*
D16*
X247412086Y-84375698D03*
D17*
X243862086Y-84375698D03*
X257312086Y-81835698D03*
D16*
X253762086Y-81835698D03*
%TD*%
D28*
%TO.C,U1*%
X42600000Y-50050000D03*
X43400000Y-50050000D03*
X44200000Y-50050000D03*
X45000000Y-50050000D03*
X45800000Y-50050000D03*
X46600000Y-50050000D03*
X47400000Y-50050000D03*
X48200000Y-50050000D03*
X49000000Y-50050000D03*
X49800000Y-50050000D03*
X50600000Y-50050000D03*
D29*
X52300000Y-51750000D03*
X52300000Y-52550000D03*
X52300000Y-53350000D03*
X52300000Y-54150000D03*
X52300000Y-54950000D03*
X52300000Y-55750000D03*
X52300000Y-56550000D03*
X52300000Y-57350000D03*
X52300000Y-58150000D03*
X52300000Y-58950000D03*
X52300000Y-59750000D03*
D28*
X50600000Y-61450000D03*
X49800000Y-61450000D03*
X49000000Y-61450000D03*
X48200000Y-61450000D03*
X47400000Y-61450000D03*
X46600000Y-61450000D03*
X45800000Y-61450000D03*
X45000000Y-61450000D03*
X44200000Y-61450000D03*
X43400000Y-61450000D03*
X42600000Y-61450000D03*
D29*
X40900000Y-59750000D03*
X40900000Y-58950000D03*
X40900000Y-58150000D03*
X40900000Y-57350000D03*
X40900000Y-56550000D03*
X40900000Y-55750000D03*
X40900000Y-54950000D03*
X40900000Y-54150000D03*
X40900000Y-53350000D03*
X40900000Y-52550000D03*
X40900000Y-51750000D03*
%TD*%
D14*
%TO.C,MX44*%
X122951974Y-86915698D03*
D15*
X117871974Y-86915698D03*
D14*
X112791974Y-86915698D03*
D16*
X114061974Y-84375698D03*
D17*
X110511974Y-84375698D03*
X123961974Y-81835698D03*
D16*
X120411974Y-81835698D03*
%TD*%
D14*
%TO.C,MX27*%
X37226902Y-67865682D03*
D15*
X32146902Y-67865682D03*
D14*
X27066902Y-67865682D03*
D16*
X28336902Y-65325682D03*
D17*
X24786902Y-65325682D03*
X38236902Y-62785682D03*
D16*
X34686902Y-62785682D03*
%TD*%
D14*
%TO.C,MX40*%
X37226902Y-86915698D03*
D15*
X32146902Y-86915698D03*
D14*
X27066902Y-86915698D03*
D16*
X28336902Y-84375698D03*
D17*
X24786902Y-84375698D03*
X38236902Y-81835698D03*
D16*
X34686902Y-81835698D03*
%TD*%
D14*
%TO.C,MX12*%
X256302086Y-29765650D03*
D15*
X251222086Y-29765650D03*
D14*
X246142086Y-29765650D03*
D16*
X247412086Y-27225650D03*
D17*
X243862086Y-27225650D03*
X257312086Y-24685650D03*
D16*
X253762086Y-24685650D03*
%TD*%
D11*
%TO.C,D43*%
X106218756Y-90200000D03*
X106218756Y-86900000D03*
%TD*%
%TO.C,D47*%
X182418756Y-90200000D03*
X182418756Y-86900000D03*
%TD*%
D14*
%TO.C,MX11*%
X237252070Y-29765650D03*
D15*
X232172070Y-29765650D03*
D14*
X227092070Y-29765650D03*
D16*
X228362070Y-27225650D03*
D17*
X224812070Y-27225650D03*
X238262070Y-24685650D03*
D16*
X234712070Y-24685650D03*
%TD*%
D11*
%TO.C,D9*%
X201468756Y-33075000D03*
X201468756Y-29775000D03*
%TD*%
D14*
%TO.C,MX23*%
X218202054Y-48815666D03*
D15*
X213122054Y-48815666D03*
D14*
X208042054Y-48815666D03*
D16*
X209312054Y-46275666D03*
D17*
X205762054Y-46275666D03*
X219212054Y-43735666D03*
D16*
X215662054Y-43735666D03*
%TD*%
D14*
%TO.C,MX52*%
X275352102Y-86915698D03*
D15*
X270272102Y-86915698D03*
D14*
X265192102Y-86915698D03*
D16*
X266462102Y-84375698D03*
D17*
X262912102Y-84375698D03*
X276362102Y-81835698D03*
D16*
X272812102Y-81835698D03*
%TD*%
D11*
%TO.C,D1*%
X70575000Y-33052500D03*
X70575000Y-29752500D03*
%TD*%
%TO.C,D21*%
X182418756Y-52125000D03*
X182418756Y-48825000D03*
%TD*%
D14*
%TO.C,MX2*%
X65801926Y-29765650D03*
D15*
X60721926Y-29765650D03*
D14*
X55641926Y-29765650D03*
D16*
X56911926Y-27225650D03*
D17*
X53361926Y-27225650D03*
X66811926Y-24685650D03*
D16*
X63261926Y-24685650D03*
%TD*%
D14*
%TO.C,MX50*%
X237252070Y-86915698D03*
D15*
X232172070Y-86915698D03*
D14*
X227092070Y-86915698D03*
D16*
X228362070Y-84375698D03*
D17*
X224812070Y-84375698D03*
X238262070Y-81835698D03*
D16*
X234712070Y-81835698D03*
%TD*%
D11*
%TO.C,D38*%
X258618756Y-71200000D03*
X258618756Y-67900000D03*
%TD*%
D14*
%TO.C,MX20*%
X161052006Y-48815666D03*
D15*
X155972006Y-48815666D03*
D14*
X150892006Y-48815666D03*
D16*
X152162006Y-46275666D03*
D17*
X148612006Y-46275666D03*
X162062006Y-43735666D03*
D16*
X158512006Y-43735666D03*
%TD*%
D14*
%TO.C,MX26*%
X275352102Y-48815666D03*
D15*
X270272102Y-48815666D03*
D14*
X265192102Y-48815666D03*
D16*
X266462102Y-46275666D03*
D17*
X262912102Y-46275666D03*
X276362102Y-43735666D03*
D16*
X272812102Y-43735666D03*
%TD*%
D11*
%TO.C,D15*%
X68118756Y-50375000D03*
X68118756Y-47075000D03*
%TD*%
D14*
%TO.C,MX1*%
X37226902Y-29765650D03*
D15*
X32146902Y-29765650D03*
D14*
X27066902Y-29765650D03*
D16*
X28336902Y-27225650D03*
D17*
X24786902Y-27225650D03*
X38236902Y-24685650D03*
D16*
X34686902Y-24685650D03*
%TD*%
D30*
%TO.C,J2*%
X48900000Y-35800000D03*
X48900000Y-25640000D03*
X48900000Y-30720000D03*
X48900000Y-33260000D03*
X48900000Y-28180000D03*
D31*
X48900000Y-23100000D03*
%TD*%
D32*
%TO.C,SW1*%
X24912496Y-39525000D03*
X31112496Y-35825000D03*
X24912496Y-35825000D03*
X31112496Y-39525000D03*
%TD*%
D11*
%TO.C,D23*%
X220518756Y-52125000D03*
X220518756Y-48825000D03*
%TD*%
%TO.C,D25*%
X258625000Y-52125000D03*
X258625000Y-48825000D03*
%TD*%
%TO.C,D42*%
X87168756Y-90200000D03*
X87168756Y-86900000D03*
%TD*%
%TO.C,D26*%
X277675000Y-52125000D03*
X277675000Y-48825000D03*
%TD*%
D14*
%TO.C,MX38*%
X256302086Y-67865682D03*
D15*
X251222086Y-67865682D03*
D14*
X246142086Y-67865682D03*
D16*
X247412086Y-65325682D03*
D17*
X243862086Y-65325682D03*
X257312086Y-62785682D03*
D16*
X253762086Y-62785682D03*
%TD*%
D11*
%TO.C,D10*%
X220518756Y-33075000D03*
X220518756Y-29775000D03*
%TD*%
D14*
%TO.C,MX5*%
X122951974Y-29765650D03*
D15*
X117871974Y-29765650D03*
D14*
X112791974Y-29765650D03*
D16*
X114061974Y-27225650D03*
D17*
X110511974Y-27225650D03*
X123961974Y-24685650D03*
D16*
X120411974Y-24685650D03*
%TD*%
D11*
%TO.C,D44*%
X125268756Y-90200000D03*
X125268756Y-86900000D03*
%TD*%
%TO.C,D17*%
X106218756Y-52125000D03*
X106218756Y-48825000D03*
%TD*%
D14*
%TO.C,MX46*%
X161052006Y-86915698D03*
D15*
X155972006Y-86915698D03*
D14*
X150892006Y-86915698D03*
D16*
X152162006Y-84375698D03*
D17*
X148612006Y-84375698D03*
X162062006Y-81835698D03*
D16*
X158512006Y-81835698D03*
%TD*%
D14*
%TO.C,MX14*%
X37226902Y-48815666D03*
D15*
X32146902Y-48815666D03*
D14*
X27066902Y-48815666D03*
D16*
X28336902Y-46275666D03*
D17*
X24786902Y-46275666D03*
X38236902Y-43735666D03*
D16*
X34686902Y-43735666D03*
%TD*%
M02*
