M48
; DRILL file {KiCad 7.0.1-0} date 2023 August 02, Wednesday 22:09:26
; FORMAT={-:-/ absolute / inch / decimal}
; #@! TF.CreationDate,2023-08-02T22:09:26-05:00
; #@! TF.GenerationSoftware,Kicad,Pcbnew,7.0.1-0
; #@! TF.FileFunction,NonPlated,1,2,NPTH
FMAT,2
INCH
; #@! TA.AperFunction,NonPlated,NPTH,ComponentDrill
T1C0.0689
; #@! TA.AperFunction,NonPlated,NPTH,ComponentDrill
T2C0.1570
%
G90
G05
T1
X1.0656Y-1.1719
X1.0656Y-1.9219
X1.0656Y-2.6719
X1.0656Y-3.4219
X1.4656Y-1.1719
X1.4656Y-1.9219
X1.4656Y-2.6719
X1.4656Y-3.4219
X2.1906Y-1.1719
X2.1906Y-1.9219
X2.1906Y-2.6719
X2.1906Y-3.4219
X2.5906Y-1.1719
X2.5906Y-1.9219
X2.5906Y-2.6719
X2.5906Y-3.4219
X2.9406Y-1.1719
X2.9406Y-1.9219
X2.9406Y-2.6719
X2.9406Y-3.4219
X3.3406Y-1.1719
X3.3406Y-1.9219
X3.3406Y-2.6719
X3.3406Y-3.4219
X3.6906Y-1.1719
X3.6906Y-1.9219
X3.6906Y-2.6719
X3.6906Y-3.4219
X4.0906Y-1.1719
X4.0906Y-1.9219
X4.0906Y-2.6719
X4.0906Y-3.4219
X4.4406Y-1.1719
X4.4406Y-1.9219
X4.4406Y-2.6719
X4.4406Y-3.4219
X4.8406Y-1.1719
X4.8406Y-1.9219
X4.8406Y-2.6719
X4.8406Y-3.4219
X5.1906Y-1.1719
X5.1906Y-1.9219
X5.1906Y-2.6719
X5.1906Y-3.4219
X5.5906Y-1.1719
X5.5906Y-1.9219
X5.5906Y-2.6719
X5.5906Y-3.4219
X5.9406Y-1.1719
X5.9406Y-1.9219
X5.9406Y-2.6719
X5.9406Y-3.4219
X6.3406Y-1.1719
X6.3406Y-1.9219
X6.3406Y-2.6719
X6.3406Y-3.4219
X6.6906Y-1.1719
X6.6906Y-1.9219
X6.6906Y-2.6719
X6.6906Y-3.4219
X7.0906Y-1.1719
X7.0906Y-1.9219
X7.0906Y-2.6719
X7.0906Y-3.4219
X7.4406Y-1.1719
X7.4406Y-1.9219
X7.4406Y-2.6719
X7.4406Y-3.4219
X7.8406Y-1.1719
X7.8406Y-1.9219
X7.8406Y-2.6719
X7.8406Y-3.4219
X8.1906Y-1.1719
X8.1906Y-1.9219
X8.1906Y-2.6719
X8.1906Y-3.4219
X8.5906Y-1.1719
X8.5906Y-1.9219
X8.5906Y-2.6719
X8.5906Y-3.4219
X8.9406Y-1.1719
X8.9406Y-1.9219
X8.9406Y-2.6719
X8.9406Y-3.4219
X9.3406Y-1.1719
X9.3406Y-1.9219
X9.3406Y-2.6719
X9.3406Y-3.4219
X9.6906Y-1.1719
X9.6906Y-1.9219
X9.6906Y-2.6719
X9.6906Y-3.4219
X10.0906Y-1.1719
X10.0906Y-1.9219
X10.0906Y-2.6719
X10.0906Y-3.4219
X10.4406Y-1.1719
X10.4406Y-1.9219
X10.4406Y-2.6719
X10.4406Y-3.4219
X10.8406Y-1.1719
X10.8406Y-1.9219
X10.8406Y-2.6719
X10.8406Y-3.4219
T2
X1.2656Y-1.1719
X1.2656Y-1.9219
X1.2656Y-2.6719
X1.2656Y-3.4219
X2.3906Y-1.1719
X2.3906Y-1.9219
X2.3906Y-2.6719
X2.3906Y-3.4219
X3.1406Y-1.1719
X3.1406Y-1.9219
X3.1406Y-2.6719
X3.1406Y-3.4219
X3.8906Y-1.1719
X3.8906Y-1.9219
X3.8906Y-2.6719
X3.8906Y-3.4219
X4.6406Y-1.1719
X4.6406Y-1.9219
X4.6406Y-2.6719
X4.6406Y-3.4219
X5.3906Y-1.1719
X5.3906Y-1.9219
X5.3906Y-2.6719
X5.3906Y-3.4219
X6.1406Y-1.1719
X6.1406Y-1.9219
X6.1406Y-2.6719
X6.1406Y-3.4219
X6.8906Y-1.1719
X6.8906Y-1.9219
X6.8906Y-2.6719
X6.8906Y-3.4219
X7.6406Y-1.1719
X7.6406Y-1.9219
X7.6406Y-2.6719
X7.6406Y-3.4219
X8.3906Y-1.1719
X8.3906Y-1.9219
X8.3906Y-2.6719
X8.3906Y-3.4219
X9.1406Y-1.1719
X9.1406Y-1.9219
X9.1406Y-2.6719
X9.1406Y-3.4219
X9.8906Y-1.1719
X9.8906Y-1.9219
X9.8906Y-2.6719
X9.8906Y-3.4219
X10.6406Y-1.1719
X10.6406Y-1.9219
X10.6406Y-2.6719
X10.6406Y-3.4219
T0
M30
