%TF.GenerationSoftware,KiCad,Pcbnew,7.0.1-0*%
%TF.CreationDate,2023-08-02T22:09:24-05:00*%
%TF.ProjectId,pcb,7063622e-6b69-4636-9164-5f7063625858,rev?*%
%TF.SameCoordinates,Original*%
%TF.FileFunction,Legend,Top*%
%TF.FilePolarity,Positive*%
%FSLAX46Y46*%
G04 Gerber Fmt 4.6, Leading zero omitted, Abs format (unit mm)*
G04 Created by KiCad (PCBNEW 7.0.1-0) date 2023-08-02 22:09:24*
%MOMM*%
%LPD*%
G01*
G04 APERTURE LIST*
%ADD10C,0.150000*%
%ADD11C,0.120000*%
G04 APERTURE END LIST*
D10*
X248805952Y-94902619D02*
X248710714Y-94855000D01*
X248710714Y-94855000D02*
X248663095Y-94759761D01*
X248663095Y-94759761D02*
X248663095Y-93902619D01*
X249567857Y-94855000D02*
X249472619Y-94902619D01*
X249472619Y-94902619D02*
X249282143Y-94902619D01*
X249282143Y-94902619D02*
X249186905Y-94855000D01*
X249186905Y-94855000D02*
X249139286Y-94759761D01*
X249139286Y-94759761D02*
X249139286Y-94378809D01*
X249139286Y-94378809D02*
X249186905Y-94283571D01*
X249186905Y-94283571D02*
X249282143Y-94235952D01*
X249282143Y-94235952D02*
X249472619Y-94235952D01*
X249472619Y-94235952D02*
X249567857Y-94283571D01*
X249567857Y-94283571D02*
X249615476Y-94378809D01*
X249615476Y-94378809D02*
X249615476Y-94474047D01*
X249615476Y-94474047D02*
X249139286Y-94569285D01*
X249901191Y-94235952D02*
X250282143Y-94235952D01*
X250044048Y-94902619D02*
X250044048Y-94045476D01*
X250044048Y-94045476D02*
X250091667Y-93950238D01*
X250091667Y-93950238D02*
X250186905Y-93902619D01*
X250186905Y-93902619D02*
X250282143Y-93902619D01*
X250520239Y-94235952D02*
X250758334Y-94902619D01*
X250996429Y-94235952D02*
X250758334Y-94902619D01*
X250758334Y-94902619D02*
X250663096Y-95140714D01*
X250663096Y-95140714D02*
X250615477Y-95188333D01*
X250615477Y-95188333D02*
X250520239Y-95235952D01*
X252282144Y-94902619D02*
X252186906Y-94855000D01*
X252186906Y-94855000D02*
X252139287Y-94759761D01*
X252139287Y-94759761D02*
X252139287Y-93902619D01*
X253091668Y-94235952D02*
X253091668Y-94902619D01*
X252663097Y-94235952D02*
X252663097Y-94759761D01*
X252663097Y-94759761D02*
X252710716Y-94855000D01*
X252710716Y-94855000D02*
X252805954Y-94902619D01*
X252805954Y-94902619D02*
X252948811Y-94902619D01*
X252948811Y-94902619D02*
X253044049Y-94855000D01*
X253044049Y-94855000D02*
X253091668Y-94807380D01*
X253996430Y-94855000D02*
X253901192Y-94902619D01*
X253901192Y-94902619D02*
X253710716Y-94902619D01*
X253710716Y-94902619D02*
X253615478Y-94855000D01*
X253615478Y-94855000D02*
X253567859Y-94807380D01*
X253567859Y-94807380D02*
X253520240Y-94712142D01*
X253520240Y-94712142D02*
X253520240Y-94426428D01*
X253520240Y-94426428D02*
X253567859Y-94331190D01*
X253567859Y-94331190D02*
X253615478Y-94283571D01*
X253615478Y-94283571D02*
X253710716Y-94235952D01*
X253710716Y-94235952D02*
X253901192Y-94235952D01*
X253901192Y-94235952D02*
X253996430Y-94283571D01*
X254329764Y-94235952D02*
X254567859Y-94902619D01*
X254805954Y-94235952D02*
X254567859Y-94902619D01*
X254567859Y-94902619D02*
X254472621Y-95140714D01*
X254472621Y-95140714D02*
X254425002Y-95188333D01*
X254425002Y-95188333D02*
X254329764Y-95235952D01*
X255853574Y-94235952D02*
X256091669Y-94902619D01*
X256091669Y-94902619D02*
X256329764Y-94235952D01*
X256615479Y-93902619D02*
X257234526Y-93902619D01*
X257234526Y-93902619D02*
X256901193Y-94283571D01*
X256901193Y-94283571D02*
X257044050Y-94283571D01*
X257044050Y-94283571D02*
X257139288Y-94331190D01*
X257139288Y-94331190D02*
X257186907Y-94378809D01*
X257186907Y-94378809D02*
X257234526Y-94474047D01*
X257234526Y-94474047D02*
X257234526Y-94712142D01*
X257234526Y-94712142D02*
X257186907Y-94807380D01*
X257186907Y-94807380D02*
X257139288Y-94855000D01*
X257139288Y-94855000D02*
X257044050Y-94902619D01*
X257044050Y-94902619D02*
X256758336Y-94902619D01*
X256758336Y-94902619D02*
X256663098Y-94855000D01*
X256663098Y-94855000D02*
X256615479Y-94807380D01*
X257663098Y-94807380D02*
X257710717Y-94855000D01*
X257710717Y-94855000D02*
X257663098Y-94902619D01*
X257663098Y-94902619D02*
X257615479Y-94855000D01*
X257615479Y-94855000D02*
X257663098Y-94807380D01*
X257663098Y-94807380D02*
X257663098Y-94902619D01*
X258091669Y-93997857D02*
X258139288Y-93950238D01*
X258139288Y-93950238D02*
X258234526Y-93902619D01*
X258234526Y-93902619D02*
X258472621Y-93902619D01*
X258472621Y-93902619D02*
X258567859Y-93950238D01*
X258567859Y-93950238D02*
X258615478Y-93997857D01*
X258615478Y-93997857D02*
X258663097Y-94093095D01*
X258663097Y-94093095D02*
X258663097Y-94188333D01*
X258663097Y-94188333D02*
X258615478Y-94331190D01*
X258615478Y-94331190D02*
X258044050Y-94902619D01*
X258044050Y-94902619D02*
X258663097Y-94902619D01*
X259091669Y-94807380D02*
X259139288Y-94855000D01*
X259139288Y-94855000D02*
X259091669Y-94902619D01*
X259091669Y-94902619D02*
X259044050Y-94855000D01*
X259044050Y-94855000D02*
X259091669Y-94807380D01*
X259091669Y-94807380D02*
X259091669Y-94902619D01*
X259472621Y-93902619D02*
X260091668Y-93902619D01*
X260091668Y-93902619D02*
X259758335Y-94283571D01*
X259758335Y-94283571D02*
X259901192Y-94283571D01*
X259901192Y-94283571D02*
X259996430Y-94331190D01*
X259996430Y-94331190D02*
X260044049Y-94378809D01*
X260044049Y-94378809D02*
X260091668Y-94474047D01*
X260091668Y-94474047D02*
X260091668Y-94712142D01*
X260091668Y-94712142D02*
X260044049Y-94807380D01*
X260044049Y-94807380D02*
X259996430Y-94855000D01*
X259996430Y-94855000D02*
X259901192Y-94902619D01*
X259901192Y-94902619D02*
X259615478Y-94902619D01*
X259615478Y-94902619D02*
X259520240Y-94855000D01*
X259520240Y-94855000D02*
X259472621Y-94807380D01*
X260425002Y-93902619D02*
X261091668Y-93902619D01*
X261091668Y-93902619D02*
X260663097Y-94902619D01*
X261948811Y-93902619D02*
X261472621Y-93902619D01*
X261472621Y-93902619D02*
X261425002Y-94378809D01*
X261425002Y-94378809D02*
X261472621Y-94331190D01*
X261472621Y-94331190D02*
X261567859Y-94283571D01*
X261567859Y-94283571D02*
X261805954Y-94283571D01*
X261805954Y-94283571D02*
X261901192Y-94331190D01*
X261901192Y-94331190D02*
X261948811Y-94378809D01*
X261948811Y-94378809D02*
X261996430Y-94474047D01*
X261996430Y-94474047D02*
X261996430Y-94712142D01*
X261996430Y-94712142D02*
X261948811Y-94807380D01*
X261948811Y-94807380D02*
X261901192Y-94855000D01*
X261901192Y-94855000D02*
X261805954Y-94902619D01*
X261805954Y-94902619D02*
X261567859Y-94902619D01*
X261567859Y-94902619D02*
X261472621Y-94855000D01*
X261472621Y-94855000D02*
X261425002Y-94807380D01*
X262425002Y-94521666D02*
X263186907Y-94521666D01*
X264329763Y-94997857D02*
X264234525Y-94950238D01*
X264234525Y-94950238D02*
X264139287Y-94855000D01*
X264139287Y-94855000D02*
X263996430Y-94712142D01*
X263996430Y-94712142D02*
X263901192Y-94664523D01*
X263901192Y-94664523D02*
X263805954Y-94664523D01*
X263853573Y-94902619D02*
X263758335Y-94855000D01*
X263758335Y-94855000D02*
X263663097Y-94759761D01*
X263663097Y-94759761D02*
X263615478Y-94569285D01*
X263615478Y-94569285D02*
X263615478Y-94235952D01*
X263615478Y-94235952D02*
X263663097Y-94045476D01*
X263663097Y-94045476D02*
X263758335Y-93950238D01*
X263758335Y-93950238D02*
X263853573Y-93902619D01*
X263853573Y-93902619D02*
X264044049Y-93902619D01*
X264044049Y-93902619D02*
X264139287Y-93950238D01*
X264139287Y-93950238D02*
X264234525Y-94045476D01*
X264234525Y-94045476D02*
X264282144Y-94235952D01*
X264282144Y-94235952D02*
X264282144Y-94569285D01*
X264282144Y-94569285D02*
X264234525Y-94759761D01*
X264234525Y-94759761D02*
X264139287Y-94855000D01*
X264139287Y-94855000D02*
X264044049Y-94902619D01*
X264044049Y-94902619D02*
X263853573Y-94902619D01*
X265044049Y-94378809D02*
X264710716Y-94378809D01*
X264710716Y-94902619D02*
X264710716Y-93902619D01*
X264710716Y-93902619D02*
X265186906Y-93902619D01*
X265567859Y-94902619D02*
X265567859Y-93902619D01*
X265567859Y-93902619D02*
X265948811Y-93902619D01*
X265948811Y-93902619D02*
X266044049Y-93950238D01*
X266044049Y-93950238D02*
X266091668Y-93997857D01*
X266091668Y-93997857D02*
X266139287Y-94093095D01*
X266139287Y-94093095D02*
X266139287Y-94235952D01*
X266139287Y-94235952D02*
X266091668Y-94331190D01*
X266091668Y-94331190D02*
X266044049Y-94378809D01*
X266044049Y-94378809D02*
X265948811Y-94426428D01*
X265948811Y-94426428D02*
X265567859Y-94426428D01*
X267282145Y-93997857D02*
X267329764Y-93950238D01*
X267329764Y-93950238D02*
X267425002Y-93902619D01*
X267425002Y-93902619D02*
X267663097Y-93902619D01*
X267663097Y-93902619D02*
X267758335Y-93950238D01*
X267758335Y-93950238D02*
X267805954Y-93997857D01*
X267805954Y-93997857D02*
X267853573Y-94093095D01*
X267853573Y-94093095D02*
X267853573Y-94188333D01*
X267853573Y-94188333D02*
X267805954Y-94331190D01*
X267805954Y-94331190D02*
X267234526Y-94902619D01*
X267234526Y-94902619D02*
X267853573Y-94902619D01*
X268472621Y-93902619D02*
X268567859Y-93902619D01*
X268567859Y-93902619D02*
X268663097Y-93950238D01*
X268663097Y-93950238D02*
X268710716Y-93997857D01*
X268710716Y-93997857D02*
X268758335Y-94093095D01*
X268758335Y-94093095D02*
X268805954Y-94283571D01*
X268805954Y-94283571D02*
X268805954Y-94521666D01*
X268805954Y-94521666D02*
X268758335Y-94712142D01*
X268758335Y-94712142D02*
X268710716Y-94807380D01*
X268710716Y-94807380D02*
X268663097Y-94855000D01*
X268663097Y-94855000D02*
X268567859Y-94902619D01*
X268567859Y-94902619D02*
X268472621Y-94902619D01*
X268472621Y-94902619D02*
X268377383Y-94855000D01*
X268377383Y-94855000D02*
X268329764Y-94807380D01*
X268329764Y-94807380D02*
X268282145Y-94712142D01*
X268282145Y-94712142D02*
X268234526Y-94521666D01*
X268234526Y-94521666D02*
X268234526Y-94283571D01*
X268234526Y-94283571D02*
X268282145Y-94093095D01*
X268282145Y-94093095D02*
X268329764Y-93997857D01*
X268329764Y-93997857D02*
X268377383Y-93950238D01*
X268377383Y-93950238D02*
X268472621Y-93902619D01*
X269186907Y-93997857D02*
X269234526Y-93950238D01*
X269234526Y-93950238D02*
X269329764Y-93902619D01*
X269329764Y-93902619D02*
X269567859Y-93902619D01*
X269567859Y-93902619D02*
X269663097Y-93950238D01*
X269663097Y-93950238D02*
X269710716Y-93997857D01*
X269710716Y-93997857D02*
X269758335Y-94093095D01*
X269758335Y-94093095D02*
X269758335Y-94188333D01*
X269758335Y-94188333D02*
X269710716Y-94331190D01*
X269710716Y-94331190D02*
X269139288Y-94902619D01*
X269139288Y-94902619D02*
X269758335Y-94902619D01*
X270091669Y-93902619D02*
X270710716Y-93902619D01*
X270710716Y-93902619D02*
X270377383Y-94283571D01*
X270377383Y-94283571D02*
X270520240Y-94283571D01*
X270520240Y-94283571D02*
X270615478Y-94331190D01*
X270615478Y-94331190D02*
X270663097Y-94378809D01*
X270663097Y-94378809D02*
X270710716Y-94474047D01*
X270710716Y-94474047D02*
X270710716Y-94712142D01*
X270710716Y-94712142D02*
X270663097Y-94807380D01*
X270663097Y-94807380D02*
X270615478Y-94855000D01*
X270615478Y-94855000D02*
X270520240Y-94902619D01*
X270520240Y-94902619D02*
X270234526Y-94902619D01*
X270234526Y-94902619D02*
X270139288Y-94855000D01*
X270139288Y-94855000D02*
X270091669Y-94807380D01*
X271139288Y-94807380D02*
X271186907Y-94855000D01*
X271186907Y-94855000D02*
X271139288Y-94902619D01*
X271139288Y-94902619D02*
X271091669Y-94855000D01*
X271091669Y-94855000D02*
X271139288Y-94807380D01*
X271139288Y-94807380D02*
X271139288Y-94902619D01*
X271805954Y-93902619D02*
X271901192Y-93902619D01*
X271901192Y-93902619D02*
X271996430Y-93950238D01*
X271996430Y-93950238D02*
X272044049Y-93997857D01*
X272044049Y-93997857D02*
X272091668Y-94093095D01*
X272091668Y-94093095D02*
X272139287Y-94283571D01*
X272139287Y-94283571D02*
X272139287Y-94521666D01*
X272139287Y-94521666D02*
X272091668Y-94712142D01*
X272091668Y-94712142D02*
X272044049Y-94807380D01*
X272044049Y-94807380D02*
X271996430Y-94855000D01*
X271996430Y-94855000D02*
X271901192Y-94902619D01*
X271901192Y-94902619D02*
X271805954Y-94902619D01*
X271805954Y-94902619D02*
X271710716Y-94855000D01*
X271710716Y-94855000D02*
X271663097Y-94807380D01*
X271663097Y-94807380D02*
X271615478Y-94712142D01*
X271615478Y-94712142D02*
X271567859Y-94521666D01*
X271567859Y-94521666D02*
X271567859Y-94283571D01*
X271567859Y-94283571D02*
X271615478Y-94093095D01*
X271615478Y-94093095D02*
X271663097Y-93997857D01*
X271663097Y-93997857D02*
X271710716Y-93950238D01*
X271710716Y-93950238D02*
X271805954Y-93902619D01*
X272710716Y-94331190D02*
X272615478Y-94283571D01*
X272615478Y-94283571D02*
X272567859Y-94235952D01*
X272567859Y-94235952D02*
X272520240Y-94140714D01*
X272520240Y-94140714D02*
X272520240Y-94093095D01*
X272520240Y-94093095D02*
X272567859Y-93997857D01*
X272567859Y-93997857D02*
X272615478Y-93950238D01*
X272615478Y-93950238D02*
X272710716Y-93902619D01*
X272710716Y-93902619D02*
X272901192Y-93902619D01*
X272901192Y-93902619D02*
X272996430Y-93950238D01*
X272996430Y-93950238D02*
X273044049Y-93997857D01*
X273044049Y-93997857D02*
X273091668Y-94093095D01*
X273091668Y-94093095D02*
X273091668Y-94140714D01*
X273091668Y-94140714D02*
X273044049Y-94235952D01*
X273044049Y-94235952D02*
X272996430Y-94283571D01*
X272996430Y-94283571D02*
X272901192Y-94331190D01*
X272901192Y-94331190D02*
X272710716Y-94331190D01*
X272710716Y-94331190D02*
X272615478Y-94378809D01*
X272615478Y-94378809D02*
X272567859Y-94426428D01*
X272567859Y-94426428D02*
X272520240Y-94521666D01*
X272520240Y-94521666D02*
X272520240Y-94712142D01*
X272520240Y-94712142D02*
X272567859Y-94807380D01*
X272567859Y-94807380D02*
X272615478Y-94855000D01*
X272615478Y-94855000D02*
X272710716Y-94902619D01*
X272710716Y-94902619D02*
X272901192Y-94902619D01*
X272901192Y-94902619D02*
X272996430Y-94855000D01*
X272996430Y-94855000D02*
X273044049Y-94807380D01*
X273044049Y-94807380D02*
X273091668Y-94712142D01*
X273091668Y-94712142D02*
X273091668Y-94521666D01*
X273091668Y-94521666D02*
X273044049Y-94426428D01*
X273044049Y-94426428D02*
X272996430Y-94378809D01*
X272996430Y-94378809D02*
X272901192Y-94331190D01*
X273520240Y-94807380D02*
X273567859Y-94855000D01*
X273567859Y-94855000D02*
X273520240Y-94902619D01*
X273520240Y-94902619D02*
X273472621Y-94855000D01*
X273472621Y-94855000D02*
X273520240Y-94807380D01*
X273520240Y-94807380D02*
X273520240Y-94902619D01*
X274186906Y-93902619D02*
X274282144Y-93902619D01*
X274282144Y-93902619D02*
X274377382Y-93950238D01*
X274377382Y-93950238D02*
X274425001Y-93997857D01*
X274425001Y-93997857D02*
X274472620Y-94093095D01*
X274472620Y-94093095D02*
X274520239Y-94283571D01*
X274520239Y-94283571D02*
X274520239Y-94521666D01*
X274520239Y-94521666D02*
X274472620Y-94712142D01*
X274472620Y-94712142D02*
X274425001Y-94807380D01*
X274425001Y-94807380D02*
X274377382Y-94855000D01*
X274377382Y-94855000D02*
X274282144Y-94902619D01*
X274282144Y-94902619D02*
X274186906Y-94902619D01*
X274186906Y-94902619D02*
X274091668Y-94855000D01*
X274091668Y-94855000D02*
X274044049Y-94807380D01*
X274044049Y-94807380D02*
X273996430Y-94712142D01*
X273996430Y-94712142D02*
X273948811Y-94521666D01*
X273948811Y-94521666D02*
X273948811Y-94283571D01*
X273948811Y-94283571D02*
X273996430Y-94093095D01*
X273996430Y-94093095D02*
X274044049Y-93997857D01*
X274044049Y-93997857D02*
X274091668Y-93950238D01*
X274091668Y-93950238D02*
X274186906Y-93902619D01*
X274901192Y-93997857D02*
X274948811Y-93950238D01*
X274948811Y-93950238D02*
X275044049Y-93902619D01*
X275044049Y-93902619D02*
X275282144Y-93902619D01*
X275282144Y-93902619D02*
X275377382Y-93950238D01*
X275377382Y-93950238D02*
X275425001Y-93997857D01*
X275425001Y-93997857D02*
X275472620Y-94093095D01*
X275472620Y-94093095D02*
X275472620Y-94188333D01*
X275472620Y-94188333D02*
X275425001Y-94331190D01*
X275425001Y-94331190D02*
X274853573Y-94902619D01*
X274853573Y-94902619D02*
X275472620Y-94902619D01*
%TO.C,J2*%
X50614476Y-28595000D02*
X50757333Y-28642619D01*
X50757333Y-28642619D02*
X50995428Y-28642619D01*
X50995428Y-28642619D02*
X51090666Y-28595000D01*
X51090666Y-28595000D02*
X51138285Y-28547380D01*
X51138285Y-28547380D02*
X51185904Y-28452142D01*
X51185904Y-28452142D02*
X51185904Y-28356904D01*
X51185904Y-28356904D02*
X51138285Y-28261666D01*
X51138285Y-28261666D02*
X51090666Y-28214047D01*
X51090666Y-28214047D02*
X50995428Y-28166428D01*
X50995428Y-28166428D02*
X50804952Y-28118809D01*
X50804952Y-28118809D02*
X50709714Y-28071190D01*
X50709714Y-28071190D02*
X50662095Y-28023571D01*
X50662095Y-28023571D02*
X50614476Y-27928333D01*
X50614476Y-27928333D02*
X50614476Y-27833095D01*
X50614476Y-27833095D02*
X50662095Y-27737857D01*
X50662095Y-27737857D02*
X50709714Y-27690238D01*
X50709714Y-27690238D02*
X50804952Y-27642619D01*
X50804952Y-27642619D02*
X51043047Y-27642619D01*
X51043047Y-27642619D02*
X51185904Y-27690238D01*
X52185904Y-28547380D02*
X52138285Y-28595000D01*
X52138285Y-28595000D02*
X51995428Y-28642619D01*
X51995428Y-28642619D02*
X51900190Y-28642619D01*
X51900190Y-28642619D02*
X51757333Y-28595000D01*
X51757333Y-28595000D02*
X51662095Y-28499761D01*
X51662095Y-28499761D02*
X51614476Y-28404523D01*
X51614476Y-28404523D02*
X51566857Y-28214047D01*
X51566857Y-28214047D02*
X51566857Y-28071190D01*
X51566857Y-28071190D02*
X51614476Y-27880714D01*
X51614476Y-27880714D02*
X51662095Y-27785476D01*
X51662095Y-27785476D02*
X51757333Y-27690238D01*
X51757333Y-27690238D02*
X51900190Y-27642619D01*
X51900190Y-27642619D02*
X51995428Y-27642619D01*
X51995428Y-27642619D02*
X52138285Y-27690238D01*
X52138285Y-27690238D02*
X52185904Y-27737857D01*
X52614476Y-28642619D02*
X52614476Y-27642619D01*
X53185904Y-28642619D02*
X52757333Y-28071190D01*
X53185904Y-27642619D02*
X52614476Y-28214047D01*
X50662095Y-33722619D02*
X50662095Y-32722619D01*
X50662095Y-32722619D02*
X50995428Y-33436904D01*
X50995428Y-33436904D02*
X51328761Y-32722619D01*
X51328761Y-32722619D02*
X51328761Y-33722619D01*
X51995428Y-32722619D02*
X52185904Y-32722619D01*
X52185904Y-32722619D02*
X52281142Y-32770238D01*
X52281142Y-32770238D02*
X52376380Y-32865476D01*
X52376380Y-32865476D02*
X52423999Y-33055952D01*
X52423999Y-33055952D02*
X52423999Y-33389285D01*
X52423999Y-33389285D02*
X52376380Y-33579761D01*
X52376380Y-33579761D02*
X52281142Y-33675000D01*
X52281142Y-33675000D02*
X52185904Y-33722619D01*
X52185904Y-33722619D02*
X51995428Y-33722619D01*
X51995428Y-33722619D02*
X51900190Y-33675000D01*
X51900190Y-33675000D02*
X51804952Y-33579761D01*
X51804952Y-33579761D02*
X51757333Y-33389285D01*
X51757333Y-33389285D02*
X51757333Y-33055952D01*
X51757333Y-33055952D02*
X51804952Y-32865476D01*
X51804952Y-32865476D02*
X51900190Y-32770238D01*
X51900190Y-32770238D02*
X51995428Y-32722619D01*
X52804952Y-33675000D02*
X52947809Y-33722619D01*
X52947809Y-33722619D02*
X53185904Y-33722619D01*
X53185904Y-33722619D02*
X53281142Y-33675000D01*
X53281142Y-33675000D02*
X53328761Y-33627380D01*
X53328761Y-33627380D02*
X53376380Y-33532142D01*
X53376380Y-33532142D02*
X53376380Y-33436904D01*
X53376380Y-33436904D02*
X53328761Y-33341666D01*
X53328761Y-33341666D02*
X53281142Y-33294047D01*
X53281142Y-33294047D02*
X53185904Y-33246428D01*
X53185904Y-33246428D02*
X52995428Y-33198809D01*
X52995428Y-33198809D02*
X52900190Y-33151190D01*
X52900190Y-33151190D02*
X52852571Y-33103571D01*
X52852571Y-33103571D02*
X52804952Y-33008333D01*
X52804952Y-33008333D02*
X52804952Y-32913095D01*
X52804952Y-32913095D02*
X52852571Y-32817857D01*
X52852571Y-32817857D02*
X52900190Y-32770238D01*
X52900190Y-32770238D02*
X52995428Y-32722619D01*
X52995428Y-32722619D02*
X53233523Y-32722619D01*
X53233523Y-32722619D02*
X53376380Y-32770238D01*
X53804952Y-33722619D02*
X53804952Y-32722619D01*
X51233523Y-36262619D02*
X50900190Y-35786428D01*
X50662095Y-36262619D02*
X50662095Y-35262619D01*
X50662095Y-35262619D02*
X51043047Y-35262619D01*
X51043047Y-35262619D02*
X51138285Y-35310238D01*
X51138285Y-35310238D02*
X51185904Y-35357857D01*
X51185904Y-35357857D02*
X51233523Y-35453095D01*
X51233523Y-35453095D02*
X51233523Y-35595952D01*
X51233523Y-35595952D02*
X51185904Y-35691190D01*
X51185904Y-35691190D02*
X51138285Y-35738809D01*
X51138285Y-35738809D02*
X51043047Y-35786428D01*
X51043047Y-35786428D02*
X50662095Y-35786428D01*
X51614476Y-36215000D02*
X51757333Y-36262619D01*
X51757333Y-36262619D02*
X51995428Y-36262619D01*
X51995428Y-36262619D02*
X52090666Y-36215000D01*
X52090666Y-36215000D02*
X52138285Y-36167380D01*
X52138285Y-36167380D02*
X52185904Y-36072142D01*
X52185904Y-36072142D02*
X52185904Y-35976904D01*
X52185904Y-35976904D02*
X52138285Y-35881666D01*
X52138285Y-35881666D02*
X52090666Y-35834047D01*
X52090666Y-35834047D02*
X51995428Y-35786428D01*
X51995428Y-35786428D02*
X51804952Y-35738809D01*
X51804952Y-35738809D02*
X51709714Y-35691190D01*
X51709714Y-35691190D02*
X51662095Y-35643571D01*
X51662095Y-35643571D02*
X51614476Y-35548333D01*
X51614476Y-35548333D02*
X51614476Y-35453095D01*
X51614476Y-35453095D02*
X51662095Y-35357857D01*
X51662095Y-35357857D02*
X51709714Y-35310238D01*
X51709714Y-35310238D02*
X51804952Y-35262619D01*
X51804952Y-35262619D02*
X52043047Y-35262619D01*
X52043047Y-35262619D02*
X52185904Y-35310238D01*
X52471619Y-35262619D02*
X53043047Y-35262619D01*
X52757333Y-36262619D02*
X52757333Y-35262619D01*
X50662095Y-31182619D02*
X50662095Y-30182619D01*
X50662095Y-30182619D02*
X50995428Y-30896904D01*
X50995428Y-30896904D02*
X51328761Y-30182619D01*
X51328761Y-30182619D02*
X51328761Y-31182619D01*
X51804952Y-31182619D02*
X51804952Y-30182619D01*
X52233523Y-31135000D02*
X52376380Y-31182619D01*
X52376380Y-31182619D02*
X52614475Y-31182619D01*
X52614475Y-31182619D02*
X52709713Y-31135000D01*
X52709713Y-31135000D02*
X52757332Y-31087380D01*
X52757332Y-31087380D02*
X52804951Y-30992142D01*
X52804951Y-30992142D02*
X52804951Y-30896904D01*
X52804951Y-30896904D02*
X52757332Y-30801666D01*
X52757332Y-30801666D02*
X52709713Y-30754047D01*
X52709713Y-30754047D02*
X52614475Y-30706428D01*
X52614475Y-30706428D02*
X52423999Y-30658809D01*
X52423999Y-30658809D02*
X52328761Y-30611190D01*
X52328761Y-30611190D02*
X52281142Y-30563571D01*
X52281142Y-30563571D02*
X52233523Y-30468333D01*
X52233523Y-30468333D02*
X52233523Y-30373095D01*
X52233523Y-30373095D02*
X52281142Y-30277857D01*
X52281142Y-30277857D02*
X52328761Y-30230238D01*
X52328761Y-30230238D02*
X52423999Y-30182619D01*
X52423999Y-30182619D02*
X52662094Y-30182619D01*
X52662094Y-30182619D02*
X52804951Y-30230238D01*
X53423999Y-30182619D02*
X53614475Y-30182619D01*
X53614475Y-30182619D02*
X53709713Y-30230238D01*
X53709713Y-30230238D02*
X53804951Y-30325476D01*
X53804951Y-30325476D02*
X53852570Y-30515952D01*
X53852570Y-30515952D02*
X53852570Y-30849285D01*
X53852570Y-30849285D02*
X53804951Y-31039761D01*
X53804951Y-31039761D02*
X53709713Y-31135000D01*
X53709713Y-31135000D02*
X53614475Y-31182619D01*
X53614475Y-31182619D02*
X53423999Y-31182619D01*
X53423999Y-31182619D02*
X53328761Y-31135000D01*
X53328761Y-31135000D02*
X53233523Y-31039761D01*
X53233523Y-31039761D02*
X53185904Y-30849285D01*
X53185904Y-30849285D02*
X53185904Y-30515952D01*
X53185904Y-30515952D02*
X53233523Y-30325476D01*
X53233523Y-30325476D02*
X53328761Y-30230238D01*
X53328761Y-30230238D02*
X53423999Y-30182619D01*
X50519238Y-25102619D02*
X50852571Y-26102619D01*
X50852571Y-26102619D02*
X51185904Y-25102619D01*
X52090666Y-26007380D02*
X52043047Y-26055000D01*
X52043047Y-26055000D02*
X51900190Y-26102619D01*
X51900190Y-26102619D02*
X51804952Y-26102619D01*
X51804952Y-26102619D02*
X51662095Y-26055000D01*
X51662095Y-26055000D02*
X51566857Y-25959761D01*
X51566857Y-25959761D02*
X51519238Y-25864523D01*
X51519238Y-25864523D02*
X51471619Y-25674047D01*
X51471619Y-25674047D02*
X51471619Y-25531190D01*
X51471619Y-25531190D02*
X51519238Y-25340714D01*
X51519238Y-25340714D02*
X51566857Y-25245476D01*
X51566857Y-25245476D02*
X51662095Y-25150238D01*
X51662095Y-25150238D02*
X51804952Y-25102619D01*
X51804952Y-25102619D02*
X51900190Y-25102619D01*
X51900190Y-25102619D02*
X52043047Y-25150238D01*
X52043047Y-25150238D02*
X52090666Y-25197857D01*
X53090666Y-26007380D02*
X53043047Y-26055000D01*
X53043047Y-26055000D02*
X52900190Y-26102619D01*
X52900190Y-26102619D02*
X52804952Y-26102619D01*
X52804952Y-26102619D02*
X52662095Y-26055000D01*
X52662095Y-26055000D02*
X52566857Y-25959761D01*
X52566857Y-25959761D02*
X52519238Y-25864523D01*
X52519238Y-25864523D02*
X52471619Y-25674047D01*
X52471619Y-25674047D02*
X52471619Y-25531190D01*
X52471619Y-25531190D02*
X52519238Y-25340714D01*
X52519238Y-25340714D02*
X52566857Y-25245476D01*
X52566857Y-25245476D02*
X52662095Y-25150238D01*
X52662095Y-25150238D02*
X52804952Y-25102619D01*
X52804952Y-25102619D02*
X52900190Y-25102619D01*
X52900190Y-25102619D02*
X53043047Y-25150238D01*
X53043047Y-25150238D02*
X53090666Y-25197857D01*
X51185904Y-22610238D02*
X51090666Y-22562619D01*
X51090666Y-22562619D02*
X50947809Y-22562619D01*
X50947809Y-22562619D02*
X50804952Y-22610238D01*
X50804952Y-22610238D02*
X50709714Y-22705476D01*
X50709714Y-22705476D02*
X50662095Y-22800714D01*
X50662095Y-22800714D02*
X50614476Y-22991190D01*
X50614476Y-22991190D02*
X50614476Y-23134047D01*
X50614476Y-23134047D02*
X50662095Y-23324523D01*
X50662095Y-23324523D02*
X50709714Y-23419761D01*
X50709714Y-23419761D02*
X50804952Y-23515000D01*
X50804952Y-23515000D02*
X50947809Y-23562619D01*
X50947809Y-23562619D02*
X51043047Y-23562619D01*
X51043047Y-23562619D02*
X51185904Y-23515000D01*
X51185904Y-23515000D02*
X51233523Y-23467380D01*
X51233523Y-23467380D02*
X51233523Y-23134047D01*
X51233523Y-23134047D02*
X51043047Y-23134047D01*
X51662095Y-23562619D02*
X51662095Y-22562619D01*
X51662095Y-22562619D02*
X52233523Y-23562619D01*
X52233523Y-23562619D02*
X52233523Y-22562619D01*
X52709714Y-23562619D02*
X52709714Y-22562619D01*
X52709714Y-22562619D02*
X52947809Y-22562619D01*
X52947809Y-22562619D02*
X53090666Y-22610238D01*
X53090666Y-22610238D02*
X53185904Y-22705476D01*
X53185904Y-22705476D02*
X53233523Y-22800714D01*
X53233523Y-22800714D02*
X53281142Y-22991190D01*
X53281142Y-22991190D02*
X53281142Y-23134047D01*
X53281142Y-23134047D02*
X53233523Y-23324523D01*
X53233523Y-23324523D02*
X53185904Y-23419761D01*
X53185904Y-23419761D02*
X53090666Y-23515000D01*
X53090666Y-23515000D02*
X52947809Y-23562619D01*
X52947809Y-23562619D02*
X52709714Y-23562619D01*
D11*
X50170000Y-36816000D02*
X49916000Y-37070000D01*
X50170000Y-34784000D02*
X50170000Y-36816000D01*
X50170000Y-34784000D02*
X49916000Y-34530000D01*
X50170000Y-34276000D02*
X49916000Y-34530000D01*
X50170000Y-32244000D02*
X50170000Y-34276000D01*
X50170000Y-32244000D02*
X49916000Y-31990000D01*
X50170000Y-31736000D02*
X49916000Y-31990000D01*
X50170000Y-29704000D02*
X50170000Y-31736000D01*
X50170000Y-29704000D02*
X49916000Y-29450000D01*
X50170000Y-29196000D02*
X49916000Y-29450000D01*
X50170000Y-27164000D02*
X50170000Y-29196000D01*
X50170000Y-27164000D02*
X49916000Y-26910000D01*
X50170000Y-26656000D02*
X49916000Y-26910000D01*
X50170000Y-24624000D02*
X50170000Y-26656000D01*
X50170000Y-24624000D02*
X49916000Y-24370000D01*
X50170000Y-24116000D02*
X50170000Y-22084000D01*
X50170000Y-24116000D02*
X49916000Y-24370000D01*
X50170000Y-22084000D02*
X49916000Y-21830000D01*
X49916000Y-21830000D02*
X47884000Y-21830000D01*
X47884000Y-37070000D02*
X49916000Y-37070000D01*
X47884000Y-24370000D02*
X49916000Y-24370000D01*
X47630000Y-36816000D02*
X47884000Y-37070000D01*
X47630000Y-34784000D02*
X47884000Y-34530000D01*
X47630000Y-34784000D02*
X47630000Y-36816000D01*
X47630000Y-34276000D02*
X47884000Y-34530000D01*
X47630000Y-32244000D02*
X47884000Y-31990000D01*
X47630000Y-32244000D02*
X47630000Y-34276000D01*
X47630000Y-31736000D02*
X47884000Y-31990000D01*
X47630000Y-29704000D02*
X47884000Y-29450000D01*
X47630000Y-29704000D02*
X47630000Y-31736000D01*
X47630000Y-29196000D02*
X47884000Y-29450000D01*
X47630000Y-27164000D02*
X47884000Y-26910000D01*
X47630000Y-27164000D02*
X47630000Y-29196000D01*
X47630000Y-26656000D02*
X47884000Y-26910000D01*
X47630000Y-24624000D02*
X47884000Y-24370000D01*
X47630000Y-24624000D02*
X47630000Y-26656000D01*
X47630000Y-24116000D02*
X47884000Y-24370000D01*
X47630000Y-24116000D02*
X47630000Y-22084000D01*
X47630000Y-22084000D02*
X47884000Y-21830000D01*
%TD*%
M02*
