%TF.GenerationSoftware,KiCad,Pcbnew,7.0.1-0*%
%TF.CreationDate,2023-08-02T22:09:24-05:00*%
%TF.ProjectId,pcb,7063622e-6b69-4636-9164-5f7063625858,rev?*%
%TF.SameCoordinates,Original*%
%TF.FileFunction,Legend,Bot*%
%TF.FilePolarity,Positive*%
%FSLAX46Y46*%
G04 Gerber Fmt 4.6, Leading zero omitted, Abs format (unit mm)*
G04 Created by KiCad (PCBNEW 7.0.1-0) date 2023-08-02 22:09:24*
%MOMM*%
%LPD*%
G01*
G04 APERTURE LIST*
%ADD10C,0.150000*%
%ADD11C,0.120000*%
G04 APERTURE END LIST*
D10*
X275864289Y-94837619D02*
X275864289Y-94313809D01*
X275864289Y-94313809D02*
X275911908Y-94218571D01*
X275911908Y-94218571D02*
X276007146Y-94170952D01*
X276007146Y-94170952D02*
X276197622Y-94170952D01*
X276197622Y-94170952D02*
X276292860Y-94218571D01*
X275864289Y-94790000D02*
X275959527Y-94837619D01*
X275959527Y-94837619D02*
X276197622Y-94837619D01*
X276197622Y-94837619D02*
X276292860Y-94790000D01*
X276292860Y-94790000D02*
X276340479Y-94694761D01*
X276340479Y-94694761D02*
X276340479Y-94599523D01*
X276340479Y-94599523D02*
X276292860Y-94504285D01*
X276292860Y-94504285D02*
X276197622Y-94456666D01*
X276197622Y-94456666D02*
X275959527Y-94456666D01*
X275959527Y-94456666D02*
X275864289Y-94409047D01*
X275388098Y-94170952D02*
X275388098Y-94837619D01*
X275388098Y-94266190D02*
X275340479Y-94218571D01*
X275340479Y-94218571D02*
X275245241Y-94170952D01*
X275245241Y-94170952D02*
X275102384Y-94170952D01*
X275102384Y-94170952D02*
X275007146Y-94218571D01*
X275007146Y-94218571D02*
X274959527Y-94313809D01*
X274959527Y-94313809D02*
X274959527Y-94837619D01*
X274578574Y-94170952D02*
X274340479Y-94837619D01*
X274102384Y-94170952D02*
X274340479Y-94837619D01*
X274340479Y-94837619D02*
X274435717Y-95075714D01*
X274435717Y-95075714D02*
X274483336Y-95123333D01*
X274483336Y-95123333D02*
X274578574Y-95170952D01*
X273864288Y-94170952D02*
X273483336Y-94170952D01*
X273721431Y-93837619D02*
X273721431Y-94694761D01*
X273721431Y-94694761D02*
X273673812Y-94790000D01*
X273673812Y-94790000D02*
X273578574Y-94837619D01*
X273578574Y-94837619D02*
X273483336Y-94837619D01*
X273150002Y-94837619D02*
X273150002Y-93837619D01*
X272721431Y-94837619D02*
X272721431Y-94313809D01*
X272721431Y-94313809D02*
X272769050Y-94218571D01*
X272769050Y-94218571D02*
X272864288Y-94170952D01*
X272864288Y-94170952D02*
X273007145Y-94170952D01*
X273007145Y-94170952D02*
X273102383Y-94218571D01*
X273102383Y-94218571D02*
X273150002Y-94266190D01*
X272245240Y-94837619D02*
X272245240Y-94170952D01*
X272245240Y-93837619D02*
X272292859Y-93885238D01*
X272292859Y-93885238D02*
X272245240Y-93932857D01*
X272245240Y-93932857D02*
X272197621Y-93885238D01*
X272197621Y-93885238D02*
X272245240Y-93837619D01*
X272245240Y-93837619D02*
X272245240Y-93932857D01*
X271769050Y-94170952D02*
X271769050Y-94837619D01*
X271769050Y-94266190D02*
X271721431Y-94218571D01*
X271721431Y-94218571D02*
X271626193Y-94170952D01*
X271626193Y-94170952D02*
X271483336Y-94170952D01*
X271483336Y-94170952D02*
X271388098Y-94218571D01*
X271388098Y-94218571D02*
X271340479Y-94313809D01*
X271340479Y-94313809D02*
X271340479Y-94837619D01*
X270435717Y-94170952D02*
X270435717Y-94980476D01*
X270435717Y-94980476D02*
X270483336Y-95075714D01*
X270483336Y-95075714D02*
X270530955Y-95123333D01*
X270530955Y-95123333D02*
X270626193Y-95170952D01*
X270626193Y-95170952D02*
X270769050Y-95170952D01*
X270769050Y-95170952D02*
X270864288Y-95123333D01*
X270435717Y-94790000D02*
X270530955Y-94837619D01*
X270530955Y-94837619D02*
X270721431Y-94837619D01*
X270721431Y-94837619D02*
X270816669Y-94790000D01*
X270816669Y-94790000D02*
X270864288Y-94742380D01*
X270864288Y-94742380D02*
X270911907Y-94647142D01*
X270911907Y-94647142D02*
X270911907Y-94361428D01*
X270911907Y-94361428D02*
X270864288Y-94266190D01*
X270864288Y-94266190D02*
X270816669Y-94218571D01*
X270816669Y-94218571D02*
X270721431Y-94170952D01*
X270721431Y-94170952D02*
X270530955Y-94170952D01*
X270530955Y-94170952D02*
X270435717Y-94218571D01*
X269197621Y-94837619D02*
X269197621Y-94170952D01*
X269197621Y-93837619D02*
X269245240Y-93885238D01*
X269245240Y-93885238D02*
X269197621Y-93932857D01*
X269197621Y-93932857D02*
X269150002Y-93885238D01*
X269150002Y-93885238D02*
X269197621Y-93837619D01*
X269197621Y-93837619D02*
X269197621Y-93932857D01*
X268769050Y-94790000D02*
X268673812Y-94837619D01*
X268673812Y-94837619D02*
X268483336Y-94837619D01*
X268483336Y-94837619D02*
X268388098Y-94790000D01*
X268388098Y-94790000D02*
X268340479Y-94694761D01*
X268340479Y-94694761D02*
X268340479Y-94647142D01*
X268340479Y-94647142D02*
X268388098Y-94551904D01*
X268388098Y-94551904D02*
X268483336Y-94504285D01*
X268483336Y-94504285D02*
X268626193Y-94504285D01*
X268626193Y-94504285D02*
X268721431Y-94456666D01*
X268721431Y-94456666D02*
X268769050Y-94361428D01*
X268769050Y-94361428D02*
X268769050Y-94313809D01*
X268769050Y-94313809D02*
X268721431Y-94218571D01*
X268721431Y-94218571D02*
X268626193Y-94170952D01*
X268626193Y-94170952D02*
X268483336Y-94170952D01*
X268483336Y-94170952D02*
X268388098Y-94218571D01*
X267150002Y-94170952D02*
X267150002Y-95170952D01*
X267150002Y-94218571D02*
X267054764Y-94170952D01*
X267054764Y-94170952D02*
X266864288Y-94170952D01*
X266864288Y-94170952D02*
X266769050Y-94218571D01*
X266769050Y-94218571D02*
X266721431Y-94266190D01*
X266721431Y-94266190D02*
X266673812Y-94361428D01*
X266673812Y-94361428D02*
X266673812Y-94647142D01*
X266673812Y-94647142D02*
X266721431Y-94742380D01*
X266721431Y-94742380D02*
X266769050Y-94790000D01*
X266769050Y-94790000D02*
X266864288Y-94837619D01*
X266864288Y-94837619D02*
X267054764Y-94837619D01*
X267054764Y-94837619D02*
X267150002Y-94790000D01*
X266102383Y-94837619D02*
X266197621Y-94790000D01*
X266197621Y-94790000D02*
X266245240Y-94742380D01*
X266245240Y-94742380D02*
X266292859Y-94647142D01*
X266292859Y-94647142D02*
X266292859Y-94361428D01*
X266292859Y-94361428D02*
X266245240Y-94266190D01*
X266245240Y-94266190D02*
X266197621Y-94218571D01*
X266197621Y-94218571D02*
X266102383Y-94170952D01*
X266102383Y-94170952D02*
X265959526Y-94170952D01*
X265959526Y-94170952D02*
X265864288Y-94218571D01*
X265864288Y-94218571D02*
X265816669Y-94266190D01*
X265816669Y-94266190D02*
X265769050Y-94361428D01*
X265769050Y-94361428D02*
X265769050Y-94647142D01*
X265769050Y-94647142D02*
X265816669Y-94742380D01*
X265816669Y-94742380D02*
X265864288Y-94790000D01*
X265864288Y-94790000D02*
X265959526Y-94837619D01*
X265959526Y-94837619D02*
X266102383Y-94837619D01*
X265388097Y-94790000D02*
X265292859Y-94837619D01*
X265292859Y-94837619D02*
X265102383Y-94837619D01*
X265102383Y-94837619D02*
X265007145Y-94790000D01*
X265007145Y-94790000D02*
X264959526Y-94694761D01*
X264959526Y-94694761D02*
X264959526Y-94647142D01*
X264959526Y-94647142D02*
X265007145Y-94551904D01*
X265007145Y-94551904D02*
X265102383Y-94504285D01*
X265102383Y-94504285D02*
X265245240Y-94504285D01*
X265245240Y-94504285D02*
X265340478Y-94456666D01*
X265340478Y-94456666D02*
X265388097Y-94361428D01*
X265388097Y-94361428D02*
X265388097Y-94313809D01*
X265388097Y-94313809D02*
X265340478Y-94218571D01*
X265340478Y-94218571D02*
X265245240Y-94170952D01*
X265245240Y-94170952D02*
X265102383Y-94170952D01*
X265102383Y-94170952D02*
X265007145Y-94218571D01*
X264578573Y-94790000D02*
X264483335Y-94837619D01*
X264483335Y-94837619D02*
X264292859Y-94837619D01*
X264292859Y-94837619D02*
X264197621Y-94790000D01*
X264197621Y-94790000D02*
X264150002Y-94694761D01*
X264150002Y-94694761D02*
X264150002Y-94647142D01*
X264150002Y-94647142D02*
X264197621Y-94551904D01*
X264197621Y-94551904D02*
X264292859Y-94504285D01*
X264292859Y-94504285D02*
X264435716Y-94504285D01*
X264435716Y-94504285D02*
X264530954Y-94456666D01*
X264530954Y-94456666D02*
X264578573Y-94361428D01*
X264578573Y-94361428D02*
X264578573Y-94313809D01*
X264578573Y-94313809D02*
X264530954Y-94218571D01*
X264530954Y-94218571D02*
X264435716Y-94170952D01*
X264435716Y-94170952D02*
X264292859Y-94170952D01*
X264292859Y-94170952D02*
X264197621Y-94218571D01*
X263721430Y-94837619D02*
X263721430Y-94170952D01*
X263721430Y-93837619D02*
X263769049Y-93885238D01*
X263769049Y-93885238D02*
X263721430Y-93932857D01*
X263721430Y-93932857D02*
X263673811Y-93885238D01*
X263673811Y-93885238D02*
X263721430Y-93837619D01*
X263721430Y-93837619D02*
X263721430Y-93932857D01*
X263245240Y-94837619D02*
X263245240Y-93837619D01*
X263245240Y-94218571D02*
X263150002Y-94170952D01*
X263150002Y-94170952D02*
X262959526Y-94170952D01*
X262959526Y-94170952D02*
X262864288Y-94218571D01*
X262864288Y-94218571D02*
X262816669Y-94266190D01*
X262816669Y-94266190D02*
X262769050Y-94361428D01*
X262769050Y-94361428D02*
X262769050Y-94647142D01*
X262769050Y-94647142D02*
X262816669Y-94742380D01*
X262816669Y-94742380D02*
X262864288Y-94790000D01*
X262864288Y-94790000D02*
X262959526Y-94837619D01*
X262959526Y-94837619D02*
X263150002Y-94837619D01*
X263150002Y-94837619D02*
X263245240Y-94790000D01*
X262197621Y-94837619D02*
X262292859Y-94790000D01*
X262292859Y-94790000D02*
X262340478Y-94694761D01*
X262340478Y-94694761D02*
X262340478Y-93837619D01*
X261435716Y-94790000D02*
X261530954Y-94837619D01*
X261530954Y-94837619D02*
X261721430Y-94837619D01*
X261721430Y-94837619D02*
X261816668Y-94790000D01*
X261816668Y-94790000D02*
X261864287Y-94694761D01*
X261864287Y-94694761D02*
X261864287Y-94313809D01*
X261864287Y-94313809D02*
X261816668Y-94218571D01*
X261816668Y-94218571D02*
X261721430Y-94170952D01*
X261721430Y-94170952D02*
X261530954Y-94170952D01*
X261530954Y-94170952D02*
X261435716Y-94218571D01*
X261435716Y-94218571D02*
X261388097Y-94313809D01*
X261388097Y-94313809D02*
X261388097Y-94409047D01*
X261388097Y-94409047D02*
X261864287Y-94504285D01*
X260292858Y-94170952D02*
X260102382Y-94837619D01*
X260102382Y-94837619D02*
X259911906Y-94361428D01*
X259911906Y-94361428D02*
X259721430Y-94837619D01*
X259721430Y-94837619D02*
X259530954Y-94170952D01*
X259150001Y-94837619D02*
X259150001Y-94170952D01*
X259150001Y-93837619D02*
X259197620Y-93885238D01*
X259197620Y-93885238D02*
X259150001Y-93932857D01*
X259150001Y-93932857D02*
X259102382Y-93885238D01*
X259102382Y-93885238D02*
X259150001Y-93837619D01*
X259150001Y-93837619D02*
X259150001Y-93932857D01*
X258816668Y-94170952D02*
X258435716Y-94170952D01*
X258673811Y-93837619D02*
X258673811Y-94694761D01*
X258673811Y-94694761D02*
X258626192Y-94790000D01*
X258626192Y-94790000D02*
X258530954Y-94837619D01*
X258530954Y-94837619D02*
X258435716Y-94837619D01*
X258102382Y-94837619D02*
X258102382Y-93837619D01*
X257673811Y-94837619D02*
X257673811Y-94313809D01*
X257673811Y-94313809D02*
X257721430Y-94218571D01*
X257721430Y-94218571D02*
X257816668Y-94170952D01*
X257816668Y-94170952D02*
X257959525Y-94170952D01*
X257959525Y-94170952D02*
X258054763Y-94218571D01*
X258054763Y-94218571D02*
X258102382Y-94266190D01*
X256007144Y-94837619D02*
X256007144Y-94313809D01*
X256007144Y-94313809D02*
X256054763Y-94218571D01*
X256054763Y-94218571D02*
X256150001Y-94170952D01*
X256150001Y-94170952D02*
X256340477Y-94170952D01*
X256340477Y-94170952D02*
X256435715Y-94218571D01*
X256007144Y-94790000D02*
X256102382Y-94837619D01*
X256102382Y-94837619D02*
X256340477Y-94837619D01*
X256340477Y-94837619D02*
X256435715Y-94790000D01*
X256435715Y-94790000D02*
X256483334Y-94694761D01*
X256483334Y-94694761D02*
X256483334Y-94599523D01*
X256483334Y-94599523D02*
X256435715Y-94504285D01*
X256435715Y-94504285D02*
X256340477Y-94456666D01*
X256340477Y-94456666D02*
X256102382Y-94456666D01*
X256102382Y-94456666D02*
X256007144Y-94409047D01*
X254340477Y-94837619D02*
X254340477Y-93837619D01*
X254340477Y-94790000D02*
X254435715Y-94837619D01*
X254435715Y-94837619D02*
X254626191Y-94837619D01*
X254626191Y-94837619D02*
X254721429Y-94790000D01*
X254721429Y-94790000D02*
X254769048Y-94742380D01*
X254769048Y-94742380D02*
X254816667Y-94647142D01*
X254816667Y-94647142D02*
X254816667Y-94361428D01*
X254816667Y-94361428D02*
X254769048Y-94266190D01*
X254769048Y-94266190D02*
X254721429Y-94218571D01*
X254721429Y-94218571D02*
X254626191Y-94170952D01*
X254626191Y-94170952D02*
X254435715Y-94170952D01*
X254435715Y-94170952D02*
X254340477Y-94218571D01*
X253864286Y-94837619D02*
X253864286Y-94170952D01*
X253864286Y-94361428D02*
X253816667Y-94266190D01*
X253816667Y-94266190D02*
X253769048Y-94218571D01*
X253769048Y-94218571D02*
X253673810Y-94170952D01*
X253673810Y-94170952D02*
X253578572Y-94170952D01*
X252864286Y-94790000D02*
X252959524Y-94837619D01*
X252959524Y-94837619D02*
X253150000Y-94837619D01*
X253150000Y-94837619D02*
X253245238Y-94790000D01*
X253245238Y-94790000D02*
X253292857Y-94694761D01*
X253292857Y-94694761D02*
X253292857Y-94313809D01*
X253292857Y-94313809D02*
X253245238Y-94218571D01*
X253245238Y-94218571D02*
X253150000Y-94170952D01*
X253150000Y-94170952D02*
X252959524Y-94170952D01*
X252959524Y-94170952D02*
X252864286Y-94218571D01*
X252864286Y-94218571D02*
X252816667Y-94313809D01*
X252816667Y-94313809D02*
X252816667Y-94409047D01*
X252816667Y-94409047D02*
X253292857Y-94504285D01*
X252388095Y-94837619D02*
X252388095Y-94170952D01*
X252388095Y-94266190D02*
X252340476Y-94218571D01*
X252340476Y-94218571D02*
X252245238Y-94170952D01*
X252245238Y-94170952D02*
X252102381Y-94170952D01*
X252102381Y-94170952D02*
X252007143Y-94218571D01*
X252007143Y-94218571D02*
X251959524Y-94313809D01*
X251959524Y-94313809D02*
X251959524Y-94837619D01*
X251959524Y-94313809D02*
X251911905Y-94218571D01*
X251911905Y-94218571D02*
X251816667Y-94170952D01*
X251816667Y-94170952D02*
X251673810Y-94170952D01*
X251673810Y-94170952D02*
X251578571Y-94218571D01*
X251578571Y-94218571D02*
X251530952Y-94313809D01*
X251530952Y-94313809D02*
X251530952Y-94837619D01*
X250673810Y-94790000D02*
X250769048Y-94837619D01*
X250769048Y-94837619D02*
X250959524Y-94837619D01*
X250959524Y-94837619D02*
X251054762Y-94790000D01*
X251054762Y-94790000D02*
X251102381Y-94694761D01*
X251102381Y-94694761D02*
X251102381Y-94313809D01*
X251102381Y-94313809D02*
X251054762Y-94218571D01*
X251054762Y-94218571D02*
X250959524Y-94170952D01*
X250959524Y-94170952D02*
X250769048Y-94170952D01*
X250769048Y-94170952D02*
X250673810Y-94218571D01*
X250673810Y-94218571D02*
X250626191Y-94313809D01*
X250626191Y-94313809D02*
X250626191Y-94409047D01*
X250626191Y-94409047D02*
X251102381Y-94504285D01*
X250054762Y-94837619D02*
X250150000Y-94790000D01*
X250150000Y-94790000D02*
X250197619Y-94694761D01*
X250197619Y-94694761D02*
X250197619Y-93837619D01*
X248483333Y-94837619D02*
X248483333Y-94313809D01*
X248483333Y-94313809D02*
X248530952Y-94218571D01*
X248530952Y-94218571D02*
X248626190Y-94170952D01*
X248626190Y-94170952D02*
X248816666Y-94170952D01*
X248816666Y-94170952D02*
X248911904Y-94218571D01*
X248483333Y-94790000D02*
X248578571Y-94837619D01*
X248578571Y-94837619D02*
X248816666Y-94837619D01*
X248816666Y-94837619D02*
X248911904Y-94790000D01*
X248911904Y-94790000D02*
X248959523Y-94694761D01*
X248959523Y-94694761D02*
X248959523Y-94599523D01*
X248959523Y-94599523D02*
X248911904Y-94504285D01*
X248911904Y-94504285D02*
X248816666Y-94456666D01*
X248816666Y-94456666D02*
X248578571Y-94456666D01*
X248578571Y-94456666D02*
X248483333Y-94409047D01*
X248007142Y-94170952D02*
X248007142Y-94837619D01*
X248007142Y-94266190D02*
X247959523Y-94218571D01*
X247959523Y-94218571D02*
X247864285Y-94170952D01*
X247864285Y-94170952D02*
X247721428Y-94170952D01*
X247721428Y-94170952D02*
X247626190Y-94218571D01*
X247626190Y-94218571D02*
X247578571Y-94313809D01*
X247578571Y-94313809D02*
X247578571Y-94837619D01*
X246673809Y-94837619D02*
X246673809Y-93837619D01*
X246673809Y-94790000D02*
X246769047Y-94837619D01*
X246769047Y-94837619D02*
X246959523Y-94837619D01*
X246959523Y-94837619D02*
X247054761Y-94790000D01*
X247054761Y-94790000D02*
X247102380Y-94742380D01*
X247102380Y-94742380D02*
X247149999Y-94647142D01*
X247149999Y-94647142D02*
X247149999Y-94361428D01*
X247149999Y-94361428D02*
X247102380Y-94266190D01*
X247102380Y-94266190D02*
X247054761Y-94218571D01*
X247054761Y-94218571D02*
X246959523Y-94170952D01*
X246959523Y-94170952D02*
X246769047Y-94170952D01*
X246769047Y-94170952D02*
X246673809Y-94218571D01*
X245007142Y-94837619D02*
X245007142Y-94313809D01*
X245007142Y-94313809D02*
X245054761Y-94218571D01*
X245054761Y-94218571D02*
X245149999Y-94170952D01*
X245149999Y-94170952D02*
X245340475Y-94170952D01*
X245340475Y-94170952D02*
X245435713Y-94218571D01*
X245007142Y-94790000D02*
X245102380Y-94837619D01*
X245102380Y-94837619D02*
X245340475Y-94837619D01*
X245340475Y-94837619D02*
X245435713Y-94790000D01*
X245435713Y-94790000D02*
X245483332Y-94694761D01*
X245483332Y-94694761D02*
X245483332Y-94599523D01*
X245483332Y-94599523D02*
X245435713Y-94504285D01*
X245435713Y-94504285D02*
X245340475Y-94456666D01*
X245340475Y-94456666D02*
X245102380Y-94456666D01*
X245102380Y-94456666D02*
X245007142Y-94409047D01*
X243626189Y-94837619D02*
X243721427Y-94790000D01*
X243721427Y-94790000D02*
X243769046Y-94694761D01*
X243769046Y-94694761D02*
X243769046Y-93837619D01*
X243245236Y-94837619D02*
X243245236Y-94170952D01*
X243245236Y-93837619D02*
X243292855Y-93885238D01*
X243292855Y-93885238D02*
X243245236Y-93932857D01*
X243245236Y-93932857D02*
X243197617Y-93885238D01*
X243197617Y-93885238D02*
X243245236Y-93837619D01*
X243245236Y-93837619D02*
X243245236Y-93932857D01*
X242911903Y-94170952D02*
X242530951Y-94170952D01*
X242769046Y-93837619D02*
X242769046Y-94694761D01*
X242769046Y-94694761D02*
X242721427Y-94790000D01*
X242721427Y-94790000D02*
X242626189Y-94837619D01*
X242626189Y-94837619D02*
X242530951Y-94837619D01*
X242340474Y-94170952D02*
X241959522Y-94170952D01*
X242197617Y-93837619D02*
X242197617Y-94694761D01*
X242197617Y-94694761D02*
X242149998Y-94790000D01*
X242149998Y-94790000D02*
X242054760Y-94837619D01*
X242054760Y-94837619D02*
X241959522Y-94837619D01*
X241483331Y-94837619D02*
X241578569Y-94790000D01*
X241578569Y-94790000D02*
X241626188Y-94694761D01*
X241626188Y-94694761D02*
X241626188Y-93837619D01*
X240721426Y-94790000D02*
X240816664Y-94837619D01*
X240816664Y-94837619D02*
X241007140Y-94837619D01*
X241007140Y-94837619D02*
X241102378Y-94790000D01*
X241102378Y-94790000D02*
X241149997Y-94694761D01*
X241149997Y-94694761D02*
X241149997Y-94313809D01*
X241149997Y-94313809D02*
X241102378Y-94218571D01*
X241102378Y-94218571D02*
X241007140Y-94170952D01*
X241007140Y-94170952D02*
X240816664Y-94170952D01*
X240816664Y-94170952D02*
X240721426Y-94218571D01*
X240721426Y-94218571D02*
X240673807Y-94313809D01*
X240673807Y-94313809D02*
X240673807Y-94409047D01*
X240673807Y-94409047D02*
X241149997Y-94504285D01*
X239054759Y-94790000D02*
X239149997Y-94837619D01*
X239149997Y-94837619D02*
X239340473Y-94837619D01*
X239340473Y-94837619D02*
X239435711Y-94790000D01*
X239435711Y-94790000D02*
X239483330Y-94742380D01*
X239483330Y-94742380D02*
X239530949Y-94647142D01*
X239530949Y-94647142D02*
X239530949Y-94361428D01*
X239530949Y-94361428D02*
X239483330Y-94266190D01*
X239483330Y-94266190D02*
X239435711Y-94218571D01*
X239435711Y-94218571D02*
X239340473Y-94170952D01*
X239340473Y-94170952D02*
X239149997Y-94170952D01*
X239149997Y-94170952D02*
X239054759Y-94218571D01*
X238483330Y-94837619D02*
X238578568Y-94790000D01*
X238578568Y-94790000D02*
X238626187Y-94742380D01*
X238626187Y-94742380D02*
X238673806Y-94647142D01*
X238673806Y-94647142D02*
X238673806Y-94361428D01*
X238673806Y-94361428D02*
X238626187Y-94266190D01*
X238626187Y-94266190D02*
X238578568Y-94218571D01*
X238578568Y-94218571D02*
X238483330Y-94170952D01*
X238483330Y-94170952D02*
X238340473Y-94170952D01*
X238340473Y-94170952D02*
X238245235Y-94218571D01*
X238245235Y-94218571D02*
X238197616Y-94266190D01*
X238197616Y-94266190D02*
X238149997Y-94361428D01*
X238149997Y-94361428D02*
X238149997Y-94647142D01*
X238149997Y-94647142D02*
X238197616Y-94742380D01*
X238197616Y-94742380D02*
X238245235Y-94790000D01*
X238245235Y-94790000D02*
X238340473Y-94837619D01*
X238340473Y-94837619D02*
X238483330Y-94837619D01*
X237292854Y-94170952D02*
X237292854Y-94837619D01*
X237721425Y-94170952D02*
X237721425Y-94694761D01*
X237721425Y-94694761D02*
X237673806Y-94790000D01*
X237673806Y-94790000D02*
X237578568Y-94837619D01*
X237578568Y-94837619D02*
X237435711Y-94837619D01*
X237435711Y-94837619D02*
X237340473Y-94790000D01*
X237340473Y-94790000D02*
X237292854Y-94742380D01*
X236816663Y-94837619D02*
X236816663Y-94170952D01*
X236816663Y-94361428D02*
X236769044Y-94266190D01*
X236769044Y-94266190D02*
X236721425Y-94218571D01*
X236721425Y-94218571D02*
X236626187Y-94170952D01*
X236626187Y-94170952D02*
X236530949Y-94170952D01*
X235769044Y-94837619D02*
X235769044Y-94313809D01*
X235769044Y-94313809D02*
X235816663Y-94218571D01*
X235816663Y-94218571D02*
X235911901Y-94170952D01*
X235911901Y-94170952D02*
X236102377Y-94170952D01*
X236102377Y-94170952D02*
X236197615Y-94218571D01*
X235769044Y-94790000D02*
X235864282Y-94837619D01*
X235864282Y-94837619D02*
X236102377Y-94837619D01*
X236102377Y-94837619D02*
X236197615Y-94790000D01*
X236197615Y-94790000D02*
X236245234Y-94694761D01*
X236245234Y-94694761D02*
X236245234Y-94599523D01*
X236245234Y-94599523D02*
X236197615Y-94504285D01*
X236197615Y-94504285D02*
X236102377Y-94456666D01*
X236102377Y-94456666D02*
X235864282Y-94456666D01*
X235864282Y-94456666D02*
X235769044Y-94409047D01*
X234864282Y-94170952D02*
X234864282Y-94980476D01*
X234864282Y-94980476D02*
X234911901Y-95075714D01*
X234911901Y-95075714D02*
X234959520Y-95123333D01*
X234959520Y-95123333D02*
X235054758Y-95170952D01*
X235054758Y-95170952D02*
X235197615Y-95170952D01*
X235197615Y-95170952D02*
X235292853Y-95123333D01*
X234864282Y-94790000D02*
X234959520Y-94837619D01*
X234959520Y-94837619D02*
X235149996Y-94837619D01*
X235149996Y-94837619D02*
X235245234Y-94790000D01*
X235245234Y-94790000D02*
X235292853Y-94742380D01*
X235292853Y-94742380D02*
X235340472Y-94647142D01*
X235340472Y-94647142D02*
X235340472Y-94361428D01*
X235340472Y-94361428D02*
X235292853Y-94266190D01*
X235292853Y-94266190D02*
X235245234Y-94218571D01*
X235245234Y-94218571D02*
X235149996Y-94170952D01*
X235149996Y-94170952D02*
X234959520Y-94170952D01*
X234959520Y-94170952D02*
X234864282Y-94218571D01*
X234007139Y-94790000D02*
X234102377Y-94837619D01*
X234102377Y-94837619D02*
X234292853Y-94837619D01*
X234292853Y-94837619D02*
X234388091Y-94790000D01*
X234388091Y-94790000D02*
X234435710Y-94694761D01*
X234435710Y-94694761D02*
X234435710Y-94313809D01*
X234435710Y-94313809D02*
X234388091Y-94218571D01*
X234388091Y-94218571D02*
X234292853Y-94170952D01*
X234292853Y-94170952D02*
X234102377Y-94170952D01*
X234102377Y-94170952D02*
X234007139Y-94218571D01*
X234007139Y-94218571D02*
X233959520Y-94313809D01*
X233959520Y-94313809D02*
X233959520Y-94409047D01*
X233959520Y-94409047D02*
X234435710Y-94504285D01*
%TO.C,C4*%
X55391666Y-50642380D02*
X55439285Y-50690000D01*
X55439285Y-50690000D02*
X55582142Y-50737619D01*
X55582142Y-50737619D02*
X55677380Y-50737619D01*
X55677380Y-50737619D02*
X55820237Y-50690000D01*
X55820237Y-50690000D02*
X55915475Y-50594761D01*
X55915475Y-50594761D02*
X55963094Y-50499523D01*
X55963094Y-50499523D02*
X56010713Y-50309047D01*
X56010713Y-50309047D02*
X56010713Y-50166190D01*
X56010713Y-50166190D02*
X55963094Y-49975714D01*
X55963094Y-49975714D02*
X55915475Y-49880476D01*
X55915475Y-49880476D02*
X55820237Y-49785238D01*
X55820237Y-49785238D02*
X55677380Y-49737619D01*
X55677380Y-49737619D02*
X55582142Y-49737619D01*
X55582142Y-49737619D02*
X55439285Y-49785238D01*
X55439285Y-49785238D02*
X55391666Y-49832857D01*
X54534523Y-50070952D02*
X54534523Y-50737619D01*
X54772618Y-49690000D02*
X55010713Y-50404285D01*
X55010713Y-50404285D02*
X54391666Y-50404285D01*
%TO.C,RSW1*%
X34976781Y-32987619D02*
X35310114Y-32511428D01*
X35548209Y-32987619D02*
X35548209Y-31987619D01*
X35548209Y-31987619D02*
X35167257Y-31987619D01*
X35167257Y-31987619D02*
X35072019Y-32035238D01*
X35072019Y-32035238D02*
X35024400Y-32082857D01*
X35024400Y-32082857D02*
X34976781Y-32178095D01*
X34976781Y-32178095D02*
X34976781Y-32320952D01*
X34976781Y-32320952D02*
X35024400Y-32416190D01*
X35024400Y-32416190D02*
X35072019Y-32463809D01*
X35072019Y-32463809D02*
X35167257Y-32511428D01*
X35167257Y-32511428D02*
X35548209Y-32511428D01*
X34595828Y-32940000D02*
X34452971Y-32987619D01*
X34452971Y-32987619D02*
X34214876Y-32987619D01*
X34214876Y-32987619D02*
X34119638Y-32940000D01*
X34119638Y-32940000D02*
X34072019Y-32892380D01*
X34072019Y-32892380D02*
X34024400Y-32797142D01*
X34024400Y-32797142D02*
X34024400Y-32701904D01*
X34024400Y-32701904D02*
X34072019Y-32606666D01*
X34072019Y-32606666D02*
X34119638Y-32559047D01*
X34119638Y-32559047D02*
X34214876Y-32511428D01*
X34214876Y-32511428D02*
X34405352Y-32463809D01*
X34405352Y-32463809D02*
X34500590Y-32416190D01*
X34500590Y-32416190D02*
X34548209Y-32368571D01*
X34548209Y-32368571D02*
X34595828Y-32273333D01*
X34595828Y-32273333D02*
X34595828Y-32178095D01*
X34595828Y-32178095D02*
X34548209Y-32082857D01*
X34548209Y-32082857D02*
X34500590Y-32035238D01*
X34500590Y-32035238D02*
X34405352Y-31987619D01*
X34405352Y-31987619D02*
X34167257Y-31987619D01*
X34167257Y-31987619D02*
X34024400Y-32035238D01*
X33691066Y-31987619D02*
X33452971Y-32987619D01*
X33452971Y-32987619D02*
X33262495Y-32273333D01*
X33262495Y-32273333D02*
X33072019Y-32987619D01*
X33072019Y-32987619D02*
X32833924Y-31987619D01*
X31929162Y-32987619D02*
X32500590Y-32987619D01*
X32214876Y-32987619D02*
X32214876Y-31987619D01*
X32214876Y-31987619D02*
X32310114Y-32130476D01*
X32310114Y-32130476D02*
X32405352Y-32225714D01*
X32405352Y-32225714D02*
X32500590Y-32273333D01*
%TO.C,R3*%
X46231666Y-41150119D02*
X46564999Y-40673928D01*
X46803094Y-41150119D02*
X46803094Y-40150119D01*
X46803094Y-40150119D02*
X46422142Y-40150119D01*
X46422142Y-40150119D02*
X46326904Y-40197738D01*
X46326904Y-40197738D02*
X46279285Y-40245357D01*
X46279285Y-40245357D02*
X46231666Y-40340595D01*
X46231666Y-40340595D02*
X46231666Y-40483452D01*
X46231666Y-40483452D02*
X46279285Y-40578690D01*
X46279285Y-40578690D02*
X46326904Y-40626309D01*
X46326904Y-40626309D02*
X46422142Y-40673928D01*
X46422142Y-40673928D02*
X46803094Y-40673928D01*
X45898332Y-40150119D02*
X45279285Y-40150119D01*
X45279285Y-40150119D02*
X45612618Y-40531071D01*
X45612618Y-40531071D02*
X45469761Y-40531071D01*
X45469761Y-40531071D02*
X45374523Y-40578690D01*
X45374523Y-40578690D02*
X45326904Y-40626309D01*
X45326904Y-40626309D02*
X45279285Y-40721547D01*
X45279285Y-40721547D02*
X45279285Y-40959642D01*
X45279285Y-40959642D02*
X45326904Y-41054880D01*
X45326904Y-41054880D02*
X45374523Y-41102500D01*
X45374523Y-41102500D02*
X45469761Y-41150119D01*
X45469761Y-41150119D02*
X45755475Y-41150119D01*
X45755475Y-41150119D02*
X45850713Y-41102500D01*
X45850713Y-41102500D02*
X45898332Y-41054880D01*
%TO.C,CX1*%
X64092857Y-53067380D02*
X64140476Y-53115000D01*
X64140476Y-53115000D02*
X64283333Y-53162619D01*
X64283333Y-53162619D02*
X64378571Y-53162619D01*
X64378571Y-53162619D02*
X64521428Y-53115000D01*
X64521428Y-53115000D02*
X64616666Y-53019761D01*
X64616666Y-53019761D02*
X64664285Y-52924523D01*
X64664285Y-52924523D02*
X64711904Y-52734047D01*
X64711904Y-52734047D02*
X64711904Y-52591190D01*
X64711904Y-52591190D02*
X64664285Y-52400714D01*
X64664285Y-52400714D02*
X64616666Y-52305476D01*
X64616666Y-52305476D02*
X64521428Y-52210238D01*
X64521428Y-52210238D02*
X64378571Y-52162619D01*
X64378571Y-52162619D02*
X64283333Y-52162619D01*
X64283333Y-52162619D02*
X64140476Y-52210238D01*
X64140476Y-52210238D02*
X64092857Y-52257857D01*
X63759523Y-52162619D02*
X63092857Y-53162619D01*
X63092857Y-52162619D02*
X63759523Y-53162619D01*
X62188095Y-53162619D02*
X62759523Y-53162619D01*
X62473809Y-53162619D02*
X62473809Y-52162619D01*
X62473809Y-52162619D02*
X62569047Y-52305476D01*
X62569047Y-52305476D02*
X62664285Y-52400714D01*
X62664285Y-52400714D02*
X62759523Y-52448333D01*
%TO.C,R2*%
X43941666Y-41147619D02*
X44274999Y-40671428D01*
X44513094Y-41147619D02*
X44513094Y-40147619D01*
X44513094Y-40147619D02*
X44132142Y-40147619D01*
X44132142Y-40147619D02*
X44036904Y-40195238D01*
X44036904Y-40195238D02*
X43989285Y-40242857D01*
X43989285Y-40242857D02*
X43941666Y-40338095D01*
X43941666Y-40338095D02*
X43941666Y-40480952D01*
X43941666Y-40480952D02*
X43989285Y-40576190D01*
X43989285Y-40576190D02*
X44036904Y-40623809D01*
X44036904Y-40623809D02*
X44132142Y-40671428D01*
X44132142Y-40671428D02*
X44513094Y-40671428D01*
X43560713Y-40242857D02*
X43513094Y-40195238D01*
X43513094Y-40195238D02*
X43417856Y-40147619D01*
X43417856Y-40147619D02*
X43179761Y-40147619D01*
X43179761Y-40147619D02*
X43084523Y-40195238D01*
X43084523Y-40195238D02*
X43036904Y-40242857D01*
X43036904Y-40242857D02*
X42989285Y-40338095D01*
X42989285Y-40338095D02*
X42989285Y-40433333D01*
X42989285Y-40433333D02*
X43036904Y-40576190D01*
X43036904Y-40576190D02*
X43608332Y-41147619D01*
X43608332Y-41147619D02*
X42989285Y-41147619D01*
%TO.C,C1*%
X32463328Y-52292380D02*
X32510947Y-52340000D01*
X32510947Y-52340000D02*
X32653804Y-52387619D01*
X32653804Y-52387619D02*
X32749042Y-52387619D01*
X32749042Y-52387619D02*
X32891899Y-52340000D01*
X32891899Y-52340000D02*
X32987137Y-52244761D01*
X32987137Y-52244761D02*
X33034756Y-52149523D01*
X33034756Y-52149523D02*
X33082375Y-51959047D01*
X33082375Y-51959047D02*
X33082375Y-51816190D01*
X33082375Y-51816190D02*
X33034756Y-51625714D01*
X33034756Y-51625714D02*
X32987137Y-51530476D01*
X32987137Y-51530476D02*
X32891899Y-51435238D01*
X32891899Y-51435238D02*
X32749042Y-51387619D01*
X32749042Y-51387619D02*
X32653804Y-51387619D01*
X32653804Y-51387619D02*
X32510947Y-51435238D01*
X32510947Y-51435238D02*
X32463328Y-51482857D01*
X31510947Y-52387619D02*
X32082375Y-52387619D01*
X31796661Y-52387619D02*
X31796661Y-51387619D01*
X31796661Y-51387619D02*
X31891899Y-51530476D01*
X31891899Y-51530476D02*
X31987137Y-51625714D01*
X31987137Y-51625714D02*
X32082375Y-51673333D01*
%TO.C,Y1*%
X59526190Y-58261428D02*
X59526190Y-58737619D01*
X59859523Y-57737619D02*
X59526190Y-58261428D01*
X59526190Y-58261428D02*
X59192857Y-57737619D01*
X58335714Y-58737619D02*
X58907142Y-58737619D01*
X58621428Y-58737619D02*
X58621428Y-57737619D01*
X58621428Y-57737619D02*
X58716666Y-57880476D01*
X58716666Y-57880476D02*
X58811904Y-57975714D01*
X58811904Y-57975714D02*
X58907142Y-58023333D01*
%TO.C,C2*%
X33266666Y-57742380D02*
X33314285Y-57790000D01*
X33314285Y-57790000D02*
X33457142Y-57837619D01*
X33457142Y-57837619D02*
X33552380Y-57837619D01*
X33552380Y-57837619D02*
X33695237Y-57790000D01*
X33695237Y-57790000D02*
X33790475Y-57694761D01*
X33790475Y-57694761D02*
X33838094Y-57599523D01*
X33838094Y-57599523D02*
X33885713Y-57409047D01*
X33885713Y-57409047D02*
X33885713Y-57266190D01*
X33885713Y-57266190D02*
X33838094Y-57075714D01*
X33838094Y-57075714D02*
X33790475Y-56980476D01*
X33790475Y-56980476D02*
X33695237Y-56885238D01*
X33695237Y-56885238D02*
X33552380Y-56837619D01*
X33552380Y-56837619D02*
X33457142Y-56837619D01*
X33457142Y-56837619D02*
X33314285Y-56885238D01*
X33314285Y-56885238D02*
X33266666Y-56932857D01*
X32885713Y-56932857D02*
X32838094Y-56885238D01*
X32838094Y-56885238D02*
X32742856Y-56837619D01*
X32742856Y-56837619D02*
X32504761Y-56837619D01*
X32504761Y-56837619D02*
X32409523Y-56885238D01*
X32409523Y-56885238D02*
X32361904Y-56932857D01*
X32361904Y-56932857D02*
X32314285Y-57028095D01*
X32314285Y-57028095D02*
X32314285Y-57123333D01*
X32314285Y-57123333D02*
X32361904Y-57266190D01*
X32361904Y-57266190D02*
X32933332Y-57837619D01*
X32933332Y-57837619D02*
X32314285Y-57837619D01*
%TO.C,C5*%
X48866666Y-41017380D02*
X48914285Y-41065000D01*
X48914285Y-41065000D02*
X49057142Y-41112619D01*
X49057142Y-41112619D02*
X49152380Y-41112619D01*
X49152380Y-41112619D02*
X49295237Y-41065000D01*
X49295237Y-41065000D02*
X49390475Y-40969761D01*
X49390475Y-40969761D02*
X49438094Y-40874523D01*
X49438094Y-40874523D02*
X49485713Y-40684047D01*
X49485713Y-40684047D02*
X49485713Y-40541190D01*
X49485713Y-40541190D02*
X49438094Y-40350714D01*
X49438094Y-40350714D02*
X49390475Y-40255476D01*
X49390475Y-40255476D02*
X49295237Y-40160238D01*
X49295237Y-40160238D02*
X49152380Y-40112619D01*
X49152380Y-40112619D02*
X49057142Y-40112619D01*
X49057142Y-40112619D02*
X48914285Y-40160238D01*
X48914285Y-40160238D02*
X48866666Y-40207857D01*
X47961904Y-40112619D02*
X48438094Y-40112619D01*
X48438094Y-40112619D02*
X48485713Y-40588809D01*
X48485713Y-40588809D02*
X48438094Y-40541190D01*
X48438094Y-40541190D02*
X48342856Y-40493571D01*
X48342856Y-40493571D02*
X48104761Y-40493571D01*
X48104761Y-40493571D02*
X48009523Y-40541190D01*
X48009523Y-40541190D02*
X47961904Y-40588809D01*
X47961904Y-40588809D02*
X47914285Y-40684047D01*
X47914285Y-40684047D02*
X47914285Y-40922142D01*
X47914285Y-40922142D02*
X47961904Y-41017380D01*
X47961904Y-41017380D02*
X48009523Y-41065000D01*
X48009523Y-41065000D02*
X48104761Y-41112619D01*
X48104761Y-41112619D02*
X48342856Y-41112619D01*
X48342856Y-41112619D02*
X48438094Y-41065000D01*
X48438094Y-41065000D02*
X48485713Y-41017380D01*
%TO.C,C3*%
X50616666Y-68967380D02*
X50664285Y-69015000D01*
X50664285Y-69015000D02*
X50807142Y-69062619D01*
X50807142Y-69062619D02*
X50902380Y-69062619D01*
X50902380Y-69062619D02*
X51045237Y-69015000D01*
X51045237Y-69015000D02*
X51140475Y-68919761D01*
X51140475Y-68919761D02*
X51188094Y-68824523D01*
X51188094Y-68824523D02*
X51235713Y-68634047D01*
X51235713Y-68634047D02*
X51235713Y-68491190D01*
X51235713Y-68491190D02*
X51188094Y-68300714D01*
X51188094Y-68300714D02*
X51140475Y-68205476D01*
X51140475Y-68205476D02*
X51045237Y-68110238D01*
X51045237Y-68110238D02*
X50902380Y-68062619D01*
X50902380Y-68062619D02*
X50807142Y-68062619D01*
X50807142Y-68062619D02*
X50664285Y-68110238D01*
X50664285Y-68110238D02*
X50616666Y-68157857D01*
X50283332Y-68062619D02*
X49664285Y-68062619D01*
X49664285Y-68062619D02*
X49997618Y-68443571D01*
X49997618Y-68443571D02*
X49854761Y-68443571D01*
X49854761Y-68443571D02*
X49759523Y-68491190D01*
X49759523Y-68491190D02*
X49711904Y-68538809D01*
X49711904Y-68538809D02*
X49664285Y-68634047D01*
X49664285Y-68634047D02*
X49664285Y-68872142D01*
X49664285Y-68872142D02*
X49711904Y-68967380D01*
X49711904Y-68967380D02*
X49759523Y-69015000D01*
X49759523Y-69015000D02*
X49854761Y-69062619D01*
X49854761Y-69062619D02*
X50140475Y-69062619D01*
X50140475Y-69062619D02*
X50235713Y-69015000D01*
X50235713Y-69015000D02*
X50283332Y-68967380D01*
%TO.C,J3*%
X76198333Y-35137619D02*
X76198333Y-35851904D01*
X76198333Y-35851904D02*
X76245952Y-35994761D01*
X76245952Y-35994761D02*
X76341190Y-36090000D01*
X76341190Y-36090000D02*
X76484047Y-36137619D01*
X76484047Y-36137619D02*
X76579285Y-36137619D01*
X75817380Y-35137619D02*
X75198333Y-35137619D01*
X75198333Y-35137619D02*
X75531666Y-35518571D01*
X75531666Y-35518571D02*
X75388809Y-35518571D01*
X75388809Y-35518571D02*
X75293571Y-35566190D01*
X75293571Y-35566190D02*
X75245952Y-35613809D01*
X75245952Y-35613809D02*
X75198333Y-35709047D01*
X75198333Y-35709047D02*
X75198333Y-35947142D01*
X75198333Y-35947142D02*
X75245952Y-36042380D01*
X75245952Y-36042380D02*
X75293571Y-36090000D01*
X75293571Y-36090000D02*
X75388809Y-36137619D01*
X75388809Y-36137619D02*
X75674523Y-36137619D01*
X75674523Y-36137619D02*
X75769761Y-36090000D01*
X75769761Y-36090000D02*
X75817380Y-36042380D01*
%TO.C,R1*%
X33341666Y-60037619D02*
X33674999Y-59561428D01*
X33913094Y-60037619D02*
X33913094Y-59037619D01*
X33913094Y-59037619D02*
X33532142Y-59037619D01*
X33532142Y-59037619D02*
X33436904Y-59085238D01*
X33436904Y-59085238D02*
X33389285Y-59132857D01*
X33389285Y-59132857D02*
X33341666Y-59228095D01*
X33341666Y-59228095D02*
X33341666Y-59370952D01*
X33341666Y-59370952D02*
X33389285Y-59466190D01*
X33389285Y-59466190D02*
X33436904Y-59513809D01*
X33436904Y-59513809D02*
X33532142Y-59561428D01*
X33532142Y-59561428D02*
X33913094Y-59561428D01*
X32389285Y-60037619D02*
X32960713Y-60037619D01*
X32674999Y-60037619D02*
X32674999Y-59037619D01*
X32674999Y-59037619D02*
X32770237Y-59180476D01*
X32770237Y-59180476D02*
X32865475Y-59275714D01*
X32865475Y-59275714D02*
X32960713Y-59323333D01*
%TO.C,J5*%
X40336160Y-91812904D02*
X41336160Y-91812904D01*
X41336160Y-91812904D02*
X41336160Y-91431952D01*
X41336160Y-91431952D02*
X41288541Y-91336714D01*
X41288541Y-91336714D02*
X41240922Y-91289095D01*
X41240922Y-91289095D02*
X41145684Y-91241476D01*
X41145684Y-91241476D02*
X41002827Y-91241476D01*
X41002827Y-91241476D02*
X40907589Y-91289095D01*
X40907589Y-91289095D02*
X40859970Y-91336714D01*
X40859970Y-91336714D02*
X40812351Y-91431952D01*
X40812351Y-91431952D02*
X40812351Y-91812904D01*
X40336160Y-90812904D02*
X41336160Y-90812904D01*
X41336160Y-90812904D02*
X41336160Y-90574809D01*
X41336160Y-90574809D02*
X41288541Y-90431952D01*
X41288541Y-90431952D02*
X41193303Y-90336714D01*
X41193303Y-90336714D02*
X41098065Y-90289095D01*
X41098065Y-90289095D02*
X40907589Y-90241476D01*
X40907589Y-90241476D02*
X40764732Y-90241476D01*
X40764732Y-90241476D02*
X40574256Y-90289095D01*
X40574256Y-90289095D02*
X40479018Y-90336714D01*
X40479018Y-90336714D02*
X40383780Y-90431952D01*
X40383780Y-90431952D02*
X40336160Y-90574809D01*
X40336160Y-90574809D02*
X40336160Y-90812904D01*
X41336160Y-89622428D02*
X41336160Y-89527190D01*
X41336160Y-89527190D02*
X41288541Y-89431952D01*
X41288541Y-89431952D02*
X41240922Y-89384333D01*
X41240922Y-89384333D02*
X41145684Y-89336714D01*
X41145684Y-89336714D02*
X40955208Y-89289095D01*
X40955208Y-89289095D02*
X40717113Y-89289095D01*
X40717113Y-89289095D02*
X40526637Y-89336714D01*
X40526637Y-89336714D02*
X40431399Y-89384333D01*
X40431399Y-89384333D02*
X40383780Y-89431952D01*
X40383780Y-89431952D02*
X40336160Y-89527190D01*
X40336160Y-89527190D02*
X40336160Y-89622428D01*
X40336160Y-89622428D02*
X40383780Y-89717666D01*
X40383780Y-89717666D02*
X40431399Y-89765285D01*
X40431399Y-89765285D02*
X40526637Y-89812904D01*
X40526637Y-89812904D02*
X40717113Y-89860523D01*
X40717113Y-89860523D02*
X40955208Y-89860523D01*
X40955208Y-89860523D02*
X41145684Y-89812904D01*
X41145684Y-89812904D02*
X41240922Y-89765285D01*
X41240922Y-89765285D02*
X41288541Y-89717666D01*
X41288541Y-89717666D02*
X41336160Y-89622428D01*
X37796160Y-91812904D02*
X38796160Y-91812904D01*
X38796160Y-91812904D02*
X38796160Y-91431952D01*
X38796160Y-91431952D02*
X38748541Y-91336714D01*
X38748541Y-91336714D02*
X38700922Y-91289095D01*
X38700922Y-91289095D02*
X38605684Y-91241476D01*
X38605684Y-91241476D02*
X38462827Y-91241476D01*
X38462827Y-91241476D02*
X38367589Y-91289095D01*
X38367589Y-91289095D02*
X38319970Y-91336714D01*
X38319970Y-91336714D02*
X38272351Y-91431952D01*
X38272351Y-91431952D02*
X38272351Y-91812904D01*
X37796160Y-90812904D02*
X38796160Y-90812904D01*
X38796160Y-90812904D02*
X38796160Y-90574809D01*
X38796160Y-90574809D02*
X38748541Y-90431952D01*
X38748541Y-90431952D02*
X38653303Y-90336714D01*
X38653303Y-90336714D02*
X38558065Y-90289095D01*
X38558065Y-90289095D02*
X38367589Y-90241476D01*
X38367589Y-90241476D02*
X38224732Y-90241476D01*
X38224732Y-90241476D02*
X38034256Y-90289095D01*
X38034256Y-90289095D02*
X37939018Y-90336714D01*
X37939018Y-90336714D02*
X37843780Y-90431952D01*
X37843780Y-90431952D02*
X37796160Y-90574809D01*
X37796160Y-90574809D02*
X37796160Y-90812904D01*
X37796160Y-89289095D02*
X37796160Y-89860523D01*
X37796160Y-89574809D02*
X38796160Y-89574809D01*
X38796160Y-89574809D02*
X38653303Y-89670047D01*
X38653303Y-89670047D02*
X38558065Y-89765285D01*
X38558065Y-89765285D02*
X38510446Y-89860523D01*
X42876160Y-91812904D02*
X43876160Y-91812904D01*
X43876160Y-91812904D02*
X43876160Y-91431952D01*
X43876160Y-91431952D02*
X43828541Y-91336714D01*
X43828541Y-91336714D02*
X43780922Y-91289095D01*
X43780922Y-91289095D02*
X43685684Y-91241476D01*
X43685684Y-91241476D02*
X43542827Y-91241476D01*
X43542827Y-91241476D02*
X43447589Y-91289095D01*
X43447589Y-91289095D02*
X43399970Y-91336714D01*
X43399970Y-91336714D02*
X43352351Y-91431952D01*
X43352351Y-91431952D02*
X43352351Y-91812904D01*
X42876160Y-90812904D02*
X43876160Y-90812904D01*
X43876160Y-90812904D02*
X43876160Y-90574809D01*
X43876160Y-90574809D02*
X43828541Y-90431952D01*
X43828541Y-90431952D02*
X43733303Y-90336714D01*
X43733303Y-90336714D02*
X43638065Y-90289095D01*
X43638065Y-90289095D02*
X43447589Y-90241476D01*
X43447589Y-90241476D02*
X43304732Y-90241476D01*
X43304732Y-90241476D02*
X43114256Y-90289095D01*
X43114256Y-90289095D02*
X43019018Y-90336714D01*
X43019018Y-90336714D02*
X42923780Y-90431952D01*
X42923780Y-90431952D02*
X42876160Y-90574809D01*
X42876160Y-90574809D02*
X42876160Y-90812904D01*
X43876160Y-89908142D02*
X43876160Y-89241476D01*
X43876160Y-89241476D02*
X42876160Y-89670047D01*
X32716160Y-91812904D02*
X33716160Y-91812904D01*
X33716160Y-91812904D02*
X33716160Y-91431952D01*
X33716160Y-91431952D02*
X33668541Y-91336714D01*
X33668541Y-91336714D02*
X33620922Y-91289095D01*
X33620922Y-91289095D02*
X33525684Y-91241476D01*
X33525684Y-91241476D02*
X33382827Y-91241476D01*
X33382827Y-91241476D02*
X33287589Y-91289095D01*
X33287589Y-91289095D02*
X33239970Y-91336714D01*
X33239970Y-91336714D02*
X33192351Y-91431952D01*
X33192351Y-91431952D02*
X33192351Y-91812904D01*
X32716160Y-90812904D02*
X33716160Y-90812904D01*
X33716160Y-90812904D02*
X33716160Y-90574809D01*
X33716160Y-90574809D02*
X33668541Y-90431952D01*
X33668541Y-90431952D02*
X33573303Y-90336714D01*
X33573303Y-90336714D02*
X33478065Y-90289095D01*
X33478065Y-90289095D02*
X33287589Y-90241476D01*
X33287589Y-90241476D02*
X33144732Y-90241476D01*
X33144732Y-90241476D02*
X32954256Y-90289095D01*
X32954256Y-90289095D02*
X32859018Y-90336714D01*
X32859018Y-90336714D02*
X32763780Y-90431952D01*
X32763780Y-90431952D02*
X32716160Y-90574809D01*
X32716160Y-90574809D02*
X32716160Y-90812904D01*
X33716160Y-89908142D02*
X33716160Y-89289095D01*
X33716160Y-89289095D02*
X33335208Y-89622428D01*
X33335208Y-89622428D02*
X33335208Y-89479571D01*
X33335208Y-89479571D02*
X33287589Y-89384333D01*
X33287589Y-89384333D02*
X33239970Y-89336714D01*
X33239970Y-89336714D02*
X33144732Y-89289095D01*
X33144732Y-89289095D02*
X32906637Y-89289095D01*
X32906637Y-89289095D02*
X32811399Y-89336714D01*
X32811399Y-89336714D02*
X32763780Y-89384333D01*
X32763780Y-89384333D02*
X32716160Y-89479571D01*
X32716160Y-89479571D02*
X32716160Y-89765285D01*
X32716160Y-89765285D02*
X32763780Y-89860523D01*
X32763780Y-89860523D02*
X32811399Y-89908142D01*
X30176160Y-91812904D02*
X31176160Y-91812904D01*
X31176160Y-91812904D02*
X31176160Y-91431952D01*
X31176160Y-91431952D02*
X31128541Y-91336714D01*
X31128541Y-91336714D02*
X31080922Y-91289095D01*
X31080922Y-91289095D02*
X30985684Y-91241476D01*
X30985684Y-91241476D02*
X30842827Y-91241476D01*
X30842827Y-91241476D02*
X30747589Y-91289095D01*
X30747589Y-91289095D02*
X30699970Y-91336714D01*
X30699970Y-91336714D02*
X30652351Y-91431952D01*
X30652351Y-91431952D02*
X30652351Y-91812904D01*
X30176160Y-90812904D02*
X31176160Y-90812904D01*
X31176160Y-90812904D02*
X31176160Y-90574809D01*
X31176160Y-90574809D02*
X31128541Y-90431952D01*
X31128541Y-90431952D02*
X31033303Y-90336714D01*
X31033303Y-90336714D02*
X30938065Y-90289095D01*
X30938065Y-90289095D02*
X30747589Y-90241476D01*
X30747589Y-90241476D02*
X30604732Y-90241476D01*
X30604732Y-90241476D02*
X30414256Y-90289095D01*
X30414256Y-90289095D02*
X30319018Y-90336714D01*
X30319018Y-90336714D02*
X30223780Y-90431952D01*
X30223780Y-90431952D02*
X30176160Y-90574809D01*
X30176160Y-90574809D02*
X30176160Y-90812904D01*
X31176160Y-89336714D02*
X31176160Y-89812904D01*
X31176160Y-89812904D02*
X30699970Y-89860523D01*
X30699970Y-89860523D02*
X30747589Y-89812904D01*
X30747589Y-89812904D02*
X30795208Y-89717666D01*
X30795208Y-89717666D02*
X30795208Y-89479571D01*
X30795208Y-89479571D02*
X30747589Y-89384333D01*
X30747589Y-89384333D02*
X30699970Y-89336714D01*
X30699970Y-89336714D02*
X30604732Y-89289095D01*
X30604732Y-89289095D02*
X30366637Y-89289095D01*
X30366637Y-89289095D02*
X30271399Y-89336714D01*
X30271399Y-89336714D02*
X30223780Y-89384333D01*
X30223780Y-89384333D02*
X30176160Y-89479571D01*
X30176160Y-89479571D02*
X30176160Y-89717666D01*
X30176160Y-89717666D02*
X30223780Y-89812904D01*
X30223780Y-89812904D02*
X30271399Y-89860523D01*
X27636160Y-91812904D02*
X28636160Y-91812904D01*
X28636160Y-91812904D02*
X28636160Y-91431952D01*
X28636160Y-91431952D02*
X28588541Y-91336714D01*
X28588541Y-91336714D02*
X28540922Y-91289095D01*
X28540922Y-91289095D02*
X28445684Y-91241476D01*
X28445684Y-91241476D02*
X28302827Y-91241476D01*
X28302827Y-91241476D02*
X28207589Y-91289095D01*
X28207589Y-91289095D02*
X28159970Y-91336714D01*
X28159970Y-91336714D02*
X28112351Y-91431952D01*
X28112351Y-91431952D02*
X28112351Y-91812904D01*
X27636160Y-90812904D02*
X28636160Y-90812904D01*
X28636160Y-90812904D02*
X28636160Y-90574809D01*
X28636160Y-90574809D02*
X28588541Y-90431952D01*
X28588541Y-90431952D02*
X28493303Y-90336714D01*
X28493303Y-90336714D02*
X28398065Y-90289095D01*
X28398065Y-90289095D02*
X28207589Y-90241476D01*
X28207589Y-90241476D02*
X28064732Y-90241476D01*
X28064732Y-90241476D02*
X27874256Y-90289095D01*
X27874256Y-90289095D02*
X27779018Y-90336714D01*
X27779018Y-90336714D02*
X27683780Y-90431952D01*
X27683780Y-90431952D02*
X27636160Y-90574809D01*
X27636160Y-90574809D02*
X27636160Y-90812904D01*
X28302827Y-89384333D02*
X27636160Y-89384333D01*
X28683780Y-89622428D02*
X27969494Y-89860523D01*
X27969494Y-89860523D02*
X27969494Y-89241476D01*
X35256160Y-91812904D02*
X36256160Y-91812904D01*
X36256160Y-91812904D02*
X36256160Y-91431952D01*
X36256160Y-91431952D02*
X36208541Y-91336714D01*
X36208541Y-91336714D02*
X36160922Y-91289095D01*
X36160922Y-91289095D02*
X36065684Y-91241476D01*
X36065684Y-91241476D02*
X35922827Y-91241476D01*
X35922827Y-91241476D02*
X35827589Y-91289095D01*
X35827589Y-91289095D02*
X35779970Y-91336714D01*
X35779970Y-91336714D02*
X35732351Y-91431952D01*
X35732351Y-91431952D02*
X35732351Y-91812904D01*
X35256160Y-90812904D02*
X36256160Y-90812904D01*
X36256160Y-90812904D02*
X36256160Y-90574809D01*
X36256160Y-90574809D02*
X36208541Y-90431952D01*
X36208541Y-90431952D02*
X36113303Y-90336714D01*
X36113303Y-90336714D02*
X36018065Y-90289095D01*
X36018065Y-90289095D02*
X35827589Y-90241476D01*
X35827589Y-90241476D02*
X35684732Y-90241476D01*
X35684732Y-90241476D02*
X35494256Y-90289095D01*
X35494256Y-90289095D02*
X35399018Y-90336714D01*
X35399018Y-90336714D02*
X35303780Y-90431952D01*
X35303780Y-90431952D02*
X35256160Y-90574809D01*
X35256160Y-90574809D02*
X35256160Y-90812904D01*
X36160922Y-89860523D02*
X36208541Y-89812904D01*
X36208541Y-89812904D02*
X36256160Y-89717666D01*
X36256160Y-89717666D02*
X36256160Y-89479571D01*
X36256160Y-89479571D02*
X36208541Y-89384333D01*
X36208541Y-89384333D02*
X36160922Y-89336714D01*
X36160922Y-89336714D02*
X36065684Y-89289095D01*
X36065684Y-89289095D02*
X35970446Y-89289095D01*
X35970446Y-89289095D02*
X35827589Y-89336714D01*
X35827589Y-89336714D02*
X35256160Y-89908142D01*
X35256160Y-89908142D02*
X35256160Y-89289095D01*
X25096160Y-91812904D02*
X26096160Y-91812904D01*
X26096160Y-91812904D02*
X26096160Y-91431952D01*
X26096160Y-91431952D02*
X26048541Y-91336714D01*
X26048541Y-91336714D02*
X26000922Y-91289095D01*
X26000922Y-91289095D02*
X25905684Y-91241476D01*
X25905684Y-91241476D02*
X25762827Y-91241476D01*
X25762827Y-91241476D02*
X25667589Y-91289095D01*
X25667589Y-91289095D02*
X25619970Y-91336714D01*
X25619970Y-91336714D02*
X25572351Y-91431952D01*
X25572351Y-91431952D02*
X25572351Y-91812904D01*
X25096160Y-90812904D02*
X26096160Y-90812904D01*
X26096160Y-90812904D02*
X26096160Y-90574809D01*
X26096160Y-90574809D02*
X26048541Y-90431952D01*
X26048541Y-90431952D02*
X25953303Y-90336714D01*
X25953303Y-90336714D02*
X25858065Y-90289095D01*
X25858065Y-90289095D02*
X25667589Y-90241476D01*
X25667589Y-90241476D02*
X25524732Y-90241476D01*
X25524732Y-90241476D02*
X25334256Y-90289095D01*
X25334256Y-90289095D02*
X25239018Y-90336714D01*
X25239018Y-90336714D02*
X25143780Y-90431952D01*
X25143780Y-90431952D02*
X25096160Y-90574809D01*
X25096160Y-90574809D02*
X25096160Y-90812904D01*
X26096160Y-89384333D02*
X26096160Y-89574809D01*
X26096160Y-89574809D02*
X26048541Y-89670047D01*
X26048541Y-89670047D02*
X26000922Y-89717666D01*
X26000922Y-89717666D02*
X25858065Y-89812904D01*
X25858065Y-89812904D02*
X25667589Y-89860523D01*
X25667589Y-89860523D02*
X25286637Y-89860523D01*
X25286637Y-89860523D02*
X25191399Y-89812904D01*
X25191399Y-89812904D02*
X25143780Y-89765285D01*
X25143780Y-89765285D02*
X25096160Y-89670047D01*
X25096160Y-89670047D02*
X25096160Y-89479571D01*
X25096160Y-89479571D02*
X25143780Y-89384333D01*
X25143780Y-89384333D02*
X25191399Y-89336714D01*
X25191399Y-89336714D02*
X25286637Y-89289095D01*
X25286637Y-89289095D02*
X25524732Y-89289095D01*
X25524732Y-89289095D02*
X25619970Y-89336714D01*
X25619970Y-89336714D02*
X25667589Y-89384333D01*
X25667589Y-89384333D02*
X25715208Y-89479571D01*
X25715208Y-89479571D02*
X25715208Y-89670047D01*
X25715208Y-89670047D02*
X25667589Y-89765285D01*
X25667589Y-89765285D02*
X25619970Y-89812904D01*
X25619970Y-89812904D02*
X25524732Y-89860523D01*
%TO.C,CX2*%
X64092857Y-58842380D02*
X64140476Y-58890000D01*
X64140476Y-58890000D02*
X64283333Y-58937619D01*
X64283333Y-58937619D02*
X64378571Y-58937619D01*
X64378571Y-58937619D02*
X64521428Y-58890000D01*
X64521428Y-58890000D02*
X64616666Y-58794761D01*
X64616666Y-58794761D02*
X64664285Y-58699523D01*
X64664285Y-58699523D02*
X64711904Y-58509047D01*
X64711904Y-58509047D02*
X64711904Y-58366190D01*
X64711904Y-58366190D02*
X64664285Y-58175714D01*
X64664285Y-58175714D02*
X64616666Y-58080476D01*
X64616666Y-58080476D02*
X64521428Y-57985238D01*
X64521428Y-57985238D02*
X64378571Y-57937619D01*
X64378571Y-57937619D02*
X64283333Y-57937619D01*
X64283333Y-57937619D02*
X64140476Y-57985238D01*
X64140476Y-57985238D02*
X64092857Y-58032857D01*
X63759523Y-57937619D02*
X63092857Y-58937619D01*
X63092857Y-57937619D02*
X63759523Y-58937619D01*
X62759523Y-58032857D02*
X62711904Y-57985238D01*
X62711904Y-57985238D02*
X62616666Y-57937619D01*
X62616666Y-57937619D02*
X62378571Y-57937619D01*
X62378571Y-57937619D02*
X62283333Y-57985238D01*
X62283333Y-57985238D02*
X62235714Y-58032857D01*
X62235714Y-58032857D02*
X62188095Y-58128095D01*
X62188095Y-58128095D02*
X62188095Y-58223333D01*
X62188095Y-58223333D02*
X62235714Y-58366190D01*
X62235714Y-58366190D02*
X62807142Y-58937619D01*
X62807142Y-58937619D02*
X62188095Y-58937619D01*
%TO.C,U1*%
X46986904Y-52737619D02*
X46986904Y-53547142D01*
X46986904Y-53547142D02*
X46939285Y-53642380D01*
X46939285Y-53642380D02*
X46891666Y-53690000D01*
X46891666Y-53690000D02*
X46796428Y-53737619D01*
X46796428Y-53737619D02*
X46605952Y-53737619D01*
X46605952Y-53737619D02*
X46510714Y-53690000D01*
X46510714Y-53690000D02*
X46463095Y-53642380D01*
X46463095Y-53642380D02*
X46415476Y-53547142D01*
X46415476Y-53547142D02*
X46415476Y-52737619D01*
X45415476Y-53737619D02*
X45986904Y-53737619D01*
X45701190Y-53737619D02*
X45701190Y-52737619D01*
X45701190Y-52737619D02*
X45796428Y-52880476D01*
X45796428Y-52880476D02*
X45891666Y-52975714D01*
X45891666Y-52975714D02*
X45986904Y-53023333D01*
X50445238Y-55900370D02*
X50040476Y-55900370D01*
X50526190Y-56143227D02*
X50242857Y-55293227D01*
X50242857Y-55293227D02*
X49959523Y-56143227D01*
X49797619Y-55293227D02*
X49311905Y-55293227D01*
X49554762Y-56143227D02*
X49554762Y-55293227D01*
X49028572Y-56143227D02*
X49028572Y-55293227D01*
X49028572Y-55293227D02*
X48745238Y-55900370D01*
X48745238Y-55900370D02*
X48461905Y-55293227D01*
X48461905Y-55293227D02*
X48461905Y-56143227D01*
X48057143Y-55697989D02*
X47773809Y-55697989D01*
X47652381Y-56143227D02*
X48057143Y-56143227D01*
X48057143Y-56143227D02*
X48057143Y-55293227D01*
X48057143Y-55293227D02*
X47652381Y-55293227D01*
X46842856Y-55333703D02*
X46923809Y-55293227D01*
X46923809Y-55293227D02*
X47045237Y-55293227D01*
X47045237Y-55293227D02*
X47166666Y-55333703D01*
X47166666Y-55333703D02*
X47247618Y-55414655D01*
X47247618Y-55414655D02*
X47288095Y-55495608D01*
X47288095Y-55495608D02*
X47328571Y-55657512D01*
X47328571Y-55657512D02*
X47328571Y-55778941D01*
X47328571Y-55778941D02*
X47288095Y-55940846D01*
X47288095Y-55940846D02*
X47247618Y-56021798D01*
X47247618Y-56021798D02*
X47166666Y-56102751D01*
X47166666Y-56102751D02*
X47045237Y-56143227D01*
X47045237Y-56143227D02*
X46964285Y-56143227D01*
X46964285Y-56143227D02*
X46842856Y-56102751D01*
X46842856Y-56102751D02*
X46802380Y-56062274D01*
X46802380Y-56062274D02*
X46802380Y-55778941D01*
X46802380Y-55778941D02*
X46964285Y-55778941D01*
X46478571Y-55900370D02*
X46073809Y-55900370D01*
X46559523Y-56143227D02*
X46276190Y-55293227D01*
X46276190Y-55293227D02*
X45992856Y-56143227D01*
X45790476Y-55293227D02*
X45264285Y-55293227D01*
X45264285Y-55293227D02*
X45547619Y-55617036D01*
X45547619Y-55617036D02*
X45426190Y-55617036D01*
X45426190Y-55617036D02*
X45345238Y-55657512D01*
X45345238Y-55657512D02*
X45304762Y-55697989D01*
X45304762Y-55697989D02*
X45264285Y-55778941D01*
X45264285Y-55778941D02*
X45264285Y-55981322D01*
X45264285Y-55981322D02*
X45304762Y-56062274D01*
X45304762Y-56062274D02*
X45345238Y-56102751D01*
X45345238Y-56102751D02*
X45426190Y-56143227D01*
X45426190Y-56143227D02*
X45669047Y-56143227D01*
X45669047Y-56143227D02*
X45750000Y-56102751D01*
X45750000Y-56102751D02*
X45790476Y-56062274D01*
X44940476Y-55374179D02*
X44900000Y-55333703D01*
X44900000Y-55333703D02*
X44819047Y-55293227D01*
X44819047Y-55293227D02*
X44616666Y-55293227D01*
X44616666Y-55293227D02*
X44535714Y-55333703D01*
X44535714Y-55333703D02*
X44495238Y-55374179D01*
X44495238Y-55374179D02*
X44454761Y-55455131D01*
X44454761Y-55455131D02*
X44454761Y-55536084D01*
X44454761Y-55536084D02*
X44495238Y-55657512D01*
X44495238Y-55657512D02*
X44980952Y-56143227D01*
X44980952Y-56143227D02*
X44454761Y-56143227D01*
X44090476Y-55293227D02*
X44090476Y-55981322D01*
X44090476Y-55981322D02*
X44049999Y-56062274D01*
X44049999Y-56062274D02*
X44009523Y-56102751D01*
X44009523Y-56102751D02*
X43928571Y-56143227D01*
X43928571Y-56143227D02*
X43766666Y-56143227D01*
X43766666Y-56143227D02*
X43685714Y-56102751D01*
X43685714Y-56102751D02*
X43645237Y-56062274D01*
X43645237Y-56062274D02*
X43604761Y-55981322D01*
X43604761Y-55981322D02*
X43604761Y-55293227D01*
X42835714Y-55576560D02*
X42835714Y-56143227D01*
X43038095Y-55252751D02*
X43240476Y-55859893D01*
X43240476Y-55859893D02*
X42714285Y-55859893D01*
%TO.C,J2*%
X47109523Y-28595000D02*
X46966666Y-28642619D01*
X46966666Y-28642619D02*
X46728571Y-28642619D01*
X46728571Y-28642619D02*
X46633333Y-28595000D01*
X46633333Y-28595000D02*
X46585714Y-28547380D01*
X46585714Y-28547380D02*
X46538095Y-28452142D01*
X46538095Y-28452142D02*
X46538095Y-28356904D01*
X46538095Y-28356904D02*
X46585714Y-28261666D01*
X46585714Y-28261666D02*
X46633333Y-28214047D01*
X46633333Y-28214047D02*
X46728571Y-28166428D01*
X46728571Y-28166428D02*
X46919047Y-28118809D01*
X46919047Y-28118809D02*
X47014285Y-28071190D01*
X47014285Y-28071190D02*
X47061904Y-28023571D01*
X47061904Y-28023571D02*
X47109523Y-27928333D01*
X47109523Y-27928333D02*
X47109523Y-27833095D01*
X47109523Y-27833095D02*
X47061904Y-27737857D01*
X47061904Y-27737857D02*
X47014285Y-27690238D01*
X47014285Y-27690238D02*
X46919047Y-27642619D01*
X46919047Y-27642619D02*
X46680952Y-27642619D01*
X46680952Y-27642619D02*
X46538095Y-27690238D01*
X45538095Y-28547380D02*
X45585714Y-28595000D01*
X45585714Y-28595000D02*
X45728571Y-28642619D01*
X45728571Y-28642619D02*
X45823809Y-28642619D01*
X45823809Y-28642619D02*
X45966666Y-28595000D01*
X45966666Y-28595000D02*
X46061904Y-28499761D01*
X46061904Y-28499761D02*
X46109523Y-28404523D01*
X46109523Y-28404523D02*
X46157142Y-28214047D01*
X46157142Y-28214047D02*
X46157142Y-28071190D01*
X46157142Y-28071190D02*
X46109523Y-27880714D01*
X46109523Y-27880714D02*
X46061904Y-27785476D01*
X46061904Y-27785476D02*
X45966666Y-27690238D01*
X45966666Y-27690238D02*
X45823809Y-27642619D01*
X45823809Y-27642619D02*
X45728571Y-27642619D01*
X45728571Y-27642619D02*
X45585714Y-27690238D01*
X45585714Y-27690238D02*
X45538095Y-27737857D01*
X45109523Y-28642619D02*
X45109523Y-27642619D01*
X44538095Y-28642619D02*
X44966666Y-28071190D01*
X44538095Y-27642619D02*
X45109523Y-28214047D01*
X47074761Y-25102619D02*
X46741428Y-26102619D01*
X46741428Y-26102619D02*
X46408095Y-25102619D01*
X45503333Y-26007380D02*
X45550952Y-26055000D01*
X45550952Y-26055000D02*
X45693809Y-26102619D01*
X45693809Y-26102619D02*
X45789047Y-26102619D01*
X45789047Y-26102619D02*
X45931904Y-26055000D01*
X45931904Y-26055000D02*
X46027142Y-25959761D01*
X46027142Y-25959761D02*
X46074761Y-25864523D01*
X46074761Y-25864523D02*
X46122380Y-25674047D01*
X46122380Y-25674047D02*
X46122380Y-25531190D01*
X46122380Y-25531190D02*
X46074761Y-25340714D01*
X46074761Y-25340714D02*
X46027142Y-25245476D01*
X46027142Y-25245476D02*
X45931904Y-25150238D01*
X45931904Y-25150238D02*
X45789047Y-25102619D01*
X45789047Y-25102619D02*
X45693809Y-25102619D01*
X45693809Y-25102619D02*
X45550952Y-25150238D01*
X45550952Y-25150238D02*
X45503333Y-25197857D01*
X44503333Y-26007380D02*
X44550952Y-26055000D01*
X44550952Y-26055000D02*
X44693809Y-26102619D01*
X44693809Y-26102619D02*
X44789047Y-26102619D01*
X44789047Y-26102619D02*
X44931904Y-26055000D01*
X44931904Y-26055000D02*
X45027142Y-25959761D01*
X45027142Y-25959761D02*
X45074761Y-25864523D01*
X45074761Y-25864523D02*
X45122380Y-25674047D01*
X45122380Y-25674047D02*
X45122380Y-25531190D01*
X45122380Y-25531190D02*
X45074761Y-25340714D01*
X45074761Y-25340714D02*
X45027142Y-25245476D01*
X45027142Y-25245476D02*
X44931904Y-25150238D01*
X44931904Y-25150238D02*
X44789047Y-25102619D01*
X44789047Y-25102619D02*
X44693809Y-25102619D01*
X44693809Y-25102619D02*
X44550952Y-25150238D01*
X44550952Y-25150238D02*
X44503333Y-25197857D01*
X46490476Y-36262619D02*
X46823809Y-35786428D01*
X47061904Y-36262619D02*
X47061904Y-35262619D01*
X47061904Y-35262619D02*
X46680952Y-35262619D01*
X46680952Y-35262619D02*
X46585714Y-35310238D01*
X46585714Y-35310238D02*
X46538095Y-35357857D01*
X46538095Y-35357857D02*
X46490476Y-35453095D01*
X46490476Y-35453095D02*
X46490476Y-35595952D01*
X46490476Y-35595952D02*
X46538095Y-35691190D01*
X46538095Y-35691190D02*
X46585714Y-35738809D01*
X46585714Y-35738809D02*
X46680952Y-35786428D01*
X46680952Y-35786428D02*
X47061904Y-35786428D01*
X46109523Y-36215000D02*
X45966666Y-36262619D01*
X45966666Y-36262619D02*
X45728571Y-36262619D01*
X45728571Y-36262619D02*
X45633333Y-36215000D01*
X45633333Y-36215000D02*
X45585714Y-36167380D01*
X45585714Y-36167380D02*
X45538095Y-36072142D01*
X45538095Y-36072142D02*
X45538095Y-35976904D01*
X45538095Y-35976904D02*
X45585714Y-35881666D01*
X45585714Y-35881666D02*
X45633333Y-35834047D01*
X45633333Y-35834047D02*
X45728571Y-35786428D01*
X45728571Y-35786428D02*
X45919047Y-35738809D01*
X45919047Y-35738809D02*
X46014285Y-35691190D01*
X46014285Y-35691190D02*
X46061904Y-35643571D01*
X46061904Y-35643571D02*
X46109523Y-35548333D01*
X46109523Y-35548333D02*
X46109523Y-35453095D01*
X46109523Y-35453095D02*
X46061904Y-35357857D01*
X46061904Y-35357857D02*
X46014285Y-35310238D01*
X46014285Y-35310238D02*
X45919047Y-35262619D01*
X45919047Y-35262619D02*
X45680952Y-35262619D01*
X45680952Y-35262619D02*
X45538095Y-35310238D01*
X45252380Y-35262619D02*
X44680952Y-35262619D01*
X44966666Y-36262619D02*
X44966666Y-35262619D01*
X47061904Y-33722619D02*
X47061904Y-32722619D01*
X47061904Y-32722619D02*
X46728571Y-33436904D01*
X46728571Y-33436904D02*
X46395238Y-32722619D01*
X46395238Y-32722619D02*
X46395238Y-33722619D01*
X45728571Y-32722619D02*
X45538095Y-32722619D01*
X45538095Y-32722619D02*
X45442857Y-32770238D01*
X45442857Y-32770238D02*
X45347619Y-32865476D01*
X45347619Y-32865476D02*
X45300000Y-33055952D01*
X45300000Y-33055952D02*
X45300000Y-33389285D01*
X45300000Y-33389285D02*
X45347619Y-33579761D01*
X45347619Y-33579761D02*
X45442857Y-33675000D01*
X45442857Y-33675000D02*
X45538095Y-33722619D01*
X45538095Y-33722619D02*
X45728571Y-33722619D01*
X45728571Y-33722619D02*
X45823809Y-33675000D01*
X45823809Y-33675000D02*
X45919047Y-33579761D01*
X45919047Y-33579761D02*
X45966666Y-33389285D01*
X45966666Y-33389285D02*
X45966666Y-33055952D01*
X45966666Y-33055952D02*
X45919047Y-32865476D01*
X45919047Y-32865476D02*
X45823809Y-32770238D01*
X45823809Y-32770238D02*
X45728571Y-32722619D01*
X44919047Y-33675000D02*
X44776190Y-33722619D01*
X44776190Y-33722619D02*
X44538095Y-33722619D01*
X44538095Y-33722619D02*
X44442857Y-33675000D01*
X44442857Y-33675000D02*
X44395238Y-33627380D01*
X44395238Y-33627380D02*
X44347619Y-33532142D01*
X44347619Y-33532142D02*
X44347619Y-33436904D01*
X44347619Y-33436904D02*
X44395238Y-33341666D01*
X44395238Y-33341666D02*
X44442857Y-33294047D01*
X44442857Y-33294047D02*
X44538095Y-33246428D01*
X44538095Y-33246428D02*
X44728571Y-33198809D01*
X44728571Y-33198809D02*
X44823809Y-33151190D01*
X44823809Y-33151190D02*
X44871428Y-33103571D01*
X44871428Y-33103571D02*
X44919047Y-33008333D01*
X44919047Y-33008333D02*
X44919047Y-32913095D01*
X44919047Y-32913095D02*
X44871428Y-32817857D01*
X44871428Y-32817857D02*
X44823809Y-32770238D01*
X44823809Y-32770238D02*
X44728571Y-32722619D01*
X44728571Y-32722619D02*
X44490476Y-32722619D01*
X44490476Y-32722619D02*
X44347619Y-32770238D01*
X43919047Y-33722619D02*
X43919047Y-32722619D01*
X46508095Y-22610238D02*
X46603333Y-22562619D01*
X46603333Y-22562619D02*
X46746190Y-22562619D01*
X46746190Y-22562619D02*
X46889047Y-22610238D01*
X46889047Y-22610238D02*
X46984285Y-22705476D01*
X46984285Y-22705476D02*
X47031904Y-22800714D01*
X47031904Y-22800714D02*
X47079523Y-22991190D01*
X47079523Y-22991190D02*
X47079523Y-23134047D01*
X47079523Y-23134047D02*
X47031904Y-23324523D01*
X47031904Y-23324523D02*
X46984285Y-23419761D01*
X46984285Y-23419761D02*
X46889047Y-23515000D01*
X46889047Y-23515000D02*
X46746190Y-23562619D01*
X46746190Y-23562619D02*
X46650952Y-23562619D01*
X46650952Y-23562619D02*
X46508095Y-23515000D01*
X46508095Y-23515000D02*
X46460476Y-23467380D01*
X46460476Y-23467380D02*
X46460476Y-23134047D01*
X46460476Y-23134047D02*
X46650952Y-23134047D01*
X46031904Y-23562619D02*
X46031904Y-22562619D01*
X46031904Y-22562619D02*
X45460476Y-23562619D01*
X45460476Y-23562619D02*
X45460476Y-22562619D01*
X44984285Y-23562619D02*
X44984285Y-22562619D01*
X44984285Y-22562619D02*
X44746190Y-22562619D01*
X44746190Y-22562619D02*
X44603333Y-22610238D01*
X44603333Y-22610238D02*
X44508095Y-22705476D01*
X44508095Y-22705476D02*
X44460476Y-22800714D01*
X44460476Y-22800714D02*
X44412857Y-22991190D01*
X44412857Y-22991190D02*
X44412857Y-23134047D01*
X44412857Y-23134047D02*
X44460476Y-23324523D01*
X44460476Y-23324523D02*
X44508095Y-23419761D01*
X44508095Y-23419761D02*
X44603333Y-23515000D01*
X44603333Y-23515000D02*
X44746190Y-23562619D01*
X44746190Y-23562619D02*
X44984285Y-23562619D01*
X47061904Y-31182619D02*
X47061904Y-30182619D01*
X47061904Y-30182619D02*
X46728571Y-30896904D01*
X46728571Y-30896904D02*
X46395238Y-30182619D01*
X46395238Y-30182619D02*
X46395238Y-31182619D01*
X45919047Y-31182619D02*
X45919047Y-30182619D01*
X45490476Y-31135000D02*
X45347619Y-31182619D01*
X45347619Y-31182619D02*
X45109524Y-31182619D01*
X45109524Y-31182619D02*
X45014286Y-31135000D01*
X45014286Y-31135000D02*
X44966667Y-31087380D01*
X44966667Y-31087380D02*
X44919048Y-30992142D01*
X44919048Y-30992142D02*
X44919048Y-30896904D01*
X44919048Y-30896904D02*
X44966667Y-30801666D01*
X44966667Y-30801666D02*
X45014286Y-30754047D01*
X45014286Y-30754047D02*
X45109524Y-30706428D01*
X45109524Y-30706428D02*
X45300000Y-30658809D01*
X45300000Y-30658809D02*
X45395238Y-30611190D01*
X45395238Y-30611190D02*
X45442857Y-30563571D01*
X45442857Y-30563571D02*
X45490476Y-30468333D01*
X45490476Y-30468333D02*
X45490476Y-30373095D01*
X45490476Y-30373095D02*
X45442857Y-30277857D01*
X45442857Y-30277857D02*
X45395238Y-30230238D01*
X45395238Y-30230238D02*
X45300000Y-30182619D01*
X45300000Y-30182619D02*
X45061905Y-30182619D01*
X45061905Y-30182619D02*
X44919048Y-30230238D01*
X44300000Y-30182619D02*
X44109524Y-30182619D01*
X44109524Y-30182619D02*
X44014286Y-30230238D01*
X44014286Y-30230238D02*
X43919048Y-30325476D01*
X43919048Y-30325476D02*
X43871429Y-30515952D01*
X43871429Y-30515952D02*
X43871429Y-30849285D01*
X43871429Y-30849285D02*
X43919048Y-31039761D01*
X43919048Y-31039761D02*
X44014286Y-31135000D01*
X44014286Y-31135000D02*
X44109524Y-31182619D01*
X44109524Y-31182619D02*
X44300000Y-31182619D01*
X44300000Y-31182619D02*
X44395238Y-31135000D01*
X44395238Y-31135000D02*
X44490476Y-31039761D01*
X44490476Y-31039761D02*
X44538095Y-30849285D01*
X44538095Y-30849285D02*
X44538095Y-30515952D01*
X44538095Y-30515952D02*
X44490476Y-30325476D01*
X44490476Y-30325476D02*
X44395238Y-30230238D01*
X44395238Y-30230238D02*
X44300000Y-30182619D01*
%TO.C,SW1*%
X29345828Y-39840000D02*
X29202971Y-39887619D01*
X29202971Y-39887619D02*
X28964876Y-39887619D01*
X28964876Y-39887619D02*
X28869638Y-39840000D01*
X28869638Y-39840000D02*
X28822019Y-39792380D01*
X28822019Y-39792380D02*
X28774400Y-39697142D01*
X28774400Y-39697142D02*
X28774400Y-39601904D01*
X28774400Y-39601904D02*
X28822019Y-39506666D01*
X28822019Y-39506666D02*
X28869638Y-39459047D01*
X28869638Y-39459047D02*
X28964876Y-39411428D01*
X28964876Y-39411428D02*
X29155352Y-39363809D01*
X29155352Y-39363809D02*
X29250590Y-39316190D01*
X29250590Y-39316190D02*
X29298209Y-39268571D01*
X29298209Y-39268571D02*
X29345828Y-39173333D01*
X29345828Y-39173333D02*
X29345828Y-39078095D01*
X29345828Y-39078095D02*
X29298209Y-38982857D01*
X29298209Y-38982857D02*
X29250590Y-38935238D01*
X29250590Y-38935238D02*
X29155352Y-38887619D01*
X29155352Y-38887619D02*
X28917257Y-38887619D01*
X28917257Y-38887619D02*
X28774400Y-38935238D01*
X28441066Y-38887619D02*
X28202971Y-39887619D01*
X28202971Y-39887619D02*
X28012495Y-39173333D01*
X28012495Y-39173333D02*
X27822019Y-39887619D01*
X27822019Y-39887619D02*
X27583924Y-38887619D01*
X26679162Y-39887619D02*
X27250590Y-39887619D01*
X26964876Y-39887619D02*
X26964876Y-38887619D01*
X26964876Y-38887619D02*
X27060114Y-39030476D01*
X27060114Y-39030476D02*
X27155352Y-39125714D01*
X27155352Y-39125714D02*
X27250590Y-39173333D01*
D11*
%TO.C,D7*%
X162368756Y-33785000D02*
X162368756Y-29775000D01*
X164368756Y-33785000D02*
X162368756Y-33785000D01*
X164368756Y-33785000D02*
X164368756Y-29775000D01*
%TO.C,C4*%
X55910000Y-52238748D02*
X55910000Y-52761252D01*
X54440000Y-52238748D02*
X54440000Y-52761252D01*
%TO.C,RSW1*%
X34472496Y-34522936D02*
X34472496Y-34977064D01*
X33002496Y-34522936D02*
X33002496Y-34977064D01*
%TO.C,D8*%
X181418756Y-33785000D02*
X181418756Y-29775000D01*
X183418756Y-33785000D02*
X181418756Y-33785000D01*
X183418756Y-33785000D02*
X183418756Y-29775000D01*
%TO.C,D14*%
X35187496Y-39760000D02*
X35187496Y-35750000D01*
X37187496Y-39760000D02*
X35187496Y-39760000D01*
X37187496Y-39760000D02*
X37187496Y-35750000D01*
%TO.C,MX42*%
X80271942Y-81315698D02*
X77229049Y-81315698D01*
X77229049Y-81315698D02*
G75*
G03*
X76229049Y-82315698I6J-1000006D01*
G01*
%TO.C,D35*%
X200468756Y-71910000D02*
X200468756Y-67900000D01*
X202468756Y-71910000D02*
X200468756Y-71910000D01*
X202468756Y-71910000D02*
X202468756Y-67900000D01*
%TO.C,D11*%
X238568756Y-33785000D02*
X238568756Y-29775000D01*
X240568756Y-33785000D02*
X238568756Y-33785000D01*
X240568756Y-33785000D02*
X240568756Y-29775000D01*
%TO.C,R3*%
X46810000Y-42647936D02*
X46810000Y-43102064D01*
X45340000Y-42647936D02*
X45340000Y-43102064D01*
%TO.C,MX9*%
X194572038Y-24165650D02*
X191529145Y-24165650D01*
X191529145Y-24165650D02*
G75*
G03*
X190529145Y-25165650I6J-1000006D01*
G01*
%TO.C,MX3*%
X80271942Y-24165650D02*
X77229049Y-24165650D01*
X77229049Y-24165650D02*
G75*
G03*
X76229049Y-25165650I6J-1000006D01*
G01*
%TO.C,D39*%
X276700000Y-71910000D02*
X276700000Y-67900000D01*
X278700000Y-71910000D02*
X276700000Y-71910000D01*
X278700000Y-71910000D02*
X278700000Y-67900000D01*
%TO.C,MX41*%
X61221926Y-81315698D02*
X58179033Y-81315698D01*
X58179033Y-81315698D02*
G75*
G03*
X57179033Y-82315698I6J-1000006D01*
G01*
%TO.C,MX25*%
X251722086Y-43215666D02*
X248679193Y-43215666D01*
X248679193Y-43215666D02*
G75*
G03*
X247679193Y-44215666I6J-1000006D01*
G01*
%TO.C,MX22*%
X194572038Y-43215666D02*
X191529145Y-43215666D01*
X191529145Y-43215666D02*
G75*
G03*
X190529145Y-44215666I6J-1000006D01*
G01*
%TO.C,MX49*%
X213622054Y-81315698D02*
X210579161Y-81315698D01*
X210579161Y-81315698D02*
G75*
G03*
X209579161Y-82315698I6J-1000006D01*
G01*
%TO.C,D46*%
X162368756Y-90910000D02*
X162368756Y-86900000D01*
X164368756Y-90910000D02*
X162368756Y-90910000D01*
X164368756Y-90910000D02*
X164368756Y-86900000D01*
%TO.C,D40*%
X38662496Y-88910000D02*
X38662496Y-84900000D01*
X40662496Y-88910000D02*
X38662496Y-88910000D01*
X40662496Y-88910000D02*
X40662496Y-84900000D01*
%TO.C,MX10*%
X213622054Y-24165650D02*
X210579161Y-24165650D01*
X210579161Y-24165650D02*
G75*
G03*
X209579161Y-25165650I6J-1000006D01*
G01*
%TO.C,CX1*%
X63188748Y-53465000D02*
X63711252Y-53465000D01*
X63188748Y-54935000D02*
X63711252Y-54935000D01*
%TO.C,R2*%
X43040000Y-43102064D02*
X43040000Y-42647936D01*
X44510000Y-43102064D02*
X44510000Y-42647936D01*
%TO.C,C1*%
X35098748Y-52660000D02*
X34576244Y-52660000D01*
X35098748Y-51190000D02*
X34576244Y-51190000D01*
%TO.C,D4*%
X105218756Y-33785000D02*
X105218756Y-29775000D01*
X107218756Y-33785000D02*
X105218756Y-33785000D01*
X107218756Y-33785000D02*
X107218756Y-29775000D01*
%TO.C,Y1*%
X60700000Y-53575000D02*
X60700000Y-57575000D01*
X57400000Y-53575000D02*
X60700000Y-53575000D01*
%TO.C,C2*%
X35911252Y-58110000D02*
X35388748Y-58110000D01*
X35911252Y-56640000D02*
X35388748Y-56640000D01*
%TO.C,MX19*%
X137421990Y-43215666D02*
X134379097Y-43215666D01*
X134379097Y-43215666D02*
G75*
G03*
X133379097Y-44215666I6J-1000006D01*
G01*
%TO.C,D29*%
X86168756Y-71910000D02*
X86168756Y-67900000D01*
X88168756Y-71910000D02*
X86168756Y-71910000D01*
X88168756Y-71910000D02*
X88168756Y-67900000D01*
%TO.C,MX21*%
X175522022Y-43215666D02*
X172479129Y-43215666D01*
X172479129Y-43215666D02*
G75*
G03*
X171479129Y-44215666I6J-1000006D01*
G01*
%TO.C,D24*%
X238568756Y-52835000D02*
X238568756Y-48825000D01*
X240568756Y-52835000D02*
X238568756Y-52835000D01*
X240568756Y-52835000D02*
X240568756Y-48825000D01*
%TO.C,D31*%
X124268756Y-71910000D02*
X124268756Y-67900000D01*
X126268756Y-71910000D02*
X124268756Y-71910000D01*
X126268756Y-71910000D02*
X126268756Y-67900000D01*
%TO.C,D45*%
X143318756Y-90910000D02*
X143318756Y-86900000D01*
X145318756Y-90910000D02*
X143318756Y-90910000D01*
X145318756Y-90910000D02*
X145318756Y-86900000D01*
%TO.C,D16*%
X86168756Y-52835000D02*
X86168756Y-48825000D01*
X88168756Y-52835000D02*
X86168756Y-52835000D01*
X88168756Y-52835000D02*
X88168756Y-48825000D01*
%TO.C,D41*%
X67118756Y-90910000D02*
X67118756Y-86900000D01*
X69118756Y-90910000D02*
X67118756Y-90910000D01*
X69118756Y-90910000D02*
X69118756Y-86900000D01*
%TO.C,MX16*%
X80271942Y-43215666D02*
X77229049Y-43215666D01*
X77229049Y-43215666D02*
G75*
G03*
X76229049Y-44215666I6J-1000006D01*
G01*
%TO.C,D13*%
X276675000Y-33785000D02*
X276675000Y-29775000D01*
X278675000Y-33785000D02*
X276675000Y-33785000D01*
X278675000Y-33785000D02*
X278675000Y-29775000D01*
%TO.C,MX32*%
X137421990Y-62265682D02*
X134379097Y-62265682D01*
X134379097Y-62265682D02*
G75*
G03*
X133379097Y-63265682I6J-1000006D01*
G01*
%TO.C,D49*%
X219518756Y-90910000D02*
X219518756Y-86900000D01*
X221518756Y-90910000D02*
X219518756Y-90910000D01*
X221518756Y-90910000D02*
X221518756Y-86900000D01*
%TO.C,MX8*%
X175522022Y-24165650D02*
X172479129Y-24165650D01*
X172479129Y-24165650D02*
G75*
G03*
X171479129Y-25165650I6J-1000006D01*
G01*
%TO.C,D51*%
X257625000Y-90910000D02*
X257625000Y-86900000D01*
X259625000Y-90910000D02*
X257625000Y-90910000D01*
X259625000Y-90910000D02*
X259625000Y-86900000D01*
%TO.C,D50*%
X238568756Y-90910000D02*
X238568756Y-86900000D01*
X240568756Y-90910000D02*
X238568756Y-90910000D01*
X240568756Y-90910000D02*
X240568756Y-86900000D01*
%TO.C,C5*%
X47965000Y-43136252D02*
X47965000Y-42613748D01*
X49435000Y-43136252D02*
X49435000Y-42613748D01*
%TO.C,D52*%
X276668748Y-90910000D02*
X276668748Y-86900000D01*
X278668748Y-90910000D02*
X276668748Y-90910000D01*
X278668748Y-90910000D02*
X278668748Y-86900000D01*
%TO.C,MX33*%
X156472006Y-62265682D02*
X153429113Y-62265682D01*
X153429113Y-62265682D02*
G75*
G03*
X152429113Y-63265682I6J-1000006D01*
G01*
%TO.C,D37*%
X238568756Y-71910000D02*
X238568756Y-67900000D01*
X240568756Y-71910000D02*
X238568756Y-71910000D01*
X240568756Y-71910000D02*
X240568756Y-67900000D01*
%TO.C,D3*%
X86168756Y-33785000D02*
X86168756Y-29775000D01*
X88168756Y-33785000D02*
X86168756Y-33785000D01*
X88168756Y-33785000D02*
X88168756Y-29775000D01*
%TO.C,C3*%
X51185000Y-66038748D02*
X51185000Y-66561252D01*
X49715000Y-66038748D02*
X49715000Y-66561252D01*
%TO.C,MX37*%
X232672070Y-62265682D02*
X229629177Y-62265682D01*
X229629177Y-62265682D02*
G75*
G03*
X228629177Y-63265682I6J-1000006D01*
G01*
%TO.C,D18*%
X124268756Y-52835000D02*
X124268756Y-48825000D01*
X126268756Y-52835000D02*
X124268756Y-52835000D01*
X126268756Y-52835000D02*
X126268756Y-48825000D01*
%TO.C,D28*%
X67118756Y-71910000D02*
X67118756Y-67900000D01*
X69118756Y-71910000D02*
X67118756Y-71910000D01*
X69118756Y-71910000D02*
X69118756Y-67900000D01*
%TO.C,MX34*%
X175522022Y-62265682D02*
X172479129Y-62265682D01*
X172479129Y-62265682D02*
G75*
G03*
X171479129Y-63265682I6J-1000006D01*
G01*
%TO.C,MX28*%
X61221926Y-62265682D02*
X58179033Y-62265682D01*
X58179033Y-62265682D02*
G75*
G03*
X57179033Y-63265682I6J-1000006D01*
G01*
%TO.C,MX47*%
X175522022Y-81315698D02*
X172479129Y-81315698D01*
X172479129Y-81315698D02*
G75*
G03*
X171479129Y-82315698I6J-1000006D01*
G01*
%TO.C,D32*%
X143318756Y-71910000D02*
X143318756Y-67900000D01*
X145318756Y-71910000D02*
X143318756Y-71910000D01*
X145318756Y-71910000D02*
X145318756Y-67900000D01*
%TO.C,MX45*%
X137421990Y-81315698D02*
X134379097Y-81315698D01*
X134379097Y-81315698D02*
G75*
G03*
X133379097Y-82315698I6J-1000006D01*
G01*
%TO.C,D5*%
X124268756Y-33785000D02*
X124268756Y-29775000D01*
X126268756Y-33785000D02*
X124268756Y-33785000D01*
X126268756Y-33785000D02*
X126268756Y-29775000D01*
%TO.C,MX4*%
X99321958Y-24165650D02*
X96279065Y-24165650D01*
X96279065Y-24165650D02*
G75*
G03*
X95279065Y-25165650I6J-1000006D01*
G01*
%TO.C,D27*%
X38543748Y-71910000D02*
X38543748Y-67900000D01*
X40543748Y-71910000D02*
X38543748Y-71910000D01*
X40543748Y-71910000D02*
X40543748Y-67900000D01*
%TO.C,MX29*%
X80271942Y-62265682D02*
X77229049Y-62265682D01*
X77229049Y-62265682D02*
G75*
G03*
X76229049Y-63265682I6J-1000006D01*
G01*
%TO.C,MX7*%
X156472006Y-24165650D02*
X153429113Y-24165650D01*
X153429113Y-24165650D02*
G75*
G03*
X152429113Y-25165650I6J-1000006D01*
G01*
%TO.C,D48*%
X200468756Y-90910000D02*
X200468756Y-86900000D01*
X202468756Y-90910000D02*
X200468756Y-90910000D01*
X202468756Y-90910000D02*
X202468756Y-86900000D01*
%TO.C,D34*%
X181418756Y-71910000D02*
X181418756Y-67900000D01*
X183418756Y-71910000D02*
X181418756Y-71910000D01*
X183418756Y-71910000D02*
X183418756Y-67900000D01*
%TO.C,MX18*%
X118371974Y-43215666D02*
X115329081Y-43215666D01*
X115329081Y-43215666D02*
G75*
G03*
X114329081Y-44215666I6J-1000006D01*
G01*
%TO.C,D20*%
X162368756Y-52835000D02*
X162368756Y-48825000D01*
X164368756Y-52835000D02*
X162368756Y-52835000D01*
X164368756Y-52835000D02*
X164368756Y-48825000D01*
%TO.C,MX39*%
X270772102Y-62265682D02*
X267729209Y-62265682D01*
X267729209Y-62265682D02*
G75*
G03*
X266729209Y-63265682I6J-1000006D01*
G01*
%TO.C,J3*%
X75890000Y-32565000D02*
X73390000Y-32565000D01*
X73390000Y-32565000D02*
X73390000Y-33615000D01*
X73390000Y-33615000D02*
X72400000Y-33615000D01*
X77860000Y-33735000D02*
X77860000Y-37615000D01*
X75890000Y-38785000D02*
X73390000Y-38785000D01*
X73390000Y-38785000D02*
X73390000Y-37735000D01*
%TO.C,MX24*%
X232672070Y-43215666D02*
X229629177Y-43215666D01*
X229629177Y-43215666D02*
G75*
G03*
X228629177Y-44215666I6J-1000006D01*
G01*
%TO.C,D19*%
X143318756Y-52835000D02*
X143318756Y-48825000D01*
X145318756Y-52835000D02*
X143318756Y-52835000D01*
X145318756Y-52835000D02*
X145318756Y-48825000D01*
%TO.C,MX43*%
X99321958Y-81315698D02*
X96279065Y-81315698D01*
X96279065Y-81315698D02*
G75*
G03*
X95279065Y-82315698I6J-1000006D01*
G01*
%TO.C,MX13*%
X270772102Y-24165650D02*
X267729209Y-24165650D01*
X267729209Y-24165650D02*
G75*
G03*
X266729209Y-25165650I6J-1000006D01*
G01*
%TO.C,MX6*%
X137421990Y-24165650D02*
X134379097Y-24165650D01*
X134379097Y-24165650D02*
G75*
G03*
X133379097Y-25165650I6J-1000006D01*
G01*
%TO.C,MX36*%
X213622054Y-62265682D02*
X210579161Y-62265682D01*
X210579161Y-62265682D02*
G75*
G03*
X209579161Y-63265682I6J-1000006D01*
G01*
%TO.C,R1*%
X35422936Y-58840000D02*
X35877064Y-58840000D01*
X35422936Y-60310000D02*
X35877064Y-60310000D01*
D10*
%TO.C,J5*%
X24796780Y-94845000D02*
X26320780Y-94845000D01*
X26320780Y-94845000D02*
X26828780Y-94337000D01*
X27336780Y-94845000D02*
X28860780Y-94845000D01*
X28860780Y-94845000D02*
X29368780Y-94337000D01*
X29876780Y-94845000D02*
X31400780Y-94845000D01*
X31400780Y-94845000D02*
X31908780Y-94337000D01*
X32416780Y-94845000D02*
X33940780Y-94845000D01*
X33940780Y-94845000D02*
X34448780Y-94337000D01*
X34956780Y-94845000D02*
X36480780Y-94845000D01*
X36480780Y-94845000D02*
X36988780Y-94337000D01*
X37496780Y-94845000D02*
X39020780Y-94845000D01*
X39020780Y-94845000D02*
X39528780Y-94337000D01*
X40036780Y-94845000D02*
X41560780Y-94845000D01*
X41560780Y-94845000D02*
X42068780Y-94337000D01*
X42576780Y-94845000D02*
X44100780Y-94845000D01*
X44100780Y-94845000D02*
X44608780Y-94337000D01*
X24288780Y-94337000D02*
X24796780Y-94845000D01*
X26828780Y-94337000D02*
X27336780Y-94845000D01*
X29368780Y-94337000D02*
X29876780Y-94845000D01*
X31908780Y-94337000D02*
X32416780Y-94845000D01*
X34448780Y-94337000D02*
X34956780Y-94845000D01*
X36988780Y-94337000D02*
X37496780Y-94845000D01*
X39528780Y-94337000D02*
X40036780Y-94845000D01*
X42068780Y-94337000D02*
X42576780Y-94845000D01*
X44608780Y-94337000D02*
X44608780Y-92813000D01*
X24288780Y-92813000D02*
X24288780Y-94337000D01*
X26828780Y-92813000D02*
X26320780Y-92305000D01*
X29368780Y-92813000D02*
X28860780Y-92305000D01*
X31908780Y-92813000D02*
X31400780Y-92305000D01*
X34448780Y-92813000D02*
X33940780Y-92305000D01*
X36988780Y-92813000D02*
X36480780Y-92305000D01*
X39528780Y-92813000D02*
X39020780Y-92305000D01*
X42068780Y-92813000D02*
X41560780Y-92305000D01*
X44608780Y-92813000D02*
X44100780Y-92305000D01*
X24796780Y-92305000D02*
X24288780Y-92813000D01*
X24796780Y-92305000D02*
X26320780Y-92305000D01*
X27336780Y-92305000D02*
X26828780Y-92813000D01*
X27336780Y-92305000D02*
X28860780Y-92305000D01*
X29876780Y-92305000D02*
X29368780Y-92813000D01*
X29876780Y-92305000D02*
X31400780Y-92305000D01*
X32416780Y-92305000D02*
X31908780Y-92813000D01*
X32416780Y-92305000D02*
X33940780Y-92305000D01*
X34956780Y-92305000D02*
X34448780Y-92813000D01*
X34956780Y-92305000D02*
X36480780Y-92305000D01*
X37496780Y-92305000D02*
X36988780Y-92813000D01*
X37496780Y-92305000D02*
X39020780Y-92305000D01*
X40036780Y-92305000D02*
X39528780Y-92813000D01*
X40036780Y-92305000D02*
X41560780Y-92305000D01*
X42576780Y-92305000D02*
X42068780Y-92813000D01*
X42576780Y-92305000D02*
X44100780Y-92305000D01*
D11*
%TO.C,D6*%
X143318756Y-33785000D02*
X143318756Y-29775000D01*
X145318756Y-33785000D02*
X143318756Y-33785000D01*
X145318756Y-33785000D02*
X145318756Y-29775000D01*
%TO.C,MX30*%
X99321958Y-62265682D02*
X96279065Y-62265682D01*
X96279065Y-62265682D02*
G75*
G03*
X95279065Y-63265682I6J-1000006D01*
G01*
%TO.C,D12*%
X257625000Y-33785000D02*
X257625000Y-29775000D01*
X259625000Y-33785000D02*
X257625000Y-33785000D01*
X259625000Y-33785000D02*
X259625000Y-29775000D01*
%TO.C,D30*%
X105218756Y-71910000D02*
X105218756Y-67900000D01*
X107218756Y-71910000D02*
X105218756Y-71910000D01*
X107218756Y-71910000D02*
X107218756Y-67900000D01*
%TO.C,D2*%
X67113756Y-33785000D02*
X67113756Y-29775000D01*
X69113756Y-33785000D02*
X67113756Y-33785000D01*
X69113756Y-33785000D02*
X69113756Y-29775000D01*
%TO.C,CX2*%
X63188748Y-56165000D02*
X63711252Y-56165000D01*
X63188748Y-57635000D02*
X63711252Y-57635000D01*
%TO.C,MX35*%
X194572038Y-62265682D02*
X191529145Y-62265682D01*
X191529145Y-62265682D02*
G75*
G03*
X190529145Y-63265682I6J-1000006D01*
G01*
%TO.C,MX15*%
X61221926Y-43215666D02*
X58179033Y-43215666D01*
X58179033Y-43215666D02*
G75*
G03*
X57179033Y-44215666I6J-1000006D01*
G01*
%TO.C,MX48*%
X194572038Y-81315698D02*
X191529145Y-81315698D01*
X191529145Y-81315698D02*
G75*
G03*
X190529145Y-82315698I6J-1000006D01*
G01*
%TO.C,D33*%
X162368756Y-71910000D02*
X162368756Y-67900000D01*
X164368756Y-71910000D02*
X162368756Y-71910000D01*
X164368756Y-71910000D02*
X164368756Y-67900000D01*
%TO.C,MX31*%
X118371974Y-62265682D02*
X115329081Y-62265682D01*
X115329081Y-62265682D02*
G75*
G03*
X114329081Y-63265682I6J-1000006D01*
G01*
%TO.C,D22*%
X200468756Y-52835000D02*
X200468756Y-48825000D01*
X202468756Y-52835000D02*
X200468756Y-52835000D01*
X202468756Y-52835000D02*
X202468756Y-48825000D01*
%TO.C,MX17*%
X99321958Y-43215666D02*
X96279065Y-43215666D01*
X96279065Y-43215666D02*
G75*
G03*
X95279065Y-44215666I6J-1000006D01*
G01*
%TO.C,D36*%
X219518756Y-71910000D02*
X219518756Y-67900000D01*
X221518756Y-71910000D02*
X219518756Y-71910000D01*
X221518756Y-71910000D02*
X221518756Y-67900000D01*
%TO.C,MX51*%
X251722086Y-81315698D02*
X248679193Y-81315698D01*
X248679193Y-81315698D02*
G75*
G03*
X247679193Y-82315698I6J-1000006D01*
G01*
D10*
%TO.C,U1*%
X51775000Y-50575000D02*
X51100000Y-50575000D01*
X51775000Y-50575000D02*
X51775000Y-51250000D01*
X42000000Y-50575000D02*
X42000000Y-49300000D01*
X41425000Y-50575000D02*
X42000000Y-50575000D01*
X41425000Y-50575000D02*
X41425000Y-51250000D01*
X51775000Y-60925000D02*
X51775000Y-60250000D01*
X51775000Y-60925000D02*
X51100000Y-60925000D01*
X41425000Y-60925000D02*
X41425000Y-60250000D01*
X41425000Y-60925000D02*
X42100000Y-60925000D01*
D11*
%TO.C,MX44*%
X118371974Y-81315698D02*
X115329081Y-81315698D01*
X115329081Y-81315698D02*
G75*
G03*
X114329081Y-82315698I6J-1000006D01*
G01*
%TO.C,MX27*%
X32646902Y-62265682D02*
X29604009Y-62265682D01*
X29604009Y-62265682D02*
G75*
G03*
X28604009Y-63265682I6J-1000006D01*
G01*
%TO.C,MX40*%
X32646902Y-81315698D02*
X29604009Y-81315698D01*
X29604009Y-81315698D02*
G75*
G03*
X28604009Y-82315698I6J-1000006D01*
G01*
%TO.C,MX12*%
X251722086Y-24165650D02*
X248679193Y-24165650D01*
X248679193Y-24165650D02*
G75*
G03*
X247679193Y-25165650I6J-1000006D01*
G01*
%TO.C,D43*%
X105218756Y-90910000D02*
X105218756Y-86900000D01*
X107218756Y-90910000D02*
X105218756Y-90910000D01*
X107218756Y-90910000D02*
X107218756Y-86900000D01*
%TO.C,D47*%
X181418756Y-90910000D02*
X181418756Y-86900000D01*
X183418756Y-90910000D02*
X181418756Y-90910000D01*
X183418756Y-90910000D02*
X183418756Y-86900000D01*
%TO.C,MX11*%
X232672070Y-24165650D02*
X229629177Y-24165650D01*
X229629177Y-24165650D02*
G75*
G03*
X228629177Y-25165650I6J-1000006D01*
G01*
%TO.C,D9*%
X200468756Y-33785000D02*
X200468756Y-29775000D01*
X202468756Y-33785000D02*
X200468756Y-33785000D01*
X202468756Y-33785000D02*
X202468756Y-29775000D01*
%TO.C,MX23*%
X213622054Y-43215666D02*
X210579161Y-43215666D01*
X210579161Y-43215666D02*
G75*
G03*
X209579161Y-44215666I6J-1000006D01*
G01*
%TO.C,MX52*%
X270772102Y-81315698D02*
X267729209Y-81315698D01*
X267729209Y-81315698D02*
G75*
G03*
X266729209Y-82315698I6J-1000006D01*
G01*
%TO.C,D1*%
X69575000Y-33762500D02*
X69575000Y-29752500D01*
X71575000Y-33762500D02*
X69575000Y-33762500D01*
X71575000Y-33762500D02*
X71575000Y-29752500D01*
%TO.C,D21*%
X181418756Y-52835000D02*
X181418756Y-48825000D01*
X183418756Y-52835000D02*
X181418756Y-52835000D01*
X183418756Y-52835000D02*
X183418756Y-48825000D01*
%TO.C,MX2*%
X61221926Y-24165650D02*
X58179033Y-24165650D01*
X58179033Y-24165650D02*
G75*
G03*
X57179033Y-25165650I6J-1000006D01*
G01*
%TO.C,MX50*%
X232672070Y-81315698D02*
X229629177Y-81315698D01*
X229629177Y-81315698D02*
G75*
G03*
X228629177Y-82315698I6J-1000006D01*
G01*
%TO.C,D38*%
X257618756Y-71910000D02*
X257618756Y-67900000D01*
X259618756Y-71910000D02*
X257618756Y-71910000D01*
X259618756Y-71910000D02*
X259618756Y-67900000D01*
%TO.C,MX20*%
X156472006Y-43215666D02*
X153429113Y-43215666D01*
X153429113Y-43215666D02*
G75*
G03*
X152429113Y-44215666I6J-1000006D01*
G01*
%TO.C,MX26*%
X270772102Y-43215666D02*
X267729209Y-43215666D01*
X267729209Y-43215666D02*
G75*
G03*
X266729209Y-44215666I6J-1000006D01*
G01*
%TO.C,D15*%
X67118756Y-51085000D02*
X67118756Y-47075000D01*
X69118756Y-51085000D02*
X67118756Y-51085000D01*
X69118756Y-51085000D02*
X69118756Y-47075000D01*
%TO.C,MX1*%
X32646902Y-24165650D02*
X29604009Y-24165650D01*
X29604009Y-24165650D02*
G75*
G03*
X28604009Y-25165650I6J-1000006D01*
G01*
%TO.C,J2*%
X50170000Y-36816000D02*
X50170000Y-34784000D01*
X50170000Y-34784000D02*
X49916000Y-34530000D01*
X50170000Y-34276000D02*
X50170000Y-32244000D01*
X50170000Y-32244000D02*
X49916000Y-31990000D01*
X50170000Y-31736000D02*
X50170000Y-29704000D01*
X50170000Y-29704000D02*
X49916000Y-29450000D01*
X50170000Y-29196000D02*
X50170000Y-27164000D01*
X50170000Y-27164000D02*
X49916000Y-26910000D01*
X50170000Y-26656000D02*
X50170000Y-24624000D01*
X50170000Y-24624000D02*
X49916000Y-24370000D01*
X50170000Y-24116000D02*
X50170000Y-22084000D01*
X50170000Y-22084000D02*
X49916000Y-21830000D01*
X49916000Y-37070000D02*
X50170000Y-36816000D01*
X49916000Y-34530000D02*
X50170000Y-34276000D01*
X49916000Y-31990000D02*
X50170000Y-31736000D01*
X49916000Y-31990000D02*
X50170000Y-31736000D01*
X49916000Y-29450000D02*
X50170000Y-29196000D01*
X49916000Y-26910000D02*
X50170000Y-26656000D01*
X49916000Y-24370000D02*
X50170000Y-24116000D01*
X47884000Y-37070000D02*
X49916000Y-37070000D01*
X47884000Y-34530000D02*
X47630000Y-34784000D01*
X47884000Y-31990000D02*
X47630000Y-32244000D01*
X47884000Y-31990000D02*
X47630000Y-32244000D01*
X47884000Y-29450000D02*
X47630000Y-29704000D01*
X47884000Y-26910000D02*
X47630000Y-27164000D01*
X47884000Y-24370000D02*
X49916000Y-24370000D01*
X47884000Y-24370000D02*
X47630000Y-24624000D01*
X47884000Y-21830000D02*
X49916000Y-21830000D01*
X47630000Y-36816000D02*
X47884000Y-37070000D01*
X47630000Y-34784000D02*
X47630000Y-36816000D01*
X47630000Y-34276000D02*
X47884000Y-34530000D01*
X47630000Y-32244000D02*
X47630000Y-34276000D01*
X47630000Y-31736000D02*
X47884000Y-31990000D01*
X47630000Y-29704000D02*
X47630000Y-31736000D01*
X47630000Y-29196000D02*
X47884000Y-29450000D01*
X47630000Y-27164000D02*
X47630000Y-29196000D01*
X47630000Y-26656000D02*
X47884000Y-26910000D01*
X47630000Y-24624000D02*
X47630000Y-26656000D01*
X47630000Y-24116000D02*
X47884000Y-24370000D01*
X47630000Y-23862000D02*
X47630000Y-24116000D01*
X47630000Y-22084000D02*
X47884000Y-21830000D01*
X47630000Y-22084000D02*
X47630000Y-23862000D01*
D10*
%TO.C,SW1*%
X30612496Y-38775000D02*
X30612496Y-36575000D01*
X30612496Y-35075000D02*
X25412496Y-35075000D01*
X25412496Y-40275000D02*
X30612496Y-40275000D01*
X25412496Y-36575000D02*
X25412496Y-38775000D01*
X29012496Y-37675000D02*
G75*
G03*
X29012496Y-37675000I-1000000J0D01*
G01*
D11*
%TO.C,D23*%
X219518756Y-52835000D02*
X219518756Y-48825000D01*
X221518756Y-52835000D02*
X219518756Y-52835000D01*
X221518756Y-52835000D02*
X221518756Y-48825000D01*
%TO.C,D25*%
X257625000Y-52835000D02*
X257625000Y-48825000D01*
X259625000Y-52835000D02*
X257625000Y-52835000D01*
X259625000Y-52835000D02*
X259625000Y-48825000D01*
%TO.C,D42*%
X86168756Y-90910000D02*
X86168756Y-86900000D01*
X88168756Y-90910000D02*
X86168756Y-90910000D01*
X88168756Y-90910000D02*
X88168756Y-86900000D01*
%TO.C,D26*%
X276675000Y-52835000D02*
X276675000Y-48825000D01*
X278675000Y-52835000D02*
X276675000Y-52835000D01*
X278675000Y-52835000D02*
X278675000Y-48825000D01*
%TO.C,MX38*%
X251722086Y-62265682D02*
X248679193Y-62265682D01*
X248679193Y-62265682D02*
G75*
G03*
X247679193Y-63265682I6J-1000006D01*
G01*
%TO.C,D10*%
X219518756Y-33785000D02*
X219518756Y-29775000D01*
X221518756Y-33785000D02*
X219518756Y-33785000D01*
X221518756Y-33785000D02*
X221518756Y-29775000D01*
%TO.C,MX5*%
X118371974Y-24165650D02*
X115329081Y-24165650D01*
X115329081Y-24165650D02*
G75*
G03*
X114329081Y-25165650I6J-1000006D01*
G01*
%TO.C,D44*%
X124268756Y-90910000D02*
X124268756Y-86900000D01*
X126268756Y-90910000D02*
X124268756Y-90910000D01*
X126268756Y-90910000D02*
X126268756Y-86900000D01*
%TO.C,D17*%
X105218756Y-52835000D02*
X105218756Y-48825000D01*
X107218756Y-52835000D02*
X105218756Y-52835000D01*
X107218756Y-52835000D02*
X107218756Y-48825000D01*
%TO.C,MX46*%
X156472006Y-81315698D02*
X153429113Y-81315698D01*
X153429113Y-81315698D02*
G75*
G03*
X152429113Y-82315698I6J-1000006D01*
G01*
%TO.C,MX14*%
X32646902Y-43215666D02*
X29604009Y-43215666D01*
X29604009Y-43215666D02*
G75*
G03*
X28604009Y-44215666I6J-1000006D01*
G01*
%TD*%
M02*
