M48
; DRILL file {KiCad 7.0.1-0} date 2023 April 12, Wednesday 11:52:16
; FORMAT={-:-/ absolute / inch / decimal}
; #@! TF.CreationDate,2023-04-12T11:52:16-05:00
; #@! TF.GenerationSoftware,Kicad,Pcbnew,7.0.1-0
; #@! TF.FileFunction,Plated,1,2,PTH
FMAT,2
INCH
; #@! TA.AperFunction,Plated,PTH,ViaDrill
T1C0.0160
; #@! TA.AperFunction,Plated,PTH,ComponentDrill
T2C0.0236
; #@! TA.AperFunction,Plated,PTH,ComponentDrill
T3C0.0300
; #@! TA.AperFunction,Plated,PTH,ComponentDrill
T4C0.0394
%
G90
G05
T1
X1.0404Y-2.8504
X1.0433Y-2.1969
X1.0827Y-3.6959
X1.0846Y-0.8907
X1.1201Y-2.8504
X1.123Y-2.1969
X1.1319Y-2.2953
X1.2795Y-1.5768
X1.2795Y-1.6565
X1.31Y-1.0423
X1.4213Y-1.0295
X1.4764Y-1.0463
X1.4803Y-0.9055
X1.4892Y-2.8711
X1.4892Y-2.9508
X1.6152Y-1.4124
X1.6624Y-1.1407
X1.6929Y-1.5915
X1.6929Y-1.6713
X1.6978Y-2.19
X1.6978Y-2.4705
X1.6978Y-3.1083
X1.7343Y-1.8219
X1.7343Y-2.5719
X1.7352Y-2.878
X1.7352Y-3.3219
X1.7707Y-2.19
X1.7707Y-2.4705
X1.7707Y-3.1083
X1.7923Y-1.1417
X1.8022Y-1.3081
X1.812Y-1.6713
X1.812Y-1.7441
X1.8386Y-1.1624
X1.8484Y-1.4675
X1.9843Y-2.0098
X1.9843Y-2.0896
X2.001Y-1.0226
X2.0325Y-1.6713
X2.0325Y-1.7441
X2.0659Y-0.9055
X2.1181Y-1.5915
X2.1181Y-1.6713
X2.1654Y-1.0207
X2.2313Y-2.7628
X2.2313Y-2.8435
X2.2313Y-2.9754
X2.2313Y-3.5108
X2.2313Y-3.5906
X2.2756Y-1.437
X2.2756Y-1.5167
X2.3888Y-1.3819
X2.4419Y-1.4213
X2.4419Y-1.5689
X2.4469Y-2.19
X2.4469Y-2.4705
X2.4469Y-3.1083
X2.4823Y-1.0719
X2.4823Y-2.8583
X2.4843Y-0.8907
X2.4843Y-1.8219
X2.4843Y-2.5728
X2.4843Y-3.6969
X2.4852Y-3.3219
X2.5197Y-2.19
X2.5197Y-2.4705
X2.5197Y-3.1083
X2.5217Y-1.4213
X2.5217Y-1.5689
X2.7234Y-1.5915
X2.7234Y-1.6713
X2.7283Y-1.2598
X2.7283Y-1.3396
X2.7283Y-2.0098
X2.7283Y-2.0896
X2.9852Y-2.7628
X2.9852Y-2.8366
X2.9852Y-2.9754
X2.9862Y-1.438
X2.9862Y-1.5177
X2.9902Y-3.5108
X2.9902Y-3.5906
X3.1929Y-1.6801
X3.1939Y-1.4213
X3.1939Y-1.5689
X3.1988Y-2.19
X3.1988Y-2.4705
X3.1988Y-3.1083
X3.2343Y-1.0719
X3.2343Y-1.8219
X3.2343Y-2.5719
X3.2343Y-2.8445
X3.2343Y-3.3219
X3.2717Y-2.19
X3.2717Y-2.4705
X3.2717Y-3.1083
X3.2726Y-1.6801
X3.2736Y-1.4213
X3.2736Y-1.5689
X3.4872Y-2.0197
X3.4872Y-2.0994
X3.4911Y-1.2589
X3.4911Y-1.3386
X3.4961Y-1.5915
X3.4961Y-1.6713
X3.7264Y-2.7923
X3.7264Y-2.9754
X3.7343Y-3.5108
X3.7343Y-3.5906
X3.753Y-1.438
X3.753Y-1.5177
X3.9429Y-1.6752
X3.9439Y-1.4213
X3.9439Y-1.5689
X3.9488Y-2.19
X3.9488Y-2.4705
X3.9488Y-3.1083
X3.9833Y-1.0719
X3.9833Y-1.8219
X3.9833Y-2.2677
X3.9843Y-2.5719
X3.9843Y-3.3219
X4.0217Y-2.19
X4.0217Y-2.4705
X4.0217Y-3.1083
X4.0226Y-1.6752
X4.0236Y-1.4213
X4.0236Y-1.5689
X4.2343Y-1.5925
X4.2343Y-1.6722
X4.2352Y-1.2589
X4.2352Y-1.3386
X4.2372Y-2.0197
X4.2372Y-2.0994
X4.4793Y-2.7923
X4.4793Y-2.9754
X4.4892Y-3.5118
X4.4892Y-3.5915
X4.4921Y-1.438
X4.4921Y-1.5177
X4.5Y-2.25
X4.5Y-2.3297
X4.6949Y-1.4213
X4.6949Y-1.5689
X4.6998Y-2.19
X4.6998Y-2.4705
X4.6998Y-3.1083
X4.7343Y-0.8907
X4.7343Y-1.8219
X4.7343Y-2.2549
X4.7343Y-2.5719
X4.7343Y-3.3219
X4.7343Y-3.6969
X4.7352Y-1.0719
X4.7726Y-2.19
X4.7726Y-2.4705
X4.7726Y-3.1083
X4.7746Y-1.4213
X4.7746Y-1.5689
X4.9872Y-1.2589
X4.9872Y-1.3386
X4.9872Y-2.0098
X4.9872Y-2.0896
X4.9902Y-1.5925
X4.9902Y-1.6722
X5.2067Y-2.2382
X5.2067Y-2.3179
X5.2323Y-3.5118
X5.2323Y-3.5915
X5.249Y-1.438
X5.249Y-1.5177
X5.2569Y-2.7923
X5.2569Y-2.9754
X5.4439Y-1.4213
X5.4439Y-1.5689
X5.4488Y-2.19
X5.4488Y-2.4705
X5.4488Y-3.1083
X5.4843Y-1.0719
X5.4843Y-1.8219
X5.4843Y-2.2343
X5.4843Y-2.5719
X5.4843Y-3.3219
X5.5217Y-2.19
X5.5217Y-2.4705
X5.5217Y-3.1083
X5.5236Y-1.4213
X5.5236Y-1.5689
X5.7333Y-2.0098
X5.7333Y-2.0896
X5.7343Y-1.2589
X5.7343Y-1.3386
X5.7382Y-1.5925
X5.7382Y-1.6722
X5.9852Y-3.5118
X5.9852Y-3.5915
X6.0Y-1.438
X6.0Y-1.5177
X6.0079Y-2.2067
X6.0079Y-2.3346
X6.0079Y-2.7923
X6.0079Y-2.9754
X6.19Y-1.4203
X6.19Y-1.5679
X6.1949Y-2.1644
X6.1949Y-2.4695
X6.1949Y-3.1073
X6.2333Y-2.2126
X6.2333Y-3.3219
X6.2343Y-1.0719
X6.2343Y-1.8219
X6.2352Y-2.5719
X6.2677Y-2.1644
X6.2677Y-2.4695
X6.2677Y-3.1073
X6.2697Y-1.4203
X6.2697Y-1.5679
X6.4872Y-2.0098
X6.4872Y-2.0896
X6.4902Y-1.5935
X6.4902Y-1.6732
X6.4911Y-1.2589
X6.4911Y-1.3386
X6.7313Y-3.5118
X6.7313Y-3.5915
X6.7382Y-1.438
X6.7382Y-1.5177
X6.7539Y-2.7923
X6.7539Y-2.9754
X6.9459Y-1.4203
X6.9459Y-1.5679
X6.9508Y-2.1604
X6.9508Y-2.4695
X6.9508Y-3.1073
X6.9833Y-1.8219
X6.9833Y-3.3219
X6.9843Y-0.8907
X6.9843Y-1.0719
X6.9843Y-2.1939
X6.9843Y-2.5719
X6.9843Y-3.6969
X7.0236Y-2.1604
X7.0236Y-2.4695
X7.0236Y-3.1073
X7.0256Y-1.4203
X7.0256Y-1.5679
X7.2382Y-1.5935
X7.2382Y-1.6732
X7.2392Y-1.2589
X7.2392Y-1.3386
X7.2392Y-2.0098
X7.2392Y-2.0896
X7.4803Y-2.1722
X7.4803Y-2.3346
X7.4803Y-2.7923
X7.4803Y-2.9754
X7.4892Y-3.5118
X7.4892Y-3.5915
X7.4921Y-1.438
X7.4921Y-1.5177
X7.685Y-2.1614
X7.6949Y-1.4203
X7.6949Y-1.5679
X7.6998Y-2.4695
X7.6998Y-3.1073
X7.7343Y-1.0719
X7.7343Y-1.8219
X7.7343Y-2.1722
X7.7343Y-2.5719
X7.7343Y-3.3219
X7.7707Y-2.1211
X7.7726Y-2.4695
X7.7726Y-3.1073
X7.7746Y-1.4203
X7.7746Y-1.5679
X7.9833Y-2.0098
X7.9833Y-2.0896
X7.9921Y-1.2589
X7.9921Y-1.3386
X7.9941Y-1.5935
X7.9941Y-1.6732
X8.2333Y-3.5118
X8.2333Y-3.5915
X8.2352Y-2.1516
X8.2352Y-2.3346
X8.2362Y-2.7923
X8.2362Y-2.9754
X8.25Y-1.438
X8.25Y-1.5177
X8.4449Y-1.4213
X8.4449Y-1.5689
X8.4498Y-2.1614
X8.4498Y-2.4705
X8.4498Y-3.1083
X8.4852Y-1.0719
X8.4852Y-1.8219
X8.4852Y-2.5719
X8.4852Y-3.3219
X8.5226Y-2.1614
X8.5226Y-2.4705
X8.5226Y-3.1083
X8.5246Y-1.4213
X8.5246Y-1.5689
X8.7352Y-1.2515
X8.7352Y-1.3312
X8.7362Y-1.5935
X8.7362Y-1.6732
X8.75Y-2.0187
X8.75Y-2.0886
X8.9862Y-3.5118
X8.9862Y-3.5915
X8.998Y-1.438
X8.998Y-1.5177
X9.0167Y-2.7953
X9.0167Y-2.9783
X9.0197Y-2.1516
X9.0197Y-2.3346
X9.0884Y-1.5589
X9.1358Y-1.6063
X9.1909Y-1.4213
X9.1959Y-2.1594
X9.1959Y-2.4705
X9.1998Y-3.1083
X9.2333Y-0.8907
X9.2343Y-1.0719
X9.2343Y-3.6437
X9.2352Y-1.8219
X9.2352Y-2.5719
X9.2352Y-3.3219
X9.2687Y-2.1594
X9.2687Y-2.4705
X9.2707Y-1.4213
X9.2726Y-3.1083
X9.3337Y-1.2733
X9.4941Y-2.0089
X9.4941Y-2.0886
X9.565Y-1.5935
X9.565Y-1.6732
X9.6388Y-1.439
X9.6388Y-1.5187
X9.7313Y-3.5118
X9.7313Y-3.5915
X9.7382Y-1.2628
X9.7382Y-1.3291
X9.7382Y-1.4291
X9.747Y-2.1516
X9.747Y-2.3346
X9.7579Y-2.7953
X9.7579Y-2.9783
X9.8691Y-1.5522
X9.8691Y-1.6319
X9.9173Y-2.1476
X9.9173Y-3.1102
X9.9321Y-1.9892
X9.9341Y-2.4173
X9.938Y-1.7441
X9.939Y-1.439
X9.939Y-1.5187
X9.9695Y-2.5364
X9.9813Y-3.5512
X9.9902Y-3.1102
X10.0069Y-1.2785
X10.0098Y-1.2116
X10.0128Y-2.0394
X10.0128Y-2.3957
X10.0177Y-1.7441
X10.0276Y-1.9518
X10.0817Y-2.8022
X10.0846Y-2.6486
X10.0846Y-2.7411
X10.0886Y-2.5177
X10.0945Y-3.5118
X10.0945Y-3.5915
X10.1122Y-2.0214
X10.1152Y-1.624
X10.1152Y-1.7441
X10.1407Y-1.3681
X10.1949Y-1.624
X10.1949Y-1.7441
X10.1959Y-2.9085
X10.2283Y-3.0226
X10.2293Y-3.4695
X10.2355Y-2.8022
X10.2468Y-2.0214
X10.2766Y-1.7736
X10.2854Y-1.626
X10.3071Y-2.4469
X10.3081Y-2.6506
X10.3258Y-1.5138
X10.3287Y-0.9183
X10.3373Y-2.373
X10.3593Y-1.0719
X10.3652Y-2.747
X10.374Y-2.0974
X10.3829Y-1.3071
X10.3937Y-2.1358
X10.3951Y-2.7733
X10.3967Y-2.0394
X10.4154Y-2.3878
X10.4173Y-1.7224
X10.4173Y-1.9242
X10.4242Y-3.4695
X10.4282Y-2.7501
X10.4442Y-2.3553
X10.4459Y-3.0226
X10.4606Y-2.7733
X10.4616Y-1.5138
X10.4626Y-1.4045
X10.4626Y-1.5738
X10.4626Y-1.626
X10.4764Y-2.3888
X10.4921Y-3.5512
X10.4961Y-2.2146
X10.5079Y-2.0522
X10.5138Y-1.4715
X10.5295Y-2.8022
X10.5423Y-1.5738
X10.5531Y-2.4242
X10.5748Y-2.02
X10.5846Y-1.3031
X10.6171Y-1.9911
X10.7992Y-2.1122
X10.7992Y-2.3228
X10.872Y-3.5118
X10.872Y-3.5915
X10.876Y-2.7628
X10.876Y-2.8425
X10.998Y-3.6969
X11.0128Y-0.8907
X11.0305Y-2.2972
T3
X10.251Y-0.9193
X10.251Y-1.0193
X10.251Y-1.1193
X10.251Y-1.2193
X10.251Y-1.3193
X10.251Y-1.4193
T4
X10.0423Y-3.6909
X10.1423Y-3.6909
X10.2423Y-3.6909
X10.3423Y-3.6909
X10.4423Y-3.6909
X10.5423Y-3.6909
X10.6423Y-3.6909
X10.7423Y-3.6909
T2
G00X1.5416Y-0.8687
M15
G01X1.5416Y-0.8923
M16
G05
G00X1.5416Y-1.0242
M15
G01X1.5416Y-1.0675
M16
G05
G00X1.8802Y-0.8687
M15
G01X1.8802Y-0.8923
M16
G05
G00X1.8802Y-1.0242
M15
G01X1.8802Y-1.0675
M16
G05
T0
M30
