%TF.GenerationSoftware,KiCad,Pcbnew,7.0.1-0*%
%TF.CreationDate,2023-04-12T11:52:18-05:00*%
%TF.ProjectId,pcb,7063622e-6b69-4636-9164-5f7063625858,rev?*%
%TF.SameCoordinates,Original*%
%TF.FileFunction,Paste,Bot*%
%TF.FilePolarity,Positive*%
%FSLAX46Y46*%
G04 Gerber Fmt 4.6, Leading zero omitted, Abs format (unit mm)*
G04 Created by KiCad (PCBNEW 7.0.1-0) date 2023-04-12 11:52:18*
%MOMM*%
%LPD*%
G01*
G04 APERTURE LIST*
G04 Aperture macros list*
%AMRoundRect*
0 Rectangle with rounded corners*
0 $1 Rounding radius*
0 $2 $3 $4 $5 $6 $7 $8 $9 X,Y pos of 4 corners*
0 Add a 4 corners polygon primitive as box body*
4,1,4,$2,$3,$4,$5,$6,$7,$8,$9,$2,$3,0*
0 Add four circle primitives for the rounded corners*
1,1,$1+$1,$2,$3*
1,1,$1+$1,$4,$5*
1,1,$1+$1,$6,$7*
1,1,$1+$1,$8,$9*
0 Add four rect primitives between the rounded corners*
20,1,$1+$1,$2,$3,$4,$5,0*
20,1,$1+$1,$4,$5,$6,$7,0*
20,1,$1+$1,$6,$7,$8,$9,0*
20,1,$1+$1,$8,$9,$2,$3,0*%
G04 Aperture macros list end*
%ADD10R,2.550000X2.500000*%
%ADD11RoundRect,0.225000X0.375000X-0.225000X0.375000X0.225000X-0.375000X0.225000X-0.375000X-0.225000X0*%
%ADD12RoundRect,0.225000X0.250000X-0.225000X0.250000X0.225000X-0.250000X0.225000X-0.250000X-0.225000X0*%
%ADD13RoundRect,0.200000X0.275000X-0.200000X0.275000X0.200000X-0.275000X0.200000X-0.275000X-0.200000X0*%
%ADD14RoundRect,0.250000X0.450000X-0.325000X0.450000X0.325000X-0.450000X0.325000X-0.450000X-0.325000X0*%
%ADD15RoundRect,0.225000X-0.225000X-0.250000X0.225000X-0.250000X0.225000X0.250000X-0.225000X0.250000X0*%
%ADD16RoundRect,0.225000X0.225000X0.250000X-0.225000X0.250000X-0.225000X-0.250000X0.225000X-0.250000X0*%
%ADD17RoundRect,0.150000X-0.150000X-0.575000X0.150000X-0.575000X0.150000X0.575000X-0.150000X0.575000X0*%
%ADD18RoundRect,0.075000X-0.075000X-0.650000X0.075000X-0.650000X0.075000X0.650000X-0.075000X0.650000X0*%
%ADD19R,1.200000X1.400000*%
%ADD20RoundRect,0.200000X-0.275000X0.200000X-0.275000X-0.200000X0.275000X-0.200000X0.275000X0.200000X0*%
%ADD21RoundRect,0.225000X-0.250000X0.225000X-0.250000X-0.225000X0.250000X-0.225000X0.250000X0.225000X0*%
%ADD22RoundRect,0.250000X-0.275000X0.275000X-0.275000X-0.275000X0.275000X-0.275000X0.275000X0.275000X0*%
%ADD23RoundRect,0.062500X-0.062500X0.475000X-0.062500X-0.475000X0.062500X-0.475000X0.062500X0.475000X0*%
%ADD24RoundRect,0.062500X-0.475000X0.062500X-0.475000X-0.062500X0.475000X-0.062500X0.475000X0.062500X0*%
%ADD25RoundRect,0.150000X0.625000X-0.150000X0.625000X0.150000X-0.625000X0.150000X-0.625000X-0.150000X0*%
%ADD26RoundRect,0.250000X0.650000X-0.350000X0.650000X0.350000X-0.650000X0.350000X-0.650000X-0.350000X0*%
%ADD27RoundRect,0.150000X0.475000X0.150000X-0.475000X0.150000X-0.475000X-0.150000X0.475000X-0.150000X0*%
%ADD28R,1.800000X1.100000*%
G04 APERTURE END LIST*
D10*
%TO.C,MX42*%
X65543186Y-84375698D03*
X78470186Y-81835698D03*
%TD*%
%TO.C,MX9*%
X179843282Y-27225650D03*
X192770282Y-24685650D03*
%TD*%
%TO.C,MX3*%
X65543186Y-27225650D03*
X78470186Y-24685650D03*
%TD*%
%TO.C,MX41*%
X46493170Y-84375698D03*
X59420170Y-81835698D03*
%TD*%
%TO.C,MX25*%
X236993330Y-46275666D03*
X249920330Y-43735666D03*
%TD*%
%TO.C,MX22*%
X179843282Y-46275666D03*
X192770282Y-43735666D03*
%TD*%
%TO.C,MX49*%
X198893298Y-84375698D03*
X211820298Y-81835698D03*
%TD*%
%TO.C,MX10*%
X198893298Y-27225650D03*
X211820298Y-24685650D03*
%TD*%
%TO.C,MX19*%
X122693234Y-46275666D03*
X135620234Y-43735666D03*
%TD*%
%TO.C,MX21*%
X160793266Y-46275666D03*
X173720266Y-43735666D03*
%TD*%
%TO.C,MX16*%
X65543186Y-46275666D03*
X78470186Y-43735666D03*
%TD*%
%TO.C,MX32*%
X122693234Y-65325682D03*
X135620234Y-62785682D03*
%TD*%
%TO.C,MX8*%
X160793266Y-27225650D03*
X173720266Y-24685650D03*
%TD*%
%TO.C,MX33*%
X141743250Y-65325682D03*
X154670250Y-62785682D03*
%TD*%
%TO.C,MX37*%
X217943314Y-65325682D03*
X230870314Y-62785682D03*
%TD*%
%TO.C,MX34*%
X160793266Y-65325682D03*
X173720266Y-62785682D03*
%TD*%
%TO.C,MX28*%
X46493170Y-65325682D03*
X59420170Y-62785682D03*
%TD*%
%TO.C,MX47*%
X160793266Y-84375698D03*
X173720266Y-81835698D03*
%TD*%
%TO.C,MX45*%
X122693234Y-84375698D03*
X135620234Y-81835698D03*
%TD*%
%TO.C,MX4*%
X84593202Y-27225650D03*
X97520202Y-24685650D03*
%TD*%
%TO.C,MX29*%
X65543186Y-65325682D03*
X78470186Y-62785682D03*
%TD*%
%TO.C,MX7*%
X141743250Y-27225650D03*
X154670250Y-24685650D03*
%TD*%
%TO.C,MX18*%
X103643218Y-46275666D03*
X116570218Y-43735666D03*
%TD*%
%TO.C,MX39*%
X265568354Y-65325682D03*
X278495354Y-62785682D03*
%TD*%
%TO.C,MX24*%
X217943314Y-46275666D03*
X230870314Y-43735666D03*
%TD*%
%TO.C,MX43*%
X84593202Y-84375698D03*
X97520202Y-81835698D03*
%TD*%
%TO.C,MX13*%
X265568354Y-27225650D03*
X278495354Y-24685650D03*
%TD*%
%TO.C,MX6*%
X122693234Y-27225650D03*
X135620234Y-24685650D03*
%TD*%
%TO.C,MX36*%
X198893298Y-65325682D03*
X211820298Y-62785682D03*
%TD*%
%TO.C,MX30*%
X84593202Y-65325682D03*
X97520202Y-62785682D03*
%TD*%
%TO.C,MX35*%
X179843282Y-65325682D03*
X192770282Y-62785682D03*
%TD*%
%TO.C,MX15*%
X46493170Y-46275666D03*
X59420170Y-43735666D03*
%TD*%
%TO.C,MX48*%
X179843282Y-84375698D03*
X192770282Y-81835698D03*
%TD*%
%TO.C,MX31*%
X103643218Y-65325682D03*
X116570218Y-62785682D03*
%TD*%
%TO.C,MX17*%
X84593202Y-46275666D03*
X97520202Y-43735666D03*
%TD*%
%TO.C,MX51*%
X236993330Y-84375698D03*
X249920330Y-81835698D03*
%TD*%
%TO.C,MX44*%
X103643218Y-84375698D03*
X116570218Y-81835698D03*
%TD*%
%TO.C,MX27*%
X27443154Y-65325682D03*
X40370154Y-62785682D03*
%TD*%
%TO.C,MX40*%
X27443154Y-84375698D03*
X40370154Y-81835698D03*
%TD*%
%TO.C,MX12*%
X236993330Y-27225650D03*
X249920330Y-24685650D03*
%TD*%
%TO.C,MX11*%
X217943314Y-27225650D03*
X230870314Y-24685650D03*
%TD*%
%TO.C,MX23*%
X198893298Y-46275666D03*
X211820298Y-43735666D03*
%TD*%
%TO.C,MX52*%
X265568354Y-84375698D03*
X278495354Y-81835698D03*
%TD*%
%TO.C,MX2*%
X60663170Y-32305650D03*
X47736170Y-34845650D03*
%TD*%
%TO.C,MX50*%
X217943314Y-84375698D03*
X230870314Y-81835698D03*
%TD*%
%TO.C,MX20*%
X141743250Y-46275666D03*
X154670250Y-43735666D03*
%TD*%
%TO.C,MX26*%
X265568354Y-46275666D03*
X278495354Y-43735666D03*
%TD*%
%TO.C,MX1*%
X41613154Y-32305650D03*
X28686154Y-34845650D03*
%TD*%
%TO.C,MX38*%
X236993330Y-65325682D03*
X249920330Y-62785682D03*
%TD*%
%TO.C,MX5*%
X103643218Y-27225650D03*
X116570218Y-24685650D03*
%TD*%
%TO.C,MX46*%
X141743250Y-84375698D03*
X154670250Y-81835698D03*
%TD*%
%TO.C,MX14*%
X27443154Y-46275666D03*
X40370154Y-43735666D03*
%TD*%
D11*
%TO.C,D7*%
X156225000Y-33075000D03*
X156225000Y-29775000D03*
%TD*%
D12*
%TO.C,C4*%
X265475000Y-53150000D03*
X265475000Y-51600000D03*
%TD*%
D13*
%TO.C,RSW1*%
X268450000Y-37375000D03*
X268450000Y-35725000D03*
%TD*%
D11*
%TO.C,D8*%
X175275000Y-33075000D03*
X175275000Y-29775000D03*
%TD*%
%TO.C,D14*%
X41925000Y-52125000D03*
X41925000Y-48825000D03*
%TD*%
%TO.C,D35*%
X194325000Y-71200000D03*
X194325000Y-67900000D03*
%TD*%
%TO.C,D11*%
X232425000Y-33075000D03*
X232425000Y-29775000D03*
%TD*%
D14*
%TO.C,F1*%
X40550000Y-40750000D03*
X40550000Y-38700000D03*
%TD*%
D11*
%TO.C,D39*%
X280050000Y-71200000D03*
X280050000Y-67900000D03*
%TD*%
%TO.C,D46*%
X156225000Y-90200000D03*
X156225000Y-86900000D03*
%TD*%
%TO.C,D40*%
X41925000Y-90200000D03*
X41925000Y-86900000D03*
%TD*%
D15*
%TO.C,CX1*%
X272750000Y-55000000D03*
X274300000Y-55000000D03*
%TD*%
D16*
%TO.C,C1*%
X253450000Y-53250000D03*
X251900000Y-53250000D03*
%TD*%
D17*
%TO.C,J1*%
X40207849Y-27339085D03*
X41007849Y-27339085D03*
D18*
X42207849Y-27339085D03*
X43203849Y-27339085D03*
X43707849Y-27339085D03*
X44707849Y-27339085D03*
D17*
X46707849Y-27339085D03*
X45907849Y-27339085D03*
D18*
X45207849Y-27339085D03*
X44207849Y-27339085D03*
X42707849Y-27339085D03*
X41707849Y-27339085D03*
%TD*%
D11*
%TO.C,D4*%
X99075000Y-33075000D03*
X99075000Y-29775000D03*
%TD*%
D19*
%TO.C,Y1*%
X269975000Y-55275000D03*
X269975000Y-57475000D03*
X268275000Y-57475000D03*
X268275000Y-55275000D03*
%TD*%
D16*
%TO.C,C2*%
X253075000Y-59975000D03*
X251525000Y-59975000D03*
%TD*%
D11*
%TO.C,D29*%
X80025000Y-71200000D03*
X80025000Y-67900000D03*
%TD*%
%TO.C,D24*%
X232425000Y-52125000D03*
X232425000Y-48825000D03*
%TD*%
%TO.C,D31*%
X118125000Y-71200000D03*
X118125000Y-67900000D03*
%TD*%
%TO.C,D45*%
X137175000Y-90200000D03*
X137175000Y-86900000D03*
%TD*%
%TO.C,D16*%
X80025000Y-52125000D03*
X80025000Y-48825000D03*
%TD*%
%TO.C,D41*%
X60975000Y-90200000D03*
X60975000Y-86900000D03*
%TD*%
%TO.C,D13*%
X280050000Y-33075000D03*
X280050000Y-29775000D03*
%TD*%
%TO.C,D49*%
X213375000Y-90200000D03*
X213375000Y-86900000D03*
%TD*%
D20*
%TO.C,R3*%
X258925000Y-47325000D03*
X258925000Y-48975000D03*
%TD*%
D11*
%TO.C,D51*%
X251475000Y-90200000D03*
X251475000Y-86900000D03*
%TD*%
%TO.C,D50*%
X232425000Y-90200000D03*
X232425000Y-86900000D03*
%TD*%
D12*
%TO.C,C5*%
X261025000Y-48975000D03*
X261025000Y-47425000D03*
%TD*%
D11*
%TO.C,D52*%
X280050000Y-90200000D03*
X280050000Y-86900000D03*
%TD*%
D13*
%TO.C,R2*%
X257000000Y-48975000D03*
X257000000Y-47325000D03*
%TD*%
D11*
%TO.C,D37*%
X232425000Y-71200000D03*
X232425000Y-67900000D03*
%TD*%
%TO.C,D3*%
X80025000Y-33075000D03*
X80025000Y-29775000D03*
%TD*%
D21*
%TO.C,C3*%
X261825000Y-63475000D03*
X261825000Y-65025000D03*
%TD*%
D11*
%TO.C,D18*%
X118125000Y-52125000D03*
X118125000Y-48825000D03*
%TD*%
%TO.C,D28*%
X60975000Y-71200000D03*
X60975000Y-67900000D03*
%TD*%
D22*
%TO.C,U1*%
X261200000Y-54675000D03*
X259900000Y-54675000D03*
X258600000Y-54675000D03*
X257300000Y-54675000D03*
X261200000Y-55975000D03*
X259900000Y-55975000D03*
X258600000Y-55975000D03*
X257300000Y-55975000D03*
X261200000Y-57275000D03*
X259900000Y-57275000D03*
X258600000Y-57275000D03*
X257300000Y-57275000D03*
X261200000Y-58575000D03*
X259900000Y-58575000D03*
X258600000Y-58575000D03*
X257300000Y-58575000D03*
D23*
X256750000Y-53287500D03*
X257250000Y-53287500D03*
X257750000Y-53287500D03*
X258250000Y-53287500D03*
X258750000Y-53287500D03*
X259250000Y-53287500D03*
X259750000Y-53287500D03*
X260250000Y-53287500D03*
X260750000Y-53287500D03*
X261250000Y-53287500D03*
X261750000Y-53287500D03*
D24*
X262587500Y-54125000D03*
X262587500Y-54625000D03*
X262587500Y-55125000D03*
X262587500Y-55625000D03*
X262587500Y-56125000D03*
X262587500Y-56625000D03*
X262587500Y-57125000D03*
X262587500Y-57625000D03*
X262587500Y-58125000D03*
X262587500Y-58625000D03*
X262587500Y-59125000D03*
D23*
X261750000Y-59962500D03*
X261250000Y-59962500D03*
X260750000Y-59962500D03*
X260250000Y-59962500D03*
X259750000Y-59962500D03*
X259250000Y-59962500D03*
X258750000Y-59962500D03*
X258250000Y-59962500D03*
X257750000Y-59962500D03*
X257250000Y-59962500D03*
X256750000Y-59962500D03*
D24*
X255912500Y-59125000D03*
X255912500Y-58625000D03*
X255912500Y-58125000D03*
X255912500Y-57625000D03*
X255912500Y-57125000D03*
X255912500Y-56625000D03*
X255912500Y-56125000D03*
X255912500Y-55625000D03*
X255912500Y-55125000D03*
X255912500Y-54625000D03*
X255912500Y-54125000D03*
%TD*%
D11*
%TO.C,D32*%
X137175000Y-71200000D03*
X137175000Y-67900000D03*
%TD*%
D20*
%TO.C,RCC2*%
X50850000Y-23000000D03*
X50850000Y-24650000D03*
%TD*%
D11*
%TO.C,D5*%
X118125000Y-33075000D03*
X118125000Y-29775000D03*
%TD*%
%TO.C,D27*%
X41925000Y-71200000D03*
X41925000Y-67900000D03*
%TD*%
%TO.C,D48*%
X194325000Y-90200000D03*
X194325000Y-86900000D03*
%TD*%
%TO.C,D34*%
X175275000Y-71200000D03*
X175275000Y-67900000D03*
%TD*%
%TO.C,D20*%
X156225000Y-52125000D03*
X156225000Y-48825000D03*
%TD*%
D25*
%TO.C,J3*%
X239900000Y-39050000D03*
X239900000Y-38050000D03*
X239900000Y-37050000D03*
X239900000Y-36050000D03*
D26*
X236025000Y-40350000D03*
X236025000Y-34750000D03*
%TD*%
D11*
%TO.C,D19*%
X137175000Y-52125000D03*
X137175000Y-48825000D03*
%TD*%
D13*
%TO.C,R1*%
X254950000Y-64425000D03*
X254950000Y-62775000D03*
%TD*%
D11*
%TO.C,D6*%
X137175000Y-33075000D03*
X137175000Y-29775000D03*
%TD*%
%TO.C,D12*%
X251475000Y-33075000D03*
X251475000Y-29775000D03*
%TD*%
%TO.C,D30*%
X99075000Y-71200000D03*
X99075000Y-67900000D03*
%TD*%
%TO.C,D2*%
X56675000Y-27600000D03*
X56675000Y-24300000D03*
%TD*%
D15*
%TO.C,CX2*%
X272750000Y-57700000D03*
X274300000Y-57700000D03*
%TD*%
D11*
%TO.C,D33*%
X156225000Y-71200000D03*
X156225000Y-67900000D03*
%TD*%
%TO.C,D22*%
X194325000Y-52125000D03*
X194325000Y-48825000D03*
%TD*%
D20*
%TO.C,RCC1*%
X36100000Y-23000000D03*
X36100000Y-24650000D03*
%TD*%
D11*
%TO.C,D36*%
X213375000Y-71200000D03*
X213375000Y-67900000D03*
%TD*%
%TO.C,D43*%
X99075000Y-90200000D03*
X99075000Y-86900000D03*
%TD*%
%TO.C,D47*%
X175275000Y-90200000D03*
X175275000Y-86900000D03*
%TD*%
%TO.C,D9*%
X194325000Y-33075000D03*
X194325000Y-29775000D03*
%TD*%
%TO.C,D1*%
X31450000Y-27600000D03*
X31450000Y-24300000D03*
%TD*%
D27*
%TO.C,U4*%
X45350000Y-35750000D03*
X45350000Y-36700000D03*
X45350000Y-37650000D03*
X43000000Y-37650000D03*
X43000000Y-36700000D03*
X43000000Y-35750000D03*
%TD*%
D11*
%TO.C,D21*%
X175275000Y-52125000D03*
X175275000Y-48825000D03*
%TD*%
%TO.C,D38*%
X251475000Y-71200000D03*
X251475000Y-67900000D03*
%TD*%
%TO.C,D15*%
X60975000Y-52125000D03*
X60975000Y-48825000D03*
%TD*%
D28*
%TO.C,SW1*%
X276950000Y-35775000D03*
X270750000Y-39475000D03*
X276950000Y-39475000D03*
X270750000Y-35775000D03*
%TD*%
D11*
%TO.C,D23*%
X213375000Y-52125000D03*
X213375000Y-48825000D03*
%TD*%
%TO.C,D25*%
X236675000Y-52125000D03*
X236675000Y-48825000D03*
%TD*%
%TO.C,D42*%
X80025000Y-90200000D03*
X80025000Y-86900000D03*
%TD*%
%TO.C,D26*%
X280050000Y-52125000D03*
X280050000Y-48825000D03*
%TD*%
%TO.C,D10*%
X213375000Y-33075000D03*
X213375000Y-29775000D03*
%TD*%
%TO.C,D44*%
X118125000Y-90200000D03*
X118125000Y-86900000D03*
%TD*%
%TO.C,D17*%
X99075000Y-52125000D03*
X99075000Y-48825000D03*
%TD*%
M02*
