0
SECTION
2
HEADER
9
$INSUNITS
70
4
9
$ACADVER
1
AC1014
9
$HANDSEED
5
FFFF
0
ENDSEC
0
SECTION
2
TABLES
0
TABLE
2
VPORT
5
8
100
AcDbSymbolTable
0
ENDTAB
0
TABLE
2
LTYPE
5
5
100
AcDbSymbolTable
0
LTYPE
5
14
100
AcDbSymbolTableRecord
100
AcDbLinetypeTableRecord
2
BYBLOCK
70
0
0
LTYPE
5
15
100
AcDbSymbolTableRecord
100
AcDbLinetypeTableRecord
2
BYLAYER
70
0
0
ENDTAB
0
TABLE
2
LAYER
5
2
100
AcDbSymbolTable
70
2
0
LAYER
5
50
100
AcDbSymbolTableRecord
100
AcDbLayerTableRecord
2
0
70
0
6
CONTINUOUS
0
ENDTAB
0
TABLE
2
STYLE
5
3
100
AcDbSymbolTable
70
1
0
STYLE
5
11
100
AcDbSymbolTableRecord
100
AcDbTextStyleTableRecord
2
STANDARD
70
0
0
ENDTAB
0
TABLE
2
VIEW
5
6
100
AcDbSymbolTable
70
0
0
ENDTAB
0
TABLE
2
UCS
5
7
100
AcDbSymbolTable
70
0
0
ENDTAB
0
TABLE
2
APPID
5
9
100
AcDbSymbolTable
70
2
0
APPID
5
12
100
AcDbSymbolTableRecord
100
AcDbRegAppTableRecord
2
ACAD
70
0
0
ENDTAB
0
TABLE
2
DIMSTYLE
5
A
100
AcDbSymbolTable
70
1
0
ENDTAB
0
TABLE
2
BLOCK_RECORD
5
1
100
AcDbSymbolTable
70
1
0
BLOCK_RECORD
5
1F
100
AcDbSymbolTableRecord
100
AcDbBlockTableRecord
2
*MODEL_SPACE
0
BLOCK_RECORD
5
1B
100
AcDbSymbolTableRecord
100
AcDbBlockTableRecord
2
*PAPER_SPACE
0
ENDTAB
0
ENDSEC
0
SECTION
2
BLOCKS
0
BLOCK
5
20
100
AcDbEntity
100
AcDbBlockBegin
2
*MODEL_SPACE
0
ENDBLK
5
21
100
AcDbEntity
100
AcDbBlockEnd
0
BLOCK
5
1C
100
AcDbEntity
100
AcDbBlockBegin
2
*PAPER_SPACE
0
ENDBLK
5
1D
100
AcDbEntity
100
AcDbBlockEnd
0
ENDSEC
0
SECTION
2
ENTITIES
0
LWPOLYLINE
5
100
100
AcDbEntity
8
0
100
AcDbPolyline
90
56
70
1
43
0.0
10
-76.35937499999919
20
80.950000000020808
42
0.41421356237324769
10
-77.859374999999162
20
79.450000000019998
10
-77.859374999998764
20
78.700000000018434
42
0.4142135623726268
10
-76.359375000000327
20
77.200000000019244
10
-57.859374999997954
20
77.200000000000003
10
-57.85937500001053
20
76.200000000000017
10
-199.31562499997526
20
76.200000000000017
10
-199.31562499997622
20
77.199999999992968
10
-180.81562499998242
20
77.20000000002868
42
0.41421356237429691
10
-179.31562499998535
20
78.70000000003779
10
-179.31562499998989
20
79.450000000037704
42
0.41421356237147006
10
-180.81562499999066
20
80.950000000028581
10
-237.81562500000021
20
80.949999999998283
42
0.41421356237288171
10
-239.31562499999941
20
79.449999999998681
10
-239.31562499999959
20
78.699999999991562
42
0.41421356237332574
10
-237.8156249999989
20
77.199999999991178
10
-219.31562499999998
20
77.200000000000003
10
-219.31562499999998
20
76.200000000000017
10
-256.17500000000001
20
76.200000000000017
42
0.41421356237310542
10
-257.17500000000001
20
75.200000000000017
10
-257.17500000000001
20
0.99999999999999645
42
0.41421356237310497
10
-256.17500000000001
20
1.9290125052862095e-14
10
-219.31562500000001
20
0
10
-219.31562500000001
20
-0.99999999997345435
10
-237.81562500000052
20
-0.99999999997990341
42
0.41421356237299406
10
-239.31562499999998
20
-2.4999999999799041
10
-239.31562500000001
20
-3.2499999999804285
42
0.41421356237311374
10
-237.81562500000004
20
-4.7499999999804388
10
-180.81562499998131
20
-4.7499999999805107
42
0.4142135623694379
10
-179.31562499998134
20
-3.2499999999992548
10
-179.31562499997196
20
-2.5000000000095124
42
0.41421356237690576
10
-180.81562499997267
20
-0.99999999999075662
10
-199.3156249999532
20
-1
10
-199.31562499995118
20
0
10
-57.859375000000028
20
0
10
-57.859375000000021
20
-1.0000000000001332
10
-76.359374999999986
20
-1.0000000000000626
42
0.41421356237309731
10
-77.859375
20
-2.5000000000000702
10
-77.859375
20
-3.2500000000000711
42
0.41421356237309293
10
-76.359375
20
-4.7500000000000639
10
-19.359374999999996
20
-4.7500000000000018
42
0.41421356237309298
10
-17.859374999999996
20
-3.2500000000000013
10
-17.859375
20
-2.4999999999999991
42
0.41421356237309465
10
-19.359375
20
-0.99999999999999756
10
-37.859375
20
-0.99999999999999956
10
-37.859375
20
0
10
-1.0000000000000009
20
0
42
0.41421356237309409
10
-2.7755575615628914e-16
20
0.99999999999999656
10
0
20
75.200000000000017
42
0.41421356237309542
10
-0.99999999999999634
20
76.200000000000017
10
-37.859374999999986
20
76.200000000000017
10
-37.859375000000071
20
77.200000000017241
10
-19.359374999999698
20
77.200000000021461
42
0.41421356237302137
10
-17.859375000000036
20
78.700000000021433
10
-17.859375000000028
20
79.45000000002176
42
0.41421356237310591
10
-19.35937500000005
20
80.950000000021788
0
LWPOLYLINE
5
101
100
AcDbEntity
8
0
100
AcDbPolyline
90
8
70
1
43
0.0
10
-2.5249999999999999
20
73.174999999999997
10
-2.5249999999999986
20
60.174999999999997
42
-0.41421356237309692
10
-3.0249999999999999
20
59.675000000000004
10
-16.024999999999999
20
59.675000000000004
42
-0.41421356237309637
10
-16.525000000000002
20
60.174999999999997
10
-16.524999999999999
20
73.174999999999997
42
-0.41421356237309509
10
-16.024999999999999
20
73.674999999999997
10
-3.0249999999999999
20
73.674999999999997
42
-0.41421356237309409
0
LWPOLYLINE
5
102
100
AcDbEntity
8
0
100
AcDbPolyline
90
8
70
1
43
0.0
10
-79.224999999999994
20
21.575000000000003
42
0.41421356237309759
10
-78.725000000000009
20
22.074999999999999
10
-78.724999999999994
20
35.075000000000003
42
0.41421356237309759
10
-79.224999999999994
20
35.575000000000003
10
-92.224999999999994
20
35.575000000000003
42
0.41421356237310542
10
-92.725000000000009
20
35.075000000000003
10
-92.725000000000009
20
22.074999999999999
42
0.41421356237309509
10
-92.224999999999994
20
21.574999999999992
0
LWPOLYLINE
5
103
100
AcDbEntity
8
0
100
AcDbPolyline
90
8
70
1
43
0.0
10
-187.97499999999999
20
41.125
42
0.41421356237313145
10
-187.47499999999999
20
40.625
10
-174.47500000000002
20
40.625
42
0.41421356237307427
10
-173.97500000000002
20
41.125
10
-173.97500000000002
20
54.125000000000007
42
0.41421356237313145
10
-174.47500000000002
20
54.625000000000014
10
-187.47499999999999
20
54.625
42
0.41421356237307427
10
-187.97499999999999
20
54.125000000000007
0
LWPOLYLINE
5
104
100
AcDbEntity
8
0
100
AcDbPolyline
90
8
70
1
43
0.0
10
-2.5249999999999999
20
54.125000000000007
10
-2.525000000000003
20
41.125
42
-0.41421356237309437
10
-3.0249999999999999
20
40.625
10
-16.024999999999999
20
40.625
42
-0.4142135623730937
10
-16.525000000000002
20
41.125
10
-16.524999999999999
20
54.125000000000007
42
-0.41421356237309509
10
-16.024999999999999
20
54.625
10
-3.0249999999999999
20
54.625
42
-0.41421356237309409
0
LWPOLYLINE
5
105
100
AcDbEntity
8
0
100
AcDbPolyline
90
8
70
1
43
0.0
10
-117.32500000000002
20
59.675000000000004
42
0.41421356237310542
10
-116.82500000000002
20
60.174999999999997
10
-116.82500000000002
20
73.174999999999997
42
0.41421356237309509
10
-117.32500000000002
20
73.675000000000011
10
-130.32499999999999
20
73.674999999999997
42
0.41421356237308982
10
-130.82499999999999
20
73.174999999999997
10
-130.82499999999999
20
60.174999999999997
42
0.4142135623731002
10
-130.32499999999999
20
59.674999999999997
0
LWPOLYLINE
5
106
100
AcDbEntity
8
0
100
AcDbPolyline
90
8
70
1
43
0.0
10
-60.174999999999997
20
40.625
42
0.41421356237309509
10
-59.675000000000004
20
41.125
10
-59.675000000000004
20
54.125000000000007
42
0.41421356237309509
10
-60.174999999999997
20
54.625
10
-73.174999999999997
20
54.625
42
0.41421356237309509
10
-73.674999999999997
20
54.125000000000007
10
-73.674999999999997
20
41.125
42
0.41421356237309509
10
-73.174999999999997
20
40.625
0
LWPOLYLINE
5
107
100
AcDbEntity
8
0
100
AcDbPolyline
90
8
70
1
43
0.0
10
-212.57499999999999
20
59.675000000000004
42
0.4142135623730222
10
-212.07500000000005
20
60.174999999999997
10
-212.07499999999999
20
73.174999999999997
42
0.41421356237312101
10
-212.57499999999999
20
73.675000000000011
10
-225.57500000000002
20
73.674999999999997
42
0.41421356237307427
10
-226.07500000000002
20
73.174999999999997
10
-226.07500000000002
20
60.174999999999997
42
0.41421356237313667
10
-225.57500000000002
20
59.675000000000004
0
LWPOLYLINE
5
108
100
AcDbEntity
8
0
100
AcDbPolyline
90
8
70
1
43
0.0
10
-41.125
20
59.675000000000004
42
0.41421356237309509
10
-40.625
20
60.174999999999997
10
-40.625
20
73.174999999999997
42
0.41421356237309509
10
-41.125
20
73.674999999999997
10
-54.125000000000007
20
73.674999999999997
42
0.41421356237309509
10
-54.625
20
73.174999999999997
10
-54.625
20
60.174999999999997
42
0.41421356237309509
10
-54.125000000000007
20
59.675000000000004
0
LWPOLYLINE
5
109
100
AcDbEntity
8
0
100
AcDbPolyline
90
8
70
1
43
0.0
10
-41.125
20
40.625
42
0.41421356237309509
10
-40.625
20
41.125
10
-40.625
20
54.125000000000007
42
0.41421356237309509
10
-41.125
20
54.625
10
-54.125000000000007
20
54.625
42
0.41421356237309509
10
-54.625
20
54.125000000000007
10
-54.625
20
41.125
42
0.41421356237309509
10
-54.125000000000007
20
40.625
0
LWPOLYLINE
5
110
100
AcDbEntity
8
0
100
AcDbPolyline
90
8
70
1
43
0.0
10
-98.275000000000006
20
59.675000000000004
42
0.41421356237310542
10
-97.775000000000006
20
60.174999999999997
10
-97.775000000000006
20
73.174999999999997
42
0.41421356237309509
10
-98.275000000000006
20
73.674999999999997
10
-111.27500000000001
20
73.674999999999997
42
0.41421356237308982
10
-111.77500000000002
20
73.174999999999997
10
-111.77500000000002
20
60.174999999999997
42
0.4142135623731002
10
-111.27500000000001
20
59.674999999999997
0
LWPOLYLINE
5
111
100
AcDbEntity
8
0
100
AcDbPolyline
90
8
70
1
43
0.0
10
-22.074999999999999
20
40.625
42
0.41421356237309509
10
-21.575000000000003
20
41.125
10
-21.575000000000003
20
54.125000000000007
42
0.41421356237309509
10
-22.074999999999999
20
54.625
10
-35.075000000000003
20
54.625
42
0.41421356237309509
10
-35.575000000000003
20
54.125000000000007
10
-35.575000000000003
20
41.125
42
0.41421356237309509
10
-35.075000000000003
20
40.625
0
LWPOLYLINE
5
112
100
AcDbEntity
8
0
100
AcDbPolyline
90
8
70
1
43
0.0
10
-79.224999999999994
20
59.675000000000004
42
0.41421356237310542
10
-78.724999999999994
20
60.174999999999997
10
-78.724999999999994
20
73.174999999999997
42
0.41421356237309509
10
-79.224999999999994
20
73.674999999999997
10
-92.224999999999994
20
73.674999999999997
42
0.41421356237308982
10
-92.725000000000009
20
73.174999999999997
10
-92.725000000000009
20
60.174999999999997
42
0.4142135623731002
10
-92.224999999999994
20
59.674999999999997
0
LWPOLYLINE
5
113
100
AcDbEntity
8
0
100
AcDbPolyline
90
8
70
1
43
0.0
10
-135.875
20
35.075000000000003
10
-135.87500000000003
20
22.074999999999999
42
-0.41421356237308465
10
-136.375
20
21.575000000000003
10
-149.375
20
21.574999999999992
42
-0.41421356237309509
10
-149.875
20
22.074999999999999
10
-149.875
20
35.075000000000003
42
-0.41421356237310542
10
-149.375
20
35.575000000000003
10
-136.375
20
35.575000000000003
42
-0.41421356237307161
0
LWPOLYLINE
5
114
100
AcDbEntity
8
0
100
AcDbPolyline
90
8
70
1
43
0.0
10
-155.42500000000001
20
21.575000000000003
42
0.41421356237308465
10
-154.92500000000004
20
22.074999999999999
10
-154.92500000000001
20
35.075000000000003
42
0.41421356237307161
10
-155.42500000000001
20
35.575000000000003
10
-168.42500000000001
20
35.575000000000003
42
0.41421356237304557
10
-168.92500000000001
20
35.075000000000003
10
-168.92500000000001
20
22.074999999999999
42
0.41421356237310281
10
-168.42500000000001
20
21.575000000000003
0
LWPOLYLINE
5
115
100
AcDbEntity
8
0
100
AcDbPolyline
90
8
70
1
43
0.0
10
-60.174999999999997
20
21.575000000000003
42
0.41421356237309759
10
-59.675000000000011
20
22.074999999999999
10
-59.675000000000004
20
35.075000000000003
42
0.41421356237309759
10
-60.174999999999997
20
35.575000000000003
10
-73.174999999999997
20
35.575000000000003
42
0.41421356237309509
10
-73.674999999999997
20
35.075000000000003
10
-73.674999999999997
20
22.074999999999999
42
0.41421356237309509
10
-73.174999999999997
20
21.575000000000003
0
LWPOLYLINE
5
116
100
AcDbEntity
8
0
100
AcDbPolyline
90
8
70
1
43
0.0
10
-174.47500000000002
20
59.675000000000004
42
0.41421356237307427
10
-173.97499999999997
20
60.174999999999997
10
-173.97500000000002
20
73.174999999999997
42
0.41421356237313145
10
-174.47500000000002
20
73.674999999999997
10
-187.47499999999999
20
73.674999999999997
42
0.41421356237307427
10
-187.97499999999999
20
73.174999999999997
10
-187.97499999999999
20
60.174999999999997
42
0.41421356237313667
10
-187.47499999999999
20
59.674999999999997
0
LWPOLYLINE
5
117
100
AcDbEntity
8
0
100
AcDbPolyline
90
8
70
1
43
0.0
10
-212.57499999999999
20
40.625
42
0.4142135623730222
10
-212.07500000000005
20
41.125
10
-212.07499999999999
20
54.125000000000007
42
0.41421356237312101
10
-212.57499999999999
20
54.625000000000014
10
-225.57500000000002
20
54.625
42
0.41421356237307427
10
-226.07500000000002
20
54.125000000000007
10
-226.07500000000002
20
41.125
42
0.41421356237313145
10
-225.57500000000002
20
40.625
0
LWPOLYLINE
5
118
100
AcDbEntity
8
0
100
AcDbPolyline
90
8
70
1
43
0.0
10
-241.15000000000003
20
40.625
42
0.4142135623730222
10
-240.65000000000003
20
41.125
10
-240.65000000000001
20
54.125000000000007
42
0.41421356237312101
10
-241.15000000000003
20
54.625000000000014
10
-254.14999999999998
20
54.625
42
0.4142135623730222
10
-254.65000000000001
20
54.125000000000007
10
-254.65000000000001
20
41.125
42
0.41421356237312101
10
-254.14999999999998
20
40.625
0
LWPOLYLINE
5
119
100
AcDbEntity
8
0
100
AcDbPolyline
90
8
70
1
43
0.0
10
-241.15000000000003
20
59.675000000000004
42
0.4142135623730222
10
-240.65000000000003
20
60.174999999999997
10
-240.65000000000001
20
73.174999999999997
42
0.41421356237312101
10
-241.15000000000003
20
73.675000000000011
10
-254.14999999999998
20
73.674999999999997
42
0.4142135623730222
10
-254.65000000000001
20
73.174999999999997
10
-254.65000000000001
20
60.174999999999997
42
0.41421356237312629
10
-254.14999999999998
20
59.674999999999997
0
LWPOLYLINE
5
120
100
AcDbEntity
8
0
100
AcDbPolyline
90
8
70
1
43
0.0
10
-3.0249999999999999
20
21.575000000000003
42
0.4142135623730957
10
-2.5250000000000004
20
22.074999999999999
10
-2.5249999999999999
20
35.075000000000003
42
0.41421356237309537
10
-3.0249999999999999
20
35.575000000000003
10
-16.024999999999999
20
35.575000000000003
42
0.41421356237309637
10
-16.524999999999999
20
35.075000000000003
10
-16.525000000000002
20
22.074999999999999
42
0.41421356237309243
10
-16.024999999999999
20
21.574999999999996
0
LWPOLYLINE
5
121
100
AcDbEntity
8
0
100
AcDbPolyline
90
8
70
1
43
0.0
10
-155.42500000000001
20
59.675000000000004
42
0.41421356237310542
10
-154.92500000000004
20
60.174999999999997
10
-154.92500000000001
20
73.174999999999997
42
0.41421356237307427
10
-155.42500000000001
20
73.674999999999997
10
-168.42500000000001
20
73.674999999999997
42
0.4142135623730222
10
-168.92500000000001
20
73.174999999999997
10
-168.92500000000001
20
60.174999999999997
42
0.41421356237312629
10
-168.42500000000001
20
59.674999999999997
0
LWPOLYLINE
5
122
100
AcDbEntity
8
0
100
AcDbPolyline
90
8
70
1
43
0.0
10
-212.57499999999999
20
2.5249999999999999
42
0.41421356237304624
10
-212.07499999999999
20
3.0249999999999999
10
-212.07499999999999
20
16.024999999999999
42
0.41421356237312362
10
-212.57499999999999
20
16.525000000000006
10
-225.57500000000002
20
16.525000000000002
42
0.4142135623730781
10
-226.07500000000002
20
16.024999999999999
10
-226.07500000000002
20
3.0249999999999999
42
0.41421356237313273
10
-225.57500000000002
20
2.5249999999999928
0
LWPOLYLINE
5
123
100
AcDbEntity
8
0
100
AcDbPolyline
90
8
70
1
43
0.0
10
-174.47500000000002
20
2.5249999999999999
42
0.41421356237307744
10
-173.97499999999997
20
3.0249999999999999
10
-173.97500000000002
20
16.024999999999999
42
0.41421356237313406
10
-174.47500000000002
20
16.525000000000002
10
-187.47499999999999
20
16.525000000000002
42
0.4142135623730781
10
-187.97499999999999
20
16.024999999999999
10
-187.97499999999999
20
3.0249999999999999
42
0.41421356237313273
10
-187.47499999999999
20
2.5249999999999928
0
LWPOLYLINE
5
124
100
AcDbEntity
8
0
100
AcDbPolyline
90
8
70
1
43
0.0
10
-193.52500000000003
20
59.675000000000004
42
0.41421356237307427
10
-193.02499999999998
20
60.174999999999997
10
-193.02500000000003
20
73.174999999999997
42
0.41421356237313145
10
-193.52500000000003
20
73.674999999999997
10
-206.52500000000003
20
73.674999999999997
42
0.4142135623730222
10
-207.02500000000003
20
73.174999999999997
10
-207.02500000000003
20
60.174999999999997
42
0.41421356237312629
10
-206.52500000000003
20
59.674999999999997
0
LWPOLYLINE
5
125
100
AcDbEntity
8
0
100
AcDbPolyline
90
8
70
1
43
0.0
10
-3.0249999999999999
20
2.5249999999999999
42
0.41421356237309437
10
-2.5249999999999999
20
3.0249999999999999
10
-2.5249999999999999
20
16.024999999999999
42
0.4142135623730947
10
-3.0249999999999999
20
16.525000000000002
10
-16.024999999999999
20
16.525000000000002
42
0.41421356237309243
10
-16.525000000000002
20
16.024999999999999
10
-16.525000000000002
20
3.0249999999999999
42
0.41421356237309309
10
-16.024999999999999
20
2.5249999999999995
0
LWPOLYLINE
5
126
100
AcDbEntity
8
0
100
AcDbPolyline
90
8
70
1
43
0.0
10
-98.275000000000006
20
21.575000000000003
42
0.41421356237310802
10
-97.775000000000006
20
22.074999999999999
10
-97.775000000000006
20
35.075000000000003
42
0.41421356237309243
10
-98.275000000000006
20
35.575000000000003
10
-111.27500000000001
20
35.575000000000003
42
0.41421356237310542
10
-111.77500000000002
20
35.075000000000003
10
-111.77500000000002
20
22.074999999999999
42
0.41421356237309509
10
-111.27500000000001
20
21.575000000000003
0
LWPOLYLINE
5
127
100
AcDbEntity
8
0
100
AcDbPolyline
90
8
70
1
43
0.0
10
-79.224999999999994
20
2.5249999999999999
42
0.4142135623730967
10
-78.724999999999994
20
3.0249999999999999
10
-78.724999999999994
20
16.024999999999999
42
0.41421356237309759
10
-79.224999999999994
20
16.524999999999999
10
-92.224999999999994
20
16.525000000000002
42
0.41421356237310675
10
-92.725000000000009
20
16.024999999999999
10
-92.725000000000009
20
3.0249999999999999
42
0.41421356237309437
10
-92.224999999999994
20
2.5249999999999928
0
LWPOLYLINE
5
128
100
AcDbEntity
8
0
100
AcDbPolyline
90
8
70
1
43
0.0
10
-174.47500000000002
20
21.575000000000003
42
0.41421356237308204
10
-173.97500000000002
20
22.074999999999999
10
-173.97500000000002
20
35.075000000000003
42
0.41421356237313145
10
-174.47500000000002
20
35.575000000000003
10
-187.47499999999999
20
35.575000000000003
42
0.41421356237307683
10
-187.97499999999999
20
35.075000000000003
10
-187.97499999999999
20
22.074999999999999
42
0.41421356237313406
10
-187.47499999999999
20
21.575000000000003
0
LWPOLYLINE
5
129
100
AcDbEntity
8
0
100
AcDbPolyline
90
8
70
1
43
0.0
10
-22.074999999999999
20
2.5249999999999999
42
0.41421356237309537
10
-21.575000000000003
20
3.0249999999999999
10
-21.575000000000003
20
16.024999999999999
42
0.41421356237309637
10
-22.074999999999999
20
16.524999999999999
10
-35.075000000000003
20
16.525000000000002
42
0.41421356237309509
10
-35.575000000000003
20
16.024999999999999
10
-35.575000000000003
20
3.0249999999999999
42
0.4142135623730957
10
-35.075000000000003
20
2.5249999999999999
0
LWPOLYLINE
5
130
100
AcDbEntity
8
0
100
AcDbPolyline
90
8
70
1
43
0.0
10
-79.224999999999994
20
40.625
42
0.41421356237309509
10
-78.724999999999994
20
41.125
10
-78.724999999999994
20
54.125000000000007
42
0.41421356237309509
10
-79.224999999999994
20
54.625
10
-92.224999999999994
20
54.625
42
0.41421356237308982
10
-92.725000000000009
20
54.125000000000007
10
-92.725000000000009
20
41.125
42
0.41421356237309509
10
-92.224999999999994
20
40.624999999999993
0
LWPOLYLINE
5
131
100
AcDbEntity
8
0
100
AcDbPolyline
90
8
70
1
43
0.0
10
-240.65000000000001
20
16.024999999999999
10
-240.65000000000001
20
3.0249999999999999
42
-0.41421356237304624
10
-241.15000000000003
20
2.5249999999999999
10
-254.14999999999998
20
2.5249999999999817
42
-0.41421356237310153
10
-254.65000000000001
20
3.0249999999999999
10
-254.65000000000001
20
16.024999999999999
42
-0.41421356237304557
10
-254.14999999999998
20
16.524999999999999
10
-241.15000000000003
20
16.524999999999984
42
-0.41421356237312362
0
LWPOLYLINE
5
132
100
AcDbEntity
8
0
100
AcDbPolyline
90
8
70
1
43
0.0
10
-135.875
20
73.174999999999997
10
-135.87500000000003
20
60.174999999999997
42
-0.41421356237310542
10
-136.375
20
59.675000000000004
10
-149.375
20
59.674999999999983
42
-0.4142135623731002
10
-149.875
20
60.174999999999997
10
-149.875
20
73.174999999999997
42
-0.41421356237308982
10
-149.375
20
73.674999999999997
10
-136.375
20
73.675000000000011
42
-0.41421356237307427
0
LWPOLYLINE
5
133
100
AcDbEntity
8
0
100
AcDbPolyline
90
8
70
1
43
0.0
10
-193.52500000000003
20
2.5249999999999999
42
0.41421356237307744
10
-193.02499999999998
20
3.0249999999999999
10
-193.02500000000003
20
16.024999999999999
42
0.41421356237313406
10
-193.52500000000003
20
16.525000000000002
10
-206.52500000000003
20
16.525000000000002
42
0.41421356237304691
10
-207.02500000000003
20
16.024999999999999
10
-207.02500000000003
20
3.0249999999999999
42
0.41421356237310153
10
-206.52500000000003
20
2.5249999999999928
0
LWPOLYLINE
5
134
100
AcDbEntity
8
0
100
AcDbPolyline
90
8
70
1
43
0.0
10
-98.275000000000006
20
2.5249999999999999
42
0.41421356237310542
10
-97.774999999999977
20
3.0249999999999999
10
-97.775000000000006
20
16.024999999999999
42
0.41421356237309637
10
-98.275000000000006
20
16.525000000000002
10
-111.27500000000001
20
16.525000000000002
42
0.41421356237310675
10
-111.77500000000002
20
16.024999999999999
10
-111.77500000000002
20
3.0249999999999999
42
0.41421356237309437
10
-111.27500000000001
20
2.5249999999999999
0
LWPOLYLINE
5
135
100
AcDbEntity
8
0
100
AcDbPolyline
90
8
70
1
43
0.0
10
-241.15000000000003
20
21.575000000000003
42
0.41421356237305079
10
-240.65000000000001
20
22.074999999999999
10
-240.65000000000001
20
35.075000000000003
42
0.4142135623731002
10
-241.15000000000003
20
35.575000000000003
10
-254.14999999999998
20
35.575000000000003
42
0.41421356237312101
10
-254.65000000000001
20
35.075000000000003
10
-254.65000000000001
20
22.074999999999999
42
0.41421356237310281
10
-254.14999999999998
20
21.574999999999992
0
LWPOLYLINE
5
136
100
AcDbEntity
8
0
100
AcDbPolyline
90
8
70
1
43
0.0
10
-149.875
20
41.125
42
0.41421356237309509
10
-149.375
20
40.624999999999993
10
-136.375
20
40.625
42
0.4142135623731002
10
-135.87500000000003
20
41.125
10
-135.875
20
54.125000000000007
42
0.41421356237307427
10
-136.375
20
54.625
10
-149.375
20
54.625
42
0.41421356237308982
10
-149.875
20
54.125000000000007
0
LWPOLYLINE
5
137
100
AcDbEntity
8
0
100
AcDbPolyline
90
8
70
1
43
0.0
10
-136.375
20
2.5249999999999999
42
0.41421356237307427
10
-135.875
20
3.0249999999999999
10
-135.875
20
16.024999999999999
42
0.41421356237307549
10
-136.375
20
16.525000000000002
10
-149.375
20
16.525000000000002
42
0.41421356237310675
10
-149.875
20
16.024999999999999
10
-149.875
20
3.0249999999999999
42
0.41421356237309437
10
-149.375
20
2.5249999999999928
0
LWPOLYLINE
5
138
100
AcDbEntity
8
0
100
AcDbPolyline
90
8
70
1
43
0.0
10
-40.625
20
35.075000000000003
10
-40.625
20
22.074999999999999
42
-0.41421356237309509
10
-41.125
20
21.575000000000003
10
-54.125000000000007
20
21.575000000000003
42
-0.41421356237309509
10
-54.625
20
22.074999999999999
10
-54.625
20
35.075000000000003
42
-0.41421356237309509
10
-54.125000000000007
20
35.575000000000003
10
-41.125
20
35.575000000000003
42
-0.41421356237309509
0
LWPOLYLINE
5
139
100
AcDbEntity
8
0
100
AcDbPolyline
90
8
70
1
43
0.0
10
-54.625
20
3.0249999999999999
42
0.41421356237309437
10
-54.125000000000007
20
2.525000000000003
10
-41.125
20
2.5249999999999999
42
0.41421356237309409
10
-40.625
20
3.0249999999999999
10
-40.625
20
16.024999999999999
42
0.41421356237309509
10
-41.125
20
16.525000000000002
10
-54.125000000000007
20
16.525000000000002
42
0.4142135623730937
10
-54.625
20
16.024999999999999
0
LWPOLYLINE
5
140
100
AcDbEntity
8
0
100
AcDbPolyline
90
8
70
1
43
0.0
10
-60.174999999999997
20
59.675000000000004
42
0.41421356237310542
10
-59.675000000000004
20
60.174999999999997
10
-59.675000000000004
20
73.174999999999997
42
0.41421356237309509
10
-60.174999999999997
20
73.674999999999997
10
-73.174999999999997
20
73.674999999999997
42
0.41421356237309509
10
-73.674999999999997
20
73.174999999999997
10
-73.674999999999997
20
60.174999999999997
42
0.41421356237309509
10
-73.174999999999997
20
59.675000000000004
0
LWPOLYLINE
5
141
100
AcDbEntity
8
0
100
AcDbPolyline
90
8
70
1
43
0.0
10
-117.32500000000002
20
21.575000000000003
42
0.41421356237310802
10
-116.82500000000002
20
22.074999999999999
10
-116.82500000000002
20
35.075000000000003
42
0.41421356237309243
10
-117.32500000000002
20
35.575000000000003
10
-130.32499999999999
20
35.575000000000003
42
0.41421356237310542
10
-130.82499999999999
20
35.075000000000003
10
-130.82499999999999
20
22.074999999999999
42
0.41421356237309509
10
-130.32499999999999
20
21.574999999999992
0
LWPOLYLINE
5
142
100
AcDbEntity
8
0
100
AcDbPolyline
90
8
70
1
43
0.0
10
-155.42500000000001
20
2.5249999999999999
42
0.41421356237307427
10
-154.92500000000001
20
3.0249999999999999
10
-154.92500000000001
20
16.024999999999999
42
0.41421356237307549
10
-155.42500000000001
20
16.525000000000002
10
-168.42500000000001
20
16.525000000000002
42
0.41421356237304691
10
-168.92500000000001
20
16.024999999999999
10
-168.92500000000001
20
3.0249999999999999
42
0.41421356237310153
10
-168.42500000000001
20
2.5249999999999928
0
LWPOLYLINE
5
143
100
AcDbEntity
8
0
100
AcDbPolyline
90
8
70
1
43
0.0
10
-193.52500000000003
20
21.575000000000003
42
0.41421356237308204
10
-193.02500000000003
20
22.074999999999999
10
-193.02500000000003
20
35.075000000000003
42
0.41421356237313145
10
-193.52500000000003
20
35.575000000000003
10
-206.52500000000003
20
35.575000000000003
42
0.41421356237304557
10
-207.02500000000003
20
35.075000000000003
10
-207.02500000000003
20
22.074999999999999
42
0.41421356237310281
10
-206.52500000000003
20
21.574999999999992
0
LWPOLYLINE
5
144
100
AcDbEntity
8
0
100
AcDbPolyline
90
8
70
1
43
0.0
10
-117.32500000000002
20
2.5249999999999999
42
0.41421356237310542
10
-116.82499999999999
20
3.0249999999999999
10
-116.82500000000002
20
16.024999999999999
42
0.41421356237309637
10
-117.32500000000002
20
16.525000000000002
10
-130.32499999999999
20
16.525000000000002
42
0.41421356237310675
10
-130.82499999999999
20
16.024999999999999
10
-130.82499999999999
20
3.0249999999999999
42
0.41421356237309437
10
-130.32499999999999
20
2.5249999999999999
0
LWPOLYLINE
5
145
100
AcDbEntity
8
0
100
AcDbPolyline
90
8
70
1
43
0.0
10
-35.575000000000003
20
22.074999999999999
42
0.41421356237309509
10
-35.075000000000003
20
21.575000000000003
10
-22.074999999999999
20
21.575000000000003
42
0.41421356237309509
10
-21.575000000000003
20
22.074999999999999
10
-21.575000000000003
20
35.075000000000003
42
0.41421356237309509
10
-22.074999999999999
20
35.575000000000003
10
-35.075000000000003
20
35.575000000000003
42
0.41421356237309509
10
-35.575000000000003
20
35.075000000000003
0
LWPOLYLINE
5
146
100
AcDbEntity
8
0
100
AcDbPolyline
90
8
70
1
43
0.0
10
-97.775000000000006
20
54.125000000000007
10
-97.775000000000006
20
41.125
42
-0.41421356237308982
10
-98.275000000000006
20
40.625
10
-111.27500000000001
20
40.624999999999993
42
-0.41421356237309509
10
-111.77500000000002
20
41.125
10
-111.77500000000002
20
54.125000000000007
42
-0.41421356237308982
10
-111.27500000000001
20
54.625
10
-98.275000000000006
20
54.625000000000014
42
-0.41421356237309509
0
LWPOLYLINE
5
147
100
AcDbEntity
8
0
100
AcDbPolyline
90
8
70
1
43
0.0
10
-193.52500000000003
20
40.625
42
0.41421356237307427
10
-193.02499999999998
20
41.125
10
-193.02500000000003
20
54.125000000000007
42
0.41421356237313145
10
-193.52500000000003
20
54.625
10
-206.52500000000003
20
54.625
42
0.4142135623730222
10
-207.02500000000003
20
54.125000000000007
10
-207.02500000000003
20
41.125
42
0.41421356237312101
10
-206.52500000000003
20
40.624999999999993
0
LWPOLYLINE
5
148
100
AcDbEntity
8
0
100
AcDbPolyline
90
8
70
1
43
0.0
10
-60.174999999999997
20
2.5249999999999999
42
0.4142135623730967
10
-59.675000000000004
20
3.0249999999999999
10
-59.675000000000004
20
16.024999999999999
42
0.41421356237309759
10
-60.174999999999997
20
16.524999999999999
10
-73.174999999999997
20
16.525000000000002
42
0.4142135623730937
10
-73.674999999999997
20
16.024999999999999
10
-73.674999999999997
20
3.0249999999999999
42
0.41421356237309437
10
-73.174999999999997
20
2.5249999999999999
0
LWPOLYLINE
5
149
100
AcDbEntity
8
0
100
AcDbPolyline
90
8
70
1
43
0.0
10
-117.32500000000002
20
40.625
42
0.41421356237308982
10
-116.82500000000002
20
41.125
10
-116.82500000000002
20
54.125000000000007
42
0.41421356237309509
10
-117.32500000000002
20
54.625
10
-130.32499999999999
20
54.625
42
0.41421356237308982
10
-130.82499999999999
20
54.125000000000007
10
-130.82499999999999
20
41.125
42
0.41421356237309509
10
-130.32499999999999
20
40.624999999999993
0
LWPOLYLINE
5
150
100
AcDbEntity
8
0
100
AcDbPolyline
90
8
70
1
43
0.0
10
-155.42500000000001
20
40.625
42
0.4142135623731002
10
-154.92500000000004
20
41.125
10
-154.92500000000001
20
54.125000000000007
42
0.41421356237307427
10
-155.42500000000001
20
54.625
10
-168.42500000000001
20
54.625
42
0.4142135623730222
10
-168.92500000000001
20
54.125000000000007
10
-168.92500000000001
20
41.125
42
0.41421356237312101
10
-168.42500000000001
20
40.624999999999993
0
LWPOLYLINE
5
151
100
AcDbEntity
8
0
100
AcDbPolyline
90
8
70
1
43
0.0
10
-22.074999999999999
20
59.675000000000004
42
0.41421356237309759
10
-21.574999999999996
20
60.174999999999997
10
-21.575000000000003
20
73.174999999999997
42
0.41421356237309509
10
-22.074999999999999
20
73.674999999999997
10
-35.075000000000003
20
73.674999999999997
42
0.41421356237309509
10
-35.575000000000003
20
73.174999999999997
10
-35.575000000000003
20
60.174999999999997
42
0.41421356237309759
10
-35.075000000000003
20
59.675000000000004
0
LWPOLYLINE
5
152
100
AcDbEntity
8
0
100
AcDbPolyline
90
8
70
1
43
0.0
10
-212.57499999999999
20
21.575000000000003
42
0.41421356237305079
10
-212.07499999999999
20
22.074999999999999
10
-212.07499999999999
20
35.075000000000003
42
0.4142135623731002
10
-212.57499999999999
20
35.575000000000003
10
-225.57500000000002
20
35.575000000000003
42
0.41421356237307683
10
-226.07500000000002
20
35.075000000000003
10
-226.07500000000002
20
22.074999999999999
42
0.41421356237313406
10
-225.57500000000002
20
21.574999999999992
0
ENDSEC
0
SECTION
2
OBJECTS
0
DICTIONARY
5
C
100
AcDbDictionary
3
ACAD_GROUP
350
D
3
ACAD_MLINESTYLE
350
17
0
DICTIONARY
5
D
100
AcDbDictionary
0
DICTIONARY
5
1A
330
C
100
AcDbDictionary
0
DICTIONARY
5
17
100
AcDbDictionary
0
ENDSEC
0
EOF
