0
SECTION
2
HEADER
9
$INSUNITS
70
4
9
$ACADVER
1
AC1014
9
$HANDSEED
5
FFFF
0
ENDSEC
0
SECTION
2
TABLES
0
TABLE
2
VPORT
5
8
100
AcDbSymbolTable
0
ENDTAB
0
TABLE
2
LTYPE
5
5
100
AcDbSymbolTable
0
LTYPE
5
14
100
AcDbSymbolTableRecord
100
AcDbLinetypeTableRecord
2
BYBLOCK
70
0
0
LTYPE
5
15
100
AcDbSymbolTableRecord
100
AcDbLinetypeTableRecord
2
BYLAYER
70
0
0
ENDTAB
0
TABLE
2
LAYER
5
2
100
AcDbSymbolTable
70
2
0
LAYER
5
50
100
AcDbSymbolTableRecord
100
AcDbLayerTableRecord
2
0
70
0
6
CONTINUOUS
0
ENDTAB
0
TABLE
2
STYLE
5
3
100
AcDbSymbolTable
70
1
0
STYLE
5
11
100
AcDbSymbolTableRecord
100
AcDbTextStyleTableRecord
2
STANDARD
70
0
0
ENDTAB
0
TABLE
2
VIEW
5
6
100
AcDbSymbolTable
70
0
0
ENDTAB
0
TABLE
2
UCS
5
7
100
AcDbSymbolTable
70
0
0
ENDTAB
0
TABLE
2
APPID
5
9
100
AcDbSymbolTable
70
2
0
APPID
5
12
100
AcDbSymbolTableRecord
100
AcDbRegAppTableRecord
2
ACAD
70
0
0
ENDTAB
0
TABLE
2
DIMSTYLE
5
A
100
AcDbSymbolTable
70
1
0
ENDTAB
0
TABLE
2
BLOCK_RECORD
5
1
100
AcDbSymbolTable
70
1
0
BLOCK_RECORD
5
1F
100
AcDbSymbolTableRecord
100
AcDbBlockTableRecord
2
*MODEL_SPACE
0
BLOCK_RECORD
5
1B
100
AcDbSymbolTableRecord
100
AcDbBlockTableRecord
2
*PAPER_SPACE
0
ENDTAB
0
ENDSEC
0
SECTION
2
BLOCKS
0
BLOCK
5
20
100
AcDbEntity
100
AcDbBlockBegin
2
*MODEL_SPACE
0
ENDBLK
5
21
100
AcDbEntity
100
AcDbBlockEnd
0
BLOCK
5
1C
100
AcDbEntity
100
AcDbBlockBegin
2
*PAPER_SPACE
0
ENDBLK
5
1D
100
AcDbEntity
100
AcDbBlockEnd
0
ENDSEC
0
SECTION
2
ENTITIES
0
LWPOLYLINE
5
100
100
AcDbEntity
8
0
100
AcDbPolyline
90
56
70
1
43
0.0
10
-76.859375
20
5.7625000000007134
42
0.41421356237308365
10
-77.859375000000043
20
4.7625000000008022
10
-77.85937500000027
20
2.0000000000005791
42
0.41421356237311519
10
-76.859375000000313
20
1.000000000000496
10
-62.859375000004405
20
0.99999999999999645
10
-62.859375000004363
20
0
10
-189.55312499999874
20
0
10
-189.55312499999874
20
0.99999999999468514
10
-175.55312499999923
20
0.99999999999218048
42
0.41421356237321411
10
-174.55312499999903
20
1.999999999992488
10
-174.55312499999991
20
4.7624999999924356
42
0.41421356237292095
10
-175.55312499999974
20
5.7624999999921034
10
-233.55312499999908
20
5.7625000000025572
42
0.41421356237307388
10
-234.55312499999928
20
4.7625000000027384
10
-234.5531249999998
20
2.0000000000028173
42
0.41421356237309648
10
-233.55312499999997
20
1.0000000000026206
10
-219.55312499999997
20
0.99999999999999645
10
-219.55312499999968
20
0
10
-251.41249999999999
20
0
42
0.41421356237310536
10
-252.41250000000005
20
-0.99999999999999645
10
-252.41250000000002
20
-75.200000000000017
42
0.41421356237310542
10
-251.41249999999999
20
-76.199999999999989
10
-219.55312500000002
20
-76.200000000000017
10
-219.55312500000002
20
-77.200000000010576
10
-233.55312499999999
20
-77.200000000010576
42
0.41421356237307422
10
-234.55312499999997
20
-78.200000000010576
10
-234.55312500000002
20
-80.962500000005207
42
0.41421356237307422
10
-233.55312499999999
20
-81.962500000005207
10
-175.55312500000002
20
-81.962500000005321
42
0.414213562373069
10
-174.55312500000002
20
-80.962500000005321
10
-174.55312500000002
20
-78.199999999999946
42
0.41421356237307683
10
-175.55312500000002
20
-77.199999999999918
10
-189.55312499999991
20
-77.200000000000017
10
-189.55312500000016
20
-76.200000000000017
10
-62.859375000000014
20
-76.200000000000017
10
-62.859375000000014
20
-77.200000000000074
10
-76.859375000000014
20
-77.200000000000074
42
0.41421356237309509
10
-77.859375000000014
20
-78.20000000000006
10
-77.859375000000014
20
-80.962500000000063
42
0.41421356237309509
10
-76.859375000000014
20
-81.962500000000063
10
-18.859375000000007
20
-81.962500000000006
42
0.4142135623730977
10
-17.859375
20
-80.962500000000006
10
-17.859375
20
-78.200000000000017
42
0.41421356237309509
10
-18.859375000000004
20
-77.200000000000003
10
-32.859375
20
-77.200000000000003
10
-32.859375
20
-76.200000000000017
10
-1.0000000000000009
20
-76.200000000000017
42
0.41421356237309653
10
6.9388939039072284e-16
20
-75.200000000000017
10
0
20
-0.99999999999999645
42
0.41421356237309503
10
-0.99999999999999645
20
3.6082248300317588e-15
10
-32.859375000000213
20
0
10
-32.859375000000043
20
0.99999999999858424
10
-18.859375000000014
20
0.99999999999887734
42
0.4142135623730836
10
-17.859375000000032
20
1.9999999999988562
10
-17.859374999999972
20
4.7624999999983153
42
0.41421356237308865
10
-18.859374999999936
20
5.762499999998334
0
LWPOLYLINE
5
101
100
AcDbEntity
8
0
100
AcDbPolyline
90
8
70
1
43
0.0
10
-235.88750000000002
20
-60.175000000000011
10
-235.88750000000005
20
-73.175000000000011
42
-0.4142135623730222
10
-236.38750000000002
20
-73.675000000000011
10
-249.38749999999999
20
-73.674999999999997
42
-0.41421356237312629
10
-249.88749999999999
20
-73.175000000000011
10
-249.88749999999996
20
-60.175000000000011
42
-0.4142135623730222
10
-249.38749999999999
20
-59.675000000000011
10
-236.38750000000002
20
-59.675000000000026
42
-0.41421356237312101
0
LWPOLYLINE
5
102
100
AcDbEntity
8
0
100
AcDbPolyline
90
8
70
1
43
0.0
10
-193.52500000000003
20
-73.675000000000011
42
0.41421356237307422
10
-193.02499999999998
20
-73.175000000000011
10
-193.02500000000003
20
-60.175000000000011
42
0.41421356237313145
10
-193.52500000000003
20
-59.675000000000011
10
-206.52500000000003
20
-59.675000000000011
42
0.4142135623730222
10
-207.02500000000003
20
-60.175000000000011
10
-207.02500000000003
20
-73.175000000000011
42
0.41421356237312629
10
-206.52500000000003
20
-73.675000000000011
0
LWPOLYLINE
5
103
100
AcDbEntity
8
0
100
AcDbPolyline
90
8
70
1
43
0.0
10
-117.32500000000002
20
-35.57500000000001
42
0.41421356237310542
10
-116.82500000000002
20
-35.07500000000001
10
-116.82500000000002
20
-22.075000000000003
42
0.41421356237309243
10
-117.32500000000002
20
-21.575000000000006
10
-130.32499999999999
20
-21.575000000000006
42
0.41421356237310542
10
-130.82499999999999
20
-22.075000000000003
10
-130.82499999999999
20
-35.07500000000001
42
0.41421356237309243
10
-130.32499999999999
20
-35.575000000000017
0
LWPOLYLINE
5
104
100
AcDbEntity
8
0
100
AcDbPolyline
90
8
70
1
43
0.0
10
-155.42500000000001
20
-54.625000000000014
42
0.41421356237310542
10
-154.92500000000004
20
-54.125000000000014
10
-154.92500000000001
20
-41.125000000000007
42
0.41421356237307944
10
-155.42500000000001
20
-40.625000000000007
10
-168.42500000000001
20
-40.625000000000007
42
0.4142135623730222
10
-168.92500000000001
20
-41.125000000000007
10
-168.92500000000001
20
-54.125000000000014
42
0.41421356237312629
10
-168.42500000000001
20
-54.625
0
LWPOLYLINE
5
105
100
AcDbEntity
8
0
100
AcDbPolyline
90
8
70
1
43
0.0
10
-22.074999999999999
20
-73.675000000000011
42
0.4142135623730977
10
-21.574999999999996
20
-73.175000000000011
10
-21.575000000000003
20
-60.175000000000011
42
0.41421356237309509
10
-22.074999999999999
20
-59.675000000000011
10
-35.075000000000003
20
-59.675000000000011
42
0.41421356237309509
10
-35.575000000000003
20
-60.175000000000011
10
-35.575000000000003
20
-73.175000000000011
42
0.4142135623730977
10
-35.075000000000003
20
-73.675000000000011
0
LWPOLYLINE
5
106
100
AcDbEntity
8
0
100
AcDbPolyline
90
8
70
1
43
0.0
10
-79.224999999999994
20
-54.625000000000014
42
0.41421356237310542
10
-78.724999999999994
20
-54.125000000000014
10
-78.724999999999994
20
-41.125000000000007
42
0.41421356237310542
10
-79.224999999999994
20
-40.625000000000007
10
-92.224999999999994
20
-40.625000000000007
42
0.41421356237310542
10
-92.725000000000009
20
-41.125000000000007
10
-92.725000000000009
20
-54.125000000000014
42
0.4142135623731002
10
-92.224999999999994
20
-54.625000000000014
0
LWPOLYLINE
5
107
100
AcDbEntity
8
0
100
AcDbPolyline
90
8
70
1
43
0.0
10
-41.125
20
-35.57500000000001
42
0.41421356237309509
10
-40.625
20
-35.07500000000001
10
-40.625
20
-22.075000000000003
42
0.41421356237309509
10
-41.125
20
-21.575000000000006
10
-54.125000000000007
20
-21.575000000000006
42
0.41421356237309509
10
-54.625
20
-22.075000000000003
10
-54.625
20
-35.07500000000001
42
0.41421356237309509
10
-54.125000000000007
20
-35.57500000000001
0
LWPOLYLINE
5
108
100
AcDbEntity
8
0
100
AcDbPolyline
90
8
70
1
43
0.0
10
-60.174999999999997
20
-16.525000000000006
42
0.4142135623730977
10
-59.675000000000011
20
-16.025000000000009
10
-59.675000000000004
20
-3.025000000000011
42
0.41421356237309698
10
-60.174999999999997
20
-2.5250000000000128
10
-73.174999999999997
20
-2.5250000000000128
42
0.41421356237309437
10
-73.674999999999997
20
-3.025000000000011
10
-73.674999999999997
20
-16.025000000000009
42
0.41421356237309509
10
-73.174999999999997
20
-16.525000000000006
0
LWPOLYLINE
5
109
100
AcDbEntity
8
0
100
AcDbPolyline
90
8
70
1
43
0.0
10
-79.224999999999994
20
-16.525000000000006
42
0.4142135623730977
10
-78.725000000000009
20
-16.025000000000009
10
-78.724999999999994
20
-3.025000000000011
42
0.41421356237309698
10
-79.224999999999994
20
-2.5250000000000128
10
-92.224999999999994
20
-2.5250000000000128
42
0.41421356237310542
10
-92.725000000000009
20
-3.025000000000011
10
-92.725000000000009
20
-16.025000000000009
42
0.41421356237309637
10
-92.224999999999994
20
-16.525000000000016
0
LWPOLYLINE
5
110
100
AcDbEntity
8
0
100
AcDbPolyline
90
8
70
1
43
0.0
10
-22.074999999999999
20
-35.57500000000001
42
0.41421356237309509
10
-21.575000000000003
20
-35.07500000000001
10
-21.575000000000003
20
-22.075000000000003
42
0.41421356237309509
10
-22.074999999999999
20
-21.575000000000006
10
-35.075000000000003
20
-21.575000000000006
42
0.41421356237309509
10
-35.575000000000003
20
-22.075000000000003
10
-35.575000000000003
20
-35.07500000000001
42
0.41421356237309509
10
-35.075000000000003
20
-35.57500000000001
0
LWPOLYLINE
5
111
100
AcDbEntity
8
0
100
AcDbPolyline
90
8
70
1
43
0.0
10
-135.875
20
-3.025000000000011
10
-135.87500000000003
20
-16.025000000000009
42
-0.41421356237308726
10
-136.375
20
-16.525000000000006
10
-149.375
20
-16.52500000000002
42
-0.41421356237309637
10
-149.875
20
-16.025000000000009
10
-149.875
20
-3.025000000000011
42
-0.41421356237310542
10
-149.375
20
-2.5250000000000128
10
-136.375
20
-2.5250000000000048
42
-0.41421356237307361
0
LWPOLYLINE
5
112
100
AcDbEntity
8
0
100
AcDbPolyline
90
8
70
1
43
0.0
10
-2.5249999999999999
20
-3.025000000000011
10
-2.5250000000000004
20
-16.025000000000009
42
-0.4142135623730957
10
-3.0249999999999999
20
-16.525000000000006
10
-16.024999999999999
20
-16.525000000000009
42
-0.41421356237309243
10
-16.525000000000002
20
-16.025000000000009
10
-16.524999999999999
20
-3.025000000000011
42
-0.4142135623730957
10
-16.024999999999999
20
-2.5250000000000128
10
-3.0249999999999999
20
-2.525000000000011
42
-0.41421356237309437
0
LWPOLYLINE
5
113
100
AcDbEntity
8
0
100
AcDbPolyline
90
8
70
1
43
0.0
10
-98.275000000000006
20
-16.525000000000006
42
0.41421356237310414
10
-97.774999999999977
20
-16.025000000000009
10
-97.775000000000006
20
-3.025000000000011
42
0.41421356237309437
10
-98.275000000000006
20
-2.5250000000000128
10
-111.27500000000001
20
-2.5250000000000128
42
0.41421356237310542
10
-111.77500000000002
20
-3.025000000000011
10
-111.77500000000002
20
-16.025000000000009
42
0.41421356237309637
10
-111.27500000000001
20
-16.525000000000016
0
LWPOLYLINE
5
114
100
AcDbEntity
8
0
100
AcDbPolyline
90
8
70
1
43
0.0
10
-41.125
20
-16.525000000000006
42
0.41421356237309509
10
-40.625
20
-16.025000000000009
10
-40.625
20
-3.025000000000011
42
0.41421356237309437
10
-41.125
20
-2.5250000000000128
10
-54.125000000000007
20
-2.5250000000000128
42
0.41421356237309437
10
-54.625
20
-3.025000000000011
10
-54.625
20
-16.025000000000009
42
0.41421356237309509
10
-54.125000000000007
20
-16.525000000000006
0
LWPOLYLINE
5
115
100
AcDbEntity
8
0
100
AcDbPolyline
90
8
70
1
43
0.0
10
-2.5249999999999999
20
-22.075000000000003
10
-2.5250000000000004
20
-35.07500000000001
42
-0.4142135623730957
10
-3.0249999999999999
20
-35.57500000000001
10
-16.024999999999999
20
-35.57500000000001
42
-0.41421356237309509
10
-16.525000000000002
20
-35.07500000000001
10
-16.525000000000002
20
-22.075000000000003
42
-0.41421356237309637
10
-16.024999999999999
20
-21.575000000000006
10
-3.0249999999999999
20
-21.575000000000006
42
-0.41421356237309537
0
LWPOLYLINE
5
116
100
AcDbEntity
8
0
100
AcDbPolyline
90
8
70
1
43
0.0
10
-117.32500000000002
20
-16.525000000000006
42
0.41421356237310414
10
-116.82499999999999
20
-16.025000000000009
10
-116.82500000000002
20
-3.025000000000011
42
0.41421356237309437
10
-117.32500000000002
20
-2.5250000000000039
10
-130.32499999999999
20
-2.5250000000000128
42
0.41421356237310542
10
-130.82499999999999
20
-3.025000000000011
10
-130.82499999999999
20
-16.025000000000009
42
0.41421356237309637
10
-130.32499999999999
20
-16.525000000000016
0
LWPOLYLINE
5
117
100
AcDbEntity
8
0
100
AcDbPolyline
90
8
70
1
43
0.0
10
-60.174999999999997
20
-54.625000000000014
42
0.41421356237310542
10
-59.675000000000004
20
-54.125000000000014
10
-59.675000000000004
20
-41.125000000000007
42
0.41421356237310542
10
-60.174999999999997
20
-40.625000000000007
10
-73.174999999999997
20
-40.625000000000007
42
0.41421356237309509
10
-73.674999999999997
20
-41.125000000000007
10
-73.674999999999997
20
-54.125000000000014
42
0.41421356237309509
10
-73.174999999999997
20
-54.625
0
LWPOLYLINE
5
118
100
AcDbEntity
8
0
100
AcDbPolyline
90
8
70
1
43
0.0
10
-187.97499999999999
20
-35.07500000000001
42
0.41421356237313145
10
-187.47499999999999
20
-35.57500000000001
10
-174.47500000000002
20
-35.57500000000001
42
0.41421356237307683
10
-173.97500000000002
20
-35.07500000000001
10
-173.97500000000002
20
-22.075000000000003
42
0.41421356237313145
10
-174.47500000000002
20
-21.574999999999996
10
-187.47499999999999
20
-21.575000000000006
42
0.41421356237307683
10
-187.97499999999999
20
-22.075000000000003
0
LWPOLYLINE
5
119
100
AcDbEntity
8
0
100
AcDbPolyline
90
8
70
1
43
0.0
10
-174.47500000000002
20
-73.675000000000011
42
0.41421356237307422
10
-173.97499999999997
20
-73.175000000000011
10
-173.97500000000002
20
-60.175000000000011
42
0.41421356237313145
10
-174.47500000000002
20
-59.675000000000011
10
-187.47499999999999
20
-59.675000000000011
42
0.41421356237307422
10
-187.97499999999999
20
-60.175000000000011
10
-187.97499999999999
20
-73.175000000000011
42
0.41421356237313667
10
-187.47499999999999
20
-73.675000000000011
0
LWPOLYLINE
5
120
100
AcDbEntity
8
0
100
AcDbPolyline
90
8
70
1
43
0.0
10
-212.57499999999999
20
-35.57500000000001
42
0.41421356237304557
10
-212.07499999999999
20
-35.07500000000001
10
-212.07499999999999
20
-22.075000000000003
42
0.4142135623731002
10
-212.57499999999999
20
-21.574999999999996
10
-225.57500000000002
20
-21.575000000000006
42
0.41421356237307683
10
-226.07500000000002
20
-22.075000000000003
10
-226.07500000000002
20
-35.07500000000001
42
0.41421356237313145
10
-225.57500000000002
20
-35.57500000000001
0
LWPOLYLINE
5
121
100
AcDbEntity
8
0
100
AcDbPolyline
90
8
70
1
43
0.0
10
-3.0249999999999999
20
-54.625000000000014
42
0.41421356237309698
10
-2.5249999999999986
20
-54.125000000000014
10
-2.5249999999999999
20
-41.125000000000007
42
0.4142135623730967
10
-3.0249999999999999
20
-40.625000000000007
10
-16.024999999999999
20
-40.625000000000007
42
0.4142135623730977
10
-16.524999999999999
20
-41.125000000000007
10
-16.525000000000002
20
-54.125000000000014
42
0.41421356237309637
10
-16.024999999999999
20
-54.625
0
LWPOLYLINE
5
122
100
AcDbEntity
8
0
100
AcDbPolyline
90
8
70
1
43
0.0
10
-79.224999999999994
20
-35.57500000000001
42
0.4142135623730977
10
-78.725000000000009
20
-35.07500000000001
10
-78.724999999999994
20
-22.075000000000003
42
0.4142135623730977
10
-79.224999999999994
20
-21.575000000000006
10
-92.224999999999994
20
-21.575000000000006
42
0.41421356237310542
10
-92.725000000000009
20
-22.075000000000003
10
-92.725000000000009
20
-35.07500000000001
42
0.41421356237309243
10
-92.224999999999994
20
-35.575000000000017
0
LWPOLYLINE
5
123
100
AcDbEntity
8
0
100
AcDbPolyline
90
8
70
1
43
0.0
10
-60.174999999999997
20
-35.57500000000001
42
0.4142135623730977
10
-59.675000000000011
20
-35.07500000000001
10
-59.675000000000004
20
-22.075000000000003
42
0.4142135623730977
10
-60.174999999999997
20
-21.575000000000006
10
-73.174999999999997
20
-21.575000000000006
42
0.41421356237309509
10
-73.674999999999997
20
-22.075000000000003
10
-73.674999999999997
20
-35.07500000000001
42
0.41421356237309509
10
-73.174999999999997
20
-35.57500000000001
0
LWPOLYLINE
5
124
100
AcDbEntity
8
0
100
AcDbPolyline
90
8
70
1
43
0.0
10
-236.38750000000002
20
-35.57500000000001
42
0.41421356237304557
10
-235.88750000000002
20
-35.07500000000001
10
-235.88750000000002
20
-22.075000000000003
42
0.4142135623731002
10
-236.38750000000002
20
-21.574999999999996
10
-249.38749999999999
20
-21.575000000000006
42
0.41421356237304557
10
-249.88749999999999
20
-22.075000000000003
10
-249.88749999999999
20
-35.07500000000001
42
0.4142135623731002
10
-249.38749999999999
20
-35.57500000000001
0
LWPOLYLINE
5
125
100
AcDbEntity
8
0
100
AcDbPolyline
90
8
70
1
43
0.0
10
-174.47500000000002
20
-54.625000000000014
42
0.41421356237307422
10
-173.97499999999997
20
-54.125000000000014
10
-173.97500000000002
20
-41.125000000000007
42
0.41421356237313667
10
-174.47500000000002
20
-40.625000000000007
10
-187.47499999999999
20
-40.625000000000007
42
0.41421356237307422
10
-187.97499999999999
20
-41.125000000000007
10
-187.97499999999999
20
-54.125000000000014
42
0.41421356237313667
10
-187.47499999999999
20
-54.625
0
LWPOLYLINE
5
126
100
AcDbEntity
8
0
100
AcDbPolyline
90
8
70
1
43
0.0
10
-212.57499999999999
20
-73.675000000000011
42
0.4142135623730222
10
-212.07500000000005
20
-73.175000000000011
10
-212.07499999999999
20
-60.175000000000011
42
0.41421356237312101
10
-212.57499999999999
20
-59.675000000000004
10
-225.57500000000002
20
-59.675000000000011
42
0.41421356237307422
10
-226.07500000000002
20
-60.175000000000011
10
-226.07500000000002
20
-73.175000000000011
42
0.41421356237313667
10
-225.57500000000002
20
-73.675000000000011
0
LWPOLYLINE
5
127
100
AcDbEntity
8
0
100
AcDbPolyline
90
8
70
1
43
0.0
10
-3.0249999999999999
20
-73.675000000000011
42
0.4142135623730967
10
-2.524999999999999
20
-73.175000000000011
10
-2.5249999999999999
20
-60.175000000000011
42
0.41421356237309409
10
-3.0249999999999999
20
-59.675000000000011
10
-16.024999999999999
20
-59.675000000000011
42
0.4142135623730937
10
-16.525000000000002
20
-60.175000000000011
10
-16.525000000000002
20
-73.175000000000011
42
0.41421356237309637
10
-16.024999999999999
20
-73.675000000000011
0
LWPOLYLINE
5
128
100
AcDbEntity
8
0
100
AcDbPolyline
90
8
70
1
43
0.0
10
-135.875
20
-41.125000000000007
10
-135.87500000000003
20
-54.125000000000014
42
-0.41421356237310542
10
-136.375
20
-54.625000000000014
10
-149.375
20
-54.625000000000028
42
-0.4142135623731002
10
-149.875
20
-54.125000000000014
10
-149.875
20
-41.125000000000007
42
-0.41421356237310542
10
-149.375
20
-40.625000000000007
10
-136.37500000000003
20
-40.624999999999993
42
-0.41421356237307944
0
LWPOLYLINE
5
129
100
AcDbEntity
8
0
100
AcDbPolyline
90
8
70
1
43
0.0
10
-193.52500000000003
20
-54.625000000000014
42
0.41421356237307422
10
-193.02499999999998
20
-54.125000000000014
10
-193.02500000000003
20
-41.125000000000007
42
0.41421356237313667
10
-193.52500000000003
20
-40.625000000000007
10
-206.52500000000003
20
-40.625000000000007
42
0.4142135623730222
10
-207.02500000000003
20
-41.125000000000007
10
-207.02500000000003
20
-54.125000000000014
42
0.41421356237312629
10
-206.52500000000003
20
-54.625000000000014
0
LWPOLYLINE
5
130
100
AcDbEntity
8
0
100
AcDbPolyline
90
8
70
1
43
0.0
10
-212.57499999999999
20
-16.525000000000006
42
0.41421356237304557
10
-212.07499999999999
20
-16.025000000000009
10
-212.07499999999999
20
-3.025000000000011
42
0.41421356237310153
10
-212.57499999999999
20
-2.5250000000000039
10
-225.57500000000002
20
-2.5250000000000128
42
0.41421356237307744
10
-226.07500000000002
20
-3.025000000000011
10
-226.07500000000002
20
-16.025000000000009
42
0.414213562373134
10
-225.57500000000002
20
-16.525000000000006
0
LWPOLYLINE
5
131
100
AcDbEntity
8
0
100
AcDbPolyline
90
8
70
1
43
0.0
10
-155.42500000000001
20
-73.675000000000011
42
0.41421356237307422
10
-154.92500000000004
20
-73.175000000000011
10
-154.92500000000001
20
-60.175000000000011
42
0.41421356237307422
10
-155.42500000000001
20
-59.675000000000011
10
-168.42500000000001
20
-59.675000000000011
42
0.4142135623730222
10
-168.92500000000001
20
-60.175000000000011
10
-168.92500000000001
20
-73.175000000000011
42
0.41421356237312629
10
-168.42500000000001
20
-73.675000000000011
0
LWPOLYLINE
5
132
100
AcDbEntity
8
0
100
AcDbPolyline
90
8
70
1
43
0.0
10
-117.32500000000002
20
-73.675000000000011
42
0.41421356237310542
10
-116.82500000000002
20
-73.175000000000011
10
-116.82500000000002
20
-60.175000000000011
42
0.41421356237309509
10
-117.32500000000002
20
-59.675000000000011
10
-130.32499999999999
20
-59.675000000000011
42
0.41421356237308982
10
-130.82499999999999
20
-60.175000000000011
10
-130.82499999999999
20
-73.175000000000011
42
0.4142135623731002
10
-130.32499999999999
20
-73.675000000000011
0
LWPOLYLINE
5
133
100
AcDbEntity
8
0
100
AcDbPolyline
90
8
70
1
43
0.0
10
-155.42500000000001
20
-35.57500000000001
42
0.4142135623731002
10
-154.92500000000004
20
-35.07500000000001
10
-154.92500000000001
20
-22.075000000000003
42
0.41421356237307161
10
-155.42500000000001
20
-21.575000000000006
10
-168.42500000000001
20
-21.575000000000006
42
0.41421356237304557
10
-168.92500000000001
20
-22.075000000000003
10
-168.92500000000001
20
-35.07500000000001
42
0.4142135623731002
10
-168.42500000000001
20
-35.575000000000017
0
LWPOLYLINE
5
134
100
AcDbEntity
8
0
100
AcDbPolyline
90
8
70
1
43
0.0
10
-155.42500000000001
20
-16.525000000000006
42
0.41421356237308726
10
-154.92500000000004
20
-16.025000000000009
10
-154.92500000000001
20
-3.025000000000011
42
0.41421356237307361
10
-155.42500000000001
20
-2.5250000000000128
10
-168.42500000000001
20
-2.5250000000000128
42
0.41421356237304624
10
-168.92500000000001
20
-3.025000000000011
10
-168.92500000000001
20
-16.025000000000009
42
0.41421356237312362
10
-168.42500000000001
20
-16.525000000000016
0
LWPOLYLINE
5
135
100
AcDbEntity
8
0
100
AcDbPolyline
90
8
70
1
43
0.0
10
-236.38750000000002
20
-16.525000000000006
42
0.41421356237304557
10
-235.88750000000002
20
-16.025000000000009
10
-235.88750000000002
20
-3.025000000000011
42
0.41421356237310153
10
-236.38750000000002
20
-2.5250000000000039
10
-249.38749999999999
20
-2.5250000000000128
42
0.41421356237304624
10
-249.88749999999999
20
-3.025000000000011
10
-249.88749999999999
20
-16.025000000000009
42
0.41421356237312362
10
-249.38749999999999
20
-16.525000000000016
0
LWPOLYLINE
5
136
100
AcDbEntity
8
0
100
AcDbPolyline
90
8
70
1
43
0.0
10
-193.52500000000003
20
-16.525000000000006
42
0.41421356237307683
10
-193.02499999999998
20
-16.025000000000009
10
-193.02500000000003
20
-3.025000000000011
42
0.41421356237313273
10
-193.52500000000003
20
-2.5250000000000128
10
-206.52500000000003
20
-2.5250000000000128
42
0.41421356237304624
10
-207.02500000000003
20
-3.025000000000011
10
-207.02500000000003
20
-16.025000000000009
42
0.41421356237312362
10
-206.52500000000003
20
-16.525000000000016
0
LWPOLYLINE
5
137
100
AcDbEntity
8
0
100
AcDbPolyline
90
8
70
1
43
0.0
10
-174.47500000000002
20
-16.525000000000006
42
0.41421356237307683
10
-173.97499999999997
20
-16.025000000000009
10
-173.97500000000002
20
-3.025000000000011
42
0.41421356237313273
10
-174.47500000000002
20
-2.5250000000000128
10
-187.47499999999999
20
-2.5250000000000128
42
0.41421356237307744
10
-187.97499999999999
20
-3.025000000000011
10
-187.97499999999999
20
-16.025000000000009
42
0.414213562373134
10
-187.47499999999999
20
-16.525000000000016
0
LWPOLYLINE
5
138
100
AcDbEntity
8
0
100
AcDbPolyline
90
8
70
1
43
0.0
10
-212.57499999999999
20
-54.625000000000014
42
0.4142135623730222
10
-212.07500000000005
20
-54.125000000000014
10
-212.07499999999999
20
-41.125000000000007
42
0.41421356237312629
10
-212.57499999999999
20
-40.625000000000007
10
-225.57500000000002
20
-40.625000000000007
42
0.41421356237307422
10
-226.07500000000002
20
-41.125000000000007
10
-226.07500000000002
20
-54.125000000000014
42
0.41421356237313667
10
-225.57500000000002
20
-54.625000000000014
0
LWPOLYLINE
5
139
100
AcDbEntity
8
0
100
AcDbPolyline
90
8
70
1
43
0.0
10
-236.38750000000002
20
-54.625000000000014
42
0.4142135623730222
10
-235.88750000000005
20
-54.125000000000014
10
-235.88750000000002
20
-41.125000000000007
42
0.41421356237312629
10
-236.38750000000002
20
-40.625000000000007
10
-249.38749999999999
20
-40.625000000000007
42
0.4142135623730222
10
-249.88749999999999
20
-41.125000000000007
10
-249.88749999999999
20
-54.125000000000014
42
0.41421356237312629
10
-249.38749999999999
20
-54.625000000000014
0
LWPOLYLINE
5
140
100
AcDbEntity
8
0
100
AcDbPolyline
90
8
70
1
43
0.0
10
-98.275000000000006
20
-73.675000000000011
42
0.41421356237310542
10
-97.775000000000006
20
-73.175000000000011
10
-97.775000000000006
20
-60.175000000000011
42
0.41421356237309509
10
-98.275000000000006
20
-59.675000000000011
10
-111.27500000000001
20
-59.675000000000011
42
0.41421356237308982
10
-111.77500000000002
20
-60.175000000000011
10
-111.77500000000002
20
-73.175000000000011
42
0.4142135623731002
10
-111.27500000000001
20
-73.675000000000011
0
LWPOLYLINE
5
141
100
AcDbEntity
8
0
100
AcDbPolyline
90
8
70
1
43
0.0
10
-136.375
20
-73.675000000000011
42
0.41421356237307422
10
-135.87500000000003
20
-73.175000000000011
10
-135.875
20
-60.175000000000011
42
0.41421356237307422
10
-136.375
20
-59.675000000000011
10
-149.375
20
-59.675000000000011
42
0.41421356237308982
10
-149.875
20
-60.175000000000011
10
-149.875
20
-73.175000000000011
42
0.4142135623731002
10
-149.375
20
-73.675000000000011
0
LWPOLYLINE
5
142
100
AcDbEntity
8
0
100
AcDbPolyline
90
8
70
1
43
0.0
10
-54.625
20
-73.175000000000011
42
0.41421356237309509
10
-54.125000000000007
20
-73.675000000000011
10
-41.125
20
-73.675000000000011
42
0.41421356237309509
10
-40.625
20
-73.175000000000011
10
-40.625
20
-60.175000000000011
42
0.41421356237309509
10
-41.125
20
-59.675000000000011
10
-54.125000000000007
20
-59.675000000000011
42
0.41421356237309509
10
-54.625
20
-60.175000000000011
0
LWPOLYLINE
5
143
100
AcDbEntity
8
0
100
AcDbPolyline
90
8
70
1
43
0.0
10
-193.52500000000003
20
-35.57500000000001
42
0.41421356237307683
10
-193.02499999999998
20
-35.07500000000001
10
-193.02500000000003
20
-22.075000000000003
42
0.41421356237313145
10
-193.52500000000003
20
-21.575000000000006
10
-206.52500000000003
20
-21.575000000000006
42
0.41421356237304557
10
-207.02500000000003
20
-22.075000000000003
10
-207.02500000000003
20
-35.07500000000001
42
0.4142135623731002
10
-206.52500000000003
20
-35.575000000000017
0
LWPOLYLINE
5
144
100
AcDbEntity
8
0
100
AcDbPolyline
90
8
70
1
43
0.0
10
-98.275000000000006
20
-54.625000000000014
42
0.41421356237310542
10
-97.775000000000006
20
-54.125000000000014
10
-97.775000000000006
20
-41.125000000000007
42
0.4142135623731002
10
-98.275000000000006
20
-40.625000000000007
10
-111.27500000000001
20
-40.625000000000007
42
0.41421356237310542
10
-111.77500000000002
20
-41.125000000000007
10
-111.77500000000002
20
-54.125000000000014
42
0.4142135623731002
10
-111.27500000000001
20
-54.625
0
LWPOLYLINE
5
145
100
AcDbEntity
8
0
100
AcDbPolyline
90
8
70
1
43
0.0
10
-79.224999999999994
20
-73.675000000000011
42
0.41421356237310542
10
-78.724999999999994
20
-73.175000000000011
10
-78.724999999999994
20
-60.175000000000011
42
0.41421356237309509
10
-79.224999999999994
20
-59.675000000000011
10
-92.224999999999994
20
-59.675000000000011
42
0.41421356237308982
10
-92.725000000000009
20
-60.175000000000011
10
-92.725000000000009
20
-73.175000000000011
42
0.4142135623731002
10
-92.224999999999994
20
-73.675000000000011
0
LWPOLYLINE
5
146
100
AcDbEntity
8
0
100
AcDbPolyline
90
8
70
1
43
0.0
10
-22.074999999999999
20
-16.525000000000006
42
0.41421356237309637
10
-21.575000000000006
20
-16.025000000000009
10
-21.575000000000003
20
-3.025000000000011
42
0.4142135623730957
10
-22.074999999999999
20
-2.5250000000000128
10
-35.075000000000003
20
-2.5250000000000128
42
0.4142135623730957
10
-35.575000000000003
20
-3.025000000000011
10
-35.575000000000003
20
-16.025000000000009
42
0.41421356237309637
10
-35.075000000000003
20
-16.525000000000006
0
LWPOLYLINE
5
147
100
AcDbEntity
8
0
100
AcDbPolyline
90
8
70
1
43
0.0
10
-40.625
20
-41.125000000000007
10
-40.625
20
-54.125000000000014
42
-0.41421356237309509
10
-41.125
20
-54.625000000000014
10
-54.125000000000007
20
-54.625000000000014
42
-0.41421356237309509
10
-54.625
20
-54.125000000000014
10
-54.625
20
-41.125000000000007
42
-0.41421356237309509
10
-54.125000000000007
20
-40.625000000000007
10
-41.125
20
-40.625000000000007
42
-0.41421356237309509
0
LWPOLYLINE
5
148
100
AcDbEntity
8
0
100
AcDbPolyline
90
8
70
1
43
0.0
10
-149.875
20
-35.07500000000001
42
0.41421356237309243
10
-149.375
20
-35.575000000000017
10
-136.375
20
-35.57500000000001
42
0.4142135623731002
10
-135.87500000000003
20
-35.07500000000001
10
-135.875
20
-22.075000000000003
42
0.41421356237307161
10
-136.375
20
-21.575000000000006
10
-149.375
20
-21.575000000000006
42
0.41421356237310542
10
-149.875
20
-22.075000000000003
0
LWPOLYLINE
5
149
100
AcDbEntity
8
0
100
AcDbPolyline
90
8
70
1
43
0.0
10
-35.575000000000003
20
-54.125000000000014
42
0.4142135623730977
10
-35.075000000000003
20
-54.625
10
-22.074999999999999
20
-54.625000000000014
42
0.4142135623730977
10
-21.575000000000003
20
-54.125000000000014
10
-21.575000000000003
20
-41.125000000000007
42
0.4142135623730977
10
-22.074999999999999
20
-40.625000000000007
10
-35.075000000000003
20
-40.625000000000007
42
0.4142135623730977
10
-35.575000000000003
20
-41.125000000000007
0
LWPOLYLINE
5
150
100
AcDbEntity
8
0
100
AcDbPolyline
90
8
70
1
43
0.0
10
-60.174999999999997
20
-73.675000000000011
42
0.41421356237310542
10
-59.675000000000004
20
-73.175000000000011
10
-59.675000000000004
20
-60.175000000000011
42
0.41421356237309509
10
-60.174999999999997
20
-59.675000000000011
10
-73.174999999999997
20
-59.675000000000011
42
0.41421356237309509
10
-73.674999999999997
20
-60.175000000000011
10
-73.674999999999997
20
-73.175000000000011
42
0.41421356237309509
10
-73.174999999999997
20
-73.675000000000011
0
LWPOLYLINE
5
151
100
AcDbEntity
8
0
100
AcDbPolyline
90
8
70
1
43
0.0
10
-97.775000000000006
20
-22.075000000000003
10
-97.775000000000006
20
-35.07500000000001
42
-0.41421356237310542
10
-98.275000000000006
20
-35.57500000000001
10
-111.27500000000001
20
-35.575000000000017
42
-0.41421356237309243
10
-111.77500000000002
20
-35.07500000000001
10
-111.77500000000002
20
-22.075000000000003
42
-0.41421356237310542
10
-111.27500000000001
20
-21.575000000000006
10
-98.275000000000006
20
-21.575000000000003
42
-0.41421356237309243
0
LWPOLYLINE
5
152
100
AcDbEntity
8
0
100
AcDbPolyline
90
8
70
1
43
0.0
10
-117.32500000000002
20
-54.625000000000014
42
0.41421356237310542
10
-116.82500000000002
20
-54.125000000000014
10
-116.82500000000002
20
-41.125000000000007
42
0.4142135623731002
10
-117.32500000000002
20
-40.625000000000007
10
-130.32499999999999
20
-40.625000000000007
42
0.41421356237310542
10
-130.82499999999999
20
-41.125000000000007
10
-130.82499999999999
20
-54.125000000000014
42
0.4142135623731002
10
-130.32499999999999
20
-54.625000000000014
0
ENDSEC
0
SECTION
2
OBJECTS
0
DICTIONARY
5
C
100
AcDbDictionary
3
ACAD_GROUP
350
D
3
ACAD_MLINESTYLE
350
17
0
DICTIONARY
5
D
100
AcDbDictionary
0
DICTIONARY
5
1A
330
C
100
AcDbDictionary
0
DICTIONARY
5
17
100
AcDbDictionary
0
ENDSEC
0
EOF
