G04 #@! TF.GenerationSoftware,KiCad,Pcbnew,(5.1.10-1-10_14)*
G04 #@! TF.CreationDate,2021-08-14T15:19:58-05:00*
G04 #@! TF.ProjectId,ori_top_plate,6f72695f-746f-4705-9f70-6c6174652e6b,rev?*
G04 #@! TF.SameCoordinates,Original*
G04 #@! TF.FileFunction,Legend,Bot*
G04 #@! TF.FilePolarity,Positive*
%FSLAX46Y46*%
G04 Gerber Fmt 4.6, Leading zero omitted, Abs format (unit mm)*
G04 Created by KiCad (PCBNEW (5.1.10-1-10_14)) date 2021-08-14 15:19:58*
%MOMM*%
%LPD*%
G01*
G04 APERTURE LIST*
%ADD10C,0.150000*%
%ADD11C,0.200000*%
%ADD12C,0.100000*%
G04 APERTURE END LIST*
D10*
X376264440Y-60114123D02*
X376264440Y-58923493D01*
X376264440Y-100595607D02*
X376264440Y-99404977D01*
X376264440Y-95833087D02*
X376264440Y-94642457D01*
X376264440Y-98214347D02*
X376264440Y-97023717D01*
X376264440Y-62495383D02*
X376264440Y-61304753D01*
X376264440Y-57732863D02*
X376264440Y-56542233D01*
X376264440Y-76782975D02*
X376264440Y-75592345D01*
X376264440Y-79164235D02*
X376264440Y-77973605D01*
X376264440Y-81545495D02*
X376264440Y-80354865D01*
X379788300Y-83187967D02*
X379074014Y-83187967D01*
X378931157Y-83235586D01*
X378835919Y-83330824D01*
X378788300Y-83473681D01*
X378788300Y-83568920D01*
X378788300Y-82235586D02*
X378788300Y-82711777D01*
X379788300Y-82711777D01*
X378883538Y-81330824D02*
X378835919Y-81378443D01*
X378788300Y-81521300D01*
X378788300Y-81616539D01*
X378835919Y-81759396D01*
X378931157Y-81854634D01*
X379026395Y-81902253D01*
X379216871Y-81949872D01*
X379359728Y-81949872D01*
X379550204Y-81902253D01*
X379645442Y-81854634D01*
X379740681Y-81759396D01*
X379788300Y-81616539D01*
X379788300Y-81521300D01*
X379740681Y-81378443D01*
X379693061Y-81330824D01*
X379788300Y-80616539D02*
X379074014Y-80616539D01*
X378931157Y-80664158D01*
X378835919Y-80759396D01*
X378788300Y-80902253D01*
X378788300Y-80997491D01*
X378788300Y-79664158D02*
X378788300Y-80140348D01*
X379788300Y-80140348D01*
X378883538Y-78759396D02*
X378835919Y-78807015D01*
X378788300Y-78949872D01*
X378788300Y-79045110D01*
X378835919Y-79187967D01*
X378931157Y-79283205D01*
X379026395Y-79330824D01*
X379216871Y-79378443D01*
X379359728Y-79378443D01*
X379550204Y-79330824D01*
X379645442Y-79283205D01*
X379740681Y-79187967D01*
X379788300Y-79045110D01*
X379788300Y-78949872D01*
X379740681Y-78807015D01*
X379693061Y-78759396D01*
X379788300Y-78045110D02*
X379074014Y-78045110D01*
X378931157Y-78092729D01*
X378835919Y-78187967D01*
X378788300Y-78330824D01*
X378788300Y-78426062D01*
X378788300Y-77092729D02*
X378788300Y-77568920D01*
X379788300Y-77568920D01*
X378883538Y-76187967D02*
X378835919Y-76235586D01*
X378788300Y-76378443D01*
X378788300Y-76473681D01*
X378835919Y-76616539D01*
X378931157Y-76711777D01*
X379026395Y-76759396D01*
X379216871Y-76807015D01*
X379359728Y-76807015D01*
X379550204Y-76759396D01*
X379645442Y-76711777D01*
X379740681Y-76616539D01*
X379788300Y-76473681D01*
X379788300Y-76378443D01*
X379740681Y-76235586D01*
X379693061Y-76187967D01*
X379788300Y-75473681D02*
X379074014Y-75473681D01*
X378931157Y-75521300D01*
X378835919Y-75616539D01*
X378788300Y-75759396D01*
X378788300Y-75854634D01*
X378788300Y-74521300D02*
X378788300Y-74997491D01*
X379788300Y-74997491D01*
X378883538Y-73616539D02*
X378835919Y-73664158D01*
X378788300Y-73807015D01*
X378788300Y-73902253D01*
X378835919Y-74045110D01*
X378931157Y-74140348D01*
X379026395Y-74187967D01*
X379216871Y-74235586D01*
X379359728Y-74235586D01*
X379550204Y-74187967D01*
X379645442Y-74140348D01*
X379740681Y-74045110D01*
X379788300Y-73902253D01*
X379788300Y-73807015D01*
X379740681Y-73664158D01*
X379693061Y-73616539D01*
D11*
X251217425Y-59251046D02*
X251217425Y-60262951D01*
X251276949Y-60381999D01*
X251336473Y-60441523D01*
X251455520Y-60501046D01*
X251634092Y-60501046D01*
X251753139Y-60441523D01*
X251217425Y-60024856D02*
X251336473Y-60084380D01*
X251574568Y-60084380D01*
X251693616Y-60024856D01*
X251753139Y-59965332D01*
X251812663Y-59846284D01*
X251812663Y-59489142D01*
X251753139Y-59370094D01*
X251693616Y-59310570D01*
X251574568Y-59251046D01*
X251336473Y-59251046D01*
X251217425Y-59310570D01*
X250622187Y-60084380D02*
X250622187Y-59251046D01*
X250622187Y-58834380D02*
X250681711Y-58893904D01*
X250622187Y-58953427D01*
X250562663Y-58893904D01*
X250622187Y-58834380D01*
X250622187Y-58953427D01*
X250205520Y-59251046D02*
X249729330Y-59251046D01*
X250026949Y-58834380D02*
X250026949Y-59905808D01*
X249967425Y-60024856D01*
X249848378Y-60084380D01*
X249729330Y-60084380D01*
X249312663Y-60084380D02*
X249312663Y-58834380D01*
X248776949Y-60084380D02*
X248776949Y-59429618D01*
X248836473Y-59310570D01*
X248955520Y-59251046D01*
X249134092Y-59251046D01*
X249253139Y-59310570D01*
X249312663Y-59370094D01*
X247645997Y-59251046D02*
X247645997Y-60084380D01*
X248181711Y-59251046D02*
X248181711Y-59905808D01*
X248122187Y-60024856D01*
X248003139Y-60084380D01*
X247824568Y-60084380D01*
X247705520Y-60024856D01*
X247645997Y-59965332D01*
X247050758Y-60084380D02*
X247050758Y-58834380D01*
X247050758Y-59310570D02*
X246931711Y-59251046D01*
X246693616Y-59251046D01*
X246574568Y-59310570D01*
X246515044Y-59370094D01*
X246455520Y-59489142D01*
X246455520Y-59846284D01*
X246515044Y-59965332D01*
X246574568Y-60024856D01*
X246693616Y-60084380D01*
X246931711Y-60084380D01*
X247050758Y-60024856D01*
X245919806Y-59965332D02*
X245860282Y-60024856D01*
X245919806Y-60084380D01*
X245979330Y-60024856D01*
X245919806Y-59965332D01*
X245919806Y-60084380D01*
X244788854Y-60024856D02*
X244907901Y-60084380D01*
X245145997Y-60084380D01*
X245265044Y-60024856D01*
X245324568Y-59965332D01*
X245384092Y-59846284D01*
X245384092Y-59489142D01*
X245324568Y-59370094D01*
X245265044Y-59310570D01*
X245145997Y-59251046D01*
X244907901Y-59251046D01*
X244788854Y-59310570D01*
X244074568Y-60084380D02*
X244193616Y-60024856D01*
X244253139Y-59965332D01*
X244312663Y-59846284D01*
X244312663Y-59489142D01*
X244253139Y-59370094D01*
X244193616Y-59310570D01*
X244074568Y-59251046D01*
X243895997Y-59251046D01*
X243776949Y-59310570D01*
X243717425Y-59370094D01*
X243657901Y-59489142D01*
X243657901Y-59846284D01*
X243717425Y-59965332D01*
X243776949Y-60024856D01*
X243895997Y-60084380D01*
X244074568Y-60084380D01*
X243122187Y-60084380D02*
X243122187Y-59251046D01*
X243122187Y-59370094D02*
X243062663Y-59310570D01*
X242943616Y-59251046D01*
X242765044Y-59251046D01*
X242645997Y-59310570D01*
X242586473Y-59429618D01*
X242586473Y-60084380D01*
X242586473Y-59429618D02*
X242526949Y-59310570D01*
X242407901Y-59251046D01*
X242229330Y-59251046D01*
X242110282Y-59310570D01*
X242050758Y-59429618D01*
X242050758Y-60084380D01*
X240562663Y-58774856D02*
X241634092Y-60381999D01*
X239610282Y-60084380D02*
X239610282Y-58834380D01*
X239610282Y-60024856D02*
X239729330Y-60084380D01*
X239967425Y-60084380D01*
X240086473Y-60024856D01*
X240145997Y-59965332D01*
X240205520Y-59846284D01*
X240205520Y-59489142D01*
X240145997Y-59370094D01*
X240086473Y-59310570D01*
X239967425Y-59251046D01*
X239729330Y-59251046D01*
X239610282Y-59310570D01*
X239015044Y-60084380D02*
X239015044Y-59251046D01*
X239015044Y-58834380D02*
X239074568Y-58893904D01*
X239015044Y-58953427D01*
X238955520Y-58893904D01*
X239015044Y-58834380D01*
X239015044Y-58953427D01*
X237943616Y-60024856D02*
X238062663Y-60084380D01*
X238300758Y-60084380D01*
X238419806Y-60024856D01*
X238479330Y-59905808D01*
X238479330Y-59429618D01*
X238419806Y-59310570D01*
X238300758Y-59251046D01*
X238062663Y-59251046D01*
X237943616Y-59310570D01*
X237884092Y-59429618D01*
X237884092Y-59548665D01*
X238479330Y-59667713D01*
X237348378Y-60084380D02*
X237348378Y-59251046D01*
X237348378Y-59489142D02*
X237288854Y-59370094D01*
X237229330Y-59310570D01*
X237110282Y-59251046D01*
X236991235Y-59251046D01*
X236574568Y-60084380D02*
X236574568Y-59251046D01*
X236574568Y-58834380D02*
X236634092Y-58893904D01*
X236574568Y-58953427D01*
X236515044Y-58893904D01*
X236574568Y-58834380D01*
X236574568Y-58953427D01*
X235443616Y-60024856D02*
X235562663Y-60084380D01*
X235800758Y-60084380D01*
X235919806Y-60024856D01*
X235979330Y-59965332D01*
X236038854Y-59846284D01*
X236038854Y-59489142D01*
X235979330Y-59370094D01*
X235919806Y-59310570D01*
X235800758Y-59251046D01*
X235562663Y-59251046D01*
X235443616Y-59310570D01*
X234907901Y-60084380D02*
X234907901Y-58834380D01*
X234788854Y-59608189D02*
X234431711Y-60084380D01*
X234431711Y-59251046D02*
X234907901Y-59727237D01*
X233360282Y-60084380D02*
X233360282Y-58834380D01*
X233360282Y-60024856D02*
X233479330Y-60084380D01*
X233717425Y-60084380D01*
X233836473Y-60024856D01*
X233895997Y-59965332D01*
X233955520Y-59846284D01*
X233955520Y-59489142D01*
X233895997Y-59370094D01*
X233836473Y-59310570D01*
X233717425Y-59251046D01*
X233479330Y-59251046D01*
X233360282Y-59310570D01*
X232765044Y-60084380D02*
X232765044Y-59251046D01*
X232765044Y-58834380D02*
X232824568Y-58893904D01*
X232765044Y-58953427D01*
X232705520Y-58893904D01*
X232765044Y-58834380D01*
X232765044Y-58953427D01*
X231693616Y-60024856D02*
X231812663Y-60084380D01*
X232050758Y-60084380D01*
X232169806Y-60024856D01*
X232229330Y-59905808D01*
X232229330Y-59429618D01*
X232169806Y-59310570D01*
X232050758Y-59251046D01*
X231812663Y-59251046D01*
X231693616Y-59310570D01*
X231634092Y-59429618D01*
X231634092Y-59548665D01*
X232229330Y-59667713D01*
X284704362Y-58834380D02*
X284466267Y-58834380D01*
X284347219Y-58893904D01*
X284228171Y-59012951D01*
X284168648Y-59251046D01*
X284168648Y-59667713D01*
X284228171Y-59905808D01*
X284347219Y-60024856D01*
X284466267Y-60084380D01*
X284704362Y-60084380D01*
X284823410Y-60024856D01*
X284942457Y-59905808D01*
X285001981Y-59667713D01*
X285001981Y-59251046D01*
X284942457Y-59012951D01*
X284823410Y-58893904D01*
X284704362Y-58834380D01*
X283632933Y-60084380D02*
X283632933Y-59251046D01*
X283632933Y-59489142D02*
X283573410Y-59370094D01*
X283513886Y-59310570D01*
X283394838Y-59251046D01*
X283275790Y-59251046D01*
X282859124Y-60084380D02*
X282859124Y-59251046D01*
X282859124Y-58834380D02*
X282918648Y-58893904D01*
X282859124Y-58953427D01*
X282799600Y-58893904D01*
X282859124Y-58834380D01*
X282859124Y-58953427D01*
X280597219Y-60084380D02*
X281013886Y-59489142D01*
X281311505Y-60084380D02*
X281311505Y-58834380D01*
X280835314Y-58834380D01*
X280716267Y-58893904D01*
X280656743Y-58953427D01*
X280597219Y-59072475D01*
X280597219Y-59251046D01*
X280656743Y-59370094D01*
X280716267Y-59429618D01*
X280835314Y-59489142D01*
X281311505Y-59489142D01*
X279585314Y-60024856D02*
X279704362Y-60084380D01*
X279942457Y-60084380D01*
X280061505Y-60024856D01*
X280121029Y-59905808D01*
X280121029Y-59429618D01*
X280061505Y-59310570D01*
X279942457Y-59251046D01*
X279704362Y-59251046D01*
X279585314Y-59310570D01*
X279525790Y-59429618D01*
X279525790Y-59548665D01*
X280121029Y-59667713D01*
X279109124Y-59251046D02*
X278811505Y-60084380D01*
X278513886Y-59251046D01*
X276430552Y-60084380D02*
X277144838Y-60084380D01*
X276787695Y-60084380D02*
X276787695Y-58834380D01*
X276906743Y-59012951D01*
X277025790Y-59131999D01*
X277144838Y-59191523D01*
X275894838Y-59965332D02*
X275835314Y-60024856D01*
X275894838Y-60084380D01*
X275954362Y-60024856D01*
X275894838Y-59965332D01*
X275894838Y-60084380D01*
X275061505Y-58834380D02*
X274942457Y-58834380D01*
X274823410Y-58893904D01*
X274763886Y-58953427D01*
X274704362Y-59072475D01*
X274644838Y-59310570D01*
X274644838Y-59608189D01*
X274704362Y-59846284D01*
X274763886Y-59965332D01*
X274823410Y-60024856D01*
X274942457Y-60084380D01*
X275061505Y-60084380D01*
X275180552Y-60024856D01*
X275240076Y-59965332D01*
X275299600Y-59846284D01*
X275359124Y-59608189D01*
X275359124Y-59310570D01*
X275299600Y-59072475D01*
X275240076Y-58953427D01*
X275180552Y-58893904D01*
X275061505Y-58834380D01*
X368220360Y-59918904D02*
X368220360Y-59118904D01*
X367220398Y-60418904D02*
X367720360Y-60418904D01*
X366720360Y-59918904D02*
X366720360Y-59118904D01*
X367720322Y-58618904D02*
X367220360Y-58618904D01*
D12*
G36*
X368434560Y-59518904D02*
G01*
X369234560Y-60118904D01*
X369234560Y-58918904D01*
X368434560Y-59518904D01*
G37*
X368434560Y-59518904D02*
X369234560Y-60118904D01*
X369234560Y-58918904D01*
X368434560Y-59518904D01*
D11*
X368220360Y-59118904D02*
G75*
G03*
X367720360Y-58618904I-500000J0D01*
G01*
X367220360Y-58618904D02*
G75*
G03*
X366720360Y-59118904I0J-500000D01*
G01*
X366720360Y-59918904D02*
G75*
G03*
X367220360Y-60418904I500000J0D01*
G01*
X367720360Y-60418904D02*
G75*
G03*
X368220360Y-59918904I0J500000D01*
G01*
X390261370Y-59118840D02*
X390261370Y-59918840D01*
X391261332Y-58618840D02*
X390761370Y-58618840D01*
X391761370Y-59118840D02*
X391761370Y-59918840D01*
X390761408Y-60418840D02*
X391261370Y-60418840D01*
D12*
G36*
X390047170Y-59518840D02*
G01*
X389247170Y-58918840D01*
X389247170Y-60118840D01*
X390047170Y-59518840D01*
G37*
X390047170Y-59518840D02*
X389247170Y-58918840D01*
X389247170Y-60118840D01*
X390047170Y-59518840D01*
D11*
X390261370Y-59918840D02*
G75*
G03*
X390761370Y-60418840I500000J0D01*
G01*
X391261370Y-60418840D02*
G75*
G03*
X391761370Y-59918840I0J500000D01*
G01*
X391761370Y-59118840D02*
G75*
G03*
X391261370Y-58618840I-500000J0D01*
G01*
X390761370Y-58618840D02*
G75*
G03*
X390261370Y-59118840I0J-500000D01*
G01*
D10*
X365456455Y-60035570D02*
X366256455Y-60035570D01*
X366256455Y-59868904D01*
X366218360Y-59768904D01*
X366142169Y-59702237D01*
X366065979Y-59668904D01*
X365913598Y-59635570D01*
X365799312Y-59635570D01*
X365646931Y-59668904D01*
X365570740Y-59702237D01*
X365494550Y-59768904D01*
X365456455Y-59868904D01*
X365456455Y-60035570D01*
X366180264Y-59368904D02*
X366218360Y-59335570D01*
X366256455Y-59268904D01*
X366256455Y-59102237D01*
X366218360Y-59035570D01*
X366180264Y-59002237D01*
X366104074Y-58968904D01*
X366027883Y-58968904D01*
X365913598Y-59002237D01*
X365456455Y-59402237D01*
X365456455Y-58968904D01*
X393025274Y-59002173D02*
X392225274Y-59002173D01*
X392225274Y-59168840D01*
X392263370Y-59268840D01*
X392339560Y-59335506D01*
X392415750Y-59368840D01*
X392568131Y-59402173D01*
X392682417Y-59402173D01*
X392834798Y-59368840D01*
X392910989Y-59335506D01*
X392987179Y-59268840D01*
X393025274Y-59168840D01*
X393025274Y-59002173D01*
X393025274Y-60068840D02*
X393025274Y-59668840D01*
X393025274Y-59868840D02*
X392225274Y-59868840D01*
X392339560Y-59802173D01*
X392415750Y-59735506D01*
X392453846Y-59668840D01*
M02*
