G04 #@! TF.GenerationSoftware,KiCad,Pcbnew,(5.1.4-0)*
G04 #@! TF.CreationDate,2021-05-08T11:25:55-05:00*
G04 #@! TF.ProjectId,ori_bottom_plate,6f72695f-626f-4747-946f-6d5f706c6174,rev?*
G04 #@! TF.SameCoordinates,Original*
G04 #@! TF.FileFunction,Legend,Top*
G04 #@! TF.FilePolarity,Positive*
%FSLAX46Y46*%
G04 Gerber Fmt 4.6, Leading zero omitted, Abs format (unit mm)*
G04 Created by KiCad (PCBNEW (5.1.4-0)) date 2021-05-08 11:25:55*
%MOMM*%
%LPD*%
G04 APERTURE LIST*
%ADD10C,0.200000*%
%ADD11C,0.150000*%
G04 APERTURE END LIST*
D10*
X212425368Y-43812026D02*
X212425368Y-44823931D01*
X212365844Y-44942979D01*
X212306320Y-45002503D01*
X212187273Y-45062026D01*
X212008701Y-45062026D01*
X211889654Y-45002503D01*
X212425368Y-44585836D02*
X212306320Y-44645360D01*
X212068225Y-44645360D01*
X211949177Y-44585836D01*
X211889654Y-44526312D01*
X211830130Y-44407264D01*
X211830130Y-44050122D01*
X211889654Y-43931074D01*
X211949177Y-43871550D01*
X212068225Y-43812026D01*
X212306320Y-43812026D01*
X212425368Y-43871550D01*
X213020606Y-44645360D02*
X213020606Y-43812026D01*
X213020606Y-43395360D02*
X212961082Y-43454884D01*
X213020606Y-43514407D01*
X213080130Y-43454884D01*
X213020606Y-43395360D01*
X213020606Y-43514407D01*
X213437273Y-43812026D02*
X213913463Y-43812026D01*
X213615844Y-43395360D02*
X213615844Y-44466788D01*
X213675368Y-44585836D01*
X213794416Y-44645360D01*
X213913463Y-44645360D01*
X214330130Y-44645360D02*
X214330130Y-43395360D01*
X214865844Y-44645360D02*
X214865844Y-43990598D01*
X214806320Y-43871550D01*
X214687273Y-43812026D01*
X214508701Y-43812026D01*
X214389654Y-43871550D01*
X214330130Y-43931074D01*
X215996796Y-43812026D02*
X215996796Y-44645360D01*
X215461082Y-43812026D02*
X215461082Y-44466788D01*
X215520606Y-44585836D01*
X215639654Y-44645360D01*
X215818225Y-44645360D01*
X215937273Y-44585836D01*
X215996796Y-44526312D01*
X216592035Y-44645360D02*
X216592035Y-43395360D01*
X216592035Y-43871550D02*
X216711082Y-43812026D01*
X216949177Y-43812026D01*
X217068225Y-43871550D01*
X217127749Y-43931074D01*
X217187273Y-44050122D01*
X217187273Y-44407264D01*
X217127749Y-44526312D01*
X217068225Y-44585836D01*
X216949177Y-44645360D01*
X216711082Y-44645360D01*
X216592035Y-44585836D01*
X217722987Y-44526312D02*
X217782511Y-44585836D01*
X217722987Y-44645360D01*
X217663463Y-44585836D01*
X217722987Y-44526312D01*
X217722987Y-44645360D01*
X218853939Y-44585836D02*
X218734892Y-44645360D01*
X218496796Y-44645360D01*
X218377749Y-44585836D01*
X218318225Y-44526312D01*
X218258701Y-44407264D01*
X218258701Y-44050122D01*
X218318225Y-43931074D01*
X218377749Y-43871550D01*
X218496796Y-43812026D01*
X218734892Y-43812026D01*
X218853939Y-43871550D01*
X219568225Y-44645360D02*
X219449177Y-44585836D01*
X219389654Y-44526312D01*
X219330130Y-44407264D01*
X219330130Y-44050122D01*
X219389654Y-43931074D01*
X219449177Y-43871550D01*
X219568225Y-43812026D01*
X219746796Y-43812026D01*
X219865844Y-43871550D01*
X219925368Y-43931074D01*
X219984892Y-44050122D01*
X219984892Y-44407264D01*
X219925368Y-44526312D01*
X219865844Y-44585836D01*
X219746796Y-44645360D01*
X219568225Y-44645360D01*
X220520606Y-44645360D02*
X220520606Y-43812026D01*
X220520606Y-43931074D02*
X220580130Y-43871550D01*
X220699177Y-43812026D01*
X220877749Y-43812026D01*
X220996796Y-43871550D01*
X221056320Y-43990598D01*
X221056320Y-44645360D01*
X221056320Y-43990598D02*
X221115844Y-43871550D01*
X221234892Y-43812026D01*
X221413463Y-43812026D01*
X221532511Y-43871550D01*
X221592035Y-43990598D01*
X221592035Y-44645360D01*
X223080130Y-43335836D02*
X222008701Y-44942979D01*
X224032511Y-44645360D02*
X224032511Y-43395360D01*
X224032511Y-44585836D02*
X223913463Y-44645360D01*
X223675368Y-44645360D01*
X223556320Y-44585836D01*
X223496796Y-44526312D01*
X223437273Y-44407264D01*
X223437273Y-44050122D01*
X223496796Y-43931074D01*
X223556320Y-43871550D01*
X223675368Y-43812026D01*
X223913463Y-43812026D01*
X224032511Y-43871550D01*
X224627749Y-44645360D02*
X224627749Y-43812026D01*
X224627749Y-43395360D02*
X224568225Y-43454884D01*
X224627749Y-43514407D01*
X224687273Y-43454884D01*
X224627749Y-43395360D01*
X224627749Y-43514407D01*
X225699177Y-44585836D02*
X225580130Y-44645360D01*
X225342035Y-44645360D01*
X225222987Y-44585836D01*
X225163463Y-44466788D01*
X225163463Y-43990598D01*
X225222987Y-43871550D01*
X225342035Y-43812026D01*
X225580130Y-43812026D01*
X225699177Y-43871550D01*
X225758701Y-43990598D01*
X225758701Y-44109645D01*
X225163463Y-44228693D01*
X226294416Y-44645360D02*
X226294416Y-43812026D01*
X226294416Y-44050122D02*
X226353939Y-43931074D01*
X226413463Y-43871550D01*
X226532511Y-43812026D01*
X226651558Y-43812026D01*
X227068225Y-44645360D02*
X227068225Y-43812026D01*
X227068225Y-43395360D02*
X227008701Y-43454884D01*
X227068225Y-43514407D01*
X227127749Y-43454884D01*
X227068225Y-43395360D01*
X227068225Y-43514407D01*
X228199177Y-44585836D02*
X228080130Y-44645360D01*
X227842035Y-44645360D01*
X227722987Y-44585836D01*
X227663463Y-44526312D01*
X227603939Y-44407264D01*
X227603939Y-44050122D01*
X227663463Y-43931074D01*
X227722987Y-43871550D01*
X227842035Y-43812026D01*
X228080130Y-43812026D01*
X228199177Y-43871550D01*
X228734892Y-44645360D02*
X228734892Y-43395360D01*
X228853939Y-44169169D02*
X229211082Y-44645360D01*
X229211082Y-43812026D02*
X228734892Y-44288217D01*
X230282511Y-44645360D02*
X230282511Y-43395360D01*
X230282511Y-44585836D02*
X230163463Y-44645360D01*
X229925368Y-44645360D01*
X229806320Y-44585836D01*
X229746796Y-44526312D01*
X229687273Y-44407264D01*
X229687273Y-44050122D01*
X229746796Y-43931074D01*
X229806320Y-43871550D01*
X229925368Y-43812026D01*
X230163463Y-43812026D01*
X230282511Y-43871550D01*
X230877749Y-44645360D02*
X230877749Y-43812026D01*
X230877749Y-43395360D02*
X230818225Y-43454884D01*
X230877749Y-43514407D01*
X230937273Y-43454884D01*
X230877749Y-43395360D01*
X230877749Y-43514407D01*
X231949177Y-44585836D02*
X231830130Y-44645360D01*
X231592035Y-44645360D01*
X231472987Y-44585836D01*
X231413463Y-44466788D01*
X231413463Y-43990598D01*
X231472987Y-43871550D01*
X231592035Y-43812026D01*
X231830130Y-43812026D01*
X231949177Y-43871550D01*
X232008701Y-43990598D01*
X232008701Y-44109645D01*
X231413463Y-44228693D01*
X255038363Y-43395360D02*
X255276458Y-43395360D01*
X255395506Y-43454884D01*
X255514554Y-43573931D01*
X255574077Y-43812026D01*
X255574077Y-44228693D01*
X255514554Y-44466788D01*
X255395506Y-44585836D01*
X255276458Y-44645360D01*
X255038363Y-44645360D01*
X254919316Y-44585836D01*
X254800268Y-44466788D01*
X254740744Y-44228693D01*
X254740744Y-43812026D01*
X254800268Y-43573931D01*
X254919316Y-43454884D01*
X255038363Y-43395360D01*
X256109792Y-44645360D02*
X256109792Y-43812026D01*
X256109792Y-44050122D02*
X256169316Y-43931074D01*
X256228839Y-43871550D01*
X256347887Y-43812026D01*
X256466935Y-43812026D01*
X256883601Y-44645360D02*
X256883601Y-43812026D01*
X256883601Y-43395360D02*
X256824077Y-43454884D01*
X256883601Y-43514407D01*
X256943125Y-43454884D01*
X256883601Y-43395360D01*
X256883601Y-43514407D01*
X259145506Y-44645360D02*
X258728839Y-44050122D01*
X258431220Y-44645360D02*
X258431220Y-43395360D01*
X258907411Y-43395360D01*
X259026458Y-43454884D01*
X259085982Y-43514407D01*
X259145506Y-43633455D01*
X259145506Y-43812026D01*
X259085982Y-43931074D01*
X259026458Y-43990598D01*
X258907411Y-44050122D01*
X258431220Y-44050122D01*
X260157411Y-44585836D02*
X260038363Y-44645360D01*
X259800268Y-44645360D01*
X259681220Y-44585836D01*
X259621696Y-44466788D01*
X259621696Y-43990598D01*
X259681220Y-43871550D01*
X259800268Y-43812026D01*
X260038363Y-43812026D01*
X260157411Y-43871550D01*
X260216935Y-43990598D01*
X260216935Y-44109645D01*
X259621696Y-44228693D01*
X260633601Y-43812026D02*
X260931220Y-44645360D01*
X261228839Y-43812026D01*
X263312173Y-44645360D02*
X262597887Y-44645360D01*
X262955030Y-44645360D02*
X262955030Y-43395360D01*
X262835982Y-43573931D01*
X262716935Y-43692979D01*
X262597887Y-43752503D01*
X263847887Y-44526312D02*
X263907411Y-44585836D01*
X263847887Y-44645360D01*
X263788363Y-44585836D01*
X263847887Y-44526312D01*
X263847887Y-44645360D01*
X264681220Y-43395360D02*
X264800268Y-43395360D01*
X264919316Y-43454884D01*
X264978839Y-43514407D01*
X265038363Y-43633455D01*
X265097887Y-43871550D01*
X265097887Y-44169169D01*
X265038363Y-44407264D01*
X264978839Y-44526312D01*
X264919316Y-44585836D01*
X264800268Y-44645360D01*
X264681220Y-44645360D01*
X264562173Y-44585836D01*
X264502649Y-44526312D01*
X264443125Y-44407264D01*
X264383601Y-44169169D01*
X264383601Y-43871550D01*
X264443125Y-43633455D01*
X264502649Y-43514407D01*
X264562173Y-43454884D01*
X264681220Y-43395360D01*
D11*
X148031989Y-92398816D02*
X148746275Y-92398816D01*
X148889132Y-92446435D01*
X148984370Y-92541673D01*
X149031989Y-92684530D01*
X149031989Y-92779769D01*
X149031989Y-91446435D02*
X149031989Y-91922626D01*
X148031989Y-91922626D01*
X148936751Y-90541673D02*
X148984370Y-90589292D01*
X149031989Y-90732149D01*
X149031989Y-90827388D01*
X148984370Y-90970245D01*
X148889132Y-91065483D01*
X148793894Y-91113102D01*
X148603418Y-91160721D01*
X148460561Y-91160721D01*
X148270085Y-91113102D01*
X148174847Y-91065483D01*
X148079609Y-90970245D01*
X148031989Y-90827388D01*
X148031989Y-90732149D01*
X148079609Y-90589292D01*
X148127228Y-90541673D01*
X148031989Y-89827388D02*
X148746275Y-89827388D01*
X148889132Y-89875007D01*
X148984370Y-89970245D01*
X149031989Y-90113102D01*
X149031989Y-90208340D01*
X149031989Y-88875007D02*
X149031989Y-89351197D01*
X148031989Y-89351197D01*
X148936751Y-87970245D02*
X148984370Y-88017864D01*
X149031989Y-88160721D01*
X149031989Y-88255959D01*
X148984370Y-88398816D01*
X148889132Y-88494054D01*
X148793894Y-88541673D01*
X148603418Y-88589292D01*
X148460561Y-88589292D01*
X148270085Y-88541673D01*
X148174847Y-88494054D01*
X148079609Y-88398816D01*
X148031989Y-88255959D01*
X148031989Y-88160721D01*
X148079609Y-88017864D01*
X148127228Y-87970245D01*
X148031989Y-87255959D02*
X148746275Y-87255959D01*
X148889132Y-87303578D01*
X148984370Y-87398816D01*
X149031989Y-87541673D01*
X149031989Y-87636911D01*
X149031989Y-86303578D02*
X149031989Y-86779769D01*
X148031989Y-86779769D01*
X148936751Y-85398816D02*
X148984370Y-85446435D01*
X149031989Y-85589292D01*
X149031989Y-85684530D01*
X148984370Y-85827388D01*
X148889132Y-85922626D01*
X148793894Y-85970245D01*
X148603418Y-86017864D01*
X148460561Y-86017864D01*
X148270085Y-85970245D01*
X148174847Y-85922626D01*
X148079609Y-85827388D01*
X148031989Y-85684530D01*
X148031989Y-85589292D01*
X148079609Y-85446435D01*
X148127228Y-85398816D01*
X148031989Y-84684530D02*
X148746275Y-84684530D01*
X148889132Y-84732149D01*
X148984370Y-84827388D01*
X149031989Y-84970245D01*
X149031989Y-85065483D01*
X149031989Y-83732149D02*
X149031989Y-84208340D01*
X148031989Y-84208340D01*
X148936751Y-82827388D02*
X148984370Y-82875007D01*
X149031989Y-83017864D01*
X149031989Y-83113102D01*
X148984370Y-83255959D01*
X148889132Y-83351197D01*
X148793894Y-83398816D01*
X148603418Y-83446435D01*
X148460561Y-83446435D01*
X148270085Y-83398816D01*
X148174847Y-83351197D01*
X148079609Y-83255959D01*
X148031989Y-83113102D01*
X148031989Y-83017864D01*
X148079609Y-82875007D01*
X148127228Y-82827388D01*
M02*
