G04 #@! TF.GenerationSoftware,KiCad,Pcbnew,(6.0.1-0)*
G04 #@! TF.CreationDate,2022-04-26T12:35:50-05:00*
G04 #@! TF.ProjectId,plate,706c6174-652e-46b6-9963-61645f706362,rev?*
G04 #@! TF.SameCoordinates,Original*
G04 #@! TF.FileFunction,Legend,Bot*
G04 #@! TF.FilePolarity,Positive*
%FSLAX46Y46*%
G04 Gerber Fmt 4.6, Leading zero omitted, Abs format (unit mm)*
G04 Created by KiCad (PCBNEW (6.0.1-0)) date 2022-04-26 12:35:50*
%MOMM*%
%LPD*%
G01*
G04 APERTURE LIST*
%ADD10C,0.200000*%
%ADD11C,0.150000*%
G04 APERTURE END LIST*
D10*
X396209627Y-79146792D02*
X396328674Y-79087268D01*
X396388198Y-78968220D01*
X396388198Y-77896792D01*
X395197722Y-78313458D02*
X395197722Y-79146792D01*
X395733436Y-78313458D02*
X395733436Y-78968220D01*
X395673912Y-79087268D01*
X395554865Y-79146792D01*
X395376293Y-79146792D01*
X395257246Y-79087268D01*
X395197722Y-79027744D01*
X394066769Y-79087268D02*
X394185817Y-79146792D01*
X394423912Y-79146792D01*
X394542960Y-79087268D01*
X394602484Y-79027744D01*
X394662008Y-78908696D01*
X394662008Y-78551554D01*
X394602484Y-78432506D01*
X394542960Y-78372982D01*
X394423912Y-78313458D01*
X394185817Y-78313458D01*
X394066769Y-78372982D01*
X393650103Y-78313458D02*
X393352484Y-79146792D01*
X393054865Y-78313458D02*
X393352484Y-79146792D01*
X393471531Y-79444411D01*
X393531055Y-79503935D01*
X393650103Y-79563458D01*
X391804865Y-78313458D02*
X391328674Y-78313458D01*
X391626293Y-79146792D02*
X391626293Y-78075363D01*
X391566769Y-77956316D01*
X391447722Y-77896792D01*
X391328674Y-77896792D01*
X390733436Y-79146792D02*
X390852484Y-79087268D01*
X390912008Y-78968220D01*
X390912008Y-77896792D01*
X389781055Y-79087268D02*
X389900103Y-79146792D01*
X390138198Y-79146792D01*
X390257246Y-79087268D01*
X390316769Y-78968220D01*
X390316769Y-78492030D01*
X390257246Y-78372982D01*
X390138198Y-78313458D01*
X389900103Y-78313458D01*
X389781055Y-78372982D01*
X389721531Y-78492030D01*
X389721531Y-78611077D01*
X390316769Y-78730125D01*
X389304865Y-79146792D02*
X388650103Y-78313458D01*
X389304865Y-78313458D02*
X388650103Y-79146792D01*
X387221531Y-79146792D02*
X387221531Y-78313458D01*
X387221531Y-78551554D02*
X387162008Y-78432506D01*
X387102484Y-78372982D01*
X386983436Y-78313458D01*
X386864389Y-78313458D01*
X385971531Y-79087268D02*
X386090579Y-79146792D01*
X386328674Y-79146792D01*
X386447722Y-79087268D01*
X386507246Y-78968220D01*
X386507246Y-78492030D01*
X386447722Y-78372982D01*
X386328674Y-78313458D01*
X386090579Y-78313458D01*
X385971531Y-78372982D01*
X385912008Y-78492030D01*
X385912008Y-78611077D01*
X386507246Y-78730125D01*
X385495341Y-78313458D02*
X385197722Y-79146792D01*
X384900103Y-78313458D01*
X382816769Y-79146792D02*
X383531055Y-79146792D01*
X383173912Y-79146792D02*
X383173912Y-77896792D01*
X383292960Y-78075363D01*
X383412008Y-78194411D01*
X383531055Y-78253935D01*
X382281055Y-79027744D02*
X382221531Y-79087268D01*
X382281055Y-79146792D01*
X382340579Y-79087268D01*
X382281055Y-79027744D01*
X382281055Y-79146792D01*
X381804865Y-77896792D02*
X381031055Y-77896792D01*
X381447722Y-78372982D01*
X381269150Y-78372982D01*
X381150103Y-78432506D01*
X381090579Y-78492030D01*
X381031055Y-78611077D01*
X381031055Y-78908696D01*
X381090579Y-79027744D01*
X381150103Y-79087268D01*
X381269150Y-79146792D01*
X381626293Y-79146792D01*
X381745341Y-79087268D01*
X381804865Y-79027744D01*
D11*
X393953749Y-97083712D02*
X393953749Y-97797998D01*
X394001368Y-97940855D01*
X394096606Y-98036093D01*
X394239463Y-98083712D01*
X394334702Y-98083712D01*
X393001368Y-98083712D02*
X393477559Y-98083712D01*
X393477559Y-97083712D01*
X392096606Y-97988474D02*
X392144225Y-98036093D01*
X392287082Y-98083712D01*
X392382321Y-98083712D01*
X392525178Y-98036093D01*
X392620416Y-97940855D01*
X392668035Y-97845617D01*
X392715654Y-97655141D01*
X392715654Y-97512284D01*
X392668035Y-97321808D01*
X392620416Y-97226570D01*
X392525178Y-97131332D01*
X392382321Y-97083712D01*
X392287082Y-97083712D01*
X392144225Y-97131332D01*
X392096606Y-97178951D01*
X391382321Y-97083712D02*
X391382321Y-97797998D01*
X391429940Y-97940855D01*
X391525178Y-98036093D01*
X391668035Y-98083712D01*
X391763273Y-98083712D01*
X390429940Y-98083712D02*
X390906130Y-98083712D01*
X390906130Y-97083712D01*
X389525178Y-97988474D02*
X389572797Y-98036093D01*
X389715654Y-98083712D01*
X389810892Y-98083712D01*
X389953749Y-98036093D01*
X390048987Y-97940855D01*
X390096606Y-97845617D01*
X390144225Y-97655141D01*
X390144225Y-97512284D01*
X390096606Y-97321808D01*
X390048987Y-97226570D01*
X389953749Y-97131332D01*
X389810892Y-97083712D01*
X389715654Y-97083712D01*
X389572797Y-97131332D01*
X389525178Y-97178951D01*
X388810892Y-97083712D02*
X388810892Y-97797998D01*
X388858511Y-97940855D01*
X388953749Y-98036093D01*
X389096606Y-98083712D01*
X389191844Y-98083712D01*
X387858511Y-98083712D02*
X388334702Y-98083712D01*
X388334702Y-97083712D01*
X386953749Y-97988474D02*
X387001368Y-98036093D01*
X387144225Y-98083712D01*
X387239463Y-98083712D01*
X387382321Y-98036093D01*
X387477559Y-97940855D01*
X387525178Y-97845617D01*
X387572797Y-97655141D01*
X387572797Y-97512284D01*
X387525178Y-97321808D01*
X387477559Y-97226570D01*
X387382321Y-97131332D01*
X387239463Y-97083712D01*
X387144225Y-97083712D01*
X387001368Y-97131332D01*
X386953749Y-97178951D01*
X386239463Y-97083712D02*
X386239463Y-97797998D01*
X386287082Y-97940855D01*
X386382321Y-98036093D01*
X386525178Y-98083712D01*
X386620416Y-98083712D01*
X385287082Y-98083712D02*
X385763273Y-98083712D01*
X385763273Y-97083712D01*
X384382321Y-97988474D02*
X384429940Y-98036093D01*
X384572797Y-98083712D01*
X384668035Y-98083712D01*
X384810892Y-98036093D01*
X384906130Y-97940855D01*
X384953749Y-97845617D01*
X385001368Y-97655141D01*
X385001368Y-97512284D01*
X384953749Y-97321808D01*
X384906130Y-97226570D01*
X384810892Y-97131332D01*
X384668035Y-97083712D01*
X384572797Y-97083712D01*
X384429940Y-97131332D01*
X384382321Y-97178951D01*
M02*
