M48
; DRILL file {KiCad (5.1.4-0)} date Saturday, May 08, 2021 at 11:21:04 AM
; FORMAT={-:-/ absolute / inch / decimal}
; #@! TF.CreationDate,2021-05-08T11:21:04-05:00
; #@! TF.GenerationSoftware,Kicad,Pcbnew,(5.1.4-0)
; #@! TF.FileFunction,Plated,1,2,PTH
FMAT,2
INCH
T1C0.0098
T2C0.0157
T3C0.0236
T4C0.0394
T5C0.0420
T6C0.0591
T7C0.0600
T8C0.0866
%
G90
G05
T1
X2.3654Y-3.0669
X2.9209Y-2.8563
X2.9823Y-1.9636
X3.0059Y-3.4823
X3.0276Y-3.6437
X3.0276Y-3.6811
X3.1713Y-2.874
X3.1929Y-2.0059
X3.2008Y-3.5
X3.278Y-3.1481
X3.685Y-4.4626
X3.8031Y-4.4606
X3.8642Y-1.9823
X3.8955Y-4.5256
X3.9154Y-4.5531
X3.9912Y-3.7343
X4.0061Y-3.6988
X4.0459Y-2.2581
X4.063Y-2.2953
X4.0768Y-3.3012
X4.0827Y-3.435
X4.0984Y-1.8524
X4.1063Y-3.4608
X4.1666Y-3.4436
X4.2185Y-3.3406
X4.374Y-1.9724
X4.4252Y-2.2382
X4.4252Y-2.7835
X4.4882Y-2.6201
X4.4882Y-2.8681
X4.4941Y-1.9724
X4.5197Y-2.8681
X4.5512Y-2.8681
X4.5787Y-2.6201
X4.5827Y-2.8681
X4.6299Y-1.9528
X4.687Y-2.3996
X4.7028Y-1.9528
X4.7736Y-2.6045
X4.8248Y-2.9961
X4.8602Y-3.0002
X4.874Y-3.3898
X4.9488Y-3.0236
X4.9882Y-3.1457
X5.0965Y-2.7402
X5.2146Y-3.1687
X5.2146Y-3.2085
X5.2224Y-2.7126
X5.2224Y-2.8642
X5.2362Y-3.2283
X5.2382Y-3.1886
X5.2402Y-3.1488
X5.3661Y-2.8642
X5.4961Y-3.2833
X5.498Y-2.372
X5.5221Y-3.1275
X6.2701Y-3.1452
X7.0181Y-3.1618
X7.7661Y-3.1768
X8.5142Y-3.1953
X9.2622Y-3.2102
X10.0102Y-2.3291
X10.0102Y-3.222
X10.7583Y-2.3114
X10.7583Y-3.2378
X11.5063Y-2.2839
T2
X4.187Y-3.2874
X4.4567Y-2.8268
X4.6004Y-2.0965
X4.6713Y-2.5984
X4.6713Y-2.7638
X4.687Y-2.4331
X4.8248Y-3.6535
X4.8386Y-3.0295
X4.8406Y-3.185
T4
X2.4159Y-3.8853
X2.5144Y-3.8853
X2.6128Y-3.8853
X2.6128Y-2.5664
X2.4159Y-3.3145
X2.6128Y-3.3145
X2.4159Y-2.5664
X2.4159Y-3.1373
X2.5144Y-3.1373
X2.6128Y-3.1373
X2.4159Y-4.0625
X2.4159Y-4.6333
X2.5144Y-4.6333
X2.6128Y-4.0625
X2.6128Y-4.6333
X2.4159Y-1.8184
X2.4159Y-2.3893
X2.5144Y-2.3893
X2.6128Y-1.8184
X2.6128Y-2.3893
T5
X7.5252Y-2.3087
X7.5252Y-2.5087
X7.5252Y-2.7087
X7.5412Y-2.2087
X7.5412Y-2.4087
X7.5412Y-2.6087
T7
X6.2701Y-2.7415
X11.5063Y-1.9935
X11.7563Y-1.8935
X4.774Y-1.9935
X6.5201Y-2.6415
X11.0083Y-3.3895
X4.026Y-3.4896
X4.276Y-3.3896
X10.7583Y-3.4895
X3.278Y-1.9935
X3.528Y-1.8935
X4.026Y-1.9935
X4.276Y-1.8935
X2.3654Y-2.7415
X5.7721Y-1.8935
X7.0181Y-2.7415
X7.2681Y-2.6415
X4.774Y-3.4896
X5.024Y-3.3896
X3.278Y-4.2376
X3.528Y-4.1376
X5.5221Y-1.9935
X2.3654Y-4.2376
X4.026Y-4.2376
X2.6154Y-2.6415
X4.276Y-4.1376
X4.774Y-4.2376
X7.7661Y-3.4895
X10.7583Y-1.9935
X11.0083Y-1.8935
X8.0161Y-3.3895
X2.6154Y-4.1376
X5.5221Y-3.4895
X5.7721Y-3.3895
X6.2701Y-3.4895
X6.5201Y-3.3895
X5.024Y-4.1376
X10.7583Y-4.2376
X11.0083Y-4.1376
X8.7632Y-2.642
X6.2701Y-1.9935
X6.5201Y-1.8935
X7.7661Y-2.7415
X8.0161Y-2.6415
X8.5132Y-2.742
X7.7661Y-4.2376
X8.0161Y-4.1376
X5.024Y-1.8935
X9.2622Y-2.7415
X9.5122Y-2.6415
X10.0102Y-2.7415
X10.2602Y-2.6415
X7.0181Y-3.4895
X7.2681Y-3.3895
X5.5221Y-4.2376
X5.7721Y-4.1376
X8.5142Y-3.4896
X8.7642Y-3.3896
X6.2701Y-4.2376
X8.7642Y-4.1376
X11.5063Y-4.2376
X11.7563Y-4.1376
X3.278Y-2.7415
X3.528Y-2.6415
X11.5063Y-3.4895
X11.7563Y-3.3895
X7.0181Y-1.9935
X7.2681Y-1.8935
X4.026Y-2.7415
X4.276Y-2.6415
X6.5201Y-4.1376
X7.0181Y-4.2376
X7.2681Y-4.1376
X7.7661Y-1.9935
X8.0161Y-1.8935
X10.7583Y-2.7415
X11.0083Y-2.6415
X2.3654Y-1.9935
X2.6154Y-1.8935
X8.5142Y-1.9935
X8.7642Y-1.8935
X8.5142Y-4.2376
X9.2622Y-1.9935
X5.7721Y-2.6415
X11.5063Y-2.7415
X11.7563Y-2.6415
X5.5221Y-2.7415
X3.278Y-3.4896
X10.0102Y-3.4895
X9.2622Y-3.4895
X9.5122Y-3.3895
X10.2602Y-3.3895
X9.5122Y-1.8935
X2.3654Y-3.4895
X2.6154Y-3.3895
X9.2622Y-4.2376
X9.5122Y-4.1376
X3.528Y-3.3896
X10.0102Y-1.9935
X10.2602Y-1.8935
X4.774Y-2.7415
X5.024Y-2.6415
X10.0102Y-4.2376
X10.2602Y-4.1376
T8
X5.2961Y-3.9646
X2.9023Y-3.9646
X6.0441Y-2.4685
X9.7843Y-2.4685
X3.8Y-2.4685
X9.0362Y-2.4685
X9.7843Y-3.9646
X3.8Y-3.2165
X3.8Y-3.9646
X11.2803Y-3.2165
X11.2803Y-3.9646
X9.0362Y-3.9646
X5.2961Y-2.4685
X2.9023Y-2.4685
X11.2803Y-2.4685
X6.0441Y-3.9646
T3
G00X4.3787Y-1.6913
M15
G01X4.3787Y-1.7149
M16
G05
G00X4.3787Y-1.8468
M15
G01X4.3787Y-1.8901
M16
G05
G00X4.7173Y-1.6913
M15
G01X4.7173Y-1.7149
M16
G05
G00X4.7173Y-1.8468
M15
G01X4.7173Y-1.8901
M16
G05
T6
G00X2.7348Y-2.8676
M15
G01X2.7348Y-2.8164
M16
G05
G00X2.2939Y-3.6156
M15
G01X2.2939Y-3.5645
M16
G05
G00X2.7348Y-3.6156
M15
G01X2.7348Y-3.5645
M16
G05
G00X2.2939Y-2.8676
M15
G01X2.2939Y-2.8164
M16
G05
G00X2.2939Y-4.3637
M15
G01X2.2939Y-4.3125
M16
G05
G00X2.7348Y-4.3637
M15
G01X2.7348Y-4.3125
M16
G05
G00X2.2939Y-2.1196
M15
G01X2.2939Y-2.0684
M16
G05
G00X2.7348Y-2.1196
M15
G01X2.7348Y-2.0684
M16
G05
T0
M30
