G04 #@! TF.GenerationSoftware,KiCad,Pcbnew,(5.1.4-0)*
G04 #@! TF.CreationDate,2021-05-08T11:21:03-05:00*
G04 #@! TF.ProjectId,ori,6f72692e-6b69-4636-9164-5f7063625858,rev?*
G04 #@! TF.SameCoordinates,Original*
G04 #@! TF.FileFunction,Profile,NP*
%FSLAX46Y46*%
G04 Gerber Fmt 4.6, Leading zero omitted, Abs format (unit mm)*
G04 Created by KiCad (PCBNEW (5.1.4-0)) date 2021-05-08 11:21:03*
%MOMM*%
%LPD*%
G04 APERTURE LIST*
%ADD10C,0.050000*%
G04 APERTURE END LIST*
D10*
X73719646Y-118939697D02*
X58139719Y-118939689D01*
X76759646Y-115899697D02*
X76760002Y-114380000D01*
X78279998Y-114380000D02*
X78279999Y-115900002D01*
X76760002Y-106020000D02*
X76760002Y-95380000D01*
X78279998Y-95380000D02*
X78279998Y-106020000D01*
X76760000Y-87020000D02*
X76760002Y-76380000D01*
X78280000Y-76380000D02*
X78279998Y-87020000D01*
X76760002Y-68020000D02*
X76760002Y-57380000D01*
X78279998Y-57380000D02*
X78280000Y-68020000D01*
X76759646Y-47499877D02*
X76760002Y-49020000D01*
X78279999Y-47498752D02*
X78279998Y-49020000D01*
X78279998Y-49020000D02*
G75*
G02X76760002Y-49020000I-759998J0D01*
G01*
X76760002Y-76380000D02*
G75*
G02X78279998Y-76380000I759998J0D01*
G01*
X78279998Y-87020000D02*
G75*
G02X76760002Y-87020000I-759998J0D01*
G01*
X78279998Y-106020000D02*
G75*
G02X76760002Y-106020000I-759998J0D01*
G01*
X304759999Y-47501252D02*
X304759999Y-115900002D01*
X120597479Y-42956302D02*
X120597479Y-43906302D01*
X110440019Y-42956302D02*
X110440019Y-43906302D01*
X111217259Y-42179062D02*
X119820239Y-42179062D01*
X110440019Y-42956302D02*
G75*
G02X111217259Y-42179062I777240J0D01*
G01*
X119820239Y-42179062D02*
G75*
G02X120597479Y-42956302I0J-777240D01*
G01*
X55099719Y-115899689D02*
X55099703Y-47499885D01*
X58139703Y-44459885D02*
X73719646Y-44459877D01*
X58139719Y-118939689D02*
G75*
G02X55099719Y-115899689I0J3040000D01*
G01*
X55099703Y-47499885D02*
G75*
G02X58139703Y-44459885I3040000J0D01*
G01*
X76760002Y-95380000D02*
G75*
G02X78279998Y-95380000I759998J0D01*
G01*
X78279998Y-68020000D02*
G75*
G02X76760002Y-68020000I-759998J0D01*
G01*
X76760002Y-57380000D02*
G75*
G02X78279998Y-57380000I759998J0D01*
G01*
X76760002Y-114380000D02*
G75*
G02X78279998Y-114380000I759998J0D01*
G01*
X110440019Y-43906302D02*
X110440043Y-43941818D01*
X120597479Y-43941818D02*
X120597479Y-43906302D01*
X110440043Y-43941818D02*
G75*
G02X109921859Y-44460002I-518184J0D01*
G01*
X121115663Y-44460002D02*
G75*
G02X120597479Y-43941818I0J518184D01*
G01*
X304759999Y-115900002D02*
G75*
G02X301719999Y-118940002I-3040000J0D01*
G01*
X301719999Y-44461252D02*
G75*
G02X304759999Y-47501252I0J-3040000D01*
G01*
X81319999Y-118940002D02*
G75*
G02X78279999Y-115900002I0J3040000D01*
G01*
X78279999Y-47498752D02*
G75*
G02X81319999Y-44458752I3040000J0D01*
G01*
X73719646Y-44459877D02*
G75*
G02X76759646Y-47499877I0J-3040000D01*
G01*
X76759646Y-115899697D02*
G75*
G02X73719646Y-118939697I-3040000J0D01*
G01*
X109921859Y-44460002D02*
X81319999Y-44458752D01*
X81319999Y-118940002D02*
X301719999Y-118940002D01*
X301719999Y-44461252D02*
X121115663Y-44460002D01*
M02*
