G04 #@! TF.GenerationSoftware,KiCad,Pcbnew,(6.0.5-0)*
G04 #@! TF.CreationDate,2022-06-06T23:04:21-05:00*
G04 #@! TF.ProjectId,pcb,7063622e-6b69-4636-9164-5f7063625858,rev?*
G04 #@! TF.SameCoordinates,Original*
G04 #@! TF.FileFunction,Soldermask,Top*
G04 #@! TF.FilePolarity,Negative*
%FSLAX46Y46*%
G04 Gerber Fmt 4.6, Leading zero omitted, Abs format (unit mm)*
G04 Created by KiCad (PCBNEW (6.0.5-0)) date 2022-06-06 23:04:21*
%MOMM*%
%LPD*%
G01*
G04 APERTURE LIST*
%ADD10C,1.750000*%
%ADD11C,3.000000*%
%ADD12C,3.987800*%
%ADD13C,3.800000*%
%ADD14R,2.000000X2.000000*%
%ADD15C,2.000000*%
%ADD16R,2.000000X3.200000*%
%ADD17C,1.701800*%
%ADD18C,2.540000*%
%ADD19O,1.700000X1.700000*%
%ADD20R,1.700000X1.700000*%
%ADD21C,0.650000*%
%ADD22O,1.300000X2.400000*%
%ADD23O,1.300000X1.900000*%
G04 APERTURE END LIST*
D10*
X119910225Y-53193950D03*
D11*
X127530225Y-48113950D03*
X121180225Y-50653950D03*
D10*
X130070225Y-53193950D03*
D12*
X124990225Y-53193950D03*
D11*
X203730225Y-48113950D03*
D10*
X196110225Y-53193950D03*
D11*
X197380225Y-50653950D03*
D12*
X201190225Y-53193950D03*
D10*
X206270225Y-53193950D03*
X177060225Y-53193950D03*
X187220225Y-53193950D03*
D11*
X184680225Y-48113950D03*
X178330225Y-50653950D03*
D12*
X182140225Y-53193950D03*
D10*
X168170225Y-53193950D03*
D12*
X163090225Y-53193950D03*
D10*
X158010225Y-53193950D03*
D11*
X159280225Y-50653950D03*
X165630225Y-48113950D03*
D12*
X86890225Y-53193950D03*
D10*
X81810225Y-53193950D03*
D11*
X83080225Y-50653950D03*
X89430225Y-48113950D03*
D10*
X91970225Y-53193950D03*
D12*
X220240225Y-53193950D03*
D10*
X215160225Y-53193950D03*
D11*
X216430225Y-50653950D03*
D10*
X225320225Y-53193950D03*
D11*
X222780225Y-48113950D03*
D12*
X239290225Y-53193950D03*
D10*
X234210225Y-53193950D03*
X244370225Y-53193950D03*
D11*
X241830225Y-48113950D03*
X235480225Y-50653950D03*
D10*
X91970225Y-72243950D03*
X81810225Y-72243950D03*
D11*
X83080225Y-69703950D03*
X89430225Y-67163950D03*
D12*
X86890225Y-72243950D03*
D11*
X102130225Y-69703950D03*
X108480225Y-67163950D03*
D12*
X105940225Y-72243950D03*
D10*
X100860225Y-72243950D03*
X111020225Y-72243950D03*
X138965399Y-72243950D03*
D12*
X144045399Y-72243950D03*
D10*
X149125399Y-72243950D03*
D11*
X146585399Y-67163950D03*
X140235399Y-69703950D03*
X273580225Y-50653950D03*
D10*
X282470225Y-53193950D03*
D11*
X279930225Y-48113950D03*
D12*
X277390225Y-53193950D03*
D10*
X272310225Y-53193950D03*
X158010225Y-72243950D03*
D12*
X163090225Y-72243950D03*
D10*
X168170225Y-72243950D03*
D11*
X159280225Y-69703950D03*
X165630225Y-67163950D03*
D10*
X177060225Y-72243950D03*
D11*
X184680225Y-67163950D03*
D10*
X187220225Y-72243950D03*
D11*
X178330225Y-69703950D03*
D12*
X182140225Y-72243950D03*
X201190225Y-72243950D03*
D10*
X196110225Y-72243950D03*
D11*
X203730225Y-67163950D03*
X197380225Y-69703950D03*
D10*
X206270225Y-72243950D03*
D12*
X105940225Y-110343950D03*
D10*
X100860225Y-110343950D03*
D11*
X102130225Y-107803950D03*
D10*
X111020225Y-110343950D03*
D11*
X108480225Y-105263950D03*
D12*
X124990225Y-110343950D03*
D11*
X121180225Y-107803950D03*
D10*
X119910225Y-110343950D03*
D11*
X127530225Y-105263950D03*
D10*
X130070225Y-110343950D03*
X149120225Y-110343950D03*
D12*
X144040225Y-110343950D03*
D11*
X146580225Y-105263950D03*
D10*
X138960225Y-110343950D03*
D11*
X140230225Y-107803950D03*
X159280225Y-107803950D03*
D10*
X168170225Y-110343950D03*
D12*
X163090225Y-110343950D03*
D11*
X165630225Y-105263950D03*
D10*
X158010225Y-110343950D03*
X177060225Y-110343950D03*
D11*
X178330225Y-107803950D03*
D10*
X187220225Y-110343950D03*
D12*
X182140225Y-110343950D03*
D11*
X184680225Y-105263950D03*
D10*
X225320225Y-110343950D03*
D11*
X216430225Y-107803950D03*
D12*
X220240225Y-110343950D03*
D10*
X215160225Y-110343950D03*
D11*
X222780225Y-105263950D03*
X235480225Y-107803950D03*
D10*
X244370225Y-110343950D03*
X234210225Y-110343950D03*
D11*
X241830225Y-105263950D03*
D12*
X239290225Y-110343950D03*
X258340225Y-110343950D03*
D11*
X254530225Y-107803950D03*
D10*
X253260225Y-110343950D03*
D11*
X260880225Y-105263950D03*
D10*
X263420225Y-110343950D03*
D11*
X279930225Y-105263950D03*
D12*
X277390225Y-110343950D03*
D11*
X273580225Y-107803950D03*
D10*
X272310225Y-110343950D03*
X282470225Y-110343950D03*
X196110225Y-110343950D03*
D11*
X203730225Y-105263950D03*
X197380225Y-107803950D03*
D12*
X201190225Y-110343950D03*
D10*
X206270225Y-110343950D03*
X282470225Y-91293950D03*
D11*
X279930225Y-86213950D03*
D12*
X277390225Y-91293950D03*
D11*
X273580225Y-88753950D03*
D10*
X272310225Y-91293950D03*
D11*
X254530225Y-88753950D03*
D12*
X258340225Y-91293950D03*
D11*
X260880225Y-86213950D03*
D10*
X263420225Y-91293950D03*
X253260225Y-91293950D03*
D11*
X222780225Y-86213950D03*
D10*
X215160225Y-91293950D03*
D12*
X220240225Y-91293950D03*
D10*
X225320225Y-91293950D03*
D11*
X216430225Y-88753950D03*
D10*
X187220225Y-91293950D03*
X177060225Y-91293950D03*
D11*
X178330225Y-88753950D03*
D12*
X182140225Y-91293950D03*
D11*
X184680225Y-86213950D03*
X146580225Y-86213950D03*
D12*
X144040225Y-91293950D03*
D10*
X149120225Y-91293950D03*
X138960225Y-91293950D03*
D11*
X140230225Y-88753950D03*
D10*
X81810225Y-91293950D03*
D12*
X86890225Y-91293950D03*
D11*
X89430225Y-86213950D03*
X83080225Y-88753950D03*
D10*
X91970225Y-91293950D03*
X168170225Y-91293950D03*
D12*
X163090225Y-91293950D03*
D10*
X158010225Y-91293950D03*
D11*
X159280225Y-88753950D03*
X165630225Y-86213950D03*
X298980225Y-67163950D03*
D12*
X296440225Y-72243950D03*
D10*
X291360225Y-72243950D03*
D11*
X292630225Y-69703950D03*
D10*
X301520225Y-72243950D03*
D11*
X128800225Y-93833950D03*
D10*
X130070225Y-91293950D03*
D11*
X122450225Y-96373950D03*
D12*
X124990225Y-91293950D03*
D10*
X119910225Y-91293950D03*
X100860225Y-91293950D03*
D12*
X105940225Y-91293950D03*
D11*
X103400225Y-96373950D03*
X109750225Y-93833950D03*
D10*
X111020225Y-91293950D03*
D11*
X254530225Y-69703950D03*
D10*
X263420225Y-72243950D03*
D12*
X258340225Y-72243950D03*
D10*
X253260225Y-72243950D03*
D11*
X260880225Y-67163950D03*
D10*
X244370225Y-72243950D03*
D11*
X235480225Y-69703950D03*
D12*
X239290225Y-72243950D03*
D10*
X234210225Y-72243950D03*
D11*
X241830225Y-67163950D03*
D10*
X272310225Y-72243950D03*
D11*
X273580225Y-69703950D03*
D10*
X282470225Y-72243950D03*
D11*
X279930225Y-67163950D03*
D12*
X277390225Y-72243950D03*
D11*
X298980225Y-105263950D03*
X292630225Y-107803950D03*
D12*
X296440225Y-110343950D03*
D10*
X301520225Y-110343950D03*
X291360225Y-110343950D03*
X301520225Y-91293950D03*
D12*
X296440225Y-91293950D03*
D11*
X298980225Y-86213950D03*
X292630225Y-88753950D03*
D10*
X291360225Y-91293950D03*
D11*
X292630225Y-50653950D03*
D10*
X301520225Y-53193950D03*
D12*
X296440225Y-53193950D03*
D10*
X291360225Y-53193950D03*
D11*
X298980225Y-48113950D03*
D10*
X111020225Y-53193950D03*
X100860225Y-53193950D03*
D11*
X108480225Y-48113950D03*
D12*
X105940225Y-53193950D03*
D11*
X102130225Y-50653950D03*
D10*
X149120225Y-53193950D03*
D11*
X140230225Y-50653950D03*
D10*
X138960225Y-53193950D03*
D12*
X144040225Y-53193950D03*
D11*
X146580225Y-48113950D03*
D12*
X201190225Y-91293950D03*
D11*
X197380225Y-88753950D03*
D10*
X206270225Y-91293950D03*
X196110225Y-91293950D03*
D11*
X203730225Y-86213950D03*
D12*
X239290225Y-91293950D03*
D10*
X234210225Y-91293950D03*
D11*
X241830225Y-86213950D03*
D10*
X244370225Y-91293950D03*
D11*
X235480225Y-88753950D03*
D12*
X86890225Y-110343950D03*
D11*
X89430225Y-105263950D03*
D10*
X91970225Y-110343950D03*
X81810225Y-110343950D03*
D11*
X83080225Y-107803950D03*
D10*
X263420225Y-53193950D03*
X253260225Y-53193950D03*
D12*
X258340225Y-53193950D03*
D11*
X260880225Y-48113950D03*
X254530225Y-50653950D03*
D10*
X119910225Y-72243950D03*
D11*
X121180225Y-69703950D03*
X127530225Y-67163950D03*
D12*
X124990225Y-72243950D03*
D10*
X130070225Y-72243950D03*
D11*
X216430225Y-69703950D03*
D12*
X220240225Y-72243950D03*
D10*
X225320225Y-72243950D03*
D11*
X222780225Y-67163950D03*
D10*
X215160225Y-72243950D03*
D13*
X286915401Y-62718966D03*
X102368371Y-62718966D03*
D14*
X317787529Y-60566658D03*
D15*
X322787529Y-60566658D03*
X320287529Y-60566658D03*
D16*
X325887529Y-53066658D03*
X314687529Y-53066658D03*
D15*
X322787529Y-46066658D03*
X317787529Y-46066658D03*
D11*
X316442929Y-107804006D03*
D12*
X320252929Y-110344006D03*
D10*
X325332929Y-110344006D03*
X315172929Y-110344006D03*
D11*
X322792929Y-105264006D03*
D17*
X325332929Y-53193958D03*
D12*
X320252929Y-53193958D03*
D17*
X315172929Y-53193958D03*
D18*
X316442929Y-50653958D03*
X322792929Y-48113958D03*
D10*
X315172929Y-91293990D03*
X325332929Y-91293990D03*
D11*
X322792929Y-86213990D03*
D12*
X320252929Y-91293990D03*
D11*
X316442929Y-88753990D03*
D13*
X286915401Y-100818998D03*
X96415241Y-100818998D03*
X308346669Y-53193958D03*
D11*
X322792929Y-67163974D03*
D12*
X320252929Y-72243974D03*
D10*
X315172929Y-72243974D03*
X325332929Y-72243974D03*
D11*
X316442929Y-69703974D03*
D19*
X191665313Y-64901767D03*
X191665313Y-54741767D03*
X191665313Y-59821767D03*
X191665313Y-62361767D03*
X191665313Y-57281767D03*
D20*
X191665313Y-52201767D03*
D21*
X93549825Y-42763877D03*
X99329825Y-42763877D03*
D22*
X92139825Y-43314877D03*
X100739825Y-43314877D03*
D23*
X100739825Y-39114877D03*
X92139825Y-39114877D03*
M02*
