G04 #@! TF.GenerationSoftware,KiCad,Pcbnew,(6.0.5-0)*
G04 #@! TF.CreationDate,2022-06-06T23:04:22-05:00*
G04 #@! TF.ProjectId,pcb,7063622e-6b69-4636-9164-5f7063625858,rev?*
G04 #@! TF.SameCoordinates,Original*
G04 #@! TF.FileFunction,Profile,NP*
%FSLAX46Y46*%
G04 Gerber Fmt 4.6, Leading zero omitted, Abs format (unit mm)*
G04 Created by KiCad (PCBNEW (6.0.5-0)) date 2022-06-06 23:04:22*
%MOMM*%
%LPD*%
G01*
G04 APERTURE LIST*
G04 #@! TA.AperFunction,Profile*
%ADD10C,0.050000*%
G04 #@! TD*
G04 APERTURE END LIST*
D10*
X80341790Y-44264230D02*
G75*
G03*
X77960530Y-46645507I10J-2381270D01*
G01*
X101773050Y-38311125D02*
X101773050Y-43668942D01*
X329182625Y-116892493D02*
X329182676Y-46645522D01*
X91652729Y-37715816D02*
G75*
G03*
X91057416Y-38311125I-29J-595284D01*
G01*
X326801365Y-119273753D02*
X308941990Y-119273709D01*
X302988844Y-119273704D02*
G75*
G03*
X305370104Y-116892441I-44J2381304D01*
G01*
X306560730Y-114511197D02*
G75*
G03*
X305370104Y-114511197I-595313J0D01*
G01*
X306560730Y-49026767D02*
X306560730Y-46645515D01*
X326801416Y-44264262D02*
X308941990Y-44264255D01*
X302988844Y-44264247D02*
X102368363Y-44264255D01*
X101772988Y-38311125D02*
G75*
G03*
X101177737Y-37715812I-595288J25D01*
G01*
X305370104Y-114511197D02*
X305370104Y-116892441D01*
X308941990Y-44264230D02*
G75*
G03*
X306560730Y-46645515I110J-2381370D01*
G01*
X90462103Y-44264255D02*
X80341790Y-44264247D01*
X305370104Y-46645507D02*
X305370104Y-49026767D01*
X101773045Y-43668942D02*
G75*
G03*
X102368363Y-44264255I595355J42D01*
G01*
X207738763Y-119273693D02*
X302988844Y-119273701D01*
X306560730Y-114511197D02*
X306560730Y-116892449D01*
X80341782Y-119273701D02*
X199404383Y-119273693D01*
X91652729Y-37715812D02*
X101177737Y-37715812D01*
X306560791Y-116892449D02*
G75*
G03*
X308941990Y-119273709I2381309J49D01*
G01*
X305370104Y-49026767D02*
G75*
G03*
X306560730Y-49026767I595313J0D01*
G01*
X207738763Y-119273693D02*
G75*
G03*
X199404383Y-119273693I-4167190J-2381252D01*
G01*
X329182638Y-46645522D02*
G75*
G03*
X326801416Y-44264262I-2381338J-78D01*
G01*
X77960530Y-46645507D02*
X77960522Y-116892441D01*
X77960499Y-116892441D02*
G75*
G03*
X80341782Y-119273701I2381301J41D01*
G01*
X90462103Y-44264216D02*
G75*
G03*
X91057416Y-43668942I-3J595316D01*
G01*
X91057416Y-43668942D02*
X91057416Y-38311125D01*
X305370053Y-46645507D02*
G75*
G03*
X302988844Y-44264247I-2381253J7D01*
G01*
X326801365Y-119273725D02*
G75*
G03*
X329182625Y-116892493I-65J2381325D01*
G01*
M02*
