M48
; DRILL file {KiCad (6.0.5-0)} date Monday, June 06, 2022 at 11:04:23 PM
; FORMAT={-:-/ absolute / inch / decimal}
; #@! TF.CreationDate,2022-06-06T23:04:23-05:00
; #@! TF.GenerationSoftware,Kicad,Pcbnew,(6.0.5-0)
; #@! TF.FileFunction,Plated,1,2,PTH
FMAT,2
INCH
; #@! TA.AperFunction,Plated,PTH,ViaDrill
T1C0.0138
; #@! TA.AperFunction,Plated,PTH,ViaDrill
T2C0.0157
; #@! TA.AperFunction,Plated,PTH,ViaDrill
T3C0.0197
; #@! TA.AperFunction,Plated,PTH,ComponentDrill
T4C0.0236
; #@! TA.AperFunction,Plated,PTH,ComponentDrill
T5C0.0320
; #@! TA.AperFunction,Plated,PTH,ComponentDrill
T6C0.0394
; #@! TA.AperFunction,Plated,PTH,ComponentDrill
T7C0.0591
; #@! TA.AperFunction,Plated,PTH,ComponentDrill
T8C0.0600
; #@! TA.AperFunction,Plated,PTH,ComponentDrill
T9C0.0866
%
G90
G05
T1
X3.1419Y-3.1119
X3.3343Y-2.2439
X3.5705Y-2.2714
X3.7471Y-1.7919
X3.8658Y-1.7911
X3.8691Y-3.1139
X3.8919Y-3.0323
X3.8937Y-4.1299
X3.9248Y-2.2163
X4.038Y-3.2035
X4.038Y-3.4437
X4.164Y-2.6248
X4.2437Y-3.0258
X4.3146Y-2.9747
X4.315Y-3.5359
X4.3583Y-2.5591
X4.3729Y-4.0523
X4.374Y-3.8819
X4.4209Y-2.8856
X4.5005Y-3.9021
X4.5633Y-2.1689
X4.5862Y-1.8487
X4.6414Y-2.8644
X4.6654Y-2.3082
X4.7008Y-3.9306
X4.7008Y-4.0276
X4.7034Y-2.5539
X4.7126Y-2.2205
X4.7476Y-2.2202
X4.878Y-3.4252
X4.937Y-2.5551
X5.2913Y-3.6969
X5.3097Y-1.8531
X5.3142Y-4.0893
X5.3142Y-2.893
X5.3142Y-3.33
X5.9445Y-3.7188
X6.0587Y-3.7188
X6.0813Y-1.861
X6.0813Y-4.1011
X6.0815Y-2.8844
X6.0815Y-3.3415
X6.8097Y-1.8689
X6.8097Y-2.8925
X6.8097Y-3.357
X6.8097Y-4.0933
X7.5774Y-2.8767
X7.5774Y-3.3413
X7.5774Y-4.0893
X7.7073Y-2.1838
X8.3254Y-1.861
X8.3254Y-2.8767
X8.3254Y-3.3649
X8.3254Y-4.0893
X9.0774Y-1.857
X9.0774Y-2.8767
X9.0774Y-3.361
X9.0774Y-4.0854
X9.8254Y-1.8649
X9.8254Y-2.8807
X9.8254Y-3.3689
X9.8254Y-4.0893
X10.5892Y-1.8492
X10.5892Y-2.8807
X10.5892Y-3.3492
X10.5892Y-4.0933
X11.3254Y-1.861
X11.3333Y-2.8885
X11.3333Y-3.357
X11.3923Y-4.0696
X12.2742Y-2.613
X12.2742Y-3.3728
X12.2742Y-4.113
X12.3412Y-1.9555
T2
X3.5744Y-2.7581
T3
X4.1847Y-3.1439
X4.1847Y-3.3999
X4.2949Y-2.7817
X4.3894Y-3.5101
X4.7244Y-3.4961
X4.9051Y-3.081
X5.2791Y-2.5155
X5.2792Y-2.325
X7.3057Y-2.2977
X7.4917Y-2.11
T5
X7.5459Y-2.0552
X7.5459Y-2.1552
X7.5459Y-2.2552
X7.5459Y-2.3552
X7.5459Y-2.4552
X7.5459Y-2.5552
T6
X12.5113Y-1.8136
X12.5113Y-2.3845
X12.6097Y-2.3845
X12.7082Y-1.8136
X12.7082Y-2.3845
T8
X12.4584Y-1.9943
X12.7084Y-1.8943
T9
X3.7959Y-3.9693
X4.0303Y-2.4693
X11.2959Y-2.4693
X11.2959Y-3.9693
X12.1396Y-2.0943
T4
G00X3.6276Y-1.5281
M15
G01X3.6276Y-1.5518
M16
G05
G00X3.6276Y-1.6837
M15
G01X3.6276Y-1.727
M16
G05
G00X3.9661Y-1.5281
M15
G01X3.9661Y-1.5518
M16
G05
G00X3.9661Y-1.6837
M15
G01X3.9661Y-1.727
M16
G05
T7
G00X12.3893Y-2.1148
M15
G01X12.3893Y-2.0636
M16
G05
G00X12.8302Y-2.1148
M15
G01X12.8302Y-2.0636
M16
G05
T0
M30
