G04 #@! TF.GenerationSoftware,KiCad,Pcbnew,(5.1.10-1-10_14)*
G04 #@! TF.CreationDate,2021-08-22T14:32:33-05:00*
G04 #@! TF.ProjectId,ori_top_plate,6f72695f-746f-4705-9f70-6c6174652e6b,rev?*
G04 #@! TF.SameCoordinates,Original*
G04 #@! TF.FileFunction,Legend,Bot*
G04 #@! TF.FilePolarity,Positive*
%FSLAX46Y46*%
G04 Gerber Fmt 4.6, Leading zero omitted, Abs format (unit mm)*
G04 Created by KiCad (PCBNEW (5.1.10-1-10_14)) date 2021-08-22 14:32:33*
%MOMM*%
%LPD*%
G01*
G04 APERTURE LIST*
%ADD10C,0.150000*%
%ADD11C,0.200000*%
%ADD12C,0.100000*%
G04 APERTURE END LIST*
D10*
X246317561Y-97083800D02*
X246317561Y-97798086D01*
X246365180Y-97940943D01*
X246460418Y-98036181D01*
X246603275Y-98083800D01*
X246698514Y-98083800D01*
X245365180Y-98083800D02*
X245841371Y-98083800D01*
X245841371Y-97083800D01*
X244460418Y-97988562D02*
X244508037Y-98036181D01*
X244650894Y-98083800D01*
X244746133Y-98083800D01*
X244888990Y-98036181D01*
X244984228Y-97940943D01*
X245031847Y-97845705D01*
X245079466Y-97655229D01*
X245079466Y-97512372D01*
X245031847Y-97321896D01*
X244984228Y-97226658D01*
X244888990Y-97131420D01*
X244746133Y-97083800D01*
X244650894Y-97083800D01*
X244508037Y-97131420D01*
X244460418Y-97179039D01*
X243746133Y-97083800D02*
X243746133Y-97798086D01*
X243793752Y-97940943D01*
X243888990Y-98036181D01*
X244031847Y-98083800D01*
X244127085Y-98083800D01*
X242793752Y-98083800D02*
X243269942Y-98083800D01*
X243269942Y-97083800D01*
X241888990Y-97988562D02*
X241936609Y-98036181D01*
X242079466Y-98083800D01*
X242174704Y-98083800D01*
X242317561Y-98036181D01*
X242412799Y-97940943D01*
X242460418Y-97845705D01*
X242508037Y-97655229D01*
X242508037Y-97512372D01*
X242460418Y-97321896D01*
X242412799Y-97226658D01*
X242317561Y-97131420D01*
X242174704Y-97083800D01*
X242079466Y-97083800D01*
X241936609Y-97131420D01*
X241888990Y-97179039D01*
X241174704Y-97083800D02*
X241174704Y-97798086D01*
X241222323Y-97940943D01*
X241317561Y-98036181D01*
X241460418Y-98083800D01*
X241555656Y-98083800D01*
X240222323Y-98083800D02*
X240698514Y-98083800D01*
X240698514Y-97083800D01*
X239317561Y-97988562D02*
X239365180Y-98036181D01*
X239508037Y-98083800D01*
X239603275Y-98083800D01*
X239746133Y-98036181D01*
X239841371Y-97940943D01*
X239888990Y-97845705D01*
X239936609Y-97655229D01*
X239936609Y-97512372D01*
X239888990Y-97321896D01*
X239841371Y-97226658D01*
X239746133Y-97131420D01*
X239603275Y-97083800D01*
X239508037Y-97083800D01*
X239365180Y-97131420D01*
X239317561Y-97179039D01*
X238603275Y-97083800D02*
X238603275Y-97798086D01*
X238650894Y-97940943D01*
X238746133Y-98036181D01*
X238888990Y-98083800D01*
X238984228Y-98083800D01*
X237650894Y-98083800D02*
X238127085Y-98083800D01*
X238127085Y-97083800D01*
X236746133Y-97988562D02*
X236793752Y-98036181D01*
X236936609Y-98083800D01*
X237031847Y-98083800D01*
X237174704Y-98036181D01*
X237269942Y-97940943D01*
X237317561Y-97845705D01*
X237365180Y-97655229D01*
X237365180Y-97512372D01*
X237317561Y-97321896D01*
X237269942Y-97226658D01*
X237174704Y-97131420D01*
X237031847Y-97083800D01*
X236936609Y-97083800D01*
X236793752Y-97131420D01*
X236746133Y-97179039D01*
D11*
X377697507Y-97600475D02*
X376685602Y-97600475D01*
X376566554Y-97659999D01*
X376507030Y-97719523D01*
X376447507Y-97838570D01*
X376447507Y-98017142D01*
X376507030Y-98136189D01*
X376923697Y-97600475D02*
X376864173Y-97719523D01*
X376864173Y-97957618D01*
X376923697Y-98076666D01*
X376983221Y-98136189D01*
X377102269Y-98195713D01*
X377459411Y-98195713D01*
X377578459Y-98136189D01*
X377637983Y-98076666D01*
X377697507Y-97957618D01*
X377697507Y-97719523D01*
X377637983Y-97600475D01*
X376864173Y-97005237D02*
X377697507Y-97005237D01*
X378114173Y-97005237D02*
X378054650Y-97064761D01*
X377995126Y-97005237D01*
X378054650Y-96945713D01*
X378114173Y-97005237D01*
X377995126Y-97005237D01*
X377697507Y-96588570D02*
X377697507Y-96112380D01*
X378114173Y-96409999D02*
X377042745Y-96409999D01*
X376923697Y-96350475D01*
X376864173Y-96231428D01*
X376864173Y-96112380D01*
X376864173Y-95695713D02*
X378114173Y-95695713D01*
X376864173Y-95159999D02*
X377518935Y-95159999D01*
X377637983Y-95219523D01*
X377697507Y-95338570D01*
X377697507Y-95517142D01*
X377637983Y-95636189D01*
X377578459Y-95695713D01*
X377697507Y-94029047D02*
X376864173Y-94029047D01*
X377697507Y-94564761D02*
X377042745Y-94564761D01*
X376923697Y-94505237D01*
X376864173Y-94386189D01*
X376864173Y-94207618D01*
X376923697Y-94088570D01*
X376983221Y-94029047D01*
X376864173Y-93433808D02*
X378114173Y-93433808D01*
X377637983Y-93433808D02*
X377697507Y-93314761D01*
X377697507Y-93076666D01*
X377637983Y-92957618D01*
X377578459Y-92898094D01*
X377459411Y-92838570D01*
X377102269Y-92838570D01*
X376983221Y-92898094D01*
X376923697Y-92957618D01*
X376864173Y-93076666D01*
X376864173Y-93314761D01*
X376923697Y-93433808D01*
X376983221Y-92302856D02*
X376923697Y-92243332D01*
X376864173Y-92302856D01*
X376923697Y-92362380D01*
X376983221Y-92302856D01*
X376864173Y-92302856D01*
X376923697Y-91171904D02*
X376864173Y-91290951D01*
X376864173Y-91529047D01*
X376923697Y-91648094D01*
X376983221Y-91707618D01*
X377102269Y-91767142D01*
X377459411Y-91767142D01*
X377578459Y-91707618D01*
X377637983Y-91648094D01*
X377697507Y-91529047D01*
X377697507Y-91290951D01*
X377637983Y-91171904D01*
X376864173Y-90457618D02*
X376923697Y-90576666D01*
X376983221Y-90636189D01*
X377102269Y-90695713D01*
X377459411Y-90695713D01*
X377578459Y-90636189D01*
X377637983Y-90576666D01*
X377697507Y-90457618D01*
X377697507Y-90279047D01*
X377637983Y-90159999D01*
X377578459Y-90100475D01*
X377459411Y-90040951D01*
X377102269Y-90040951D01*
X376983221Y-90100475D01*
X376923697Y-90159999D01*
X376864173Y-90279047D01*
X376864173Y-90457618D01*
X376864173Y-89505237D02*
X377697507Y-89505237D01*
X377578459Y-89505237D02*
X377637983Y-89445713D01*
X377697507Y-89326666D01*
X377697507Y-89148094D01*
X377637983Y-89029047D01*
X377518935Y-88969523D01*
X376864173Y-88969523D01*
X377518935Y-88969523D02*
X377637983Y-88909999D01*
X377697507Y-88790951D01*
X377697507Y-88612380D01*
X377637983Y-88493332D01*
X377518935Y-88433808D01*
X376864173Y-88433808D01*
X378173697Y-86945713D02*
X376566554Y-88017142D01*
X376864173Y-85993332D02*
X378114173Y-85993332D01*
X376923697Y-85993332D02*
X376864173Y-86112380D01*
X376864173Y-86350475D01*
X376923697Y-86469523D01*
X376983221Y-86529047D01*
X377102269Y-86588570D01*
X377459411Y-86588570D01*
X377578459Y-86529047D01*
X377637983Y-86469523D01*
X377697507Y-86350475D01*
X377697507Y-86112380D01*
X377637983Y-85993332D01*
X376864173Y-85398094D02*
X377697507Y-85398094D01*
X378114173Y-85398094D02*
X378054650Y-85457618D01*
X377995126Y-85398094D01*
X378054650Y-85338570D01*
X378114173Y-85398094D01*
X377995126Y-85398094D01*
X376923697Y-84326666D02*
X376864173Y-84445713D01*
X376864173Y-84683808D01*
X376923697Y-84802856D01*
X377042745Y-84862380D01*
X377518935Y-84862380D01*
X377637983Y-84802856D01*
X377697507Y-84683808D01*
X377697507Y-84445713D01*
X377637983Y-84326666D01*
X377518935Y-84267142D01*
X377399888Y-84267142D01*
X377280840Y-84862380D01*
X376864173Y-83731428D02*
X377697507Y-83731428D01*
X377459411Y-83731428D02*
X377578459Y-83671904D01*
X377637983Y-83612380D01*
X377697507Y-83493332D01*
X377697507Y-83374285D01*
X376864173Y-82957618D02*
X377697507Y-82957618D01*
X378114173Y-82957618D02*
X378054650Y-83017142D01*
X377995126Y-82957618D01*
X378054650Y-82898094D01*
X378114173Y-82957618D01*
X377995126Y-82957618D01*
X376923697Y-81826666D02*
X376864173Y-81945713D01*
X376864173Y-82183808D01*
X376923697Y-82302856D01*
X376983221Y-82362380D01*
X377102269Y-82421904D01*
X377459411Y-82421904D01*
X377578459Y-82362380D01*
X377637983Y-82302856D01*
X377697507Y-82183808D01*
X377697507Y-81945713D01*
X377637983Y-81826666D01*
X376864173Y-81290951D02*
X378114173Y-81290951D01*
X377340364Y-81171904D02*
X376864173Y-80814761D01*
X377697507Y-80814761D02*
X377221316Y-81290951D01*
X376864173Y-79743332D02*
X378114173Y-79743332D01*
X376923697Y-79743332D02*
X376864173Y-79862380D01*
X376864173Y-80100475D01*
X376923697Y-80219523D01*
X376983221Y-80279047D01*
X377102269Y-80338570D01*
X377459411Y-80338570D01*
X377578459Y-80279047D01*
X377637983Y-80219523D01*
X377697507Y-80100475D01*
X377697507Y-79862380D01*
X377637983Y-79743332D01*
X376864173Y-79148094D02*
X377697507Y-79148094D01*
X378114173Y-79148094D02*
X378054650Y-79207618D01*
X377995126Y-79148094D01*
X378054650Y-79088570D01*
X378114173Y-79148094D01*
X377995126Y-79148094D01*
X376923697Y-78076666D02*
X376864173Y-78195713D01*
X376864173Y-78433808D01*
X376923697Y-78552856D01*
X377042745Y-78612380D01*
X377518935Y-78612380D01*
X377637983Y-78552856D01*
X377697507Y-78433808D01*
X377697507Y-78195713D01*
X377637983Y-78076666D01*
X377518935Y-78017142D01*
X377399888Y-78017142D01*
X377280840Y-78612380D01*
X378114173Y-73937396D02*
X378114173Y-73699301D01*
X378054650Y-73580253D01*
X377935602Y-73461205D01*
X377697507Y-73401682D01*
X377280840Y-73401682D01*
X377042745Y-73461205D01*
X376923697Y-73580253D01*
X376864173Y-73699301D01*
X376864173Y-73937396D01*
X376923697Y-74056444D01*
X377042745Y-74175491D01*
X377280840Y-74235015D01*
X377697507Y-74235015D01*
X377935602Y-74175491D01*
X378054650Y-74056444D01*
X378114173Y-73937396D01*
X376864173Y-72865967D02*
X377697507Y-72865967D01*
X377459411Y-72865967D02*
X377578459Y-72806444D01*
X377637983Y-72746920D01*
X377697507Y-72627872D01*
X377697507Y-72508824D01*
X376864173Y-72092158D02*
X377697507Y-72092158D01*
X378114173Y-72092158D02*
X378054650Y-72151682D01*
X377995126Y-72092158D01*
X378054650Y-72032634D01*
X378114173Y-72092158D01*
X377995126Y-72092158D01*
X376864173Y-69830253D02*
X377459411Y-70246920D01*
X376864173Y-70544539D02*
X378114173Y-70544539D01*
X378114173Y-70068348D01*
X378054650Y-69949301D01*
X377995126Y-69889777D01*
X377876078Y-69830253D01*
X377697507Y-69830253D01*
X377578459Y-69889777D01*
X377518935Y-69949301D01*
X377459411Y-70068348D01*
X377459411Y-70544539D01*
X376923697Y-68818348D02*
X376864173Y-68937396D01*
X376864173Y-69175491D01*
X376923697Y-69294539D01*
X377042745Y-69354063D01*
X377518935Y-69354063D01*
X377637983Y-69294539D01*
X377697507Y-69175491D01*
X377697507Y-68937396D01*
X377637983Y-68818348D01*
X377518935Y-68758824D01*
X377399888Y-68758824D01*
X377280840Y-69354063D01*
X377697507Y-68342158D02*
X376864173Y-68044539D01*
X377697507Y-67746920D01*
X376864173Y-65663586D02*
X376864173Y-66377872D01*
X376864173Y-66020729D02*
X378114173Y-66020729D01*
X377935602Y-66139777D01*
X377816554Y-66258824D01*
X377757030Y-66377872D01*
X376983221Y-65127872D02*
X376923697Y-65068348D01*
X376864173Y-65127872D01*
X376923697Y-65187396D01*
X376983221Y-65127872D01*
X376864173Y-65127872D01*
X378114173Y-64294539D02*
X378114173Y-64175491D01*
X378054650Y-64056444D01*
X377995126Y-63996920D01*
X377876078Y-63937396D01*
X377637983Y-63877872D01*
X377340364Y-63877872D01*
X377102269Y-63937396D01*
X376983221Y-63996920D01*
X376923697Y-64056444D01*
X376864173Y-64175491D01*
X376864173Y-64294539D01*
X376923697Y-64413586D01*
X376983221Y-64473110D01*
X377102269Y-64532634D01*
X377340364Y-64592158D01*
X377637983Y-64592158D01*
X377876078Y-64532634D01*
X377995126Y-64473110D01*
X378054650Y-64413586D01*
X378114173Y-64294539D01*
X368220360Y-59918904D02*
X368220360Y-59118904D01*
X367220398Y-60418904D02*
X367720360Y-60418904D01*
X366720360Y-59918904D02*
X366720360Y-59118904D01*
X367720322Y-58618904D02*
X367220360Y-58618904D01*
D12*
G36*
X368434560Y-59518904D02*
G01*
X369234560Y-60118904D01*
X369234560Y-58918904D01*
X368434560Y-59518904D01*
G37*
X368434560Y-59518904D02*
X369234560Y-60118904D01*
X369234560Y-58918904D01*
X368434560Y-59518904D01*
D11*
X368220360Y-59118904D02*
G75*
G03*
X367720360Y-58618904I-500000J0D01*
G01*
X367220360Y-58618904D02*
G75*
G03*
X366720360Y-59118904I0J-500000D01*
G01*
X366720360Y-59918904D02*
G75*
G03*
X367220360Y-60418904I500000J0D01*
G01*
X367720360Y-60418904D02*
G75*
G03*
X368220360Y-59918904I0J500000D01*
G01*
D10*
X365456455Y-60035570D02*
X366256455Y-60035570D01*
X366256455Y-59868904D01*
X366218360Y-59768904D01*
X366142169Y-59702237D01*
X366065979Y-59668904D01*
X365913598Y-59635570D01*
X365799312Y-59635570D01*
X365646931Y-59668904D01*
X365570740Y-59702237D01*
X365494550Y-59768904D01*
X365456455Y-59868904D01*
X365456455Y-60035570D01*
X366180264Y-59368904D02*
X366218360Y-59335570D01*
X366256455Y-59268904D01*
X366256455Y-59102237D01*
X366218360Y-59035570D01*
X366180264Y-59002237D01*
X366104074Y-58968904D01*
X366027883Y-58968904D01*
X365913598Y-59002237D01*
X365456455Y-59402237D01*
X365456455Y-58968904D01*
M02*
