G04 #@! TF.GenerationSoftware,KiCad,Pcbnew,(5.1.10-1-10_14)*
G04 #@! TF.CreationDate,2021-08-22T11:15:42-05:00*
G04 #@! TF.ProjectId,ori,6f72692e-6b69-4636-9164-5f7063625858,rev?*
G04 #@! TF.SameCoordinates,Original*
G04 #@! TF.FileFunction,Legend,Top*
G04 #@! TF.FilePolarity,Positive*
%FSLAX46Y46*%
G04 Gerber Fmt 4.6, Leading zero omitted, Abs format (unit mm)*
G04 Created by KiCad (PCBNEW (5.1.10-1-10_14)) date 2021-08-22 11:15:42*
%MOMM*%
%LPD*%
G01*
G04 APERTURE LIST*
%ADD10C,0.200000*%
%ADD11C,0.150000*%
%ADD12C,0.120000*%
%ADD13C,4.500000*%
%ADD14C,0.800000*%
%ADD15C,2.540000*%
%ADD16C,1.701800*%
%ADD17C,3.987800*%
%ADD18R,2.000000X2.000000*%
%ADD19C,2.000000*%
%ADD20R,2.000000X3.200000*%
%ADD21C,1.803400*%
%ADD22O,1.300000X1.900000*%
%ADD23C,0.650000*%
%ADD24O,1.300000X2.400000*%
G04 APERTURE END LIST*
D10*
X142042815Y-115220164D02*
X142280910Y-115220164D01*
X142399958Y-115279688D01*
X142519005Y-115398735D01*
X142578529Y-115636830D01*
X142578529Y-116053497D01*
X142519005Y-116291592D01*
X142399958Y-116410640D01*
X142280910Y-116470164D01*
X142042815Y-116470164D01*
X141923767Y-116410640D01*
X141804720Y-116291592D01*
X141745196Y-116053497D01*
X141745196Y-115636830D01*
X141804720Y-115398735D01*
X141923767Y-115279688D01*
X142042815Y-115220164D01*
X143114243Y-116470164D02*
X143114243Y-115636830D01*
X143114243Y-115874926D02*
X143173767Y-115755878D01*
X143233291Y-115696354D01*
X143352339Y-115636830D01*
X143471386Y-115636830D01*
X143888053Y-116470164D02*
X143888053Y-115636830D01*
X143888053Y-115220164D02*
X143828529Y-115279688D01*
X143888053Y-115339211D01*
X143947577Y-115279688D01*
X143888053Y-115220164D01*
X143888053Y-115339211D01*
X146149958Y-116470164D02*
X145733291Y-115874926D01*
X145435672Y-116470164D02*
X145435672Y-115220164D01*
X145911862Y-115220164D01*
X146030910Y-115279688D01*
X146090434Y-115339211D01*
X146149958Y-115458259D01*
X146149958Y-115636830D01*
X146090434Y-115755878D01*
X146030910Y-115815402D01*
X145911862Y-115874926D01*
X145435672Y-115874926D01*
X147161862Y-116410640D02*
X147042815Y-116470164D01*
X146804720Y-116470164D01*
X146685672Y-116410640D01*
X146626148Y-116291592D01*
X146626148Y-115815402D01*
X146685672Y-115696354D01*
X146804720Y-115636830D01*
X147042815Y-115636830D01*
X147161862Y-115696354D01*
X147221386Y-115815402D01*
X147221386Y-115934449D01*
X146626148Y-116053497D01*
X147638053Y-115636830D02*
X147935672Y-116470164D01*
X148233291Y-115636830D01*
X148709481Y-116351116D02*
X148769005Y-116410640D01*
X148709481Y-116470164D01*
X148649958Y-116410640D01*
X148709481Y-116351116D01*
X148709481Y-116470164D01*
X150911862Y-116470164D02*
X150197577Y-116470164D01*
X150554720Y-116470164D02*
X150554720Y-115220164D01*
X150435672Y-115398735D01*
X150316624Y-115517783D01*
X150197577Y-115577307D01*
X151447577Y-116351116D02*
X151507100Y-116410640D01*
X151447577Y-116470164D01*
X151388053Y-116410640D01*
X151447577Y-116351116D01*
X151447577Y-116470164D01*
X152280910Y-115220164D02*
X152399958Y-115220164D01*
X152519005Y-115279688D01*
X152578529Y-115339211D01*
X152638053Y-115458259D01*
X152697577Y-115696354D01*
X152697577Y-115993973D01*
X152638053Y-116232068D01*
X152578529Y-116351116D01*
X152519005Y-116410640D01*
X152399958Y-116470164D01*
X152280910Y-116470164D01*
X152161862Y-116410640D01*
X152102339Y-116351116D01*
X152042815Y-116232068D01*
X151983291Y-115993973D01*
X151983291Y-115696354D01*
X152042815Y-115458259D01*
X152102339Y-115339211D01*
X152161862Y-115279688D01*
X152280910Y-115220164D01*
X154126148Y-115339211D02*
X154185672Y-115279688D01*
X154304720Y-115220164D01*
X154602339Y-115220164D01*
X154721386Y-115279688D01*
X154780910Y-115339211D01*
X154840434Y-115458259D01*
X154840434Y-115577307D01*
X154780910Y-115755878D01*
X154066624Y-116470164D01*
X154840434Y-116470164D01*
X155614243Y-115220164D02*
X155733291Y-115220164D01*
X155852339Y-115279688D01*
X155911862Y-115339211D01*
X155971386Y-115458259D01*
X156030910Y-115696354D01*
X156030910Y-115993973D01*
X155971386Y-116232068D01*
X155911862Y-116351116D01*
X155852339Y-116410640D01*
X155733291Y-116470164D01*
X155614243Y-116470164D01*
X155495196Y-116410640D01*
X155435672Y-116351116D01*
X155376148Y-116232068D01*
X155316624Y-115993973D01*
X155316624Y-115696354D01*
X155376148Y-115458259D01*
X155435672Y-115339211D01*
X155495196Y-115279688D01*
X155614243Y-115220164D01*
X156507100Y-115339211D02*
X156566624Y-115279688D01*
X156685672Y-115220164D01*
X156983291Y-115220164D01*
X157102339Y-115279688D01*
X157161862Y-115339211D01*
X157221386Y-115458259D01*
X157221386Y-115577307D01*
X157161862Y-115755878D01*
X156447577Y-116470164D01*
X157221386Y-116470164D01*
X158411862Y-116470164D02*
X157697577Y-116470164D01*
X158054720Y-116470164D02*
X158054720Y-115220164D01*
X157935672Y-115398735D01*
X157816624Y-115517783D01*
X157697577Y-115577307D01*
X158947577Y-116351116D02*
X159007100Y-116410640D01*
X158947577Y-116470164D01*
X158888053Y-116410640D01*
X158947577Y-116351116D01*
X158947577Y-116470164D01*
X159780910Y-115220164D02*
X159899958Y-115220164D01*
X160019005Y-115279688D01*
X160078529Y-115339211D01*
X160138053Y-115458259D01*
X160197577Y-115696354D01*
X160197577Y-115993973D01*
X160138053Y-116232068D01*
X160078529Y-116351116D01*
X160019005Y-116410640D01*
X159899958Y-116470164D01*
X159780910Y-116470164D01*
X159661862Y-116410640D01*
X159602339Y-116351116D01*
X159542815Y-116232068D01*
X159483291Y-115993973D01*
X159483291Y-115696354D01*
X159542815Y-115458259D01*
X159602339Y-115339211D01*
X159661862Y-115279688D01*
X159780910Y-115220164D01*
X160911862Y-115755878D02*
X160792815Y-115696354D01*
X160733291Y-115636830D01*
X160673767Y-115517783D01*
X160673767Y-115458259D01*
X160733291Y-115339211D01*
X160792815Y-115279688D01*
X160911862Y-115220164D01*
X161149958Y-115220164D01*
X161269005Y-115279688D01*
X161328529Y-115339211D01*
X161388053Y-115458259D01*
X161388053Y-115517783D01*
X161328529Y-115636830D01*
X161269005Y-115696354D01*
X161149958Y-115755878D01*
X160911862Y-115755878D01*
X160792815Y-115815402D01*
X160733291Y-115874926D01*
X160673767Y-115993973D01*
X160673767Y-116232068D01*
X160733291Y-116351116D01*
X160792815Y-116410640D01*
X160911862Y-116470164D01*
X161149958Y-116470164D01*
X161269005Y-116410640D01*
X161328529Y-116351116D01*
X161388053Y-116232068D01*
X161388053Y-115993973D01*
X161328529Y-115874926D01*
X161269005Y-115815402D01*
X161149958Y-115755878D01*
X161923767Y-116351116D02*
X161983291Y-116410640D01*
X161923767Y-116470164D01*
X161864243Y-116410640D01*
X161923767Y-116351116D01*
X161923767Y-116470164D01*
X162459481Y-115339211D02*
X162519005Y-115279688D01*
X162638053Y-115220164D01*
X162935672Y-115220164D01*
X163054720Y-115279688D01*
X163114243Y-115339211D01*
X163173767Y-115458259D01*
X163173767Y-115577307D01*
X163114243Y-115755878D01*
X162399958Y-116470164D01*
X163173767Y-116470164D01*
X163649958Y-115339211D02*
X163709481Y-115279688D01*
X163828529Y-115220164D01*
X164126148Y-115220164D01*
X164245196Y-115279688D01*
X164304720Y-115339211D01*
X164364243Y-115458259D01*
X164364243Y-115577307D01*
X164304720Y-115755878D01*
X163590434Y-116470164D01*
X164364243Y-116470164D01*
D11*
X275177657Y-115141382D02*
X275177657Y-115855668D01*
X275130038Y-115998525D01*
X275034800Y-116093763D01*
X274891943Y-116141382D01*
X274796705Y-116141382D01*
X276130038Y-116141382D02*
X275653847Y-116141382D01*
X275653847Y-115141382D01*
X277034800Y-116046144D02*
X276987181Y-116093763D01*
X276844324Y-116141382D01*
X276749085Y-116141382D01*
X276606228Y-116093763D01*
X276510990Y-115998525D01*
X276463371Y-115903287D01*
X276415752Y-115712811D01*
X276415752Y-115569954D01*
X276463371Y-115379478D01*
X276510990Y-115284240D01*
X276606228Y-115189002D01*
X276749085Y-115141382D01*
X276844324Y-115141382D01*
X276987181Y-115189002D01*
X277034800Y-115236621D01*
X277749085Y-115141382D02*
X277749085Y-115855668D01*
X277701466Y-115998525D01*
X277606228Y-116093763D01*
X277463371Y-116141382D01*
X277368133Y-116141382D01*
X278701466Y-116141382D02*
X278225276Y-116141382D01*
X278225276Y-115141382D01*
X279606228Y-116046144D02*
X279558609Y-116093763D01*
X279415752Y-116141382D01*
X279320514Y-116141382D01*
X279177657Y-116093763D01*
X279082419Y-115998525D01*
X279034800Y-115903287D01*
X278987181Y-115712811D01*
X278987181Y-115569954D01*
X279034800Y-115379478D01*
X279082419Y-115284240D01*
X279177657Y-115189002D01*
X279320514Y-115141382D01*
X279415752Y-115141382D01*
X279558609Y-115189002D01*
X279606228Y-115236621D01*
X280320514Y-115141382D02*
X280320514Y-115855668D01*
X280272895Y-115998525D01*
X280177657Y-116093763D01*
X280034800Y-116141382D01*
X279939562Y-116141382D01*
X281272895Y-116141382D02*
X280796705Y-116141382D01*
X280796705Y-115141382D01*
X282177657Y-116046144D02*
X282130038Y-116093763D01*
X281987181Y-116141382D01*
X281891943Y-116141382D01*
X281749085Y-116093763D01*
X281653847Y-115998525D01*
X281606228Y-115903287D01*
X281558609Y-115712811D01*
X281558609Y-115569954D01*
X281606228Y-115379478D01*
X281653847Y-115284240D01*
X281749085Y-115189002D01*
X281891943Y-115141382D01*
X281987181Y-115141382D01*
X282130038Y-115189002D01*
X282177657Y-115236621D01*
X282891943Y-115141382D02*
X282891943Y-115855668D01*
X282844324Y-115998525D01*
X282749085Y-116093763D01*
X282606228Y-116141382D01*
X282510990Y-116141382D01*
X283844324Y-116141382D02*
X283368133Y-116141382D01*
X283368133Y-115141382D01*
X284749085Y-116046144D02*
X284701466Y-116093763D01*
X284558609Y-116141382D01*
X284463371Y-116141382D01*
X284320514Y-116093763D01*
X284225276Y-115998525D01*
X284177657Y-115903287D01*
X284130038Y-115712811D01*
X284130038Y-115569954D01*
X284177657Y-115379478D01*
X284225276Y-115284240D01*
X284320514Y-115189002D01*
X284463371Y-115141382D01*
X284558609Y-115141382D01*
X284701466Y-115189002D01*
X284749085Y-115236621D01*
D12*
X323752725Y-47093950D02*
X326152725Y-47093950D01*
X318952725Y-47093950D02*
X321552725Y-47093950D01*
X314352725Y-47093950D02*
X316752725Y-47093950D01*
X316152725Y-60393950D02*
X316452725Y-60693950D01*
X316152725Y-60993950D02*
X316152725Y-60393950D01*
X316452725Y-60693950D02*
X316152725Y-60993950D01*
X314352725Y-59293950D02*
X326152725Y-59293950D01*
X314352725Y-55193950D02*
X314352725Y-59293950D01*
X326152725Y-55193950D02*
X326152725Y-59293950D01*
X326152725Y-47093950D02*
X326152725Y-51193950D01*
X314352725Y-51193950D02*
X314352725Y-47093950D01*
X323252725Y-53193950D02*
G75*
G03*
X323252725Y-53193950I-3000000J0D01*
G01*
%LPC*%
D13*
X96440641Y-62706266D03*
X153590689Y-100806298D03*
X286940801Y-62706266D03*
X286940801Y-100806298D03*
X229790753Y-62706266D03*
X153590689Y-62706266D03*
X229790753Y-100806298D03*
X96440641Y-100806298D03*
X310753321Y-100806298D03*
X310753321Y-62706266D03*
D14*
X304204878Y-75248000D03*
X304204878Y-73724000D03*
X304204878Y-69152000D03*
X304204878Y-70676000D03*
X304204878Y-72200000D03*
X304204878Y-94329290D03*
X304204878Y-92805290D03*
X304204878Y-88233290D03*
X304204878Y-89757290D03*
X304204878Y-91281290D03*
X304799995Y-113248000D03*
X304799995Y-111724000D03*
X304799995Y-107152000D03*
X304799995Y-108676000D03*
X304799995Y-110200000D03*
X304204878Y-56229258D03*
X304204878Y-54705258D03*
X304204878Y-50133258D03*
X304204878Y-51657258D03*
X304204878Y-53181258D03*
D15*
X316468185Y-69691370D03*
X322818185Y-67151370D03*
D16*
X325358185Y-72231370D03*
X315198185Y-72231370D03*
D17*
X320278185Y-72231370D03*
D15*
X121205625Y-50641250D03*
X127555625Y-48101250D03*
D16*
X130095625Y-53181250D03*
X119935625Y-53181250D03*
D17*
X125015625Y-53181250D03*
D15*
X316468185Y-107791530D03*
X322818185Y-105251530D03*
D16*
X325358185Y-110331530D03*
X315198185Y-110331530D03*
D17*
X320278185Y-110331530D03*
D18*
X317752725Y-60693950D03*
D19*
X320252725Y-60693950D03*
X322752725Y-60693950D03*
D20*
X314652725Y-53193950D03*
X325852725Y-53193950D03*
D19*
X317752725Y-46193950D03*
X322752725Y-46193950D03*
G36*
G01*
X192448100Y-55649150D02*
X192448100Y-56550850D01*
G75*
G02*
X191997250Y-57001700I-450850J0D01*
G01*
X191095550Y-57001700D01*
G75*
G02*
X190644700Y-56550850I0J450850D01*
G01*
X190644700Y-55649150D01*
G75*
G02*
X191095550Y-55198300I450850J0D01*
G01*
X191997250Y-55198300D01*
G75*
G02*
X192448100Y-55649150I0J-450850D01*
G01*
G37*
D21*
X191140000Y-58640000D03*
X191546400Y-61180000D03*
X191140000Y-63720000D03*
X191546400Y-66260000D03*
X191140000Y-68800000D03*
D22*
X111189825Y-43258627D03*
D23*
X112599825Y-46907627D03*
X118379825Y-46907627D03*
D22*
X119789825Y-43258627D03*
D24*
X119789825Y-47458627D03*
X111189825Y-47458627D03*
D17*
X320278125Y-53181250D03*
D16*
X315198125Y-53181250D03*
X325358125Y-53181250D03*
D15*
X322818125Y-48101250D03*
X316468125Y-50641250D03*
X316468185Y-88741450D03*
X322818185Y-86201450D03*
D16*
X325358185Y-91281450D03*
X315198185Y-91281450D03*
D17*
X320278185Y-91281450D03*
D15*
X83105625Y-50641250D03*
X89455625Y-48101250D03*
D16*
X91995625Y-53181250D03*
X81835625Y-53181250D03*
D17*
X86915625Y-53181250D03*
D15*
X102155625Y-50641250D03*
X108505625Y-48101250D03*
D16*
X111045625Y-53181250D03*
X100885625Y-53181250D03*
D17*
X105965625Y-53181250D03*
X144065625Y-53181250D03*
D16*
X138985625Y-53181250D03*
X149145625Y-53181250D03*
D15*
X146605625Y-48101250D03*
X140255625Y-50641250D03*
X159305625Y-50641250D03*
X165655625Y-48101250D03*
D16*
X168195625Y-53181250D03*
X158035625Y-53181250D03*
D17*
X163115625Y-53181250D03*
D15*
X178355625Y-50641250D03*
X184705625Y-48101250D03*
D16*
X187245625Y-53181250D03*
X177085625Y-53181250D03*
D17*
X182165625Y-53181250D03*
D15*
X197405625Y-50641250D03*
X203755625Y-48101250D03*
D16*
X206295625Y-53181250D03*
X196135625Y-53181250D03*
D17*
X201215625Y-53181250D03*
D15*
X216455625Y-50641250D03*
X222805625Y-48101250D03*
D16*
X225345625Y-53181250D03*
X215185625Y-53181250D03*
D17*
X220265625Y-53181250D03*
D15*
X235505625Y-50641250D03*
X241855625Y-48101250D03*
D16*
X244395625Y-53181250D03*
X234235625Y-53181250D03*
D17*
X239315625Y-53181250D03*
D15*
X254555625Y-50641250D03*
X260905625Y-48101250D03*
D16*
X263445625Y-53181250D03*
X253285625Y-53181250D03*
D17*
X258365625Y-53181250D03*
D15*
X273605625Y-50641250D03*
X279955625Y-48101250D03*
D16*
X282495625Y-53181250D03*
X272335625Y-53181250D03*
D17*
X277415625Y-53181250D03*
D15*
X292655625Y-50641250D03*
X299005625Y-48101250D03*
D16*
X301545625Y-53181250D03*
X291385625Y-53181250D03*
D17*
X296465625Y-53181250D03*
D15*
X83105625Y-69691250D03*
X89455625Y-67151250D03*
D16*
X91995625Y-72231250D03*
X81835625Y-72231250D03*
D17*
X86915625Y-72231250D03*
D15*
X102155625Y-69691250D03*
X108505625Y-67151250D03*
D16*
X111045625Y-72231250D03*
X100885625Y-72231250D03*
D17*
X105965625Y-72231250D03*
D15*
X121205625Y-69691250D03*
X127555625Y-67151250D03*
D16*
X130095625Y-72231250D03*
X119935625Y-72231250D03*
D17*
X125015625Y-72231250D03*
D15*
X140260799Y-69691250D03*
X146610799Y-67151250D03*
D16*
X149150799Y-72231250D03*
X138990799Y-72231250D03*
D17*
X144070799Y-72231250D03*
D15*
X159305625Y-69691250D03*
X165655625Y-67151250D03*
D16*
X168195625Y-72231250D03*
X158035625Y-72231250D03*
D17*
X163115625Y-72231250D03*
D15*
X178355625Y-69691250D03*
X184705625Y-67151250D03*
D16*
X187245625Y-72231250D03*
X177085625Y-72231250D03*
D17*
X182165625Y-72231250D03*
D15*
X197405625Y-69691250D03*
X203755625Y-67151250D03*
D16*
X206295625Y-72231250D03*
X196135625Y-72231250D03*
D17*
X201215625Y-72231250D03*
D15*
X216455625Y-69691250D03*
X222805625Y-67151250D03*
D16*
X225345625Y-72231250D03*
X215185625Y-72231250D03*
D17*
X220265625Y-72231250D03*
D15*
X235505625Y-69691250D03*
X241855625Y-67151250D03*
D16*
X244395625Y-72231250D03*
X234235625Y-72231250D03*
D17*
X239315625Y-72231250D03*
D15*
X254555625Y-69691250D03*
X260905625Y-67151250D03*
D16*
X263445625Y-72231250D03*
X253285625Y-72231250D03*
D17*
X258365625Y-72231250D03*
D15*
X273605625Y-69691250D03*
X279955625Y-67151250D03*
D16*
X282495625Y-72231250D03*
X272335625Y-72231250D03*
D17*
X277415625Y-72231250D03*
D15*
X292655625Y-69691250D03*
X299005625Y-67151250D03*
D16*
X301545625Y-72231250D03*
X291385625Y-72231250D03*
D17*
X296465625Y-72231250D03*
D15*
X83105625Y-88741250D03*
X89455625Y-86201250D03*
D16*
X91995625Y-91281250D03*
X81835625Y-91281250D03*
D17*
X86915625Y-91281250D03*
D15*
X102155625Y-88741250D03*
X108505625Y-86201250D03*
D16*
X111045625Y-91281250D03*
X100885625Y-91281250D03*
D17*
X105965625Y-91281250D03*
D15*
X121205625Y-88741250D03*
X127555625Y-86201250D03*
D16*
X130095625Y-91281250D03*
X119935625Y-91281250D03*
D17*
X125015625Y-91281250D03*
D15*
X140255625Y-88741250D03*
X146605625Y-86201250D03*
D16*
X149145625Y-91281250D03*
X138985625Y-91281250D03*
D17*
X144065625Y-91281250D03*
D15*
X159305625Y-88741250D03*
X165655625Y-86201250D03*
D16*
X168195625Y-91281250D03*
X158035625Y-91281250D03*
D17*
X163115625Y-91281250D03*
D15*
X178355625Y-88741250D03*
X184705625Y-86201250D03*
D16*
X187245625Y-91281250D03*
X177085625Y-91281250D03*
D17*
X182165625Y-91281250D03*
D15*
X216455625Y-88741250D03*
X222805625Y-86201250D03*
D16*
X225345625Y-91281250D03*
X215185625Y-91281250D03*
D17*
X220265625Y-91281250D03*
D15*
X235505625Y-88741250D03*
X241855625Y-86201250D03*
D16*
X244395625Y-91281250D03*
X234235625Y-91281250D03*
D17*
X239315625Y-91281250D03*
D15*
X254555625Y-88741250D03*
X260905625Y-86201250D03*
D16*
X263445625Y-91281250D03*
X253285625Y-91281250D03*
D17*
X258365625Y-91281250D03*
D15*
X273605625Y-88741250D03*
X279955625Y-86201250D03*
D16*
X282495625Y-91281250D03*
X272335625Y-91281250D03*
D17*
X277415625Y-91281250D03*
D15*
X83105625Y-107791250D03*
X89455625Y-105251250D03*
D16*
X91995625Y-110331250D03*
X81835625Y-110331250D03*
D17*
X86915625Y-110331250D03*
D15*
X102155625Y-107791250D03*
X108505625Y-105251250D03*
D16*
X111045625Y-110331250D03*
X100885625Y-110331250D03*
D17*
X105965625Y-110331250D03*
D15*
X121205625Y-107791250D03*
X127555625Y-105251250D03*
D16*
X130095625Y-110331250D03*
X119935625Y-110331250D03*
D17*
X125015625Y-110331250D03*
D15*
X140255625Y-107791250D03*
X146605625Y-105251250D03*
D16*
X149145625Y-110331250D03*
X138985625Y-110331250D03*
D17*
X144065625Y-110331250D03*
D15*
X159305625Y-107791250D03*
X165655625Y-105251250D03*
D16*
X168195625Y-110331250D03*
X158035625Y-110331250D03*
D17*
X163115625Y-110331250D03*
D15*
X178355625Y-107791250D03*
X184705625Y-105251250D03*
D16*
X187245625Y-110331250D03*
X177085625Y-110331250D03*
D17*
X182165625Y-110331250D03*
D15*
X216455625Y-107791250D03*
X222805625Y-105251250D03*
D16*
X225345625Y-110331250D03*
X215185625Y-110331250D03*
D17*
X220265625Y-110331250D03*
D15*
X235505625Y-107791250D03*
X241855625Y-105251250D03*
D16*
X244395625Y-110331250D03*
X234235625Y-110331250D03*
D17*
X239315625Y-110331250D03*
D15*
X254555625Y-107791250D03*
X260905625Y-105251250D03*
D16*
X263445625Y-110331250D03*
X253285625Y-110331250D03*
D17*
X258365625Y-110331250D03*
D15*
X273605625Y-107791250D03*
X279955625Y-105251250D03*
D16*
X282495625Y-110331250D03*
X272335625Y-110331250D03*
D17*
X277415625Y-110331250D03*
D15*
X197405625Y-88741250D03*
X203755625Y-86201250D03*
D16*
X206295625Y-91281250D03*
X196135625Y-91281250D03*
D17*
X201215625Y-91281250D03*
D15*
X197405625Y-107791250D03*
X203755625Y-105251250D03*
D16*
X206295625Y-110331250D03*
X196135625Y-110331250D03*
D17*
X201215625Y-110331250D03*
D15*
X292655625Y-88741250D03*
X299005625Y-86201250D03*
D16*
X301545625Y-91281250D03*
X291385625Y-91281250D03*
D17*
X296465625Y-91281250D03*
D15*
X292655625Y-107791250D03*
X299005625Y-105251250D03*
D16*
X301545625Y-110331250D03*
X291385625Y-110331250D03*
D17*
X296465625Y-110331250D03*
M02*
