G04 #@! TF.GenerationSoftware,KiCad,Pcbnew,(6.0.5-0)*
G04 #@! TF.CreationDate,2022-08-31T07:58:58-05:00*
G04 #@! TF.ProjectId,plate,706c6174-652e-46b6-9963-61645f706362,rev?*
G04 #@! TF.SameCoordinates,Original*
G04 #@! TF.FileFunction,Soldermask,Top*
G04 #@! TF.FilePolarity,Negative*
%FSLAX46Y46*%
G04 Gerber Fmt 4.6, Leading zero omitted, Abs format (unit mm)*
G04 Created by KiCad (PCBNEW (6.0.5-0)) date 2022-08-31 07:58:58*
%MOMM*%
%LPD*%
G01*
G04 APERTURE LIST*
%ADD10C,0.300000*%
%ADD11C,2.200000*%
%ADD12C,3.800000*%
G04 APERTURE END LIST*
D10*
X355306323Y-118753151D02*
X355496799Y-118848389D01*
X355592037Y-119038865D01*
X355592037Y-120753151D01*
X353687275Y-120086484D02*
X353687275Y-118753151D01*
X354544418Y-120086484D02*
X354544418Y-119038865D01*
X354449180Y-118848389D01*
X354258704Y-118753151D01*
X353972989Y-118753151D01*
X353782513Y-118848389D01*
X353687275Y-118943627D01*
X351877751Y-118848389D02*
X352068228Y-118753151D01*
X352449180Y-118753151D01*
X352639656Y-118848389D01*
X352734894Y-118943627D01*
X352830132Y-119134103D01*
X352830132Y-119705532D01*
X352734894Y-119896008D01*
X352639656Y-119991246D01*
X352449180Y-120086484D01*
X352068228Y-120086484D01*
X351877751Y-119991246D01*
X351211085Y-120086484D02*
X350734894Y-118753151D01*
X350258704Y-120086484D02*
X350734894Y-118753151D01*
X350925370Y-118276960D01*
X351020609Y-118181722D01*
X351211085Y-118086484D01*
X191786323Y-38409480D02*
X191595847Y-38314242D01*
X191500609Y-38123766D01*
X191500609Y-36409480D01*
X193405371Y-37076147D02*
X193405371Y-38409480D01*
X192548228Y-37076147D02*
X192548228Y-38123766D01*
X192643466Y-38314242D01*
X192833942Y-38409480D01*
X193119657Y-38409480D01*
X193310133Y-38314242D01*
X193405371Y-38219004D01*
X195214895Y-38314242D02*
X195024418Y-38409480D01*
X194643466Y-38409480D01*
X194452990Y-38314242D01*
X194357752Y-38219004D01*
X194262514Y-38028528D01*
X194262514Y-37457099D01*
X194357752Y-37266623D01*
X194452990Y-37171385D01*
X194643466Y-37076147D01*
X195024418Y-37076147D01*
X195214895Y-37171385D01*
X195881561Y-37076147D02*
X196357752Y-38409480D01*
X196833942Y-37076147D02*
X196357752Y-38409480D01*
X196167276Y-38885671D01*
X196072038Y-38980909D01*
X195881561Y-39076147D01*
D11*
X377428442Y-107156340D03*
D12*
X233362696Y-37504719D03*
D11*
X171450144Y-59531300D03*
X355997174Y-59531300D03*
X377429670Y-50006460D03*
D12*
X311944012Y-37504719D03*
X389334702Y-37504719D03*
X155972006Y-37504719D03*
X389334702Y-119657745D03*
X233362696Y-119657745D03*
X155972006Y-119657745D03*
X311944012Y-119657745D03*
D11*
X350044044Y-97631332D03*
X165497014Y-97631332D03*
M02*
