%TF.GenerationSoftware,KiCad,Pcbnew,7.0.1-0*%
%TF.CreationDate,2023-03-31T09:51:35-05:00*%
%TF.ProjectId,plate,706c6174-652e-46b6-9963-61645f706362,rev?*%
%TF.SameCoordinates,Original*%
%TF.FileFunction,Copper,L1,Top*%
%TF.FilePolarity,Positive*%
%FSLAX46Y46*%
G04 Gerber Fmt 4.6, Leading zero omitted, Abs format (unit mm)*
G04 Created by KiCad (PCBNEW 7.0.1-0) date 2023-03-31 09:51:35*
%MOMM*%
%LPD*%
G01*
G04 APERTURE LIST*
%TA.AperFunction,ViaPad*%
%ADD10C,0.800000*%
%TD*%
G04 APERTURE END LIST*
D10*
%TO.N,GND*%
X248430000Y-41625000D03*
%TD*%
%TA.AperFunction,Conductor*%
%TO.N,GND*%
G36*
X97864750Y-39363470D02*
G01*
X97904304Y-39366929D01*
X97905190Y-39367012D01*
X98031182Y-39379421D01*
X98051091Y-39383044D01*
X98115600Y-39400328D01*
X98119414Y-39401416D01*
X98211006Y-39429200D01*
X98227390Y-39435468D01*
X98293091Y-39466103D01*
X98299064Y-39469090D01*
X98378531Y-39511566D01*
X98391187Y-39519340D01*
X98420429Y-39539816D01*
X98452114Y-39562001D01*
X98459654Y-39567722D01*
X98527693Y-39623560D01*
X98527963Y-39623781D01*
X98536978Y-39631952D01*
X98589912Y-39684885D01*
X98598086Y-39693903D01*
X98654198Y-39762277D01*
X98659917Y-39769815D01*
X98702498Y-39830624D01*
X98710283Y-39843296D01*
X98752867Y-39922964D01*
X98755889Y-39929009D01*
X98760109Y-39938059D01*
X98786369Y-39994373D01*
X98792648Y-40010782D01*
X98820374Y-40102184D01*
X98820601Y-40102930D01*
X98821715Y-40106833D01*
X98838814Y-40170649D01*
X98842442Y-40190587D01*
X98855055Y-40318642D01*
X98855180Y-40319989D01*
X98858403Y-40356825D01*
X98858875Y-40367633D01*
X98858875Y-43119584D01*
X98858403Y-43130393D01*
X98858165Y-43133104D01*
X98854956Y-43169777D01*
X98854831Y-43171119D01*
X98842457Y-43296756D01*
X98838829Y-43316696D01*
X98821488Y-43381413D01*
X98820374Y-43385314D01*
X98792700Y-43476545D01*
X98786421Y-43492954D01*
X98755679Y-43558881D01*
X98752655Y-43564931D01*
X98710378Y-43644024D01*
X98702594Y-43656695D01*
X98659713Y-43717933D01*
X98653992Y-43725473D01*
X98598246Y-43793400D01*
X98590073Y-43802417D01*
X98536784Y-43855705D01*
X98527768Y-43863877D01*
X98459907Y-43919568D01*
X98452366Y-43925289D01*
X98391006Y-43968253D01*
X98378336Y-43976036D01*
X98299500Y-44018175D01*
X98293450Y-44021200D01*
X98227238Y-44052074D01*
X98210829Y-44058352D01*
X98120191Y-44085846D01*
X98116288Y-44086961D01*
X98050952Y-44104466D01*
X98031016Y-44108093D01*
X97907597Y-44120250D01*
X97906246Y-44120375D01*
X97864481Y-44124028D01*
X97853677Y-44124500D01*
X73884135Y-44124500D01*
X73883929Y-44124459D01*
X73859373Y-44124459D01*
X73859182Y-44124538D01*
X73858994Y-44124615D01*
X73858990Y-44124618D01*
X73858834Y-44124999D01*
X73858851Y-44149616D01*
X73858846Y-44149616D01*
X73858875Y-44149760D01*
X73858875Y-45100240D01*
X73858834Y-45100446D01*
X73858834Y-45125000D01*
X73858875Y-45125099D01*
X73858992Y-45125383D01*
X73858993Y-45125384D01*
X73859183Y-45125461D01*
X73859375Y-45125541D01*
X73859377Y-45125539D01*
X73883991Y-45125524D01*
X73883991Y-45125528D01*
X73884135Y-45125500D01*
X220528365Y-45125500D01*
X220528508Y-45125528D01*
X220528509Y-45125524D01*
X220553122Y-45125539D01*
X220553125Y-45125541D01*
X220553508Y-45125383D01*
X220553625Y-45125099D01*
X220553666Y-45125000D01*
X220553666Y-45100446D01*
X220553625Y-45100240D01*
X220553625Y-44149760D01*
X220553653Y-44149616D01*
X220553649Y-44149616D01*
X220553664Y-44125002D01*
X220553666Y-44125000D01*
X220553586Y-44124808D01*
X220553509Y-44124618D01*
X220553505Y-44124614D01*
X220553319Y-44124538D01*
X220553127Y-44124459D01*
X220528571Y-44124459D01*
X220528365Y-44124500D01*
X196558537Y-44124500D01*
X196547730Y-44124028D01*
X196544212Y-44123720D01*
X196508473Y-44120593D01*
X196507130Y-44120468D01*
X196381332Y-44108079D01*
X196361393Y-44104451D01*
X196296944Y-44087183D01*
X196293041Y-44086069D01*
X196201498Y-44058300D01*
X196185094Y-44052024D01*
X196119438Y-44021410D01*
X196113402Y-44018392D01*
X196033977Y-43975938D01*
X196021309Y-43968156D01*
X195960384Y-43925497D01*
X195952841Y-43919774D01*
X195884535Y-43863717D01*
X195875520Y-43855546D01*
X195822586Y-43802613D01*
X195814412Y-43793595D01*
X195758300Y-43725221D01*
X195752581Y-43717683D01*
X195740932Y-43701047D01*
X195709993Y-43656862D01*
X195702221Y-43644211D01*
X195659614Y-43564501D01*
X195656624Y-43558520D01*
X195626126Y-43493117D01*
X195619855Y-43476730D01*
X195591867Y-43384465D01*
X195590804Y-43380740D01*
X195573682Y-43316842D01*
X195570058Y-43296921D01*
X195557424Y-43168650D01*
X195557324Y-43167574D01*
X195554096Y-43130684D01*
X195553625Y-43119881D01*
X195553625Y-40367912D01*
X195554097Y-40357106D01*
X195557540Y-40317749D01*
X195557665Y-40316401D01*
X195570043Y-40190730D01*
X195573666Y-40170815D01*
X195591032Y-40106007D01*
X195592104Y-40102255D01*
X195619808Y-40010926D01*
X195626070Y-39994560D01*
X195656846Y-39928561D01*
X195659808Y-39922636D01*
X195702133Y-39843452D01*
X195709885Y-39830833D01*
X195752811Y-39769530D01*
X195758487Y-39762049D01*
X195814269Y-39694078D01*
X195822416Y-39685090D01*
X195875726Y-39631781D01*
X195884707Y-39623641D01*
X195952606Y-39567918D01*
X195960122Y-39562216D01*
X196021507Y-39519235D01*
X196034148Y-39511470D01*
X196113029Y-39469307D01*
X196119002Y-39466320D01*
X196185281Y-39435415D01*
X196201653Y-39429152D01*
X196292364Y-39401635D01*
X196296139Y-39400557D01*
X196361555Y-39383030D01*
X196381474Y-39379406D01*
X196505095Y-39367230D01*
X196505925Y-39367153D01*
X196548027Y-39363470D01*
X196558825Y-39363000D01*
X254547708Y-39363000D01*
X254558518Y-39363472D01*
X254598048Y-39366931D01*
X254599315Y-39367049D01*
X254724867Y-39379415D01*
X254744785Y-39383039D01*
X254809734Y-39400444D01*
X254813545Y-39401532D01*
X254904628Y-39429161D01*
X254921021Y-39435434D01*
X254987168Y-39466280D01*
X254993176Y-39469283D01*
X255072077Y-39511457D01*
X255084736Y-39519233D01*
X255114105Y-39539799D01*
X255146168Y-39562250D01*
X255153708Y-39567971D01*
X255221443Y-39623560D01*
X255230460Y-39631733D01*
X255283896Y-39685170D01*
X255292067Y-39694185D01*
X255347616Y-39761871D01*
X255353338Y-39769413D01*
X255396414Y-39830933D01*
X255404194Y-39843598D01*
X255446240Y-39922259D01*
X255449255Y-39928290D01*
X255480214Y-39994685D01*
X255486492Y-40011094D01*
X255513925Y-40101531D01*
X255515039Y-40105431D01*
X255532593Y-40170942D01*
X255536221Y-40190882D01*
X255548363Y-40314161D01*
X255548488Y-40315505D01*
X255552153Y-40357386D01*
X255552625Y-40368196D01*
X255552625Y-43119586D01*
X255552153Y-43130395D01*
X255548710Y-43169744D01*
X255548585Y-43171090D01*
X255536206Y-43296767D01*
X255532578Y-43316704D01*
X255515260Y-43381339D01*
X255514145Y-43385243D01*
X255486440Y-43476572D01*
X255480163Y-43492978D01*
X255449468Y-43558807D01*
X255446442Y-43564860D01*
X255404096Y-43644081D01*
X255396316Y-43656747D01*
X255353546Y-43717832D01*
X255347822Y-43725376D01*
X255291906Y-43793510D01*
X255283735Y-43802525D01*
X255230660Y-43855601D01*
X255221642Y-43863775D01*
X255153444Y-43919743D01*
X255145905Y-43925462D01*
X255084927Y-43968161D01*
X255072256Y-43975946D01*
X254992799Y-44018417D01*
X254986750Y-44021441D01*
X254921200Y-44052008D01*
X254904791Y-44058286D01*
X254812835Y-44086181D01*
X254808934Y-44087295D01*
X254744952Y-44104440D01*
X254725012Y-44108069D01*
X254597109Y-44120667D01*
X254595767Y-44120792D01*
X254558798Y-44124028D01*
X254547985Y-44124500D01*
X230577885Y-44124500D01*
X230577679Y-44124459D01*
X230553123Y-44124459D01*
X230552932Y-44124538D01*
X230552744Y-44124615D01*
X230552740Y-44124618D01*
X230552584Y-44124999D01*
X230552601Y-44149616D01*
X230552596Y-44149616D01*
X230552625Y-44149760D01*
X230552625Y-45100240D01*
X230552584Y-45100446D01*
X230552584Y-45125000D01*
X230552625Y-45125099D01*
X230552741Y-45125382D01*
X230552742Y-45125383D01*
X230552743Y-45125384D01*
X230552933Y-45125461D01*
X230553125Y-45125541D01*
X230553127Y-45125539D01*
X230577741Y-45125524D01*
X230577741Y-45125528D01*
X230577885Y-45125500D01*
X272407087Y-45125500D01*
X272417892Y-45125972D01*
X272429933Y-45127025D01*
X272457380Y-45129426D01*
X272458461Y-45129526D01*
X272584273Y-45141918D01*
X272604187Y-45145541D01*
X272668935Y-45162890D01*
X272672702Y-45163966D01*
X272764070Y-45191681D01*
X272780459Y-45197952D01*
X272846352Y-45228679D01*
X272852389Y-45231698D01*
X272931550Y-45274010D01*
X272944209Y-45281786D01*
X273005388Y-45324624D01*
X273012927Y-45330344D01*
X273080955Y-45386172D01*
X273089972Y-45394345D01*
X273143153Y-45447526D01*
X273151326Y-45456543D01*
X273207154Y-45524571D01*
X273212874Y-45532110D01*
X273255704Y-45593276D01*
X273263488Y-45605948D01*
X273305800Y-45685109D01*
X273308824Y-45691156D01*
X273339541Y-45757027D01*
X273345820Y-45773438D01*
X273373513Y-45864730D01*
X273374627Y-45868632D01*
X273391954Y-45933299D01*
X273395582Y-45953239D01*
X273407956Y-46078882D01*
X273408081Y-46080223D01*
X273411528Y-46119604D01*
X273412000Y-46130416D01*
X273412000Y-120319584D01*
X273411528Y-120330397D01*
X273408081Y-120369776D01*
X273407956Y-120371116D01*
X273395582Y-120496759D01*
X273391954Y-120516699D01*
X273374627Y-120581366D01*
X273373513Y-120585268D01*
X273345820Y-120676560D01*
X273339541Y-120692971D01*
X273308824Y-120758842D01*
X273305800Y-120764889D01*
X273263488Y-120844050D01*
X273255704Y-120856722D01*
X273212874Y-120917888D01*
X273207154Y-120925427D01*
X273151326Y-120993455D01*
X273143153Y-121002472D01*
X273089972Y-121055653D01*
X273080955Y-121063826D01*
X273012927Y-121119654D01*
X273005388Y-121125374D01*
X272944222Y-121168204D01*
X272931550Y-121175988D01*
X272852389Y-121218300D01*
X272846342Y-121221324D01*
X272780471Y-121252041D01*
X272764060Y-121258320D01*
X272672768Y-121286013D01*
X272668866Y-121287127D01*
X272604199Y-121304454D01*
X272584259Y-121308082D01*
X272458616Y-121320456D01*
X272457276Y-121320581D01*
X272422260Y-121323646D01*
X272417892Y-121324028D01*
X272407084Y-121324500D01*
X230577885Y-121324500D01*
X230577679Y-121324459D01*
X230553123Y-121324459D01*
X230552932Y-121324538D01*
X230552744Y-121324615D01*
X230552740Y-121324618D01*
X230552584Y-121324999D01*
X230552601Y-121349616D01*
X230552596Y-121349616D01*
X230552625Y-121349760D01*
X230552625Y-122300240D01*
X230552584Y-122300446D01*
X230552584Y-122325000D01*
X230552625Y-122325099D01*
X230552741Y-122325382D01*
X230552742Y-122325383D01*
X230552743Y-122325384D01*
X230552933Y-122325462D01*
X230553125Y-122325541D01*
X230553127Y-122325539D01*
X230577741Y-122325524D01*
X230577741Y-122325528D01*
X230577885Y-122325500D01*
X254547708Y-122325500D01*
X254558518Y-122325972D01*
X254598048Y-122329431D01*
X254599315Y-122329549D01*
X254724867Y-122341915D01*
X254744785Y-122345539D01*
X254809734Y-122362944D01*
X254813545Y-122364032D01*
X254904628Y-122391661D01*
X254921021Y-122397934D01*
X254987168Y-122428780D01*
X254993176Y-122431783D01*
X255072077Y-122473957D01*
X255084736Y-122481733D01*
X255114105Y-122502299D01*
X255146168Y-122524750D01*
X255153708Y-122530471D01*
X255221443Y-122586060D01*
X255230460Y-122594233D01*
X255283896Y-122647670D01*
X255292067Y-122656685D01*
X255347616Y-122724371D01*
X255353338Y-122731913D01*
X255396414Y-122793433D01*
X255404194Y-122806098D01*
X255446240Y-122884759D01*
X255449255Y-122890790D01*
X255480214Y-122957185D01*
X255486492Y-122973594D01*
X255513925Y-123064031D01*
X255515039Y-123067931D01*
X255532593Y-123133442D01*
X255536221Y-123153382D01*
X255548363Y-123276661D01*
X255548488Y-123278005D01*
X255552153Y-123319886D01*
X255552625Y-123330696D01*
X255552625Y-126082086D01*
X255552153Y-126092895D01*
X255548710Y-126132244D01*
X255548585Y-126133590D01*
X255536206Y-126259267D01*
X255532578Y-126279204D01*
X255515260Y-126343839D01*
X255514145Y-126347743D01*
X255486440Y-126439072D01*
X255480163Y-126455478D01*
X255449468Y-126521307D01*
X255446442Y-126527360D01*
X255404096Y-126606581D01*
X255396316Y-126619247D01*
X255353546Y-126680332D01*
X255347822Y-126687876D01*
X255291906Y-126756010D01*
X255283735Y-126765025D01*
X255230660Y-126818101D01*
X255221642Y-126826275D01*
X255153444Y-126882243D01*
X255145905Y-126887962D01*
X255084927Y-126930661D01*
X255072256Y-126938446D01*
X254992799Y-126980917D01*
X254986750Y-126983941D01*
X254921200Y-127014508D01*
X254904791Y-127020786D01*
X254812835Y-127048681D01*
X254808934Y-127049795D01*
X254744952Y-127066940D01*
X254725012Y-127070569D01*
X254597109Y-127083167D01*
X254595767Y-127083292D01*
X254558798Y-127086528D01*
X254547985Y-127087000D01*
X196558537Y-127087000D01*
X196547730Y-127086528D01*
X196544212Y-127086220D01*
X196508473Y-127083093D01*
X196507130Y-127082968D01*
X196381332Y-127070579D01*
X196361393Y-127066951D01*
X196296944Y-127049683D01*
X196293041Y-127048569D01*
X196201498Y-127020800D01*
X196185094Y-127014524D01*
X196119438Y-126983910D01*
X196113402Y-126980892D01*
X196033977Y-126938438D01*
X196021309Y-126930656D01*
X195960384Y-126887997D01*
X195952841Y-126882274D01*
X195884535Y-126826217D01*
X195875520Y-126818046D01*
X195822586Y-126765113D01*
X195814412Y-126756095D01*
X195758300Y-126687721D01*
X195752581Y-126680183D01*
X195740932Y-126663547D01*
X195709993Y-126619362D01*
X195702221Y-126606711D01*
X195659614Y-126527001D01*
X195656624Y-126521020D01*
X195626126Y-126455617D01*
X195619855Y-126439230D01*
X195591867Y-126346965D01*
X195590804Y-126343240D01*
X195573682Y-126279342D01*
X195570058Y-126259421D01*
X195557424Y-126131150D01*
X195557324Y-126130074D01*
X195554096Y-126093184D01*
X195553625Y-126082381D01*
X195553625Y-123330412D01*
X195554097Y-123319606D01*
X195557540Y-123280249D01*
X195557665Y-123278901D01*
X195570043Y-123153230D01*
X195573666Y-123133315D01*
X195591032Y-123068507D01*
X195592104Y-123064755D01*
X195619808Y-122973426D01*
X195626070Y-122957060D01*
X195656846Y-122891061D01*
X195659808Y-122885136D01*
X195702133Y-122805952D01*
X195709885Y-122793333D01*
X195752811Y-122732030D01*
X195758487Y-122724549D01*
X195814269Y-122656578D01*
X195822416Y-122647590D01*
X195875726Y-122594281D01*
X195884707Y-122586141D01*
X195952606Y-122530418D01*
X195960122Y-122524716D01*
X196021507Y-122481735D01*
X196034148Y-122473970D01*
X196113029Y-122431807D01*
X196119002Y-122428820D01*
X196185281Y-122397915D01*
X196201653Y-122391652D01*
X196292364Y-122364135D01*
X196296139Y-122363057D01*
X196361555Y-122345530D01*
X196381474Y-122341906D01*
X196505095Y-122329730D01*
X196505925Y-122329653D01*
X196548027Y-122325970D01*
X196558825Y-122325500D01*
X220528365Y-122325500D01*
X220528508Y-122325528D01*
X220528509Y-122325524D01*
X220553122Y-122325539D01*
X220553125Y-122325541D01*
X220553508Y-122325383D01*
X220553625Y-122325099D01*
X220553666Y-122325000D01*
X220553666Y-122300446D01*
X220553625Y-122300240D01*
X220553625Y-121349760D01*
X220553653Y-121349616D01*
X220553649Y-121349616D01*
X220553664Y-121325002D01*
X220553666Y-121325000D01*
X220553586Y-121324808D01*
X220553509Y-121324618D01*
X220553505Y-121324614D01*
X220553319Y-121324538D01*
X220553127Y-121324459D01*
X220528571Y-121324459D01*
X220528365Y-121324500D01*
X73884135Y-121324500D01*
X73883929Y-121324459D01*
X73859373Y-121324459D01*
X73859182Y-121324538D01*
X73858994Y-121324615D01*
X73858990Y-121324618D01*
X73858834Y-121324999D01*
X73858851Y-121349616D01*
X73858846Y-121349616D01*
X73858875Y-121349760D01*
X73858875Y-122300240D01*
X73858834Y-122300446D01*
X73858834Y-122325000D01*
X73858875Y-122325099D01*
X73858991Y-122325382D01*
X73858992Y-122325383D01*
X73858993Y-122325384D01*
X73859183Y-122325462D01*
X73859375Y-122325541D01*
X73859377Y-122325539D01*
X73883991Y-122325524D01*
X73883991Y-122325528D01*
X73884135Y-122325500D01*
X97853967Y-122325500D01*
X97864750Y-122325970D01*
X97904304Y-122329429D01*
X97905190Y-122329512D01*
X98031182Y-122341921D01*
X98051091Y-122345544D01*
X98115600Y-122362828D01*
X98119414Y-122363916D01*
X98211006Y-122391700D01*
X98227390Y-122397968D01*
X98293091Y-122428603D01*
X98299064Y-122431590D01*
X98378531Y-122474066D01*
X98391187Y-122481840D01*
X98420429Y-122502316D01*
X98452114Y-122524501D01*
X98459654Y-122530222D01*
X98527693Y-122586060D01*
X98527963Y-122586281D01*
X98536978Y-122594452D01*
X98589912Y-122647385D01*
X98598086Y-122656403D01*
X98654198Y-122724777D01*
X98659917Y-122732315D01*
X98702498Y-122793124D01*
X98710283Y-122805796D01*
X98752867Y-122885464D01*
X98755889Y-122891509D01*
X98760109Y-122900559D01*
X98786369Y-122956873D01*
X98792648Y-122973282D01*
X98820374Y-123064684D01*
X98820601Y-123065430D01*
X98821715Y-123069333D01*
X98838814Y-123133149D01*
X98842442Y-123153087D01*
X98855055Y-123281142D01*
X98855180Y-123282489D01*
X98858403Y-123319325D01*
X98858875Y-123330133D01*
X98858875Y-126082084D01*
X98858403Y-126092893D01*
X98858165Y-126095604D01*
X98854956Y-126132277D01*
X98854831Y-126133619D01*
X98842457Y-126259256D01*
X98838829Y-126279196D01*
X98821488Y-126343913D01*
X98820374Y-126347814D01*
X98792700Y-126439045D01*
X98786421Y-126455454D01*
X98755679Y-126521381D01*
X98752655Y-126527431D01*
X98710378Y-126606524D01*
X98702594Y-126619195D01*
X98659713Y-126680433D01*
X98653992Y-126687973D01*
X98598246Y-126755900D01*
X98590073Y-126764917D01*
X98536784Y-126818205D01*
X98527768Y-126826377D01*
X98459907Y-126882068D01*
X98452366Y-126887789D01*
X98391006Y-126930753D01*
X98378336Y-126938536D01*
X98299500Y-126980675D01*
X98293450Y-126983700D01*
X98227238Y-127014574D01*
X98210829Y-127020852D01*
X98120191Y-127048346D01*
X98116288Y-127049461D01*
X98050952Y-127066966D01*
X98031016Y-127070593D01*
X97907597Y-127082750D01*
X97906246Y-127082875D01*
X97864481Y-127086528D01*
X97853677Y-127087000D01*
X39864796Y-127087000D01*
X39853982Y-127086528D01*
X39814471Y-127083069D01*
X39813131Y-127082944D01*
X39687643Y-127070585D01*
X39667701Y-127066956D01*
X39602817Y-127049569D01*
X39598919Y-127048456D01*
X39507879Y-127020840D01*
X39491466Y-127014560D01*
X39425342Y-126983724D01*
X39419295Y-126980701D01*
X39340431Y-126938547D01*
X39327760Y-126930763D01*
X39266330Y-126887748D01*
X39258790Y-126882027D01*
X39191055Y-126826438D01*
X39182038Y-126818265D01*
X39128602Y-126764828D01*
X39120431Y-126755813D01*
X39064882Y-126688127D01*
X39059160Y-126680585D01*
X39058879Y-126680183D01*
X39016080Y-126619058D01*
X39008310Y-126606411D01*
X38966244Y-126527711D01*
X38963260Y-126521742D01*
X38932282Y-126455309D01*
X38926006Y-126438904D01*
X38898573Y-126348467D01*
X38897459Y-126344567D01*
X38897264Y-126343839D01*
X38879902Y-126279042D01*
X38876279Y-126259129D01*
X38864105Y-126135530D01*
X38864049Y-126134927D01*
X38860345Y-126092592D01*
X38859875Y-126081801D01*
X38859875Y-123330410D01*
X38860347Y-123319606D01*
X38860585Y-123316878D01*
X38863808Y-123280041D01*
X38863892Y-123279134D01*
X38876294Y-123153218D01*
X38879919Y-123133302D01*
X38897268Y-123068552D01*
X38898333Y-123064822D01*
X38926058Y-122973425D01*
X38932335Y-122957020D01*
X38932404Y-122956873D01*
X38963051Y-122891147D01*
X38966035Y-122885179D01*
X39008403Y-122805914D01*
X39016169Y-122793271D01*
X39058987Y-122732119D01*
X39064652Y-122724652D01*
X39120612Y-122656465D01*
X39128751Y-122647485D01*
X39181847Y-122594388D01*
X39190836Y-122586240D01*
X39259072Y-122530241D01*
X39266586Y-122524540D01*
X39327579Y-122481831D01*
X39340218Y-122474066D01*
X39419757Y-122431551D01*
X39425720Y-122428570D01*
X39491297Y-122397990D01*
X39507707Y-122391712D01*
X39549512Y-122379030D01*
X39599692Y-122363808D01*
X39603510Y-122362718D01*
X39667554Y-122345556D01*
X39687477Y-122341930D01*
X39815559Y-122329315D01*
X39816754Y-122329204D01*
X39844717Y-122326757D01*
X39853691Y-122325972D01*
X39864500Y-122325500D01*
X63834615Y-122325500D01*
X63834758Y-122325528D01*
X63834759Y-122325524D01*
X63859372Y-122325539D01*
X63859375Y-122325541D01*
X63859758Y-122325383D01*
X63859875Y-122325099D01*
X63859916Y-122325000D01*
X63859916Y-122300446D01*
X63859875Y-122300240D01*
X63859875Y-121349760D01*
X63859903Y-121349616D01*
X63859899Y-121349616D01*
X63859914Y-121325002D01*
X63859916Y-121325000D01*
X63859836Y-121324808D01*
X63859759Y-121324618D01*
X63859755Y-121324614D01*
X63859569Y-121324538D01*
X63859377Y-121324459D01*
X63834821Y-121324459D01*
X63834615Y-121324500D01*
X22005416Y-121324500D01*
X21994606Y-121324028D01*
X21992001Y-121323800D01*
X21955223Y-121320581D01*
X21953882Y-121320456D01*
X21828239Y-121308082D01*
X21808299Y-121304454D01*
X21743632Y-121287127D01*
X21739730Y-121286013D01*
X21648438Y-121258320D01*
X21632027Y-121252041D01*
X21566156Y-121221324D01*
X21560109Y-121218300D01*
X21480948Y-121175988D01*
X21468281Y-121168207D01*
X21438983Y-121147692D01*
X21407110Y-121125374D01*
X21399571Y-121119654D01*
X21331543Y-121063826D01*
X21322526Y-121055653D01*
X21269345Y-121002472D01*
X21261172Y-120993455D01*
X21205344Y-120925427D01*
X21199624Y-120917888D01*
X21187837Y-120901055D01*
X21156786Y-120856709D01*
X21149010Y-120844050D01*
X21106698Y-120764889D01*
X21103674Y-120758842D01*
X21099292Y-120749445D01*
X21072952Y-120692959D01*
X21066681Y-120676570D01*
X21038966Y-120585202D01*
X21037890Y-120581435D01*
X21020541Y-120516687D01*
X21016918Y-120496773D01*
X21004526Y-120370961D01*
X21004417Y-120369776D01*
X21000972Y-120330392D01*
X21000500Y-120319587D01*
X21000500Y-118356394D01*
X23524500Y-118356394D01*
X23549596Y-118466350D01*
X23598532Y-118567967D01*
X23633196Y-118611433D01*
X23668854Y-118656146D01*
X23711964Y-118690525D01*
X23757032Y-118726467D01*
X23858649Y-118775403D01*
X23968606Y-118800500D01*
X23968607Y-118800500D01*
X24024901Y-118800500D01*
X24025000Y-118800500D01*
X24025500Y-118800500D01*
X37024500Y-118800500D01*
X37025099Y-118800500D01*
X37081393Y-118800500D01*
X37081394Y-118800500D01*
X37140646Y-118786976D01*
X37191351Y-118775403D01*
X37292967Y-118726467D01*
X37381146Y-118656146D01*
X37451467Y-118567967D01*
X37500403Y-118466351D01*
X37525500Y-118356394D01*
X42574500Y-118356394D01*
X42599596Y-118466350D01*
X42648532Y-118567967D01*
X42683196Y-118611433D01*
X42718854Y-118656146D01*
X42761964Y-118690525D01*
X42807032Y-118726467D01*
X42908649Y-118775403D01*
X43018606Y-118800500D01*
X43018607Y-118800500D01*
X43074901Y-118800500D01*
X43075000Y-118800500D01*
X43075500Y-118800500D01*
X56074500Y-118800500D01*
X56075099Y-118800500D01*
X56131393Y-118800500D01*
X56131394Y-118800500D01*
X56190646Y-118786976D01*
X56241351Y-118775403D01*
X56342967Y-118726467D01*
X56431146Y-118656146D01*
X56501467Y-118567967D01*
X56550403Y-118466351D01*
X56575500Y-118356394D01*
X61624500Y-118356394D01*
X61649596Y-118466350D01*
X61698532Y-118567967D01*
X61733196Y-118611433D01*
X61768854Y-118656146D01*
X61811964Y-118690525D01*
X61857032Y-118726467D01*
X61958649Y-118775403D01*
X62068606Y-118800500D01*
X62068607Y-118800500D01*
X62124901Y-118800500D01*
X62125000Y-118800500D01*
X62125500Y-118800500D01*
X75124500Y-118800500D01*
X75125099Y-118800500D01*
X75181393Y-118800500D01*
X75181394Y-118800500D01*
X75240646Y-118786976D01*
X75291351Y-118775403D01*
X75392967Y-118726467D01*
X75481146Y-118656146D01*
X75551467Y-118567967D01*
X75600403Y-118466351D01*
X75625500Y-118356394D01*
X80674500Y-118356394D01*
X80699596Y-118466350D01*
X80748532Y-118567967D01*
X80783196Y-118611433D01*
X80818854Y-118656146D01*
X80861964Y-118690525D01*
X80907032Y-118726467D01*
X81008649Y-118775403D01*
X81118606Y-118800500D01*
X81118607Y-118800500D01*
X81174901Y-118800500D01*
X81175000Y-118800500D01*
X81175500Y-118800500D01*
X94174500Y-118800500D01*
X94175099Y-118800500D01*
X94231393Y-118800500D01*
X94231394Y-118800500D01*
X94290646Y-118786976D01*
X94341351Y-118775403D01*
X94442967Y-118726467D01*
X94531146Y-118656146D01*
X94601467Y-118567967D01*
X94650403Y-118466351D01*
X94675500Y-118356394D01*
X99724500Y-118356394D01*
X99749596Y-118466350D01*
X99798532Y-118567967D01*
X99833196Y-118611433D01*
X99868854Y-118656146D01*
X99911964Y-118690525D01*
X99957032Y-118726467D01*
X100058649Y-118775403D01*
X100168606Y-118800500D01*
X100168607Y-118800500D01*
X100224901Y-118800500D01*
X100225000Y-118800500D01*
X100225500Y-118800500D01*
X113224500Y-118800500D01*
X113225099Y-118800500D01*
X113281393Y-118800500D01*
X113281394Y-118800500D01*
X113340646Y-118786976D01*
X113391351Y-118775403D01*
X113492967Y-118726467D01*
X113581146Y-118656146D01*
X113651467Y-118567967D01*
X113700403Y-118466351D01*
X113725500Y-118356394D01*
X118774500Y-118356394D01*
X118799596Y-118466350D01*
X118848532Y-118567967D01*
X118883196Y-118611433D01*
X118918854Y-118656146D01*
X118961964Y-118690525D01*
X119007032Y-118726467D01*
X119108649Y-118775403D01*
X119218606Y-118800500D01*
X119218607Y-118800500D01*
X119274901Y-118800500D01*
X119275000Y-118800500D01*
X119275500Y-118800500D01*
X132274500Y-118800500D01*
X132275099Y-118800500D01*
X132331393Y-118800500D01*
X132331394Y-118800500D01*
X132390646Y-118786976D01*
X132441351Y-118775403D01*
X132542967Y-118726467D01*
X132631146Y-118656146D01*
X132701467Y-118567967D01*
X132750403Y-118466351D01*
X132775500Y-118356394D01*
X137824500Y-118356394D01*
X137849596Y-118466350D01*
X137898532Y-118567967D01*
X137933196Y-118611433D01*
X137968854Y-118656146D01*
X138011964Y-118690525D01*
X138057032Y-118726467D01*
X138158649Y-118775403D01*
X138268606Y-118800500D01*
X138268607Y-118800500D01*
X138324901Y-118800500D01*
X138325000Y-118800500D01*
X138325500Y-118800500D01*
X151324500Y-118800500D01*
X151325099Y-118800500D01*
X151381393Y-118800500D01*
X151381394Y-118800500D01*
X151440646Y-118786976D01*
X151491351Y-118775403D01*
X151592967Y-118726467D01*
X151681146Y-118656146D01*
X151751467Y-118567967D01*
X151800403Y-118466351D01*
X151825500Y-118356394D01*
X156874500Y-118356394D01*
X156899596Y-118466350D01*
X156948532Y-118567967D01*
X156983196Y-118611433D01*
X157018854Y-118656146D01*
X157061964Y-118690525D01*
X157107032Y-118726467D01*
X157208649Y-118775403D01*
X157318606Y-118800500D01*
X157318607Y-118800500D01*
X157374901Y-118800500D01*
X157375000Y-118800500D01*
X157375500Y-118800500D01*
X170374500Y-118800500D01*
X170375099Y-118800500D01*
X170431393Y-118800500D01*
X170431394Y-118800500D01*
X170490646Y-118786976D01*
X170541351Y-118775403D01*
X170642967Y-118726467D01*
X170731146Y-118656146D01*
X170801467Y-118567967D01*
X170850403Y-118466351D01*
X170875500Y-118356394D01*
X175924500Y-118356394D01*
X175949596Y-118466350D01*
X175998532Y-118567967D01*
X176033196Y-118611433D01*
X176068854Y-118656146D01*
X176111964Y-118690525D01*
X176157032Y-118726467D01*
X176258649Y-118775403D01*
X176368606Y-118800500D01*
X176368607Y-118800500D01*
X176424901Y-118800500D01*
X176425000Y-118800500D01*
X176425500Y-118800500D01*
X189424500Y-118800500D01*
X189425099Y-118800500D01*
X189481393Y-118800500D01*
X189481394Y-118800500D01*
X189540646Y-118786976D01*
X189591351Y-118775403D01*
X189692967Y-118726467D01*
X189781146Y-118656146D01*
X189851467Y-118567967D01*
X189900403Y-118466351D01*
X189925500Y-118356394D01*
X194974500Y-118356394D01*
X194999596Y-118466350D01*
X195048532Y-118567967D01*
X195083196Y-118611433D01*
X195118854Y-118656146D01*
X195161964Y-118690525D01*
X195207032Y-118726467D01*
X195308649Y-118775403D01*
X195418606Y-118800500D01*
X195418607Y-118800500D01*
X195474901Y-118800500D01*
X195475000Y-118800500D01*
X195475500Y-118800500D01*
X208474500Y-118800500D01*
X208475099Y-118800500D01*
X208531393Y-118800500D01*
X208531394Y-118800500D01*
X208590646Y-118786976D01*
X208641351Y-118775403D01*
X208742967Y-118726467D01*
X208831146Y-118656146D01*
X208901467Y-118567967D01*
X208950403Y-118466351D01*
X208975500Y-118356394D01*
X214024500Y-118356394D01*
X214049596Y-118466350D01*
X214098532Y-118567967D01*
X214133196Y-118611433D01*
X214168854Y-118656146D01*
X214211964Y-118690525D01*
X214257032Y-118726467D01*
X214358649Y-118775403D01*
X214468606Y-118800500D01*
X214468607Y-118800500D01*
X214524901Y-118800500D01*
X214525000Y-118800500D01*
X214525500Y-118800500D01*
X227524500Y-118800500D01*
X227525099Y-118800500D01*
X227581393Y-118800500D01*
X227581394Y-118800500D01*
X227640646Y-118786976D01*
X227691351Y-118775403D01*
X227792967Y-118726467D01*
X227881146Y-118656146D01*
X227951467Y-118567967D01*
X228000403Y-118466351D01*
X228025500Y-118356394D01*
X233074500Y-118356394D01*
X233099596Y-118466350D01*
X233148532Y-118567967D01*
X233183196Y-118611433D01*
X233218854Y-118656146D01*
X233261964Y-118690525D01*
X233307032Y-118726467D01*
X233408649Y-118775403D01*
X233518606Y-118800500D01*
X233518607Y-118800500D01*
X233574901Y-118800500D01*
X233575000Y-118800500D01*
X233575500Y-118800500D01*
X246574500Y-118800500D01*
X246575099Y-118800500D01*
X246631393Y-118800500D01*
X246631394Y-118800500D01*
X246690646Y-118786976D01*
X246741351Y-118775403D01*
X246842967Y-118726467D01*
X246931146Y-118656146D01*
X247001467Y-118567967D01*
X247050403Y-118466351D01*
X247075500Y-118356394D01*
X256887000Y-118356394D01*
X256912096Y-118466350D01*
X256961032Y-118567967D01*
X256995696Y-118611433D01*
X257031354Y-118656146D01*
X257074464Y-118690525D01*
X257119532Y-118726467D01*
X257221149Y-118775403D01*
X257331106Y-118800500D01*
X257331107Y-118800500D01*
X257387401Y-118800500D01*
X257387500Y-118800500D01*
X257388000Y-118800500D01*
X270387000Y-118800500D01*
X270387599Y-118800500D01*
X270443893Y-118800500D01*
X270443894Y-118800500D01*
X270503146Y-118786976D01*
X270553851Y-118775403D01*
X270655467Y-118726467D01*
X270743646Y-118656146D01*
X270813967Y-118567967D01*
X270862903Y-118466351D01*
X270888000Y-118356393D01*
X270888000Y-118300000D01*
X270888000Y-118299500D01*
X270888000Y-105299901D01*
X270888000Y-105243607D01*
X270875502Y-105188851D01*
X270862903Y-105133649D01*
X270813967Y-105032032D01*
X270779304Y-104988567D01*
X270743646Y-104943854D01*
X270704523Y-104912654D01*
X270655467Y-104873532D01*
X270553850Y-104824596D01*
X270443894Y-104799500D01*
X270443893Y-104799500D01*
X270387599Y-104799500D01*
X257388000Y-104799500D01*
X257387500Y-104799500D01*
X257331107Y-104799500D01*
X257331106Y-104799500D01*
X257221149Y-104824596D01*
X257119532Y-104873532D01*
X257031354Y-104943854D01*
X256961032Y-105032032D01*
X256912096Y-105133649D01*
X256887000Y-105243606D01*
X256887000Y-118356394D01*
X247075500Y-118356394D01*
X247075500Y-118356393D01*
X247075500Y-118300000D01*
X247075500Y-118299500D01*
X247075500Y-105299901D01*
X247075500Y-105243607D01*
X247063002Y-105188851D01*
X247050403Y-105133649D01*
X247001467Y-105032032D01*
X246966804Y-104988567D01*
X246931146Y-104943854D01*
X246892023Y-104912654D01*
X246842967Y-104873532D01*
X246741350Y-104824596D01*
X246631394Y-104799500D01*
X246631393Y-104799500D01*
X246575099Y-104799500D01*
X233575500Y-104799500D01*
X233575000Y-104799500D01*
X233518607Y-104799500D01*
X233518606Y-104799500D01*
X233408649Y-104824596D01*
X233307032Y-104873532D01*
X233218854Y-104943854D01*
X233148532Y-105032032D01*
X233099596Y-105133649D01*
X233074500Y-105243606D01*
X233074500Y-118356394D01*
X228025500Y-118356394D01*
X228025500Y-118356393D01*
X228025500Y-118300000D01*
X228025500Y-118299500D01*
X228025500Y-105299901D01*
X228025500Y-105243607D01*
X228013002Y-105188851D01*
X228000403Y-105133649D01*
X227951467Y-105032032D01*
X227916804Y-104988567D01*
X227881146Y-104943854D01*
X227842023Y-104912654D01*
X227792967Y-104873532D01*
X227691350Y-104824596D01*
X227581394Y-104799500D01*
X227581393Y-104799500D01*
X227525099Y-104799500D01*
X214525500Y-104799500D01*
X214525000Y-104799500D01*
X214468607Y-104799500D01*
X214468606Y-104799500D01*
X214358649Y-104824596D01*
X214257032Y-104873532D01*
X214168854Y-104943854D01*
X214098532Y-105032032D01*
X214049596Y-105133649D01*
X214024500Y-105243606D01*
X214024500Y-118356394D01*
X208975500Y-118356394D01*
X208975500Y-118356393D01*
X208975500Y-118300000D01*
X208975500Y-118299500D01*
X208975500Y-105299901D01*
X208975500Y-105243607D01*
X208963002Y-105188851D01*
X208950403Y-105133649D01*
X208901467Y-105032032D01*
X208866804Y-104988567D01*
X208831146Y-104943854D01*
X208792023Y-104912654D01*
X208742967Y-104873532D01*
X208641350Y-104824596D01*
X208531394Y-104799500D01*
X208531393Y-104799500D01*
X208475099Y-104799500D01*
X195475500Y-104799500D01*
X195475000Y-104799500D01*
X195418607Y-104799500D01*
X195418606Y-104799500D01*
X195308649Y-104824596D01*
X195207032Y-104873532D01*
X195118854Y-104943854D01*
X195048532Y-105032032D01*
X194999596Y-105133649D01*
X194974500Y-105243606D01*
X194974500Y-118356394D01*
X189925500Y-118356394D01*
X189925500Y-118356393D01*
X189925500Y-118300000D01*
X189925500Y-118299500D01*
X189925500Y-105299901D01*
X189925500Y-105243607D01*
X189913002Y-105188851D01*
X189900403Y-105133649D01*
X189851467Y-105032032D01*
X189816804Y-104988567D01*
X189781146Y-104943854D01*
X189742023Y-104912654D01*
X189692967Y-104873532D01*
X189591350Y-104824596D01*
X189481394Y-104799500D01*
X189481393Y-104799500D01*
X189425099Y-104799500D01*
X176425500Y-104799500D01*
X176425000Y-104799500D01*
X176368607Y-104799500D01*
X176368606Y-104799500D01*
X176258649Y-104824596D01*
X176157032Y-104873532D01*
X176068854Y-104943854D01*
X175998532Y-105032032D01*
X175949596Y-105133649D01*
X175924500Y-105243606D01*
X175924500Y-118356394D01*
X170875500Y-118356394D01*
X170875500Y-118356393D01*
X170875500Y-118300000D01*
X170875500Y-118299500D01*
X170875500Y-105299901D01*
X170875500Y-105243607D01*
X170863002Y-105188851D01*
X170850403Y-105133649D01*
X170801467Y-105032032D01*
X170766804Y-104988567D01*
X170731146Y-104943854D01*
X170692023Y-104912654D01*
X170642967Y-104873532D01*
X170541350Y-104824596D01*
X170431394Y-104799500D01*
X170431393Y-104799500D01*
X170375099Y-104799500D01*
X157375500Y-104799500D01*
X157375000Y-104799500D01*
X157318607Y-104799500D01*
X157318606Y-104799500D01*
X157208649Y-104824596D01*
X157107032Y-104873532D01*
X157018854Y-104943854D01*
X156948532Y-105032032D01*
X156899596Y-105133649D01*
X156874500Y-105243606D01*
X156874500Y-118356394D01*
X151825500Y-118356394D01*
X151825500Y-118356393D01*
X151825500Y-118300000D01*
X151825500Y-118299500D01*
X151825500Y-105299901D01*
X151825500Y-105243607D01*
X151813002Y-105188851D01*
X151800403Y-105133649D01*
X151751467Y-105032032D01*
X151716804Y-104988567D01*
X151681146Y-104943854D01*
X151642023Y-104912654D01*
X151592967Y-104873532D01*
X151491350Y-104824596D01*
X151381394Y-104799500D01*
X151381393Y-104799500D01*
X151325099Y-104799500D01*
X138325500Y-104799500D01*
X138325000Y-104799500D01*
X138268607Y-104799500D01*
X138268606Y-104799500D01*
X138158649Y-104824596D01*
X138057032Y-104873532D01*
X137968854Y-104943854D01*
X137898532Y-105032032D01*
X137849596Y-105133649D01*
X137824500Y-105243606D01*
X137824500Y-118356394D01*
X132775500Y-118356394D01*
X132775500Y-118356393D01*
X132775500Y-118300000D01*
X132775500Y-118299500D01*
X132775500Y-105299901D01*
X132775500Y-105243607D01*
X132763002Y-105188851D01*
X132750403Y-105133649D01*
X132701467Y-105032032D01*
X132666804Y-104988567D01*
X132631146Y-104943854D01*
X132592023Y-104912654D01*
X132542967Y-104873532D01*
X132441350Y-104824596D01*
X132331394Y-104799500D01*
X132331393Y-104799500D01*
X132275099Y-104799500D01*
X119275500Y-104799500D01*
X119275000Y-104799500D01*
X119218607Y-104799500D01*
X119218606Y-104799500D01*
X119108649Y-104824596D01*
X119007032Y-104873532D01*
X118918854Y-104943854D01*
X118848532Y-105032032D01*
X118799596Y-105133649D01*
X118774500Y-105243606D01*
X118774500Y-118356394D01*
X113725500Y-118356394D01*
X113725500Y-118356393D01*
X113725500Y-118300000D01*
X113725500Y-118299500D01*
X113725500Y-105299901D01*
X113725500Y-105243607D01*
X113713002Y-105188851D01*
X113700403Y-105133649D01*
X113651467Y-105032032D01*
X113616804Y-104988567D01*
X113581146Y-104943854D01*
X113542023Y-104912654D01*
X113492967Y-104873532D01*
X113391350Y-104824596D01*
X113281394Y-104799500D01*
X113281393Y-104799500D01*
X113225099Y-104799500D01*
X100225500Y-104799500D01*
X100225000Y-104799500D01*
X100168607Y-104799500D01*
X100168606Y-104799500D01*
X100058649Y-104824596D01*
X99957032Y-104873532D01*
X99868854Y-104943854D01*
X99798532Y-105032032D01*
X99749596Y-105133649D01*
X99724500Y-105243606D01*
X99724500Y-118356394D01*
X94675500Y-118356394D01*
X94675500Y-118356393D01*
X94675500Y-118300000D01*
X94675500Y-118299500D01*
X94675500Y-105299901D01*
X94675500Y-105243607D01*
X94663002Y-105188851D01*
X94650403Y-105133649D01*
X94601467Y-105032032D01*
X94566804Y-104988567D01*
X94531146Y-104943854D01*
X94492023Y-104912654D01*
X94442967Y-104873532D01*
X94341350Y-104824596D01*
X94231394Y-104799500D01*
X94231393Y-104799500D01*
X94175099Y-104799500D01*
X81175500Y-104799500D01*
X81175000Y-104799500D01*
X81118607Y-104799500D01*
X81118606Y-104799500D01*
X81008649Y-104824596D01*
X80907032Y-104873532D01*
X80818854Y-104943854D01*
X80748532Y-105032032D01*
X80699596Y-105133649D01*
X80674500Y-105243606D01*
X80674500Y-118356394D01*
X75625500Y-118356394D01*
X75625500Y-118356393D01*
X75625500Y-118300000D01*
X75625500Y-118299500D01*
X75625500Y-105299901D01*
X75625500Y-105243607D01*
X75613002Y-105188851D01*
X75600403Y-105133649D01*
X75551467Y-105032032D01*
X75516804Y-104988567D01*
X75481146Y-104943854D01*
X75442023Y-104912654D01*
X75392967Y-104873532D01*
X75291350Y-104824596D01*
X75181394Y-104799500D01*
X75181393Y-104799500D01*
X75125099Y-104799500D01*
X62125500Y-104799500D01*
X62125000Y-104799500D01*
X62068607Y-104799500D01*
X62068606Y-104799500D01*
X61958649Y-104824596D01*
X61857032Y-104873532D01*
X61768854Y-104943854D01*
X61698532Y-105032032D01*
X61649596Y-105133649D01*
X61624500Y-105243606D01*
X61624500Y-118356394D01*
X56575500Y-118356394D01*
X56575500Y-118356393D01*
X56575500Y-118300000D01*
X56575500Y-118299500D01*
X56575500Y-105299901D01*
X56575500Y-105243607D01*
X56563002Y-105188851D01*
X56550403Y-105133649D01*
X56501467Y-105032032D01*
X56466804Y-104988567D01*
X56431146Y-104943854D01*
X56392023Y-104912654D01*
X56342967Y-104873532D01*
X56241350Y-104824596D01*
X56131394Y-104799500D01*
X56131393Y-104799500D01*
X56075099Y-104799500D01*
X43075500Y-104799500D01*
X43075000Y-104799500D01*
X43018607Y-104799500D01*
X43018606Y-104799500D01*
X42908649Y-104824596D01*
X42807032Y-104873532D01*
X42718854Y-104943854D01*
X42648532Y-105032032D01*
X42599596Y-105133649D01*
X42574500Y-105243606D01*
X42574500Y-118356394D01*
X37525500Y-118356394D01*
X37525500Y-118356393D01*
X37525500Y-118300000D01*
X37525500Y-118299500D01*
X37525500Y-105299901D01*
X37525500Y-105243607D01*
X37513002Y-105188851D01*
X37500403Y-105133649D01*
X37451467Y-105032032D01*
X37416804Y-104988567D01*
X37381146Y-104943854D01*
X37342023Y-104912654D01*
X37292967Y-104873532D01*
X37191350Y-104824596D01*
X37081394Y-104799500D01*
X37081393Y-104799500D01*
X37025099Y-104799500D01*
X24025500Y-104799500D01*
X24025000Y-104799500D01*
X23968607Y-104799500D01*
X23968606Y-104799500D01*
X23858649Y-104824596D01*
X23757032Y-104873532D01*
X23668854Y-104943854D01*
X23598532Y-105032032D01*
X23549596Y-105133649D01*
X23524500Y-105243606D01*
X23524500Y-118356394D01*
X21000500Y-118356394D01*
X21000500Y-99306394D01*
X23524500Y-99306394D01*
X23549596Y-99416350D01*
X23598532Y-99517967D01*
X23633196Y-99561433D01*
X23668854Y-99606146D01*
X23711964Y-99640525D01*
X23757032Y-99676467D01*
X23858649Y-99725403D01*
X23968606Y-99750500D01*
X23968607Y-99750500D01*
X24024901Y-99750500D01*
X24025000Y-99750500D01*
X24025500Y-99750500D01*
X37024500Y-99750500D01*
X37025099Y-99750500D01*
X37081393Y-99750500D01*
X37081394Y-99750500D01*
X37140646Y-99736976D01*
X37191351Y-99725403D01*
X37292967Y-99676467D01*
X37381146Y-99606146D01*
X37451467Y-99517967D01*
X37500403Y-99416351D01*
X37525500Y-99306394D01*
X42574500Y-99306394D01*
X42599596Y-99416350D01*
X42648532Y-99517967D01*
X42683196Y-99561433D01*
X42718854Y-99606146D01*
X42761964Y-99640525D01*
X42807032Y-99676467D01*
X42908649Y-99725403D01*
X43018606Y-99750500D01*
X43018607Y-99750500D01*
X43074901Y-99750500D01*
X43075000Y-99750500D01*
X43075500Y-99750500D01*
X56074500Y-99750500D01*
X56075099Y-99750500D01*
X56131393Y-99750500D01*
X56131394Y-99750500D01*
X56190646Y-99736976D01*
X56241351Y-99725403D01*
X56342967Y-99676467D01*
X56431146Y-99606146D01*
X56501467Y-99517967D01*
X56550403Y-99416351D01*
X56575500Y-99306394D01*
X61624500Y-99306394D01*
X61649596Y-99416350D01*
X61698532Y-99517967D01*
X61733196Y-99561433D01*
X61768854Y-99606146D01*
X61811964Y-99640525D01*
X61857032Y-99676467D01*
X61958649Y-99725403D01*
X62068606Y-99750500D01*
X62068607Y-99750500D01*
X62124901Y-99750500D01*
X62125000Y-99750500D01*
X62125500Y-99750500D01*
X75124500Y-99750500D01*
X75125099Y-99750500D01*
X75181393Y-99750500D01*
X75181394Y-99750500D01*
X75240646Y-99736976D01*
X75291351Y-99725403D01*
X75392967Y-99676467D01*
X75481146Y-99606146D01*
X75551467Y-99517967D01*
X75600403Y-99416351D01*
X75625500Y-99306394D01*
X80674500Y-99306394D01*
X80699596Y-99416350D01*
X80748532Y-99517967D01*
X80783196Y-99561433D01*
X80818854Y-99606146D01*
X80861964Y-99640525D01*
X80907032Y-99676467D01*
X81008649Y-99725403D01*
X81118606Y-99750500D01*
X81118607Y-99750500D01*
X81174901Y-99750500D01*
X81175000Y-99750500D01*
X81175500Y-99750500D01*
X94174500Y-99750500D01*
X94175099Y-99750500D01*
X94231393Y-99750500D01*
X94231394Y-99750500D01*
X94290646Y-99736976D01*
X94341351Y-99725403D01*
X94442967Y-99676467D01*
X94531146Y-99606146D01*
X94601467Y-99517967D01*
X94650403Y-99416351D01*
X94675500Y-99306394D01*
X99724500Y-99306394D01*
X99749596Y-99416350D01*
X99798532Y-99517967D01*
X99833196Y-99561433D01*
X99868854Y-99606146D01*
X99911964Y-99640525D01*
X99957032Y-99676467D01*
X100058649Y-99725403D01*
X100168606Y-99750500D01*
X100168607Y-99750500D01*
X100224901Y-99750500D01*
X100225000Y-99750500D01*
X100225500Y-99750500D01*
X113224500Y-99750500D01*
X113225099Y-99750500D01*
X113281393Y-99750500D01*
X113281394Y-99750500D01*
X113340646Y-99736976D01*
X113391351Y-99725403D01*
X113492967Y-99676467D01*
X113581146Y-99606146D01*
X113651467Y-99517967D01*
X113700403Y-99416351D01*
X113725500Y-99306394D01*
X118774500Y-99306394D01*
X118799596Y-99416350D01*
X118848532Y-99517967D01*
X118883196Y-99561433D01*
X118918854Y-99606146D01*
X118961964Y-99640525D01*
X119007032Y-99676467D01*
X119108649Y-99725403D01*
X119218606Y-99750500D01*
X119218607Y-99750500D01*
X119274901Y-99750500D01*
X119275000Y-99750500D01*
X119275500Y-99750500D01*
X132274500Y-99750500D01*
X132275099Y-99750500D01*
X132331393Y-99750500D01*
X132331394Y-99750500D01*
X132390646Y-99736976D01*
X132441351Y-99725403D01*
X132542967Y-99676467D01*
X132631146Y-99606146D01*
X132701467Y-99517967D01*
X132750403Y-99416351D01*
X132775500Y-99306394D01*
X137824500Y-99306394D01*
X137849596Y-99416350D01*
X137898532Y-99517967D01*
X137933196Y-99561433D01*
X137968854Y-99606146D01*
X138011964Y-99640525D01*
X138057032Y-99676467D01*
X138158649Y-99725403D01*
X138268606Y-99750500D01*
X138268607Y-99750500D01*
X138324901Y-99750500D01*
X138325000Y-99750500D01*
X138325500Y-99750500D01*
X151324500Y-99750500D01*
X151325099Y-99750500D01*
X151381393Y-99750500D01*
X151381394Y-99750500D01*
X151440646Y-99736976D01*
X151491351Y-99725403D01*
X151592967Y-99676467D01*
X151681146Y-99606146D01*
X151751467Y-99517967D01*
X151800403Y-99416351D01*
X151825500Y-99306394D01*
X156874500Y-99306394D01*
X156899596Y-99416350D01*
X156948532Y-99517967D01*
X156983196Y-99561433D01*
X157018854Y-99606146D01*
X157061964Y-99640525D01*
X157107032Y-99676467D01*
X157208649Y-99725403D01*
X157318606Y-99750500D01*
X157318607Y-99750500D01*
X157374901Y-99750500D01*
X157375000Y-99750500D01*
X157375500Y-99750500D01*
X170374500Y-99750500D01*
X170375099Y-99750500D01*
X170431393Y-99750500D01*
X170431394Y-99750500D01*
X170490646Y-99736976D01*
X170541351Y-99725403D01*
X170642967Y-99676467D01*
X170731146Y-99606146D01*
X170801467Y-99517967D01*
X170850403Y-99416351D01*
X170875500Y-99306394D01*
X175924500Y-99306394D01*
X175949596Y-99416350D01*
X175998532Y-99517967D01*
X176033196Y-99561433D01*
X176068854Y-99606146D01*
X176111964Y-99640525D01*
X176157032Y-99676467D01*
X176258649Y-99725403D01*
X176368606Y-99750500D01*
X176368607Y-99750500D01*
X176424901Y-99750500D01*
X176425000Y-99750500D01*
X176425500Y-99750500D01*
X189424500Y-99750500D01*
X189425099Y-99750500D01*
X189481393Y-99750500D01*
X189481394Y-99750500D01*
X189540646Y-99736976D01*
X189591351Y-99725403D01*
X189692967Y-99676467D01*
X189781146Y-99606146D01*
X189851467Y-99517967D01*
X189900403Y-99416351D01*
X189925500Y-99306394D01*
X194974500Y-99306394D01*
X194999596Y-99416350D01*
X195048532Y-99517967D01*
X195083196Y-99561433D01*
X195118854Y-99606146D01*
X195161964Y-99640525D01*
X195207032Y-99676467D01*
X195308649Y-99725403D01*
X195418606Y-99750500D01*
X195418607Y-99750500D01*
X195474901Y-99750500D01*
X195475000Y-99750500D01*
X195475500Y-99750500D01*
X208474500Y-99750500D01*
X208475099Y-99750500D01*
X208531393Y-99750500D01*
X208531394Y-99750500D01*
X208590646Y-99736976D01*
X208641351Y-99725403D01*
X208742967Y-99676467D01*
X208831146Y-99606146D01*
X208901467Y-99517967D01*
X208950403Y-99416351D01*
X208975500Y-99306394D01*
X214024500Y-99306394D01*
X214049596Y-99416350D01*
X214098532Y-99517967D01*
X214133196Y-99561433D01*
X214168854Y-99606146D01*
X214211964Y-99640525D01*
X214257032Y-99676467D01*
X214358649Y-99725403D01*
X214468606Y-99750500D01*
X214468607Y-99750500D01*
X214524901Y-99750500D01*
X214525000Y-99750500D01*
X214525500Y-99750500D01*
X227524500Y-99750500D01*
X227525099Y-99750500D01*
X227581393Y-99750500D01*
X227581394Y-99750500D01*
X227640646Y-99736976D01*
X227691351Y-99725403D01*
X227792967Y-99676467D01*
X227881146Y-99606146D01*
X227951467Y-99517967D01*
X228000403Y-99416351D01*
X228025500Y-99306394D01*
X233074500Y-99306394D01*
X233099596Y-99416350D01*
X233148532Y-99517967D01*
X233183196Y-99561433D01*
X233218854Y-99606146D01*
X233261964Y-99640525D01*
X233307032Y-99676467D01*
X233408649Y-99725403D01*
X233518606Y-99750500D01*
X233518607Y-99750500D01*
X233574901Y-99750500D01*
X233575000Y-99750500D01*
X233575500Y-99750500D01*
X246574500Y-99750500D01*
X246575099Y-99750500D01*
X246631393Y-99750500D01*
X246631394Y-99750500D01*
X246690646Y-99736976D01*
X246741351Y-99725403D01*
X246842967Y-99676467D01*
X246931146Y-99606146D01*
X247001467Y-99517967D01*
X247050403Y-99416351D01*
X247075500Y-99306394D01*
X256887000Y-99306394D01*
X256912096Y-99416350D01*
X256961032Y-99517967D01*
X256995696Y-99561433D01*
X257031354Y-99606146D01*
X257074464Y-99640525D01*
X257119532Y-99676467D01*
X257221149Y-99725403D01*
X257331106Y-99750500D01*
X257331107Y-99750500D01*
X257387401Y-99750500D01*
X257387500Y-99750500D01*
X257388000Y-99750500D01*
X270387000Y-99750500D01*
X270387599Y-99750500D01*
X270443893Y-99750500D01*
X270443894Y-99750500D01*
X270503146Y-99736976D01*
X270553851Y-99725403D01*
X270655467Y-99676467D01*
X270743646Y-99606146D01*
X270813967Y-99517967D01*
X270862903Y-99416351D01*
X270888000Y-99306393D01*
X270888000Y-99250000D01*
X270888000Y-99249500D01*
X270888000Y-86249901D01*
X270888000Y-86193607D01*
X270875502Y-86138851D01*
X270862903Y-86083649D01*
X270813967Y-85982032D01*
X270779304Y-85938567D01*
X270743646Y-85893854D01*
X270704523Y-85862654D01*
X270655467Y-85823532D01*
X270553850Y-85774596D01*
X270443894Y-85749500D01*
X270443893Y-85749500D01*
X270387599Y-85749500D01*
X257388000Y-85749500D01*
X257387500Y-85749500D01*
X257331107Y-85749500D01*
X257331106Y-85749500D01*
X257221149Y-85774596D01*
X257119532Y-85823532D01*
X257031354Y-85893854D01*
X256961032Y-85982032D01*
X256912096Y-86083649D01*
X256887000Y-86193606D01*
X256887000Y-99306394D01*
X247075500Y-99306394D01*
X247075500Y-99306393D01*
X247075500Y-99250000D01*
X247075500Y-99249500D01*
X247075500Y-86249901D01*
X247075500Y-86193607D01*
X247063002Y-86138851D01*
X247050403Y-86083649D01*
X247001467Y-85982032D01*
X246966804Y-85938567D01*
X246931146Y-85893854D01*
X246892023Y-85862654D01*
X246842967Y-85823532D01*
X246741350Y-85774596D01*
X246631394Y-85749500D01*
X246631393Y-85749500D01*
X246575099Y-85749500D01*
X233575500Y-85749500D01*
X233575000Y-85749500D01*
X233518607Y-85749500D01*
X233518606Y-85749500D01*
X233408649Y-85774596D01*
X233307032Y-85823532D01*
X233218854Y-85893854D01*
X233148532Y-85982032D01*
X233099596Y-86083649D01*
X233074500Y-86193606D01*
X233074500Y-99306394D01*
X228025500Y-99306394D01*
X228025500Y-99306393D01*
X228025500Y-99250000D01*
X228025500Y-99249500D01*
X228025500Y-86249901D01*
X228025500Y-86193607D01*
X228013002Y-86138851D01*
X228000403Y-86083649D01*
X227951467Y-85982032D01*
X227916804Y-85938567D01*
X227881146Y-85893854D01*
X227842023Y-85862654D01*
X227792967Y-85823532D01*
X227691350Y-85774596D01*
X227581394Y-85749500D01*
X227581393Y-85749500D01*
X227525099Y-85749500D01*
X214525500Y-85749500D01*
X214525000Y-85749500D01*
X214468607Y-85749500D01*
X214468606Y-85749500D01*
X214358649Y-85774596D01*
X214257032Y-85823532D01*
X214168854Y-85893854D01*
X214098532Y-85982032D01*
X214049596Y-86083649D01*
X214024500Y-86193606D01*
X214024500Y-99306394D01*
X208975500Y-99306394D01*
X208975500Y-99306393D01*
X208975500Y-99250000D01*
X208975500Y-99249500D01*
X208975500Y-86249901D01*
X208975500Y-86193607D01*
X208963002Y-86138851D01*
X208950403Y-86083649D01*
X208901467Y-85982032D01*
X208866804Y-85938567D01*
X208831146Y-85893854D01*
X208792023Y-85862654D01*
X208742967Y-85823532D01*
X208641350Y-85774596D01*
X208531394Y-85749500D01*
X208531393Y-85749500D01*
X208475099Y-85749500D01*
X195475500Y-85749500D01*
X195475000Y-85749500D01*
X195418607Y-85749500D01*
X195418606Y-85749500D01*
X195308649Y-85774596D01*
X195207032Y-85823532D01*
X195118854Y-85893854D01*
X195048532Y-85982032D01*
X194999596Y-86083649D01*
X194974500Y-86193606D01*
X194974500Y-99306394D01*
X189925500Y-99306394D01*
X189925500Y-99306393D01*
X189925500Y-99250000D01*
X189925500Y-99249500D01*
X189925500Y-86249901D01*
X189925500Y-86193607D01*
X189913002Y-86138851D01*
X189900403Y-86083649D01*
X189851467Y-85982032D01*
X189816804Y-85938567D01*
X189781146Y-85893854D01*
X189742023Y-85862654D01*
X189692967Y-85823532D01*
X189591350Y-85774596D01*
X189481394Y-85749500D01*
X189481393Y-85749500D01*
X189425099Y-85749500D01*
X176425500Y-85749500D01*
X176425000Y-85749500D01*
X176368607Y-85749500D01*
X176368606Y-85749500D01*
X176258649Y-85774596D01*
X176157032Y-85823532D01*
X176068854Y-85893854D01*
X175998532Y-85982032D01*
X175949596Y-86083649D01*
X175924500Y-86193606D01*
X175924500Y-99306394D01*
X170875500Y-99306394D01*
X170875500Y-99306393D01*
X170875500Y-99250000D01*
X170875500Y-99249500D01*
X170875500Y-86249901D01*
X170875500Y-86193607D01*
X170863002Y-86138851D01*
X170850403Y-86083649D01*
X170801467Y-85982032D01*
X170766804Y-85938567D01*
X170731146Y-85893854D01*
X170692023Y-85862654D01*
X170642967Y-85823532D01*
X170541350Y-85774596D01*
X170431394Y-85749500D01*
X170431393Y-85749500D01*
X170375099Y-85749500D01*
X157375500Y-85749500D01*
X157375000Y-85749500D01*
X157318607Y-85749500D01*
X157318606Y-85749500D01*
X157208649Y-85774596D01*
X157107032Y-85823532D01*
X157018854Y-85893854D01*
X156948532Y-85982032D01*
X156899596Y-86083649D01*
X156874500Y-86193606D01*
X156874500Y-99306394D01*
X151825500Y-99306394D01*
X151825500Y-99306393D01*
X151825500Y-99250000D01*
X151825500Y-99249500D01*
X151825500Y-86249901D01*
X151825500Y-86193607D01*
X151813002Y-86138851D01*
X151800403Y-86083649D01*
X151751467Y-85982032D01*
X151716804Y-85938567D01*
X151681146Y-85893854D01*
X151642023Y-85862654D01*
X151592967Y-85823532D01*
X151491350Y-85774596D01*
X151381394Y-85749500D01*
X151381393Y-85749500D01*
X151325099Y-85749500D01*
X138325500Y-85749500D01*
X138325000Y-85749500D01*
X138268607Y-85749500D01*
X138268606Y-85749500D01*
X138158649Y-85774596D01*
X138057032Y-85823532D01*
X137968854Y-85893854D01*
X137898532Y-85982032D01*
X137849596Y-86083649D01*
X137824500Y-86193606D01*
X137824500Y-99306394D01*
X132775500Y-99306394D01*
X132775500Y-99306393D01*
X132775500Y-99250000D01*
X132775500Y-99249500D01*
X132775500Y-86249901D01*
X132775500Y-86193607D01*
X132763002Y-86138851D01*
X132750403Y-86083649D01*
X132701467Y-85982032D01*
X132666804Y-85938567D01*
X132631146Y-85893854D01*
X132592023Y-85862654D01*
X132542967Y-85823532D01*
X132441350Y-85774596D01*
X132331394Y-85749500D01*
X132331393Y-85749500D01*
X132275099Y-85749500D01*
X119275500Y-85749500D01*
X119275000Y-85749500D01*
X119218607Y-85749500D01*
X119218606Y-85749500D01*
X119108649Y-85774596D01*
X119007032Y-85823532D01*
X118918854Y-85893854D01*
X118848532Y-85982032D01*
X118799596Y-86083649D01*
X118774500Y-86193606D01*
X118774500Y-99306394D01*
X113725500Y-99306394D01*
X113725500Y-99306393D01*
X113725500Y-99250000D01*
X113725500Y-99249500D01*
X113725500Y-86249901D01*
X113725500Y-86193607D01*
X113713002Y-86138851D01*
X113700403Y-86083649D01*
X113651467Y-85982032D01*
X113616804Y-85938567D01*
X113581146Y-85893854D01*
X113542023Y-85862654D01*
X113492967Y-85823532D01*
X113391350Y-85774596D01*
X113281394Y-85749500D01*
X113281393Y-85749500D01*
X113225099Y-85749500D01*
X100225500Y-85749500D01*
X100225000Y-85749500D01*
X100168607Y-85749500D01*
X100168606Y-85749500D01*
X100058649Y-85774596D01*
X99957032Y-85823532D01*
X99868854Y-85893854D01*
X99798532Y-85982032D01*
X99749596Y-86083649D01*
X99724500Y-86193606D01*
X99724500Y-99306394D01*
X94675500Y-99306394D01*
X94675500Y-99306393D01*
X94675500Y-99250000D01*
X94675500Y-99249500D01*
X94675500Y-86249901D01*
X94675500Y-86193607D01*
X94663002Y-86138851D01*
X94650403Y-86083649D01*
X94601467Y-85982032D01*
X94566804Y-85938567D01*
X94531146Y-85893854D01*
X94492023Y-85862654D01*
X94442967Y-85823532D01*
X94341350Y-85774596D01*
X94231394Y-85749500D01*
X94231393Y-85749500D01*
X94175099Y-85749500D01*
X81175500Y-85749500D01*
X81175000Y-85749500D01*
X81118607Y-85749500D01*
X81118606Y-85749500D01*
X81008649Y-85774596D01*
X80907032Y-85823532D01*
X80818854Y-85893854D01*
X80748532Y-85982032D01*
X80699596Y-86083649D01*
X80674500Y-86193606D01*
X80674500Y-99306394D01*
X75625500Y-99306394D01*
X75625500Y-99306393D01*
X75625500Y-99250000D01*
X75625500Y-99249500D01*
X75625500Y-86249901D01*
X75625500Y-86193607D01*
X75613002Y-86138851D01*
X75600403Y-86083649D01*
X75551467Y-85982032D01*
X75516804Y-85938567D01*
X75481146Y-85893854D01*
X75442023Y-85862654D01*
X75392967Y-85823532D01*
X75291350Y-85774596D01*
X75181394Y-85749500D01*
X75181393Y-85749500D01*
X75125099Y-85749500D01*
X62125500Y-85749500D01*
X62125000Y-85749500D01*
X62068607Y-85749500D01*
X62068606Y-85749500D01*
X61958649Y-85774596D01*
X61857032Y-85823532D01*
X61768854Y-85893854D01*
X61698532Y-85982032D01*
X61649596Y-86083649D01*
X61624500Y-86193606D01*
X61624500Y-99306394D01*
X56575500Y-99306394D01*
X56575500Y-99306393D01*
X56575500Y-99250000D01*
X56575500Y-99249500D01*
X56575500Y-86249901D01*
X56575500Y-86193607D01*
X56563002Y-86138851D01*
X56550403Y-86083649D01*
X56501467Y-85982032D01*
X56466804Y-85938567D01*
X56431146Y-85893854D01*
X56392023Y-85862654D01*
X56342967Y-85823532D01*
X56241350Y-85774596D01*
X56131394Y-85749500D01*
X56131393Y-85749500D01*
X56075099Y-85749500D01*
X43075500Y-85749500D01*
X43075000Y-85749500D01*
X43018607Y-85749500D01*
X43018606Y-85749500D01*
X42908649Y-85774596D01*
X42807032Y-85823532D01*
X42718854Y-85893854D01*
X42648532Y-85982032D01*
X42599596Y-86083649D01*
X42574500Y-86193606D01*
X42574500Y-99306394D01*
X37525500Y-99306394D01*
X37525500Y-99306393D01*
X37525500Y-99250000D01*
X37525500Y-99249500D01*
X37525500Y-86249901D01*
X37525500Y-86193607D01*
X37513002Y-86138851D01*
X37500403Y-86083649D01*
X37451467Y-85982032D01*
X37416804Y-85938567D01*
X37381146Y-85893854D01*
X37342023Y-85862654D01*
X37292967Y-85823532D01*
X37191350Y-85774596D01*
X37081394Y-85749500D01*
X37081393Y-85749500D01*
X37025099Y-85749500D01*
X24025500Y-85749500D01*
X24025000Y-85749500D01*
X23968607Y-85749500D01*
X23968606Y-85749500D01*
X23858649Y-85774596D01*
X23757032Y-85823532D01*
X23668854Y-85893854D01*
X23598532Y-85982032D01*
X23549596Y-86083649D01*
X23524500Y-86193606D01*
X23524500Y-99306394D01*
X21000500Y-99306394D01*
X21000500Y-80256394D01*
X23524500Y-80256394D01*
X23549596Y-80366350D01*
X23598532Y-80467967D01*
X23633196Y-80511433D01*
X23668854Y-80556146D01*
X23711964Y-80590525D01*
X23757032Y-80626467D01*
X23858649Y-80675403D01*
X23968606Y-80700500D01*
X23968607Y-80700500D01*
X24024901Y-80700500D01*
X24025000Y-80700500D01*
X24025500Y-80700500D01*
X37024500Y-80700500D01*
X37025099Y-80700500D01*
X37081393Y-80700500D01*
X37081394Y-80700500D01*
X37140646Y-80686976D01*
X37191351Y-80675403D01*
X37292967Y-80626467D01*
X37381146Y-80556146D01*
X37451467Y-80467967D01*
X37500403Y-80366351D01*
X37525500Y-80256394D01*
X42574500Y-80256394D01*
X42599596Y-80366350D01*
X42648532Y-80467967D01*
X42683196Y-80511433D01*
X42718854Y-80556146D01*
X42761964Y-80590525D01*
X42807032Y-80626467D01*
X42908649Y-80675403D01*
X43018606Y-80700500D01*
X43018607Y-80700500D01*
X43074901Y-80700500D01*
X43075000Y-80700500D01*
X43075500Y-80700500D01*
X56074500Y-80700500D01*
X56075099Y-80700500D01*
X56131393Y-80700500D01*
X56131394Y-80700500D01*
X56190646Y-80686976D01*
X56241351Y-80675403D01*
X56342967Y-80626467D01*
X56431146Y-80556146D01*
X56501467Y-80467967D01*
X56550403Y-80366351D01*
X56575500Y-80256394D01*
X61624500Y-80256394D01*
X61649596Y-80366350D01*
X61698532Y-80467967D01*
X61733196Y-80511433D01*
X61768854Y-80556146D01*
X61811964Y-80590525D01*
X61857032Y-80626467D01*
X61958649Y-80675403D01*
X62068606Y-80700500D01*
X62068607Y-80700500D01*
X62124901Y-80700500D01*
X62125000Y-80700500D01*
X62125500Y-80700500D01*
X75124500Y-80700500D01*
X75125099Y-80700500D01*
X75181393Y-80700500D01*
X75181394Y-80700500D01*
X75240646Y-80686976D01*
X75291351Y-80675403D01*
X75392967Y-80626467D01*
X75481146Y-80556146D01*
X75551467Y-80467967D01*
X75600403Y-80366351D01*
X75625500Y-80256394D01*
X80674500Y-80256394D01*
X80699596Y-80366350D01*
X80748532Y-80467967D01*
X80783196Y-80511433D01*
X80818854Y-80556146D01*
X80861964Y-80590525D01*
X80907032Y-80626467D01*
X81008649Y-80675403D01*
X81118606Y-80700500D01*
X81118607Y-80700500D01*
X81174901Y-80700500D01*
X81175000Y-80700500D01*
X81175500Y-80700500D01*
X94174500Y-80700500D01*
X94175099Y-80700500D01*
X94231393Y-80700500D01*
X94231394Y-80700500D01*
X94290646Y-80686976D01*
X94341351Y-80675403D01*
X94442967Y-80626467D01*
X94531146Y-80556146D01*
X94601467Y-80467967D01*
X94650403Y-80366351D01*
X94675500Y-80256394D01*
X99724500Y-80256394D01*
X99749596Y-80366350D01*
X99798532Y-80467967D01*
X99833196Y-80511433D01*
X99868854Y-80556146D01*
X99911964Y-80590525D01*
X99957032Y-80626467D01*
X100058649Y-80675403D01*
X100168606Y-80700500D01*
X100168607Y-80700500D01*
X100224901Y-80700500D01*
X100225000Y-80700500D01*
X100225500Y-80700500D01*
X113224500Y-80700500D01*
X113225099Y-80700500D01*
X113281393Y-80700500D01*
X113281394Y-80700500D01*
X113340646Y-80686976D01*
X113391351Y-80675403D01*
X113492967Y-80626467D01*
X113581146Y-80556146D01*
X113651467Y-80467967D01*
X113700403Y-80366351D01*
X113725500Y-80256394D01*
X118774500Y-80256394D01*
X118799596Y-80366350D01*
X118848532Y-80467967D01*
X118883196Y-80511433D01*
X118918854Y-80556146D01*
X118961964Y-80590525D01*
X119007032Y-80626467D01*
X119108649Y-80675403D01*
X119218606Y-80700500D01*
X119218607Y-80700500D01*
X119274901Y-80700500D01*
X119275000Y-80700500D01*
X119275500Y-80700500D01*
X132274500Y-80700500D01*
X132275099Y-80700500D01*
X132331393Y-80700500D01*
X132331394Y-80700500D01*
X132390646Y-80686976D01*
X132441351Y-80675403D01*
X132542967Y-80626467D01*
X132631146Y-80556146D01*
X132701467Y-80467967D01*
X132750403Y-80366351D01*
X132775500Y-80256394D01*
X137824500Y-80256394D01*
X137849596Y-80366350D01*
X137898532Y-80467967D01*
X137933196Y-80511433D01*
X137968854Y-80556146D01*
X138011964Y-80590525D01*
X138057032Y-80626467D01*
X138158649Y-80675403D01*
X138268606Y-80700500D01*
X138268607Y-80700500D01*
X138324901Y-80700500D01*
X138325000Y-80700500D01*
X138325500Y-80700500D01*
X151324500Y-80700500D01*
X151325099Y-80700500D01*
X151381393Y-80700500D01*
X151381394Y-80700500D01*
X151440646Y-80686976D01*
X151491351Y-80675403D01*
X151592967Y-80626467D01*
X151681146Y-80556146D01*
X151751467Y-80467967D01*
X151800403Y-80366351D01*
X151825500Y-80256394D01*
X156874500Y-80256394D01*
X156899596Y-80366350D01*
X156948532Y-80467967D01*
X156983196Y-80511433D01*
X157018854Y-80556146D01*
X157061964Y-80590525D01*
X157107032Y-80626467D01*
X157208649Y-80675403D01*
X157318606Y-80700500D01*
X157318607Y-80700500D01*
X157374901Y-80700500D01*
X157375000Y-80700500D01*
X157375500Y-80700500D01*
X170374500Y-80700500D01*
X170375099Y-80700500D01*
X170431393Y-80700500D01*
X170431394Y-80700500D01*
X170490646Y-80686976D01*
X170541351Y-80675403D01*
X170642967Y-80626467D01*
X170731146Y-80556146D01*
X170801467Y-80467967D01*
X170850403Y-80366351D01*
X170875500Y-80256394D01*
X175924500Y-80256394D01*
X175949596Y-80366350D01*
X175998532Y-80467967D01*
X176033196Y-80511433D01*
X176068854Y-80556146D01*
X176111964Y-80590525D01*
X176157032Y-80626467D01*
X176258649Y-80675403D01*
X176368606Y-80700500D01*
X176368607Y-80700500D01*
X176424901Y-80700500D01*
X176425000Y-80700500D01*
X176425500Y-80700500D01*
X189424500Y-80700500D01*
X189425099Y-80700500D01*
X189481393Y-80700500D01*
X189481394Y-80700500D01*
X189540646Y-80686976D01*
X189591351Y-80675403D01*
X189692967Y-80626467D01*
X189781146Y-80556146D01*
X189851467Y-80467967D01*
X189900403Y-80366351D01*
X189925500Y-80256394D01*
X194974500Y-80256394D01*
X194999596Y-80366350D01*
X195048532Y-80467967D01*
X195083196Y-80511433D01*
X195118854Y-80556146D01*
X195161964Y-80590525D01*
X195207032Y-80626467D01*
X195308649Y-80675403D01*
X195418606Y-80700500D01*
X195418607Y-80700500D01*
X195474901Y-80700500D01*
X195475000Y-80700500D01*
X195475500Y-80700500D01*
X208474500Y-80700500D01*
X208475099Y-80700500D01*
X208531393Y-80700500D01*
X208531394Y-80700500D01*
X208590646Y-80686976D01*
X208641351Y-80675403D01*
X208742967Y-80626467D01*
X208831146Y-80556146D01*
X208901467Y-80467967D01*
X208950403Y-80366351D01*
X208975500Y-80256394D01*
X214024500Y-80256394D01*
X214049596Y-80366350D01*
X214098532Y-80467967D01*
X214133196Y-80511433D01*
X214168854Y-80556146D01*
X214211964Y-80590525D01*
X214257032Y-80626467D01*
X214358649Y-80675403D01*
X214468606Y-80700500D01*
X214468607Y-80700500D01*
X214524901Y-80700500D01*
X214525000Y-80700500D01*
X214525500Y-80700500D01*
X227524500Y-80700500D01*
X227525099Y-80700500D01*
X227581393Y-80700500D01*
X227581394Y-80700500D01*
X227640646Y-80686976D01*
X227691351Y-80675403D01*
X227792967Y-80626467D01*
X227881146Y-80556146D01*
X227951467Y-80467967D01*
X228000403Y-80366351D01*
X228025500Y-80256394D01*
X233074500Y-80256394D01*
X233099596Y-80366350D01*
X233148532Y-80467967D01*
X233183196Y-80511433D01*
X233218854Y-80556146D01*
X233261964Y-80590525D01*
X233307032Y-80626467D01*
X233408649Y-80675403D01*
X233518606Y-80700500D01*
X233518607Y-80700500D01*
X233574901Y-80700500D01*
X233575000Y-80700500D01*
X233575500Y-80700500D01*
X246574500Y-80700500D01*
X246575099Y-80700500D01*
X246631393Y-80700500D01*
X246631394Y-80700500D01*
X246690646Y-80686976D01*
X246741351Y-80675403D01*
X246842967Y-80626467D01*
X246931146Y-80556146D01*
X247001467Y-80467967D01*
X247050403Y-80366351D01*
X247075500Y-80256394D01*
X256887000Y-80256394D01*
X256912096Y-80366350D01*
X256961032Y-80467967D01*
X256995696Y-80511433D01*
X257031354Y-80556146D01*
X257074464Y-80590525D01*
X257119532Y-80626467D01*
X257221149Y-80675403D01*
X257331106Y-80700500D01*
X257331107Y-80700500D01*
X257387401Y-80700500D01*
X257387500Y-80700500D01*
X257388000Y-80700500D01*
X270387000Y-80700500D01*
X270387599Y-80700500D01*
X270443893Y-80700500D01*
X270443894Y-80700500D01*
X270503146Y-80686976D01*
X270553851Y-80675403D01*
X270655467Y-80626467D01*
X270743646Y-80556146D01*
X270813967Y-80467967D01*
X270862903Y-80366351D01*
X270888000Y-80256393D01*
X270888000Y-80200000D01*
X270888000Y-80199500D01*
X270888000Y-67199901D01*
X270888000Y-67143607D01*
X270875502Y-67088851D01*
X270862903Y-67033649D01*
X270813967Y-66932032D01*
X270779304Y-66888567D01*
X270743646Y-66843854D01*
X270704523Y-66812654D01*
X270655467Y-66773532D01*
X270553850Y-66724596D01*
X270443894Y-66699500D01*
X270443893Y-66699500D01*
X270387599Y-66699500D01*
X257388000Y-66699500D01*
X257387500Y-66699500D01*
X257331107Y-66699500D01*
X257331106Y-66699500D01*
X257221149Y-66724596D01*
X257119532Y-66773532D01*
X257031354Y-66843854D01*
X256961032Y-66932032D01*
X256912096Y-67033649D01*
X256887000Y-67143606D01*
X256887000Y-80256394D01*
X247075500Y-80256394D01*
X247075500Y-80256393D01*
X247075500Y-80200000D01*
X247075500Y-80199500D01*
X247075500Y-67199901D01*
X247075500Y-67143607D01*
X247063002Y-67088851D01*
X247050403Y-67033649D01*
X247001467Y-66932032D01*
X246966804Y-66888567D01*
X246931146Y-66843854D01*
X246892023Y-66812654D01*
X246842967Y-66773532D01*
X246741350Y-66724596D01*
X246631394Y-66699500D01*
X246631393Y-66699500D01*
X246575099Y-66699500D01*
X233575500Y-66699500D01*
X233575000Y-66699500D01*
X233518607Y-66699500D01*
X233518606Y-66699500D01*
X233408649Y-66724596D01*
X233307032Y-66773532D01*
X233218854Y-66843854D01*
X233148532Y-66932032D01*
X233099596Y-67033649D01*
X233074500Y-67143606D01*
X233074500Y-80256394D01*
X228025500Y-80256394D01*
X228025500Y-80256393D01*
X228025500Y-80200000D01*
X228025500Y-80199500D01*
X228025500Y-67199901D01*
X228025500Y-67143607D01*
X228013002Y-67088851D01*
X228000403Y-67033649D01*
X227951467Y-66932032D01*
X227916804Y-66888567D01*
X227881146Y-66843854D01*
X227842023Y-66812654D01*
X227792967Y-66773532D01*
X227691350Y-66724596D01*
X227581394Y-66699500D01*
X227581393Y-66699500D01*
X227525099Y-66699500D01*
X214525500Y-66699500D01*
X214525000Y-66699500D01*
X214468607Y-66699500D01*
X214468606Y-66699500D01*
X214358649Y-66724596D01*
X214257032Y-66773532D01*
X214168854Y-66843854D01*
X214098532Y-66932032D01*
X214049596Y-67033649D01*
X214024500Y-67143606D01*
X214024500Y-80256394D01*
X208975500Y-80256394D01*
X208975500Y-80256393D01*
X208975500Y-80200000D01*
X208975500Y-80199500D01*
X208975500Y-67199901D01*
X208975500Y-67143607D01*
X208963002Y-67088851D01*
X208950403Y-67033649D01*
X208901467Y-66932032D01*
X208866804Y-66888567D01*
X208831146Y-66843854D01*
X208792023Y-66812654D01*
X208742967Y-66773532D01*
X208641350Y-66724596D01*
X208531394Y-66699500D01*
X208531393Y-66699500D01*
X208475099Y-66699500D01*
X195475500Y-66699500D01*
X195475000Y-66699500D01*
X195418607Y-66699500D01*
X195418606Y-66699500D01*
X195308649Y-66724596D01*
X195207032Y-66773532D01*
X195118854Y-66843854D01*
X195048532Y-66932032D01*
X194999596Y-67033649D01*
X194974500Y-67143606D01*
X194974500Y-80256394D01*
X189925500Y-80256394D01*
X189925500Y-80256393D01*
X189925500Y-80200000D01*
X189925500Y-80199500D01*
X189925500Y-67199901D01*
X189925500Y-67143607D01*
X189913002Y-67088851D01*
X189900403Y-67033649D01*
X189851467Y-66932032D01*
X189816804Y-66888567D01*
X189781146Y-66843854D01*
X189742023Y-66812654D01*
X189692967Y-66773532D01*
X189591350Y-66724596D01*
X189481394Y-66699500D01*
X189481393Y-66699500D01*
X189425099Y-66699500D01*
X176425500Y-66699500D01*
X176425000Y-66699500D01*
X176368607Y-66699500D01*
X176368606Y-66699500D01*
X176258649Y-66724596D01*
X176157032Y-66773532D01*
X176068854Y-66843854D01*
X175998532Y-66932032D01*
X175949596Y-67033649D01*
X175924500Y-67143606D01*
X175924500Y-80256394D01*
X170875500Y-80256394D01*
X170875500Y-80256393D01*
X170875500Y-80200000D01*
X170875500Y-80199500D01*
X170875500Y-67199901D01*
X170875500Y-67143607D01*
X170863002Y-67088851D01*
X170850403Y-67033649D01*
X170801467Y-66932032D01*
X170766804Y-66888567D01*
X170731146Y-66843854D01*
X170692023Y-66812654D01*
X170642967Y-66773532D01*
X170541350Y-66724596D01*
X170431394Y-66699500D01*
X170431393Y-66699500D01*
X170375099Y-66699500D01*
X157375500Y-66699500D01*
X157375000Y-66699500D01*
X157318607Y-66699500D01*
X157318606Y-66699500D01*
X157208649Y-66724596D01*
X157107032Y-66773532D01*
X157018854Y-66843854D01*
X156948532Y-66932032D01*
X156899596Y-67033649D01*
X156874500Y-67143606D01*
X156874500Y-80256394D01*
X151825500Y-80256394D01*
X151825500Y-80256393D01*
X151825500Y-80200000D01*
X151825500Y-80199500D01*
X151825500Y-67199901D01*
X151825500Y-67143607D01*
X151813002Y-67088851D01*
X151800403Y-67033649D01*
X151751467Y-66932032D01*
X151716804Y-66888567D01*
X151681146Y-66843854D01*
X151642023Y-66812654D01*
X151592967Y-66773532D01*
X151491350Y-66724596D01*
X151381394Y-66699500D01*
X151381393Y-66699500D01*
X151325099Y-66699500D01*
X138325500Y-66699500D01*
X138325000Y-66699500D01*
X138268607Y-66699500D01*
X138268606Y-66699500D01*
X138158649Y-66724596D01*
X138057032Y-66773532D01*
X137968854Y-66843854D01*
X137898532Y-66932032D01*
X137849596Y-67033649D01*
X137824500Y-67143606D01*
X137824500Y-80256394D01*
X132775500Y-80256394D01*
X132775500Y-80256393D01*
X132775500Y-80200000D01*
X132775500Y-80199500D01*
X132775500Y-67199901D01*
X132775500Y-67143607D01*
X132763002Y-67088851D01*
X132750403Y-67033649D01*
X132701467Y-66932032D01*
X132666804Y-66888567D01*
X132631146Y-66843854D01*
X132592023Y-66812654D01*
X132542967Y-66773532D01*
X132441350Y-66724596D01*
X132331394Y-66699500D01*
X132331393Y-66699500D01*
X132275099Y-66699500D01*
X119275500Y-66699500D01*
X119275000Y-66699500D01*
X119218607Y-66699500D01*
X119218606Y-66699500D01*
X119108649Y-66724596D01*
X119007032Y-66773532D01*
X118918854Y-66843854D01*
X118848532Y-66932032D01*
X118799596Y-67033649D01*
X118774500Y-67143606D01*
X118774500Y-80256394D01*
X113725500Y-80256394D01*
X113725500Y-80256393D01*
X113725500Y-80200000D01*
X113725500Y-80199500D01*
X113725500Y-67199901D01*
X113725500Y-67143607D01*
X113713002Y-67088851D01*
X113700403Y-67033649D01*
X113651467Y-66932032D01*
X113616804Y-66888567D01*
X113581146Y-66843854D01*
X113542023Y-66812654D01*
X113492967Y-66773532D01*
X113391350Y-66724596D01*
X113281394Y-66699500D01*
X113281393Y-66699500D01*
X113225099Y-66699500D01*
X100225500Y-66699500D01*
X100225000Y-66699500D01*
X100168607Y-66699500D01*
X100168606Y-66699500D01*
X100058649Y-66724596D01*
X99957032Y-66773532D01*
X99868854Y-66843854D01*
X99798532Y-66932032D01*
X99749596Y-67033649D01*
X99724500Y-67143606D01*
X99724500Y-80256394D01*
X94675500Y-80256394D01*
X94675500Y-80256393D01*
X94675500Y-80200000D01*
X94675500Y-80199500D01*
X94675500Y-67199901D01*
X94675500Y-67143607D01*
X94663002Y-67088851D01*
X94650403Y-67033649D01*
X94601467Y-66932032D01*
X94566804Y-66888567D01*
X94531146Y-66843854D01*
X94492023Y-66812654D01*
X94442967Y-66773532D01*
X94341350Y-66724596D01*
X94231394Y-66699500D01*
X94231393Y-66699500D01*
X94175099Y-66699500D01*
X81175500Y-66699500D01*
X81175000Y-66699500D01*
X81118607Y-66699500D01*
X81118606Y-66699500D01*
X81008649Y-66724596D01*
X80907032Y-66773532D01*
X80818854Y-66843854D01*
X80748532Y-66932032D01*
X80699596Y-67033649D01*
X80674500Y-67143606D01*
X80674500Y-80256394D01*
X75625500Y-80256394D01*
X75625500Y-80256393D01*
X75625500Y-80200000D01*
X75625500Y-80199500D01*
X75625500Y-67199901D01*
X75625500Y-67143607D01*
X75613002Y-67088851D01*
X75600403Y-67033649D01*
X75551467Y-66932032D01*
X75516804Y-66888567D01*
X75481146Y-66843854D01*
X75442023Y-66812654D01*
X75392967Y-66773532D01*
X75291350Y-66724596D01*
X75181394Y-66699500D01*
X75181393Y-66699500D01*
X75125099Y-66699500D01*
X62125500Y-66699500D01*
X62125000Y-66699500D01*
X62068607Y-66699500D01*
X62068606Y-66699500D01*
X61958649Y-66724596D01*
X61857032Y-66773532D01*
X61768854Y-66843854D01*
X61698532Y-66932032D01*
X61649596Y-67033649D01*
X61624500Y-67143606D01*
X61624500Y-80256394D01*
X56575500Y-80256394D01*
X56575500Y-80256393D01*
X56575500Y-80200000D01*
X56575500Y-80199500D01*
X56575500Y-67199901D01*
X56575500Y-67143607D01*
X56563002Y-67088851D01*
X56550403Y-67033649D01*
X56501467Y-66932032D01*
X56466804Y-66888567D01*
X56431146Y-66843854D01*
X56392023Y-66812654D01*
X56342967Y-66773532D01*
X56241350Y-66724596D01*
X56131394Y-66699500D01*
X56131393Y-66699500D01*
X56075099Y-66699500D01*
X43075500Y-66699500D01*
X43075000Y-66699500D01*
X43018607Y-66699500D01*
X43018606Y-66699500D01*
X42908649Y-66724596D01*
X42807032Y-66773532D01*
X42718854Y-66843854D01*
X42648532Y-66932032D01*
X42599596Y-67033649D01*
X42574500Y-67143606D01*
X42574500Y-80256394D01*
X37525500Y-80256394D01*
X37525500Y-80256393D01*
X37525500Y-80200000D01*
X37525500Y-80199500D01*
X37525500Y-67199901D01*
X37525500Y-67143607D01*
X37513002Y-67088851D01*
X37500403Y-67033649D01*
X37451467Y-66932032D01*
X37416804Y-66888567D01*
X37381146Y-66843854D01*
X37342023Y-66812654D01*
X37292967Y-66773532D01*
X37191350Y-66724596D01*
X37081394Y-66699500D01*
X37081393Y-66699500D01*
X37025099Y-66699500D01*
X24025500Y-66699500D01*
X24025000Y-66699500D01*
X23968607Y-66699500D01*
X23968606Y-66699500D01*
X23858649Y-66724596D01*
X23757032Y-66773532D01*
X23668854Y-66843854D01*
X23598532Y-66932032D01*
X23549596Y-67033649D01*
X23524500Y-67143606D01*
X23524500Y-80256394D01*
X21000500Y-80256394D01*
X21000500Y-61206394D01*
X23524500Y-61206394D01*
X23549596Y-61316350D01*
X23598532Y-61417967D01*
X23633196Y-61461433D01*
X23668854Y-61506146D01*
X23711964Y-61540525D01*
X23757032Y-61576467D01*
X23858649Y-61625403D01*
X23968606Y-61650500D01*
X23968607Y-61650500D01*
X24024901Y-61650500D01*
X24025000Y-61650500D01*
X24025500Y-61650500D01*
X37024500Y-61650500D01*
X37025099Y-61650500D01*
X37081393Y-61650500D01*
X37081394Y-61650500D01*
X37140646Y-61636976D01*
X37191351Y-61625403D01*
X37292967Y-61576467D01*
X37381146Y-61506146D01*
X37451467Y-61417967D01*
X37500403Y-61316351D01*
X37525500Y-61206394D01*
X42574500Y-61206394D01*
X42599596Y-61316350D01*
X42648532Y-61417967D01*
X42683196Y-61461433D01*
X42718854Y-61506146D01*
X42761964Y-61540525D01*
X42807032Y-61576467D01*
X42908649Y-61625403D01*
X43018606Y-61650500D01*
X43018607Y-61650500D01*
X43074901Y-61650500D01*
X43075000Y-61650500D01*
X43075500Y-61650500D01*
X56074500Y-61650500D01*
X56075099Y-61650500D01*
X56131393Y-61650500D01*
X56131394Y-61650500D01*
X56190646Y-61636976D01*
X56241351Y-61625403D01*
X56342967Y-61576467D01*
X56431146Y-61506146D01*
X56501467Y-61417967D01*
X56550403Y-61316351D01*
X56575500Y-61206394D01*
X61624500Y-61206394D01*
X61649596Y-61316350D01*
X61698532Y-61417967D01*
X61733196Y-61461433D01*
X61768854Y-61506146D01*
X61811964Y-61540525D01*
X61857032Y-61576467D01*
X61958649Y-61625403D01*
X62068606Y-61650500D01*
X62068607Y-61650500D01*
X62124901Y-61650500D01*
X62125000Y-61650500D01*
X62125500Y-61650500D01*
X75124500Y-61650500D01*
X75125099Y-61650500D01*
X75181393Y-61650500D01*
X75181394Y-61650500D01*
X75240646Y-61636976D01*
X75291351Y-61625403D01*
X75392967Y-61576467D01*
X75481146Y-61506146D01*
X75551467Y-61417967D01*
X75600403Y-61316351D01*
X75625500Y-61206394D01*
X80674500Y-61206394D01*
X80699596Y-61316350D01*
X80748532Y-61417967D01*
X80783196Y-61461433D01*
X80818854Y-61506146D01*
X80861964Y-61540525D01*
X80907032Y-61576467D01*
X81008649Y-61625403D01*
X81118606Y-61650500D01*
X81118607Y-61650500D01*
X81174901Y-61650500D01*
X81175000Y-61650500D01*
X81175500Y-61650500D01*
X94174500Y-61650500D01*
X94175099Y-61650500D01*
X94231393Y-61650500D01*
X94231394Y-61650500D01*
X94290646Y-61636976D01*
X94341351Y-61625403D01*
X94442967Y-61576467D01*
X94531146Y-61506146D01*
X94601467Y-61417967D01*
X94650403Y-61316351D01*
X94675500Y-61206394D01*
X99724500Y-61206394D01*
X99749596Y-61316350D01*
X99798532Y-61417967D01*
X99833196Y-61461433D01*
X99868854Y-61506146D01*
X99911964Y-61540525D01*
X99957032Y-61576467D01*
X100058649Y-61625403D01*
X100168606Y-61650500D01*
X100168607Y-61650500D01*
X100224901Y-61650500D01*
X100225000Y-61650500D01*
X100225500Y-61650500D01*
X113224500Y-61650500D01*
X113225099Y-61650500D01*
X113281393Y-61650500D01*
X113281394Y-61650500D01*
X113340646Y-61636976D01*
X113391351Y-61625403D01*
X113492967Y-61576467D01*
X113581146Y-61506146D01*
X113651467Y-61417967D01*
X113700403Y-61316351D01*
X113725500Y-61206394D01*
X118774500Y-61206394D01*
X118799596Y-61316350D01*
X118848532Y-61417967D01*
X118883196Y-61461433D01*
X118918854Y-61506146D01*
X118961964Y-61540525D01*
X119007032Y-61576467D01*
X119108649Y-61625403D01*
X119218606Y-61650500D01*
X119218607Y-61650500D01*
X119274901Y-61650500D01*
X119275000Y-61650500D01*
X119275500Y-61650500D01*
X132274500Y-61650500D01*
X132275099Y-61650500D01*
X132331393Y-61650500D01*
X132331394Y-61650500D01*
X132390646Y-61636976D01*
X132441351Y-61625403D01*
X132542967Y-61576467D01*
X132631146Y-61506146D01*
X132701467Y-61417967D01*
X132750403Y-61316351D01*
X132775500Y-61206394D01*
X137824500Y-61206394D01*
X137849596Y-61316350D01*
X137898532Y-61417967D01*
X137933196Y-61461433D01*
X137968854Y-61506146D01*
X138011964Y-61540525D01*
X138057032Y-61576467D01*
X138158649Y-61625403D01*
X138268606Y-61650500D01*
X138268607Y-61650500D01*
X138324901Y-61650500D01*
X138325000Y-61650500D01*
X138325500Y-61650500D01*
X151324500Y-61650500D01*
X151325099Y-61650500D01*
X151381393Y-61650500D01*
X151381394Y-61650500D01*
X151440646Y-61636976D01*
X151491351Y-61625403D01*
X151592967Y-61576467D01*
X151681146Y-61506146D01*
X151751467Y-61417967D01*
X151800403Y-61316351D01*
X151825500Y-61206394D01*
X156874500Y-61206394D01*
X156899596Y-61316350D01*
X156948532Y-61417967D01*
X156983196Y-61461433D01*
X157018854Y-61506146D01*
X157061964Y-61540525D01*
X157107032Y-61576467D01*
X157208649Y-61625403D01*
X157318606Y-61650500D01*
X157318607Y-61650500D01*
X157374901Y-61650500D01*
X157375000Y-61650500D01*
X157375500Y-61650500D01*
X170374500Y-61650500D01*
X170375099Y-61650500D01*
X170431393Y-61650500D01*
X170431394Y-61650500D01*
X170490646Y-61636976D01*
X170541351Y-61625403D01*
X170642967Y-61576467D01*
X170731146Y-61506146D01*
X170801467Y-61417967D01*
X170850403Y-61316351D01*
X170875500Y-61206394D01*
X175924500Y-61206394D01*
X175949596Y-61316350D01*
X175998532Y-61417967D01*
X176033196Y-61461433D01*
X176068854Y-61506146D01*
X176111964Y-61540525D01*
X176157032Y-61576467D01*
X176258649Y-61625403D01*
X176368606Y-61650500D01*
X176368607Y-61650500D01*
X176424901Y-61650500D01*
X176425000Y-61650500D01*
X176425500Y-61650500D01*
X189424500Y-61650500D01*
X189425099Y-61650500D01*
X189481393Y-61650500D01*
X189481394Y-61650500D01*
X189540646Y-61636976D01*
X189591351Y-61625403D01*
X189692967Y-61576467D01*
X189781146Y-61506146D01*
X189851467Y-61417967D01*
X189900403Y-61316351D01*
X189925500Y-61206394D01*
X194974500Y-61206394D01*
X194999596Y-61316350D01*
X195048532Y-61417967D01*
X195083196Y-61461433D01*
X195118854Y-61506146D01*
X195161964Y-61540525D01*
X195207032Y-61576467D01*
X195308649Y-61625403D01*
X195418606Y-61650500D01*
X195418607Y-61650500D01*
X195474901Y-61650500D01*
X195475000Y-61650500D01*
X195475500Y-61650500D01*
X208474500Y-61650500D01*
X208475099Y-61650500D01*
X208531393Y-61650500D01*
X208531394Y-61650500D01*
X208590646Y-61636976D01*
X208641351Y-61625403D01*
X208742967Y-61576467D01*
X208831146Y-61506146D01*
X208901467Y-61417967D01*
X208950403Y-61316351D01*
X208975500Y-61206394D01*
X214024500Y-61206394D01*
X214049596Y-61316350D01*
X214098532Y-61417967D01*
X214133196Y-61461433D01*
X214168854Y-61506146D01*
X214211964Y-61540525D01*
X214257032Y-61576467D01*
X214358649Y-61625403D01*
X214468606Y-61650500D01*
X214468607Y-61650500D01*
X214524901Y-61650500D01*
X214525000Y-61650500D01*
X214525500Y-61650500D01*
X227524500Y-61650500D01*
X227525099Y-61650500D01*
X227581393Y-61650500D01*
X227581394Y-61650500D01*
X227640646Y-61636976D01*
X227691351Y-61625403D01*
X227792967Y-61576467D01*
X227881146Y-61506146D01*
X227951467Y-61417967D01*
X228000403Y-61316351D01*
X228025500Y-61206394D01*
X233074500Y-61206394D01*
X233099596Y-61316350D01*
X233148532Y-61417967D01*
X233183196Y-61461433D01*
X233218854Y-61506146D01*
X233261964Y-61540525D01*
X233307032Y-61576467D01*
X233408649Y-61625403D01*
X233518606Y-61650500D01*
X233518607Y-61650500D01*
X233574901Y-61650500D01*
X233575000Y-61650500D01*
X233575500Y-61650500D01*
X246574500Y-61650500D01*
X246575099Y-61650500D01*
X246631393Y-61650500D01*
X246631394Y-61650500D01*
X246690646Y-61636976D01*
X246741351Y-61625403D01*
X246842967Y-61576467D01*
X246931146Y-61506146D01*
X247001467Y-61417967D01*
X247050403Y-61316351D01*
X247075500Y-61206394D01*
X256887000Y-61206394D01*
X256912096Y-61316350D01*
X256961032Y-61417967D01*
X256995696Y-61461433D01*
X257031354Y-61506146D01*
X257074464Y-61540525D01*
X257119532Y-61576467D01*
X257221149Y-61625403D01*
X257331106Y-61650500D01*
X257331107Y-61650500D01*
X257387401Y-61650500D01*
X257387500Y-61650500D01*
X257388000Y-61650500D01*
X270387000Y-61650500D01*
X270387599Y-61650500D01*
X270443893Y-61650500D01*
X270443894Y-61650500D01*
X270503146Y-61636976D01*
X270553851Y-61625403D01*
X270655467Y-61576467D01*
X270743646Y-61506146D01*
X270813967Y-61417967D01*
X270862903Y-61316351D01*
X270888000Y-61206393D01*
X270888000Y-61150000D01*
X270888000Y-61149500D01*
X270888000Y-48149901D01*
X270888000Y-48093607D01*
X270875502Y-48038851D01*
X270862903Y-47983649D01*
X270813967Y-47882032D01*
X270779304Y-47838567D01*
X270743646Y-47793854D01*
X270704523Y-47762654D01*
X270655467Y-47723532D01*
X270553850Y-47674596D01*
X270443894Y-47649500D01*
X270443893Y-47649500D01*
X270387599Y-47649500D01*
X257388000Y-47649500D01*
X257387500Y-47649500D01*
X257331107Y-47649500D01*
X257331106Y-47649500D01*
X257221149Y-47674596D01*
X257119532Y-47723532D01*
X257031354Y-47793854D01*
X256961032Y-47882032D01*
X256912096Y-47983649D01*
X256887000Y-48093606D01*
X256887000Y-61206394D01*
X247075500Y-61206394D01*
X247075500Y-61206393D01*
X247075500Y-61150000D01*
X247075500Y-61149500D01*
X247075500Y-48149901D01*
X247075500Y-48093607D01*
X247063002Y-48038851D01*
X247050403Y-47983649D01*
X247001467Y-47882032D01*
X246966804Y-47838567D01*
X246931146Y-47793854D01*
X246892023Y-47762654D01*
X246842967Y-47723532D01*
X246741350Y-47674596D01*
X246631394Y-47649500D01*
X246631393Y-47649500D01*
X246575099Y-47649500D01*
X233575500Y-47649500D01*
X233575000Y-47649500D01*
X233518607Y-47649500D01*
X233518606Y-47649500D01*
X233408649Y-47674596D01*
X233307032Y-47723532D01*
X233218854Y-47793854D01*
X233148532Y-47882032D01*
X233099596Y-47983649D01*
X233074500Y-48093606D01*
X233074500Y-61206394D01*
X228025500Y-61206394D01*
X228025500Y-61206393D01*
X228025500Y-61150000D01*
X228025500Y-61149500D01*
X228025500Y-48149901D01*
X228025500Y-48093607D01*
X228013002Y-48038851D01*
X228000403Y-47983649D01*
X227951467Y-47882032D01*
X227916804Y-47838567D01*
X227881146Y-47793854D01*
X227842023Y-47762654D01*
X227792967Y-47723532D01*
X227691350Y-47674596D01*
X227581394Y-47649500D01*
X227581393Y-47649500D01*
X227525099Y-47649500D01*
X214525500Y-47649500D01*
X214525000Y-47649500D01*
X214468607Y-47649500D01*
X214468606Y-47649500D01*
X214358649Y-47674596D01*
X214257032Y-47723532D01*
X214168854Y-47793854D01*
X214098532Y-47882032D01*
X214049596Y-47983649D01*
X214024500Y-48093606D01*
X214024500Y-61206394D01*
X208975500Y-61206394D01*
X208975500Y-61206393D01*
X208975500Y-61150000D01*
X208975500Y-61149500D01*
X208975500Y-48149901D01*
X208975500Y-48093607D01*
X208963002Y-48038851D01*
X208950403Y-47983649D01*
X208901467Y-47882032D01*
X208866804Y-47838567D01*
X208831146Y-47793854D01*
X208792023Y-47762654D01*
X208742967Y-47723532D01*
X208641350Y-47674596D01*
X208531394Y-47649500D01*
X208531393Y-47649500D01*
X208475099Y-47649500D01*
X195475500Y-47649500D01*
X195475000Y-47649500D01*
X195418607Y-47649500D01*
X195418606Y-47649500D01*
X195308649Y-47674596D01*
X195207032Y-47723532D01*
X195118854Y-47793854D01*
X195048532Y-47882032D01*
X194999596Y-47983649D01*
X194974500Y-48093606D01*
X194974500Y-61206394D01*
X189925500Y-61206394D01*
X189925500Y-61206393D01*
X189925500Y-61150000D01*
X189925500Y-61149500D01*
X189925500Y-48149901D01*
X189925500Y-48093607D01*
X189913002Y-48038851D01*
X189900403Y-47983649D01*
X189851467Y-47882032D01*
X189816804Y-47838567D01*
X189781146Y-47793854D01*
X189742023Y-47762654D01*
X189692967Y-47723532D01*
X189591350Y-47674596D01*
X189481394Y-47649500D01*
X189481393Y-47649500D01*
X189425099Y-47649500D01*
X176425500Y-47649500D01*
X176425000Y-47649500D01*
X176368607Y-47649500D01*
X176368606Y-47649500D01*
X176258649Y-47674596D01*
X176157032Y-47723532D01*
X176068854Y-47793854D01*
X175998532Y-47882032D01*
X175949596Y-47983649D01*
X175924500Y-48093606D01*
X175924500Y-61206394D01*
X170875500Y-61206394D01*
X170875500Y-61206393D01*
X170875500Y-61150000D01*
X170875500Y-61149500D01*
X170875500Y-48149901D01*
X170875500Y-48093607D01*
X170863002Y-48038851D01*
X170850403Y-47983649D01*
X170801467Y-47882032D01*
X170766804Y-47838567D01*
X170731146Y-47793854D01*
X170692023Y-47762654D01*
X170642967Y-47723532D01*
X170541350Y-47674596D01*
X170431394Y-47649500D01*
X170431393Y-47649500D01*
X170375099Y-47649500D01*
X157375500Y-47649500D01*
X157375000Y-47649500D01*
X157318607Y-47649500D01*
X157318606Y-47649500D01*
X157208649Y-47674596D01*
X157107032Y-47723532D01*
X157018854Y-47793854D01*
X156948532Y-47882032D01*
X156899596Y-47983649D01*
X156874500Y-48093606D01*
X156874500Y-61206394D01*
X151825500Y-61206394D01*
X151825500Y-61206393D01*
X151825500Y-61150000D01*
X151825500Y-61149500D01*
X151825500Y-48149901D01*
X151825500Y-48093607D01*
X151813002Y-48038851D01*
X151800403Y-47983649D01*
X151751467Y-47882032D01*
X151716804Y-47838567D01*
X151681146Y-47793854D01*
X151642023Y-47762654D01*
X151592967Y-47723532D01*
X151491350Y-47674596D01*
X151381394Y-47649500D01*
X151381393Y-47649500D01*
X151325099Y-47649500D01*
X138325500Y-47649500D01*
X138325000Y-47649500D01*
X138268607Y-47649500D01*
X138268606Y-47649500D01*
X138158649Y-47674596D01*
X138057032Y-47723532D01*
X137968854Y-47793854D01*
X137898532Y-47882032D01*
X137849596Y-47983649D01*
X137824500Y-48093606D01*
X137824500Y-61206394D01*
X132775500Y-61206394D01*
X132775500Y-61206393D01*
X132775500Y-61150000D01*
X132775500Y-61149500D01*
X132775500Y-48149901D01*
X132775500Y-48093607D01*
X132763002Y-48038851D01*
X132750403Y-47983649D01*
X132701467Y-47882032D01*
X132666804Y-47838567D01*
X132631146Y-47793854D01*
X132592023Y-47762654D01*
X132542967Y-47723532D01*
X132441350Y-47674596D01*
X132331394Y-47649500D01*
X132331393Y-47649500D01*
X132275099Y-47649500D01*
X119275500Y-47649500D01*
X119275000Y-47649500D01*
X119218607Y-47649500D01*
X119218606Y-47649500D01*
X119108649Y-47674596D01*
X119007032Y-47723532D01*
X118918854Y-47793854D01*
X118848532Y-47882032D01*
X118799596Y-47983649D01*
X118774500Y-48093606D01*
X118774500Y-61206394D01*
X113725500Y-61206394D01*
X113725500Y-61206393D01*
X113725500Y-61150000D01*
X113725500Y-61149500D01*
X113725500Y-48149901D01*
X113725500Y-48093607D01*
X113713002Y-48038851D01*
X113700403Y-47983649D01*
X113651467Y-47882032D01*
X113616804Y-47838567D01*
X113581146Y-47793854D01*
X113542023Y-47762654D01*
X113492967Y-47723532D01*
X113391350Y-47674596D01*
X113281394Y-47649500D01*
X113281393Y-47649500D01*
X113225099Y-47649500D01*
X100225500Y-47649500D01*
X100225000Y-47649500D01*
X100168607Y-47649500D01*
X100168606Y-47649500D01*
X100058649Y-47674596D01*
X99957032Y-47723532D01*
X99868854Y-47793854D01*
X99798532Y-47882032D01*
X99749596Y-47983649D01*
X99724500Y-48093606D01*
X99724500Y-61206394D01*
X94675500Y-61206394D01*
X94675500Y-61206393D01*
X94675500Y-61150000D01*
X94675500Y-61149500D01*
X94675500Y-48149901D01*
X94675500Y-48093607D01*
X94663002Y-48038851D01*
X94650403Y-47983649D01*
X94601467Y-47882032D01*
X94566804Y-47838567D01*
X94531146Y-47793854D01*
X94492023Y-47762654D01*
X94442967Y-47723532D01*
X94341350Y-47674596D01*
X94231394Y-47649500D01*
X94231393Y-47649500D01*
X94175099Y-47649500D01*
X81175500Y-47649500D01*
X81175000Y-47649500D01*
X81118607Y-47649500D01*
X81118606Y-47649500D01*
X81008649Y-47674596D01*
X80907032Y-47723532D01*
X80818854Y-47793854D01*
X80748532Y-47882032D01*
X80699596Y-47983649D01*
X80674500Y-48093606D01*
X80674500Y-61206394D01*
X75625500Y-61206394D01*
X75625500Y-61206393D01*
X75625500Y-61150000D01*
X75625500Y-61149500D01*
X75625500Y-48149901D01*
X75625500Y-48093607D01*
X75613002Y-48038851D01*
X75600403Y-47983649D01*
X75551467Y-47882032D01*
X75516804Y-47838567D01*
X75481146Y-47793854D01*
X75442023Y-47762654D01*
X75392967Y-47723532D01*
X75291350Y-47674596D01*
X75181394Y-47649500D01*
X75181393Y-47649500D01*
X75125099Y-47649500D01*
X62125500Y-47649500D01*
X62125000Y-47649500D01*
X62068607Y-47649500D01*
X62068606Y-47649500D01*
X61958649Y-47674596D01*
X61857032Y-47723532D01*
X61768854Y-47793854D01*
X61698532Y-47882032D01*
X61649596Y-47983649D01*
X61624500Y-48093606D01*
X61624500Y-61206394D01*
X56575500Y-61206394D01*
X56575500Y-61206393D01*
X56575500Y-61150000D01*
X56575500Y-61149500D01*
X56575500Y-48149901D01*
X56575500Y-48093607D01*
X56563002Y-48038851D01*
X56550403Y-47983649D01*
X56501467Y-47882032D01*
X56466804Y-47838567D01*
X56431146Y-47793854D01*
X56392023Y-47762654D01*
X56342967Y-47723532D01*
X56241350Y-47674596D01*
X56131394Y-47649500D01*
X56131393Y-47649500D01*
X56075099Y-47649500D01*
X43075500Y-47649500D01*
X43075000Y-47649500D01*
X43018607Y-47649500D01*
X43018606Y-47649500D01*
X42908649Y-47674596D01*
X42807032Y-47723532D01*
X42718854Y-47793854D01*
X42648532Y-47882032D01*
X42599596Y-47983649D01*
X42574500Y-48093606D01*
X42574500Y-61206394D01*
X37525500Y-61206394D01*
X37525500Y-61206393D01*
X37525500Y-61150000D01*
X37525500Y-61149500D01*
X37525500Y-48149901D01*
X37525500Y-48093607D01*
X37513002Y-48038851D01*
X37500403Y-47983649D01*
X37451467Y-47882032D01*
X37416804Y-47838567D01*
X37381146Y-47793854D01*
X37342023Y-47762654D01*
X37292967Y-47723532D01*
X37191350Y-47674596D01*
X37081394Y-47649500D01*
X37081393Y-47649500D01*
X37025099Y-47649500D01*
X24025500Y-47649500D01*
X24025000Y-47649500D01*
X23968607Y-47649500D01*
X23968606Y-47649500D01*
X23858649Y-47674596D01*
X23757032Y-47723532D01*
X23668854Y-47793854D01*
X23598532Y-47882032D01*
X23549596Y-47983649D01*
X23524500Y-48093606D01*
X23524500Y-61206394D01*
X21000500Y-61206394D01*
X21000500Y-46130412D01*
X21000972Y-46119605D01*
X21004415Y-46080250D01*
X21004540Y-46078904D01*
X21004542Y-46078882D01*
X21016918Y-45953223D01*
X21020540Y-45933316D01*
X21037899Y-45868530D01*
X21038956Y-45864829D01*
X21066684Y-45773420D01*
X21072948Y-45757049D01*
X21103693Y-45691117D01*
X21106698Y-45685109D01*
X21110079Y-45678781D01*
X21149014Y-45605940D01*
X21156776Y-45593304D01*
X21199642Y-45532085D01*
X21205334Y-45524583D01*
X21261191Y-45456521D01*
X21269325Y-45447547D01*
X21322547Y-45394325D01*
X21331521Y-45386191D01*
X21399583Y-45330334D01*
X21407085Y-45324642D01*
X21468304Y-45281776D01*
X21480940Y-45274014D01*
X21560107Y-45231698D01*
X21566117Y-45228693D01*
X21632049Y-45197948D01*
X21648420Y-45191684D01*
X21739829Y-45163956D01*
X21743530Y-45162899D01*
X21808316Y-45145540D01*
X21828223Y-45141918D01*
X21953927Y-45129537D01*
X21955204Y-45129419D01*
X21994605Y-45125971D01*
X22005412Y-45125500D01*
X63834615Y-45125500D01*
X63834758Y-45125528D01*
X63834759Y-45125524D01*
X63859372Y-45125539D01*
X63859375Y-45125541D01*
X63859758Y-45125383D01*
X63859875Y-45125099D01*
X63859916Y-45125000D01*
X63859916Y-45100446D01*
X63859875Y-45100240D01*
X63859875Y-44149760D01*
X63859903Y-44149616D01*
X63859899Y-44149616D01*
X63859914Y-44125002D01*
X63859916Y-44125000D01*
X63859837Y-44124808D01*
X63859759Y-44124618D01*
X63859755Y-44124614D01*
X63859569Y-44124538D01*
X63859377Y-44124459D01*
X63834821Y-44124459D01*
X63834615Y-44124500D01*
X39864796Y-44124500D01*
X39853982Y-44124028D01*
X39814471Y-44120569D01*
X39813131Y-44120444D01*
X39687643Y-44108085D01*
X39667701Y-44104456D01*
X39602817Y-44087069D01*
X39598919Y-44085956D01*
X39507879Y-44058340D01*
X39491466Y-44052060D01*
X39425342Y-44021224D01*
X39419295Y-44018201D01*
X39340431Y-43976047D01*
X39327760Y-43968263D01*
X39266330Y-43925248D01*
X39258790Y-43919527D01*
X39191055Y-43863938D01*
X39182038Y-43855765D01*
X39128602Y-43802328D01*
X39120431Y-43793313D01*
X39064882Y-43725627D01*
X39059160Y-43718085D01*
X39058879Y-43717683D01*
X39016080Y-43656558D01*
X39008310Y-43643911D01*
X38966244Y-43565211D01*
X38963260Y-43559242D01*
X38932282Y-43492809D01*
X38926006Y-43476404D01*
X38898573Y-43385967D01*
X38897459Y-43382067D01*
X38897264Y-43381339D01*
X38879902Y-43316542D01*
X38876279Y-43296629D01*
X38864105Y-43173030D01*
X38864049Y-43172427D01*
X38860345Y-43130092D01*
X38859875Y-43119301D01*
X38859875Y-40367910D01*
X38860347Y-40357106D01*
X38860585Y-40354378D01*
X38863808Y-40317541D01*
X38863892Y-40316634D01*
X38876294Y-40190718D01*
X38879919Y-40170802D01*
X38897268Y-40106052D01*
X38898333Y-40102322D01*
X38926058Y-40010925D01*
X38932335Y-39994520D01*
X38932404Y-39994373D01*
X38963051Y-39928647D01*
X38966035Y-39922679D01*
X39008403Y-39843414D01*
X39016169Y-39830771D01*
X39058987Y-39769619D01*
X39064652Y-39762152D01*
X39120612Y-39693965D01*
X39128751Y-39684985D01*
X39181847Y-39631888D01*
X39190836Y-39623740D01*
X39259072Y-39567741D01*
X39266586Y-39562040D01*
X39327579Y-39519331D01*
X39340218Y-39511566D01*
X39419757Y-39469051D01*
X39425720Y-39466070D01*
X39491297Y-39435490D01*
X39507707Y-39429212D01*
X39549512Y-39416530D01*
X39599692Y-39401308D01*
X39603510Y-39400218D01*
X39667554Y-39383056D01*
X39687477Y-39379430D01*
X39815559Y-39366815D01*
X39816754Y-39366704D01*
X39844717Y-39364257D01*
X39853691Y-39363472D01*
X39864500Y-39363000D01*
X97853967Y-39363000D01*
X97864750Y-39363470D01*
G37*
%TD.AperFunction*%
%TD*%
M02*
