G04 #@! TF.GenerationSoftware,KiCad,Pcbnew,(5.1.10-1-10_14)*
G04 #@! TF.CreationDate,2021-08-20T16:54:01-05:00*
G04 #@! TF.ProjectId,ori_top_plate,6f72695f-746f-4705-9f70-6c6174652e6b,rev?*
G04 #@! TF.SameCoordinates,Original*
G04 #@! TF.FileFunction,Profile,NP*
%FSLAX46Y46*%
G04 Gerber Fmt 4.6, Leading zero omitted, Abs format (unit mm)*
G04 Created by KiCad (PCBNEW (5.1.10-1-10_14)) date 2021-08-20 16:54:01*
%MOMM*%
%LPD*%
G01*
G04 APERTURE LIST*
G04 #@! TA.AperFunction,Profile*
%ADD10C,0.150000*%
G04 #@! TD*
G04 #@! TA.AperFunction,Profile*
%ADD11C,0.100000*%
G04 #@! TD*
G04 APERTURE END LIST*
D10*
X258392142Y-39873575D02*
G75*
G02*
X257796829Y-40468888I-595313J0D01*
G01*
X263749959Y-40468888D02*
G75*
G02*
X263154646Y-39873575I0J595313D01*
G01*
X353642222Y-39873575D02*
G75*
G02*
X353046909Y-40468888I-595313J0D01*
G01*
X359000039Y-40468888D02*
G75*
G02*
X358404726Y-39873575I0J595313D01*
G01*
X392337567Y-116668952D02*
X396505150Y-116669080D01*
X379836330Y-116669080D02*
X386384437Y-116668952D01*
X391742254Y-117264265D02*
G75*
G02*
X386979750Y-117264265I-2381252J0D01*
G01*
X391742254Y-117264265D02*
G75*
G02*
X392337567Y-116668952I595313J0D01*
G01*
X386384437Y-116668952D02*
G75*
G02*
X386979750Y-117264265I0J-595313D01*
G01*
X392337567Y-40468888D02*
X396505150Y-40468760D01*
X379836330Y-40468760D02*
X386384437Y-40468888D01*
X359000039Y-40468888D02*
X372692550Y-40468760D01*
X263749959Y-40468888D02*
X353046909Y-40468888D01*
X168499879Y-40468888D02*
X257796829Y-40468888D01*
X148854110Y-40468760D02*
X162546749Y-40468888D01*
X162546749Y-116668952D02*
X148854110Y-116669080D01*
X257796829Y-116668952D02*
X168499879Y-116668952D01*
X353046909Y-116668952D02*
X263749959Y-116668952D01*
X359000039Y-116668952D02*
X372692550Y-116669080D01*
X358404726Y-117264265D02*
G75*
G02*
X353642222Y-117264265I-2381252J0D01*
G01*
X358404726Y-117264265D02*
G75*
G02*
X359000039Y-116668952I595313J0D01*
G01*
X353046909Y-116668952D02*
G75*
G02*
X353642222Y-117264265I0J-595313D01*
G01*
X263154646Y-117264265D02*
G75*
G02*
X258392142Y-117264265I-2381252J0D01*
G01*
X263154646Y-117264265D02*
G75*
G02*
X263749959Y-116668952I595313J0D01*
G01*
X257796829Y-116668952D02*
G75*
G02*
X258392142Y-117264265I0J-595313D01*
G01*
X167904566Y-117264265D02*
G75*
G02*
X163142062Y-117264265I-2381252J0D01*
G01*
X167904566Y-117264265D02*
G75*
G02*
X168499879Y-116668952I595313J0D01*
G01*
X162546749Y-116668952D02*
G75*
G02*
X163142062Y-117264265I0J-595313D01*
G01*
X163142062Y-39873575D02*
G75*
G02*
X167904566Y-39873575I2381252J0D01*
G01*
X163142062Y-39873575D02*
G75*
G02*
X162546749Y-40468888I-595313J0D01*
G01*
X168499879Y-40468888D02*
G75*
G02*
X167904566Y-39873575I0J595313D01*
G01*
X258392142Y-39873575D02*
G75*
G02*
X263154646Y-39873575I2381252J0D01*
G01*
X353642222Y-39873575D02*
G75*
G02*
X358404726Y-39873575I2381252J0D01*
G01*
X386979750Y-39873575D02*
G75*
G02*
X386384437Y-40468888I-595313J0D01*
G01*
X392337567Y-40468888D02*
G75*
G02*
X391742254Y-39873575I0J595313D01*
G01*
X386979750Y-39873575D02*
G75*
G02*
X391742254Y-39873575I2381252J0D01*
G01*
X146472850Y-42850020D02*
X146472850Y-114287820D01*
X377455070Y-101786127D02*
X377455070Y-114287820D01*
X375073810Y-101786237D02*
X375073810Y-114287820D01*
X375073810Y-82736125D02*
X375073490Y-93451745D01*
X377455070Y-82736125D02*
X377455070Y-93451827D01*
X377455070Y-74401715D02*
X377454746Y-63686095D01*
X375073486Y-63686095D02*
X375073810Y-74401715D01*
X377455070Y-42850020D02*
X377455070Y-55351603D01*
X398886410Y-114287820D02*
X398886410Y-42850020D01*
X375073810Y-42850020D02*
X375073810Y-55351603D01*
X377455070Y-42850020D02*
G75*
G02*
X379836330Y-40468760I2381260J0D01*
G01*
X379836330Y-116669080D02*
G75*
G02*
X377455070Y-114287820I0J2381260D01*
G01*
X375073810Y-101786237D02*
G75*
G02*
X377455070Y-101786237I1190630J0D01*
G01*
X377455070Y-93451827D02*
G75*
G02*
X375073810Y-93451827I-1190630J0D01*
G01*
X375073810Y-82736125D02*
G75*
G02*
X377455070Y-82736125I1190630J0D01*
G01*
X377455070Y-74401715D02*
G75*
G02*
X375073810Y-74401715I-1190630J0D01*
G01*
X375073486Y-63686095D02*
G75*
G02*
X377454746Y-63686095I1190630J0D01*
G01*
X377455070Y-55351603D02*
G75*
G02*
X375073810Y-55351603I-1190630J0D01*
G01*
X396505150Y-40468760D02*
G75*
G02*
X398886410Y-42850020I0J-2381260D01*
G01*
X398886410Y-114287820D02*
G75*
G02*
X396505150Y-116669080I-2381260J0D01*
G01*
X372692550Y-40468760D02*
G75*
G02*
X375073810Y-42850020I0J-2381260D01*
G01*
X375073810Y-114287820D02*
G75*
G02*
X372692550Y-116669080I-2381260J0D01*
G01*
X148854110Y-116669080D02*
G75*
G02*
X146472850Y-114287820I0J2381260D01*
G01*
X146472850Y-42850020D02*
G75*
G02*
X148854110Y-40468760I2381260J0D01*
G01*
D11*
X396060818Y-114143896D02*
X382660818Y-114143896D01*
X396060818Y-100143896D02*
X382660818Y-100143896D01*
X382360818Y-113843896D02*
X382360818Y-100443896D01*
X396360818Y-113843896D02*
X396360818Y-100443896D01*
X382660818Y-114143896D02*
G75*
G02*
X382360818Y-113843896I0J300000D01*
G01*
X382360818Y-100443896D02*
G75*
G02*
X382660818Y-100143896I300000J0D01*
G01*
X396060818Y-100143896D02*
G75*
G02*
X396360818Y-100443896I0J-300000D01*
G01*
X396360818Y-113843896D02*
G75*
G02*
X396060818Y-114143896I-300000J0D01*
G01*
X396061002Y-95106620D02*
X382661002Y-95106620D01*
X396061002Y-81106620D02*
X382661002Y-81106620D01*
X382361002Y-94806620D02*
X382361002Y-81406620D01*
X396361002Y-94806620D02*
X396361002Y-81406620D01*
X382661002Y-95106620D02*
G75*
G02*
X382361002Y-94806620I0J300000D01*
G01*
X382361002Y-81406620D02*
G75*
G02*
X382661002Y-81106620I300000J0D01*
G01*
X396061002Y-81106620D02*
G75*
G02*
X396361002Y-81406620I0J-300000D01*
G01*
X396361002Y-94806620D02*
G75*
G02*
X396061002Y-95106620I-300000J0D01*
G01*
X396061370Y-76043880D02*
X382661370Y-76043880D01*
X396061370Y-62043880D02*
X382661370Y-62043880D01*
X382361370Y-75743880D02*
X382361370Y-62343880D01*
X396361370Y-75743880D02*
X396361370Y-62343880D01*
X382661370Y-76043880D02*
G75*
G02*
X382361370Y-75743880I0J300000D01*
G01*
X382361370Y-62343880D02*
G75*
G02*
X382661370Y-62043880I300000J0D01*
G01*
X396061370Y-62043880D02*
G75*
G02*
X396361370Y-62343880I0J-300000D01*
G01*
X396361370Y-75743880D02*
G75*
G02*
X396061370Y-76043880I-300000J0D01*
G01*
X396036010Y-57006460D02*
X382636010Y-57006460D01*
X396036010Y-43006460D02*
X382636010Y-43006460D01*
X382336010Y-56706460D02*
X382336010Y-43306460D01*
X396336010Y-56706460D02*
X396336010Y-43306460D01*
X382636010Y-57006460D02*
G75*
G02*
X382336010Y-56706460I0J300000D01*
G01*
X382336010Y-43306460D02*
G75*
G02*
X382636010Y-43006460I300000J0D01*
G01*
X396036010Y-43006460D02*
G75*
G02*
X396336010Y-43306460I0J-300000D01*
G01*
X396336010Y-56706460D02*
G75*
G02*
X396036010Y-57006460I-300000J0D01*
G01*
X372223410Y-114156700D02*
X358823410Y-114156700D01*
X372223410Y-100156700D02*
X358823410Y-100156700D01*
X358523410Y-113856700D02*
X358523410Y-100456700D01*
X372523410Y-113856700D02*
X372523410Y-100456700D01*
X358823410Y-114156700D02*
G75*
G02*
X358523410Y-113856700I0J300000D01*
G01*
X358523410Y-100456700D02*
G75*
G02*
X358823410Y-100156700I300000J0D01*
G01*
X372223410Y-100156700D02*
G75*
G02*
X372523410Y-100456700I0J-300000D01*
G01*
X372523410Y-113856700D02*
G75*
G02*
X372223410Y-114156700I-300000J0D01*
G01*
X353173330Y-114160000D02*
X339773330Y-114160000D01*
X353173330Y-100160000D02*
X339773330Y-100160000D01*
X339473330Y-113860000D02*
X339473330Y-100460000D01*
X353473330Y-113860000D02*
X353473330Y-100460000D01*
X339773330Y-114160000D02*
G75*
G02*
X339473330Y-113860000I0J300000D01*
G01*
X339473330Y-100460000D02*
G75*
G02*
X339773330Y-100160000I300000J0D01*
G01*
X353173330Y-100160000D02*
G75*
G02*
X353473330Y-100460000I0J-300000D01*
G01*
X353473330Y-113860000D02*
G75*
G02*
X353173330Y-114160000I-300000J0D01*
G01*
X334123250Y-114156700D02*
X320723250Y-114156700D01*
X334123250Y-100156700D02*
X320723250Y-100156700D01*
X320423250Y-113856700D02*
X320423250Y-100456700D01*
X334423250Y-113856700D02*
X334423250Y-100456700D01*
X320723250Y-114156700D02*
G75*
G02*
X320423250Y-113856700I0J300000D01*
G01*
X320423250Y-100456700D02*
G75*
G02*
X320723250Y-100156700I300000J0D01*
G01*
X334123250Y-100156700D02*
G75*
G02*
X334423250Y-100456700I0J-300000D01*
G01*
X334423250Y-113856700D02*
G75*
G02*
X334123250Y-114156700I-300000J0D01*
G01*
X315073170Y-114156700D02*
X301673170Y-114156700D01*
X315073170Y-100156700D02*
X301673170Y-100156700D01*
X301373170Y-113856700D02*
X301373170Y-100456700D01*
X315373170Y-113856700D02*
X315373170Y-100456700D01*
X301673170Y-114156700D02*
G75*
G02*
X301373170Y-113856700I0J300000D01*
G01*
X301373170Y-100456700D02*
G75*
G02*
X301673170Y-100156700I300000J0D01*
G01*
X315073170Y-100156700D02*
G75*
G02*
X315373170Y-100456700I0J-300000D01*
G01*
X315373170Y-113856700D02*
G75*
G02*
X315073170Y-114156700I-300000J0D01*
G01*
X296023090Y-114156700D02*
X282623090Y-114156700D01*
X296023090Y-100156700D02*
X282623090Y-100156700D01*
X282323090Y-113856700D02*
X282323090Y-100456700D01*
X296323090Y-113856700D02*
X296323090Y-100456700D01*
X282623090Y-114156700D02*
G75*
G02*
X282323090Y-113856700I0J300000D01*
G01*
X282323090Y-100456700D02*
G75*
G02*
X282623090Y-100156700I300000J0D01*
G01*
X296023090Y-100156700D02*
G75*
G02*
X296323090Y-100456700I0J-300000D01*
G01*
X296323090Y-113856700D02*
G75*
G02*
X296023090Y-114156700I-300000J0D01*
G01*
X276973010Y-114156700D02*
X263573010Y-114156700D01*
X276973010Y-100156700D02*
X263573010Y-100156700D01*
X263273010Y-113856700D02*
X263273010Y-100456700D01*
X277273010Y-113856700D02*
X277273010Y-100456700D01*
X263573010Y-114156700D02*
G75*
G02*
X263273010Y-113856700I0J300000D01*
G01*
X263273010Y-100456700D02*
G75*
G02*
X263573010Y-100156700I300000J0D01*
G01*
X276973010Y-100156700D02*
G75*
G02*
X277273010Y-100456700I0J-300000D01*
G01*
X277273010Y-113856700D02*
G75*
G02*
X276973010Y-114156700I-300000J0D01*
G01*
X257922930Y-114156700D02*
X244522930Y-114156700D01*
X257922930Y-100156700D02*
X244522930Y-100156700D01*
X244222930Y-113856700D02*
X244222930Y-100456700D01*
X258222930Y-113856700D02*
X258222930Y-100456700D01*
X244522930Y-114156700D02*
G75*
G02*
X244222930Y-113856700I0J300000D01*
G01*
X244222930Y-100456700D02*
G75*
G02*
X244522930Y-100156700I300000J0D01*
G01*
X257922930Y-100156700D02*
G75*
G02*
X258222930Y-100456700I0J-300000D01*
G01*
X258222930Y-113856700D02*
G75*
G02*
X257922930Y-114156700I-300000J0D01*
G01*
X238872850Y-114156700D02*
X225472850Y-114156700D01*
X238872850Y-100156700D02*
X225472850Y-100156700D01*
X225172850Y-113856700D02*
X225172850Y-100456700D01*
X239172850Y-113856700D02*
X239172850Y-100456700D01*
X225472850Y-114156700D02*
G75*
G02*
X225172850Y-113856700I0J300000D01*
G01*
X225172850Y-100456700D02*
G75*
G02*
X225472850Y-100156700I300000J0D01*
G01*
X238872850Y-100156700D02*
G75*
G02*
X239172850Y-100456700I0J-300000D01*
G01*
X239172850Y-113856700D02*
G75*
G02*
X238872850Y-114156700I-300000J0D01*
G01*
X219822770Y-114156700D02*
X206422770Y-114156700D01*
X219822770Y-100156700D02*
X206422770Y-100156700D01*
X206122770Y-113856700D02*
X206122770Y-100456700D01*
X220122770Y-113856700D02*
X220122770Y-100456700D01*
X206422770Y-114156700D02*
G75*
G02*
X206122770Y-113856700I0J300000D01*
G01*
X206122770Y-100456700D02*
G75*
G02*
X206422770Y-100156700I300000J0D01*
G01*
X219822770Y-100156700D02*
G75*
G02*
X220122770Y-100456700I0J-300000D01*
G01*
X220122770Y-113856700D02*
G75*
G02*
X219822770Y-114156700I-300000J0D01*
G01*
X200772690Y-114156700D02*
X187372690Y-114156700D01*
X200772690Y-100156700D02*
X187372690Y-100156700D01*
X187072690Y-113856700D02*
X187072690Y-100456700D01*
X201072690Y-113856700D02*
X201072690Y-100456700D01*
X187372690Y-114156700D02*
G75*
G02*
X187072690Y-113856700I0J300000D01*
G01*
X187072690Y-100456700D02*
G75*
G02*
X187372690Y-100156700I300000J0D01*
G01*
X200772690Y-100156700D02*
G75*
G02*
X201072690Y-100456700I0J-300000D01*
G01*
X201072690Y-113856700D02*
G75*
G02*
X200772690Y-114156700I-300000J0D01*
G01*
X181722610Y-114156700D02*
X168322610Y-114156700D01*
X181722610Y-100156700D02*
X168322610Y-100156700D01*
X168022610Y-113856700D02*
X168022610Y-100456700D01*
X182022610Y-113856700D02*
X182022610Y-100456700D01*
X168322610Y-114156700D02*
G75*
G02*
X168022610Y-113856700I0J300000D01*
G01*
X168022610Y-100456700D02*
G75*
G02*
X168322610Y-100156700I300000J0D01*
G01*
X181722610Y-100156700D02*
G75*
G02*
X182022610Y-100456700I0J-300000D01*
G01*
X182022610Y-113856700D02*
G75*
G02*
X181722610Y-114156700I-300000J0D01*
G01*
X162672530Y-114156700D02*
X149272530Y-114156700D01*
X162672530Y-100156700D02*
X149272530Y-100156700D01*
X148972530Y-113856700D02*
X148972530Y-100456700D01*
X162972530Y-113856700D02*
X162972530Y-100456700D01*
X149272530Y-114156700D02*
G75*
G02*
X148972530Y-113856700I0J300000D01*
G01*
X148972530Y-100456700D02*
G75*
G02*
X149272530Y-100156700I300000J0D01*
G01*
X162672530Y-100156700D02*
G75*
G02*
X162972530Y-100456700I0J-300000D01*
G01*
X162972530Y-113856700D02*
G75*
G02*
X162672530Y-114156700I-300000J0D01*
G01*
X372223410Y-95106620D02*
X358823410Y-95106620D01*
X372223410Y-81106620D02*
X358823410Y-81106620D01*
X358523410Y-94806620D02*
X358523410Y-81406620D01*
X372523410Y-94806620D02*
X372523410Y-81406620D01*
X358823410Y-95106620D02*
G75*
G02*
X358523410Y-94806620I0J300000D01*
G01*
X358523410Y-81406620D02*
G75*
G02*
X358823410Y-81106620I300000J0D01*
G01*
X372223410Y-81106620D02*
G75*
G02*
X372523410Y-81406620I0J-300000D01*
G01*
X372523410Y-94806620D02*
G75*
G02*
X372223410Y-95106620I-300000J0D01*
G01*
X353173330Y-95106620D02*
X339773330Y-95106620D01*
X353173330Y-81106620D02*
X339773330Y-81106620D01*
X339473330Y-94806620D02*
X339473330Y-81406620D01*
X353473330Y-94806620D02*
X353473330Y-81406620D01*
X339773330Y-95106620D02*
G75*
G02*
X339473330Y-94806620I0J300000D01*
G01*
X339473330Y-81406620D02*
G75*
G02*
X339773330Y-81106620I300000J0D01*
G01*
X353173330Y-81106620D02*
G75*
G02*
X353473330Y-81406620I0J-300000D01*
G01*
X353473330Y-94806620D02*
G75*
G02*
X353173330Y-95106620I-300000J0D01*
G01*
X334123250Y-95106620D02*
X320723250Y-95106620D01*
X334123250Y-81106620D02*
X320723250Y-81106620D01*
X320423250Y-94806620D02*
X320423250Y-81406620D01*
X334423250Y-94806620D02*
X334423250Y-81406620D01*
X320723250Y-95106620D02*
G75*
G02*
X320423250Y-94806620I0J300000D01*
G01*
X320423250Y-81406620D02*
G75*
G02*
X320723250Y-81106620I300000J0D01*
G01*
X334123250Y-81106620D02*
G75*
G02*
X334423250Y-81406620I0J-300000D01*
G01*
X334423250Y-94806620D02*
G75*
G02*
X334123250Y-95106620I-300000J0D01*
G01*
X315073170Y-95106620D02*
X301673170Y-95106620D01*
X315073170Y-81106620D02*
X301673170Y-81106620D01*
X301373170Y-94806620D02*
X301373170Y-81406620D01*
X315373170Y-94806620D02*
X315373170Y-81406620D01*
X301673170Y-95106620D02*
G75*
G02*
X301373170Y-94806620I0J300000D01*
G01*
X301373170Y-81406620D02*
G75*
G02*
X301673170Y-81106620I300000J0D01*
G01*
X315073170Y-81106620D02*
G75*
G02*
X315373170Y-81406620I0J-300000D01*
G01*
X315373170Y-94806620D02*
G75*
G02*
X315073170Y-95106620I-300000J0D01*
G01*
X296023090Y-95106620D02*
X282623090Y-95106620D01*
X296023090Y-81106620D02*
X282623090Y-81106620D01*
X282323090Y-94806620D02*
X282323090Y-81406620D01*
X296323090Y-94806620D02*
X296323090Y-81406620D01*
X282623090Y-95106620D02*
G75*
G02*
X282323090Y-94806620I0J300000D01*
G01*
X282323090Y-81406620D02*
G75*
G02*
X282623090Y-81106620I300000J0D01*
G01*
X296023090Y-81106620D02*
G75*
G02*
X296323090Y-81406620I0J-300000D01*
G01*
X296323090Y-94806620D02*
G75*
G02*
X296023090Y-95106620I-300000J0D01*
G01*
X276973010Y-95106620D02*
X263573010Y-95106620D01*
X276973010Y-81106620D02*
X263573010Y-81106620D01*
X263273010Y-94806620D02*
X263273010Y-81406620D01*
X277273010Y-94806620D02*
X277273010Y-81406620D01*
X263573010Y-95106620D02*
G75*
G02*
X263273010Y-94806620I0J300000D01*
G01*
X263273010Y-81406620D02*
G75*
G02*
X263573010Y-81106620I300000J0D01*
G01*
X276973010Y-81106620D02*
G75*
G02*
X277273010Y-81406620I0J-300000D01*
G01*
X277273010Y-94806620D02*
G75*
G02*
X276973010Y-95106620I-300000J0D01*
G01*
X257922930Y-95106620D02*
X244522930Y-95106620D01*
X257922930Y-81106620D02*
X244522930Y-81106620D01*
X244222930Y-94806620D02*
X244222930Y-81406620D01*
X258222930Y-94806620D02*
X258222930Y-81406620D01*
X244522930Y-95106620D02*
G75*
G02*
X244222930Y-94806620I0J300000D01*
G01*
X244222930Y-81406620D02*
G75*
G02*
X244522930Y-81106620I300000J0D01*
G01*
X257922930Y-81106620D02*
G75*
G02*
X258222930Y-81406620I0J-300000D01*
G01*
X258222930Y-94806620D02*
G75*
G02*
X257922930Y-95106620I-300000J0D01*
G01*
X238872850Y-95106620D02*
X225472850Y-95106620D01*
X238872850Y-81106620D02*
X225472850Y-81106620D01*
X225172850Y-94806620D02*
X225172850Y-81406620D01*
X239172850Y-94806620D02*
X239172850Y-81406620D01*
X225472850Y-95106620D02*
G75*
G02*
X225172850Y-94806620I0J300000D01*
G01*
X225172850Y-81406620D02*
G75*
G02*
X225472850Y-81106620I300000J0D01*
G01*
X238872850Y-81106620D02*
G75*
G02*
X239172850Y-81406620I0J-300000D01*
G01*
X239172850Y-94806620D02*
G75*
G02*
X238872850Y-95106620I-300000J0D01*
G01*
X219822770Y-95106620D02*
X206422770Y-95106620D01*
X219822770Y-81106620D02*
X206422770Y-81106620D01*
X206122770Y-94806620D02*
X206122770Y-81406620D01*
X220122770Y-94806620D02*
X220122770Y-81406620D01*
X206422770Y-95106620D02*
G75*
G02*
X206122770Y-94806620I0J300000D01*
G01*
X206122770Y-81406620D02*
G75*
G02*
X206422770Y-81106620I300000J0D01*
G01*
X219822770Y-81106620D02*
G75*
G02*
X220122770Y-81406620I0J-300000D01*
G01*
X220122770Y-94806620D02*
G75*
G02*
X219822770Y-95106620I-300000J0D01*
G01*
X200772690Y-95106620D02*
X187372690Y-95106620D01*
X200772690Y-81106620D02*
X187372690Y-81106620D01*
X187072690Y-94806620D02*
X187072690Y-81406620D01*
X201072690Y-94806620D02*
X201072690Y-81406620D01*
X187372690Y-95106620D02*
G75*
G02*
X187072690Y-94806620I0J300000D01*
G01*
X187072690Y-81406620D02*
G75*
G02*
X187372690Y-81106620I300000J0D01*
G01*
X200772690Y-81106620D02*
G75*
G02*
X201072690Y-81406620I0J-300000D01*
G01*
X201072690Y-94806620D02*
G75*
G02*
X200772690Y-95106620I-300000J0D01*
G01*
X181722610Y-95106620D02*
X168322610Y-95106620D01*
X181722610Y-81106620D02*
X168322610Y-81106620D01*
X168022610Y-94806620D02*
X168022610Y-81406620D01*
X182022610Y-94806620D02*
X182022610Y-81406620D01*
X168322610Y-95106620D02*
G75*
G02*
X168022610Y-94806620I0J300000D01*
G01*
X168022610Y-81406620D02*
G75*
G02*
X168322610Y-81106620I300000J0D01*
G01*
X181722610Y-81106620D02*
G75*
G02*
X182022610Y-81406620I0J-300000D01*
G01*
X182022610Y-94806620D02*
G75*
G02*
X181722610Y-95106620I-300000J0D01*
G01*
X162672530Y-95106620D02*
X149272530Y-95106620D01*
X162672530Y-81106620D02*
X149272530Y-81106620D01*
X148972530Y-94806620D02*
X148972530Y-81406620D01*
X162972530Y-94806620D02*
X162972530Y-81406620D01*
X149272530Y-95106620D02*
G75*
G02*
X148972530Y-94806620I0J300000D01*
G01*
X148972530Y-81406620D02*
G75*
G02*
X149272530Y-81106620I300000J0D01*
G01*
X162672530Y-81106620D02*
G75*
G02*
X162972530Y-81406620I0J-300000D01*
G01*
X162972530Y-94806620D02*
G75*
G02*
X162672530Y-95106620I-300000J0D01*
G01*
X372223410Y-76056540D02*
X358823410Y-76056540D01*
X372223410Y-62056540D02*
X358823410Y-62056540D01*
X358523410Y-75756540D02*
X358523410Y-62356540D01*
X372523410Y-75756540D02*
X372523410Y-62356540D01*
X358823410Y-76056540D02*
G75*
G02*
X358523410Y-75756540I0J300000D01*
G01*
X358523410Y-62356540D02*
G75*
G02*
X358823410Y-62056540I300000J0D01*
G01*
X372223410Y-62056540D02*
G75*
G02*
X372523410Y-62356540I0J-300000D01*
G01*
X372523410Y-75756540D02*
G75*
G02*
X372223410Y-76056540I-300000J0D01*
G01*
X353173330Y-76056540D02*
X339773330Y-76056540D01*
X353173330Y-62056540D02*
X339773330Y-62056540D01*
X339473330Y-75756540D02*
X339473330Y-62356540D01*
X353473330Y-75756540D02*
X353473330Y-62356540D01*
X339773330Y-76056540D02*
G75*
G02*
X339473330Y-75756540I0J300000D01*
G01*
X339473330Y-62356540D02*
G75*
G02*
X339773330Y-62056540I300000J0D01*
G01*
X353173330Y-62056540D02*
G75*
G02*
X353473330Y-62356540I0J-300000D01*
G01*
X353473330Y-75756540D02*
G75*
G02*
X353173330Y-76056540I-300000J0D01*
G01*
X334123250Y-76056540D02*
X320723250Y-76056540D01*
X334123250Y-62056540D02*
X320723250Y-62056540D01*
X320423250Y-75756540D02*
X320423250Y-62356540D01*
X334423250Y-75756540D02*
X334423250Y-62356540D01*
X320723250Y-76056540D02*
G75*
G02*
X320423250Y-75756540I0J300000D01*
G01*
X320423250Y-62356540D02*
G75*
G02*
X320723250Y-62056540I300000J0D01*
G01*
X334123250Y-62056540D02*
G75*
G02*
X334423250Y-62356540I0J-300000D01*
G01*
X334423250Y-75756540D02*
G75*
G02*
X334123250Y-76056540I-300000J0D01*
G01*
X315073170Y-76056540D02*
X301673170Y-76056540D01*
X315073170Y-62056540D02*
X301673170Y-62056540D01*
X301373170Y-75756540D02*
X301373170Y-62356540D01*
X315373170Y-75756540D02*
X315373170Y-62356540D01*
X301673170Y-76056540D02*
G75*
G02*
X301373170Y-75756540I0J300000D01*
G01*
X301373170Y-62356540D02*
G75*
G02*
X301673170Y-62056540I300000J0D01*
G01*
X315073170Y-62056540D02*
G75*
G02*
X315373170Y-62356540I0J-300000D01*
G01*
X315373170Y-75756540D02*
G75*
G02*
X315073170Y-76056540I-300000J0D01*
G01*
X296023090Y-76056540D02*
X282623090Y-76056540D01*
X296023090Y-62056540D02*
X282623090Y-62056540D01*
X282323090Y-75756540D02*
X282323090Y-62356540D01*
X296323090Y-75756540D02*
X296323090Y-62356540D01*
X282623090Y-76056540D02*
G75*
G02*
X282323090Y-75756540I0J300000D01*
G01*
X282323090Y-62356540D02*
G75*
G02*
X282623090Y-62056540I300000J0D01*
G01*
X296023090Y-62056540D02*
G75*
G02*
X296323090Y-62356540I0J-300000D01*
G01*
X296323090Y-75756540D02*
G75*
G02*
X296023090Y-76056540I-300000J0D01*
G01*
X276973010Y-76056540D02*
X263573010Y-76056540D01*
X276973010Y-62056540D02*
X263573010Y-62056540D01*
X263273010Y-75756540D02*
X263273010Y-62356540D01*
X277273010Y-75756540D02*
X277273010Y-62356540D01*
X263573010Y-76056540D02*
G75*
G02*
X263273010Y-75756540I0J300000D01*
G01*
X263273010Y-62356540D02*
G75*
G02*
X263573010Y-62056540I300000J0D01*
G01*
X276973010Y-62056540D02*
G75*
G02*
X277273010Y-62356540I0J-300000D01*
G01*
X277273010Y-75756540D02*
G75*
G02*
X276973010Y-76056540I-300000J0D01*
G01*
X257922930Y-76056540D02*
X244522930Y-76056540D01*
X257922930Y-62056540D02*
X244522930Y-62056540D01*
X244222930Y-75756540D02*
X244222930Y-62356540D01*
X258222930Y-75756540D02*
X258222930Y-62356540D01*
X244522930Y-76056540D02*
G75*
G02*
X244222930Y-75756540I0J300000D01*
G01*
X244222930Y-62356540D02*
G75*
G02*
X244522930Y-62056540I300000J0D01*
G01*
X257922930Y-62056540D02*
G75*
G02*
X258222930Y-62356540I0J-300000D01*
G01*
X258222930Y-75756540D02*
G75*
G02*
X257922930Y-76056540I-300000J0D01*
G01*
X238872850Y-76056540D02*
X225472850Y-76056540D01*
X238872850Y-62056540D02*
X225472850Y-62056540D01*
X225172850Y-75756540D02*
X225172850Y-62356540D01*
X239172850Y-75756540D02*
X239172850Y-62356540D01*
X225472850Y-76056540D02*
G75*
G02*
X225172850Y-75756540I0J300000D01*
G01*
X225172850Y-62356540D02*
G75*
G02*
X225472850Y-62056540I300000J0D01*
G01*
X238872850Y-62056540D02*
G75*
G02*
X239172850Y-62356540I0J-300000D01*
G01*
X239172850Y-75756540D02*
G75*
G02*
X238872850Y-76056540I-300000J0D01*
G01*
X219822770Y-76056540D02*
X206422770Y-76056540D01*
X219822770Y-62056540D02*
X206422770Y-62056540D01*
X206122770Y-75756540D02*
X206122770Y-62356540D01*
X220122770Y-75756540D02*
X220122770Y-62356540D01*
X206422770Y-76056540D02*
G75*
G02*
X206122770Y-75756540I0J300000D01*
G01*
X206122770Y-62356540D02*
G75*
G02*
X206422770Y-62056540I300000J0D01*
G01*
X219822770Y-62056540D02*
G75*
G02*
X220122770Y-62356540I0J-300000D01*
G01*
X220122770Y-75756540D02*
G75*
G02*
X219822770Y-76056540I-300000J0D01*
G01*
X200772690Y-76056540D02*
X187372690Y-76056540D01*
X200772690Y-62056540D02*
X187372690Y-62056540D01*
X187072690Y-75756540D02*
X187072690Y-62356540D01*
X201072690Y-75756540D02*
X201072690Y-62356540D01*
X187372690Y-76056540D02*
G75*
G02*
X187072690Y-75756540I0J300000D01*
G01*
X187072690Y-62356540D02*
G75*
G02*
X187372690Y-62056540I300000J0D01*
G01*
X200772690Y-62056540D02*
G75*
G02*
X201072690Y-62356540I0J-300000D01*
G01*
X201072690Y-75756540D02*
G75*
G02*
X200772690Y-76056540I-300000J0D01*
G01*
X181722610Y-76056540D02*
X168322610Y-76056540D01*
X181722610Y-62056540D02*
X168322610Y-62056540D01*
X168022610Y-75756540D02*
X168022610Y-62356540D01*
X182022610Y-75756540D02*
X182022610Y-62356540D01*
X168322610Y-76056540D02*
G75*
G02*
X168022610Y-75756540I0J300000D01*
G01*
X168022610Y-62356540D02*
G75*
G02*
X168322610Y-62056540I300000J0D01*
G01*
X181722610Y-62056540D02*
G75*
G02*
X182022610Y-62356540I0J-300000D01*
G01*
X182022610Y-75756540D02*
G75*
G02*
X181722610Y-76056540I-300000J0D01*
G01*
X162672530Y-76056540D02*
X149272530Y-76056540D01*
X162672530Y-62056540D02*
X149272530Y-62056540D01*
X148972530Y-75756540D02*
X148972530Y-62356540D01*
X162972530Y-75756540D02*
X162972530Y-62356540D01*
X149272530Y-76056540D02*
G75*
G02*
X148972530Y-75756540I0J300000D01*
G01*
X148972530Y-62356540D02*
G75*
G02*
X149272530Y-62056540I300000J0D01*
G01*
X162672530Y-62056540D02*
G75*
G02*
X162972530Y-62356540I0J-300000D01*
G01*
X162972530Y-75756540D02*
G75*
G02*
X162672530Y-76056540I-300000J0D01*
G01*
X372223410Y-57006460D02*
X358823410Y-57006460D01*
X372223410Y-43006460D02*
X358823410Y-43006460D01*
X358523410Y-56706460D02*
X358523410Y-43306460D01*
X372523410Y-56706460D02*
X372523410Y-43306460D01*
X358823410Y-57006460D02*
G75*
G02*
X358523410Y-56706460I0J300000D01*
G01*
X358523410Y-43306460D02*
G75*
G02*
X358823410Y-43006460I300000J0D01*
G01*
X372223410Y-43006460D02*
G75*
G02*
X372523410Y-43306460I0J-300000D01*
G01*
X372523410Y-56706460D02*
G75*
G02*
X372223410Y-57006460I-300000J0D01*
G01*
X353173330Y-57006460D02*
X339773330Y-57006460D01*
X353173330Y-43006460D02*
X339773330Y-43006460D01*
X339473330Y-56706460D02*
X339473330Y-43306460D01*
X353473330Y-56706460D02*
X353473330Y-43306460D01*
X339773330Y-57006460D02*
G75*
G02*
X339473330Y-56706460I0J300000D01*
G01*
X339473330Y-43306460D02*
G75*
G02*
X339773330Y-43006460I300000J0D01*
G01*
X353173330Y-43006460D02*
G75*
G02*
X353473330Y-43306460I0J-300000D01*
G01*
X353473330Y-56706460D02*
G75*
G02*
X353173330Y-57006460I-300000J0D01*
G01*
X334123250Y-57006460D02*
X320723250Y-57006460D01*
X334123250Y-43006460D02*
X320723250Y-43006460D01*
X320423250Y-56706460D02*
X320423250Y-43306460D01*
X334423250Y-56706460D02*
X334423250Y-43306460D01*
X320723250Y-57006460D02*
G75*
G02*
X320423250Y-56706460I0J300000D01*
G01*
X320423250Y-43306460D02*
G75*
G02*
X320723250Y-43006460I300000J0D01*
G01*
X334123250Y-43006460D02*
G75*
G02*
X334423250Y-43306460I0J-300000D01*
G01*
X334423250Y-56706460D02*
G75*
G02*
X334123250Y-57006460I-300000J0D01*
G01*
X315073170Y-57006460D02*
X301673170Y-57006460D01*
X315073170Y-43006460D02*
X301673170Y-43006460D01*
X301373170Y-56706460D02*
X301373170Y-43306460D01*
X315373170Y-56706460D02*
X315373170Y-43306460D01*
X301673170Y-57006460D02*
G75*
G02*
X301373170Y-56706460I0J300000D01*
G01*
X301373170Y-43306460D02*
G75*
G02*
X301673170Y-43006460I300000J0D01*
G01*
X315073170Y-43006460D02*
G75*
G02*
X315373170Y-43306460I0J-300000D01*
G01*
X315373170Y-56706460D02*
G75*
G02*
X315073170Y-57006460I-300000J0D01*
G01*
X296023090Y-57006460D02*
X282623090Y-57006460D01*
X296023090Y-43006460D02*
X282623090Y-43006460D01*
X282323090Y-56706460D02*
X282323090Y-43306460D01*
X296323090Y-56706460D02*
X296323090Y-43306460D01*
X282623090Y-57006460D02*
G75*
G02*
X282323090Y-56706460I0J300000D01*
G01*
X282323090Y-43306460D02*
G75*
G02*
X282623090Y-43006460I300000J0D01*
G01*
X296023090Y-43006460D02*
G75*
G02*
X296323090Y-43306460I0J-300000D01*
G01*
X296323090Y-56706460D02*
G75*
G02*
X296023090Y-57006460I-300000J0D01*
G01*
X276973010Y-57006460D02*
X263573010Y-57006460D01*
X276973010Y-43006460D02*
X263573010Y-43006460D01*
X263273010Y-56706460D02*
X263273010Y-43306460D01*
X277273010Y-56706460D02*
X277273010Y-43306460D01*
X263573010Y-57006460D02*
G75*
G02*
X263273010Y-56706460I0J300000D01*
G01*
X263273010Y-43306460D02*
G75*
G02*
X263573010Y-43006460I300000J0D01*
G01*
X276973010Y-43006460D02*
G75*
G02*
X277273010Y-43306460I0J-300000D01*
G01*
X277273010Y-56706460D02*
G75*
G02*
X276973010Y-57006460I-300000J0D01*
G01*
X257922930Y-57006460D02*
X244522930Y-57006460D01*
X257922930Y-43006460D02*
X244522930Y-43006460D01*
X244222930Y-56706460D02*
X244222930Y-43306460D01*
X258222930Y-56706460D02*
X258222930Y-43306460D01*
X244522930Y-57006460D02*
G75*
G02*
X244222930Y-56706460I0J300000D01*
G01*
X244222930Y-43306460D02*
G75*
G02*
X244522930Y-43006460I300000J0D01*
G01*
X257922930Y-43006460D02*
G75*
G02*
X258222930Y-43306460I0J-300000D01*
G01*
X258222930Y-56706460D02*
G75*
G02*
X257922930Y-57006460I-300000J0D01*
G01*
X238872850Y-57006460D02*
X225472850Y-57006460D01*
X238872850Y-43006460D02*
X225472850Y-43006460D01*
X225172850Y-56706460D02*
X225172850Y-43306460D01*
X239172850Y-56706460D02*
X239172850Y-43306460D01*
X225472850Y-57006460D02*
G75*
G02*
X225172850Y-56706460I0J300000D01*
G01*
X225172850Y-43306460D02*
G75*
G02*
X225472850Y-43006460I300000J0D01*
G01*
X238872850Y-43006460D02*
G75*
G02*
X239172850Y-43306460I0J-300000D01*
G01*
X239172850Y-56706460D02*
G75*
G02*
X238872850Y-57006460I-300000J0D01*
G01*
X219822770Y-57006460D02*
X206422770Y-57006460D01*
X219822770Y-43006460D02*
X206422770Y-43006460D01*
X206122770Y-56706460D02*
X206122770Y-43306460D01*
X220122770Y-56706460D02*
X220122770Y-43306460D01*
X206422770Y-57006460D02*
G75*
G02*
X206122770Y-56706460I0J300000D01*
G01*
X206122770Y-43306460D02*
G75*
G02*
X206422770Y-43006460I300000J0D01*
G01*
X219822770Y-43006460D02*
G75*
G02*
X220122770Y-43306460I0J-300000D01*
G01*
X220122770Y-56706460D02*
G75*
G02*
X219822770Y-57006460I-300000J0D01*
G01*
X200772690Y-57006460D02*
X187372690Y-57006460D01*
X200772690Y-43006460D02*
X187372690Y-43006460D01*
X187072690Y-56706460D02*
X187072690Y-43306460D01*
X201072690Y-56706460D02*
X201072690Y-43306460D01*
X187372690Y-57006460D02*
G75*
G02*
X187072690Y-56706460I0J300000D01*
G01*
X187072690Y-43306460D02*
G75*
G02*
X187372690Y-43006460I300000J0D01*
G01*
X200772690Y-43006460D02*
G75*
G02*
X201072690Y-43306460I0J-300000D01*
G01*
X201072690Y-56706460D02*
G75*
G02*
X200772690Y-57006460I-300000J0D01*
G01*
X181722610Y-57006460D02*
X168322610Y-57006460D01*
X181722610Y-43006460D02*
X168322610Y-43006460D01*
X168022610Y-56706460D02*
X168022610Y-43306460D01*
X182022610Y-56706460D02*
X182022610Y-43306460D01*
X168322610Y-57006460D02*
G75*
G02*
X168022610Y-56706460I0J300000D01*
G01*
X168022610Y-43306460D02*
G75*
G02*
X168322610Y-43006460I300000J0D01*
G01*
X181722610Y-43006460D02*
G75*
G02*
X182022610Y-43306460I0J-300000D01*
G01*
X182022610Y-56706460D02*
G75*
G02*
X181722610Y-57006460I-300000J0D01*
G01*
X162672530Y-57006460D02*
X149272530Y-57006460D01*
X162672530Y-43006460D02*
X149272530Y-43006460D01*
X148972530Y-56706460D02*
X148972530Y-43306460D01*
X162972530Y-56706460D02*
X162972530Y-43306460D01*
X149272530Y-57006460D02*
G75*
G02*
X148972530Y-56706460I0J300000D01*
G01*
X148972530Y-43306460D02*
G75*
G02*
X149272530Y-43006460I300000J0D01*
G01*
X162672530Y-43006460D02*
G75*
G02*
X162972530Y-43306460I0J-300000D01*
G01*
X162972530Y-56706460D02*
G75*
G02*
X162672530Y-57006460I-300000J0D01*
G01*
M02*
