M48
; DRILL file {KiCad (5.1.10-1-10_14)} date Monday, August 16, 2021 at 10:35:21 PM
; FORMAT={-:-/ absolute / inch / decimal}
; #@! TF.CreationDate,2021-08-16T22:35:21-05:00
; #@! TF.GenerationSoftware,Kicad,Pcbnew,(5.1.10-1-10_14)
; #@! TF.FileFunction,NonPlated,1,2,NPTH
FMAT,2
INCH
T1C0.0200
T2C0.0315
T3C0.0500
%
G90
G05
T2
X14.7657Y-2.2448
X14.7657Y-2.294
X14.7657Y-2.3433
X14.7657Y-2.3925
X14.7657Y-2.4417
X14.7657Y-2.9953
X14.7657Y-3.0446
X14.7657Y-3.0938
X14.7657Y-3.143
X14.7657Y-3.1922
X14.7657Y-3.7453
X14.7657Y-3.7946
X14.7657Y-3.8438
X14.7657Y-3.893
X14.7657Y-3.9422
T1
G00X5.8432Y-1.7038
M15
G01X5.8432Y-1.8638
M16
G05
G00X5.8432Y-2.0738
M15
G01X5.8432Y-2.2338
M16
G05
G00X5.8432Y-2.4538
M15
G01X5.8432Y-2.6138
M16
G05
G00X5.8432Y-2.8238
M15
G01X5.8432Y-2.9838
M16
G05
G00X5.8432Y-3.2038
M15
G01X5.8432Y-3.3638
M16
G05
G00X5.8432Y-3.5738
M15
G01X5.8432Y-3.7338
M16
G05
G00X5.8432Y-3.9538
M15
G01X5.8432Y-4.1138
M16
G05
G00X5.8432Y-4.3238
M15
G01X5.8432Y-4.4838
M16
G05
G00X5.8432Y-1.8638
M15
G01X5.8757Y-1.8638
M16
G05
G00X5.8432Y-2.0738
M15
G01X5.8757Y-2.0738
M16
G05
G00X5.8432Y-2.6138
M15
G01X5.8757Y-2.6138
M16
G05
G00X5.8432Y-2.8238
M15
G01X5.8757Y-2.8238
M16
G05
G00X5.8432Y-3.3638
M15
G01X5.8757Y-3.3638
M16
G05
G00X5.8432Y-3.5738
M15
G01X5.8757Y-3.5738
M16
G05
G00X5.8432Y-4.1138
M15
G01X5.8757Y-4.1138
M16
G05
G00X5.8432Y-4.3238
M15
G01X5.8757Y-4.3238
M16
G05
G00X5.8757Y-1.8638
M15
G01X5.8757Y-2.0738
M16
G05
G00X5.8757Y-2.6138
M15
G01X5.8757Y-2.8238
M16
G05
G00X5.8757Y-3.3638
M15
G01X5.8757Y-3.5738
M16
G05
G00X5.8757Y-4.1138
M15
G01X5.8757Y-4.3238
M16
G05
G00X5.8437Y-1.7038
M15
G01X6.4377Y-1.7038
M16
G05
G00X5.8437Y-2.2338
M15
G01X6.4377Y-2.2338
M16
G05
G00X5.8437Y-2.4538
M15
G01X6.4377Y-2.4538
M16
G05
G00X5.8437Y-2.9838
M15
G01X6.4377Y-2.9838
M16
G05
G00X5.8437Y-3.2038
M15
G01X6.4377Y-3.2038
M16
G05
G00X5.8437Y-3.7338
M15
G01X6.4377Y-3.7338
M16
G05
G00X5.8437Y-3.9538
M15
G01X6.4377Y-3.9538
M16
G05
G00X5.8437Y-4.4838
M15
G01X6.4377Y-4.4838
M16
G05
G00X6.4057Y-1.8638
M15
G01X6.4057Y-2.0738
M16
G05
G00X6.4057Y-2.6138
M15
G01X6.4057Y-2.8238
M16
G05
G00X6.4057Y-3.3638
M15
G01X6.4057Y-3.5738
M16
G05
G00X6.4057Y-4.1138
M15
G01X6.4057Y-4.3238
M16
G05
G00X6.4057Y-1.8638
M15
G01X6.4382Y-1.8638
M16
G05
G00X6.4057Y-2.0738
M15
G01X6.4382Y-2.0738
M16
G05
G00X6.4057Y-2.6138
M15
G01X6.4382Y-2.6138
M16
G05
G00X6.4057Y-2.8238
M15
G01X6.4382Y-2.8238
M16
G05
G00X6.4057Y-3.3638
M15
G01X6.4382Y-3.3638
M16
G05
G00X6.4057Y-3.5738
M15
G01X6.4382Y-3.5738
M16
G05
G00X6.4057Y-4.1138
M15
G01X6.4382Y-4.1138
M16
G05
G00X6.4057Y-4.3238
M15
G01X6.4382Y-4.3238
M16
G05
G00X6.4382Y-1.7038
M15
G01X6.4382Y-1.8638
M16
G05
G00X6.4382Y-2.0738
M15
G01X6.4382Y-2.2338
M16
G05
G00X6.4382Y-2.4538
M15
G01X6.4382Y-2.6138
M16
G05
G00X6.4382Y-2.8238
M15
G01X6.4382Y-2.9838
M16
G05
G00X6.4382Y-3.2038
M15
G01X6.4382Y-3.3638
M16
G05
G00X6.4382Y-3.5738
M15
G01X6.4382Y-3.7338
M16
G05
G00X6.4382Y-3.9538
M15
G01X6.4382Y-4.1138
M16
G05
G00X6.4382Y-4.3238
M15
G01X6.4382Y-4.4838
M16
G05
G00X6.5932Y-1.7038
M15
G01X6.5932Y-1.8638
M16
G05
G00X6.5932Y-2.0738
M15
G01X6.5932Y-2.2338
M16
G05
G00X6.5932Y-2.4538
M15
G01X6.5932Y-2.6138
M16
G05
G00X6.5932Y-2.8238
M15
G01X6.5932Y-2.9838
M16
G05
G00X6.5932Y-3.2038
M15
G01X6.5932Y-3.3638
M16
G05
G00X6.5932Y-3.5738
M15
G01X6.5932Y-3.7338
M16
G05
G00X6.5932Y-3.9538
M15
G01X6.5932Y-4.1138
M16
G05
G00X6.5932Y-4.3238
M15
G01X6.5932Y-4.4838
M16
G05
G00X6.5932Y-1.8638
M15
G01X6.6257Y-1.8638
M16
G05
G00X6.5932Y-2.0738
M15
G01X6.6257Y-2.0738
M16
G05
G00X6.5932Y-2.6138
M15
G01X6.6257Y-2.6138
M16
G05
G00X6.5932Y-2.8238
M15
G01X6.6257Y-2.8238
M16
G05
G00X6.5932Y-3.3638
M15
G01X6.6257Y-3.3638
M16
G05
G00X6.5932Y-3.5738
M15
G01X6.6257Y-3.5738
M16
G05
G00X6.5932Y-4.1138
M15
G01X6.6257Y-4.1138
M16
G05
G00X6.5932Y-4.3238
M15
G01X6.6257Y-4.3238
M16
G05
G00X6.6257Y-1.8638
M15
G01X6.6257Y-2.0738
M16
G05
G00X6.6257Y-2.6138
M15
G01X6.6257Y-2.8238
M16
G05
G00X6.6257Y-3.3638
M15
G01X6.6257Y-3.5738
M16
G05
G00X6.6257Y-4.1138
M15
G01X6.6257Y-4.3238
M16
G05
G00X6.5937Y-1.7038
M15
G01X7.1877Y-1.7038
M16
G05
G00X6.5937Y-2.2338
M15
G01X7.1877Y-2.2338
M16
G05
G00X6.5937Y-2.4538
M15
G01X7.1877Y-2.4538
M16
G05
G00X6.5937Y-2.9838
M15
G01X7.1877Y-2.9838
M16
G05
G00X6.5937Y-3.2038
M15
G01X7.1877Y-3.2038
M16
G05
G00X6.5937Y-3.7338
M15
G01X7.1877Y-3.7338
M16
G05
G00X6.5937Y-3.9538
M15
G01X7.1877Y-3.9538
M16
G05
G00X6.5937Y-4.4838
M15
G01X7.1877Y-4.4838
M16
G05
G00X7.1557Y-1.8638
M15
G01X7.1557Y-2.0738
M16
G05
G00X7.1557Y-2.6138
M15
G01X7.1557Y-2.8238
M16
G05
G00X7.1557Y-3.3638
M15
G01X7.1557Y-3.5738
M16
G05
G00X7.1557Y-4.1138
M15
G01X7.1557Y-4.3238
M16
G05
G00X7.1557Y-1.8638
M15
G01X7.1882Y-1.8638
M16
G05
G00X7.1557Y-2.0738
M15
G01X7.1882Y-2.0738
M16
G05
G00X7.1557Y-2.6138
M15
G01X7.1882Y-2.6138
M16
G05
G00X7.1557Y-2.8238
M15
G01X7.1882Y-2.8238
M16
G05
G00X7.1557Y-3.3638
M15
G01X7.1882Y-3.3638
M16
G05
G00X7.1557Y-3.5738
M15
G01X7.1882Y-3.5738
M16
G05
G00X7.1557Y-4.1138
M15
G01X7.1882Y-4.1138
M16
G05
G00X7.1557Y-4.3238
M15
G01X7.1882Y-4.3238
M16
G05
G00X7.1882Y-1.7038
M15
G01X7.1882Y-1.8638
M16
G05
G00X7.1882Y-2.0738
M15
G01X7.1882Y-2.2338
M16
G05
G00X7.1882Y-2.4538
M15
G01X7.1882Y-2.6138
M16
G05
G00X7.1882Y-2.8238
M15
G01X7.1882Y-2.9838
M16
G05
G00X7.1882Y-3.2038
M15
G01X7.1882Y-3.3638
M16
G05
G00X7.1882Y-3.5738
M15
G01X7.1882Y-3.7338
M16
G05
G00X7.1882Y-3.9538
M15
G01X7.1882Y-4.1138
M16
G05
G00X7.1882Y-4.3238
M15
G01X7.1882Y-4.4838
M16
G05
G00X7.3432Y-1.7038
M15
G01X7.3432Y-1.8638
M16
G05
G00X7.3432Y-2.0738
M15
G01X7.3432Y-2.2338
M16
G05
G00X7.3432Y-2.4538
M15
G01X7.3432Y-2.6138
M16
G05
G00X7.3432Y-2.8238
M15
G01X7.3432Y-2.9838
M16
G05
G00X7.3432Y-3.2038
M15
G01X7.3432Y-3.3638
M16
G05
G00X7.3432Y-3.5738
M15
G01X7.3432Y-3.7338
M16
G05
G00X7.3432Y-3.9538
M15
G01X7.3432Y-4.1138
M16
G05
G00X7.3432Y-4.3238
M15
G01X7.3432Y-4.4838
M16
G05
G00X7.3432Y-1.8638
M15
G01X7.3757Y-1.8638
M16
G05
G00X7.3432Y-2.0738
M15
G01X7.3757Y-2.0738
M16
G05
G00X7.3432Y-2.6138
M15
G01X7.3757Y-2.6138
M16
G05
G00X7.3432Y-2.8238
M15
G01X7.3757Y-2.8238
M16
G05
G00X7.3432Y-3.3638
M15
G01X7.3757Y-3.3638
M16
G05
G00X7.3432Y-3.5738
M15
G01X7.3757Y-3.5738
M16
G05
G00X7.3432Y-4.1138
M15
G01X7.3757Y-4.1138
M16
G05
G00X7.3432Y-4.3238
M15
G01X7.3757Y-4.3238
M16
G05
G00X7.3757Y-1.8638
M15
G01X7.3757Y-2.0738
M16
G05
G00X7.3757Y-2.6138
M15
G01X7.3757Y-2.8238
M16
G05
G00X7.3757Y-3.3638
M15
G01X7.3757Y-3.5738
M16
G05
G00X7.3757Y-4.1138
M15
G01X7.3757Y-4.3238
M16
G05
G00X7.3437Y-1.7038
M15
G01X7.9377Y-1.7038
M16
G05
G00X7.3437Y-2.2338
M15
G01X7.9377Y-2.2338
M16
G05
G00X7.3437Y-2.4538
M15
G01X7.9377Y-2.4538
M16
G05
G00X7.3437Y-2.9838
M15
G01X7.9377Y-2.9838
M16
G05
G00X7.3437Y-3.2038
M15
G01X7.9377Y-3.2038
M16
G05
G00X7.3437Y-3.7338
M15
G01X7.9377Y-3.7338
M16
G05
G00X7.3437Y-3.9538
M15
G01X7.9377Y-3.9538
M16
G05
G00X7.3437Y-4.4838
M15
G01X7.9377Y-4.4838
M16
G05
G00X7.9057Y-1.8638
M15
G01X7.9057Y-2.0738
M16
G05
G00X7.9057Y-2.6138
M15
G01X7.9057Y-2.8238
M16
G05
G00X7.9057Y-3.3638
M15
G01X7.9057Y-3.5738
M16
G05
G00X7.9057Y-4.1138
M15
G01X7.9057Y-4.3238
M16
G05
G00X7.9057Y-1.8638
M15
G01X7.9382Y-1.8638
M16
G05
G00X7.9057Y-2.0738
M15
G01X7.9382Y-2.0738
M16
G05
G00X7.9057Y-2.6138
M15
G01X7.9382Y-2.6138
M16
G05
G00X7.9057Y-2.8238
M15
G01X7.9382Y-2.8238
M16
G05
G00X7.9057Y-3.3638
M15
G01X7.9382Y-3.3638
M16
G05
G00X7.9057Y-3.5738
M15
G01X7.9382Y-3.5738
M16
G05
G00X7.9057Y-4.1138
M15
G01X7.9382Y-4.1138
M16
G05
G00X7.9057Y-4.3238
M15
G01X7.9382Y-4.3238
M16
G05
G00X7.9382Y-1.7038
M15
G01X7.9382Y-1.8638
M16
G05
G00X7.9382Y-2.0738
M15
G01X7.9382Y-2.2338
M16
G05
G00X7.9382Y-2.4538
M15
G01X7.9382Y-2.6138
M16
G05
G00X7.9382Y-2.8238
M15
G01X7.9382Y-2.9838
M16
G05
G00X7.9382Y-3.2038
M15
G01X7.9382Y-3.3638
M16
G05
G00X7.9382Y-3.5738
M15
G01X7.9382Y-3.7338
M16
G05
G00X7.9382Y-3.9538
M15
G01X7.9382Y-4.1138
M16
G05
G00X7.9382Y-4.3238
M15
G01X7.9382Y-4.4838
M16
G05
G00X8.0932Y-1.7038
M15
G01X8.0932Y-1.8638
M16
G05
G00X8.0932Y-2.0738
M15
G01X8.0932Y-2.2338
M16
G05
G00X8.0932Y-2.4538
M15
G01X8.0932Y-2.6138
M16
G05
G00X8.0932Y-2.8238
M15
G01X8.0932Y-2.9838
M16
G05
G00X8.0932Y-3.2038
M15
G01X8.0932Y-3.3638
M16
G05
G00X8.0932Y-3.5738
M15
G01X8.0932Y-3.7338
M16
G05
G00X8.0932Y-3.9538
M15
G01X8.0932Y-4.1138
M16
G05
G00X8.0932Y-4.3238
M15
G01X8.0932Y-4.4838
M16
G05
G00X8.0932Y-1.8638
M15
G01X8.1257Y-1.8638
M16
G05
G00X8.0932Y-2.0738
M15
G01X8.1257Y-2.0738
M16
G05
G00X8.0932Y-2.6138
M15
G01X8.1257Y-2.6138
M16
G05
G00X8.0932Y-2.8238
M15
G01X8.1257Y-2.8238
M16
G05
G00X8.0932Y-3.3638
M15
G01X8.1257Y-3.3638
M16
G05
G00X8.0932Y-3.5738
M15
G01X8.1257Y-3.5738
M16
G05
G00X8.0932Y-4.1138
M15
G01X8.1257Y-4.1138
M16
G05
G00X8.0932Y-4.3238
M15
G01X8.1257Y-4.3238
M16
G05
G00X8.1257Y-1.8638
M15
G01X8.1257Y-2.0738
M16
G05
G00X8.1257Y-2.6138
M15
G01X8.1257Y-2.8238
M16
G05
G00X8.1257Y-3.3638
M15
G01X8.1257Y-3.5738
M16
G05
G00X8.1257Y-4.1138
M15
G01X8.1257Y-4.3238
M16
G05
G00X8.0937Y-1.7038
M15
G01X8.6877Y-1.7038
M16
G05
G00X8.0937Y-2.2338
M15
G01X8.6877Y-2.2338
M16
G05
G00X8.0937Y-2.4538
M15
G01X8.6877Y-2.4538
M16
G05
G00X8.0937Y-2.9838
M15
G01X8.6877Y-2.9838
M16
G05
G00X8.0937Y-3.2038
M15
G01X8.6877Y-3.2038
M16
G05
G00X8.0937Y-3.7338
M15
G01X8.6877Y-3.7338
M16
G05
G00X8.0937Y-3.9538
M15
G01X8.6877Y-3.9538
M16
G05
G00X8.0937Y-4.4838
M15
G01X8.6877Y-4.4838
M16
G05
G00X8.6557Y-1.8638
M15
G01X8.6557Y-2.0738
M16
G05
G00X8.6557Y-2.6138
M15
G01X8.6557Y-2.8238
M16
G05
G00X8.6557Y-3.3638
M15
G01X8.6557Y-3.5738
M16
G05
G00X8.6557Y-4.1138
M15
G01X8.6557Y-4.3238
M16
G05
G00X8.6557Y-1.8638
M15
G01X8.6882Y-1.8638
M16
G05
G00X8.6557Y-2.0738
M15
G01X8.6882Y-2.0738
M16
G05
G00X8.6557Y-2.6138
M15
G01X8.6882Y-2.6138
M16
G05
G00X8.6557Y-2.8238
M15
G01X8.6882Y-2.8238
M16
G05
G00X8.6557Y-3.3638
M15
G01X8.6882Y-3.3638
M16
G05
G00X8.6557Y-3.5738
M15
G01X8.6882Y-3.5738
M16
G05
G00X8.6557Y-4.1138
M15
G01X8.6882Y-4.1138
M16
G05
G00X8.6557Y-4.3238
M15
G01X8.6882Y-4.3238
M16
G05
G00X8.6882Y-1.7038
M15
G01X8.6882Y-1.8638
M16
G05
G00X8.6882Y-2.0738
M15
G01X8.6882Y-2.2338
M16
G05
G00X8.6882Y-2.4538
M15
G01X8.6882Y-2.6138
M16
G05
G00X8.6882Y-2.8238
M15
G01X8.6882Y-2.9838
M16
G05
G00X8.6882Y-3.2038
M15
G01X8.6882Y-3.3638
M16
G05
G00X8.6882Y-3.5738
M15
G01X8.6882Y-3.7338
M16
G05
G00X8.6882Y-3.9538
M15
G01X8.6882Y-4.1138
M16
G05
G00X8.6882Y-4.3238
M15
G01X8.6882Y-4.4838
M16
G05
G00X8.8432Y-1.7038
M15
G01X8.8432Y-1.8638
M16
G05
G00X8.8432Y-2.0738
M15
G01X8.8432Y-2.2338
M16
G05
G00X8.8432Y-2.4538
M15
G01X8.8432Y-2.6138
M16
G05
G00X8.8432Y-2.8238
M15
G01X8.8432Y-2.9838
M16
G05
G00X8.8432Y-3.2038
M15
G01X8.8432Y-3.3638
M16
G05
G00X8.8432Y-3.5738
M15
G01X8.8432Y-3.7338
M16
G05
G00X8.8432Y-3.9538
M15
G01X8.8432Y-4.1138
M16
G05
G00X8.8432Y-4.3238
M15
G01X8.8432Y-4.4838
M16
G05
G00X8.8432Y-1.8638
M15
G01X8.8757Y-1.8638
M16
G05
G00X8.8432Y-2.0738
M15
G01X8.8757Y-2.0738
M16
G05
G00X8.8432Y-2.6138
M15
G01X8.8757Y-2.6138
M16
G05
G00X8.8432Y-2.8238
M15
G01X8.8757Y-2.8238
M16
G05
G00X8.8432Y-3.3638
M15
G01X8.8757Y-3.3638
M16
G05
G00X8.8432Y-3.5738
M15
G01X8.8757Y-3.5738
M16
G05
G00X8.8432Y-4.1138
M15
G01X8.8757Y-4.1138
M16
G05
G00X8.8432Y-4.3238
M15
G01X8.8757Y-4.3238
M16
G05
G00X8.8757Y-1.8638
M15
G01X8.8757Y-2.0738
M16
G05
G00X8.8757Y-2.6138
M15
G01X8.8757Y-2.8238
M16
G05
G00X8.8757Y-3.3638
M15
G01X8.8757Y-3.5738
M16
G05
G00X8.8757Y-4.1138
M15
G01X8.8757Y-4.3238
M16
G05
G00X8.8437Y-1.7038
M15
G01X9.4377Y-1.7038
M16
G05
G00X8.8437Y-2.2338
M15
G01X9.4377Y-2.2338
M16
G05
G00X8.8437Y-2.4538
M15
G01X9.4377Y-2.4538
M16
G05
G00X8.8437Y-2.9838
M15
G01X9.4377Y-2.9838
M16
G05
G00X8.8437Y-3.2038
M15
G01X9.4377Y-3.2038
M16
G05
G00X8.8437Y-3.7338
M15
G01X9.4377Y-3.7338
M16
G05
G00X8.8437Y-3.9538
M15
G01X9.4377Y-3.9538
M16
G05
G00X8.8437Y-4.4838
M15
G01X9.4377Y-4.4838
M16
G05
G00X9.4057Y-1.8638
M15
G01X9.4057Y-2.0738
M16
G05
G00X9.4057Y-2.6138
M15
G01X9.4057Y-2.8238
M16
G05
G00X9.4057Y-3.3638
M15
G01X9.4057Y-3.5738
M16
G05
G00X9.4057Y-4.1138
M15
G01X9.4057Y-4.3238
M16
G05
G00X9.4057Y-1.8638
M15
G01X9.4382Y-1.8638
M16
G05
G00X9.4057Y-2.0738
M15
G01X9.4382Y-2.0738
M16
G05
G00X9.4057Y-2.6138
M15
G01X9.4382Y-2.6138
M16
G05
G00X9.4057Y-2.8238
M15
G01X9.4382Y-2.8238
M16
G05
G00X9.4057Y-3.3638
M15
G01X9.4382Y-3.3638
M16
G05
G00X9.4057Y-3.5738
M15
G01X9.4382Y-3.5738
M16
G05
G00X9.4057Y-4.1138
M15
G01X9.4382Y-4.1138
M16
G05
G00X9.4057Y-4.3238
M15
G01X9.4382Y-4.3238
M16
G05
G00X9.4382Y-1.7038
M15
G01X9.4382Y-1.8638
M16
G05
G00X9.4382Y-2.0738
M15
G01X9.4382Y-2.2338
M16
G05
G00X9.4382Y-2.4538
M15
G01X9.4382Y-2.6138
M16
G05
G00X9.4382Y-2.8238
M15
G01X9.4382Y-2.9838
M16
G05
G00X9.4382Y-3.2038
M15
G01X9.4382Y-3.3638
M16
G05
G00X9.4382Y-3.5738
M15
G01X9.4382Y-3.7338
M16
G05
G00X9.4382Y-3.9538
M15
G01X9.4382Y-4.1138
M16
G05
G00X9.4382Y-4.3238
M15
G01X9.4382Y-4.4838
M16
G05
G00X9.5932Y-1.7038
M15
G01X9.5932Y-1.8638
M16
G05
G00X9.5932Y-2.0738
M15
G01X9.5932Y-2.2338
M16
G05
G00X9.5932Y-2.4538
M15
G01X9.5932Y-2.6138
M16
G05
G00X9.5932Y-2.8238
M15
G01X9.5932Y-2.9838
M16
G05
G00X9.5932Y-3.2038
M15
G01X9.5932Y-3.3638
M16
G05
G00X9.5932Y-3.5738
M15
G01X9.5932Y-3.7338
M16
G05
G00X9.5932Y-3.9538
M15
G01X9.5932Y-4.1138
M16
G05
G00X9.5932Y-4.3238
M15
G01X9.5932Y-4.4838
M16
G05
G00X9.5932Y-1.8638
M15
G01X9.6257Y-1.8638
M16
G05
G00X9.5932Y-2.0738
M15
G01X9.6257Y-2.0738
M16
G05
G00X9.5932Y-2.6138
M15
G01X9.6257Y-2.6138
M16
G05
G00X9.5932Y-2.8238
M15
G01X9.6257Y-2.8238
M16
G05
G00X9.5932Y-3.3638
M15
G01X9.6257Y-3.3638
M16
G05
G00X9.5932Y-3.5738
M15
G01X9.6257Y-3.5738
M16
G05
G00X9.5932Y-4.1138
M15
G01X9.6257Y-4.1138
M16
G05
G00X9.5932Y-4.3238
M15
G01X9.6257Y-4.3238
M16
G05
G00X9.6257Y-1.8638
M15
G01X9.6257Y-2.0738
M16
G05
G00X9.6257Y-2.6138
M15
G01X9.6257Y-2.8238
M16
G05
G00X9.6257Y-3.3638
M15
G01X9.6257Y-3.5738
M16
G05
G00X9.6257Y-4.1138
M15
G01X9.6257Y-4.3238
M16
G05
G00X9.5937Y-1.7038
M15
G01X10.1877Y-1.7038
M16
G05
G00X9.5937Y-2.2338
M15
G01X10.1877Y-2.2338
M16
G05
G00X9.5937Y-2.4538
M15
G01X10.1877Y-2.4538
M16
G05
G00X9.5937Y-2.9838
M15
G01X10.1877Y-2.9838
M16
G05
G00X9.5937Y-3.2038
M15
G01X10.1877Y-3.2038
M16
G05
G00X9.5937Y-3.7338
M15
G01X10.1877Y-3.7338
M16
G05
G00X9.5937Y-3.9538
M15
G01X10.1877Y-3.9538
M16
G05
G00X9.5937Y-4.4838
M15
G01X10.1877Y-4.4838
M16
G05
G00X10.1557Y-1.8638
M15
G01X10.1557Y-2.0738
M16
G05
G00X10.1557Y-2.6138
M15
G01X10.1557Y-2.8238
M16
G05
G00X10.1557Y-3.3638
M15
G01X10.1557Y-3.5738
M16
G05
G00X10.1557Y-4.1138
M15
G01X10.1557Y-4.3238
M16
G05
G00X10.1557Y-1.8638
M15
G01X10.1882Y-1.8638
M16
G05
G00X10.1557Y-2.0738
M15
G01X10.1882Y-2.0738
M16
G05
G00X10.1557Y-2.6138
M15
G01X10.1882Y-2.6138
M16
G05
G00X10.1557Y-2.8238
M15
G01X10.1882Y-2.8238
M16
G05
G00X10.1557Y-3.3638
M15
G01X10.1882Y-3.3638
M16
G05
G00X10.1557Y-3.5738
M15
G01X10.1882Y-3.5738
M16
G05
G00X10.1557Y-4.1138
M15
G01X10.1882Y-4.1138
M16
G05
G00X10.1557Y-4.3238
M15
G01X10.1882Y-4.3238
M16
G05
G00X10.1882Y-1.7038
M15
G01X10.1882Y-1.8638
M16
G05
G00X10.1882Y-2.0738
M15
G01X10.1882Y-2.2338
M16
G05
G00X10.1882Y-2.4538
M15
G01X10.1882Y-2.6138
M16
G05
G00X10.1882Y-2.8238
M15
G01X10.1882Y-2.9838
M16
G05
G00X10.1882Y-3.2038
M15
G01X10.1882Y-3.3638
M16
G05
G00X10.1882Y-3.5738
M15
G01X10.1882Y-3.7338
M16
G05
G00X10.1882Y-3.9538
M15
G01X10.1882Y-4.1138
M16
G05
G00X10.1882Y-4.3238
M15
G01X10.1882Y-4.4838
M16
G05
G00X10.3432Y-1.7038
M15
G01X10.3432Y-1.8638
M16
G05
G00X10.3432Y-2.0738
M15
G01X10.3432Y-2.2338
M16
G05
G00X10.3432Y-2.4538
M15
G01X10.3432Y-2.6138
M16
G05
G00X10.3432Y-2.8238
M15
G01X10.3432Y-2.9838
M16
G05
G00X10.3432Y-3.2038
M15
G01X10.3432Y-3.3638
M16
G05
G00X10.3432Y-3.5738
M15
G01X10.3432Y-3.7338
M16
G05
G00X10.3432Y-3.9538
M15
G01X10.3432Y-4.1138
M16
G05
G00X10.3432Y-4.3238
M15
G01X10.3432Y-4.4838
M16
G05
G00X10.3432Y-1.8638
M15
G01X10.3757Y-1.8638
M16
G05
G00X10.3432Y-2.0738
M15
G01X10.3757Y-2.0738
M16
G05
G00X10.3432Y-2.6138
M15
G01X10.3757Y-2.6138
M16
G05
G00X10.3432Y-2.8238
M15
G01X10.3757Y-2.8238
M16
G05
G00X10.3432Y-3.3638
M15
G01X10.3757Y-3.3638
M16
G05
G00X10.3432Y-3.5738
M15
G01X10.3757Y-3.5738
M16
G05
G00X10.3432Y-4.1138
M15
G01X10.3757Y-4.1138
M16
G05
G00X10.3432Y-4.3238
M15
G01X10.3757Y-4.3238
M16
G05
G00X10.3757Y-1.8638
M15
G01X10.3757Y-2.0738
M16
G05
G00X10.3757Y-2.6138
M15
G01X10.3757Y-2.8238
M16
G05
G00X10.3757Y-3.3638
M15
G01X10.3757Y-3.5738
M16
G05
G00X10.3757Y-4.1138
M15
G01X10.3757Y-4.3238
M16
G05
G00X10.3437Y-1.7038
M15
G01X10.9377Y-1.7038
M16
G05
G00X10.3437Y-2.2338
M15
G01X10.9377Y-2.2338
M16
G05
G00X10.3437Y-2.4538
M15
G01X10.9377Y-2.4538
M16
G05
G00X10.3437Y-2.9838
M15
G01X10.9377Y-2.9838
M16
G05
G00X10.3437Y-3.2038
M15
G01X10.9377Y-3.2038
M16
G05
G00X10.3437Y-3.7338
M15
G01X10.9377Y-3.7338
M16
G05
G00X10.3437Y-3.9538
M15
G01X10.9377Y-3.9538
M16
G05
G00X10.3437Y-4.4838
M15
G01X10.9377Y-4.4838
M16
G05
G00X10.9057Y-1.8638
M15
G01X10.9057Y-2.0738
M16
G05
G00X10.9057Y-2.6138
M15
G01X10.9057Y-2.8238
M16
G05
G00X10.9057Y-3.3638
M15
G01X10.9057Y-3.5738
M16
G05
G00X10.9057Y-4.1138
M15
G01X10.9057Y-4.3238
M16
G05
G00X10.9057Y-1.8638
M15
G01X10.9382Y-1.8638
M16
G05
G00X10.9057Y-2.0738
M15
G01X10.9382Y-2.0738
M16
G05
G00X10.9057Y-2.6138
M15
G01X10.9382Y-2.6138
M16
G05
G00X10.9057Y-2.8238
M15
G01X10.9382Y-2.8238
M16
G05
G00X10.9057Y-3.3638
M15
G01X10.9382Y-3.3638
M16
G05
G00X10.9057Y-3.5738
M15
G01X10.9382Y-3.5738
M16
G05
G00X10.9057Y-4.1138
M15
G01X10.9382Y-4.1138
M16
G05
G00X10.9057Y-4.3238
M15
G01X10.9382Y-4.3238
M16
G05
G00X10.9382Y-1.7038
M15
G01X10.9382Y-1.8638
M16
G05
G00X10.9382Y-2.0738
M15
G01X10.9382Y-2.2338
M16
G05
G00X10.9382Y-2.4538
M15
G01X10.9382Y-2.6138
M16
G05
G00X10.9382Y-2.8238
M15
G01X10.9382Y-2.9838
M16
G05
G00X10.9382Y-3.2038
M15
G01X10.9382Y-3.3638
M16
G05
G00X10.9382Y-3.5738
M15
G01X10.9382Y-3.7338
M16
G05
G00X10.9382Y-3.9538
M15
G01X10.9382Y-4.1138
M16
G05
G00X10.9382Y-4.3238
M15
G01X10.9382Y-4.4838
M16
G05
G00X11.0932Y-1.7038
M15
G01X11.0932Y-1.8638
M16
G05
G00X11.0932Y-2.0738
M15
G01X11.0932Y-2.2338
M16
G05
G00X11.0932Y-2.4538
M15
G01X11.0932Y-2.6138
M16
G05
G00X11.0932Y-2.8238
M15
G01X11.0932Y-2.9838
M16
G05
G00X11.0932Y-3.2038
M15
G01X11.0932Y-3.3638
M16
G05
G00X11.0932Y-3.5738
M15
G01X11.0932Y-3.7338
M16
G05
G00X11.0932Y-3.9538
M15
G01X11.0932Y-4.1138
M16
G05
G00X11.0932Y-4.3238
M15
G01X11.0932Y-4.4838
M16
G05
G00X11.0932Y-1.8638
M15
G01X11.1257Y-1.8638
M16
G05
G00X11.0932Y-2.0738
M15
G01X11.1257Y-2.0738
M16
G05
G00X11.0932Y-2.6138
M15
G01X11.1257Y-2.6138
M16
G05
G00X11.0932Y-2.8238
M15
G01X11.1257Y-2.8238
M16
G05
G00X11.0932Y-3.3638
M15
G01X11.1257Y-3.3638
M16
G05
G00X11.0932Y-3.5738
M15
G01X11.1257Y-3.5738
M16
G05
G00X11.0932Y-4.1138
M15
G01X11.1257Y-4.1138
M16
G05
G00X11.0932Y-4.3238
M15
G01X11.1257Y-4.3238
M16
G05
G00X11.1257Y-1.8638
M15
G01X11.1257Y-2.0738
M16
G05
G00X11.1257Y-2.6138
M15
G01X11.1257Y-2.8238
M16
G05
G00X11.1257Y-3.3638
M15
G01X11.1257Y-3.5738
M16
G05
G00X11.1257Y-4.1138
M15
G01X11.1257Y-4.3238
M16
G05
G00X11.0937Y-1.7038
M15
G01X11.6877Y-1.7038
M16
G05
G00X11.0937Y-2.2338
M15
G01X11.6877Y-2.2338
M16
G05
G00X11.0937Y-2.4538
M15
G01X11.6877Y-2.4538
M16
G05
G00X11.0937Y-2.9838
M15
G01X11.6877Y-2.9838
M16
G05
G00X11.0937Y-3.2038
M15
G01X11.6877Y-3.2038
M16
G05
G00X11.0937Y-3.7338
M15
G01X11.6877Y-3.7338
M16
G05
G00X11.0937Y-3.9538
M15
G01X11.6877Y-3.9538
M16
G05
G00X11.0937Y-4.4838
M15
G01X11.6877Y-4.4838
M16
G05
G00X11.6557Y-1.8638
M15
G01X11.6557Y-2.0738
M16
G05
G00X11.6557Y-2.6138
M15
G01X11.6557Y-2.8238
M16
G05
G00X11.6557Y-3.3638
M15
G01X11.6557Y-3.5738
M16
G05
G00X11.6557Y-4.1138
M15
G01X11.6557Y-4.3238
M16
G05
G00X11.6557Y-1.8638
M15
G01X11.6882Y-1.8638
M16
G05
G00X11.6557Y-2.0738
M15
G01X11.6882Y-2.0738
M16
G05
G00X11.6557Y-2.6138
M15
G01X11.6882Y-2.6138
M16
G05
G00X11.6557Y-2.8238
M15
G01X11.6882Y-2.8238
M16
G05
G00X11.6557Y-3.3638
M15
G01X11.6882Y-3.3638
M16
G05
G00X11.6557Y-3.5738
M15
G01X11.6882Y-3.5738
M16
G05
G00X11.6557Y-4.1138
M15
G01X11.6882Y-4.1138
M16
G05
G00X11.6557Y-4.3238
M15
G01X11.6882Y-4.3238
M16
G05
G00X11.6882Y-1.7038
M15
G01X11.6882Y-1.8638
M16
G05
G00X11.6882Y-2.0738
M15
G01X11.6882Y-2.2338
M16
G05
G00X11.6882Y-2.4538
M15
G01X11.6882Y-2.6138
M16
G05
G00X11.6882Y-2.8238
M15
G01X11.6882Y-2.9838
M16
G05
G00X11.6882Y-3.2038
M15
G01X11.6882Y-3.3638
M16
G05
G00X11.6882Y-3.5738
M15
G01X11.6882Y-3.7338
M16
G05
G00X11.6882Y-3.9538
M15
G01X11.6882Y-4.1138
M16
G05
G00X11.6882Y-4.3238
M15
G01X11.6882Y-4.4838
M16
G05
G00X11.8432Y-1.7038
M15
G01X11.8432Y-1.8638
M16
G05
G00X11.8432Y-2.0738
M15
G01X11.8432Y-2.2338
M16
G05
G00X11.8432Y-2.4538
M15
G01X11.8432Y-2.6138
M16
G05
G00X11.8432Y-2.8238
M15
G01X11.8432Y-2.9838
M16
G05
G00X11.8432Y-3.2038
M15
G01X11.8432Y-3.3638
M16
G05
G00X11.8432Y-3.5738
M15
G01X11.8432Y-3.7338
M16
G05
G00X11.8432Y-3.9538
M15
G01X11.8432Y-4.1138
M16
G05
G00X11.8432Y-4.3238
M15
G01X11.8432Y-4.4838
M16
G05
G00X11.8432Y-1.8638
M15
G01X11.8757Y-1.8638
M16
G05
G00X11.8432Y-2.0738
M15
G01X11.8757Y-2.0738
M16
G05
G00X11.8432Y-2.6138
M15
G01X11.8757Y-2.6138
M16
G05
G00X11.8432Y-2.8238
M15
G01X11.8757Y-2.8238
M16
G05
G00X11.8432Y-3.3638
M15
G01X11.8757Y-3.3638
M16
G05
G00X11.8432Y-3.5738
M15
G01X11.8757Y-3.5738
M16
G05
G00X11.8432Y-4.1138
M15
G01X11.8757Y-4.1138
M16
G05
G00X11.8432Y-4.3238
M15
G01X11.8757Y-4.3238
M16
G05
G00X11.8757Y-1.8638
M15
G01X11.8757Y-2.0738
M16
G05
G00X11.8757Y-2.6138
M15
G01X11.8757Y-2.8238
M16
G05
G00X11.8757Y-3.3638
M15
G01X11.8757Y-3.5738
M16
G05
G00X11.8757Y-4.1138
M15
G01X11.8757Y-4.3238
M16
G05
G00X11.8437Y-1.7038
M15
G01X12.4377Y-1.7038
M16
G05
G00X11.8437Y-2.2338
M15
G01X12.4377Y-2.2338
M16
G05
G00X11.8437Y-2.4538
M15
G01X12.4377Y-2.4538
M16
G05
G00X11.8437Y-2.9838
M15
G01X12.4377Y-2.9838
M16
G05
G00X11.8437Y-3.2038
M15
G01X12.4377Y-3.2038
M16
G05
G00X11.8437Y-3.7338
M15
G01X12.4377Y-3.7338
M16
G05
G00X11.8437Y-3.9538
M15
G01X12.4377Y-3.9538
M16
G05
G00X11.8437Y-4.4838
M15
G01X12.4377Y-4.4838
M16
G05
G00X12.4057Y-1.8638
M15
G01X12.4057Y-2.0738
M16
G05
G00X12.4057Y-2.6138
M15
G01X12.4057Y-2.8238
M16
G05
G00X12.4057Y-3.3638
M15
G01X12.4057Y-3.5738
M16
G05
G00X12.4057Y-4.1138
M15
G01X12.4057Y-4.3238
M16
G05
G00X12.4057Y-1.8638
M15
G01X12.4382Y-1.8638
M16
G05
G00X12.4057Y-2.0738
M15
G01X12.4382Y-2.0738
M16
G05
G00X12.4057Y-2.6138
M15
G01X12.4382Y-2.6138
M16
G05
G00X12.4057Y-2.8238
M15
G01X12.4382Y-2.8238
M16
G05
G00X12.4057Y-3.3638
M15
G01X12.4382Y-3.3638
M16
G05
G00X12.4057Y-3.5738
M15
G01X12.4382Y-3.5738
M16
G05
G00X12.4057Y-4.1138
M15
G01X12.4382Y-4.1138
M16
G05
G00X12.4057Y-4.3238
M15
G01X12.4382Y-4.3238
M16
G05
G00X12.4382Y-1.7038
M15
G01X12.4382Y-1.8638
M16
G05
G00X12.4382Y-2.0738
M15
G01X12.4382Y-2.2338
M16
G05
G00X12.4382Y-2.4538
M15
G01X12.4382Y-2.6138
M16
G05
G00X12.4382Y-2.8238
M15
G01X12.4382Y-2.9838
M16
G05
G00X12.4382Y-3.2038
M15
G01X12.4382Y-3.3638
M16
G05
G00X12.4382Y-3.5738
M15
G01X12.4382Y-3.7338
M16
G05
G00X12.4382Y-3.9538
M15
G01X12.4382Y-4.1138
M16
G05
G00X12.4382Y-4.3238
M15
G01X12.4382Y-4.4838
M16
G05
G00X12.5932Y-1.7038
M15
G01X12.5932Y-1.8638
M16
G05
G00X12.5932Y-2.0738
M15
G01X12.5932Y-2.2338
M16
G05
G00X12.5932Y-2.4538
M15
G01X12.5932Y-2.6138
M16
G05
G00X12.5932Y-2.8238
M15
G01X12.5932Y-2.9838
M16
G05
G00X12.5932Y-3.2038
M15
G01X12.5932Y-3.3638
M16
G05
G00X12.5932Y-3.5738
M15
G01X12.5932Y-3.7338
M16
G05
G00X12.5932Y-3.9538
M15
G01X12.5932Y-4.1138
M16
G05
G00X12.5932Y-4.3238
M15
G01X12.5932Y-4.4838
M16
G05
G00X12.5932Y-1.8638
M15
G01X12.6257Y-1.8638
M16
G05
G00X12.5932Y-2.0738
M15
G01X12.6257Y-2.0738
M16
G05
G00X12.5932Y-2.6138
M15
G01X12.6257Y-2.6138
M16
G05
G00X12.5932Y-2.8238
M15
G01X12.6257Y-2.8238
M16
G05
G00X12.5932Y-3.3638
M15
G01X12.6257Y-3.3638
M16
G05
G00X12.5932Y-3.5738
M15
G01X12.6257Y-3.5738
M16
G05
G00X12.5932Y-4.1138
M15
G01X12.6257Y-4.1138
M16
G05
G00X12.5932Y-4.3238
M15
G01X12.6257Y-4.3238
M16
G05
G00X12.6257Y-1.8638
M15
G01X12.6257Y-2.0738
M16
G05
G00X12.6257Y-2.6138
M15
G01X12.6257Y-2.8238
M16
G05
G00X12.6257Y-3.3638
M15
G01X12.6257Y-3.5738
M16
G05
G00X12.6257Y-4.1138
M15
G01X12.6257Y-4.3238
M16
G05
G00X12.5937Y-1.7038
M15
G01X13.1877Y-1.7038
M16
G05
G00X12.5937Y-2.2338
M15
G01X13.1877Y-2.2338
M16
G05
G00X12.5937Y-2.4538
M15
G01X13.1877Y-2.4538
M16
G05
G00X12.5937Y-2.9838
M15
G01X13.1877Y-2.9838
M16
G05
G00X12.5937Y-3.2038
M15
G01X13.1877Y-3.2038
M16
G05
G00X12.5937Y-3.7338
M15
G01X13.1877Y-3.7338
M16
G05
G00X12.5937Y-3.9538
M15
G01X13.1877Y-3.9538
M16
G05
G00X12.5937Y-4.4838
M15
G01X13.1877Y-4.4838
M16
G05
G00X13.1557Y-1.8638
M15
G01X13.1557Y-2.0738
M16
G05
G00X13.1557Y-2.6138
M15
G01X13.1557Y-2.8238
M16
G05
G00X13.1557Y-3.3638
M15
G01X13.1557Y-3.5738
M16
G05
G00X13.1557Y-4.1138
M15
G01X13.1557Y-4.3238
M16
G05
G00X13.1557Y-1.8638
M15
G01X13.1882Y-1.8638
M16
G05
G00X13.1557Y-2.0738
M15
G01X13.1882Y-2.0738
M16
G05
G00X13.1557Y-2.6138
M15
G01X13.1882Y-2.6138
M16
G05
G00X13.1557Y-2.8238
M15
G01X13.1882Y-2.8238
M16
G05
G00X13.1557Y-3.3638
M15
G01X13.1882Y-3.3638
M16
G05
G00X13.1557Y-3.5738
M15
G01X13.1882Y-3.5738
M16
G05
G00X13.1557Y-4.1138
M15
G01X13.1882Y-4.1138
M16
G05
G00X13.1557Y-4.3238
M15
G01X13.1882Y-4.3238
M16
G05
G00X13.1882Y-1.7038
M15
G01X13.1882Y-1.8638
M16
G05
G00X13.1882Y-2.0738
M15
G01X13.1882Y-2.2338
M16
G05
G00X13.1882Y-2.4538
M15
G01X13.1882Y-2.6138
M16
G05
G00X13.1882Y-2.8238
M15
G01X13.1882Y-2.9838
M16
G05
G00X13.1882Y-3.2038
M15
G01X13.1882Y-3.3638
M16
G05
G00X13.1882Y-3.5738
M15
G01X13.1882Y-3.7338
M16
G05
G00X13.1882Y-3.9538
M15
G01X13.1882Y-4.1138
M16
G05
G00X13.1882Y-4.3238
M15
G01X13.1882Y-4.4838
M16
G05
G00X13.3432Y-1.7038
M15
G01X13.3432Y-1.8638
M16
G05
G00X13.3432Y-2.0738
M15
G01X13.3432Y-2.2338
M16
G05
G00X13.3432Y-2.4538
M15
G01X13.3432Y-2.6138
M16
G05
G00X13.3432Y-2.8238
M15
G01X13.3432Y-2.9838
M16
G05
G00X13.3432Y-3.2038
M15
G01X13.3432Y-3.3638
M16
G05
G00X13.3432Y-3.5738
M15
G01X13.3432Y-3.7338
M16
G05
G00X13.3432Y-3.9539
M15
G01X13.3432Y-4.1139
M16
G05
G00X13.3432Y-4.3239
M15
G01X13.3432Y-4.4839
M16
G05
G00X13.3432Y-1.8638
M15
G01X13.3757Y-1.8638
M16
G05
G00X13.3432Y-2.0738
M15
G01X13.3757Y-2.0738
M16
G05
G00X13.3432Y-2.6138
M15
G01X13.3757Y-2.6138
M16
G05
G00X13.3432Y-2.8238
M15
G01X13.3757Y-2.8238
M16
G05
G00X13.3432Y-3.3638
M15
G01X13.3757Y-3.3638
M16
G05
G00X13.3432Y-3.5738
M15
G01X13.3757Y-3.5738
M16
G05
G00X13.3432Y-4.1139
M15
G01X13.3757Y-4.1139
M16
G05
G00X13.3432Y-4.3239
M15
G01X13.3757Y-4.3239
M16
G05
G00X13.3757Y-1.8638
M15
G01X13.3757Y-2.0738
M16
G05
G00X13.3757Y-2.6138
M15
G01X13.3757Y-2.8238
M16
G05
G00X13.3757Y-3.3638
M15
G01X13.3757Y-3.5738
M16
G05
G00X13.3757Y-4.1139
M15
G01X13.3757Y-4.3239
M16
G05
G00X13.3437Y-1.7038
M15
G01X13.9377Y-1.7038
M16
G05
G00X13.3437Y-2.2338
M15
G01X13.9377Y-2.2338
M16
G05
G00X13.3437Y-2.4538
M15
G01X13.9377Y-2.4538
M16
G05
G00X13.3437Y-2.9838
M15
G01X13.9377Y-2.9838
M16
G05
G00X13.3437Y-3.2038
M15
G01X13.9377Y-3.2038
M16
G05
G00X13.3437Y-3.7338
M15
G01X13.9377Y-3.7338
M16
G05
G00X13.3437Y-3.9539
M15
G01X13.9377Y-3.9539
M16
G05
G00X13.3437Y-4.4839
M15
G01X13.9377Y-4.4839
M16
G05
G00X13.9057Y-1.8638
M15
G01X13.9057Y-2.0738
M16
G05
G00X13.9057Y-2.6138
M15
G01X13.9057Y-2.8238
M16
G05
G00X13.9057Y-3.3638
M15
G01X13.9057Y-3.5738
M16
G05
G00X13.9057Y-4.1139
M15
G01X13.9057Y-4.3239
M16
G05
G00X13.9057Y-1.8638
M15
G01X13.9382Y-1.8638
M16
G05
G00X13.9057Y-2.0738
M15
G01X13.9382Y-2.0738
M16
G05
G00X13.9057Y-2.6138
M15
G01X13.9382Y-2.6138
M16
G05
G00X13.9057Y-2.8238
M15
G01X13.9382Y-2.8238
M16
G05
G00X13.9057Y-3.3638
M15
G01X13.9382Y-3.3638
M16
G05
G00X13.9057Y-3.5738
M15
G01X13.9382Y-3.5738
M16
G05
G00X13.9057Y-4.1139
M15
G01X13.9382Y-4.1139
M16
G05
G00X13.9057Y-4.3239
M15
G01X13.9382Y-4.3239
M16
G05
G00X13.9382Y-1.7038
M15
G01X13.9382Y-1.8638
M16
G05
G00X13.9382Y-2.0738
M15
G01X13.9382Y-2.2338
M16
G05
G00X13.9382Y-2.4538
M15
G01X13.9382Y-2.6138
M16
G05
G00X13.9382Y-2.8238
M15
G01X13.9382Y-2.9838
M16
G05
G00X13.9382Y-3.2038
M15
G01X13.9382Y-3.3638
M16
G05
G00X13.9382Y-3.5738
M15
G01X13.9382Y-3.7338
M16
G05
G00X13.9382Y-3.9539
M15
G01X13.9382Y-4.1139
M16
G05
G00X13.9382Y-4.3239
M15
G01X13.9382Y-4.4839
M16
G05
G00X14.0932Y-1.7038
M15
G01X14.0932Y-1.8638
M16
G05
G00X14.0932Y-2.0738
M15
G01X14.0932Y-2.2338
M16
G05
G00X14.0932Y-2.4538
M15
G01X14.0932Y-2.6138
M16
G05
G00X14.0932Y-2.8238
M15
G01X14.0932Y-2.9838
M16
G05
G00X14.0932Y-3.2038
M15
G01X14.0932Y-3.3638
M16
G05
G00X14.0932Y-3.5738
M15
G01X14.0932Y-3.7338
M16
G05
G00X14.0932Y-3.9538
M15
G01X14.0932Y-4.1138
M16
G05
G00X14.0932Y-4.3238
M15
G01X14.0932Y-4.4838
M16
G05
G00X14.0932Y-1.8638
M15
G01X14.1257Y-1.8638
M16
G05
G00X14.0932Y-2.0738
M15
G01X14.1257Y-2.0738
M16
G05
G00X14.0932Y-2.6138
M15
G01X14.1257Y-2.6138
M16
G05
G00X14.0932Y-2.8238
M15
G01X14.1257Y-2.8238
M16
G05
G00X14.0932Y-3.3638
M15
G01X14.1257Y-3.3638
M16
G05
G00X14.0932Y-3.5738
M15
G01X14.1257Y-3.5738
M16
G05
G00X14.0932Y-4.1138
M15
G01X14.1257Y-4.1138
M16
G05
G00X14.0932Y-4.3238
M15
G01X14.1257Y-4.3238
M16
G05
G00X14.1257Y-1.8638
M15
G01X14.1257Y-2.0738
M16
G05
G00X14.1257Y-2.6138
M15
G01X14.1257Y-2.8238
M16
G05
G00X14.1257Y-3.3638
M15
G01X14.1257Y-3.5738
M16
G05
G00X14.1257Y-4.1138
M15
G01X14.1257Y-4.3238
M16
G05
G00X14.0937Y-1.7038
M15
G01X14.6877Y-1.7038
M16
G05
G00X14.0937Y-2.2338
M15
G01X14.6877Y-2.2338
M16
G05
G00X14.0937Y-2.4538
M15
G01X14.6877Y-2.4538
M16
G05
G00X14.0937Y-2.9838
M15
G01X14.6877Y-2.9838
M16
G05
G00X14.0937Y-3.2038
M15
G01X14.6877Y-3.2038
M16
G05
G00X14.0937Y-3.7338
M15
G01X14.6877Y-3.7338
M16
G05
G00X14.0937Y-3.9538
M15
G01X14.6877Y-3.9538
M16
G05
G00X14.0937Y-4.4838
M15
G01X14.6877Y-4.4838
M16
G05
G00X14.6557Y-1.8638
M15
G01X14.6557Y-2.0738
M16
G05
G00X14.6557Y-2.6138
M15
G01X14.6557Y-2.8238
M16
G05
G00X14.6557Y-3.3638
M15
G01X14.6557Y-3.5738
M16
G05
G00X14.6557Y-4.1138
M15
G01X14.6557Y-4.3238
M16
G05
G00X14.6557Y-1.8638
M15
G01X14.6882Y-1.8638
M16
G05
G00X14.6557Y-2.0738
M15
G01X14.6882Y-2.0738
M16
G05
G00X14.6557Y-2.6138
M15
G01X14.6882Y-2.6138
M16
G05
G00X14.6557Y-2.8238
M15
G01X14.6882Y-2.8238
M16
G05
G00X14.6557Y-3.3638
M15
G01X14.6882Y-3.3638
M16
G05
G00X14.6557Y-3.5738
M15
G01X14.6882Y-3.5738
M16
G05
G00X14.6557Y-4.1138
M15
G01X14.6882Y-4.1138
M16
G05
G00X14.6557Y-4.3238
M15
G01X14.6882Y-4.3238
M16
G05
G00X14.6882Y-1.7038
M15
G01X14.6882Y-1.8638
M16
G05
G00X14.6882Y-2.0738
M15
G01X14.6882Y-2.2338
M16
G05
G00X14.6882Y-2.4538
M15
G01X14.6882Y-2.6138
M16
G05
G00X14.6882Y-2.8238
M15
G01X14.6882Y-2.9838
M16
G05
G00X14.6882Y-3.2038
M15
G01X14.6882Y-3.3638
M16
G05
G00X14.6882Y-3.5738
M15
G01X14.6882Y-3.7338
M16
G05
G00X14.6882Y-3.9538
M15
G01X14.6882Y-4.1138
M16
G05
G00X14.6882Y-4.3238
M15
G01X14.6882Y-4.4838
M16
G05
G00X15.0307Y-1.7038
M15
G01X15.0307Y-1.8638
M16
G05
G00X15.0307Y-2.0738
M15
G01X15.0307Y-2.2338
M16
G05
G00X15.0307Y-3.9538
M15
G01X15.0307Y-4.1138
M16
G05
G00X15.0307Y-4.3238
M15
G01X15.0307Y-4.4838
M16
G05
G00X15.0317Y-3.2038
M15
G01X15.0317Y-3.3638
M16
G05
G00X15.0317Y-3.5738
M15
G01X15.0317Y-3.7338
M16
G05
G00X15.0317Y-2.4533
M15
G01X15.0317Y-2.6133
M16
G05
G00X15.0317Y-2.8233
M15
G01X15.0317Y-2.9833
M16
G05
G00X15.0307Y-1.8638
M15
G01X15.0632Y-1.8638
M16
G05
G00X15.0307Y-2.0738
M15
G01X15.0632Y-2.0738
M16
G05
G00X15.0307Y-4.1138
M15
G01X15.0632Y-4.1138
M16
G05
G00X15.0307Y-4.3238
M15
G01X15.0632Y-4.3238
M16
G05
G00X15.0317Y-3.3638
M15
G01X15.0642Y-3.3638
M16
G05
G00X15.0317Y-3.5738
M15
G01X15.0642Y-3.5738
M16
G05
G00X15.0317Y-2.6133
M15
G01X15.0642Y-2.6133
M16
G05
G00X15.0317Y-2.8233
M15
G01X15.0642Y-2.8233
M16
G05
G00X15.0632Y-1.8638
M15
G01X15.0632Y-2.0738
M16
G05
G00X15.0632Y-4.1138
M15
G01X15.0632Y-4.3238
M16
G05
G00X15.0642Y-3.3638
M15
G01X15.0642Y-3.5738
M16
G05
G00X15.0642Y-2.6133
M15
G01X15.0642Y-2.8233
M16
G05
G00X15.0312Y-1.7038
M15
G01X15.6252Y-1.7038
M16
G05
G00X15.0312Y-2.2338
M15
G01X15.6252Y-2.2338
M16
G05
G00X15.0312Y-3.9538
M15
G01X15.6252Y-3.9538
M16
G05
G00X15.0312Y-4.4838
M15
G01X15.6252Y-4.4838
M16
G05
G00X15.0322Y-3.2038
M15
G01X15.6262Y-3.2038
M16
G05
G00X15.0322Y-3.7338
M15
G01X15.6262Y-3.7338
M16
G05
G00X15.0322Y-2.4533
M15
G01X15.6262Y-2.4533
M16
G05
G00X15.0322Y-2.9833
M15
G01X15.6262Y-2.9833
M16
G05
G00X15.5932Y-1.8638
M15
G01X15.5932Y-2.0738
M16
G05
G00X15.5932Y-4.1138
M15
G01X15.5932Y-4.3238
M16
G05
G00X15.5942Y-3.3638
M15
G01X15.5942Y-3.5738
M16
G05
G00X15.5942Y-2.6133
M15
G01X15.5942Y-2.8233
M16
G05
G00X15.5932Y-1.8638
M15
G01X15.6257Y-1.8638
M16
G05
G00X15.5932Y-2.0738
M15
G01X15.6257Y-2.0738
M16
G05
G00X15.5932Y-4.1138
M15
G01X15.6257Y-4.1138
M16
G05
G00X15.5932Y-4.3238
M15
G01X15.6257Y-4.3238
M16
G05
G00X15.5942Y-3.3638
M15
G01X15.6267Y-3.3638
M16
G05
G00X15.5942Y-3.5738
M15
G01X15.6267Y-3.5738
M16
G05
G00X15.5942Y-2.6133
M15
G01X15.6267Y-2.6133
M16
G05
G00X15.5942Y-2.8233
M15
G01X15.6267Y-2.8233
M16
G05
G00X15.6257Y-1.7038
M15
G01X15.6257Y-1.8638
M16
G05
G00X15.6257Y-2.0738
M15
G01X15.6257Y-2.2338
M16
G05
G00X15.6257Y-3.9538
M15
G01X15.6257Y-4.1138
M16
G05
G00X15.6257Y-4.3238
M15
G01X15.6257Y-4.4838
M16
G05
G00X15.6267Y-3.2038
M15
G01X15.6267Y-3.3638
M16
G05
G00X15.6267Y-3.5738
M15
G01X15.6267Y-3.7338
M16
G05
G00X15.6267Y-2.4533
M15
G01X15.6267Y-2.6133
M16
G05
G00X15.6267Y-2.8233
M15
G01X15.6267Y-2.9833
M16
G05
T3
G00X6.0657Y-1.6938
M15
G01X6.2157Y-1.6938
M16
G05
G00X6.0657Y-2.2438
M15
G01X6.2157Y-2.2438
M16
G05
G00X6.0657Y-2.4438
M15
G01X6.2157Y-2.4438
M16
G05
G00X6.0657Y-2.9938
M15
G01X6.2157Y-2.9938
M16
G05
G00X6.0657Y-3.1938
M15
G01X6.2157Y-3.1938
M16
G05
G00X6.0657Y-3.7438
M15
G01X6.2157Y-3.7438
M16
G05
G00X6.0657Y-3.9438
M15
G01X6.2157Y-3.9438
M16
G05
G00X6.0657Y-4.4938
M15
G01X6.2157Y-4.4938
M16
G05
G00X6.8157Y-1.6938
M15
G01X6.9657Y-1.6938
M16
G05
G00X6.8157Y-2.2438
M15
G01X6.9657Y-2.2438
M16
G05
G00X6.8157Y-2.4438
M15
G01X6.9657Y-2.4438
M16
G05
G00X6.8157Y-2.9938
M15
G01X6.9657Y-2.9938
M16
G05
G00X6.8157Y-3.1938
M15
G01X6.9657Y-3.1938
M16
G05
G00X6.8157Y-3.7438
M15
G01X6.9657Y-3.7438
M16
G05
G00X6.8157Y-3.9438
M15
G01X6.9657Y-3.9438
M16
G05
G00X6.8157Y-4.4938
M15
G01X6.9657Y-4.4938
M16
G05
G00X7.5657Y-1.6938
M15
G01X7.7157Y-1.6938
M16
G05
G00X7.5657Y-2.2438
M15
G01X7.7157Y-2.2438
M16
G05
G00X7.5657Y-2.4438
M15
G01X7.7157Y-2.4438
M16
G05
G00X7.5657Y-2.9938
M15
G01X7.7157Y-2.9938
M16
G05
G00X7.5657Y-3.1938
M15
G01X7.7157Y-3.1938
M16
G05
G00X7.5657Y-3.7438
M15
G01X7.7157Y-3.7438
M16
G05
G00X7.5657Y-3.9438
M15
G01X7.7157Y-3.9438
M16
G05
G00X7.5657Y-4.4938
M15
G01X7.7157Y-4.4938
M16
G05
G00X8.3157Y-1.6938
M15
G01X8.4657Y-1.6938
M16
G05
G00X8.3157Y-2.2438
M15
G01X8.4657Y-2.2438
M16
G05
G00X8.3157Y-2.4438
M15
G01X8.4657Y-2.4438
M16
G05
G00X8.3157Y-2.9938
M15
G01X8.4657Y-2.9938
M16
G05
G00X8.3157Y-3.1938
M15
G01X8.4657Y-3.1938
M16
G05
G00X8.3157Y-3.7438
M15
G01X8.4657Y-3.7438
M16
G05
G00X8.3157Y-3.9438
M15
G01X8.4657Y-3.9438
M16
G05
G00X8.3157Y-4.4938
M15
G01X8.4657Y-4.4938
M16
G05
G00X9.0657Y-1.6938
M15
G01X9.2157Y-1.6938
M16
G05
G00X9.0657Y-2.2438
M15
G01X9.2157Y-2.2438
M16
G05
G00X9.0657Y-2.4438
M15
G01X9.2157Y-2.4438
M16
G05
G00X9.0657Y-2.9938
M15
G01X9.2157Y-2.9938
M16
G05
G00X9.0657Y-3.1938
M15
G01X9.2157Y-3.1938
M16
G05
G00X9.0657Y-3.7438
M15
G01X9.2157Y-3.7438
M16
G05
G00X9.0657Y-3.9438
M15
G01X9.2157Y-3.9438
M16
G05
G00X9.0657Y-4.4938
M15
G01X9.2157Y-4.4938
M16
G05
G00X9.8157Y-1.6938
M15
G01X9.9657Y-1.6938
M16
G05
G00X9.8157Y-2.2438
M15
G01X9.9657Y-2.2438
M16
G05
G00X9.8157Y-2.4438
M15
G01X9.9657Y-2.4438
M16
G05
G00X9.8157Y-2.9938
M15
G01X9.9657Y-2.9938
M16
G05
G00X9.8157Y-3.1938
M15
G01X9.9657Y-3.1938
M16
G05
G00X9.8157Y-3.7438
M15
G01X9.9657Y-3.7438
M16
G05
G00X9.8157Y-3.9438
M15
G01X9.9657Y-3.9438
M16
G05
G00X9.8157Y-4.4938
M15
G01X9.9657Y-4.4938
M16
G05
G00X10.5657Y-1.6938
M15
G01X10.7157Y-1.6938
M16
G05
G00X10.5657Y-2.2438
M15
G01X10.7157Y-2.2438
M16
G05
G00X10.5657Y-2.4438
M15
G01X10.7157Y-2.4438
M16
G05
G00X10.5657Y-2.9938
M15
G01X10.7157Y-2.9938
M16
G05
G00X10.5657Y-3.1938
M15
G01X10.7157Y-3.1938
M16
G05
G00X10.5657Y-3.7438
M15
G01X10.7157Y-3.7438
M16
G05
G00X10.5657Y-3.9438
M15
G01X10.7157Y-3.9438
M16
G05
G00X10.5657Y-4.4938
M15
G01X10.7157Y-4.4938
M16
G05
G00X11.3157Y-1.6938
M15
G01X11.4657Y-1.6938
M16
G05
G00X11.3157Y-2.2438
M15
G01X11.4657Y-2.2438
M16
G05
G00X11.3157Y-2.4438
M15
G01X11.4657Y-2.4438
M16
G05
G00X11.3157Y-2.9938
M15
G01X11.4657Y-2.9938
M16
G05
G00X11.3157Y-3.1938
M15
G01X11.4657Y-3.1938
M16
G05
G00X11.3157Y-3.7438
M15
G01X11.4657Y-3.7438
M16
G05
G00X11.3157Y-3.9438
M15
G01X11.4657Y-3.9438
M16
G05
G00X11.3157Y-4.4938
M15
G01X11.4657Y-4.4938
M16
G05
G00X12.0657Y-1.6938
M15
G01X12.2157Y-1.6938
M16
G05
G00X12.0657Y-2.2438
M15
G01X12.2157Y-2.2438
M16
G05
G00X12.0657Y-2.4438
M15
G01X12.2157Y-2.4438
M16
G05
G00X12.0657Y-2.9938
M15
G01X12.2157Y-2.9938
M16
G05
G00X12.0657Y-3.1938
M15
G01X12.2157Y-3.1938
M16
G05
G00X12.0657Y-3.7438
M15
G01X12.2157Y-3.7438
M16
G05
G00X12.0657Y-3.9438
M15
G01X12.2157Y-3.9438
M16
G05
G00X12.0657Y-4.4938
M15
G01X12.2157Y-4.4938
M16
G05
G00X12.8157Y-1.6938
M15
G01X12.9657Y-1.6938
M16
G05
G00X12.8157Y-2.2438
M15
G01X12.9657Y-2.2438
M16
G05
G00X12.8157Y-2.4438
M15
G01X12.9657Y-2.4438
M16
G05
G00X12.8157Y-2.9938
M15
G01X12.9657Y-2.9938
M16
G05
G00X12.8157Y-3.1938
M15
G01X12.9657Y-3.1938
M16
G05
G00X12.8157Y-3.7438
M15
G01X12.9657Y-3.7438
M16
G05
G00X12.8157Y-3.9438
M15
G01X12.9657Y-3.9438
M16
G05
G00X12.8157Y-4.4938
M15
G01X12.9657Y-4.4938
M16
G05
G00X13.5657Y-1.6938
M15
G01X13.7157Y-1.6938
M16
G05
G00X13.5657Y-2.2438
M15
G01X13.7157Y-2.2438
M16
G05
G00X13.5657Y-2.4438
M15
G01X13.7157Y-2.4438
M16
G05
G00X13.5657Y-2.9938
M15
G01X13.7157Y-2.9938
M16
G05
G00X13.5657Y-3.1938
M15
G01X13.7157Y-3.1938
M16
G05
G00X13.5657Y-3.7438
M15
G01X13.7157Y-3.7438
M16
G05
G00X13.5657Y-3.9439
M15
G01X13.7157Y-3.9439
M16
G05
G00X13.5657Y-4.4939
M15
G01X13.7157Y-4.4939
M16
G05
G00X14.3157Y-1.6938
M15
G01X14.4657Y-1.6938
M16
G05
G00X14.3157Y-2.2438
M15
G01X14.4657Y-2.2438
M16
G05
G00X14.3157Y-2.4438
M15
G01X14.4657Y-2.4438
M16
G05
G00X14.3157Y-2.9938
M15
G01X14.4657Y-2.9938
M16
G05
G00X14.3157Y-3.1938
M15
G01X14.4657Y-3.1938
M16
G05
G00X14.3157Y-3.7438
M15
G01X14.4657Y-3.7438
M16
G05
G00X14.3157Y-3.9438
M15
G01X14.4657Y-3.9438
M16
G05
G00X14.3157Y-4.4938
M15
G01X14.4657Y-4.4938
M16
G05
G00X15.2532Y-1.6938
M15
G01X15.4032Y-1.6938
M16
G05
G00X15.2532Y-2.2438
M15
G01X15.4032Y-2.2438
M16
G05
G00X15.2532Y-3.9438
M15
G01X15.4032Y-3.9438
M16
G05
G00X15.2532Y-4.4938
M15
G01X15.4032Y-4.4938
M16
G05
G00X15.2542Y-3.1938
M15
G01X15.4042Y-3.1938
M16
G05
G00X15.2542Y-3.7438
M15
G01X15.4042Y-3.7438
M16
G05
G00X15.2542Y-2.4433
M15
G01X15.4042Y-2.4433
M16
G05
G00X15.2542Y-2.9933
M15
G01X15.4042Y-2.9933
M16
G05
T0
M30
