G04 #@! TF.GenerationSoftware,KiCad,Pcbnew,(5.1.10-1-10_14)*
G04 #@! TF.CreationDate,2021-08-16T22:35:20-05:00*
G04 #@! TF.ProjectId,ori_top_plate,6f72695f-746f-4705-9f70-6c6174652e6b,rev?*
G04 #@! TF.SameCoordinates,Original*
G04 #@! TF.FileFunction,Soldermask,Bot*
G04 #@! TF.FilePolarity,Negative*
%FSLAX46Y46*%
G04 Gerber Fmt 4.6, Leading zero omitted, Abs format (unit mm)*
G04 Created by KiCad (PCBNEW (5.1.10-1-10_14)) date 2021-08-16 22:35:20*
%MOMM*%
%LPD*%
G01*
G04 APERTURE LIST*
%ADD10O,1.333500X0.508000*%
%ADD11O,5.080000X1.270000*%
%ADD12O,0.508000X5.842000*%
%ADD13O,0.508000X4.572000*%
%ADD14O,15.595600X0.508000*%
%ADD15C,0.800000*%
%ADD16C,3.500000*%
G04 APERTURE END LIST*
D10*
X396479760Y-109823700D03*
X382192260Y-109823700D03*
X396479760Y-104489700D03*
X382192260Y-104489700D03*
D11*
X389336010Y-114141700D03*
X389336010Y-100171700D03*
D12*
X382605010Y-107156700D03*
X396067010Y-107156700D03*
D13*
X381779510Y-111855700D03*
X396892510Y-111855700D03*
X396892510Y-102457700D03*
X381779510Y-102457700D03*
D14*
X389336010Y-113887700D03*
X389336010Y-100425700D03*
D10*
X396504752Y-90773620D03*
X382217252Y-90773620D03*
X396504752Y-85439620D03*
X382217252Y-85439620D03*
D11*
X389361002Y-95091620D03*
X389361002Y-81121620D03*
D12*
X382630002Y-88106620D03*
X396092002Y-88106620D03*
D13*
X381804502Y-92805620D03*
X396917502Y-92805620D03*
X396917502Y-83407620D03*
X381804502Y-83407620D03*
D14*
X389361002Y-94837620D03*
X389361002Y-81375620D03*
D10*
X396505120Y-71710880D03*
X382217620Y-71710880D03*
X396505120Y-66376880D03*
X382217620Y-66376880D03*
D11*
X389361370Y-76028880D03*
X389361370Y-62058880D03*
D12*
X382630370Y-69043880D03*
X396092370Y-69043880D03*
D13*
X381804870Y-73742880D03*
X396917870Y-73742880D03*
X396917870Y-64344880D03*
X381804870Y-64344880D03*
D14*
X389361370Y-75774880D03*
X389361370Y-62312880D03*
D10*
X396479760Y-52673460D03*
X382192260Y-52673460D03*
X396479760Y-47339460D03*
X382192260Y-47339460D03*
D11*
X389336010Y-56991460D03*
X389336010Y-43021460D03*
D12*
X382605010Y-50006460D03*
X396067010Y-50006460D03*
D13*
X381779510Y-54705460D03*
X396892510Y-54705460D03*
X396892510Y-45307460D03*
X381779510Y-45307460D03*
D14*
X389336010Y-56737460D03*
X389336010Y-43275460D03*
D10*
X372667160Y-109823700D03*
X358379660Y-109823700D03*
X372667160Y-104489700D03*
X358379660Y-104489700D03*
D11*
X365523410Y-114141700D03*
X365523410Y-100171700D03*
D12*
X358792410Y-107156700D03*
X372254410Y-107156700D03*
D13*
X357966910Y-111855700D03*
X373079910Y-111855700D03*
X373079910Y-102457700D03*
X357966910Y-102457700D03*
D14*
X365523410Y-113887700D03*
X365523410Y-100425700D03*
D10*
X353617080Y-109827000D03*
X339329580Y-109827000D03*
X353617080Y-104493000D03*
X339329580Y-104493000D03*
D11*
X346473330Y-114145000D03*
X346473330Y-100175000D03*
D12*
X339742330Y-107160000D03*
X353204330Y-107160000D03*
D13*
X338916830Y-111859000D03*
X354029830Y-111859000D03*
X354029830Y-102461000D03*
X338916830Y-102461000D03*
D14*
X346473330Y-113891000D03*
X346473330Y-100429000D03*
D10*
X334567000Y-109823700D03*
X320279500Y-109823700D03*
X334567000Y-104489700D03*
X320279500Y-104489700D03*
D11*
X327423250Y-114141700D03*
X327423250Y-100171700D03*
D12*
X320692250Y-107156700D03*
X334154250Y-107156700D03*
D13*
X319866750Y-111855700D03*
X334979750Y-111855700D03*
X334979750Y-102457700D03*
X319866750Y-102457700D03*
D14*
X327423250Y-113887700D03*
X327423250Y-100425700D03*
D10*
X315516920Y-109823700D03*
X301229420Y-109823700D03*
X315516920Y-104489700D03*
X301229420Y-104489700D03*
D11*
X308373170Y-114141700D03*
X308373170Y-100171700D03*
D12*
X301642170Y-107156700D03*
X315104170Y-107156700D03*
D13*
X300816670Y-111855700D03*
X315929670Y-111855700D03*
X315929670Y-102457700D03*
X300816670Y-102457700D03*
D14*
X308373170Y-113887700D03*
X308373170Y-100425700D03*
D10*
X296466840Y-109823700D03*
X282179340Y-109823700D03*
X296466840Y-104489700D03*
X282179340Y-104489700D03*
D11*
X289323090Y-114141700D03*
X289323090Y-100171700D03*
D12*
X282592090Y-107156700D03*
X296054090Y-107156700D03*
D13*
X281766590Y-111855700D03*
X296879590Y-111855700D03*
X296879590Y-102457700D03*
X281766590Y-102457700D03*
D14*
X289323090Y-113887700D03*
X289323090Y-100425700D03*
D10*
X277416760Y-109823700D03*
X263129260Y-109823700D03*
X277416760Y-104489700D03*
X263129260Y-104489700D03*
D11*
X270273010Y-114141700D03*
X270273010Y-100171700D03*
D12*
X263542010Y-107156700D03*
X277004010Y-107156700D03*
D13*
X262716510Y-111855700D03*
X277829510Y-111855700D03*
X277829510Y-102457700D03*
X262716510Y-102457700D03*
D14*
X270273010Y-113887700D03*
X270273010Y-100425700D03*
D10*
X258366680Y-109823700D03*
X244079180Y-109823700D03*
X258366680Y-104489700D03*
X244079180Y-104489700D03*
D11*
X251222930Y-114141700D03*
X251222930Y-100171700D03*
D12*
X244491930Y-107156700D03*
X257953930Y-107156700D03*
D13*
X243666430Y-111855700D03*
X258779430Y-111855700D03*
X258779430Y-102457700D03*
X243666430Y-102457700D03*
D14*
X251222930Y-113887700D03*
X251222930Y-100425700D03*
D10*
X239316600Y-109823700D03*
X225029100Y-109823700D03*
X239316600Y-104489700D03*
X225029100Y-104489700D03*
D11*
X232172850Y-114141700D03*
X232172850Y-100171700D03*
D12*
X225441850Y-107156700D03*
X238903850Y-107156700D03*
D13*
X224616350Y-111855700D03*
X239729350Y-111855700D03*
X239729350Y-102457700D03*
X224616350Y-102457700D03*
D14*
X232172850Y-113887700D03*
X232172850Y-100425700D03*
D10*
X220266520Y-109823700D03*
X205979020Y-109823700D03*
X220266520Y-104489700D03*
X205979020Y-104489700D03*
D11*
X213122770Y-114141700D03*
X213122770Y-100171700D03*
D12*
X206391770Y-107156700D03*
X219853770Y-107156700D03*
D13*
X205566270Y-111855700D03*
X220679270Y-111855700D03*
X220679270Y-102457700D03*
X205566270Y-102457700D03*
D14*
X213122770Y-113887700D03*
X213122770Y-100425700D03*
D10*
X201216440Y-109823700D03*
X186928940Y-109823700D03*
X201216440Y-104489700D03*
X186928940Y-104489700D03*
D11*
X194072690Y-114141700D03*
X194072690Y-100171700D03*
D12*
X187341690Y-107156700D03*
X200803690Y-107156700D03*
D13*
X186516190Y-111855700D03*
X201629190Y-111855700D03*
X201629190Y-102457700D03*
X186516190Y-102457700D03*
D14*
X194072690Y-113887700D03*
X194072690Y-100425700D03*
D10*
X182166360Y-109823700D03*
X167878860Y-109823700D03*
X182166360Y-104489700D03*
X167878860Y-104489700D03*
D11*
X175022610Y-114141700D03*
X175022610Y-100171700D03*
D12*
X168291610Y-107156700D03*
X181753610Y-107156700D03*
D13*
X167466110Y-111855700D03*
X182579110Y-111855700D03*
X182579110Y-102457700D03*
X167466110Y-102457700D03*
D14*
X175022610Y-113887700D03*
X175022610Y-100425700D03*
D10*
X163116280Y-109823700D03*
X148828780Y-109823700D03*
X163116280Y-104489700D03*
X148828780Y-104489700D03*
D11*
X155972530Y-114141700D03*
X155972530Y-100171700D03*
D12*
X149241530Y-107156700D03*
X162703530Y-107156700D03*
D13*
X148416030Y-111855700D03*
X163529030Y-111855700D03*
X163529030Y-102457700D03*
X148416030Y-102457700D03*
D14*
X155972530Y-113887700D03*
X155972530Y-100425700D03*
D10*
X372667160Y-90773620D03*
X358379660Y-90773620D03*
X372667160Y-85439620D03*
X358379660Y-85439620D03*
D11*
X365523410Y-95091620D03*
X365523410Y-81121620D03*
D12*
X358792410Y-88106620D03*
X372254410Y-88106620D03*
D13*
X357966910Y-92805620D03*
X373079910Y-92805620D03*
X373079910Y-83407620D03*
X357966910Y-83407620D03*
D14*
X365523410Y-94837620D03*
X365523410Y-81375620D03*
D10*
X353617080Y-90773620D03*
X339329580Y-90773620D03*
X353617080Y-85439620D03*
X339329580Y-85439620D03*
D11*
X346473330Y-95091620D03*
X346473330Y-81121620D03*
D12*
X339742330Y-88106620D03*
X353204330Y-88106620D03*
D13*
X338916830Y-92805620D03*
X354029830Y-92805620D03*
X354029830Y-83407620D03*
X338916830Y-83407620D03*
D14*
X346473330Y-94837620D03*
X346473330Y-81375620D03*
D10*
X334567000Y-90773620D03*
X320279500Y-90773620D03*
X334567000Y-85439620D03*
X320279500Y-85439620D03*
D11*
X327423250Y-95091620D03*
X327423250Y-81121620D03*
D12*
X320692250Y-88106620D03*
X334154250Y-88106620D03*
D13*
X319866750Y-92805620D03*
X334979750Y-92805620D03*
X334979750Y-83407620D03*
X319866750Y-83407620D03*
D14*
X327423250Y-94837620D03*
X327423250Y-81375620D03*
D10*
X315516920Y-90773620D03*
X301229420Y-90773620D03*
X315516920Y-85439620D03*
X301229420Y-85439620D03*
D11*
X308373170Y-95091620D03*
X308373170Y-81121620D03*
D12*
X301642170Y-88106620D03*
X315104170Y-88106620D03*
D13*
X300816670Y-92805620D03*
X315929670Y-92805620D03*
X315929670Y-83407620D03*
X300816670Y-83407620D03*
D14*
X308373170Y-94837620D03*
X308373170Y-81375620D03*
D10*
X296466840Y-90773620D03*
X282179340Y-90773620D03*
X296466840Y-85439620D03*
X282179340Y-85439620D03*
D11*
X289323090Y-95091620D03*
X289323090Y-81121620D03*
D12*
X282592090Y-88106620D03*
X296054090Y-88106620D03*
D13*
X281766590Y-92805620D03*
X296879590Y-92805620D03*
X296879590Y-83407620D03*
X281766590Y-83407620D03*
D14*
X289323090Y-94837620D03*
X289323090Y-81375620D03*
D10*
X277416760Y-90773620D03*
X263129260Y-90773620D03*
X277416760Y-85439620D03*
X263129260Y-85439620D03*
D11*
X270273010Y-95091620D03*
X270273010Y-81121620D03*
D12*
X263542010Y-88106620D03*
X277004010Y-88106620D03*
D13*
X262716510Y-92805620D03*
X277829510Y-92805620D03*
X277829510Y-83407620D03*
X262716510Y-83407620D03*
D14*
X270273010Y-94837620D03*
X270273010Y-81375620D03*
D10*
X258366680Y-90773620D03*
X244079180Y-90773620D03*
X258366680Y-85439620D03*
X244079180Y-85439620D03*
D11*
X251222930Y-95091620D03*
X251222930Y-81121620D03*
D12*
X244491930Y-88106620D03*
X257953930Y-88106620D03*
D13*
X243666430Y-92805620D03*
X258779430Y-92805620D03*
X258779430Y-83407620D03*
X243666430Y-83407620D03*
D14*
X251222930Y-94837620D03*
X251222930Y-81375620D03*
D10*
X239316600Y-90773620D03*
X225029100Y-90773620D03*
X239316600Y-85439620D03*
X225029100Y-85439620D03*
D11*
X232172850Y-95091620D03*
X232172850Y-81121620D03*
D12*
X225441850Y-88106620D03*
X238903850Y-88106620D03*
D13*
X224616350Y-92805620D03*
X239729350Y-92805620D03*
X239729350Y-83407620D03*
X224616350Y-83407620D03*
D14*
X232172850Y-94837620D03*
X232172850Y-81375620D03*
D10*
X220266520Y-90773620D03*
X205979020Y-90773620D03*
X220266520Y-85439620D03*
X205979020Y-85439620D03*
D11*
X213122770Y-95091620D03*
X213122770Y-81121620D03*
D12*
X206391770Y-88106620D03*
X219853770Y-88106620D03*
D13*
X205566270Y-92805620D03*
X220679270Y-92805620D03*
X220679270Y-83407620D03*
X205566270Y-83407620D03*
D14*
X213122770Y-94837620D03*
X213122770Y-81375620D03*
D10*
X201216440Y-90773620D03*
X186928940Y-90773620D03*
X201216440Y-85439620D03*
X186928940Y-85439620D03*
D11*
X194072690Y-95091620D03*
X194072690Y-81121620D03*
D12*
X187341690Y-88106620D03*
X200803690Y-88106620D03*
D13*
X186516190Y-92805620D03*
X201629190Y-92805620D03*
X201629190Y-83407620D03*
X186516190Y-83407620D03*
D14*
X194072690Y-94837620D03*
X194072690Y-81375620D03*
D10*
X182166360Y-90773620D03*
X167878860Y-90773620D03*
X182166360Y-85439620D03*
X167878860Y-85439620D03*
D11*
X175022610Y-95091620D03*
X175022610Y-81121620D03*
D12*
X168291610Y-88106620D03*
X181753610Y-88106620D03*
D13*
X167466110Y-92805620D03*
X182579110Y-92805620D03*
X182579110Y-83407620D03*
X167466110Y-83407620D03*
D14*
X175022610Y-94837620D03*
X175022610Y-81375620D03*
D10*
X163116280Y-90773620D03*
X148828780Y-90773620D03*
X163116280Y-85439620D03*
X148828780Y-85439620D03*
D11*
X155972530Y-95091620D03*
X155972530Y-81121620D03*
D12*
X149241530Y-88106620D03*
X162703530Y-88106620D03*
D13*
X148416030Y-92805620D03*
X163529030Y-92805620D03*
X163529030Y-83407620D03*
X148416030Y-83407620D03*
D14*
X155972530Y-94837620D03*
X155972530Y-81375620D03*
D10*
X372667160Y-71723540D03*
X358379660Y-71723540D03*
X372667160Y-66389540D03*
X358379660Y-66389540D03*
D11*
X365523410Y-76041540D03*
X365523410Y-62071540D03*
D12*
X358792410Y-69056540D03*
X372254410Y-69056540D03*
D13*
X357966910Y-73755540D03*
X373079910Y-73755540D03*
X373079910Y-64357540D03*
X357966910Y-64357540D03*
D14*
X365523410Y-75787540D03*
X365523410Y-62325540D03*
D10*
X353617080Y-71723540D03*
X339329580Y-71723540D03*
X353617080Y-66389540D03*
X339329580Y-66389540D03*
D11*
X346473330Y-76041540D03*
X346473330Y-62071540D03*
D12*
X339742330Y-69056540D03*
X353204330Y-69056540D03*
D13*
X338916830Y-73755540D03*
X354029830Y-73755540D03*
X354029830Y-64357540D03*
X338916830Y-64357540D03*
D14*
X346473330Y-75787540D03*
X346473330Y-62325540D03*
D10*
X334567000Y-71723540D03*
X320279500Y-71723540D03*
X334567000Y-66389540D03*
X320279500Y-66389540D03*
D11*
X327423250Y-76041540D03*
X327423250Y-62071540D03*
D12*
X320692250Y-69056540D03*
X334154250Y-69056540D03*
D13*
X319866750Y-73755540D03*
X334979750Y-73755540D03*
X334979750Y-64357540D03*
X319866750Y-64357540D03*
D14*
X327423250Y-75787540D03*
X327423250Y-62325540D03*
D10*
X315516920Y-71723540D03*
X301229420Y-71723540D03*
X315516920Y-66389540D03*
X301229420Y-66389540D03*
D11*
X308373170Y-76041540D03*
X308373170Y-62071540D03*
D12*
X301642170Y-69056540D03*
X315104170Y-69056540D03*
D13*
X300816670Y-73755540D03*
X315929670Y-73755540D03*
X315929670Y-64357540D03*
X300816670Y-64357540D03*
D14*
X308373170Y-75787540D03*
X308373170Y-62325540D03*
D10*
X296466840Y-71723540D03*
X282179340Y-71723540D03*
X296466840Y-66389540D03*
X282179340Y-66389540D03*
D11*
X289323090Y-76041540D03*
X289323090Y-62071540D03*
D12*
X282592090Y-69056540D03*
X296054090Y-69056540D03*
D13*
X281766590Y-73755540D03*
X296879590Y-73755540D03*
X296879590Y-64357540D03*
X281766590Y-64357540D03*
D14*
X289323090Y-75787540D03*
X289323090Y-62325540D03*
D10*
X277416760Y-71723540D03*
X263129260Y-71723540D03*
X277416760Y-66389540D03*
X263129260Y-66389540D03*
D11*
X270273010Y-76041540D03*
X270273010Y-62071540D03*
D12*
X263542010Y-69056540D03*
X277004010Y-69056540D03*
D13*
X262716510Y-73755540D03*
X277829510Y-73755540D03*
X277829510Y-64357540D03*
X262716510Y-64357540D03*
D14*
X270273010Y-75787540D03*
X270273010Y-62325540D03*
D10*
X258366680Y-71723540D03*
X244079180Y-71723540D03*
X258366680Y-66389540D03*
X244079180Y-66389540D03*
D11*
X251222930Y-76041540D03*
X251222930Y-62071540D03*
D12*
X244491930Y-69056540D03*
X257953930Y-69056540D03*
D13*
X243666430Y-73755540D03*
X258779430Y-73755540D03*
X258779430Y-64357540D03*
X243666430Y-64357540D03*
D14*
X251222930Y-75787540D03*
X251222930Y-62325540D03*
D10*
X239316600Y-71723540D03*
X225029100Y-71723540D03*
X239316600Y-66389540D03*
X225029100Y-66389540D03*
D11*
X232172850Y-76041540D03*
X232172850Y-62071540D03*
D12*
X225441850Y-69056540D03*
X238903850Y-69056540D03*
D13*
X224616350Y-73755540D03*
X239729350Y-73755540D03*
X239729350Y-64357540D03*
X224616350Y-64357540D03*
D14*
X232172850Y-75787540D03*
X232172850Y-62325540D03*
D10*
X220266520Y-71723540D03*
X205979020Y-71723540D03*
X220266520Y-66389540D03*
X205979020Y-66389540D03*
D11*
X213122770Y-76041540D03*
X213122770Y-62071540D03*
D12*
X206391770Y-69056540D03*
X219853770Y-69056540D03*
D13*
X205566270Y-73755540D03*
X220679270Y-73755540D03*
X220679270Y-64357540D03*
X205566270Y-64357540D03*
D14*
X213122770Y-75787540D03*
X213122770Y-62325540D03*
D10*
X201216440Y-71723540D03*
X186928940Y-71723540D03*
X201216440Y-66389540D03*
X186928940Y-66389540D03*
D11*
X194072690Y-76041540D03*
X194072690Y-62071540D03*
D12*
X187341690Y-69056540D03*
X200803690Y-69056540D03*
D13*
X186516190Y-73755540D03*
X201629190Y-73755540D03*
X201629190Y-64357540D03*
X186516190Y-64357540D03*
D14*
X194072690Y-75787540D03*
X194072690Y-62325540D03*
D10*
X182166360Y-71723540D03*
X167878860Y-71723540D03*
X182166360Y-66389540D03*
X167878860Y-66389540D03*
D11*
X175022610Y-76041540D03*
X175022610Y-62071540D03*
D12*
X168291610Y-69056540D03*
X181753610Y-69056540D03*
D13*
X167466110Y-73755540D03*
X182579110Y-73755540D03*
X182579110Y-64357540D03*
X167466110Y-64357540D03*
D14*
X175022610Y-75787540D03*
X175022610Y-62325540D03*
D10*
X163116280Y-71723540D03*
X148828780Y-71723540D03*
X163116280Y-66389540D03*
X148828780Y-66389540D03*
D11*
X155972530Y-76041540D03*
X155972530Y-62071540D03*
D12*
X149241530Y-69056540D03*
X162703530Y-69056540D03*
D13*
X148416030Y-73755540D03*
X163529030Y-73755540D03*
X163529030Y-64357540D03*
X148416030Y-64357540D03*
D14*
X155972530Y-75787540D03*
X155972530Y-62325540D03*
D10*
X372667160Y-52673460D03*
X358379660Y-52673460D03*
X372667160Y-47339460D03*
X358379660Y-47339460D03*
D11*
X365523410Y-56991460D03*
X365523410Y-43021460D03*
D12*
X358792410Y-50006460D03*
X372254410Y-50006460D03*
D13*
X357966910Y-54705460D03*
X373079910Y-54705460D03*
X373079910Y-45307460D03*
X357966910Y-45307460D03*
D14*
X365523410Y-56737460D03*
X365523410Y-43275460D03*
D10*
X353617080Y-52673460D03*
X339329580Y-52673460D03*
X353617080Y-47339460D03*
X339329580Y-47339460D03*
D11*
X346473330Y-56991460D03*
X346473330Y-43021460D03*
D12*
X339742330Y-50006460D03*
X353204330Y-50006460D03*
D13*
X338916830Y-54705460D03*
X354029830Y-54705460D03*
X354029830Y-45307460D03*
X338916830Y-45307460D03*
D14*
X346473330Y-56737460D03*
X346473330Y-43275460D03*
D10*
X334567000Y-52673460D03*
X320279500Y-52673460D03*
X334567000Y-47339460D03*
X320279500Y-47339460D03*
D11*
X327423250Y-56991460D03*
X327423250Y-43021460D03*
D12*
X320692250Y-50006460D03*
X334154250Y-50006460D03*
D13*
X319866750Y-54705460D03*
X334979750Y-54705460D03*
X334979750Y-45307460D03*
X319866750Y-45307460D03*
D14*
X327423250Y-56737460D03*
X327423250Y-43275460D03*
D10*
X315516920Y-52673460D03*
X301229420Y-52673460D03*
X315516920Y-47339460D03*
X301229420Y-47339460D03*
D11*
X308373170Y-56991460D03*
X308373170Y-43021460D03*
D12*
X301642170Y-50006460D03*
X315104170Y-50006460D03*
D13*
X300816670Y-54705460D03*
X315929670Y-54705460D03*
X315929670Y-45307460D03*
X300816670Y-45307460D03*
D14*
X308373170Y-56737460D03*
X308373170Y-43275460D03*
D10*
X296466840Y-52673460D03*
X282179340Y-52673460D03*
X296466840Y-47339460D03*
X282179340Y-47339460D03*
D11*
X289323090Y-56991460D03*
X289323090Y-43021460D03*
D12*
X282592090Y-50006460D03*
X296054090Y-50006460D03*
D13*
X281766590Y-54705460D03*
X296879590Y-54705460D03*
X296879590Y-45307460D03*
X281766590Y-45307460D03*
D14*
X289323090Y-56737460D03*
X289323090Y-43275460D03*
D10*
X277416760Y-52673460D03*
X263129260Y-52673460D03*
X277416760Y-47339460D03*
X263129260Y-47339460D03*
D11*
X270273010Y-56991460D03*
X270273010Y-43021460D03*
D12*
X263542010Y-50006460D03*
X277004010Y-50006460D03*
D13*
X262716510Y-54705460D03*
X277829510Y-54705460D03*
X277829510Y-45307460D03*
X262716510Y-45307460D03*
D14*
X270273010Y-56737460D03*
X270273010Y-43275460D03*
D10*
X258366680Y-52673460D03*
X244079180Y-52673460D03*
X258366680Y-47339460D03*
X244079180Y-47339460D03*
D11*
X251222930Y-56991460D03*
X251222930Y-43021460D03*
D12*
X244491930Y-50006460D03*
X257953930Y-50006460D03*
D13*
X243666430Y-54705460D03*
X258779430Y-54705460D03*
X258779430Y-45307460D03*
X243666430Y-45307460D03*
D14*
X251222930Y-56737460D03*
X251222930Y-43275460D03*
D10*
X239316600Y-52673460D03*
X225029100Y-52673460D03*
X239316600Y-47339460D03*
X225029100Y-47339460D03*
D11*
X232172850Y-56991460D03*
X232172850Y-43021460D03*
D12*
X225441850Y-50006460D03*
X238903850Y-50006460D03*
D13*
X224616350Y-54705460D03*
X239729350Y-54705460D03*
X239729350Y-45307460D03*
X224616350Y-45307460D03*
D14*
X232172850Y-56737460D03*
X232172850Y-43275460D03*
D10*
X220266520Y-52673460D03*
X205979020Y-52673460D03*
X220266520Y-47339460D03*
X205979020Y-47339460D03*
D11*
X213122770Y-56991460D03*
X213122770Y-43021460D03*
D12*
X206391770Y-50006460D03*
X219853770Y-50006460D03*
D13*
X205566270Y-54705460D03*
X220679270Y-54705460D03*
X220679270Y-45307460D03*
X205566270Y-45307460D03*
D14*
X213122770Y-56737460D03*
X213122770Y-43275460D03*
D10*
X201216440Y-52673460D03*
X186928940Y-52673460D03*
X201216440Y-47339460D03*
X186928940Y-47339460D03*
D11*
X194072690Y-56991460D03*
X194072690Y-43021460D03*
D12*
X187341690Y-50006460D03*
X200803690Y-50006460D03*
D13*
X186516190Y-54705460D03*
X201629190Y-54705460D03*
X201629190Y-45307460D03*
X186516190Y-45307460D03*
D14*
X194072690Y-56737460D03*
X194072690Y-43275460D03*
D10*
X182166360Y-52673460D03*
X167878860Y-52673460D03*
X182166360Y-47339460D03*
X167878860Y-47339460D03*
D11*
X175022610Y-56991460D03*
X175022610Y-43021460D03*
D12*
X168291610Y-50006460D03*
X181753610Y-50006460D03*
D13*
X167466110Y-54705460D03*
X182579110Y-54705460D03*
X182579110Y-45307460D03*
X167466110Y-45307460D03*
D14*
X175022610Y-56737460D03*
X175022610Y-43275460D03*
D10*
X163116280Y-52673460D03*
X148828780Y-52673460D03*
X163116280Y-47339460D03*
X148828780Y-47339460D03*
D11*
X155972530Y-56991460D03*
X155972530Y-43021460D03*
D12*
X149241530Y-50006460D03*
X162703530Y-50006460D03*
D13*
X148416030Y-54705460D03*
X163529030Y-54705460D03*
X163529030Y-45307460D03*
X148416030Y-45307460D03*
D14*
X155972530Y-56737460D03*
X155972530Y-43275460D03*
D15*
X375048450Y-97631692D03*
X375048450Y-96381692D03*
X375048450Y-95131692D03*
X375048450Y-98881692D03*
X375048450Y-100131692D03*
G36*
G01*
X370270360Y-59868904D02*
X370270360Y-59168904D01*
G75*
G02*
X370520360Y-58918904I250000J0D01*
G01*
X371020360Y-58918904D01*
G75*
G02*
X371270360Y-59168904I0J-250000D01*
G01*
X371270360Y-59868904D01*
G75*
G02*
X371020360Y-60118904I-250000J0D01*
G01*
X370520360Y-60118904D01*
G75*
G02*
X370270360Y-59868904I0J250000D01*
G01*
G37*
G36*
G01*
X366970360Y-59868904D02*
X366970360Y-59168904D01*
G75*
G02*
X367220360Y-58918904I250000J0D01*
G01*
X367720360Y-58918904D01*
G75*
G02*
X367970360Y-59168904I0J-250000D01*
G01*
X367970360Y-59868904D01*
G75*
G02*
X367720360Y-60118904I-250000J0D01*
G01*
X367220360Y-60118904D01*
G75*
G02*
X366970360Y-59868904I0J250000D01*
G01*
G37*
X375048450Y-78581580D03*
X375048450Y-77331580D03*
X375048450Y-76081580D03*
X375048450Y-79831580D03*
X375048450Y-81081580D03*
X375048450Y-59518808D03*
X375048450Y-58268808D03*
X375048450Y-57018808D03*
X375048450Y-60768808D03*
X375048450Y-62018808D03*
G36*
G01*
X388211370Y-59168840D02*
X388211370Y-59868840D01*
G75*
G02*
X387961370Y-60118840I-250000J0D01*
G01*
X387461370Y-60118840D01*
G75*
G02*
X387211370Y-59868840I0J250000D01*
G01*
X387211370Y-59168840D01*
G75*
G02*
X387461370Y-58918840I250000J0D01*
G01*
X387961370Y-58918840D01*
G75*
G02*
X388211370Y-59168840I0J-250000D01*
G01*
G37*
G36*
G01*
X391511370Y-59168840D02*
X391511370Y-59868840D01*
G75*
G02*
X391261370Y-60118840I-250000J0D01*
G01*
X390761370Y-60118840D01*
G75*
G02*
X390511370Y-59868840I0J250000D01*
G01*
X390511370Y-59168840D01*
G75*
G02*
X390761370Y-58918840I250000J0D01*
G01*
X391261370Y-58918840D01*
G75*
G02*
X391511370Y-59168840I0J-250000D01*
G01*
G37*
D16*
X165523314Y-39873575D03*
X165523314Y-117264265D03*
X260773394Y-39873575D03*
X260773394Y-117264265D03*
X356023474Y-39873575D03*
X356023474Y-117264265D03*
X389361002Y-39873575D03*
X389361002Y-117264265D03*
M02*
