%TF.GenerationSoftware,KiCad,Pcbnew,7.0.1-0*%
%TF.CreationDate,2023-04-12T11:52:18-05:00*%
%TF.ProjectId,pcb,7063622e-6b69-4636-9164-5f7063625858,rev?*%
%TF.SameCoordinates,Original*%
%TF.FileFunction,Legend,Top*%
%TF.FilePolarity,Positive*%
%FSLAX46Y46*%
G04 Gerber Fmt 4.6, Leading zero omitted, Abs format (unit mm)*
G04 Created by KiCad (PCBNEW 7.0.1-0) date 2023-04-12 11:52:18*
%MOMM*%
%LPD*%
G01*
G04 APERTURE LIST*
%ADD10C,0.150000*%
G04 APERTURE END LIST*
D10*
X224607142Y-94662619D02*
X224511904Y-94615000D01*
X224511904Y-94615000D02*
X224464285Y-94519761D01*
X224464285Y-94519761D02*
X224464285Y-93662619D01*
X225416666Y-93995952D02*
X225416666Y-94662619D01*
X224988095Y-93995952D02*
X224988095Y-94519761D01*
X224988095Y-94519761D02*
X225035714Y-94615000D01*
X225035714Y-94615000D02*
X225130952Y-94662619D01*
X225130952Y-94662619D02*
X225273809Y-94662619D01*
X225273809Y-94662619D02*
X225369047Y-94615000D01*
X225369047Y-94615000D02*
X225416666Y-94567380D01*
X226321428Y-94615000D02*
X226226190Y-94662619D01*
X226226190Y-94662619D02*
X226035714Y-94662619D01*
X226035714Y-94662619D02*
X225940476Y-94615000D01*
X225940476Y-94615000D02*
X225892857Y-94567380D01*
X225892857Y-94567380D02*
X225845238Y-94472142D01*
X225845238Y-94472142D02*
X225845238Y-94186428D01*
X225845238Y-94186428D02*
X225892857Y-94091190D01*
X225892857Y-94091190D02*
X225940476Y-94043571D01*
X225940476Y-94043571D02*
X226035714Y-93995952D01*
X226035714Y-93995952D02*
X226226190Y-93995952D01*
X226226190Y-93995952D02*
X226321428Y-94043571D01*
X226654762Y-93995952D02*
X226892857Y-94662619D01*
X227130952Y-93995952D02*
X226892857Y-94662619D01*
X226892857Y-94662619D02*
X226797619Y-94900714D01*
X226797619Y-94900714D02*
X226750000Y-94948333D01*
X226750000Y-94948333D02*
X226654762Y-94995952D01*
X228178572Y-93995952D02*
X228416667Y-94662619D01*
X228416667Y-94662619D02*
X228654762Y-93995952D01*
X228940477Y-93662619D02*
X229559524Y-93662619D01*
X229559524Y-93662619D02*
X229226191Y-94043571D01*
X229226191Y-94043571D02*
X229369048Y-94043571D01*
X229369048Y-94043571D02*
X229464286Y-94091190D01*
X229464286Y-94091190D02*
X229511905Y-94138809D01*
X229511905Y-94138809D02*
X229559524Y-94234047D01*
X229559524Y-94234047D02*
X229559524Y-94472142D01*
X229559524Y-94472142D02*
X229511905Y-94567380D01*
X229511905Y-94567380D02*
X229464286Y-94615000D01*
X229464286Y-94615000D02*
X229369048Y-94662619D01*
X229369048Y-94662619D02*
X229083334Y-94662619D01*
X229083334Y-94662619D02*
X228988096Y-94615000D01*
X228988096Y-94615000D02*
X228940477Y-94567380D01*
X229988096Y-94281666D02*
X230750001Y-94281666D01*
X231892857Y-94757857D02*
X231797619Y-94710238D01*
X231797619Y-94710238D02*
X231702381Y-94615000D01*
X231702381Y-94615000D02*
X231559524Y-94472142D01*
X231559524Y-94472142D02*
X231464286Y-94424523D01*
X231464286Y-94424523D02*
X231369048Y-94424523D01*
X231416667Y-94662619D02*
X231321429Y-94615000D01*
X231321429Y-94615000D02*
X231226191Y-94519761D01*
X231226191Y-94519761D02*
X231178572Y-94329285D01*
X231178572Y-94329285D02*
X231178572Y-93995952D01*
X231178572Y-93995952D02*
X231226191Y-93805476D01*
X231226191Y-93805476D02*
X231321429Y-93710238D01*
X231321429Y-93710238D02*
X231416667Y-93662619D01*
X231416667Y-93662619D02*
X231607143Y-93662619D01*
X231607143Y-93662619D02*
X231702381Y-93710238D01*
X231702381Y-93710238D02*
X231797619Y-93805476D01*
X231797619Y-93805476D02*
X231845238Y-93995952D01*
X231845238Y-93995952D02*
X231845238Y-94329285D01*
X231845238Y-94329285D02*
X231797619Y-94519761D01*
X231797619Y-94519761D02*
X231702381Y-94615000D01*
X231702381Y-94615000D02*
X231607143Y-94662619D01*
X231607143Y-94662619D02*
X231416667Y-94662619D01*
X232607143Y-94138809D02*
X232273810Y-94138809D01*
X232273810Y-94662619D02*
X232273810Y-93662619D01*
X232273810Y-93662619D02*
X232750000Y-93662619D01*
X233130953Y-94662619D02*
X233130953Y-93662619D01*
X233130953Y-93662619D02*
X233702381Y-94662619D01*
X233702381Y-94662619D02*
X233702381Y-93662619D01*
X234892858Y-93757857D02*
X234940477Y-93710238D01*
X234940477Y-93710238D02*
X235035715Y-93662619D01*
X235035715Y-93662619D02*
X235273810Y-93662619D01*
X235273810Y-93662619D02*
X235369048Y-93710238D01*
X235369048Y-93710238D02*
X235416667Y-93757857D01*
X235416667Y-93757857D02*
X235464286Y-93853095D01*
X235464286Y-93853095D02*
X235464286Y-93948333D01*
X235464286Y-93948333D02*
X235416667Y-94091190D01*
X235416667Y-94091190D02*
X234845239Y-94662619D01*
X234845239Y-94662619D02*
X235464286Y-94662619D01*
X236083334Y-93662619D02*
X236178572Y-93662619D01*
X236178572Y-93662619D02*
X236273810Y-93710238D01*
X236273810Y-93710238D02*
X236321429Y-93757857D01*
X236321429Y-93757857D02*
X236369048Y-93853095D01*
X236369048Y-93853095D02*
X236416667Y-94043571D01*
X236416667Y-94043571D02*
X236416667Y-94281666D01*
X236416667Y-94281666D02*
X236369048Y-94472142D01*
X236369048Y-94472142D02*
X236321429Y-94567380D01*
X236321429Y-94567380D02*
X236273810Y-94615000D01*
X236273810Y-94615000D02*
X236178572Y-94662619D01*
X236178572Y-94662619D02*
X236083334Y-94662619D01*
X236083334Y-94662619D02*
X235988096Y-94615000D01*
X235988096Y-94615000D02*
X235940477Y-94567380D01*
X235940477Y-94567380D02*
X235892858Y-94472142D01*
X235892858Y-94472142D02*
X235845239Y-94281666D01*
X235845239Y-94281666D02*
X235845239Y-94043571D01*
X235845239Y-94043571D02*
X235892858Y-93853095D01*
X235892858Y-93853095D02*
X235940477Y-93757857D01*
X235940477Y-93757857D02*
X235988096Y-93710238D01*
X235988096Y-93710238D02*
X236083334Y-93662619D01*
X236797620Y-93757857D02*
X236845239Y-93710238D01*
X236845239Y-93710238D02*
X236940477Y-93662619D01*
X236940477Y-93662619D02*
X237178572Y-93662619D01*
X237178572Y-93662619D02*
X237273810Y-93710238D01*
X237273810Y-93710238D02*
X237321429Y-93757857D01*
X237321429Y-93757857D02*
X237369048Y-93853095D01*
X237369048Y-93853095D02*
X237369048Y-93948333D01*
X237369048Y-93948333D02*
X237321429Y-94091190D01*
X237321429Y-94091190D02*
X236750001Y-94662619D01*
X236750001Y-94662619D02*
X237369048Y-94662619D01*
X237702382Y-93662619D02*
X238321429Y-93662619D01*
X238321429Y-93662619D02*
X237988096Y-94043571D01*
X237988096Y-94043571D02*
X238130953Y-94043571D01*
X238130953Y-94043571D02*
X238226191Y-94091190D01*
X238226191Y-94091190D02*
X238273810Y-94138809D01*
X238273810Y-94138809D02*
X238321429Y-94234047D01*
X238321429Y-94234047D02*
X238321429Y-94472142D01*
X238321429Y-94472142D02*
X238273810Y-94567380D01*
X238273810Y-94567380D02*
X238226191Y-94615000D01*
X238226191Y-94615000D02*
X238130953Y-94662619D01*
X238130953Y-94662619D02*
X237845239Y-94662619D01*
X237845239Y-94662619D02*
X237750001Y-94615000D01*
X237750001Y-94615000D02*
X237702382Y-94567380D01*
X238750001Y-94567380D02*
X238797620Y-94615000D01*
X238797620Y-94615000D02*
X238750001Y-94662619D01*
X238750001Y-94662619D02*
X238702382Y-94615000D01*
X238702382Y-94615000D02*
X238750001Y-94567380D01*
X238750001Y-94567380D02*
X238750001Y-94662619D01*
X239416667Y-93662619D02*
X239511905Y-93662619D01*
X239511905Y-93662619D02*
X239607143Y-93710238D01*
X239607143Y-93710238D02*
X239654762Y-93757857D01*
X239654762Y-93757857D02*
X239702381Y-93853095D01*
X239702381Y-93853095D02*
X239750000Y-94043571D01*
X239750000Y-94043571D02*
X239750000Y-94281666D01*
X239750000Y-94281666D02*
X239702381Y-94472142D01*
X239702381Y-94472142D02*
X239654762Y-94567380D01*
X239654762Y-94567380D02*
X239607143Y-94615000D01*
X239607143Y-94615000D02*
X239511905Y-94662619D01*
X239511905Y-94662619D02*
X239416667Y-94662619D01*
X239416667Y-94662619D02*
X239321429Y-94615000D01*
X239321429Y-94615000D02*
X239273810Y-94567380D01*
X239273810Y-94567380D02*
X239226191Y-94472142D01*
X239226191Y-94472142D02*
X239178572Y-94281666D01*
X239178572Y-94281666D02*
X239178572Y-94043571D01*
X239178572Y-94043571D02*
X239226191Y-93853095D01*
X239226191Y-93853095D02*
X239273810Y-93757857D01*
X239273810Y-93757857D02*
X239321429Y-93710238D01*
X239321429Y-93710238D02*
X239416667Y-93662619D01*
X240607143Y-93995952D02*
X240607143Y-94662619D01*
X240369048Y-93615000D02*
X240130953Y-94329285D01*
X240130953Y-94329285D02*
X240750000Y-94329285D01*
X241130953Y-94567380D02*
X241178572Y-94615000D01*
X241178572Y-94615000D02*
X241130953Y-94662619D01*
X241130953Y-94662619D02*
X241083334Y-94615000D01*
X241083334Y-94615000D02*
X241130953Y-94567380D01*
X241130953Y-94567380D02*
X241130953Y-94662619D01*
X242130952Y-94662619D02*
X241559524Y-94662619D01*
X241845238Y-94662619D02*
X241845238Y-93662619D01*
X241845238Y-93662619D02*
X241750000Y-93805476D01*
X241750000Y-93805476D02*
X241654762Y-93900714D01*
X241654762Y-93900714D02*
X241559524Y-93948333D01*
X242511905Y-93757857D02*
X242559524Y-93710238D01*
X242559524Y-93710238D02*
X242654762Y-93662619D01*
X242654762Y-93662619D02*
X242892857Y-93662619D01*
X242892857Y-93662619D02*
X242988095Y-93710238D01*
X242988095Y-93710238D02*
X243035714Y-93757857D01*
X243035714Y-93757857D02*
X243083333Y-93853095D01*
X243083333Y-93853095D02*
X243083333Y-93948333D01*
X243083333Y-93948333D02*
X243035714Y-94091190D01*
X243035714Y-94091190D02*
X242464286Y-94662619D01*
X242464286Y-94662619D02*
X243083333Y-94662619D01*
M02*
