G04 #@! TF.GenerationSoftware,KiCad,Pcbnew,(6.0.1-0)*
G04 #@! TF.CreationDate,2022-06-03T08:49:16-05:00*
G04 #@! TF.ProjectId,plate,706c6174-652e-46b6-9963-61645f706362,rev?*
G04 #@! TF.SameCoordinates,Original*
G04 #@! TF.FileFunction,Soldermask,Bot*
G04 #@! TF.FilePolarity,Negative*
%FSLAX46Y46*%
G04 Gerber Fmt 4.6, Leading zero omitted, Abs format (unit mm)*
G04 Created by KiCad (PCBNEW (6.0.1-0)) date 2022-06-03 08:49:16*
%MOMM*%
%LPD*%
G01*
G04 APERTURE LIST*
G04 Aperture macros list*
%AMRoundRect*
0 Rectangle with rounded corners*
0 $1 Rounding radius*
0 $2 $3 $4 $5 $6 $7 $8 $9 X,Y pos of 4 corners*
0 Add a 4 corners polygon primitive as box body*
4,1,4,$2,$3,$4,$5,$6,$7,$8,$9,$2,$3,0*
0 Add four circle primitives for the rounded corners*
1,1,$1+$1,$2,$3*
1,1,$1+$1,$4,$5*
1,1,$1+$1,$6,$7*
1,1,$1+$1,$8,$9*
0 Add four rect primitives between the rounded corners*
20,1,$1+$1,$2,$3,$4,$5,0*
20,1,$1+$1,$4,$5,$6,$7,0*
20,1,$1+$1,$6,$7,$8,$9,0*
20,1,$1+$1,$8,$9,$2,$3,0*%
G04 Aperture macros list end*
%ADD10C,0.200000*%
%ADD11C,2.000000*%
%ADD12C,3.500000*%
%ADD13RoundRect,0.237500X-0.287500X-0.237500X0.287500X-0.237500X0.287500X0.237500X-0.287500X0.237500X0*%
G04 APERTURE END LIST*
D10*
X359776261Y-37474882D02*
X359895309Y-37415358D01*
X359954833Y-37296310D01*
X359954833Y-36224882D01*
X358764357Y-36641548D02*
X358764357Y-37474882D01*
X359300071Y-36641548D02*
X359300071Y-37296310D01*
X359240547Y-37415358D01*
X359121499Y-37474882D01*
X358942928Y-37474882D01*
X358823880Y-37415358D01*
X358764357Y-37355834D01*
X357633404Y-37415358D02*
X357752452Y-37474882D01*
X357990547Y-37474882D01*
X358109595Y-37415358D01*
X358169118Y-37355834D01*
X358228642Y-37236786D01*
X358228642Y-36879644D01*
X358169118Y-36760596D01*
X358109595Y-36701072D01*
X357990547Y-36641548D01*
X357752452Y-36641548D01*
X357633404Y-36701072D01*
X357216737Y-36641548D02*
X356919118Y-37474882D01*
X356621499Y-36641548D02*
X356919118Y-37474882D01*
X357038166Y-37772501D01*
X357097690Y-37832025D01*
X357216737Y-37891548D01*
X355192928Y-36641548D02*
X355192928Y-37891548D01*
X355192928Y-36701072D02*
X355073880Y-36641548D01*
X354835785Y-36641548D01*
X354716737Y-36701072D01*
X354657214Y-36760596D01*
X354597690Y-36879644D01*
X354597690Y-37236786D01*
X354657214Y-37355834D01*
X354716737Y-37415358D01*
X354835785Y-37474882D01*
X355073880Y-37474882D01*
X355192928Y-37415358D01*
X353883404Y-37474882D02*
X354002452Y-37415358D01*
X354061976Y-37296310D01*
X354061976Y-36224882D01*
X352871499Y-37474882D02*
X352871499Y-36820120D01*
X352931023Y-36701072D01*
X353050071Y-36641548D01*
X353288166Y-36641548D01*
X353407214Y-36701072D01*
X352871499Y-37415358D02*
X352990547Y-37474882D01*
X353288166Y-37474882D01*
X353407214Y-37415358D01*
X353466737Y-37296310D01*
X353466737Y-37177263D01*
X353407214Y-37058215D01*
X353288166Y-36998691D01*
X352990547Y-36998691D01*
X352871499Y-36939167D01*
X352454833Y-36641548D02*
X351978642Y-36641548D01*
X352276261Y-36224882D02*
X352276261Y-37296310D01*
X352216737Y-37415358D01*
X352097690Y-37474882D01*
X351978642Y-37474882D01*
X351085785Y-37415358D02*
X351204833Y-37474882D01*
X351442928Y-37474882D01*
X351561976Y-37415358D01*
X351621499Y-37296310D01*
X351621499Y-36820120D01*
X351561976Y-36701072D01*
X351442928Y-36641548D01*
X351204833Y-36641548D01*
X351085785Y-36701072D01*
X351026261Y-36820120D01*
X351026261Y-36939167D01*
X351621499Y-37058215D01*
X349002452Y-37474882D02*
X349002452Y-36820120D01*
X349061976Y-36701072D01*
X349181023Y-36641548D01*
X349419118Y-36641548D01*
X349538166Y-36701072D01*
X349002452Y-37415358D02*
X349121499Y-37474882D01*
X349419118Y-37474882D01*
X349538166Y-37415358D01*
X349597690Y-37296310D01*
X349597690Y-37177263D01*
X349538166Y-37058215D01*
X349419118Y-36998691D01*
X349121499Y-36998691D01*
X349002452Y-36939167D01*
X347454833Y-37474882D02*
X347454833Y-36641548D01*
X347454833Y-36879644D02*
X347395309Y-36760596D01*
X347335785Y-36701072D01*
X347216737Y-36641548D01*
X347097690Y-36641548D01*
X346204833Y-37415358D02*
X346323880Y-37474882D01*
X346561976Y-37474882D01*
X346681023Y-37415358D01*
X346740547Y-37296310D01*
X346740547Y-36820120D01*
X346681023Y-36701072D01*
X346561976Y-36641548D01*
X346323880Y-36641548D01*
X346204833Y-36701072D01*
X346145309Y-36820120D01*
X346145309Y-36939167D01*
X346740547Y-37058215D01*
X345728642Y-36641548D02*
X345431023Y-37474882D01*
X345133404Y-36641548D01*
X343050071Y-37474882D02*
X343764357Y-37474882D01*
X343407214Y-37474882D02*
X343407214Y-36224882D01*
X343526261Y-36403453D01*
X343645309Y-36522501D01*
X343764357Y-36582025D01*
X342514357Y-37355834D02*
X342454833Y-37415358D01*
X342514357Y-37474882D01*
X342573880Y-37415358D01*
X342514357Y-37355834D01*
X342514357Y-37474882D01*
X341681023Y-36224882D02*
X341561976Y-36224882D01*
X341442928Y-36284406D01*
X341383404Y-36343929D01*
X341323880Y-36462977D01*
X341264357Y-36701072D01*
X341264357Y-36998691D01*
X341323880Y-37236786D01*
X341383404Y-37355834D01*
X341442928Y-37415358D01*
X341561976Y-37474882D01*
X341681023Y-37474882D01*
X341800071Y-37415358D01*
X341859595Y-37355834D01*
X341919118Y-37236786D01*
X341978642Y-36998691D01*
X341978642Y-36701072D01*
X341919118Y-36462977D01*
X341859595Y-36343929D01*
X341800071Y-36284406D01*
X341681023Y-36224882D01*
D11*
X161972530Y-43006460D02*
X149972530Y-43006460D01*
X162972530Y-56006460D02*
X162972530Y-44006460D01*
X161972530Y-57006460D02*
X149972530Y-57006460D01*
X148972530Y-56006460D02*
X148972530Y-44006460D01*
X148972530Y-56006460D02*
G75*
G03*
X149972530Y-57006460I999999J-1D01*
G01*
X161972530Y-57006460D02*
G75*
G03*
X162972530Y-56006460I1J999999D01*
G01*
X162972530Y-44006460D02*
G75*
G03*
X161972530Y-43006460I-999999J1D01*
G01*
X149972530Y-43006460D02*
G75*
G03*
X148972530Y-44006460I-1J-999999D01*
G01*
X182022610Y-56006460D02*
X182022610Y-44006460D01*
X168022610Y-56006460D02*
X168022610Y-44006460D01*
X181022610Y-57006460D02*
X169022610Y-57006460D01*
X181022610Y-43006460D02*
X169022610Y-43006460D01*
X169022610Y-43006460D02*
G75*
G03*
X168022610Y-44006460I-1J-999999D01*
G01*
X168022610Y-56006460D02*
G75*
G03*
X169022610Y-57006460I999999J-1D01*
G01*
X181022610Y-57006460D02*
G75*
G03*
X182022610Y-56006460I1J999999D01*
G01*
X182022610Y-44006460D02*
G75*
G03*
X181022610Y-43006460I-999999J1D01*
G01*
X200072690Y-43006460D02*
X188072690Y-43006460D01*
X200072690Y-57006460D02*
X188072690Y-57006460D01*
X201072690Y-56006460D02*
X201072690Y-44006460D01*
X187072690Y-56006460D02*
X187072690Y-44006460D01*
X187072690Y-56006460D02*
G75*
G03*
X188072690Y-57006460I999999J-1D01*
G01*
X200072690Y-57006460D02*
G75*
G03*
X201072690Y-56006460I1J999999D01*
G01*
X188072690Y-43006460D02*
G75*
G03*
X187072690Y-44006460I-1J-999999D01*
G01*
X201072690Y-44006460D02*
G75*
G03*
X200072690Y-43006460I-999999J1D01*
G01*
X206122770Y-56006460D02*
X206122770Y-44006460D01*
X220122770Y-56006460D02*
X220122770Y-44006460D01*
X219122770Y-43006460D02*
X207122770Y-43006460D01*
X219122770Y-57006460D02*
X207122770Y-57006460D01*
X220122770Y-44006460D02*
G75*
G03*
X219122770Y-43006460I-999999J1D01*
G01*
X219122770Y-57006460D02*
G75*
G03*
X220122770Y-56006460I1J999999D01*
G01*
X206122770Y-56006460D02*
G75*
G03*
X207122770Y-57006460I999999J-1D01*
G01*
X207122770Y-43006460D02*
G75*
G03*
X206122770Y-44006460I-1J-999999D01*
G01*
X225172850Y-56006460D02*
X225172850Y-44006460D01*
X239172850Y-56006460D02*
X239172850Y-44006460D01*
X238172850Y-57006460D02*
X226172850Y-57006460D01*
X238172850Y-43006460D02*
X226172850Y-43006460D01*
X238172850Y-57006460D02*
G75*
G03*
X239172850Y-56006460I1J999999D01*
G01*
X225172850Y-56006460D02*
G75*
G03*
X226172850Y-57006460I999999J-1D01*
G01*
X239172850Y-44006460D02*
G75*
G03*
X238172850Y-43006460I-999999J1D01*
G01*
X226172850Y-43006460D02*
G75*
G03*
X225172850Y-44006460I-1J-999999D01*
G01*
X334423250Y-56006460D02*
X334423250Y-44006460D01*
X333423250Y-57006460D02*
X321423250Y-57006460D01*
X320423250Y-56006460D02*
X320423250Y-44006460D01*
X333423250Y-43006460D02*
X321423250Y-43006460D01*
X334423250Y-44006460D02*
G75*
G03*
X333423250Y-43006460I-999999J1D01*
G01*
X320423250Y-56006460D02*
G75*
G03*
X321423250Y-57006460I999999J-1D01*
G01*
X333423250Y-57006460D02*
G75*
G03*
X334423250Y-56006460I1J999999D01*
G01*
X321423250Y-43006460D02*
G75*
G03*
X320423250Y-44006460I-1J-999999D01*
G01*
X353473330Y-56006460D02*
X353473330Y-44006460D01*
X352473330Y-43006460D02*
X340473330Y-43006460D01*
X339473330Y-56006460D02*
X339473330Y-44006460D01*
X352473330Y-57006460D02*
X340473330Y-57006460D01*
X353473330Y-44006460D02*
G75*
G03*
X352473330Y-43006460I-999999J1D01*
G01*
X352473330Y-57006460D02*
G75*
G03*
X353473330Y-56006460I1J999999D01*
G01*
X340473330Y-43006460D02*
G75*
G03*
X339473330Y-44006460I-1J-999999D01*
G01*
X339473330Y-56006460D02*
G75*
G03*
X340473330Y-57006460I999999J-1D01*
G01*
X161972530Y-76056540D02*
X149972530Y-76056540D01*
X148972530Y-75056540D02*
X148972530Y-63056540D01*
X161972530Y-62056540D02*
X149972530Y-62056540D01*
X162972530Y-75056540D02*
X162972530Y-63056540D01*
X161972530Y-76056540D02*
G75*
G03*
X162972530Y-75056540I1J999999D01*
G01*
X149972530Y-62056540D02*
G75*
G03*
X148972530Y-63056540I-1J-999999D01*
G01*
X162972530Y-63056540D02*
G75*
G03*
X161972530Y-62056540I-999999J1D01*
G01*
X148972530Y-75056540D02*
G75*
G03*
X149972530Y-76056540I999999J-1D01*
G01*
X201072690Y-75056540D02*
X201072690Y-63056540D01*
X200072690Y-62056540D02*
X188072690Y-62056540D01*
X200072690Y-76056540D02*
X188072690Y-76056540D01*
X187072690Y-75056540D02*
X187072690Y-63056540D01*
X187072690Y-75056540D02*
G75*
G03*
X188072690Y-76056540I999999J-1D01*
G01*
X200072690Y-76056540D02*
G75*
G03*
X201072690Y-75056540I1J999999D01*
G01*
X201072690Y-63056540D02*
G75*
G03*
X200072690Y-62056540I-999999J1D01*
G01*
X188072690Y-62056540D02*
G75*
G03*
X187072690Y-63056540I-1J-999999D01*
G01*
X239172850Y-75056540D02*
X239172850Y-63056540D01*
X225172850Y-75056540D02*
X225172850Y-63056540D01*
X238172850Y-76056540D02*
X226172850Y-76056540D01*
X238172850Y-62056540D02*
X226172850Y-62056540D01*
X225172850Y-75056540D02*
G75*
G03*
X226172850Y-76056540I999999J-1D01*
G01*
X238172850Y-76056540D02*
G75*
G03*
X239172850Y-75056540I1J999999D01*
G01*
X239172850Y-63056540D02*
G75*
G03*
X238172850Y-62056540I-999999J1D01*
G01*
X226172850Y-62056540D02*
G75*
G03*
X225172850Y-63056540I-1J-999999D01*
G01*
X257222930Y-62056540D02*
X245222930Y-62056540D01*
X258222930Y-75056540D02*
X258222930Y-63056540D01*
X257222930Y-76056540D02*
X245222930Y-76056540D01*
X244222930Y-75056540D02*
X244222930Y-63056540D01*
X257222930Y-76056540D02*
G75*
G03*
X258222930Y-75056540I1J999999D01*
G01*
X244222930Y-75056540D02*
G75*
G03*
X245222930Y-76056540I999999J-1D01*
G01*
X258222930Y-63056540D02*
G75*
G03*
X257222930Y-62056540I-999999J1D01*
G01*
X245222930Y-62056540D02*
G75*
G03*
X244222930Y-63056540I-1J-999999D01*
G01*
X276273010Y-76056540D02*
X264273010Y-76056540D01*
X277273010Y-75056540D02*
X277273010Y-63056540D01*
X276273010Y-62056540D02*
X264273010Y-62056540D01*
X263273010Y-75056540D02*
X263273010Y-63056540D01*
X264273010Y-62056540D02*
G75*
G03*
X263273010Y-63056540I-1J-999999D01*
G01*
X277273010Y-63056540D02*
G75*
G03*
X276273010Y-62056540I-999999J1D01*
G01*
X263273010Y-75056540D02*
G75*
G03*
X264273010Y-76056540I999999J-1D01*
G01*
X276273010Y-76056540D02*
G75*
G03*
X277273010Y-75056540I1J999999D01*
G01*
X295323090Y-76056540D02*
X283323090Y-76056540D01*
X282323090Y-75056540D02*
X282323090Y-63056540D01*
X295323090Y-62056540D02*
X283323090Y-62056540D01*
X296323090Y-75056540D02*
X296323090Y-63056540D01*
X295323090Y-76056540D02*
G75*
G03*
X296323090Y-75056540I1J999999D01*
G01*
X282323090Y-75056540D02*
G75*
G03*
X283323090Y-76056540I999999J-1D01*
G01*
X296323090Y-63056540D02*
G75*
G03*
X295323090Y-62056540I-999999J1D01*
G01*
X283323090Y-62056540D02*
G75*
G03*
X282323090Y-63056540I-1J-999999D01*
G01*
X301373170Y-75056540D02*
X301373170Y-63056540D01*
X314373170Y-62056540D02*
X302373170Y-62056540D01*
X315373170Y-75056540D02*
X315373170Y-63056540D01*
X314373170Y-76056540D02*
X302373170Y-76056540D01*
X301373170Y-75056540D02*
G75*
G03*
X302373170Y-76056540I999999J-1D01*
G01*
X302373170Y-62056540D02*
G75*
G03*
X301373170Y-63056540I-1J-999999D01*
G01*
X315373170Y-63056540D02*
G75*
G03*
X314373170Y-62056540I-999999J1D01*
G01*
X314373170Y-76056540D02*
G75*
G03*
X315373170Y-75056540I1J999999D01*
G01*
X333423250Y-76056540D02*
X321423250Y-76056540D01*
X333423250Y-62056540D02*
X321423250Y-62056540D01*
X334423250Y-75056540D02*
X334423250Y-63056540D01*
X320423250Y-75056540D02*
X320423250Y-63056540D01*
X333423250Y-76056540D02*
G75*
G03*
X334423250Y-75056540I1J999999D01*
G01*
X321423250Y-62056540D02*
G75*
G03*
X320423250Y-63056540I-1J-999999D01*
G01*
X334423250Y-63056540D02*
G75*
G03*
X333423250Y-62056540I-999999J1D01*
G01*
X320423250Y-75056540D02*
G75*
G03*
X321423250Y-76056540I999999J-1D01*
G01*
X339473330Y-75056540D02*
X339473330Y-63056540D01*
X352473330Y-76056540D02*
X340473330Y-76056540D01*
X352473330Y-62056540D02*
X340473330Y-62056540D01*
X353473330Y-75056540D02*
X353473330Y-63056540D01*
X339473330Y-75056540D02*
G75*
G03*
X340473330Y-76056540I999999J-1D01*
G01*
X352473330Y-76056540D02*
G75*
G03*
X353473330Y-75056540I1J999999D01*
G01*
X340473330Y-62056540D02*
G75*
G03*
X339473330Y-63056540I-1J-999999D01*
G01*
X353473330Y-63056540D02*
G75*
G03*
X352473330Y-62056540I-999999J1D01*
G01*
X372523410Y-75056540D02*
X372523410Y-63056540D01*
X358523410Y-75056540D02*
X358523410Y-63056540D01*
X371523410Y-76056540D02*
X359523410Y-76056540D01*
X371523410Y-62056540D02*
X359523410Y-62056540D01*
X372523410Y-63056540D02*
G75*
G03*
X371523410Y-62056540I-999999J1D01*
G01*
X371523410Y-76056540D02*
G75*
G03*
X372523410Y-75056540I1J999999D01*
G01*
X358523410Y-75056540D02*
G75*
G03*
X359523410Y-76056540I999999J-1D01*
G01*
X359523410Y-62056540D02*
G75*
G03*
X358523410Y-63056540I-1J-999999D01*
G01*
X161972530Y-81106620D02*
X149972530Y-81106620D01*
X148972530Y-94106620D02*
X148972530Y-82106620D01*
X162972530Y-94106620D02*
X162972530Y-82106620D01*
X161972530Y-95106620D02*
X149972530Y-95106620D01*
X148972530Y-94106620D02*
G75*
G03*
X149972530Y-95106620I999999J-1D01*
G01*
X149972530Y-81106620D02*
G75*
G03*
X148972530Y-82106620I-1J-999999D01*
G01*
X162972530Y-82106620D02*
G75*
G03*
X161972530Y-81106620I-999999J1D01*
G01*
X161972530Y-95106620D02*
G75*
G03*
X162972530Y-94106620I1J999999D01*
G01*
X181022610Y-95106620D02*
X169022610Y-95106620D01*
X168022610Y-94106620D02*
X168022610Y-82106620D01*
X182022610Y-94106620D02*
X182022610Y-82106620D01*
X181022610Y-81106620D02*
X169022610Y-81106620D01*
X169022610Y-81106620D02*
G75*
G03*
X168022610Y-82106620I-1J-999999D01*
G01*
X181022610Y-95106620D02*
G75*
G03*
X182022610Y-94106620I1J999999D01*
G01*
X168022610Y-94106620D02*
G75*
G03*
X169022610Y-95106620I999999J-1D01*
G01*
X182022610Y-82106620D02*
G75*
G03*
X181022610Y-81106620I-999999J1D01*
G01*
X201072690Y-94106620D02*
X201072690Y-82106620D01*
X200072690Y-95106620D02*
X188072690Y-95106620D01*
X187072690Y-94106620D02*
X187072690Y-82106620D01*
X200072690Y-81106620D02*
X188072690Y-81106620D01*
X201072690Y-82106620D02*
G75*
G03*
X200072690Y-81106620I-999999J1D01*
G01*
X187072690Y-94106620D02*
G75*
G03*
X188072690Y-95106620I999999J-1D01*
G01*
X188072690Y-81106620D02*
G75*
G03*
X187072690Y-82106620I-1J-999999D01*
G01*
X200072690Y-95106620D02*
G75*
G03*
X201072690Y-94106620I1J999999D01*
G01*
X206122770Y-94106620D02*
X206122770Y-82106620D01*
X220122770Y-94106620D02*
X220122770Y-82106620D01*
X219122770Y-81106620D02*
X207122770Y-81106620D01*
X219122770Y-95106620D02*
X207122770Y-95106620D01*
X219122770Y-95106620D02*
G75*
G03*
X220122770Y-94106620I1J999999D01*
G01*
X206122770Y-94106620D02*
G75*
G03*
X207122770Y-95106620I999999J-1D01*
G01*
X207122770Y-81106620D02*
G75*
G03*
X206122770Y-82106620I-1J-999999D01*
G01*
X220122770Y-82106620D02*
G75*
G03*
X219122770Y-81106620I-999999J1D01*
G01*
X238172850Y-81106620D02*
X226172850Y-81106620D01*
X225172850Y-94106620D02*
X225172850Y-82106620D01*
X239172850Y-94106620D02*
X239172850Y-82106620D01*
X238172850Y-95106620D02*
X226172850Y-95106620D01*
X239172850Y-82106620D02*
G75*
G03*
X238172850Y-81106620I-999999J1D01*
G01*
X226172850Y-81106620D02*
G75*
G03*
X225172850Y-82106620I-1J-999999D01*
G01*
X225172850Y-94106620D02*
G75*
G03*
X226172850Y-95106620I999999J-1D01*
G01*
X238172850Y-95106620D02*
G75*
G03*
X239172850Y-94106620I1J999999D01*
G01*
X244222930Y-94106620D02*
X244222930Y-82106620D01*
X257222930Y-95106620D02*
X245222930Y-95106620D01*
X258222930Y-94106620D02*
X258222930Y-82106620D01*
X257222930Y-81106620D02*
X245222930Y-81106620D01*
X245222930Y-81106620D02*
G75*
G03*
X244222930Y-82106620I-1J-999999D01*
G01*
X244222930Y-94106620D02*
G75*
G03*
X245222930Y-95106620I999999J-1D01*
G01*
X257222930Y-95106620D02*
G75*
G03*
X258222930Y-94106620I1J999999D01*
G01*
X258222930Y-82106620D02*
G75*
G03*
X257222930Y-81106620I-999999J1D01*
G01*
X276273010Y-81106620D02*
X264273010Y-81106620D01*
X276273010Y-95106620D02*
X264273010Y-95106620D01*
X263273010Y-94106620D02*
X263273010Y-82106620D01*
X277273010Y-94106620D02*
X277273010Y-82106620D01*
X264273010Y-81106620D02*
G75*
G03*
X263273010Y-82106620I-1J-999999D01*
G01*
X276273010Y-95106620D02*
G75*
G03*
X277273010Y-94106620I1J999999D01*
G01*
X277273010Y-82106620D02*
G75*
G03*
X276273010Y-81106620I-999999J1D01*
G01*
X263273010Y-94106620D02*
G75*
G03*
X264273010Y-95106620I999999J-1D01*
G01*
X295323090Y-81106620D02*
X283323090Y-81106620D01*
X282323090Y-94106620D02*
X282323090Y-82106620D01*
X295323090Y-95106620D02*
X283323090Y-95106620D01*
X296323090Y-94106620D02*
X296323090Y-82106620D01*
X282323090Y-94106620D02*
G75*
G03*
X283323090Y-95106620I999999J-1D01*
G01*
X283323090Y-81106620D02*
G75*
G03*
X282323090Y-82106620I-1J-999999D01*
G01*
X296323090Y-82106620D02*
G75*
G03*
X295323090Y-81106620I-999999J1D01*
G01*
X295323090Y-95106620D02*
G75*
G03*
X296323090Y-94106620I1J999999D01*
G01*
X314373170Y-95106620D02*
X302373170Y-95106620D01*
X301373170Y-94106620D02*
X301373170Y-82106620D01*
X314373170Y-81106620D02*
X302373170Y-81106620D01*
X315373170Y-94106620D02*
X315373170Y-82106620D01*
X315373170Y-82106620D02*
G75*
G03*
X314373170Y-81106620I-999999J1D01*
G01*
X314373170Y-95106620D02*
G75*
G03*
X315373170Y-94106620I1J999999D01*
G01*
X301373170Y-94106620D02*
G75*
G03*
X302373170Y-95106620I999999J-1D01*
G01*
X302373170Y-81106620D02*
G75*
G03*
X301373170Y-82106620I-1J-999999D01*
G01*
X333423250Y-95106620D02*
X321423250Y-95106620D01*
X333423250Y-81106620D02*
X321423250Y-81106620D01*
X320423250Y-94106620D02*
X320423250Y-82106620D01*
X334423250Y-94106620D02*
X334423250Y-82106620D01*
X333423250Y-95106620D02*
G75*
G03*
X334423250Y-94106620I1J999999D01*
G01*
X320423250Y-94106620D02*
G75*
G03*
X321423250Y-95106620I999999J-1D01*
G01*
X334423250Y-82106620D02*
G75*
G03*
X333423250Y-81106620I-999999J1D01*
G01*
X321423250Y-81106620D02*
G75*
G03*
X320423250Y-82106620I-1J-999999D01*
G01*
X353473330Y-94106620D02*
X353473330Y-82106620D01*
X339473330Y-94106620D02*
X339473330Y-82106620D01*
X352473330Y-95106620D02*
X340473330Y-95106620D01*
X352473330Y-81106620D02*
X340473330Y-81106620D01*
X340473330Y-81106620D02*
G75*
G03*
X339473330Y-82106620I-1J-999999D01*
G01*
X353473330Y-82106620D02*
G75*
G03*
X352473330Y-81106620I-999999J1D01*
G01*
X352473330Y-95106620D02*
G75*
G03*
X353473330Y-94106620I1J999999D01*
G01*
X339473330Y-94106620D02*
G75*
G03*
X340473330Y-95106620I999999J-1D01*
G01*
X358523410Y-94106620D02*
X358523410Y-82106620D01*
X372523410Y-94106620D02*
X372523410Y-82106620D01*
X371523410Y-81106620D02*
X359523410Y-81106620D01*
X371523410Y-95106620D02*
X359523410Y-95106620D01*
X371523410Y-95106620D02*
G75*
G03*
X372523410Y-94106620I1J999999D01*
G01*
X372523410Y-82106620D02*
G75*
G03*
X371523410Y-81106620I-999999J1D01*
G01*
X358523410Y-94106620D02*
G75*
G03*
X359523410Y-95106620I999999J-1D01*
G01*
X359523410Y-81106620D02*
G75*
G03*
X358523410Y-82106620I-1J-999999D01*
G01*
X181022610Y-100156700D02*
X169022610Y-100156700D01*
X168022610Y-113156700D02*
X168022610Y-101156700D01*
X182022610Y-113156700D02*
X182022610Y-101156700D01*
X181022610Y-114156700D02*
X169022610Y-114156700D01*
X169022610Y-100156700D02*
G75*
G03*
X168022610Y-101156700I-1J-999999D01*
G01*
X168022610Y-113156700D02*
G75*
G03*
X169022610Y-114156700I999999J-1D01*
G01*
X181022610Y-114156700D02*
G75*
G03*
X182022610Y-113156700I1J999999D01*
G01*
X182022610Y-101156700D02*
G75*
G03*
X181022610Y-100156700I-999999J1D01*
G01*
X200072690Y-100156700D02*
X188072690Y-100156700D01*
X200072690Y-114156700D02*
X188072690Y-114156700D01*
X201072690Y-113156700D02*
X201072690Y-101156700D01*
X187072690Y-113156700D02*
X187072690Y-101156700D01*
X200072690Y-114156700D02*
G75*
G03*
X201072690Y-113156700I1J999999D01*
G01*
X201072690Y-101156700D02*
G75*
G03*
X200072690Y-100156700I-999999J1D01*
G01*
X188072690Y-100156700D02*
G75*
G03*
X187072690Y-101156700I-1J-999999D01*
G01*
X187072690Y-113156700D02*
G75*
G03*
X188072690Y-114156700I999999J-1D01*
G01*
X206122770Y-113156700D02*
X206122770Y-101156700D01*
X220122770Y-113156700D02*
X220122770Y-101156700D01*
X219122770Y-114156700D02*
X207122770Y-114156700D01*
X219122770Y-100156700D02*
X207122770Y-100156700D01*
X219122770Y-114156700D02*
G75*
G03*
X220122770Y-113156700I1J999999D01*
G01*
X206122770Y-113156700D02*
G75*
G03*
X207122770Y-114156700I999999J-1D01*
G01*
X207122770Y-100156700D02*
G75*
G03*
X206122770Y-101156700I-1J-999999D01*
G01*
X220122770Y-101156700D02*
G75*
G03*
X219122770Y-100156700I-999999J1D01*
G01*
X238172850Y-100156700D02*
X226172850Y-100156700D01*
X225172850Y-113156700D02*
X225172850Y-101156700D01*
X238172850Y-114156700D02*
X226172850Y-114156700D01*
X239172850Y-113156700D02*
X239172850Y-101156700D01*
X225172850Y-113156700D02*
G75*
G03*
X226172850Y-114156700I999999J-1D01*
G01*
X239172850Y-101156700D02*
G75*
G03*
X238172850Y-100156700I-999999J1D01*
G01*
X226172850Y-100156700D02*
G75*
G03*
X225172850Y-101156700I-1J-999999D01*
G01*
X238172850Y-114156700D02*
G75*
G03*
X239172850Y-113156700I1J999999D01*
G01*
X244222930Y-113156700D02*
X244222930Y-101156700D01*
X257222930Y-100156700D02*
X245222930Y-100156700D01*
X258222930Y-113156700D02*
X258222930Y-101156700D01*
X257222930Y-114156700D02*
X245222930Y-114156700D01*
X245222930Y-100156700D02*
G75*
G03*
X244222930Y-101156700I-1J-999999D01*
G01*
X258222930Y-101156700D02*
G75*
G03*
X257222930Y-100156700I-999999J1D01*
G01*
X244222930Y-113156700D02*
G75*
G03*
X245222930Y-114156700I999999J-1D01*
G01*
X257222930Y-114156700D02*
G75*
G03*
X258222930Y-113156700I1J999999D01*
G01*
X276273010Y-114156700D02*
X264273010Y-114156700D01*
X276273010Y-100156700D02*
X264273010Y-100156700D01*
X263273010Y-113156700D02*
X263273010Y-101156700D01*
X277273010Y-113156700D02*
X277273010Y-101156700D01*
X263273010Y-113156700D02*
G75*
G03*
X264273010Y-114156700I999999J-1D01*
G01*
X276273010Y-114156700D02*
G75*
G03*
X277273010Y-113156700I1J999999D01*
G01*
X264273010Y-100156700D02*
G75*
G03*
X263273010Y-101156700I-1J-999999D01*
G01*
X277273010Y-101156700D02*
G75*
G03*
X276273010Y-100156700I-999999J1D01*
G01*
X295323090Y-114156700D02*
X283323090Y-114156700D01*
X296323090Y-113156700D02*
X296323090Y-101156700D01*
X295323090Y-100156700D02*
X283323090Y-100156700D01*
X282323090Y-113156700D02*
X282323090Y-101156700D01*
X282323090Y-113156700D02*
G75*
G03*
X283323090Y-114156700I999999J-1D01*
G01*
X295323090Y-114156700D02*
G75*
G03*
X296323090Y-113156700I1J999999D01*
G01*
X296323090Y-101156700D02*
G75*
G03*
X295323090Y-100156700I-999999J1D01*
G01*
X283323090Y-100156700D02*
G75*
G03*
X282323090Y-101156700I-1J-999999D01*
G01*
X314373170Y-100156700D02*
X302373170Y-100156700D01*
X315373170Y-113156700D02*
X315373170Y-101156700D01*
X314373170Y-114156700D02*
X302373170Y-114156700D01*
X301373170Y-113156700D02*
X301373170Y-101156700D01*
X315373170Y-101156700D02*
G75*
G03*
X314373170Y-100156700I-999999J1D01*
G01*
X314373170Y-114156700D02*
G75*
G03*
X315373170Y-113156700I1J999999D01*
G01*
X301373170Y-113156700D02*
G75*
G03*
X302373170Y-114156700I999999J-1D01*
G01*
X302373170Y-100156700D02*
G75*
G03*
X301373170Y-101156700I-1J-999999D01*
G01*
X334423250Y-113156700D02*
X334423250Y-101156700D01*
X333423250Y-100156700D02*
X321423250Y-100156700D01*
X320423250Y-113156700D02*
X320423250Y-101156700D01*
X333423250Y-114156700D02*
X321423250Y-114156700D01*
X333423250Y-114156700D02*
G75*
G03*
X334423250Y-113156700I1J999999D01*
G01*
X320423250Y-113156700D02*
G75*
G03*
X321423250Y-114156700I999999J-1D01*
G01*
X321423250Y-100156700D02*
G75*
G03*
X320423250Y-101156700I-1J-999999D01*
G01*
X334423250Y-101156700D02*
G75*
G03*
X333423250Y-100156700I-999999J1D01*
G01*
X352473330Y-114160000D02*
X340473330Y-114160000D01*
X339473330Y-113160000D02*
X339473330Y-101160000D01*
X353473330Y-113160000D02*
X353473330Y-101160000D01*
X352473330Y-100160000D02*
X340473330Y-100160000D01*
X340473330Y-100160000D02*
G75*
G03*
X339473330Y-101160000I-1J-999999D01*
G01*
X352473330Y-114160000D02*
G75*
G03*
X353473330Y-113160000I1J999999D01*
G01*
X339473330Y-113160000D02*
G75*
G03*
X340473330Y-114160000I999999J-1D01*
G01*
X353473330Y-101160000D02*
G75*
G03*
X352473330Y-100160000I-999999J1D01*
G01*
X371523410Y-100156700D02*
X359523410Y-100156700D01*
X372523410Y-113156700D02*
X372523410Y-101156700D01*
X358523410Y-113156700D02*
X358523410Y-101156700D01*
X371523410Y-114156700D02*
X359523410Y-114156700D01*
X358523410Y-113156700D02*
G75*
G03*
X359523410Y-114156700I999999J-1D01*
G01*
X359523410Y-100156700D02*
G75*
G03*
X358523410Y-101156700I-1J-999999D01*
G01*
X372523410Y-101156700D02*
G75*
G03*
X371523410Y-100156700I-999999J1D01*
G01*
X371523410Y-114156700D02*
G75*
G03*
X372523410Y-113156700I1J999999D01*
G01*
X162972530Y-113156700D02*
X162972530Y-101156700D01*
X148972530Y-113156700D02*
X148972530Y-101156700D01*
X161972530Y-114156700D02*
X149972530Y-114156700D01*
X161972530Y-100156700D02*
X149972530Y-100156700D01*
X162972530Y-101156700D02*
G75*
G03*
X161972530Y-100156700I-999999J1D01*
G01*
X149972530Y-100156700D02*
G75*
G03*
X148972530Y-101156700I-1J-999999D01*
G01*
X161972530Y-114156700D02*
G75*
G03*
X162972530Y-113156700I1J999999D01*
G01*
X148972530Y-113156700D02*
G75*
G03*
X149972530Y-114156700I999999J-1D01*
G01*
X168022610Y-75056540D02*
X168022610Y-63056540D01*
X182022610Y-75056540D02*
X182022610Y-63056540D01*
X181022610Y-76056540D02*
X169022610Y-76056540D01*
X181022610Y-62056540D02*
X169022610Y-62056540D01*
X181022610Y-76056540D02*
G75*
G03*
X182022610Y-75056540I1J999999D01*
G01*
X182022610Y-63056540D02*
G75*
G03*
X181022610Y-62056540I-999999J1D01*
G01*
X169022610Y-62056540D02*
G75*
G03*
X168022610Y-63056540I-1J-999999D01*
G01*
X168022610Y-75056540D02*
G75*
G03*
X169022610Y-76056540I999999J-1D01*
G01*
X396335890Y-94106428D02*
X396335890Y-82106428D01*
X382335890Y-94106428D02*
X382335890Y-82106428D01*
X395335890Y-81106428D02*
X383335890Y-81106428D01*
X395335890Y-95106428D02*
X383335890Y-95106428D01*
X396335890Y-82106428D02*
G75*
G03*
X395335890Y-81106428I-999999J1D01*
G01*
X383335890Y-81106428D02*
G75*
G03*
X382335890Y-82106428I-1J-999999D01*
G01*
X382335890Y-94106428D02*
G75*
G03*
X383335890Y-95106428I999999J-1D01*
G01*
X395335890Y-95106428D02*
G75*
G03*
X396335890Y-94106428I1J999999D01*
G01*
X395335890Y-76056444D02*
X383335890Y-76056444D01*
X382335890Y-75056444D02*
X382335890Y-63056444D01*
X395335890Y-62056444D02*
X383335890Y-62056444D01*
X396335890Y-75056444D02*
X396335890Y-63056444D01*
X382335890Y-75056444D02*
G75*
G03*
X383335890Y-76056444I999999J-1D01*
G01*
X395335890Y-76056444D02*
G75*
G03*
X396335890Y-75056444I1J999999D01*
G01*
X396335890Y-63056444D02*
G75*
G03*
X395335890Y-62056444I-999999J1D01*
G01*
X383335890Y-62056444D02*
G75*
G03*
X382335890Y-63056444I-1J-999999D01*
G01*
X383336010Y-58031460D02*
X395328903Y-58031460D01*
X396336010Y-57031460D02*
X396336010Y-43031460D01*
X383336010Y-42031460D02*
X395336010Y-42031460D01*
X382336010Y-57031460D02*
X382336010Y-43031460D01*
X382336010Y-57031460D02*
G75*
G03*
X383336010Y-58031460I999999J-1D01*
G01*
X383336010Y-42031460D02*
G75*
G03*
X382336010Y-43031460I-1J-999999D01*
G01*
X395328903Y-58031460D02*
G75*
G03*
X396328903Y-57031460I1J999999D01*
G01*
X396336010Y-43031460D02*
G75*
G03*
X395336010Y-42031460I-999999J1D01*
G01*
X371523410Y-57006460D02*
X359523410Y-57006460D01*
X372523410Y-56006460D02*
X372523410Y-44006460D01*
X371523410Y-43006460D02*
X359523410Y-43006460D01*
X358523410Y-56006460D02*
X358523410Y-44006460D01*
X371523410Y-57006460D02*
G75*
G03*
X372523410Y-56006460I1J999999D01*
G01*
X359523410Y-43006460D02*
G75*
G03*
X358523410Y-44006460I-1J-999999D01*
G01*
X372523410Y-44006460D02*
G75*
G03*
X371523410Y-43006460I-999999J1D01*
G01*
X358523410Y-56006460D02*
G75*
G03*
X359523410Y-57006460I999999J-1D01*
G01*
X396336010Y-113156700D02*
X396336010Y-101156700D01*
X395336010Y-114156700D02*
X383336010Y-114156700D01*
X382336010Y-113156700D02*
X382336010Y-101156700D01*
X395336010Y-100156700D02*
X383336010Y-100156700D01*
X396336010Y-101156700D02*
G75*
G03*
X395336010Y-100156700I-999999J1D01*
G01*
X383336010Y-100156700D02*
G75*
G03*
X382336010Y-101156700I-1J-999999D01*
G01*
X395336010Y-114156700D02*
G75*
G03*
X396336010Y-113156700I1J999999D01*
G01*
X382336010Y-113156700D02*
G75*
G03*
X383336010Y-114156700I999999J-1D01*
G01*
X206122770Y-75056540D02*
X206122770Y-63056540D01*
X220122770Y-75056540D02*
X220122770Y-63056540D01*
X219122770Y-76056540D02*
X207122770Y-76056540D01*
X219122770Y-62056540D02*
X207122770Y-62056540D01*
X219122770Y-76056540D02*
G75*
G03*
X220122770Y-75056540I1J999999D01*
G01*
X220122770Y-63056540D02*
G75*
G03*
X219122770Y-62056540I-999999J1D01*
G01*
X207122770Y-62056540D02*
G75*
G03*
X206122770Y-63056540I-1J-999999D01*
G01*
X206122770Y-75056540D02*
G75*
G03*
X207122770Y-76056540I999999J-1D01*
G01*
X257223314Y-57006460D02*
X245223314Y-57006460D01*
X244223314Y-56006460D02*
X244223314Y-44006460D01*
X257223314Y-43006460D02*
X245223314Y-43006460D01*
X258223314Y-56006460D02*
X258223314Y-44006460D01*
X257223314Y-57006460D02*
G75*
G03*
X258223314Y-56006460I1J999999D01*
G01*
X245223314Y-43006460D02*
G75*
G03*
X244223314Y-44006460I-1J-999999D01*
G01*
X258223314Y-44006460D02*
G75*
G03*
X257223314Y-43006460I-999999J1D01*
G01*
X244223314Y-56006460D02*
G75*
G03*
X245223314Y-57006460I999999J-1D01*
G01*
X263273330Y-56006460D02*
X263273330Y-44006460D01*
X276273330Y-57006460D02*
X264273330Y-57006460D01*
X277273330Y-56006460D02*
X277273330Y-44006460D01*
X276273330Y-43006460D02*
X264273330Y-43006460D01*
X264273330Y-43006460D02*
G75*
G03*
X263273330Y-44006460I-1J-999999D01*
G01*
X263273330Y-56006460D02*
G75*
G03*
X264273330Y-57006460I999999J-1D01*
G01*
X277273330Y-44006460D02*
G75*
G03*
X276273330Y-43006460I-999999J1D01*
G01*
X276273330Y-57006460D02*
G75*
G03*
X277273330Y-56006460I1J999999D01*
G01*
X295323346Y-43006460D02*
X283323346Y-43006460D01*
X295323346Y-57006460D02*
X283323346Y-57006460D01*
X296323346Y-56006460D02*
X296323346Y-44006460D01*
X282323346Y-56006460D02*
X282323346Y-44006460D01*
X283323346Y-43006460D02*
G75*
G03*
X282323346Y-44006460I-1J-999999D01*
G01*
X296323346Y-44006460D02*
G75*
G03*
X295323346Y-43006460I-999999J1D01*
G01*
X282323346Y-56006460D02*
G75*
G03*
X283323346Y-57006460I999999J-1D01*
G01*
X295323346Y-57006460D02*
G75*
G03*
X296323346Y-56006460I1J999999D01*
G01*
X301373362Y-56006460D02*
X301373362Y-44006460D01*
X315373362Y-56006460D02*
X315373362Y-44006460D01*
X314373362Y-43006460D02*
X302373362Y-43006460D01*
X314373362Y-57006460D02*
X302373362Y-57006460D01*
X302373362Y-43006460D02*
G75*
G03*
X301373362Y-44006460I-1J-999999D01*
G01*
X315373362Y-44006460D02*
G75*
G03*
X314373362Y-43006460I-999999J1D01*
G01*
X301373362Y-56006460D02*
G75*
G03*
X302373362Y-57006460I999999J-1D01*
G01*
X314373362Y-57006460D02*
G75*
G03*
X315373362Y-56006460I1J999999D01*
G01*
D12*
X377429670Y-50006460D03*
X355997174Y-97631332D03*
X233362696Y-37504719D03*
X233362696Y-119657913D03*
X155972006Y-37504719D03*
X389334702Y-37504719D03*
X377428442Y-107156340D03*
X165497014Y-97631332D03*
X355997174Y-59531300D03*
X171450144Y-59531300D03*
X155972006Y-119657913D03*
X311944012Y-119657913D03*
X311944012Y-37504719D03*
X389334702Y-119657913D03*
D13*
X389056243Y-60126781D03*
X390806243Y-60126781D03*
M02*
