G04 #@! TF.GenerationSoftware,KiCad,Pcbnew,(6.0.1-0)*
G04 #@! TF.CreationDate,2022-06-03T08:49:16-05:00*
G04 #@! TF.ProjectId,plate,706c6174-652e-46b6-9963-61645f706362,rev?*
G04 #@! TF.SameCoordinates,Original*
G04 #@! TF.FileFunction,Legend,Bot*
G04 #@! TF.FilePolarity,Positive*
%FSLAX46Y46*%
G04 Gerber Fmt 4.6, Leading zero omitted, Abs format (unit mm)*
G04 Created by KiCad (PCBNEW (6.0.1-0)) date 2022-06-03 08:49:16*
%MOMM*%
%LPD*%
G01*
G04 APERTURE LIST*
%ADD10C,0.150000*%
G04 APERTURE END LIST*
D10*
X393953749Y-97083712D02*
X393953749Y-97797998D01*
X394001368Y-97940855D01*
X394096606Y-98036093D01*
X394239463Y-98083712D01*
X394334702Y-98083712D01*
X393001368Y-98083712D02*
X393477559Y-98083712D01*
X393477559Y-97083712D01*
X392096606Y-97988474D02*
X392144225Y-98036093D01*
X392287082Y-98083712D01*
X392382321Y-98083712D01*
X392525178Y-98036093D01*
X392620416Y-97940855D01*
X392668035Y-97845617D01*
X392715654Y-97655141D01*
X392715654Y-97512284D01*
X392668035Y-97321808D01*
X392620416Y-97226570D01*
X392525178Y-97131332D01*
X392382321Y-97083712D01*
X392287082Y-97083712D01*
X392144225Y-97131332D01*
X392096606Y-97178951D01*
X391382321Y-97083712D02*
X391382321Y-97797998D01*
X391429940Y-97940855D01*
X391525178Y-98036093D01*
X391668035Y-98083712D01*
X391763273Y-98083712D01*
X390429940Y-98083712D02*
X390906130Y-98083712D01*
X390906130Y-97083712D01*
X389525178Y-97988474D02*
X389572797Y-98036093D01*
X389715654Y-98083712D01*
X389810892Y-98083712D01*
X389953749Y-98036093D01*
X390048987Y-97940855D01*
X390096606Y-97845617D01*
X390144225Y-97655141D01*
X390144225Y-97512284D01*
X390096606Y-97321808D01*
X390048987Y-97226570D01*
X389953749Y-97131332D01*
X389810892Y-97083712D01*
X389715654Y-97083712D01*
X389572797Y-97131332D01*
X389525178Y-97178951D01*
X388810892Y-97083712D02*
X388810892Y-97797998D01*
X388858511Y-97940855D01*
X388953749Y-98036093D01*
X389096606Y-98083712D01*
X389191844Y-98083712D01*
X387858511Y-98083712D02*
X388334702Y-98083712D01*
X388334702Y-97083712D01*
X386953749Y-97988474D02*
X387001368Y-98036093D01*
X387144225Y-98083712D01*
X387239463Y-98083712D01*
X387382321Y-98036093D01*
X387477559Y-97940855D01*
X387525178Y-97845617D01*
X387572797Y-97655141D01*
X387572797Y-97512284D01*
X387525178Y-97321808D01*
X387477559Y-97226570D01*
X387382321Y-97131332D01*
X387239463Y-97083712D01*
X387144225Y-97083712D01*
X387001368Y-97131332D01*
X386953749Y-97178951D01*
X386239463Y-97083712D02*
X386239463Y-97797998D01*
X386287082Y-97940855D01*
X386382321Y-98036093D01*
X386525178Y-98083712D01*
X386620416Y-98083712D01*
X385287082Y-98083712D02*
X385763273Y-98083712D01*
X385763273Y-97083712D01*
X384382321Y-97988474D02*
X384429940Y-98036093D01*
X384572797Y-98083712D01*
X384668035Y-98083712D01*
X384810892Y-98036093D01*
X384906130Y-97940855D01*
X384953749Y-97845617D01*
X385001368Y-97655141D01*
X385001368Y-97512284D01*
X384953749Y-97321808D01*
X384906130Y-97226570D01*
X384810892Y-97131332D01*
X384668035Y-97083712D01*
X384572797Y-97083712D01*
X384429940Y-97131332D01*
X384382321Y-97178951D01*
M02*
