M48
; DRILL file {KiCad 7.0.1-0} date 2023 April 28, Friday 12:46:08
; FORMAT={-:-/ absolute / inch / decimal}
; #@! TF.CreationDate,2023-04-28T12:46:08-05:00
; #@! TF.GenerationSoftware,Kicad,Pcbnew,7.0.1-0
; #@! TF.FileFunction,Plated,1,2,PTH
FMAT,2
INCH
; #@! TA.AperFunction,Plated,PTH,ViaDrill
T1C0.0160
; #@! TA.AperFunction,Plated,PTH,ComponentDrill
T2C0.0300
; #@! TA.AperFunction,Plated,PTH,ComponentDrill
T3C0.0394
; #@! TA.AperFunction,Plated,PTH,ComponentDrill
T4C0.1181
%
G90
G05
T1
X1.0827Y-3.6959
X1.0846Y-0.8907
X1.1319Y-2.2953
X1.1679Y-2.1969
X1.1709Y-2.8504
X1.2094Y-2.911
X1.2476Y-2.1969
X1.2506Y-2.8504
X1.4892Y-2.8711
X1.4892Y-2.9508
X1.9224Y-2.19
X1.9224Y-2.4705
X1.9224Y-3.1083
X1.9594Y-2.878
X1.9953Y-2.19
X1.9953Y-2.4705
X1.9953Y-3.1083
X2.2313Y-2.7628
X2.2313Y-2.8435
X2.2313Y-2.9754
X2.2313Y-3.5108
X2.2313Y-3.5906
X2.25Y-2.0098
X2.25Y-2.0896
X2.4843Y-0.8907
X2.4843Y-3.6447
X2.6116Y-1.2598
X2.6116Y-1.3396
X2.6116Y-2.0896
X2.6118Y-2.0106
X2.6663Y-1.3713
X2.6663Y-1.5689
X2.6713Y-2.19
X2.6713Y-2.4705
X2.6713Y-3.1083
X2.7094Y-2.8575
X2.7441Y-2.19
X2.7441Y-2.4705
X2.7441Y-3.1083
X2.7461Y-1.3713
X2.7461Y-1.5689
X2.9852Y-2.7628
X2.9852Y-2.8366
X2.9852Y-2.9754
X2.9902Y-3.5108
X2.9902Y-3.5906
X3.3705Y-2.0197
X3.3705Y-2.0994
X3.3744Y-1.2591
X3.3744Y-1.3386
X3.4185Y-1.6801
X3.4195Y-1.4213
X3.4195Y-1.5689
X3.4244Y-2.19
X3.4244Y-2.4705
X3.4244Y-3.1083
X3.4594Y-2.8521
X3.4972Y-2.19
X3.4972Y-2.4705
X3.4972Y-3.1083
X3.4982Y-1.6801
X3.4992Y-1.4213
X3.4992Y-1.5689
X3.7264Y-2.7923
X3.7264Y-2.9754
X3.7343Y-3.5108
X3.7343Y-3.5906
X4.1185Y-1.2589
X4.1185Y-1.3386
X4.1205Y-2.0197
X4.1205Y-2.0994
X4.1654Y-1.6752
X4.1663Y-1.4213
X4.1663Y-1.5689
X4.1713Y-2.19
X4.1713Y-2.4705
X4.1713Y-3.1083
X4.2094Y-2.2504
X4.2441Y-2.19
X4.2441Y-2.4705
X4.2441Y-3.1083
X4.2451Y-1.6752
X4.2461Y-1.4213
X4.2461Y-1.5689
X4.4793Y-2.7923
X4.4793Y-2.9754
X4.4892Y-3.5118
X4.4892Y-3.5915
X4.5Y-2.2303
X4.5Y-2.3297
X4.7343Y-0.8907
X4.7343Y-3.6969
X4.8705Y-1.2589
X4.8705Y-1.3386
X4.8705Y-2.0098
X4.8705Y-2.0896
X4.9175Y-1.4213
X4.9175Y-1.5689
X4.9224Y-2.19
X4.9224Y-2.4705
X4.9224Y-3.1083
X4.9594Y-2.2319
X4.9953Y-2.19
X4.9953Y-2.4705
X4.9953Y-3.1083
X4.9972Y-1.4213
X4.9972Y-1.5689
X5.2323Y-3.5118
X5.2323Y-3.5915
X5.2569Y-2.7923
X5.2569Y-2.9754
X5.6165Y-2.0098
X5.6165Y-2.0896
X5.6175Y-1.2589
X5.6175Y-1.3386
X5.6671Y-1.4213
X5.6671Y-1.5689
X5.6701Y-2.1575
X5.672Y-2.4705
X5.672Y-3.1083
X5.7094Y-2.2193
X5.7429Y-2.1575
X5.7449Y-2.4705
X5.7449Y-3.1083
X5.7469Y-1.4213
X5.7469Y-1.5689
X5.9852Y-3.5118
X5.9852Y-3.5915
X6.0079Y-2.188
X6.0079Y-2.3159
X6.0079Y-2.7923
X6.0079Y-2.9754
X6.3705Y-2.0098
X6.3705Y-2.0896
X6.3744Y-1.2589
X6.3744Y-1.3386
X6.4189Y-1.4203
X6.4189Y-1.5679
X6.4236Y-2.1398
X6.4238Y-2.4695
X6.4238Y-3.1073
X6.4594Y-2.2016
X6.4967Y-2.4695
X6.4967Y-3.1073
X6.4986Y-1.4203
X6.4986Y-1.5679
X6.5006Y-2.1398
X6.7205Y-2.1801
X6.7205Y-2.3061
X6.7313Y-3.5118
X6.7313Y-3.5915
X6.7539Y-2.7923
X6.7539Y-2.9754
X6.9843Y-0.8907
X6.9843Y-3.6969
X7.1224Y-1.2589
X7.1224Y-1.3386
X7.1224Y-2.0098
X7.1224Y-2.0896
X7.1634Y-1.4203
X7.1634Y-1.5679
X7.1683Y-2.4695
X7.1683Y-3.1073
X7.1768Y-2.1299
X7.2094Y-2.1874
X7.2411Y-2.4695
X7.2411Y-3.1073
X7.2431Y-1.4203
X7.2431Y-1.5679
X7.2461Y-2.1299
X7.4803Y-2.1531
X7.4803Y-2.3155
X7.4803Y-2.7923
X7.4803Y-2.9754
X7.4892Y-3.5118
X7.4892Y-3.5915
X7.8665Y-2.0098
X7.8665Y-2.0896
X7.8754Y-1.2589
X7.8754Y-1.3386
X7.9146Y-1.4157
X7.9171Y-1.5679
X7.922Y-2.4695
X7.922Y-3.1073
X7.9224Y-2.1154
X7.9594Y-2.1732
X7.9949Y-2.4695
X7.9949Y-3.1073
X7.9965Y-1.4157
X7.9984Y-1.5677
X8.002Y-2.1154
X8.2333Y-3.5118
X8.2333Y-3.5915
X8.2352Y-2.1388
X8.2352Y-2.3219
X8.2362Y-2.7923
X8.2362Y-2.9754
X8.6333Y-2.0187
X8.6333Y-2.0886
X8.6679Y-1.6748
X8.6701Y-2.4705
X8.6701Y-3.1083
X8.6711Y-2.1447
X8.7094Y-1.2717
X8.7429Y-2.4705
X8.7429Y-3.1083
X8.7439Y-2.1447
X8.7476Y-1.6748
X8.978Y-1.2515
X8.978Y-1.3312
X8.9862Y-3.5118
X8.9862Y-3.5915
X9.0167Y-2.7953
X9.0167Y-2.9783
X9.0197Y-2.1388
X9.0197Y-2.3219
X9.0413Y-1.4365
X9.0413Y-1.5162
X9.1575Y-1.5507
X9.1575Y-1.6304
X9.2333Y-0.8907
X9.3774Y-2.0089
X9.3774Y-2.0886
X9.4199Y-1.4264
X9.4224Y-3.1083
X9.4234Y-2.4705
X9.4244Y-2.1427
X9.4324Y-1.2705
X9.4953Y-3.1083
X9.4963Y-2.4705
X9.4972Y-2.1427
X9.4996Y-1.4264
X9.565Y-1.6732
X9.6388Y-1.439
X9.6388Y-1.5187
X9.6929Y-2.3041
X9.7313Y-3.5118
X9.7313Y-3.5915
X9.7382Y-1.2691
X9.7382Y-1.3354
X9.7382Y-1.4291
X9.7579Y-2.7953
X9.7579Y-2.9783
X9.7667Y-2.1457
X9.8691Y-1.5522
X9.8691Y-1.6319
X9.8848Y-2.0581
X9.8848Y-2.3996
X9.9173Y-3.1102
X9.936Y-1.877
X9.939Y-1.439
X9.939Y-1.5187
X9.9419Y-2.6289
X9.9813Y-3.5512
X9.9846Y-2.7992
X9.9902Y-3.1102
X10.0091Y-1.3024
X10.0098Y-1.2116
X10.0138Y-1.9094
X10.0508Y-1.3906
X10.0531Y-2.8022
X10.061Y-2.0797
X10.061Y-2.1663
X10.061Y-2.2746
X10.061Y-2.3652
X10.0945Y-3.5118
X10.0945Y-3.5915
X10.1191Y-2.0807
X10.1191Y-2.1673
X10.1191Y-2.2756
X10.1191Y-2.3661
X10.1407Y-1.3681
X10.1831Y-2.0797
X10.1831Y-2.1663
X10.1831Y-2.2746
X10.1831Y-2.3652
X10.187Y-2.8022
X10.2185Y-1.9094
X10.226Y-3.1724
X10.2272Y-3.4531
X10.2283Y-2.9085
X10.2461Y-2.0807
X10.2461Y-2.1673
X10.2461Y-2.2756
X10.2461Y-2.3661
X10.249Y-2.6309
X10.253Y-2.5561
X10.2937Y-1.5398
X10.2937Y-1.626
X10.2976Y-2.7476
X10.31Y-2.0787
X10.31Y-2.1654
X10.31Y-2.2736
X10.31Y-2.3642
X10.3299Y-2.7732
X10.3652Y-2.747
X10.3839Y-1.9409
X10.3951Y-2.7733
X10.4004Y-3.1724
X10.4035Y-3.4531
X10.4047Y-2.9102
X10.4114Y-2.4724
X10.4173Y-1.7224
X10.4173Y-1.9734
X10.4224Y-1.626
X10.4228Y-1.5398
X10.4279Y-2.7478
X10.4461Y-2.4406
X10.4606Y-2.7733
X10.4626Y-1.5738
X10.4636Y-2.0482
X10.4783Y-2.4734
X10.4921Y-3.5512
X10.4931Y-2.0797
X10.502Y-1.5108
X10.5047Y-1.3024
X10.5069Y-2.4409
X10.5295Y-2.8022
X10.5339Y-2.4705
X10.5404Y-1.9862
X10.5423Y-1.5738
X10.564Y-2.2008
X10.872Y-3.5118
X10.872Y-3.5915
X10.876Y-2.7628
X10.876Y-2.8425
X10.9252Y-2.1516
X10.9252Y-2.2579
X10.998Y-3.6969
X11.0128Y-0.8907
X11.0512Y-2.2963
T2
X10.251Y-0.9193
X10.251Y-1.0193
X10.251Y-1.1193
X10.251Y-1.2193
X10.251Y-1.3193
X10.251Y-1.4193
T3
X10.0423Y-3.6909
X10.1423Y-3.6909
X10.2423Y-3.6909
X10.3423Y-3.6909
X10.4423Y-3.6909
X10.5423Y-3.6909
X10.6423Y-3.6909
X10.7423Y-3.6909
T4
X1.2094Y-1.0719
X1.2094Y-1.8219
X1.2094Y-2.5719
X1.2094Y-3.3219
X1.4594Y-0.9719
X1.4594Y-1.7219
X1.4594Y-2.4719
X1.4594Y-3.2219
X1.9594Y-1.0719
X1.9594Y-1.8219
X1.9594Y-2.5719
X1.9594Y-3.3219
X2.2094Y-0.9719
X2.2094Y-1.7219
X2.2094Y-2.4719
X2.2094Y-3.2219
X2.7094Y-1.0719
X2.7094Y-1.8219
X2.7094Y-2.5719
X2.7094Y-3.3219
X2.9594Y-0.9719
X2.9594Y-1.7219
X2.9594Y-2.4719
X2.9594Y-3.2219
X3.4594Y-1.0719
X3.4594Y-1.8219
X3.4594Y-2.5719
X3.4594Y-3.3219
X3.7094Y-0.9719
X3.7094Y-1.7219
X3.7094Y-2.4719
X3.7094Y-3.2219
X4.2094Y-1.0719
X4.2094Y-1.8219
X4.2094Y-2.5719
X4.2094Y-3.3219
X4.4594Y-0.9719
X4.4594Y-1.7219
X4.4594Y-2.4719
X4.4594Y-3.2219
X4.9594Y-1.0719
X4.9594Y-1.8219
X4.9594Y-2.5719
X4.9594Y-3.3219
X5.2094Y-0.9719
X5.2094Y-1.7219
X5.2094Y-2.4719
X5.2094Y-3.2219
X5.7094Y-1.0719
X5.7094Y-1.8219
X5.7094Y-2.5719
X5.7094Y-3.3219
X5.9594Y-0.9719
X5.9594Y-1.7219
X5.9594Y-2.4719
X5.9594Y-3.2219
X6.4594Y-1.0719
X6.4594Y-1.8219
X6.4594Y-2.5719
X6.4594Y-3.3219
X6.7094Y-0.9719
X6.7094Y-1.7219
X6.7094Y-2.4719
X6.7094Y-3.2219
X7.2094Y-1.0719
X7.2094Y-1.8219
X7.2094Y-2.5719
X7.2094Y-3.3219
X7.4594Y-0.9719
X7.4594Y-1.7219
X7.4594Y-2.4719
X7.4594Y-3.2219
X7.9594Y-1.0719
X7.9594Y-1.8219
X7.9594Y-2.5719
X7.9594Y-3.3219
X8.2094Y-0.9719
X8.2094Y-1.7219
X8.2094Y-2.4719
X8.2094Y-3.2219
X8.7094Y-1.0719
X8.7094Y-1.8219
X8.7094Y-2.5719
X8.7094Y-3.3219
X8.9594Y-0.9719
X8.9594Y-1.7219
X8.9594Y-2.4719
X8.9594Y-3.2219
X9.4594Y-1.0719
X9.4594Y-1.8219
X9.4594Y-2.5719
X9.4594Y-3.3219
X9.7094Y-0.9719
X9.7094Y-1.7219
X9.7094Y-2.4719
X9.7094Y-3.2219
X10.5844Y-1.0719
X10.5844Y-1.8219
X10.5844Y-2.5719
X10.5844Y-3.3219
X10.8344Y-0.9719
X10.8344Y-1.7219
X10.8344Y-2.4719
X10.8344Y-3.2219
T0
M30
