%TF.GenerationSoftware,KiCad,Pcbnew,7.0.1-0*%
%TF.CreationDate,2023-04-28T12:46:07-05:00*%
%TF.ProjectId,pcb,7063622e-6b69-4636-9164-5f7063625858,rev?*%
%TF.SameCoordinates,Original*%
%TF.FileFunction,Legend,Top*%
%TF.FilePolarity,Positive*%
%FSLAX46Y46*%
G04 Gerber Fmt 4.6, Leading zero omitted, Abs format (unit mm)*
G04 Created by KiCad (PCBNEW 7.0.1-0) date 2023-04-28 12:46:07*
%MOMM*%
%LPD*%
G01*
G04 APERTURE LIST*
%ADD10C,0.150000*%
%ADD11C,0.120000*%
G04 APERTURE END LIST*
D10*
X231505952Y-94902619D02*
X231410714Y-94855000D01*
X231410714Y-94855000D02*
X231363095Y-94759761D01*
X231363095Y-94759761D02*
X231363095Y-93902619D01*
X232315476Y-94235952D02*
X232315476Y-94902619D01*
X231886905Y-94235952D02*
X231886905Y-94759761D01*
X231886905Y-94759761D02*
X231934524Y-94855000D01*
X231934524Y-94855000D02*
X232029762Y-94902619D01*
X232029762Y-94902619D02*
X232172619Y-94902619D01*
X232172619Y-94902619D02*
X232267857Y-94855000D01*
X232267857Y-94855000D02*
X232315476Y-94807380D01*
X233220238Y-94855000D02*
X233125000Y-94902619D01*
X233125000Y-94902619D02*
X232934524Y-94902619D01*
X232934524Y-94902619D02*
X232839286Y-94855000D01*
X232839286Y-94855000D02*
X232791667Y-94807380D01*
X232791667Y-94807380D02*
X232744048Y-94712142D01*
X232744048Y-94712142D02*
X232744048Y-94426428D01*
X232744048Y-94426428D02*
X232791667Y-94331190D01*
X232791667Y-94331190D02*
X232839286Y-94283571D01*
X232839286Y-94283571D02*
X232934524Y-94235952D01*
X232934524Y-94235952D02*
X233125000Y-94235952D01*
X233125000Y-94235952D02*
X233220238Y-94283571D01*
X233553572Y-94235952D02*
X233791667Y-94902619D01*
X234029762Y-94235952D02*
X233791667Y-94902619D01*
X233791667Y-94902619D02*
X233696429Y-95140714D01*
X233696429Y-95140714D02*
X233648810Y-95188333D01*
X233648810Y-95188333D02*
X233553572Y-95235952D01*
X235077382Y-94235952D02*
X235315477Y-94902619D01*
X235315477Y-94902619D02*
X235553572Y-94235952D01*
X235839287Y-93902619D02*
X236458334Y-93902619D01*
X236458334Y-93902619D02*
X236125001Y-94283571D01*
X236125001Y-94283571D02*
X236267858Y-94283571D01*
X236267858Y-94283571D02*
X236363096Y-94331190D01*
X236363096Y-94331190D02*
X236410715Y-94378809D01*
X236410715Y-94378809D02*
X236458334Y-94474047D01*
X236458334Y-94474047D02*
X236458334Y-94712142D01*
X236458334Y-94712142D02*
X236410715Y-94807380D01*
X236410715Y-94807380D02*
X236363096Y-94855000D01*
X236363096Y-94855000D02*
X236267858Y-94902619D01*
X236267858Y-94902619D02*
X235982144Y-94902619D01*
X235982144Y-94902619D02*
X235886906Y-94855000D01*
X235886906Y-94855000D02*
X235839287Y-94807380D01*
X236886906Y-94521666D02*
X237648811Y-94521666D01*
X238791667Y-94997857D02*
X238696429Y-94950238D01*
X238696429Y-94950238D02*
X238601191Y-94855000D01*
X238601191Y-94855000D02*
X238458334Y-94712142D01*
X238458334Y-94712142D02*
X238363096Y-94664523D01*
X238363096Y-94664523D02*
X238267858Y-94664523D01*
X238315477Y-94902619D02*
X238220239Y-94855000D01*
X238220239Y-94855000D02*
X238125001Y-94759761D01*
X238125001Y-94759761D02*
X238077382Y-94569285D01*
X238077382Y-94569285D02*
X238077382Y-94235952D01*
X238077382Y-94235952D02*
X238125001Y-94045476D01*
X238125001Y-94045476D02*
X238220239Y-93950238D01*
X238220239Y-93950238D02*
X238315477Y-93902619D01*
X238315477Y-93902619D02*
X238505953Y-93902619D01*
X238505953Y-93902619D02*
X238601191Y-93950238D01*
X238601191Y-93950238D02*
X238696429Y-94045476D01*
X238696429Y-94045476D02*
X238744048Y-94235952D01*
X238744048Y-94235952D02*
X238744048Y-94569285D01*
X238744048Y-94569285D02*
X238696429Y-94759761D01*
X238696429Y-94759761D02*
X238601191Y-94855000D01*
X238601191Y-94855000D02*
X238505953Y-94902619D01*
X238505953Y-94902619D02*
X238315477Y-94902619D01*
X239505953Y-94378809D02*
X239172620Y-94378809D01*
X239172620Y-94902619D02*
X239172620Y-93902619D01*
X239172620Y-93902619D02*
X239648810Y-93902619D01*
X240029763Y-94902619D02*
X240029763Y-93902619D01*
X240029763Y-93902619D02*
X240410715Y-93902619D01*
X240410715Y-93902619D02*
X240505953Y-93950238D01*
X240505953Y-93950238D02*
X240553572Y-93997857D01*
X240553572Y-93997857D02*
X240601191Y-94093095D01*
X240601191Y-94093095D02*
X240601191Y-94235952D01*
X240601191Y-94235952D02*
X240553572Y-94331190D01*
X240553572Y-94331190D02*
X240505953Y-94378809D01*
X240505953Y-94378809D02*
X240410715Y-94426428D01*
X240410715Y-94426428D02*
X240029763Y-94426428D01*
X241744049Y-93997857D02*
X241791668Y-93950238D01*
X241791668Y-93950238D02*
X241886906Y-93902619D01*
X241886906Y-93902619D02*
X242125001Y-93902619D01*
X242125001Y-93902619D02*
X242220239Y-93950238D01*
X242220239Y-93950238D02*
X242267858Y-93997857D01*
X242267858Y-93997857D02*
X242315477Y-94093095D01*
X242315477Y-94093095D02*
X242315477Y-94188333D01*
X242315477Y-94188333D02*
X242267858Y-94331190D01*
X242267858Y-94331190D02*
X241696430Y-94902619D01*
X241696430Y-94902619D02*
X242315477Y-94902619D01*
X242934525Y-93902619D02*
X243029763Y-93902619D01*
X243029763Y-93902619D02*
X243125001Y-93950238D01*
X243125001Y-93950238D02*
X243172620Y-93997857D01*
X243172620Y-93997857D02*
X243220239Y-94093095D01*
X243220239Y-94093095D02*
X243267858Y-94283571D01*
X243267858Y-94283571D02*
X243267858Y-94521666D01*
X243267858Y-94521666D02*
X243220239Y-94712142D01*
X243220239Y-94712142D02*
X243172620Y-94807380D01*
X243172620Y-94807380D02*
X243125001Y-94855000D01*
X243125001Y-94855000D02*
X243029763Y-94902619D01*
X243029763Y-94902619D02*
X242934525Y-94902619D01*
X242934525Y-94902619D02*
X242839287Y-94855000D01*
X242839287Y-94855000D02*
X242791668Y-94807380D01*
X242791668Y-94807380D02*
X242744049Y-94712142D01*
X242744049Y-94712142D02*
X242696430Y-94521666D01*
X242696430Y-94521666D02*
X242696430Y-94283571D01*
X242696430Y-94283571D02*
X242744049Y-94093095D01*
X242744049Y-94093095D02*
X242791668Y-93997857D01*
X242791668Y-93997857D02*
X242839287Y-93950238D01*
X242839287Y-93950238D02*
X242934525Y-93902619D01*
X243648811Y-93997857D02*
X243696430Y-93950238D01*
X243696430Y-93950238D02*
X243791668Y-93902619D01*
X243791668Y-93902619D02*
X244029763Y-93902619D01*
X244029763Y-93902619D02*
X244125001Y-93950238D01*
X244125001Y-93950238D02*
X244172620Y-93997857D01*
X244172620Y-93997857D02*
X244220239Y-94093095D01*
X244220239Y-94093095D02*
X244220239Y-94188333D01*
X244220239Y-94188333D02*
X244172620Y-94331190D01*
X244172620Y-94331190D02*
X243601192Y-94902619D01*
X243601192Y-94902619D02*
X244220239Y-94902619D01*
X244553573Y-93902619D02*
X245172620Y-93902619D01*
X245172620Y-93902619D02*
X244839287Y-94283571D01*
X244839287Y-94283571D02*
X244982144Y-94283571D01*
X244982144Y-94283571D02*
X245077382Y-94331190D01*
X245077382Y-94331190D02*
X245125001Y-94378809D01*
X245125001Y-94378809D02*
X245172620Y-94474047D01*
X245172620Y-94474047D02*
X245172620Y-94712142D01*
X245172620Y-94712142D02*
X245125001Y-94807380D01*
X245125001Y-94807380D02*
X245077382Y-94855000D01*
X245077382Y-94855000D02*
X244982144Y-94902619D01*
X244982144Y-94902619D02*
X244696430Y-94902619D01*
X244696430Y-94902619D02*
X244601192Y-94855000D01*
X244601192Y-94855000D02*
X244553573Y-94807380D01*
X245601192Y-94807380D02*
X245648811Y-94855000D01*
X245648811Y-94855000D02*
X245601192Y-94902619D01*
X245601192Y-94902619D02*
X245553573Y-94855000D01*
X245553573Y-94855000D02*
X245601192Y-94807380D01*
X245601192Y-94807380D02*
X245601192Y-94902619D01*
X246267858Y-93902619D02*
X246363096Y-93902619D01*
X246363096Y-93902619D02*
X246458334Y-93950238D01*
X246458334Y-93950238D02*
X246505953Y-93997857D01*
X246505953Y-93997857D02*
X246553572Y-94093095D01*
X246553572Y-94093095D02*
X246601191Y-94283571D01*
X246601191Y-94283571D02*
X246601191Y-94521666D01*
X246601191Y-94521666D02*
X246553572Y-94712142D01*
X246553572Y-94712142D02*
X246505953Y-94807380D01*
X246505953Y-94807380D02*
X246458334Y-94855000D01*
X246458334Y-94855000D02*
X246363096Y-94902619D01*
X246363096Y-94902619D02*
X246267858Y-94902619D01*
X246267858Y-94902619D02*
X246172620Y-94855000D01*
X246172620Y-94855000D02*
X246125001Y-94807380D01*
X246125001Y-94807380D02*
X246077382Y-94712142D01*
X246077382Y-94712142D02*
X246029763Y-94521666D01*
X246029763Y-94521666D02*
X246029763Y-94283571D01*
X246029763Y-94283571D02*
X246077382Y-94093095D01*
X246077382Y-94093095D02*
X246125001Y-93997857D01*
X246125001Y-93997857D02*
X246172620Y-93950238D01*
X246172620Y-93950238D02*
X246267858Y-93902619D01*
X247458334Y-94235952D02*
X247458334Y-94902619D01*
X247220239Y-93855000D02*
X246982144Y-94569285D01*
X246982144Y-94569285D02*
X247601191Y-94569285D01*
X247982144Y-94807380D02*
X248029763Y-94855000D01*
X248029763Y-94855000D02*
X247982144Y-94902619D01*
X247982144Y-94902619D02*
X247934525Y-94855000D01*
X247934525Y-94855000D02*
X247982144Y-94807380D01*
X247982144Y-94807380D02*
X247982144Y-94902619D01*
X248410715Y-93997857D02*
X248458334Y-93950238D01*
X248458334Y-93950238D02*
X248553572Y-93902619D01*
X248553572Y-93902619D02*
X248791667Y-93902619D01*
X248791667Y-93902619D02*
X248886905Y-93950238D01*
X248886905Y-93950238D02*
X248934524Y-93997857D01*
X248934524Y-93997857D02*
X248982143Y-94093095D01*
X248982143Y-94093095D02*
X248982143Y-94188333D01*
X248982143Y-94188333D02*
X248934524Y-94331190D01*
X248934524Y-94331190D02*
X248363096Y-94902619D01*
X248363096Y-94902619D02*
X248982143Y-94902619D01*
X249553572Y-94331190D02*
X249458334Y-94283571D01*
X249458334Y-94283571D02*
X249410715Y-94235952D01*
X249410715Y-94235952D02*
X249363096Y-94140714D01*
X249363096Y-94140714D02*
X249363096Y-94093095D01*
X249363096Y-94093095D02*
X249410715Y-93997857D01*
X249410715Y-93997857D02*
X249458334Y-93950238D01*
X249458334Y-93950238D02*
X249553572Y-93902619D01*
X249553572Y-93902619D02*
X249744048Y-93902619D01*
X249744048Y-93902619D02*
X249839286Y-93950238D01*
X249839286Y-93950238D02*
X249886905Y-93997857D01*
X249886905Y-93997857D02*
X249934524Y-94093095D01*
X249934524Y-94093095D02*
X249934524Y-94140714D01*
X249934524Y-94140714D02*
X249886905Y-94235952D01*
X249886905Y-94235952D02*
X249839286Y-94283571D01*
X249839286Y-94283571D02*
X249744048Y-94331190D01*
X249744048Y-94331190D02*
X249553572Y-94331190D01*
X249553572Y-94331190D02*
X249458334Y-94378809D01*
X249458334Y-94378809D02*
X249410715Y-94426428D01*
X249410715Y-94426428D02*
X249363096Y-94521666D01*
X249363096Y-94521666D02*
X249363096Y-94712142D01*
X249363096Y-94712142D02*
X249410715Y-94807380D01*
X249410715Y-94807380D02*
X249458334Y-94855000D01*
X249458334Y-94855000D02*
X249553572Y-94902619D01*
X249553572Y-94902619D02*
X249744048Y-94902619D01*
X249744048Y-94902619D02*
X249839286Y-94855000D01*
X249839286Y-94855000D02*
X249886905Y-94807380D01*
X249886905Y-94807380D02*
X249934524Y-94712142D01*
X249934524Y-94712142D02*
X249934524Y-94521666D01*
X249934524Y-94521666D02*
X249886905Y-94426428D01*
X249886905Y-94426428D02*
X249839286Y-94378809D01*
X249839286Y-94378809D02*
X249744048Y-94331190D01*
%TO.C,J2*%
X262089476Y-28845000D02*
X262232333Y-28892619D01*
X262232333Y-28892619D02*
X262470428Y-28892619D01*
X262470428Y-28892619D02*
X262565666Y-28845000D01*
X262565666Y-28845000D02*
X262613285Y-28797380D01*
X262613285Y-28797380D02*
X262660904Y-28702142D01*
X262660904Y-28702142D02*
X262660904Y-28606904D01*
X262660904Y-28606904D02*
X262613285Y-28511666D01*
X262613285Y-28511666D02*
X262565666Y-28464047D01*
X262565666Y-28464047D02*
X262470428Y-28416428D01*
X262470428Y-28416428D02*
X262279952Y-28368809D01*
X262279952Y-28368809D02*
X262184714Y-28321190D01*
X262184714Y-28321190D02*
X262137095Y-28273571D01*
X262137095Y-28273571D02*
X262089476Y-28178333D01*
X262089476Y-28178333D02*
X262089476Y-28083095D01*
X262089476Y-28083095D02*
X262137095Y-27987857D01*
X262137095Y-27987857D02*
X262184714Y-27940238D01*
X262184714Y-27940238D02*
X262279952Y-27892619D01*
X262279952Y-27892619D02*
X262518047Y-27892619D01*
X262518047Y-27892619D02*
X262660904Y-27940238D01*
X263660904Y-28797380D02*
X263613285Y-28845000D01*
X263613285Y-28845000D02*
X263470428Y-28892619D01*
X263470428Y-28892619D02*
X263375190Y-28892619D01*
X263375190Y-28892619D02*
X263232333Y-28845000D01*
X263232333Y-28845000D02*
X263137095Y-28749761D01*
X263137095Y-28749761D02*
X263089476Y-28654523D01*
X263089476Y-28654523D02*
X263041857Y-28464047D01*
X263041857Y-28464047D02*
X263041857Y-28321190D01*
X263041857Y-28321190D02*
X263089476Y-28130714D01*
X263089476Y-28130714D02*
X263137095Y-28035476D01*
X263137095Y-28035476D02*
X263232333Y-27940238D01*
X263232333Y-27940238D02*
X263375190Y-27892619D01*
X263375190Y-27892619D02*
X263470428Y-27892619D01*
X263470428Y-27892619D02*
X263613285Y-27940238D01*
X263613285Y-27940238D02*
X263660904Y-27987857D01*
X264089476Y-28892619D02*
X264089476Y-27892619D01*
X264660904Y-28892619D02*
X264232333Y-28321190D01*
X264660904Y-27892619D02*
X264089476Y-28464047D01*
X262137095Y-33972619D02*
X262137095Y-32972619D01*
X262137095Y-32972619D02*
X262470428Y-33686904D01*
X262470428Y-33686904D02*
X262803761Y-32972619D01*
X262803761Y-32972619D02*
X262803761Y-33972619D01*
X263470428Y-32972619D02*
X263660904Y-32972619D01*
X263660904Y-32972619D02*
X263756142Y-33020238D01*
X263756142Y-33020238D02*
X263851380Y-33115476D01*
X263851380Y-33115476D02*
X263898999Y-33305952D01*
X263898999Y-33305952D02*
X263898999Y-33639285D01*
X263898999Y-33639285D02*
X263851380Y-33829761D01*
X263851380Y-33829761D02*
X263756142Y-33925000D01*
X263756142Y-33925000D02*
X263660904Y-33972619D01*
X263660904Y-33972619D02*
X263470428Y-33972619D01*
X263470428Y-33972619D02*
X263375190Y-33925000D01*
X263375190Y-33925000D02*
X263279952Y-33829761D01*
X263279952Y-33829761D02*
X263232333Y-33639285D01*
X263232333Y-33639285D02*
X263232333Y-33305952D01*
X263232333Y-33305952D02*
X263279952Y-33115476D01*
X263279952Y-33115476D02*
X263375190Y-33020238D01*
X263375190Y-33020238D02*
X263470428Y-32972619D01*
X264279952Y-33925000D02*
X264422809Y-33972619D01*
X264422809Y-33972619D02*
X264660904Y-33972619D01*
X264660904Y-33972619D02*
X264756142Y-33925000D01*
X264756142Y-33925000D02*
X264803761Y-33877380D01*
X264803761Y-33877380D02*
X264851380Y-33782142D01*
X264851380Y-33782142D02*
X264851380Y-33686904D01*
X264851380Y-33686904D02*
X264803761Y-33591666D01*
X264803761Y-33591666D02*
X264756142Y-33544047D01*
X264756142Y-33544047D02*
X264660904Y-33496428D01*
X264660904Y-33496428D02*
X264470428Y-33448809D01*
X264470428Y-33448809D02*
X264375190Y-33401190D01*
X264375190Y-33401190D02*
X264327571Y-33353571D01*
X264327571Y-33353571D02*
X264279952Y-33258333D01*
X264279952Y-33258333D02*
X264279952Y-33163095D01*
X264279952Y-33163095D02*
X264327571Y-33067857D01*
X264327571Y-33067857D02*
X264375190Y-33020238D01*
X264375190Y-33020238D02*
X264470428Y-32972619D01*
X264470428Y-32972619D02*
X264708523Y-32972619D01*
X264708523Y-32972619D02*
X264851380Y-33020238D01*
X265279952Y-33972619D02*
X265279952Y-32972619D01*
X262708523Y-36512619D02*
X262375190Y-36036428D01*
X262137095Y-36512619D02*
X262137095Y-35512619D01*
X262137095Y-35512619D02*
X262518047Y-35512619D01*
X262518047Y-35512619D02*
X262613285Y-35560238D01*
X262613285Y-35560238D02*
X262660904Y-35607857D01*
X262660904Y-35607857D02*
X262708523Y-35703095D01*
X262708523Y-35703095D02*
X262708523Y-35845952D01*
X262708523Y-35845952D02*
X262660904Y-35941190D01*
X262660904Y-35941190D02*
X262613285Y-35988809D01*
X262613285Y-35988809D02*
X262518047Y-36036428D01*
X262518047Y-36036428D02*
X262137095Y-36036428D01*
X263089476Y-36465000D02*
X263232333Y-36512619D01*
X263232333Y-36512619D02*
X263470428Y-36512619D01*
X263470428Y-36512619D02*
X263565666Y-36465000D01*
X263565666Y-36465000D02*
X263613285Y-36417380D01*
X263613285Y-36417380D02*
X263660904Y-36322142D01*
X263660904Y-36322142D02*
X263660904Y-36226904D01*
X263660904Y-36226904D02*
X263613285Y-36131666D01*
X263613285Y-36131666D02*
X263565666Y-36084047D01*
X263565666Y-36084047D02*
X263470428Y-36036428D01*
X263470428Y-36036428D02*
X263279952Y-35988809D01*
X263279952Y-35988809D02*
X263184714Y-35941190D01*
X263184714Y-35941190D02*
X263137095Y-35893571D01*
X263137095Y-35893571D02*
X263089476Y-35798333D01*
X263089476Y-35798333D02*
X263089476Y-35703095D01*
X263089476Y-35703095D02*
X263137095Y-35607857D01*
X263137095Y-35607857D02*
X263184714Y-35560238D01*
X263184714Y-35560238D02*
X263279952Y-35512619D01*
X263279952Y-35512619D02*
X263518047Y-35512619D01*
X263518047Y-35512619D02*
X263660904Y-35560238D01*
X263946619Y-35512619D02*
X264518047Y-35512619D01*
X264232333Y-36512619D02*
X264232333Y-35512619D01*
X262137095Y-31432619D02*
X262137095Y-30432619D01*
X262137095Y-30432619D02*
X262470428Y-31146904D01*
X262470428Y-31146904D02*
X262803761Y-30432619D01*
X262803761Y-30432619D02*
X262803761Y-31432619D01*
X263279952Y-31432619D02*
X263279952Y-30432619D01*
X263708523Y-31385000D02*
X263851380Y-31432619D01*
X263851380Y-31432619D02*
X264089475Y-31432619D01*
X264089475Y-31432619D02*
X264184713Y-31385000D01*
X264184713Y-31385000D02*
X264232332Y-31337380D01*
X264232332Y-31337380D02*
X264279951Y-31242142D01*
X264279951Y-31242142D02*
X264279951Y-31146904D01*
X264279951Y-31146904D02*
X264232332Y-31051666D01*
X264232332Y-31051666D02*
X264184713Y-31004047D01*
X264184713Y-31004047D02*
X264089475Y-30956428D01*
X264089475Y-30956428D02*
X263898999Y-30908809D01*
X263898999Y-30908809D02*
X263803761Y-30861190D01*
X263803761Y-30861190D02*
X263756142Y-30813571D01*
X263756142Y-30813571D02*
X263708523Y-30718333D01*
X263708523Y-30718333D02*
X263708523Y-30623095D01*
X263708523Y-30623095D02*
X263756142Y-30527857D01*
X263756142Y-30527857D02*
X263803761Y-30480238D01*
X263803761Y-30480238D02*
X263898999Y-30432619D01*
X263898999Y-30432619D02*
X264137094Y-30432619D01*
X264137094Y-30432619D02*
X264279951Y-30480238D01*
X264898999Y-30432619D02*
X265089475Y-30432619D01*
X265089475Y-30432619D02*
X265184713Y-30480238D01*
X265184713Y-30480238D02*
X265279951Y-30575476D01*
X265279951Y-30575476D02*
X265327570Y-30765952D01*
X265327570Y-30765952D02*
X265327570Y-31099285D01*
X265327570Y-31099285D02*
X265279951Y-31289761D01*
X265279951Y-31289761D02*
X265184713Y-31385000D01*
X265184713Y-31385000D02*
X265089475Y-31432619D01*
X265089475Y-31432619D02*
X264898999Y-31432619D01*
X264898999Y-31432619D02*
X264803761Y-31385000D01*
X264803761Y-31385000D02*
X264708523Y-31289761D01*
X264708523Y-31289761D02*
X264660904Y-31099285D01*
X264660904Y-31099285D02*
X264660904Y-30765952D01*
X264660904Y-30765952D02*
X264708523Y-30575476D01*
X264708523Y-30575476D02*
X264803761Y-30480238D01*
X264803761Y-30480238D02*
X264898999Y-30432619D01*
X261994238Y-25352619D02*
X262327571Y-26352619D01*
X262327571Y-26352619D02*
X262660904Y-25352619D01*
X263565666Y-26257380D02*
X263518047Y-26305000D01*
X263518047Y-26305000D02*
X263375190Y-26352619D01*
X263375190Y-26352619D02*
X263279952Y-26352619D01*
X263279952Y-26352619D02*
X263137095Y-26305000D01*
X263137095Y-26305000D02*
X263041857Y-26209761D01*
X263041857Y-26209761D02*
X262994238Y-26114523D01*
X262994238Y-26114523D02*
X262946619Y-25924047D01*
X262946619Y-25924047D02*
X262946619Y-25781190D01*
X262946619Y-25781190D02*
X262994238Y-25590714D01*
X262994238Y-25590714D02*
X263041857Y-25495476D01*
X263041857Y-25495476D02*
X263137095Y-25400238D01*
X263137095Y-25400238D02*
X263279952Y-25352619D01*
X263279952Y-25352619D02*
X263375190Y-25352619D01*
X263375190Y-25352619D02*
X263518047Y-25400238D01*
X263518047Y-25400238D02*
X263565666Y-25447857D01*
X264565666Y-26257380D02*
X264518047Y-26305000D01*
X264518047Y-26305000D02*
X264375190Y-26352619D01*
X264375190Y-26352619D02*
X264279952Y-26352619D01*
X264279952Y-26352619D02*
X264137095Y-26305000D01*
X264137095Y-26305000D02*
X264041857Y-26209761D01*
X264041857Y-26209761D02*
X263994238Y-26114523D01*
X263994238Y-26114523D02*
X263946619Y-25924047D01*
X263946619Y-25924047D02*
X263946619Y-25781190D01*
X263946619Y-25781190D02*
X263994238Y-25590714D01*
X263994238Y-25590714D02*
X264041857Y-25495476D01*
X264041857Y-25495476D02*
X264137095Y-25400238D01*
X264137095Y-25400238D02*
X264279952Y-25352619D01*
X264279952Y-25352619D02*
X264375190Y-25352619D01*
X264375190Y-25352619D02*
X264518047Y-25400238D01*
X264518047Y-25400238D02*
X264565666Y-25447857D01*
X262660904Y-22860238D02*
X262565666Y-22812619D01*
X262565666Y-22812619D02*
X262422809Y-22812619D01*
X262422809Y-22812619D02*
X262279952Y-22860238D01*
X262279952Y-22860238D02*
X262184714Y-22955476D01*
X262184714Y-22955476D02*
X262137095Y-23050714D01*
X262137095Y-23050714D02*
X262089476Y-23241190D01*
X262089476Y-23241190D02*
X262089476Y-23384047D01*
X262089476Y-23384047D02*
X262137095Y-23574523D01*
X262137095Y-23574523D02*
X262184714Y-23669761D01*
X262184714Y-23669761D02*
X262279952Y-23765000D01*
X262279952Y-23765000D02*
X262422809Y-23812619D01*
X262422809Y-23812619D02*
X262518047Y-23812619D01*
X262518047Y-23812619D02*
X262660904Y-23765000D01*
X262660904Y-23765000D02*
X262708523Y-23717380D01*
X262708523Y-23717380D02*
X262708523Y-23384047D01*
X262708523Y-23384047D02*
X262518047Y-23384047D01*
X263137095Y-23812619D02*
X263137095Y-22812619D01*
X263137095Y-22812619D02*
X263708523Y-23812619D01*
X263708523Y-23812619D02*
X263708523Y-22812619D01*
X264184714Y-23812619D02*
X264184714Y-22812619D01*
X264184714Y-22812619D02*
X264422809Y-22812619D01*
X264422809Y-22812619D02*
X264565666Y-22860238D01*
X264565666Y-22860238D02*
X264660904Y-22955476D01*
X264660904Y-22955476D02*
X264708523Y-23050714D01*
X264708523Y-23050714D02*
X264756142Y-23241190D01*
X264756142Y-23241190D02*
X264756142Y-23384047D01*
X264756142Y-23384047D02*
X264708523Y-23574523D01*
X264708523Y-23574523D02*
X264660904Y-23669761D01*
X264660904Y-23669761D02*
X264565666Y-23765000D01*
X264565666Y-23765000D02*
X264422809Y-23812619D01*
X264422809Y-23812619D02*
X264184714Y-23812619D01*
D11*
X261645000Y-37066000D02*
X261391000Y-37320000D01*
X261645000Y-35034000D02*
X261645000Y-37066000D01*
X261645000Y-35034000D02*
X261391000Y-34780000D01*
X261645000Y-34526000D02*
X261391000Y-34780000D01*
X261645000Y-32494000D02*
X261645000Y-34526000D01*
X261645000Y-32494000D02*
X261391000Y-32240000D01*
X261645000Y-31986000D02*
X261391000Y-32240000D01*
X261645000Y-29954000D02*
X261645000Y-31986000D01*
X261645000Y-29954000D02*
X261391000Y-29700000D01*
X261645000Y-29446000D02*
X261391000Y-29700000D01*
X261645000Y-27414000D02*
X261645000Y-29446000D01*
X261645000Y-27414000D02*
X261391000Y-27160000D01*
X261645000Y-26906000D02*
X261391000Y-27160000D01*
X261645000Y-24874000D02*
X261645000Y-26906000D01*
X261645000Y-24874000D02*
X261391000Y-24620000D01*
X261645000Y-24366000D02*
X261645000Y-22334000D01*
X261645000Y-24366000D02*
X261391000Y-24620000D01*
X261645000Y-22334000D02*
X261391000Y-22080000D01*
X261391000Y-22080000D02*
X259359000Y-22080000D01*
X259359000Y-37320000D02*
X261391000Y-37320000D01*
X259359000Y-24620000D02*
X261391000Y-24620000D01*
X259105000Y-37066000D02*
X259359000Y-37320000D01*
X259105000Y-35034000D02*
X259359000Y-34780000D01*
X259105000Y-35034000D02*
X259105000Y-37066000D01*
X259105000Y-34526000D02*
X259359000Y-34780000D01*
X259105000Y-32494000D02*
X259359000Y-32240000D01*
X259105000Y-32494000D02*
X259105000Y-34526000D01*
X259105000Y-31986000D02*
X259359000Y-32240000D01*
X259105000Y-29954000D02*
X259359000Y-29700000D01*
X259105000Y-29954000D02*
X259105000Y-31986000D01*
X259105000Y-29446000D02*
X259359000Y-29700000D01*
X259105000Y-27414000D02*
X259359000Y-27160000D01*
X259105000Y-27414000D02*
X259105000Y-29446000D01*
X259105000Y-26906000D02*
X259359000Y-27160000D01*
X259105000Y-24874000D02*
X259359000Y-24620000D01*
X259105000Y-24874000D02*
X259105000Y-26906000D01*
X259105000Y-24366000D02*
X259359000Y-24620000D01*
X259105000Y-24366000D02*
X259105000Y-22334000D01*
X259105000Y-22334000D02*
X259359000Y-22080000D01*
%TD*%
M02*
