G04 #@! TF.GenerationSoftware,KiCad,Pcbnew,(6.0.0-0)*
G04 #@! TF.CreationDate,2022-01-19T17:11:42-06:00*
G04 #@! TF.ProjectId,pcb,7063622e-6b69-4636-9164-5f7063625858,rev?*
G04 #@! TF.SameCoordinates,Original*
G04 #@! TF.FileFunction,Legend,Top*
G04 #@! TF.FilePolarity,Positive*
%FSLAX46Y46*%
G04 Gerber Fmt 4.6, Leading zero omitted, Abs format (unit mm)*
G04 Created by KiCad (PCBNEW (6.0.0-0)) date 2022-01-19 17:11:42*
%MOMM*%
%LPD*%
G01*
G04 APERTURE LIST*
G04 Aperture macros list*
%AMRoundRect*
0 Rectangle with rounded corners*
0 $1 Rounding radius*
0 $2 $3 $4 $5 $6 $7 $8 $9 X,Y pos of 4 corners*
0 Add a 4 corners polygon primitive as box body*
4,1,4,$2,$3,$4,$5,$6,$7,$8,$9,$2,$3,0*
0 Add four circle primitives for the rounded corners*
1,1,$1+$1,$2,$3*
1,1,$1+$1,$4,$5*
1,1,$1+$1,$6,$7*
1,1,$1+$1,$8,$9*
0 Add four rect primitives between the rounded corners*
20,1,$1+$1,$2,$3,$4,$5,0*
20,1,$1+$1,$4,$5,$6,$7,0*
20,1,$1+$1,$6,$7,$8,$9,0*
20,1,$1+$1,$8,$9,$2,$3,0*%
G04 Aperture macros list end*
%ADD10C,0.150000*%
%ADD11C,0.200000*%
%ADD12C,0.120000*%
%ADD13C,1.701800*%
%ADD14C,3.987800*%
%ADD15C,2.540000*%
%ADD16R,2.000000X2.000000*%
%ADD17C,2.000000*%
%ADD18R,2.000000X3.200000*%
%ADD19C,1.803400*%
%ADD20RoundRect,0.501650X0.400050X0.400050X-0.400050X0.400050X-0.400050X-0.400050X0.400050X-0.400050X0*%
%ADD21C,0.650000*%
%ADD22O,1.300000X2.400000*%
%ADD23O,1.300000X1.900000*%
G04 APERTURE END LIST*
D10*
X296013577Y-115736694D02*
X296013577Y-116450980D01*
X295965958Y-116593837D01*
X295870720Y-116689075D01*
X295727863Y-116736694D01*
X295632625Y-116736694D01*
X296965958Y-116736694D02*
X296489767Y-116736694D01*
X296489767Y-115736694D01*
X297870720Y-116641456D02*
X297823101Y-116689075D01*
X297680244Y-116736694D01*
X297585005Y-116736694D01*
X297442148Y-116689075D01*
X297346910Y-116593837D01*
X297299291Y-116498599D01*
X297251672Y-116308123D01*
X297251672Y-116165266D01*
X297299291Y-115974790D01*
X297346910Y-115879552D01*
X297442148Y-115784314D01*
X297585005Y-115736694D01*
X297680244Y-115736694D01*
X297823101Y-115784314D01*
X297870720Y-115831933D01*
X298585005Y-115736694D02*
X298585005Y-116450980D01*
X298537386Y-116593837D01*
X298442148Y-116689075D01*
X298299291Y-116736694D01*
X298204053Y-116736694D01*
X299537386Y-116736694D02*
X299061196Y-116736694D01*
X299061196Y-115736694D01*
X300442148Y-116641456D02*
X300394529Y-116689075D01*
X300251672Y-116736694D01*
X300156434Y-116736694D01*
X300013577Y-116689075D01*
X299918339Y-116593837D01*
X299870720Y-116498599D01*
X299823101Y-116308123D01*
X299823101Y-116165266D01*
X299870720Y-115974790D01*
X299918339Y-115879552D01*
X300013577Y-115784314D01*
X300156434Y-115736694D01*
X300251672Y-115736694D01*
X300394529Y-115784314D01*
X300442148Y-115831933D01*
X301156434Y-115736694D02*
X301156434Y-116450980D01*
X301108815Y-116593837D01*
X301013577Y-116689075D01*
X300870720Y-116736694D01*
X300775482Y-116736694D01*
X302108815Y-116736694D02*
X301632625Y-116736694D01*
X301632625Y-115736694D01*
X303013577Y-116641456D02*
X302965958Y-116689075D01*
X302823101Y-116736694D01*
X302727863Y-116736694D01*
X302585005Y-116689075D01*
X302489767Y-116593837D01*
X302442148Y-116498599D01*
X302394529Y-116308123D01*
X302394529Y-116165266D01*
X302442148Y-115974790D01*
X302489767Y-115879552D01*
X302585005Y-115784314D01*
X302727863Y-115736694D01*
X302823101Y-115736694D01*
X302965958Y-115784314D01*
X303013577Y-115831933D01*
X303727863Y-115736694D02*
X303727863Y-116450980D01*
X303680244Y-116593837D01*
X303585005Y-116689075D01*
X303442148Y-116736694D01*
X303346910Y-116736694D01*
X304680244Y-116736694D02*
X304204053Y-116736694D01*
X304204053Y-115736694D01*
X305585005Y-116641456D02*
X305537386Y-116689075D01*
X305394529Y-116736694D01*
X305299291Y-116736694D01*
X305156434Y-116689075D01*
X305061196Y-116593837D01*
X305013577Y-116498599D01*
X304965958Y-116308123D01*
X304965958Y-116165266D01*
X305013577Y-115974790D01*
X305061196Y-115879552D01*
X305156434Y-115784314D01*
X305299291Y-115736694D01*
X305394529Y-115736694D01*
X305537386Y-115784314D01*
X305585005Y-115831933D01*
D11*
X99984070Y-117065476D02*
X99865022Y-117005952D01*
X99805499Y-116886904D01*
X99805499Y-115815476D01*
X100995975Y-116232142D02*
X100995975Y-117065476D01*
X100460260Y-116232142D02*
X100460260Y-116886904D01*
X100519784Y-117005952D01*
X100638832Y-117065476D01*
X100817403Y-117065476D01*
X100936451Y-117005952D01*
X100995975Y-116946428D01*
X102126927Y-117005952D02*
X102007880Y-117065476D01*
X101769784Y-117065476D01*
X101650737Y-117005952D01*
X101591213Y-116946428D01*
X101531689Y-116827380D01*
X101531689Y-116470238D01*
X101591213Y-116351190D01*
X101650737Y-116291666D01*
X101769784Y-116232142D01*
X102007880Y-116232142D01*
X102126927Y-116291666D01*
X102543594Y-116232142D02*
X102841213Y-117065476D01*
X103138832Y-116232142D02*
X102841213Y-117065476D01*
X102722165Y-117363095D01*
X102662641Y-117422619D01*
X102543594Y-117482142D01*
X104567403Y-117065476D02*
X104567403Y-116232142D01*
X104567403Y-116470238D02*
X104626927Y-116351190D01*
X104686451Y-116291666D01*
X104805499Y-116232142D01*
X104924546Y-116232142D01*
X105817403Y-117005952D02*
X105698356Y-117065476D01*
X105460260Y-117065476D01*
X105341213Y-117005952D01*
X105281689Y-116886904D01*
X105281689Y-116410714D01*
X105341213Y-116291666D01*
X105460260Y-116232142D01*
X105698356Y-116232142D01*
X105817403Y-116291666D01*
X105876927Y-116410714D01*
X105876927Y-116529761D01*
X105281689Y-116648809D01*
X106293594Y-116232142D02*
X106591213Y-117065476D01*
X106888832Y-116232142D01*
X107365022Y-116946428D02*
X107424546Y-117005952D01*
X107365022Y-117065476D01*
X107305499Y-117005952D01*
X107365022Y-116946428D01*
X107365022Y-117065476D01*
X109567403Y-117065476D02*
X108853118Y-117065476D01*
X109210260Y-117065476D02*
X109210260Y-115815476D01*
X109091213Y-115994047D01*
X108972165Y-116113095D01*
X108853118Y-116172619D01*
X110103118Y-116946428D02*
X110162641Y-117005952D01*
X110103118Y-117065476D01*
X110043594Y-117005952D01*
X110103118Y-116946428D01*
X110103118Y-117065476D01*
X110579308Y-115815476D02*
X111353118Y-115815476D01*
X110936451Y-116291666D01*
X111115022Y-116291666D01*
X111234070Y-116351190D01*
X111293594Y-116410714D01*
X111353118Y-116529761D01*
X111353118Y-116827380D01*
X111293594Y-116946428D01*
X111234070Y-117005952D01*
X111115022Y-117065476D01*
X110757880Y-117065476D01*
X110638832Y-117005952D01*
X110579308Y-116946428D01*
X112781689Y-115934523D02*
X112841213Y-115875000D01*
X112960260Y-115815476D01*
X113257880Y-115815476D01*
X113376927Y-115875000D01*
X113436451Y-115934523D01*
X113495975Y-116053571D01*
X113495975Y-116172619D01*
X113436451Y-116351190D01*
X112722165Y-117065476D01*
X113495975Y-117065476D01*
X114269784Y-115815476D02*
X114388832Y-115815476D01*
X114507880Y-115875000D01*
X114567403Y-115934523D01*
X114626927Y-116053571D01*
X114686451Y-116291666D01*
X114686451Y-116589285D01*
X114626927Y-116827380D01*
X114567403Y-116946428D01*
X114507880Y-117005952D01*
X114388832Y-117065476D01*
X114269784Y-117065476D01*
X114150737Y-117005952D01*
X114091213Y-116946428D01*
X114031689Y-116827380D01*
X113972165Y-116589285D01*
X113972165Y-116291666D01*
X114031689Y-116053571D01*
X114091213Y-115934523D01*
X114150737Y-115875000D01*
X114269784Y-115815476D01*
X115162641Y-115934523D02*
X115222165Y-115875000D01*
X115341213Y-115815476D01*
X115638832Y-115815476D01*
X115757880Y-115875000D01*
X115817403Y-115934523D01*
X115876927Y-116053571D01*
X115876927Y-116172619D01*
X115817403Y-116351190D01*
X115103118Y-117065476D01*
X115876927Y-117065476D01*
X116353118Y-115934523D02*
X116412641Y-115875000D01*
X116531689Y-115815476D01*
X116829308Y-115815476D01*
X116948356Y-115875000D01*
X117007880Y-115934523D01*
X117067403Y-116053571D01*
X117067403Y-116172619D01*
X117007880Y-116351190D01*
X116293594Y-117065476D01*
X117067403Y-117065476D01*
X117603118Y-116946428D02*
X117662641Y-117005952D01*
X117603118Y-117065476D01*
X117543594Y-117005952D01*
X117603118Y-116946428D01*
X117603118Y-117065476D01*
X118436451Y-115815476D02*
X118555499Y-115815476D01*
X118674546Y-115875000D01*
X118734070Y-115934523D01*
X118793594Y-116053571D01*
X118853118Y-116291666D01*
X118853118Y-116589285D01*
X118793594Y-116827380D01*
X118734070Y-116946428D01*
X118674546Y-117005952D01*
X118555499Y-117065476D01*
X118436451Y-117065476D01*
X118317403Y-117005952D01*
X118257880Y-116946428D01*
X118198356Y-116827380D01*
X118138832Y-116589285D01*
X118138832Y-116291666D01*
X118198356Y-116053571D01*
X118257880Y-115934523D01*
X118317403Y-115875000D01*
X118436451Y-115815476D01*
X120043594Y-117065476D02*
X119329308Y-117065476D01*
X119686451Y-117065476D02*
X119686451Y-115815476D01*
X119567403Y-115994047D01*
X119448356Y-116113095D01*
X119329308Y-116172619D01*
X120579308Y-116946428D02*
X120638832Y-117005952D01*
X120579308Y-117065476D01*
X120519784Y-117005952D01*
X120579308Y-116946428D01*
X120579308Y-117065476D01*
X121829308Y-117065476D02*
X121115022Y-117065476D01*
X121472165Y-117065476D02*
X121472165Y-115815476D01*
X121353118Y-115994047D01*
X121234070Y-116113095D01*
X121115022Y-116172619D01*
X122424546Y-117065476D02*
X122662641Y-117065476D01*
X122781689Y-117005952D01*
X122841213Y-116946428D01*
X122960260Y-116767857D01*
X123019784Y-116529761D01*
X123019784Y-116053571D01*
X122960260Y-115934523D01*
X122900737Y-115875000D01*
X122781689Y-115815476D01*
X122543594Y-115815476D01*
X122424546Y-115875000D01*
X122365022Y-115934523D01*
X122305499Y-116053571D01*
X122305499Y-116351190D01*
X122365022Y-116470238D01*
X122424546Y-116529761D01*
X122543594Y-116589285D01*
X122781689Y-116589285D01*
X122900737Y-116529761D01*
X122960260Y-116470238D01*
X123019784Y-116351190D01*
D12*
X314352725Y-47093950D02*
X316752725Y-47093950D01*
X314352725Y-59293950D02*
X326152725Y-59293950D01*
X323752725Y-47093950D02*
X326152725Y-47093950D01*
X314352725Y-51193950D02*
X314352725Y-47093950D01*
X314352725Y-55193950D02*
X314352725Y-59293950D01*
X316152725Y-60993950D02*
X316152725Y-60393950D01*
X316452725Y-60693950D02*
X316152725Y-60993950D01*
X316152725Y-60393950D02*
X316452725Y-60693950D01*
X318952725Y-47093950D02*
X321552725Y-47093950D01*
X326152725Y-55193950D02*
X326152725Y-59293950D01*
X326152725Y-47093950D02*
X326152725Y-51193950D01*
X323252725Y-53193950D02*
G75*
G03*
X323252725Y-53193950I-3000000J0D01*
G01*
%LPC*%
D13*
X119935625Y-53181250D03*
X130095625Y-53181250D03*
D14*
X125015625Y-53181250D03*
D15*
X121205625Y-50641250D03*
X127555625Y-48101250D03*
D13*
X196135625Y-53181250D03*
D14*
X201215625Y-53181250D03*
D13*
X206295625Y-53181250D03*
D15*
X197405625Y-50641250D03*
X203755625Y-48101250D03*
D13*
X187245625Y-53181250D03*
D14*
X182165625Y-53181250D03*
D13*
X177085625Y-53181250D03*
D15*
X178355625Y-50641250D03*
X184705625Y-48101250D03*
D14*
X163115625Y-53181250D03*
D13*
X168195625Y-53181250D03*
X158035625Y-53181250D03*
D15*
X159305625Y-50641250D03*
X165655625Y-48101250D03*
D14*
X86915625Y-53181250D03*
D13*
X91995625Y-53181250D03*
X81835625Y-53181250D03*
D15*
X83105625Y-50641250D03*
X89455625Y-48101250D03*
D13*
X215185625Y-53181250D03*
X225345625Y-53181250D03*
D14*
X220265625Y-53181250D03*
D15*
X216455625Y-50641250D03*
X222805625Y-48101250D03*
D13*
X234235625Y-53181250D03*
D14*
X239315625Y-53181250D03*
D13*
X244395625Y-53181250D03*
D15*
X235505625Y-50641250D03*
X241855625Y-48101250D03*
D14*
X86915625Y-72231250D03*
D13*
X81835625Y-72231250D03*
X91995625Y-72231250D03*
D15*
X83105625Y-69691250D03*
X89455625Y-67151250D03*
D13*
X100885625Y-72231250D03*
X111045625Y-72231250D03*
D14*
X105965625Y-72231250D03*
D15*
X102155625Y-69691250D03*
X108505625Y-67151250D03*
D13*
X149150799Y-72231250D03*
D14*
X144070799Y-72231250D03*
D13*
X138990799Y-72231250D03*
D15*
X140260799Y-69691250D03*
X146610799Y-67151250D03*
D13*
X282495625Y-53181250D03*
X272335625Y-53181250D03*
D14*
X277415625Y-53181250D03*
D15*
X273605625Y-50641250D03*
X279955625Y-48101250D03*
D13*
X168195625Y-72231250D03*
X158035625Y-72231250D03*
D14*
X163115625Y-72231250D03*
D15*
X159305625Y-69691250D03*
X165655625Y-67151250D03*
D13*
X187245625Y-72231250D03*
D14*
X182165625Y-72231250D03*
D13*
X177085625Y-72231250D03*
D15*
X178355625Y-69691250D03*
X184705625Y-67151250D03*
D13*
X196135625Y-72231250D03*
X206295625Y-72231250D03*
D14*
X201215625Y-72231250D03*
D15*
X197405625Y-69691250D03*
X203755625Y-67151250D03*
D13*
X111045625Y-110331250D03*
X100885625Y-110331250D03*
D14*
X105965625Y-110331250D03*
D15*
X102155625Y-107791250D03*
X108505625Y-105251250D03*
D13*
X119935625Y-110331250D03*
D14*
X125015625Y-110331250D03*
D13*
X130095625Y-110331250D03*
D15*
X121205625Y-107791250D03*
X127555625Y-105251250D03*
D13*
X149145625Y-110331250D03*
X138985625Y-110331250D03*
D14*
X144065625Y-110331250D03*
D15*
X140255625Y-107791250D03*
X146605625Y-105251250D03*
D14*
X163115625Y-110331250D03*
D13*
X168195625Y-110331250D03*
X158035625Y-110331250D03*
D15*
X159305625Y-107791250D03*
X165655625Y-105251250D03*
D13*
X177085625Y-110331250D03*
D14*
X182165625Y-110331250D03*
D13*
X187245625Y-110331250D03*
D15*
X178355625Y-107791250D03*
X184705625Y-105251250D03*
D13*
X225345625Y-110331250D03*
X215185625Y-110331250D03*
D14*
X220265625Y-110331250D03*
D15*
X216455625Y-107791250D03*
X222805625Y-105251250D03*
D13*
X234235625Y-110331250D03*
D14*
X239315625Y-110331250D03*
D13*
X244395625Y-110331250D03*
D15*
X235505625Y-107791250D03*
X241855625Y-105251250D03*
D14*
X258365625Y-110331250D03*
D13*
X263445625Y-110331250D03*
X253285625Y-110331250D03*
D15*
X254555625Y-107791250D03*
X260905625Y-105251250D03*
D14*
X277415625Y-110331250D03*
D13*
X272335625Y-110331250D03*
X282495625Y-110331250D03*
D15*
X273605625Y-107791250D03*
X279955625Y-105251250D03*
D13*
X206295625Y-110331250D03*
X196135625Y-110331250D03*
D14*
X201215625Y-110331250D03*
D15*
X197405625Y-107791250D03*
X203755625Y-105251250D03*
D13*
X272335625Y-91281250D03*
D14*
X277415625Y-91281250D03*
D13*
X282495625Y-91281250D03*
D15*
X273605625Y-88741250D03*
X279955625Y-86201250D03*
D13*
X253285625Y-91281250D03*
D14*
X258365625Y-91281250D03*
D13*
X263445625Y-91281250D03*
D15*
X254555625Y-88741250D03*
X260905625Y-86201250D03*
D14*
X220265625Y-91281250D03*
D13*
X215185625Y-91281250D03*
X225345625Y-91281250D03*
D15*
X216455625Y-88741250D03*
X222805625Y-86201250D03*
D13*
X177085625Y-91281250D03*
D14*
X182165625Y-91281250D03*
D13*
X187245625Y-91281250D03*
D15*
X178355625Y-88741250D03*
X184705625Y-86201250D03*
D13*
X138985625Y-91281250D03*
D14*
X144065625Y-91281250D03*
D13*
X149145625Y-91281250D03*
D15*
X140255625Y-88741250D03*
X146605625Y-86201250D03*
D14*
X86915625Y-91281250D03*
D13*
X81835625Y-91281250D03*
X91995625Y-91281250D03*
D15*
X83105625Y-88741250D03*
X89455625Y-86201250D03*
D13*
X168195625Y-91281250D03*
X158035625Y-91281250D03*
D14*
X163115625Y-91281250D03*
D15*
X159305625Y-88741250D03*
X165655625Y-86201250D03*
D14*
X296465625Y-72231250D03*
D13*
X291385625Y-72231250D03*
X301545625Y-72231250D03*
D15*
X292655625Y-69691250D03*
X299005625Y-67151250D03*
D14*
X125015625Y-91281250D03*
D13*
X130095625Y-91281250D03*
X119935625Y-91281250D03*
D15*
X121205625Y-88741250D03*
X127555625Y-86201250D03*
D14*
X105965625Y-91281250D03*
D13*
X100885625Y-91281250D03*
X111045625Y-91281250D03*
D15*
X102155625Y-88741250D03*
X108505625Y-86201250D03*
D13*
X263445625Y-72231250D03*
X253285625Y-72231250D03*
D14*
X258365625Y-72231250D03*
D15*
X254555625Y-69691250D03*
X260905625Y-67151250D03*
D13*
X234235625Y-72231250D03*
X244395625Y-72231250D03*
D14*
X239315625Y-72231250D03*
D15*
X235505625Y-69691250D03*
X241855625Y-67151250D03*
D13*
X282495625Y-72231250D03*
D14*
X277415625Y-72231250D03*
D13*
X272335625Y-72231250D03*
D15*
X273605625Y-69691250D03*
X279955625Y-67151250D03*
D13*
X291385625Y-110331250D03*
D14*
X296465625Y-110331250D03*
D13*
X301545625Y-110331250D03*
D15*
X292655625Y-107791250D03*
X299005625Y-105251250D03*
D13*
X301545625Y-91281250D03*
D14*
X296465625Y-91281250D03*
D13*
X291385625Y-91281250D03*
D15*
X292655625Y-88741250D03*
X299005625Y-86201250D03*
D14*
X320278125Y-53181250D03*
D13*
X325358125Y-53181250D03*
X315198125Y-53181250D03*
D15*
X316468125Y-50641250D03*
X322818125Y-48101250D03*
D13*
X301545625Y-53181250D03*
D14*
X296465625Y-53181250D03*
D13*
X291385625Y-53181250D03*
D15*
X292655625Y-50641250D03*
X299005625Y-48101250D03*
D16*
X317752725Y-60693950D03*
D17*
X322752725Y-60693950D03*
X320252725Y-60693950D03*
D18*
X325852725Y-53193950D03*
X314652725Y-53193950D03*
D17*
X322752725Y-46193950D03*
X317752725Y-46193950D03*
D13*
X111045625Y-53181250D03*
X100885625Y-53181250D03*
D14*
X105965625Y-53181250D03*
D15*
X102155625Y-50641250D03*
X108505625Y-48101250D03*
D14*
X144065625Y-53181250D03*
D13*
X149145625Y-53181250D03*
X138985625Y-53181250D03*
D15*
X140255625Y-50641250D03*
X146605625Y-48101250D03*
D13*
X325358185Y-110331530D03*
X315198185Y-110331530D03*
D14*
X320278185Y-110331530D03*
D15*
X316468185Y-107791530D03*
X322818185Y-105251530D03*
D13*
X325358185Y-72231370D03*
X315198185Y-72231370D03*
D14*
X320278185Y-72231370D03*
D15*
X316468185Y-69691370D03*
X322818185Y-67151370D03*
D13*
X325358185Y-91281450D03*
D14*
X320278185Y-91281450D03*
D13*
X315198185Y-91281450D03*
D15*
X316468185Y-88741450D03*
X322818185Y-86201450D03*
D13*
X196135625Y-91281250D03*
D14*
X201215625Y-91281250D03*
D13*
X206295625Y-91281250D03*
D15*
X197405625Y-88741250D03*
X203755625Y-86201250D03*
D14*
X239315625Y-91281250D03*
D13*
X244395625Y-91281250D03*
X234235625Y-91281250D03*
D15*
X235505625Y-88741250D03*
X241855625Y-86201250D03*
D13*
X81835625Y-110331250D03*
X91995625Y-110331250D03*
D14*
X86915625Y-110331250D03*
D15*
X83105625Y-107791250D03*
X89455625Y-105251250D03*
D13*
X253285625Y-53181250D03*
X263445625Y-53181250D03*
D14*
X258365625Y-53181250D03*
D15*
X254555625Y-50641250D03*
X260905625Y-48101250D03*
D13*
X130095625Y-72231250D03*
D14*
X125015625Y-72231250D03*
D13*
X119935625Y-72231250D03*
D15*
X121205625Y-69691250D03*
X127555625Y-67151250D03*
D13*
X215185625Y-72231250D03*
D14*
X220265625Y-72231250D03*
D13*
X225345625Y-72231250D03*
D15*
X216455625Y-69691250D03*
X222805625Y-67151250D03*
D19*
X191140000Y-68800000D03*
X191140000Y-58640000D03*
X191140000Y-63720000D03*
X191546400Y-66260000D03*
X191546400Y-61180000D03*
D20*
X191546400Y-56100000D03*
D21*
X99329825Y-46312315D03*
X93549825Y-46312315D03*
D22*
X100739825Y-46863315D03*
D23*
X100739825Y-42663315D03*
X92139825Y-42663315D03*
D22*
X92139825Y-46863315D03*
M02*
