G04 #@! TF.GenerationSoftware,KiCad,Pcbnew,(6.0.1-0)*
G04 #@! TF.CreationDate,2022-01-21T16:33:06-06:00*
G04 #@! TF.ProjectId,pcb,7063622e-6b69-4636-9164-5f7063625858,rev?*
G04 #@! TF.SameCoordinates,Original*
G04 #@! TF.FileFunction,Soldermask,Top*
G04 #@! TF.FilePolarity,Negative*
%FSLAX46Y46*%
G04 Gerber Fmt 4.6, Leading zero omitted, Abs format (unit mm)*
G04 Created by KiCad (PCBNEW (6.0.1-0)) date 2022-01-21 16:33:06*
%MOMM*%
%LPD*%
G01*
G04 APERTURE LIST*
G04 Aperture macros list*
%AMRoundRect*
0 Rectangle with rounded corners*
0 $1 Rounding radius*
0 $2 $3 $4 $5 $6 $7 $8 $9 X,Y pos of 4 corners*
0 Add a 4 corners polygon primitive as box body*
4,1,4,$2,$3,$4,$5,$6,$7,$8,$9,$2,$3,0*
0 Add four circle primitives for the rounded corners*
1,1,$1+$1,$2,$3*
1,1,$1+$1,$4,$5*
1,1,$1+$1,$6,$7*
1,1,$1+$1,$8,$9*
0 Add four rect primitives between the rounded corners*
20,1,$1+$1,$2,$3,$4,$5,0*
20,1,$1+$1,$4,$5,$6,$7,0*
20,1,$1+$1,$6,$7,$8,$9,0*
20,1,$1+$1,$8,$9,$2,$3,0*%
G04 Aperture macros list end*
%ADD10C,1.701800*%
%ADD11C,3.987800*%
%ADD12C,2.540000*%
%ADD13R,2.000000X2.000000*%
%ADD14C,2.000000*%
%ADD15R,2.000000X3.200000*%
%ADD16C,1.803400*%
%ADD17RoundRect,0.501650X0.400050X0.400050X-0.400050X0.400050X-0.400050X-0.400050X0.400050X-0.400050X0*%
%ADD18C,0.650000*%
%ADD19O,1.300000X2.400000*%
%ADD20O,1.300000X1.900000*%
G04 APERTURE END LIST*
D10*
X119935625Y-53181250D03*
X130095625Y-53181250D03*
D11*
X125015625Y-53181250D03*
D12*
X121205625Y-50641250D03*
X127555625Y-48101250D03*
D10*
X196135625Y-53181250D03*
D11*
X201215625Y-53181250D03*
D10*
X206295625Y-53181250D03*
D12*
X197405625Y-50641250D03*
X203755625Y-48101250D03*
D10*
X187245625Y-53181250D03*
D11*
X182165625Y-53181250D03*
D10*
X177085625Y-53181250D03*
D12*
X178355625Y-50641250D03*
X184705625Y-48101250D03*
D11*
X163115625Y-53181250D03*
D10*
X168195625Y-53181250D03*
X158035625Y-53181250D03*
D12*
X159305625Y-50641250D03*
X165655625Y-48101250D03*
D11*
X86915625Y-53181250D03*
D10*
X91995625Y-53181250D03*
X81835625Y-53181250D03*
D12*
X83105625Y-50641250D03*
X89455625Y-48101250D03*
D10*
X215185625Y-53181250D03*
X225345625Y-53181250D03*
D11*
X220265625Y-53181250D03*
D12*
X216455625Y-50641250D03*
X222805625Y-48101250D03*
D10*
X234235625Y-53181250D03*
D11*
X239315625Y-53181250D03*
D10*
X244395625Y-53181250D03*
D12*
X235505625Y-50641250D03*
X241855625Y-48101250D03*
D11*
X86915625Y-72231250D03*
D10*
X81835625Y-72231250D03*
X91995625Y-72231250D03*
D12*
X83105625Y-69691250D03*
X89455625Y-67151250D03*
D10*
X100885625Y-72231250D03*
X111045625Y-72231250D03*
D11*
X105965625Y-72231250D03*
D12*
X102155625Y-69691250D03*
X108505625Y-67151250D03*
D10*
X149150799Y-72231250D03*
D11*
X144070799Y-72231250D03*
D10*
X138990799Y-72231250D03*
D12*
X140260799Y-69691250D03*
X146610799Y-67151250D03*
D10*
X282495625Y-53181250D03*
X272335625Y-53181250D03*
D11*
X277415625Y-53181250D03*
D12*
X273605625Y-50641250D03*
X279955625Y-48101250D03*
D10*
X168195625Y-72231250D03*
X158035625Y-72231250D03*
D11*
X163115625Y-72231250D03*
D12*
X159305625Y-69691250D03*
X165655625Y-67151250D03*
D10*
X187245625Y-72231250D03*
D11*
X182165625Y-72231250D03*
D10*
X177085625Y-72231250D03*
D12*
X178355625Y-69691250D03*
X184705625Y-67151250D03*
D10*
X196135625Y-72231250D03*
X206295625Y-72231250D03*
D11*
X201215625Y-72231250D03*
D12*
X197405625Y-69691250D03*
X203755625Y-67151250D03*
D10*
X111045625Y-110331250D03*
X100885625Y-110331250D03*
D11*
X105965625Y-110331250D03*
D12*
X102155625Y-107791250D03*
X108505625Y-105251250D03*
D10*
X119935625Y-110331250D03*
D11*
X125015625Y-110331250D03*
D10*
X130095625Y-110331250D03*
D12*
X121205625Y-107791250D03*
X127555625Y-105251250D03*
D10*
X149145625Y-110331250D03*
X138985625Y-110331250D03*
D11*
X144065625Y-110331250D03*
D12*
X140255625Y-107791250D03*
X146605625Y-105251250D03*
D11*
X163115625Y-110331250D03*
D10*
X168195625Y-110331250D03*
X158035625Y-110331250D03*
D12*
X159305625Y-107791250D03*
X165655625Y-105251250D03*
D10*
X177085625Y-110331250D03*
D11*
X182165625Y-110331250D03*
D10*
X187245625Y-110331250D03*
D12*
X178355625Y-107791250D03*
X184705625Y-105251250D03*
D10*
X225345625Y-110331250D03*
X215185625Y-110331250D03*
D11*
X220265625Y-110331250D03*
D12*
X216455625Y-107791250D03*
X222805625Y-105251250D03*
D10*
X234235625Y-110331250D03*
D11*
X239315625Y-110331250D03*
D10*
X244395625Y-110331250D03*
D12*
X235505625Y-107791250D03*
X241855625Y-105251250D03*
D11*
X258365625Y-110331250D03*
D10*
X263445625Y-110331250D03*
X253285625Y-110331250D03*
D12*
X254555625Y-107791250D03*
X260905625Y-105251250D03*
D11*
X277415625Y-110331250D03*
D10*
X272335625Y-110331250D03*
X282495625Y-110331250D03*
D12*
X273605625Y-107791250D03*
X279955625Y-105251250D03*
D10*
X206295625Y-110331250D03*
X196135625Y-110331250D03*
D11*
X201215625Y-110331250D03*
D12*
X197405625Y-107791250D03*
X203755625Y-105251250D03*
D10*
X272335625Y-91281250D03*
D11*
X277415625Y-91281250D03*
D10*
X282495625Y-91281250D03*
D12*
X273605625Y-88741250D03*
X279955625Y-86201250D03*
D10*
X253285625Y-91281250D03*
D11*
X258365625Y-91281250D03*
D10*
X263445625Y-91281250D03*
D12*
X254555625Y-88741250D03*
X260905625Y-86201250D03*
D11*
X220265625Y-91281250D03*
D10*
X215185625Y-91281250D03*
X225345625Y-91281250D03*
D12*
X216455625Y-88741250D03*
X222805625Y-86201250D03*
D10*
X177085625Y-91281250D03*
D11*
X182165625Y-91281250D03*
D10*
X187245625Y-91281250D03*
D12*
X178355625Y-88741250D03*
X184705625Y-86201250D03*
D10*
X138985625Y-91281250D03*
D11*
X144065625Y-91281250D03*
D10*
X149145625Y-91281250D03*
D12*
X140255625Y-88741250D03*
X146605625Y-86201250D03*
D11*
X86915625Y-91281250D03*
D10*
X81835625Y-91281250D03*
X91995625Y-91281250D03*
D12*
X83105625Y-88741250D03*
X89455625Y-86201250D03*
D10*
X168195625Y-91281250D03*
X158035625Y-91281250D03*
D11*
X163115625Y-91281250D03*
D12*
X159305625Y-88741250D03*
X165655625Y-86201250D03*
D11*
X296465625Y-72231250D03*
D10*
X291385625Y-72231250D03*
X301545625Y-72231250D03*
D12*
X292655625Y-69691250D03*
X299005625Y-67151250D03*
D11*
X125015625Y-91281250D03*
D10*
X130095625Y-91281250D03*
X119935625Y-91281250D03*
D12*
X121205625Y-88741250D03*
X127555625Y-86201250D03*
D11*
X105965625Y-91281250D03*
D10*
X100885625Y-91281250D03*
X111045625Y-91281250D03*
D12*
X102155625Y-88741250D03*
X108505625Y-86201250D03*
D10*
X263445625Y-72231250D03*
X253285625Y-72231250D03*
D11*
X258365625Y-72231250D03*
D12*
X254555625Y-69691250D03*
X260905625Y-67151250D03*
D10*
X234235625Y-72231250D03*
X244395625Y-72231250D03*
D11*
X239315625Y-72231250D03*
D12*
X235505625Y-69691250D03*
X241855625Y-67151250D03*
D10*
X282495625Y-72231250D03*
D11*
X277415625Y-72231250D03*
D10*
X272335625Y-72231250D03*
D12*
X273605625Y-69691250D03*
X279955625Y-67151250D03*
D10*
X291385625Y-110331250D03*
D11*
X296465625Y-110331250D03*
D10*
X301545625Y-110331250D03*
D12*
X292655625Y-107791250D03*
X299005625Y-105251250D03*
D10*
X301545625Y-91281250D03*
D11*
X296465625Y-91281250D03*
D10*
X291385625Y-91281250D03*
D12*
X292655625Y-88741250D03*
X299005625Y-86201250D03*
D11*
X320278125Y-53181250D03*
D10*
X325358125Y-53181250D03*
X315198125Y-53181250D03*
D12*
X316468125Y-50641250D03*
X322818125Y-48101250D03*
D10*
X301545625Y-53181250D03*
D11*
X296465625Y-53181250D03*
D10*
X291385625Y-53181250D03*
D12*
X292655625Y-50641250D03*
X299005625Y-48101250D03*
D13*
X317752725Y-60693950D03*
D14*
X322752725Y-60693950D03*
X320252725Y-60693950D03*
D15*
X325852725Y-53193950D03*
X314652725Y-53193950D03*
D14*
X322752725Y-46193950D03*
X317752725Y-46193950D03*
D10*
X111045625Y-53181250D03*
X100885625Y-53181250D03*
D11*
X105965625Y-53181250D03*
D12*
X102155625Y-50641250D03*
X108505625Y-48101250D03*
D11*
X144065625Y-53181250D03*
D10*
X149145625Y-53181250D03*
X138985625Y-53181250D03*
D12*
X140255625Y-50641250D03*
X146605625Y-48101250D03*
D10*
X325358185Y-110331530D03*
X315198185Y-110331530D03*
D11*
X320278185Y-110331530D03*
D12*
X316468185Y-107791530D03*
X322818185Y-105251530D03*
D10*
X325358185Y-72231370D03*
X315198185Y-72231370D03*
D11*
X320278185Y-72231370D03*
D12*
X316468185Y-69691370D03*
X322818185Y-67151370D03*
D10*
X325358185Y-91281450D03*
D11*
X320278185Y-91281450D03*
D10*
X315198185Y-91281450D03*
D12*
X316468185Y-88741450D03*
X322818185Y-86201450D03*
D10*
X196135625Y-91281250D03*
D11*
X201215625Y-91281250D03*
D10*
X206295625Y-91281250D03*
D12*
X197405625Y-88741250D03*
X203755625Y-86201250D03*
D11*
X239315625Y-91281250D03*
D10*
X244395625Y-91281250D03*
X234235625Y-91281250D03*
D12*
X235505625Y-88741250D03*
X241855625Y-86201250D03*
D10*
X81835625Y-110331250D03*
X91995625Y-110331250D03*
D11*
X86915625Y-110331250D03*
D12*
X83105625Y-107791250D03*
X89455625Y-105251250D03*
D10*
X253285625Y-53181250D03*
X263445625Y-53181250D03*
D11*
X258365625Y-53181250D03*
D12*
X254555625Y-50641250D03*
X260905625Y-48101250D03*
D10*
X130095625Y-72231250D03*
D11*
X125015625Y-72231250D03*
D10*
X119935625Y-72231250D03*
D12*
X121205625Y-69691250D03*
X127555625Y-67151250D03*
D10*
X215185625Y-72231250D03*
D11*
X220265625Y-72231250D03*
D10*
X225345625Y-72231250D03*
D12*
X216455625Y-69691250D03*
X222805625Y-67151250D03*
D16*
X191140000Y-68800000D03*
X191140000Y-58640000D03*
X191140000Y-63720000D03*
X191546400Y-66260000D03*
X191546400Y-61180000D03*
D17*
X191546400Y-56100000D03*
D18*
X99329825Y-46312315D03*
X93549825Y-46312315D03*
D19*
X100739825Y-46863315D03*
D20*
X100739825Y-42663315D03*
X92139825Y-42663315D03*
D19*
X92139825Y-46863315D03*
M02*
