G04 #@! TF.GenerationSoftware,KiCad,Pcbnew,(6.0.1-0)*
G04 #@! TF.CreationDate,2022-04-18T21:34:50-05:00*
G04 #@! TF.ProjectId,plate,706c6174-652e-46b6-9963-61645f706362,rev?*
G04 #@! TF.SameCoordinates,Original*
G04 #@! TF.FileFunction,Legend,Bot*
G04 #@! TF.FilePolarity,Positive*
%FSLAX46Y46*%
G04 Gerber Fmt 4.6, Leading zero omitted, Abs format (unit mm)*
G04 Created by KiCad (PCBNEW (6.0.1-0)) date 2022-04-18 21:34:50*
%MOMM*%
%LPD*%
G01*
G04 APERTURE LIST*
%ADD10C,0.200000*%
%ADD11C,0.150000*%
G04 APERTURE END LIST*
D10*
X376864173Y-71943053D02*
X376923697Y-72062100D01*
X377042745Y-72121624D01*
X378114173Y-72121624D01*
X377697507Y-70931148D02*
X376864173Y-70931148D01*
X377697507Y-71466862D02*
X377042745Y-71466862D01*
X376923697Y-71407338D01*
X376864173Y-71288291D01*
X376864173Y-71109719D01*
X376923697Y-70990672D01*
X376983221Y-70931148D01*
X376923697Y-69800196D02*
X376864173Y-69919243D01*
X376864173Y-70157338D01*
X376923697Y-70276386D01*
X376983221Y-70335910D01*
X377102269Y-70395434D01*
X377459411Y-70395434D01*
X377578459Y-70335910D01*
X377637983Y-70276386D01*
X377697507Y-70157338D01*
X377697507Y-69919243D01*
X377637983Y-69800196D01*
X377697507Y-69383529D02*
X376864173Y-69085910D01*
X377697507Y-68788291D02*
X376864173Y-69085910D01*
X376566554Y-69204957D01*
X376507030Y-69264481D01*
X376447507Y-69383529D01*
X376864173Y-67359719D02*
X377697507Y-67359719D01*
X377459411Y-67359719D02*
X377578459Y-67300196D01*
X377637983Y-67240672D01*
X377697507Y-67121624D01*
X377697507Y-67002576D01*
X376923697Y-66109719D02*
X376864173Y-66228767D01*
X376864173Y-66466862D01*
X376923697Y-66585910D01*
X377042745Y-66645434D01*
X377518935Y-66645434D01*
X377637983Y-66585910D01*
X377697507Y-66466862D01*
X377697507Y-66228767D01*
X377637983Y-66109719D01*
X377518935Y-66050196D01*
X377399888Y-66050196D01*
X377280840Y-66645434D01*
X377697507Y-65633529D02*
X376864173Y-65335910D01*
X377697507Y-65038291D01*
X376864173Y-62954957D02*
X376864173Y-63669243D01*
X376864173Y-63312100D02*
X378114173Y-63312100D01*
X377935602Y-63431148D01*
X377816554Y-63550196D01*
X377757030Y-63669243D01*
X376983221Y-62419243D02*
X376923697Y-62359719D01*
X376864173Y-62419243D01*
X376923697Y-62478767D01*
X376983221Y-62419243D01*
X376864173Y-62419243D01*
X378114173Y-61943053D02*
X378114173Y-61169243D01*
X377637983Y-61585910D01*
X377637983Y-61407338D01*
X377578459Y-61288291D01*
X377518935Y-61228767D01*
X377399888Y-61169243D01*
X377102269Y-61169243D01*
X376983221Y-61228767D01*
X376923697Y-61288291D01*
X376864173Y-61407338D01*
X376864173Y-61764481D01*
X376923697Y-61883529D01*
X376983221Y-61943053D01*
D11*
X377977289Y-111775555D02*
X377263003Y-111775555D01*
X377120146Y-111823174D01*
X377024908Y-111918412D01*
X376977289Y-112061269D01*
X376977289Y-112156508D01*
X376977289Y-110823174D02*
X376977289Y-111299365D01*
X377977289Y-111299365D01*
X377072527Y-109918412D02*
X377024908Y-109966031D01*
X376977289Y-110108888D01*
X376977289Y-110204127D01*
X377024908Y-110346984D01*
X377120146Y-110442222D01*
X377215384Y-110489841D01*
X377405860Y-110537460D01*
X377548717Y-110537460D01*
X377739193Y-110489841D01*
X377834431Y-110442222D01*
X377929670Y-110346984D01*
X377977289Y-110204127D01*
X377977289Y-110108888D01*
X377929670Y-109966031D01*
X377882050Y-109918412D01*
X377977289Y-109204127D02*
X377263003Y-109204127D01*
X377120146Y-109251746D01*
X377024908Y-109346984D01*
X376977289Y-109489841D01*
X376977289Y-109585079D01*
X376977289Y-108251746D02*
X376977289Y-108727936D01*
X377977289Y-108727936D01*
X377072527Y-107346984D02*
X377024908Y-107394603D01*
X376977289Y-107537460D01*
X376977289Y-107632698D01*
X377024908Y-107775555D01*
X377120146Y-107870793D01*
X377215384Y-107918412D01*
X377405860Y-107966031D01*
X377548717Y-107966031D01*
X377739193Y-107918412D01*
X377834431Y-107870793D01*
X377929670Y-107775555D01*
X377977289Y-107632698D01*
X377977289Y-107537460D01*
X377929670Y-107394603D01*
X377882050Y-107346984D01*
X377977289Y-106632698D02*
X377263003Y-106632698D01*
X377120146Y-106680317D01*
X377024908Y-106775555D01*
X376977289Y-106918412D01*
X376977289Y-107013650D01*
X376977289Y-105680317D02*
X376977289Y-106156508D01*
X377977289Y-106156508D01*
X377072527Y-104775555D02*
X377024908Y-104823174D01*
X376977289Y-104966031D01*
X376977289Y-105061269D01*
X377024908Y-105204127D01*
X377120146Y-105299365D01*
X377215384Y-105346984D01*
X377405860Y-105394603D01*
X377548717Y-105394603D01*
X377739193Y-105346984D01*
X377834431Y-105299365D01*
X377929670Y-105204127D01*
X377977289Y-105061269D01*
X377977289Y-104966031D01*
X377929670Y-104823174D01*
X377882050Y-104775555D01*
X377977289Y-104061269D02*
X377263003Y-104061269D01*
X377120146Y-104108888D01*
X377024908Y-104204127D01*
X376977289Y-104346984D01*
X376977289Y-104442222D01*
X376977289Y-103108888D02*
X376977289Y-103585079D01*
X377977289Y-103585079D01*
X377072527Y-102204127D02*
X377024908Y-102251746D01*
X376977289Y-102394603D01*
X376977289Y-102489841D01*
X377024908Y-102632698D01*
X377120146Y-102727936D01*
X377215384Y-102775555D01*
X377405860Y-102823174D01*
X377548717Y-102823174D01*
X377739193Y-102775555D01*
X377834431Y-102727936D01*
X377929670Y-102632698D01*
X377977289Y-102489841D01*
X377977289Y-102394603D01*
X377929670Y-102251746D01*
X377882050Y-102204127D01*
M02*
