G04 #@! TF.GenerationSoftware,KiCad,Pcbnew,(6.0.0-0)*
G04 #@! TF.CreationDate,2022-01-19T17:07:01-06:00*
G04 #@! TF.ProjectId,top_plate,746f705f-706c-4617-9465-2e6b69636164,rev?*
G04 #@! TF.SameCoordinates,Original*
G04 #@! TF.FileFunction,Profile,NP*
%FSLAX46Y46*%
G04 Gerber Fmt 4.6, Leading zero omitted, Abs format (unit mm)*
G04 Created by KiCad (PCBNEW (6.0.0-0)) date 2022-01-19 17:07:01*
%MOMM*%
%LPD*%
G01*
G04 APERTURE LIST*
G04 #@! TA.AperFunction,Profile*
%ADD10C,0.050000*%
G04 #@! TD*
G04 #@! TA.AperFunction,Profile*
%ADD11C,0.100000*%
G04 #@! TD*
G04 APERTURE END LIST*
D10*
X158354486Y-121443925D02*
X161331051Y-116681421D01*
X391121869Y-122039333D02*
G75*
G03*
X391717182Y-121444020I-1785272J2380585D01*
G01*
X388145304Y-118467455D02*
X388145304Y-122039333D01*
X390526556Y-118467455D02*
G75*
G03*
X388145304Y-118467455I-1190626J0D01*
G01*
X390526556Y-122039333D02*
X390526556Y-118467455D01*
X388145304Y-122039333D02*
X387549991Y-122039333D01*
X386954678Y-121444020D02*
X383978113Y-116681516D01*
X390526556Y-122039333D02*
X391121869Y-122039333D01*
X386954678Y-121444020D02*
G75*
G03*
X387549991Y-122039333I2381879J1786566D01*
G01*
X391717182Y-121444020D02*
X394693747Y-116681516D01*
X313731179Y-122039238D02*
G75*
G03*
X314326492Y-121443925I-1785272J2380585D01*
G01*
X310754614Y-118467360D02*
X310754614Y-122039238D01*
X313135866Y-118467360D02*
G75*
G03*
X310754614Y-118467360I-1190626J0D01*
G01*
X313135866Y-122039238D02*
X313135866Y-118467360D01*
X310754614Y-122039238D02*
X310159301Y-122039238D01*
X309563988Y-121443925D02*
X306587423Y-116681421D01*
X313135866Y-122039238D02*
X313731179Y-122039238D01*
X309563988Y-121443925D02*
G75*
G03*
X310159301Y-122039238I2381879J1786566D01*
G01*
X314326492Y-121443925D02*
X317303057Y-116681421D01*
X235149863Y-122039352D02*
G75*
G03*
X235745176Y-121444039I-1785272J2380585D01*
G01*
X232173298Y-118467474D02*
X232173298Y-122039352D01*
X234554550Y-118467474D02*
G75*
G03*
X232173298Y-118467474I-1190626J0D01*
G01*
X234554550Y-122039352D02*
X234554550Y-118467474D01*
X232173298Y-122039352D02*
X231577985Y-122039352D01*
X230982672Y-121444039D02*
X228006107Y-116681535D01*
X234554550Y-122039352D02*
X235149863Y-122039352D01*
X230982672Y-121444039D02*
G75*
G03*
X231577985Y-122039352I2381879J1786566D01*
G01*
X235745176Y-121444039D02*
X238721741Y-116681535D01*
X157759173Y-122039238D02*
G75*
G03*
X158354486Y-121443925I-1785272J2380585D01*
G01*
X154782608Y-118467360D02*
X154782608Y-122039238D01*
X157163860Y-118467360D02*
G75*
G03*
X154782608Y-118467360I-1190626J0D01*
G01*
X157163860Y-122039238D02*
X157163860Y-118467360D01*
X154782608Y-122039238D02*
X154187295Y-122039238D01*
X153591982Y-121443925D02*
X150615417Y-116681421D01*
X157163860Y-122039238D02*
X157759173Y-122039238D01*
X153591982Y-121443925D02*
G75*
G03*
X154187295Y-122039238I2381879J1786566D01*
G01*
X387549991Y-35123627D02*
G75*
G03*
X386954678Y-35718940I1785272J-2380585D01*
G01*
X390526556Y-38695505D02*
X390526556Y-35123627D01*
X388145304Y-38695505D02*
G75*
G03*
X390526556Y-38695505I1190626J0D01*
G01*
X388145304Y-35123627D02*
X388145304Y-38695505D01*
X390526556Y-35123627D02*
X391121869Y-35123627D01*
X391717182Y-35718940D02*
X394693747Y-40481444D01*
X388145304Y-35123627D02*
X387549991Y-35123627D01*
X391717182Y-35718940D02*
G75*
G03*
X391121869Y-35123627I-2381879J-1786566D01*
G01*
X386954678Y-35718940D02*
X383978113Y-40481444D01*
X310159301Y-35123616D02*
G75*
G03*
X309563988Y-35718929I1785272J-2380585D01*
G01*
X313135866Y-38695494D02*
X313135866Y-35123616D01*
X310754614Y-38695494D02*
G75*
G03*
X313135866Y-38695494I1190626J0D01*
G01*
X310754614Y-35123616D02*
X310754614Y-38695494D01*
X313135866Y-35123616D02*
X313731179Y-35123616D01*
X314326492Y-35718929D02*
X317303057Y-40481433D01*
X310754614Y-35123616D02*
X310159301Y-35123616D01*
X314326492Y-35718929D02*
G75*
G03*
X313731179Y-35123616I-2381879J-1786566D01*
G01*
X309563988Y-35718929D02*
X306587423Y-40481433D01*
X231577985Y-35123635D02*
G75*
G03*
X230982672Y-35718948I1785272J-2380585D01*
G01*
X234554550Y-38695513D02*
X234554550Y-35123635D01*
X232173298Y-38695513D02*
G75*
G03*
X234554550Y-38695513I1190626J0D01*
G01*
X232173298Y-35123635D02*
X232173298Y-38695513D01*
X234554550Y-35123635D02*
X235149863Y-35123635D01*
X235745176Y-35718948D02*
X238721741Y-40481452D01*
X232173298Y-35123635D02*
X231577985Y-35123635D01*
X235745176Y-35718948D02*
G75*
G03*
X235149863Y-35123635I-2381879J-1786566D01*
G01*
X230982672Y-35718948D02*
X228006107Y-40481452D01*
X396479634Y-116681404D02*
G75*
G03*
X398860894Y-114300144I0J2381260D01*
G01*
X146449842Y-114300156D02*
G75*
G03*
X148829842Y-116680144I2380000J12D01*
G01*
X396479634Y-116681516D02*
X394693747Y-116681516D01*
X398860894Y-42862716D02*
G75*
G03*
X396479634Y-40481456I-2381260J0D01*
G01*
X396479634Y-40481456D02*
X394693747Y-40481444D01*
X383978113Y-40481444D02*
X317303057Y-40481433D01*
X306587423Y-40481433D02*
X238721741Y-40481452D01*
X150615417Y-40481452D02*
X148829842Y-40481468D01*
X148829842Y-116680144D02*
X150615417Y-116681421D01*
X161331051Y-116681421D02*
X228006107Y-116681535D01*
X238721741Y-116681535D02*
X306587423Y-116681421D01*
X317303057Y-116681421D02*
X383978113Y-116681535D01*
X146448582Y-42862728D02*
X146449842Y-114300156D01*
X228006107Y-40481452D02*
X161331051Y-40481452D01*
X148829842Y-40481468D02*
G75*
G03*
X146448582Y-42862728I0J-2381260D01*
G01*
X153591982Y-35718948D02*
X150615417Y-40481452D01*
X158354486Y-35718948D02*
G75*
G03*
X157759173Y-35123635I-2381879J-1786566D01*
G01*
X154782608Y-35123635D02*
X154187295Y-35123635D01*
X158354486Y-35718948D02*
X161331051Y-40481452D01*
X157163860Y-35123635D02*
X157759173Y-35123635D01*
X398860894Y-114300144D02*
X398860894Y-42862716D01*
X154782608Y-35123635D02*
X154782608Y-38695513D01*
X154782608Y-38695513D02*
G75*
G03*
X157163860Y-38695513I1190626J0D01*
G01*
X157163860Y-38695513D02*
X157163860Y-35123635D01*
X154187295Y-35123635D02*
G75*
G03*
X153591982Y-35718948I1785272J-2380585D01*
G01*
D11*
X148972530Y-56706460D02*
X148972530Y-56306460D01*
X163772530Y-56006460D02*
X163272530Y-56006460D01*
X148672530Y-56006460D02*
X148272530Y-56006460D01*
X148172530Y-52906460D02*
X148672530Y-52906460D01*
X148172530Y-44006460D02*
X148672530Y-44006460D01*
X162672530Y-57006460D02*
X149272530Y-57006460D01*
X162972530Y-56306460D02*
X162972530Y-56706460D01*
X162972530Y-52606460D02*
X162972530Y-47406460D01*
X148972530Y-43706460D02*
X148972530Y-43306460D01*
X148672530Y-47106460D02*
X148272530Y-47106460D01*
X163272530Y-44006460D02*
X163672530Y-44006460D01*
X163772530Y-47106460D02*
X163272530Y-47106460D01*
X162972530Y-43306460D02*
X162972530Y-43706460D01*
X162672530Y-43006460D02*
X149272530Y-43006460D01*
X163272530Y-52906460D02*
X163672530Y-52906460D01*
X163972530Y-46906460D02*
X163972530Y-44306460D01*
X148972530Y-47406460D02*
X148972530Y-52606460D01*
X147972530Y-44206460D02*
X147972530Y-46806460D01*
X163972530Y-55806460D02*
X163972530Y-53206460D01*
X147972530Y-53106460D02*
X147972530Y-55706460D01*
X162972530Y-43706460D02*
G75*
G03*
X163272530Y-44006460I300000J0D01*
G01*
X163772530Y-56006460D02*
G75*
G03*
X163972530Y-55806460I-1J200001D01*
G01*
X147972530Y-55706460D02*
G75*
G03*
X148272530Y-56006460I300000J0D01*
G01*
X163772530Y-47106460D02*
G75*
G03*
X163972530Y-46906460I-1J200001D01*
G01*
X148972530Y-56306460D02*
G75*
G03*
X148672530Y-56006460I-300000J0D01*
G01*
X163272530Y-47106460D02*
G75*
G03*
X162972530Y-47406460I0J-300000D01*
G01*
X147972530Y-46806460D02*
G75*
G03*
X148272530Y-47106460I300000J0D01*
G01*
X163972530Y-44306460D02*
G75*
G03*
X163672530Y-44006460I-300000J0D01*
G01*
X149272530Y-43006460D02*
G75*
G03*
X148972530Y-43306460I0J-300000D01*
G01*
X148972530Y-47406460D02*
G75*
G03*
X148672530Y-47106460I-300000J0D01*
G01*
X162972530Y-52606460D02*
G75*
G03*
X163272530Y-52906460I300000J0D01*
G01*
X148972530Y-56706460D02*
G75*
G03*
X149272530Y-57006460I300000J0D01*
G01*
X163272530Y-56006460D02*
G75*
G03*
X162972530Y-56306460I0J-300000D01*
G01*
X148672530Y-44006460D02*
G75*
G03*
X148972530Y-43706460I0J300000D01*
G01*
X163972530Y-53206460D02*
G75*
G03*
X163672530Y-52906460I-300000J0D01*
G01*
X148672530Y-52906460D02*
G75*
G03*
X148972530Y-52606460I0J300000D01*
G01*
X148172530Y-52906460D02*
G75*
G03*
X147972530Y-53106460I1J-200001D01*
G01*
X162972530Y-43306460D02*
G75*
G03*
X162672530Y-43006460I-300000J0D01*
G01*
X162672530Y-57006460D02*
G75*
G03*
X162972530Y-56706460I0J300000D01*
G01*
X148172530Y-44006460D02*
G75*
G03*
X147972530Y-44206460I1J-200001D01*
G01*
X167022610Y-44206460D02*
X167022610Y-46806460D01*
X181722610Y-43006460D02*
X168322610Y-43006460D01*
X168022610Y-43706460D02*
X168022610Y-43306460D01*
X167022610Y-53106460D02*
X167022610Y-55706460D01*
X182322610Y-44006460D02*
X182722610Y-44006460D01*
X167222610Y-44006460D02*
X167722610Y-44006460D01*
X182022610Y-52606460D02*
X182022610Y-47406460D01*
X167222610Y-52906460D02*
X167722610Y-52906460D01*
X183022610Y-46906460D02*
X183022610Y-44306460D01*
X182822610Y-47106460D02*
X182322610Y-47106460D01*
X182022610Y-56306460D02*
X182022610Y-56706460D01*
X168022610Y-47406460D02*
X168022610Y-52606460D01*
X183022610Y-55806460D02*
X183022610Y-53206460D01*
X167722610Y-56006460D02*
X167322610Y-56006460D01*
X168022610Y-56706460D02*
X168022610Y-56306460D01*
X182322610Y-52906460D02*
X182722610Y-52906460D01*
X167722610Y-47106460D02*
X167322610Y-47106460D01*
X182822610Y-56006460D02*
X182322610Y-56006460D01*
X182022610Y-43306460D02*
X182022610Y-43706460D01*
X181722610Y-57006460D02*
X168322610Y-57006460D01*
X183022610Y-44306460D02*
G75*
G03*
X182722610Y-44006460I-300000J0D01*
G01*
X182022610Y-52606460D02*
G75*
G03*
X182322610Y-52906460I300000J0D01*
G01*
X182022610Y-43306460D02*
G75*
G03*
X181722610Y-43006460I-300000J0D01*
G01*
X167022610Y-55706460D02*
G75*
G03*
X167322610Y-56006460I300000J0D01*
G01*
X168322610Y-43006460D02*
G75*
G03*
X168022610Y-43306460I0J-300000D01*
G01*
X182822610Y-47106460D02*
G75*
G03*
X183022610Y-46906460I-1J200001D01*
G01*
X167022610Y-46806460D02*
G75*
G03*
X167322610Y-47106460I300000J0D01*
G01*
X182022610Y-43706460D02*
G75*
G03*
X182322610Y-44006460I300000J0D01*
G01*
X168022610Y-56306460D02*
G75*
G03*
X167722610Y-56006460I-300000J0D01*
G01*
X182822610Y-56006460D02*
G75*
G03*
X183022610Y-55806460I-1J200001D01*
G01*
X167722610Y-44006460D02*
G75*
G03*
X168022610Y-43706460I0J300000D01*
G01*
X167722610Y-52906460D02*
G75*
G03*
X168022610Y-52606460I0J300000D01*
G01*
X167222610Y-52906460D02*
G75*
G03*
X167022610Y-53106460I1J-200001D01*
G01*
X182322610Y-56006460D02*
G75*
G03*
X182022610Y-56306460I0J-300000D01*
G01*
X182322610Y-47106460D02*
G75*
G03*
X182022610Y-47406460I0J-300000D01*
G01*
X168022610Y-47406460D02*
G75*
G03*
X167722610Y-47106460I-300000J0D01*
G01*
X181722610Y-57006460D02*
G75*
G03*
X182022610Y-56706460I0J300000D01*
G01*
X167222610Y-44006460D02*
G75*
G03*
X167022610Y-44206460I1J-200001D01*
G01*
X168022610Y-56706460D02*
G75*
G03*
X168322610Y-57006460I300000J0D01*
G01*
X183022610Y-53206460D02*
G75*
G03*
X182722610Y-52906460I-300000J0D01*
G01*
X200772690Y-57006460D02*
X187372690Y-57006460D01*
X201372690Y-44006460D02*
X201772690Y-44006460D01*
X186772690Y-56006460D02*
X186372690Y-56006460D01*
X187072690Y-43706460D02*
X187072690Y-43306460D01*
X186272690Y-52906460D02*
X186772690Y-52906460D01*
X187072690Y-47406460D02*
X187072690Y-52606460D01*
X186772690Y-47106460D02*
X186372690Y-47106460D01*
X201372690Y-52906460D02*
X201772690Y-52906460D01*
X202072690Y-46906460D02*
X202072690Y-44306460D01*
X186072690Y-44206460D02*
X186072690Y-46806460D01*
X201072690Y-52606460D02*
X201072690Y-47406460D01*
X200772690Y-43006460D02*
X187372690Y-43006460D01*
X202072690Y-55806460D02*
X202072690Y-53206460D01*
X186072690Y-53106460D02*
X186072690Y-55706460D01*
X201072690Y-43306460D02*
X201072690Y-43706460D01*
X201072690Y-56306460D02*
X201072690Y-56706460D01*
X201872690Y-47106460D02*
X201372690Y-47106460D01*
X201872690Y-56006460D02*
X201372690Y-56006460D01*
X187072690Y-56706460D02*
X187072690Y-56306460D01*
X186272690Y-44006460D02*
X186772690Y-44006460D01*
X201372690Y-47106460D02*
G75*
G03*
X201072690Y-47406460I0J-300000D01*
G01*
X186272690Y-44006460D02*
G75*
G03*
X186072690Y-44206460I1J-200001D01*
G01*
X186272690Y-52906460D02*
G75*
G03*
X186072690Y-53106460I1J-200001D01*
G01*
X187372690Y-43006460D02*
G75*
G03*
X187072690Y-43306460I0J-300000D01*
G01*
X200772690Y-57006460D02*
G75*
G03*
X201072690Y-56706460I0J300000D01*
G01*
X186072690Y-55706460D02*
G75*
G03*
X186372690Y-56006460I300000J0D01*
G01*
X201372690Y-56006460D02*
G75*
G03*
X201072690Y-56306460I0J-300000D01*
G01*
X202072690Y-44306460D02*
G75*
G03*
X201772690Y-44006460I-300000J0D01*
G01*
X186772690Y-44006460D02*
G75*
G03*
X187072690Y-43706460I0J300000D01*
G01*
X202072690Y-53206460D02*
G75*
G03*
X201772690Y-52906460I-300000J0D01*
G01*
X201872690Y-56006460D02*
G75*
G03*
X202072690Y-55806460I-1J200001D01*
G01*
X186772690Y-52906460D02*
G75*
G03*
X187072690Y-52606460I0J300000D01*
G01*
X186072690Y-46806460D02*
G75*
G03*
X186372690Y-47106460I300000J0D01*
G01*
X187072690Y-47406460D02*
G75*
G03*
X186772690Y-47106460I-300000J0D01*
G01*
X201072690Y-43306460D02*
G75*
G03*
X200772690Y-43006460I-300000J0D01*
G01*
X201072690Y-43706460D02*
G75*
G03*
X201372690Y-44006460I300000J0D01*
G01*
X201872690Y-47106460D02*
G75*
G03*
X202072690Y-46906460I-1J200001D01*
G01*
X187072690Y-56306460D02*
G75*
G03*
X186772690Y-56006460I-300000J0D01*
G01*
X187072690Y-56706460D02*
G75*
G03*
X187372690Y-57006460I300000J0D01*
G01*
X201072690Y-52606460D02*
G75*
G03*
X201372690Y-52906460I300000J0D01*
G01*
X221122770Y-55806460D02*
X221122770Y-53206460D01*
X205822770Y-56006460D02*
X205422770Y-56006460D01*
X205122770Y-53106460D02*
X205122770Y-55706460D01*
X220922770Y-47106460D02*
X220422770Y-47106460D01*
X220422770Y-52906460D02*
X220822770Y-52906460D01*
X205322770Y-44006460D02*
X205822770Y-44006460D01*
X220922770Y-56006460D02*
X220422770Y-56006460D01*
X206122770Y-47406460D02*
X206122770Y-52606460D01*
X206122770Y-56706460D02*
X206122770Y-56306460D01*
X219822770Y-43006460D02*
X206422770Y-43006460D01*
X205322770Y-52906460D02*
X205822770Y-52906460D01*
X220122770Y-43306460D02*
X220122770Y-43706460D01*
X205822770Y-47106460D02*
X205422770Y-47106460D01*
X221122770Y-46906460D02*
X221122770Y-44306460D01*
X220422770Y-44006460D02*
X220822770Y-44006460D01*
X220122770Y-52606460D02*
X220122770Y-47406460D01*
X219822770Y-57006460D02*
X206422770Y-57006460D01*
X205122770Y-44206460D02*
X205122770Y-46806460D01*
X206122770Y-43706460D02*
X206122770Y-43306460D01*
X220122770Y-56306460D02*
X220122770Y-56706460D01*
X205322770Y-44006460D02*
G75*
G03*
X205122770Y-44206460I1J-200001D01*
G01*
X220922770Y-47106460D02*
G75*
G03*
X221122770Y-46906460I-1J200001D01*
G01*
X221122770Y-53206460D02*
G75*
G03*
X220822770Y-52906460I-300000J0D01*
G01*
X221122770Y-44306460D02*
G75*
G03*
X220822770Y-44006460I-300000J0D01*
G01*
X206122770Y-47406460D02*
G75*
G03*
X205822770Y-47106460I-300000J0D01*
G01*
X206122770Y-56306460D02*
G75*
G03*
X205822770Y-56006460I-300000J0D01*
G01*
X220422770Y-47106460D02*
G75*
G03*
X220122770Y-47406460I0J-300000D01*
G01*
X220122770Y-43306460D02*
G75*
G03*
X219822770Y-43006460I-300000J0D01*
G01*
X206122770Y-56706460D02*
G75*
G03*
X206422770Y-57006460I300000J0D01*
G01*
X205122770Y-55706460D02*
G75*
G03*
X205422770Y-56006460I300000J0D01*
G01*
X205122770Y-46806460D02*
G75*
G03*
X205422770Y-47106460I300000J0D01*
G01*
X220122770Y-52606460D02*
G75*
G03*
X220422770Y-52906460I300000J0D01*
G01*
X220922770Y-56006460D02*
G75*
G03*
X221122770Y-55806460I-1J200001D01*
G01*
X219822770Y-57006460D02*
G75*
G03*
X220122770Y-56706460I0J300000D01*
G01*
X205322770Y-52906460D02*
G75*
G03*
X205122770Y-53106460I1J-200001D01*
G01*
X220422770Y-56006460D02*
G75*
G03*
X220122770Y-56306460I0J-300000D01*
G01*
X205822770Y-52906460D02*
G75*
G03*
X206122770Y-52606460I0J300000D01*
G01*
X205822770Y-44006460D02*
G75*
G03*
X206122770Y-43706460I0J300000D01*
G01*
X220122770Y-43706460D02*
G75*
G03*
X220422770Y-44006460I300000J0D01*
G01*
X206422770Y-43006460D02*
G75*
G03*
X206122770Y-43306460I0J-300000D01*
G01*
X224872850Y-56006460D02*
X224472850Y-56006460D01*
X239972850Y-47106460D02*
X239472850Y-47106460D01*
X225172850Y-43706460D02*
X225172850Y-43306460D01*
X239172850Y-52606460D02*
X239172850Y-47406460D01*
X238872850Y-43006460D02*
X225472850Y-43006460D01*
X240172850Y-46906460D02*
X240172850Y-44306460D01*
X224372850Y-52906460D02*
X224872850Y-52906460D01*
X225172850Y-47406460D02*
X225172850Y-52606460D01*
X239472850Y-44006460D02*
X239872850Y-44006460D01*
X239472850Y-52906460D02*
X239872850Y-52906460D01*
X224172850Y-44206460D02*
X224172850Y-46806460D01*
X239972850Y-56006460D02*
X239472850Y-56006460D01*
X224372850Y-44006460D02*
X224872850Y-44006460D01*
X239172850Y-43306460D02*
X239172850Y-43706460D01*
X224872850Y-47106460D02*
X224472850Y-47106460D01*
X225172850Y-56706460D02*
X225172850Y-56306460D01*
X224172850Y-53106460D02*
X224172850Y-55706460D01*
X238872850Y-57006460D02*
X225472850Y-57006460D01*
X239172850Y-56306460D02*
X239172850Y-56706460D01*
X240172850Y-55806460D02*
X240172850Y-53206460D01*
X239172850Y-43306460D02*
G75*
G03*
X238872850Y-43006460I-300000J0D01*
G01*
X225172850Y-56706460D02*
G75*
G03*
X225472850Y-57006460I300000J0D01*
G01*
X224172850Y-46806460D02*
G75*
G03*
X224472850Y-47106460I300000J0D01*
G01*
X225472850Y-43006460D02*
G75*
G03*
X225172850Y-43306460I0J-300000D01*
G01*
X239172850Y-52606460D02*
G75*
G03*
X239472850Y-52906460I300000J0D01*
G01*
X224872850Y-52906460D02*
G75*
G03*
X225172850Y-52606460I0J300000D01*
G01*
X238872850Y-57006460D02*
G75*
G03*
X239172850Y-56706460I0J300000D01*
G01*
X239972850Y-47106460D02*
G75*
G03*
X240172850Y-46906460I-1J200001D01*
G01*
X239472850Y-47106460D02*
G75*
G03*
X239172850Y-47406460I0J-300000D01*
G01*
X224172850Y-55706460D02*
G75*
G03*
X224472850Y-56006460I300000J0D01*
G01*
X224872850Y-44006460D02*
G75*
G03*
X225172850Y-43706460I0J300000D01*
G01*
X225172850Y-47406460D02*
G75*
G03*
X224872850Y-47106460I-300000J0D01*
G01*
X240172850Y-44306460D02*
G75*
G03*
X239872850Y-44006460I-300000J0D01*
G01*
X224372850Y-52906460D02*
G75*
G03*
X224172850Y-53106460I1J-200001D01*
G01*
X239472850Y-56006460D02*
G75*
G03*
X239172850Y-56306460I0J-300000D01*
G01*
X224372850Y-44006460D02*
G75*
G03*
X224172850Y-44206460I1J-200001D01*
G01*
X225172850Y-56306460D02*
G75*
G03*
X224872850Y-56006460I-300000J0D01*
G01*
X240172850Y-53206460D02*
G75*
G03*
X239872850Y-52906460I-300000J0D01*
G01*
X239172850Y-43706460D02*
G75*
G03*
X239472850Y-44006460I300000J0D01*
G01*
X239972850Y-56006460D02*
G75*
G03*
X240172850Y-55806460I-1J200001D01*
G01*
X319423250Y-44206460D02*
X319423250Y-46806460D01*
X335423250Y-46906460D02*
X335423250Y-44306460D01*
X334123250Y-57006460D02*
X320723250Y-57006460D01*
X335223250Y-47106460D02*
X334723250Y-47106460D01*
X335423250Y-55806460D02*
X335423250Y-53206460D01*
X320423250Y-56706460D02*
X320423250Y-56306460D01*
X335223250Y-56006460D02*
X334723250Y-56006460D01*
X320123250Y-47106460D02*
X319723250Y-47106460D01*
X319423250Y-53106460D02*
X319423250Y-55706460D01*
X334123250Y-43006460D02*
X320723250Y-43006460D01*
X334423250Y-52606460D02*
X334423250Y-47406460D01*
X334723250Y-44006460D02*
X335123250Y-44006460D01*
X319623250Y-52906460D02*
X320123250Y-52906460D01*
X320423250Y-43706460D02*
X320423250Y-43306460D01*
X334723250Y-52906460D02*
X335123250Y-52906460D01*
X320123250Y-56006460D02*
X319723250Y-56006460D01*
X319623250Y-44006460D02*
X320123250Y-44006460D01*
X320423250Y-47406460D02*
X320423250Y-52606460D01*
X334423250Y-56306460D02*
X334423250Y-56706460D01*
X334423250Y-43306460D02*
X334423250Y-43706460D01*
X320723250Y-43006460D02*
G75*
G03*
X320423250Y-43306460I0J-300000D01*
G01*
X320123250Y-44006460D02*
G75*
G03*
X320423250Y-43706460I0J300000D01*
G01*
X320423250Y-56706460D02*
G75*
G03*
X320723250Y-57006460I300000J0D01*
G01*
X334423250Y-43306460D02*
G75*
G03*
X334123250Y-43006460I-300000J0D01*
G01*
X319423250Y-55706460D02*
G75*
G03*
X319723250Y-56006460I300000J0D01*
G01*
X320423250Y-56306460D02*
G75*
G03*
X320123250Y-56006460I-300000J0D01*
G01*
X334723250Y-47106460D02*
G75*
G03*
X334423250Y-47406460I0J-300000D01*
G01*
X319623250Y-44006460D02*
G75*
G03*
X319423250Y-44206460I1J-200001D01*
G01*
X334723250Y-56006460D02*
G75*
G03*
X334423250Y-56306460I0J-300000D01*
G01*
X335423250Y-53206460D02*
G75*
G03*
X335123250Y-52906460I-300000J0D01*
G01*
X335423250Y-44306460D02*
G75*
G03*
X335123250Y-44006460I-300000J0D01*
G01*
X320423250Y-47406460D02*
G75*
G03*
X320123250Y-47106460I-300000J0D01*
G01*
X320123250Y-52906460D02*
G75*
G03*
X320423250Y-52606460I0J300000D01*
G01*
X319623250Y-52906460D02*
G75*
G03*
X319423250Y-53106460I1J-200001D01*
G01*
X334423250Y-43706460D02*
G75*
G03*
X334723250Y-44006460I300000J0D01*
G01*
X334123250Y-57006460D02*
G75*
G03*
X334423250Y-56706460I0J300000D01*
G01*
X319423250Y-46806460D02*
G75*
G03*
X319723250Y-47106460I300000J0D01*
G01*
X334423250Y-52606460D02*
G75*
G03*
X334723250Y-52906460I300000J0D01*
G01*
X335223250Y-47106460D02*
G75*
G03*
X335423250Y-46906460I-1J200001D01*
G01*
X335223250Y-56006460D02*
G75*
G03*
X335423250Y-55806460I-1J200001D01*
G01*
X338473330Y-53106460D02*
X338473330Y-55706460D01*
X339473330Y-56706460D02*
X339473330Y-56306460D01*
X338473330Y-44206460D02*
X338473330Y-46806460D01*
X353773330Y-44006460D02*
X354173330Y-44006460D01*
X339473330Y-43706460D02*
X339473330Y-43306460D01*
X353473330Y-43306460D02*
X353473330Y-43706460D01*
X353173330Y-43006460D02*
X339773330Y-43006460D01*
X353473330Y-52606460D02*
X353473330Y-47406460D01*
X339173330Y-56006460D02*
X338773330Y-56006460D01*
X353173330Y-57006460D02*
X339773330Y-57006460D01*
X353773330Y-52906460D02*
X354173330Y-52906460D01*
X338673330Y-52906460D02*
X339173330Y-52906460D01*
X354273330Y-47106460D02*
X353773330Y-47106460D01*
X354473330Y-46906460D02*
X354473330Y-44306460D01*
X354473330Y-55806460D02*
X354473330Y-53206460D01*
X354273330Y-56006460D02*
X353773330Y-56006460D01*
X339173330Y-47106460D02*
X338773330Y-47106460D01*
X353473330Y-56306460D02*
X353473330Y-56706460D01*
X338673330Y-44006460D02*
X339173330Y-44006460D01*
X339473330Y-47406460D02*
X339473330Y-52606460D01*
X353473330Y-43306460D02*
G75*
G03*
X353173330Y-43006460I-300000J0D01*
G01*
X353473330Y-52606460D02*
G75*
G03*
X353773330Y-52906460I300000J0D01*
G01*
X354273330Y-47106460D02*
G75*
G03*
X354473330Y-46906460I-1J200001D01*
G01*
X339173330Y-44006460D02*
G75*
G03*
X339473330Y-43706460I0J300000D01*
G01*
X353773330Y-47106460D02*
G75*
G03*
X353473330Y-47406460I0J-300000D01*
G01*
X353173330Y-57006460D02*
G75*
G03*
X353473330Y-56706460I0J300000D01*
G01*
X353773330Y-56006460D02*
G75*
G03*
X353473330Y-56306460I0J-300000D01*
G01*
X339473330Y-47406460D02*
G75*
G03*
X339173330Y-47106460I-300000J0D01*
G01*
X339473330Y-56306460D02*
G75*
G03*
X339173330Y-56006460I-300000J0D01*
G01*
X338473330Y-55706460D02*
G75*
G03*
X338773330Y-56006460I300000J0D01*
G01*
X338673330Y-52906460D02*
G75*
G03*
X338473330Y-53106460I1J-200001D01*
G01*
X339473330Y-56706460D02*
G75*
G03*
X339773330Y-57006460I300000J0D01*
G01*
X338673330Y-44006460D02*
G75*
G03*
X338473330Y-44206460I1J-200001D01*
G01*
X354273330Y-56006460D02*
G75*
G03*
X354473330Y-55806460I-1J200001D01*
G01*
X339173330Y-52906460D02*
G75*
G03*
X339473330Y-52606460I0J300000D01*
G01*
X339773330Y-43006460D02*
G75*
G03*
X339473330Y-43306460I0J-300000D01*
G01*
X353473330Y-43706460D02*
G75*
G03*
X353773330Y-44006460I300000J0D01*
G01*
X354473330Y-44306460D02*
G75*
G03*
X354173330Y-44006460I-300000J0D01*
G01*
X354473330Y-53206460D02*
G75*
G03*
X354173330Y-52906460I-300000J0D01*
G01*
X338473330Y-46806460D02*
G75*
G03*
X338773330Y-47106460I300000J0D01*
G01*
X147972530Y-63256540D02*
X147972530Y-65856540D01*
X148672530Y-75056540D02*
X148272530Y-75056540D01*
X162672530Y-76056540D02*
X149272530Y-76056540D01*
X148172530Y-63056540D02*
X148672530Y-63056540D01*
X148972530Y-75756540D02*
X148972530Y-75356540D01*
X162972530Y-71656540D02*
X162972530Y-66456540D01*
X148672530Y-66156540D02*
X148272530Y-66156540D01*
X163972530Y-65956540D02*
X163972530Y-63356540D01*
X162972530Y-62356540D02*
X162972530Y-62756540D01*
X148972530Y-66456540D02*
X148972530Y-71656540D01*
X163972530Y-74856540D02*
X163972530Y-72256540D01*
X163772530Y-66156540D02*
X163272530Y-66156540D01*
X163272530Y-63056540D02*
X163672530Y-63056540D01*
X162972530Y-75356540D02*
X162972530Y-75756540D01*
X163772530Y-75056540D02*
X163272530Y-75056540D01*
X163272530Y-71956540D02*
X163672530Y-71956540D01*
X148172530Y-71956540D02*
X148672530Y-71956540D01*
X147972530Y-72156540D02*
X147972530Y-74756540D01*
X162672530Y-62056540D02*
X149272530Y-62056540D01*
X148972530Y-62756540D02*
X148972530Y-62356540D01*
X162972530Y-62756540D02*
G75*
G03*
X163272530Y-63056540I300000J0D01*
G01*
X162672530Y-76056540D02*
G75*
G03*
X162972530Y-75756540I0J300000D01*
G01*
X149272530Y-62056540D02*
G75*
G03*
X148972530Y-62356540I0J-300000D01*
G01*
X147972530Y-65856540D02*
G75*
G03*
X148272530Y-66156540I300000J0D01*
G01*
X163972530Y-63356540D02*
G75*
G03*
X163672530Y-63056540I-300000J0D01*
G01*
X148972530Y-75356540D02*
G75*
G03*
X148672530Y-75056540I-300000J0D01*
G01*
X163772530Y-75056540D02*
G75*
G03*
X163972530Y-74856540I-1J200001D01*
G01*
X148972530Y-75756540D02*
G75*
G03*
X149272530Y-76056540I300000J0D01*
G01*
X148972530Y-66456540D02*
G75*
G03*
X148672530Y-66156540I-300000J0D01*
G01*
X147972530Y-74756540D02*
G75*
G03*
X148272530Y-75056540I300000J0D01*
G01*
X148672530Y-71956540D02*
G75*
G03*
X148972530Y-71656540I0J300000D01*
G01*
X162972530Y-62356540D02*
G75*
G03*
X162672530Y-62056540I-300000J0D01*
G01*
X148172530Y-71956540D02*
G75*
G03*
X147972530Y-72156540I1J-200001D01*
G01*
X163972530Y-72256540D02*
G75*
G03*
X163672530Y-71956540I-300000J0D01*
G01*
X163272530Y-75056540D02*
G75*
G03*
X162972530Y-75356540I0J-300000D01*
G01*
X162972530Y-71656540D02*
G75*
G03*
X163272530Y-71956540I300000J0D01*
G01*
X163272530Y-66156540D02*
G75*
G03*
X162972530Y-66456540I0J-300000D01*
G01*
X163772530Y-66156540D02*
G75*
G03*
X163972530Y-65956540I-1J200001D01*
G01*
X148172530Y-63056540D02*
G75*
G03*
X147972530Y-63256540I1J-200001D01*
G01*
X148672530Y-63056540D02*
G75*
G03*
X148972530Y-62756540I0J300000D01*
G01*
X201372690Y-71956540D02*
X201772690Y-71956540D01*
X201872690Y-66156540D02*
X201372690Y-66156540D01*
X201072690Y-71656540D02*
X201072690Y-66456540D01*
X187072690Y-62756540D02*
X187072690Y-62356540D01*
X200772690Y-76056540D02*
X187372690Y-76056540D01*
X187072690Y-75756540D02*
X187072690Y-75356540D01*
X202072690Y-74856540D02*
X202072690Y-72256540D01*
X201372690Y-63056540D02*
X201772690Y-63056540D01*
X186272690Y-71956540D02*
X186772690Y-71956540D01*
X186072690Y-63256540D02*
X186072690Y-65856540D01*
X201072690Y-62356540D02*
X201072690Y-62756540D01*
X186772690Y-66156540D02*
X186372690Y-66156540D01*
X186272690Y-63056540D02*
X186772690Y-63056540D01*
X200772690Y-62056540D02*
X187372690Y-62056540D01*
X187072690Y-66456540D02*
X187072690Y-71656540D01*
X202072690Y-65956540D02*
X202072690Y-63356540D01*
X201072690Y-75356540D02*
X201072690Y-75756540D01*
X201872690Y-75056540D02*
X201372690Y-75056540D01*
X186072690Y-72156540D02*
X186072690Y-74756540D01*
X186772690Y-75056540D02*
X186372690Y-75056540D01*
X186272690Y-71956540D02*
G75*
G03*
X186072690Y-72156540I1J-200001D01*
G01*
X186772690Y-63056540D02*
G75*
G03*
X187072690Y-62756540I0J300000D01*
G01*
X187072690Y-75356540D02*
G75*
G03*
X186772690Y-75056540I-300000J0D01*
G01*
X186072690Y-65856540D02*
G75*
G03*
X186372690Y-66156540I300000J0D01*
G01*
X201372690Y-75056540D02*
G75*
G03*
X201072690Y-75356540I0J-300000D01*
G01*
X201372690Y-66156540D02*
G75*
G03*
X201072690Y-66456540I0J-300000D01*
G01*
X187072690Y-75756540D02*
G75*
G03*
X187372690Y-76056540I300000J0D01*
G01*
X187372690Y-62056540D02*
G75*
G03*
X187072690Y-62356540I0J-300000D01*
G01*
X202072690Y-63356540D02*
G75*
G03*
X201772690Y-63056540I-300000J0D01*
G01*
X201072690Y-62756540D02*
G75*
G03*
X201372690Y-63056540I300000J0D01*
G01*
X186072690Y-74756540D02*
G75*
G03*
X186372690Y-75056540I300000J0D01*
G01*
X201072690Y-71656540D02*
G75*
G03*
X201372690Y-71956540I300000J0D01*
G01*
X201872690Y-75056540D02*
G75*
G03*
X202072690Y-74856540I-1J200001D01*
G01*
X186772690Y-71956540D02*
G75*
G03*
X187072690Y-71656540I0J300000D01*
G01*
X187072690Y-66456540D02*
G75*
G03*
X186772690Y-66156540I-300000J0D01*
G01*
X201072690Y-62356540D02*
G75*
G03*
X200772690Y-62056540I-300000J0D01*
G01*
X201872690Y-66156540D02*
G75*
G03*
X202072690Y-65956540I-1J200001D01*
G01*
X200772690Y-76056540D02*
G75*
G03*
X201072690Y-75756540I0J300000D01*
G01*
X202072690Y-72256540D02*
G75*
G03*
X201772690Y-71956540I-300000J0D01*
G01*
X186272690Y-63056540D02*
G75*
G03*
X186072690Y-63256540I1J-200001D01*
G01*
X238872850Y-76056540D02*
X225472850Y-76056540D01*
X225172850Y-66456540D02*
X225172850Y-71656540D01*
X239472850Y-71956540D02*
X239872850Y-71956540D01*
X224872850Y-75056540D02*
X224472850Y-75056540D01*
X239172850Y-62356540D02*
X239172850Y-62756540D01*
X225172850Y-75756540D02*
X225172850Y-75356540D01*
X239172850Y-75356540D02*
X239172850Y-75756540D01*
X239972850Y-75056540D02*
X239472850Y-75056540D01*
X224172850Y-72156540D02*
X224172850Y-74756540D01*
X239472850Y-63056540D02*
X239872850Y-63056540D01*
X240172850Y-65956540D02*
X240172850Y-63356540D01*
X224372850Y-71956540D02*
X224872850Y-71956540D01*
X239172850Y-71656540D02*
X239172850Y-66456540D01*
X240172850Y-74856540D02*
X240172850Y-72256540D01*
X239972850Y-66156540D02*
X239472850Y-66156540D01*
X224172850Y-63256540D02*
X224172850Y-65856540D01*
X225172850Y-62756540D02*
X225172850Y-62356540D01*
X224872850Y-66156540D02*
X224472850Y-66156540D01*
X224372850Y-63056540D02*
X224872850Y-63056540D01*
X238872850Y-62056540D02*
X225472850Y-62056540D01*
X225472850Y-62056540D02*
G75*
G03*
X225172850Y-62356540I0J-300000D01*
G01*
X224872850Y-63056540D02*
G75*
G03*
X225172850Y-62756540I0J300000D01*
G01*
X239472850Y-66156540D02*
G75*
G03*
X239172850Y-66456540I0J-300000D01*
G01*
X224872850Y-71956540D02*
G75*
G03*
X225172850Y-71656540I0J300000D01*
G01*
X224172850Y-65856540D02*
G75*
G03*
X224472850Y-66156540I300000J0D01*
G01*
X224372850Y-71956540D02*
G75*
G03*
X224172850Y-72156540I1J-200001D01*
G01*
X224172850Y-74756540D02*
G75*
G03*
X224472850Y-75056540I300000J0D01*
G01*
X239172850Y-62356540D02*
G75*
G03*
X238872850Y-62056540I-300000J0D01*
G01*
X240172850Y-63356540D02*
G75*
G03*
X239872850Y-63056540I-300000J0D01*
G01*
X224372850Y-63056540D02*
G75*
G03*
X224172850Y-63256540I1J-200001D01*
G01*
X240172850Y-72256540D02*
G75*
G03*
X239872850Y-71956540I-300000J0D01*
G01*
X239972850Y-75056540D02*
G75*
G03*
X240172850Y-74856540I-1J200001D01*
G01*
X225172850Y-75756540D02*
G75*
G03*
X225472850Y-76056540I300000J0D01*
G01*
X239172850Y-62756540D02*
G75*
G03*
X239472850Y-63056540I300000J0D01*
G01*
X239472850Y-75056540D02*
G75*
G03*
X239172850Y-75356540I0J-300000D01*
G01*
X238872850Y-76056540D02*
G75*
G03*
X239172850Y-75756540I0J300000D01*
G01*
X239172850Y-71656540D02*
G75*
G03*
X239472850Y-71956540I300000J0D01*
G01*
X239972850Y-66156540D02*
G75*
G03*
X240172850Y-65956540I-1J200001D01*
G01*
X225172850Y-75356540D02*
G75*
G03*
X224872850Y-75056540I-300000J0D01*
G01*
X225172850Y-66456540D02*
G75*
G03*
X224872850Y-66156540I-300000J0D01*
G01*
X244222930Y-66456540D02*
X244222930Y-71656540D01*
X258222930Y-75356540D02*
X258222930Y-75756540D01*
X244222930Y-75756540D02*
X244222930Y-75356540D01*
X259222930Y-65956540D02*
X259222930Y-63356540D01*
X259022930Y-75056540D02*
X258522930Y-75056540D01*
X258222930Y-71656540D02*
X258222930Y-66456540D01*
X259022930Y-66156540D02*
X258522930Y-66156540D01*
X244222930Y-62756540D02*
X244222930Y-62356540D01*
X258522930Y-63056540D02*
X258922930Y-63056540D01*
X243922930Y-75056540D02*
X243522930Y-75056540D01*
X243922930Y-66156540D02*
X243522930Y-66156540D01*
X243222930Y-72156540D02*
X243222930Y-74756540D01*
X258522930Y-71956540D02*
X258922930Y-71956540D01*
X257922930Y-76056540D02*
X244522930Y-76056540D01*
X243422930Y-71956540D02*
X243922930Y-71956540D01*
X243422930Y-63056540D02*
X243922930Y-63056540D01*
X243222930Y-63256540D02*
X243222930Y-65856540D01*
X257922930Y-62056540D02*
X244522930Y-62056540D01*
X259222930Y-74856540D02*
X259222930Y-72256540D01*
X258222930Y-62356540D02*
X258222930Y-62756540D01*
X258222930Y-62756540D02*
G75*
G03*
X258522930Y-63056540I300000J0D01*
G01*
X259022930Y-66156540D02*
G75*
G03*
X259222930Y-65956540I-1J200001D01*
G01*
X259222930Y-63356540D02*
G75*
G03*
X258922930Y-63056540I-300000J0D01*
G01*
X258222930Y-71656540D02*
G75*
G03*
X258522930Y-71956540I300000J0D01*
G01*
X244222930Y-75356540D02*
G75*
G03*
X243922930Y-75056540I-300000J0D01*
G01*
X258522930Y-66156540D02*
G75*
G03*
X258222930Y-66456540I0J-300000D01*
G01*
X244522930Y-62056540D02*
G75*
G03*
X244222930Y-62356540I0J-300000D01*
G01*
X243222930Y-65856540D02*
G75*
G03*
X243522930Y-66156540I300000J0D01*
G01*
X258222930Y-62356540D02*
G75*
G03*
X257922930Y-62056540I-300000J0D01*
G01*
X243222930Y-74756540D02*
G75*
G03*
X243522930Y-75056540I300000J0D01*
G01*
X259022930Y-75056540D02*
G75*
G03*
X259222930Y-74856540I-1J200001D01*
G01*
X243422930Y-63056540D02*
G75*
G03*
X243222930Y-63256540I1J-200001D01*
G01*
X243922930Y-71956540D02*
G75*
G03*
X244222930Y-71656540I0J300000D01*
G01*
X259222930Y-72256540D02*
G75*
G03*
X258922930Y-71956540I-300000J0D01*
G01*
X258522930Y-75056540D02*
G75*
G03*
X258222930Y-75356540I0J-300000D01*
G01*
X243422930Y-71956540D02*
G75*
G03*
X243222930Y-72156540I1J-200001D01*
G01*
X257922930Y-76056540D02*
G75*
G03*
X258222930Y-75756540I0J300000D01*
G01*
X244222930Y-75756540D02*
G75*
G03*
X244522930Y-76056540I300000J0D01*
G01*
X243922930Y-63056540D02*
G75*
G03*
X244222930Y-62756540I0J300000D01*
G01*
X244222930Y-66456540D02*
G75*
G03*
X243922930Y-66156540I-300000J0D01*
G01*
X263273010Y-75756540D02*
X263273010Y-75356540D01*
X276973010Y-62056540D02*
X263573010Y-62056540D01*
X263273010Y-66456540D02*
X263273010Y-71656540D01*
X277573010Y-63056540D02*
X277973010Y-63056540D01*
X262973010Y-66156540D02*
X262573010Y-66156540D01*
X262273010Y-72156540D02*
X262273010Y-74756540D01*
X262273010Y-63256540D02*
X262273010Y-65856540D01*
X278073010Y-75056540D02*
X277573010Y-75056540D01*
X277273010Y-71656540D02*
X277273010Y-66456540D01*
X263273010Y-62756540D02*
X263273010Y-62356540D01*
X278273010Y-74856540D02*
X278273010Y-72256540D01*
X277573010Y-71956540D02*
X277973010Y-71956540D01*
X278073010Y-66156540D02*
X277573010Y-66156540D01*
X262473010Y-71956540D02*
X262973010Y-71956540D01*
X262473010Y-63056540D02*
X262973010Y-63056540D01*
X278273010Y-65956540D02*
X278273010Y-63356540D01*
X262973010Y-75056540D02*
X262573010Y-75056540D01*
X277273010Y-62356540D02*
X277273010Y-62756540D01*
X277273010Y-75356540D02*
X277273010Y-75756540D01*
X276973010Y-76056540D02*
X263573010Y-76056540D01*
X262973010Y-71956540D02*
G75*
G03*
X263273010Y-71656540I0J300000D01*
G01*
X262973010Y-63056540D02*
G75*
G03*
X263273010Y-62756540I0J300000D01*
G01*
X263273010Y-66456540D02*
G75*
G03*
X262973010Y-66156540I-300000J0D01*
G01*
X262473010Y-63056540D02*
G75*
G03*
X262273010Y-63256540I1J-200001D01*
G01*
X263573010Y-62056540D02*
G75*
G03*
X263273010Y-62356540I0J-300000D01*
G01*
X262473010Y-71956540D02*
G75*
G03*
X262273010Y-72156540I1J-200001D01*
G01*
X276973010Y-76056540D02*
G75*
G03*
X277273010Y-75756540I0J300000D01*
G01*
X277273010Y-62756540D02*
G75*
G03*
X277573010Y-63056540I300000J0D01*
G01*
X263273010Y-75756540D02*
G75*
G03*
X263573010Y-76056540I300000J0D01*
G01*
X277273010Y-62356540D02*
G75*
G03*
X276973010Y-62056540I-300000J0D01*
G01*
X278073010Y-66156540D02*
G75*
G03*
X278273010Y-65956540I-1J200001D01*
G01*
X278073010Y-75056540D02*
G75*
G03*
X278273010Y-74856540I-1J200001D01*
G01*
X262273010Y-65856540D02*
G75*
G03*
X262573010Y-66156540I300000J0D01*
G01*
X278273010Y-63356540D02*
G75*
G03*
X277973010Y-63056540I-300000J0D01*
G01*
X277573010Y-75056540D02*
G75*
G03*
X277273010Y-75356540I0J-300000D01*
G01*
X277573010Y-66156540D02*
G75*
G03*
X277273010Y-66456540I0J-300000D01*
G01*
X278273010Y-72256540D02*
G75*
G03*
X277973010Y-71956540I-300000J0D01*
G01*
X262273010Y-74756540D02*
G75*
G03*
X262573010Y-75056540I300000J0D01*
G01*
X277273010Y-71656540D02*
G75*
G03*
X277573010Y-71956540I300000J0D01*
G01*
X263273010Y-75356540D02*
G75*
G03*
X262973010Y-75056540I-300000J0D01*
G01*
X282323090Y-75756540D02*
X282323090Y-75356540D01*
X282023090Y-66156540D02*
X281623090Y-66156540D01*
X297123090Y-66156540D02*
X296623090Y-66156540D01*
X282323090Y-66456540D02*
X282323090Y-71656540D01*
X296023090Y-62056540D02*
X282623090Y-62056540D01*
X282023090Y-75056540D02*
X281623090Y-75056540D01*
X296023090Y-76056540D02*
X282623090Y-76056540D01*
X296323090Y-75356540D02*
X296323090Y-75756540D01*
X296623090Y-71956540D02*
X297023090Y-71956540D01*
X281523090Y-71956540D02*
X282023090Y-71956540D01*
X281523090Y-63056540D02*
X282023090Y-63056540D01*
X296623090Y-63056540D02*
X297023090Y-63056540D01*
X281323090Y-63256540D02*
X281323090Y-65856540D01*
X297323090Y-65956540D02*
X297323090Y-63356540D01*
X297323090Y-74856540D02*
X297323090Y-72256540D01*
X296323090Y-62356540D02*
X296323090Y-62756540D01*
X281323090Y-72156540D02*
X281323090Y-74756540D01*
X282323090Y-62756540D02*
X282323090Y-62356540D01*
X297123090Y-75056540D02*
X296623090Y-75056540D01*
X296323090Y-71656540D02*
X296323090Y-66456540D01*
X281323090Y-65856540D02*
G75*
G03*
X281623090Y-66156540I300000J0D01*
G01*
X297123090Y-75056540D02*
G75*
G03*
X297323090Y-74856540I-1J200001D01*
G01*
X297323090Y-63356540D02*
G75*
G03*
X297023090Y-63056540I-300000J0D01*
G01*
X281523090Y-71956540D02*
G75*
G03*
X281323090Y-72156540I1J-200001D01*
G01*
X282023090Y-63056540D02*
G75*
G03*
X282323090Y-62756540I0J300000D01*
G01*
X296323090Y-71656540D02*
G75*
G03*
X296623090Y-71956540I300000J0D01*
G01*
X282623090Y-62056540D02*
G75*
G03*
X282323090Y-62356540I0J-300000D01*
G01*
X296023090Y-76056540D02*
G75*
G03*
X296323090Y-75756540I0J300000D01*
G01*
X296623090Y-66156540D02*
G75*
G03*
X296323090Y-66456540I0J-300000D01*
G01*
X282023090Y-71956540D02*
G75*
G03*
X282323090Y-71656540I0J300000D01*
G01*
X296323090Y-62756540D02*
G75*
G03*
X296623090Y-63056540I300000J0D01*
G01*
X296623090Y-75056540D02*
G75*
G03*
X296323090Y-75356540I0J-300000D01*
G01*
X282323090Y-75756540D02*
G75*
G03*
X282623090Y-76056540I300000J0D01*
G01*
X297123090Y-66156540D02*
G75*
G03*
X297323090Y-65956540I-1J200001D01*
G01*
X281523090Y-63056540D02*
G75*
G03*
X281323090Y-63256540I1J-200001D01*
G01*
X281323090Y-74756540D02*
G75*
G03*
X281623090Y-75056540I300000J0D01*
G01*
X282323090Y-75356540D02*
G75*
G03*
X282023090Y-75056540I-300000J0D01*
G01*
X297323090Y-72256540D02*
G75*
G03*
X297023090Y-71956540I-300000J0D01*
G01*
X282323090Y-66456540D02*
G75*
G03*
X282023090Y-66156540I-300000J0D01*
G01*
X296323090Y-62356540D02*
G75*
G03*
X296023090Y-62056540I-300000J0D01*
G01*
X300573170Y-71956540D02*
X301073170Y-71956540D01*
X315073170Y-62056540D02*
X301673170Y-62056540D01*
X300373170Y-72156540D02*
X300373170Y-74756540D01*
X315373170Y-75356540D02*
X315373170Y-75756540D01*
X316373170Y-65956540D02*
X316373170Y-63356540D01*
X301073170Y-66156540D02*
X300673170Y-66156540D01*
X315073170Y-76056540D02*
X301673170Y-76056540D01*
X301073170Y-75056540D02*
X300673170Y-75056540D01*
X301373170Y-66456540D02*
X301373170Y-71656540D01*
X301373170Y-75756540D02*
X301373170Y-75356540D01*
X300373170Y-63256540D02*
X300373170Y-65856540D01*
X315673170Y-71956540D02*
X316073170Y-71956540D01*
X316173170Y-75056540D02*
X315673170Y-75056540D01*
X300573170Y-63056540D02*
X301073170Y-63056540D01*
X316173170Y-66156540D02*
X315673170Y-66156540D01*
X315373170Y-62356540D02*
X315373170Y-62756540D01*
X315373170Y-71656540D02*
X315373170Y-66456540D01*
X315673170Y-63056540D02*
X316073170Y-63056540D01*
X316373170Y-74856540D02*
X316373170Y-72256540D01*
X301373170Y-62756540D02*
X301373170Y-62356540D01*
X316173170Y-66156540D02*
G75*
G03*
X316373170Y-65956540I-1J200001D01*
G01*
X301073170Y-63056540D02*
G75*
G03*
X301373170Y-62756540I0J300000D01*
G01*
X315673170Y-75056540D02*
G75*
G03*
X315373170Y-75356540I0J-300000D01*
G01*
X301373170Y-75356540D02*
G75*
G03*
X301073170Y-75056540I-300000J0D01*
G01*
X315373170Y-62756540D02*
G75*
G03*
X315673170Y-63056540I300000J0D01*
G01*
X301373170Y-66456540D02*
G75*
G03*
X301073170Y-66156540I-300000J0D01*
G01*
X316373170Y-63356540D02*
G75*
G03*
X316073170Y-63056540I-300000J0D01*
G01*
X300373170Y-74756540D02*
G75*
G03*
X300673170Y-75056540I300000J0D01*
G01*
X316373170Y-72256540D02*
G75*
G03*
X316073170Y-71956540I-300000J0D01*
G01*
X301673170Y-62056540D02*
G75*
G03*
X301373170Y-62356540I0J-300000D01*
G01*
X301373170Y-75756540D02*
G75*
G03*
X301673170Y-76056540I300000J0D01*
G01*
X300573170Y-71956540D02*
G75*
G03*
X300373170Y-72156540I1J-200001D01*
G01*
X315373170Y-62356540D02*
G75*
G03*
X315073170Y-62056540I-300000J0D01*
G01*
X315073170Y-76056540D02*
G75*
G03*
X315373170Y-75756540I0J300000D01*
G01*
X301073170Y-71956540D02*
G75*
G03*
X301373170Y-71656540I0J300000D01*
G01*
X300373170Y-65856540D02*
G75*
G03*
X300673170Y-66156540I300000J0D01*
G01*
X315373170Y-71656540D02*
G75*
G03*
X315673170Y-71956540I300000J0D01*
G01*
X315673170Y-66156540D02*
G75*
G03*
X315373170Y-66456540I0J-300000D01*
G01*
X300573170Y-63056540D02*
G75*
G03*
X300373170Y-63256540I1J-200001D01*
G01*
X316173170Y-75056540D02*
G75*
G03*
X316373170Y-74856540I-1J200001D01*
G01*
X319423250Y-72156540D02*
X319423250Y-74756540D01*
X334423250Y-71656540D02*
X334423250Y-66456540D01*
X334423250Y-75356540D02*
X334423250Y-75756540D01*
X334723250Y-71956540D02*
X335123250Y-71956540D01*
X335423250Y-65956540D02*
X335423250Y-63356540D01*
X335423250Y-74856540D02*
X335423250Y-72256540D01*
X335223250Y-75056540D02*
X334723250Y-75056540D01*
X334723250Y-63056540D02*
X335123250Y-63056540D01*
X319623250Y-71956540D02*
X320123250Y-71956540D01*
X334423250Y-62356540D02*
X334423250Y-62756540D01*
X320123250Y-75056540D02*
X319723250Y-75056540D01*
X320423250Y-62756540D02*
X320423250Y-62356540D01*
X319623250Y-63056540D02*
X320123250Y-63056540D01*
X335223250Y-66156540D02*
X334723250Y-66156540D01*
X320123250Y-66156540D02*
X319723250Y-66156540D01*
X319423250Y-63256540D02*
X319423250Y-65856540D01*
X320423250Y-75756540D02*
X320423250Y-75356540D01*
X334123250Y-76056540D02*
X320723250Y-76056540D01*
X334123250Y-62056540D02*
X320723250Y-62056540D01*
X320423250Y-66456540D02*
X320423250Y-71656540D01*
X334723250Y-75056540D02*
G75*
G03*
X334423250Y-75356540I0J-300000D01*
G01*
X319623250Y-63056540D02*
G75*
G03*
X319423250Y-63256540I1J-200001D01*
G01*
X319423250Y-74756540D02*
G75*
G03*
X319723250Y-75056540I300000J0D01*
G01*
X334123250Y-76056540D02*
G75*
G03*
X334423250Y-75756540I0J300000D01*
G01*
X334423250Y-71656540D02*
G75*
G03*
X334723250Y-71956540I300000J0D01*
G01*
X335423250Y-72256540D02*
G75*
G03*
X335123250Y-71956540I-300000J0D01*
G01*
X320123250Y-63056540D02*
G75*
G03*
X320423250Y-62756540I0J300000D01*
G01*
X320423250Y-75756540D02*
G75*
G03*
X320723250Y-76056540I300000J0D01*
G01*
X334723250Y-66156540D02*
G75*
G03*
X334423250Y-66456540I0J-300000D01*
G01*
X320423250Y-66456540D02*
G75*
G03*
X320123250Y-66156540I-300000J0D01*
G01*
X320723250Y-62056540D02*
G75*
G03*
X320423250Y-62356540I0J-300000D01*
G01*
X319623250Y-71956540D02*
G75*
G03*
X319423250Y-72156540I1J-200001D01*
G01*
X319423250Y-65856540D02*
G75*
G03*
X319723250Y-66156540I300000J0D01*
G01*
X320123250Y-71956540D02*
G75*
G03*
X320423250Y-71656540I0J300000D01*
G01*
X335423250Y-63356540D02*
G75*
G03*
X335123250Y-63056540I-300000J0D01*
G01*
X335223250Y-75056540D02*
G75*
G03*
X335423250Y-74856540I-1J200001D01*
G01*
X334423250Y-62356540D02*
G75*
G03*
X334123250Y-62056540I-300000J0D01*
G01*
X335223250Y-66156540D02*
G75*
G03*
X335423250Y-65956540I-1J200001D01*
G01*
X334423250Y-62756540D02*
G75*
G03*
X334723250Y-63056540I300000J0D01*
G01*
X320423250Y-75356540D02*
G75*
G03*
X320123250Y-75056540I-300000J0D01*
G01*
X339173330Y-66156540D02*
X338773330Y-66156540D01*
X354273330Y-66156540D02*
X353773330Y-66156540D01*
X338673330Y-71956540D02*
X339173330Y-71956540D01*
X353773330Y-63056540D02*
X354173330Y-63056540D01*
X354473330Y-65956540D02*
X354473330Y-63356540D01*
X353173330Y-62056540D02*
X339773330Y-62056540D01*
X353173330Y-76056540D02*
X339773330Y-76056540D01*
X354273330Y-75056540D02*
X353773330Y-75056540D01*
X353473330Y-71656540D02*
X353473330Y-66456540D01*
X353773330Y-71956540D02*
X354173330Y-71956540D01*
X353473330Y-62356540D02*
X353473330Y-62756540D01*
X339173330Y-75056540D02*
X338773330Y-75056540D01*
X338673330Y-63056540D02*
X339173330Y-63056540D01*
X339473330Y-75756540D02*
X339473330Y-75356540D01*
X353473330Y-75356540D02*
X353473330Y-75756540D01*
X354473330Y-74856540D02*
X354473330Y-72256540D01*
X339473330Y-62756540D02*
X339473330Y-62356540D01*
X339473330Y-66456540D02*
X339473330Y-71656540D01*
X338473330Y-72156540D02*
X338473330Y-74756540D01*
X338473330Y-63256540D02*
X338473330Y-65856540D01*
X339773330Y-62056540D02*
G75*
G03*
X339473330Y-62356540I0J-300000D01*
G01*
X354273330Y-66156540D02*
G75*
G03*
X354473330Y-65956540I-1J200001D01*
G01*
X338673330Y-63056540D02*
G75*
G03*
X338473330Y-63256540I1J-200001D01*
G01*
X339473330Y-75756540D02*
G75*
G03*
X339773330Y-76056540I300000J0D01*
G01*
X339173330Y-71956540D02*
G75*
G03*
X339473330Y-71656540I0J300000D01*
G01*
X353473330Y-62356540D02*
G75*
G03*
X353173330Y-62056540I-300000J0D01*
G01*
X353773330Y-75056540D02*
G75*
G03*
X353473330Y-75356540I0J-300000D01*
G01*
X339473330Y-75356540D02*
G75*
G03*
X339173330Y-75056540I-300000J0D01*
G01*
X354273330Y-75056540D02*
G75*
G03*
X354473330Y-74856540I-1J200001D01*
G01*
X339473330Y-66456540D02*
G75*
G03*
X339173330Y-66156540I-300000J0D01*
G01*
X353473330Y-62756540D02*
G75*
G03*
X353773330Y-63056540I300000J0D01*
G01*
X354473330Y-63356540D02*
G75*
G03*
X354173330Y-63056540I-300000J0D01*
G01*
X353473330Y-71656540D02*
G75*
G03*
X353773330Y-71956540I300000J0D01*
G01*
X353773330Y-66156540D02*
G75*
G03*
X353473330Y-66456540I0J-300000D01*
G01*
X338673330Y-71956540D02*
G75*
G03*
X338473330Y-72156540I1J-200001D01*
G01*
X353173330Y-76056540D02*
G75*
G03*
X353473330Y-75756540I0J300000D01*
G01*
X338473330Y-74756540D02*
G75*
G03*
X338773330Y-75056540I300000J0D01*
G01*
X338473330Y-65856540D02*
G75*
G03*
X338773330Y-66156540I300000J0D01*
G01*
X339173330Y-63056540D02*
G75*
G03*
X339473330Y-62756540I0J300000D01*
G01*
X354473330Y-72256540D02*
G75*
G03*
X354173330Y-71956540I-300000J0D01*
G01*
X373523410Y-65956540D02*
X373523410Y-63356540D01*
X372223410Y-76056540D02*
X358823410Y-76056540D01*
X358223410Y-66156540D02*
X357823410Y-66156540D01*
X373323410Y-66156540D02*
X372823410Y-66156540D01*
X358523410Y-62756540D02*
X358523410Y-62356540D01*
X358523410Y-75756540D02*
X358523410Y-75356540D01*
X372223410Y-62056540D02*
X358823410Y-62056540D01*
X373323410Y-75056540D02*
X372823410Y-75056540D01*
X357723410Y-71956540D02*
X358223410Y-71956540D01*
X357723410Y-63056540D02*
X358223410Y-63056540D01*
X357523410Y-72156540D02*
X357523410Y-74756540D01*
X372823410Y-71956540D02*
X373223410Y-71956540D01*
X372823410Y-63056540D02*
X373223410Y-63056540D01*
X372523410Y-62356540D02*
X372523410Y-62756540D01*
X372523410Y-75356540D02*
X372523410Y-75756540D01*
X358523410Y-66456540D02*
X358523410Y-71656540D01*
X372523410Y-71656540D02*
X372523410Y-66456540D01*
X373523410Y-74856540D02*
X373523410Y-72256540D01*
X357523410Y-63256540D02*
X357523410Y-65856540D01*
X358223410Y-75056540D02*
X357823410Y-75056540D01*
X372223410Y-76056540D02*
G75*
G03*
X372523410Y-75756540I0J300000D01*
G01*
X357723410Y-71956540D02*
G75*
G03*
X357523410Y-72156540I1J-200001D01*
G01*
X358523410Y-66456540D02*
G75*
G03*
X358223410Y-66156540I-300000J0D01*
G01*
X358223410Y-63056540D02*
G75*
G03*
X358523410Y-62756540I0J300000D01*
G01*
X372523410Y-71656540D02*
G75*
G03*
X372823410Y-71956540I300000J0D01*
G01*
X357723410Y-63056540D02*
G75*
G03*
X357523410Y-63256540I1J-200001D01*
G01*
X372523410Y-62756540D02*
G75*
G03*
X372823410Y-63056540I300000J0D01*
G01*
X358223410Y-71956540D02*
G75*
G03*
X358523410Y-71656540I0J300000D01*
G01*
X357523410Y-74756540D02*
G75*
G03*
X357823410Y-75056540I300000J0D01*
G01*
X373523410Y-72256540D02*
G75*
G03*
X373223410Y-71956540I-300000J0D01*
G01*
X357523410Y-65856540D02*
G75*
G03*
X357823410Y-66156540I300000J0D01*
G01*
X372523410Y-62356540D02*
G75*
G03*
X372223410Y-62056540I-300000J0D01*
G01*
X372823410Y-66156540D02*
G75*
G03*
X372523410Y-66456540I0J-300000D01*
G01*
X373323410Y-66156540D02*
G75*
G03*
X373523410Y-65956540I-1J200001D01*
G01*
X373523410Y-63356540D02*
G75*
G03*
X373223410Y-63056540I-300000J0D01*
G01*
X358523410Y-75356540D02*
G75*
G03*
X358223410Y-75056540I-300000J0D01*
G01*
X358823410Y-62056540D02*
G75*
G03*
X358523410Y-62356540I0J-300000D01*
G01*
X358523410Y-75756540D02*
G75*
G03*
X358823410Y-76056540I300000J0D01*
G01*
X372823410Y-75056540D02*
G75*
G03*
X372523410Y-75356540I0J-300000D01*
G01*
X373323410Y-75056540D02*
G75*
G03*
X373523410Y-74856540I-1J200001D01*
G01*
X148972530Y-94806620D02*
X148972530Y-94406620D01*
X162972530Y-90706620D02*
X162972530Y-85506620D01*
X163272530Y-82106620D02*
X163672530Y-82106620D01*
X163972530Y-85006620D02*
X163972530Y-82406620D01*
X163772530Y-85206620D02*
X163272530Y-85206620D01*
X148972530Y-81806620D02*
X148972530Y-81406620D01*
X162972530Y-81406620D02*
X162972530Y-81806620D01*
X148672530Y-94106620D02*
X148272530Y-94106620D01*
X148972530Y-85506620D02*
X148972530Y-90706620D01*
X163972530Y-93906620D02*
X163972530Y-91306620D01*
X162672530Y-81106620D02*
X149272530Y-81106620D01*
X148172530Y-91006620D02*
X148672530Y-91006620D01*
X147972530Y-91206620D02*
X147972530Y-93806620D01*
X163272530Y-91006620D02*
X163672530Y-91006620D01*
X162972530Y-94406620D02*
X162972530Y-94806620D01*
X163772530Y-94106620D02*
X163272530Y-94106620D01*
X162672530Y-95106620D02*
X149272530Y-95106620D01*
X147972530Y-82306620D02*
X147972530Y-84906620D01*
X148672530Y-85206620D02*
X148272530Y-85206620D01*
X148172530Y-82106620D02*
X148672530Y-82106620D01*
X163772530Y-85206620D02*
G75*
G03*
X163972530Y-85006620I-1J200001D01*
G01*
X163272530Y-94106620D02*
G75*
G03*
X162972530Y-94406620I0J-300000D01*
G01*
X147972530Y-93806620D02*
G75*
G03*
X148272530Y-94106620I300000J0D01*
G01*
X148972530Y-85506620D02*
G75*
G03*
X148672530Y-85206620I-300000J0D01*
G01*
X163772530Y-94106620D02*
G75*
G03*
X163972530Y-93906620I-1J200001D01*
G01*
X149272530Y-81106620D02*
G75*
G03*
X148972530Y-81406620I0J-300000D01*
G01*
X148172530Y-91006620D02*
G75*
G03*
X147972530Y-91206620I1J-200001D01*
G01*
X148672530Y-82106620D02*
G75*
G03*
X148972530Y-81806620I0J300000D01*
G01*
X148172530Y-82106620D02*
G75*
G03*
X147972530Y-82306620I1J-200001D01*
G01*
X163272530Y-85206620D02*
G75*
G03*
X162972530Y-85506620I0J-300000D01*
G01*
X163972530Y-82406620D02*
G75*
G03*
X163672530Y-82106620I-300000J0D01*
G01*
X148972530Y-94406620D02*
G75*
G03*
X148672530Y-94106620I-300000J0D01*
G01*
X162672530Y-95106620D02*
G75*
G03*
X162972530Y-94806620I0J300000D01*
G01*
X162972530Y-81406620D02*
G75*
G03*
X162672530Y-81106620I-300000J0D01*
G01*
X163972530Y-91306620D02*
G75*
G03*
X163672530Y-91006620I-300000J0D01*
G01*
X162972530Y-81806620D02*
G75*
G03*
X163272530Y-82106620I300000J0D01*
G01*
X162972530Y-90706620D02*
G75*
G03*
X163272530Y-91006620I300000J0D01*
G01*
X147972530Y-84906620D02*
G75*
G03*
X148272530Y-85206620I300000J0D01*
G01*
X148972530Y-94806620D02*
G75*
G03*
X149272530Y-95106620I300000J0D01*
G01*
X148672530Y-91006620D02*
G75*
G03*
X148972530Y-90706620I0J300000D01*
G01*
X167022610Y-82306620D02*
X167022610Y-84906620D01*
X182022610Y-90706620D02*
X182022610Y-85506620D01*
X181722610Y-81106620D02*
X168322610Y-81106620D01*
X183022610Y-93906620D02*
X183022610Y-91306620D01*
X181722610Y-95106620D02*
X168322610Y-95106620D01*
X167022610Y-91206620D02*
X167022610Y-93806620D01*
X182022610Y-94406620D02*
X182022610Y-94806620D01*
X168022610Y-81806620D02*
X168022610Y-81406620D01*
X167222610Y-91006620D02*
X167722610Y-91006620D01*
X167222610Y-82106620D02*
X167722610Y-82106620D01*
X182822610Y-85206620D02*
X182322610Y-85206620D01*
X168022610Y-94806620D02*
X168022610Y-94406620D01*
X168022610Y-85506620D02*
X168022610Y-90706620D01*
X183022610Y-85006620D02*
X183022610Y-82406620D01*
X182022610Y-81406620D02*
X182022610Y-81806620D01*
X182322610Y-91006620D02*
X182722610Y-91006620D01*
X167722610Y-94106620D02*
X167322610Y-94106620D01*
X182322610Y-82106620D02*
X182722610Y-82106620D01*
X182822610Y-94106620D02*
X182322610Y-94106620D01*
X167722610Y-85206620D02*
X167322610Y-85206620D01*
X167022610Y-93806620D02*
G75*
G03*
X167322610Y-94106620I300000J0D01*
G01*
X168022610Y-85506620D02*
G75*
G03*
X167722610Y-85206620I-300000J0D01*
G01*
X168322610Y-81106620D02*
G75*
G03*
X168022610Y-81406620I0J-300000D01*
G01*
X167022610Y-84906620D02*
G75*
G03*
X167322610Y-85206620I300000J0D01*
G01*
X182822610Y-85206620D02*
G75*
G03*
X183022610Y-85006620I-1J200001D01*
G01*
X182822610Y-94106620D02*
G75*
G03*
X183022610Y-93906620I-1J200001D01*
G01*
X182322610Y-94106620D02*
G75*
G03*
X182022610Y-94406620I0J-300000D01*
G01*
X167722610Y-91006620D02*
G75*
G03*
X168022610Y-90706620I0J300000D01*
G01*
X182022610Y-81406620D02*
G75*
G03*
X181722610Y-81106620I-300000J0D01*
G01*
X181722610Y-95106620D02*
G75*
G03*
X182022610Y-94806620I0J300000D01*
G01*
X183022610Y-82406620D02*
G75*
G03*
X182722610Y-82106620I-300000J0D01*
G01*
X167222610Y-91006620D02*
G75*
G03*
X167022610Y-91206620I1J-200001D01*
G01*
X183022610Y-91306620D02*
G75*
G03*
X182722610Y-91006620I-300000J0D01*
G01*
X167222610Y-82106620D02*
G75*
G03*
X167022610Y-82306620I1J-200001D01*
G01*
X182022610Y-90706620D02*
G75*
G03*
X182322610Y-91006620I300000J0D01*
G01*
X168022610Y-94806620D02*
G75*
G03*
X168322610Y-95106620I300000J0D01*
G01*
X167722610Y-82106620D02*
G75*
G03*
X168022610Y-81806620I0J300000D01*
G01*
X182322610Y-85206620D02*
G75*
G03*
X182022610Y-85506620I0J-300000D01*
G01*
X168022610Y-94406620D02*
G75*
G03*
X167722610Y-94106620I-300000J0D01*
G01*
X182022610Y-81806620D02*
G75*
G03*
X182322610Y-82106620I300000J0D01*
G01*
X186072690Y-82306620D02*
X186072690Y-84906620D01*
X201872690Y-94106620D02*
X201372690Y-94106620D01*
X187072690Y-85506620D02*
X187072690Y-90706620D01*
X186272690Y-82106620D02*
X186772690Y-82106620D01*
X187072690Y-81806620D02*
X187072690Y-81406620D01*
X202072690Y-85006620D02*
X202072690Y-82406620D01*
X201072690Y-90706620D02*
X201072690Y-85506620D01*
X201072690Y-81406620D02*
X201072690Y-81806620D01*
X201872690Y-85206620D02*
X201372690Y-85206620D01*
X200772690Y-81106620D02*
X187372690Y-81106620D01*
X186772690Y-85206620D02*
X186372690Y-85206620D01*
X201372690Y-82106620D02*
X201772690Y-82106620D01*
X186772690Y-94106620D02*
X186372690Y-94106620D01*
X186272690Y-91006620D02*
X186772690Y-91006620D01*
X201372690Y-91006620D02*
X201772690Y-91006620D01*
X187072690Y-94806620D02*
X187072690Y-94406620D01*
X200772690Y-95106620D02*
X187372690Y-95106620D01*
X186072690Y-91206620D02*
X186072690Y-93806620D01*
X201072690Y-94406620D02*
X201072690Y-94806620D01*
X202072690Y-93906620D02*
X202072690Y-91306620D01*
X186072690Y-84906620D02*
G75*
G03*
X186372690Y-85206620I300000J0D01*
G01*
X202072690Y-91306620D02*
G75*
G03*
X201772690Y-91006620I-300000J0D01*
G01*
X187072690Y-94406620D02*
G75*
G03*
X186772690Y-94106620I-300000J0D01*
G01*
X200772690Y-95106620D02*
G75*
G03*
X201072690Y-94806620I0J300000D01*
G01*
X201072690Y-81806620D02*
G75*
G03*
X201372690Y-82106620I300000J0D01*
G01*
X186272690Y-82106620D02*
G75*
G03*
X186072690Y-82306620I1J-200001D01*
G01*
X201372690Y-85206620D02*
G75*
G03*
X201072690Y-85506620I0J-300000D01*
G01*
X201372690Y-94106620D02*
G75*
G03*
X201072690Y-94406620I0J-300000D01*
G01*
X187072690Y-94806620D02*
G75*
G03*
X187372690Y-95106620I300000J0D01*
G01*
X187372690Y-81106620D02*
G75*
G03*
X187072690Y-81406620I0J-300000D01*
G01*
X186772690Y-82106620D02*
G75*
G03*
X187072690Y-81806620I0J300000D01*
G01*
X201872690Y-94106620D02*
G75*
G03*
X202072690Y-93906620I-1J200001D01*
G01*
X186072690Y-93806620D02*
G75*
G03*
X186372690Y-94106620I300000J0D01*
G01*
X201072690Y-81406620D02*
G75*
G03*
X200772690Y-81106620I-300000J0D01*
G01*
X201872690Y-85206620D02*
G75*
G03*
X202072690Y-85006620I-1J200001D01*
G01*
X186772690Y-91006620D02*
G75*
G03*
X187072690Y-90706620I0J300000D01*
G01*
X186272690Y-91006620D02*
G75*
G03*
X186072690Y-91206620I1J-200001D01*
G01*
X187072690Y-85506620D02*
G75*
G03*
X186772690Y-85206620I-300000J0D01*
G01*
X202072690Y-82406620D02*
G75*
G03*
X201772690Y-82106620I-300000J0D01*
G01*
X201072690Y-90706620D02*
G75*
G03*
X201372690Y-91006620I300000J0D01*
G01*
X205322770Y-91006620D02*
X205822770Y-91006620D01*
X220922770Y-94106620D02*
X220422770Y-94106620D01*
X205122770Y-82306620D02*
X205122770Y-84906620D01*
X221122770Y-85006620D02*
X221122770Y-82406620D01*
X220422770Y-82106620D02*
X220822770Y-82106620D01*
X220922770Y-85206620D02*
X220422770Y-85206620D01*
X206122770Y-94806620D02*
X206122770Y-94406620D01*
X206122770Y-81806620D02*
X206122770Y-81406620D01*
X219822770Y-95106620D02*
X206422770Y-95106620D01*
X205822770Y-85206620D02*
X205422770Y-85206620D01*
X220122770Y-90706620D02*
X220122770Y-85506620D01*
X220122770Y-81406620D02*
X220122770Y-81806620D01*
X221122770Y-93906620D02*
X221122770Y-91306620D01*
X205122770Y-91206620D02*
X205122770Y-93806620D01*
X205822770Y-94106620D02*
X205422770Y-94106620D01*
X205322770Y-82106620D02*
X205822770Y-82106620D01*
X219822770Y-81106620D02*
X206422770Y-81106620D01*
X220422770Y-91006620D02*
X220822770Y-91006620D01*
X206122770Y-85506620D02*
X206122770Y-90706620D01*
X220122770Y-94406620D02*
X220122770Y-94806620D01*
X220422770Y-94106620D02*
G75*
G03*
X220122770Y-94406620I0J-300000D01*
G01*
X205122770Y-84906620D02*
G75*
G03*
X205422770Y-85206620I300000J0D01*
G01*
X220122770Y-81806620D02*
G75*
G03*
X220422770Y-82106620I300000J0D01*
G01*
X220122770Y-81406620D02*
G75*
G03*
X219822770Y-81106620I-300000J0D01*
G01*
X206122770Y-85506620D02*
G75*
G03*
X205822770Y-85206620I-300000J0D01*
G01*
X220122770Y-90706620D02*
G75*
G03*
X220422770Y-91006620I300000J0D01*
G01*
X205122770Y-93806620D02*
G75*
G03*
X205422770Y-94106620I300000J0D01*
G01*
X221122770Y-91306620D02*
G75*
G03*
X220822770Y-91006620I-300000J0D01*
G01*
X220922770Y-85206620D02*
G75*
G03*
X221122770Y-85006620I-1J200001D01*
G01*
X220422770Y-85206620D02*
G75*
G03*
X220122770Y-85506620I0J-300000D01*
G01*
X205822770Y-82106620D02*
G75*
G03*
X206122770Y-81806620I0J300000D01*
G01*
X206422770Y-81106620D02*
G75*
G03*
X206122770Y-81406620I0J-300000D01*
G01*
X219822770Y-95106620D02*
G75*
G03*
X220122770Y-94806620I0J300000D01*
G01*
X205322770Y-82106620D02*
G75*
G03*
X205122770Y-82306620I1J-200001D01*
G01*
X206122770Y-94806620D02*
G75*
G03*
X206422770Y-95106620I300000J0D01*
G01*
X205822770Y-91006620D02*
G75*
G03*
X206122770Y-90706620I0J300000D01*
G01*
X205322770Y-91006620D02*
G75*
G03*
X205122770Y-91206620I1J-200001D01*
G01*
X221122770Y-82406620D02*
G75*
G03*
X220822770Y-82106620I-300000J0D01*
G01*
X220922770Y-94106620D02*
G75*
G03*
X221122770Y-93906620I-1J200001D01*
G01*
X206122770Y-94406620D02*
G75*
G03*
X205822770Y-94106620I-300000J0D01*
G01*
X224172850Y-91206620D02*
X224172850Y-93806620D01*
X240172850Y-85006620D02*
X240172850Y-82406620D01*
X239472850Y-82106620D02*
X239872850Y-82106620D01*
X239172850Y-81406620D02*
X239172850Y-81806620D01*
X224172850Y-82306620D02*
X224172850Y-84906620D01*
X240172850Y-93906620D02*
X240172850Y-91306620D01*
X224372850Y-91006620D02*
X224872850Y-91006620D01*
X224872850Y-94106620D02*
X224472850Y-94106620D01*
X239172850Y-94406620D02*
X239172850Y-94806620D01*
X239972850Y-85206620D02*
X239472850Y-85206620D01*
X238872850Y-95106620D02*
X225472850Y-95106620D01*
X239472850Y-91006620D02*
X239872850Y-91006620D01*
X238872850Y-81106620D02*
X225472850Y-81106620D01*
X224372850Y-82106620D02*
X224872850Y-82106620D01*
X239972850Y-94106620D02*
X239472850Y-94106620D01*
X225172850Y-85506620D02*
X225172850Y-90706620D01*
X224872850Y-85206620D02*
X224472850Y-85206620D01*
X225172850Y-94806620D02*
X225172850Y-94406620D01*
X225172850Y-81806620D02*
X225172850Y-81406620D01*
X239172850Y-90706620D02*
X239172850Y-85506620D01*
X224372850Y-82106620D02*
G75*
G03*
X224172850Y-82306620I1J-200001D01*
G01*
X239172850Y-81406620D02*
G75*
G03*
X238872850Y-81106620I-300000J0D01*
G01*
X225472850Y-81106620D02*
G75*
G03*
X225172850Y-81406620I0J-300000D01*
G01*
X240172850Y-91306620D02*
G75*
G03*
X239872850Y-91006620I-300000J0D01*
G01*
X239472850Y-94106620D02*
G75*
G03*
X239172850Y-94406620I0J-300000D01*
G01*
X225172850Y-85506620D02*
G75*
G03*
X224872850Y-85206620I-300000J0D01*
G01*
X239172850Y-81806620D02*
G75*
G03*
X239472850Y-82106620I300000J0D01*
G01*
X224172850Y-84906620D02*
G75*
G03*
X224472850Y-85206620I300000J0D01*
G01*
X238872850Y-95106620D02*
G75*
G03*
X239172850Y-94806620I0J300000D01*
G01*
X239972850Y-94106620D02*
G75*
G03*
X240172850Y-93906620I-1J200001D01*
G01*
X225172850Y-94806620D02*
G75*
G03*
X225472850Y-95106620I300000J0D01*
G01*
X239472850Y-85206620D02*
G75*
G03*
X239172850Y-85506620I0J-300000D01*
G01*
X224872850Y-82106620D02*
G75*
G03*
X225172850Y-81806620I0J300000D01*
G01*
X239972850Y-85206620D02*
G75*
G03*
X240172850Y-85006620I-1J200001D01*
G01*
X224372850Y-91006620D02*
G75*
G03*
X224172850Y-91206620I1J-200001D01*
G01*
X239172850Y-90706620D02*
G75*
G03*
X239472850Y-91006620I300000J0D01*
G01*
X224872850Y-91006620D02*
G75*
G03*
X225172850Y-90706620I0J300000D01*
G01*
X225172850Y-94406620D02*
G75*
G03*
X224872850Y-94106620I-300000J0D01*
G01*
X224172850Y-93806620D02*
G75*
G03*
X224472850Y-94106620I300000J0D01*
G01*
X240172850Y-82406620D02*
G75*
G03*
X239872850Y-82106620I-300000J0D01*
G01*
X244222930Y-94806620D02*
X244222930Y-94406620D01*
X243222930Y-82306620D02*
X243222930Y-84906620D01*
X243922930Y-85206620D02*
X243522930Y-85206620D01*
X258522930Y-91006620D02*
X258922930Y-91006620D01*
X244222930Y-81806620D02*
X244222930Y-81406620D01*
X258222930Y-81406620D02*
X258222930Y-81806620D01*
X243422930Y-82106620D02*
X243922930Y-82106620D01*
X259222930Y-93906620D02*
X259222930Y-91306620D01*
X258222930Y-94406620D02*
X258222930Y-94806620D01*
X259022930Y-94106620D02*
X258522930Y-94106620D01*
X257922930Y-95106620D02*
X244522930Y-95106620D01*
X243222930Y-91206620D02*
X243222930Y-93806620D01*
X257922930Y-81106620D02*
X244522930Y-81106620D01*
X244222930Y-85506620D02*
X244222930Y-90706620D01*
X243422930Y-91006620D02*
X243922930Y-91006620D01*
X243922930Y-94106620D02*
X243522930Y-94106620D01*
X259222930Y-85006620D02*
X259222930Y-82406620D01*
X258222930Y-90706620D02*
X258222930Y-85506620D01*
X258522930Y-82106620D02*
X258922930Y-82106620D01*
X259022930Y-85206620D02*
X258522930Y-85206620D01*
X244522930Y-81106620D02*
G75*
G03*
X244222930Y-81406620I0J-300000D01*
G01*
X243422930Y-82106620D02*
G75*
G03*
X243222930Y-82306620I1J-200001D01*
G01*
X258222930Y-90706620D02*
G75*
G03*
X258522930Y-91006620I300000J0D01*
G01*
X243922930Y-91006620D02*
G75*
G03*
X244222930Y-90706620I0J300000D01*
G01*
X243922930Y-82106620D02*
G75*
G03*
X244222930Y-81806620I0J300000D01*
G01*
X259022930Y-85206620D02*
G75*
G03*
X259222930Y-85006620I-1J200001D01*
G01*
X244222930Y-94806620D02*
G75*
G03*
X244522930Y-95106620I300000J0D01*
G01*
X243422930Y-91006620D02*
G75*
G03*
X243222930Y-91206620I1J-200001D01*
G01*
X257922930Y-95106620D02*
G75*
G03*
X258222930Y-94806620I0J300000D01*
G01*
X258222930Y-81406620D02*
G75*
G03*
X257922930Y-81106620I-300000J0D01*
G01*
X258222930Y-81806620D02*
G75*
G03*
X258522930Y-82106620I300000J0D01*
G01*
X259222930Y-82406620D02*
G75*
G03*
X258922930Y-82106620I-300000J0D01*
G01*
X243222930Y-84906620D02*
G75*
G03*
X243522930Y-85206620I300000J0D01*
G01*
X258522930Y-85206620D02*
G75*
G03*
X258222930Y-85506620I0J-300000D01*
G01*
X258522930Y-94106620D02*
G75*
G03*
X258222930Y-94406620I0J-300000D01*
G01*
X244222930Y-94406620D02*
G75*
G03*
X243922930Y-94106620I-300000J0D01*
G01*
X259222930Y-91306620D02*
G75*
G03*
X258922930Y-91006620I-300000J0D01*
G01*
X259022930Y-94106620D02*
G75*
G03*
X259222930Y-93906620I-1J200001D01*
G01*
X244222930Y-85506620D02*
G75*
G03*
X243922930Y-85206620I-300000J0D01*
G01*
X243222930Y-93806620D02*
G75*
G03*
X243522930Y-94106620I300000J0D01*
G01*
X277573010Y-91006620D02*
X277973010Y-91006620D01*
X276973010Y-81106620D02*
X263573010Y-81106620D01*
X276973010Y-95106620D02*
X263573010Y-95106620D01*
X278273010Y-85006620D02*
X278273010Y-82406620D01*
X277573010Y-82106620D02*
X277973010Y-82106620D01*
X277273010Y-94406620D02*
X277273010Y-94806620D01*
X263273010Y-81806620D02*
X263273010Y-81406620D01*
X278073010Y-85206620D02*
X277573010Y-85206620D01*
X263273010Y-85506620D02*
X263273010Y-90706620D01*
X262273010Y-82306620D02*
X262273010Y-84906620D01*
X262973010Y-85206620D02*
X262573010Y-85206620D01*
X262473010Y-91006620D02*
X262973010Y-91006620D01*
X263273010Y-94806620D02*
X263273010Y-94406620D01*
X262273010Y-91206620D02*
X262273010Y-93806620D01*
X277273010Y-81406620D02*
X277273010Y-81806620D01*
X277273010Y-90706620D02*
X277273010Y-85506620D01*
X278073010Y-94106620D02*
X277573010Y-94106620D01*
X262473010Y-82106620D02*
X262973010Y-82106620D01*
X262973010Y-94106620D02*
X262573010Y-94106620D01*
X278273010Y-93906620D02*
X278273010Y-91306620D01*
X278273010Y-82406620D02*
G75*
G03*
X277973010Y-82106620I-300000J0D01*
G01*
X277273010Y-81406620D02*
G75*
G03*
X276973010Y-81106620I-300000J0D01*
G01*
X276973010Y-95106620D02*
G75*
G03*
X277273010Y-94806620I0J300000D01*
G01*
X262973010Y-91006620D02*
G75*
G03*
X263273010Y-90706620I0J300000D01*
G01*
X262973010Y-82106620D02*
G75*
G03*
X263273010Y-81806620I0J300000D01*
G01*
X277273010Y-81806620D02*
G75*
G03*
X277573010Y-82106620I300000J0D01*
G01*
X263273010Y-94406620D02*
G75*
G03*
X262973010Y-94106620I-300000J0D01*
G01*
X277273010Y-90706620D02*
G75*
G03*
X277573010Y-91006620I300000J0D01*
G01*
X278273010Y-91306620D02*
G75*
G03*
X277973010Y-91006620I-300000J0D01*
G01*
X277573010Y-85206620D02*
G75*
G03*
X277273010Y-85506620I0J-300000D01*
G01*
X263273010Y-85506620D02*
G75*
G03*
X262973010Y-85206620I-300000J0D01*
G01*
X278073010Y-94106620D02*
G75*
G03*
X278273010Y-93906620I-1J200001D01*
G01*
X263273010Y-94806620D02*
G75*
G03*
X263573010Y-95106620I300000J0D01*
G01*
X278073010Y-85206620D02*
G75*
G03*
X278273010Y-85006620I-1J200001D01*
G01*
X262273010Y-93806620D02*
G75*
G03*
X262573010Y-94106620I300000J0D01*
G01*
X262473010Y-82106620D02*
G75*
G03*
X262273010Y-82306620I1J-200001D01*
G01*
X262273010Y-84906620D02*
G75*
G03*
X262573010Y-85206620I300000J0D01*
G01*
X262473010Y-91006620D02*
G75*
G03*
X262273010Y-91206620I1J-200001D01*
G01*
X263573010Y-81106620D02*
G75*
G03*
X263273010Y-81406620I0J-300000D01*
G01*
X277573010Y-94106620D02*
G75*
G03*
X277273010Y-94406620I0J-300000D01*
G01*
X297323090Y-93906620D02*
X297323090Y-91306620D01*
X296023090Y-95106620D02*
X282623090Y-95106620D01*
X296323090Y-94406620D02*
X296323090Y-94806620D01*
X282323090Y-85506620D02*
X282323090Y-90706620D01*
X296623090Y-82106620D02*
X297023090Y-82106620D01*
X297123090Y-94106620D02*
X296623090Y-94106620D01*
X281323090Y-82306620D02*
X281323090Y-84906620D01*
X282323090Y-94806620D02*
X282323090Y-94406620D01*
X282323090Y-81806620D02*
X282323090Y-81406620D01*
X297323090Y-85006620D02*
X297323090Y-82406620D01*
X296323090Y-81406620D02*
X296323090Y-81806620D01*
X281523090Y-91006620D02*
X282023090Y-91006620D01*
X281323090Y-91206620D02*
X281323090Y-93806620D01*
X282023090Y-85206620D02*
X281623090Y-85206620D01*
X297123090Y-85206620D02*
X296623090Y-85206620D01*
X296323090Y-90706620D02*
X296323090Y-85506620D01*
X281523090Y-82106620D02*
X282023090Y-82106620D01*
X296023090Y-81106620D02*
X282623090Y-81106620D01*
X296623090Y-91006620D02*
X297023090Y-91006620D01*
X282023090Y-94106620D02*
X281623090Y-94106620D01*
X296323090Y-81806620D02*
G75*
G03*
X296623090Y-82106620I300000J0D01*
G01*
X281523090Y-91006620D02*
G75*
G03*
X281323090Y-91206620I1J-200001D01*
G01*
X296023090Y-95106620D02*
G75*
G03*
X296323090Y-94806620I0J300000D01*
G01*
X297323090Y-82406620D02*
G75*
G03*
X297023090Y-82106620I-300000J0D01*
G01*
X296623090Y-85206620D02*
G75*
G03*
X296323090Y-85506620I0J-300000D01*
G01*
X282023090Y-91006620D02*
G75*
G03*
X282323090Y-90706620I0J300000D01*
G01*
X281323090Y-93806620D02*
G75*
G03*
X281623090Y-94106620I300000J0D01*
G01*
X296323090Y-81406620D02*
G75*
G03*
X296023090Y-81106620I-300000J0D01*
G01*
X282323090Y-94806620D02*
G75*
G03*
X282623090Y-95106620I300000J0D01*
G01*
X282623090Y-81106620D02*
G75*
G03*
X282323090Y-81406620I0J-300000D01*
G01*
X282323090Y-94406620D02*
G75*
G03*
X282023090Y-94106620I-300000J0D01*
G01*
X297323090Y-91306620D02*
G75*
G03*
X297023090Y-91006620I-300000J0D01*
G01*
X296623090Y-94106620D02*
G75*
G03*
X296323090Y-94406620I0J-300000D01*
G01*
X281523090Y-82106620D02*
G75*
G03*
X281323090Y-82306620I1J-200001D01*
G01*
X297123090Y-85206620D02*
G75*
G03*
X297323090Y-85006620I-1J200001D01*
G01*
X282023090Y-82106620D02*
G75*
G03*
X282323090Y-81806620I0J300000D01*
G01*
X282323090Y-85506620D02*
G75*
G03*
X282023090Y-85206620I-300000J0D01*
G01*
X281323090Y-84906620D02*
G75*
G03*
X281623090Y-85206620I300000J0D01*
G01*
X296323090Y-90706620D02*
G75*
G03*
X296623090Y-91006620I300000J0D01*
G01*
X297123090Y-94106620D02*
G75*
G03*
X297323090Y-93906620I-1J200001D01*
G01*
X301373170Y-94806620D02*
X301373170Y-94406620D01*
X315073170Y-95106620D02*
X301673170Y-95106620D01*
X316373170Y-85006620D02*
X316373170Y-82406620D01*
X316173170Y-94106620D02*
X315673170Y-94106620D01*
X315673170Y-82106620D02*
X316073170Y-82106620D01*
X315373170Y-94406620D02*
X315373170Y-94806620D01*
X300373170Y-91206620D02*
X300373170Y-93806620D01*
X315373170Y-81406620D02*
X315373170Y-81806620D01*
X315073170Y-81106620D02*
X301673170Y-81106620D01*
X316173170Y-85206620D02*
X315673170Y-85206620D01*
X300373170Y-82306620D02*
X300373170Y-84906620D01*
X315373170Y-90706620D02*
X315373170Y-85506620D01*
X301373170Y-81806620D02*
X301373170Y-81406620D01*
X300573170Y-91006620D02*
X301073170Y-91006620D01*
X301073170Y-85206620D02*
X300673170Y-85206620D01*
X301073170Y-94106620D02*
X300673170Y-94106620D01*
X301373170Y-85506620D02*
X301373170Y-90706620D01*
X300573170Y-82106620D02*
X301073170Y-82106620D01*
X315673170Y-91006620D02*
X316073170Y-91006620D01*
X316373170Y-93906620D02*
X316373170Y-91306620D01*
X315373170Y-81406620D02*
G75*
G03*
X315073170Y-81106620I-300000J0D01*
G01*
X301073170Y-91006620D02*
G75*
G03*
X301373170Y-90706620I0J300000D01*
G01*
X300573170Y-82106620D02*
G75*
G03*
X300373170Y-82306620I1J-200001D01*
G01*
X301373170Y-94406620D02*
G75*
G03*
X301073170Y-94106620I-300000J0D01*
G01*
X301673170Y-81106620D02*
G75*
G03*
X301373170Y-81406620I0J-300000D01*
G01*
X315373170Y-90706620D02*
G75*
G03*
X315673170Y-91006620I300000J0D01*
G01*
X300573170Y-91006620D02*
G75*
G03*
X300373170Y-91206620I1J-200001D01*
G01*
X301373170Y-94806620D02*
G75*
G03*
X301673170Y-95106620I300000J0D01*
G01*
X300373170Y-84906620D02*
G75*
G03*
X300673170Y-85206620I300000J0D01*
G01*
X301373170Y-85506620D02*
G75*
G03*
X301073170Y-85206620I-300000J0D01*
G01*
X315673170Y-85206620D02*
G75*
G03*
X315373170Y-85506620I0J-300000D01*
G01*
X315673170Y-94106620D02*
G75*
G03*
X315373170Y-94406620I0J-300000D01*
G01*
X315373170Y-81806620D02*
G75*
G03*
X315673170Y-82106620I300000J0D01*
G01*
X316173170Y-85206620D02*
G75*
G03*
X316373170Y-85006620I-1J200001D01*
G01*
X316373170Y-91306620D02*
G75*
G03*
X316073170Y-91006620I-300000J0D01*
G01*
X316173170Y-94106620D02*
G75*
G03*
X316373170Y-93906620I-1J200001D01*
G01*
X300373170Y-93806620D02*
G75*
G03*
X300673170Y-94106620I300000J0D01*
G01*
X301073170Y-82106620D02*
G75*
G03*
X301373170Y-81806620I0J300000D01*
G01*
X316373170Y-82406620D02*
G75*
G03*
X316073170Y-82106620I-300000J0D01*
G01*
X315073170Y-95106620D02*
G75*
G03*
X315373170Y-94806620I0J300000D01*
G01*
X334123250Y-81106620D02*
X320723250Y-81106620D01*
X320123250Y-85206620D02*
X319723250Y-85206620D01*
X334723250Y-91006620D02*
X335123250Y-91006620D01*
X319423250Y-91206620D02*
X319423250Y-93806620D01*
X334123250Y-95106620D02*
X320723250Y-95106620D01*
X335423250Y-93906620D02*
X335423250Y-91306620D01*
X319623250Y-82106620D02*
X320123250Y-82106620D01*
X334423250Y-94406620D02*
X334423250Y-94806620D01*
X335223250Y-85206620D02*
X334723250Y-85206620D01*
X334423250Y-81406620D02*
X334423250Y-81806620D01*
X320423250Y-94806620D02*
X320423250Y-94406620D01*
X335223250Y-94106620D02*
X334723250Y-94106620D01*
X320123250Y-94106620D02*
X319723250Y-94106620D01*
X335423250Y-85006620D02*
X335423250Y-82406620D01*
X334723250Y-82106620D02*
X335123250Y-82106620D01*
X319623250Y-91006620D02*
X320123250Y-91006620D01*
X319423250Y-82306620D02*
X319423250Y-84906620D01*
X320423250Y-81806620D02*
X320423250Y-81406620D01*
X320423250Y-85506620D02*
X320423250Y-90706620D01*
X334423250Y-90706620D02*
X334423250Y-85506620D01*
X334423250Y-90706620D02*
G75*
G03*
X334723250Y-91006620I300000J0D01*
G01*
X335423250Y-82406620D02*
G75*
G03*
X335123250Y-82106620I-300000J0D01*
G01*
X320423250Y-94806620D02*
G75*
G03*
X320723250Y-95106620I300000J0D01*
G01*
X320423250Y-85506620D02*
G75*
G03*
X320123250Y-85206620I-300000J0D01*
G01*
X320123250Y-82106620D02*
G75*
G03*
X320423250Y-81806620I0J300000D01*
G01*
X335223250Y-94106620D02*
G75*
G03*
X335423250Y-93906620I-1J200001D01*
G01*
X320423250Y-94406620D02*
G75*
G03*
X320123250Y-94106620I-300000J0D01*
G01*
X319423250Y-84906620D02*
G75*
G03*
X319723250Y-85206620I300000J0D01*
G01*
X320123250Y-91006620D02*
G75*
G03*
X320423250Y-90706620I0J300000D01*
G01*
X319623250Y-91006620D02*
G75*
G03*
X319423250Y-91206620I1J-200001D01*
G01*
X334423250Y-81806620D02*
G75*
G03*
X334723250Y-82106620I300000J0D01*
G01*
X335423250Y-91306620D02*
G75*
G03*
X335123250Y-91006620I-300000J0D01*
G01*
X334123250Y-95106620D02*
G75*
G03*
X334423250Y-94806620I0J300000D01*
G01*
X320723250Y-81106620D02*
G75*
G03*
X320423250Y-81406620I0J-300000D01*
G01*
X319623250Y-82106620D02*
G75*
G03*
X319423250Y-82306620I1J-200001D01*
G01*
X335223250Y-85206620D02*
G75*
G03*
X335423250Y-85006620I-1J200001D01*
G01*
X319423250Y-93806620D02*
G75*
G03*
X319723250Y-94106620I300000J0D01*
G01*
X334423250Y-81406620D02*
G75*
G03*
X334123250Y-81106620I-300000J0D01*
G01*
X334723250Y-85206620D02*
G75*
G03*
X334423250Y-85506620I0J-300000D01*
G01*
X334723250Y-94106620D02*
G75*
G03*
X334423250Y-94406620I0J-300000D01*
G01*
X338673330Y-91006620D02*
X339173330Y-91006620D01*
X339473330Y-81806620D02*
X339473330Y-81406620D01*
X338673330Y-82106620D02*
X339173330Y-82106620D01*
X353173330Y-81106620D02*
X339773330Y-81106620D01*
X338473330Y-82306620D02*
X338473330Y-84906620D01*
X339173330Y-94106620D02*
X338773330Y-94106620D01*
X353773330Y-91006620D02*
X354173330Y-91006620D01*
X353473330Y-81406620D02*
X353473330Y-81806620D01*
X354273330Y-85206620D02*
X353773330Y-85206620D01*
X353473330Y-94406620D02*
X353473330Y-94806620D01*
X354473330Y-85006620D02*
X354473330Y-82406620D01*
X339173330Y-85206620D02*
X338773330Y-85206620D01*
X339473330Y-85506620D02*
X339473330Y-90706620D01*
X353773330Y-82106620D02*
X354173330Y-82106620D01*
X354473330Y-93906620D02*
X354473330Y-91306620D01*
X338473330Y-91206620D02*
X338473330Y-93806620D01*
X353173330Y-95106620D02*
X339773330Y-95106620D01*
X339473330Y-94806620D02*
X339473330Y-94406620D01*
X353473330Y-90706620D02*
X353473330Y-85506620D01*
X354273330Y-94106620D02*
X353773330Y-94106620D01*
X353773330Y-94106620D02*
G75*
G03*
X353473330Y-94406620I0J-300000D01*
G01*
X353473330Y-81806620D02*
G75*
G03*
X353773330Y-82106620I300000J0D01*
G01*
X353473330Y-81406620D02*
G75*
G03*
X353173330Y-81106620I-300000J0D01*
G01*
X353773330Y-85206620D02*
G75*
G03*
X353473330Y-85506620I0J-300000D01*
G01*
X339473330Y-94806620D02*
G75*
G03*
X339773330Y-95106620I300000J0D01*
G01*
X353473330Y-90706620D02*
G75*
G03*
X353773330Y-91006620I300000J0D01*
G01*
X339173330Y-91006620D02*
G75*
G03*
X339473330Y-90706620I0J300000D01*
G01*
X354273330Y-85206620D02*
G75*
G03*
X354473330Y-85006620I-1J200001D01*
G01*
X354473330Y-91306620D02*
G75*
G03*
X354173330Y-91006620I-300000J0D01*
G01*
X338473330Y-93806620D02*
G75*
G03*
X338773330Y-94106620I300000J0D01*
G01*
X339773330Y-81106620D02*
G75*
G03*
X339473330Y-81406620I0J-300000D01*
G01*
X354273330Y-94106620D02*
G75*
G03*
X354473330Y-93906620I-1J200001D01*
G01*
X339473330Y-85506620D02*
G75*
G03*
X339173330Y-85206620I-300000J0D01*
G01*
X339473330Y-94406620D02*
G75*
G03*
X339173330Y-94106620I-300000J0D01*
G01*
X338673330Y-91006620D02*
G75*
G03*
X338473330Y-91206620I1J-200001D01*
G01*
X338473330Y-84906620D02*
G75*
G03*
X338773330Y-85206620I300000J0D01*
G01*
X338673330Y-82106620D02*
G75*
G03*
X338473330Y-82306620I1J-200001D01*
G01*
X353173330Y-95106620D02*
G75*
G03*
X353473330Y-94806620I0J300000D01*
G01*
X354473330Y-82406620D02*
G75*
G03*
X354173330Y-82106620I-300000J0D01*
G01*
X339173330Y-82106620D02*
G75*
G03*
X339473330Y-81806620I0J300000D01*
G01*
X373323410Y-94106620D02*
X372823410Y-94106620D01*
X358523410Y-81806620D02*
X358523410Y-81406620D01*
X357523410Y-91206620D02*
X357523410Y-93806620D01*
X373523410Y-85006620D02*
X373523410Y-82406620D01*
X358223410Y-94106620D02*
X357823410Y-94106620D01*
X358523410Y-85506620D02*
X358523410Y-90706620D01*
X372523410Y-90706620D02*
X372523410Y-85506620D01*
X372823410Y-91006620D02*
X373223410Y-91006620D01*
X372223410Y-95106620D02*
X358823410Y-95106620D01*
X373523410Y-93906620D02*
X373523410Y-91306620D01*
X373323410Y-85206620D02*
X372823410Y-85206620D01*
X372823410Y-82106620D02*
X373223410Y-82106620D01*
X357723410Y-82106620D02*
X358223410Y-82106620D01*
X357523410Y-82306620D02*
X357523410Y-84906620D01*
X358223410Y-85206620D02*
X357823410Y-85206620D01*
X358523410Y-94806620D02*
X358523410Y-94406620D01*
X372523410Y-81406620D02*
X372523410Y-81806620D01*
X372523410Y-94406620D02*
X372523410Y-94806620D01*
X372223410Y-81106620D02*
X358823410Y-81106620D01*
X357723410Y-91006620D02*
X358223410Y-91006620D01*
X357723410Y-91006620D02*
G75*
G03*
X357523410Y-91206620I1J-200001D01*
G01*
X372223410Y-95106620D02*
G75*
G03*
X372523410Y-94806620I0J300000D01*
G01*
X373323410Y-94106620D02*
G75*
G03*
X373523410Y-93906620I-1J200001D01*
G01*
X357523410Y-93806620D02*
G75*
G03*
X357823410Y-94106620I300000J0D01*
G01*
X373523410Y-82406620D02*
G75*
G03*
X373223410Y-82106620I-300000J0D01*
G01*
X358823410Y-81106620D02*
G75*
G03*
X358523410Y-81406620I0J-300000D01*
G01*
X358223410Y-91006620D02*
G75*
G03*
X358523410Y-90706620I0J300000D01*
G01*
X358223410Y-82106620D02*
G75*
G03*
X358523410Y-81806620I0J300000D01*
G01*
X358523410Y-94406620D02*
G75*
G03*
X358223410Y-94106620I-300000J0D01*
G01*
X357723410Y-82106620D02*
G75*
G03*
X357523410Y-82306620I1J-200001D01*
G01*
X372823410Y-94106620D02*
G75*
G03*
X372523410Y-94406620I0J-300000D01*
G01*
X358523410Y-85506620D02*
G75*
G03*
X358223410Y-85206620I-300000J0D01*
G01*
X372523410Y-90706620D02*
G75*
G03*
X372823410Y-91006620I300000J0D01*
G01*
X372523410Y-81406620D02*
G75*
G03*
X372223410Y-81106620I-300000J0D01*
G01*
X372823410Y-85206620D02*
G75*
G03*
X372523410Y-85506620I0J-300000D01*
G01*
X372523410Y-81806620D02*
G75*
G03*
X372823410Y-82106620I300000J0D01*
G01*
X373523410Y-91306620D02*
G75*
G03*
X373223410Y-91006620I-300000J0D01*
G01*
X373323410Y-85206620D02*
G75*
G03*
X373523410Y-85006620I-1J200001D01*
G01*
X358523410Y-94806620D02*
G75*
G03*
X358823410Y-95106620I300000J0D01*
G01*
X357523410Y-84906620D02*
G75*
G03*
X357823410Y-85206620I300000J0D01*
G01*
X182022610Y-113456700D02*
X182022610Y-113856700D01*
X182022610Y-109756700D02*
X182022610Y-104556700D01*
X168022610Y-113856700D02*
X168022610Y-113456700D01*
X182322610Y-110056700D02*
X182722610Y-110056700D01*
X183022610Y-112956700D02*
X183022610Y-110356700D01*
X181722610Y-114156700D02*
X168322610Y-114156700D01*
X182022610Y-100456700D02*
X182022610Y-100856700D01*
X182822610Y-113156700D02*
X182322610Y-113156700D01*
X181722610Y-100156700D02*
X168322610Y-100156700D01*
X167022610Y-101356700D02*
X167022610Y-103956700D01*
X168022610Y-100856700D02*
X168022610Y-100456700D01*
X167222610Y-101156700D02*
X167722610Y-101156700D01*
X168022610Y-104556700D02*
X168022610Y-109756700D01*
X182322610Y-101156700D02*
X182722610Y-101156700D01*
X167022610Y-110256700D02*
X167022610Y-112856700D01*
X167722610Y-113156700D02*
X167322610Y-113156700D01*
X167222610Y-110056700D02*
X167722610Y-110056700D01*
X183022610Y-104056700D02*
X183022610Y-101456700D01*
X182822610Y-104256700D02*
X182322610Y-104256700D01*
X167722610Y-104256700D02*
X167322610Y-104256700D01*
X168322610Y-100156700D02*
G75*
G03*
X168022610Y-100456700I0J-300000D01*
G01*
X167022610Y-103956700D02*
G75*
G03*
X167322610Y-104256700I300000J0D01*
G01*
X182022610Y-100856700D02*
G75*
G03*
X182322610Y-101156700I300000J0D01*
G01*
X167022610Y-112856700D02*
G75*
G03*
X167322610Y-113156700I300000J0D01*
G01*
X182322610Y-104256700D02*
G75*
G03*
X182022610Y-104556700I0J-300000D01*
G01*
X182822610Y-113156700D02*
G75*
G03*
X183022610Y-112956700I-1J200001D01*
G01*
X168022610Y-104556700D02*
G75*
G03*
X167722610Y-104256700I-300000J0D01*
G01*
X182822610Y-104256700D02*
G75*
G03*
X183022610Y-104056700I-1J200001D01*
G01*
X182022610Y-100456700D02*
G75*
G03*
X181722610Y-100156700I-300000J0D01*
G01*
X181722610Y-114156700D02*
G75*
G03*
X182022610Y-113856700I0J300000D01*
G01*
X167222610Y-101156700D02*
G75*
G03*
X167022610Y-101356700I1J-200001D01*
G01*
X182322610Y-113156700D02*
G75*
G03*
X182022610Y-113456700I0J-300000D01*
G01*
X167222610Y-110056700D02*
G75*
G03*
X167022610Y-110256700I1J-200001D01*
G01*
X167722610Y-110056700D02*
G75*
G03*
X168022610Y-109756700I0J300000D01*
G01*
X183022610Y-110356700D02*
G75*
G03*
X182722610Y-110056700I-300000J0D01*
G01*
X182022610Y-109756700D02*
G75*
G03*
X182322610Y-110056700I300000J0D01*
G01*
X168022610Y-113456700D02*
G75*
G03*
X167722610Y-113156700I-300000J0D01*
G01*
X168022610Y-113856700D02*
G75*
G03*
X168322610Y-114156700I300000J0D01*
G01*
X167722610Y-101156700D02*
G75*
G03*
X168022610Y-100856700I0J300000D01*
G01*
X183022610Y-101456700D02*
G75*
G03*
X182722610Y-101156700I-300000J0D01*
G01*
X202072690Y-112956700D02*
X202072690Y-110356700D01*
X201072690Y-109756700D02*
X201072690Y-104556700D01*
X201372690Y-110056700D02*
X201772690Y-110056700D01*
X201072690Y-100456700D02*
X201072690Y-100856700D01*
X201872690Y-104256700D02*
X201372690Y-104256700D01*
X201372690Y-101156700D02*
X201772690Y-101156700D01*
X186772690Y-104256700D02*
X186372690Y-104256700D01*
X202072690Y-104056700D02*
X202072690Y-101456700D01*
X186272690Y-110056700D02*
X186772690Y-110056700D01*
X186772690Y-113156700D02*
X186372690Y-113156700D01*
X186072690Y-110256700D02*
X186072690Y-112856700D01*
X200772690Y-100156700D02*
X187372690Y-100156700D01*
X201872690Y-113156700D02*
X201372690Y-113156700D01*
X187072690Y-104556700D02*
X187072690Y-109756700D01*
X200772690Y-114156700D02*
X187372690Y-114156700D01*
X187072690Y-113856700D02*
X187072690Y-113456700D01*
X186072690Y-101356700D02*
X186072690Y-103956700D01*
X201072690Y-113456700D02*
X201072690Y-113856700D01*
X186272690Y-101156700D02*
X186772690Y-101156700D01*
X187072690Y-100856700D02*
X187072690Y-100456700D01*
X202072690Y-101456700D02*
G75*
G03*
X201772690Y-101156700I-300000J0D01*
G01*
X186772690Y-110056700D02*
G75*
G03*
X187072690Y-109756700I0J300000D01*
G01*
X186272690Y-110056700D02*
G75*
G03*
X186072690Y-110256700I1J-200001D01*
G01*
X187372690Y-100156700D02*
G75*
G03*
X187072690Y-100456700I0J-300000D01*
G01*
X186272690Y-101156700D02*
G75*
G03*
X186072690Y-101356700I1J-200001D01*
G01*
X187072690Y-113456700D02*
G75*
G03*
X186772690Y-113156700I-300000J0D01*
G01*
X201072690Y-100856700D02*
G75*
G03*
X201372690Y-101156700I300000J0D01*
G01*
X201072690Y-109756700D02*
G75*
G03*
X201372690Y-110056700I300000J0D01*
G01*
X187072690Y-104556700D02*
G75*
G03*
X186772690Y-104256700I-300000J0D01*
G01*
X202072690Y-110356700D02*
G75*
G03*
X201772690Y-110056700I-300000J0D01*
G01*
X201872690Y-113156700D02*
G75*
G03*
X202072690Y-112956700I-1J200001D01*
G01*
X201872690Y-104256700D02*
G75*
G03*
X202072690Y-104056700I-1J200001D01*
G01*
X186772690Y-101156700D02*
G75*
G03*
X187072690Y-100856700I0J300000D01*
G01*
X187072690Y-113856700D02*
G75*
G03*
X187372690Y-114156700I300000J0D01*
G01*
X201372690Y-113156700D02*
G75*
G03*
X201072690Y-113456700I0J-300000D01*
G01*
X186072690Y-103956700D02*
G75*
G03*
X186372690Y-104256700I300000J0D01*
G01*
X186072690Y-112856700D02*
G75*
G03*
X186372690Y-113156700I300000J0D01*
G01*
X200772690Y-114156700D02*
G75*
G03*
X201072690Y-113856700I0J300000D01*
G01*
X201072690Y-100456700D02*
G75*
G03*
X200772690Y-100156700I-300000J0D01*
G01*
X201372690Y-104256700D02*
G75*
G03*
X201072690Y-104556700I0J-300000D01*
G01*
X205122770Y-101356700D02*
X205122770Y-103956700D01*
X220422770Y-101156700D02*
X220822770Y-101156700D01*
X205822770Y-113156700D02*
X205422770Y-113156700D01*
X219822770Y-100156700D02*
X206422770Y-100156700D01*
X220922770Y-113156700D02*
X220422770Y-113156700D01*
X205322770Y-110056700D02*
X205822770Y-110056700D01*
X206122770Y-100856700D02*
X206122770Y-100456700D01*
X221122770Y-112956700D02*
X221122770Y-110356700D01*
X220422770Y-110056700D02*
X220822770Y-110056700D01*
X205122770Y-110256700D02*
X205122770Y-112856700D01*
X205822770Y-104256700D02*
X205422770Y-104256700D01*
X219822770Y-114156700D02*
X206422770Y-114156700D01*
X220122770Y-100456700D02*
X220122770Y-100856700D01*
X220122770Y-109756700D02*
X220122770Y-104556700D01*
X206122770Y-113856700D02*
X206122770Y-113456700D01*
X220122770Y-113456700D02*
X220122770Y-113856700D01*
X220922770Y-104256700D02*
X220422770Y-104256700D01*
X205322770Y-101156700D02*
X205822770Y-101156700D01*
X206122770Y-104556700D02*
X206122770Y-109756700D01*
X221122770Y-104056700D02*
X221122770Y-101456700D01*
X205122770Y-112856700D02*
G75*
G03*
X205422770Y-113156700I300000J0D01*
G01*
X206122770Y-113456700D02*
G75*
G03*
X205822770Y-113156700I-300000J0D01*
G01*
X220122770Y-100856700D02*
G75*
G03*
X220422770Y-101156700I300000J0D01*
G01*
X205122770Y-103956700D02*
G75*
G03*
X205422770Y-104256700I300000J0D01*
G01*
X205322770Y-110056700D02*
G75*
G03*
X205122770Y-110256700I1J-200001D01*
G01*
X206122770Y-113856700D02*
G75*
G03*
X206422770Y-114156700I300000J0D01*
G01*
X220422770Y-113156700D02*
G75*
G03*
X220122770Y-113456700I0J-300000D01*
G01*
X220122770Y-109756700D02*
G75*
G03*
X220422770Y-110056700I300000J0D01*
G01*
X219822770Y-114156700D02*
G75*
G03*
X220122770Y-113856700I0J300000D01*
G01*
X205822770Y-101156700D02*
G75*
G03*
X206122770Y-100856700I0J300000D01*
G01*
X220922770Y-113156700D02*
G75*
G03*
X221122770Y-112956700I-1J200001D01*
G01*
X220422770Y-104256700D02*
G75*
G03*
X220122770Y-104556700I0J-300000D01*
G01*
X220922770Y-104256700D02*
G75*
G03*
X221122770Y-104056700I-1J200001D01*
G01*
X220122770Y-100456700D02*
G75*
G03*
X219822770Y-100156700I-300000J0D01*
G01*
X206122770Y-104556700D02*
G75*
G03*
X205822770Y-104256700I-300000J0D01*
G01*
X205822770Y-110056700D02*
G75*
G03*
X206122770Y-109756700I0J300000D01*
G01*
X221122770Y-110356700D02*
G75*
G03*
X220822770Y-110056700I-300000J0D01*
G01*
X205322770Y-101156700D02*
G75*
G03*
X205122770Y-101356700I1J-200001D01*
G01*
X206422770Y-100156700D02*
G75*
G03*
X206122770Y-100456700I0J-300000D01*
G01*
X221122770Y-101456700D02*
G75*
G03*
X220822770Y-101156700I-300000J0D01*
G01*
X224172850Y-110256700D02*
X224172850Y-112856700D01*
X238872850Y-100156700D02*
X225472850Y-100156700D01*
X240172850Y-104056700D02*
X240172850Y-101456700D01*
X239172850Y-100456700D02*
X239172850Y-100856700D01*
X239472850Y-110056700D02*
X239872850Y-110056700D01*
X224372850Y-101156700D02*
X224872850Y-101156700D01*
X224372850Y-110056700D02*
X224872850Y-110056700D01*
X225172850Y-100856700D02*
X225172850Y-100456700D01*
X224172850Y-101356700D02*
X224172850Y-103956700D01*
X224872850Y-113156700D02*
X224472850Y-113156700D01*
X225172850Y-113856700D02*
X225172850Y-113456700D01*
X239172850Y-113456700D02*
X239172850Y-113856700D01*
X240172850Y-112956700D02*
X240172850Y-110356700D01*
X225172850Y-104556700D02*
X225172850Y-109756700D01*
X239972850Y-113156700D02*
X239472850Y-113156700D01*
X224872850Y-104256700D02*
X224472850Y-104256700D01*
X238872850Y-114156700D02*
X225472850Y-114156700D01*
X239472850Y-101156700D02*
X239872850Y-101156700D01*
X239172850Y-109756700D02*
X239172850Y-104556700D01*
X239972850Y-104256700D02*
X239472850Y-104256700D01*
X224872850Y-110056700D02*
G75*
G03*
X225172850Y-109756700I0J300000D01*
G01*
X238872850Y-114156700D02*
G75*
G03*
X239172850Y-113856700I0J300000D01*
G01*
X224372850Y-110056700D02*
G75*
G03*
X224172850Y-110256700I1J-200001D01*
G01*
X225172850Y-113456700D02*
G75*
G03*
X224872850Y-113156700I-300000J0D01*
G01*
X225172850Y-113856700D02*
G75*
G03*
X225472850Y-114156700I300000J0D01*
G01*
X239472850Y-104256700D02*
G75*
G03*
X239172850Y-104556700I0J-300000D01*
G01*
X239172850Y-109756700D02*
G75*
G03*
X239472850Y-110056700I300000J0D01*
G01*
X240172850Y-110356700D02*
G75*
G03*
X239872850Y-110056700I-300000J0D01*
G01*
X239172850Y-100456700D02*
G75*
G03*
X238872850Y-100156700I-300000J0D01*
G01*
X224172850Y-112856700D02*
G75*
G03*
X224472850Y-113156700I300000J0D01*
G01*
X239972850Y-104256700D02*
G75*
G03*
X240172850Y-104056700I-1J200001D01*
G01*
X239972850Y-113156700D02*
G75*
G03*
X240172850Y-112956700I-1J200001D01*
G01*
X224872850Y-101156700D02*
G75*
G03*
X225172850Y-100856700I0J300000D01*
G01*
X225472850Y-100156700D02*
G75*
G03*
X225172850Y-100456700I0J-300000D01*
G01*
X224172850Y-103956700D02*
G75*
G03*
X224472850Y-104256700I300000J0D01*
G01*
X240172850Y-101456700D02*
G75*
G03*
X239872850Y-101156700I-300000J0D01*
G01*
X225172850Y-104556700D02*
G75*
G03*
X224872850Y-104256700I-300000J0D01*
G01*
X224372850Y-101156700D02*
G75*
G03*
X224172850Y-101356700I1J-200001D01*
G01*
X239172850Y-100856700D02*
G75*
G03*
X239472850Y-101156700I300000J0D01*
G01*
X239472850Y-113156700D02*
G75*
G03*
X239172850Y-113456700I0J-300000D01*
G01*
X243422930Y-101156700D02*
X243922930Y-101156700D01*
X259222930Y-112956700D02*
X259222930Y-110356700D01*
X258222930Y-109756700D02*
X258222930Y-104556700D01*
X243422930Y-110056700D02*
X243922930Y-110056700D01*
X244222930Y-100856700D02*
X244222930Y-100456700D01*
X258222930Y-100456700D02*
X258222930Y-100856700D01*
X243922930Y-113156700D02*
X243522930Y-113156700D01*
X259022930Y-104256700D02*
X258522930Y-104256700D01*
X259222930Y-104056700D02*
X259222930Y-101456700D01*
X258522930Y-101156700D02*
X258922930Y-101156700D01*
X243222930Y-110256700D02*
X243222930Y-112856700D01*
X244222930Y-104556700D02*
X244222930Y-109756700D01*
X259022930Y-113156700D02*
X258522930Y-113156700D01*
X243922930Y-104256700D02*
X243522930Y-104256700D01*
X258522930Y-110056700D02*
X258922930Y-110056700D01*
X257922930Y-114156700D02*
X244522930Y-114156700D01*
X258222930Y-113456700D02*
X258222930Y-113856700D01*
X243222930Y-101356700D02*
X243222930Y-103956700D01*
X257922930Y-100156700D02*
X244522930Y-100156700D01*
X244222930Y-113856700D02*
X244222930Y-113456700D01*
X243422930Y-110056700D02*
G75*
G03*
X243222930Y-110256700I1J-200001D01*
G01*
X243222930Y-112856700D02*
G75*
G03*
X243522930Y-113156700I300000J0D01*
G01*
X243922930Y-101156700D02*
G75*
G03*
X244222930Y-100856700I0J300000D01*
G01*
X259222930Y-101456700D02*
G75*
G03*
X258922930Y-101156700I-300000J0D01*
G01*
X244222930Y-104556700D02*
G75*
G03*
X243922930Y-104256700I-300000J0D01*
G01*
X259022930Y-104256700D02*
G75*
G03*
X259222930Y-104056700I-1J200001D01*
G01*
X259022930Y-113156700D02*
G75*
G03*
X259222930Y-112956700I-1J200001D01*
G01*
X243222930Y-103956700D02*
G75*
G03*
X243522930Y-104256700I300000J0D01*
G01*
X259222930Y-110356700D02*
G75*
G03*
X258922930Y-110056700I-300000J0D01*
G01*
X244522930Y-100156700D02*
G75*
G03*
X244222930Y-100456700I0J-300000D01*
G01*
X258222930Y-109756700D02*
G75*
G03*
X258522930Y-110056700I300000J0D01*
G01*
X258522930Y-104256700D02*
G75*
G03*
X258222930Y-104556700I0J-300000D01*
G01*
X258522930Y-113156700D02*
G75*
G03*
X258222930Y-113456700I0J-300000D01*
G01*
X258222930Y-100856700D02*
G75*
G03*
X258522930Y-101156700I300000J0D01*
G01*
X258222930Y-100456700D02*
G75*
G03*
X257922930Y-100156700I-300000J0D01*
G01*
X243922930Y-110056700D02*
G75*
G03*
X244222930Y-109756700I0J300000D01*
G01*
X244222930Y-113856700D02*
G75*
G03*
X244522930Y-114156700I300000J0D01*
G01*
X244222930Y-113456700D02*
G75*
G03*
X243922930Y-113156700I-300000J0D01*
G01*
X257922930Y-114156700D02*
G75*
G03*
X258222930Y-113856700I0J300000D01*
G01*
X243422930Y-101156700D02*
G75*
G03*
X243222930Y-101356700I1J-200001D01*
G01*
X277273010Y-113456700D02*
X277273010Y-113856700D01*
X262473010Y-110056700D02*
X262973010Y-110056700D01*
X277573010Y-101156700D02*
X277973010Y-101156700D01*
X277573010Y-110056700D02*
X277973010Y-110056700D01*
X277273010Y-109756700D02*
X277273010Y-104556700D01*
X276973010Y-100156700D02*
X263573010Y-100156700D01*
X278273010Y-112956700D02*
X278273010Y-110356700D01*
X262973010Y-104256700D02*
X262573010Y-104256700D01*
X276973010Y-114156700D02*
X263573010Y-114156700D01*
X263273010Y-104556700D02*
X263273010Y-109756700D01*
X278073010Y-113156700D02*
X277573010Y-113156700D01*
X262273010Y-101356700D02*
X262273010Y-103956700D01*
X278273010Y-104056700D02*
X278273010Y-101456700D01*
X278073010Y-104256700D02*
X277573010Y-104256700D01*
X262273010Y-110256700D02*
X262273010Y-112856700D01*
X262473010Y-101156700D02*
X262973010Y-101156700D01*
X263273010Y-113856700D02*
X263273010Y-113456700D01*
X262973010Y-113156700D02*
X262573010Y-113156700D01*
X263273010Y-100856700D02*
X263273010Y-100456700D01*
X277273010Y-100456700D02*
X277273010Y-100856700D01*
X278073010Y-113156700D02*
G75*
G03*
X278273010Y-112956700I-1J200001D01*
G01*
X262273010Y-112856700D02*
G75*
G03*
X262573010Y-113156700I300000J0D01*
G01*
X277273010Y-100856700D02*
G75*
G03*
X277573010Y-101156700I300000J0D01*
G01*
X278073010Y-104256700D02*
G75*
G03*
X278273010Y-104056700I-1J200001D01*
G01*
X278273010Y-110356700D02*
G75*
G03*
X277973010Y-110056700I-300000J0D01*
G01*
X277573010Y-104256700D02*
G75*
G03*
X277273010Y-104556700I0J-300000D01*
G01*
X262273010Y-103956700D02*
G75*
G03*
X262573010Y-104256700I300000J0D01*
G01*
X262973010Y-110056700D02*
G75*
G03*
X263273010Y-109756700I0J300000D01*
G01*
X278273010Y-101456700D02*
G75*
G03*
X277973010Y-101156700I-300000J0D01*
G01*
X277273010Y-109756700D02*
G75*
G03*
X277573010Y-110056700I300000J0D01*
G01*
X262473010Y-101156700D02*
G75*
G03*
X262273010Y-101356700I1J-200001D01*
G01*
X263573010Y-100156700D02*
G75*
G03*
X263273010Y-100456700I0J-300000D01*
G01*
X263273010Y-104556700D02*
G75*
G03*
X262973010Y-104256700I-300000J0D01*
G01*
X277273010Y-100456700D02*
G75*
G03*
X276973010Y-100156700I-300000J0D01*
G01*
X263273010Y-113456700D02*
G75*
G03*
X262973010Y-113156700I-300000J0D01*
G01*
X276973010Y-114156700D02*
G75*
G03*
X277273010Y-113856700I0J300000D01*
G01*
X262973010Y-101156700D02*
G75*
G03*
X263273010Y-100856700I0J300000D01*
G01*
X263273010Y-113856700D02*
G75*
G03*
X263573010Y-114156700I300000J0D01*
G01*
X277573010Y-113156700D02*
G75*
G03*
X277273010Y-113456700I0J-300000D01*
G01*
X262473010Y-110056700D02*
G75*
G03*
X262273010Y-110256700I1J-200001D01*
G01*
X281523090Y-101156700D02*
X282023090Y-101156700D01*
X282023090Y-113156700D02*
X281623090Y-113156700D01*
X282323090Y-100856700D02*
X282323090Y-100456700D01*
X296623090Y-101156700D02*
X297023090Y-101156700D01*
X296323090Y-109756700D02*
X296323090Y-104556700D01*
X296323090Y-100456700D02*
X296323090Y-100856700D01*
X281323090Y-101356700D02*
X281323090Y-103956700D01*
X297123090Y-104256700D02*
X296623090Y-104256700D01*
X282023090Y-104256700D02*
X281623090Y-104256700D01*
X296323090Y-113456700D02*
X296323090Y-113856700D01*
X297323090Y-104056700D02*
X297323090Y-101456700D01*
X282323090Y-104556700D02*
X282323090Y-109756700D01*
X281523090Y-110056700D02*
X282023090Y-110056700D01*
X297323090Y-112956700D02*
X297323090Y-110356700D01*
X282323090Y-113856700D02*
X282323090Y-113456700D01*
X281323090Y-110256700D02*
X281323090Y-112856700D01*
X296023090Y-100156700D02*
X282623090Y-100156700D01*
X297123090Y-113156700D02*
X296623090Y-113156700D01*
X296023090Y-114156700D02*
X282623090Y-114156700D01*
X296623090Y-110056700D02*
X297023090Y-110056700D01*
X296023090Y-114156700D02*
G75*
G03*
X296323090Y-113856700I0J300000D01*
G01*
X282323090Y-113856700D02*
G75*
G03*
X282623090Y-114156700I300000J0D01*
G01*
X296323090Y-109756700D02*
G75*
G03*
X296623090Y-110056700I300000J0D01*
G01*
X282623090Y-100156700D02*
G75*
G03*
X282323090Y-100456700I0J-300000D01*
G01*
X296323090Y-100856700D02*
G75*
G03*
X296623090Y-101156700I300000J0D01*
G01*
X297123090Y-104256700D02*
G75*
G03*
X297323090Y-104056700I-1J200001D01*
G01*
X297323090Y-110356700D02*
G75*
G03*
X297023090Y-110056700I-300000J0D01*
G01*
X281523090Y-110056700D02*
G75*
G03*
X281323090Y-110256700I1J-200001D01*
G01*
X281523090Y-101156700D02*
G75*
G03*
X281323090Y-101356700I1J-200001D01*
G01*
X282023090Y-110056700D02*
G75*
G03*
X282323090Y-109756700I0J300000D01*
G01*
X296623090Y-104256700D02*
G75*
G03*
X296323090Y-104556700I0J-300000D01*
G01*
X281323090Y-112856700D02*
G75*
G03*
X281623090Y-113156700I300000J0D01*
G01*
X282323090Y-113456700D02*
G75*
G03*
X282023090Y-113156700I-300000J0D01*
G01*
X297323090Y-101456700D02*
G75*
G03*
X297023090Y-101156700I-300000J0D01*
G01*
X281323090Y-103956700D02*
G75*
G03*
X281623090Y-104256700I300000J0D01*
G01*
X282023090Y-101156700D02*
G75*
G03*
X282323090Y-100856700I0J300000D01*
G01*
X296623090Y-113156700D02*
G75*
G03*
X296323090Y-113456700I0J-300000D01*
G01*
X296323090Y-100456700D02*
G75*
G03*
X296023090Y-100156700I-300000J0D01*
G01*
X282323090Y-104556700D02*
G75*
G03*
X282023090Y-104256700I-300000J0D01*
G01*
X297123090Y-113156700D02*
G75*
G03*
X297323090Y-112956700I-1J200001D01*
G01*
X301373170Y-113856700D02*
X301373170Y-113456700D01*
X301373170Y-104556700D02*
X301373170Y-109756700D01*
X316373170Y-112956700D02*
X316373170Y-110356700D01*
X315373170Y-113456700D02*
X315373170Y-113856700D01*
X300373170Y-110256700D02*
X300373170Y-112856700D01*
X301373170Y-100856700D02*
X301373170Y-100456700D01*
X300573170Y-101156700D02*
X301073170Y-101156700D01*
X315073170Y-100156700D02*
X301673170Y-100156700D01*
X300373170Y-101356700D02*
X300373170Y-103956700D01*
X315673170Y-110056700D02*
X316073170Y-110056700D01*
X316173170Y-113156700D02*
X315673170Y-113156700D01*
X315073170Y-114156700D02*
X301673170Y-114156700D01*
X301073170Y-104256700D02*
X300673170Y-104256700D01*
X316373170Y-104056700D02*
X316373170Y-101456700D01*
X315373170Y-109756700D02*
X315373170Y-104556700D01*
X300573170Y-110056700D02*
X301073170Y-110056700D01*
X301073170Y-113156700D02*
X300673170Y-113156700D01*
X316173170Y-104256700D02*
X315673170Y-104256700D01*
X315373170Y-100456700D02*
X315373170Y-100856700D01*
X315673170Y-101156700D02*
X316073170Y-101156700D01*
X300573170Y-101156700D02*
G75*
G03*
X300373170Y-101356700I1J-200001D01*
G01*
X301673170Y-100156700D02*
G75*
G03*
X301373170Y-100456700I0J-300000D01*
G01*
X315673170Y-104256700D02*
G75*
G03*
X315373170Y-104556700I0J-300000D01*
G01*
X316373170Y-110356700D02*
G75*
G03*
X316073170Y-110056700I-300000J0D01*
G01*
X315673170Y-113156700D02*
G75*
G03*
X315373170Y-113456700I0J-300000D01*
G01*
X315373170Y-100856700D02*
G75*
G03*
X315673170Y-101156700I300000J0D01*
G01*
X300373170Y-103956700D02*
G75*
G03*
X300673170Y-104256700I300000J0D01*
G01*
X316173170Y-104256700D02*
G75*
G03*
X316373170Y-104056700I-1J200001D01*
G01*
X301373170Y-113856700D02*
G75*
G03*
X301673170Y-114156700I300000J0D01*
G01*
X300373170Y-112856700D02*
G75*
G03*
X300673170Y-113156700I300000J0D01*
G01*
X315073170Y-114156700D02*
G75*
G03*
X315373170Y-113856700I0J300000D01*
G01*
X301373170Y-104556700D02*
G75*
G03*
X301073170Y-104256700I-300000J0D01*
G01*
X316373170Y-101456700D02*
G75*
G03*
X316073170Y-101156700I-300000J0D01*
G01*
X315373170Y-100456700D02*
G75*
G03*
X315073170Y-100156700I-300000J0D01*
G01*
X301373170Y-113456700D02*
G75*
G03*
X301073170Y-113156700I-300000J0D01*
G01*
X316173170Y-113156700D02*
G75*
G03*
X316373170Y-112956700I-1J200001D01*
G01*
X301073170Y-101156700D02*
G75*
G03*
X301373170Y-100856700I0J300000D01*
G01*
X301073170Y-110056700D02*
G75*
G03*
X301373170Y-109756700I0J300000D01*
G01*
X300573170Y-110056700D02*
G75*
G03*
X300373170Y-110256700I1J-200001D01*
G01*
X315373170Y-109756700D02*
G75*
G03*
X315673170Y-110056700I300000J0D01*
G01*
X335423250Y-112956700D02*
X335423250Y-110356700D01*
X319423250Y-110256700D02*
X319423250Y-112856700D01*
X319423250Y-101356700D02*
X319423250Y-103956700D01*
X334723250Y-110056700D02*
X335123250Y-110056700D01*
X334123250Y-114156700D02*
X320723250Y-114156700D01*
X335223250Y-113156700D02*
X334723250Y-113156700D01*
X335223250Y-104256700D02*
X334723250Y-104256700D01*
X334423250Y-100456700D02*
X334423250Y-100856700D01*
X334123250Y-100156700D02*
X320723250Y-100156700D01*
X320423250Y-104556700D02*
X320423250Y-109756700D01*
X334723250Y-101156700D02*
X335123250Y-101156700D01*
X319623250Y-101156700D02*
X320123250Y-101156700D01*
X320123250Y-104256700D02*
X319723250Y-104256700D01*
X335423250Y-104056700D02*
X335423250Y-101456700D01*
X320123250Y-113156700D02*
X319723250Y-113156700D01*
X334423250Y-109756700D02*
X334423250Y-104556700D01*
X334423250Y-113456700D02*
X334423250Y-113856700D01*
X320423250Y-113856700D02*
X320423250Y-113456700D01*
X319623250Y-110056700D02*
X320123250Y-110056700D01*
X320423250Y-100856700D02*
X320423250Y-100456700D01*
X320123250Y-110056700D02*
G75*
G03*
X320423250Y-109756700I0J300000D01*
G01*
X320723250Y-100156700D02*
G75*
G03*
X320423250Y-100456700I0J-300000D01*
G01*
X320423250Y-104556700D02*
G75*
G03*
X320123250Y-104256700I-300000J0D01*
G01*
X319623250Y-110056700D02*
G75*
G03*
X319423250Y-110256700I1J-200001D01*
G01*
X334423250Y-100456700D02*
G75*
G03*
X334123250Y-100156700I-300000J0D01*
G01*
X334123250Y-114156700D02*
G75*
G03*
X334423250Y-113856700I0J300000D01*
G01*
X335423250Y-110356700D02*
G75*
G03*
X335123250Y-110056700I-300000J0D01*
G01*
X319423250Y-112856700D02*
G75*
G03*
X319723250Y-113156700I300000J0D01*
G01*
X334723250Y-113156700D02*
G75*
G03*
X334423250Y-113456700I0J-300000D01*
G01*
X335423250Y-101456700D02*
G75*
G03*
X335123250Y-101156700I-300000J0D01*
G01*
X320423250Y-113856700D02*
G75*
G03*
X320723250Y-114156700I300000J0D01*
G01*
X319623250Y-101156700D02*
G75*
G03*
X319423250Y-101356700I1J-200001D01*
G01*
X334723250Y-104256700D02*
G75*
G03*
X334423250Y-104556700I0J-300000D01*
G01*
X320123250Y-101156700D02*
G75*
G03*
X320423250Y-100856700I0J300000D01*
G01*
X320423250Y-113456700D02*
G75*
G03*
X320123250Y-113156700I-300000J0D01*
G01*
X319423250Y-103956700D02*
G75*
G03*
X319723250Y-104256700I300000J0D01*
G01*
X335223250Y-104256700D02*
G75*
G03*
X335423250Y-104056700I-1J200001D01*
G01*
X334423250Y-109756700D02*
G75*
G03*
X334723250Y-110056700I300000J0D01*
G01*
X335223250Y-113156700D02*
G75*
G03*
X335423250Y-112956700I-1J200001D01*
G01*
X334423250Y-100856700D02*
G75*
G03*
X334723250Y-101156700I300000J0D01*
G01*
X338673330Y-101160000D02*
X339173330Y-101160000D01*
X339173330Y-104260000D02*
X338773330Y-104260000D01*
X338673330Y-110060000D02*
X339173330Y-110060000D01*
X353173330Y-100160000D02*
X339773330Y-100160000D01*
X339473330Y-100860000D02*
X339473330Y-100460000D01*
X338473330Y-101360000D02*
X338473330Y-103960000D01*
X354473330Y-112960000D02*
X354473330Y-110360000D01*
X353773330Y-101160000D02*
X354173330Y-101160000D01*
X353473330Y-100460000D02*
X353473330Y-100860000D01*
X353473330Y-113460000D02*
X353473330Y-113860000D01*
X354273330Y-104260000D02*
X353773330Y-104260000D01*
X339173330Y-113160000D02*
X338773330Y-113160000D01*
X338473330Y-110260000D02*
X338473330Y-112860000D01*
X353473330Y-109760000D02*
X353473330Y-104560000D01*
X339473330Y-104560000D02*
X339473330Y-109760000D01*
X353173330Y-114160000D02*
X339773330Y-114160000D01*
X354473330Y-104060000D02*
X354473330Y-101460000D01*
X353773330Y-110060000D02*
X354173330Y-110060000D01*
X339473330Y-113860000D02*
X339473330Y-113460000D01*
X354273330Y-113160000D02*
X353773330Y-113160000D01*
X353473330Y-109760000D02*
G75*
G03*
X353773330Y-110060000I300000J0D01*
G01*
X353773330Y-104260000D02*
G75*
G03*
X353473330Y-104560000I0J-300000D01*
G01*
X354473330Y-101460000D02*
G75*
G03*
X354173330Y-101160000I-300000J0D01*
G01*
X338473330Y-112860000D02*
G75*
G03*
X338773330Y-113160000I300000J0D01*
G01*
X339173330Y-101160000D02*
G75*
G03*
X339473330Y-100860000I0J300000D01*
G01*
X353773330Y-113160000D02*
G75*
G03*
X353473330Y-113460000I0J-300000D01*
G01*
X339473330Y-113860000D02*
G75*
G03*
X339773330Y-114160000I300000J0D01*
G01*
X353473330Y-100860000D02*
G75*
G03*
X353773330Y-101160000I300000J0D01*
G01*
X338473330Y-103960000D02*
G75*
G03*
X338773330Y-104260000I300000J0D01*
G01*
X339473330Y-104560000D02*
G75*
G03*
X339173330Y-104260000I-300000J0D01*
G01*
X353173330Y-114160000D02*
G75*
G03*
X353473330Y-113860000I0J300000D01*
G01*
X338673330Y-101160000D02*
G75*
G03*
X338473330Y-101360000I1J-200001D01*
G01*
X339473330Y-113460000D02*
G75*
G03*
X339173330Y-113160000I-300000J0D01*
G01*
X339173330Y-110060000D02*
G75*
G03*
X339473330Y-109760000I0J300000D01*
G01*
X354273330Y-113160000D02*
G75*
G03*
X354473330Y-112960000I-1J200001D01*
G01*
X354473330Y-110360000D02*
G75*
G03*
X354173330Y-110060000I-300000J0D01*
G01*
X353473330Y-100460000D02*
G75*
G03*
X353173330Y-100160000I-300000J0D01*
G01*
X339773330Y-100160000D02*
G75*
G03*
X339473330Y-100460000I0J-300000D01*
G01*
X338673330Y-110060000D02*
G75*
G03*
X338473330Y-110260000I1J-200001D01*
G01*
X354273330Y-104260000D02*
G75*
G03*
X354473330Y-104060000I-1J200001D01*
G01*
X372523410Y-113456700D02*
X372523410Y-113856700D01*
X358523410Y-113856700D02*
X358523410Y-113456700D01*
X373323410Y-104256700D02*
X372823410Y-104256700D01*
X372223410Y-100156700D02*
X358823410Y-100156700D01*
X358223410Y-104256700D02*
X357823410Y-104256700D01*
X358523410Y-100856700D02*
X358523410Y-100456700D01*
X372223410Y-114156700D02*
X358823410Y-114156700D01*
X372823410Y-110056700D02*
X373223410Y-110056700D01*
X358223410Y-113156700D02*
X357823410Y-113156700D01*
X373523410Y-112956700D02*
X373523410Y-110356700D01*
X373523410Y-104056700D02*
X373523410Y-101456700D01*
X357523410Y-110256700D02*
X357523410Y-112856700D01*
X357523410Y-101356700D02*
X357523410Y-103956700D01*
X357723410Y-101156700D02*
X358223410Y-101156700D01*
X372523410Y-109756700D02*
X372523410Y-104556700D01*
X358523410Y-104556700D02*
X358523410Y-109756700D01*
X372523410Y-100456700D02*
X372523410Y-100856700D01*
X372823410Y-101156700D02*
X373223410Y-101156700D01*
X357723410Y-110056700D02*
X358223410Y-110056700D01*
X373323410Y-113156700D02*
X372823410Y-113156700D01*
X358523410Y-104556700D02*
G75*
G03*
X358223410Y-104256700I-300000J0D01*
G01*
X372523410Y-109756700D02*
G75*
G03*
X372823410Y-110056700I300000J0D01*
G01*
X358523410Y-113856700D02*
G75*
G03*
X358823410Y-114156700I300000J0D01*
G01*
X357723410Y-110056700D02*
G75*
G03*
X357523410Y-110256700I1J-200001D01*
G01*
X373523410Y-101456700D02*
G75*
G03*
X373223410Y-101156700I-300000J0D01*
G01*
X373323410Y-113156700D02*
G75*
G03*
X373523410Y-112956700I-1J200001D01*
G01*
X372823410Y-104256700D02*
G75*
G03*
X372523410Y-104556700I0J-300000D01*
G01*
X358523410Y-113456700D02*
G75*
G03*
X358223410Y-113156700I-300000J0D01*
G01*
X372523410Y-100856700D02*
G75*
G03*
X372823410Y-101156700I300000J0D01*
G01*
X372823410Y-113156700D02*
G75*
G03*
X372523410Y-113456700I0J-300000D01*
G01*
X373323410Y-104256700D02*
G75*
G03*
X373523410Y-104056700I-1J200001D01*
G01*
X358823410Y-100156700D02*
G75*
G03*
X358523410Y-100456700I0J-300000D01*
G01*
X372223410Y-114156700D02*
G75*
G03*
X372523410Y-113856700I0J300000D01*
G01*
X357523410Y-112856700D02*
G75*
G03*
X357823410Y-113156700I300000J0D01*
G01*
X372523410Y-100456700D02*
G75*
G03*
X372223410Y-100156700I-300000J0D01*
G01*
X373523410Y-110356700D02*
G75*
G03*
X373223410Y-110056700I-300000J0D01*
G01*
X358223410Y-101156700D02*
G75*
G03*
X358523410Y-100856700I0J300000D01*
G01*
X358223410Y-110056700D02*
G75*
G03*
X358523410Y-109756700I0J300000D01*
G01*
X357723410Y-101156700D02*
G75*
G03*
X357523410Y-101356700I1J-200001D01*
G01*
X357523410Y-103956700D02*
G75*
G03*
X357823410Y-104256700I300000J0D01*
G01*
X148172530Y-101156700D02*
X148672530Y-101156700D01*
X162672530Y-114156700D02*
X149272530Y-114156700D01*
X148172530Y-110056700D02*
X148672530Y-110056700D01*
X147972530Y-110256700D02*
X147972530Y-112856700D01*
X162672530Y-100156700D02*
X149272530Y-100156700D01*
X148972530Y-100856700D02*
X148972530Y-100456700D01*
X148972530Y-113856700D02*
X148972530Y-113456700D01*
X162972530Y-113456700D02*
X162972530Y-113856700D01*
X147972530Y-101356700D02*
X147972530Y-103956700D01*
X148672530Y-113156700D02*
X148272530Y-113156700D01*
X148672530Y-104256700D02*
X148272530Y-104256700D01*
X163972530Y-112956700D02*
X163972530Y-110356700D01*
X163772530Y-104256700D02*
X163272530Y-104256700D01*
X148972530Y-104556700D02*
X148972530Y-109756700D01*
X163772530Y-113156700D02*
X163272530Y-113156700D01*
X162972530Y-109756700D02*
X162972530Y-104556700D01*
X162972530Y-100456700D02*
X162972530Y-100856700D01*
X163972530Y-104056700D02*
X163972530Y-101456700D01*
X163272530Y-101156700D02*
X163672530Y-101156700D01*
X163272530Y-110056700D02*
X163672530Y-110056700D01*
X162972530Y-100856700D02*
G75*
G03*
X163272530Y-101156700I300000J0D01*
G01*
X148972530Y-104556700D02*
G75*
G03*
X148672530Y-104256700I-300000J0D01*
G01*
X163772530Y-113156700D02*
G75*
G03*
X163972530Y-112956700I-1J200001D01*
G01*
X148172530Y-101156700D02*
G75*
G03*
X147972530Y-101356700I1J-200001D01*
G01*
X148672530Y-101156700D02*
G75*
G03*
X148972530Y-100856700I0J300000D01*
G01*
X149272530Y-100156700D02*
G75*
G03*
X148972530Y-100456700I0J-300000D01*
G01*
X163272530Y-104256700D02*
G75*
G03*
X162972530Y-104556700I0J-300000D01*
G01*
X147972530Y-112856700D02*
G75*
G03*
X148272530Y-113156700I300000J0D01*
G01*
X162972530Y-109756700D02*
G75*
G03*
X163272530Y-110056700I300000J0D01*
G01*
X163972530Y-110356700D02*
G75*
G03*
X163672530Y-110056700I-300000J0D01*
G01*
X163772530Y-104256700D02*
G75*
G03*
X163972530Y-104056700I-1J200001D01*
G01*
X162972530Y-100456700D02*
G75*
G03*
X162672530Y-100156700I-300000J0D01*
G01*
X148672530Y-110056700D02*
G75*
G03*
X148972530Y-109756700I0J300000D01*
G01*
X163272530Y-113156700D02*
G75*
G03*
X162972530Y-113456700I0J-300000D01*
G01*
X148972530Y-113856700D02*
G75*
G03*
X149272530Y-114156700I300000J0D01*
G01*
X162672530Y-114156700D02*
G75*
G03*
X162972530Y-113856700I0J300000D01*
G01*
X148172530Y-110056700D02*
G75*
G03*
X147972530Y-110256700I1J-200001D01*
G01*
X147972530Y-103956700D02*
G75*
G03*
X148272530Y-104256700I300000J0D01*
G01*
X148972530Y-113456700D02*
G75*
G03*
X148672530Y-113156700I-300000J0D01*
G01*
X163972530Y-101456700D02*
G75*
G03*
X163672530Y-101156700I-300000J0D01*
G01*
X182022610Y-71656540D02*
X182022610Y-66456540D01*
X167222610Y-71956540D02*
X167722610Y-71956540D01*
X167222610Y-63056540D02*
X167722610Y-63056540D01*
X182022610Y-62356540D02*
X182022610Y-62756540D01*
X168022610Y-66456540D02*
X168022610Y-71656540D01*
X182822610Y-66156540D02*
X182322610Y-66156540D01*
X182322610Y-63056540D02*
X182722610Y-63056540D01*
X181722610Y-62056540D02*
X168322610Y-62056540D01*
X183022610Y-74856540D02*
X183022610Y-72256540D01*
X167722610Y-66156540D02*
X167322610Y-66156540D01*
X182322610Y-71956540D02*
X182722610Y-71956540D01*
X167022610Y-63256540D02*
X167022610Y-65856540D01*
X183022610Y-65956540D02*
X183022610Y-63356540D01*
X182022610Y-75356540D02*
X182022610Y-75756540D01*
X167722610Y-75056540D02*
X167322610Y-75056540D01*
X168022610Y-62756540D02*
X168022610Y-62356540D01*
X181722610Y-76056540D02*
X168322610Y-76056540D01*
X167022610Y-72156540D02*
X167022610Y-74756540D01*
X168022610Y-75756540D02*
X168022610Y-75356540D01*
X182822610Y-75056540D02*
X182322610Y-75056540D01*
X183022610Y-63356540D02*
G75*
G03*
X182722610Y-63056540I-300000J0D01*
G01*
X182022610Y-71656540D02*
G75*
G03*
X182322610Y-71956540I300000J0D01*
G01*
X182322610Y-66156540D02*
G75*
G03*
X182022610Y-66456540I0J-300000D01*
G01*
X167022610Y-74756540D02*
G75*
G03*
X167322610Y-75056540I300000J0D01*
G01*
X182822610Y-75056540D02*
G75*
G03*
X183022610Y-74856540I-1J200001D01*
G01*
X181722610Y-76056540D02*
G75*
G03*
X182022610Y-75756540I0J300000D01*
G01*
X167722610Y-63056540D02*
G75*
G03*
X168022610Y-62756540I0J300000D01*
G01*
X183022610Y-72256540D02*
G75*
G03*
X182722610Y-71956540I-300000J0D01*
G01*
X168322610Y-62056540D02*
G75*
G03*
X168022610Y-62356540I0J-300000D01*
G01*
X167722610Y-71956540D02*
G75*
G03*
X168022610Y-71656540I0J300000D01*
G01*
X182022610Y-62356540D02*
G75*
G03*
X181722610Y-62056540I-300000J0D01*
G01*
X182022610Y-62756540D02*
G75*
G03*
X182322610Y-63056540I300000J0D01*
G01*
X168022610Y-66456540D02*
G75*
G03*
X167722610Y-66156540I-300000J0D01*
G01*
X182322610Y-75056540D02*
G75*
G03*
X182022610Y-75356540I0J-300000D01*
G01*
X182822610Y-66156540D02*
G75*
G03*
X183022610Y-65956540I-1J200001D01*
G01*
X168022610Y-75356540D02*
G75*
G03*
X167722610Y-75056540I-300000J0D01*
G01*
X168022610Y-75756540D02*
G75*
G03*
X168322610Y-76056540I300000J0D01*
G01*
X167222610Y-63056540D02*
G75*
G03*
X167022610Y-63256540I1J-200001D01*
G01*
X167022610Y-65856540D02*
G75*
G03*
X167322610Y-66156540I300000J0D01*
G01*
X167222610Y-71956540D02*
G75*
G03*
X167022610Y-72156540I1J-200001D01*
G01*
X396035890Y-95106428D02*
X382635890Y-95106428D01*
X397335890Y-93906428D02*
X397335890Y-91306428D01*
X396635890Y-82106428D02*
X397035890Y-82106428D01*
X396335890Y-94406428D02*
X396335890Y-94806428D01*
X382035890Y-85206428D02*
X381635890Y-85206428D01*
X381535890Y-82106428D02*
X382035890Y-82106428D01*
X396335890Y-90706428D02*
X396335890Y-85506428D01*
X381335890Y-82306428D02*
X381335890Y-84906428D01*
X381335890Y-91206428D02*
X381335890Y-93806428D01*
X396635890Y-91006428D02*
X397035890Y-91006428D01*
X382035890Y-94106428D02*
X381635890Y-94106428D01*
X381535890Y-91006428D02*
X382035890Y-91006428D01*
X397135890Y-85206428D02*
X396635890Y-85206428D01*
X397135890Y-94106428D02*
X396635890Y-94106428D01*
X397335890Y-85006428D02*
X397335890Y-82406428D01*
X396035890Y-81106428D02*
X382635890Y-81106428D01*
X382335890Y-94806428D02*
X382335890Y-94406428D01*
X382335890Y-81806428D02*
X382335890Y-81406428D01*
X396335890Y-81406428D02*
X396335890Y-81806428D01*
X382335890Y-85506428D02*
X382335890Y-90706428D01*
X382335890Y-94406428D02*
G75*
G03*
X382035890Y-94106428I-300000J0D01*
G01*
X381535890Y-91006428D02*
G75*
G03*
X381335890Y-91206428I1J-200001D01*
G01*
X396335890Y-81406428D02*
G75*
G03*
X396035890Y-81106428I-300000J0D01*
G01*
X396335890Y-90706428D02*
G75*
G03*
X396635890Y-91006428I300000J0D01*
G01*
X381335890Y-93806428D02*
G75*
G03*
X381635890Y-94106428I300000J0D01*
G01*
X382335890Y-85506428D02*
G75*
G03*
X382035890Y-85206428I-300000J0D01*
G01*
X396335890Y-81806428D02*
G75*
G03*
X396635890Y-82106428I300000J0D01*
G01*
X396635890Y-85206428D02*
G75*
G03*
X396335890Y-85506428I0J-300000D01*
G01*
X381335890Y-84906428D02*
G75*
G03*
X381635890Y-85206428I300000J0D01*
G01*
X382635890Y-81106428D02*
G75*
G03*
X382335890Y-81406428I0J-300000D01*
G01*
X397135890Y-85206428D02*
G75*
G03*
X397335890Y-85006428I-1J200001D01*
G01*
X382335890Y-94806428D02*
G75*
G03*
X382635890Y-95106428I300000J0D01*
G01*
X382035890Y-82106428D02*
G75*
G03*
X382335890Y-81806428I0J300000D01*
G01*
X397335890Y-91306428D02*
G75*
G03*
X397035890Y-91006428I-300000J0D01*
G01*
X381535890Y-82106428D02*
G75*
G03*
X381335890Y-82306428I1J-200001D01*
G01*
X396035890Y-95106428D02*
G75*
G03*
X396335890Y-94806428I0J300000D01*
G01*
X397135890Y-94106428D02*
G75*
G03*
X397335890Y-93906428I-1J200001D01*
G01*
X382035890Y-91006428D02*
G75*
G03*
X382335890Y-90706428I0J300000D01*
G01*
X397335890Y-82406428D02*
G75*
G03*
X397035890Y-82106428I-300000J0D01*
G01*
X396635890Y-94106428D02*
G75*
G03*
X396335890Y-94406428I0J-300000D01*
G01*
X381535890Y-63056444D02*
X382035890Y-63056444D01*
X396635890Y-71956444D02*
X397035890Y-71956444D01*
X396335890Y-75356444D02*
X396335890Y-75756444D01*
X382335890Y-66456444D02*
X382335890Y-71656444D01*
X397135890Y-75056444D02*
X396635890Y-75056444D01*
X381335890Y-72156444D02*
X381335890Y-74756444D01*
X396035890Y-76056444D02*
X382635890Y-76056444D01*
X382035890Y-66156444D02*
X381635890Y-66156444D01*
X396335890Y-71656444D02*
X396335890Y-66456444D01*
X382335890Y-62756444D02*
X382335890Y-62356444D01*
X382035890Y-75056444D02*
X381635890Y-75056444D01*
X396035890Y-62056444D02*
X382635890Y-62056444D01*
X381535890Y-71956444D02*
X382035890Y-71956444D01*
X397135890Y-66156444D02*
X396635890Y-66156444D01*
X397335890Y-65956444D02*
X397335890Y-63356444D01*
X382335890Y-75756444D02*
X382335890Y-75356444D01*
X397335890Y-74856444D02*
X397335890Y-72256444D01*
X396335890Y-62356444D02*
X396335890Y-62756444D01*
X381335890Y-63256444D02*
X381335890Y-65856444D01*
X396635890Y-63056444D02*
X397035890Y-63056444D01*
X382335890Y-66456444D02*
G75*
G03*
X382035890Y-66156444I-300000J0D01*
G01*
X382035890Y-71956444D02*
G75*
G03*
X382335890Y-71656444I0J300000D01*
G01*
X382335890Y-75756444D02*
G75*
G03*
X382635890Y-76056444I300000J0D01*
G01*
X381335890Y-65856444D02*
G75*
G03*
X381635890Y-66156444I300000J0D01*
G01*
X396335890Y-71656444D02*
G75*
G03*
X396635890Y-71956444I300000J0D01*
G01*
X396335890Y-62756444D02*
G75*
G03*
X396635890Y-63056444I300000J0D01*
G01*
X396635890Y-66156444D02*
G75*
G03*
X396335890Y-66456444I0J-300000D01*
G01*
X381535890Y-63056444D02*
G75*
G03*
X381335890Y-63256444I1J-200001D01*
G01*
X382635890Y-62056444D02*
G75*
G03*
X382335890Y-62356444I0J-300000D01*
G01*
X382335890Y-75356444D02*
G75*
G03*
X382035890Y-75056444I-300000J0D01*
G01*
X396035890Y-76056444D02*
G75*
G03*
X396335890Y-75756444I0J300000D01*
G01*
X381335890Y-74756444D02*
G75*
G03*
X381635890Y-75056444I300000J0D01*
G01*
X397335890Y-63356444D02*
G75*
G03*
X397035890Y-63056444I-300000J0D01*
G01*
X397335890Y-72256444D02*
G75*
G03*
X397035890Y-71956444I-300000J0D01*
G01*
X397135890Y-66156444D02*
G75*
G03*
X397335890Y-65956444I-1J200001D01*
G01*
X396335890Y-62356444D02*
G75*
G03*
X396035890Y-62056444I-300000J0D01*
G01*
X381535890Y-71956444D02*
G75*
G03*
X381335890Y-72156444I1J-200001D01*
G01*
X382035890Y-63056444D02*
G75*
G03*
X382335890Y-62756444I0J300000D01*
G01*
X397135890Y-75056444D02*
G75*
G03*
X397335890Y-74856444I-1J200001D01*
G01*
X396635890Y-75056444D02*
G75*
G03*
X396335890Y-75356444I0J-300000D01*
G01*
X396336008Y-52706460D02*
X396336010Y-47306459D01*
X381336009Y-53206460D02*
X381336008Y-55706460D01*
X382136009Y-56006460D02*
X381636008Y-56006460D01*
X397336009Y-46806460D02*
X397336010Y-44306460D01*
X396336009Y-42306460D02*
X396336009Y-43806460D01*
X382136009Y-44006460D02*
X381636010Y-44006460D01*
X382336009Y-42306460D02*
X382336009Y-43806460D01*
X382136008Y-52906460D02*
X381636009Y-52906460D01*
X396336009Y-57706460D02*
X396336009Y-56206459D01*
X381636009Y-47106460D02*
X382136010Y-47106460D01*
X396536009Y-44006460D02*
X397036010Y-44006460D01*
X381336010Y-44306460D02*
X381336009Y-46806460D01*
X396036009Y-58006460D02*
X382636009Y-58006460D01*
X396536009Y-56006460D02*
X397036008Y-56006460D01*
X382336009Y-57706460D02*
X382336009Y-56206460D01*
X382336010Y-47306459D02*
X382336008Y-52706461D01*
X397036009Y-52906460D02*
X396536008Y-52906460D01*
X396336009Y-56531460D02*
X396336009Y-56531460D01*
X396536010Y-47106459D02*
X397036009Y-47106460D01*
X397336008Y-55706460D02*
X397336009Y-53206460D01*
X382636009Y-42006460D02*
X396036009Y-42006460D01*
X397336010Y-44306460D02*
G75*
G03*
X397036010Y-44006460I-300000J0D01*
G01*
X396336008Y-52706460D02*
G75*
G03*
X396536008Y-52906460I200001J1D01*
G01*
X396536009Y-56006459D02*
G75*
G03*
X396336009Y-56206459I1J-200001D01*
G01*
X396336009Y-42306460D02*
G75*
G03*
X396036009Y-42006460I-300000J0D01*
G01*
X396336009Y-43806460D02*
G75*
G03*
X396536009Y-44006460I200001J1D01*
G01*
X381336009Y-46806460D02*
G75*
G03*
X381636009Y-47106460I300000J0D01*
G01*
X382336009Y-56206460D02*
G75*
G03*
X382136009Y-56006460I-200001J-1D01*
G01*
X397036008Y-56006460D02*
G75*
G03*
X397336008Y-55706460I0J300000D01*
G01*
X381636009Y-52906460D02*
G75*
G03*
X381336009Y-53206460I0J-300000D01*
G01*
X397036009Y-47106460D02*
G75*
G03*
X397336009Y-46806460I0J300000D01*
G01*
X382336009Y-57706460D02*
G75*
G03*
X382636009Y-58006460I300000J0D01*
G01*
X381336008Y-55706460D02*
G75*
G03*
X381636008Y-56006460I300000J0D01*
G01*
X397336009Y-53206460D02*
G75*
G03*
X397036009Y-52906460I-300000J0D01*
G01*
X382336010Y-47306460D02*
G75*
G03*
X382136010Y-47106460I-200001J-1D01*
G01*
X382136009Y-44006460D02*
G75*
G03*
X382336009Y-43806460I-1J200001D01*
G01*
X381636010Y-44006460D02*
G75*
G03*
X381336010Y-44306460I0J-300000D01*
G01*
X382136008Y-52906460D02*
G75*
G03*
X382336008Y-52706460I-1J200001D01*
G01*
X396036009Y-58006460D02*
G75*
G03*
X396336009Y-57706460I0J300000D01*
G01*
X396536010Y-47106459D02*
G75*
G03*
X396336010Y-47306459I1J-200001D01*
G01*
X382636009Y-42006460D02*
G75*
G03*
X382336009Y-42306460I0J-300000D01*
G01*
X372823410Y-44006460D02*
X373223410Y-44006460D01*
X358523410Y-47406460D02*
X358523410Y-52606460D01*
X372223410Y-57006460D02*
X358823410Y-57006460D01*
X372823410Y-52906460D02*
X373223410Y-52906460D01*
X372523410Y-52606460D02*
X372523410Y-47406460D01*
X357723410Y-52906460D02*
X358223410Y-52906460D01*
X372523410Y-56306460D02*
X372523410Y-56706460D01*
X358523410Y-43706460D02*
X358523410Y-43306460D01*
X372223410Y-43006460D02*
X358823410Y-43006460D01*
X358223410Y-56006460D02*
X357823410Y-56006460D01*
X357523410Y-53106460D02*
X357523410Y-55706460D01*
X372523410Y-43306460D02*
X372523410Y-43706460D01*
X358223410Y-47106460D02*
X357823410Y-47106460D01*
X357723410Y-44006460D02*
X358223410Y-44006460D01*
X373523410Y-46906460D02*
X373523410Y-44306460D01*
X373523410Y-55806460D02*
X373523410Y-53206460D01*
X373323410Y-56006460D02*
X372823410Y-56006460D01*
X358523410Y-56706460D02*
X358523410Y-56306460D01*
X373323410Y-47106460D02*
X372823410Y-47106460D01*
X357523410Y-44206460D02*
X357523410Y-46806460D01*
X373523410Y-44306460D02*
G75*
G03*
X373223410Y-44006460I-300000J0D01*
G01*
X372823410Y-56006460D02*
G75*
G03*
X372523410Y-56306460I0J-300000D01*
G01*
X357723410Y-44006460D02*
G75*
G03*
X357523410Y-44206460I1J-200001D01*
G01*
X373323410Y-56006460D02*
G75*
G03*
X373523410Y-55806460I-1J200001D01*
G01*
X372523410Y-43306460D02*
G75*
G03*
X372223410Y-43006460I-300000J0D01*
G01*
X373523410Y-53206460D02*
G75*
G03*
X373223410Y-52906460I-300000J0D01*
G01*
X357723410Y-52906460D02*
G75*
G03*
X357523410Y-53106460I1J-200001D01*
G01*
X358223410Y-52906460D02*
G75*
G03*
X358523410Y-52606460I0J300000D01*
G01*
X358823410Y-43006460D02*
G75*
G03*
X358523410Y-43306460I0J-300000D01*
G01*
X358223410Y-44006460D02*
G75*
G03*
X358523410Y-43706460I0J300000D01*
G01*
X373323410Y-47106460D02*
G75*
G03*
X373523410Y-46906460I-1J200001D01*
G01*
X358523410Y-56706460D02*
G75*
G03*
X358823410Y-57006460I300000J0D01*
G01*
X358523410Y-47406460D02*
G75*
G03*
X358223410Y-47106460I-300000J0D01*
G01*
X358523410Y-56306460D02*
G75*
G03*
X358223410Y-56006460I-300000J0D01*
G01*
X372523410Y-52606460D02*
G75*
G03*
X372823410Y-52906460I300000J0D01*
G01*
X372823410Y-47106460D02*
G75*
G03*
X372523410Y-47406460I0J-300000D01*
G01*
X372523410Y-43706460D02*
G75*
G03*
X372823410Y-44006460I300000J0D01*
G01*
X372223410Y-57006460D02*
G75*
G03*
X372523410Y-56706460I0J300000D01*
G01*
X357523410Y-55706460D02*
G75*
G03*
X357823410Y-56006460I300000J0D01*
G01*
X357523410Y-46806460D02*
G75*
G03*
X357823410Y-47106460I300000J0D01*
G01*
X396636010Y-110056700D02*
X397036010Y-110056700D01*
X381336010Y-110256700D02*
X381336010Y-112856700D01*
X382336010Y-113856700D02*
X382336010Y-113456700D01*
X382336010Y-100856700D02*
X382336010Y-100456700D01*
X381536010Y-110056700D02*
X382036010Y-110056700D01*
X382036010Y-113156700D02*
X381636010Y-113156700D01*
X396036010Y-100156700D02*
X382636010Y-100156700D01*
X396636010Y-101156700D02*
X397036010Y-101156700D01*
X397336010Y-104056700D02*
X397336010Y-101456700D01*
X397336010Y-112956700D02*
X397336010Y-110356700D01*
X382336010Y-104556700D02*
X382336010Y-109756700D01*
X397136010Y-113156700D02*
X396636010Y-113156700D01*
X381336010Y-101356700D02*
X381336010Y-103956700D01*
X396336010Y-100456700D02*
X396336010Y-100856700D01*
X397136010Y-104256700D02*
X396636010Y-104256700D01*
X381536010Y-101156700D02*
X382036010Y-101156700D01*
X396336010Y-113456700D02*
X396336010Y-113856700D01*
X382036010Y-104256700D02*
X381636010Y-104256700D01*
X396336010Y-109756700D02*
X396336010Y-104556700D01*
X396036010Y-114156700D02*
X382636010Y-114156700D01*
X382036010Y-110056700D02*
G75*
G03*
X382336010Y-109756700I0J300000D01*
G01*
X397336010Y-110356700D02*
G75*
G03*
X397036010Y-110056700I-300000J0D01*
G01*
X396336010Y-100856700D02*
G75*
G03*
X396636010Y-101156700I300000J0D01*
G01*
X381336010Y-103956700D02*
G75*
G03*
X381636010Y-104256700I300000J0D01*
G01*
X396336010Y-109756700D02*
G75*
G03*
X396636010Y-110056700I300000J0D01*
G01*
X382036010Y-101156700D02*
G75*
G03*
X382336010Y-100856700I0J300000D01*
G01*
X397136010Y-104256700D02*
G75*
G03*
X397336010Y-104056700I-1J200001D01*
G01*
X396636010Y-113156700D02*
G75*
G03*
X396336010Y-113456700I0J-300000D01*
G01*
X396036010Y-114156700D02*
G75*
G03*
X396336010Y-113856700I0J300000D01*
G01*
X382336010Y-104556700D02*
G75*
G03*
X382036010Y-104256700I-300000J0D01*
G01*
X382636010Y-100156700D02*
G75*
G03*
X382336010Y-100456700I0J-300000D01*
G01*
X381336010Y-112856700D02*
G75*
G03*
X381636010Y-113156700I300000J0D01*
G01*
X382336010Y-113856700D02*
G75*
G03*
X382636010Y-114156700I300000J0D01*
G01*
X381536010Y-101156700D02*
G75*
G03*
X381336010Y-101356700I1J-200001D01*
G01*
X396336010Y-100456700D02*
G75*
G03*
X396036010Y-100156700I-300000J0D01*
G01*
X381536010Y-110056700D02*
G75*
G03*
X381336010Y-110256700I1J-200001D01*
G01*
X382336010Y-113456700D02*
G75*
G03*
X382036010Y-113156700I-300000J0D01*
G01*
X397136010Y-113156700D02*
G75*
G03*
X397336010Y-112956700I-1J200001D01*
G01*
X396636010Y-104256700D02*
G75*
G03*
X396336010Y-104556700I0J-300000D01*
G01*
X397336010Y-101456700D02*
G75*
G03*
X397036010Y-101156700I-300000J0D01*
G01*
X221122770Y-74856540D02*
X221122770Y-72256540D01*
X220122770Y-62356540D02*
X220122770Y-62756540D01*
X206122770Y-66456540D02*
X206122770Y-71656540D01*
X220122770Y-75356540D02*
X220122770Y-75756540D01*
X220422770Y-63056540D02*
X220822770Y-63056540D01*
X206122770Y-62756540D02*
X206122770Y-62356540D01*
X220922770Y-75056540D02*
X220422770Y-75056540D01*
X205822770Y-75056540D02*
X205422770Y-75056540D01*
X205122770Y-63256540D02*
X205122770Y-65856540D01*
X205322770Y-63056540D02*
X205822770Y-63056540D01*
X206122770Y-75756540D02*
X206122770Y-75356540D01*
X205122770Y-72156540D02*
X205122770Y-74756540D01*
X219822770Y-62056540D02*
X206422770Y-62056540D01*
X221122770Y-65956540D02*
X221122770Y-63356540D01*
X205322770Y-71956540D02*
X205822770Y-71956540D01*
X220122770Y-71656540D02*
X220122770Y-66456540D01*
X219822770Y-76056540D02*
X206422770Y-76056540D01*
X205822770Y-66156540D02*
X205422770Y-66156540D01*
X220922770Y-66156540D02*
X220422770Y-66156540D01*
X220422770Y-71956540D02*
X220822770Y-71956540D01*
X206122770Y-75356540D02*
G75*
G03*
X205822770Y-75056540I-300000J0D01*
G01*
X220422770Y-75056540D02*
G75*
G03*
X220122770Y-75356540I0J-300000D01*
G01*
X220922770Y-66156540D02*
G75*
G03*
X221122770Y-65956540I-1J200001D01*
G01*
X219822770Y-76056540D02*
G75*
G03*
X220122770Y-75756540I0J300000D01*
G01*
X220122770Y-71656540D02*
G75*
G03*
X220422770Y-71956540I300000J0D01*
G01*
X221122770Y-63356540D02*
G75*
G03*
X220822770Y-63056540I-300000J0D01*
G01*
X205122770Y-65856540D02*
G75*
G03*
X205422770Y-66156540I300000J0D01*
G01*
X220122770Y-62356540D02*
G75*
G03*
X219822770Y-62056540I-300000J0D01*
G01*
X206122770Y-75756540D02*
G75*
G03*
X206422770Y-76056540I300000J0D01*
G01*
X205322770Y-71956540D02*
G75*
G03*
X205122770Y-72156540I1J-200001D01*
G01*
X221122770Y-72256540D02*
G75*
G03*
X220822770Y-71956540I-300000J0D01*
G01*
X205822770Y-71956540D02*
G75*
G03*
X206122770Y-71656540I0J300000D01*
G01*
X205122770Y-74756540D02*
G75*
G03*
X205422770Y-75056540I300000J0D01*
G01*
X220422770Y-66156540D02*
G75*
G03*
X220122770Y-66456540I0J-300000D01*
G01*
X206422770Y-62056540D02*
G75*
G03*
X206122770Y-62356540I0J-300000D01*
G01*
X220122770Y-62756540D02*
G75*
G03*
X220422770Y-63056540I300000J0D01*
G01*
X205322770Y-63056540D02*
G75*
G03*
X205122770Y-63256540I1J-200001D01*
G01*
X206122770Y-66456540D02*
G75*
G03*
X205822770Y-66156540I-300000J0D01*
G01*
X205822770Y-63056540D02*
G75*
G03*
X206122770Y-62756540I0J300000D01*
G01*
X220922770Y-75056540D02*
G75*
G03*
X221122770Y-74856540I-1J200001D01*
G01*
X243423314Y-44006460D02*
X243923314Y-44006460D01*
X259023314Y-47106460D02*
X258523314Y-47106460D01*
X243423314Y-52906460D02*
X243923314Y-52906460D01*
X258223314Y-43306460D02*
X258223314Y-43706460D01*
X244223314Y-47406460D02*
X244223314Y-52606460D01*
X259223314Y-55806460D02*
X259223314Y-53206460D01*
X244223314Y-43706460D02*
X244223314Y-43306460D01*
X258523314Y-52906460D02*
X258923314Y-52906460D01*
X257923314Y-43006460D02*
X244523314Y-43006460D01*
X259223314Y-46906460D02*
X259223314Y-44306460D01*
X244223314Y-56706460D02*
X244223314Y-56306460D01*
X258223314Y-56306460D02*
X258223314Y-56706460D01*
X243923314Y-47106460D02*
X243523314Y-47106460D01*
X259023314Y-56006460D02*
X258523314Y-56006460D01*
X257923314Y-57006460D02*
X244523314Y-57006460D01*
X243223314Y-44206460D02*
X243223314Y-46806460D01*
X243223314Y-53106460D02*
X243223314Y-55706460D01*
X258223314Y-52606460D02*
X258223314Y-47406460D01*
X243923314Y-56006460D02*
X243523314Y-56006460D01*
X258523314Y-44006460D02*
X258923314Y-44006460D01*
X259223314Y-44306460D02*
G75*
G03*
X258923314Y-44006460I-300000J0D01*
G01*
X243223314Y-55706460D02*
G75*
G03*
X243523314Y-56006460I300000J0D01*
G01*
X243923314Y-44006460D02*
G75*
G03*
X244223314Y-43706460I0J300000D01*
G01*
X243423314Y-44006460D02*
G75*
G03*
X243223314Y-44206460I1J-200001D01*
G01*
X243423314Y-52906460D02*
G75*
G03*
X243223314Y-53106460I1J-200001D01*
G01*
X244523314Y-43006460D02*
G75*
G03*
X244223314Y-43306460I0J-300000D01*
G01*
X243923314Y-52906460D02*
G75*
G03*
X244223314Y-52606460I0J300000D01*
G01*
X259223314Y-53206460D02*
G75*
G03*
X258923314Y-52906460I-300000J0D01*
G01*
X258223314Y-43306460D02*
G75*
G03*
X257923314Y-43006460I-300000J0D01*
G01*
X258523314Y-47106460D02*
G75*
G03*
X258223314Y-47406460I0J-300000D01*
G01*
X259023314Y-47106460D02*
G75*
G03*
X259223314Y-46906460I-1J200001D01*
G01*
X258523314Y-56006460D02*
G75*
G03*
X258223314Y-56306460I0J-300000D01*
G01*
X257923314Y-57006460D02*
G75*
G03*
X258223314Y-56706460I0J300000D01*
G01*
X244223314Y-56306460D02*
G75*
G03*
X243923314Y-56006460I-300000J0D01*
G01*
X244223314Y-47406460D02*
G75*
G03*
X243923314Y-47106460I-300000J0D01*
G01*
X258223314Y-43706460D02*
G75*
G03*
X258523314Y-44006460I300000J0D01*
G01*
X259023314Y-56006460D02*
G75*
G03*
X259223314Y-55806460I-1J200001D01*
G01*
X258223314Y-52606460D02*
G75*
G03*
X258523314Y-52906460I300000J0D01*
G01*
X244223314Y-56706460D02*
G75*
G03*
X244523314Y-57006460I300000J0D01*
G01*
X243223314Y-46806460D02*
G75*
G03*
X243523314Y-47106460I300000J0D01*
G01*
X278073330Y-47106460D02*
X277573330Y-47106460D01*
X262473330Y-44006460D02*
X262973330Y-44006460D01*
X263273330Y-56706460D02*
X263273330Y-56306460D01*
X277573330Y-52906460D02*
X277973330Y-52906460D01*
X277273330Y-43306460D02*
X277273330Y-43706460D01*
X262273330Y-44206460D02*
X262273330Y-46806460D01*
X278273330Y-55806460D02*
X278273330Y-53206460D01*
X277573330Y-44006460D02*
X277973330Y-44006460D01*
X263273330Y-47406460D02*
X263273330Y-52606460D01*
X278273330Y-46906460D02*
X278273330Y-44306460D01*
X277273330Y-56306460D02*
X277273330Y-56706460D01*
X262473330Y-52906460D02*
X262973330Y-52906460D01*
X262973330Y-47106460D02*
X262573330Y-47106460D01*
X276973330Y-43006460D02*
X263573330Y-43006460D01*
X262973330Y-56006460D02*
X262573330Y-56006460D01*
X262273330Y-53106460D02*
X262273330Y-55706460D01*
X277273330Y-52606460D02*
X277273330Y-47406460D01*
X278073330Y-56006460D02*
X277573330Y-56006460D01*
X276973330Y-57006460D02*
X263573330Y-57006460D01*
X263273330Y-43706460D02*
X263273330Y-43306460D01*
X263273330Y-47406460D02*
G75*
G03*
X262973330Y-47106460I-300000J0D01*
G01*
X277573330Y-56006460D02*
G75*
G03*
X277273330Y-56306460I0J-300000D01*
G01*
X262473330Y-52906460D02*
G75*
G03*
X262273330Y-53106460I1J-200001D01*
G01*
X262973330Y-44006460D02*
G75*
G03*
X263273330Y-43706460I0J300000D01*
G01*
X262473330Y-44006460D02*
G75*
G03*
X262273330Y-44206460I1J-200001D01*
G01*
X278073330Y-47106460D02*
G75*
G03*
X278273330Y-46906460I-1J200001D01*
G01*
X263273330Y-56306460D02*
G75*
G03*
X262973330Y-56006460I-300000J0D01*
G01*
X263273330Y-56706460D02*
G75*
G03*
X263573330Y-57006460I300000J0D01*
G01*
X262273330Y-55706460D02*
G75*
G03*
X262573330Y-56006460I300000J0D01*
G01*
X278273330Y-53206460D02*
G75*
G03*
X277973330Y-52906460I-300000J0D01*
G01*
X277573330Y-47106460D02*
G75*
G03*
X277273330Y-47406460I0J-300000D01*
G01*
X278273330Y-44306460D02*
G75*
G03*
X277973330Y-44006460I-300000J0D01*
G01*
X262273330Y-46806460D02*
G75*
G03*
X262573330Y-47106460I300000J0D01*
G01*
X278073330Y-56006460D02*
G75*
G03*
X278273330Y-55806460I-1J200001D01*
G01*
X277273330Y-52606460D02*
G75*
G03*
X277573330Y-52906460I300000J0D01*
G01*
X277273330Y-43706460D02*
G75*
G03*
X277573330Y-44006460I300000J0D01*
G01*
X276973330Y-57006460D02*
G75*
G03*
X277273330Y-56706460I0J300000D01*
G01*
X263573330Y-43006460D02*
G75*
G03*
X263273330Y-43306460I0J-300000D01*
G01*
X277273330Y-43306460D02*
G75*
G03*
X276973330Y-43006460I-300000J0D01*
G01*
X262973330Y-52906460D02*
G75*
G03*
X263273330Y-52606460I0J300000D01*
G01*
X296023346Y-57006460D02*
X282623346Y-57006460D01*
X296623346Y-44006460D02*
X297023346Y-44006460D01*
X296323346Y-52606460D02*
X296323346Y-47406460D01*
X281523346Y-44006460D02*
X282023346Y-44006460D01*
X297323346Y-46906460D02*
X297323346Y-44306460D01*
X296323346Y-43306460D02*
X296323346Y-43706460D01*
X296623346Y-52906460D02*
X297023346Y-52906460D01*
X281323346Y-53106460D02*
X281323346Y-55706460D01*
X297123346Y-47106460D02*
X296623346Y-47106460D01*
X282023346Y-56006460D02*
X281623346Y-56006460D01*
X297323346Y-55806460D02*
X297323346Y-53206460D01*
X282323346Y-56706460D02*
X282323346Y-56306460D01*
X282323346Y-47406460D02*
X282323346Y-52606460D01*
X281323346Y-44206460D02*
X281323346Y-46806460D01*
X297123346Y-56006460D02*
X296623346Y-56006460D01*
X282023346Y-47106460D02*
X281623346Y-47106460D01*
X282323346Y-43706460D02*
X282323346Y-43306460D01*
X281523346Y-52906460D02*
X282023346Y-52906460D01*
X296323346Y-56306460D02*
X296323346Y-56706460D01*
X296023346Y-43006460D02*
X282623346Y-43006460D01*
X282023346Y-52906460D02*
G75*
G03*
X282323346Y-52606460I0J300000D01*
G01*
X296323346Y-52606460D02*
G75*
G03*
X296623346Y-52906460I300000J0D01*
G01*
X282323346Y-56306460D02*
G75*
G03*
X282023346Y-56006460I-300000J0D01*
G01*
X281523346Y-44006460D02*
G75*
G03*
X281323346Y-44206460I1J-200001D01*
G01*
X296023346Y-57006460D02*
G75*
G03*
X296323346Y-56706460I0J300000D01*
G01*
X282323346Y-47406460D02*
G75*
G03*
X282023346Y-47106460I-300000J0D01*
G01*
X282323346Y-56706460D02*
G75*
G03*
X282623346Y-57006460I300000J0D01*
G01*
X297123346Y-47106460D02*
G75*
G03*
X297323346Y-46906460I-1J200001D01*
G01*
X281323346Y-46806460D02*
G75*
G03*
X281623346Y-47106460I300000J0D01*
G01*
X296323346Y-43306460D02*
G75*
G03*
X296023346Y-43006460I-300000J0D01*
G01*
X296323346Y-43706460D02*
G75*
G03*
X296623346Y-44006460I300000J0D01*
G01*
X297123346Y-56006460D02*
G75*
G03*
X297323346Y-55806460I-1J200001D01*
G01*
X297323346Y-44306460D02*
G75*
G03*
X297023346Y-44006460I-300000J0D01*
G01*
X282023346Y-44006460D02*
G75*
G03*
X282323346Y-43706460I0J300000D01*
G01*
X296623346Y-56006460D02*
G75*
G03*
X296323346Y-56306460I0J-300000D01*
G01*
X281523346Y-52906460D02*
G75*
G03*
X281323346Y-53106460I1J-200001D01*
G01*
X282623346Y-43006460D02*
G75*
G03*
X282323346Y-43306460I0J-300000D01*
G01*
X297323346Y-53206460D02*
G75*
G03*
X297023346Y-52906460I-300000J0D01*
G01*
X296623346Y-47106460D02*
G75*
G03*
X296323346Y-47406460I0J-300000D01*
G01*
X281323346Y-55706460D02*
G75*
G03*
X281623346Y-56006460I300000J0D01*
G01*
X300573362Y-52906460D02*
X301073362Y-52906460D01*
X315073362Y-57006460D02*
X301673362Y-57006460D01*
X315373362Y-56306460D02*
X315373362Y-56706460D01*
X315073362Y-43006460D02*
X301673362Y-43006460D01*
X301073362Y-56006460D02*
X300673362Y-56006460D01*
X316173362Y-47106460D02*
X315673362Y-47106460D01*
X301373362Y-47406460D02*
X301373362Y-52606460D01*
X315373362Y-52606460D02*
X315373362Y-47406460D01*
X316373362Y-55806460D02*
X316373362Y-53206460D01*
X301373362Y-43706460D02*
X301373362Y-43306460D01*
X300373362Y-44206460D02*
X300373362Y-46806460D01*
X300573362Y-44006460D02*
X301073362Y-44006460D01*
X316173362Y-56006460D02*
X315673362Y-56006460D01*
X316373362Y-46906460D02*
X316373362Y-44306460D01*
X315673362Y-44006460D02*
X316073362Y-44006460D01*
X300373362Y-53106460D02*
X300373362Y-55706460D01*
X301373362Y-56706460D02*
X301373362Y-56306460D01*
X315373362Y-43306460D02*
X315373362Y-43706460D01*
X315673362Y-52906460D02*
X316073362Y-52906460D01*
X301073362Y-47106460D02*
X300673362Y-47106460D01*
X301373362Y-56706460D02*
G75*
G03*
X301673362Y-57006460I300000J0D01*
G01*
X301373362Y-47406460D02*
G75*
G03*
X301073362Y-47106460I-300000J0D01*
G01*
X315373362Y-43706460D02*
G75*
G03*
X315673362Y-44006460I300000J0D01*
G01*
X315673362Y-56006460D02*
G75*
G03*
X315373362Y-56306460I0J-300000D01*
G01*
X300573362Y-52906460D02*
G75*
G03*
X300373362Y-53106460I1J-200001D01*
G01*
X316373362Y-44306460D02*
G75*
G03*
X316073362Y-44006460I-300000J0D01*
G01*
X301073362Y-52906460D02*
G75*
G03*
X301373362Y-52606460I0J300000D01*
G01*
X300373362Y-55706460D02*
G75*
G03*
X300673362Y-56006460I300000J0D01*
G01*
X315673362Y-47106460D02*
G75*
G03*
X315373362Y-47406460I0J-300000D01*
G01*
X316173362Y-47106460D02*
G75*
G03*
X316373362Y-46906460I-1J200001D01*
G01*
X301673362Y-43006460D02*
G75*
G03*
X301373362Y-43306460I0J-300000D01*
G01*
X315073362Y-57006460D02*
G75*
G03*
X315373362Y-56706460I0J300000D01*
G01*
X301373362Y-56306460D02*
G75*
G03*
X301073362Y-56006460I-300000J0D01*
G01*
X300373362Y-46806460D02*
G75*
G03*
X300673362Y-47106460I300000J0D01*
G01*
X301073362Y-44006460D02*
G75*
G03*
X301373362Y-43706460I0J300000D01*
G01*
X315373362Y-52606460D02*
G75*
G03*
X315673362Y-52906460I300000J0D01*
G01*
X316373362Y-53206460D02*
G75*
G03*
X316073362Y-52906460I-300000J0D01*
G01*
X315373362Y-43306460D02*
G75*
G03*
X315073362Y-43006460I-300000J0D01*
G01*
X316173362Y-56006460D02*
G75*
G03*
X316373362Y-55806460I-1J200001D01*
G01*
X300573362Y-44006460D02*
G75*
G03*
X300373362Y-44206460I1J-200001D01*
G01*
M02*
