G04 #@! TF.GenerationSoftware,KiCad,Pcbnew,(6.0.1-0)*
G04 #@! TF.CreationDate,2022-04-18T10:07:16-05:00*
G04 #@! TF.ProjectId,plate,706c6174-652e-46b6-9963-61645f706362,rev?*
G04 #@! TF.SameCoordinates,Original*
G04 #@! TF.FileFunction,Profile,NP*
%FSLAX46Y46*%
G04 Gerber Fmt 4.6, Leading zero omitted, Abs format (unit mm)*
G04 Created by KiCad (PCBNEW (6.0.1-0)) date 2022-04-18 10:07:16*
%MOMM*%
%LPD*%
G01*
G04 APERTURE LIST*
G04 #@! TA.AperFunction,Profile*
%ADD10C,0.050000*%
G04 #@! TD*
G04 #@! TA.AperFunction,Profile*
%ADD11C,0.100000*%
G04 #@! TD*
G04 APERTURE END LIST*
D10*
X396479634Y-116681404D02*
G75*
G03*
X398860894Y-114300144I0J2381260D01*
G01*
X396479634Y-116681516D02*
X394693747Y-116681516D01*
X398860894Y-42862716D02*
G75*
G03*
X396479634Y-40481456I-2381260J0D01*
G01*
X396479634Y-40481456D02*
X394693747Y-40481452D01*
X306587423Y-40481452D02*
X238721741Y-40481452D01*
X150615417Y-40481452D02*
X148829842Y-40481468D01*
X148829842Y-116681404D02*
X150615417Y-116681404D01*
X238721741Y-116681535D02*
X306587423Y-116681516D01*
X146448582Y-42862728D02*
X146448582Y-114300156D01*
X148829842Y-40481468D02*
G75*
G03*
X146448582Y-42862728I0J-2381260D01*
G01*
X231875641Y-122634543D02*
G75*
G03*
X232173390Y-122336887I93J297656D01*
G01*
X382787487Y-116681432D02*
G75*
G03*
X381596861Y-117872058I-1J-1190625D01*
G01*
X310159301Y-34528322D02*
X310456870Y-34528444D01*
X390526644Y-122336775D02*
G75*
G03*
X390824300Y-122634524I297656J-93D01*
G01*
X386954678Y-122039333D02*
G75*
G03*
X387549991Y-122634646I2381281J1785968D01*
G01*
X313135866Y-37504887D02*
X313135774Y-34826100D01*
X313135954Y-122336775D02*
X313135866Y-119658081D01*
X157163860Y-37504887D02*
X157163768Y-34826100D01*
X225624855Y-39290826D02*
G75*
G03*
X226815481Y-40481452I1190625J-1D01*
G01*
X158354486Y-35123635D02*
X161331051Y-40481452D01*
X230982672Y-122039352D02*
G75*
G03*
X231577985Y-122634665I2381281J1785968D01*
G01*
X154782520Y-34826193D02*
X154782608Y-37504887D01*
X380406235Y-122634646D02*
G75*
G03*
X381596861Y-121444020I1J1190625D01*
G01*
X310456957Y-122634524D02*
G75*
G03*
X310754706Y-122336868I93J297656D01*
G01*
X164902929Y-34528322D02*
X224434229Y-34528322D01*
X230982672Y-122039352D02*
X228006107Y-116681535D01*
X162521677Y-40481452D02*
G75*
G03*
X163712303Y-39290826I1J1190625D01*
G01*
X157164308Y-122336663D02*
X157164220Y-119657969D01*
X313433523Y-34528444D02*
G75*
G03*
X313135774Y-34826100I-93J-297656D01*
G01*
X146448582Y-114300156D02*
G75*
G03*
X148829842Y-116681416I2381260J0D01*
G01*
X390824213Y-34528444D02*
X391121869Y-34528322D01*
X225624855Y-35718948D02*
X225624855Y-39290826D01*
X228006107Y-116681535D02*
X226815481Y-116681432D01*
X387847647Y-122634524D02*
G75*
G03*
X388145396Y-122336868I93J297656D01*
G01*
X226815481Y-116681432D02*
G75*
G03*
X225624855Y-117872058I-1J-1190625D01*
G01*
X318493683Y-40481433D02*
G75*
G03*
X319684309Y-39290807I1J1190625D01*
G01*
X313731179Y-122634646D02*
X313433610Y-122634524D01*
X381596861Y-39290807D02*
G75*
G03*
X382787487Y-40481433I1190625J-1D01*
G01*
X381596861Y-35718948D02*
G75*
G03*
X380406235Y-34528322I-1190625J1D01*
G01*
X388145304Y-37504887D02*
G75*
G03*
X390526556Y-37504887I1190626J0D01*
G01*
X231875641Y-122634543D02*
X231577985Y-122634665D01*
X157759533Y-122634534D02*
X157461964Y-122634412D01*
X310754614Y-119658081D02*
X310754706Y-122336868D01*
X390526644Y-122336775D02*
X390526556Y-119658081D01*
X387549991Y-34528322D02*
X387847560Y-34528444D01*
X317303057Y-40481452D02*
X318493683Y-40481433D01*
X388145216Y-34826193D02*
X388145304Y-37504887D01*
X381596861Y-117872058D02*
X381596861Y-121444020D01*
X154187295Y-34528322D02*
X154484864Y-34528444D01*
X391717182Y-35123635D02*
X394693747Y-40481452D01*
X154782968Y-119657969D02*
X154783060Y-122336756D01*
X390824213Y-34528444D02*
G75*
G03*
X390526464Y-34826100I-93J-297656D01*
G01*
X309563988Y-122039333D02*
G75*
G03*
X310159301Y-122634646I2381281J1785968D01*
G01*
X309563988Y-35123635D02*
X306587423Y-40481452D01*
X313433523Y-34528444D02*
X313731179Y-34528322D01*
X232173210Y-34826193D02*
G75*
G03*
X231875554Y-34528444I-297656J93D01*
G01*
X232173210Y-34826193D02*
X232173298Y-37504887D01*
X153592342Y-122039221D02*
G75*
G03*
X154187655Y-122634534I2381281J1785968D01*
G01*
X318493683Y-116681432D02*
X317303057Y-116681516D01*
X234554550Y-119658100D02*
G75*
G03*
X232173298Y-119658100I-1190626J0D01*
G01*
X388145216Y-34826193D02*
G75*
G03*
X387847560Y-34528444I-297656J93D01*
G01*
X163712303Y-117872058D02*
G75*
G03*
X162521677Y-116681432I-1190625J1D01*
G01*
X231577985Y-34528322D02*
X231875554Y-34528444D01*
X391717182Y-35123635D02*
G75*
G03*
X391121869Y-34528322I-2381281J-1785968D01*
G01*
X234554550Y-37504887D02*
X234554458Y-34826100D01*
X320874935Y-34528322D02*
G75*
G03*
X319684309Y-35718948I-1J-1190625D01*
G01*
X387549991Y-34528322D02*
G75*
G03*
X386954678Y-35123635I1785968J-2381281D01*
G01*
X225624855Y-117872058D02*
X225624855Y-121444020D01*
X228006107Y-40481452D02*
X226815481Y-40481452D01*
X230982672Y-35123635D02*
X228006107Y-40481452D01*
X234852207Y-34528444D02*
X235149863Y-34528322D01*
X380406235Y-122634646D02*
X320874935Y-122634646D01*
X154782608Y-37504887D02*
G75*
G03*
X157163860Y-37504887I1190626J0D01*
G01*
X310456957Y-122634524D02*
X310159301Y-122634646D01*
X225624855Y-35718948D02*
G75*
G03*
X224434229Y-34528322I-1190625J1D01*
G01*
X319684309Y-121444020D02*
X319684309Y-117872058D01*
X398860894Y-114300144D02*
X398860894Y-42862716D01*
X314326492Y-35123635D02*
X317303057Y-40481452D01*
X232173298Y-37504887D02*
G75*
G03*
X234554550Y-37504887I1190626J0D01*
G01*
X234852207Y-34528444D02*
G75*
G03*
X234554458Y-34826100I-93J-297656D01*
G01*
X157759533Y-122634534D02*
G75*
G03*
X158354846Y-122039221I-1785968J2381281D01*
G01*
X319684309Y-39290807D02*
X319684309Y-35718948D01*
X162521677Y-116681432D02*
X161331051Y-116681404D01*
X224434229Y-122634646D02*
G75*
G03*
X225624855Y-121444020I1J1190625D01*
G01*
X158354846Y-122039221D02*
X161331051Y-116681404D01*
X313135954Y-122336775D02*
G75*
G03*
X313433610Y-122634524I297656J-93D01*
G01*
X319684309Y-121444020D02*
G75*
G03*
X320874935Y-122634646I1190625J-1D01*
G01*
X314326492Y-35123635D02*
G75*
G03*
X313731179Y-34528322I-2381281J-1785968D01*
G01*
X313731179Y-122634646D02*
G75*
G03*
X314326492Y-122039333I-1785968J2381281D01*
G01*
X309563988Y-122039333D02*
X306587423Y-116681516D01*
X383978113Y-116681516D02*
X382787487Y-116681432D01*
X382787487Y-40481433D02*
X383978113Y-40481452D01*
X154187295Y-34528322D02*
G75*
G03*
X153591982Y-35123635I1785968J-2381281D01*
G01*
X386954678Y-122039333D02*
X383978113Y-116681516D01*
X310754526Y-34826193D02*
G75*
G03*
X310456870Y-34528444I-297656J93D01*
G01*
X154485311Y-122634412D02*
G75*
G03*
X154783060Y-122336756I93J297656D01*
G01*
X310159301Y-34528322D02*
G75*
G03*
X309563988Y-35123635I1785968J-2381281D01*
G01*
X391121869Y-122634646D02*
X390824300Y-122634524D01*
X157461517Y-34528444D02*
G75*
G03*
X157163768Y-34826100I-93J-297656D01*
G01*
X388145304Y-119658081D02*
X388145396Y-122336868D01*
X153592342Y-122039221D02*
X150615417Y-116681404D01*
X154485311Y-122634412D02*
X154187655Y-122634534D01*
X235745176Y-35123635D02*
G75*
G03*
X235149863Y-34528322I-2381281J-1785968D01*
G01*
X164902929Y-34528322D02*
G75*
G03*
X163712303Y-35718948I-1J-1190625D01*
G01*
X235745176Y-122039352D02*
X238721741Y-116681535D01*
X391121869Y-122634646D02*
G75*
G03*
X391717182Y-122039333I-1785968J2381281D01*
G01*
X157164308Y-122336663D02*
G75*
G03*
X157461964Y-122634412I297656J-93D01*
G01*
X320874935Y-34528322D02*
X380406235Y-34528322D01*
X158354486Y-35123635D02*
G75*
G03*
X157759173Y-34528322I-2381281J-1785968D01*
G01*
X390526556Y-119658081D02*
G75*
G03*
X388145304Y-119658081I-1190626J0D01*
G01*
X231577985Y-34528322D02*
G75*
G03*
X230982672Y-35123635I1785968J-2381281D01*
G01*
X234554638Y-122336794D02*
X234554550Y-119658100D01*
X391717182Y-122039333D02*
X394693747Y-116681516D01*
X310754614Y-37504887D02*
G75*
G03*
X313135866Y-37504887I1190626J0D01*
G01*
X154782520Y-34826193D02*
G75*
G03*
X154484864Y-34528444I-297656J93D01*
G01*
X390526556Y-37504887D02*
X390526464Y-34826100D01*
X162521677Y-40481452D02*
X161331051Y-40481452D01*
X386954678Y-35123635D02*
X383978113Y-40481452D01*
X381596861Y-35718948D02*
X381596861Y-39290807D01*
X232173298Y-119658100D02*
X232173390Y-122336887D01*
X224434229Y-122634646D02*
X164902929Y-122634646D01*
X387847647Y-122634524D02*
X387549991Y-122634646D01*
X163712303Y-39290826D02*
X163712303Y-35718948D01*
X319684309Y-117872058D02*
G75*
G03*
X318493683Y-116681432I-1190625J1D01*
G01*
X313135866Y-119658081D02*
G75*
G03*
X310754614Y-119658081I-1190626J0D01*
G01*
X234554638Y-122336794D02*
G75*
G03*
X234852294Y-122634543I297656J-93D01*
G01*
X153591982Y-35123635D02*
X150615417Y-40481452D01*
X314326492Y-122039333D02*
X317303057Y-116681516D01*
X163712303Y-121444020D02*
X163712303Y-117872058D01*
X157461517Y-34528444D02*
X157759173Y-34528322D01*
X310754526Y-34826193D02*
X310754614Y-37504887D01*
X235149863Y-122634665D02*
X234852294Y-122634543D01*
X235149863Y-122634665D02*
G75*
G03*
X235745176Y-122039352I-1785968J2381281D01*
G01*
X163712303Y-121444020D02*
G75*
G03*
X164902929Y-122634646I1190625J-1D01*
G01*
X157164220Y-119657969D02*
G75*
G03*
X154782968Y-119657969I-1190626J0D01*
G01*
X235745176Y-35123635D02*
X238721741Y-40481452D01*
X148972530Y-56006460D02*
X148972530Y-44006460D01*
X149972530Y-57006460D02*
X161972530Y-57006460D01*
X149972530Y-43006460D02*
X161972530Y-43006460D01*
X162972530Y-44006460D02*
X162972530Y-56006460D01*
X161972530Y-57006460D02*
G75*
G03*
X162972530Y-56006460I1J999999D01*
G01*
X162972530Y-44006460D02*
G75*
G03*
X161972530Y-43006460I-999999J1D01*
G01*
X148972530Y-56006460D02*
G75*
G03*
X149972530Y-57006460I999999J-1D01*
G01*
X149972530Y-43006460D02*
G75*
G03*
X148972530Y-44006460I-1J-999999D01*
G01*
X168022610Y-56006460D02*
X168022610Y-44006460D01*
X169022610Y-43006460D02*
X181022610Y-43006460D01*
X182022610Y-44006460D02*
X182022610Y-56006460D01*
X169022610Y-57006460D02*
X181022610Y-57006460D01*
X182022610Y-44006460D02*
G75*
G03*
X181022610Y-43006460I-999999J1D01*
G01*
X168022610Y-56006460D02*
G75*
G03*
X169022610Y-57006460I999999J-1D01*
G01*
X181022610Y-57006460D02*
G75*
G03*
X182022610Y-56006460I1J999999D01*
G01*
X169022610Y-43006460D02*
G75*
G03*
X168022610Y-44006460I-1J-999999D01*
G01*
X188072690Y-57006460D02*
X200072690Y-57006460D01*
X187072690Y-56006460D02*
X187072690Y-44006460D01*
X201072690Y-44006460D02*
X201072690Y-56006460D01*
X188072690Y-43006460D02*
X200072690Y-43006460D01*
X200072690Y-57006460D02*
G75*
G03*
X201072690Y-56006460I1J999999D01*
G01*
X188072690Y-43006460D02*
G75*
G03*
X187072690Y-44006460I-1J-999999D01*
G01*
X187072690Y-56006460D02*
G75*
G03*
X188072690Y-57006460I999999J-1D01*
G01*
X201072690Y-44006460D02*
G75*
G03*
X200072690Y-43006460I-999999J1D01*
G01*
X206122770Y-56006460D02*
X206122770Y-44006460D01*
X207122770Y-57006460D02*
X219122770Y-57006460D01*
X207122770Y-43006460D02*
X219122770Y-43006460D01*
X220122770Y-44006460D02*
X220122770Y-56006460D01*
X207122770Y-43006460D02*
G75*
G03*
X206122770Y-44006460I-1J-999999D01*
G01*
X219122770Y-57006460D02*
G75*
G03*
X220122770Y-56006460I1J999999D01*
G01*
X220122770Y-44006460D02*
G75*
G03*
X219122770Y-43006460I-999999J1D01*
G01*
X206122770Y-56006460D02*
G75*
G03*
X207122770Y-57006460I999999J-1D01*
G01*
X239172850Y-44006460D02*
X239172850Y-56006460D01*
X225172850Y-56006460D02*
X225172850Y-44006460D01*
X226172850Y-57006460D02*
X238172850Y-57006460D01*
X226172850Y-43006460D02*
X238172850Y-43006460D01*
X226172850Y-43006460D02*
G75*
G03*
X225172850Y-44006460I-1J-999999D01*
G01*
X225172850Y-56006460D02*
G75*
G03*
X226172850Y-57006460I999999J-1D01*
G01*
X239172850Y-44006460D02*
G75*
G03*
X238172850Y-43006460I-999999J1D01*
G01*
X238172850Y-57006460D02*
G75*
G03*
X239172850Y-56006460I1J999999D01*
G01*
X321423250Y-57006460D02*
X333423250Y-57006460D01*
X321423250Y-43006460D02*
X333423250Y-43006460D01*
X334423250Y-44006460D02*
X334423250Y-56006460D01*
X320423250Y-56006460D02*
X320423250Y-44006460D01*
X320423250Y-56006460D02*
G75*
G03*
X321423250Y-57006460I999999J-1D01*
G01*
X321423250Y-43006460D02*
G75*
G03*
X320423250Y-44006460I-1J-999999D01*
G01*
X334423250Y-44006460D02*
G75*
G03*
X333423250Y-43006460I-999999J1D01*
G01*
X333423250Y-57006460D02*
G75*
G03*
X334423250Y-56006460I1J999999D01*
G01*
X339473330Y-56006460D02*
X339473330Y-44006460D01*
X340473330Y-43006460D02*
X352473330Y-43006460D01*
X340473330Y-57006460D02*
X352473330Y-57006460D01*
X353473330Y-44006460D02*
X353473330Y-56006460D01*
X353473330Y-44006460D02*
G75*
G03*
X352473330Y-43006460I-999999J1D01*
G01*
X339473330Y-56006460D02*
G75*
G03*
X340473330Y-57006460I999999J-1D01*
G01*
X352473330Y-57006460D02*
G75*
G03*
X353473330Y-56006460I1J999999D01*
G01*
X340473330Y-43006460D02*
G75*
G03*
X339473330Y-44006460I-1J-999999D01*
G01*
X148972530Y-75056540D02*
X148972530Y-63056540D01*
X149972530Y-76056540D02*
X161972530Y-76056540D01*
X162972530Y-63056540D02*
X162972530Y-75056540D01*
X149972530Y-62056540D02*
X161972530Y-62056540D01*
X161972530Y-76056540D02*
G75*
G03*
X162972530Y-75056540I1J999999D01*
G01*
X149972530Y-62056540D02*
G75*
G03*
X148972530Y-63056540I-1J-999999D01*
G01*
X148972530Y-75056540D02*
G75*
G03*
X149972530Y-76056540I999999J-1D01*
G01*
X162972530Y-63056540D02*
G75*
G03*
X161972530Y-62056540I-999999J1D01*
G01*
X201072690Y-63056540D02*
X201072690Y-75056540D01*
X188072690Y-76056540D02*
X200072690Y-76056540D01*
X188072690Y-62056540D02*
X200072690Y-62056540D01*
X187072690Y-75056540D02*
X187072690Y-63056540D01*
X187072690Y-75056540D02*
G75*
G03*
X188072690Y-76056540I999999J-1D01*
G01*
X201072690Y-63056540D02*
G75*
G03*
X200072690Y-62056540I-999999J1D01*
G01*
X200072690Y-76056540D02*
G75*
G03*
X201072690Y-75056540I1J999999D01*
G01*
X188072690Y-62056540D02*
G75*
G03*
X187072690Y-63056540I-1J-999999D01*
G01*
X239172850Y-63056540D02*
X239172850Y-75056540D01*
X225172850Y-75056540D02*
X225172850Y-63056540D01*
X226172850Y-62056540D02*
X238172850Y-62056540D01*
X226172850Y-76056540D02*
X238172850Y-76056540D01*
X239172850Y-63056540D02*
G75*
G03*
X238172850Y-62056540I-999999J1D01*
G01*
X226172850Y-62056540D02*
G75*
G03*
X225172850Y-63056540I-1J-999999D01*
G01*
X238172850Y-76056540D02*
G75*
G03*
X239172850Y-75056540I1J999999D01*
G01*
X225172850Y-75056540D02*
G75*
G03*
X226172850Y-76056540I999999J-1D01*
G01*
X245222930Y-76056540D02*
X257222930Y-76056540D01*
X258222930Y-63056540D02*
X258222930Y-75056540D01*
X245222930Y-62056540D02*
X257222930Y-62056540D01*
X244222930Y-75056540D02*
X244222930Y-63056540D01*
X244222930Y-75056540D02*
G75*
G03*
X245222930Y-76056540I999999J-1D01*
G01*
X258222930Y-63056540D02*
G75*
G03*
X257222930Y-62056540I-999999J1D01*
G01*
X245222930Y-62056540D02*
G75*
G03*
X244222930Y-63056540I-1J-999999D01*
G01*
X257222930Y-76056540D02*
G75*
G03*
X258222930Y-75056540I1J999999D01*
G01*
X263273010Y-75056540D02*
X263273010Y-63056540D01*
X264273010Y-62056540D02*
X276273010Y-62056540D01*
X264273010Y-76056540D02*
X276273010Y-76056540D01*
X277273010Y-63056540D02*
X277273010Y-75056540D01*
X263273010Y-75056540D02*
G75*
G03*
X264273010Y-76056540I999999J-1D01*
G01*
X264273010Y-62056540D02*
G75*
G03*
X263273010Y-63056540I-1J-999999D01*
G01*
X276273010Y-76056540D02*
G75*
G03*
X277273010Y-75056540I1J999999D01*
G01*
X277273010Y-63056540D02*
G75*
G03*
X276273010Y-62056540I-999999J1D01*
G01*
X296323090Y-63056540D02*
X296323090Y-75056540D01*
X283323090Y-76056540D02*
X295323090Y-76056540D01*
X283323090Y-62056540D02*
X295323090Y-62056540D01*
X282323090Y-75056540D02*
X282323090Y-63056540D01*
X282323090Y-75056540D02*
G75*
G03*
X283323090Y-76056540I999999J-1D01*
G01*
X283323090Y-62056540D02*
G75*
G03*
X282323090Y-63056540I-1J-999999D01*
G01*
X296323090Y-63056540D02*
G75*
G03*
X295323090Y-62056540I-999999J1D01*
G01*
X295323090Y-76056540D02*
G75*
G03*
X296323090Y-75056540I1J999999D01*
G01*
X315373170Y-63056540D02*
X315373170Y-75056540D01*
X301373170Y-75056540D02*
X301373170Y-63056540D01*
X302373170Y-76056540D02*
X314373170Y-76056540D01*
X302373170Y-62056540D02*
X314373170Y-62056540D01*
X302373170Y-62056540D02*
G75*
G03*
X301373170Y-63056540I-1J-999999D01*
G01*
X301373170Y-75056540D02*
G75*
G03*
X302373170Y-76056540I999999J-1D01*
G01*
X314373170Y-76056540D02*
G75*
G03*
X315373170Y-75056540I1J999999D01*
G01*
X315373170Y-63056540D02*
G75*
G03*
X314373170Y-62056540I-999999J1D01*
G01*
X321423250Y-76056540D02*
X333423250Y-76056540D01*
X334423250Y-63056540D02*
X334423250Y-75056540D01*
X321423250Y-62056540D02*
X333423250Y-62056540D01*
X320423250Y-75056540D02*
X320423250Y-63056540D01*
X321423250Y-62056540D02*
G75*
G03*
X320423250Y-63056540I-1J-999999D01*
G01*
X334423250Y-63056540D02*
G75*
G03*
X333423250Y-62056540I-999999J1D01*
G01*
X333423250Y-76056540D02*
G75*
G03*
X334423250Y-75056540I1J999999D01*
G01*
X320423250Y-75056540D02*
G75*
G03*
X321423250Y-76056540I999999J-1D01*
G01*
X340473330Y-62056540D02*
X352473330Y-62056540D01*
X339473330Y-75056540D02*
X339473330Y-63056540D01*
X353473330Y-63056540D02*
X353473330Y-75056540D01*
X340473330Y-76056540D02*
X352473330Y-76056540D01*
X353473330Y-63056540D02*
G75*
G03*
X352473330Y-62056540I-999999J1D01*
G01*
X352473330Y-76056540D02*
G75*
G03*
X353473330Y-75056540I1J999999D01*
G01*
X339473330Y-75056540D02*
G75*
G03*
X340473330Y-76056540I999999J-1D01*
G01*
X340473330Y-62056540D02*
G75*
G03*
X339473330Y-63056540I-1J-999999D01*
G01*
X358523410Y-75056540D02*
X358523410Y-63056540D01*
X359523410Y-76056540D02*
X371523410Y-76056540D01*
X372523410Y-63056540D02*
X372523410Y-75056540D01*
X359523410Y-62056540D02*
X371523410Y-62056540D01*
X358523410Y-75056540D02*
G75*
G03*
X359523410Y-76056540I999999J-1D01*
G01*
X359523410Y-62056540D02*
G75*
G03*
X358523410Y-63056540I-1J-999999D01*
G01*
X372523410Y-63056540D02*
G75*
G03*
X371523410Y-62056540I-999999J1D01*
G01*
X371523410Y-76056540D02*
G75*
G03*
X372523410Y-75056540I1J999999D01*
G01*
X162972530Y-82106620D02*
X162972530Y-94106620D01*
X148972530Y-94106620D02*
X148972530Y-82106620D01*
X149972530Y-81106620D02*
X161972530Y-81106620D01*
X149972530Y-95106620D02*
X161972530Y-95106620D01*
X148972530Y-94106620D02*
G75*
G03*
X149972530Y-95106620I999999J-1D01*
G01*
X162972530Y-82106620D02*
G75*
G03*
X161972530Y-81106620I-999999J1D01*
G01*
X161972530Y-95106620D02*
G75*
G03*
X162972530Y-94106620I1J999999D01*
G01*
X149972530Y-81106620D02*
G75*
G03*
X148972530Y-82106620I-1J-999999D01*
G01*
X169022610Y-81106620D02*
X181022610Y-81106620D01*
X169022610Y-95106620D02*
X181022610Y-95106620D01*
X168022610Y-94106620D02*
X168022610Y-82106620D01*
X182022610Y-82106620D02*
X182022610Y-94106620D01*
X181022610Y-95106620D02*
G75*
G03*
X182022610Y-94106620I1J999999D01*
G01*
X168022610Y-94106620D02*
G75*
G03*
X169022610Y-95106620I999999J-1D01*
G01*
X182022610Y-82106620D02*
G75*
G03*
X181022610Y-81106620I-999999J1D01*
G01*
X169022610Y-81106620D02*
G75*
G03*
X168022610Y-82106620I-1J-999999D01*
G01*
X187072690Y-94106620D02*
X187072690Y-82106620D01*
X201072690Y-82106620D02*
X201072690Y-94106620D01*
X188072690Y-81106620D02*
X200072690Y-81106620D01*
X188072690Y-95106620D02*
X200072690Y-95106620D01*
X187072690Y-94106620D02*
G75*
G03*
X188072690Y-95106620I999999J-1D01*
G01*
X188072690Y-81106620D02*
G75*
G03*
X187072690Y-82106620I-1J-999999D01*
G01*
X201072690Y-82106620D02*
G75*
G03*
X200072690Y-81106620I-999999J1D01*
G01*
X200072690Y-95106620D02*
G75*
G03*
X201072690Y-94106620I1J999999D01*
G01*
X207122770Y-95106620D02*
X219122770Y-95106620D01*
X206122770Y-94106620D02*
X206122770Y-82106620D01*
X220122770Y-82106620D02*
X220122770Y-94106620D01*
X207122770Y-81106620D02*
X219122770Y-81106620D01*
X220122770Y-82106620D02*
G75*
G03*
X219122770Y-81106620I-999999J1D01*
G01*
X219122770Y-95106620D02*
G75*
G03*
X220122770Y-94106620I1J999999D01*
G01*
X206122770Y-94106620D02*
G75*
G03*
X207122770Y-95106620I999999J-1D01*
G01*
X207122770Y-81106620D02*
G75*
G03*
X206122770Y-82106620I-1J-999999D01*
G01*
X226172850Y-81106620D02*
X238172850Y-81106620D01*
X225172850Y-94106620D02*
X225172850Y-82106620D01*
X226172850Y-95106620D02*
X238172850Y-95106620D01*
X239172850Y-82106620D02*
X239172850Y-94106620D01*
X238172850Y-95106620D02*
G75*
G03*
X239172850Y-94106620I1J999999D01*
G01*
X225172850Y-94106620D02*
G75*
G03*
X226172850Y-95106620I999999J-1D01*
G01*
X239172850Y-82106620D02*
G75*
G03*
X238172850Y-81106620I-999999J1D01*
G01*
X226172850Y-81106620D02*
G75*
G03*
X225172850Y-82106620I-1J-999999D01*
G01*
X245222930Y-81106620D02*
X257222930Y-81106620D01*
X245222930Y-95106620D02*
X257222930Y-95106620D01*
X244222930Y-94106620D02*
X244222930Y-82106620D01*
X258222930Y-82106620D02*
X258222930Y-94106620D01*
X258222930Y-82106620D02*
G75*
G03*
X257222930Y-81106620I-999999J1D01*
G01*
X244222930Y-94106620D02*
G75*
G03*
X245222930Y-95106620I999999J-1D01*
G01*
X245222930Y-81106620D02*
G75*
G03*
X244222930Y-82106620I-1J-999999D01*
G01*
X257222930Y-95106620D02*
G75*
G03*
X258222930Y-94106620I1J999999D01*
G01*
X264273010Y-81106620D02*
X276273010Y-81106620D01*
X277273010Y-82106620D02*
X277273010Y-94106620D01*
X263273010Y-94106620D02*
X263273010Y-82106620D01*
X264273010Y-95106620D02*
X276273010Y-95106620D01*
X277273010Y-82106620D02*
G75*
G03*
X276273010Y-81106620I-999999J1D01*
G01*
X263273010Y-94106620D02*
G75*
G03*
X264273010Y-95106620I999999J-1D01*
G01*
X264273010Y-81106620D02*
G75*
G03*
X263273010Y-82106620I-1J-999999D01*
G01*
X276273010Y-95106620D02*
G75*
G03*
X277273010Y-94106620I1J999999D01*
G01*
X282323090Y-94106620D02*
X282323090Y-82106620D01*
X296323090Y-82106620D02*
X296323090Y-94106620D01*
X283323090Y-95106620D02*
X295323090Y-95106620D01*
X283323090Y-81106620D02*
X295323090Y-81106620D01*
X282323090Y-94106620D02*
G75*
G03*
X283323090Y-95106620I999999J-1D01*
G01*
X283323090Y-81106620D02*
G75*
G03*
X282323090Y-82106620I-1J-999999D01*
G01*
X295323090Y-95106620D02*
G75*
G03*
X296323090Y-94106620I1J999999D01*
G01*
X296323090Y-82106620D02*
G75*
G03*
X295323090Y-81106620I-999999J1D01*
G01*
X302373170Y-81106620D02*
X314373170Y-81106620D01*
X302373170Y-95106620D02*
X314373170Y-95106620D01*
X315373170Y-82106620D02*
X315373170Y-94106620D01*
X301373170Y-94106620D02*
X301373170Y-82106620D01*
X302373170Y-81106620D02*
G75*
G03*
X301373170Y-82106620I-1J-999999D01*
G01*
X315373170Y-82106620D02*
G75*
G03*
X314373170Y-81106620I-999999J1D01*
G01*
X301373170Y-94106620D02*
G75*
G03*
X302373170Y-95106620I999999J-1D01*
G01*
X314373170Y-95106620D02*
G75*
G03*
X315373170Y-94106620I1J999999D01*
G01*
X321423250Y-81106620D02*
X333423250Y-81106620D01*
X321423250Y-95106620D02*
X333423250Y-95106620D01*
X320423250Y-94106620D02*
X320423250Y-82106620D01*
X334423250Y-82106620D02*
X334423250Y-94106620D01*
X334423250Y-82106620D02*
G75*
G03*
X333423250Y-81106620I-999999J1D01*
G01*
X321423250Y-81106620D02*
G75*
G03*
X320423250Y-82106620I-1J-999999D01*
G01*
X333423250Y-95106620D02*
G75*
G03*
X334423250Y-94106620I1J999999D01*
G01*
X320423250Y-94106620D02*
G75*
G03*
X321423250Y-95106620I999999J-1D01*
G01*
X353473330Y-82106620D02*
X353473330Y-94106620D01*
X340473330Y-95106620D02*
X352473330Y-95106620D01*
X339473330Y-94106620D02*
X339473330Y-82106620D01*
X340473330Y-81106620D02*
X352473330Y-81106620D01*
X352473330Y-95106620D02*
G75*
G03*
X353473330Y-94106620I1J999999D01*
G01*
X340473330Y-81106620D02*
G75*
G03*
X339473330Y-82106620I-1J-999999D01*
G01*
X353473330Y-82106620D02*
G75*
G03*
X352473330Y-81106620I-999999J1D01*
G01*
X339473330Y-94106620D02*
G75*
G03*
X340473330Y-95106620I999999J-1D01*
G01*
X372523410Y-82106620D02*
X372523410Y-94106620D01*
X358523410Y-94106620D02*
X358523410Y-82106620D01*
X359523410Y-81106620D02*
X371523410Y-81106620D01*
X359523410Y-95106620D02*
X371523410Y-95106620D01*
X371523410Y-95106620D02*
G75*
G03*
X372523410Y-94106620I1J999999D01*
G01*
X359523410Y-81106620D02*
G75*
G03*
X358523410Y-82106620I-1J-999999D01*
G01*
X358523410Y-94106620D02*
G75*
G03*
X359523410Y-95106620I999999J-1D01*
G01*
X372523410Y-82106620D02*
G75*
G03*
X371523410Y-81106620I-999999J1D01*
G01*
X182022610Y-101156700D02*
X182022610Y-113156700D01*
X169022610Y-114156700D02*
X181022610Y-114156700D01*
X169022610Y-100156700D02*
X181022610Y-100156700D01*
X168022610Y-113156700D02*
X168022610Y-101156700D01*
X182022610Y-101156700D02*
G75*
G03*
X181022610Y-100156700I-999999J1D01*
G01*
X169022610Y-100156700D02*
G75*
G03*
X168022610Y-101156700I-1J-999999D01*
G01*
X181022610Y-114156700D02*
G75*
G03*
X182022610Y-113156700I1J999999D01*
G01*
X168022610Y-113156700D02*
G75*
G03*
X169022610Y-114156700I999999J-1D01*
G01*
X187072690Y-113156700D02*
X187072690Y-101156700D01*
X188072690Y-114156700D02*
X200072690Y-114156700D01*
X188072690Y-100156700D02*
X200072690Y-100156700D01*
X201072690Y-101156700D02*
X201072690Y-113156700D01*
X188072690Y-100156700D02*
G75*
G03*
X187072690Y-101156700I-1J-999999D01*
G01*
X187072690Y-113156700D02*
G75*
G03*
X188072690Y-114156700I999999J-1D01*
G01*
X200072690Y-114156700D02*
G75*
G03*
X201072690Y-113156700I1J999999D01*
G01*
X201072690Y-101156700D02*
G75*
G03*
X200072690Y-100156700I-999999J1D01*
G01*
X207122770Y-100156700D02*
X219122770Y-100156700D01*
X206122770Y-113156700D02*
X206122770Y-101156700D01*
X220122770Y-101156700D02*
X220122770Y-113156700D01*
X207122770Y-114156700D02*
X219122770Y-114156700D01*
X219122770Y-114156700D02*
G75*
G03*
X220122770Y-113156700I1J999999D01*
G01*
X207122770Y-100156700D02*
G75*
G03*
X206122770Y-101156700I-1J-999999D01*
G01*
X206122770Y-113156700D02*
G75*
G03*
X207122770Y-114156700I999999J-1D01*
G01*
X220122770Y-101156700D02*
G75*
G03*
X219122770Y-100156700I-999999J1D01*
G01*
X226172850Y-100156700D02*
X238172850Y-100156700D01*
X225172850Y-113156700D02*
X225172850Y-101156700D01*
X226172850Y-114156700D02*
X238172850Y-114156700D01*
X239172850Y-101156700D02*
X239172850Y-113156700D01*
X239172850Y-101156700D02*
G75*
G03*
X238172850Y-100156700I-999999J1D01*
G01*
X225172850Y-113156700D02*
G75*
G03*
X226172850Y-114156700I999999J-1D01*
G01*
X226172850Y-100156700D02*
G75*
G03*
X225172850Y-101156700I-1J-999999D01*
G01*
X238172850Y-114156700D02*
G75*
G03*
X239172850Y-113156700I1J999999D01*
G01*
X245222930Y-100156700D02*
X257222930Y-100156700D01*
X258222930Y-101156700D02*
X258222930Y-113156700D01*
X244222930Y-113156700D02*
X244222930Y-101156700D01*
X245222930Y-114156700D02*
X257222930Y-114156700D01*
X258222930Y-101156700D02*
G75*
G03*
X257222930Y-100156700I-999999J1D01*
G01*
X245222930Y-100156700D02*
G75*
G03*
X244222930Y-101156700I-1J-999999D01*
G01*
X244222930Y-113156700D02*
G75*
G03*
X245222930Y-114156700I999999J-1D01*
G01*
X257222930Y-114156700D02*
G75*
G03*
X258222930Y-113156700I1J999999D01*
G01*
X264273010Y-114156700D02*
X276273010Y-114156700D01*
X263273010Y-113156700D02*
X263273010Y-101156700D01*
X264273010Y-100156700D02*
X276273010Y-100156700D01*
X277273010Y-101156700D02*
X277273010Y-113156700D01*
X263273010Y-113156700D02*
G75*
G03*
X264273010Y-114156700I999999J-1D01*
G01*
X277273010Y-101156700D02*
G75*
G03*
X276273010Y-100156700I-999999J1D01*
G01*
X276273010Y-114156700D02*
G75*
G03*
X277273010Y-113156700I1J999999D01*
G01*
X264273010Y-100156700D02*
G75*
G03*
X263273010Y-101156700I-1J-999999D01*
G01*
X282323090Y-113156700D02*
X282323090Y-101156700D01*
X296323090Y-101156700D02*
X296323090Y-113156700D01*
X283323090Y-114156700D02*
X295323090Y-114156700D01*
X283323090Y-100156700D02*
X295323090Y-100156700D01*
X282323090Y-113156700D02*
G75*
G03*
X283323090Y-114156700I999999J-1D01*
G01*
X295323090Y-114156700D02*
G75*
G03*
X296323090Y-113156700I1J999999D01*
G01*
X296323090Y-101156700D02*
G75*
G03*
X295323090Y-100156700I-999999J1D01*
G01*
X283323090Y-100156700D02*
G75*
G03*
X282323090Y-101156700I-1J-999999D01*
G01*
X302373170Y-100156700D02*
X314373170Y-100156700D01*
X302373170Y-114156700D02*
X314373170Y-114156700D01*
X315373170Y-101156700D02*
X315373170Y-113156700D01*
X301373170Y-113156700D02*
X301373170Y-101156700D01*
X315373170Y-101156700D02*
G75*
G03*
X314373170Y-100156700I-999999J1D01*
G01*
X301373170Y-113156700D02*
G75*
G03*
X302373170Y-114156700I999999J-1D01*
G01*
X314373170Y-114156700D02*
G75*
G03*
X315373170Y-113156700I1J999999D01*
G01*
X302373170Y-100156700D02*
G75*
G03*
X301373170Y-101156700I-1J-999999D01*
G01*
X320423250Y-113156700D02*
X320423250Y-101156700D01*
X334423250Y-101156700D02*
X334423250Y-113156700D01*
X321423250Y-114156700D02*
X333423250Y-114156700D01*
X321423250Y-100156700D02*
X333423250Y-100156700D01*
X333423250Y-114156700D02*
G75*
G03*
X334423250Y-113156700I1J999999D01*
G01*
X321423250Y-100156700D02*
G75*
G03*
X320423250Y-101156700I-1J-999999D01*
G01*
X320423250Y-113156700D02*
G75*
G03*
X321423250Y-114156700I999999J-1D01*
G01*
X334423250Y-101156700D02*
G75*
G03*
X333423250Y-100156700I-999999J1D01*
G01*
X340473330Y-114160000D02*
X352473330Y-114160000D01*
X353473330Y-101160000D02*
X353473330Y-113160000D01*
X340473330Y-100160000D02*
X352473330Y-100160000D01*
X339473330Y-113160000D02*
X339473330Y-101160000D01*
X340473330Y-100160000D02*
G75*
G03*
X339473330Y-101160000I-1J-999999D01*
G01*
X353473330Y-101160000D02*
G75*
G03*
X352473330Y-100160000I-999999J1D01*
G01*
X339473330Y-113160000D02*
G75*
G03*
X340473330Y-114160000I999999J-1D01*
G01*
X352473330Y-114160000D02*
G75*
G03*
X353473330Y-113160000I1J999999D01*
G01*
X359523410Y-100156700D02*
X371523410Y-100156700D01*
X359523410Y-114156700D02*
X371523410Y-114156700D01*
X358523410Y-113156700D02*
X358523410Y-101156700D01*
X372523410Y-101156700D02*
X372523410Y-113156700D01*
X371523410Y-114156700D02*
G75*
G03*
X372523410Y-113156700I1J999999D01*
G01*
X372523410Y-101156700D02*
G75*
G03*
X371523410Y-100156700I-999999J1D01*
G01*
X359523410Y-100156700D02*
G75*
G03*
X358523410Y-101156700I-1J-999999D01*
G01*
X358523410Y-113156700D02*
G75*
G03*
X359523410Y-114156700I999999J-1D01*
G01*
X149972530Y-114156700D02*
X161972530Y-114156700D01*
X149972530Y-100156700D02*
X161972530Y-100156700D01*
X162972530Y-101156700D02*
X162972530Y-113156700D01*
X148972530Y-113156700D02*
X148972530Y-101156700D01*
X162972530Y-101156700D02*
G75*
G03*
X161972530Y-100156700I-999999J1D01*
G01*
X148972530Y-113156700D02*
G75*
G03*
X149972530Y-114156700I999999J-1D01*
G01*
X149972530Y-100156700D02*
G75*
G03*
X148972530Y-101156700I-1J-999999D01*
G01*
X161972530Y-114156700D02*
G75*
G03*
X162972530Y-113156700I1J999999D01*
G01*
X182022610Y-63056540D02*
X182022610Y-75056540D01*
X169022610Y-62056540D02*
X181022610Y-62056540D01*
X169022610Y-76056540D02*
X181022610Y-76056540D01*
X168022610Y-75056540D02*
X168022610Y-63056540D01*
X169022610Y-62056540D02*
G75*
G03*
X168022610Y-63056540I-1J-999999D01*
G01*
X182022610Y-63056540D02*
G75*
G03*
X181022610Y-62056540I-999999J1D01*
G01*
X168022610Y-75056540D02*
G75*
G03*
X169022610Y-76056540I999999J-1D01*
G01*
X181022610Y-76056540D02*
G75*
G03*
X182022610Y-75056540I1J999999D01*
G01*
X382335890Y-94106428D02*
X382335890Y-82106428D01*
X383335890Y-95106428D02*
X395335890Y-95106428D01*
X383335890Y-81106428D02*
X395335890Y-81106428D01*
X396335890Y-82106428D02*
X396335890Y-94106428D01*
X395335890Y-95106428D02*
G75*
G03*
X396335890Y-94106428I1J999999D01*
G01*
X396335890Y-82106428D02*
G75*
G03*
X395335890Y-81106428I-999999J1D01*
G01*
X382335890Y-94106428D02*
G75*
G03*
X383335890Y-95106428I999999J-1D01*
G01*
X383335890Y-81106428D02*
G75*
G03*
X382335890Y-82106428I-1J-999999D01*
G01*
X383335890Y-76056444D02*
X395335890Y-76056444D01*
X396335890Y-63056444D02*
X396335890Y-75056444D01*
X383335890Y-62056444D02*
X395335890Y-62056444D01*
X382335890Y-75056444D02*
X382335890Y-63056444D01*
X395335890Y-76056444D02*
G75*
G03*
X396335890Y-75056444I1J999999D01*
G01*
X383335890Y-62056444D02*
G75*
G03*
X382335890Y-63056444I-1J-999999D01*
G01*
X382335890Y-75056444D02*
G75*
G03*
X383335890Y-76056444I999999J-1D01*
G01*
X396335890Y-63056444D02*
G75*
G03*
X395335890Y-62056444I-999999J1D01*
G01*
D11*
X396336010Y-57006460D02*
X396336010Y-43006460D01*
X395336010Y-42006460D02*
X383336010Y-42006460D01*
X383336010Y-58006460D02*
X395336010Y-58006460D01*
X382336010Y-57006460D02*
X382336010Y-43006460D01*
X396336009Y-56531460D02*
X396336009Y-56531460D01*
X396336010Y-43006460D02*
G75*
G03*
X395336010Y-42006460I-999999J1D01*
G01*
X395336010Y-58006460D02*
G75*
G03*
X396336010Y-57006460I1J999999D01*
G01*
X383336010Y-42006460D02*
G75*
G03*
X382336010Y-43006460I-1J-999999D01*
G01*
X382336010Y-57006460D02*
G75*
G03*
X383336010Y-58006460I999999J-1D01*
G01*
D10*
X358523410Y-56006460D02*
X358523410Y-44006460D01*
X359523410Y-57006460D02*
X371523410Y-57006460D01*
X372523410Y-44006460D02*
X372523410Y-56006460D01*
X359523410Y-43006460D02*
X371523410Y-43006460D01*
X358523410Y-56006460D02*
G75*
G03*
X359523410Y-57006460I999999J-1D01*
G01*
X359523410Y-43006460D02*
G75*
G03*
X358523410Y-44006460I-1J-999999D01*
G01*
X371523410Y-57006460D02*
G75*
G03*
X372523410Y-56006460I1J999999D01*
G01*
X372523410Y-44006460D02*
G75*
G03*
X371523410Y-43006460I-999999J1D01*
G01*
X383336010Y-100156700D02*
X395336010Y-100156700D01*
X383336010Y-114156700D02*
X395336010Y-114156700D01*
X382336010Y-113156700D02*
X382336010Y-101156700D01*
X396336010Y-101156700D02*
X396336010Y-113156700D01*
X382336010Y-113156700D02*
G75*
G03*
X383336010Y-114156700I999999J-1D01*
G01*
X395336010Y-114156700D02*
G75*
G03*
X396336010Y-113156700I1J999999D01*
G01*
X383336010Y-100156700D02*
G75*
G03*
X382336010Y-101156700I-1J-999999D01*
G01*
X396336010Y-101156700D02*
G75*
G03*
X395336010Y-100156700I-999999J1D01*
G01*
X207122770Y-62056540D02*
X219122770Y-62056540D01*
X207122770Y-76056540D02*
X219122770Y-76056540D01*
X206122770Y-75056540D02*
X206122770Y-63056540D01*
X220122770Y-63056540D02*
X220122770Y-75056540D01*
X219122770Y-76056540D02*
G75*
G03*
X220122770Y-75056540I1J999999D01*
G01*
X207122770Y-62056540D02*
G75*
G03*
X206122770Y-63056540I-1J-999999D01*
G01*
X220122770Y-63056540D02*
G75*
G03*
X219122770Y-62056540I-999999J1D01*
G01*
X206122770Y-75056540D02*
G75*
G03*
X207122770Y-76056540I999999J-1D01*
G01*
X245223314Y-43006460D02*
X257223314Y-43006460D01*
X244223314Y-56006460D02*
X244223314Y-44006460D01*
X245223314Y-57006460D02*
X257223314Y-57006460D01*
X258223314Y-44006460D02*
X258223314Y-56006460D01*
X258223314Y-44006460D02*
G75*
G03*
X257223314Y-43006460I-999999J1D01*
G01*
X257223314Y-57006460D02*
G75*
G03*
X258223314Y-56006460I1J999999D01*
G01*
X244223314Y-56006460D02*
G75*
G03*
X245223314Y-57006460I999999J-1D01*
G01*
X245223314Y-43006460D02*
G75*
G03*
X244223314Y-44006460I-1J-999999D01*
G01*
X264273330Y-57006460D02*
X276273330Y-57006460D01*
X277273330Y-44006460D02*
X277273330Y-56006460D01*
X263273330Y-56006460D02*
X263273330Y-44006460D01*
X264273330Y-43006460D02*
X276273330Y-43006460D01*
X276273330Y-57006460D02*
G75*
G03*
X277273330Y-56006460I1J999999D01*
G01*
X264273330Y-43006460D02*
G75*
G03*
X263273330Y-44006460I-1J-999999D01*
G01*
X277273330Y-44006460D02*
G75*
G03*
X276273330Y-43006460I-999999J1D01*
G01*
X263273330Y-56006460D02*
G75*
G03*
X264273330Y-57006460I999999J-1D01*
G01*
X283323346Y-43006460D02*
X295323346Y-43006460D01*
X282323346Y-56006460D02*
X282323346Y-44006460D01*
X296323346Y-44006460D02*
X296323346Y-56006460D01*
X283323346Y-57006460D02*
X295323346Y-57006460D01*
X295323346Y-57006460D02*
G75*
G03*
X296323346Y-56006460I1J999999D01*
G01*
X283323346Y-43006460D02*
G75*
G03*
X282323346Y-44006460I-1J-999999D01*
G01*
X296323346Y-44006460D02*
G75*
G03*
X295323346Y-43006460I-999999J1D01*
G01*
X282323346Y-56006460D02*
G75*
G03*
X283323346Y-57006460I999999J-1D01*
G01*
X302373362Y-43006460D02*
X314373362Y-43006460D01*
X315373362Y-44006460D02*
X315373362Y-56006460D01*
X302373362Y-57006460D02*
X314373362Y-57006460D01*
X301373362Y-56006460D02*
X301373362Y-44006460D01*
X302373362Y-43006460D02*
G75*
G03*
X301373362Y-44006460I-1J-999999D01*
G01*
X315373362Y-44006460D02*
G75*
G03*
X314373362Y-43006460I-999999J1D01*
G01*
X301373362Y-56006460D02*
G75*
G03*
X302373362Y-57006460I999999J-1D01*
G01*
X314373362Y-57006460D02*
G75*
G03*
X315373362Y-56006460I1J999999D01*
G01*
M02*
