%TF.GenerationSoftware,KiCad,Pcbnew,7.0.1-0*%
%TF.CreationDate,2023-08-02T22:38:37-05:00*%
%TF.ProjectId,plate,706c6174-652e-46b6-9963-61645f706362,rev?*%
%TF.SameCoordinates,Original*%
%TF.FileFunction,Copper,L1,Top*%
%TF.FilePolarity,Positive*%
%FSLAX46Y46*%
G04 Gerber Fmt 4.6, Leading zero omitted, Abs format (unit mm)*
G04 Created by KiCad (PCBNEW 7.0.1-0) date 2023-08-02 22:38:37*
%MOMM*%
%LPD*%
G01*
G04 APERTURE LIST*
%TA.AperFunction,ViaPad*%
%ADD10C,0.800000*%
%TD*%
G04 APERTURE END LIST*
D10*
%TO.N,GND*%
X254375000Y-41550000D03*
%TD*%
%TA.AperFunction,Conductor*%
%TO.N,GND*%
G36*
X95063792Y-39425816D02*
G01*
X95073282Y-39426494D01*
X95128738Y-39430460D01*
X95128996Y-39430479D01*
X95271864Y-39441723D01*
X95288459Y-39444170D01*
X95358413Y-39459387D01*
X95377609Y-39463563D01*
X95380124Y-39464137D01*
X95491999Y-39490996D01*
X95506353Y-39495378D01*
X95596874Y-39529139D01*
X95600871Y-39530711D01*
X95702294Y-39572723D01*
X95714223Y-39578431D01*
X95800717Y-39625659D01*
X95806062Y-39628753D01*
X95897946Y-39685060D01*
X95907466Y-39691520D01*
X95987025Y-39751077D01*
X95993246Y-39756053D01*
X96058964Y-39812181D01*
X96074519Y-39825466D01*
X96074618Y-39825550D01*
X96081768Y-39832159D01*
X96152206Y-39902596D01*
X96158815Y-39909746D01*
X96228363Y-39991176D01*
X96233339Y-39997397D01*
X96292824Y-40076858D01*
X96299281Y-40086373D01*
X96355735Y-40178497D01*
X96358790Y-40183775D01*
X96405897Y-40270043D01*
X96411625Y-40282016D01*
X96453783Y-40383794D01*
X96455404Y-40387914D01*
X96488958Y-40477876D01*
X96493350Y-40492261D01*
X96520435Y-40605076D01*
X96521027Y-40607666D01*
X96540187Y-40695745D01*
X96542639Y-40712373D01*
X96554137Y-40858454D01*
X96554203Y-40859337D01*
X96558559Y-40920234D01*
X96558875Y-40929081D01*
X96558875Y-41670569D01*
X96558559Y-41679417D01*
X96553927Y-41744163D01*
X96553861Y-41745044D01*
X96542654Y-41887440D01*
X96540202Y-41904069D01*
X96520760Y-41993443D01*
X96520168Y-41996032D01*
X96493397Y-42107541D01*
X96489005Y-42121928D01*
X96455149Y-42212698D01*
X96453528Y-42216817D01*
X96411711Y-42317771D01*
X96405982Y-42329745D01*
X96358551Y-42416608D01*
X96355447Y-42421970D01*
X96299426Y-42513389D01*
X96292965Y-42522911D01*
X96233086Y-42602899D01*
X96228108Y-42609121D01*
X96159017Y-42690014D01*
X96152409Y-42697162D01*
X96081531Y-42768040D01*
X96074382Y-42774649D01*
X95993540Y-42843695D01*
X95987317Y-42848674D01*
X95907226Y-42908627D01*
X95897707Y-42915085D01*
X95806520Y-42970965D01*
X95801156Y-42974071D01*
X95714020Y-43021650D01*
X95702047Y-43027378D01*
X95601563Y-43069000D01*
X95597443Y-43070621D01*
X95506174Y-43104662D01*
X95491787Y-43109054D01*
X95381315Y-43135575D01*
X95378726Y-43136167D01*
X95288288Y-43155840D01*
X95271659Y-43158292D01*
X95132682Y-43169229D01*
X95131800Y-43169295D01*
X95063443Y-43174184D01*
X95054597Y-43174500D01*
X76584135Y-43174500D01*
X76583929Y-43174459D01*
X76559373Y-43174459D01*
X76559182Y-43174538D01*
X76558994Y-43174615D01*
X76558990Y-43174618D01*
X76558834Y-43174999D01*
X76558851Y-43199616D01*
X76558846Y-43199616D01*
X76558875Y-43199760D01*
X76558875Y-44150240D01*
X76558834Y-44150446D01*
X76558834Y-44175000D01*
X76558875Y-44175099D01*
X76558991Y-44175382D01*
X76558992Y-44175383D01*
X76558993Y-44175384D01*
X76559183Y-44175462D01*
X76559375Y-44175541D01*
X76559377Y-44175539D01*
X76583991Y-44175524D01*
X76583991Y-44175528D01*
X76584135Y-44175500D01*
X217990865Y-44175500D01*
X217991008Y-44175528D01*
X217991009Y-44175524D01*
X218015622Y-44175539D01*
X218015625Y-44175541D01*
X218016008Y-44175383D01*
X218016125Y-44175099D01*
X218016166Y-44175000D01*
X218016166Y-44150446D01*
X218016125Y-44150240D01*
X218016125Y-43199760D01*
X218016153Y-43199616D01*
X218016149Y-43199616D01*
X218016164Y-43175002D01*
X218016166Y-43175000D01*
X218016086Y-43174808D01*
X218016009Y-43174618D01*
X218016005Y-43174614D01*
X218015819Y-43174538D01*
X218015627Y-43174459D01*
X217991071Y-43174459D01*
X217990865Y-43174500D01*
X199520051Y-43174500D01*
X199511206Y-43174184D01*
X199507529Y-43173921D01*
X199446640Y-43169566D01*
X199445758Y-43169500D01*
X199303160Y-43158278D01*
X199286531Y-43155826D01*
X199197389Y-43136435D01*
X199194799Y-43135843D01*
X199083010Y-43109005D01*
X199068626Y-43104614D01*
X199014671Y-43084491D01*
X198978185Y-43070883D01*
X198974081Y-43069268D01*
X198932120Y-43051887D01*
X198872722Y-43027283D01*
X198860761Y-43021560D01*
X198806164Y-42991749D01*
X198774300Y-42974350D01*
X198768936Y-42971245D01*
X198677052Y-42914938D01*
X198667532Y-42908478D01*
X198587973Y-42848921D01*
X198581752Y-42843945D01*
X198500380Y-42774448D01*
X198493230Y-42767839D01*
X198422792Y-42697402D01*
X198416183Y-42690252D01*
X198347032Y-42609287D01*
X198346632Y-42608818D01*
X198341659Y-42602601D01*
X198282174Y-42523140D01*
X198275724Y-42513636D01*
X198219249Y-42421477D01*
X198216223Y-42416250D01*
X198169094Y-42329940D01*
X198163381Y-42317999D01*
X198121197Y-42216158D01*
X198119594Y-42212084D01*
X198086040Y-42122122D01*
X198081650Y-42107745D01*
X198054536Y-41994807D01*
X198053989Y-41992412D01*
X198034810Y-41904252D01*
X198032359Y-41887625D01*
X198032345Y-41887443D01*
X198020834Y-41741198D01*
X198016440Y-41679777D01*
X198016125Y-41670934D01*
X198016125Y-40929428D01*
X198016441Y-40920583D01*
X198020821Y-40859337D01*
X198021077Y-40855757D01*
X198021136Y-40854973D01*
X198032345Y-40712547D01*
X198034794Y-40695940D01*
X198054264Y-40606439D01*
X198054822Y-40604003D01*
X198081604Y-40492447D01*
X198085990Y-40478081D01*
X198119861Y-40387268D01*
X198121456Y-40383214D01*
X198163290Y-40282218D01*
X198169016Y-40270253D01*
X198205163Y-40204055D01*
X198216457Y-40183371D01*
X198219530Y-40178063D01*
X198275589Y-40086582D01*
X198282013Y-40077115D01*
X198341947Y-39997054D01*
X198346856Y-39990918D01*
X198415985Y-39909978D01*
X198422589Y-39902836D01*
X198493467Y-39831958D01*
X198500596Y-39825367D01*
X198581491Y-39756276D01*
X198587628Y-39751365D01*
X198667803Y-39691350D01*
X198677278Y-39684921D01*
X198768520Y-39629008D01*
X198773800Y-39625951D01*
X198861002Y-39578336D01*
X198872927Y-39572631D01*
X198973500Y-39530972D01*
X198977470Y-39529410D01*
X199068865Y-39495323D01*
X199083180Y-39490953D01*
X199193793Y-39464397D01*
X199196228Y-39463841D01*
X199286722Y-39444156D01*
X199303311Y-39441709D01*
X199442572Y-39430749D01*
X199442768Y-39430734D01*
X199490385Y-39427329D01*
X199511561Y-39425816D01*
X199520403Y-39425500D01*
X256511194Y-39425500D01*
X256520041Y-39425816D01*
X256527684Y-39426362D01*
X256585220Y-39430478D01*
X256585631Y-39430509D01*
X256728056Y-39441719D01*
X256744648Y-39444165D01*
X256834328Y-39463675D01*
X256836893Y-39464262D01*
X256948126Y-39490967D01*
X256962499Y-39495355D01*
X257053531Y-39529309D01*
X257057591Y-39530906D01*
X257158337Y-39572637D01*
X257170289Y-39578355D01*
X257256896Y-39625648D01*
X257257394Y-39625920D01*
X257262755Y-39629024D01*
X257353920Y-39684890D01*
X257363440Y-39691350D01*
X257443639Y-39751386D01*
X257449847Y-39756351D01*
X257530560Y-39825287D01*
X257537688Y-39831877D01*
X257567078Y-39861267D01*
X257608745Y-39902935D01*
X257615354Y-39910084D01*
X257684215Y-39990711D01*
X257689191Y-39996931D01*
X257709077Y-40023495D01*
X257749195Y-40077087D01*
X257749305Y-40077233D01*
X257755766Y-40086755D01*
X257811508Y-40177719D01*
X257814613Y-40183082D01*
X257862303Y-40270421D01*
X257868031Y-40282394D01*
X257909547Y-40382622D01*
X257911168Y-40386742D01*
X257945297Y-40478247D01*
X257949689Y-40492632D01*
X257976160Y-40602890D01*
X257976752Y-40605480D01*
X257996466Y-40696105D01*
X257998918Y-40712734D01*
X258009842Y-40851535D01*
X258009908Y-40852417D01*
X258014809Y-40920935D01*
X258015125Y-40929782D01*
X258015125Y-41670571D01*
X258014809Y-41679418D01*
X258010179Y-41744146D01*
X258010113Y-41745029D01*
X257998904Y-41887443D01*
X257996452Y-41904072D01*
X257977018Y-41993407D01*
X257976426Y-41995995D01*
X257949641Y-42107565D01*
X257945249Y-42121951D01*
X257911436Y-42212609D01*
X257909815Y-42216729D01*
X257867943Y-42317817D01*
X257862215Y-42329790D01*
X257814868Y-42416501D01*
X257811763Y-42421864D01*
X257755623Y-42513477D01*
X257749162Y-42522999D01*
X257689449Y-42602766D01*
X257684472Y-42608987D01*
X257615157Y-42690144D01*
X257608549Y-42697293D01*
X257537920Y-42767923D01*
X257530769Y-42774532D01*
X257449575Y-42843878D01*
X257443357Y-42848853D01*
X257363679Y-42908502D01*
X257354155Y-42914965D01*
X257262330Y-42971235D01*
X257256968Y-42974339D01*
X257170508Y-43021550D01*
X257158534Y-43027279D01*
X257056989Y-43069341D01*
X257052872Y-43070961D01*
X256962706Y-43104593D01*
X256948317Y-43108986D01*
X256835747Y-43136011D01*
X256833159Y-43136603D01*
X256744852Y-43155814D01*
X256728223Y-43158266D01*
X256582328Y-43169750D01*
X256581446Y-43169816D01*
X256520388Y-43174184D01*
X256511540Y-43174500D01*
X238040385Y-43174500D01*
X238040179Y-43174459D01*
X238015623Y-43174459D01*
X238015432Y-43174538D01*
X238015244Y-43174615D01*
X238015240Y-43174618D01*
X238015084Y-43174999D01*
X238015101Y-43199616D01*
X238015096Y-43199616D01*
X238015125Y-43199760D01*
X238015125Y-44150240D01*
X238015084Y-44150446D01*
X238015084Y-44175000D01*
X238015125Y-44175099D01*
X238015242Y-44175383D01*
X238015243Y-44175384D01*
X238015433Y-44175462D01*
X238015625Y-44175541D01*
X238015627Y-44175539D01*
X238040241Y-44175524D01*
X238040241Y-44175528D01*
X238040385Y-44175500D01*
X274869587Y-44175500D01*
X274880392Y-44175972D01*
X274892433Y-44177025D01*
X274919880Y-44179426D01*
X274920961Y-44179526D01*
X275046773Y-44191918D01*
X275066687Y-44195541D01*
X275131435Y-44212890D01*
X275135202Y-44213966D01*
X275226570Y-44241681D01*
X275242959Y-44247952D01*
X275308852Y-44278679D01*
X275314889Y-44281698D01*
X275394050Y-44324010D01*
X275406709Y-44331786D01*
X275467888Y-44374624D01*
X275475427Y-44380344D01*
X275543455Y-44436172D01*
X275552472Y-44444345D01*
X275605653Y-44497526D01*
X275613826Y-44506543D01*
X275669654Y-44574571D01*
X275675374Y-44582110D01*
X275718204Y-44643276D01*
X275725988Y-44655948D01*
X275768300Y-44735109D01*
X275771324Y-44741156D01*
X275802041Y-44807027D01*
X275808320Y-44823438D01*
X275836013Y-44914730D01*
X275837127Y-44918632D01*
X275854454Y-44983299D01*
X275858082Y-45003239D01*
X275870456Y-45128882D01*
X275870581Y-45130223D01*
X275874028Y-45169604D01*
X275874500Y-45180416D01*
X275874500Y-119369584D01*
X275874028Y-119380397D01*
X275870581Y-119419776D01*
X275870456Y-119421116D01*
X275858082Y-119546759D01*
X275854454Y-119566699D01*
X275837127Y-119631366D01*
X275836013Y-119635268D01*
X275808320Y-119726560D01*
X275802041Y-119742971D01*
X275771324Y-119808842D01*
X275768300Y-119814889D01*
X275725988Y-119894050D01*
X275718204Y-119906722D01*
X275675374Y-119967888D01*
X275669654Y-119975427D01*
X275613826Y-120043455D01*
X275605653Y-120052472D01*
X275552472Y-120105653D01*
X275543455Y-120113826D01*
X275475427Y-120169654D01*
X275467888Y-120175374D01*
X275406722Y-120218204D01*
X275394050Y-120225988D01*
X275314889Y-120268300D01*
X275308842Y-120271324D01*
X275242971Y-120302041D01*
X275226560Y-120308320D01*
X275135268Y-120336013D01*
X275131366Y-120337127D01*
X275066699Y-120354454D01*
X275046759Y-120358082D01*
X274921116Y-120370456D01*
X274919776Y-120370581D01*
X274884760Y-120373646D01*
X274880392Y-120374028D01*
X274869584Y-120374500D01*
X238040385Y-120374500D01*
X238040179Y-120374459D01*
X238015623Y-120374459D01*
X238015432Y-120374538D01*
X238015244Y-120374615D01*
X238015240Y-120374618D01*
X238015084Y-120374999D01*
X238015101Y-120399616D01*
X238015096Y-120399616D01*
X238015125Y-120399760D01*
X238015125Y-121350240D01*
X238015084Y-121350446D01*
X238015084Y-121375000D01*
X238015125Y-121375099D01*
X238015241Y-121375382D01*
X238015242Y-121375383D01*
X238015243Y-121375384D01*
X238015433Y-121375461D01*
X238015625Y-121375541D01*
X238015627Y-121375539D01*
X238040241Y-121375524D01*
X238040241Y-121375528D01*
X238040385Y-121375500D01*
X256511194Y-121375500D01*
X256520041Y-121375816D01*
X256527684Y-121376362D01*
X256585220Y-121380478D01*
X256585631Y-121380509D01*
X256728056Y-121391719D01*
X256744648Y-121394165D01*
X256834328Y-121413675D01*
X256836893Y-121414262D01*
X256948126Y-121440967D01*
X256962499Y-121445355D01*
X257053531Y-121479309D01*
X257057591Y-121480906D01*
X257158337Y-121522637D01*
X257170289Y-121528355D01*
X257256896Y-121575648D01*
X257257394Y-121575920D01*
X257262755Y-121579024D01*
X257353920Y-121634890D01*
X257363440Y-121641350D01*
X257443639Y-121701386D01*
X257449847Y-121706351D01*
X257530560Y-121775287D01*
X257537688Y-121781877D01*
X257567078Y-121811267D01*
X257608745Y-121852935D01*
X257615354Y-121860084D01*
X257684215Y-121940711D01*
X257689191Y-121946931D01*
X257709077Y-121973495D01*
X257749195Y-122027087D01*
X257749305Y-122027233D01*
X257755766Y-122036755D01*
X257811508Y-122127719D01*
X257814613Y-122133082D01*
X257862303Y-122220421D01*
X257868031Y-122232394D01*
X257909547Y-122332622D01*
X257911168Y-122336742D01*
X257945297Y-122428247D01*
X257949689Y-122442632D01*
X257976160Y-122552890D01*
X257976752Y-122555480D01*
X257996466Y-122646105D01*
X257998918Y-122662734D01*
X258009842Y-122801535D01*
X258009908Y-122802417D01*
X258014809Y-122870935D01*
X258015125Y-122879782D01*
X258015125Y-123620571D01*
X258014809Y-123629418D01*
X258010179Y-123694146D01*
X258010113Y-123695029D01*
X257998904Y-123837443D01*
X257996452Y-123854072D01*
X257977018Y-123943407D01*
X257976426Y-123945995D01*
X257949641Y-124057565D01*
X257945249Y-124071951D01*
X257911436Y-124162609D01*
X257909815Y-124166729D01*
X257867943Y-124267817D01*
X257862215Y-124279790D01*
X257814868Y-124366501D01*
X257811763Y-124371864D01*
X257755623Y-124463477D01*
X257749162Y-124472999D01*
X257689449Y-124552766D01*
X257684472Y-124558987D01*
X257615157Y-124640144D01*
X257608549Y-124647293D01*
X257537920Y-124717923D01*
X257530769Y-124724532D01*
X257449575Y-124793878D01*
X257443357Y-124798853D01*
X257363679Y-124858502D01*
X257354155Y-124864965D01*
X257262330Y-124921235D01*
X257256968Y-124924339D01*
X257170508Y-124971550D01*
X257158534Y-124977279D01*
X257056989Y-125019341D01*
X257052872Y-125020961D01*
X256962706Y-125054593D01*
X256948317Y-125058986D01*
X256835747Y-125086011D01*
X256833159Y-125086603D01*
X256744852Y-125105814D01*
X256728223Y-125108266D01*
X256582328Y-125119750D01*
X256581446Y-125119816D01*
X256520388Y-125124184D01*
X256511540Y-125124500D01*
X199520051Y-125124500D01*
X199511206Y-125124184D01*
X199507529Y-125123921D01*
X199446640Y-125119566D01*
X199445758Y-125119500D01*
X199303160Y-125108278D01*
X199286531Y-125105826D01*
X199197389Y-125086435D01*
X199194799Y-125085843D01*
X199083010Y-125059005D01*
X199068626Y-125054614D01*
X199014671Y-125034491D01*
X198978185Y-125020883D01*
X198974081Y-125019268D01*
X198932120Y-125001887D01*
X198872722Y-124977283D01*
X198860761Y-124971560D01*
X198806164Y-124941749D01*
X198774300Y-124924350D01*
X198768936Y-124921245D01*
X198677052Y-124864938D01*
X198667532Y-124858478D01*
X198587973Y-124798921D01*
X198581752Y-124793945D01*
X198500380Y-124724448D01*
X198493230Y-124717839D01*
X198422792Y-124647402D01*
X198416183Y-124640252D01*
X198347032Y-124559287D01*
X198346632Y-124558818D01*
X198341659Y-124552601D01*
X198282174Y-124473140D01*
X198275724Y-124463636D01*
X198219249Y-124371477D01*
X198216223Y-124366250D01*
X198169094Y-124279940D01*
X198163381Y-124267999D01*
X198121197Y-124166158D01*
X198119594Y-124162084D01*
X198086040Y-124072122D01*
X198081650Y-124057745D01*
X198054536Y-123944807D01*
X198053989Y-123942412D01*
X198034810Y-123854252D01*
X198032359Y-123837625D01*
X198032345Y-123837443D01*
X198020834Y-123691198D01*
X198016440Y-123629777D01*
X198016125Y-123620934D01*
X198016125Y-122879428D01*
X198016441Y-122870583D01*
X198020821Y-122809337D01*
X198021077Y-122805757D01*
X198021136Y-122804973D01*
X198032345Y-122662547D01*
X198034794Y-122645940D01*
X198054264Y-122556439D01*
X198054822Y-122554003D01*
X198081604Y-122442447D01*
X198085990Y-122428081D01*
X198119861Y-122337268D01*
X198121456Y-122333214D01*
X198163290Y-122232218D01*
X198169016Y-122220253D01*
X198205163Y-122154055D01*
X198216457Y-122133371D01*
X198219530Y-122128063D01*
X198275589Y-122036582D01*
X198282013Y-122027115D01*
X198341947Y-121947054D01*
X198346856Y-121940918D01*
X198415985Y-121859978D01*
X198422589Y-121852836D01*
X198493467Y-121781958D01*
X198500596Y-121775367D01*
X198581491Y-121706276D01*
X198587628Y-121701365D01*
X198667803Y-121641350D01*
X198677278Y-121634921D01*
X198768520Y-121579008D01*
X198773800Y-121575951D01*
X198861002Y-121528336D01*
X198872927Y-121522631D01*
X198973500Y-121480972D01*
X198977470Y-121479410D01*
X199068865Y-121445323D01*
X199083180Y-121440953D01*
X199193793Y-121414397D01*
X199196228Y-121413841D01*
X199286722Y-121394156D01*
X199303311Y-121391709D01*
X199442572Y-121380749D01*
X199442768Y-121380734D01*
X199490385Y-121377329D01*
X199511561Y-121375816D01*
X199520403Y-121375500D01*
X217990865Y-121375500D01*
X217991008Y-121375528D01*
X217991009Y-121375524D01*
X218015622Y-121375539D01*
X218015625Y-121375541D01*
X218016008Y-121375383D01*
X218016125Y-121375099D01*
X218016166Y-121375000D01*
X218016166Y-121350446D01*
X218016125Y-121350240D01*
X218016125Y-120399760D01*
X218016153Y-120399616D01*
X218016149Y-120399616D01*
X218016164Y-120375002D01*
X218016166Y-120375000D01*
X218016087Y-120374808D01*
X218016009Y-120374618D01*
X218016005Y-120374614D01*
X218015819Y-120374538D01*
X218015627Y-120374459D01*
X217991071Y-120374459D01*
X217990865Y-120374500D01*
X76584135Y-120374500D01*
X76583929Y-120374459D01*
X76559373Y-120374459D01*
X76559182Y-120374538D01*
X76558994Y-120374615D01*
X76558990Y-120374618D01*
X76558834Y-120374999D01*
X76558851Y-120399616D01*
X76558846Y-120399616D01*
X76558875Y-120399760D01*
X76558875Y-121350240D01*
X76558834Y-121350446D01*
X76558834Y-121375000D01*
X76558875Y-121375099D01*
X76558991Y-121375382D01*
X76558992Y-121375383D01*
X76558993Y-121375384D01*
X76559183Y-121375461D01*
X76559375Y-121375541D01*
X76559377Y-121375539D01*
X76583991Y-121375524D01*
X76583991Y-121375528D01*
X76584135Y-121375500D01*
X95054950Y-121375500D01*
X95063792Y-121375816D01*
X95073282Y-121376494D01*
X95128738Y-121380460D01*
X95128996Y-121380479D01*
X95271864Y-121391723D01*
X95288459Y-121394170D01*
X95358413Y-121409387D01*
X95377609Y-121413563D01*
X95380124Y-121414137D01*
X95491999Y-121440996D01*
X95506353Y-121445378D01*
X95596874Y-121479139D01*
X95600871Y-121480711D01*
X95702294Y-121522723D01*
X95714223Y-121528431D01*
X95800717Y-121575659D01*
X95806062Y-121578753D01*
X95897946Y-121635060D01*
X95907466Y-121641520D01*
X95987025Y-121701077D01*
X95993246Y-121706053D01*
X96058964Y-121762181D01*
X96074519Y-121775466D01*
X96074618Y-121775550D01*
X96081768Y-121782159D01*
X96152206Y-121852596D01*
X96158815Y-121859746D01*
X96228363Y-121941176D01*
X96233339Y-121947397D01*
X96292824Y-122026858D01*
X96299281Y-122036373D01*
X96355735Y-122128497D01*
X96358790Y-122133775D01*
X96405897Y-122220043D01*
X96411625Y-122232016D01*
X96453783Y-122333794D01*
X96455404Y-122337914D01*
X96488958Y-122427876D01*
X96493350Y-122442261D01*
X96520435Y-122555076D01*
X96521027Y-122557666D01*
X96540187Y-122645745D01*
X96542639Y-122662373D01*
X96554137Y-122808454D01*
X96554203Y-122809337D01*
X96558559Y-122870234D01*
X96558875Y-122879081D01*
X96558875Y-123620569D01*
X96558559Y-123629417D01*
X96553927Y-123694163D01*
X96553861Y-123695044D01*
X96542654Y-123837440D01*
X96540202Y-123854069D01*
X96520760Y-123943443D01*
X96520168Y-123946032D01*
X96493397Y-124057541D01*
X96489005Y-124071928D01*
X96455149Y-124162698D01*
X96453528Y-124166817D01*
X96411711Y-124267771D01*
X96405982Y-124279745D01*
X96358551Y-124366608D01*
X96355447Y-124371970D01*
X96299426Y-124463389D01*
X96292965Y-124472911D01*
X96233086Y-124552899D01*
X96228108Y-124559121D01*
X96159017Y-124640014D01*
X96152409Y-124647162D01*
X96081531Y-124718040D01*
X96074382Y-124724649D01*
X95993540Y-124793695D01*
X95987317Y-124798674D01*
X95907226Y-124858627D01*
X95897707Y-124865085D01*
X95806520Y-124920965D01*
X95801156Y-124924071D01*
X95714020Y-124971650D01*
X95702047Y-124977378D01*
X95601563Y-125019000D01*
X95597443Y-125020621D01*
X95506174Y-125054662D01*
X95491787Y-125059054D01*
X95381315Y-125085575D01*
X95378726Y-125086167D01*
X95288288Y-125105840D01*
X95271659Y-125108292D01*
X95132682Y-125119229D01*
X95131800Y-125119295D01*
X95063443Y-125124184D01*
X95054597Y-125124500D01*
X38063807Y-125124500D01*
X38054959Y-125124184D01*
X38049096Y-125123764D01*
X37990058Y-125119540D01*
X37989181Y-125119474D01*
X37846963Y-125108282D01*
X37830330Y-125105830D01*
X37740692Y-125086328D01*
X37738107Y-125085736D01*
X37626878Y-125059033D01*
X37612489Y-125054640D01*
X37521496Y-125020700D01*
X37517378Y-125019080D01*
X37416674Y-124977367D01*
X37404698Y-124971637D01*
X37317604Y-124924078D01*
X37312243Y-124920974D01*
X37221078Y-124865108D01*
X37211558Y-124858648D01*
X37131359Y-124798612D01*
X37125145Y-124793641D01*
X37044442Y-124724714D01*
X37037309Y-124718120D01*
X36966250Y-124647060D01*
X36959644Y-124639914D01*
X36890783Y-124559287D01*
X36885807Y-124553067D01*
X36862975Y-124522568D01*
X36825684Y-124472752D01*
X36819242Y-124463258D01*
X36763484Y-124372269D01*
X36760400Y-124366942D01*
X36712689Y-124279565D01*
X36706970Y-124267612D01*
X36665443Y-124167356D01*
X36663830Y-124163256D01*
X36659152Y-124150714D01*
X36629700Y-124071747D01*
X36625309Y-124057366D01*
X36598815Y-123947010D01*
X36598260Y-123944583D01*
X36578530Y-123853885D01*
X36576082Y-123837278D01*
X36565134Y-123698185D01*
X36560190Y-123629068D01*
X36559875Y-123620225D01*
X36559875Y-122879426D01*
X36560191Y-122870582D01*
X36560250Y-122869755D01*
X36564862Y-122805280D01*
X36576096Y-122662539D01*
X36578543Y-122645942D01*
X36597994Y-122556530D01*
X36598572Y-122554003D01*
X36625360Y-122442422D01*
X36629744Y-122428060D01*
X36663584Y-122337331D01*
X36665159Y-122333328D01*
X36707066Y-122232156D01*
X36712770Y-122220233D01*
X36760161Y-122133442D01*
X36763196Y-122128200D01*
X36819402Y-122036480D01*
X36825805Y-122027044D01*
X36885587Y-121947183D01*
X36890499Y-121941044D01*
X36959859Y-121859834D01*
X36966431Y-121852724D01*
X37037098Y-121782056D01*
X37044209Y-121775484D01*
X37125445Y-121706102D01*
X37131619Y-121701162D01*
X37211352Y-121641473D01*
X37220810Y-121635055D01*
X37312721Y-121578732D01*
X37317993Y-121575679D01*
X37404494Y-121528446D01*
X37416453Y-121522724D01*
X37518059Y-121480637D01*
X37522075Y-121479056D01*
X37612311Y-121445399D01*
X37626662Y-121441017D01*
X37739322Y-121413970D01*
X37741766Y-121413411D01*
X37830153Y-121394182D01*
X37846766Y-121391733D01*
X37993027Y-121380221D01*
X37993163Y-121380211D01*
X38054598Y-121375815D01*
X38063443Y-121375500D01*
X56534615Y-121375500D01*
X56534758Y-121375528D01*
X56534759Y-121375524D01*
X56559372Y-121375539D01*
X56559375Y-121375541D01*
X56559758Y-121375383D01*
X56559875Y-121375099D01*
X56559916Y-121375000D01*
X56559916Y-121350446D01*
X56559875Y-121350240D01*
X56559875Y-120399760D01*
X56559903Y-120399616D01*
X56559899Y-120399616D01*
X56559914Y-120375002D01*
X56559916Y-120375000D01*
X56559837Y-120374808D01*
X56559759Y-120374618D01*
X56559755Y-120374614D01*
X56559569Y-120374538D01*
X56559377Y-120374459D01*
X56534821Y-120374459D01*
X56534615Y-120374500D01*
X19705416Y-120374500D01*
X19694606Y-120374028D01*
X19692001Y-120373800D01*
X19655223Y-120370581D01*
X19653882Y-120370456D01*
X19528239Y-120358082D01*
X19508299Y-120354454D01*
X19443632Y-120337127D01*
X19439730Y-120336013D01*
X19348438Y-120308320D01*
X19332027Y-120302041D01*
X19266156Y-120271324D01*
X19260109Y-120268300D01*
X19180948Y-120225988D01*
X19168281Y-120218207D01*
X19138983Y-120197692D01*
X19107110Y-120175374D01*
X19099571Y-120169654D01*
X19031543Y-120113826D01*
X19022526Y-120105653D01*
X18969345Y-120052472D01*
X18961172Y-120043455D01*
X18905344Y-119975427D01*
X18899624Y-119967888D01*
X18887837Y-119951055D01*
X18856786Y-119906709D01*
X18849010Y-119894050D01*
X18806698Y-119814889D01*
X18803674Y-119808842D01*
X18799292Y-119799445D01*
X18772952Y-119742959D01*
X18766681Y-119726570D01*
X18738966Y-119635202D01*
X18737890Y-119631435D01*
X18720541Y-119566687D01*
X18716918Y-119546773D01*
X18704526Y-119420961D01*
X18704417Y-119419776D01*
X18700972Y-119380392D01*
X18700500Y-119369587D01*
X18700500Y-117406394D01*
X21224500Y-117406394D01*
X21249596Y-117516350D01*
X21298532Y-117617967D01*
X21333196Y-117661433D01*
X21368854Y-117706146D01*
X21411964Y-117740525D01*
X21457032Y-117776467D01*
X21558649Y-117825403D01*
X21668606Y-117850500D01*
X21668607Y-117850500D01*
X21724901Y-117850500D01*
X21725000Y-117850500D01*
X21725500Y-117850500D01*
X34724500Y-117850500D01*
X34725099Y-117850500D01*
X34781393Y-117850500D01*
X34781394Y-117850500D01*
X34840646Y-117836976D01*
X34891351Y-117825403D01*
X34992967Y-117776467D01*
X35081146Y-117706146D01*
X35151467Y-117617967D01*
X35200403Y-117516351D01*
X35225500Y-117406394D01*
X49799500Y-117406394D01*
X49824596Y-117516350D01*
X49873532Y-117617967D01*
X49908196Y-117661433D01*
X49943854Y-117706146D01*
X49986964Y-117740525D01*
X50032032Y-117776467D01*
X50133649Y-117825403D01*
X50243606Y-117850500D01*
X50243607Y-117850500D01*
X50299901Y-117850500D01*
X50300000Y-117850500D01*
X50300500Y-117850500D01*
X63299500Y-117850500D01*
X63300099Y-117850500D01*
X63356393Y-117850500D01*
X63356394Y-117850500D01*
X63415646Y-117836976D01*
X63466351Y-117825403D01*
X63567967Y-117776467D01*
X63656146Y-117706146D01*
X63726467Y-117617967D01*
X63775403Y-117516351D01*
X63800500Y-117406394D01*
X68849500Y-117406394D01*
X68874596Y-117516350D01*
X68923532Y-117617967D01*
X68958196Y-117661433D01*
X68993854Y-117706146D01*
X69036964Y-117740525D01*
X69082032Y-117776467D01*
X69183649Y-117825403D01*
X69293606Y-117850500D01*
X69293607Y-117850500D01*
X69349901Y-117850500D01*
X69350000Y-117850500D01*
X69350500Y-117850500D01*
X82349500Y-117850500D01*
X82350099Y-117850500D01*
X82406393Y-117850500D01*
X82406394Y-117850500D01*
X82465646Y-117836976D01*
X82516351Y-117825403D01*
X82617967Y-117776467D01*
X82706146Y-117706146D01*
X82776467Y-117617967D01*
X82825403Y-117516351D01*
X82850500Y-117406394D01*
X87899500Y-117406394D01*
X87924596Y-117516350D01*
X87973532Y-117617967D01*
X88008196Y-117661433D01*
X88043854Y-117706146D01*
X88086964Y-117740525D01*
X88132032Y-117776467D01*
X88233649Y-117825403D01*
X88343606Y-117850500D01*
X88343607Y-117850500D01*
X88399901Y-117850500D01*
X88400000Y-117850500D01*
X88400500Y-117850500D01*
X101399500Y-117850500D01*
X101400099Y-117850500D01*
X101456393Y-117850500D01*
X101456394Y-117850500D01*
X101515646Y-117836976D01*
X101566351Y-117825403D01*
X101667967Y-117776467D01*
X101756146Y-117706146D01*
X101826467Y-117617967D01*
X101875403Y-117516351D01*
X101900500Y-117406394D01*
X106949500Y-117406394D01*
X106974596Y-117516350D01*
X107023532Y-117617967D01*
X107058196Y-117661433D01*
X107093854Y-117706146D01*
X107136964Y-117740525D01*
X107182032Y-117776467D01*
X107283649Y-117825403D01*
X107393606Y-117850500D01*
X107393607Y-117850500D01*
X107449901Y-117850500D01*
X107450000Y-117850500D01*
X107450500Y-117850500D01*
X120449500Y-117850500D01*
X120450099Y-117850500D01*
X120506393Y-117850500D01*
X120506394Y-117850500D01*
X120565646Y-117836976D01*
X120616351Y-117825403D01*
X120717967Y-117776467D01*
X120806146Y-117706146D01*
X120876467Y-117617967D01*
X120925403Y-117516351D01*
X120950500Y-117406394D01*
X125999500Y-117406394D01*
X126024596Y-117516350D01*
X126073532Y-117617967D01*
X126108196Y-117661433D01*
X126143854Y-117706146D01*
X126186964Y-117740525D01*
X126232032Y-117776467D01*
X126333649Y-117825403D01*
X126443606Y-117850500D01*
X126443607Y-117850500D01*
X126499901Y-117850500D01*
X126500000Y-117850500D01*
X126500500Y-117850500D01*
X139499500Y-117850500D01*
X139500099Y-117850500D01*
X139556393Y-117850500D01*
X139556394Y-117850500D01*
X139615646Y-117836976D01*
X139666351Y-117825403D01*
X139767967Y-117776467D01*
X139856146Y-117706146D01*
X139926467Y-117617967D01*
X139975403Y-117516351D01*
X140000500Y-117406394D01*
X145049500Y-117406394D01*
X145074596Y-117516350D01*
X145123532Y-117617967D01*
X145158196Y-117661433D01*
X145193854Y-117706146D01*
X145236964Y-117740525D01*
X145282032Y-117776467D01*
X145383649Y-117825403D01*
X145493606Y-117850500D01*
X145493607Y-117850500D01*
X145549901Y-117850500D01*
X145550000Y-117850500D01*
X145550500Y-117850500D01*
X158549500Y-117850500D01*
X158550099Y-117850500D01*
X158606393Y-117850500D01*
X158606394Y-117850500D01*
X158665646Y-117836976D01*
X158716351Y-117825403D01*
X158817967Y-117776467D01*
X158906146Y-117706146D01*
X158976467Y-117617967D01*
X159025403Y-117516351D01*
X159050500Y-117406394D01*
X164099500Y-117406394D01*
X164124596Y-117516350D01*
X164173532Y-117617967D01*
X164208196Y-117661433D01*
X164243854Y-117706146D01*
X164286964Y-117740525D01*
X164332032Y-117776467D01*
X164433649Y-117825403D01*
X164543606Y-117850500D01*
X164543607Y-117850500D01*
X164599901Y-117850500D01*
X164600000Y-117850500D01*
X164600500Y-117850500D01*
X177599500Y-117850500D01*
X177600099Y-117850500D01*
X177656393Y-117850500D01*
X177656394Y-117850500D01*
X177715646Y-117836976D01*
X177766351Y-117825403D01*
X177867967Y-117776467D01*
X177956146Y-117706146D01*
X178026467Y-117617967D01*
X178075403Y-117516351D01*
X178100500Y-117406394D01*
X183149500Y-117406394D01*
X183174596Y-117516350D01*
X183223532Y-117617967D01*
X183258196Y-117661433D01*
X183293854Y-117706146D01*
X183336964Y-117740525D01*
X183382032Y-117776467D01*
X183483649Y-117825403D01*
X183593606Y-117850500D01*
X183593607Y-117850500D01*
X183649901Y-117850500D01*
X183650000Y-117850500D01*
X183650500Y-117850500D01*
X196649500Y-117850500D01*
X196650099Y-117850500D01*
X196706393Y-117850500D01*
X196706394Y-117850500D01*
X196765646Y-117836976D01*
X196816351Y-117825403D01*
X196917967Y-117776467D01*
X197006146Y-117706146D01*
X197076467Y-117617967D01*
X197125403Y-117516351D01*
X197150500Y-117406394D01*
X202199500Y-117406394D01*
X202224596Y-117516350D01*
X202273532Y-117617967D01*
X202308196Y-117661433D01*
X202343854Y-117706146D01*
X202386964Y-117740525D01*
X202432032Y-117776467D01*
X202533649Y-117825403D01*
X202643606Y-117850500D01*
X202643607Y-117850500D01*
X202699901Y-117850500D01*
X202700000Y-117850500D01*
X202700500Y-117850500D01*
X215699500Y-117850500D01*
X215700099Y-117850500D01*
X215756393Y-117850500D01*
X215756394Y-117850500D01*
X215815646Y-117836976D01*
X215866351Y-117825403D01*
X215967967Y-117776467D01*
X216056146Y-117706146D01*
X216126467Y-117617967D01*
X216175403Y-117516351D01*
X216200500Y-117406394D01*
X221249500Y-117406394D01*
X221274596Y-117516350D01*
X221323532Y-117617967D01*
X221358196Y-117661433D01*
X221393854Y-117706146D01*
X221436964Y-117740525D01*
X221482032Y-117776467D01*
X221583649Y-117825403D01*
X221693606Y-117850500D01*
X221693607Y-117850500D01*
X221749901Y-117850500D01*
X221750000Y-117850500D01*
X221750500Y-117850500D01*
X234749500Y-117850500D01*
X234750099Y-117850500D01*
X234806393Y-117850500D01*
X234806394Y-117850500D01*
X234865646Y-117836976D01*
X234916351Y-117825403D01*
X235017967Y-117776467D01*
X235106146Y-117706146D01*
X235176467Y-117617967D01*
X235225403Y-117516351D01*
X235250500Y-117406394D01*
X240299500Y-117406394D01*
X240324596Y-117516350D01*
X240373532Y-117617967D01*
X240408196Y-117661433D01*
X240443854Y-117706146D01*
X240486964Y-117740525D01*
X240532032Y-117776467D01*
X240633649Y-117825403D01*
X240743606Y-117850500D01*
X240743607Y-117850500D01*
X240799901Y-117850500D01*
X240800000Y-117850500D01*
X240800500Y-117850500D01*
X253799500Y-117850500D01*
X253800099Y-117850500D01*
X253856393Y-117850500D01*
X253856394Y-117850500D01*
X253915646Y-117836976D01*
X253966351Y-117825403D01*
X254067967Y-117776467D01*
X254156146Y-117706146D01*
X254226467Y-117617967D01*
X254275403Y-117516351D01*
X254300500Y-117406394D01*
X259349500Y-117406394D01*
X259374596Y-117516350D01*
X259423532Y-117617967D01*
X259458196Y-117661433D01*
X259493854Y-117706146D01*
X259536964Y-117740525D01*
X259582032Y-117776467D01*
X259683649Y-117825403D01*
X259793606Y-117850500D01*
X259793607Y-117850500D01*
X259849901Y-117850500D01*
X259850000Y-117850500D01*
X259850500Y-117850500D01*
X272849500Y-117850500D01*
X272850099Y-117850500D01*
X272906393Y-117850500D01*
X272906394Y-117850500D01*
X272965646Y-117836976D01*
X273016351Y-117825403D01*
X273117967Y-117776467D01*
X273206146Y-117706146D01*
X273276467Y-117617967D01*
X273325403Y-117516351D01*
X273350500Y-117406393D01*
X273350500Y-117350000D01*
X273350500Y-117349500D01*
X273350500Y-104349901D01*
X273350500Y-104293607D01*
X273338002Y-104238851D01*
X273325403Y-104183649D01*
X273276467Y-104082032D01*
X273241804Y-104038567D01*
X273206146Y-103993854D01*
X273167023Y-103962654D01*
X273117967Y-103923532D01*
X273016350Y-103874596D01*
X272906394Y-103849500D01*
X272906393Y-103849500D01*
X272850099Y-103849500D01*
X259850500Y-103849500D01*
X259850000Y-103849500D01*
X259793607Y-103849500D01*
X259793606Y-103849500D01*
X259683649Y-103874596D01*
X259582032Y-103923532D01*
X259493854Y-103993854D01*
X259423532Y-104082032D01*
X259374596Y-104183649D01*
X259349500Y-104293606D01*
X259349500Y-117406394D01*
X254300500Y-117406394D01*
X254300500Y-117406393D01*
X254300500Y-117350000D01*
X254300500Y-117349500D01*
X254300500Y-104349901D01*
X254300500Y-104293607D01*
X254288002Y-104238851D01*
X254275403Y-104183649D01*
X254226467Y-104082032D01*
X254191804Y-104038567D01*
X254156146Y-103993854D01*
X254117023Y-103962654D01*
X254067967Y-103923532D01*
X253966350Y-103874596D01*
X253856394Y-103849500D01*
X253856393Y-103849500D01*
X253800099Y-103849500D01*
X240800500Y-103849500D01*
X240800000Y-103849500D01*
X240743607Y-103849500D01*
X240743606Y-103849500D01*
X240633649Y-103874596D01*
X240532032Y-103923532D01*
X240443854Y-103993854D01*
X240373532Y-104082032D01*
X240324596Y-104183649D01*
X240299500Y-104293606D01*
X240299500Y-117406394D01*
X235250500Y-117406394D01*
X235250500Y-117406393D01*
X235250500Y-117350000D01*
X235250500Y-117349500D01*
X235250500Y-104349901D01*
X235250500Y-104293607D01*
X235238002Y-104238851D01*
X235225403Y-104183649D01*
X235176467Y-104082032D01*
X235141804Y-104038567D01*
X235106146Y-103993854D01*
X235067023Y-103962654D01*
X235017967Y-103923532D01*
X234916350Y-103874596D01*
X234806394Y-103849500D01*
X234806393Y-103849500D01*
X234750099Y-103849500D01*
X221750500Y-103849500D01*
X221750000Y-103849500D01*
X221693607Y-103849500D01*
X221693606Y-103849500D01*
X221583649Y-103874596D01*
X221482032Y-103923532D01*
X221393854Y-103993854D01*
X221323532Y-104082032D01*
X221274596Y-104183649D01*
X221249500Y-104293606D01*
X221249500Y-117406394D01*
X216200500Y-117406394D01*
X216200500Y-117406393D01*
X216200500Y-117350000D01*
X216200500Y-117349500D01*
X216200500Y-104349901D01*
X216200500Y-104293607D01*
X216188002Y-104238851D01*
X216175403Y-104183649D01*
X216126467Y-104082032D01*
X216091804Y-104038567D01*
X216056146Y-103993854D01*
X216017023Y-103962654D01*
X215967967Y-103923532D01*
X215866350Y-103874596D01*
X215756394Y-103849500D01*
X215756393Y-103849500D01*
X215700099Y-103849500D01*
X202700500Y-103849500D01*
X202700000Y-103849500D01*
X202643607Y-103849500D01*
X202643606Y-103849500D01*
X202533649Y-103874596D01*
X202432032Y-103923532D01*
X202343854Y-103993854D01*
X202273532Y-104082032D01*
X202224596Y-104183649D01*
X202199500Y-104293606D01*
X202199500Y-117406394D01*
X197150500Y-117406394D01*
X197150500Y-117406393D01*
X197150500Y-117350000D01*
X197150500Y-117349500D01*
X197150500Y-104349901D01*
X197150500Y-104293607D01*
X197138002Y-104238851D01*
X197125403Y-104183649D01*
X197076467Y-104082032D01*
X197041804Y-104038567D01*
X197006146Y-103993854D01*
X196967023Y-103962654D01*
X196917967Y-103923532D01*
X196816350Y-103874596D01*
X196706394Y-103849500D01*
X196706393Y-103849500D01*
X196650099Y-103849500D01*
X183650500Y-103849500D01*
X183650000Y-103849500D01*
X183593607Y-103849500D01*
X183593606Y-103849500D01*
X183483649Y-103874596D01*
X183382032Y-103923532D01*
X183293854Y-103993854D01*
X183223532Y-104082032D01*
X183174596Y-104183649D01*
X183149500Y-104293606D01*
X183149500Y-117406394D01*
X178100500Y-117406394D01*
X178100500Y-117406393D01*
X178100500Y-117350000D01*
X178100500Y-117349500D01*
X178100500Y-104349901D01*
X178100500Y-104293607D01*
X178088002Y-104238851D01*
X178075403Y-104183649D01*
X178026467Y-104082032D01*
X177991804Y-104038567D01*
X177956146Y-103993854D01*
X177917023Y-103962654D01*
X177867967Y-103923532D01*
X177766350Y-103874596D01*
X177656394Y-103849500D01*
X177656393Y-103849500D01*
X177600099Y-103849500D01*
X164600500Y-103849500D01*
X164600000Y-103849500D01*
X164543607Y-103849500D01*
X164543606Y-103849500D01*
X164433649Y-103874596D01*
X164332032Y-103923532D01*
X164243854Y-103993854D01*
X164173532Y-104082032D01*
X164124596Y-104183649D01*
X164099500Y-104293606D01*
X164099500Y-117406394D01*
X159050500Y-117406394D01*
X159050500Y-117406393D01*
X159050500Y-117350000D01*
X159050500Y-117349500D01*
X159050500Y-104349901D01*
X159050500Y-104293607D01*
X159038002Y-104238851D01*
X159025403Y-104183649D01*
X158976467Y-104082032D01*
X158941804Y-104038567D01*
X158906146Y-103993854D01*
X158867023Y-103962654D01*
X158817967Y-103923532D01*
X158716350Y-103874596D01*
X158606394Y-103849500D01*
X158606393Y-103849500D01*
X158550099Y-103849500D01*
X145550500Y-103849500D01*
X145550000Y-103849500D01*
X145493607Y-103849500D01*
X145493606Y-103849500D01*
X145383649Y-103874596D01*
X145282032Y-103923532D01*
X145193854Y-103993854D01*
X145123532Y-104082032D01*
X145074596Y-104183649D01*
X145049500Y-104293606D01*
X145049500Y-117406394D01*
X140000500Y-117406394D01*
X140000500Y-117406393D01*
X140000500Y-117350000D01*
X140000500Y-117349500D01*
X140000500Y-104349901D01*
X140000500Y-104293607D01*
X139988002Y-104238851D01*
X139975403Y-104183649D01*
X139926467Y-104082032D01*
X139891804Y-104038567D01*
X139856146Y-103993854D01*
X139817023Y-103962654D01*
X139767967Y-103923532D01*
X139666350Y-103874596D01*
X139556394Y-103849500D01*
X139556393Y-103849500D01*
X139500099Y-103849500D01*
X126500500Y-103849500D01*
X126500000Y-103849500D01*
X126443607Y-103849500D01*
X126443606Y-103849500D01*
X126333649Y-103874596D01*
X126232032Y-103923532D01*
X126143854Y-103993854D01*
X126073532Y-104082032D01*
X126024596Y-104183649D01*
X125999500Y-104293606D01*
X125999500Y-117406394D01*
X120950500Y-117406394D01*
X120950500Y-117406393D01*
X120950500Y-117350000D01*
X120950500Y-117349500D01*
X120950500Y-104349901D01*
X120950500Y-104293607D01*
X120938002Y-104238851D01*
X120925403Y-104183649D01*
X120876467Y-104082032D01*
X120841804Y-104038567D01*
X120806146Y-103993854D01*
X120767023Y-103962654D01*
X120717967Y-103923532D01*
X120616350Y-103874596D01*
X120506394Y-103849500D01*
X120506393Y-103849500D01*
X120450099Y-103849500D01*
X107450500Y-103849500D01*
X107450000Y-103849500D01*
X107393607Y-103849500D01*
X107393606Y-103849500D01*
X107283649Y-103874596D01*
X107182032Y-103923532D01*
X107093854Y-103993854D01*
X107023532Y-104082032D01*
X106974596Y-104183649D01*
X106949500Y-104293606D01*
X106949500Y-117406394D01*
X101900500Y-117406394D01*
X101900500Y-117406393D01*
X101900500Y-117350000D01*
X101900500Y-117349500D01*
X101900500Y-104349901D01*
X101900500Y-104293607D01*
X101888002Y-104238851D01*
X101875403Y-104183649D01*
X101826467Y-104082032D01*
X101791804Y-104038567D01*
X101756146Y-103993854D01*
X101717023Y-103962654D01*
X101667967Y-103923532D01*
X101566350Y-103874596D01*
X101456394Y-103849500D01*
X101456393Y-103849500D01*
X101400099Y-103849500D01*
X88400500Y-103849500D01*
X88400000Y-103849500D01*
X88343607Y-103849500D01*
X88343606Y-103849500D01*
X88233649Y-103874596D01*
X88132032Y-103923532D01*
X88043854Y-103993854D01*
X87973532Y-104082032D01*
X87924596Y-104183649D01*
X87899500Y-104293606D01*
X87899500Y-117406394D01*
X82850500Y-117406394D01*
X82850500Y-117406393D01*
X82850500Y-117350000D01*
X82850500Y-117349500D01*
X82850500Y-104349901D01*
X82850500Y-104293607D01*
X82838002Y-104238851D01*
X82825403Y-104183649D01*
X82776467Y-104082032D01*
X82741804Y-104038567D01*
X82706146Y-103993854D01*
X82667023Y-103962654D01*
X82617967Y-103923532D01*
X82516350Y-103874596D01*
X82406394Y-103849500D01*
X82406393Y-103849500D01*
X82350099Y-103849500D01*
X69350500Y-103849500D01*
X69350000Y-103849500D01*
X69293607Y-103849500D01*
X69293606Y-103849500D01*
X69183649Y-103874596D01*
X69082032Y-103923532D01*
X68993854Y-103993854D01*
X68923532Y-104082032D01*
X68874596Y-104183649D01*
X68849500Y-104293606D01*
X68849500Y-117406394D01*
X63800500Y-117406394D01*
X63800500Y-117406393D01*
X63800500Y-117350000D01*
X63800500Y-117349500D01*
X63800500Y-104349901D01*
X63800500Y-104293607D01*
X63788002Y-104238851D01*
X63775403Y-104183649D01*
X63726467Y-104082032D01*
X63691804Y-104038567D01*
X63656146Y-103993854D01*
X63617023Y-103962654D01*
X63567967Y-103923532D01*
X63466350Y-103874596D01*
X63356394Y-103849500D01*
X63356393Y-103849500D01*
X63300099Y-103849500D01*
X50300500Y-103849500D01*
X50300000Y-103849500D01*
X50243607Y-103849500D01*
X50243606Y-103849500D01*
X50133649Y-103874596D01*
X50032032Y-103923532D01*
X49943854Y-103993854D01*
X49873532Y-104082032D01*
X49824596Y-104183649D01*
X49799500Y-104293606D01*
X49799500Y-117406394D01*
X35225500Y-117406394D01*
X35225500Y-117406393D01*
X35225500Y-117350000D01*
X35225500Y-117349500D01*
X35225500Y-104349901D01*
X35225500Y-104293607D01*
X35213002Y-104238851D01*
X35200403Y-104183649D01*
X35151467Y-104082032D01*
X35116804Y-104038567D01*
X35081146Y-103993854D01*
X35042023Y-103962654D01*
X34992967Y-103923532D01*
X34891350Y-103874596D01*
X34781394Y-103849500D01*
X34781393Y-103849500D01*
X34725099Y-103849500D01*
X21725500Y-103849500D01*
X21725000Y-103849500D01*
X21668607Y-103849500D01*
X21668606Y-103849500D01*
X21558649Y-103874596D01*
X21457032Y-103923532D01*
X21368854Y-103993854D01*
X21298532Y-104082032D01*
X21249596Y-104183649D01*
X21224500Y-104293606D01*
X21224500Y-117406394D01*
X18700500Y-117406394D01*
X18700500Y-98356394D01*
X21224500Y-98356394D01*
X21249596Y-98466350D01*
X21298532Y-98567967D01*
X21333196Y-98611433D01*
X21368854Y-98656146D01*
X21411964Y-98690525D01*
X21457032Y-98726467D01*
X21558649Y-98775403D01*
X21668606Y-98800500D01*
X21668607Y-98800500D01*
X21724901Y-98800500D01*
X21725000Y-98800500D01*
X21725500Y-98800500D01*
X34724500Y-98800500D01*
X34725099Y-98800500D01*
X34781393Y-98800500D01*
X34781394Y-98800500D01*
X34840646Y-98786976D01*
X34891351Y-98775403D01*
X34992967Y-98726467D01*
X35081146Y-98656146D01*
X35151467Y-98567967D01*
X35200403Y-98466351D01*
X35225500Y-98356394D01*
X49799500Y-98356394D01*
X49824596Y-98466350D01*
X49873532Y-98567967D01*
X49908196Y-98611433D01*
X49943854Y-98656146D01*
X49986964Y-98690525D01*
X50032032Y-98726467D01*
X50133649Y-98775403D01*
X50243606Y-98800500D01*
X50243607Y-98800500D01*
X50299901Y-98800500D01*
X50300000Y-98800500D01*
X50300500Y-98800500D01*
X63299500Y-98800500D01*
X63300099Y-98800500D01*
X63356393Y-98800500D01*
X63356394Y-98800500D01*
X63415646Y-98786976D01*
X63466351Y-98775403D01*
X63567967Y-98726467D01*
X63656146Y-98656146D01*
X63726467Y-98567967D01*
X63775403Y-98466351D01*
X63800500Y-98356394D01*
X68849500Y-98356394D01*
X68874596Y-98466350D01*
X68923532Y-98567967D01*
X68958196Y-98611433D01*
X68993854Y-98656146D01*
X69036964Y-98690525D01*
X69082032Y-98726467D01*
X69183649Y-98775403D01*
X69293606Y-98800500D01*
X69293607Y-98800500D01*
X69349901Y-98800500D01*
X69350000Y-98800500D01*
X69350500Y-98800500D01*
X82349500Y-98800500D01*
X82350099Y-98800500D01*
X82406393Y-98800500D01*
X82406394Y-98800500D01*
X82465646Y-98786976D01*
X82516351Y-98775403D01*
X82617967Y-98726467D01*
X82706146Y-98656146D01*
X82776467Y-98567967D01*
X82825403Y-98466351D01*
X82850500Y-98356394D01*
X87899500Y-98356394D01*
X87924596Y-98466350D01*
X87973532Y-98567967D01*
X88008196Y-98611433D01*
X88043854Y-98656146D01*
X88086964Y-98690525D01*
X88132032Y-98726467D01*
X88233649Y-98775403D01*
X88343606Y-98800500D01*
X88343607Y-98800500D01*
X88399901Y-98800500D01*
X88400000Y-98800500D01*
X88400500Y-98800500D01*
X101399500Y-98800500D01*
X101400099Y-98800500D01*
X101456393Y-98800500D01*
X101456394Y-98800500D01*
X101515646Y-98786976D01*
X101566351Y-98775403D01*
X101667967Y-98726467D01*
X101756146Y-98656146D01*
X101826467Y-98567967D01*
X101875403Y-98466351D01*
X101900500Y-98356394D01*
X106949500Y-98356394D01*
X106974596Y-98466350D01*
X107023532Y-98567967D01*
X107058196Y-98611433D01*
X107093854Y-98656146D01*
X107136964Y-98690525D01*
X107182032Y-98726467D01*
X107283649Y-98775403D01*
X107393606Y-98800500D01*
X107393607Y-98800500D01*
X107449901Y-98800500D01*
X107450000Y-98800500D01*
X107450500Y-98800500D01*
X120449500Y-98800500D01*
X120450099Y-98800500D01*
X120506393Y-98800500D01*
X120506394Y-98800500D01*
X120565646Y-98786976D01*
X120616351Y-98775403D01*
X120717967Y-98726467D01*
X120806146Y-98656146D01*
X120876467Y-98567967D01*
X120925403Y-98466351D01*
X120950500Y-98356394D01*
X125999500Y-98356394D01*
X126024596Y-98466350D01*
X126073532Y-98567967D01*
X126108196Y-98611433D01*
X126143854Y-98656146D01*
X126186964Y-98690525D01*
X126232032Y-98726467D01*
X126333649Y-98775403D01*
X126443606Y-98800500D01*
X126443607Y-98800500D01*
X126499901Y-98800500D01*
X126500000Y-98800500D01*
X126500500Y-98800500D01*
X139499500Y-98800500D01*
X139500099Y-98800500D01*
X139556393Y-98800500D01*
X139556394Y-98800500D01*
X139615646Y-98786976D01*
X139666351Y-98775403D01*
X139767967Y-98726467D01*
X139856146Y-98656146D01*
X139926467Y-98567967D01*
X139975403Y-98466351D01*
X140000500Y-98356394D01*
X145049500Y-98356394D01*
X145074596Y-98466350D01*
X145123532Y-98567967D01*
X145158196Y-98611433D01*
X145193854Y-98656146D01*
X145236964Y-98690525D01*
X145282032Y-98726467D01*
X145383649Y-98775403D01*
X145493606Y-98800500D01*
X145493607Y-98800500D01*
X145549901Y-98800500D01*
X145550000Y-98800500D01*
X145550500Y-98800500D01*
X158549500Y-98800500D01*
X158550099Y-98800500D01*
X158606393Y-98800500D01*
X158606394Y-98800500D01*
X158665646Y-98786976D01*
X158716351Y-98775403D01*
X158817967Y-98726467D01*
X158906146Y-98656146D01*
X158976467Y-98567967D01*
X159025403Y-98466351D01*
X159050500Y-98356394D01*
X164099500Y-98356394D01*
X164124596Y-98466350D01*
X164173532Y-98567967D01*
X164208196Y-98611433D01*
X164243854Y-98656146D01*
X164286964Y-98690525D01*
X164332032Y-98726467D01*
X164433649Y-98775403D01*
X164543606Y-98800500D01*
X164543607Y-98800500D01*
X164599901Y-98800500D01*
X164600000Y-98800500D01*
X164600500Y-98800500D01*
X177599500Y-98800500D01*
X177600099Y-98800500D01*
X177656393Y-98800500D01*
X177656394Y-98800500D01*
X177715646Y-98786976D01*
X177766351Y-98775403D01*
X177867967Y-98726467D01*
X177956146Y-98656146D01*
X178026467Y-98567967D01*
X178075403Y-98466351D01*
X178100500Y-98356394D01*
X183149500Y-98356394D01*
X183174596Y-98466350D01*
X183223532Y-98567967D01*
X183258196Y-98611433D01*
X183293854Y-98656146D01*
X183336964Y-98690525D01*
X183382032Y-98726467D01*
X183483649Y-98775403D01*
X183593606Y-98800500D01*
X183593607Y-98800500D01*
X183649901Y-98800500D01*
X183650000Y-98800500D01*
X183650500Y-98800500D01*
X196649500Y-98800500D01*
X196650099Y-98800500D01*
X196706393Y-98800500D01*
X196706394Y-98800500D01*
X196765646Y-98786976D01*
X196816351Y-98775403D01*
X196917967Y-98726467D01*
X197006146Y-98656146D01*
X197076467Y-98567967D01*
X197125403Y-98466351D01*
X197150500Y-98356394D01*
X202199500Y-98356394D01*
X202224596Y-98466350D01*
X202273532Y-98567967D01*
X202308196Y-98611433D01*
X202343854Y-98656146D01*
X202386964Y-98690525D01*
X202432032Y-98726467D01*
X202533649Y-98775403D01*
X202643606Y-98800500D01*
X202643607Y-98800500D01*
X202699901Y-98800500D01*
X202700000Y-98800500D01*
X202700500Y-98800500D01*
X215699500Y-98800500D01*
X215700099Y-98800500D01*
X215756393Y-98800500D01*
X215756394Y-98800500D01*
X215815646Y-98786976D01*
X215866351Y-98775403D01*
X215967967Y-98726467D01*
X216056146Y-98656146D01*
X216126467Y-98567967D01*
X216175403Y-98466351D01*
X216200500Y-98356394D01*
X221249500Y-98356394D01*
X221274596Y-98466350D01*
X221323532Y-98567967D01*
X221358196Y-98611433D01*
X221393854Y-98656146D01*
X221436964Y-98690525D01*
X221482032Y-98726467D01*
X221583649Y-98775403D01*
X221693606Y-98800500D01*
X221693607Y-98800500D01*
X221749901Y-98800500D01*
X221750000Y-98800500D01*
X221750500Y-98800500D01*
X234749500Y-98800500D01*
X234750099Y-98800500D01*
X234806393Y-98800500D01*
X234806394Y-98800500D01*
X234865646Y-98786976D01*
X234916351Y-98775403D01*
X235017967Y-98726467D01*
X235106146Y-98656146D01*
X235176467Y-98567967D01*
X235225403Y-98466351D01*
X235250500Y-98356394D01*
X240299500Y-98356394D01*
X240324596Y-98466350D01*
X240373532Y-98567967D01*
X240408196Y-98611433D01*
X240443854Y-98656146D01*
X240486964Y-98690525D01*
X240532032Y-98726467D01*
X240633649Y-98775403D01*
X240743606Y-98800500D01*
X240743607Y-98800500D01*
X240799901Y-98800500D01*
X240800000Y-98800500D01*
X240800500Y-98800500D01*
X253799500Y-98800500D01*
X253800099Y-98800500D01*
X253856393Y-98800500D01*
X253856394Y-98800500D01*
X253915646Y-98786976D01*
X253966351Y-98775403D01*
X254067967Y-98726467D01*
X254156146Y-98656146D01*
X254226467Y-98567967D01*
X254275403Y-98466351D01*
X254300500Y-98356394D01*
X259349500Y-98356394D01*
X259374596Y-98466350D01*
X259423532Y-98567967D01*
X259458196Y-98611433D01*
X259493854Y-98656146D01*
X259536964Y-98690525D01*
X259582032Y-98726467D01*
X259683649Y-98775403D01*
X259793606Y-98800500D01*
X259793607Y-98800500D01*
X259849901Y-98800500D01*
X259850000Y-98800500D01*
X259850500Y-98800500D01*
X272849500Y-98800500D01*
X272850099Y-98800500D01*
X272906393Y-98800500D01*
X272906394Y-98800500D01*
X272965646Y-98786976D01*
X273016351Y-98775403D01*
X273117967Y-98726467D01*
X273206146Y-98656146D01*
X273276467Y-98567967D01*
X273325403Y-98466351D01*
X273350500Y-98356393D01*
X273350500Y-98300000D01*
X273350500Y-98299500D01*
X273350500Y-85299901D01*
X273350500Y-85243607D01*
X273338002Y-85188851D01*
X273325403Y-85133649D01*
X273276467Y-85032032D01*
X273241804Y-84988567D01*
X273206146Y-84943854D01*
X273167023Y-84912654D01*
X273117967Y-84873532D01*
X273016350Y-84824596D01*
X272906394Y-84799500D01*
X272906393Y-84799500D01*
X272850099Y-84799500D01*
X259850500Y-84799500D01*
X259850000Y-84799500D01*
X259793607Y-84799500D01*
X259793606Y-84799500D01*
X259683649Y-84824596D01*
X259582032Y-84873532D01*
X259493854Y-84943854D01*
X259423532Y-85032032D01*
X259374596Y-85133649D01*
X259349500Y-85243606D01*
X259349500Y-98356394D01*
X254300500Y-98356394D01*
X254300500Y-98356393D01*
X254300500Y-98300000D01*
X254300500Y-98299500D01*
X254300500Y-85299901D01*
X254300500Y-85243607D01*
X254288002Y-85188851D01*
X254275403Y-85133649D01*
X254226467Y-85032032D01*
X254191804Y-84988567D01*
X254156146Y-84943854D01*
X254117023Y-84912654D01*
X254067967Y-84873532D01*
X253966350Y-84824596D01*
X253856394Y-84799500D01*
X253856393Y-84799500D01*
X253800099Y-84799500D01*
X240800500Y-84799500D01*
X240800000Y-84799500D01*
X240743607Y-84799500D01*
X240743606Y-84799500D01*
X240633649Y-84824596D01*
X240532032Y-84873532D01*
X240443854Y-84943854D01*
X240373532Y-85032032D01*
X240324596Y-85133649D01*
X240299500Y-85243606D01*
X240299500Y-98356394D01*
X235250500Y-98356394D01*
X235250500Y-98356393D01*
X235250500Y-98300000D01*
X235250500Y-98299500D01*
X235250500Y-85299901D01*
X235250500Y-85243607D01*
X235238002Y-85188851D01*
X235225403Y-85133649D01*
X235176467Y-85032032D01*
X235141804Y-84988567D01*
X235106146Y-84943854D01*
X235067023Y-84912654D01*
X235017967Y-84873532D01*
X234916350Y-84824596D01*
X234806394Y-84799500D01*
X234806393Y-84799500D01*
X234750099Y-84799500D01*
X221750500Y-84799500D01*
X221750000Y-84799500D01*
X221693607Y-84799500D01*
X221693606Y-84799500D01*
X221583649Y-84824596D01*
X221482032Y-84873532D01*
X221393854Y-84943854D01*
X221323532Y-85032032D01*
X221274596Y-85133649D01*
X221249500Y-85243606D01*
X221249500Y-98356394D01*
X216200500Y-98356394D01*
X216200500Y-98356393D01*
X216200500Y-98300000D01*
X216200500Y-98299500D01*
X216200500Y-85299901D01*
X216200500Y-85243607D01*
X216188002Y-85188851D01*
X216175403Y-85133649D01*
X216126467Y-85032032D01*
X216091804Y-84988567D01*
X216056146Y-84943854D01*
X216017023Y-84912654D01*
X215967967Y-84873532D01*
X215866350Y-84824596D01*
X215756394Y-84799500D01*
X215756393Y-84799500D01*
X215700099Y-84799500D01*
X202700500Y-84799500D01*
X202700000Y-84799500D01*
X202643607Y-84799500D01*
X202643606Y-84799500D01*
X202533649Y-84824596D01*
X202432032Y-84873532D01*
X202343854Y-84943854D01*
X202273532Y-85032032D01*
X202224596Y-85133649D01*
X202199500Y-85243606D01*
X202199500Y-98356394D01*
X197150500Y-98356394D01*
X197150500Y-98356393D01*
X197150500Y-98300000D01*
X197150500Y-98299500D01*
X197150500Y-85299901D01*
X197150500Y-85243607D01*
X197138002Y-85188851D01*
X197125403Y-85133649D01*
X197076467Y-85032032D01*
X197041804Y-84988567D01*
X197006146Y-84943854D01*
X196967023Y-84912654D01*
X196917967Y-84873532D01*
X196816350Y-84824596D01*
X196706394Y-84799500D01*
X196706393Y-84799500D01*
X196650099Y-84799500D01*
X183650500Y-84799500D01*
X183650000Y-84799500D01*
X183593607Y-84799500D01*
X183593606Y-84799500D01*
X183483649Y-84824596D01*
X183382032Y-84873532D01*
X183293854Y-84943854D01*
X183223532Y-85032032D01*
X183174596Y-85133649D01*
X183149500Y-85243606D01*
X183149500Y-98356394D01*
X178100500Y-98356394D01*
X178100500Y-98356393D01*
X178100500Y-98300000D01*
X178100500Y-98299500D01*
X178100500Y-85299901D01*
X178100500Y-85243607D01*
X178088002Y-85188851D01*
X178075403Y-85133649D01*
X178026467Y-85032032D01*
X177991804Y-84988567D01*
X177956146Y-84943854D01*
X177917023Y-84912654D01*
X177867967Y-84873532D01*
X177766350Y-84824596D01*
X177656394Y-84799500D01*
X177656393Y-84799500D01*
X177600099Y-84799500D01*
X164600500Y-84799500D01*
X164600000Y-84799500D01*
X164543607Y-84799500D01*
X164543606Y-84799500D01*
X164433649Y-84824596D01*
X164332032Y-84873532D01*
X164243854Y-84943854D01*
X164173532Y-85032032D01*
X164124596Y-85133649D01*
X164099500Y-85243606D01*
X164099500Y-98356394D01*
X159050500Y-98356394D01*
X159050500Y-98356393D01*
X159050500Y-98300000D01*
X159050500Y-98299500D01*
X159050500Y-85299901D01*
X159050500Y-85243607D01*
X159038002Y-85188851D01*
X159025403Y-85133649D01*
X158976467Y-85032032D01*
X158941804Y-84988567D01*
X158906146Y-84943854D01*
X158867023Y-84912654D01*
X158817967Y-84873532D01*
X158716350Y-84824596D01*
X158606394Y-84799500D01*
X158606393Y-84799500D01*
X158550099Y-84799500D01*
X145550500Y-84799500D01*
X145550000Y-84799500D01*
X145493607Y-84799500D01*
X145493606Y-84799500D01*
X145383649Y-84824596D01*
X145282032Y-84873532D01*
X145193854Y-84943854D01*
X145123532Y-85032032D01*
X145074596Y-85133649D01*
X145049500Y-85243606D01*
X145049500Y-98356394D01*
X140000500Y-98356394D01*
X140000500Y-98356393D01*
X140000500Y-98300000D01*
X140000500Y-98299500D01*
X140000500Y-85299901D01*
X140000500Y-85243607D01*
X139988002Y-85188851D01*
X139975403Y-85133649D01*
X139926467Y-85032032D01*
X139891804Y-84988567D01*
X139856146Y-84943854D01*
X139817023Y-84912654D01*
X139767967Y-84873532D01*
X139666350Y-84824596D01*
X139556394Y-84799500D01*
X139556393Y-84799500D01*
X139500099Y-84799500D01*
X126500500Y-84799500D01*
X126500000Y-84799500D01*
X126443607Y-84799500D01*
X126443606Y-84799500D01*
X126333649Y-84824596D01*
X126232032Y-84873532D01*
X126143854Y-84943854D01*
X126073532Y-85032032D01*
X126024596Y-85133649D01*
X125999500Y-85243606D01*
X125999500Y-98356394D01*
X120950500Y-98356394D01*
X120950500Y-98356393D01*
X120950500Y-98300000D01*
X120950500Y-98299500D01*
X120950500Y-85299901D01*
X120950500Y-85243607D01*
X120938002Y-85188851D01*
X120925403Y-85133649D01*
X120876467Y-85032032D01*
X120841804Y-84988567D01*
X120806146Y-84943854D01*
X120767023Y-84912654D01*
X120717967Y-84873532D01*
X120616350Y-84824596D01*
X120506394Y-84799500D01*
X120506393Y-84799500D01*
X120450099Y-84799500D01*
X107450500Y-84799500D01*
X107450000Y-84799500D01*
X107393607Y-84799500D01*
X107393606Y-84799500D01*
X107283649Y-84824596D01*
X107182032Y-84873532D01*
X107093854Y-84943854D01*
X107023532Y-85032032D01*
X106974596Y-85133649D01*
X106949500Y-85243606D01*
X106949500Y-98356394D01*
X101900500Y-98356394D01*
X101900500Y-98356393D01*
X101900500Y-98300000D01*
X101900500Y-98299500D01*
X101900500Y-85299901D01*
X101900500Y-85243607D01*
X101888002Y-85188851D01*
X101875403Y-85133649D01*
X101826467Y-85032032D01*
X101791804Y-84988567D01*
X101756146Y-84943854D01*
X101717023Y-84912654D01*
X101667967Y-84873532D01*
X101566350Y-84824596D01*
X101456394Y-84799500D01*
X101456393Y-84799500D01*
X101400099Y-84799500D01*
X88400500Y-84799500D01*
X88400000Y-84799500D01*
X88343607Y-84799500D01*
X88343606Y-84799500D01*
X88233649Y-84824596D01*
X88132032Y-84873532D01*
X88043854Y-84943854D01*
X87973532Y-85032032D01*
X87924596Y-85133649D01*
X87899500Y-85243606D01*
X87899500Y-98356394D01*
X82850500Y-98356394D01*
X82850500Y-98356393D01*
X82850500Y-98300000D01*
X82850500Y-98299500D01*
X82850500Y-85299901D01*
X82850500Y-85243607D01*
X82838002Y-85188851D01*
X82825403Y-85133649D01*
X82776467Y-85032032D01*
X82741804Y-84988567D01*
X82706146Y-84943854D01*
X82667023Y-84912654D01*
X82617967Y-84873532D01*
X82516350Y-84824596D01*
X82406394Y-84799500D01*
X82406393Y-84799500D01*
X82350099Y-84799500D01*
X69350500Y-84799500D01*
X69350000Y-84799500D01*
X69293607Y-84799500D01*
X69293606Y-84799500D01*
X69183649Y-84824596D01*
X69082032Y-84873532D01*
X68993854Y-84943854D01*
X68923532Y-85032032D01*
X68874596Y-85133649D01*
X68849500Y-85243606D01*
X68849500Y-98356394D01*
X63800500Y-98356394D01*
X63800500Y-98356393D01*
X63800500Y-98300000D01*
X63800500Y-98299500D01*
X63800500Y-85299901D01*
X63800500Y-85243607D01*
X63788002Y-85188851D01*
X63775403Y-85133649D01*
X63726467Y-85032032D01*
X63691804Y-84988567D01*
X63656146Y-84943854D01*
X63617023Y-84912654D01*
X63567967Y-84873532D01*
X63466350Y-84824596D01*
X63356394Y-84799500D01*
X63356393Y-84799500D01*
X63300099Y-84799500D01*
X50300500Y-84799500D01*
X50300000Y-84799500D01*
X50243607Y-84799500D01*
X50243606Y-84799500D01*
X50133649Y-84824596D01*
X50032032Y-84873532D01*
X49943854Y-84943854D01*
X49873532Y-85032032D01*
X49824596Y-85133649D01*
X49799500Y-85243606D01*
X49799500Y-98356394D01*
X35225500Y-98356394D01*
X35225500Y-98356393D01*
X35225500Y-98300000D01*
X35225500Y-98299500D01*
X35225500Y-85299901D01*
X35225500Y-85243607D01*
X35213002Y-85188851D01*
X35200403Y-85133649D01*
X35151467Y-85032032D01*
X35116804Y-84988567D01*
X35081146Y-84943854D01*
X35042023Y-84912654D01*
X34992967Y-84873532D01*
X34891350Y-84824596D01*
X34781394Y-84799500D01*
X34781393Y-84799500D01*
X34725099Y-84799500D01*
X21725500Y-84799500D01*
X21725000Y-84799500D01*
X21668607Y-84799500D01*
X21668606Y-84799500D01*
X21558649Y-84824596D01*
X21457032Y-84873532D01*
X21368854Y-84943854D01*
X21298532Y-85032032D01*
X21249596Y-85133649D01*
X21224500Y-85243606D01*
X21224500Y-98356394D01*
X18700500Y-98356394D01*
X18700500Y-79306394D01*
X21224500Y-79306394D01*
X21249596Y-79416350D01*
X21298532Y-79517967D01*
X21333196Y-79561433D01*
X21368854Y-79606146D01*
X21411964Y-79640525D01*
X21457032Y-79676467D01*
X21558649Y-79725403D01*
X21668606Y-79750500D01*
X21668607Y-79750500D01*
X21724901Y-79750500D01*
X21725000Y-79750500D01*
X21725500Y-79750500D01*
X34724500Y-79750500D01*
X34725099Y-79750500D01*
X34781393Y-79750500D01*
X34781394Y-79750500D01*
X34840646Y-79736976D01*
X34891351Y-79725403D01*
X34992967Y-79676467D01*
X35081146Y-79606146D01*
X35151467Y-79517967D01*
X35200403Y-79416351D01*
X35225500Y-79306394D01*
X49799500Y-79306394D01*
X49824596Y-79416350D01*
X49873532Y-79517967D01*
X49908196Y-79561433D01*
X49943854Y-79606146D01*
X49986964Y-79640525D01*
X50032032Y-79676467D01*
X50133649Y-79725403D01*
X50243606Y-79750500D01*
X50243607Y-79750500D01*
X50299901Y-79750500D01*
X50300000Y-79750500D01*
X50300500Y-79750500D01*
X63299500Y-79750500D01*
X63300099Y-79750500D01*
X63356393Y-79750500D01*
X63356394Y-79750500D01*
X63415646Y-79736976D01*
X63466351Y-79725403D01*
X63567967Y-79676467D01*
X63656146Y-79606146D01*
X63726467Y-79517967D01*
X63775403Y-79416351D01*
X63800500Y-79306394D01*
X68849500Y-79306394D01*
X68874596Y-79416350D01*
X68923532Y-79517967D01*
X68958196Y-79561433D01*
X68993854Y-79606146D01*
X69036964Y-79640525D01*
X69082032Y-79676467D01*
X69183649Y-79725403D01*
X69293606Y-79750500D01*
X69293607Y-79750500D01*
X69349901Y-79750500D01*
X69350000Y-79750500D01*
X69350500Y-79750500D01*
X82349500Y-79750500D01*
X82350099Y-79750500D01*
X82406393Y-79750500D01*
X82406394Y-79750500D01*
X82465646Y-79736976D01*
X82516351Y-79725403D01*
X82617967Y-79676467D01*
X82706146Y-79606146D01*
X82776467Y-79517967D01*
X82825403Y-79416351D01*
X82850500Y-79306394D01*
X87899500Y-79306394D01*
X87924596Y-79416350D01*
X87973532Y-79517967D01*
X88008196Y-79561433D01*
X88043854Y-79606146D01*
X88086964Y-79640525D01*
X88132032Y-79676467D01*
X88233649Y-79725403D01*
X88343606Y-79750500D01*
X88343607Y-79750500D01*
X88399901Y-79750500D01*
X88400000Y-79750500D01*
X88400500Y-79750500D01*
X101399500Y-79750500D01*
X101400099Y-79750500D01*
X101456393Y-79750500D01*
X101456394Y-79750500D01*
X101515646Y-79736976D01*
X101566351Y-79725403D01*
X101667967Y-79676467D01*
X101756146Y-79606146D01*
X101826467Y-79517967D01*
X101875403Y-79416351D01*
X101900500Y-79306394D01*
X106949500Y-79306394D01*
X106974596Y-79416350D01*
X107023532Y-79517967D01*
X107058196Y-79561433D01*
X107093854Y-79606146D01*
X107136964Y-79640525D01*
X107182032Y-79676467D01*
X107283649Y-79725403D01*
X107393606Y-79750500D01*
X107393607Y-79750500D01*
X107449901Y-79750500D01*
X107450000Y-79750500D01*
X107450500Y-79750500D01*
X120449500Y-79750500D01*
X120450099Y-79750500D01*
X120506393Y-79750500D01*
X120506394Y-79750500D01*
X120565646Y-79736976D01*
X120616351Y-79725403D01*
X120717967Y-79676467D01*
X120806146Y-79606146D01*
X120876467Y-79517967D01*
X120925403Y-79416351D01*
X120950500Y-79306394D01*
X125999500Y-79306394D01*
X126024596Y-79416350D01*
X126073532Y-79517967D01*
X126108196Y-79561433D01*
X126143854Y-79606146D01*
X126186964Y-79640525D01*
X126232032Y-79676467D01*
X126333649Y-79725403D01*
X126443606Y-79750500D01*
X126443607Y-79750500D01*
X126499901Y-79750500D01*
X126500000Y-79750500D01*
X126500500Y-79750500D01*
X139499500Y-79750500D01*
X139500099Y-79750500D01*
X139556393Y-79750500D01*
X139556394Y-79750500D01*
X139615646Y-79736976D01*
X139666351Y-79725403D01*
X139767967Y-79676467D01*
X139856146Y-79606146D01*
X139926467Y-79517967D01*
X139975403Y-79416351D01*
X140000500Y-79306394D01*
X145049500Y-79306394D01*
X145074596Y-79416350D01*
X145123532Y-79517967D01*
X145158196Y-79561433D01*
X145193854Y-79606146D01*
X145236964Y-79640525D01*
X145282032Y-79676467D01*
X145383649Y-79725403D01*
X145493606Y-79750500D01*
X145493607Y-79750500D01*
X145549901Y-79750500D01*
X145550000Y-79750500D01*
X145550500Y-79750500D01*
X158549500Y-79750500D01*
X158550099Y-79750500D01*
X158606393Y-79750500D01*
X158606394Y-79750500D01*
X158665646Y-79736976D01*
X158716351Y-79725403D01*
X158817967Y-79676467D01*
X158906146Y-79606146D01*
X158976467Y-79517967D01*
X159025403Y-79416351D01*
X159050500Y-79306394D01*
X164099500Y-79306394D01*
X164124596Y-79416350D01*
X164173532Y-79517967D01*
X164208196Y-79561433D01*
X164243854Y-79606146D01*
X164286964Y-79640525D01*
X164332032Y-79676467D01*
X164433649Y-79725403D01*
X164543606Y-79750500D01*
X164543607Y-79750500D01*
X164599901Y-79750500D01*
X164600000Y-79750500D01*
X164600500Y-79750500D01*
X177599500Y-79750500D01*
X177600099Y-79750500D01*
X177656393Y-79750500D01*
X177656394Y-79750500D01*
X177715646Y-79736976D01*
X177766351Y-79725403D01*
X177867967Y-79676467D01*
X177956146Y-79606146D01*
X178026467Y-79517967D01*
X178075403Y-79416351D01*
X178100500Y-79306394D01*
X183149500Y-79306394D01*
X183174596Y-79416350D01*
X183223532Y-79517967D01*
X183258196Y-79561433D01*
X183293854Y-79606146D01*
X183336964Y-79640525D01*
X183382032Y-79676467D01*
X183483649Y-79725403D01*
X183593606Y-79750500D01*
X183593607Y-79750500D01*
X183649901Y-79750500D01*
X183650000Y-79750500D01*
X183650500Y-79750500D01*
X196649500Y-79750500D01*
X196650099Y-79750500D01*
X196706393Y-79750500D01*
X196706394Y-79750500D01*
X196765646Y-79736976D01*
X196816351Y-79725403D01*
X196917967Y-79676467D01*
X197006146Y-79606146D01*
X197076467Y-79517967D01*
X197125403Y-79416351D01*
X197150500Y-79306394D01*
X202199500Y-79306394D01*
X202224596Y-79416350D01*
X202273532Y-79517967D01*
X202308196Y-79561433D01*
X202343854Y-79606146D01*
X202386964Y-79640525D01*
X202432032Y-79676467D01*
X202533649Y-79725403D01*
X202643606Y-79750500D01*
X202643607Y-79750500D01*
X202699901Y-79750500D01*
X202700000Y-79750500D01*
X202700500Y-79750500D01*
X215699500Y-79750500D01*
X215700099Y-79750500D01*
X215756393Y-79750500D01*
X215756394Y-79750500D01*
X215815646Y-79736976D01*
X215866351Y-79725403D01*
X215967967Y-79676467D01*
X216056146Y-79606146D01*
X216126467Y-79517967D01*
X216175403Y-79416351D01*
X216200500Y-79306394D01*
X221249500Y-79306394D01*
X221274596Y-79416350D01*
X221323532Y-79517967D01*
X221358196Y-79561433D01*
X221393854Y-79606146D01*
X221436964Y-79640525D01*
X221482032Y-79676467D01*
X221583649Y-79725403D01*
X221693606Y-79750500D01*
X221693607Y-79750500D01*
X221749901Y-79750500D01*
X221750000Y-79750500D01*
X221750500Y-79750500D01*
X234749500Y-79750500D01*
X234750099Y-79750500D01*
X234806393Y-79750500D01*
X234806394Y-79750500D01*
X234865646Y-79736976D01*
X234916351Y-79725403D01*
X235017967Y-79676467D01*
X235106146Y-79606146D01*
X235176467Y-79517967D01*
X235225403Y-79416351D01*
X235250500Y-79306394D01*
X240299500Y-79306394D01*
X240324596Y-79416350D01*
X240373532Y-79517967D01*
X240408196Y-79561433D01*
X240443854Y-79606146D01*
X240486964Y-79640525D01*
X240532032Y-79676467D01*
X240633649Y-79725403D01*
X240743606Y-79750500D01*
X240743607Y-79750500D01*
X240799901Y-79750500D01*
X240800000Y-79750500D01*
X240800500Y-79750500D01*
X253799500Y-79750500D01*
X253800099Y-79750500D01*
X253856393Y-79750500D01*
X253856394Y-79750500D01*
X253915646Y-79736976D01*
X253966351Y-79725403D01*
X254067967Y-79676467D01*
X254156146Y-79606146D01*
X254226467Y-79517967D01*
X254275403Y-79416351D01*
X254300500Y-79306394D01*
X259349500Y-79306394D01*
X259374596Y-79416350D01*
X259423532Y-79517967D01*
X259458196Y-79561433D01*
X259493854Y-79606146D01*
X259536964Y-79640525D01*
X259582032Y-79676467D01*
X259683649Y-79725403D01*
X259793606Y-79750500D01*
X259793607Y-79750500D01*
X259849901Y-79750500D01*
X259850000Y-79750500D01*
X259850500Y-79750500D01*
X272849500Y-79750500D01*
X272850099Y-79750500D01*
X272906393Y-79750500D01*
X272906394Y-79750500D01*
X272965646Y-79736976D01*
X273016351Y-79725403D01*
X273117967Y-79676467D01*
X273206146Y-79606146D01*
X273276467Y-79517967D01*
X273325403Y-79416351D01*
X273350500Y-79306393D01*
X273350500Y-79250000D01*
X273350500Y-79249500D01*
X273350500Y-66249901D01*
X273350500Y-66193607D01*
X273338002Y-66138851D01*
X273325403Y-66083649D01*
X273276467Y-65982032D01*
X273241804Y-65938567D01*
X273206146Y-65893854D01*
X273167023Y-65862654D01*
X273117967Y-65823532D01*
X273016350Y-65774596D01*
X272906394Y-65749500D01*
X272906393Y-65749500D01*
X272850099Y-65749500D01*
X259850500Y-65749500D01*
X259850000Y-65749500D01*
X259793607Y-65749500D01*
X259793606Y-65749500D01*
X259683649Y-65774596D01*
X259582032Y-65823532D01*
X259493854Y-65893854D01*
X259423532Y-65982032D01*
X259374596Y-66083649D01*
X259349500Y-66193606D01*
X259349500Y-79306394D01*
X254300500Y-79306394D01*
X254300500Y-79306393D01*
X254300500Y-79250000D01*
X254300500Y-79249500D01*
X254300500Y-66249901D01*
X254300500Y-66193607D01*
X254288002Y-66138851D01*
X254275403Y-66083649D01*
X254226467Y-65982032D01*
X254191804Y-65938567D01*
X254156146Y-65893854D01*
X254117023Y-65862654D01*
X254067967Y-65823532D01*
X253966350Y-65774596D01*
X253856394Y-65749500D01*
X253856393Y-65749500D01*
X253800099Y-65749500D01*
X240800500Y-65749500D01*
X240800000Y-65749500D01*
X240743607Y-65749500D01*
X240743606Y-65749500D01*
X240633649Y-65774596D01*
X240532032Y-65823532D01*
X240443854Y-65893854D01*
X240373532Y-65982032D01*
X240324596Y-66083649D01*
X240299500Y-66193606D01*
X240299500Y-79306394D01*
X235250500Y-79306394D01*
X235250500Y-79306393D01*
X235250500Y-79250000D01*
X235250500Y-79249500D01*
X235250500Y-66249901D01*
X235250500Y-66193607D01*
X235238002Y-66138851D01*
X235225403Y-66083649D01*
X235176467Y-65982032D01*
X235141804Y-65938567D01*
X235106146Y-65893854D01*
X235067023Y-65862654D01*
X235017967Y-65823532D01*
X234916350Y-65774596D01*
X234806394Y-65749500D01*
X234806393Y-65749500D01*
X234750099Y-65749500D01*
X221750500Y-65749500D01*
X221750000Y-65749500D01*
X221693607Y-65749500D01*
X221693606Y-65749500D01*
X221583649Y-65774596D01*
X221482032Y-65823532D01*
X221393854Y-65893854D01*
X221323532Y-65982032D01*
X221274596Y-66083649D01*
X221249500Y-66193606D01*
X221249500Y-79306394D01*
X216200500Y-79306394D01*
X216200500Y-79306393D01*
X216200500Y-79250000D01*
X216200500Y-79249500D01*
X216200500Y-66249901D01*
X216200500Y-66193607D01*
X216188002Y-66138851D01*
X216175403Y-66083649D01*
X216126467Y-65982032D01*
X216091804Y-65938567D01*
X216056146Y-65893854D01*
X216017023Y-65862654D01*
X215967967Y-65823532D01*
X215866350Y-65774596D01*
X215756394Y-65749500D01*
X215756393Y-65749500D01*
X215700099Y-65749500D01*
X202700500Y-65749500D01*
X202700000Y-65749500D01*
X202643607Y-65749500D01*
X202643606Y-65749500D01*
X202533649Y-65774596D01*
X202432032Y-65823532D01*
X202343854Y-65893854D01*
X202273532Y-65982032D01*
X202224596Y-66083649D01*
X202199500Y-66193606D01*
X202199500Y-79306394D01*
X197150500Y-79306394D01*
X197150500Y-79306393D01*
X197150500Y-79250000D01*
X197150500Y-79249500D01*
X197150500Y-66249901D01*
X197150500Y-66193607D01*
X197138002Y-66138851D01*
X197125403Y-66083649D01*
X197076467Y-65982032D01*
X197041804Y-65938567D01*
X197006146Y-65893854D01*
X196967023Y-65862654D01*
X196917967Y-65823532D01*
X196816350Y-65774596D01*
X196706394Y-65749500D01*
X196706393Y-65749500D01*
X196650099Y-65749500D01*
X183650500Y-65749500D01*
X183650000Y-65749500D01*
X183593607Y-65749500D01*
X183593606Y-65749500D01*
X183483649Y-65774596D01*
X183382032Y-65823532D01*
X183293854Y-65893854D01*
X183223532Y-65982032D01*
X183174596Y-66083649D01*
X183149500Y-66193606D01*
X183149500Y-79306394D01*
X178100500Y-79306394D01*
X178100500Y-79306393D01*
X178100500Y-79250000D01*
X178100500Y-79249500D01*
X178100500Y-66249901D01*
X178100500Y-66193607D01*
X178088002Y-66138851D01*
X178075403Y-66083649D01*
X178026467Y-65982032D01*
X177991804Y-65938567D01*
X177956146Y-65893854D01*
X177917023Y-65862654D01*
X177867967Y-65823532D01*
X177766350Y-65774596D01*
X177656394Y-65749500D01*
X177656393Y-65749500D01*
X177600099Y-65749500D01*
X164600500Y-65749500D01*
X164600000Y-65749500D01*
X164543607Y-65749500D01*
X164543606Y-65749500D01*
X164433649Y-65774596D01*
X164332032Y-65823532D01*
X164243854Y-65893854D01*
X164173532Y-65982032D01*
X164124596Y-66083649D01*
X164099500Y-66193606D01*
X164099500Y-79306394D01*
X159050500Y-79306394D01*
X159050500Y-79306393D01*
X159050500Y-79250000D01*
X159050500Y-79249500D01*
X159050500Y-66249901D01*
X159050500Y-66193607D01*
X159038002Y-66138851D01*
X159025403Y-66083649D01*
X158976467Y-65982032D01*
X158941804Y-65938567D01*
X158906146Y-65893854D01*
X158867023Y-65862654D01*
X158817967Y-65823532D01*
X158716350Y-65774596D01*
X158606394Y-65749500D01*
X158606393Y-65749500D01*
X158550099Y-65749500D01*
X145550500Y-65749500D01*
X145550000Y-65749500D01*
X145493607Y-65749500D01*
X145493606Y-65749500D01*
X145383649Y-65774596D01*
X145282032Y-65823532D01*
X145193854Y-65893854D01*
X145123532Y-65982032D01*
X145074596Y-66083649D01*
X145049500Y-66193606D01*
X145049500Y-79306394D01*
X140000500Y-79306394D01*
X140000500Y-79306393D01*
X140000500Y-79250000D01*
X140000500Y-79249500D01*
X140000500Y-66249901D01*
X140000500Y-66193607D01*
X139988002Y-66138851D01*
X139975403Y-66083649D01*
X139926467Y-65982032D01*
X139891804Y-65938567D01*
X139856146Y-65893854D01*
X139817023Y-65862654D01*
X139767967Y-65823532D01*
X139666350Y-65774596D01*
X139556394Y-65749500D01*
X139556393Y-65749500D01*
X139500099Y-65749500D01*
X126500500Y-65749500D01*
X126500000Y-65749500D01*
X126443607Y-65749500D01*
X126443606Y-65749500D01*
X126333649Y-65774596D01*
X126232032Y-65823532D01*
X126143854Y-65893854D01*
X126073532Y-65982032D01*
X126024596Y-66083649D01*
X125999500Y-66193606D01*
X125999500Y-79306394D01*
X120950500Y-79306394D01*
X120950500Y-79306393D01*
X120950500Y-79250000D01*
X120950500Y-79249500D01*
X120950500Y-66249901D01*
X120950500Y-66193607D01*
X120938002Y-66138851D01*
X120925403Y-66083649D01*
X120876467Y-65982032D01*
X120841804Y-65938567D01*
X120806146Y-65893854D01*
X120767023Y-65862654D01*
X120717967Y-65823532D01*
X120616350Y-65774596D01*
X120506394Y-65749500D01*
X120506393Y-65749500D01*
X120450099Y-65749500D01*
X107450500Y-65749500D01*
X107450000Y-65749500D01*
X107393607Y-65749500D01*
X107393606Y-65749500D01*
X107283649Y-65774596D01*
X107182032Y-65823532D01*
X107093854Y-65893854D01*
X107023532Y-65982032D01*
X106974596Y-66083649D01*
X106949500Y-66193606D01*
X106949500Y-79306394D01*
X101900500Y-79306394D01*
X101900500Y-79306393D01*
X101900500Y-79250000D01*
X101900500Y-79249500D01*
X101900500Y-66249901D01*
X101900500Y-66193607D01*
X101888002Y-66138851D01*
X101875403Y-66083649D01*
X101826467Y-65982032D01*
X101791804Y-65938567D01*
X101756146Y-65893854D01*
X101717023Y-65862654D01*
X101667967Y-65823532D01*
X101566350Y-65774596D01*
X101456394Y-65749500D01*
X101456393Y-65749500D01*
X101400099Y-65749500D01*
X88400500Y-65749500D01*
X88400000Y-65749500D01*
X88343607Y-65749500D01*
X88343606Y-65749500D01*
X88233649Y-65774596D01*
X88132032Y-65823532D01*
X88043854Y-65893854D01*
X87973532Y-65982032D01*
X87924596Y-66083649D01*
X87899500Y-66193606D01*
X87899500Y-79306394D01*
X82850500Y-79306394D01*
X82850500Y-79306393D01*
X82850500Y-79250000D01*
X82850500Y-79249500D01*
X82850500Y-66249901D01*
X82850500Y-66193607D01*
X82838002Y-66138851D01*
X82825403Y-66083649D01*
X82776467Y-65982032D01*
X82741804Y-65938567D01*
X82706146Y-65893854D01*
X82667023Y-65862654D01*
X82617967Y-65823532D01*
X82516350Y-65774596D01*
X82406394Y-65749500D01*
X82406393Y-65749500D01*
X82350099Y-65749500D01*
X69350500Y-65749500D01*
X69350000Y-65749500D01*
X69293607Y-65749500D01*
X69293606Y-65749500D01*
X69183649Y-65774596D01*
X69082032Y-65823532D01*
X68993854Y-65893854D01*
X68923532Y-65982032D01*
X68874596Y-66083649D01*
X68849500Y-66193606D01*
X68849500Y-79306394D01*
X63800500Y-79306394D01*
X63800500Y-79306393D01*
X63800500Y-79250000D01*
X63800500Y-79249500D01*
X63800500Y-66249901D01*
X63800500Y-66193607D01*
X63788002Y-66138851D01*
X63775403Y-66083649D01*
X63726467Y-65982032D01*
X63691804Y-65938567D01*
X63656146Y-65893854D01*
X63617023Y-65862654D01*
X63567967Y-65823532D01*
X63466350Y-65774596D01*
X63356394Y-65749500D01*
X63356393Y-65749500D01*
X63300099Y-65749500D01*
X50300500Y-65749500D01*
X50300000Y-65749500D01*
X50243607Y-65749500D01*
X50243606Y-65749500D01*
X50133649Y-65774596D01*
X50032032Y-65823532D01*
X49943854Y-65893854D01*
X49873532Y-65982032D01*
X49824596Y-66083649D01*
X49799500Y-66193606D01*
X49799500Y-79306394D01*
X35225500Y-79306394D01*
X35225500Y-79306393D01*
X35225500Y-79250000D01*
X35225500Y-79249500D01*
X35225500Y-66249901D01*
X35225500Y-66193607D01*
X35213002Y-66138851D01*
X35200403Y-66083649D01*
X35151467Y-65982032D01*
X35116804Y-65938567D01*
X35081146Y-65893854D01*
X35042023Y-65862654D01*
X34992967Y-65823532D01*
X34891350Y-65774596D01*
X34781394Y-65749500D01*
X34781393Y-65749500D01*
X34725099Y-65749500D01*
X21725500Y-65749500D01*
X21725000Y-65749500D01*
X21668607Y-65749500D01*
X21668606Y-65749500D01*
X21558649Y-65774596D01*
X21457032Y-65823532D01*
X21368854Y-65893854D01*
X21298532Y-65982032D01*
X21249596Y-66083649D01*
X21224500Y-66193606D01*
X21224500Y-79306394D01*
X18700500Y-79306394D01*
X18700500Y-60256394D01*
X21224500Y-60256394D01*
X21249596Y-60366350D01*
X21298532Y-60467967D01*
X21333196Y-60511433D01*
X21368854Y-60556146D01*
X21411964Y-60590525D01*
X21457032Y-60626467D01*
X21558649Y-60675403D01*
X21668606Y-60700500D01*
X21668607Y-60700500D01*
X21724901Y-60700500D01*
X21725000Y-60700500D01*
X21725500Y-60700500D01*
X34724500Y-60700500D01*
X34725099Y-60700500D01*
X34781393Y-60700500D01*
X34781394Y-60700500D01*
X34840646Y-60686976D01*
X34891351Y-60675403D01*
X34992967Y-60626467D01*
X35081146Y-60556146D01*
X35151467Y-60467967D01*
X35200403Y-60366351D01*
X35225500Y-60256394D01*
X49799500Y-60256394D01*
X49824596Y-60366350D01*
X49873532Y-60467967D01*
X49908196Y-60511433D01*
X49943854Y-60556146D01*
X49986964Y-60590525D01*
X50032032Y-60626467D01*
X50133649Y-60675403D01*
X50243606Y-60700500D01*
X50243607Y-60700500D01*
X50299901Y-60700500D01*
X50300000Y-60700500D01*
X50300500Y-60700500D01*
X63299500Y-60700500D01*
X63300099Y-60700500D01*
X63356393Y-60700500D01*
X63356394Y-60700500D01*
X63415646Y-60686976D01*
X63466351Y-60675403D01*
X63567967Y-60626467D01*
X63656146Y-60556146D01*
X63726467Y-60467967D01*
X63775403Y-60366351D01*
X63800500Y-60256394D01*
X68849500Y-60256394D01*
X68874596Y-60366350D01*
X68923532Y-60467967D01*
X68958196Y-60511433D01*
X68993854Y-60556146D01*
X69036964Y-60590525D01*
X69082032Y-60626467D01*
X69183649Y-60675403D01*
X69293606Y-60700500D01*
X69293607Y-60700500D01*
X69349901Y-60700500D01*
X69350000Y-60700500D01*
X69350500Y-60700500D01*
X82349500Y-60700500D01*
X82350099Y-60700500D01*
X82406393Y-60700500D01*
X82406394Y-60700500D01*
X82465646Y-60686976D01*
X82516351Y-60675403D01*
X82617967Y-60626467D01*
X82706146Y-60556146D01*
X82776467Y-60467967D01*
X82825403Y-60366351D01*
X82850500Y-60256394D01*
X87899500Y-60256394D01*
X87924596Y-60366350D01*
X87973532Y-60467967D01*
X88008196Y-60511433D01*
X88043854Y-60556146D01*
X88086964Y-60590525D01*
X88132032Y-60626467D01*
X88233649Y-60675403D01*
X88343606Y-60700500D01*
X88343607Y-60700500D01*
X88399901Y-60700500D01*
X88400000Y-60700500D01*
X88400500Y-60700500D01*
X101399500Y-60700500D01*
X101400099Y-60700500D01*
X101456393Y-60700500D01*
X101456394Y-60700500D01*
X101515646Y-60686976D01*
X101566351Y-60675403D01*
X101667967Y-60626467D01*
X101756146Y-60556146D01*
X101826467Y-60467967D01*
X101875403Y-60366351D01*
X101900500Y-60256394D01*
X106949500Y-60256394D01*
X106974596Y-60366350D01*
X107023532Y-60467967D01*
X107058196Y-60511433D01*
X107093854Y-60556146D01*
X107136964Y-60590525D01*
X107182032Y-60626467D01*
X107283649Y-60675403D01*
X107393606Y-60700500D01*
X107393607Y-60700500D01*
X107449901Y-60700500D01*
X107450000Y-60700500D01*
X107450500Y-60700500D01*
X120449500Y-60700500D01*
X120450099Y-60700500D01*
X120506393Y-60700500D01*
X120506394Y-60700500D01*
X120565646Y-60686976D01*
X120616351Y-60675403D01*
X120717967Y-60626467D01*
X120806146Y-60556146D01*
X120876467Y-60467967D01*
X120925403Y-60366351D01*
X120950500Y-60256394D01*
X125999500Y-60256394D01*
X126024596Y-60366350D01*
X126073532Y-60467967D01*
X126108196Y-60511433D01*
X126143854Y-60556146D01*
X126186964Y-60590525D01*
X126232032Y-60626467D01*
X126333649Y-60675403D01*
X126443606Y-60700500D01*
X126443607Y-60700500D01*
X126499901Y-60700500D01*
X126500000Y-60700500D01*
X126500500Y-60700500D01*
X139499500Y-60700500D01*
X139500099Y-60700500D01*
X139556393Y-60700500D01*
X139556394Y-60700500D01*
X139615646Y-60686976D01*
X139666351Y-60675403D01*
X139767967Y-60626467D01*
X139856146Y-60556146D01*
X139926467Y-60467967D01*
X139975403Y-60366351D01*
X140000500Y-60256394D01*
X145049500Y-60256394D01*
X145074596Y-60366350D01*
X145123532Y-60467967D01*
X145158196Y-60511433D01*
X145193854Y-60556146D01*
X145236964Y-60590525D01*
X145282032Y-60626467D01*
X145383649Y-60675403D01*
X145493606Y-60700500D01*
X145493607Y-60700500D01*
X145549901Y-60700500D01*
X145550000Y-60700500D01*
X145550500Y-60700500D01*
X158549500Y-60700500D01*
X158550099Y-60700500D01*
X158606393Y-60700500D01*
X158606394Y-60700500D01*
X158665646Y-60686976D01*
X158716351Y-60675403D01*
X158817967Y-60626467D01*
X158906146Y-60556146D01*
X158976467Y-60467967D01*
X159025403Y-60366351D01*
X159050500Y-60256394D01*
X164099500Y-60256394D01*
X164124596Y-60366350D01*
X164173532Y-60467967D01*
X164208196Y-60511433D01*
X164243854Y-60556146D01*
X164286964Y-60590525D01*
X164332032Y-60626467D01*
X164433649Y-60675403D01*
X164543606Y-60700500D01*
X164543607Y-60700500D01*
X164599901Y-60700500D01*
X164600000Y-60700500D01*
X164600500Y-60700500D01*
X177599500Y-60700500D01*
X177600099Y-60700500D01*
X177656393Y-60700500D01*
X177656394Y-60700500D01*
X177715646Y-60686976D01*
X177766351Y-60675403D01*
X177867967Y-60626467D01*
X177956146Y-60556146D01*
X178026467Y-60467967D01*
X178075403Y-60366351D01*
X178100500Y-60256394D01*
X183149500Y-60256394D01*
X183174596Y-60366350D01*
X183223532Y-60467967D01*
X183258196Y-60511433D01*
X183293854Y-60556146D01*
X183336964Y-60590525D01*
X183382032Y-60626467D01*
X183483649Y-60675403D01*
X183593606Y-60700500D01*
X183593607Y-60700500D01*
X183649901Y-60700500D01*
X183650000Y-60700500D01*
X183650500Y-60700500D01*
X196649500Y-60700500D01*
X196650099Y-60700500D01*
X196706393Y-60700500D01*
X196706394Y-60700500D01*
X196765646Y-60686976D01*
X196816351Y-60675403D01*
X196917967Y-60626467D01*
X197006146Y-60556146D01*
X197076467Y-60467967D01*
X197125403Y-60366351D01*
X197150500Y-60256394D01*
X202199500Y-60256394D01*
X202224596Y-60366350D01*
X202273532Y-60467967D01*
X202308196Y-60511433D01*
X202343854Y-60556146D01*
X202386964Y-60590525D01*
X202432032Y-60626467D01*
X202533649Y-60675403D01*
X202643606Y-60700500D01*
X202643607Y-60700500D01*
X202699901Y-60700500D01*
X202700000Y-60700500D01*
X202700500Y-60700500D01*
X215699500Y-60700500D01*
X215700099Y-60700500D01*
X215756393Y-60700500D01*
X215756394Y-60700500D01*
X215815646Y-60686976D01*
X215866351Y-60675403D01*
X215967967Y-60626467D01*
X216056146Y-60556146D01*
X216126467Y-60467967D01*
X216175403Y-60366351D01*
X216200500Y-60256394D01*
X221249500Y-60256394D01*
X221274596Y-60366350D01*
X221323532Y-60467967D01*
X221358196Y-60511433D01*
X221393854Y-60556146D01*
X221436964Y-60590525D01*
X221482032Y-60626467D01*
X221583649Y-60675403D01*
X221693606Y-60700500D01*
X221693607Y-60700500D01*
X221749901Y-60700500D01*
X221750000Y-60700500D01*
X221750500Y-60700500D01*
X234749500Y-60700500D01*
X234750099Y-60700500D01*
X234806393Y-60700500D01*
X234806394Y-60700500D01*
X234865646Y-60686976D01*
X234916351Y-60675403D01*
X235017967Y-60626467D01*
X235106146Y-60556146D01*
X235176467Y-60467967D01*
X235225403Y-60366351D01*
X235250500Y-60256394D01*
X240299500Y-60256394D01*
X240324596Y-60366350D01*
X240373532Y-60467967D01*
X240408196Y-60511433D01*
X240443854Y-60556146D01*
X240486964Y-60590525D01*
X240532032Y-60626467D01*
X240633649Y-60675403D01*
X240743606Y-60700500D01*
X240743607Y-60700500D01*
X240799901Y-60700500D01*
X240800000Y-60700500D01*
X240800500Y-60700500D01*
X253799500Y-60700500D01*
X253800099Y-60700500D01*
X253856393Y-60700500D01*
X253856394Y-60700500D01*
X253915646Y-60686976D01*
X253966351Y-60675403D01*
X254067967Y-60626467D01*
X254156146Y-60556146D01*
X254226467Y-60467967D01*
X254275403Y-60366351D01*
X254300500Y-60256394D01*
X259349500Y-60256394D01*
X259374596Y-60366350D01*
X259423532Y-60467967D01*
X259458196Y-60511433D01*
X259493854Y-60556146D01*
X259536964Y-60590525D01*
X259582032Y-60626467D01*
X259683649Y-60675403D01*
X259793606Y-60700500D01*
X259793607Y-60700500D01*
X259849901Y-60700500D01*
X259850000Y-60700500D01*
X259850500Y-60700500D01*
X272849500Y-60700500D01*
X272850099Y-60700500D01*
X272906393Y-60700500D01*
X272906394Y-60700500D01*
X272965646Y-60686976D01*
X273016351Y-60675403D01*
X273117967Y-60626467D01*
X273206146Y-60556146D01*
X273276467Y-60467967D01*
X273325403Y-60366351D01*
X273350500Y-60256393D01*
X273350500Y-60200000D01*
X273350500Y-60199500D01*
X273350500Y-47199901D01*
X273350500Y-47143607D01*
X273338002Y-47088851D01*
X273325403Y-47033649D01*
X273276467Y-46932032D01*
X273241804Y-46888567D01*
X273206146Y-46843854D01*
X273167023Y-46812654D01*
X273117967Y-46773532D01*
X273016350Y-46724596D01*
X272906394Y-46699500D01*
X272906393Y-46699500D01*
X272850099Y-46699500D01*
X259850500Y-46699500D01*
X259850000Y-46699500D01*
X259793607Y-46699500D01*
X259793606Y-46699500D01*
X259683649Y-46724596D01*
X259582032Y-46773532D01*
X259493854Y-46843854D01*
X259423532Y-46932032D01*
X259374596Y-47033649D01*
X259349500Y-47143606D01*
X259349500Y-60256394D01*
X254300500Y-60256394D01*
X254300500Y-60256393D01*
X254300500Y-60200000D01*
X254300500Y-60199500D01*
X254300500Y-47199901D01*
X254300500Y-47143607D01*
X254288002Y-47088851D01*
X254275403Y-47033649D01*
X254226467Y-46932032D01*
X254191804Y-46888567D01*
X254156146Y-46843854D01*
X254117023Y-46812654D01*
X254067967Y-46773532D01*
X253966350Y-46724596D01*
X253856394Y-46699500D01*
X253856393Y-46699500D01*
X253800099Y-46699500D01*
X240800500Y-46699500D01*
X240800000Y-46699500D01*
X240743607Y-46699500D01*
X240743606Y-46699500D01*
X240633649Y-46724596D01*
X240532032Y-46773532D01*
X240443854Y-46843854D01*
X240373532Y-46932032D01*
X240324596Y-47033649D01*
X240299500Y-47143606D01*
X240299500Y-60256394D01*
X235250500Y-60256394D01*
X235250500Y-60256393D01*
X235250500Y-60200000D01*
X235250500Y-60199500D01*
X235250500Y-47199901D01*
X235250500Y-47143607D01*
X235238002Y-47088851D01*
X235225403Y-47033649D01*
X235176467Y-46932032D01*
X235141804Y-46888567D01*
X235106146Y-46843854D01*
X235067023Y-46812654D01*
X235017967Y-46773532D01*
X234916350Y-46724596D01*
X234806394Y-46699500D01*
X234806393Y-46699500D01*
X234750099Y-46699500D01*
X221750500Y-46699500D01*
X221750000Y-46699500D01*
X221693607Y-46699500D01*
X221693606Y-46699500D01*
X221583649Y-46724596D01*
X221482032Y-46773532D01*
X221393854Y-46843854D01*
X221323532Y-46932032D01*
X221274596Y-47033649D01*
X221249500Y-47143606D01*
X221249500Y-60256394D01*
X216200500Y-60256394D01*
X216200500Y-60256393D01*
X216200500Y-60200000D01*
X216200500Y-60199500D01*
X216200500Y-47199901D01*
X216200500Y-47143607D01*
X216188002Y-47088851D01*
X216175403Y-47033649D01*
X216126467Y-46932032D01*
X216091804Y-46888567D01*
X216056146Y-46843854D01*
X216017023Y-46812654D01*
X215967967Y-46773532D01*
X215866350Y-46724596D01*
X215756394Y-46699500D01*
X215756393Y-46699500D01*
X215700099Y-46699500D01*
X202700500Y-46699500D01*
X202700000Y-46699500D01*
X202643607Y-46699500D01*
X202643606Y-46699500D01*
X202533649Y-46724596D01*
X202432032Y-46773532D01*
X202343854Y-46843854D01*
X202273532Y-46932032D01*
X202224596Y-47033649D01*
X202199500Y-47143606D01*
X202199500Y-60256394D01*
X197150500Y-60256394D01*
X197150500Y-60256393D01*
X197150500Y-60200000D01*
X197150500Y-60199500D01*
X197150500Y-47199901D01*
X197150500Y-47143607D01*
X197138002Y-47088851D01*
X197125403Y-47033649D01*
X197076467Y-46932032D01*
X197041804Y-46888567D01*
X197006146Y-46843854D01*
X196967023Y-46812654D01*
X196917967Y-46773532D01*
X196816350Y-46724596D01*
X196706394Y-46699500D01*
X196706393Y-46699500D01*
X196650099Y-46699500D01*
X183650500Y-46699500D01*
X183650000Y-46699500D01*
X183593607Y-46699500D01*
X183593606Y-46699500D01*
X183483649Y-46724596D01*
X183382032Y-46773532D01*
X183293854Y-46843854D01*
X183223532Y-46932032D01*
X183174596Y-47033649D01*
X183149500Y-47143606D01*
X183149500Y-60256394D01*
X178100500Y-60256394D01*
X178100500Y-60256393D01*
X178100500Y-60200000D01*
X178100500Y-60199500D01*
X178100500Y-47199901D01*
X178100500Y-47143607D01*
X178088002Y-47088851D01*
X178075403Y-47033649D01*
X178026467Y-46932032D01*
X177991804Y-46888567D01*
X177956146Y-46843854D01*
X177917023Y-46812654D01*
X177867967Y-46773532D01*
X177766350Y-46724596D01*
X177656394Y-46699500D01*
X177656393Y-46699500D01*
X177600099Y-46699500D01*
X164600500Y-46699500D01*
X164600000Y-46699500D01*
X164543607Y-46699500D01*
X164543606Y-46699500D01*
X164433649Y-46724596D01*
X164332032Y-46773532D01*
X164243854Y-46843854D01*
X164173532Y-46932032D01*
X164124596Y-47033649D01*
X164099500Y-47143606D01*
X164099500Y-60256394D01*
X159050500Y-60256394D01*
X159050500Y-60256393D01*
X159050500Y-60200000D01*
X159050500Y-60199500D01*
X159050500Y-47199901D01*
X159050500Y-47143607D01*
X159038002Y-47088851D01*
X159025403Y-47033649D01*
X158976467Y-46932032D01*
X158941804Y-46888567D01*
X158906146Y-46843854D01*
X158867023Y-46812654D01*
X158817967Y-46773532D01*
X158716350Y-46724596D01*
X158606394Y-46699500D01*
X158606393Y-46699500D01*
X158550099Y-46699500D01*
X145550500Y-46699500D01*
X145550000Y-46699500D01*
X145493607Y-46699500D01*
X145493606Y-46699500D01*
X145383649Y-46724596D01*
X145282032Y-46773532D01*
X145193854Y-46843854D01*
X145123532Y-46932032D01*
X145074596Y-47033649D01*
X145049500Y-47143606D01*
X145049500Y-60256394D01*
X140000500Y-60256394D01*
X140000500Y-60256393D01*
X140000500Y-60200000D01*
X140000500Y-60199500D01*
X140000500Y-47199901D01*
X140000500Y-47143607D01*
X139988002Y-47088851D01*
X139975403Y-47033649D01*
X139926467Y-46932032D01*
X139891804Y-46888567D01*
X139856146Y-46843854D01*
X139817023Y-46812654D01*
X139767967Y-46773532D01*
X139666350Y-46724596D01*
X139556394Y-46699500D01*
X139556393Y-46699500D01*
X139500099Y-46699500D01*
X126500500Y-46699500D01*
X126500000Y-46699500D01*
X126443607Y-46699500D01*
X126443606Y-46699500D01*
X126333649Y-46724596D01*
X126232032Y-46773532D01*
X126143854Y-46843854D01*
X126073532Y-46932032D01*
X126024596Y-47033649D01*
X125999500Y-47143606D01*
X125999500Y-60256394D01*
X120950500Y-60256394D01*
X120950500Y-60256393D01*
X120950500Y-60200000D01*
X120950500Y-60199500D01*
X120950500Y-47199901D01*
X120950500Y-47143607D01*
X120938002Y-47088851D01*
X120925403Y-47033649D01*
X120876467Y-46932032D01*
X120841804Y-46888567D01*
X120806146Y-46843854D01*
X120767023Y-46812654D01*
X120717967Y-46773532D01*
X120616350Y-46724596D01*
X120506394Y-46699500D01*
X120506393Y-46699500D01*
X120450099Y-46699500D01*
X107450500Y-46699500D01*
X107450000Y-46699500D01*
X107393607Y-46699500D01*
X107393606Y-46699500D01*
X107283649Y-46724596D01*
X107182032Y-46773532D01*
X107093854Y-46843854D01*
X107023532Y-46932032D01*
X106974596Y-47033649D01*
X106949500Y-47143606D01*
X106949500Y-60256394D01*
X101900500Y-60256394D01*
X101900500Y-60256393D01*
X101900500Y-60200000D01*
X101900500Y-60199500D01*
X101900500Y-47199901D01*
X101900500Y-47143607D01*
X101888002Y-47088851D01*
X101875403Y-47033649D01*
X101826467Y-46932032D01*
X101791804Y-46888567D01*
X101756146Y-46843854D01*
X101717023Y-46812654D01*
X101667967Y-46773532D01*
X101566350Y-46724596D01*
X101456394Y-46699500D01*
X101456393Y-46699500D01*
X101400099Y-46699500D01*
X88400500Y-46699500D01*
X88400000Y-46699500D01*
X88343607Y-46699500D01*
X88343606Y-46699500D01*
X88233649Y-46724596D01*
X88132032Y-46773532D01*
X88043854Y-46843854D01*
X87973532Y-46932032D01*
X87924596Y-47033649D01*
X87899500Y-47143606D01*
X87899500Y-60256394D01*
X82850500Y-60256394D01*
X82850500Y-60256393D01*
X82850500Y-60200000D01*
X82850500Y-60199500D01*
X82850500Y-47199901D01*
X82850500Y-47143607D01*
X82838002Y-47088851D01*
X82825403Y-47033649D01*
X82776467Y-46932032D01*
X82741804Y-46888567D01*
X82706146Y-46843854D01*
X82667023Y-46812654D01*
X82617967Y-46773532D01*
X82516350Y-46724596D01*
X82406394Y-46699500D01*
X82406393Y-46699500D01*
X82350099Y-46699500D01*
X69350500Y-46699500D01*
X69350000Y-46699500D01*
X69293607Y-46699500D01*
X69293606Y-46699500D01*
X69183649Y-46724596D01*
X69082032Y-46773532D01*
X68993854Y-46843854D01*
X68923532Y-46932032D01*
X68874596Y-47033649D01*
X68849500Y-47143606D01*
X68849500Y-60256394D01*
X63800500Y-60256394D01*
X63800500Y-60256393D01*
X63800500Y-60200000D01*
X63800500Y-60199500D01*
X63800500Y-47199901D01*
X63800500Y-47143607D01*
X63788002Y-47088851D01*
X63775403Y-47033649D01*
X63726467Y-46932032D01*
X63691804Y-46888567D01*
X63656146Y-46843854D01*
X63617023Y-46812654D01*
X63567967Y-46773532D01*
X63466350Y-46724596D01*
X63356394Y-46699500D01*
X63356393Y-46699500D01*
X63300099Y-46699500D01*
X50300500Y-46699500D01*
X50300000Y-46699500D01*
X50243607Y-46699500D01*
X50243606Y-46699500D01*
X50133649Y-46724596D01*
X50032032Y-46773532D01*
X49943854Y-46843854D01*
X49873532Y-46932032D01*
X49824596Y-47033649D01*
X49799500Y-47143606D01*
X49799500Y-60256394D01*
X35225500Y-60256394D01*
X35225500Y-60256393D01*
X35225500Y-60200000D01*
X35225500Y-60199500D01*
X35225500Y-47199901D01*
X35225500Y-47143607D01*
X35213002Y-47088851D01*
X35200403Y-47033649D01*
X35151467Y-46932032D01*
X35116804Y-46888567D01*
X35081146Y-46843854D01*
X35042023Y-46812654D01*
X34992967Y-46773532D01*
X34891350Y-46724596D01*
X34781394Y-46699500D01*
X34781393Y-46699500D01*
X34725099Y-46699500D01*
X21725500Y-46699500D01*
X21725000Y-46699500D01*
X21668607Y-46699500D01*
X21668606Y-46699500D01*
X21558649Y-46724596D01*
X21457032Y-46773532D01*
X21368854Y-46843854D01*
X21298532Y-46932032D01*
X21249596Y-47033649D01*
X21224500Y-47143606D01*
X21224500Y-60256394D01*
X18700500Y-60256394D01*
X18700500Y-45180412D01*
X18700972Y-45169605D01*
X18704415Y-45130250D01*
X18704540Y-45128904D01*
X18704542Y-45128882D01*
X18716918Y-45003223D01*
X18720540Y-44983316D01*
X18737899Y-44918530D01*
X18738956Y-44914829D01*
X18766684Y-44823420D01*
X18772948Y-44807049D01*
X18803693Y-44741117D01*
X18806698Y-44735109D01*
X18810079Y-44728781D01*
X18849014Y-44655940D01*
X18856776Y-44643304D01*
X18899642Y-44582085D01*
X18905334Y-44574583D01*
X18961191Y-44506521D01*
X18969325Y-44497547D01*
X19022547Y-44444325D01*
X19031521Y-44436191D01*
X19099583Y-44380334D01*
X19107085Y-44374642D01*
X19168304Y-44331776D01*
X19180940Y-44324014D01*
X19260107Y-44281698D01*
X19266117Y-44278693D01*
X19332049Y-44247948D01*
X19348420Y-44241684D01*
X19439829Y-44213956D01*
X19443530Y-44212899D01*
X19508316Y-44195540D01*
X19528223Y-44191918D01*
X19653927Y-44179537D01*
X19655204Y-44179419D01*
X19694605Y-44175971D01*
X19705412Y-44175500D01*
X56534615Y-44175500D01*
X56534758Y-44175528D01*
X56534759Y-44175524D01*
X56559372Y-44175539D01*
X56559375Y-44175541D01*
X56559758Y-44175383D01*
X56559875Y-44175099D01*
X56559916Y-44175000D01*
X56559916Y-44150446D01*
X56559875Y-44150240D01*
X56559875Y-43199760D01*
X56559903Y-43199616D01*
X56559899Y-43199616D01*
X56559914Y-43175002D01*
X56559916Y-43175000D01*
X56559836Y-43174808D01*
X56559759Y-43174618D01*
X56559755Y-43174614D01*
X56559569Y-43174538D01*
X56559377Y-43174459D01*
X56534821Y-43174459D01*
X56534615Y-43174500D01*
X38063807Y-43174500D01*
X38054959Y-43174184D01*
X38049096Y-43173764D01*
X37990058Y-43169540D01*
X37989181Y-43169474D01*
X37846963Y-43158282D01*
X37830330Y-43155830D01*
X37740692Y-43136328D01*
X37738107Y-43135736D01*
X37626878Y-43109033D01*
X37612489Y-43104640D01*
X37521496Y-43070700D01*
X37517378Y-43069080D01*
X37416674Y-43027367D01*
X37404698Y-43021637D01*
X37317604Y-42974078D01*
X37312243Y-42970974D01*
X37221078Y-42915108D01*
X37211558Y-42908648D01*
X37131359Y-42848612D01*
X37125145Y-42843641D01*
X37044442Y-42774714D01*
X37037309Y-42768120D01*
X36966250Y-42697060D01*
X36959644Y-42689914D01*
X36890783Y-42609287D01*
X36885807Y-42603067D01*
X36862975Y-42572568D01*
X36825684Y-42522752D01*
X36819242Y-42513258D01*
X36763484Y-42422269D01*
X36760400Y-42416942D01*
X36712689Y-42329565D01*
X36706970Y-42317612D01*
X36665443Y-42217356D01*
X36663830Y-42213256D01*
X36659152Y-42200714D01*
X36629700Y-42121747D01*
X36625309Y-42107366D01*
X36598815Y-41997010D01*
X36598260Y-41994583D01*
X36578530Y-41903885D01*
X36576082Y-41887278D01*
X36565134Y-41748185D01*
X36560190Y-41679068D01*
X36559875Y-41670225D01*
X36559875Y-40929426D01*
X36560191Y-40920582D01*
X36560250Y-40919755D01*
X36564862Y-40855280D01*
X36576096Y-40712539D01*
X36578543Y-40695942D01*
X36597994Y-40606530D01*
X36598572Y-40604003D01*
X36625360Y-40492422D01*
X36629744Y-40478060D01*
X36663584Y-40387331D01*
X36665159Y-40383328D01*
X36707066Y-40282156D01*
X36712770Y-40270233D01*
X36760161Y-40183442D01*
X36763196Y-40178200D01*
X36819402Y-40086480D01*
X36825805Y-40077044D01*
X36885587Y-39997183D01*
X36890499Y-39991044D01*
X36959859Y-39909834D01*
X36966431Y-39902724D01*
X37037098Y-39832056D01*
X37044209Y-39825484D01*
X37125445Y-39756102D01*
X37131619Y-39751162D01*
X37211352Y-39691473D01*
X37220810Y-39685055D01*
X37312721Y-39628732D01*
X37317993Y-39625679D01*
X37404494Y-39578446D01*
X37416453Y-39572724D01*
X37518059Y-39530637D01*
X37522075Y-39529056D01*
X37612311Y-39495399D01*
X37626662Y-39491017D01*
X37739322Y-39463970D01*
X37741766Y-39463411D01*
X37830153Y-39444182D01*
X37846766Y-39441733D01*
X37993027Y-39430221D01*
X37993163Y-39430211D01*
X38054598Y-39425815D01*
X38063443Y-39425500D01*
X95054950Y-39425500D01*
X95063792Y-39425816D01*
G37*
%TD.AperFunction*%
%TD*%
M02*
