%TF.GenerationSoftware,KiCad,Pcbnew,7.0.1-0*%
%TF.CreationDate,2023-08-02T22:38:37-05:00*%
%TF.ProjectId,plate,706c6174-652e-46b6-9963-61645f706362,rev?*%
%TF.SameCoordinates,Original*%
%TF.FileFunction,Profile,NP*%
%FSLAX46Y46*%
G04 Gerber Fmt 4.6, Leading zero omitted, Abs format (unit mm)*
G04 Created by KiCad (PCBNEW 7.0.1-0) date 2023-08-02 22:38:37*
%MOMM*%
%LPD*%
G01*
G04 APERTURE LIST*
%TA.AperFunction,Profile*%
%ADD10C,0.200000*%
%TD*%
G04 APERTURE END LIST*
D10*
X50300000Y-98800000D02*
X63300000Y-98800000D01*
X49800000Y-98300000D02*
G75*
G03*
X50300000Y-98800000I500001J1D01*
G01*
X49800000Y-85300000D02*
X49800000Y-98300000D01*
X50300000Y-84800000D02*
G75*
G03*
X49800000Y-85300000I1J-500001D01*
G01*
X63300000Y-84800000D02*
X50300000Y-84800000D01*
X63800000Y-85300000D02*
G75*
G03*
X63300000Y-84800000I-500001J-1D01*
G01*
X63800000Y-98300000D02*
X63800000Y-85300000D01*
X63300000Y-98800000D02*
G75*
G03*
X63800000Y-98300000I-1J500001D01*
G01*
X240800000Y-60700000D02*
X253800000Y-60700000D01*
X240300000Y-60200000D02*
G75*
G03*
X240800000Y-60700000I500001J1D01*
G01*
X240300000Y-47200000D02*
X240300000Y-60200000D01*
X240800000Y-46700000D02*
G75*
G03*
X240300000Y-47200000I1J-500001D01*
G01*
X253800000Y-46700000D02*
X240800000Y-46700000D01*
X254300000Y-47200000D02*
G75*
G03*
X253800000Y-46700000I-500001J-1D01*
G01*
X254300000Y-60200000D02*
X254300000Y-47200000D01*
X253800000Y-60700000D02*
G75*
G03*
X254300000Y-60200000I-1J500001D01*
G01*
X107450000Y-79750000D02*
X120450000Y-79750000D01*
X106950000Y-79250000D02*
G75*
G03*
X107450000Y-79750000I500001J1D01*
G01*
X106950000Y-66250000D02*
X106950000Y-79250000D01*
X107450000Y-65750000D02*
G75*
G03*
X106950000Y-66250000I1J-500001D01*
G01*
X120450000Y-65750000D02*
X107450000Y-65750000D01*
X120950000Y-66250000D02*
G75*
G03*
X120450000Y-65750000I-500001J-1D01*
G01*
X120950000Y-79250000D02*
X120950000Y-66250000D01*
X120450000Y-79750000D02*
G75*
G03*
X120950000Y-79250000I-1J500001D01*
G01*
X145550000Y-79750000D02*
X158550000Y-79750000D01*
X145050000Y-79250000D02*
G75*
G03*
X145550000Y-79750000I500001J1D01*
G01*
X145050000Y-66250000D02*
X145050000Y-79250000D01*
X145550000Y-65750000D02*
G75*
G03*
X145050000Y-66250000I1J-500001D01*
G01*
X158550000Y-65750000D02*
X145550000Y-65750000D01*
X159050000Y-66250000D02*
G75*
G03*
X158550000Y-65750000I-500001J-1D01*
G01*
X159050000Y-79250000D02*
X159050000Y-66250000D01*
X158550000Y-79750000D02*
G75*
G03*
X159050000Y-79250000I-1J500001D01*
G01*
X202700000Y-117850000D02*
X215700000Y-117850000D01*
X202200000Y-117350000D02*
G75*
G03*
X202700000Y-117850000I500001J1D01*
G01*
X202200000Y-104350000D02*
X202200000Y-117350000D01*
X202700000Y-103850000D02*
G75*
G03*
X202200000Y-104350000I1J-500001D01*
G01*
X215700000Y-103850000D02*
X202700000Y-103850000D01*
X216200000Y-104350000D02*
G75*
G03*
X215700000Y-103850000I-500001J-1D01*
G01*
X216200000Y-117350000D02*
X216200000Y-104350000D01*
X215700000Y-117850000D02*
G75*
G03*
X216200000Y-117350000I-1J500001D01*
G01*
X69350000Y-79750000D02*
X82350000Y-79750000D01*
X68850000Y-79250000D02*
G75*
G03*
X69350000Y-79750000I500001J1D01*
G01*
X68850000Y-66250000D02*
X68850000Y-79250000D01*
X69350000Y-65750000D02*
G75*
G03*
X68850000Y-66250000I1J-500001D01*
G01*
X82350000Y-65750000D02*
X69350000Y-65750000D01*
X82850000Y-66250000D02*
G75*
G03*
X82350000Y-65750000I-500001J-1D01*
G01*
X82850000Y-79250000D02*
X82850000Y-66250000D01*
X82350000Y-79750000D02*
G75*
G03*
X82850000Y-79250000I-1J500001D01*
G01*
X178100000Y-66250000D02*
G75*
G03*
X177600000Y-65750000I-500001J-1D01*
G01*
X164600000Y-65750000D02*
X177600000Y-65750000D01*
X164600000Y-65750000D02*
G75*
G03*
X164100000Y-66250000I1J-500001D01*
G01*
X164100000Y-79250000D02*
X164100000Y-66250000D01*
X164100000Y-79250000D02*
G75*
G03*
X164600000Y-79750000I500001J1D01*
G01*
X177600000Y-79750000D02*
X164600000Y-79750000D01*
X177600000Y-79750000D02*
G75*
G03*
X178100000Y-79250000I-1J500001D01*
G01*
X178100000Y-66250000D02*
X178100000Y-79250000D01*
X240300000Y-85300000D02*
X240300000Y-98300000D01*
X240800000Y-84800000D02*
G75*
G03*
X240300000Y-85300000I1J-500001D01*
G01*
X253800000Y-84800000D02*
X240800000Y-84800000D01*
X254300000Y-85300000D02*
G75*
G03*
X253800000Y-84800000I-500001J-1D01*
G01*
X254300000Y-98300000D02*
X254300000Y-85300000D01*
X253800000Y-98800000D02*
G75*
G03*
X254300000Y-98300000I-1J500001D01*
G01*
X240800000Y-98800000D02*
X253800000Y-98800000D01*
X240300000Y-98300000D02*
G75*
G03*
X240800000Y-98800000I500001J1D01*
G01*
X145550000Y-117850000D02*
X158550000Y-117850000D01*
X145050000Y-117350000D02*
G75*
G03*
X145550000Y-117850000I500001J1D01*
G01*
X145050000Y-104350000D02*
X145050000Y-117350000D01*
X145550000Y-103850000D02*
G75*
G03*
X145050000Y-104350000I1J-500001D01*
G01*
X158550000Y-103850000D02*
X145550000Y-103850000D01*
X159050000Y-104350000D02*
G75*
G03*
X158550000Y-103850000I-500001J-1D01*
G01*
X159050000Y-117350000D02*
X159050000Y-104350000D01*
X158550000Y-117850000D02*
G75*
G03*
X159050000Y-117350000I-1J500001D01*
G01*
X69350000Y-98800000D02*
X82350000Y-98800000D01*
X68850000Y-98300000D02*
G75*
G03*
X69350000Y-98800000I500001J1D01*
G01*
X68850000Y-85300000D02*
X68850000Y-98300000D01*
X69350000Y-84800000D02*
G75*
G03*
X68850000Y-85300000I1J-500001D01*
G01*
X82350000Y-84800000D02*
X69350000Y-84800000D01*
X82850000Y-85300000D02*
G75*
G03*
X82350000Y-84800000I-500001J-1D01*
G01*
X82850000Y-98300000D02*
X82850000Y-85300000D01*
X82350000Y-98800000D02*
G75*
G03*
X82850000Y-98300000I-1J500001D01*
G01*
X107450000Y-117850000D02*
X120450000Y-117850000D01*
X106950000Y-117350000D02*
G75*
G03*
X107450000Y-117850000I500001J1D01*
G01*
X106950000Y-104350000D02*
X106950000Y-117350000D01*
X107450000Y-103850000D02*
G75*
G03*
X106950000Y-104350000I1J-500001D01*
G01*
X120450000Y-103850000D02*
X107450000Y-103850000D01*
X120950000Y-104350000D02*
G75*
G03*
X120450000Y-103850000I-500001J-1D01*
G01*
X120950000Y-117350000D02*
X120950000Y-104350000D01*
X120450000Y-117850000D02*
G75*
G03*
X120950000Y-117350000I-1J500001D01*
G01*
X145550000Y-98800000D02*
X158550000Y-98800000D01*
X145050000Y-98300000D02*
G75*
G03*
X145550000Y-98800000I500001J1D01*
G01*
X145050000Y-85300000D02*
X145050000Y-98300000D01*
X145550000Y-84800000D02*
G75*
G03*
X145050000Y-85300000I1J-500001D01*
G01*
X158550000Y-84800000D02*
X145550000Y-84800000D01*
X159050000Y-85300000D02*
G75*
G03*
X158550000Y-84800000I-500001J-1D01*
G01*
X159050000Y-98300000D02*
X159050000Y-85300000D01*
X158550000Y-98800000D02*
G75*
G03*
X159050000Y-98300000I-1J500001D01*
G01*
X202700000Y-60700000D02*
X215700000Y-60700000D01*
X202200000Y-60200000D02*
G75*
G03*
X202700000Y-60700000I500001J1D01*
G01*
X202200000Y-47200000D02*
X202200000Y-60200000D01*
X202700000Y-46700000D02*
G75*
G03*
X202200000Y-47200000I1J-500001D01*
G01*
X215700000Y-46700000D02*
X202700000Y-46700000D01*
X216200000Y-47200000D02*
G75*
G03*
X215700000Y-46700000I-500001J-1D01*
G01*
X216200000Y-60200000D02*
X216200000Y-47200000D01*
X215700000Y-60700000D02*
G75*
G03*
X216200000Y-60200000I-1J500001D01*
G01*
X221250000Y-104350000D02*
X221250000Y-117350000D01*
X221750000Y-103850000D02*
G75*
G03*
X221250000Y-104350000I1J-500001D01*
G01*
X234750000Y-103850000D02*
X221750000Y-103850000D01*
X235250000Y-104350000D02*
G75*
G03*
X234750000Y-103850000I-500001J-1D01*
G01*
X235250000Y-117350000D02*
X235250000Y-104350000D01*
X234750000Y-117850000D02*
G75*
G03*
X235250000Y-117350000I-1J500001D01*
G01*
X221750000Y-117850000D02*
X234750000Y-117850000D01*
X221250000Y-117350000D02*
G75*
G03*
X221750000Y-117850000I500001J1D01*
G01*
X235250000Y-85300000D02*
G75*
G03*
X234750000Y-84800000I-500001J-1D01*
G01*
X221750000Y-84800000D02*
X234750000Y-84800000D01*
X221750000Y-84800000D02*
G75*
G03*
X221250000Y-85300000I1J-500001D01*
G01*
X221250000Y-98300000D02*
X221250000Y-85300000D01*
X221250000Y-98300000D02*
G75*
G03*
X221750000Y-98800000I500001J1D01*
G01*
X234750000Y-98800000D02*
X221750000Y-98800000D01*
X234750000Y-98800000D02*
G75*
G03*
X235250000Y-98300000I-1J500001D01*
G01*
X235250000Y-85300000D02*
X235250000Y-98300000D01*
X126500000Y-117850000D02*
X139500000Y-117850000D01*
X126000000Y-117350000D02*
G75*
G03*
X126500000Y-117850000I500001J1D01*
G01*
X126000000Y-104350000D02*
X126000000Y-117350000D01*
X126500000Y-103850000D02*
G75*
G03*
X126000000Y-104350000I1J-500001D01*
G01*
X139500000Y-103850000D02*
X126500000Y-103850000D01*
X140000000Y-104350000D02*
G75*
G03*
X139500000Y-103850000I-500001J-1D01*
G01*
X140000000Y-117350000D02*
X140000000Y-104350000D01*
X139500000Y-117850000D02*
G75*
G03*
X140000000Y-117350000I-1J500001D01*
G01*
X126000000Y-66250000D02*
X126000000Y-79250000D01*
X126500000Y-65750000D02*
G75*
G03*
X126000000Y-66250000I1J-500001D01*
G01*
X139500000Y-65750000D02*
X126500000Y-65750000D01*
X140000000Y-66250000D02*
G75*
G03*
X139500000Y-65750000I-500001J-1D01*
G01*
X140000000Y-79250000D02*
X140000000Y-66250000D01*
X139500000Y-79750000D02*
G75*
G03*
X140000000Y-79250000I-1J500001D01*
G01*
X126500000Y-79750000D02*
X139500000Y-79750000D01*
X126000000Y-79250000D02*
G75*
G03*
X126500000Y-79750000I500001J1D01*
G01*
X21725000Y-98800000D02*
X34725000Y-98800000D01*
X21225000Y-98300000D02*
G75*
G03*
X21725000Y-98800000I500001J1D01*
G01*
X21225000Y-85300000D02*
X21225000Y-98300000D01*
X21725000Y-84800000D02*
G75*
G03*
X21225000Y-85300000I1J-500001D01*
G01*
X34725000Y-84800000D02*
X21725000Y-84800000D01*
X35225000Y-85300000D02*
G75*
G03*
X34725000Y-84800000I-500001J-1D01*
G01*
X35225000Y-98300000D02*
X35225000Y-85300000D01*
X34725000Y-98800000D02*
G75*
G03*
X35225000Y-98300000I-1J500001D01*
G01*
X164600000Y-117850000D02*
X177600000Y-117850000D01*
X164100000Y-117350000D02*
G75*
G03*
X164600000Y-117850000I500001J1D01*
G01*
X164100000Y-104350000D02*
X164100000Y-117350000D01*
X164600000Y-103850000D02*
G75*
G03*
X164100000Y-104350000I1J-500001D01*
G01*
X177600000Y-103850000D02*
X164600000Y-103850000D01*
X178100000Y-104350000D02*
G75*
G03*
X177600000Y-103850000I-500001J-1D01*
G01*
X178100000Y-117350000D02*
X178100000Y-104350000D01*
X177600000Y-117850000D02*
G75*
G03*
X178100000Y-117350000I-1J500001D01*
G01*
X69350000Y-117850000D02*
X82350000Y-117850000D01*
X68850000Y-117350000D02*
G75*
G03*
X69350000Y-117850000I500001J1D01*
G01*
X68850000Y-104350000D02*
X68850000Y-117350000D01*
X69350000Y-103850000D02*
G75*
G03*
X68850000Y-104350000I1J-500001D01*
G01*
X82350000Y-103850000D02*
X69350000Y-103850000D01*
X82850000Y-104350000D02*
G75*
G03*
X82350000Y-103850000I-500001J-1D01*
G01*
X82850000Y-117350000D02*
X82850000Y-104350000D01*
X82350000Y-117850000D02*
G75*
G03*
X82850000Y-117350000I-1J500001D01*
G01*
X140000000Y-47200000D02*
G75*
G03*
X139500000Y-46700000I-500001J-1D01*
G01*
X126500000Y-46700000D02*
X139500000Y-46700000D01*
X126500000Y-46700000D02*
G75*
G03*
X126000000Y-47200000I1J-500001D01*
G01*
X126000000Y-60200000D02*
X126000000Y-47200000D01*
X126000000Y-60200000D02*
G75*
G03*
X126500000Y-60700000I500001J1D01*
G01*
X139500000Y-60700000D02*
X126500000Y-60700000D01*
X139500000Y-60700000D02*
G75*
G03*
X140000000Y-60200000I-1J500001D01*
G01*
X140000000Y-47200000D02*
X140000000Y-60200000D01*
X35225000Y-104350000D02*
G75*
G03*
X34725000Y-103850000I-500001J-1D01*
G01*
X21725000Y-103850000D02*
X34725000Y-103850000D01*
X21725000Y-103850000D02*
G75*
G03*
X21225000Y-104350000I1J-500001D01*
G01*
X21225000Y-117350000D02*
X21225000Y-104350000D01*
X21225000Y-117350000D02*
G75*
G03*
X21725000Y-117850000I500001J1D01*
G01*
X34725000Y-117850000D02*
X21725000Y-117850000D01*
X34725000Y-117850000D02*
G75*
G03*
X35225000Y-117350000I-1J500001D01*
G01*
X35225000Y-104350000D02*
X35225000Y-117350000D01*
X183650000Y-79750000D02*
X196650000Y-79750000D01*
X183150000Y-79250000D02*
G75*
G03*
X183650000Y-79750000I500001J1D01*
G01*
X183150000Y-66250000D02*
X183150000Y-79250000D01*
X183650000Y-65750000D02*
G75*
G03*
X183150000Y-66250000I1J-500001D01*
G01*
X196650000Y-65750000D02*
X183650000Y-65750000D01*
X197150000Y-66250000D02*
G75*
G03*
X196650000Y-65750000I-500001J-1D01*
G01*
X197150000Y-79250000D02*
X197150000Y-66250000D01*
X196650000Y-79750000D02*
G75*
G03*
X197150000Y-79250000I-1J500001D01*
G01*
X240800000Y-117850000D02*
X253800000Y-117850000D01*
X240300000Y-117350000D02*
G75*
G03*
X240800000Y-117850000I500001J1D01*
G01*
X240300000Y-104350000D02*
X240300000Y-117350000D01*
X240800000Y-103850000D02*
G75*
G03*
X240300000Y-104350000I1J-500001D01*
G01*
X253800000Y-103850000D02*
X240800000Y-103850000D01*
X254300000Y-104350000D02*
G75*
G03*
X253800000Y-103850000I-500001J-1D01*
G01*
X254300000Y-117350000D02*
X254300000Y-104350000D01*
X253800000Y-117850000D02*
G75*
G03*
X254300000Y-117350000I-1J500001D01*
G01*
X88400000Y-98800000D02*
X101400000Y-98800000D01*
X87900000Y-98300000D02*
G75*
G03*
X88400000Y-98800000I500001J1D01*
G01*
X87900000Y-85300000D02*
X87900000Y-98300000D01*
X88400000Y-84800000D02*
G75*
G03*
X87900000Y-85300000I1J-500001D01*
G01*
X101400000Y-84800000D02*
X88400000Y-84800000D01*
X101900000Y-85300000D02*
G75*
G03*
X101400000Y-84800000I-500001J-1D01*
G01*
X101900000Y-98300000D02*
X101900000Y-85300000D01*
X101400000Y-98800000D02*
G75*
G03*
X101900000Y-98300000I-1J500001D01*
G01*
X183650000Y-117850000D02*
X196650000Y-117850000D01*
X183150000Y-117350000D02*
G75*
G03*
X183650000Y-117850000I500001J1D01*
G01*
X183150000Y-104350000D02*
X183150000Y-117350000D01*
X183650000Y-103850000D02*
G75*
G03*
X183150000Y-104350000I1J-500001D01*
G01*
X196650000Y-103850000D02*
X183650000Y-103850000D01*
X197150000Y-104350000D02*
G75*
G03*
X196650000Y-103850000I-500001J-1D01*
G01*
X197150000Y-117350000D02*
X197150000Y-104350000D01*
X196650000Y-117850000D02*
G75*
G03*
X197150000Y-117350000I-1J500001D01*
G01*
X164600000Y-98800000D02*
X177600000Y-98800000D01*
X164100000Y-98300000D02*
G75*
G03*
X164600000Y-98800000I500001J1D01*
G01*
X164100000Y-85300000D02*
X164100000Y-98300000D01*
X164600000Y-84800000D02*
G75*
G03*
X164100000Y-85300000I1J-500001D01*
G01*
X177600000Y-84800000D02*
X164600000Y-84800000D01*
X178100000Y-85300000D02*
G75*
G03*
X177600000Y-84800000I-500001J-1D01*
G01*
X178100000Y-98300000D02*
X178100000Y-85300000D01*
X177600000Y-98800000D02*
G75*
G03*
X178100000Y-98300000I-1J500001D01*
G01*
X259850000Y-117850000D02*
X272850000Y-117850000D01*
X259350000Y-117350000D02*
G75*
G03*
X259850000Y-117850000I500001J1D01*
G01*
X259350000Y-104350000D02*
X259350000Y-117350000D01*
X259850000Y-103850000D02*
G75*
G03*
X259350000Y-104350000I1J-500001D01*
G01*
X272850000Y-103850000D02*
X259850000Y-103850000D01*
X273350000Y-104350000D02*
G75*
G03*
X272850000Y-103850000I-500001J-1D01*
G01*
X273350000Y-117350000D02*
X273350000Y-104350000D01*
X272850000Y-117850000D02*
G75*
G03*
X273350000Y-117350000I-1J500001D01*
G01*
X69350000Y-60700000D02*
X82350000Y-60700000D01*
X68850000Y-60200000D02*
G75*
G03*
X69350000Y-60700000I500001J1D01*
G01*
X68850000Y-47200000D02*
X68850000Y-60200000D01*
X69350000Y-46700000D02*
G75*
G03*
X68850000Y-47200000I1J-500001D01*
G01*
X82350000Y-46700000D02*
X69350000Y-46700000D01*
X82850000Y-47200000D02*
G75*
G03*
X82350000Y-46700000I-500001J-1D01*
G01*
X82850000Y-60200000D02*
X82850000Y-47200000D01*
X82350000Y-60700000D02*
G75*
G03*
X82850000Y-60200000I-1J500001D01*
G01*
X88400000Y-117850000D02*
X101400000Y-117850000D01*
X87900000Y-117350000D02*
G75*
G03*
X88400000Y-117850000I500001J1D01*
G01*
X87900000Y-104350000D02*
X87900000Y-117350000D01*
X88400000Y-103850000D02*
G75*
G03*
X87900000Y-104350000I1J-500001D01*
G01*
X101400000Y-103850000D02*
X88400000Y-103850000D01*
X101900000Y-104350000D02*
G75*
G03*
X101400000Y-103850000I-500001J-1D01*
G01*
X101900000Y-117350000D02*
X101900000Y-104350000D01*
X101400000Y-117850000D02*
G75*
G03*
X101900000Y-117350000I-1J500001D01*
G01*
X50300000Y-117850000D02*
X63300000Y-117850000D01*
X49800000Y-117350000D02*
G75*
G03*
X50300000Y-117850000I500001J1D01*
G01*
X49800000Y-104350000D02*
X49800000Y-117350000D01*
X50300000Y-103850000D02*
G75*
G03*
X49800000Y-104350000I1J-500001D01*
G01*
X63300000Y-103850000D02*
X50300000Y-103850000D01*
X63800000Y-104350000D02*
G75*
G03*
X63300000Y-103850000I-500001J-1D01*
G01*
X63800000Y-117350000D02*
X63800000Y-104350000D01*
X63300000Y-117850000D02*
G75*
G03*
X63800000Y-117350000I-1J500001D01*
G01*
X107450000Y-60700000D02*
X120450000Y-60700000D01*
X106950000Y-60200000D02*
G75*
G03*
X107450000Y-60700000I500001J1D01*
G01*
X106950000Y-47200000D02*
X106950000Y-60200000D01*
X107450000Y-46700000D02*
G75*
G03*
X106950000Y-47200000I1J-500001D01*
G01*
X120450000Y-46700000D02*
X107450000Y-46700000D01*
X120950000Y-47200000D02*
G75*
G03*
X120450000Y-46700000I-500001J-1D01*
G01*
X120950000Y-60200000D02*
X120950000Y-47200000D01*
X120450000Y-60700000D02*
G75*
G03*
X120950000Y-60200000I-1J500001D01*
G01*
X259850000Y-98800000D02*
X272850000Y-98800000D01*
X259350000Y-98300000D02*
G75*
G03*
X259850000Y-98800000I500001J1D01*
G01*
X259350000Y-85300000D02*
X259350000Y-98300000D01*
X259850000Y-84800000D02*
G75*
G03*
X259350000Y-85300000I1J-500001D01*
G01*
X272850000Y-84800000D02*
X259850000Y-84800000D01*
X273350000Y-85300000D02*
G75*
G03*
X272850000Y-84800000I-500001J-1D01*
G01*
X273350000Y-98300000D02*
X273350000Y-85300000D01*
X272850000Y-98800000D02*
G75*
G03*
X273350000Y-98300000I-1J500001D01*
G01*
X21725000Y-60700000D02*
X34725000Y-60700000D01*
X21225000Y-60200000D02*
G75*
G03*
X21725000Y-60700000I500001J1D01*
G01*
X21225000Y-47200000D02*
X21225000Y-60200000D01*
X21725000Y-46700000D02*
G75*
G03*
X21225000Y-47200000I1J-500001D01*
G01*
X34725000Y-46700000D02*
X21725000Y-46700000D01*
X35225000Y-47200000D02*
G75*
G03*
X34725000Y-46700000I-500001J-1D01*
G01*
X35225000Y-60200000D02*
X35225000Y-47200000D01*
X34725000Y-60700000D02*
G75*
G03*
X35225000Y-60200000I-1J500001D01*
G01*
X21725000Y-79750000D02*
X34725000Y-79750000D01*
X21225000Y-79250000D02*
G75*
G03*
X21725000Y-79750000I500001J1D01*
G01*
X21225000Y-66250000D02*
X21225000Y-79250000D01*
X21725000Y-65750000D02*
G75*
G03*
X21225000Y-66250000I1J-500001D01*
G01*
X34725000Y-65750000D02*
X21725000Y-65750000D01*
X35225000Y-66250000D02*
G75*
G03*
X34725000Y-65750000I-500001J-1D01*
G01*
X35225000Y-79250000D02*
X35225000Y-66250000D01*
X34725000Y-79750000D02*
G75*
G03*
X35225000Y-79250000I-1J500001D01*
G01*
X50300000Y-79750000D02*
X63300000Y-79750000D01*
X49800000Y-79250000D02*
G75*
G03*
X50300000Y-79750000I500001J1D01*
G01*
X49800000Y-66250000D02*
X49800000Y-79250000D01*
X50300000Y-65750000D02*
G75*
G03*
X49800000Y-66250000I1J-500001D01*
G01*
X63300000Y-65750000D02*
X50300000Y-65750000D01*
X63800000Y-66250000D02*
G75*
G03*
X63300000Y-65750000I-500001J-1D01*
G01*
X63800000Y-79250000D02*
X63800000Y-66250000D01*
X63300000Y-79750000D02*
G75*
G03*
X63800000Y-79250000I-1J500001D01*
G01*
X88400000Y-60700000D02*
X101400000Y-60700000D01*
X87900000Y-60200000D02*
G75*
G03*
X88400000Y-60700000I500001J1D01*
G01*
X87900000Y-47200000D02*
X87900000Y-60200000D01*
X88400000Y-46700000D02*
G75*
G03*
X87900000Y-47200000I1J-500001D01*
G01*
X101400000Y-46700000D02*
X88400000Y-46700000D01*
X101900000Y-47200000D02*
G75*
G03*
X101400000Y-46700000I-500001J-1D01*
G01*
X101900000Y-60200000D02*
X101900000Y-47200000D01*
X101400000Y-60700000D02*
G75*
G03*
X101900000Y-60200000I-1J500001D01*
G01*
X202700000Y-98800000D02*
X215700000Y-98800000D01*
X202200000Y-98300000D02*
G75*
G03*
X202700000Y-98800000I500001J1D01*
G01*
X202200000Y-85300000D02*
X202200000Y-98300000D01*
X202700000Y-84800000D02*
G75*
G03*
X202200000Y-85300000I1J-500001D01*
G01*
X215700000Y-84800000D02*
X202700000Y-84800000D01*
X216200000Y-85300000D02*
G75*
G03*
X215700000Y-84800000I-500001J-1D01*
G01*
X216200000Y-98300000D02*
X216200000Y-85300000D01*
X215700000Y-98800000D02*
G75*
G03*
X216200000Y-98300000I-1J500001D01*
G01*
X107450000Y-98800000D02*
X120450000Y-98800000D01*
X106950000Y-98300000D02*
G75*
G03*
X107450000Y-98800000I500001J1D01*
G01*
X106950000Y-85300000D02*
X106950000Y-98300000D01*
X107450000Y-84800000D02*
G75*
G03*
X106950000Y-85300000I1J-500001D01*
G01*
X120450000Y-84800000D02*
X107450000Y-84800000D01*
X120950000Y-85300000D02*
G75*
G03*
X120450000Y-84800000I-500001J-1D01*
G01*
X120950000Y-98300000D02*
X120950000Y-85300000D01*
X120450000Y-98800000D02*
G75*
G03*
X120950000Y-98300000I-1J500001D01*
G01*
X140000000Y-85300000D02*
G75*
G03*
X139500000Y-84800000I-500001J-1D01*
G01*
X126500000Y-84800000D02*
X139500000Y-84800000D01*
X126500000Y-84800000D02*
G75*
G03*
X126000000Y-85300000I1J-500001D01*
G01*
X126000000Y-98300000D02*
X126000000Y-85300000D01*
X126000000Y-98300000D02*
G75*
G03*
X126500000Y-98800000I500001J1D01*
G01*
X139500000Y-98800000D02*
X126500000Y-98800000D01*
X139500000Y-98800000D02*
G75*
G03*
X140000000Y-98300000I-1J500001D01*
G01*
X140000000Y-85300000D02*
X140000000Y-98300000D01*
X183650000Y-60700000D02*
X196650000Y-60700000D01*
X183150000Y-60200000D02*
G75*
G03*
X183650000Y-60700000I500001J1D01*
G01*
X183150000Y-47200000D02*
X183150000Y-60200000D01*
X183650000Y-46700000D02*
G75*
G03*
X183150000Y-47200000I1J-500001D01*
G01*
X196650000Y-46700000D02*
X183650000Y-46700000D01*
X197150000Y-47200000D02*
G75*
G03*
X196650000Y-46700000I-500001J-1D01*
G01*
X197150000Y-60200000D02*
X197150000Y-47200000D01*
X196650000Y-60700000D02*
G75*
G03*
X197150000Y-60200000I-1J500001D01*
G01*
X240800000Y-79750000D02*
X253800000Y-79750000D01*
X240300000Y-79250000D02*
G75*
G03*
X240800000Y-79750000I500001J1D01*
G01*
X240300000Y-66250000D02*
X240300000Y-79250000D01*
X240800000Y-65750000D02*
G75*
G03*
X240300000Y-66250000I1J-500001D01*
G01*
X253800000Y-65750000D02*
X240800000Y-65750000D01*
X254300000Y-66250000D02*
G75*
G03*
X253800000Y-65750000I-500001J-1D01*
G01*
X254300000Y-79250000D02*
X254300000Y-66250000D01*
X253800000Y-79750000D02*
G75*
G03*
X254300000Y-79250000I-1J500001D01*
G01*
X164600000Y-60700000D02*
X177600000Y-60700000D01*
X164100000Y-60200000D02*
G75*
G03*
X164600000Y-60700000I500001J1D01*
G01*
X164100000Y-47200000D02*
X164100000Y-60200000D01*
X164600000Y-46700000D02*
G75*
G03*
X164100000Y-47200000I1J-500001D01*
G01*
X177600000Y-46700000D02*
X164600000Y-46700000D01*
X178100000Y-47200000D02*
G75*
G03*
X177600000Y-46700000I-500001J-1D01*
G01*
X178100000Y-60200000D02*
X178100000Y-47200000D01*
X177600000Y-60700000D02*
G75*
G03*
X178100000Y-60200000I-1J500001D01*
G01*
X221750000Y-79750000D02*
X234750000Y-79750000D01*
X221250000Y-79250000D02*
G75*
G03*
X221750000Y-79750000I500001J1D01*
G01*
X221250000Y-66250000D02*
X221250000Y-79250000D01*
X221750000Y-65750000D02*
G75*
G03*
X221250000Y-66250000I1J-500001D01*
G01*
X234750000Y-65750000D02*
X221750000Y-65750000D01*
X235250000Y-66250000D02*
G75*
G03*
X234750000Y-65750000I-500001J-1D01*
G01*
X235250000Y-79250000D02*
X235250000Y-66250000D01*
X234750000Y-79750000D02*
G75*
G03*
X235250000Y-79250000I-1J500001D01*
G01*
X221750000Y-60700000D02*
X234750000Y-60700000D01*
X221250000Y-60200000D02*
G75*
G03*
X221750000Y-60700000I500001J1D01*
G01*
X221250000Y-47200000D02*
X221250000Y-60200000D01*
X221750000Y-46700000D02*
G75*
G03*
X221250000Y-47200000I1J-500001D01*
G01*
X234750000Y-46700000D02*
X221750000Y-46700000D01*
X235250000Y-47200000D02*
G75*
G03*
X234750000Y-46700000I-500001J-1D01*
G01*
X235250000Y-60200000D02*
X235250000Y-47200000D01*
X234750000Y-60700000D02*
G75*
G03*
X235250000Y-60200000I-1J500001D01*
G01*
X50300000Y-60700000D02*
X63300000Y-60700000D01*
X49800000Y-60200000D02*
G75*
G03*
X50300000Y-60700000I500001J1D01*
G01*
X49800000Y-47200000D02*
X49800000Y-60200000D01*
X50300000Y-46700000D02*
G75*
G03*
X49800000Y-47200000I1J-500001D01*
G01*
X63300000Y-46700000D02*
X50300000Y-46700000D01*
X63800000Y-47200000D02*
G75*
G03*
X63300000Y-46700000I-500001J-1D01*
G01*
X63800000Y-60200000D02*
X63800000Y-47200000D01*
X63300000Y-60700000D02*
G75*
G03*
X63800000Y-60200000I-1J500001D01*
G01*
X202700000Y-79750000D02*
X215700000Y-79750000D01*
X202200000Y-79250000D02*
G75*
G03*
X202700000Y-79750000I500001J1D01*
G01*
X202200000Y-66250000D02*
X202200000Y-79250000D01*
X202700000Y-65750000D02*
G75*
G03*
X202200000Y-66250000I1J-500001D01*
G01*
X215700000Y-65750000D02*
X202700000Y-65750000D01*
X216200000Y-66250000D02*
G75*
G03*
X215700000Y-65750000I-500001J-1D01*
G01*
X216200000Y-79250000D02*
X216200000Y-66250000D01*
X215700000Y-79750000D02*
G75*
G03*
X216200000Y-79250000I-1J500001D01*
G01*
X145550000Y-60700000D02*
X158550000Y-60700000D01*
X145050000Y-60200000D02*
G75*
G03*
X145550000Y-60700000I500001J1D01*
G01*
X145050000Y-47200000D02*
X145050000Y-60200000D01*
X145550000Y-46700000D02*
G75*
G03*
X145050000Y-47200000I1J-500001D01*
G01*
X158550000Y-46700000D02*
X145550000Y-46700000D01*
X159050000Y-47200000D02*
G75*
G03*
X158550000Y-46700000I-500001J-1D01*
G01*
X159050000Y-60200000D02*
X159050000Y-47200000D01*
X158550000Y-60700000D02*
G75*
G03*
X159050000Y-60200000I-1J500001D01*
G01*
X273350000Y-66250000D02*
G75*
G03*
X272850000Y-65750000I-500001J-1D01*
G01*
X259850000Y-65750000D02*
X272850000Y-65750000D01*
X259850000Y-65750000D02*
G75*
G03*
X259350000Y-66250000I1J-500001D01*
G01*
X259350000Y-79250000D02*
X259350000Y-66250000D01*
X259350000Y-79250000D02*
G75*
G03*
X259850000Y-79750000I500001J1D01*
G01*
X272850000Y-79750000D02*
X259850000Y-79750000D01*
X272850000Y-79750000D02*
G75*
G03*
X273350000Y-79250000I-1J500001D01*
G01*
X273350000Y-66250000D02*
X273350000Y-79250000D01*
X87900000Y-66250000D02*
X87900000Y-79250000D01*
X88400000Y-65750000D02*
G75*
G03*
X87900000Y-66250000I1J-500001D01*
G01*
X101400000Y-65750000D02*
X88400000Y-65750000D01*
X101900000Y-66250000D02*
G75*
G03*
X101400000Y-65750000I-500001J-1D01*
G01*
X101900000Y-79250000D02*
X101900000Y-66250000D01*
X101400000Y-79750000D02*
G75*
G03*
X101900000Y-79250000I-1J500001D01*
G01*
X88400000Y-79750000D02*
X101400000Y-79750000D01*
X87900000Y-79250000D02*
G75*
G03*
X88400000Y-79750000I500001J1D01*
G01*
X183650000Y-98800000D02*
X196650000Y-98800000D01*
X183150000Y-98300000D02*
G75*
G03*
X183650000Y-98800000I500001J1D01*
G01*
X183150000Y-85300000D02*
X183150000Y-98300000D01*
X183650000Y-84800000D02*
G75*
G03*
X183150000Y-85300000I1J-500001D01*
G01*
X196650000Y-84800000D02*
X183650000Y-84800000D01*
X197150000Y-85300000D02*
G75*
G03*
X196650000Y-84800000I-500001J-1D01*
G01*
X197150000Y-98300000D02*
X197150000Y-85300000D01*
X196650000Y-98800000D02*
G75*
G03*
X197150000Y-98300000I-1J500001D01*
G01*
X273350000Y-47200000D02*
G75*
G03*
X272850000Y-46700000I-500001J-1D01*
G01*
X259850000Y-46700000D02*
X272850000Y-46700000D01*
X259850000Y-46700000D02*
G75*
G03*
X259350000Y-47200000I1J-500001D01*
G01*
X259350000Y-60200000D02*
X259350000Y-47200000D01*
X259350000Y-60200000D02*
G75*
G03*
X259850000Y-60700000I500001J1D01*
G01*
X272850000Y-60700000D02*
X259850000Y-60700000D01*
X272850000Y-60700000D02*
G75*
G03*
X273350000Y-60200000I-1J500001D01*
G01*
X273350000Y-47200000D02*
X273350000Y-60200000D01*
X256515625Y-39425000D02*
X199515625Y-39425000D01*
X258015625Y-40925000D02*
G75*
G03*
X256515625Y-39425000I-1500001J-1D01*
G01*
X258015625Y-41675000D02*
X258015625Y-40925000D01*
X256515625Y-43175000D02*
G75*
G03*
X258015625Y-41675000I-1J1500001D01*
G01*
X238015625Y-43175000D02*
X256515625Y-43175000D01*
X238015625Y-44175000D02*
X238015625Y-43175000D01*
X274875000Y-44175000D02*
X238015625Y-44175000D01*
X275875000Y-45175000D02*
G75*
G03*
X274875000Y-44175000I-999999J1D01*
G01*
X275875000Y-119375000D02*
X275875000Y-45175000D01*
X274875000Y-120375000D02*
G75*
G03*
X275875000Y-119375000I1J999999D01*
G01*
X238015625Y-120375000D02*
X274875000Y-120375000D01*
X238015625Y-121375000D02*
X238015625Y-120375000D01*
X256515625Y-121375000D02*
X238015625Y-121375000D01*
X258015625Y-122875000D02*
G75*
G03*
X256515625Y-121375000I-1500001J-1D01*
G01*
X258015625Y-123625000D02*
X258015625Y-122875000D01*
X256515625Y-125125000D02*
G75*
G03*
X258015625Y-123625000I-1J1500001D01*
G01*
X199515625Y-125125000D02*
X256515625Y-125125000D01*
X198015625Y-123625000D02*
G75*
G03*
X199515625Y-125125000I1500001J1D01*
G01*
X198015625Y-122875000D02*
X198015625Y-123625000D01*
X199515625Y-121375000D02*
G75*
G03*
X198015625Y-122875000I1J-1500001D01*
G01*
X218015625Y-121375000D02*
X199515625Y-121375000D01*
X218015625Y-120375000D02*
X218015625Y-121375000D01*
X76559375Y-120375000D02*
X218015625Y-120375000D01*
X76559375Y-121375000D02*
X76559375Y-120375000D01*
X95059375Y-121375000D02*
X76559375Y-121375000D01*
X96559375Y-122875000D02*
G75*
G03*
X95059375Y-121375000I-1500001J-1D01*
G01*
X96559375Y-123625000D02*
X96559375Y-122875000D01*
X95059375Y-125125000D02*
G75*
G03*
X96559375Y-123625000I-1J1500001D01*
G01*
X38059375Y-125125000D02*
X95059375Y-125125000D01*
X36559375Y-123625000D02*
G75*
G03*
X38059375Y-125125000I1500001J1D01*
G01*
X36559375Y-122875000D02*
X36559375Y-123625000D01*
X38059375Y-121375000D02*
G75*
G03*
X36559375Y-122875000I1J-1500001D01*
G01*
X56559375Y-121375000D02*
X38059375Y-121375000D01*
X56559375Y-120375000D02*
X56559375Y-121375000D01*
X19700000Y-120375000D02*
X56559375Y-120375000D01*
X18700000Y-119375000D02*
G75*
G03*
X19700000Y-120375000I999999J-1D01*
G01*
X18700000Y-45175000D02*
X18700000Y-119375000D01*
X19700000Y-44175000D02*
G75*
G03*
X18700000Y-45175000I-1J-999999D01*
G01*
X56559375Y-44175000D02*
X19700000Y-44175000D01*
X56559375Y-43175000D02*
X56559375Y-44175000D01*
X38059375Y-43175000D02*
X56559375Y-43175000D01*
X36559375Y-41675000D02*
G75*
G03*
X38059375Y-43175000I1500001J1D01*
G01*
X36559375Y-40925000D02*
X36559375Y-41675000D01*
X38059375Y-39425000D02*
G75*
G03*
X36559375Y-40925000I1J-1500001D01*
G01*
X95059375Y-39425000D02*
X38059375Y-39425000D01*
X96559375Y-40925000D02*
G75*
G03*
X95059375Y-39425000I-1500001J-1D01*
G01*
X96559375Y-41675000D02*
X96559375Y-40925000D01*
X95059375Y-43175000D02*
G75*
G03*
X96559375Y-41675000I-1J1500001D01*
G01*
X76559375Y-43175000D02*
X95059375Y-43175000D01*
X76559375Y-44175000D02*
X76559375Y-43175000D01*
X218015625Y-44175000D02*
X76559375Y-44175000D01*
X218015625Y-43175000D02*
X218015625Y-44175000D01*
X199515625Y-43175000D02*
X218015625Y-43175000D01*
X198015625Y-41675000D02*
G75*
G03*
X199515625Y-43175000I1500001J1D01*
G01*
X198015625Y-40925000D02*
X198015625Y-41675000D01*
X199515625Y-39425000D02*
G75*
G03*
X198015625Y-40925000I1J-1500001D01*
G01*
M02*
