G04 #@! TF.GenerationSoftware,KiCad,Pcbnew,(6.0.0-0)*
G04 #@! TF.CreationDate,2022-01-19T17:07:01-06:00*
G04 #@! TF.ProjectId,top_plate,746f705f-706c-4617-9465-2e6b69636164,rev?*
G04 #@! TF.SameCoordinates,Original*
G04 #@! TF.FileFunction,Soldermask,Bot*
G04 #@! TF.FilePolarity,Negative*
%FSLAX46Y46*%
G04 Gerber Fmt 4.6, Leading zero omitted, Abs format (unit mm)*
G04 Created by KiCad (PCBNEW (6.0.0-0)) date 2022-01-19 17:07:01*
%MOMM*%
%LPD*%
G01*
G04 APERTURE LIST*
G04 Aperture macros list*
%AMRoundRect*
0 Rectangle with rounded corners*
0 $1 Rounding radius*
0 $2 $3 $4 $5 $6 $7 $8 $9 X,Y pos of 4 corners*
0 Add a 4 corners polygon primitive as box body*
4,1,4,$2,$3,$4,$5,$6,$7,$8,$9,$2,$3,0*
0 Add four circle primitives for the rounded corners*
1,1,$1+$1,$2,$3*
1,1,$1+$1,$4,$5*
1,1,$1+$1,$6,$7*
1,1,$1+$1,$8,$9*
0 Add four rect primitives between the rounded corners*
20,1,$1+$1,$2,$3,$4,$5,0*
20,1,$1+$1,$4,$5,$6,$7,0*
20,1,$1+$1,$6,$7,$8,$9,0*
20,1,$1+$1,$8,$9,$2,$3,0*%
G04 Aperture macros list end*
%ADD10C,2.000000*%
%ADD11C,0.120000*%
%ADD12RoundRect,0.237500X-0.237500X0.287500X-0.237500X-0.287500X0.237500X-0.287500X0.237500X0.287500X0*%
G04 APERTURE END LIST*
D10*
X390526556Y-122039333D02*
X390526556Y-118467455D01*
X388145304Y-122039333D02*
X388145304Y-118467455D01*
X388145304Y-122039333D02*
G75*
G03*
X390526556Y-122039333I1190626J0D01*
G01*
X390526556Y-118467455D02*
G75*
G03*
X388145304Y-118467455I-1190626J0D01*
G01*
X313135866Y-122039238D02*
X313135866Y-118467360D01*
X310754614Y-122039238D02*
X310754614Y-118467360D01*
X310754614Y-122039238D02*
G75*
G03*
X313135866Y-122039238I1190626J0D01*
G01*
X313135866Y-118467360D02*
G75*
G03*
X310754614Y-118467360I-1190626J0D01*
G01*
X234554550Y-122039352D02*
X234554550Y-118467474D01*
X232173298Y-122039352D02*
X232173298Y-118467474D01*
X232173298Y-122039352D02*
G75*
G03*
X234554550Y-122039352I1190626J0D01*
G01*
X234554550Y-118467474D02*
G75*
G03*
X232173298Y-118467474I-1190626J0D01*
G01*
X157163860Y-122039238D02*
X157163860Y-118467360D01*
X154782608Y-122039238D02*
X154782608Y-118467360D01*
X154782608Y-122039238D02*
G75*
G03*
X157163860Y-122039238I1190626J0D01*
G01*
X157163860Y-118467360D02*
G75*
G03*
X154782608Y-118467360I-1190626J0D01*
G01*
X388145304Y-35123627D02*
X388145304Y-38695505D01*
X390526556Y-35123627D02*
X390526556Y-38695505D01*
X390526556Y-35123627D02*
G75*
G03*
X388145304Y-35123627I-1190626J0D01*
G01*
X388145304Y-38695505D02*
G75*
G03*
X390526556Y-38695505I1190626J0D01*
G01*
X310754614Y-35123616D02*
X310754614Y-38695494D01*
X313135866Y-35123616D02*
X313135866Y-38695494D01*
X313135866Y-35123616D02*
G75*
G03*
X310754614Y-35123616I-1190626J0D01*
G01*
X310754614Y-38695494D02*
G75*
G03*
X313135866Y-38695494I1190626J0D01*
G01*
X232173298Y-35123635D02*
X232173298Y-38695513D01*
X234554550Y-35123635D02*
X234554550Y-38695513D01*
X234554550Y-35123635D02*
G75*
G03*
X232173298Y-35123635I-1190626J0D01*
G01*
X232173298Y-38695513D02*
G75*
G03*
X234554550Y-38695513I1190626J0D01*
G01*
X154782608Y-38695513D02*
G75*
G03*
X157163860Y-38695513I1190626J0D01*
G01*
X157163860Y-35123635D02*
G75*
G03*
X154782608Y-35123635I-1190626J0D01*
G01*
X157163860Y-35123635D02*
X157163860Y-38695513D01*
X154782608Y-35123635D02*
X154782608Y-38695513D01*
X162472530Y-57006460D02*
X149472530Y-57006460D01*
X149472530Y-43006460D02*
X162472530Y-43006460D01*
D11*
X163772530Y-47106460D02*
X163272530Y-47106460D01*
X163272530Y-52906460D02*
X163672530Y-52906460D01*
D10*
X148472530Y-44006460D02*
X148472530Y-56006460D01*
X163472530Y-44006460D02*
X163472530Y-56006460D01*
X148472530Y-56006460D02*
G75*
G03*
X149472530Y-57006460I999999J-1D01*
G01*
X149472530Y-43006460D02*
G75*
G03*
X148472530Y-44006460I-1J-999999D01*
G01*
X163472530Y-44006460D02*
G75*
G03*
X162472530Y-43006460I-999999J1D01*
G01*
X162472530Y-57006460D02*
G75*
G03*
X163472530Y-56006460I1J999999D01*
G01*
D11*
X182822610Y-47106460D02*
X182322610Y-47106460D01*
X182322610Y-52906460D02*
X182722610Y-52906460D01*
D10*
X168522610Y-43006460D02*
X181522610Y-43006460D01*
X167522610Y-44006460D02*
X167522610Y-56006460D01*
X181522610Y-57006460D02*
X168522610Y-57006460D01*
X182522610Y-44006460D02*
X182522610Y-56006460D01*
X181522610Y-57006460D02*
G75*
G03*
X182522610Y-56006460I1J999999D01*
G01*
X182522610Y-44006460D02*
G75*
G03*
X181522610Y-43006460I-999999J1D01*
G01*
X168522610Y-43006460D02*
G75*
G03*
X167522610Y-44006460I-1J-999999D01*
G01*
X167522610Y-56006460D02*
G75*
G03*
X168522610Y-57006460I999999J-1D01*
G01*
D11*
X201872690Y-47106460D02*
X201372690Y-47106460D01*
D10*
X200572690Y-57006460D02*
X187572690Y-57006460D01*
X186572690Y-44006460D02*
X186572690Y-56006460D01*
D11*
X201372690Y-52906460D02*
X201772690Y-52906460D01*
D10*
X187572690Y-43006460D02*
X200572690Y-43006460D01*
X201572690Y-44006460D02*
X201572690Y-56006460D01*
X186572690Y-56006460D02*
G75*
G03*
X187572690Y-57006460I999999J-1D01*
G01*
X200572690Y-57006460D02*
G75*
G03*
X201572690Y-56006460I1J999999D01*
G01*
X201572690Y-44006460D02*
G75*
G03*
X200572690Y-43006460I-999999J1D01*
G01*
X187572690Y-43006460D02*
G75*
G03*
X186572690Y-44006460I-1J-999999D01*
G01*
D11*
X220422770Y-52906460D02*
X220822770Y-52906460D01*
D10*
X206622770Y-43006460D02*
X219622770Y-43006460D01*
X219622770Y-57006460D02*
X206622770Y-57006460D01*
X205622770Y-44006460D02*
X205622770Y-56006460D01*
D11*
X220922770Y-47106460D02*
X220422770Y-47106460D01*
D10*
X220622770Y-44006460D02*
X220622770Y-56006460D01*
X206622770Y-43006460D02*
G75*
G03*
X205622770Y-44006460I-1J-999999D01*
G01*
X220622770Y-44006460D02*
G75*
G03*
X219622770Y-43006460I-999999J1D01*
G01*
X219622770Y-57006460D02*
G75*
G03*
X220622770Y-56006460I1J999999D01*
G01*
X205622770Y-56006460D02*
G75*
G03*
X206622770Y-57006460I999999J-1D01*
G01*
X239672850Y-44006460D02*
X239672850Y-56006460D01*
D11*
X239972850Y-47106460D02*
X239472850Y-47106460D01*
X239472850Y-52906460D02*
X239872850Y-52906460D01*
D10*
X224672850Y-44006460D02*
X224672850Y-56006460D01*
X225672850Y-43006460D02*
X238672850Y-43006460D01*
X238672850Y-57006460D02*
X225672850Y-57006460D01*
X239672850Y-44006460D02*
G75*
G03*
X238672850Y-43006460I-999999J1D01*
G01*
X224672850Y-56006460D02*
G75*
G03*
X225672850Y-57006460I999999J-1D01*
G01*
X238672850Y-57006460D02*
G75*
G03*
X239672850Y-56006460I1J999999D01*
G01*
X225672850Y-43006460D02*
G75*
G03*
X224672850Y-44006460I-1J-999999D01*
G01*
X333923250Y-57006460D02*
X320923250Y-57006460D01*
X334923250Y-44006460D02*
X334923250Y-56006460D01*
D11*
X334723250Y-52906460D02*
X335123250Y-52906460D01*
D10*
X320923250Y-43006460D02*
X333923250Y-43006460D01*
X319923250Y-44006460D02*
X319923250Y-56006460D01*
D11*
X335223250Y-47106460D02*
X334723250Y-47106460D01*
D10*
X319923250Y-56006460D02*
G75*
G03*
X320923250Y-57006460I999999J-1D01*
G01*
X320923250Y-43006460D02*
G75*
G03*
X319923250Y-44006460I-1J-999999D01*
G01*
X334923250Y-44006460D02*
G75*
G03*
X333923250Y-43006460I-999999J1D01*
G01*
X333923250Y-57006460D02*
G75*
G03*
X334923250Y-56006460I1J999999D01*
G01*
X352973330Y-57006460D02*
X339973330Y-57006460D01*
D11*
X354273330Y-47106460D02*
X353773330Y-47106460D01*
D10*
X339973330Y-43006460D02*
X352973330Y-43006460D01*
D11*
X353773330Y-52906460D02*
X354173330Y-52906460D01*
D10*
X338973330Y-44006460D02*
X338973330Y-56006460D01*
X353973330Y-44006460D02*
X353973330Y-56006460D01*
X352973330Y-57006460D02*
G75*
G03*
X353973330Y-56006460I1J999999D01*
G01*
X339973330Y-43006460D02*
G75*
G03*
X338973330Y-44006460I-1J-999999D01*
G01*
X353973330Y-44006460D02*
G75*
G03*
X352973330Y-43006460I-999999J1D01*
G01*
X338973330Y-56006460D02*
G75*
G03*
X339973330Y-57006460I999999J-1D01*
G01*
D11*
X163272530Y-71956540D02*
X163672530Y-71956540D01*
D10*
X162472530Y-76056540D02*
X149472530Y-76056540D01*
X163472530Y-63056540D02*
X163472530Y-75056540D01*
X148472530Y-63056540D02*
X148472530Y-75056540D01*
X149472530Y-62056540D02*
X162472530Y-62056540D01*
D11*
X163772530Y-66156540D02*
X163272530Y-66156540D01*
D10*
X162472530Y-76056540D02*
G75*
G03*
X163472530Y-75056540I1J999999D01*
G01*
X163472530Y-63056540D02*
G75*
G03*
X162472530Y-62056540I-999999J1D01*
G01*
X149472530Y-62056540D02*
G75*
G03*
X148472530Y-63056540I-1J-999999D01*
G01*
X148472530Y-75056540D02*
G75*
G03*
X149472530Y-76056540I999999J-1D01*
G01*
X200572690Y-76056540D02*
X187572690Y-76056540D01*
X187572690Y-62056540D02*
X200572690Y-62056540D01*
X186572690Y-63056540D02*
X186572690Y-75056540D01*
X201572690Y-63056540D02*
X201572690Y-75056540D01*
D11*
X201372690Y-71956540D02*
X201772690Y-71956540D01*
X201872690Y-66156540D02*
X201372690Y-66156540D01*
D10*
X187572690Y-62056540D02*
G75*
G03*
X186572690Y-63056540I-1J-999999D01*
G01*
X186572690Y-75056540D02*
G75*
G03*
X187572690Y-76056540I999999J-1D01*
G01*
X200572690Y-76056540D02*
G75*
G03*
X201572690Y-75056540I1J999999D01*
G01*
X201572690Y-63056540D02*
G75*
G03*
X200572690Y-62056540I-999999J1D01*
G01*
X239672850Y-63056540D02*
X239672850Y-75056540D01*
X225672850Y-62056540D02*
X238672850Y-62056540D01*
D11*
X239972850Y-66156540D02*
X239472850Y-66156540D01*
D10*
X224672850Y-63056540D02*
X224672850Y-75056540D01*
X238672850Y-76056540D02*
X225672850Y-76056540D01*
D11*
X239472850Y-71956540D02*
X239872850Y-71956540D01*
D10*
X239672850Y-63056540D02*
G75*
G03*
X238672850Y-62056540I-999999J1D01*
G01*
X238672850Y-76056540D02*
G75*
G03*
X239672850Y-75056540I1J999999D01*
G01*
X224672850Y-75056540D02*
G75*
G03*
X225672850Y-76056540I999999J-1D01*
G01*
X225672850Y-62056540D02*
G75*
G03*
X224672850Y-63056540I-1J-999999D01*
G01*
X257722930Y-76056540D02*
X244722930Y-76056540D01*
X244722930Y-62056540D02*
X257722930Y-62056540D01*
X243722930Y-63056540D02*
X243722930Y-75056540D01*
D11*
X258522930Y-71956540D02*
X258922930Y-71956540D01*
X259022930Y-66156540D02*
X258522930Y-66156540D01*
D10*
X258722930Y-63056540D02*
X258722930Y-75056540D01*
X257722930Y-76056540D02*
G75*
G03*
X258722930Y-75056540I1J999999D01*
G01*
X243722930Y-75056540D02*
G75*
G03*
X244722930Y-76056540I999999J-1D01*
G01*
X258722930Y-63056540D02*
G75*
G03*
X257722930Y-62056540I-999999J1D01*
G01*
X244722930Y-62056540D02*
G75*
G03*
X243722930Y-63056540I-1J-999999D01*
G01*
X263773010Y-62056540D02*
X276773010Y-62056540D01*
D11*
X277573010Y-71956540D02*
X277973010Y-71956540D01*
D10*
X276773010Y-76056540D02*
X263773010Y-76056540D01*
D11*
X278073010Y-66156540D02*
X277573010Y-66156540D01*
D10*
X277773010Y-63056540D02*
X277773010Y-75056540D01*
X262773010Y-63056540D02*
X262773010Y-75056540D01*
X277773010Y-63056540D02*
G75*
G03*
X276773010Y-62056540I-999999J1D01*
G01*
X276773010Y-76056540D02*
G75*
G03*
X277773010Y-75056540I1J999999D01*
G01*
X263773010Y-62056540D02*
G75*
G03*
X262773010Y-63056540I-1J-999999D01*
G01*
X262773010Y-75056540D02*
G75*
G03*
X263773010Y-76056540I999999J-1D01*
G01*
D11*
X297123090Y-66156540D02*
X296623090Y-66156540D01*
D10*
X296823090Y-63056540D02*
X296823090Y-75056540D01*
X281823090Y-63056540D02*
X281823090Y-75056540D01*
D11*
X296623090Y-71956540D02*
X297023090Y-71956540D01*
D10*
X282823090Y-62056540D02*
X295823090Y-62056540D01*
X295823090Y-76056540D02*
X282823090Y-76056540D01*
X281823090Y-75056540D02*
G75*
G03*
X282823090Y-76056540I999999J-1D01*
G01*
X295823090Y-76056540D02*
G75*
G03*
X296823090Y-75056540I1J999999D01*
G01*
X282823090Y-62056540D02*
G75*
G03*
X281823090Y-63056540I-1J-999999D01*
G01*
X296823090Y-63056540D02*
G75*
G03*
X295823090Y-62056540I-999999J1D01*
G01*
X300873170Y-63056540D02*
X300873170Y-75056540D01*
X301873170Y-62056540D02*
X314873170Y-62056540D01*
X315873170Y-63056540D02*
X315873170Y-75056540D01*
X314873170Y-76056540D02*
X301873170Y-76056540D01*
D11*
X315673170Y-71956540D02*
X316073170Y-71956540D01*
X316173170Y-66156540D02*
X315673170Y-66156540D01*
D10*
X314873170Y-76056540D02*
G75*
G03*
X315873170Y-75056540I1J999999D01*
G01*
X301873170Y-62056540D02*
G75*
G03*
X300873170Y-63056540I-1J-999999D01*
G01*
X300873170Y-75056540D02*
G75*
G03*
X301873170Y-76056540I999999J-1D01*
G01*
X315873170Y-63056540D02*
G75*
G03*
X314873170Y-62056540I-999999J1D01*
G01*
D11*
X334723250Y-71956540D02*
X335123250Y-71956540D01*
D10*
X319923250Y-63056540D02*
X319923250Y-75056540D01*
X320923250Y-62056540D02*
X333923250Y-62056540D01*
X333923250Y-76056540D02*
X320923250Y-76056540D01*
D11*
X335223250Y-66156540D02*
X334723250Y-66156540D01*
D10*
X334923250Y-63056540D02*
X334923250Y-75056540D01*
X320923250Y-62056540D02*
G75*
G03*
X319923250Y-63056540I-1J-999999D01*
G01*
X319923250Y-75056540D02*
G75*
G03*
X320923250Y-76056540I999999J-1D01*
G01*
X334923250Y-63056540D02*
G75*
G03*
X333923250Y-62056540I-999999J1D01*
G01*
X333923250Y-76056540D02*
G75*
G03*
X334923250Y-75056540I1J999999D01*
G01*
X339973330Y-62056540D02*
X352973330Y-62056540D01*
X352973330Y-76056540D02*
X339973330Y-76056540D01*
X338973330Y-63056540D02*
X338973330Y-75056540D01*
D11*
X353773330Y-71956540D02*
X354173330Y-71956540D01*
X354273330Y-66156540D02*
X353773330Y-66156540D01*
D10*
X353973330Y-63056540D02*
X353973330Y-75056540D01*
X338973330Y-75056540D02*
G75*
G03*
X339973330Y-76056540I999999J-1D01*
G01*
X353973330Y-63056540D02*
G75*
G03*
X352973330Y-62056540I-999999J1D01*
G01*
X352973330Y-76056540D02*
G75*
G03*
X353973330Y-75056540I1J999999D01*
G01*
X339973330Y-62056540D02*
G75*
G03*
X338973330Y-63056540I-1J-999999D01*
G01*
D11*
X372823410Y-71956540D02*
X373223410Y-71956540D01*
X373323410Y-66156540D02*
X372823410Y-66156540D01*
D10*
X372023410Y-76056540D02*
X359023410Y-76056540D01*
X358023410Y-63056540D02*
X358023410Y-75056540D01*
X373023410Y-63056540D02*
X373023410Y-75056540D01*
X359023410Y-62056540D02*
X372023410Y-62056540D01*
X358023410Y-75056540D02*
G75*
G03*
X359023410Y-76056540I999999J-1D01*
G01*
X373023410Y-63056540D02*
G75*
G03*
X372023410Y-62056540I-999999J1D01*
G01*
X359023410Y-62056540D02*
G75*
G03*
X358023410Y-63056540I-1J-999999D01*
G01*
X372023410Y-76056540D02*
G75*
G03*
X373023410Y-75056540I1J999999D01*
G01*
X162472530Y-95106620D02*
X149472530Y-95106620D01*
D11*
X163272530Y-91006620D02*
X163672530Y-91006620D01*
D10*
X149472530Y-81106620D02*
X162472530Y-81106620D01*
D11*
X163772530Y-85206620D02*
X163272530Y-85206620D01*
D10*
X163472530Y-82106620D02*
X163472530Y-94106620D01*
X148472530Y-82106620D02*
X148472530Y-94106620D01*
X149472530Y-81106620D02*
G75*
G03*
X148472530Y-82106620I-1J-999999D01*
G01*
X162472530Y-95106620D02*
G75*
G03*
X163472530Y-94106620I1J999999D01*
G01*
X148472530Y-94106620D02*
G75*
G03*
X149472530Y-95106620I999999J-1D01*
G01*
X163472530Y-82106620D02*
G75*
G03*
X162472530Y-81106620I-999999J1D01*
G01*
X168522610Y-81106620D02*
X181522610Y-81106620D01*
D11*
X182322610Y-91006620D02*
X182722610Y-91006620D01*
D10*
X182522610Y-82106620D02*
X182522610Y-94106620D01*
X167522610Y-82106620D02*
X167522610Y-94106620D01*
X181522610Y-95106620D02*
X168522610Y-95106620D01*
D11*
X182822610Y-85206620D02*
X182322610Y-85206620D01*
D10*
X168522610Y-81106620D02*
G75*
G03*
X167522610Y-82106620I-1J-999999D01*
G01*
X182522610Y-82106620D02*
G75*
G03*
X181522610Y-81106620I-999999J1D01*
G01*
X167522610Y-94106620D02*
G75*
G03*
X168522610Y-95106620I999999J-1D01*
G01*
X181522610Y-95106620D02*
G75*
G03*
X182522610Y-94106620I1J999999D01*
G01*
D11*
X201372690Y-91006620D02*
X201772690Y-91006620D01*
D10*
X201572690Y-82106620D02*
X201572690Y-94106620D01*
X187572690Y-81106620D02*
X200572690Y-81106620D01*
X200572690Y-95106620D02*
X187572690Y-95106620D01*
X186572690Y-82106620D02*
X186572690Y-94106620D01*
D11*
X201872690Y-85206620D02*
X201372690Y-85206620D01*
D10*
X187572690Y-81106620D02*
G75*
G03*
X186572690Y-82106620I-1J-999999D01*
G01*
X201572690Y-82106620D02*
G75*
G03*
X200572690Y-81106620I-999999J1D01*
G01*
X200572690Y-95106620D02*
G75*
G03*
X201572690Y-94106620I1J999999D01*
G01*
X186572690Y-94106620D02*
G75*
G03*
X187572690Y-95106620I999999J-1D01*
G01*
X205622770Y-82106620D02*
X205622770Y-94106620D01*
D11*
X220422770Y-91006620D02*
X220822770Y-91006620D01*
X220922770Y-85206620D02*
X220422770Y-85206620D01*
D10*
X206622770Y-81106620D02*
X219622770Y-81106620D01*
X219622770Y-95106620D02*
X206622770Y-95106620D01*
X220622770Y-82106620D02*
X220622770Y-94106620D01*
X205622770Y-94106620D02*
G75*
G03*
X206622770Y-95106620I999999J-1D01*
G01*
X206622770Y-81106620D02*
G75*
G03*
X205622770Y-82106620I-1J-999999D01*
G01*
X220622770Y-82106620D02*
G75*
G03*
X219622770Y-81106620I-999999J1D01*
G01*
X219622770Y-95106620D02*
G75*
G03*
X220622770Y-94106620I1J999999D01*
G01*
X238672850Y-95106620D02*
X225672850Y-95106620D01*
X224672850Y-82106620D02*
X224672850Y-94106620D01*
D11*
X239472850Y-91006620D02*
X239872850Y-91006620D01*
D10*
X225672850Y-81106620D02*
X238672850Y-81106620D01*
D11*
X239972850Y-85206620D02*
X239472850Y-85206620D01*
D10*
X239672850Y-82106620D02*
X239672850Y-94106620D01*
X224672850Y-94106620D02*
G75*
G03*
X225672850Y-95106620I999999J-1D01*
G01*
X225672850Y-81106620D02*
G75*
G03*
X224672850Y-82106620I-1J-999999D01*
G01*
X239672850Y-82106620D02*
G75*
G03*
X238672850Y-81106620I-999999J1D01*
G01*
X238672850Y-95106620D02*
G75*
G03*
X239672850Y-94106620I1J999999D01*
G01*
X257722930Y-95106620D02*
X244722930Y-95106620D01*
X244722930Y-81106620D02*
X257722930Y-81106620D01*
D11*
X259022930Y-85206620D02*
X258522930Y-85206620D01*
X258522930Y-91006620D02*
X258922930Y-91006620D01*
D10*
X243722930Y-82106620D02*
X243722930Y-94106620D01*
X258722930Y-82106620D02*
X258722930Y-94106620D01*
X258722930Y-82106620D02*
G75*
G03*
X257722930Y-81106620I-999999J1D01*
G01*
X243722930Y-94106620D02*
G75*
G03*
X244722930Y-95106620I999999J-1D01*
G01*
X257722930Y-95106620D02*
G75*
G03*
X258722930Y-94106620I1J999999D01*
G01*
X244722930Y-81106620D02*
G75*
G03*
X243722930Y-82106620I-1J-999999D01*
G01*
D11*
X277573010Y-91006620D02*
X277973010Y-91006620D01*
D10*
X262773010Y-82106620D02*
X262773010Y-94106620D01*
X277773010Y-82106620D02*
X277773010Y-94106620D01*
X276773010Y-95106620D02*
X263773010Y-95106620D01*
X263773010Y-81106620D02*
X276773010Y-81106620D01*
D11*
X278073010Y-85206620D02*
X277573010Y-85206620D01*
D10*
X262773010Y-94106620D02*
G75*
G03*
X263773010Y-95106620I999999J-1D01*
G01*
X263773010Y-81106620D02*
G75*
G03*
X262773010Y-82106620I-1J-999999D01*
G01*
X277773010Y-82106620D02*
G75*
G03*
X276773010Y-81106620I-999999J1D01*
G01*
X276773010Y-95106620D02*
G75*
G03*
X277773010Y-94106620I1J999999D01*
G01*
D11*
X296623090Y-91006620D02*
X297023090Y-91006620D01*
D10*
X282823090Y-81106620D02*
X295823090Y-81106620D01*
X281823090Y-82106620D02*
X281823090Y-94106620D01*
X295823090Y-95106620D02*
X282823090Y-95106620D01*
D11*
X297123090Y-85206620D02*
X296623090Y-85206620D01*
D10*
X296823090Y-82106620D02*
X296823090Y-94106620D01*
X296823090Y-82106620D02*
G75*
G03*
X295823090Y-81106620I-999999J1D01*
G01*
X282823090Y-81106620D02*
G75*
G03*
X281823090Y-82106620I-1J-999999D01*
G01*
X281823090Y-94106620D02*
G75*
G03*
X282823090Y-95106620I999999J-1D01*
G01*
X295823090Y-95106620D02*
G75*
G03*
X296823090Y-94106620I1J999999D01*
G01*
X315873170Y-82106620D02*
X315873170Y-94106620D01*
D11*
X315673170Y-91006620D02*
X316073170Y-91006620D01*
X316173170Y-85206620D02*
X315673170Y-85206620D01*
D10*
X314873170Y-95106620D02*
X301873170Y-95106620D01*
X301873170Y-81106620D02*
X314873170Y-81106620D01*
X300873170Y-82106620D02*
X300873170Y-94106620D01*
X300873170Y-94106620D02*
G75*
G03*
X301873170Y-95106620I999999J-1D01*
G01*
X314873170Y-95106620D02*
G75*
G03*
X315873170Y-94106620I1J999999D01*
G01*
X301873170Y-81106620D02*
G75*
G03*
X300873170Y-82106620I-1J-999999D01*
G01*
X315873170Y-82106620D02*
G75*
G03*
X314873170Y-81106620I-999999J1D01*
G01*
X320923250Y-81106620D02*
X333923250Y-81106620D01*
D11*
X335223250Y-85206620D02*
X334723250Y-85206620D01*
D10*
X334923250Y-82106620D02*
X334923250Y-94106620D01*
X319923250Y-82106620D02*
X319923250Y-94106620D01*
X333923250Y-95106620D02*
X320923250Y-95106620D01*
D11*
X334723250Y-91006620D02*
X335123250Y-91006620D01*
D10*
X333923250Y-95106620D02*
G75*
G03*
X334923250Y-94106620I1J999999D01*
G01*
X334923250Y-82106620D02*
G75*
G03*
X333923250Y-81106620I-999999J1D01*
G01*
X320923250Y-81106620D02*
G75*
G03*
X319923250Y-82106620I-1J-999999D01*
G01*
X319923250Y-94106620D02*
G75*
G03*
X320923250Y-95106620I999999J-1D01*
G01*
X352973330Y-95106620D02*
X339973330Y-95106620D01*
X353973330Y-82106620D02*
X353973330Y-94106620D01*
D11*
X354273330Y-85206620D02*
X353773330Y-85206620D01*
D10*
X338973330Y-82106620D02*
X338973330Y-94106620D01*
X339973330Y-81106620D02*
X352973330Y-81106620D01*
D11*
X353773330Y-91006620D02*
X354173330Y-91006620D01*
D10*
X338973330Y-94106620D02*
G75*
G03*
X339973330Y-95106620I999999J-1D01*
G01*
X352973330Y-95106620D02*
G75*
G03*
X353973330Y-94106620I1J999999D01*
G01*
X339973330Y-81106620D02*
G75*
G03*
X338973330Y-82106620I-1J-999999D01*
G01*
X353973330Y-82106620D02*
G75*
G03*
X352973330Y-81106620I-999999J1D01*
G01*
X373023410Y-82106620D02*
X373023410Y-94106620D01*
X372023410Y-95106620D02*
X359023410Y-95106620D01*
X359023410Y-81106620D02*
X372023410Y-81106620D01*
D11*
X372823410Y-91006620D02*
X373223410Y-91006620D01*
X373323410Y-85206620D02*
X372823410Y-85206620D01*
D10*
X358023410Y-82106620D02*
X358023410Y-94106620D01*
X372023410Y-95106620D02*
G75*
G03*
X373023410Y-94106620I1J999999D01*
G01*
X373023410Y-82106620D02*
G75*
G03*
X372023410Y-81106620I-999999J1D01*
G01*
X359023410Y-81106620D02*
G75*
G03*
X358023410Y-82106620I-1J-999999D01*
G01*
X358023410Y-94106620D02*
G75*
G03*
X359023410Y-95106620I999999J-1D01*
G01*
X167522610Y-101156700D02*
X167522610Y-113156700D01*
D11*
X182322610Y-110056700D02*
X182722610Y-110056700D01*
D10*
X182522610Y-101156700D02*
X182522610Y-113156700D01*
X168522610Y-100156700D02*
X181522610Y-100156700D01*
X181522610Y-114156700D02*
X168522610Y-114156700D01*
D11*
X182822610Y-104256700D02*
X182322610Y-104256700D01*
D10*
X182522610Y-101156700D02*
G75*
G03*
X181522610Y-100156700I-999999J1D01*
G01*
X181522610Y-114156700D02*
G75*
G03*
X182522610Y-113156700I1J999999D01*
G01*
X168522610Y-100156700D02*
G75*
G03*
X167522610Y-101156700I-1J-999999D01*
G01*
X167522610Y-113156700D02*
G75*
G03*
X168522610Y-114156700I999999J-1D01*
G01*
X200572690Y-114156700D02*
X187572690Y-114156700D01*
X187572690Y-100156700D02*
X200572690Y-100156700D01*
X186572690Y-101156700D02*
X186572690Y-113156700D01*
D11*
X201872690Y-104256700D02*
X201372690Y-104256700D01*
D10*
X201572690Y-101156700D02*
X201572690Y-113156700D01*
D11*
X201372690Y-110056700D02*
X201772690Y-110056700D01*
D10*
X201572690Y-101156700D02*
G75*
G03*
X200572690Y-100156700I-999999J1D01*
G01*
X200572690Y-114156700D02*
G75*
G03*
X201572690Y-113156700I1J999999D01*
G01*
X187572690Y-100156700D02*
G75*
G03*
X186572690Y-101156700I-1J-999999D01*
G01*
X186572690Y-113156700D02*
G75*
G03*
X187572690Y-114156700I999999J-1D01*
G01*
X219622770Y-114156700D02*
X206622770Y-114156700D01*
X220622770Y-101156700D02*
X220622770Y-113156700D01*
D11*
X220922770Y-104256700D02*
X220422770Y-104256700D01*
D10*
X206622770Y-100156700D02*
X219622770Y-100156700D01*
D11*
X220422770Y-110056700D02*
X220822770Y-110056700D01*
D10*
X205622770Y-101156700D02*
X205622770Y-113156700D01*
X220622770Y-101156700D02*
G75*
G03*
X219622770Y-100156700I-999999J1D01*
G01*
X219622770Y-114156700D02*
G75*
G03*
X220622770Y-113156700I1J999999D01*
G01*
X205622770Y-113156700D02*
G75*
G03*
X206622770Y-114156700I999999J-1D01*
G01*
X206622770Y-100156700D02*
G75*
G03*
X205622770Y-101156700I-1J-999999D01*
G01*
X238672850Y-114156700D02*
X225672850Y-114156700D01*
X225672850Y-100156700D02*
X238672850Y-100156700D01*
X239672850Y-101156700D02*
X239672850Y-113156700D01*
X224672850Y-101156700D02*
X224672850Y-113156700D01*
D11*
X239472850Y-110056700D02*
X239872850Y-110056700D01*
X239972850Y-104256700D02*
X239472850Y-104256700D01*
D10*
X239672850Y-101156700D02*
G75*
G03*
X238672850Y-100156700I-999999J1D01*
G01*
X225672850Y-100156700D02*
G75*
G03*
X224672850Y-101156700I-1J-999999D01*
G01*
X238672850Y-114156700D02*
G75*
G03*
X239672850Y-113156700I1J999999D01*
G01*
X224672850Y-113156700D02*
G75*
G03*
X225672850Y-114156700I999999J-1D01*
G01*
D11*
X258522930Y-110056700D02*
X258922930Y-110056700D01*
X259022930Y-104256700D02*
X258522930Y-104256700D01*
D10*
X258722930Y-101156700D02*
X258722930Y-113156700D01*
X244722930Y-100156700D02*
X257722930Y-100156700D01*
X243722930Y-101156700D02*
X243722930Y-113156700D01*
X257722930Y-114156700D02*
X244722930Y-114156700D01*
X257722930Y-114156700D02*
G75*
G03*
X258722930Y-113156700I1J999999D01*
G01*
X244722930Y-100156700D02*
G75*
G03*
X243722930Y-101156700I-1J-999999D01*
G01*
X258722930Y-101156700D02*
G75*
G03*
X257722930Y-100156700I-999999J1D01*
G01*
X243722930Y-113156700D02*
G75*
G03*
X244722930Y-114156700I999999J-1D01*
G01*
D11*
X277573010Y-110056700D02*
X277973010Y-110056700D01*
D10*
X263773010Y-100156700D02*
X276773010Y-100156700D01*
D11*
X278073010Y-104256700D02*
X277573010Y-104256700D01*
D10*
X276773010Y-114156700D02*
X263773010Y-114156700D01*
X262773010Y-101156700D02*
X262773010Y-113156700D01*
X277773010Y-101156700D02*
X277773010Y-113156700D01*
X262773010Y-113156700D02*
G75*
G03*
X263773010Y-114156700I999999J-1D01*
G01*
X276773010Y-114156700D02*
G75*
G03*
X277773010Y-113156700I1J999999D01*
G01*
X277773010Y-101156700D02*
G75*
G03*
X276773010Y-100156700I-999999J1D01*
G01*
X263773010Y-100156700D02*
G75*
G03*
X262773010Y-101156700I-1J-999999D01*
G01*
X282823090Y-100156700D02*
X295823090Y-100156700D01*
X281823090Y-101156700D02*
X281823090Y-113156700D01*
D11*
X296623090Y-110056700D02*
X297023090Y-110056700D01*
X297123090Y-104256700D02*
X296623090Y-104256700D01*
D10*
X295823090Y-114156700D02*
X282823090Y-114156700D01*
X296823090Y-101156700D02*
X296823090Y-113156700D01*
X282823090Y-100156700D02*
G75*
G03*
X281823090Y-101156700I-1J-999999D01*
G01*
X296823090Y-101156700D02*
G75*
G03*
X295823090Y-100156700I-999999J1D01*
G01*
X295823090Y-114156700D02*
G75*
G03*
X296823090Y-113156700I1J999999D01*
G01*
X281823090Y-113156700D02*
G75*
G03*
X282823090Y-114156700I999999J-1D01*
G01*
X314873170Y-114156700D02*
X301873170Y-114156700D01*
X300873170Y-101156700D02*
X300873170Y-113156700D01*
D11*
X316173170Y-104256700D02*
X315673170Y-104256700D01*
D10*
X315873170Y-101156700D02*
X315873170Y-113156700D01*
D11*
X315673170Y-110056700D02*
X316073170Y-110056700D01*
D10*
X301873170Y-100156700D02*
X314873170Y-100156700D01*
X300873170Y-113156700D02*
G75*
G03*
X301873170Y-114156700I999999J-1D01*
G01*
X314873170Y-114156700D02*
G75*
G03*
X315873170Y-113156700I1J999999D01*
G01*
X301873170Y-100156700D02*
G75*
G03*
X300873170Y-101156700I-1J-999999D01*
G01*
X315873170Y-101156700D02*
G75*
G03*
X314873170Y-100156700I-999999J1D01*
G01*
X319923250Y-101156700D02*
X319923250Y-113156700D01*
X333923250Y-114156700D02*
X320923250Y-114156700D01*
D11*
X335223250Y-104256700D02*
X334723250Y-104256700D01*
D10*
X334923250Y-101156700D02*
X334923250Y-113156700D01*
X320923250Y-100156700D02*
X333923250Y-100156700D01*
D11*
X334723250Y-110056700D02*
X335123250Y-110056700D01*
D10*
X319923250Y-113156700D02*
G75*
G03*
X320923250Y-114156700I999999J-1D01*
G01*
X334923250Y-101156700D02*
G75*
G03*
X333923250Y-100156700I-999999J1D01*
G01*
X333923250Y-114156700D02*
G75*
G03*
X334923250Y-113156700I1J999999D01*
G01*
X320923250Y-100156700D02*
G75*
G03*
X319923250Y-101156700I-1J-999999D01*
G01*
X352973330Y-114160000D02*
X339973330Y-114160000D01*
D11*
X354273330Y-104260000D02*
X353773330Y-104260000D01*
X353773330Y-110060000D02*
X354173330Y-110060000D01*
D10*
X339973330Y-100160000D02*
X352973330Y-100160000D01*
X353973330Y-101160000D02*
X353973330Y-113160000D01*
X338973330Y-101160000D02*
X338973330Y-113160000D01*
X339973330Y-100160000D02*
G75*
G03*
X338973330Y-101160000I-1J-999999D01*
G01*
X338973330Y-113160000D02*
G75*
G03*
X339973330Y-114160000I999999J-1D01*
G01*
X353973330Y-101160000D02*
G75*
G03*
X352973330Y-100160000I-999999J1D01*
G01*
X352973330Y-114160000D02*
G75*
G03*
X353973330Y-113160000I1J999999D01*
G01*
D11*
X372823410Y-110056700D02*
X373223410Y-110056700D01*
D10*
X359023410Y-100156700D02*
X372023410Y-100156700D01*
X358023410Y-101156700D02*
X358023410Y-113156700D01*
X373023410Y-101156700D02*
X373023410Y-113156700D01*
D11*
X373323410Y-104256700D02*
X372823410Y-104256700D01*
D10*
X372023410Y-114156700D02*
X359023410Y-114156700D01*
X372023410Y-114156700D02*
G75*
G03*
X373023410Y-113156700I1J999999D01*
G01*
X358023410Y-113156700D02*
G75*
G03*
X359023410Y-114156700I999999J-1D01*
G01*
X373023410Y-101156700D02*
G75*
G03*
X372023410Y-100156700I-999999J1D01*
G01*
X359023410Y-100156700D02*
G75*
G03*
X358023410Y-101156700I-1J-999999D01*
G01*
D11*
X163272530Y-110056700D02*
X163672530Y-110056700D01*
X163772530Y-104256700D02*
X163272530Y-104256700D01*
D10*
X148472530Y-101156700D02*
X148472530Y-113156700D01*
X162472530Y-114156700D02*
X149472530Y-114156700D01*
X149472530Y-100156700D02*
X162472530Y-100156700D01*
X163472530Y-101156700D02*
X163472530Y-113156700D01*
X148472530Y-113156700D02*
G75*
G03*
X149472530Y-114156700I999999J-1D01*
G01*
X163472530Y-101156700D02*
G75*
G03*
X162472530Y-100156700I-999999J1D01*
G01*
X149472530Y-100156700D02*
G75*
G03*
X148472530Y-101156700I-1J-999999D01*
G01*
X162472530Y-114156700D02*
G75*
G03*
X163472530Y-113156700I1J999999D01*
G01*
D11*
X182822610Y-66156540D02*
X182322610Y-66156540D01*
X182322610Y-71956540D02*
X182722610Y-71956540D01*
D10*
X182522610Y-63056540D02*
X182522610Y-75056540D01*
X181522610Y-76056540D02*
X168522610Y-76056540D01*
X168522610Y-62056540D02*
X181522610Y-62056540D01*
X167522610Y-63056540D02*
X167522610Y-75056540D01*
X182522610Y-63056540D02*
G75*
G03*
X181522610Y-62056540I-999999J1D01*
G01*
X167522610Y-75056540D02*
G75*
G03*
X168522610Y-76056540I999999J-1D01*
G01*
X168522610Y-62056540D02*
G75*
G03*
X167522610Y-63056540I-1J-999999D01*
G01*
X181522610Y-76056540D02*
G75*
G03*
X182522610Y-75056540I1J999999D01*
G01*
X396835890Y-82106428D02*
X396835890Y-94106428D01*
X395835890Y-95106428D02*
X382835890Y-95106428D01*
X381835890Y-82106428D02*
X381835890Y-94106428D01*
X382835890Y-81106428D02*
X395835890Y-81106428D01*
D11*
X396635890Y-91006428D02*
X397035890Y-91006428D01*
X397135890Y-85206428D02*
X396635890Y-85206428D01*
D10*
X381835890Y-94106428D02*
G75*
G03*
X382835890Y-95106428I999999J-1D01*
G01*
X396835890Y-82106428D02*
G75*
G03*
X395835890Y-81106428I-999999J1D01*
G01*
X395835890Y-95106428D02*
G75*
G03*
X396835890Y-94106428I1J999999D01*
G01*
X382835890Y-81106428D02*
G75*
G03*
X381835890Y-82106428I-1J-999999D01*
G01*
X381835890Y-63056444D02*
X381835890Y-75056444D01*
X382835890Y-62056444D02*
X395835890Y-62056444D01*
X395835890Y-76056444D02*
X382835890Y-76056444D01*
D11*
X397135890Y-66156444D02*
X396635890Y-66156444D01*
D10*
X396835890Y-63056444D02*
X396835890Y-75056444D01*
D11*
X396635890Y-71956444D02*
X397035890Y-71956444D01*
D10*
X396835890Y-63056444D02*
G75*
G03*
X395835890Y-62056444I-999999J1D01*
G01*
X382835890Y-62056444D02*
G75*
G03*
X381835890Y-63056444I-1J-999999D01*
G01*
X381835890Y-75056444D02*
G75*
G03*
X382835890Y-76056444I999999J-1D01*
G01*
X395835890Y-76056444D02*
G75*
G03*
X396835890Y-75056444I1J999999D01*
G01*
X382836010Y-42031460D02*
X395828902Y-42031460D01*
X396828902Y-57031460D02*
X396828902Y-43031460D01*
X381836010Y-57031460D02*
X381836010Y-43031460D01*
X382836010Y-58031460D02*
X395836009Y-58031460D01*
X395836009Y-58031460D02*
G75*
G03*
X396836009Y-57031460I1J999999D01*
G01*
X381836010Y-57031460D02*
G75*
G03*
X382836010Y-58031460I999999J-1D01*
G01*
X396828902Y-43031460D02*
G75*
G03*
X395828902Y-42031460I-999999J1D01*
G01*
X382836010Y-42031460D02*
G75*
G03*
X381836010Y-43031460I-1J-999999D01*
G01*
D11*
X373323410Y-47106460D02*
X372823410Y-47106460D01*
D10*
X358023410Y-44006460D02*
X358023410Y-56006460D01*
X372023410Y-57006460D02*
X359023410Y-57006460D01*
D11*
X372823410Y-52906460D02*
X373223410Y-52906460D01*
D10*
X359023410Y-43006460D02*
X372023410Y-43006460D01*
X373023410Y-44006460D02*
X373023410Y-56006460D01*
X373023410Y-44006460D02*
G75*
G03*
X372023410Y-43006460I-999999J1D01*
G01*
X372023410Y-57006460D02*
G75*
G03*
X373023410Y-56006460I1J999999D01*
G01*
X359023410Y-43006460D02*
G75*
G03*
X358023410Y-44006460I-1J-999999D01*
G01*
X358023410Y-56006460D02*
G75*
G03*
X359023410Y-57006460I999999J-1D01*
G01*
D11*
X397136010Y-104256700D02*
X396636010Y-104256700D01*
D10*
X382836010Y-100156700D02*
X395836010Y-100156700D01*
X395836010Y-114156700D02*
X382836010Y-114156700D01*
X396836010Y-101156700D02*
X396836010Y-113156700D01*
D11*
X396636010Y-110056700D02*
X397036010Y-110056700D01*
D10*
X381836010Y-101156700D02*
X381836010Y-113156700D01*
X396836010Y-101156700D02*
G75*
G03*
X395836010Y-100156700I-999999J1D01*
G01*
X395836010Y-114156700D02*
G75*
G03*
X396836010Y-113156700I1J999999D01*
G01*
X382836010Y-100156700D02*
G75*
G03*
X381836010Y-101156700I-1J-999999D01*
G01*
X381836010Y-113156700D02*
G75*
G03*
X382836010Y-114156700I999999J-1D01*
G01*
X206622770Y-62056540D02*
X219622770Y-62056540D01*
X220622770Y-63056540D02*
X220622770Y-75056540D01*
X219622770Y-76056540D02*
X206622770Y-76056540D01*
X205622770Y-63056540D02*
X205622770Y-75056540D01*
D11*
X220422770Y-71956540D02*
X220822770Y-71956540D01*
X220922770Y-66156540D02*
X220422770Y-66156540D01*
D10*
X205622770Y-75056540D02*
G75*
G03*
X206622770Y-76056540I999999J-1D01*
G01*
X219622770Y-76056540D02*
G75*
G03*
X220622770Y-75056540I1J999999D01*
G01*
X220622770Y-63056540D02*
G75*
G03*
X219622770Y-62056540I-999999J1D01*
G01*
X206622770Y-62056540D02*
G75*
G03*
X205622770Y-63056540I-1J-999999D01*
G01*
D11*
X259023314Y-47106460D02*
X258523314Y-47106460D01*
D10*
X258723314Y-44006460D02*
X258723314Y-56006460D01*
D11*
X258523314Y-52906460D02*
X258923314Y-52906460D01*
D10*
X244723314Y-43006460D02*
X257723314Y-43006460D01*
X257723314Y-57006460D02*
X244723314Y-57006460D01*
X243723314Y-44006460D02*
X243723314Y-56006460D01*
X244723314Y-43006460D02*
G75*
G03*
X243723314Y-44006460I-1J-999999D01*
G01*
X243723314Y-56006460D02*
G75*
G03*
X244723314Y-57006460I999999J-1D01*
G01*
X257723314Y-57006460D02*
G75*
G03*
X258723314Y-56006460I1J999999D01*
G01*
X258723314Y-44006460D02*
G75*
G03*
X257723314Y-43006460I-999999J1D01*
G01*
X262773330Y-44006460D02*
X262773330Y-56006460D01*
X277773330Y-44006460D02*
X277773330Y-56006460D01*
X276773330Y-57006460D02*
X263773330Y-57006460D01*
X263773330Y-43006460D02*
X276773330Y-43006460D01*
D11*
X278073330Y-47106460D02*
X277573330Y-47106460D01*
X277573330Y-52906460D02*
X277973330Y-52906460D01*
D10*
X277773330Y-44006460D02*
G75*
G03*
X276773330Y-43006460I-999999J1D01*
G01*
X262773330Y-56006460D02*
G75*
G03*
X263773330Y-57006460I999999J-1D01*
G01*
X263773330Y-43006460D02*
G75*
G03*
X262773330Y-44006460I-1J-999999D01*
G01*
X276773330Y-57006460D02*
G75*
G03*
X277773330Y-56006460I1J999999D01*
G01*
X296823346Y-44006460D02*
X296823346Y-56006460D01*
X295823346Y-57006460D02*
X282823346Y-57006460D01*
X281823346Y-44006460D02*
X281823346Y-56006460D01*
D11*
X297123346Y-47106460D02*
X296623346Y-47106460D01*
X296623346Y-52906460D02*
X297023346Y-52906460D01*
D10*
X282823346Y-43006460D02*
X295823346Y-43006460D01*
X282823346Y-43006460D02*
G75*
G03*
X281823346Y-44006460I-1J-999999D01*
G01*
X296823346Y-44006460D02*
G75*
G03*
X295823346Y-43006460I-999999J1D01*
G01*
X295823346Y-57006460D02*
G75*
G03*
X296823346Y-56006460I1J999999D01*
G01*
X281823346Y-56006460D02*
G75*
G03*
X282823346Y-57006460I999999J-1D01*
G01*
X314873362Y-57006460D02*
X301873362Y-57006460D01*
D11*
X316173362Y-47106460D02*
X315673362Y-47106460D01*
D10*
X315873362Y-44006460D02*
X315873362Y-56006460D01*
X301873362Y-43006460D02*
X314873362Y-43006460D01*
D11*
X315673362Y-52906460D02*
X316073362Y-52906460D01*
D10*
X300873362Y-44006460D02*
X300873362Y-56006460D01*
X300873362Y-56006460D02*
G75*
G03*
X301873362Y-57006460I999999J-1D01*
G01*
X301873362Y-43006460D02*
G75*
G03*
X300873362Y-44006460I-1J-999999D01*
G01*
X314873362Y-57006460D02*
G75*
G03*
X315873362Y-56006460I1J999999D01*
G01*
X315873362Y-44006460D02*
G75*
G03*
X314873362Y-43006460I-999999J1D01*
G01*
D12*
X377429670Y-49131460D03*
X377429670Y-50881460D03*
M02*
