%TF.GenerationSoftware,KiCad,Pcbnew,7.0.1-0*%
%TF.CreationDate,2023-08-02T22:11:56-05:00*%
%TF.ProjectId,pcb,7063622e-6b69-4636-9164-5f7063625858,rev?*%
%TF.SameCoordinates,Original*%
%TF.FileFunction,Legend,Top*%
%TF.FilePolarity,Positive*%
%FSLAX46Y46*%
G04 Gerber Fmt 4.6, Leading zero omitted, Abs format (unit mm)*
G04 Created by KiCad (PCBNEW 7.0.1-0) date 2023-08-02 22:11:56*
%MOMM*%
%LPD*%
G01*
G04 APERTURE LIST*
%ADD10C,0.150000*%
%ADD11C,0.120000*%
G04 APERTURE END LIST*
D10*
X228530952Y-94902619D02*
X228435714Y-94855000D01*
X228435714Y-94855000D02*
X228388095Y-94759761D01*
X228388095Y-94759761D02*
X228388095Y-93902619D01*
X229340476Y-94235952D02*
X229340476Y-94902619D01*
X228911905Y-94235952D02*
X228911905Y-94759761D01*
X228911905Y-94759761D02*
X228959524Y-94855000D01*
X228959524Y-94855000D02*
X229054762Y-94902619D01*
X229054762Y-94902619D02*
X229197619Y-94902619D01*
X229197619Y-94902619D02*
X229292857Y-94855000D01*
X229292857Y-94855000D02*
X229340476Y-94807380D01*
X230245238Y-94855000D02*
X230150000Y-94902619D01*
X230150000Y-94902619D02*
X229959524Y-94902619D01*
X229959524Y-94902619D02*
X229864286Y-94855000D01*
X229864286Y-94855000D02*
X229816667Y-94807380D01*
X229816667Y-94807380D02*
X229769048Y-94712142D01*
X229769048Y-94712142D02*
X229769048Y-94426428D01*
X229769048Y-94426428D02*
X229816667Y-94331190D01*
X229816667Y-94331190D02*
X229864286Y-94283571D01*
X229864286Y-94283571D02*
X229959524Y-94235952D01*
X229959524Y-94235952D02*
X230150000Y-94235952D01*
X230150000Y-94235952D02*
X230245238Y-94283571D01*
X230578572Y-94235952D02*
X230816667Y-94902619D01*
X231054762Y-94235952D02*
X230816667Y-94902619D01*
X230816667Y-94902619D02*
X230721429Y-95140714D01*
X230721429Y-95140714D02*
X230673810Y-95188333D01*
X230673810Y-95188333D02*
X230578572Y-95235952D01*
X232102382Y-94235952D02*
X232340477Y-94902619D01*
X232340477Y-94902619D02*
X232578572Y-94235952D01*
X232864287Y-93902619D02*
X233483334Y-93902619D01*
X233483334Y-93902619D02*
X233150001Y-94283571D01*
X233150001Y-94283571D02*
X233292858Y-94283571D01*
X233292858Y-94283571D02*
X233388096Y-94331190D01*
X233388096Y-94331190D02*
X233435715Y-94378809D01*
X233435715Y-94378809D02*
X233483334Y-94474047D01*
X233483334Y-94474047D02*
X233483334Y-94712142D01*
X233483334Y-94712142D02*
X233435715Y-94807380D01*
X233435715Y-94807380D02*
X233388096Y-94855000D01*
X233388096Y-94855000D02*
X233292858Y-94902619D01*
X233292858Y-94902619D02*
X233007144Y-94902619D01*
X233007144Y-94902619D02*
X232911906Y-94855000D01*
X232911906Y-94855000D02*
X232864287Y-94807380D01*
X233911906Y-94807380D02*
X233959525Y-94855000D01*
X233959525Y-94855000D02*
X233911906Y-94902619D01*
X233911906Y-94902619D02*
X233864287Y-94855000D01*
X233864287Y-94855000D02*
X233911906Y-94807380D01*
X233911906Y-94807380D02*
X233911906Y-94902619D01*
X234911905Y-94902619D02*
X234340477Y-94902619D01*
X234626191Y-94902619D02*
X234626191Y-93902619D01*
X234626191Y-93902619D02*
X234530953Y-94045476D01*
X234530953Y-94045476D02*
X234435715Y-94140714D01*
X234435715Y-94140714D02*
X234340477Y-94188333D01*
X235340477Y-94807380D02*
X235388096Y-94855000D01*
X235388096Y-94855000D02*
X235340477Y-94902619D01*
X235340477Y-94902619D02*
X235292858Y-94855000D01*
X235292858Y-94855000D02*
X235340477Y-94807380D01*
X235340477Y-94807380D02*
X235340477Y-94902619D01*
X236340476Y-94902619D02*
X235769048Y-94902619D01*
X236054762Y-94902619D02*
X236054762Y-93902619D01*
X236054762Y-93902619D02*
X235959524Y-94045476D01*
X235959524Y-94045476D02*
X235864286Y-94140714D01*
X235864286Y-94140714D02*
X235769048Y-94188333D01*
X236911905Y-94331190D02*
X236816667Y-94283571D01*
X236816667Y-94283571D02*
X236769048Y-94235952D01*
X236769048Y-94235952D02*
X236721429Y-94140714D01*
X236721429Y-94140714D02*
X236721429Y-94093095D01*
X236721429Y-94093095D02*
X236769048Y-93997857D01*
X236769048Y-93997857D02*
X236816667Y-93950238D01*
X236816667Y-93950238D02*
X236911905Y-93902619D01*
X236911905Y-93902619D02*
X237102381Y-93902619D01*
X237102381Y-93902619D02*
X237197619Y-93950238D01*
X237197619Y-93950238D02*
X237245238Y-93997857D01*
X237245238Y-93997857D02*
X237292857Y-94093095D01*
X237292857Y-94093095D02*
X237292857Y-94140714D01*
X237292857Y-94140714D02*
X237245238Y-94235952D01*
X237245238Y-94235952D02*
X237197619Y-94283571D01*
X237197619Y-94283571D02*
X237102381Y-94331190D01*
X237102381Y-94331190D02*
X236911905Y-94331190D01*
X236911905Y-94331190D02*
X236816667Y-94378809D01*
X236816667Y-94378809D02*
X236769048Y-94426428D01*
X236769048Y-94426428D02*
X236721429Y-94521666D01*
X236721429Y-94521666D02*
X236721429Y-94712142D01*
X236721429Y-94712142D02*
X236769048Y-94807380D01*
X236769048Y-94807380D02*
X236816667Y-94855000D01*
X236816667Y-94855000D02*
X236911905Y-94902619D01*
X236911905Y-94902619D02*
X237102381Y-94902619D01*
X237102381Y-94902619D02*
X237197619Y-94855000D01*
X237197619Y-94855000D02*
X237245238Y-94807380D01*
X237245238Y-94807380D02*
X237292857Y-94712142D01*
X237292857Y-94712142D02*
X237292857Y-94521666D01*
X237292857Y-94521666D02*
X237245238Y-94426428D01*
X237245238Y-94426428D02*
X237197619Y-94378809D01*
X237197619Y-94378809D02*
X237102381Y-94331190D01*
X237626191Y-93902619D02*
X238292857Y-93902619D01*
X238292857Y-93902619D02*
X237864286Y-94902619D01*
X239150000Y-93902619D02*
X238673810Y-93902619D01*
X238673810Y-93902619D02*
X238626191Y-94378809D01*
X238626191Y-94378809D02*
X238673810Y-94331190D01*
X238673810Y-94331190D02*
X238769048Y-94283571D01*
X238769048Y-94283571D02*
X239007143Y-94283571D01*
X239007143Y-94283571D02*
X239102381Y-94331190D01*
X239102381Y-94331190D02*
X239150000Y-94378809D01*
X239150000Y-94378809D02*
X239197619Y-94474047D01*
X239197619Y-94474047D02*
X239197619Y-94712142D01*
X239197619Y-94712142D02*
X239150000Y-94807380D01*
X239150000Y-94807380D02*
X239102381Y-94855000D01*
X239102381Y-94855000D02*
X239007143Y-94902619D01*
X239007143Y-94902619D02*
X238769048Y-94902619D01*
X238769048Y-94902619D02*
X238673810Y-94855000D01*
X238673810Y-94855000D02*
X238626191Y-94807380D01*
X239626191Y-94521666D02*
X240388096Y-94521666D01*
X241530952Y-94997857D02*
X241435714Y-94950238D01*
X241435714Y-94950238D02*
X241340476Y-94855000D01*
X241340476Y-94855000D02*
X241197619Y-94712142D01*
X241197619Y-94712142D02*
X241102381Y-94664523D01*
X241102381Y-94664523D02*
X241007143Y-94664523D01*
X241054762Y-94902619D02*
X240959524Y-94855000D01*
X240959524Y-94855000D02*
X240864286Y-94759761D01*
X240864286Y-94759761D02*
X240816667Y-94569285D01*
X240816667Y-94569285D02*
X240816667Y-94235952D01*
X240816667Y-94235952D02*
X240864286Y-94045476D01*
X240864286Y-94045476D02*
X240959524Y-93950238D01*
X240959524Y-93950238D02*
X241054762Y-93902619D01*
X241054762Y-93902619D02*
X241245238Y-93902619D01*
X241245238Y-93902619D02*
X241340476Y-93950238D01*
X241340476Y-93950238D02*
X241435714Y-94045476D01*
X241435714Y-94045476D02*
X241483333Y-94235952D01*
X241483333Y-94235952D02*
X241483333Y-94569285D01*
X241483333Y-94569285D02*
X241435714Y-94759761D01*
X241435714Y-94759761D02*
X241340476Y-94855000D01*
X241340476Y-94855000D02*
X241245238Y-94902619D01*
X241245238Y-94902619D02*
X241054762Y-94902619D01*
X242245238Y-94378809D02*
X241911905Y-94378809D01*
X241911905Y-94902619D02*
X241911905Y-93902619D01*
X241911905Y-93902619D02*
X242388095Y-93902619D01*
X242769048Y-94902619D02*
X242769048Y-93902619D01*
X242769048Y-93902619D02*
X243150000Y-93902619D01*
X243150000Y-93902619D02*
X243245238Y-93950238D01*
X243245238Y-93950238D02*
X243292857Y-93997857D01*
X243292857Y-93997857D02*
X243340476Y-94093095D01*
X243340476Y-94093095D02*
X243340476Y-94235952D01*
X243340476Y-94235952D02*
X243292857Y-94331190D01*
X243292857Y-94331190D02*
X243245238Y-94378809D01*
X243245238Y-94378809D02*
X243150000Y-94426428D01*
X243150000Y-94426428D02*
X242769048Y-94426428D01*
X244483334Y-93997857D02*
X244530953Y-93950238D01*
X244530953Y-93950238D02*
X244626191Y-93902619D01*
X244626191Y-93902619D02*
X244864286Y-93902619D01*
X244864286Y-93902619D02*
X244959524Y-93950238D01*
X244959524Y-93950238D02*
X245007143Y-93997857D01*
X245007143Y-93997857D02*
X245054762Y-94093095D01*
X245054762Y-94093095D02*
X245054762Y-94188333D01*
X245054762Y-94188333D02*
X245007143Y-94331190D01*
X245007143Y-94331190D02*
X244435715Y-94902619D01*
X244435715Y-94902619D02*
X245054762Y-94902619D01*
X245673810Y-93902619D02*
X245769048Y-93902619D01*
X245769048Y-93902619D02*
X245864286Y-93950238D01*
X245864286Y-93950238D02*
X245911905Y-93997857D01*
X245911905Y-93997857D02*
X245959524Y-94093095D01*
X245959524Y-94093095D02*
X246007143Y-94283571D01*
X246007143Y-94283571D02*
X246007143Y-94521666D01*
X246007143Y-94521666D02*
X245959524Y-94712142D01*
X245959524Y-94712142D02*
X245911905Y-94807380D01*
X245911905Y-94807380D02*
X245864286Y-94855000D01*
X245864286Y-94855000D02*
X245769048Y-94902619D01*
X245769048Y-94902619D02*
X245673810Y-94902619D01*
X245673810Y-94902619D02*
X245578572Y-94855000D01*
X245578572Y-94855000D02*
X245530953Y-94807380D01*
X245530953Y-94807380D02*
X245483334Y-94712142D01*
X245483334Y-94712142D02*
X245435715Y-94521666D01*
X245435715Y-94521666D02*
X245435715Y-94283571D01*
X245435715Y-94283571D02*
X245483334Y-94093095D01*
X245483334Y-94093095D02*
X245530953Y-93997857D01*
X245530953Y-93997857D02*
X245578572Y-93950238D01*
X245578572Y-93950238D02*
X245673810Y-93902619D01*
X246388096Y-93997857D02*
X246435715Y-93950238D01*
X246435715Y-93950238D02*
X246530953Y-93902619D01*
X246530953Y-93902619D02*
X246769048Y-93902619D01*
X246769048Y-93902619D02*
X246864286Y-93950238D01*
X246864286Y-93950238D02*
X246911905Y-93997857D01*
X246911905Y-93997857D02*
X246959524Y-94093095D01*
X246959524Y-94093095D02*
X246959524Y-94188333D01*
X246959524Y-94188333D02*
X246911905Y-94331190D01*
X246911905Y-94331190D02*
X246340477Y-94902619D01*
X246340477Y-94902619D02*
X246959524Y-94902619D01*
X247292858Y-93902619D02*
X247911905Y-93902619D01*
X247911905Y-93902619D02*
X247578572Y-94283571D01*
X247578572Y-94283571D02*
X247721429Y-94283571D01*
X247721429Y-94283571D02*
X247816667Y-94331190D01*
X247816667Y-94331190D02*
X247864286Y-94378809D01*
X247864286Y-94378809D02*
X247911905Y-94474047D01*
X247911905Y-94474047D02*
X247911905Y-94712142D01*
X247911905Y-94712142D02*
X247864286Y-94807380D01*
X247864286Y-94807380D02*
X247816667Y-94855000D01*
X247816667Y-94855000D02*
X247721429Y-94902619D01*
X247721429Y-94902619D02*
X247435715Y-94902619D01*
X247435715Y-94902619D02*
X247340477Y-94855000D01*
X247340477Y-94855000D02*
X247292858Y-94807380D01*
X248340477Y-94807380D02*
X248388096Y-94855000D01*
X248388096Y-94855000D02*
X248340477Y-94902619D01*
X248340477Y-94902619D02*
X248292858Y-94855000D01*
X248292858Y-94855000D02*
X248340477Y-94807380D01*
X248340477Y-94807380D02*
X248340477Y-94902619D01*
X249007143Y-93902619D02*
X249102381Y-93902619D01*
X249102381Y-93902619D02*
X249197619Y-93950238D01*
X249197619Y-93950238D02*
X249245238Y-93997857D01*
X249245238Y-93997857D02*
X249292857Y-94093095D01*
X249292857Y-94093095D02*
X249340476Y-94283571D01*
X249340476Y-94283571D02*
X249340476Y-94521666D01*
X249340476Y-94521666D02*
X249292857Y-94712142D01*
X249292857Y-94712142D02*
X249245238Y-94807380D01*
X249245238Y-94807380D02*
X249197619Y-94855000D01*
X249197619Y-94855000D02*
X249102381Y-94902619D01*
X249102381Y-94902619D02*
X249007143Y-94902619D01*
X249007143Y-94902619D02*
X248911905Y-94855000D01*
X248911905Y-94855000D02*
X248864286Y-94807380D01*
X248864286Y-94807380D02*
X248816667Y-94712142D01*
X248816667Y-94712142D02*
X248769048Y-94521666D01*
X248769048Y-94521666D02*
X248769048Y-94283571D01*
X248769048Y-94283571D02*
X248816667Y-94093095D01*
X248816667Y-94093095D02*
X248864286Y-93997857D01*
X248864286Y-93997857D02*
X248911905Y-93950238D01*
X248911905Y-93950238D02*
X249007143Y-93902619D01*
X249911905Y-94331190D02*
X249816667Y-94283571D01*
X249816667Y-94283571D02*
X249769048Y-94235952D01*
X249769048Y-94235952D02*
X249721429Y-94140714D01*
X249721429Y-94140714D02*
X249721429Y-94093095D01*
X249721429Y-94093095D02*
X249769048Y-93997857D01*
X249769048Y-93997857D02*
X249816667Y-93950238D01*
X249816667Y-93950238D02*
X249911905Y-93902619D01*
X249911905Y-93902619D02*
X250102381Y-93902619D01*
X250102381Y-93902619D02*
X250197619Y-93950238D01*
X250197619Y-93950238D02*
X250245238Y-93997857D01*
X250245238Y-93997857D02*
X250292857Y-94093095D01*
X250292857Y-94093095D02*
X250292857Y-94140714D01*
X250292857Y-94140714D02*
X250245238Y-94235952D01*
X250245238Y-94235952D02*
X250197619Y-94283571D01*
X250197619Y-94283571D02*
X250102381Y-94331190D01*
X250102381Y-94331190D02*
X249911905Y-94331190D01*
X249911905Y-94331190D02*
X249816667Y-94378809D01*
X249816667Y-94378809D02*
X249769048Y-94426428D01*
X249769048Y-94426428D02*
X249721429Y-94521666D01*
X249721429Y-94521666D02*
X249721429Y-94712142D01*
X249721429Y-94712142D02*
X249769048Y-94807380D01*
X249769048Y-94807380D02*
X249816667Y-94855000D01*
X249816667Y-94855000D02*
X249911905Y-94902619D01*
X249911905Y-94902619D02*
X250102381Y-94902619D01*
X250102381Y-94902619D02*
X250197619Y-94855000D01*
X250197619Y-94855000D02*
X250245238Y-94807380D01*
X250245238Y-94807380D02*
X250292857Y-94712142D01*
X250292857Y-94712142D02*
X250292857Y-94521666D01*
X250292857Y-94521666D02*
X250245238Y-94426428D01*
X250245238Y-94426428D02*
X250197619Y-94378809D01*
X250197619Y-94378809D02*
X250102381Y-94331190D01*
X250721429Y-94807380D02*
X250769048Y-94855000D01*
X250769048Y-94855000D02*
X250721429Y-94902619D01*
X250721429Y-94902619D02*
X250673810Y-94855000D01*
X250673810Y-94855000D02*
X250721429Y-94807380D01*
X250721429Y-94807380D02*
X250721429Y-94902619D01*
X251388095Y-93902619D02*
X251483333Y-93902619D01*
X251483333Y-93902619D02*
X251578571Y-93950238D01*
X251578571Y-93950238D02*
X251626190Y-93997857D01*
X251626190Y-93997857D02*
X251673809Y-94093095D01*
X251673809Y-94093095D02*
X251721428Y-94283571D01*
X251721428Y-94283571D02*
X251721428Y-94521666D01*
X251721428Y-94521666D02*
X251673809Y-94712142D01*
X251673809Y-94712142D02*
X251626190Y-94807380D01*
X251626190Y-94807380D02*
X251578571Y-94855000D01*
X251578571Y-94855000D02*
X251483333Y-94902619D01*
X251483333Y-94902619D02*
X251388095Y-94902619D01*
X251388095Y-94902619D02*
X251292857Y-94855000D01*
X251292857Y-94855000D02*
X251245238Y-94807380D01*
X251245238Y-94807380D02*
X251197619Y-94712142D01*
X251197619Y-94712142D02*
X251150000Y-94521666D01*
X251150000Y-94521666D02*
X251150000Y-94283571D01*
X251150000Y-94283571D02*
X251197619Y-94093095D01*
X251197619Y-94093095D02*
X251245238Y-93997857D01*
X251245238Y-93997857D02*
X251292857Y-93950238D01*
X251292857Y-93950238D02*
X251388095Y-93902619D01*
X252102381Y-93997857D02*
X252150000Y-93950238D01*
X252150000Y-93950238D02*
X252245238Y-93902619D01*
X252245238Y-93902619D02*
X252483333Y-93902619D01*
X252483333Y-93902619D02*
X252578571Y-93950238D01*
X252578571Y-93950238D02*
X252626190Y-93997857D01*
X252626190Y-93997857D02*
X252673809Y-94093095D01*
X252673809Y-94093095D02*
X252673809Y-94188333D01*
X252673809Y-94188333D02*
X252626190Y-94331190D01*
X252626190Y-94331190D02*
X252054762Y-94902619D01*
X252054762Y-94902619D02*
X252673809Y-94902619D01*
%TO.C,J2*%
X260939476Y-28645000D02*
X261082333Y-28692619D01*
X261082333Y-28692619D02*
X261320428Y-28692619D01*
X261320428Y-28692619D02*
X261415666Y-28645000D01*
X261415666Y-28645000D02*
X261463285Y-28597380D01*
X261463285Y-28597380D02*
X261510904Y-28502142D01*
X261510904Y-28502142D02*
X261510904Y-28406904D01*
X261510904Y-28406904D02*
X261463285Y-28311666D01*
X261463285Y-28311666D02*
X261415666Y-28264047D01*
X261415666Y-28264047D02*
X261320428Y-28216428D01*
X261320428Y-28216428D02*
X261129952Y-28168809D01*
X261129952Y-28168809D02*
X261034714Y-28121190D01*
X261034714Y-28121190D02*
X260987095Y-28073571D01*
X260987095Y-28073571D02*
X260939476Y-27978333D01*
X260939476Y-27978333D02*
X260939476Y-27883095D01*
X260939476Y-27883095D02*
X260987095Y-27787857D01*
X260987095Y-27787857D02*
X261034714Y-27740238D01*
X261034714Y-27740238D02*
X261129952Y-27692619D01*
X261129952Y-27692619D02*
X261368047Y-27692619D01*
X261368047Y-27692619D02*
X261510904Y-27740238D01*
X262510904Y-28597380D02*
X262463285Y-28645000D01*
X262463285Y-28645000D02*
X262320428Y-28692619D01*
X262320428Y-28692619D02*
X262225190Y-28692619D01*
X262225190Y-28692619D02*
X262082333Y-28645000D01*
X262082333Y-28645000D02*
X261987095Y-28549761D01*
X261987095Y-28549761D02*
X261939476Y-28454523D01*
X261939476Y-28454523D02*
X261891857Y-28264047D01*
X261891857Y-28264047D02*
X261891857Y-28121190D01*
X261891857Y-28121190D02*
X261939476Y-27930714D01*
X261939476Y-27930714D02*
X261987095Y-27835476D01*
X261987095Y-27835476D02*
X262082333Y-27740238D01*
X262082333Y-27740238D02*
X262225190Y-27692619D01*
X262225190Y-27692619D02*
X262320428Y-27692619D01*
X262320428Y-27692619D02*
X262463285Y-27740238D01*
X262463285Y-27740238D02*
X262510904Y-27787857D01*
X262939476Y-28692619D02*
X262939476Y-27692619D01*
X263510904Y-28692619D02*
X263082333Y-28121190D01*
X263510904Y-27692619D02*
X262939476Y-28264047D01*
X260987095Y-33772619D02*
X260987095Y-32772619D01*
X260987095Y-32772619D02*
X261320428Y-33486904D01*
X261320428Y-33486904D02*
X261653761Y-32772619D01*
X261653761Y-32772619D02*
X261653761Y-33772619D01*
X262320428Y-32772619D02*
X262510904Y-32772619D01*
X262510904Y-32772619D02*
X262606142Y-32820238D01*
X262606142Y-32820238D02*
X262701380Y-32915476D01*
X262701380Y-32915476D02*
X262748999Y-33105952D01*
X262748999Y-33105952D02*
X262748999Y-33439285D01*
X262748999Y-33439285D02*
X262701380Y-33629761D01*
X262701380Y-33629761D02*
X262606142Y-33725000D01*
X262606142Y-33725000D02*
X262510904Y-33772619D01*
X262510904Y-33772619D02*
X262320428Y-33772619D01*
X262320428Y-33772619D02*
X262225190Y-33725000D01*
X262225190Y-33725000D02*
X262129952Y-33629761D01*
X262129952Y-33629761D02*
X262082333Y-33439285D01*
X262082333Y-33439285D02*
X262082333Y-33105952D01*
X262082333Y-33105952D02*
X262129952Y-32915476D01*
X262129952Y-32915476D02*
X262225190Y-32820238D01*
X262225190Y-32820238D02*
X262320428Y-32772619D01*
X263129952Y-33725000D02*
X263272809Y-33772619D01*
X263272809Y-33772619D02*
X263510904Y-33772619D01*
X263510904Y-33772619D02*
X263606142Y-33725000D01*
X263606142Y-33725000D02*
X263653761Y-33677380D01*
X263653761Y-33677380D02*
X263701380Y-33582142D01*
X263701380Y-33582142D02*
X263701380Y-33486904D01*
X263701380Y-33486904D02*
X263653761Y-33391666D01*
X263653761Y-33391666D02*
X263606142Y-33344047D01*
X263606142Y-33344047D02*
X263510904Y-33296428D01*
X263510904Y-33296428D02*
X263320428Y-33248809D01*
X263320428Y-33248809D02*
X263225190Y-33201190D01*
X263225190Y-33201190D02*
X263177571Y-33153571D01*
X263177571Y-33153571D02*
X263129952Y-33058333D01*
X263129952Y-33058333D02*
X263129952Y-32963095D01*
X263129952Y-32963095D02*
X263177571Y-32867857D01*
X263177571Y-32867857D02*
X263225190Y-32820238D01*
X263225190Y-32820238D02*
X263320428Y-32772619D01*
X263320428Y-32772619D02*
X263558523Y-32772619D01*
X263558523Y-32772619D02*
X263701380Y-32820238D01*
X264129952Y-33772619D02*
X264129952Y-32772619D01*
X261558523Y-36312619D02*
X261225190Y-35836428D01*
X260987095Y-36312619D02*
X260987095Y-35312619D01*
X260987095Y-35312619D02*
X261368047Y-35312619D01*
X261368047Y-35312619D02*
X261463285Y-35360238D01*
X261463285Y-35360238D02*
X261510904Y-35407857D01*
X261510904Y-35407857D02*
X261558523Y-35503095D01*
X261558523Y-35503095D02*
X261558523Y-35645952D01*
X261558523Y-35645952D02*
X261510904Y-35741190D01*
X261510904Y-35741190D02*
X261463285Y-35788809D01*
X261463285Y-35788809D02*
X261368047Y-35836428D01*
X261368047Y-35836428D02*
X260987095Y-35836428D01*
X261939476Y-36265000D02*
X262082333Y-36312619D01*
X262082333Y-36312619D02*
X262320428Y-36312619D01*
X262320428Y-36312619D02*
X262415666Y-36265000D01*
X262415666Y-36265000D02*
X262463285Y-36217380D01*
X262463285Y-36217380D02*
X262510904Y-36122142D01*
X262510904Y-36122142D02*
X262510904Y-36026904D01*
X262510904Y-36026904D02*
X262463285Y-35931666D01*
X262463285Y-35931666D02*
X262415666Y-35884047D01*
X262415666Y-35884047D02*
X262320428Y-35836428D01*
X262320428Y-35836428D02*
X262129952Y-35788809D01*
X262129952Y-35788809D02*
X262034714Y-35741190D01*
X262034714Y-35741190D02*
X261987095Y-35693571D01*
X261987095Y-35693571D02*
X261939476Y-35598333D01*
X261939476Y-35598333D02*
X261939476Y-35503095D01*
X261939476Y-35503095D02*
X261987095Y-35407857D01*
X261987095Y-35407857D02*
X262034714Y-35360238D01*
X262034714Y-35360238D02*
X262129952Y-35312619D01*
X262129952Y-35312619D02*
X262368047Y-35312619D01*
X262368047Y-35312619D02*
X262510904Y-35360238D01*
X262796619Y-35312619D02*
X263368047Y-35312619D01*
X263082333Y-36312619D02*
X263082333Y-35312619D01*
X260987095Y-31232619D02*
X260987095Y-30232619D01*
X260987095Y-30232619D02*
X261320428Y-30946904D01*
X261320428Y-30946904D02*
X261653761Y-30232619D01*
X261653761Y-30232619D02*
X261653761Y-31232619D01*
X262129952Y-31232619D02*
X262129952Y-30232619D01*
X262558523Y-31185000D02*
X262701380Y-31232619D01*
X262701380Y-31232619D02*
X262939475Y-31232619D01*
X262939475Y-31232619D02*
X263034713Y-31185000D01*
X263034713Y-31185000D02*
X263082332Y-31137380D01*
X263082332Y-31137380D02*
X263129951Y-31042142D01*
X263129951Y-31042142D02*
X263129951Y-30946904D01*
X263129951Y-30946904D02*
X263082332Y-30851666D01*
X263082332Y-30851666D02*
X263034713Y-30804047D01*
X263034713Y-30804047D02*
X262939475Y-30756428D01*
X262939475Y-30756428D02*
X262748999Y-30708809D01*
X262748999Y-30708809D02*
X262653761Y-30661190D01*
X262653761Y-30661190D02*
X262606142Y-30613571D01*
X262606142Y-30613571D02*
X262558523Y-30518333D01*
X262558523Y-30518333D02*
X262558523Y-30423095D01*
X262558523Y-30423095D02*
X262606142Y-30327857D01*
X262606142Y-30327857D02*
X262653761Y-30280238D01*
X262653761Y-30280238D02*
X262748999Y-30232619D01*
X262748999Y-30232619D02*
X262987094Y-30232619D01*
X262987094Y-30232619D02*
X263129951Y-30280238D01*
X263748999Y-30232619D02*
X263939475Y-30232619D01*
X263939475Y-30232619D02*
X264034713Y-30280238D01*
X264034713Y-30280238D02*
X264129951Y-30375476D01*
X264129951Y-30375476D02*
X264177570Y-30565952D01*
X264177570Y-30565952D02*
X264177570Y-30899285D01*
X264177570Y-30899285D02*
X264129951Y-31089761D01*
X264129951Y-31089761D02*
X264034713Y-31185000D01*
X264034713Y-31185000D02*
X263939475Y-31232619D01*
X263939475Y-31232619D02*
X263748999Y-31232619D01*
X263748999Y-31232619D02*
X263653761Y-31185000D01*
X263653761Y-31185000D02*
X263558523Y-31089761D01*
X263558523Y-31089761D02*
X263510904Y-30899285D01*
X263510904Y-30899285D02*
X263510904Y-30565952D01*
X263510904Y-30565952D02*
X263558523Y-30375476D01*
X263558523Y-30375476D02*
X263653761Y-30280238D01*
X263653761Y-30280238D02*
X263748999Y-30232619D01*
X260844238Y-25152619D02*
X261177571Y-26152619D01*
X261177571Y-26152619D02*
X261510904Y-25152619D01*
X262415666Y-26057380D02*
X262368047Y-26105000D01*
X262368047Y-26105000D02*
X262225190Y-26152619D01*
X262225190Y-26152619D02*
X262129952Y-26152619D01*
X262129952Y-26152619D02*
X261987095Y-26105000D01*
X261987095Y-26105000D02*
X261891857Y-26009761D01*
X261891857Y-26009761D02*
X261844238Y-25914523D01*
X261844238Y-25914523D02*
X261796619Y-25724047D01*
X261796619Y-25724047D02*
X261796619Y-25581190D01*
X261796619Y-25581190D02*
X261844238Y-25390714D01*
X261844238Y-25390714D02*
X261891857Y-25295476D01*
X261891857Y-25295476D02*
X261987095Y-25200238D01*
X261987095Y-25200238D02*
X262129952Y-25152619D01*
X262129952Y-25152619D02*
X262225190Y-25152619D01*
X262225190Y-25152619D02*
X262368047Y-25200238D01*
X262368047Y-25200238D02*
X262415666Y-25247857D01*
X263415666Y-26057380D02*
X263368047Y-26105000D01*
X263368047Y-26105000D02*
X263225190Y-26152619D01*
X263225190Y-26152619D02*
X263129952Y-26152619D01*
X263129952Y-26152619D02*
X262987095Y-26105000D01*
X262987095Y-26105000D02*
X262891857Y-26009761D01*
X262891857Y-26009761D02*
X262844238Y-25914523D01*
X262844238Y-25914523D02*
X262796619Y-25724047D01*
X262796619Y-25724047D02*
X262796619Y-25581190D01*
X262796619Y-25581190D02*
X262844238Y-25390714D01*
X262844238Y-25390714D02*
X262891857Y-25295476D01*
X262891857Y-25295476D02*
X262987095Y-25200238D01*
X262987095Y-25200238D02*
X263129952Y-25152619D01*
X263129952Y-25152619D02*
X263225190Y-25152619D01*
X263225190Y-25152619D02*
X263368047Y-25200238D01*
X263368047Y-25200238D02*
X263415666Y-25247857D01*
X261510904Y-22660238D02*
X261415666Y-22612619D01*
X261415666Y-22612619D02*
X261272809Y-22612619D01*
X261272809Y-22612619D02*
X261129952Y-22660238D01*
X261129952Y-22660238D02*
X261034714Y-22755476D01*
X261034714Y-22755476D02*
X260987095Y-22850714D01*
X260987095Y-22850714D02*
X260939476Y-23041190D01*
X260939476Y-23041190D02*
X260939476Y-23184047D01*
X260939476Y-23184047D02*
X260987095Y-23374523D01*
X260987095Y-23374523D02*
X261034714Y-23469761D01*
X261034714Y-23469761D02*
X261129952Y-23565000D01*
X261129952Y-23565000D02*
X261272809Y-23612619D01*
X261272809Y-23612619D02*
X261368047Y-23612619D01*
X261368047Y-23612619D02*
X261510904Y-23565000D01*
X261510904Y-23565000D02*
X261558523Y-23517380D01*
X261558523Y-23517380D02*
X261558523Y-23184047D01*
X261558523Y-23184047D02*
X261368047Y-23184047D01*
X261987095Y-23612619D02*
X261987095Y-22612619D01*
X261987095Y-22612619D02*
X262558523Y-23612619D01*
X262558523Y-23612619D02*
X262558523Y-22612619D01*
X263034714Y-23612619D02*
X263034714Y-22612619D01*
X263034714Y-22612619D02*
X263272809Y-22612619D01*
X263272809Y-22612619D02*
X263415666Y-22660238D01*
X263415666Y-22660238D02*
X263510904Y-22755476D01*
X263510904Y-22755476D02*
X263558523Y-22850714D01*
X263558523Y-22850714D02*
X263606142Y-23041190D01*
X263606142Y-23041190D02*
X263606142Y-23184047D01*
X263606142Y-23184047D02*
X263558523Y-23374523D01*
X263558523Y-23374523D02*
X263510904Y-23469761D01*
X263510904Y-23469761D02*
X263415666Y-23565000D01*
X263415666Y-23565000D02*
X263272809Y-23612619D01*
X263272809Y-23612619D02*
X263034714Y-23612619D01*
D11*
X260495000Y-36866000D02*
X260241000Y-37120000D01*
X260495000Y-34834000D02*
X260495000Y-36866000D01*
X260495000Y-34834000D02*
X260241000Y-34580000D01*
X260495000Y-34326000D02*
X260241000Y-34580000D01*
X260495000Y-32294000D02*
X260495000Y-34326000D01*
X260495000Y-32294000D02*
X260241000Y-32040000D01*
X260495000Y-31786000D02*
X260241000Y-32040000D01*
X260495000Y-29754000D02*
X260495000Y-31786000D01*
X260495000Y-29754000D02*
X260241000Y-29500000D01*
X260495000Y-29246000D02*
X260241000Y-29500000D01*
X260495000Y-27214000D02*
X260495000Y-29246000D01*
X260495000Y-27214000D02*
X260241000Y-26960000D01*
X260495000Y-26706000D02*
X260241000Y-26960000D01*
X260495000Y-24674000D02*
X260495000Y-26706000D01*
X260495000Y-24674000D02*
X260241000Y-24420000D01*
X260495000Y-24166000D02*
X260495000Y-22134000D01*
X260495000Y-24166000D02*
X260241000Y-24420000D01*
X260495000Y-22134000D02*
X260241000Y-21880000D01*
X260241000Y-21880000D02*
X258209000Y-21880000D01*
X258209000Y-37120000D02*
X260241000Y-37120000D01*
X258209000Y-24420000D02*
X260241000Y-24420000D01*
X257955000Y-36866000D02*
X258209000Y-37120000D01*
X257955000Y-34834000D02*
X258209000Y-34580000D01*
X257955000Y-34834000D02*
X257955000Y-36866000D01*
X257955000Y-34326000D02*
X258209000Y-34580000D01*
X257955000Y-32294000D02*
X258209000Y-32040000D01*
X257955000Y-32294000D02*
X257955000Y-34326000D01*
X257955000Y-31786000D02*
X258209000Y-32040000D01*
X257955000Y-29754000D02*
X258209000Y-29500000D01*
X257955000Y-29754000D02*
X257955000Y-31786000D01*
X257955000Y-29246000D02*
X258209000Y-29500000D01*
X257955000Y-27214000D02*
X258209000Y-26960000D01*
X257955000Y-27214000D02*
X257955000Y-29246000D01*
X257955000Y-26706000D02*
X258209000Y-26960000D01*
X257955000Y-24674000D02*
X258209000Y-24420000D01*
X257955000Y-24674000D02*
X257955000Y-26706000D01*
X257955000Y-24166000D02*
X258209000Y-24420000D01*
X257955000Y-24166000D02*
X257955000Y-22134000D01*
X257955000Y-22134000D02*
X258209000Y-21880000D01*
%TD*%
M02*
