%TF.GenerationSoftware,KiCad,Pcbnew,7.0.1-0*%
%TF.CreationDate,2023-08-02T22:11:56-05:00*%
%TF.ProjectId,pcb,7063622e-6b69-4636-9164-5f7063625858,rev?*%
%TF.SameCoordinates,Original*%
%TF.FileFunction,Paste,Bot*%
%TF.FilePolarity,Positive*%
%FSLAX46Y46*%
G04 Gerber Fmt 4.6, Leading zero omitted, Abs format (unit mm)*
G04 Created by KiCad (PCBNEW 7.0.1-0) date 2023-08-02 22:11:56*
%MOMM*%
%LPD*%
G01*
G04 APERTURE LIST*
G04 Aperture macros list*
%AMRoundRect*
0 Rectangle with rounded corners*
0 $1 Rounding radius*
0 $2 $3 $4 $5 $6 $7 $8 $9 X,Y pos of 4 corners*
0 Add a 4 corners polygon primitive as box body*
4,1,4,$2,$3,$4,$5,$6,$7,$8,$9,$2,$3,0*
0 Add four circle primitives for the rounded corners*
1,1,$1+$1,$2,$3*
1,1,$1+$1,$4,$5*
1,1,$1+$1,$6,$7*
1,1,$1+$1,$8,$9*
0 Add four rect primitives between the rounded corners*
20,1,$1+$1,$2,$3,$4,$5,0*
20,1,$1+$1,$4,$5,$6,$7,0*
20,1,$1+$1,$6,$7,$8,$9,0*
20,1,$1+$1,$8,$9,$2,$3,0*%
G04 Aperture macros list end*
%ADD10RoundRect,0.225000X0.375000X-0.225000X0.375000X0.225000X-0.375000X0.225000X-0.375000X-0.225000X0*%
%ADD11RoundRect,0.250000X-0.475000X0.250000X-0.475000X-0.250000X0.475000X-0.250000X0.475000X0.250000X0*%
%ADD12RoundRect,0.250000X0.450000X-0.262500X0.450000X0.262500X-0.450000X0.262500X-0.450000X-0.262500X0*%
%ADD13RoundRect,0.250000X1.025000X1.000000X-1.025000X1.000000X-1.025000X-1.000000X1.025000X-1.000000X0*%
%ADD14RoundRect,0.250000X-0.450000X0.262500X-0.450000X-0.262500X0.450000X-0.262500X0.450000X0.262500X0*%
%ADD15RoundRect,0.250000X-0.250000X-0.475000X0.250000X-0.475000X0.250000X0.475000X-0.250000X0.475000X0*%
%ADD16RoundRect,0.250000X0.250000X0.475000X-0.250000X0.475000X-0.250000X-0.475000X0.250000X-0.475000X0*%
%ADD17R,1.200000X1.400000*%
%ADD18RoundRect,0.250000X0.475000X-0.250000X0.475000X0.250000X-0.475000X0.250000X-0.475000X-0.250000X0*%
%ADD19RoundRect,0.150000X0.625000X-0.150000X0.625000X0.150000X-0.625000X0.150000X-0.625000X-0.150000X0*%
%ADD20RoundRect,0.250000X0.650000X-0.350000X0.650000X0.350000X-0.650000X0.350000X-0.650000X-0.350000X0*%
%ADD21RoundRect,0.250000X-0.262500X-0.450000X0.262500X-0.450000X0.262500X0.450000X-0.262500X0.450000X0*%
%ADD22R,0.550000X1.500000*%
%ADD23R,1.500000X0.550000*%
%ADD24R,1.800000X1.100000*%
G04 APERTURE END LIST*
D10*
%TO.C,D7*%
X158606252Y-33075000D03*
X158606252Y-29775000D03*
%TD*%
D11*
%TO.C,C4*%
X267100000Y-50300000D03*
X267100000Y-52200000D03*
%TD*%
D12*
%TO.C,RSW1*%
X266250000Y-37162500D03*
X266250000Y-35337500D03*
%TD*%
D10*
%TO.C,D8*%
X177656252Y-33075000D03*
X177656252Y-29775000D03*
%TD*%
%TO.C,D14*%
X44306252Y-52125000D03*
X44306252Y-48825000D03*
%TD*%
D13*
%TO.C,MX42*%
X67649438Y-84375698D03*
X81099438Y-81835698D03*
%TD*%
D10*
%TO.C,D35*%
X196706252Y-71200000D03*
X196706252Y-67900000D03*
%TD*%
%TO.C,D11*%
X234806252Y-33075000D03*
X234806252Y-29775000D03*
%TD*%
D14*
%TO.C,R3*%
X257450000Y-39337500D03*
X257450000Y-41162500D03*
%TD*%
D13*
%TO.C,MX9*%
X181949534Y-27225650D03*
X195399534Y-24685650D03*
%TD*%
%TO.C,MX3*%
X67649438Y-27225650D03*
X81099438Y-24685650D03*
%TD*%
D10*
%TO.C,D39*%
X277668748Y-71200000D03*
X277668748Y-67900000D03*
%TD*%
D13*
%TO.C,MX41*%
X48599422Y-84375698D03*
X62049422Y-81835698D03*
%TD*%
%TO.C,MX25*%
X239099582Y-46275666D03*
X252549582Y-43735666D03*
%TD*%
%TO.C,MX22*%
X181949534Y-46275666D03*
X195399534Y-43735666D03*
%TD*%
%TO.C,MX49*%
X200999550Y-84375698D03*
X214449550Y-81835698D03*
%TD*%
D10*
%TO.C,D46*%
X158606252Y-90200000D03*
X158606252Y-86900000D03*
%TD*%
%TO.C,D40*%
X44306252Y-90200000D03*
X44306252Y-86900000D03*
%TD*%
D13*
%TO.C,MX10*%
X200999550Y-27225650D03*
X214449550Y-24685650D03*
%TD*%
D15*
%TO.C,CX1*%
X273650000Y-54050000D03*
X275550000Y-54050000D03*
%TD*%
D12*
%TO.C,R2*%
X255150000Y-41162500D03*
X255150000Y-39337500D03*
%TD*%
D16*
%TO.C,C1*%
X248490834Y-52275000D03*
X246590834Y-52275000D03*
%TD*%
D10*
%TO.C,D4*%
X101456252Y-33075000D03*
X101456252Y-29775000D03*
%TD*%
D17*
%TO.C,Y1*%
X271050000Y-54325000D03*
X271050000Y-56525000D03*
X269350000Y-56525000D03*
X269350000Y-54325000D03*
%TD*%
D16*
%TO.C,C2*%
X248500000Y-57600000D03*
X246600000Y-57600000D03*
%TD*%
D13*
%TO.C,MX19*%
X124799486Y-46275666D03*
X138249486Y-43735666D03*
%TD*%
D10*
%TO.C,D29*%
X82406252Y-71200000D03*
X82406252Y-67900000D03*
%TD*%
D13*
%TO.C,MX21*%
X162899518Y-46275666D03*
X176349518Y-43735666D03*
%TD*%
D10*
%TO.C,D24*%
X234806252Y-52125000D03*
X234806252Y-48825000D03*
%TD*%
%TO.C,D31*%
X120506252Y-71200000D03*
X120506252Y-67900000D03*
%TD*%
%TO.C,D45*%
X139556252Y-90200000D03*
X139556252Y-86900000D03*
%TD*%
%TO.C,D16*%
X82406252Y-52125000D03*
X82406252Y-48825000D03*
%TD*%
%TO.C,D41*%
X63356252Y-90200000D03*
X63356252Y-86900000D03*
%TD*%
D13*
%TO.C,MX16*%
X67649438Y-46275666D03*
X81099438Y-43735666D03*
%TD*%
D10*
%TO.C,D13*%
X277668748Y-33075000D03*
X277668748Y-29775000D03*
%TD*%
D13*
%TO.C,MX32*%
X124799486Y-65325682D03*
X138249486Y-62785682D03*
%TD*%
D10*
%TO.C,D49*%
X215756252Y-90200000D03*
X215756252Y-86900000D03*
%TD*%
D13*
%TO.C,MX8*%
X162899518Y-27225650D03*
X176349518Y-24685650D03*
%TD*%
D10*
%TO.C,D51*%
X253856252Y-90200000D03*
X253856252Y-86900000D03*
%TD*%
%TO.C,D50*%
X234806252Y-90200000D03*
X234806252Y-86900000D03*
%TD*%
D18*
%TO.C,C5*%
X260075000Y-41200000D03*
X260075000Y-39300000D03*
%TD*%
D10*
%TO.C,D52*%
X277668748Y-90200000D03*
X277668748Y-86900000D03*
%TD*%
D13*
%TO.C,MX33*%
X143849502Y-65325682D03*
X157299502Y-62785682D03*
%TD*%
D10*
%TO.C,D37*%
X234806252Y-71200000D03*
X234806252Y-67900000D03*
%TD*%
%TO.C,D3*%
X82406252Y-33075000D03*
X82406252Y-29775000D03*
%TD*%
D15*
%TO.C,C3*%
X260450000Y-63000000D03*
X262350000Y-63000000D03*
%TD*%
D13*
%TO.C,MX37*%
X220049566Y-65325682D03*
X233499566Y-62785682D03*
%TD*%
D10*
%TO.C,D18*%
X120506252Y-52125000D03*
X120506252Y-48825000D03*
%TD*%
%TO.C,D28*%
X63356252Y-71200000D03*
X63356252Y-67900000D03*
%TD*%
D13*
%TO.C,MX34*%
X162899518Y-65325682D03*
X176349518Y-62785682D03*
%TD*%
%TO.C,MX28*%
X48599422Y-65325682D03*
X62049422Y-62785682D03*
%TD*%
%TO.C,MX47*%
X162899518Y-84375698D03*
X176349518Y-81835698D03*
%TD*%
D10*
%TO.C,D32*%
X139556252Y-71200000D03*
X139556252Y-67900000D03*
%TD*%
D13*
%TO.C,MX45*%
X124799486Y-84375698D03*
X138249486Y-81835698D03*
%TD*%
D10*
%TO.C,D5*%
X120506252Y-33075000D03*
X120506252Y-29775000D03*
%TD*%
D13*
%TO.C,MX4*%
X86699454Y-27225650D03*
X100149454Y-24685650D03*
%TD*%
D10*
%TO.C,D27*%
X44306252Y-71200000D03*
X44306252Y-67900000D03*
%TD*%
D13*
%TO.C,MX29*%
X67649438Y-65325682D03*
X81099438Y-62785682D03*
%TD*%
%TO.C,MX7*%
X143849502Y-27225650D03*
X157299502Y-24685650D03*
%TD*%
D10*
%TO.C,D48*%
X196706252Y-90200000D03*
X196706252Y-86900000D03*
%TD*%
%TO.C,D34*%
X177656252Y-71200000D03*
X177656252Y-67900000D03*
%TD*%
D13*
%TO.C,MX18*%
X105749470Y-46275666D03*
X119199470Y-43735666D03*
%TD*%
D10*
%TO.C,D20*%
X158606252Y-52125000D03*
X158606252Y-48825000D03*
%TD*%
D13*
%TO.C,MX39*%
X262912102Y-65325682D03*
X276362102Y-62785682D03*
%TD*%
D19*
%TO.C,J3*%
X245650000Y-39050000D03*
X245650000Y-38050000D03*
X245650000Y-37050000D03*
X245650000Y-36050000D03*
D20*
X241775000Y-40350000D03*
X241775000Y-34750000D03*
%TD*%
D13*
%TO.C,MX24*%
X220049566Y-46275666D03*
X233499566Y-43735666D03*
%TD*%
D10*
%TO.C,D19*%
X139556252Y-52125000D03*
X139556252Y-48825000D03*
%TD*%
D13*
%TO.C,MX43*%
X86699454Y-84375698D03*
X100149454Y-81835698D03*
%TD*%
%TO.C,MX13*%
X262912102Y-27225650D03*
X276362102Y-24685650D03*
%TD*%
%TO.C,MX6*%
X124799486Y-27225650D03*
X138249486Y-24685650D03*
%TD*%
%TO.C,MX36*%
X200999550Y-65325682D03*
X214449550Y-62785682D03*
%TD*%
D21*
%TO.C,R1*%
X246637500Y-59800000D03*
X248462500Y-59800000D03*
%TD*%
D10*
%TO.C,D6*%
X139556252Y-33075000D03*
X139556252Y-29775000D03*
%TD*%
D13*
%TO.C,MX30*%
X86699454Y-65325682D03*
X100149454Y-62785682D03*
%TD*%
D10*
%TO.C,D12*%
X239050000Y-33075000D03*
X239050000Y-29775000D03*
%TD*%
%TO.C,D30*%
X101456252Y-71200000D03*
X101456252Y-67900000D03*
%TD*%
%TO.C,D2*%
X63351252Y-33075000D03*
X63351252Y-29775000D03*
%TD*%
D15*
%TO.C,CX2*%
X273650000Y-56750000D03*
X275550000Y-56750000D03*
%TD*%
D13*
%TO.C,MX35*%
X181949534Y-65325682D03*
X195399534Y-62785682D03*
%TD*%
%TO.C,MX15*%
X48599422Y-46275666D03*
X62049422Y-43735666D03*
%TD*%
%TO.C,MX48*%
X181949534Y-84375698D03*
X195399534Y-81835698D03*
%TD*%
D10*
%TO.C,D33*%
X158606252Y-71200000D03*
X158606252Y-67900000D03*
%TD*%
D13*
%TO.C,MX31*%
X105749470Y-65325682D03*
X119199470Y-62785682D03*
%TD*%
D10*
%TO.C,D22*%
X196706252Y-52125000D03*
X196706252Y-48825000D03*
%TD*%
D13*
%TO.C,MX17*%
X86699454Y-46275666D03*
X100149454Y-43735666D03*
%TD*%
D10*
%TO.C,D36*%
X215756252Y-71200000D03*
X215756252Y-67900000D03*
%TD*%
D13*
%TO.C,MX51*%
X239099582Y-84375698D03*
X252549582Y-81835698D03*
%TD*%
D22*
%TO.C,U1*%
X253750000Y-48900000D03*
X254550000Y-48900000D03*
X255350000Y-48900000D03*
X256150000Y-48900000D03*
X256950000Y-48900000D03*
X257750000Y-48900000D03*
X258550000Y-48900000D03*
X259350000Y-48900000D03*
X260150000Y-48900000D03*
X260950000Y-48900000D03*
X261750000Y-48900000D03*
D23*
X263450000Y-50600000D03*
X263450000Y-51400000D03*
X263450000Y-52200000D03*
X263450000Y-53000000D03*
X263450000Y-53800000D03*
X263450000Y-54600000D03*
X263450000Y-55400000D03*
X263450000Y-56200000D03*
X263450000Y-57000000D03*
X263450000Y-57800000D03*
X263450000Y-58600000D03*
D22*
X261750000Y-60300000D03*
X260950000Y-60300000D03*
X260150000Y-60300000D03*
X259350000Y-60300000D03*
X258550000Y-60300000D03*
X257750000Y-60300000D03*
X256950000Y-60300000D03*
X256150000Y-60300000D03*
X255350000Y-60300000D03*
X254550000Y-60300000D03*
X253750000Y-60300000D03*
D23*
X252050000Y-58600000D03*
X252050000Y-57800000D03*
X252050000Y-57000000D03*
X252050000Y-56200000D03*
X252050000Y-55400000D03*
X252050000Y-54600000D03*
X252050000Y-53800000D03*
X252050000Y-53000000D03*
X252050000Y-52200000D03*
X252050000Y-51400000D03*
X252050000Y-50600000D03*
%TD*%
D13*
%TO.C,MX44*%
X105749470Y-84375698D03*
X119199470Y-81835698D03*
%TD*%
%TO.C,MX27*%
X29549406Y-65325682D03*
X42999406Y-62785682D03*
%TD*%
%TO.C,MX40*%
X29549406Y-84375698D03*
X42999406Y-81835698D03*
%TD*%
%TO.C,MX12*%
X239099582Y-27225650D03*
X252549582Y-24685650D03*
%TD*%
D10*
%TO.C,D43*%
X101456252Y-90200000D03*
X101456252Y-86900000D03*
%TD*%
%TO.C,D47*%
X177656252Y-90200000D03*
X177656252Y-86900000D03*
%TD*%
D13*
%TO.C,MX11*%
X220049566Y-27225650D03*
X233499566Y-24685650D03*
%TD*%
D10*
%TO.C,D9*%
X196706252Y-33075000D03*
X196706252Y-29775000D03*
%TD*%
D13*
%TO.C,MX23*%
X200999550Y-46275666D03*
X214449550Y-43735666D03*
%TD*%
%TO.C,MX52*%
X262912102Y-84375698D03*
X276362102Y-81835698D03*
%TD*%
D10*
%TO.C,D1*%
X44311252Y-33052500D03*
X44311252Y-29752500D03*
%TD*%
%TO.C,D21*%
X177656252Y-52125000D03*
X177656252Y-48825000D03*
%TD*%
D13*
%TO.C,MX2*%
X48599422Y-27225650D03*
X62049422Y-24685650D03*
%TD*%
%TO.C,MX50*%
X220049566Y-84375698D03*
X233499566Y-81835698D03*
%TD*%
D10*
%TO.C,D38*%
X253856252Y-71200000D03*
X253856252Y-67900000D03*
%TD*%
D13*
%TO.C,MX20*%
X143849502Y-46275666D03*
X157299502Y-43735666D03*
%TD*%
%TO.C,MX26*%
X262912102Y-46275666D03*
X276362102Y-43735666D03*
%TD*%
D10*
%TO.C,D15*%
X63356252Y-52125000D03*
X63356252Y-48825000D03*
%TD*%
D13*
%TO.C,MX1*%
X29549406Y-27225650D03*
X42999406Y-24685650D03*
%TD*%
D24*
%TO.C,SW1*%
X274750000Y-35475000D03*
X268550000Y-39175000D03*
X274750000Y-39175000D03*
X268550000Y-35475000D03*
%TD*%
D10*
%TO.C,D23*%
X215756252Y-52125000D03*
X215756252Y-48825000D03*
%TD*%
%TO.C,D25*%
X239056252Y-52125000D03*
X239056252Y-48825000D03*
%TD*%
%TO.C,D42*%
X82406252Y-90200000D03*
X82406252Y-86900000D03*
%TD*%
%TO.C,D26*%
X277668748Y-50625000D03*
X277668748Y-47325000D03*
%TD*%
D13*
%TO.C,MX38*%
X239099582Y-65325682D03*
X252549582Y-62785682D03*
%TD*%
D10*
%TO.C,D10*%
X215756252Y-33075000D03*
X215756252Y-29775000D03*
%TD*%
D13*
%TO.C,MX5*%
X105749470Y-27225650D03*
X119199470Y-24685650D03*
%TD*%
D10*
%TO.C,D44*%
X120506252Y-90200000D03*
X120506252Y-86900000D03*
%TD*%
%TO.C,D17*%
X101456252Y-52125000D03*
X101456252Y-48825000D03*
%TD*%
D13*
%TO.C,MX46*%
X143849502Y-84375698D03*
X157299502Y-81835698D03*
%TD*%
%TO.C,MX14*%
X29549406Y-46275666D03*
X42999406Y-43735666D03*
%TD*%
M02*
