G04 #@! TF.GenerationSoftware,KiCad,Pcbnew,(6.0.1-0)*
G04 #@! TF.CreationDate,2022-04-19T22:41:31-05:00*
G04 #@! TF.ProjectId,plate,706c6174-652e-46b6-9963-61645f706362,rev?*
G04 #@! TF.SameCoordinates,Original*
G04 #@! TF.FileFunction,Legend,Bot*
G04 #@! TF.FilePolarity,Positive*
%FSLAX46Y46*%
G04 Gerber Fmt 4.6, Leading zero omitted, Abs format (unit mm)*
G04 Created by KiCad (PCBNEW (6.0.1-0)) date 2022-04-19 22:41:31*
%MOMM*%
%LPD*%
G01*
G04 APERTURE LIST*
%ADD10C,0.200000*%
%ADD11C,0.150000*%
G04 APERTURE END LIST*
D10*
X376864173Y-74145434D02*
X376923697Y-74264481D01*
X377042745Y-74324005D01*
X378114173Y-74324005D01*
X377697507Y-73133529D02*
X376864173Y-73133529D01*
X377697507Y-73669243D02*
X377042745Y-73669243D01*
X376923697Y-73609719D01*
X376864173Y-73490672D01*
X376864173Y-73312100D01*
X376923697Y-73193053D01*
X376983221Y-73133529D01*
X376923697Y-72002576D02*
X376864173Y-72121624D01*
X376864173Y-72359719D01*
X376923697Y-72478767D01*
X376983221Y-72538291D01*
X377102269Y-72597815D01*
X377459411Y-72597815D01*
X377578459Y-72538291D01*
X377637983Y-72478767D01*
X377697507Y-72359719D01*
X377697507Y-72121624D01*
X377637983Y-72002576D01*
X377697507Y-71585910D02*
X376864173Y-71288291D01*
X377697507Y-70990672D02*
X376864173Y-71288291D01*
X376566554Y-71407338D01*
X376507030Y-71466862D01*
X376447507Y-71585910D01*
X377697507Y-69740672D02*
X377697507Y-69264481D01*
X376864173Y-69562100D02*
X377935602Y-69562100D01*
X378054650Y-69502576D01*
X378114173Y-69383529D01*
X378114173Y-69264481D01*
X376864173Y-68669243D02*
X376923697Y-68788291D01*
X377042745Y-68847815D01*
X378114173Y-68847815D01*
X376923697Y-67716862D02*
X376864173Y-67835910D01*
X376864173Y-68074005D01*
X376923697Y-68193053D01*
X377042745Y-68252576D01*
X377518935Y-68252576D01*
X377637983Y-68193053D01*
X377697507Y-68074005D01*
X377697507Y-67835910D01*
X377637983Y-67716862D01*
X377518935Y-67657338D01*
X377399888Y-67657338D01*
X377280840Y-68252576D01*
X376864173Y-67240672D02*
X377697507Y-66585910D01*
X377697507Y-67240672D02*
X376864173Y-66585910D01*
X376864173Y-65157338D02*
X377697507Y-65157338D01*
X377459411Y-65157338D02*
X377578459Y-65097815D01*
X377637983Y-65038291D01*
X377697507Y-64919243D01*
X377697507Y-64800196D01*
X376923697Y-63907338D02*
X376864173Y-64026386D01*
X376864173Y-64264481D01*
X376923697Y-64383529D01*
X377042745Y-64443053D01*
X377518935Y-64443053D01*
X377637983Y-64383529D01*
X377697507Y-64264481D01*
X377697507Y-64026386D01*
X377637983Y-63907338D01*
X377518935Y-63847815D01*
X377399888Y-63847815D01*
X377280840Y-64443053D01*
X377697507Y-63431148D02*
X376864173Y-63133529D01*
X377697507Y-62835910D01*
X376864173Y-60752576D02*
X376864173Y-61466862D01*
X376864173Y-61109719D02*
X378114173Y-61109719D01*
X377935602Y-61228767D01*
X377816554Y-61347815D01*
X377757030Y-61466862D01*
X376983221Y-60216862D02*
X376923697Y-60157338D01*
X376864173Y-60216862D01*
X376923697Y-60276386D01*
X376983221Y-60216862D01*
X376864173Y-60216862D01*
X378114173Y-59740672D02*
X378114173Y-58966862D01*
X377637983Y-59383529D01*
X377637983Y-59204957D01*
X377578459Y-59085910D01*
X377518935Y-59026386D01*
X377399888Y-58966862D01*
X377102269Y-58966862D01*
X376983221Y-59026386D01*
X376923697Y-59085910D01*
X376864173Y-59204957D01*
X376864173Y-59562100D01*
X376923697Y-59681148D01*
X376983221Y-59740672D01*
D11*
X377977289Y-111775555D02*
X377263003Y-111775555D01*
X377120146Y-111823174D01*
X377024908Y-111918412D01*
X376977289Y-112061269D01*
X376977289Y-112156508D01*
X376977289Y-110823174D02*
X376977289Y-111299365D01*
X377977289Y-111299365D01*
X377072527Y-109918412D02*
X377024908Y-109966031D01*
X376977289Y-110108888D01*
X376977289Y-110204127D01*
X377024908Y-110346984D01*
X377120146Y-110442222D01*
X377215384Y-110489841D01*
X377405860Y-110537460D01*
X377548717Y-110537460D01*
X377739193Y-110489841D01*
X377834431Y-110442222D01*
X377929670Y-110346984D01*
X377977289Y-110204127D01*
X377977289Y-110108888D01*
X377929670Y-109966031D01*
X377882050Y-109918412D01*
X377977289Y-109204127D02*
X377263003Y-109204127D01*
X377120146Y-109251746D01*
X377024908Y-109346984D01*
X376977289Y-109489841D01*
X376977289Y-109585079D01*
X376977289Y-108251746D02*
X376977289Y-108727936D01*
X377977289Y-108727936D01*
X377072527Y-107346984D02*
X377024908Y-107394603D01*
X376977289Y-107537460D01*
X376977289Y-107632698D01*
X377024908Y-107775555D01*
X377120146Y-107870793D01*
X377215384Y-107918412D01*
X377405860Y-107966031D01*
X377548717Y-107966031D01*
X377739193Y-107918412D01*
X377834431Y-107870793D01*
X377929670Y-107775555D01*
X377977289Y-107632698D01*
X377977289Y-107537460D01*
X377929670Y-107394603D01*
X377882050Y-107346984D01*
X377977289Y-106632698D02*
X377263003Y-106632698D01*
X377120146Y-106680317D01*
X377024908Y-106775555D01*
X376977289Y-106918412D01*
X376977289Y-107013650D01*
X376977289Y-105680317D02*
X376977289Y-106156508D01*
X377977289Y-106156508D01*
X377072527Y-104775555D02*
X377024908Y-104823174D01*
X376977289Y-104966031D01*
X376977289Y-105061269D01*
X377024908Y-105204127D01*
X377120146Y-105299365D01*
X377215384Y-105346984D01*
X377405860Y-105394603D01*
X377548717Y-105394603D01*
X377739193Y-105346984D01*
X377834431Y-105299365D01*
X377929670Y-105204127D01*
X377977289Y-105061269D01*
X377977289Y-104966031D01*
X377929670Y-104823174D01*
X377882050Y-104775555D01*
X377977289Y-104061269D02*
X377263003Y-104061269D01*
X377120146Y-104108888D01*
X377024908Y-104204127D01*
X376977289Y-104346984D01*
X376977289Y-104442222D01*
X376977289Y-103108888D02*
X376977289Y-103585079D01*
X377977289Y-103585079D01*
X377072527Y-102204127D02*
X377024908Y-102251746D01*
X376977289Y-102394603D01*
X376977289Y-102489841D01*
X377024908Y-102632698D01*
X377120146Y-102727936D01*
X377215384Y-102775555D01*
X377405860Y-102823174D01*
X377548717Y-102823174D01*
X377739193Y-102775555D01*
X377834431Y-102727936D01*
X377929670Y-102632698D01*
X377977289Y-102489841D01*
X377977289Y-102394603D01*
X377929670Y-102251746D01*
X377882050Y-102204127D01*
M02*
