M48
; DRILL file {KiCad (5.1.4-0-10_14)} date Sunday, October 03, 2021 at 12:43:48 PM
; FORMAT={-:-/ absolute / inch / decimal}
; #@! TF.CreationDate,2021-10-03T12:43:48-05:00
; #@! TF.GenerationSoftware,Kicad,Pcbnew,(5.1.4-0-10_14)
; #@! TF.FileFunction,Plated,1,2,PTH
FMAT,2
INCH
T1C0.0098
T2C0.0157
T3C0.0236
T4C0.0394
T5C0.0420
T6C0.0591
T7C0.0600
%
G90
G05
T1
X3.2719Y-3.1839
X4.0453Y-3.063
X4.0984Y-1.8524
X4.374Y-1.9724
X4.3937Y-3.4528
X4.4252Y-2.2382
X4.426Y-3.4557
X4.4533Y-2.6437
X4.4941Y-1.9724
X4.6299Y-1.9528
X4.6516Y-2.3996
X4.689Y-3.4606
X4.7028Y-1.9528
X4.7146Y-3.3602
X4.7283Y-3.4213
X4.752Y-2.9055
X4.7803Y-3.3565
X4.7803Y-3.3986
X4.8209Y-2.5869
X4.8209Y-2.6281
X4.8443Y-2.6498
X4.8445Y-2.6083
X4.874Y-2.9685
X4.874Y-3.3898
X5.0965Y-2.7402
X5.2008Y-3.1358
X5.2008Y-3.1791
X5.2185Y-3.1142
X5.2185Y-3.1575
X5.2185Y-3.2006
X5.2224Y-2.7126
X5.2224Y-2.8642
X5.3661Y-2.8642
X5.4961Y-3.3301
X5.498Y-2.372
X5.5219Y-3.1296
X6.2719Y-3.1434
X7.0219Y-3.1603
X7.7719Y-3.178
X8.5219Y-3.1906
X9.2719Y-3.2044
X10.0219Y-2.3284
X10.0219Y-3.2252
X10.7719Y-2.3138
X10.7719Y-3.2378
X11.5219Y-2.2607
X11.5219Y-3.056
X11.7378Y-2.9825
X11.8323Y-2.9825
T2
X4.1161Y-3.2717
X4.4331Y-2.7579
X4.6713Y-2.7441
X4.687Y-2.4331
X4.8012Y-3.6142
X4.8465Y-3.0295
X4.8465Y-3.187
T4
X12.5099Y-1.8187
X12.5099Y-2.3895
X12.6084Y-2.3895
X12.7068Y-1.8187
X12.7068Y-2.3895
T5
X7.5252Y-2.3087
X7.5252Y-2.5087
X7.5252Y-2.7087
X7.5412Y-2.2087
X7.5412Y-2.4087
X7.5412Y-2.6087
T7
X9.2719Y-3.4937
X9.5219Y-3.3937
X6.2719Y-2.7437
X6.5219Y-2.6437
X10.0219Y-3.4937
X10.2719Y-3.3937
X12.4594Y-1.9937
X12.7094Y-1.8938
X12.4594Y-3.4938
X9.2719Y-2.7437
X8.5219Y-2.7437
X8.7719Y-2.6437
X8.5219Y-4.2437
X8.7719Y-4.1437
X9.2719Y-4.2437
X9.5219Y-4.1437
X7.0219Y-2.7437
X7.2719Y-2.6437
X9.5219Y-2.6437
X7.0219Y-3.4937
X10.7719Y-3.4937
X11.0219Y-3.3937
X8.7719Y-1.8938
X7.2719Y-3.3937
X8.5219Y-1.9937
X12.7094Y-3.3938
X10.0219Y-4.2437
X10.2719Y-4.1437
X12.4594Y-4.2438
X12.7094Y-4.1438
X9.5219Y-1.8938
X10.0219Y-1.9937
X10.2719Y-1.8938
X8.5219Y-3.4937
X8.7719Y-3.3937
X9.2719Y-1.9937
X10.7719Y-1.9937
X11.0219Y-1.8938
X3.2719Y-3.4937
X3.5219Y-3.3937
X3.2719Y-4.2437
X3.5219Y-4.1437
X7.7719Y-2.7437
X8.0219Y-2.6437
X11.5219Y-2.7437
X11.7719Y-2.6437
X4.0219Y-4.2437
X4.2719Y-4.1437
X3.2719Y-1.9937
X3.5219Y-1.8938
X10.7719Y-4.2437
X11.0219Y-4.1437
X10.0219Y-2.7437
X10.2719Y-2.6437
X5.5219Y-1.9937
X7.7719Y-3.4937
X8.0219Y-3.3937
X12.4594Y-2.7438
X4.0219Y-3.4937
X4.2719Y-3.3937
X4.0219Y-1.9937
X4.2719Y-1.8938
X12.7094Y-2.6438
X5.7719Y-1.8938
X4.7719Y-4.2437
X5.0219Y-4.1437
X3.2719Y-2.7437
X3.5219Y-2.6437
X11.5219Y-1.9937
X11.7719Y-1.8938
X5.5219Y-4.2437
X5.7719Y-4.1437
X4.0219Y-2.7437
X6.2719Y-3.4937
X6.5219Y-3.3937
X4.7719Y-3.4937
X5.0219Y-3.3937
X10.7719Y-2.7437
X6.5219Y-1.8938
X6.2719Y-1.9937
X4.7719Y-2.7437
X5.0219Y-2.6437
X6.2719Y-4.2437
X6.5219Y-4.1437
X7.0219Y-1.9937
X7.2719Y-1.8938
X11.0219Y-2.6437
X5.5219Y-3.4937
X5.7719Y-3.3937
X4.2719Y-2.6437
X7.7719Y-4.2437
X8.0219Y-4.1437
X11.5219Y-3.4937
X11.7719Y-3.3937
X7.0219Y-4.2437
X7.2719Y-4.1437
X4.7719Y-1.9937
X5.0219Y-1.8938
X7.7719Y-1.9937
X8.0219Y-1.8938
X11.5219Y-4.2437
X11.7719Y-4.1437
X5.5221Y-2.7437
X5.7721Y-2.6437
T3
G00X4.3776Y-1.6913
M15
G01X4.3776Y-1.7149
M16
G05
G00X4.3776Y-1.8468
M15
G01X4.3776Y-1.8901
M16
G05
G00X4.7161Y-1.6913
M15
G01X4.7161Y-1.7149
M16
G05
G00X4.7161Y-1.8468
M15
G01X4.7161Y-1.8901
M16
G05
T6
G00X12.3879Y-2.1198
M15
G01X12.3879Y-2.0687
M16
G05
G00X12.8288Y-2.1198
M15
G01X12.8288Y-2.0687
M16
G05
T0
M30
