G04 #@! TF.GenerationSoftware,KiCad,Pcbnew,(5.1.10-1-10_14)*
G04 #@! TF.CreationDate,2021-08-20T16:51:13-05:00*
G04 #@! TF.ProjectId,ori_top_plate,6f72695f-746f-4705-9f70-6c6174652e6b,rev?*
G04 #@! TF.SameCoordinates,Original*
G04 #@! TF.FileFunction,Profile,NP*
%FSLAX46Y46*%
G04 Gerber Fmt 4.6, Leading zero omitted, Abs format (unit mm)*
G04 Created by KiCad (PCBNEW (5.1.10-1-10_14)) date 2021-08-20 16:51:13*
%MOMM*%
%LPD*%
G01*
G04 APERTURE LIST*
G04 #@! TA.AperFunction,Profile*
%ADD10C,0.150000*%
G04 #@! TD*
G04 #@! TA.AperFunction,Profile*
%ADD11C,0.010000*%
G04 #@! TD*
G04 APERTURE END LIST*
D10*
X258392142Y-39873575D02*
G75*
G02*
X257796829Y-40468888I-595313J0D01*
G01*
X263749959Y-40468888D02*
G75*
G02*
X263154646Y-39873575I0J595313D01*
G01*
X353642222Y-39873575D02*
G75*
G02*
X353046909Y-40468888I-595313J0D01*
G01*
X359000039Y-40468888D02*
G75*
G02*
X358404726Y-39873575I0J595313D01*
G01*
X392337567Y-116668952D02*
X396505150Y-116669080D01*
X379836330Y-116669080D02*
X386384437Y-116668952D01*
X391742254Y-117264265D02*
G75*
G02*
X386979750Y-117264265I-2381252J0D01*
G01*
X391742254Y-117264265D02*
G75*
G02*
X392337567Y-116668952I595313J0D01*
G01*
X386384437Y-116668952D02*
G75*
G02*
X386979750Y-117264265I0J-595313D01*
G01*
X392337567Y-40468888D02*
X396505150Y-40468760D01*
X379836330Y-40468760D02*
X386384437Y-40468888D01*
X359000039Y-40468888D02*
X372692550Y-40468760D01*
X263749959Y-40468888D02*
X353046909Y-40468888D01*
X168499879Y-40468888D02*
X257796829Y-40468888D01*
X148854110Y-40468760D02*
X162546749Y-40468888D01*
X162546749Y-116668952D02*
X148854110Y-116669080D01*
X257796829Y-116668952D02*
X168499879Y-116668952D01*
X353046909Y-116668952D02*
X263749959Y-116668952D01*
X359000039Y-116668952D02*
X372692550Y-116669080D01*
X358404726Y-117264265D02*
G75*
G02*
X353642222Y-117264265I-2381252J0D01*
G01*
X358404726Y-117264265D02*
G75*
G02*
X359000039Y-116668952I595313J0D01*
G01*
X353046909Y-116668952D02*
G75*
G02*
X353642222Y-117264265I0J-595313D01*
G01*
X263154646Y-117264265D02*
G75*
G02*
X258392142Y-117264265I-2381252J0D01*
G01*
X263154646Y-117264265D02*
G75*
G02*
X263749959Y-116668952I595313J0D01*
G01*
X257796829Y-116668952D02*
G75*
G02*
X258392142Y-117264265I0J-595313D01*
G01*
X167904566Y-117264265D02*
G75*
G02*
X163142062Y-117264265I-2381252J0D01*
G01*
X167904566Y-117264265D02*
G75*
G02*
X168499879Y-116668952I595313J0D01*
G01*
X162546749Y-116668952D02*
G75*
G02*
X163142062Y-117264265I0J-595313D01*
G01*
X163142062Y-39873575D02*
G75*
G02*
X167904566Y-39873575I2381252J0D01*
G01*
X163142062Y-39873575D02*
G75*
G02*
X162546749Y-40468888I-595313J0D01*
G01*
X168499879Y-40468888D02*
G75*
G02*
X167904566Y-39873575I0J595313D01*
G01*
X258392142Y-39873575D02*
G75*
G02*
X263154646Y-39873575I2381252J0D01*
G01*
X353642222Y-39873575D02*
G75*
G02*
X358404726Y-39873575I2381252J0D01*
G01*
X386979750Y-39873575D02*
G75*
G02*
X386384437Y-40468888I-595313J0D01*
G01*
X392337567Y-40468888D02*
G75*
G02*
X391742254Y-39873575I0J595313D01*
G01*
X386979750Y-39873575D02*
G75*
G02*
X391742254Y-39873575I2381252J0D01*
G01*
X146472850Y-42850020D02*
X146472850Y-114287820D01*
X377455070Y-101786127D02*
X377455070Y-114287820D01*
X375073810Y-101786237D02*
X375073810Y-114287820D01*
X375073810Y-82736125D02*
X375073490Y-93451745D01*
X377455070Y-82736125D02*
X377455070Y-93451827D01*
X377455070Y-74401715D02*
X377454746Y-63686095D01*
X375073486Y-63686095D02*
X375073810Y-74401715D01*
X377455070Y-42850020D02*
X377455070Y-55351603D01*
X398886410Y-114287820D02*
X398886410Y-42850020D01*
X375073810Y-42850020D02*
X375073810Y-55351603D01*
X377455070Y-42850020D02*
G75*
G02*
X379836330Y-40468760I2381260J0D01*
G01*
X379836330Y-116669080D02*
G75*
G02*
X377455070Y-114287820I0J2381260D01*
G01*
X375073810Y-101786237D02*
G75*
G02*
X377455070Y-101786237I1190630J0D01*
G01*
X377455070Y-93451827D02*
G75*
G02*
X375073810Y-93451827I-1190630J0D01*
G01*
X375073810Y-82736125D02*
G75*
G02*
X377455070Y-82736125I1190630J0D01*
G01*
X377455070Y-74401715D02*
G75*
G02*
X375073810Y-74401715I-1190630J0D01*
G01*
X375073486Y-63686095D02*
G75*
G02*
X377454746Y-63686095I1190630J0D01*
G01*
X377455070Y-55351603D02*
G75*
G02*
X375073810Y-55351603I-1190630J0D01*
G01*
X396505150Y-40468760D02*
G75*
G02*
X398886410Y-42850020I0J-2381260D01*
G01*
X398886410Y-114287820D02*
G75*
G02*
X396505150Y-116669080I-2381260J0D01*
G01*
X372692550Y-40468760D02*
G75*
G02*
X375073810Y-42850020I0J-2381260D01*
G01*
X375073810Y-114287820D02*
G75*
G02*
X372692550Y-116669080I-2381260J0D01*
G01*
X148854110Y-116669080D02*
G75*
G02*
X146472850Y-114287820I0J2381260D01*
G01*
X146472850Y-42850020D02*
G75*
G02*
X148854110Y-40468760I2381260J0D01*
G01*
D11*
X396336010Y-113656700D02*
X396336010Y-100656700D01*
X382836010Y-114156700D02*
X395836010Y-114156700D01*
X382336010Y-100656700D02*
X382336010Y-113656700D01*
X395836010Y-100156700D02*
X382836010Y-100156700D01*
X396336010Y-113656700D02*
G75*
G02*
X395836010Y-114156700I-500000J0D01*
G01*
X382836010Y-114156700D02*
G75*
G02*
X382336010Y-113656700I0J500000D01*
G01*
X382336010Y-100656700D02*
G75*
G02*
X382836010Y-100156700I500000J0D01*
G01*
X395836010Y-100156700D02*
G75*
G02*
X396336010Y-100656700I0J-500000D01*
G01*
X396361002Y-94606620D02*
X396361002Y-81606620D01*
X382861002Y-95106620D02*
X395861002Y-95106620D01*
X382361002Y-81606620D02*
X382361002Y-94606620D01*
X395861002Y-81106620D02*
X382861002Y-81106620D01*
X396361002Y-94606620D02*
G75*
G02*
X395861002Y-95106620I-500000J0D01*
G01*
X382861002Y-95106620D02*
G75*
G02*
X382361002Y-94606620I0J500000D01*
G01*
X382361002Y-81606620D02*
G75*
G02*
X382861002Y-81106620I500000J0D01*
G01*
X395861002Y-81106620D02*
G75*
G02*
X396361002Y-81606620I0J-500000D01*
G01*
X396361370Y-75543880D02*
X396361370Y-62543880D01*
X382861370Y-76043880D02*
X395861370Y-76043880D01*
X382361370Y-62543880D02*
X382361370Y-75543880D01*
X395861370Y-62043880D02*
X382861370Y-62043880D01*
X396361370Y-75543880D02*
G75*
G02*
X395861370Y-76043880I-500000J0D01*
G01*
X382861370Y-76043880D02*
G75*
G02*
X382361370Y-75543880I0J500000D01*
G01*
X382361370Y-62543880D02*
G75*
G02*
X382861370Y-62043880I500000J0D01*
G01*
X395861370Y-62043880D02*
G75*
G02*
X396361370Y-62543880I0J-500000D01*
G01*
X396336010Y-56506460D02*
X396336010Y-43506460D01*
X382836010Y-57006460D02*
X395836010Y-57006460D01*
X382336010Y-43506460D02*
X382336010Y-56506460D01*
X395836010Y-43006460D02*
X382836010Y-43006460D01*
X396336010Y-56506460D02*
G75*
G02*
X395836010Y-57006460I-500000J0D01*
G01*
X382836010Y-57006460D02*
G75*
G02*
X382336010Y-56506460I0J500000D01*
G01*
X382336010Y-43506460D02*
G75*
G02*
X382836010Y-43006460I500000J0D01*
G01*
X395836010Y-43006460D02*
G75*
G02*
X396336010Y-43506460I0J-500000D01*
G01*
X372523410Y-113656700D02*
X372523410Y-100656700D01*
X359023410Y-114156700D02*
X372023410Y-114156700D01*
X358523410Y-100656700D02*
X358523410Y-113656700D01*
X372023410Y-100156700D02*
X359023410Y-100156700D01*
X372523410Y-113656700D02*
G75*
G02*
X372023410Y-114156700I-500000J0D01*
G01*
X359023410Y-114156700D02*
G75*
G02*
X358523410Y-113656700I0J500000D01*
G01*
X358523410Y-100656700D02*
G75*
G02*
X359023410Y-100156700I500000J0D01*
G01*
X372023410Y-100156700D02*
G75*
G02*
X372523410Y-100656700I0J-500000D01*
G01*
X353473330Y-113660000D02*
X353473330Y-100660000D01*
X339973330Y-114160000D02*
X352973330Y-114160000D01*
X339473330Y-100660000D02*
X339473330Y-113660000D01*
X352973330Y-100160000D02*
X339973330Y-100160000D01*
X353473330Y-113660000D02*
G75*
G02*
X352973330Y-114160000I-500000J0D01*
G01*
X339973330Y-114160000D02*
G75*
G02*
X339473330Y-113660000I0J500000D01*
G01*
X339473330Y-100660000D02*
G75*
G02*
X339973330Y-100160000I500000J0D01*
G01*
X352973330Y-100160000D02*
G75*
G02*
X353473330Y-100660000I0J-500000D01*
G01*
X334423250Y-113656700D02*
X334423250Y-100656700D01*
X320923250Y-114156700D02*
X333923250Y-114156700D01*
X320423250Y-100656700D02*
X320423250Y-113656700D01*
X333923250Y-100156700D02*
X320923250Y-100156700D01*
X334423250Y-113656700D02*
G75*
G02*
X333923250Y-114156700I-500000J0D01*
G01*
X320923250Y-114156700D02*
G75*
G02*
X320423250Y-113656700I0J500000D01*
G01*
X320423250Y-100656700D02*
G75*
G02*
X320923250Y-100156700I500000J0D01*
G01*
X333923250Y-100156700D02*
G75*
G02*
X334423250Y-100656700I0J-500000D01*
G01*
X315373170Y-113656700D02*
X315373170Y-100656700D01*
X301873170Y-114156700D02*
X314873170Y-114156700D01*
X301373170Y-100656700D02*
X301373170Y-113656700D01*
X314873170Y-100156700D02*
X301873170Y-100156700D01*
X315373170Y-113656700D02*
G75*
G02*
X314873170Y-114156700I-500000J0D01*
G01*
X301873170Y-114156700D02*
G75*
G02*
X301373170Y-113656700I0J500000D01*
G01*
X301373170Y-100656700D02*
G75*
G02*
X301873170Y-100156700I500000J0D01*
G01*
X314873170Y-100156700D02*
G75*
G02*
X315373170Y-100656700I0J-500000D01*
G01*
X296323090Y-113656700D02*
X296323090Y-100656700D01*
X282823090Y-114156700D02*
X295823090Y-114156700D01*
X282323090Y-100656700D02*
X282323090Y-113656700D01*
X295823090Y-100156700D02*
X282823090Y-100156700D01*
X296323090Y-113656700D02*
G75*
G02*
X295823090Y-114156700I-500000J0D01*
G01*
X282823090Y-114156700D02*
G75*
G02*
X282323090Y-113656700I0J500000D01*
G01*
X282323090Y-100656700D02*
G75*
G02*
X282823090Y-100156700I500000J0D01*
G01*
X295823090Y-100156700D02*
G75*
G02*
X296323090Y-100656700I0J-500000D01*
G01*
X277273010Y-113656700D02*
X277273010Y-100656700D01*
X263773010Y-114156700D02*
X276773010Y-114156700D01*
X263273010Y-100656700D02*
X263273010Y-113656700D01*
X276773010Y-100156700D02*
X263773010Y-100156700D01*
X277273010Y-113656700D02*
G75*
G02*
X276773010Y-114156700I-500000J0D01*
G01*
X263773010Y-114156700D02*
G75*
G02*
X263273010Y-113656700I0J500000D01*
G01*
X263273010Y-100656700D02*
G75*
G02*
X263773010Y-100156700I500000J0D01*
G01*
X276773010Y-100156700D02*
G75*
G02*
X277273010Y-100656700I0J-500000D01*
G01*
X258222930Y-113656700D02*
X258222930Y-100656700D01*
X244722930Y-114156700D02*
X257722930Y-114156700D01*
X244222930Y-100656700D02*
X244222930Y-113656700D01*
X257722930Y-100156700D02*
X244722930Y-100156700D01*
X258222930Y-113656700D02*
G75*
G02*
X257722930Y-114156700I-500000J0D01*
G01*
X244722930Y-114156700D02*
G75*
G02*
X244222930Y-113656700I0J500000D01*
G01*
X244222930Y-100656700D02*
G75*
G02*
X244722930Y-100156700I500000J0D01*
G01*
X257722930Y-100156700D02*
G75*
G02*
X258222930Y-100656700I0J-500000D01*
G01*
X239172850Y-113656700D02*
X239172850Y-100656700D01*
X225672850Y-114156700D02*
X238672850Y-114156700D01*
X225172850Y-100656700D02*
X225172850Y-113656700D01*
X238672850Y-100156700D02*
X225672850Y-100156700D01*
X239172850Y-113656700D02*
G75*
G02*
X238672850Y-114156700I-500000J0D01*
G01*
X225672850Y-114156700D02*
G75*
G02*
X225172850Y-113656700I0J500000D01*
G01*
X225172850Y-100656700D02*
G75*
G02*
X225672850Y-100156700I500000J0D01*
G01*
X238672850Y-100156700D02*
G75*
G02*
X239172850Y-100656700I0J-500000D01*
G01*
X220122770Y-113656700D02*
X220122770Y-100656700D01*
X206622770Y-114156700D02*
X219622770Y-114156700D01*
X206122770Y-100656700D02*
X206122770Y-113656700D01*
X219622770Y-100156700D02*
X206622770Y-100156700D01*
X220122770Y-113656700D02*
G75*
G02*
X219622770Y-114156700I-500000J0D01*
G01*
X206622770Y-114156700D02*
G75*
G02*
X206122770Y-113656700I0J500000D01*
G01*
X206122770Y-100656700D02*
G75*
G02*
X206622770Y-100156700I500000J0D01*
G01*
X219622770Y-100156700D02*
G75*
G02*
X220122770Y-100656700I0J-500000D01*
G01*
X201072690Y-113656700D02*
X201072690Y-100656700D01*
X187572690Y-114156700D02*
X200572690Y-114156700D01*
X187072690Y-100656700D02*
X187072690Y-113656700D01*
X200572690Y-100156700D02*
X187572690Y-100156700D01*
X201072690Y-113656700D02*
G75*
G02*
X200572690Y-114156700I-500000J0D01*
G01*
X187572690Y-114156700D02*
G75*
G02*
X187072690Y-113656700I0J500000D01*
G01*
X187072690Y-100656700D02*
G75*
G02*
X187572690Y-100156700I500000J0D01*
G01*
X200572690Y-100156700D02*
G75*
G02*
X201072690Y-100656700I0J-500000D01*
G01*
X182022610Y-113656700D02*
X182022610Y-100656700D01*
X168522610Y-114156700D02*
X181522610Y-114156700D01*
X168022610Y-100656700D02*
X168022610Y-113656700D01*
X181522610Y-100156700D02*
X168522610Y-100156700D01*
X182022610Y-113656700D02*
G75*
G02*
X181522610Y-114156700I-500000J0D01*
G01*
X168522610Y-114156700D02*
G75*
G02*
X168022610Y-113656700I0J500000D01*
G01*
X168022610Y-100656700D02*
G75*
G02*
X168522610Y-100156700I500000J0D01*
G01*
X181522610Y-100156700D02*
G75*
G02*
X182022610Y-100656700I0J-500000D01*
G01*
X162972530Y-113656700D02*
X162972530Y-100656700D01*
X149472530Y-114156700D02*
X162472530Y-114156700D01*
X148972530Y-100656700D02*
X148972530Y-113656700D01*
X162472530Y-100156700D02*
X149472530Y-100156700D01*
X162972530Y-113656700D02*
G75*
G02*
X162472530Y-114156700I-500000J0D01*
G01*
X149472530Y-114156700D02*
G75*
G02*
X148972530Y-113656700I0J500000D01*
G01*
X148972530Y-100656700D02*
G75*
G02*
X149472530Y-100156700I500000J0D01*
G01*
X162472530Y-100156700D02*
G75*
G02*
X162972530Y-100656700I0J-500000D01*
G01*
X372523410Y-94606620D02*
X372523410Y-81606620D01*
X359023410Y-95106620D02*
X372023410Y-95106620D01*
X358523410Y-81606620D02*
X358523410Y-94606620D01*
X372023410Y-81106620D02*
X359023410Y-81106620D01*
X372523410Y-94606620D02*
G75*
G02*
X372023410Y-95106620I-500000J0D01*
G01*
X359023410Y-95106620D02*
G75*
G02*
X358523410Y-94606620I0J500000D01*
G01*
X358523410Y-81606620D02*
G75*
G02*
X359023410Y-81106620I500000J0D01*
G01*
X372023410Y-81106620D02*
G75*
G02*
X372523410Y-81606620I0J-500000D01*
G01*
X353473330Y-94606620D02*
X353473330Y-81606620D01*
X339973330Y-95106620D02*
X352973330Y-95106620D01*
X339473330Y-81606620D02*
X339473330Y-94606620D01*
X352973330Y-81106620D02*
X339973330Y-81106620D01*
X353473330Y-94606620D02*
G75*
G02*
X352973330Y-95106620I-500000J0D01*
G01*
X339973330Y-95106620D02*
G75*
G02*
X339473330Y-94606620I0J500000D01*
G01*
X339473330Y-81606620D02*
G75*
G02*
X339973330Y-81106620I500000J0D01*
G01*
X352973330Y-81106620D02*
G75*
G02*
X353473330Y-81606620I0J-500000D01*
G01*
X334423250Y-94606620D02*
X334423250Y-81606620D01*
X320923250Y-95106620D02*
X333923250Y-95106620D01*
X320423250Y-81606620D02*
X320423250Y-94606620D01*
X333923250Y-81106620D02*
X320923250Y-81106620D01*
X334423250Y-94606620D02*
G75*
G02*
X333923250Y-95106620I-500000J0D01*
G01*
X320923250Y-95106620D02*
G75*
G02*
X320423250Y-94606620I0J500000D01*
G01*
X320423250Y-81606620D02*
G75*
G02*
X320923250Y-81106620I500000J0D01*
G01*
X333923250Y-81106620D02*
G75*
G02*
X334423250Y-81606620I0J-500000D01*
G01*
X315373170Y-94606620D02*
X315373170Y-81606620D01*
X301873170Y-95106620D02*
X314873170Y-95106620D01*
X301373170Y-81606620D02*
X301373170Y-94606620D01*
X314873170Y-81106620D02*
X301873170Y-81106620D01*
X315373170Y-94606620D02*
G75*
G02*
X314873170Y-95106620I-500000J0D01*
G01*
X301873170Y-95106620D02*
G75*
G02*
X301373170Y-94606620I0J500000D01*
G01*
X301373170Y-81606620D02*
G75*
G02*
X301873170Y-81106620I500000J0D01*
G01*
X314873170Y-81106620D02*
G75*
G02*
X315373170Y-81606620I0J-500000D01*
G01*
X296323090Y-94606620D02*
X296323090Y-81606620D01*
X282823090Y-95106620D02*
X295823090Y-95106620D01*
X282323090Y-81606620D02*
X282323090Y-94606620D01*
X295823090Y-81106620D02*
X282823090Y-81106620D01*
X296323090Y-94606620D02*
G75*
G02*
X295823090Y-95106620I-500000J0D01*
G01*
X282823090Y-95106620D02*
G75*
G02*
X282323090Y-94606620I0J500000D01*
G01*
X282323090Y-81606620D02*
G75*
G02*
X282823090Y-81106620I500000J0D01*
G01*
X295823090Y-81106620D02*
G75*
G02*
X296323090Y-81606620I0J-500000D01*
G01*
X277273010Y-94606620D02*
X277273010Y-81606620D01*
X263773010Y-95106620D02*
X276773010Y-95106620D01*
X263273010Y-81606620D02*
X263273010Y-94606620D01*
X276773010Y-81106620D02*
X263773010Y-81106620D01*
X277273010Y-94606620D02*
G75*
G02*
X276773010Y-95106620I-500000J0D01*
G01*
X263773010Y-95106620D02*
G75*
G02*
X263273010Y-94606620I0J500000D01*
G01*
X263273010Y-81606620D02*
G75*
G02*
X263773010Y-81106620I500000J0D01*
G01*
X276773010Y-81106620D02*
G75*
G02*
X277273010Y-81606620I0J-500000D01*
G01*
X258222930Y-94606620D02*
X258222930Y-81606620D01*
X244722930Y-95106620D02*
X257722930Y-95106620D01*
X244222930Y-81606620D02*
X244222930Y-94606620D01*
X257722930Y-81106620D02*
X244722930Y-81106620D01*
X258222930Y-94606620D02*
G75*
G02*
X257722930Y-95106620I-500000J0D01*
G01*
X244722930Y-95106620D02*
G75*
G02*
X244222930Y-94606620I0J500000D01*
G01*
X244222930Y-81606620D02*
G75*
G02*
X244722930Y-81106620I500000J0D01*
G01*
X257722930Y-81106620D02*
G75*
G02*
X258222930Y-81606620I0J-500000D01*
G01*
X239172850Y-94606620D02*
X239172850Y-81606620D01*
X225672850Y-95106620D02*
X238672850Y-95106620D01*
X225172850Y-81606620D02*
X225172850Y-94606620D01*
X238672850Y-81106620D02*
X225672850Y-81106620D01*
X239172850Y-94606620D02*
G75*
G02*
X238672850Y-95106620I-500000J0D01*
G01*
X225672850Y-95106620D02*
G75*
G02*
X225172850Y-94606620I0J500000D01*
G01*
X225172850Y-81606620D02*
G75*
G02*
X225672850Y-81106620I500000J0D01*
G01*
X238672850Y-81106620D02*
G75*
G02*
X239172850Y-81606620I0J-500000D01*
G01*
X220122770Y-94606620D02*
X220122770Y-81606620D01*
X206622770Y-95106620D02*
X219622770Y-95106620D01*
X206122770Y-81606620D02*
X206122770Y-94606620D01*
X219622770Y-81106620D02*
X206622770Y-81106620D01*
X220122770Y-94606620D02*
G75*
G02*
X219622770Y-95106620I-500000J0D01*
G01*
X206622770Y-95106620D02*
G75*
G02*
X206122770Y-94606620I0J500000D01*
G01*
X206122770Y-81606620D02*
G75*
G02*
X206622770Y-81106620I500000J0D01*
G01*
X219622770Y-81106620D02*
G75*
G02*
X220122770Y-81606620I0J-500000D01*
G01*
X201072690Y-94606620D02*
X201072690Y-81606620D01*
X187572690Y-95106620D02*
X200572690Y-95106620D01*
X187072690Y-81606620D02*
X187072690Y-94606620D01*
X200572690Y-81106620D02*
X187572690Y-81106620D01*
X201072690Y-94606620D02*
G75*
G02*
X200572690Y-95106620I-500000J0D01*
G01*
X187572690Y-95106620D02*
G75*
G02*
X187072690Y-94606620I0J500000D01*
G01*
X187072690Y-81606620D02*
G75*
G02*
X187572690Y-81106620I500000J0D01*
G01*
X200572690Y-81106620D02*
G75*
G02*
X201072690Y-81606620I0J-500000D01*
G01*
X182022610Y-94606620D02*
X182022610Y-81606620D01*
X168522610Y-95106620D02*
X181522610Y-95106620D01*
X168022610Y-81606620D02*
X168022610Y-94606620D01*
X181522610Y-81106620D02*
X168522610Y-81106620D01*
X182022610Y-94606620D02*
G75*
G02*
X181522610Y-95106620I-500000J0D01*
G01*
X168522610Y-95106620D02*
G75*
G02*
X168022610Y-94606620I0J500000D01*
G01*
X168022610Y-81606620D02*
G75*
G02*
X168522610Y-81106620I500000J0D01*
G01*
X181522610Y-81106620D02*
G75*
G02*
X182022610Y-81606620I0J-500000D01*
G01*
X162972530Y-94606620D02*
X162972530Y-81606620D01*
X149472530Y-95106620D02*
X162472530Y-95106620D01*
X148972530Y-81606620D02*
X148972530Y-94606620D01*
X162472530Y-81106620D02*
X149472530Y-81106620D01*
X162972530Y-94606620D02*
G75*
G02*
X162472530Y-95106620I-500000J0D01*
G01*
X149472530Y-95106620D02*
G75*
G02*
X148972530Y-94606620I0J500000D01*
G01*
X148972530Y-81606620D02*
G75*
G02*
X149472530Y-81106620I500000J0D01*
G01*
X162472530Y-81106620D02*
G75*
G02*
X162972530Y-81606620I0J-500000D01*
G01*
X372523410Y-75556540D02*
X372523410Y-62556540D01*
X359023410Y-76056540D02*
X372023410Y-76056540D01*
X358523410Y-62556540D02*
X358523410Y-75556540D01*
X372023410Y-62056540D02*
X359023410Y-62056540D01*
X372523410Y-75556540D02*
G75*
G02*
X372023410Y-76056540I-500000J0D01*
G01*
X359023410Y-76056540D02*
G75*
G02*
X358523410Y-75556540I0J500000D01*
G01*
X358523410Y-62556540D02*
G75*
G02*
X359023410Y-62056540I500000J0D01*
G01*
X372023410Y-62056540D02*
G75*
G02*
X372523410Y-62556540I0J-500000D01*
G01*
X353473330Y-75556540D02*
X353473330Y-62556540D01*
X339973330Y-76056540D02*
X352973330Y-76056540D01*
X339473330Y-62556540D02*
X339473330Y-75556540D01*
X352973330Y-62056540D02*
X339973330Y-62056540D01*
X353473330Y-75556540D02*
G75*
G02*
X352973330Y-76056540I-500000J0D01*
G01*
X339973330Y-76056540D02*
G75*
G02*
X339473330Y-75556540I0J500000D01*
G01*
X339473330Y-62556540D02*
G75*
G02*
X339973330Y-62056540I500000J0D01*
G01*
X352973330Y-62056540D02*
G75*
G02*
X353473330Y-62556540I0J-500000D01*
G01*
X334423250Y-75556540D02*
X334423250Y-62556540D01*
X320923250Y-76056540D02*
X333923250Y-76056540D01*
X320423250Y-62556540D02*
X320423250Y-75556540D01*
X333923250Y-62056540D02*
X320923250Y-62056540D01*
X334423250Y-75556540D02*
G75*
G02*
X333923250Y-76056540I-500000J0D01*
G01*
X320923250Y-76056540D02*
G75*
G02*
X320423250Y-75556540I0J500000D01*
G01*
X320423250Y-62556540D02*
G75*
G02*
X320923250Y-62056540I500000J0D01*
G01*
X333923250Y-62056540D02*
G75*
G02*
X334423250Y-62556540I0J-500000D01*
G01*
X315373170Y-75556540D02*
X315373170Y-62556540D01*
X301873170Y-76056540D02*
X314873170Y-76056540D01*
X301373170Y-62556540D02*
X301373170Y-75556540D01*
X314873170Y-62056540D02*
X301873170Y-62056540D01*
X315373170Y-75556540D02*
G75*
G02*
X314873170Y-76056540I-500000J0D01*
G01*
X301873170Y-76056540D02*
G75*
G02*
X301373170Y-75556540I0J500000D01*
G01*
X301373170Y-62556540D02*
G75*
G02*
X301873170Y-62056540I500000J0D01*
G01*
X314873170Y-62056540D02*
G75*
G02*
X315373170Y-62556540I0J-500000D01*
G01*
X296323090Y-75556540D02*
X296323090Y-62556540D01*
X282823090Y-76056540D02*
X295823090Y-76056540D01*
X282323090Y-62556540D02*
X282323090Y-75556540D01*
X295823090Y-62056540D02*
X282823090Y-62056540D01*
X296323090Y-75556540D02*
G75*
G02*
X295823090Y-76056540I-500000J0D01*
G01*
X282823090Y-76056540D02*
G75*
G02*
X282323090Y-75556540I0J500000D01*
G01*
X282323090Y-62556540D02*
G75*
G02*
X282823090Y-62056540I500000J0D01*
G01*
X295823090Y-62056540D02*
G75*
G02*
X296323090Y-62556540I0J-500000D01*
G01*
X277273010Y-75556540D02*
X277273010Y-62556540D01*
X263773010Y-76056540D02*
X276773010Y-76056540D01*
X263273010Y-62556540D02*
X263273010Y-75556540D01*
X276773010Y-62056540D02*
X263773010Y-62056540D01*
X277273010Y-75556540D02*
G75*
G02*
X276773010Y-76056540I-500000J0D01*
G01*
X263773010Y-76056540D02*
G75*
G02*
X263273010Y-75556540I0J500000D01*
G01*
X263273010Y-62556540D02*
G75*
G02*
X263773010Y-62056540I500000J0D01*
G01*
X276773010Y-62056540D02*
G75*
G02*
X277273010Y-62556540I0J-500000D01*
G01*
X258222930Y-75556540D02*
X258222930Y-62556540D01*
X244722930Y-76056540D02*
X257722930Y-76056540D01*
X244222930Y-62556540D02*
X244222930Y-75556540D01*
X257722930Y-62056540D02*
X244722930Y-62056540D01*
X258222930Y-75556540D02*
G75*
G02*
X257722930Y-76056540I-500000J0D01*
G01*
X244722930Y-76056540D02*
G75*
G02*
X244222930Y-75556540I0J500000D01*
G01*
X244222930Y-62556540D02*
G75*
G02*
X244722930Y-62056540I500000J0D01*
G01*
X257722930Y-62056540D02*
G75*
G02*
X258222930Y-62556540I0J-500000D01*
G01*
X239172850Y-75556540D02*
X239172850Y-62556540D01*
X225672850Y-76056540D02*
X238672850Y-76056540D01*
X225172850Y-62556540D02*
X225172850Y-75556540D01*
X238672850Y-62056540D02*
X225672850Y-62056540D01*
X239172850Y-75556540D02*
G75*
G02*
X238672850Y-76056540I-500000J0D01*
G01*
X225672850Y-76056540D02*
G75*
G02*
X225172850Y-75556540I0J500000D01*
G01*
X225172850Y-62556540D02*
G75*
G02*
X225672850Y-62056540I500000J0D01*
G01*
X238672850Y-62056540D02*
G75*
G02*
X239172850Y-62556540I0J-500000D01*
G01*
X220122770Y-75556540D02*
X220122770Y-62556540D01*
X206622770Y-76056540D02*
X219622770Y-76056540D01*
X206122770Y-62556540D02*
X206122770Y-75556540D01*
X219622770Y-62056540D02*
X206622770Y-62056540D01*
X220122770Y-75556540D02*
G75*
G02*
X219622770Y-76056540I-500000J0D01*
G01*
X206622770Y-76056540D02*
G75*
G02*
X206122770Y-75556540I0J500000D01*
G01*
X206122770Y-62556540D02*
G75*
G02*
X206622770Y-62056540I500000J0D01*
G01*
X219622770Y-62056540D02*
G75*
G02*
X220122770Y-62556540I0J-500000D01*
G01*
X201072690Y-75556540D02*
X201072690Y-62556540D01*
X187572690Y-76056540D02*
X200572690Y-76056540D01*
X187072690Y-62556540D02*
X187072690Y-75556540D01*
X200572690Y-62056540D02*
X187572690Y-62056540D01*
X201072690Y-75556540D02*
G75*
G02*
X200572690Y-76056540I-500000J0D01*
G01*
X187572690Y-76056540D02*
G75*
G02*
X187072690Y-75556540I0J500000D01*
G01*
X187072690Y-62556540D02*
G75*
G02*
X187572690Y-62056540I500000J0D01*
G01*
X200572690Y-62056540D02*
G75*
G02*
X201072690Y-62556540I0J-500000D01*
G01*
X182022610Y-75556540D02*
X182022610Y-62556540D01*
X168522610Y-76056540D02*
X181522610Y-76056540D01*
X168022610Y-62556540D02*
X168022610Y-75556540D01*
X181522610Y-62056540D02*
X168522610Y-62056540D01*
X182022610Y-75556540D02*
G75*
G02*
X181522610Y-76056540I-500000J0D01*
G01*
X168522610Y-76056540D02*
G75*
G02*
X168022610Y-75556540I0J500000D01*
G01*
X168022610Y-62556540D02*
G75*
G02*
X168522610Y-62056540I500000J0D01*
G01*
X181522610Y-62056540D02*
G75*
G02*
X182022610Y-62556540I0J-500000D01*
G01*
X162972530Y-75556540D02*
X162972530Y-62556540D01*
X149472530Y-76056540D02*
X162472530Y-76056540D01*
X148972530Y-62556540D02*
X148972530Y-75556540D01*
X162472530Y-62056540D02*
X149472530Y-62056540D01*
X162972530Y-75556540D02*
G75*
G02*
X162472530Y-76056540I-500000J0D01*
G01*
X149472530Y-76056540D02*
G75*
G02*
X148972530Y-75556540I0J500000D01*
G01*
X148972530Y-62556540D02*
G75*
G02*
X149472530Y-62056540I500000J0D01*
G01*
X162472530Y-62056540D02*
G75*
G02*
X162972530Y-62556540I0J-500000D01*
G01*
X372523410Y-56506460D02*
X372523410Y-43506460D01*
X359023410Y-57006460D02*
X372023410Y-57006460D01*
X358523410Y-43506460D02*
X358523410Y-56506460D01*
X372023410Y-43006460D02*
X359023410Y-43006460D01*
X372523410Y-56506460D02*
G75*
G02*
X372023410Y-57006460I-500000J0D01*
G01*
X359023410Y-57006460D02*
G75*
G02*
X358523410Y-56506460I0J500000D01*
G01*
X358523410Y-43506460D02*
G75*
G02*
X359023410Y-43006460I500000J0D01*
G01*
X372023410Y-43006460D02*
G75*
G02*
X372523410Y-43506460I0J-500000D01*
G01*
X353473330Y-56506460D02*
X353473330Y-43506460D01*
X339973330Y-57006460D02*
X352973330Y-57006460D01*
X339473330Y-43506460D02*
X339473330Y-56506460D01*
X352973330Y-43006460D02*
X339973330Y-43006460D01*
X353473330Y-56506460D02*
G75*
G02*
X352973330Y-57006460I-500000J0D01*
G01*
X339973330Y-57006460D02*
G75*
G02*
X339473330Y-56506460I0J500000D01*
G01*
X339473330Y-43506460D02*
G75*
G02*
X339973330Y-43006460I500000J0D01*
G01*
X352973330Y-43006460D02*
G75*
G02*
X353473330Y-43506460I0J-500000D01*
G01*
X334423250Y-56506460D02*
X334423250Y-43506460D01*
X320923250Y-57006460D02*
X333923250Y-57006460D01*
X320423250Y-43506460D02*
X320423250Y-56506460D01*
X333923250Y-43006460D02*
X320923250Y-43006460D01*
X334423250Y-56506460D02*
G75*
G02*
X333923250Y-57006460I-500000J0D01*
G01*
X320923250Y-57006460D02*
G75*
G02*
X320423250Y-56506460I0J500000D01*
G01*
X320423250Y-43506460D02*
G75*
G02*
X320923250Y-43006460I500000J0D01*
G01*
X333923250Y-43006460D02*
G75*
G02*
X334423250Y-43506460I0J-500000D01*
G01*
X315373170Y-56506460D02*
X315373170Y-43506460D01*
X301873170Y-57006460D02*
X314873170Y-57006460D01*
X301373170Y-43506460D02*
X301373170Y-56506460D01*
X314873170Y-43006460D02*
X301873170Y-43006460D01*
X315373170Y-56506460D02*
G75*
G02*
X314873170Y-57006460I-500000J0D01*
G01*
X301873170Y-57006460D02*
G75*
G02*
X301373170Y-56506460I0J500000D01*
G01*
X301373170Y-43506460D02*
G75*
G02*
X301873170Y-43006460I500000J0D01*
G01*
X314873170Y-43006460D02*
G75*
G02*
X315373170Y-43506460I0J-500000D01*
G01*
X296323090Y-56506460D02*
X296323090Y-43506460D01*
X282823090Y-57006460D02*
X295823090Y-57006460D01*
X282323090Y-43506460D02*
X282323090Y-56506460D01*
X295823090Y-43006460D02*
X282823090Y-43006460D01*
X296323090Y-56506460D02*
G75*
G02*
X295823090Y-57006460I-500000J0D01*
G01*
X282823090Y-57006460D02*
G75*
G02*
X282323090Y-56506460I0J500000D01*
G01*
X282323090Y-43506460D02*
G75*
G02*
X282823090Y-43006460I500000J0D01*
G01*
X295823090Y-43006460D02*
G75*
G02*
X296323090Y-43506460I0J-500000D01*
G01*
X277273010Y-56506460D02*
X277273010Y-43506460D01*
X263773010Y-57006460D02*
X276773010Y-57006460D01*
X263273010Y-43506460D02*
X263273010Y-56506460D01*
X276773010Y-43006460D02*
X263773010Y-43006460D01*
X277273010Y-56506460D02*
G75*
G02*
X276773010Y-57006460I-500000J0D01*
G01*
X263773010Y-57006460D02*
G75*
G02*
X263273010Y-56506460I0J500000D01*
G01*
X263273010Y-43506460D02*
G75*
G02*
X263773010Y-43006460I500000J0D01*
G01*
X276773010Y-43006460D02*
G75*
G02*
X277273010Y-43506460I0J-500000D01*
G01*
X258222930Y-56506460D02*
X258222930Y-43506460D01*
X244722930Y-57006460D02*
X257722930Y-57006460D01*
X244222930Y-43506460D02*
X244222930Y-56506460D01*
X257722930Y-43006460D02*
X244722930Y-43006460D01*
X258222930Y-56506460D02*
G75*
G02*
X257722930Y-57006460I-500000J0D01*
G01*
X244722930Y-57006460D02*
G75*
G02*
X244222930Y-56506460I0J500000D01*
G01*
X244222930Y-43506460D02*
G75*
G02*
X244722930Y-43006460I500000J0D01*
G01*
X257722930Y-43006460D02*
G75*
G02*
X258222930Y-43506460I0J-500000D01*
G01*
X239172850Y-56506460D02*
X239172850Y-43506460D01*
X225672850Y-57006460D02*
X238672850Y-57006460D01*
X225172850Y-43506460D02*
X225172850Y-56506460D01*
X238672850Y-43006460D02*
X225672850Y-43006460D01*
X239172850Y-56506460D02*
G75*
G02*
X238672850Y-57006460I-500000J0D01*
G01*
X225672850Y-57006460D02*
G75*
G02*
X225172850Y-56506460I0J500000D01*
G01*
X225172850Y-43506460D02*
G75*
G02*
X225672850Y-43006460I500000J0D01*
G01*
X238672850Y-43006460D02*
G75*
G02*
X239172850Y-43506460I0J-500000D01*
G01*
X220122770Y-56506460D02*
X220122770Y-43506460D01*
X206622770Y-57006460D02*
X219622770Y-57006460D01*
X206122770Y-43506460D02*
X206122770Y-56506460D01*
X219622770Y-43006460D02*
X206622770Y-43006460D01*
X220122770Y-56506460D02*
G75*
G02*
X219622770Y-57006460I-500000J0D01*
G01*
X206622770Y-57006460D02*
G75*
G02*
X206122770Y-56506460I0J500000D01*
G01*
X206122770Y-43506460D02*
G75*
G02*
X206622770Y-43006460I500000J0D01*
G01*
X219622770Y-43006460D02*
G75*
G02*
X220122770Y-43506460I0J-500000D01*
G01*
X201072690Y-56506460D02*
X201072690Y-43506460D01*
X187572690Y-57006460D02*
X200572690Y-57006460D01*
X187072690Y-43506460D02*
X187072690Y-56506460D01*
X200572690Y-43006460D02*
X187572690Y-43006460D01*
X201072690Y-56506460D02*
G75*
G02*
X200572690Y-57006460I-500000J0D01*
G01*
X187572690Y-57006460D02*
G75*
G02*
X187072690Y-56506460I0J500000D01*
G01*
X187072690Y-43506460D02*
G75*
G02*
X187572690Y-43006460I500000J0D01*
G01*
X200572690Y-43006460D02*
G75*
G02*
X201072690Y-43506460I0J-500000D01*
G01*
X182022610Y-56506460D02*
X182022610Y-43506460D01*
X168522610Y-57006460D02*
X181522610Y-57006460D01*
X168022610Y-43506460D02*
X168022610Y-56506460D01*
X181522610Y-43006460D02*
X168522610Y-43006460D01*
X182022610Y-56506460D02*
G75*
G02*
X181522610Y-57006460I-500000J0D01*
G01*
X168522610Y-57006460D02*
G75*
G02*
X168022610Y-56506460I0J500000D01*
G01*
X168022610Y-43506460D02*
G75*
G02*
X168522610Y-43006460I500000J0D01*
G01*
X181522610Y-43006460D02*
G75*
G02*
X182022610Y-43506460I0J-500000D01*
G01*
X162972530Y-56506460D02*
X162972530Y-43506460D01*
X149472530Y-57006460D02*
X162472530Y-57006460D01*
X148972530Y-43506460D02*
X148972530Y-56506460D01*
X162472530Y-43006460D02*
X149472530Y-43006460D01*
X162972530Y-56506460D02*
G75*
G02*
X162472530Y-57006460I-500000J0D01*
G01*
X149472530Y-57006460D02*
G75*
G02*
X148972530Y-56506460I0J500000D01*
G01*
X148972530Y-43506460D02*
G75*
G02*
X149472530Y-43006460I500000J0D01*
G01*
X162472530Y-43006460D02*
G75*
G02*
X162972530Y-43506460I0J-500000D01*
G01*
M02*
