G04 #@! TF.GenerationSoftware,KiCad,Pcbnew,(5.1.4-0)*
G04 #@! TF.CreationDate,2021-11-01T11:23:39-05:00*
G04 #@! TF.ProjectId,top_plate,746f705f-706c-4617-9465-2e6b69636164,rev?*
G04 #@! TF.SameCoordinates,Original*
G04 #@! TF.FileFunction,Soldermask,Bot*
G04 #@! TF.FilePolarity,Negative*
%FSLAX46Y46*%
G04 Gerber Fmt 4.6, Leading zero omitted, Abs format (unit mm)*
G04 Created by KiCad (PCBNEW (5.1.4-0)) date 2021-11-01 11:23:39*
%MOMM*%
%LPD*%
G04 APERTURE LIST*
%ADD10C,2.000000*%
%ADD11C,3.500000*%
%ADD12C,0.100000*%
%ADD13C,0.950000*%
G04 APERTURE END LIST*
D10*
X396336010Y-113156700D02*
G75*
G02X395336010Y-114156700I-1000000J0D01*
G01*
X383336010Y-114156700D02*
G75*
G02X382336010Y-113156700I0J1000000D01*
G01*
X382336010Y-101156700D02*
G75*
G02X383336010Y-100156700I1000000J0D01*
G01*
X395336010Y-100156700D02*
G75*
G02X396336010Y-101156700I0J-1000000D01*
G01*
X396336010Y-113156700D02*
X396336010Y-101156700D01*
X395336010Y-114156700D02*
X383336010Y-114156700D01*
X382336010Y-113156700D02*
X382336010Y-101156700D01*
X395336010Y-100156700D02*
X383336010Y-100156700D01*
X396335890Y-94106428D02*
G75*
G02X395335890Y-95106428I-1000000J0D01*
G01*
X383335890Y-95106428D02*
G75*
G02X382335890Y-94106428I0J1000000D01*
G01*
X382335890Y-82106428D02*
G75*
G02X383335890Y-81106428I1000000J0D01*
G01*
X395335890Y-81106428D02*
G75*
G02X396335890Y-82106428I0J-1000000D01*
G01*
X396335890Y-94106428D02*
X396335890Y-82106428D01*
X395335890Y-95106428D02*
X383335890Y-95106428D01*
X382335890Y-94106428D02*
X382335890Y-82106428D01*
X395335890Y-81106428D02*
X383335890Y-81106428D01*
X396335890Y-75056444D02*
G75*
G02X395335890Y-76056444I-1000000J0D01*
G01*
X383335890Y-76056444D02*
G75*
G02X382335890Y-75056444I0J1000000D01*
G01*
X382335890Y-63056444D02*
G75*
G02X383335890Y-62056444I1000000J0D01*
G01*
X395335890Y-62056444D02*
G75*
G02X396335890Y-63056444I0J-1000000D01*
G01*
X396335890Y-75056444D02*
X396335890Y-63056444D01*
X395335890Y-76056444D02*
X383335890Y-76056444D01*
X382335890Y-75056444D02*
X382335890Y-63056444D01*
X395335890Y-62056444D02*
X383335890Y-62056444D01*
X372523410Y-113156700D02*
G75*
G02X371523410Y-114156700I-1000000J0D01*
G01*
X359523410Y-114156700D02*
G75*
G02X358523410Y-113156700I0J1000000D01*
G01*
X358523410Y-101156700D02*
G75*
G02X359523410Y-100156700I1000000J0D01*
G01*
X371523410Y-100156700D02*
G75*
G02X372523410Y-101156700I0J-1000000D01*
G01*
X372523410Y-113156700D02*
X372523410Y-101156700D01*
X371523410Y-114156700D02*
X359523410Y-114156700D01*
X358523410Y-113156700D02*
X358523410Y-101156700D01*
X371523410Y-100156700D02*
X359523410Y-100156700D01*
X353473330Y-113160000D02*
G75*
G02X352473330Y-114160000I-1000000J0D01*
G01*
X340473330Y-114160000D02*
G75*
G02X339473330Y-113160000I0J1000000D01*
G01*
X339473330Y-101160000D02*
G75*
G02X340473330Y-100160000I1000000J0D01*
G01*
X352473330Y-100160000D02*
G75*
G02X353473330Y-101160000I0J-1000000D01*
G01*
X353473330Y-113160000D02*
X353473330Y-101160000D01*
X352473330Y-114160000D02*
X340473330Y-114160000D01*
X339473330Y-113160000D02*
X339473330Y-101160000D01*
X352473330Y-100160000D02*
X340473330Y-100160000D01*
X334423250Y-113156700D02*
G75*
G02X333423250Y-114156700I-1000000J0D01*
G01*
X321423250Y-114156700D02*
G75*
G02X320423250Y-113156700I0J1000000D01*
G01*
X320423250Y-101156700D02*
G75*
G02X321423250Y-100156700I1000000J0D01*
G01*
X333423250Y-100156700D02*
G75*
G02X334423250Y-101156700I0J-1000000D01*
G01*
X334423250Y-113156700D02*
X334423250Y-101156700D01*
X333423250Y-114156700D02*
X321423250Y-114156700D01*
X320423250Y-113156700D02*
X320423250Y-101156700D01*
X333423250Y-100156700D02*
X321423250Y-100156700D01*
X315373170Y-113156700D02*
G75*
G02X314373170Y-114156700I-1000000J0D01*
G01*
X302373170Y-114156700D02*
G75*
G02X301373170Y-113156700I0J1000000D01*
G01*
X301373170Y-101156700D02*
G75*
G02X302373170Y-100156700I1000000J0D01*
G01*
X314373170Y-100156700D02*
G75*
G02X315373170Y-101156700I0J-1000000D01*
G01*
X315373170Y-113156700D02*
X315373170Y-101156700D01*
X314373170Y-114156700D02*
X302373170Y-114156700D01*
X301373170Y-113156700D02*
X301373170Y-101156700D01*
X314373170Y-100156700D02*
X302373170Y-100156700D01*
X296323090Y-113156700D02*
G75*
G02X295323090Y-114156700I-1000000J0D01*
G01*
X283323090Y-114156700D02*
G75*
G02X282323090Y-113156700I0J1000000D01*
G01*
X282323090Y-101156700D02*
G75*
G02X283323090Y-100156700I1000000J0D01*
G01*
X295323090Y-100156700D02*
G75*
G02X296323090Y-101156700I0J-1000000D01*
G01*
X296323090Y-113156700D02*
X296323090Y-101156700D01*
X295323090Y-114156700D02*
X283323090Y-114156700D01*
X282323090Y-113156700D02*
X282323090Y-101156700D01*
X295323090Y-100156700D02*
X283323090Y-100156700D01*
X277273010Y-113156700D02*
G75*
G02X276273010Y-114156700I-1000000J0D01*
G01*
X264273010Y-114156700D02*
G75*
G02X263273010Y-113156700I0J1000000D01*
G01*
X263273010Y-101156700D02*
G75*
G02X264273010Y-100156700I1000000J0D01*
G01*
X276273010Y-100156700D02*
G75*
G02X277273010Y-101156700I0J-1000000D01*
G01*
X277273010Y-113156700D02*
X277273010Y-101156700D01*
X276273010Y-114156700D02*
X264273010Y-114156700D01*
X263273010Y-113156700D02*
X263273010Y-101156700D01*
X276273010Y-100156700D02*
X264273010Y-100156700D01*
X258222930Y-113156700D02*
G75*
G02X257222930Y-114156700I-1000000J0D01*
G01*
X245222930Y-114156700D02*
G75*
G02X244222930Y-113156700I0J1000000D01*
G01*
X244222930Y-101156700D02*
G75*
G02X245222930Y-100156700I1000000J0D01*
G01*
X257222930Y-100156700D02*
G75*
G02X258222930Y-101156700I0J-1000000D01*
G01*
X258222930Y-113156700D02*
X258222930Y-101156700D01*
X257222930Y-114156700D02*
X245222930Y-114156700D01*
X244222930Y-113156700D02*
X244222930Y-101156700D01*
X257222930Y-100156700D02*
X245222930Y-100156700D01*
X239172850Y-113156700D02*
G75*
G02X238172850Y-114156700I-1000000J0D01*
G01*
X226172850Y-114156700D02*
G75*
G02X225172850Y-113156700I0J1000000D01*
G01*
X225172850Y-101156700D02*
G75*
G02X226172850Y-100156700I1000000J0D01*
G01*
X238172850Y-100156700D02*
G75*
G02X239172850Y-101156700I0J-1000000D01*
G01*
X239172850Y-113156700D02*
X239172850Y-101156700D01*
X238172850Y-114156700D02*
X226172850Y-114156700D01*
X225172850Y-113156700D02*
X225172850Y-101156700D01*
X238172850Y-100156700D02*
X226172850Y-100156700D01*
X220122770Y-113156700D02*
G75*
G02X219122770Y-114156700I-1000000J0D01*
G01*
X207122770Y-114156700D02*
G75*
G02X206122770Y-113156700I0J1000000D01*
G01*
X206122770Y-101156700D02*
G75*
G02X207122770Y-100156700I1000000J0D01*
G01*
X219122770Y-100156700D02*
G75*
G02X220122770Y-101156700I0J-1000000D01*
G01*
X220122770Y-113156700D02*
X220122770Y-101156700D01*
X219122770Y-114156700D02*
X207122770Y-114156700D01*
X206122770Y-113156700D02*
X206122770Y-101156700D01*
X219122770Y-100156700D02*
X207122770Y-100156700D01*
X201072690Y-113156700D02*
G75*
G02X200072690Y-114156700I-1000000J0D01*
G01*
X188072690Y-114156700D02*
G75*
G02X187072690Y-113156700I0J1000000D01*
G01*
X187072690Y-101156700D02*
G75*
G02X188072690Y-100156700I1000000J0D01*
G01*
X200072690Y-100156700D02*
G75*
G02X201072690Y-101156700I0J-1000000D01*
G01*
X201072690Y-113156700D02*
X201072690Y-101156700D01*
X200072690Y-114156700D02*
X188072690Y-114156700D01*
X187072690Y-113156700D02*
X187072690Y-101156700D01*
X200072690Y-100156700D02*
X188072690Y-100156700D01*
X182022610Y-113156700D02*
G75*
G02X181022610Y-114156700I-1000000J0D01*
G01*
X169022610Y-114156700D02*
G75*
G02X168022610Y-113156700I0J1000000D01*
G01*
X168022610Y-101156700D02*
G75*
G02X169022610Y-100156700I1000000J0D01*
G01*
X181022610Y-100156700D02*
G75*
G02X182022610Y-101156700I0J-1000000D01*
G01*
X182022610Y-113156700D02*
X182022610Y-101156700D01*
X181022610Y-114156700D02*
X169022610Y-114156700D01*
X168022610Y-113156700D02*
X168022610Y-101156700D01*
X181022610Y-100156700D02*
X169022610Y-100156700D01*
X162972530Y-113156700D02*
G75*
G02X161972530Y-114156700I-1000000J0D01*
G01*
X149972530Y-114156700D02*
G75*
G02X148972530Y-113156700I0J1000000D01*
G01*
X148972530Y-101156700D02*
G75*
G02X149972530Y-100156700I1000000J0D01*
G01*
X161972530Y-100156700D02*
G75*
G02X162972530Y-101156700I0J-1000000D01*
G01*
X162972530Y-113156700D02*
X162972530Y-101156700D01*
X161972530Y-114156700D02*
X149972530Y-114156700D01*
X148972530Y-113156700D02*
X148972530Y-101156700D01*
X161972530Y-100156700D02*
X149972530Y-100156700D01*
X372523410Y-94106620D02*
G75*
G02X371523410Y-95106620I-1000000J0D01*
G01*
X359523410Y-95106620D02*
G75*
G02X358523410Y-94106620I0J1000000D01*
G01*
X358523410Y-82106620D02*
G75*
G02X359523410Y-81106620I1000000J0D01*
G01*
X371523410Y-81106620D02*
G75*
G02X372523410Y-82106620I0J-1000000D01*
G01*
X372523410Y-94106620D02*
X372523410Y-82106620D01*
X371523410Y-95106620D02*
X359523410Y-95106620D01*
X358523410Y-94106620D02*
X358523410Y-82106620D01*
X371523410Y-81106620D02*
X359523410Y-81106620D01*
X353473330Y-94106620D02*
G75*
G02X352473330Y-95106620I-1000000J0D01*
G01*
X340473330Y-95106620D02*
G75*
G02X339473330Y-94106620I0J1000000D01*
G01*
X339473330Y-82106620D02*
G75*
G02X340473330Y-81106620I1000000J0D01*
G01*
X352473330Y-81106620D02*
G75*
G02X353473330Y-82106620I0J-1000000D01*
G01*
X353473330Y-94106620D02*
X353473330Y-82106620D01*
X352473330Y-95106620D02*
X340473330Y-95106620D01*
X339473330Y-94106620D02*
X339473330Y-82106620D01*
X352473330Y-81106620D02*
X340473330Y-81106620D01*
X334423250Y-94106620D02*
G75*
G02X333423250Y-95106620I-1000000J0D01*
G01*
X321423250Y-95106620D02*
G75*
G02X320423250Y-94106620I0J1000000D01*
G01*
X320423250Y-82106620D02*
G75*
G02X321423250Y-81106620I1000000J0D01*
G01*
X333423250Y-81106620D02*
G75*
G02X334423250Y-82106620I0J-1000000D01*
G01*
X334423250Y-94106620D02*
X334423250Y-82106620D01*
X333423250Y-95106620D02*
X321423250Y-95106620D01*
X320423250Y-94106620D02*
X320423250Y-82106620D01*
X333423250Y-81106620D02*
X321423250Y-81106620D01*
X315373170Y-94106620D02*
G75*
G02X314373170Y-95106620I-1000000J0D01*
G01*
X302373170Y-95106620D02*
G75*
G02X301373170Y-94106620I0J1000000D01*
G01*
X301373170Y-82106620D02*
G75*
G02X302373170Y-81106620I1000000J0D01*
G01*
X314373170Y-81106620D02*
G75*
G02X315373170Y-82106620I0J-1000000D01*
G01*
X315373170Y-94106620D02*
X315373170Y-82106620D01*
X314373170Y-95106620D02*
X302373170Y-95106620D01*
X301373170Y-94106620D02*
X301373170Y-82106620D01*
X314373170Y-81106620D02*
X302373170Y-81106620D01*
X296323090Y-94106620D02*
G75*
G02X295323090Y-95106620I-1000000J0D01*
G01*
X283323090Y-95106620D02*
G75*
G02X282323090Y-94106620I0J1000000D01*
G01*
X282323090Y-82106620D02*
G75*
G02X283323090Y-81106620I1000000J0D01*
G01*
X295323090Y-81106620D02*
G75*
G02X296323090Y-82106620I0J-1000000D01*
G01*
X296323090Y-94106620D02*
X296323090Y-82106620D01*
X295323090Y-95106620D02*
X283323090Y-95106620D01*
X282323090Y-94106620D02*
X282323090Y-82106620D01*
X295323090Y-81106620D02*
X283323090Y-81106620D01*
X277273010Y-94106620D02*
G75*
G02X276273010Y-95106620I-1000000J0D01*
G01*
X264273010Y-95106620D02*
G75*
G02X263273010Y-94106620I0J1000000D01*
G01*
X263273010Y-82106620D02*
G75*
G02X264273010Y-81106620I1000000J0D01*
G01*
X276273010Y-81106620D02*
G75*
G02X277273010Y-82106620I0J-1000000D01*
G01*
X277273010Y-94106620D02*
X277273010Y-82106620D01*
X276273010Y-95106620D02*
X264273010Y-95106620D01*
X263273010Y-94106620D02*
X263273010Y-82106620D01*
X276273010Y-81106620D02*
X264273010Y-81106620D01*
X258222930Y-94106620D02*
G75*
G02X257222930Y-95106620I-1000000J0D01*
G01*
X245222930Y-95106620D02*
G75*
G02X244222930Y-94106620I0J1000000D01*
G01*
X244222930Y-82106620D02*
G75*
G02X245222930Y-81106620I1000000J0D01*
G01*
X257222930Y-81106620D02*
G75*
G02X258222930Y-82106620I0J-1000000D01*
G01*
X258222930Y-94106620D02*
X258222930Y-82106620D01*
X257222930Y-95106620D02*
X245222930Y-95106620D01*
X244222930Y-94106620D02*
X244222930Y-82106620D01*
X257222930Y-81106620D02*
X245222930Y-81106620D01*
X239172850Y-94106620D02*
G75*
G02X238172850Y-95106620I-1000000J0D01*
G01*
X226172850Y-95106620D02*
G75*
G02X225172850Y-94106620I0J1000000D01*
G01*
X225172850Y-82106620D02*
G75*
G02X226172850Y-81106620I1000000J0D01*
G01*
X238172850Y-81106620D02*
G75*
G02X239172850Y-82106620I0J-1000000D01*
G01*
X239172850Y-94106620D02*
X239172850Y-82106620D01*
X238172850Y-95106620D02*
X226172850Y-95106620D01*
X225172850Y-94106620D02*
X225172850Y-82106620D01*
X238172850Y-81106620D02*
X226172850Y-81106620D01*
X220122770Y-94106620D02*
G75*
G02X219122770Y-95106620I-1000000J0D01*
G01*
X207122770Y-95106620D02*
G75*
G02X206122770Y-94106620I0J1000000D01*
G01*
X206122770Y-82106620D02*
G75*
G02X207122770Y-81106620I1000000J0D01*
G01*
X219122770Y-81106620D02*
G75*
G02X220122770Y-82106620I0J-1000000D01*
G01*
X220122770Y-94106620D02*
X220122770Y-82106620D01*
X219122770Y-95106620D02*
X207122770Y-95106620D01*
X206122770Y-94106620D02*
X206122770Y-82106620D01*
X219122770Y-81106620D02*
X207122770Y-81106620D01*
X201072690Y-94106620D02*
G75*
G02X200072690Y-95106620I-1000000J0D01*
G01*
X188072690Y-95106620D02*
G75*
G02X187072690Y-94106620I0J1000000D01*
G01*
X187072690Y-82106620D02*
G75*
G02X188072690Y-81106620I1000000J0D01*
G01*
X200072690Y-81106620D02*
G75*
G02X201072690Y-82106620I0J-1000000D01*
G01*
X201072690Y-94106620D02*
X201072690Y-82106620D01*
X200072690Y-95106620D02*
X188072690Y-95106620D01*
X187072690Y-94106620D02*
X187072690Y-82106620D01*
X200072690Y-81106620D02*
X188072690Y-81106620D01*
X182022610Y-94106620D02*
G75*
G02X181022610Y-95106620I-1000000J0D01*
G01*
X169022610Y-95106620D02*
G75*
G02X168022610Y-94106620I0J1000000D01*
G01*
X168022610Y-82106620D02*
G75*
G02X169022610Y-81106620I1000000J0D01*
G01*
X181022610Y-81106620D02*
G75*
G02X182022610Y-82106620I0J-1000000D01*
G01*
X182022610Y-94106620D02*
X182022610Y-82106620D01*
X181022610Y-95106620D02*
X169022610Y-95106620D01*
X168022610Y-94106620D02*
X168022610Y-82106620D01*
X181022610Y-81106620D02*
X169022610Y-81106620D01*
X162972530Y-94106620D02*
G75*
G02X161972530Y-95106620I-1000000J0D01*
G01*
X149972530Y-95106620D02*
G75*
G02X148972530Y-94106620I0J1000000D01*
G01*
X148972530Y-82106620D02*
G75*
G02X149972530Y-81106620I1000000J0D01*
G01*
X161972530Y-81106620D02*
G75*
G02X162972530Y-82106620I0J-1000000D01*
G01*
X162972530Y-94106620D02*
X162972530Y-82106620D01*
X161972530Y-95106620D02*
X149972530Y-95106620D01*
X148972530Y-94106620D02*
X148972530Y-82106620D01*
X161972530Y-81106620D02*
X149972530Y-81106620D01*
X372523410Y-75056540D02*
G75*
G02X371523410Y-76056540I-1000000J0D01*
G01*
X359523410Y-76056540D02*
G75*
G02X358523410Y-75056540I0J1000000D01*
G01*
X358523410Y-63056540D02*
G75*
G02X359523410Y-62056540I1000000J0D01*
G01*
X371523410Y-62056540D02*
G75*
G02X372523410Y-63056540I0J-1000000D01*
G01*
X372523410Y-75056540D02*
X372523410Y-63056540D01*
X371523410Y-76056540D02*
X359523410Y-76056540D01*
X358523410Y-75056540D02*
X358523410Y-63056540D01*
X371523410Y-62056540D02*
X359523410Y-62056540D01*
X353473330Y-75056540D02*
G75*
G02X352473330Y-76056540I-1000000J0D01*
G01*
X340473330Y-76056540D02*
G75*
G02X339473330Y-75056540I0J1000000D01*
G01*
X339473330Y-63056540D02*
G75*
G02X340473330Y-62056540I1000000J0D01*
G01*
X352473330Y-62056540D02*
G75*
G02X353473330Y-63056540I0J-1000000D01*
G01*
X353473330Y-75056540D02*
X353473330Y-63056540D01*
X352473330Y-76056540D02*
X340473330Y-76056540D01*
X339473330Y-75056540D02*
X339473330Y-63056540D01*
X352473330Y-62056540D02*
X340473330Y-62056540D01*
X334423250Y-75056540D02*
G75*
G02X333423250Y-76056540I-1000000J0D01*
G01*
X321423250Y-76056540D02*
G75*
G02X320423250Y-75056540I0J1000000D01*
G01*
X320423250Y-63056540D02*
G75*
G02X321423250Y-62056540I1000000J0D01*
G01*
X333423250Y-62056540D02*
G75*
G02X334423250Y-63056540I0J-1000000D01*
G01*
X334423250Y-75056540D02*
X334423250Y-63056540D01*
X333423250Y-76056540D02*
X321423250Y-76056540D01*
X320423250Y-75056540D02*
X320423250Y-63056540D01*
X333423250Y-62056540D02*
X321423250Y-62056540D01*
X315373170Y-75056540D02*
G75*
G02X314373170Y-76056540I-1000000J0D01*
G01*
X302373170Y-76056540D02*
G75*
G02X301373170Y-75056540I0J1000000D01*
G01*
X301373170Y-63056540D02*
G75*
G02X302373170Y-62056540I1000000J0D01*
G01*
X314373170Y-62056540D02*
G75*
G02X315373170Y-63056540I0J-1000000D01*
G01*
X315373170Y-75056540D02*
X315373170Y-63056540D01*
X314373170Y-76056540D02*
X302373170Y-76056540D01*
X301373170Y-75056540D02*
X301373170Y-63056540D01*
X314373170Y-62056540D02*
X302373170Y-62056540D01*
X296323090Y-75056540D02*
G75*
G02X295323090Y-76056540I-1000000J0D01*
G01*
X283323090Y-76056540D02*
G75*
G02X282323090Y-75056540I0J1000000D01*
G01*
X282323090Y-63056540D02*
G75*
G02X283323090Y-62056540I1000000J0D01*
G01*
X295323090Y-62056540D02*
G75*
G02X296323090Y-63056540I0J-1000000D01*
G01*
X296323090Y-75056540D02*
X296323090Y-63056540D01*
X295323090Y-76056540D02*
X283323090Y-76056540D01*
X282323090Y-75056540D02*
X282323090Y-63056540D01*
X295323090Y-62056540D02*
X283323090Y-62056540D01*
X277273010Y-75056540D02*
G75*
G02X276273010Y-76056540I-1000000J0D01*
G01*
X264273010Y-76056540D02*
G75*
G02X263273010Y-75056540I0J1000000D01*
G01*
X263273010Y-63056540D02*
G75*
G02X264273010Y-62056540I1000000J0D01*
G01*
X276273010Y-62056540D02*
G75*
G02X277273010Y-63056540I0J-1000000D01*
G01*
X277273010Y-75056540D02*
X277273010Y-63056540D01*
X276273010Y-76056540D02*
X264273010Y-76056540D01*
X263273010Y-75056540D02*
X263273010Y-63056540D01*
X276273010Y-62056540D02*
X264273010Y-62056540D01*
X258222930Y-75056540D02*
G75*
G02X257222930Y-76056540I-1000000J0D01*
G01*
X245222930Y-76056540D02*
G75*
G02X244222930Y-75056540I0J1000000D01*
G01*
X244222930Y-63056540D02*
G75*
G02X245222930Y-62056540I1000000J0D01*
G01*
X257222930Y-62056540D02*
G75*
G02X258222930Y-63056540I0J-1000000D01*
G01*
X258222930Y-75056540D02*
X258222930Y-63056540D01*
X257222930Y-76056540D02*
X245222930Y-76056540D01*
X244222930Y-75056540D02*
X244222930Y-63056540D01*
X257222930Y-62056540D02*
X245222930Y-62056540D01*
X239172850Y-75056540D02*
G75*
G02X238172850Y-76056540I-1000000J0D01*
G01*
X226172850Y-76056540D02*
G75*
G02X225172850Y-75056540I0J1000000D01*
G01*
X225172850Y-63056540D02*
G75*
G02X226172850Y-62056540I1000000J0D01*
G01*
X238172850Y-62056540D02*
G75*
G02X239172850Y-63056540I0J-1000000D01*
G01*
X239172850Y-75056540D02*
X239172850Y-63056540D01*
X238172850Y-76056540D02*
X226172850Y-76056540D01*
X225172850Y-75056540D02*
X225172850Y-63056540D01*
X238172850Y-62056540D02*
X226172850Y-62056540D01*
X220122770Y-75056540D02*
G75*
G02X219122770Y-76056540I-1000000J0D01*
G01*
X207122770Y-76056540D02*
G75*
G02X206122770Y-75056540I0J1000000D01*
G01*
X206122770Y-63056540D02*
G75*
G02X207122770Y-62056540I1000000J0D01*
G01*
X219122770Y-62056540D02*
G75*
G02X220122770Y-63056540I0J-1000000D01*
G01*
X220122770Y-75056540D02*
X220122770Y-63056540D01*
X219122770Y-76056540D02*
X207122770Y-76056540D01*
X206122770Y-75056540D02*
X206122770Y-63056540D01*
X219122770Y-62056540D02*
X207122770Y-62056540D01*
X201072690Y-75056540D02*
G75*
G02X200072690Y-76056540I-1000000J0D01*
G01*
X188072690Y-76056540D02*
G75*
G02X187072690Y-75056540I0J1000000D01*
G01*
X187072690Y-63056540D02*
G75*
G02X188072690Y-62056540I1000000J0D01*
G01*
X200072690Y-62056540D02*
G75*
G02X201072690Y-63056540I0J-1000000D01*
G01*
X201072690Y-75056540D02*
X201072690Y-63056540D01*
X200072690Y-76056540D02*
X188072690Y-76056540D01*
X187072690Y-75056540D02*
X187072690Y-63056540D01*
X200072690Y-62056540D02*
X188072690Y-62056540D01*
X182022610Y-75056540D02*
G75*
G02X181022610Y-76056540I-1000000J0D01*
G01*
X169022610Y-76056540D02*
G75*
G02X168022610Y-75056540I0J1000000D01*
G01*
X168022610Y-63056540D02*
G75*
G02X169022610Y-62056540I1000000J0D01*
G01*
X181022610Y-62056540D02*
G75*
G02X182022610Y-63056540I0J-1000000D01*
G01*
X182022610Y-75056540D02*
X182022610Y-63056540D01*
X181022610Y-76056540D02*
X169022610Y-76056540D01*
X168022610Y-75056540D02*
X168022610Y-63056540D01*
X181022610Y-62056540D02*
X169022610Y-62056540D01*
X162972530Y-75056540D02*
G75*
G02X161972530Y-76056540I-1000000J0D01*
G01*
X149972530Y-76056540D02*
G75*
G02X148972530Y-75056540I0J1000000D01*
G01*
X148972530Y-63056540D02*
G75*
G02X149972530Y-62056540I1000000J0D01*
G01*
X161972530Y-62056540D02*
G75*
G02X162972530Y-63056540I0J-1000000D01*
G01*
X162972530Y-75056540D02*
X162972530Y-63056540D01*
X161972530Y-76056540D02*
X149972530Y-76056540D01*
X148972530Y-75056540D02*
X148972530Y-63056540D01*
X161972530Y-62056540D02*
X149972530Y-62056540D01*
X372523410Y-56006460D02*
G75*
G02X371523410Y-57006460I-1000000J0D01*
G01*
X359523410Y-57006460D02*
G75*
G02X358523410Y-56006460I0J1000000D01*
G01*
X358523410Y-44006460D02*
G75*
G02X359523410Y-43006460I1000000J0D01*
G01*
X371523410Y-43006460D02*
G75*
G02X372523410Y-44006460I0J-1000000D01*
G01*
X372523410Y-56006460D02*
X372523410Y-44006460D01*
X371523410Y-57006460D02*
X359523410Y-57006460D01*
X358523410Y-56006460D02*
X358523410Y-44006460D01*
X371523410Y-43006460D02*
X359523410Y-43006460D01*
X353473330Y-56006460D02*
G75*
G02X352473330Y-57006460I-1000000J0D01*
G01*
X340473330Y-57006460D02*
G75*
G02X339473330Y-56006460I0J1000000D01*
G01*
X339473330Y-44006460D02*
G75*
G02X340473330Y-43006460I1000000J0D01*
G01*
X352473330Y-43006460D02*
G75*
G02X353473330Y-44006460I0J-1000000D01*
G01*
X353473330Y-56006460D02*
X353473330Y-44006460D01*
X352473330Y-57006460D02*
X340473330Y-57006460D01*
X339473330Y-56006460D02*
X339473330Y-44006460D01*
X352473330Y-43006460D02*
X340473330Y-43006460D01*
X334423250Y-56006460D02*
G75*
G02X333423250Y-57006460I-1000000J0D01*
G01*
X321423250Y-57006460D02*
G75*
G02X320423250Y-56006460I0J1000000D01*
G01*
X320423250Y-44006460D02*
G75*
G02X321423250Y-43006460I1000000J0D01*
G01*
X333423250Y-43006460D02*
G75*
G02X334423250Y-44006460I0J-1000000D01*
G01*
X334423250Y-56006460D02*
X334423250Y-44006460D01*
X333423250Y-57006460D02*
X321423250Y-57006460D01*
X320423250Y-56006460D02*
X320423250Y-44006460D01*
X333423250Y-43006460D02*
X321423250Y-43006460D01*
X315373362Y-56006460D02*
G75*
G02X314373362Y-57006460I-1000000J0D01*
G01*
X302373362Y-57006460D02*
G75*
G02X301373362Y-56006460I0J1000000D01*
G01*
X301373362Y-44006460D02*
G75*
G02X302373362Y-43006460I1000000J0D01*
G01*
X314373362Y-43006460D02*
G75*
G02X315373362Y-44006460I0J-1000000D01*
G01*
X315373362Y-56006460D02*
X315373362Y-44006460D01*
X314373362Y-57006460D02*
X302373362Y-57006460D01*
X301373362Y-56006460D02*
X301373362Y-44006460D01*
X314373362Y-43006460D02*
X302373362Y-43006460D01*
X296323346Y-56006460D02*
G75*
G02X295323346Y-57006460I-1000000J0D01*
G01*
X283323346Y-57006460D02*
G75*
G02X282323346Y-56006460I0J1000000D01*
G01*
X282323346Y-44006460D02*
G75*
G02X283323346Y-43006460I1000000J0D01*
G01*
X295323346Y-43006460D02*
G75*
G02X296323346Y-44006460I0J-1000000D01*
G01*
X296323346Y-56006460D02*
X296323346Y-44006460D01*
X295323346Y-57006460D02*
X283323346Y-57006460D01*
X282323346Y-56006460D02*
X282323346Y-44006460D01*
X295323346Y-43006460D02*
X283323346Y-43006460D01*
X277273330Y-56006460D02*
G75*
G02X276273330Y-57006460I-1000000J0D01*
G01*
X264273330Y-57006460D02*
G75*
G02X263273330Y-56006460I0J1000000D01*
G01*
X263273330Y-44006460D02*
G75*
G02X264273330Y-43006460I1000000J0D01*
G01*
X276273330Y-43006460D02*
G75*
G02X277273330Y-44006460I0J-1000000D01*
G01*
X277273330Y-56006460D02*
X277273330Y-44006460D01*
X276273330Y-57006460D02*
X264273330Y-57006460D01*
X263273330Y-56006460D02*
X263273330Y-44006460D01*
X276273330Y-43006460D02*
X264273330Y-43006460D01*
X258223314Y-56006460D02*
G75*
G02X257223314Y-57006460I-1000000J0D01*
G01*
X245223314Y-57006460D02*
G75*
G02X244223314Y-56006460I0J1000000D01*
G01*
X244223314Y-44006460D02*
G75*
G02X245223314Y-43006460I1000000J0D01*
G01*
X257223314Y-43006460D02*
G75*
G02X258223314Y-44006460I0J-1000000D01*
G01*
X258223314Y-56006460D02*
X258223314Y-44006460D01*
X257223314Y-57006460D02*
X245223314Y-57006460D01*
X244223314Y-56006460D02*
X244223314Y-44006460D01*
X257223314Y-43006460D02*
X245223314Y-43006460D01*
X239172850Y-56006460D02*
G75*
G02X238172850Y-57006460I-1000000J0D01*
G01*
X226172850Y-57006460D02*
G75*
G02X225172850Y-56006460I0J1000000D01*
G01*
X225172850Y-44006460D02*
G75*
G02X226172850Y-43006460I1000000J0D01*
G01*
X238172850Y-43006460D02*
G75*
G02X239172850Y-44006460I0J-1000000D01*
G01*
X239172850Y-56006460D02*
X239172850Y-44006460D01*
X238172850Y-57006460D02*
X226172850Y-57006460D01*
X225172850Y-56006460D02*
X225172850Y-44006460D01*
X238172850Y-43006460D02*
X226172850Y-43006460D01*
X220122770Y-56006460D02*
G75*
G02X219122770Y-57006460I-1000000J0D01*
G01*
X207122770Y-57006460D02*
G75*
G02X206122770Y-56006460I0J1000000D01*
G01*
X206122770Y-44006460D02*
G75*
G02X207122770Y-43006460I1000000J0D01*
G01*
X219122770Y-43006460D02*
G75*
G02X220122770Y-44006460I0J-1000000D01*
G01*
X220122770Y-56006460D02*
X220122770Y-44006460D01*
X219122770Y-57006460D02*
X207122770Y-57006460D01*
X206122770Y-56006460D02*
X206122770Y-44006460D01*
X219122770Y-43006460D02*
X207122770Y-43006460D01*
X201072690Y-56006460D02*
G75*
G02X200072690Y-57006460I-1000000J0D01*
G01*
X188072690Y-57006460D02*
G75*
G02X187072690Y-56006460I0J1000000D01*
G01*
X187072690Y-44006460D02*
G75*
G02X188072690Y-43006460I1000000J0D01*
G01*
X200072690Y-43006460D02*
G75*
G02X201072690Y-44006460I0J-1000000D01*
G01*
X201072690Y-56006460D02*
X201072690Y-44006460D01*
X200072690Y-57006460D02*
X188072690Y-57006460D01*
X187072690Y-56006460D02*
X187072690Y-44006460D01*
X200072690Y-43006460D02*
X188072690Y-43006460D01*
X182022610Y-56006460D02*
G75*
G02X181022610Y-57006460I-1000000J0D01*
G01*
X169022610Y-57006460D02*
G75*
G02X168022610Y-56006460I0J1000000D01*
G01*
X168022610Y-44006460D02*
G75*
G02X169022610Y-43006460I1000000J0D01*
G01*
X181022610Y-43006460D02*
G75*
G02X182022610Y-44006460I0J-1000000D01*
G01*
X182022610Y-56006460D02*
X182022610Y-44006460D01*
X181022610Y-57006460D02*
X169022610Y-57006460D01*
X168022610Y-56006460D02*
X168022610Y-44006460D01*
X181022610Y-43006460D02*
X169022610Y-43006460D01*
X162972530Y-56006460D02*
G75*
G02X161972530Y-57006460I-1000000J0D01*
G01*
X149972530Y-57006460D02*
G75*
G02X148972530Y-56006460I0J1000000D01*
G01*
X148972530Y-44006460D02*
G75*
G02X149972530Y-43006460I1000000J0D01*
G01*
X161972530Y-43006460D02*
G75*
G02X162972530Y-44006460I0J-1000000D01*
G01*
X162972530Y-56006460D02*
X162972530Y-44006460D01*
X161972530Y-57006460D02*
X149972530Y-57006460D01*
X148972530Y-56006460D02*
X148972530Y-44006460D01*
X161972530Y-43006460D02*
X149972530Y-43006460D01*
X383436010Y-58106460D02*
G75*
G02X382436010Y-57106460I0J1000000D01*
G01*
X382436010Y-43106460D02*
G75*
G02X383436010Y-42106460I1000000J0D01*
G01*
X395436010Y-42106460D02*
G75*
G02X396436010Y-43106460I0J-1000000D01*
G01*
X396436010Y-57106460D02*
G75*
G02X395436010Y-58106460I-1000000J0D01*
G01*
X383436010Y-58106460D02*
X395436010Y-58106460D01*
X382436010Y-57106460D02*
X382436010Y-43106460D01*
X383436010Y-42106460D02*
X395436010Y-42106460D01*
X396436010Y-57106460D02*
X396436010Y-43106460D01*
D11*
X389335890Y-118467340D03*
D12*
G36*
X377690449Y-50357604D02*
G01*
X377713504Y-50361023D01*
X377736113Y-50366687D01*
X377758057Y-50374539D01*
X377779127Y-50384504D01*
X377799118Y-50396486D01*
X377817838Y-50410370D01*
X377835108Y-50426022D01*
X377850760Y-50443292D01*
X377864644Y-50462012D01*
X377876626Y-50482003D01*
X377886591Y-50503073D01*
X377894443Y-50525017D01*
X377900107Y-50547626D01*
X377903526Y-50570681D01*
X377904670Y-50593960D01*
X377904670Y-51168960D01*
X377903526Y-51192239D01*
X377900107Y-51215294D01*
X377894443Y-51237903D01*
X377886591Y-51259847D01*
X377876626Y-51280917D01*
X377864644Y-51300908D01*
X377850760Y-51319628D01*
X377835108Y-51336898D01*
X377817838Y-51352550D01*
X377799118Y-51366434D01*
X377779127Y-51378416D01*
X377758057Y-51388381D01*
X377736113Y-51396233D01*
X377713504Y-51401897D01*
X377690449Y-51405316D01*
X377667170Y-51406460D01*
X377192170Y-51406460D01*
X377168891Y-51405316D01*
X377145836Y-51401897D01*
X377123227Y-51396233D01*
X377101283Y-51388381D01*
X377080213Y-51378416D01*
X377060222Y-51366434D01*
X377041502Y-51352550D01*
X377024232Y-51336898D01*
X377008580Y-51319628D01*
X376994696Y-51300908D01*
X376982714Y-51280917D01*
X376972749Y-51259847D01*
X376964897Y-51237903D01*
X376959233Y-51215294D01*
X376955814Y-51192239D01*
X376954670Y-51168960D01*
X376954670Y-50593960D01*
X376955814Y-50570681D01*
X376959233Y-50547626D01*
X376964897Y-50525017D01*
X376972749Y-50503073D01*
X376982714Y-50482003D01*
X376994696Y-50462012D01*
X377008580Y-50443292D01*
X377024232Y-50426022D01*
X377041502Y-50410370D01*
X377060222Y-50396486D01*
X377080213Y-50384504D01*
X377101283Y-50374539D01*
X377123227Y-50366687D01*
X377145836Y-50361023D01*
X377168891Y-50357604D01*
X377192170Y-50356460D01*
X377667170Y-50356460D01*
X377690449Y-50357604D01*
X377690449Y-50357604D01*
G37*
D13*
X377429670Y-50881460D03*
D12*
G36*
X377690449Y-48607604D02*
G01*
X377713504Y-48611023D01*
X377736113Y-48616687D01*
X377758057Y-48624539D01*
X377779127Y-48634504D01*
X377799118Y-48646486D01*
X377817838Y-48660370D01*
X377835108Y-48676022D01*
X377850760Y-48693292D01*
X377864644Y-48712012D01*
X377876626Y-48732003D01*
X377886591Y-48753073D01*
X377894443Y-48775017D01*
X377900107Y-48797626D01*
X377903526Y-48820681D01*
X377904670Y-48843960D01*
X377904670Y-49418960D01*
X377903526Y-49442239D01*
X377900107Y-49465294D01*
X377894443Y-49487903D01*
X377886591Y-49509847D01*
X377876626Y-49530917D01*
X377864644Y-49550908D01*
X377850760Y-49569628D01*
X377835108Y-49586898D01*
X377817838Y-49602550D01*
X377799118Y-49616434D01*
X377779127Y-49628416D01*
X377758057Y-49638381D01*
X377736113Y-49646233D01*
X377713504Y-49651897D01*
X377690449Y-49655316D01*
X377667170Y-49656460D01*
X377192170Y-49656460D01*
X377168891Y-49655316D01*
X377145836Y-49651897D01*
X377123227Y-49646233D01*
X377101283Y-49638381D01*
X377080213Y-49628416D01*
X377060222Y-49616434D01*
X377041502Y-49602550D01*
X377024232Y-49586898D01*
X377008580Y-49569628D01*
X376994696Y-49550908D01*
X376982714Y-49530917D01*
X376972749Y-49509847D01*
X376964897Y-49487903D01*
X376959233Y-49465294D01*
X376955814Y-49442239D01*
X376954670Y-49418960D01*
X376954670Y-48843960D01*
X376955814Y-48820681D01*
X376959233Y-48797626D01*
X376964897Y-48775017D01*
X376972749Y-48753073D01*
X376982714Y-48732003D01*
X376994696Y-48712012D01*
X377008580Y-48693292D01*
X377024232Y-48676022D01*
X377041502Y-48660370D01*
X377060222Y-48646486D01*
X377080213Y-48634504D01*
X377101283Y-48624539D01*
X377123227Y-48616687D01*
X377145836Y-48611023D01*
X377168891Y-48607604D01*
X377192170Y-48606460D01*
X377667170Y-48606460D01*
X377690449Y-48607604D01*
X377690449Y-48607604D01*
G37*
D13*
X377429670Y-49131460D03*
D11*
X155973586Y-38695532D03*
X155973586Y-118467340D03*
X233364146Y-38695532D03*
X233364146Y-118454889D03*
X311945330Y-38695532D03*
X311945330Y-118467340D03*
X389335890Y-38695532D03*
M02*
