G04 #@! TF.GenerationSoftware,KiCad,Pcbnew,(6.0.5-0)*
G04 #@! TF.CreationDate,2022-06-11T09:58:57-05:00*
G04 #@! TF.ProjectId,plate,706c6174-652e-46b6-9963-61645f706362,rev?*
G04 #@! TF.SameCoordinates,Original*
G04 #@! TF.FileFunction,Profile,NP*
%FSLAX46Y46*%
G04 Gerber Fmt 4.6, Leading zero omitted, Abs format (unit mm)*
G04 Created by KiCad (PCBNEW (6.0.5-0)) date 2022-06-11 09:58:57*
%MOMM*%
%LPD*%
G01*
G04 APERTURE LIST*
G04 #@! TA.AperFunction,Profile*
%ADD10C,0.050000*%
G04 #@! TD*
G04 #@! TA.AperFunction,Profile*
%ADD11C,0.100000*%
G04 #@! TD*
G04 APERTURE END LIST*
D10*
X396479634Y-116681394D02*
G75*
G03*
X398860894Y-114300144I-34J2381294D01*
G01*
X396479634Y-116681404D02*
X394693747Y-116681516D01*
X398860844Y-42862716D02*
G75*
G03*
X396479634Y-40481456I-2381244J16D01*
G01*
X396479634Y-40481456D02*
X394693747Y-40481452D01*
X306587423Y-40481452D02*
X238721741Y-40481452D01*
X150615417Y-40481452D02*
X148829842Y-40481468D01*
X148829842Y-116681404D02*
X150615417Y-116681404D01*
X238721741Y-116681535D02*
X306587423Y-116681516D01*
X146448582Y-42862728D02*
X146448582Y-114300156D01*
X148829842Y-40481482D02*
G75*
G03*
X146448582Y-42862728I-42J-2381218D01*
G01*
X235743948Y-35718780D02*
G75*
G03*
X230981444Y-35718780I-2381252J-1785939D01*
G01*
X158354486Y-35718948D02*
X161331051Y-40481452D01*
X164905385Y-121443684D02*
X164905385Y-117872664D01*
X230981789Y-121442339D02*
X228006107Y-116681535D01*
X380403816Y-39290323D02*
G75*
G03*
X381594405Y-40481284I1190584J-377D01*
G01*
X317303057Y-40481452D02*
X319683080Y-40481284D01*
X146448584Y-114300156D02*
G75*
G03*
X148829842Y-116681416I2381216J-44D01*
G01*
X166092326Y-34527800D02*
G75*
G03*
X164901700Y-35718780I-26J-1190600D01*
G01*
X381598090Y-116681664D02*
G75*
G03*
X380407464Y-117872645I10J-1190636D01*
G01*
X380403781Y-35718780D02*
G75*
G03*
X379213153Y-34527819I-1190581J380D01*
G01*
X391716474Y-35719479D02*
G75*
G03*
X386953450Y-35718780I-2381774J-1785221D01*
G01*
X391716476Y-35719477D02*
X394693747Y-40481452D01*
X320873350Y-121443684D02*
G75*
G03*
X322068017Y-122634644I1190950J-16D01*
G01*
X309562760Y-35718948D02*
X306587423Y-40481452D01*
X381594405Y-40481284D02*
X383976884Y-40481452D01*
X224431773Y-35718780D02*
X224431773Y-39290323D01*
X379214381Y-122636764D02*
G75*
G03*
X380407464Y-121443684I19J1193064D01*
G01*
X164905355Y-121443684D02*
G75*
G03*
X166096011Y-122634645I1190645J-316D01*
G01*
X322064332Y-34527806D02*
G75*
G03*
X320873706Y-35718780I-32J-1190594D01*
G01*
X314325168Y-35718852D02*
G75*
G03*
X309562760Y-35718948I-2381168J-1785848D01*
G01*
X224431816Y-39290323D02*
G75*
G03*
X225622399Y-40481284I1190584J-377D01*
G01*
X386953104Y-121445033D02*
G75*
G03*
X391717182Y-121443852I2381596J1787333D01*
G01*
X230981444Y-35718780D02*
X228006107Y-40481452D01*
X398860894Y-114300144D02*
X398860894Y-42862716D01*
X314325183Y-35718841D02*
X317303057Y-40481452D01*
X223244832Y-122634645D02*
X166096011Y-122634645D01*
X153591092Y-121442344D02*
G75*
G03*
X158352029Y-121443517I2380908J1784644D01*
G01*
X322064332Y-34527819D02*
X379213153Y-34527819D01*
X320873367Y-121443684D02*
X320877391Y-117872645D01*
X158352029Y-121443517D02*
X161331051Y-116681404D01*
X166092326Y-34527819D02*
X223241147Y-34527819D01*
X225626084Y-116681658D02*
G75*
G03*
X224435458Y-117872664I16J-1190642D01*
G01*
X309562417Y-121445031D02*
X306587423Y-116681516D01*
X386953107Y-121445031D02*
X383978113Y-116681516D01*
X163714759Y-116681703D02*
X161331051Y-116681535D01*
X383978113Y-116681516D02*
X381598090Y-116681684D01*
X319683080Y-40481306D02*
G75*
G03*
X320873706Y-39290323I20J1190606D01*
G01*
X224435458Y-117872664D02*
X224435458Y-121443684D01*
X223244832Y-122634658D02*
G75*
G03*
X224435458Y-121443684I-32J1190658D01*
G01*
X153591099Y-121442339D02*
X150615417Y-116681404D01*
X235742719Y-121443517D02*
X238721741Y-116681535D01*
X161331051Y-40481452D02*
X163711074Y-40481284D01*
X380407464Y-117872645D02*
X380407464Y-121443684D01*
X158354486Y-35718948D02*
G75*
G03*
X153591982Y-35718948I-2381252J-1786682D01*
G01*
X391717182Y-121443852D02*
X394693747Y-116681516D01*
X224431681Y-35718780D02*
G75*
G03*
X223241147Y-34527819I-1190581J380D01*
G01*
X386953450Y-35718780D02*
X383976884Y-40481452D01*
X164901700Y-39290323D02*
X164901700Y-35718780D01*
X228006107Y-116681535D02*
X225626084Y-116681703D01*
X309562401Y-121445043D02*
G75*
G03*
X314326492Y-121443852I2381599J1787343D01*
G01*
X164905397Y-117872664D02*
G75*
G03*
X163714759Y-116681703I-1190597J364D01*
G01*
X153591982Y-35718948D02*
X150615417Y-40481452D01*
X163711074Y-40481300D02*
G75*
G03*
X164901700Y-39290323I26J1190600D01*
G01*
X380403779Y-35718780D02*
X380403779Y-39290323D01*
X230981795Y-121442335D02*
G75*
G03*
X235742719Y-121443517I2380905J1784635D01*
G01*
X225622399Y-40481284D02*
X228006107Y-40481452D01*
X320877416Y-117872645D02*
G75*
G03*
X319686765Y-116681684I-1190616J345D01*
G01*
X314326492Y-121443852D02*
X317303057Y-116681516D01*
X320873706Y-39290323D02*
X320873706Y-35718780D01*
X379214381Y-122636767D02*
X322068017Y-122634644D01*
X319686765Y-116681684D02*
X317303057Y-116681516D01*
X235743948Y-35718780D02*
X238721741Y-40481452D01*
X148972530Y-56006460D02*
X148972530Y-44006460D01*
X149972530Y-57006460D02*
X161972530Y-57006460D01*
X149972530Y-43006460D02*
X161972530Y-43006460D01*
X162972530Y-44006460D02*
X162972530Y-56006460D01*
X161972530Y-57006460D02*
G75*
G03*
X162972530Y-56006460I0J1000000D01*
G01*
X162972530Y-44006460D02*
G75*
G03*
X161972530Y-43006460I-1000000J0D01*
G01*
X148972530Y-56006460D02*
G75*
G03*
X149972530Y-57006460I999999J-1D01*
G01*
X149972530Y-43006460D02*
G75*
G03*
X148972530Y-44006460I-1J-999999D01*
G01*
X168022610Y-56006460D02*
X168022610Y-44006460D01*
X169022610Y-43006460D02*
X181022610Y-43006460D01*
X182022610Y-44006460D02*
X182022610Y-56006460D01*
X169022610Y-57006460D02*
X181022610Y-57006460D01*
X182022610Y-44006460D02*
G75*
G03*
X181022610Y-43006460I-1000000J0D01*
G01*
X168022610Y-56006460D02*
G75*
G03*
X169022610Y-57006460I999999J-1D01*
G01*
X181022610Y-57006460D02*
G75*
G03*
X182022610Y-56006460I0J1000000D01*
G01*
X169022610Y-43006460D02*
G75*
G03*
X168022610Y-44006460I-1J-999999D01*
G01*
X188072690Y-57006460D02*
X200072690Y-57006460D01*
X187072690Y-56006460D02*
X187072690Y-44006460D01*
X201072690Y-44006460D02*
X201072690Y-56006460D01*
X188072690Y-43006460D02*
X200072690Y-43006460D01*
X200072690Y-57006460D02*
G75*
G03*
X201072690Y-56006460I0J1000000D01*
G01*
X188072690Y-43006460D02*
G75*
G03*
X187072690Y-44006460I-1J-999999D01*
G01*
X187072690Y-56006460D02*
G75*
G03*
X188072690Y-57006460I999999J-1D01*
G01*
X201072690Y-44006460D02*
G75*
G03*
X200072690Y-43006460I-1000000J0D01*
G01*
X206122770Y-56006460D02*
X206122770Y-44006460D01*
X207122770Y-57006460D02*
X219122770Y-57006460D01*
X207122770Y-43006460D02*
X219122770Y-43006460D01*
X220122770Y-44006460D02*
X220122770Y-56006460D01*
X207122770Y-43006460D02*
G75*
G03*
X206122770Y-44006460I-1J-999999D01*
G01*
X219122770Y-57006460D02*
G75*
G03*
X220122770Y-56006460I0J1000000D01*
G01*
X220122770Y-44006460D02*
G75*
G03*
X219122770Y-43006460I-1000000J0D01*
G01*
X206122770Y-56006460D02*
G75*
G03*
X207122770Y-57006460I999999J-1D01*
G01*
X239172850Y-44006460D02*
X239172850Y-56006460D01*
X225172850Y-56006460D02*
X225172850Y-44006460D01*
X226172850Y-57006460D02*
X238172850Y-57006460D01*
X226172850Y-43006460D02*
X238172850Y-43006460D01*
X226172850Y-43006460D02*
G75*
G03*
X225172850Y-44006460I-1J-999999D01*
G01*
X225172850Y-56006460D02*
G75*
G03*
X226172850Y-57006460I999999J-1D01*
G01*
X239172850Y-44006460D02*
G75*
G03*
X238172850Y-43006460I-1000000J0D01*
G01*
X238172850Y-57006460D02*
G75*
G03*
X239172850Y-56006460I0J1000000D01*
G01*
X321423250Y-57006460D02*
X333423250Y-57006460D01*
X321423250Y-43006460D02*
X333423250Y-43006460D01*
X334423250Y-44006460D02*
X334423250Y-56006460D01*
X320423250Y-56006460D02*
X320423250Y-44006460D01*
X320423250Y-56006460D02*
G75*
G03*
X321423250Y-57006460I999999J-1D01*
G01*
X321423250Y-43006460D02*
G75*
G03*
X320423250Y-44006460I-1J-999999D01*
G01*
X334423250Y-44006460D02*
G75*
G03*
X333423250Y-43006460I-1000000J0D01*
G01*
X333423250Y-57006460D02*
G75*
G03*
X334423250Y-56006460I0J1000000D01*
G01*
X339473330Y-56006460D02*
X339473330Y-44006460D01*
X340473330Y-43006460D02*
X352473330Y-43006460D01*
X340473330Y-57006460D02*
X352473330Y-57006460D01*
X353473330Y-44006460D02*
X353473330Y-56006460D01*
X353473330Y-44006460D02*
G75*
G03*
X352473330Y-43006460I-1000000J0D01*
G01*
X339473330Y-56006460D02*
G75*
G03*
X340473330Y-57006460I999999J-1D01*
G01*
X352473330Y-57006460D02*
G75*
G03*
X353473330Y-56006460I0J1000000D01*
G01*
X340473330Y-43006460D02*
G75*
G03*
X339473330Y-44006460I-1J-999999D01*
G01*
X148972530Y-75056540D02*
X148972530Y-63056540D01*
X149972530Y-76056540D02*
X161972530Y-76056540D01*
X162972530Y-63056540D02*
X162972530Y-75056540D01*
X149972530Y-62056540D02*
X161972530Y-62056540D01*
X161972530Y-76056540D02*
G75*
G03*
X162972530Y-75056540I0J1000000D01*
G01*
X149972530Y-62056540D02*
G75*
G03*
X148972530Y-63056540I-1J-999999D01*
G01*
X148972530Y-75056540D02*
G75*
G03*
X149972530Y-76056540I999999J-1D01*
G01*
X162972530Y-63056540D02*
G75*
G03*
X161972530Y-62056540I-1000000J0D01*
G01*
X201072690Y-63056540D02*
X201072690Y-75056540D01*
X188072690Y-76056540D02*
X200072690Y-76056540D01*
X188072690Y-62056540D02*
X200072690Y-62056540D01*
X187072690Y-75056540D02*
X187072690Y-63056540D01*
X187072690Y-75056540D02*
G75*
G03*
X188072690Y-76056540I999999J-1D01*
G01*
X201072690Y-63056540D02*
G75*
G03*
X200072690Y-62056540I-1000000J0D01*
G01*
X200072690Y-76056540D02*
G75*
G03*
X201072690Y-75056540I0J1000000D01*
G01*
X188072690Y-62056540D02*
G75*
G03*
X187072690Y-63056540I-1J-999999D01*
G01*
X239172850Y-63056540D02*
X239172850Y-75056540D01*
X225172850Y-75056540D02*
X225172850Y-63056540D01*
X226172850Y-62056540D02*
X238172850Y-62056540D01*
X226172850Y-76056540D02*
X238172850Y-76056540D01*
X239172850Y-63056540D02*
G75*
G03*
X238172850Y-62056540I-1000000J0D01*
G01*
X226172850Y-62056540D02*
G75*
G03*
X225172850Y-63056540I-1J-999999D01*
G01*
X238172850Y-76056540D02*
G75*
G03*
X239172850Y-75056540I0J1000000D01*
G01*
X225172850Y-75056540D02*
G75*
G03*
X226172850Y-76056540I999999J-1D01*
G01*
X245222930Y-76056540D02*
X257222930Y-76056540D01*
X258222930Y-63056540D02*
X258222930Y-75056540D01*
X245222930Y-62056540D02*
X257222930Y-62056540D01*
X244222930Y-75056540D02*
X244222930Y-63056540D01*
X244222930Y-75056540D02*
G75*
G03*
X245222930Y-76056540I999999J-1D01*
G01*
X258222930Y-63056540D02*
G75*
G03*
X257222930Y-62056540I-1000000J0D01*
G01*
X245222930Y-62056540D02*
G75*
G03*
X244222930Y-63056540I-1J-999999D01*
G01*
X257222930Y-76056540D02*
G75*
G03*
X258222930Y-75056540I0J1000000D01*
G01*
X263273010Y-75056540D02*
X263273010Y-63056540D01*
X264273010Y-62056540D02*
X276273010Y-62056540D01*
X264273010Y-76056540D02*
X276273010Y-76056540D01*
X277273010Y-63056540D02*
X277273010Y-75056540D01*
X263273010Y-75056540D02*
G75*
G03*
X264273010Y-76056540I999999J-1D01*
G01*
X264273010Y-62056540D02*
G75*
G03*
X263273010Y-63056540I-1J-999999D01*
G01*
X276273010Y-76056540D02*
G75*
G03*
X277273010Y-75056540I0J1000000D01*
G01*
X277273010Y-63056540D02*
G75*
G03*
X276273010Y-62056540I-1000000J0D01*
G01*
X296323090Y-63056540D02*
X296323090Y-75056540D01*
X283323090Y-76056540D02*
X295323090Y-76056540D01*
X283323090Y-62056540D02*
X295323090Y-62056540D01*
X282323090Y-75056540D02*
X282323090Y-63056540D01*
X282323090Y-75056540D02*
G75*
G03*
X283323090Y-76056540I999999J-1D01*
G01*
X283323090Y-62056540D02*
G75*
G03*
X282323090Y-63056540I-1J-999999D01*
G01*
X296323090Y-63056540D02*
G75*
G03*
X295323090Y-62056540I-1000000J0D01*
G01*
X295323090Y-76056540D02*
G75*
G03*
X296323090Y-75056540I0J1000000D01*
G01*
X315373170Y-63056540D02*
X315373170Y-75056540D01*
X301373170Y-75056540D02*
X301373170Y-63056540D01*
X302373170Y-76056540D02*
X314373170Y-76056540D01*
X302373170Y-62056540D02*
X314373170Y-62056540D01*
X302373170Y-62056540D02*
G75*
G03*
X301373170Y-63056540I-1J-999999D01*
G01*
X301373170Y-75056540D02*
G75*
G03*
X302373170Y-76056540I999999J-1D01*
G01*
X314373170Y-76056540D02*
G75*
G03*
X315373170Y-75056540I0J1000000D01*
G01*
X315373170Y-63056540D02*
G75*
G03*
X314373170Y-62056540I-1000000J0D01*
G01*
X321423250Y-76056540D02*
X333423250Y-76056540D01*
X334423250Y-63056540D02*
X334423250Y-75056540D01*
X321423250Y-62056540D02*
X333423250Y-62056540D01*
X320423250Y-75056540D02*
X320423250Y-63056540D01*
X321423250Y-62056540D02*
G75*
G03*
X320423250Y-63056540I-1J-999999D01*
G01*
X334423250Y-63056540D02*
G75*
G03*
X333423250Y-62056540I-1000000J0D01*
G01*
X333423250Y-76056540D02*
G75*
G03*
X334423250Y-75056540I0J1000000D01*
G01*
X320423250Y-75056540D02*
G75*
G03*
X321423250Y-76056540I999999J-1D01*
G01*
X340473330Y-62056540D02*
X352473330Y-62056540D01*
X339473330Y-75056540D02*
X339473330Y-63056540D01*
X353473330Y-63056540D02*
X353473330Y-75056540D01*
X340473330Y-76056540D02*
X352473330Y-76056540D01*
X353473330Y-63056540D02*
G75*
G03*
X352473330Y-62056540I-1000000J0D01*
G01*
X352473330Y-76056540D02*
G75*
G03*
X353473330Y-75056540I0J1000000D01*
G01*
X339473330Y-75056540D02*
G75*
G03*
X340473330Y-76056540I999999J-1D01*
G01*
X340473330Y-62056540D02*
G75*
G03*
X339473330Y-63056540I-1J-999999D01*
G01*
X358523410Y-75056540D02*
X358523410Y-63056540D01*
X359523410Y-76056540D02*
X371523410Y-76056540D01*
X372523410Y-63056540D02*
X372523410Y-75056540D01*
X359523410Y-62056540D02*
X371523410Y-62056540D01*
X358523410Y-75056540D02*
G75*
G03*
X359523410Y-76056540I999999J-1D01*
G01*
X359523410Y-62056540D02*
G75*
G03*
X358523410Y-63056540I-1J-999999D01*
G01*
X372523410Y-63056540D02*
G75*
G03*
X371523410Y-62056540I-1000000J0D01*
G01*
X371523410Y-76056540D02*
G75*
G03*
X372523410Y-75056540I0J1000000D01*
G01*
X162972530Y-82106620D02*
X162972530Y-94106620D01*
X148972530Y-94106620D02*
X148972530Y-82106620D01*
X149972530Y-81106620D02*
X161972530Y-81106620D01*
X149972530Y-95106620D02*
X161972530Y-95106620D01*
X148972530Y-94106620D02*
G75*
G03*
X149972530Y-95106620I999999J-1D01*
G01*
X162972530Y-82106620D02*
G75*
G03*
X161972530Y-81106620I-1000000J0D01*
G01*
X161972530Y-95106620D02*
G75*
G03*
X162972530Y-94106620I0J1000000D01*
G01*
X149972530Y-81106620D02*
G75*
G03*
X148972530Y-82106620I-1J-999999D01*
G01*
X169022610Y-81106620D02*
X181022610Y-81106620D01*
X169022610Y-95106620D02*
X181022610Y-95106620D01*
X168022610Y-94106620D02*
X168022610Y-82106620D01*
X182022610Y-82106620D02*
X182022610Y-94106620D01*
X181022610Y-95106620D02*
G75*
G03*
X182022610Y-94106620I0J1000000D01*
G01*
X168022610Y-94106620D02*
G75*
G03*
X169022610Y-95106620I999999J-1D01*
G01*
X182022610Y-82106620D02*
G75*
G03*
X181022610Y-81106620I-1000000J0D01*
G01*
X169022610Y-81106620D02*
G75*
G03*
X168022610Y-82106620I-1J-999999D01*
G01*
X187072690Y-94106620D02*
X187072690Y-82106620D01*
X201072690Y-82106620D02*
X201072690Y-94106620D01*
X188072690Y-81106620D02*
X200072690Y-81106620D01*
X188072690Y-95106620D02*
X200072690Y-95106620D01*
X187072690Y-94106620D02*
G75*
G03*
X188072690Y-95106620I999999J-1D01*
G01*
X188072690Y-81106620D02*
G75*
G03*
X187072690Y-82106620I-1J-999999D01*
G01*
X201072690Y-82106620D02*
G75*
G03*
X200072690Y-81106620I-1000000J0D01*
G01*
X200072690Y-95106620D02*
G75*
G03*
X201072690Y-94106620I0J1000000D01*
G01*
X207122770Y-95106620D02*
X219122770Y-95106620D01*
X206122770Y-94106620D02*
X206122770Y-82106620D01*
X220122770Y-82106620D02*
X220122770Y-94106620D01*
X207122770Y-81106620D02*
X219122770Y-81106620D01*
X220122770Y-82106620D02*
G75*
G03*
X219122770Y-81106620I-1000000J0D01*
G01*
X219122770Y-95106620D02*
G75*
G03*
X220122770Y-94106620I0J1000000D01*
G01*
X206122770Y-94106620D02*
G75*
G03*
X207122770Y-95106620I999999J-1D01*
G01*
X207122770Y-81106620D02*
G75*
G03*
X206122770Y-82106620I-1J-999999D01*
G01*
X226172850Y-81106620D02*
X238172850Y-81106620D01*
X225172850Y-94106620D02*
X225172850Y-82106620D01*
X226172850Y-95106620D02*
X238172850Y-95106620D01*
X239172850Y-82106620D02*
X239172850Y-94106620D01*
X238172850Y-95106620D02*
G75*
G03*
X239172850Y-94106620I0J1000000D01*
G01*
X225172850Y-94106620D02*
G75*
G03*
X226172850Y-95106620I999999J-1D01*
G01*
X239172850Y-82106620D02*
G75*
G03*
X238172850Y-81106620I-1000000J0D01*
G01*
X226172850Y-81106620D02*
G75*
G03*
X225172850Y-82106620I-1J-999999D01*
G01*
X245222930Y-81106620D02*
X257222930Y-81106620D01*
X245222930Y-95106620D02*
X257222930Y-95106620D01*
X244222930Y-94106620D02*
X244222930Y-82106620D01*
X258222930Y-82106620D02*
X258222930Y-94106620D01*
X258222930Y-82106620D02*
G75*
G03*
X257222930Y-81106620I-1000000J0D01*
G01*
X244222930Y-94106620D02*
G75*
G03*
X245222930Y-95106620I999999J-1D01*
G01*
X245222930Y-81106620D02*
G75*
G03*
X244222930Y-82106620I-1J-999999D01*
G01*
X257222930Y-95106620D02*
G75*
G03*
X258222930Y-94106620I0J1000000D01*
G01*
X264273010Y-81106620D02*
X276273010Y-81106620D01*
X277273010Y-82106620D02*
X277273010Y-94106620D01*
X263273010Y-94106620D02*
X263273010Y-82106620D01*
X264273010Y-95106620D02*
X276273010Y-95106620D01*
X277273010Y-82106620D02*
G75*
G03*
X276273010Y-81106620I-1000000J0D01*
G01*
X263273010Y-94106620D02*
G75*
G03*
X264273010Y-95106620I999999J-1D01*
G01*
X264273010Y-81106620D02*
G75*
G03*
X263273010Y-82106620I-1J-999999D01*
G01*
X276273010Y-95106620D02*
G75*
G03*
X277273010Y-94106620I0J1000000D01*
G01*
X282323090Y-94106620D02*
X282323090Y-82106620D01*
X296323090Y-82106620D02*
X296323090Y-94106620D01*
X283323090Y-95106620D02*
X295323090Y-95106620D01*
X283323090Y-81106620D02*
X295323090Y-81106620D01*
X282323090Y-94106620D02*
G75*
G03*
X283323090Y-95106620I999999J-1D01*
G01*
X283323090Y-81106620D02*
G75*
G03*
X282323090Y-82106620I-1J-999999D01*
G01*
X295323090Y-95106620D02*
G75*
G03*
X296323090Y-94106620I0J1000000D01*
G01*
X296323090Y-82106620D02*
G75*
G03*
X295323090Y-81106620I-1000000J0D01*
G01*
X302373170Y-81106620D02*
X314373170Y-81106620D01*
X302373170Y-95106620D02*
X314373170Y-95106620D01*
X315373170Y-82106620D02*
X315373170Y-94106620D01*
X301373170Y-94106620D02*
X301373170Y-82106620D01*
X302373170Y-81106620D02*
G75*
G03*
X301373170Y-82106620I-1J-999999D01*
G01*
X315373170Y-82106620D02*
G75*
G03*
X314373170Y-81106620I-1000000J0D01*
G01*
X301373170Y-94106620D02*
G75*
G03*
X302373170Y-95106620I999999J-1D01*
G01*
X314373170Y-95106620D02*
G75*
G03*
X315373170Y-94106620I0J1000000D01*
G01*
X321423250Y-81106620D02*
X333423250Y-81106620D01*
X321423250Y-95106620D02*
X333423250Y-95106620D01*
X320423250Y-94106620D02*
X320423250Y-82106620D01*
X334423250Y-82106620D02*
X334423250Y-94106620D01*
X334423250Y-82106620D02*
G75*
G03*
X333423250Y-81106620I-1000000J0D01*
G01*
X321423250Y-81106620D02*
G75*
G03*
X320423250Y-82106620I-1J-999999D01*
G01*
X333423250Y-95106620D02*
G75*
G03*
X334423250Y-94106620I0J1000000D01*
G01*
X320423250Y-94106620D02*
G75*
G03*
X321423250Y-95106620I999999J-1D01*
G01*
X353473330Y-82106620D02*
X353473330Y-94106620D01*
X340473330Y-95106620D02*
X352473330Y-95106620D01*
X339473330Y-94106620D02*
X339473330Y-82106620D01*
X340473330Y-81106620D02*
X352473330Y-81106620D01*
X352473330Y-95106620D02*
G75*
G03*
X353473330Y-94106620I0J1000000D01*
G01*
X340473330Y-81106620D02*
G75*
G03*
X339473330Y-82106620I-1J-999999D01*
G01*
X353473330Y-82106620D02*
G75*
G03*
X352473330Y-81106620I-1000000J0D01*
G01*
X339473330Y-94106620D02*
G75*
G03*
X340473330Y-95106620I999999J-1D01*
G01*
X372523410Y-82106620D02*
X372523410Y-94106620D01*
X358523410Y-94106620D02*
X358523410Y-82106620D01*
X359523410Y-81106620D02*
X371523410Y-81106620D01*
X359523410Y-95106620D02*
X371523410Y-95106620D01*
X371523410Y-95106620D02*
G75*
G03*
X372523410Y-94106620I0J1000000D01*
G01*
X359523410Y-81106620D02*
G75*
G03*
X358523410Y-82106620I-1J-999999D01*
G01*
X358523410Y-94106620D02*
G75*
G03*
X359523410Y-95106620I999999J-1D01*
G01*
X372523410Y-82106620D02*
G75*
G03*
X371523410Y-81106620I-1000000J0D01*
G01*
X182022610Y-101156700D02*
X182022610Y-113156700D01*
X169022610Y-114156700D02*
X181022610Y-114156700D01*
X169022610Y-100156700D02*
X181022610Y-100156700D01*
X168022610Y-113156700D02*
X168022610Y-101156700D01*
X182022610Y-101156700D02*
G75*
G03*
X181022610Y-100156700I-1000000J0D01*
G01*
X169022610Y-100156700D02*
G75*
G03*
X168022610Y-101156700I-1J-999999D01*
G01*
X181022610Y-114156700D02*
G75*
G03*
X182022610Y-113156700I0J1000000D01*
G01*
X168022610Y-113156700D02*
G75*
G03*
X169022610Y-114156700I999999J-1D01*
G01*
X187072690Y-113156700D02*
X187072690Y-101156700D01*
X188072690Y-114156700D02*
X200072690Y-114156700D01*
X188072690Y-100156700D02*
X200072690Y-100156700D01*
X201072690Y-101156700D02*
X201072690Y-113156700D01*
X188072690Y-100156700D02*
G75*
G03*
X187072690Y-101156700I-1J-999999D01*
G01*
X187072690Y-113156700D02*
G75*
G03*
X188072690Y-114156700I999999J-1D01*
G01*
X200072690Y-114156700D02*
G75*
G03*
X201072690Y-113156700I0J1000000D01*
G01*
X201072690Y-101156700D02*
G75*
G03*
X200072690Y-100156700I-1000000J0D01*
G01*
X207122770Y-100156700D02*
X219122770Y-100156700D01*
X206122770Y-113156700D02*
X206122770Y-101156700D01*
X220122770Y-101156700D02*
X220122770Y-113156700D01*
X207122770Y-114156700D02*
X219122770Y-114156700D01*
X219122770Y-114156700D02*
G75*
G03*
X220122770Y-113156700I0J1000000D01*
G01*
X207122770Y-100156700D02*
G75*
G03*
X206122770Y-101156700I-1J-999999D01*
G01*
X206122770Y-113156700D02*
G75*
G03*
X207122770Y-114156700I999999J-1D01*
G01*
X220122770Y-101156700D02*
G75*
G03*
X219122770Y-100156700I-1000000J0D01*
G01*
X226172850Y-100156700D02*
X238172850Y-100156700D01*
X225172850Y-113156700D02*
X225172850Y-101156700D01*
X226172850Y-114156700D02*
X238172850Y-114156700D01*
X239172850Y-101156700D02*
X239172850Y-113156700D01*
X239172850Y-101156700D02*
G75*
G03*
X238172850Y-100156700I-1000000J0D01*
G01*
X225172850Y-113156700D02*
G75*
G03*
X226172850Y-114156700I999999J-1D01*
G01*
X226172850Y-100156700D02*
G75*
G03*
X225172850Y-101156700I-1J-999999D01*
G01*
X238172850Y-114156700D02*
G75*
G03*
X239172850Y-113156700I0J1000000D01*
G01*
X245222930Y-100156700D02*
X257222930Y-100156700D01*
X258222930Y-101156700D02*
X258222930Y-113156700D01*
X244222930Y-113156700D02*
X244222930Y-101156700D01*
X245222930Y-114156700D02*
X257222930Y-114156700D01*
X258222930Y-101156700D02*
G75*
G03*
X257222930Y-100156700I-1000000J0D01*
G01*
X245222930Y-100156700D02*
G75*
G03*
X244222930Y-101156700I-1J-999999D01*
G01*
X244222930Y-113156700D02*
G75*
G03*
X245222930Y-114156700I999999J-1D01*
G01*
X257222930Y-114156700D02*
G75*
G03*
X258222930Y-113156700I0J1000000D01*
G01*
X264273010Y-114156700D02*
X276273010Y-114156700D01*
X263273010Y-113156700D02*
X263273010Y-101156700D01*
X264273010Y-100156700D02*
X276273010Y-100156700D01*
X277273010Y-101156700D02*
X277273010Y-113156700D01*
X263273010Y-113156700D02*
G75*
G03*
X264273010Y-114156700I999999J-1D01*
G01*
X277273010Y-101156700D02*
G75*
G03*
X276273010Y-100156700I-1000000J0D01*
G01*
X276273010Y-114156700D02*
G75*
G03*
X277273010Y-113156700I0J1000000D01*
G01*
X264273010Y-100156700D02*
G75*
G03*
X263273010Y-101156700I-1J-999999D01*
G01*
X282323090Y-113156700D02*
X282323090Y-101156700D01*
X296323090Y-101156700D02*
X296323090Y-113156700D01*
X283323090Y-114156700D02*
X295323090Y-114156700D01*
X283323090Y-100156700D02*
X295323090Y-100156700D01*
X282323090Y-113156700D02*
G75*
G03*
X283323090Y-114156700I999999J-1D01*
G01*
X295323090Y-114156700D02*
G75*
G03*
X296323090Y-113156700I0J1000000D01*
G01*
X296323090Y-101156700D02*
G75*
G03*
X295323090Y-100156700I-1000000J0D01*
G01*
X283323090Y-100156700D02*
G75*
G03*
X282323090Y-101156700I-1J-999999D01*
G01*
X302373170Y-100156700D02*
X314373170Y-100156700D01*
X302373170Y-114156700D02*
X314373170Y-114156700D01*
X315373170Y-101156700D02*
X315373170Y-113156700D01*
X301373170Y-113156700D02*
X301373170Y-101156700D01*
X315373170Y-101156700D02*
G75*
G03*
X314373170Y-100156700I-1000000J0D01*
G01*
X301373170Y-113156700D02*
G75*
G03*
X302373170Y-114156700I999999J-1D01*
G01*
X314373170Y-114156700D02*
G75*
G03*
X315373170Y-113156700I0J1000000D01*
G01*
X302373170Y-100156700D02*
G75*
G03*
X301373170Y-101156700I-1J-999999D01*
G01*
X320423250Y-113156700D02*
X320423250Y-101156700D01*
X334423250Y-101156700D02*
X334423250Y-113156700D01*
X321423250Y-114156700D02*
X333423250Y-114156700D01*
X321423250Y-100156700D02*
X333423250Y-100156700D01*
X333423250Y-114156700D02*
G75*
G03*
X334423250Y-113156700I0J1000000D01*
G01*
X321423250Y-100156700D02*
G75*
G03*
X320423250Y-101156700I-1J-999999D01*
G01*
X320423250Y-113156700D02*
G75*
G03*
X321423250Y-114156700I999999J-1D01*
G01*
X334423250Y-101156700D02*
G75*
G03*
X333423250Y-100156700I-1000000J0D01*
G01*
X340473330Y-114160000D02*
X352473330Y-114160000D01*
X353473330Y-101160000D02*
X353473330Y-113160000D01*
X340473330Y-100160000D02*
X352473330Y-100160000D01*
X339473330Y-113160000D02*
X339473330Y-101160000D01*
X340473330Y-100160000D02*
G75*
G03*
X339473330Y-101160000I-1J-999999D01*
G01*
X353473330Y-101160000D02*
G75*
G03*
X352473330Y-100160000I-1000000J0D01*
G01*
X339473330Y-113160000D02*
G75*
G03*
X340473330Y-114160000I999999J-1D01*
G01*
X352473330Y-114160000D02*
G75*
G03*
X353473330Y-113160000I0J1000000D01*
G01*
X359523410Y-100156700D02*
X371523410Y-100156700D01*
X359523410Y-114156700D02*
X371523410Y-114156700D01*
X358523410Y-113156700D02*
X358523410Y-101156700D01*
X372523410Y-101156700D02*
X372523410Y-113156700D01*
X371523410Y-114156700D02*
G75*
G03*
X372523410Y-113156700I0J1000000D01*
G01*
X372523410Y-101156700D02*
G75*
G03*
X371523410Y-100156700I-1000000J0D01*
G01*
X359523410Y-100156700D02*
G75*
G03*
X358523410Y-101156700I-1J-999999D01*
G01*
X358523410Y-113156700D02*
G75*
G03*
X359523410Y-114156700I999999J-1D01*
G01*
X149972530Y-114156700D02*
X161972530Y-114156700D01*
X149972530Y-100156700D02*
X161972530Y-100156700D01*
X162972530Y-101156700D02*
X162972530Y-113156700D01*
X148972530Y-113156700D02*
X148972530Y-101156700D01*
X162972530Y-101156700D02*
G75*
G03*
X161972530Y-100156700I-1000000J0D01*
G01*
X148972530Y-113156700D02*
G75*
G03*
X149972530Y-114156700I999999J-1D01*
G01*
X149972530Y-100156700D02*
G75*
G03*
X148972530Y-101156700I-1J-999999D01*
G01*
X161972530Y-114156700D02*
G75*
G03*
X162972530Y-113156700I0J1000000D01*
G01*
X182022610Y-63056540D02*
X182022610Y-75056540D01*
X169022610Y-62056540D02*
X181022610Y-62056540D01*
X169022610Y-76056540D02*
X181022610Y-76056540D01*
X168022610Y-75056540D02*
X168022610Y-63056540D01*
X169022610Y-62056540D02*
G75*
G03*
X168022610Y-63056540I-1J-999999D01*
G01*
X182022610Y-63056540D02*
G75*
G03*
X181022610Y-62056540I-1000000J0D01*
G01*
X168022610Y-75056540D02*
G75*
G03*
X169022610Y-76056540I999999J-1D01*
G01*
X181022610Y-76056540D02*
G75*
G03*
X182022610Y-75056540I0J1000000D01*
G01*
X382335890Y-94106428D02*
X382335890Y-82106428D01*
X383335890Y-95106428D02*
X395335890Y-95106428D01*
X383335890Y-81106428D02*
X395335890Y-81106428D01*
X396335890Y-82106428D02*
X396335890Y-94106428D01*
X395335890Y-95106428D02*
G75*
G03*
X396335890Y-94106428I0J1000000D01*
G01*
X396335890Y-82106428D02*
G75*
G03*
X395335890Y-81106428I-1000000J0D01*
G01*
X382335890Y-94106428D02*
G75*
G03*
X383335890Y-95106428I999999J-1D01*
G01*
X383335890Y-81106428D02*
G75*
G03*
X382335890Y-82106428I-1J-999999D01*
G01*
X383335890Y-76056444D02*
X395335890Y-76056444D01*
X396335890Y-63056444D02*
X396335890Y-75056444D01*
X383335890Y-62056444D02*
X395335890Y-62056444D01*
X382335890Y-75056444D02*
X382335890Y-63056444D01*
X395335890Y-76056444D02*
G75*
G03*
X396335890Y-75056444I0J1000000D01*
G01*
X383335890Y-62056444D02*
G75*
G03*
X382335890Y-63056444I-1J-999999D01*
G01*
X382335890Y-75056444D02*
G75*
G03*
X383335890Y-76056444I999999J-1D01*
G01*
X396335890Y-63056444D02*
G75*
G03*
X395335890Y-62056444I-1000000J0D01*
G01*
D11*
X396336010Y-57006460D02*
X396336010Y-43006460D01*
X395336010Y-42006460D02*
X383336010Y-42006460D01*
X383336010Y-58006460D02*
X395336010Y-58006460D01*
X382336010Y-57006460D02*
X382336010Y-43006460D01*
X396336009Y-56531460D02*
X396336009Y-56531460D01*
X396336010Y-43006460D02*
G75*
G03*
X395336010Y-42006460I-999999J1D01*
G01*
X395336010Y-58006460D02*
G75*
G03*
X396336010Y-57006460I1J999999D01*
G01*
X383336010Y-42006460D02*
G75*
G03*
X382336010Y-43006460I0J-1000000D01*
G01*
X382336010Y-57006460D02*
G75*
G03*
X383336010Y-58006460I1000000J0D01*
G01*
D10*
X358523410Y-56006460D02*
X358523410Y-44006460D01*
X359523410Y-57006460D02*
X371523410Y-57006460D01*
X372523410Y-44006460D02*
X372523410Y-56006460D01*
X359523410Y-43006460D02*
X371523410Y-43006460D01*
X358523410Y-56006460D02*
G75*
G03*
X359523410Y-57006460I999999J-1D01*
G01*
X359523410Y-43006460D02*
G75*
G03*
X358523410Y-44006460I-1J-999999D01*
G01*
X371523410Y-57006460D02*
G75*
G03*
X372523410Y-56006460I0J1000000D01*
G01*
X372523410Y-44006460D02*
G75*
G03*
X371523410Y-43006460I-1000000J0D01*
G01*
X383336010Y-100156700D02*
X395336010Y-100156700D01*
X383336010Y-114156700D02*
X395336010Y-114156700D01*
X382336010Y-113156700D02*
X382336010Y-101156700D01*
X396336010Y-101156700D02*
X396336010Y-113156700D01*
X382336010Y-113156700D02*
G75*
G03*
X383336010Y-114156700I999999J-1D01*
G01*
X395336010Y-114156700D02*
G75*
G03*
X396336010Y-113156700I0J1000000D01*
G01*
X383336010Y-100156700D02*
G75*
G03*
X382336010Y-101156700I-1J-999999D01*
G01*
X396336010Y-101156700D02*
G75*
G03*
X395336010Y-100156700I-1000000J0D01*
G01*
X207122770Y-62056540D02*
X219122770Y-62056540D01*
X207122770Y-76056540D02*
X219122770Y-76056540D01*
X206122770Y-75056540D02*
X206122770Y-63056540D01*
X220122770Y-63056540D02*
X220122770Y-75056540D01*
X219122770Y-76056540D02*
G75*
G03*
X220122770Y-75056540I0J1000000D01*
G01*
X207122770Y-62056540D02*
G75*
G03*
X206122770Y-63056540I-1J-999999D01*
G01*
X220122770Y-63056540D02*
G75*
G03*
X219122770Y-62056540I-1000000J0D01*
G01*
X206122770Y-75056540D02*
G75*
G03*
X207122770Y-76056540I999999J-1D01*
G01*
X245223314Y-43006460D02*
X257223314Y-43006460D01*
X244223314Y-56006460D02*
X244223314Y-44006460D01*
X245223314Y-57006460D02*
X257223314Y-57006460D01*
X258223314Y-44006460D02*
X258223314Y-56006460D01*
X258223314Y-44006460D02*
G75*
G03*
X257223314Y-43006460I-1000000J0D01*
G01*
X257223314Y-57006460D02*
G75*
G03*
X258223314Y-56006460I0J1000000D01*
G01*
X244223314Y-56006460D02*
G75*
G03*
X245223314Y-57006460I999999J-1D01*
G01*
X245223314Y-43006460D02*
G75*
G03*
X244223314Y-44006460I-1J-999999D01*
G01*
X264273330Y-57006460D02*
X276273330Y-57006460D01*
X277273330Y-44006460D02*
X277273330Y-56006460D01*
X263273330Y-56006460D02*
X263273330Y-44006460D01*
X264273330Y-43006460D02*
X276273330Y-43006460D01*
X276273330Y-57006460D02*
G75*
G03*
X277273330Y-56006460I0J1000000D01*
G01*
X264273330Y-43006460D02*
G75*
G03*
X263273330Y-44006460I-1J-999999D01*
G01*
X277273330Y-44006460D02*
G75*
G03*
X276273330Y-43006460I-1000000J0D01*
G01*
X263273330Y-56006460D02*
G75*
G03*
X264273330Y-57006460I999999J-1D01*
G01*
X283323346Y-43006460D02*
X295323346Y-43006460D01*
X282323346Y-56006460D02*
X282323346Y-44006460D01*
X296323346Y-44006460D02*
X296323346Y-56006460D01*
X283323346Y-57006460D02*
X295323346Y-57006460D01*
X295323346Y-57006460D02*
G75*
G03*
X296323346Y-56006460I0J1000000D01*
G01*
X283323346Y-43006460D02*
G75*
G03*
X282323346Y-44006460I-1J-999999D01*
G01*
X296323346Y-44006460D02*
G75*
G03*
X295323346Y-43006460I-1000000J0D01*
G01*
X282323346Y-56006460D02*
G75*
G03*
X283323346Y-57006460I999999J-1D01*
G01*
X302373362Y-43006460D02*
X314373362Y-43006460D01*
X315373362Y-44006460D02*
X315373362Y-56006460D01*
X302373362Y-57006460D02*
X314373362Y-57006460D01*
X301373362Y-56006460D02*
X301373362Y-44006460D01*
X302373362Y-43006460D02*
G75*
G03*
X301373362Y-44006460I-1J-999999D01*
G01*
X315373362Y-44006460D02*
G75*
G03*
X314373362Y-43006460I-1000000J0D01*
G01*
X301373362Y-56006460D02*
G75*
G03*
X302373362Y-57006460I999999J-1D01*
G01*
X314373362Y-57006460D02*
G75*
G03*
X315373362Y-56006460I0J1000000D01*
G01*
M02*
