G04 #@! TF.GenerationSoftware,KiCad,Pcbnew,(6.0.5-0)*
G04 #@! TF.CreationDate,2022-07-18T09:45:56-05:00*
G04 #@! TF.ProjectId,plate,706c6174-652e-46b6-9963-61645f706362,rev?*
G04 #@! TF.SameCoordinates,Original*
G04 #@! TF.FileFunction,Copper,L1,Top*
G04 #@! TF.FilePolarity,Positive*
%FSLAX46Y46*%
G04 Gerber Fmt 4.6, Leading zero omitted, Abs format (unit mm)*
G04 Created by KiCad (PCBNEW (6.0.5-0)) date 2022-07-18 09:45:56*
%MOMM*%
%LPD*%
G01*
G04 APERTURE LIST*
G04 #@! TA.AperFunction,ComponentPad*
%ADD10C,3.800000*%
G04 #@! TD*
G04 #@! TA.AperFunction,ViaPad*
%ADD11C,0.500000*%
G04 #@! TD*
G04 APERTURE END LIST*
D10*
X233362696Y-37504719D03*
X311944012Y-37504719D03*
X389334702Y-37504719D03*
X155972006Y-37504719D03*
X389334702Y-119657745D03*
X233362696Y-119657745D03*
X155972006Y-119657745D03*
X311944012Y-119657745D03*
D11*
X387531243Y-60133041D03*
G04 #@! TA.AperFunction,NonConductor*
G36*
X166114704Y-34553367D02*
G01*
X166115038Y-34553319D01*
X223235637Y-34553319D01*
X223236126Y-34553340D01*
X223241146Y-34555420D01*
X223245210Y-34553737D01*
X223246625Y-34553799D01*
X223432514Y-34570072D01*
X223454140Y-34573886D01*
X223629047Y-34620769D01*
X223649685Y-34628283D01*
X223656757Y-34631582D01*
X223813779Y-34704826D01*
X223832801Y-34715811D01*
X223981117Y-34819695D01*
X223997942Y-34833818D01*
X224125956Y-34961877D01*
X224140071Y-34978706D01*
X224203634Y-35069524D01*
X224243898Y-35127053D01*
X224254877Y-35146079D01*
X224331365Y-35310211D01*
X224338869Y-35330844D01*
X224385689Y-35505769D01*
X224389496Y-35527396D01*
X224405797Y-35714366D01*
X224405816Y-35714805D01*
X224404172Y-35718771D01*
X224406202Y-35723676D01*
X224406273Y-35725310D01*
X224406273Y-35740120D01*
X224406220Y-35741098D01*
X224406273Y-35741464D01*
X224406273Y-39279760D01*
X224405563Y-39286957D01*
X224404172Y-39290314D01*
X224404172Y-39290315D01*
X224402556Y-39290314D01*
X224417520Y-39481182D01*
X224418672Y-39485984D01*
X224418672Y-39485987D01*
X224420280Y-39492692D01*
X224462164Y-39667358D01*
X224464056Y-39671928D01*
X224464057Y-39671932D01*
X224471090Y-39688923D01*
X224535388Y-39844256D01*
X224537973Y-39848476D01*
X224537978Y-39848485D01*
X224553021Y-39873044D01*
X224635389Y-40007518D01*
X224759703Y-40153123D01*
X224905268Y-40277483D01*
X224909487Y-40280069D01*
X224909491Y-40280072D01*
X225064276Y-40374948D01*
X225064278Y-40374949D01*
X225068499Y-40377536D01*
X225073068Y-40379429D01*
X225073074Y-40379432D01*
X225240801Y-40448922D01*
X225240803Y-40448923D01*
X225245373Y-40450816D01*
X225431535Y-40495520D01*
X225622399Y-40510544D01*
X225622399Y-40508885D01*
X225627104Y-40506937D01*
X225628563Y-40506785D01*
X226129690Y-40506820D01*
X227985617Y-40506950D01*
X227985618Y-40506950D01*
X228003985Y-40506951D01*
X228012319Y-40508345D01*
X228018551Y-40503899D01*
X228025623Y-40500970D01*
X228028857Y-40493164D01*
X228030560Y-40490437D01*
X228030788Y-40490254D01*
X228032445Y-40487420D01*
X229909114Y-37483406D01*
X231327563Y-37483406D01*
X231343500Y-37759803D01*
X231344327Y-37764017D01*
X231344327Y-37764019D01*
X231355918Y-37823101D01*
X231396800Y-38031479D01*
X231486479Y-38293408D01*
X231610875Y-38540743D01*
X231613301Y-38544272D01*
X231613304Y-38544278D01*
X231693882Y-38661519D01*
X231767688Y-38768907D01*
X231954015Y-38973678D01*
X232006068Y-39017201D01*
X232163117Y-39148515D01*
X232163122Y-39148519D01*
X232166409Y-39151267D01*
X232220793Y-39185382D01*
X232397299Y-39296104D01*
X232397303Y-39296106D01*
X232400939Y-39298387D01*
X232404849Y-39300152D01*
X232404850Y-39300153D01*
X232649354Y-39410551D01*
X232649358Y-39410553D01*
X232653266Y-39412317D01*
X232657385Y-39413537D01*
X232914608Y-39489731D01*
X232914613Y-39489732D01*
X232918721Y-39490949D01*
X232922955Y-39491597D01*
X232922960Y-39491598D01*
X233188149Y-39532177D01*
X233188151Y-39532177D01*
X233192391Y-39532826D01*
X233333301Y-39535040D01*
X233464921Y-39537108D01*
X233464927Y-39537108D01*
X233469212Y-39537175D01*
X233744063Y-39503914D01*
X234011856Y-39433660D01*
X234015816Y-39432020D01*
X234015821Y-39432018D01*
X234139747Y-39380686D01*
X234267638Y-39327712D01*
X234506673Y-39188031D01*
X234724541Y-39017201D01*
X234917208Y-38818384D01*
X234919741Y-38814936D01*
X234919745Y-38814931D01*
X235078572Y-38598713D01*
X235081110Y-38595258D01*
X235213214Y-38351952D01*
X235311076Y-38092970D01*
X235372884Y-37823101D01*
X235378534Y-37759803D01*
X235397275Y-37549807D01*
X235397495Y-37547342D01*
X235397941Y-37504719D01*
X235379111Y-37228505D01*
X235322968Y-36957401D01*
X235230552Y-36696426D01*
X235103572Y-36450407D01*
X235093469Y-36436031D01*
X234946845Y-36227408D01*
X234946844Y-36227407D01*
X234944378Y-36223898D01*
X234755917Y-36021089D01*
X234741987Y-36009687D01*
X234544993Y-35848450D01*
X234541675Y-35845734D01*
X234334517Y-35718788D01*
X234309279Y-35703322D01*
X234309278Y-35703322D01*
X234305617Y-35701078D01*
X234301681Y-35699350D01*
X234056039Y-35591520D01*
X234056035Y-35591519D01*
X234052111Y-35589796D01*
X233785847Y-35513949D01*
X233582804Y-35485052D01*
X233516006Y-35475545D01*
X233516004Y-35475545D01*
X233511754Y-35474940D01*
X233507465Y-35474918D01*
X233507458Y-35474917D01*
X233239188Y-35473512D01*
X233239181Y-35473512D01*
X233234902Y-35473490D01*
X233230658Y-35474049D01*
X233230654Y-35474049D01*
X233159643Y-35483398D01*
X232960415Y-35509627D01*
X232956275Y-35510760D01*
X232956273Y-35510760D01*
X232893562Y-35527916D01*
X232693372Y-35582682D01*
X232438714Y-35691302D01*
X232355334Y-35741204D01*
X232204836Y-35831275D01*
X232204832Y-35831278D01*
X232201154Y-35833479D01*
X232197811Y-35836157D01*
X232197807Y-35836160D01*
X232185857Y-35845734D01*
X231985088Y-36006581D01*
X231794513Y-36207405D01*
X231632956Y-36432235D01*
X231503407Y-36676910D01*
X231408263Y-36936904D01*
X231349284Y-37207404D01*
X231327563Y-37483406D01*
X229909114Y-37483406D01*
X230997605Y-35741041D01*
X231000401Y-35737191D01*
X231003525Y-35735341D01*
X231004495Y-35731556D01*
X231007937Y-35726817D01*
X231009201Y-35725310D01*
X231204245Y-35492827D01*
X231213617Y-35482818D01*
X231436128Y-35269779D01*
X231446542Y-35260844D01*
X231571649Y-35164834D01*
X231690906Y-35073313D01*
X231702243Y-35065556D01*
X231771184Y-35023717D01*
X231965582Y-34905740D01*
X231977671Y-34899277D01*
X232256850Y-34769079D01*
X232269590Y-34763964D01*
X232413868Y-34714983D01*
X232561272Y-34664941D01*
X232574489Y-34661244D01*
X232783863Y-34614822D01*
X232875220Y-34594567D01*
X232888775Y-34592329D01*
X233194967Y-34558792D01*
X233208686Y-34558043D01*
X233516706Y-34558043D01*
X233530425Y-34558792D01*
X233836617Y-34592329D01*
X233850172Y-34594567D01*
X233941529Y-34614822D01*
X234150903Y-34661244D01*
X234164120Y-34664941D01*
X234311524Y-34714983D01*
X234455802Y-34763964D01*
X234468542Y-34769079D01*
X234747721Y-34899277D01*
X234759810Y-34905740D01*
X234954208Y-35023717D01*
X235023149Y-35065556D01*
X235034486Y-35073313D01*
X235153744Y-35164834D01*
X235278850Y-35260844D01*
X235289264Y-35269779D01*
X235511775Y-35482818D01*
X235521138Y-35492816D01*
X235717479Y-35726845D01*
X235720895Y-35731547D01*
X235721867Y-35735341D01*
X235724999Y-35737196D01*
X235727781Y-35741024D01*
X238689253Y-40477591D01*
X238698994Y-40493171D01*
X238702224Y-40500969D01*
X238709302Y-40503901D01*
X238715539Y-40508347D01*
X238723862Y-40506952D01*
X238727098Y-40506952D01*
X238727375Y-40507048D01*
X238730641Y-40506952D01*
X306585306Y-40506952D01*
X306593634Y-40508345D01*
X306599867Y-40503899D01*
X306606940Y-40500969D01*
X306610171Y-40493167D01*
X306611879Y-40490432D01*
X306612107Y-40490249D01*
X306613759Y-40487424D01*
X308490496Y-37483406D01*
X309908879Y-37483406D01*
X309924816Y-37759803D01*
X309925643Y-37764017D01*
X309925643Y-37764019D01*
X309937234Y-37823101D01*
X309978116Y-38031479D01*
X310067795Y-38293408D01*
X310192191Y-38540743D01*
X310194617Y-38544272D01*
X310194620Y-38544278D01*
X310275198Y-38661519D01*
X310349004Y-38768907D01*
X310535331Y-38973678D01*
X310587384Y-39017201D01*
X310744433Y-39148515D01*
X310744438Y-39148519D01*
X310747725Y-39151267D01*
X310802109Y-39185382D01*
X310978615Y-39296104D01*
X310978619Y-39296106D01*
X310982255Y-39298387D01*
X310986165Y-39300152D01*
X310986166Y-39300153D01*
X311230670Y-39410551D01*
X311230674Y-39410553D01*
X311234582Y-39412317D01*
X311238701Y-39413537D01*
X311495924Y-39489731D01*
X311495929Y-39489732D01*
X311500037Y-39490949D01*
X311504271Y-39491597D01*
X311504276Y-39491598D01*
X311769465Y-39532177D01*
X311769467Y-39532177D01*
X311773707Y-39532826D01*
X311914617Y-39535040D01*
X312046237Y-39537108D01*
X312046243Y-39537108D01*
X312050528Y-39537175D01*
X312325379Y-39503914D01*
X312593172Y-39433660D01*
X312597132Y-39432020D01*
X312597137Y-39432018D01*
X312721063Y-39380686D01*
X312848954Y-39327712D01*
X313087989Y-39188031D01*
X313305857Y-39017201D01*
X313498524Y-38818384D01*
X313501057Y-38814936D01*
X313501061Y-38814931D01*
X313659888Y-38598713D01*
X313662426Y-38595258D01*
X313794530Y-38351952D01*
X313892392Y-38092970D01*
X313954200Y-37823101D01*
X313959850Y-37759803D01*
X313978591Y-37549807D01*
X313978811Y-37547342D01*
X313979257Y-37504719D01*
X313960427Y-37228505D01*
X313904284Y-36957401D01*
X313811868Y-36696426D01*
X313684888Y-36450407D01*
X313674785Y-36436031D01*
X313528161Y-36227408D01*
X313528160Y-36227407D01*
X313525694Y-36223898D01*
X313337233Y-36021089D01*
X313323303Y-36009687D01*
X313126309Y-35848450D01*
X313122991Y-35845734D01*
X312915833Y-35718788D01*
X312890595Y-35703322D01*
X312890594Y-35703322D01*
X312886933Y-35701078D01*
X312882997Y-35699350D01*
X312637355Y-35591520D01*
X312637351Y-35591519D01*
X312633427Y-35589796D01*
X312367163Y-35513949D01*
X312164120Y-35485052D01*
X312097322Y-35475545D01*
X312097320Y-35475545D01*
X312093070Y-35474940D01*
X312088781Y-35474918D01*
X312088774Y-35474917D01*
X311820504Y-35473512D01*
X311820497Y-35473512D01*
X311816218Y-35473490D01*
X311811974Y-35474049D01*
X311811970Y-35474049D01*
X311740959Y-35483398D01*
X311541731Y-35509627D01*
X311537591Y-35510760D01*
X311537589Y-35510760D01*
X311474878Y-35527916D01*
X311274688Y-35582682D01*
X311020030Y-35691302D01*
X310936650Y-35741204D01*
X310786152Y-35831275D01*
X310786148Y-35831278D01*
X310782470Y-35833479D01*
X310779127Y-35836157D01*
X310779123Y-35836160D01*
X310767173Y-35845734D01*
X310566404Y-36006581D01*
X310375829Y-36207405D01*
X310214272Y-36432235D01*
X310084723Y-36676910D01*
X309989579Y-36936904D01*
X309930600Y-37207404D01*
X309908879Y-37483406D01*
X308490496Y-37483406D01*
X309578916Y-35741215D01*
X309581717Y-35737358D01*
X309584842Y-35735508D01*
X309585812Y-35731722D01*
X309589244Y-35726997D01*
X309785543Y-35492994D01*
X309794934Y-35482964D01*
X309804806Y-35473512D01*
X309964921Y-35320200D01*
X310017410Y-35269941D01*
X310027837Y-35260995D01*
X310272188Y-35073457D01*
X310283522Y-35065702D01*
X310546837Y-34905887D01*
X310558953Y-34899409D01*
X310838107Y-34769211D01*
X310850858Y-34764091D01*
X311142528Y-34665063D01*
X311155758Y-34661362D01*
X311211805Y-34648934D01*
X311456474Y-34594679D01*
X311470017Y-34592443D01*
X311639659Y-34573858D01*
X311776216Y-34558898D01*
X311789935Y-34558149D01*
X311944022Y-34558146D01*
X312097955Y-34558143D01*
X312111668Y-34558892D01*
X312340313Y-34583931D01*
X312417857Y-34592423D01*
X312431413Y-34594661D01*
X312549008Y-34620732D01*
X312731731Y-34661242D01*
X312732132Y-34661331D01*
X312745363Y-34665032D01*
X313037033Y-34764048D01*
X313049774Y-34769163D01*
X313328943Y-34899354D01*
X313341052Y-34905827D01*
X313604100Y-35065465D01*
X313604374Y-35065631D01*
X313615713Y-35073388D01*
X313710397Y-35146051D01*
X313860077Y-35260920D01*
X313870493Y-35269856D01*
X314092987Y-35482880D01*
X314102371Y-35492901D01*
X314120029Y-35513949D01*
X314298772Y-35727004D01*
X314298786Y-35727021D01*
X314302136Y-35731632D01*
X314303102Y-35735401D01*
X314306215Y-35737245D01*
X314309090Y-35741201D01*
X317280310Y-40493172D01*
X317283541Y-40500970D01*
X317290619Y-40503901D01*
X317296856Y-40508347D01*
X317305182Y-40506951D01*
X317308412Y-40506951D01*
X317308690Y-40507047D01*
X317311953Y-40506951D01*
X318763246Y-40506849D01*
X319673764Y-40506785D01*
X319679149Y-40507257D01*
X319683080Y-40508885D01*
X319683080Y-40510566D01*
X319791998Y-40501994D01*
X319869022Y-40495932D01*
X319869025Y-40495932D01*
X319873949Y-40495544D01*
X319939086Y-40479904D01*
X320055299Y-40452000D01*
X320055301Y-40451999D01*
X320060117Y-40450843D01*
X320236998Y-40377562D01*
X320400234Y-40277509D01*
X320404011Y-40274283D01*
X320542037Y-40156365D01*
X320545805Y-40153146D01*
X320670124Y-40007538D01*
X320752504Y-39873046D01*
X320767542Y-39848496D01*
X320767548Y-39848485D01*
X320770129Y-39844272D01*
X320843356Y-39667369D01*
X320874592Y-39537108D01*
X320886849Y-39485993D01*
X320886850Y-39485987D01*
X320888001Y-39481188D01*
X320902966Y-39290314D01*
X320901307Y-39290315D01*
X320901307Y-39290314D01*
X320899916Y-39286957D01*
X320899206Y-39279760D01*
X320899206Y-35724255D01*
X320899226Y-35723800D01*
X320901307Y-35718771D01*
X320899621Y-35714705D01*
X320899682Y-35713310D01*
X320901748Y-35689621D01*
X320910925Y-35584367D01*
X320915893Y-35527387D01*
X320919702Y-35505754D01*
X320963604Y-35341734D01*
X320966522Y-35330831D01*
X320974025Y-35310198D01*
X321050524Y-35146050D01*
X321061502Y-35127028D01*
X321165345Y-34978667D01*
X321179459Y-34961840D01*
X321307483Y-34833780D01*
X321324307Y-34819659D01*
X321472633Y-34715776D01*
X321491654Y-34704792D01*
X321655771Y-34628249D01*
X321676403Y-34620738D01*
X321851322Y-34573862D01*
X321872953Y-34570048D01*
X322007546Y-34558274D01*
X322058713Y-34553798D01*
X322060253Y-34553731D01*
X322064331Y-34555420D01*
X322069370Y-34553333D01*
X322069693Y-34553319D01*
X322085784Y-34553319D01*
X322086700Y-34553368D01*
X322087042Y-34553319D01*
X379207655Y-34553319D01*
X379208131Y-34553340D01*
X379213154Y-34555420D01*
X379217218Y-34553736D01*
X379218634Y-34553798D01*
X379404534Y-34570058D01*
X379426164Y-34573873D01*
X379601079Y-34620745D01*
X379621717Y-34628258D01*
X379785831Y-34704799D01*
X379804853Y-34715784D01*
X379953175Y-34819661D01*
X379970002Y-34833783D01*
X380034056Y-34897856D01*
X380098028Y-34961846D01*
X380112143Y-34978673D01*
X380215986Y-35127032D01*
X380226961Y-35146049D01*
X380303457Y-35310190D01*
X380310964Y-35330833D01*
X380357786Y-35505754D01*
X380361594Y-35527385D01*
X380366317Y-35581548D01*
X380377803Y-35713285D01*
X380377865Y-35714704D01*
X380376178Y-35718771D01*
X380378260Y-35723803D01*
X380378279Y-35724229D01*
X380378279Y-35740090D01*
X380378225Y-35741086D01*
X380378279Y-35741459D01*
X380378279Y-39279760D01*
X380377569Y-39286957D01*
X380376178Y-39290314D01*
X380376178Y-39290315D01*
X380374556Y-39290314D01*
X380389520Y-39481183D01*
X380390672Y-39485985D01*
X380390672Y-39485988D01*
X380433010Y-39662548D01*
X380434164Y-39667360D01*
X380507389Y-39844258D01*
X380525021Y-39873044D01*
X380604804Y-40003299D01*
X380604808Y-40003304D01*
X380607390Y-40007520D01*
X380731705Y-40153125D01*
X380877271Y-40277486D01*
X380881497Y-40280077D01*
X380881498Y-40280077D01*
X381036277Y-40374948D01*
X381040502Y-40377538D01*
X381217378Y-40450818D01*
X381222188Y-40451973D01*
X381222191Y-40451974D01*
X381304800Y-40471810D01*
X381403541Y-40495520D01*
X381408475Y-40495908D01*
X381408479Y-40495909D01*
X381472777Y-40500970D01*
X381594405Y-40510544D01*
X381594405Y-40508885D01*
X381599110Y-40506937D01*
X381600569Y-40506785D01*
X382100228Y-40506820D01*
X383956388Y-40506950D01*
X383956389Y-40506950D01*
X383974761Y-40506951D01*
X383983091Y-40508346D01*
X383989326Y-40503899D01*
X383996400Y-40500970D01*
X383999632Y-40493169D01*
X384001341Y-40490435D01*
X384001569Y-40490251D01*
X384003222Y-40487425D01*
X385880667Y-37483406D01*
X387299569Y-37483406D01*
X387315506Y-37759803D01*
X387316333Y-37764017D01*
X387316333Y-37764019D01*
X387327924Y-37823101D01*
X387368806Y-38031479D01*
X387458485Y-38293408D01*
X387582881Y-38540743D01*
X387585307Y-38544272D01*
X387585310Y-38544278D01*
X387665888Y-38661519D01*
X387739694Y-38768907D01*
X387926021Y-38973678D01*
X387978074Y-39017201D01*
X388135123Y-39148515D01*
X388135128Y-39148519D01*
X388138415Y-39151267D01*
X388192799Y-39185382D01*
X388369305Y-39296104D01*
X388369309Y-39296106D01*
X388372945Y-39298387D01*
X388376855Y-39300152D01*
X388376856Y-39300153D01*
X388621360Y-39410551D01*
X388621364Y-39410553D01*
X388625272Y-39412317D01*
X388629391Y-39413537D01*
X388886614Y-39489731D01*
X388886619Y-39489732D01*
X388890727Y-39490949D01*
X388894961Y-39491597D01*
X388894966Y-39491598D01*
X389160155Y-39532177D01*
X389160157Y-39532177D01*
X389164397Y-39532826D01*
X389305307Y-39535040D01*
X389436927Y-39537108D01*
X389436933Y-39537108D01*
X389441218Y-39537175D01*
X389716069Y-39503914D01*
X389983862Y-39433660D01*
X389987822Y-39432020D01*
X389987827Y-39432018D01*
X390111753Y-39380686D01*
X390239644Y-39327712D01*
X390478679Y-39188031D01*
X390696547Y-39017201D01*
X390889214Y-38818384D01*
X390891747Y-38814936D01*
X390891751Y-38814931D01*
X391050578Y-38598713D01*
X391053116Y-38595258D01*
X391185220Y-38351952D01*
X391283082Y-38092970D01*
X391344890Y-37823101D01*
X391350540Y-37759803D01*
X391369281Y-37549807D01*
X391369501Y-37547342D01*
X391369947Y-37504719D01*
X391351117Y-37228505D01*
X391294974Y-36957401D01*
X391202558Y-36696426D01*
X391075578Y-36450407D01*
X391065475Y-36436031D01*
X390918851Y-36227408D01*
X390918850Y-36227407D01*
X390916384Y-36223898D01*
X390727923Y-36021089D01*
X390713993Y-36009687D01*
X390516999Y-35848450D01*
X390513681Y-35845734D01*
X390306523Y-35718788D01*
X390281285Y-35703322D01*
X390281284Y-35703322D01*
X390277623Y-35701078D01*
X390273687Y-35699350D01*
X390028045Y-35591520D01*
X390028041Y-35591519D01*
X390024117Y-35589796D01*
X389757853Y-35513949D01*
X389554810Y-35485052D01*
X389488012Y-35475545D01*
X389488010Y-35475545D01*
X389483760Y-35474940D01*
X389479471Y-35474918D01*
X389479464Y-35474917D01*
X389211194Y-35473512D01*
X389211187Y-35473512D01*
X389206908Y-35473490D01*
X389202664Y-35474049D01*
X389202660Y-35474049D01*
X389131649Y-35483398D01*
X388932421Y-35509627D01*
X388928281Y-35510760D01*
X388928279Y-35510760D01*
X388865568Y-35527916D01*
X388665378Y-35582682D01*
X388410720Y-35691302D01*
X388327340Y-35741204D01*
X388176842Y-35831275D01*
X388176838Y-35831278D01*
X388173160Y-35833479D01*
X388169817Y-35836157D01*
X388169813Y-35836160D01*
X388157863Y-35845734D01*
X387957094Y-36006581D01*
X387766519Y-36207405D01*
X387604962Y-36432235D01*
X387475413Y-36676910D01*
X387380269Y-36936904D01*
X387321290Y-37207404D01*
X387299569Y-37483406D01*
X385880667Y-37483406D01*
X386969607Y-35741040D01*
X386972403Y-35737192D01*
X386975531Y-35735340D01*
X386976502Y-35731550D01*
X386979927Y-35726836D01*
X386981208Y-35725310D01*
X387176283Y-35492791D01*
X387185676Y-35482762D01*
X387408197Y-35269723D01*
X387418626Y-35260775D01*
X387663037Y-35073223D01*
X387674378Y-35065465D01*
X387936976Y-34906118D01*
X387937751Y-34905648D01*
X387949866Y-34899172D01*
X388042464Y-34855997D01*
X388229087Y-34768981D01*
X388241833Y-34763864D01*
X388533566Y-34664853D01*
X388546798Y-34661154D01*
X388847573Y-34594503D01*
X388861131Y-34592266D01*
X389167378Y-34558763D01*
X389181098Y-34558016D01*
X389332990Y-34558038D01*
X389489165Y-34558061D01*
X389502886Y-34558812D01*
X389809123Y-34592405D01*
X389822681Y-34594646D01*
X390123439Y-34661387D01*
X390136671Y-34665091D01*
X390428368Y-34764184D01*
X390441119Y-34769307D01*
X390720298Y-34899579D01*
X390732414Y-34906060D01*
X390995736Y-35065951D01*
X391007075Y-35073713D01*
X391251427Y-35261333D01*
X391261853Y-35270282D01*
X391313940Y-35320179D01*
X391484323Y-35483398D01*
X391493713Y-35493431D01*
X391674143Y-35708622D01*
X391690023Y-35727562D01*
X391693419Y-35732237D01*
X391694390Y-35736031D01*
X391697525Y-35737889D01*
X391700308Y-35741720D01*
X394661259Y-40477591D01*
X394661260Y-40477592D01*
X394671000Y-40493170D01*
X394674230Y-40500969D01*
X394681308Y-40503901D01*
X394687545Y-40508347D01*
X394695868Y-40506952D01*
X394699104Y-40506952D01*
X394699381Y-40507048D01*
X394702646Y-40506952D01*
X396474562Y-40506956D01*
X396474562Y-40507016D01*
X396474666Y-40506999D01*
X396479634Y-40509057D01*
X396484060Y-40507224D01*
X396640066Y-40516663D01*
X396755977Y-40523676D01*
X396771081Y-40525510D01*
X397035904Y-40574044D01*
X397050677Y-40577686D01*
X397307707Y-40657784D01*
X397321933Y-40663179D01*
X397567441Y-40773676D01*
X397580914Y-40780747D01*
X397811317Y-40920035D01*
X397823839Y-40928679D01*
X398035766Y-41094717D01*
X398047154Y-41104806D01*
X398237528Y-41295183D01*
X398247618Y-41306573D01*
X398393698Y-41493034D01*
X398413650Y-41518502D01*
X398422293Y-41531023D01*
X398561575Y-41761428D01*
X398568646Y-41774901D01*
X398679139Y-42020413D01*
X398684534Y-42034639D01*
X398688313Y-42046766D01*
X398764630Y-42291683D01*
X398768268Y-42306446D01*
X398801399Y-42487245D01*
X398816796Y-42571266D01*
X398818630Y-42586370D01*
X398835083Y-42858395D01*
X398832609Y-42858545D01*
X398833376Y-42862517D01*
X398833293Y-42862716D01*
X398833520Y-42863263D01*
X398834393Y-42867788D01*
X398835394Y-42867788D01*
X398835394Y-42884153D01*
X398835344Y-42885079D01*
X398835394Y-42885424D01*
X398835394Y-114295071D01*
X398835334Y-114295071D01*
X398835351Y-114295175D01*
X398833293Y-114300143D01*
X398835126Y-114304569D01*
X398834326Y-114317798D01*
X398834325Y-114317799D01*
X398818673Y-114576488D01*
X398816839Y-114591592D01*
X398768304Y-114856417D01*
X398764662Y-114871190D01*
X398684565Y-115128221D01*
X398679170Y-115142447D01*
X398568670Y-115387961D01*
X398561599Y-115401433D01*
X398422317Y-115631830D01*
X398413674Y-115644352D01*
X398247632Y-115856287D01*
X398237542Y-115867676D01*
X398047168Y-116058049D01*
X398035781Y-116068137D01*
X397988851Y-116104905D01*
X397823845Y-116234179D01*
X397811323Y-116242822D01*
X397580925Y-116382103D01*
X397567453Y-116389174D01*
X397321938Y-116499673D01*
X397307711Y-116505068D01*
X397050679Y-116585165D01*
X397035906Y-116588807D01*
X396771083Y-116637340D01*
X396755979Y-116639174D01*
X396484039Y-116655627D01*
X396483889Y-116653142D01*
X396479898Y-116653912D01*
X396479634Y-116653803D01*
X396478909Y-116654103D01*
X396474560Y-116654943D01*
X396474560Y-116655905D01*
X396469575Y-116655905D01*
X396458536Y-116655906D01*
X396458169Y-116655906D01*
X396457260Y-116655857D01*
X396456922Y-116655906D01*
X395747745Y-116655950D01*
X394695863Y-116656016D01*
X394687541Y-116654622D01*
X394681307Y-116659068D01*
X394674229Y-116662000D01*
X394671000Y-116669798D01*
X394669288Y-116672537D01*
X394669061Y-116672720D01*
X394667421Y-116675525D01*
X391753016Y-121338408D01*
X391701014Y-121421608D01*
X391698230Y-121425441D01*
X391695098Y-121427296D01*
X391694127Y-121431088D01*
X391690717Y-121435783D01*
X391494368Y-121669915D01*
X391484980Y-121679944D01*
X391451003Y-121712488D01*
X391262451Y-121893087D01*
X391252035Y-121902028D01*
X391007626Y-122089673D01*
X390996294Y-122097429D01*
X390732914Y-122257348D01*
X390720808Y-122263824D01*
X390457814Y-122386545D01*
X390441579Y-122394120D01*
X390428831Y-122399242D01*
X390137073Y-122498365D01*
X390123858Y-122502064D01*
X389831612Y-122566932D01*
X389823057Y-122568831D01*
X389809504Y-122571073D01*
X389503203Y-122604696D01*
X389489495Y-122605448D01*
X389335955Y-122605486D01*
X389181364Y-122605524D01*
X389167646Y-122604778D01*
X388970834Y-122583272D01*
X388861352Y-122571309D01*
X388847799Y-122569075D01*
X388847154Y-122568932D01*
X388733246Y-122543708D01*
X388546955Y-122502455D01*
X388533724Y-122498758D01*
X388241924Y-122399782D01*
X388229174Y-122394666D01*
X387949892Y-122264514D01*
X387937775Y-122258041D01*
X387815331Y-122183779D01*
X387674314Y-122098253D01*
X387662978Y-122090502D01*
X387418478Y-121902977D01*
X387408061Y-121894046D01*
X387300172Y-121790810D01*
X387185425Y-121681012D01*
X387176032Y-121670987D01*
X387014507Y-121478574D01*
X386979618Y-121437014D01*
X386976153Y-121432244D01*
X386975183Y-121428464D01*
X386972068Y-121426621D01*
X386969254Y-121422748D01*
X385853633Y-119636432D01*
X387299569Y-119636432D01*
X387315506Y-119912829D01*
X387316333Y-119917043D01*
X387316333Y-119917045D01*
X387327924Y-119976127D01*
X387368806Y-120184505D01*
X387458485Y-120446434D01*
X387582881Y-120693769D01*
X387585307Y-120697298D01*
X387585310Y-120697304D01*
X387665888Y-120814545D01*
X387739694Y-120921933D01*
X387926021Y-121126704D01*
X387978074Y-121170227D01*
X388135123Y-121301541D01*
X388135128Y-121301545D01*
X388138415Y-121304293D01*
X388192799Y-121338408D01*
X388369305Y-121449130D01*
X388369309Y-121449132D01*
X388372945Y-121451413D01*
X388376855Y-121453178D01*
X388376856Y-121453179D01*
X388621360Y-121563577D01*
X388621364Y-121563579D01*
X388625272Y-121565343D01*
X388629391Y-121566563D01*
X388886614Y-121642757D01*
X388886619Y-121642758D01*
X388890727Y-121643975D01*
X388894961Y-121644623D01*
X388894966Y-121644624D01*
X389160155Y-121685203D01*
X389160157Y-121685203D01*
X389164397Y-121685852D01*
X389305307Y-121688066D01*
X389436927Y-121690134D01*
X389436933Y-121690134D01*
X389441218Y-121690201D01*
X389716069Y-121656940D01*
X389983862Y-121586686D01*
X389987822Y-121585046D01*
X389987827Y-121585044D01*
X390111753Y-121533712D01*
X390239644Y-121480738D01*
X390478679Y-121341057D01*
X390696547Y-121170227D01*
X390889214Y-120971410D01*
X390891747Y-120967962D01*
X390891751Y-120967957D01*
X391050578Y-120751739D01*
X391053116Y-120748284D01*
X391185220Y-120504978D01*
X391283082Y-120245996D01*
X391344890Y-119976127D01*
X391350540Y-119912829D01*
X391369281Y-119702833D01*
X391369501Y-119700368D01*
X391369947Y-119657745D01*
X391351117Y-119381531D01*
X391294974Y-119110427D01*
X391202558Y-118849452D01*
X391075578Y-118603433D01*
X391065475Y-118589057D01*
X390918851Y-118380434D01*
X390918850Y-118380433D01*
X390916384Y-118376924D01*
X390727923Y-118174115D01*
X390713993Y-118162713D01*
X390516999Y-118001476D01*
X390513681Y-117998760D01*
X390301034Y-117868450D01*
X390281285Y-117856348D01*
X390281284Y-117856348D01*
X390277623Y-117854104D01*
X390273687Y-117852376D01*
X390028045Y-117744546D01*
X390028041Y-117744545D01*
X390024117Y-117742822D01*
X389757853Y-117666975D01*
X389554810Y-117638078D01*
X389488012Y-117628571D01*
X389488010Y-117628571D01*
X389483760Y-117627966D01*
X389479471Y-117627944D01*
X389479464Y-117627943D01*
X389211194Y-117626538D01*
X389211187Y-117626538D01*
X389206908Y-117626516D01*
X389202664Y-117627075D01*
X389202660Y-117627075D01*
X389081958Y-117642966D01*
X388932421Y-117662653D01*
X388928281Y-117663786D01*
X388928279Y-117663786D01*
X388844392Y-117686735D01*
X388665378Y-117735708D01*
X388410720Y-117844328D01*
X388267442Y-117930078D01*
X388176842Y-117984301D01*
X388176838Y-117984304D01*
X388173160Y-117986505D01*
X388169817Y-117989183D01*
X388169813Y-117989186D01*
X388157863Y-117998760D01*
X387957094Y-118159607D01*
X387766519Y-118360431D01*
X387604962Y-118585261D01*
X387475413Y-118829936D01*
X387380269Y-119089930D01*
X387321290Y-119360430D01*
X387299569Y-119636432D01*
X385853633Y-119636432D01*
X384000862Y-116669801D01*
X383997629Y-116661998D01*
X383990559Y-116659070D01*
X383984328Y-116654624D01*
X383975995Y-116656017D01*
X383972781Y-116656017D01*
X383972501Y-116655920D01*
X383969201Y-116656017D01*
X382514565Y-116656119D01*
X381607395Y-116656183D01*
X381602023Y-116655712D01*
X381598090Y-116654083D01*
X381598090Y-116652403D01*
X381582084Y-116653663D01*
X381582083Y-116653663D01*
X381412159Y-116667040D01*
X381412155Y-116667041D01*
X381407222Y-116667429D01*
X381402410Y-116668585D01*
X381402407Y-116668585D01*
X381225874Y-116710976D01*
X381221056Y-116712133D01*
X381216482Y-116714028D01*
X381216479Y-116714029D01*
X381095201Y-116764275D01*
X381044177Y-116785415D01*
X381039954Y-116788004D01*
X381039953Y-116788004D01*
X381039916Y-116788027D01*
X380880943Y-116885469D01*
X380877178Y-116888686D01*
X380877176Y-116888687D01*
X380877149Y-116888710D01*
X380735374Y-117009831D01*
X380611056Y-117155437D01*
X380511050Y-117318702D01*
X380437821Y-117495602D01*
X380436668Y-117500410D01*
X380436667Y-117500413D01*
X380394325Y-117676971D01*
X380394324Y-117676977D01*
X380393172Y-117681781D01*
X380392785Y-117686714D01*
X380392785Y-117686715D01*
X380379658Y-117854104D01*
X380378203Y-117872653D01*
X380379863Y-117872653D01*
X380381808Y-117877344D01*
X380381964Y-117878846D01*
X380381964Y-121438184D01*
X380381943Y-121438662D01*
X380379863Y-121443684D01*
X380381547Y-121447748D01*
X380381485Y-121449162D01*
X380365223Y-121635070D01*
X380365189Y-121635454D01*
X380361377Y-121657076D01*
X380346083Y-121714156D01*
X380314407Y-121832374D01*
X380306895Y-121853012D01*
X380230199Y-122017490D01*
X380219217Y-122036511D01*
X380115128Y-122185166D01*
X380101010Y-122201991D01*
X379972689Y-122330312D01*
X379955869Y-122344427D01*
X379807201Y-122448524D01*
X379788189Y-122459501D01*
X379625889Y-122535181D01*
X379623712Y-122536196D01*
X379603076Y-122543707D01*
X379427775Y-122590677D01*
X379406155Y-122594489D01*
X379219821Y-122610788D01*
X379218443Y-122610848D01*
X379214381Y-122609166D01*
X379209366Y-122611244D01*
X379208834Y-122611267D01*
X379208143Y-122611267D01*
X379192901Y-122611266D01*
X379192002Y-122611218D01*
X379191667Y-122611266D01*
X322073258Y-122609144D01*
X322073025Y-122609134D01*
X322067931Y-122607043D01*
X322063853Y-122608747D01*
X322062652Y-122608696D01*
X322025239Y-122605534D01*
X321876114Y-122592930D01*
X321854432Y-122589169D01*
X321679025Y-122542658D01*
X321658330Y-122535182D01*
X321493692Y-122458861D01*
X321474619Y-122447902D01*
X321325759Y-122344091D01*
X321308893Y-122329988D01*
X321180370Y-122201863D01*
X321166202Y-122185026D01*
X321149258Y-122160889D01*
X321061938Y-122036504D01*
X321050916Y-122017457D01*
X320974086Y-121853061D01*
X320966545Y-121832387D01*
X320919490Y-121657132D01*
X320915661Y-121635461D01*
X320900543Y-121462987D01*
X320899353Y-121449403D01*
X320899282Y-121447756D01*
X320900968Y-121443684D01*
X320898889Y-121438667D01*
X320898872Y-121438265D01*
X320898874Y-121437115D01*
X320898891Y-121421851D01*
X320898928Y-121421168D01*
X320898892Y-121420917D01*
X320900899Y-119640712D01*
X320902881Y-117881929D01*
X320903351Y-117876612D01*
X320904992Y-117872653D01*
X320906676Y-117872653D01*
X320891706Y-117681780D01*
X320877672Y-117623262D01*
X320848211Y-117500414D01*
X320848209Y-117500408D01*
X320847056Y-117495600D01*
X320773825Y-117318699D01*
X320715984Y-117224273D01*
X320676403Y-117159656D01*
X320676400Y-117159652D01*
X320673817Y-117155435D01*
X320646558Y-117123510D01*
X320552709Y-117013594D01*
X320552708Y-117013593D01*
X320549495Y-117009830D01*
X320407715Y-116888710D01*
X320407689Y-116888688D01*
X320407688Y-116888687D01*
X320403922Y-116885470D01*
X320399705Y-116882885D01*
X320399699Y-116882881D01*
X320244910Y-116788009D01*
X320244908Y-116788008D01*
X320240684Y-116785419D01*
X320236105Y-116783522D01*
X320236103Y-116783521D01*
X320094608Y-116724904D01*
X320063802Y-116712142D01*
X319941462Y-116682768D01*
X319882441Y-116668597D01*
X319882439Y-116668597D01*
X319877634Y-116667443D01*
X319872711Y-116667056D01*
X319872707Y-116667055D01*
X319708089Y-116654102D01*
X319686764Y-116652424D01*
X319686764Y-116654083D01*
X319682062Y-116656030D01*
X319680595Y-116656183D01*
X319177894Y-116656148D01*
X317323552Y-116656018D01*
X317323551Y-116656018D01*
X317305178Y-116656017D01*
X317296851Y-116654622D01*
X317290616Y-116659068D01*
X317283541Y-116661998D01*
X317280310Y-116669798D01*
X317278601Y-116672532D01*
X317278373Y-116672716D01*
X317276727Y-116675531D01*
X314382222Y-121306576D01*
X314310324Y-121421608D01*
X314307540Y-121425441D01*
X314304408Y-121427296D01*
X314303438Y-121431087D01*
X314300021Y-121435790D01*
X314103678Y-121669915D01*
X314094290Y-121679945D01*
X313871764Y-121893085D01*
X313861339Y-121902032D01*
X313616934Y-122089677D01*
X313605598Y-122097436D01*
X313501105Y-122160883D01*
X313342230Y-122257349D01*
X313330116Y-122263829D01*
X313050890Y-122394124D01*
X313038142Y-122399246D01*
X312746385Y-122498369D01*
X312733156Y-122502072D01*
X312497657Y-122554345D01*
X312432396Y-122568831D01*
X312432364Y-122568838D01*
X312418811Y-122571080D01*
X312112509Y-122604703D01*
X312098801Y-122605455D01*
X311945380Y-122605493D01*
X311790668Y-122605532D01*
X311776951Y-122604786D01*
X311623804Y-122588052D01*
X311470652Y-122571317D01*
X311457110Y-122569086D01*
X311156255Y-122502464D01*
X311143030Y-122498769D01*
X311142152Y-122498471D01*
X311027263Y-122459502D01*
X310851227Y-122399792D01*
X310838477Y-122394676D01*
X310649238Y-122306487D01*
X310559187Y-122264521D01*
X310547081Y-122258054D01*
X310283615Y-122098263D01*
X310272279Y-122090512D01*
X310272266Y-122090502D01*
X310027772Y-121902983D01*
X310017364Y-121894058D01*
X309794725Y-121681024D01*
X309785338Y-121671006D01*
X309588992Y-121437115D01*
X309585468Y-121432263D01*
X309584493Y-121428464D01*
X309581362Y-121426612D01*
X309578626Y-121422846D01*
X308462944Y-119636432D01*
X309908879Y-119636432D01*
X309924816Y-119912829D01*
X309925643Y-119917043D01*
X309925643Y-119917045D01*
X309937234Y-119976127D01*
X309978116Y-120184505D01*
X310067795Y-120446434D01*
X310192191Y-120693769D01*
X310194617Y-120697298D01*
X310194620Y-120697304D01*
X310275198Y-120814545D01*
X310349004Y-120921933D01*
X310535331Y-121126704D01*
X310587384Y-121170227D01*
X310744433Y-121301541D01*
X310744438Y-121301545D01*
X310747725Y-121304293D01*
X310802109Y-121338408D01*
X310978615Y-121449130D01*
X310978619Y-121449132D01*
X310982255Y-121451413D01*
X310986165Y-121453178D01*
X310986166Y-121453179D01*
X311230670Y-121563577D01*
X311230674Y-121563579D01*
X311234582Y-121565343D01*
X311238701Y-121566563D01*
X311495924Y-121642757D01*
X311495929Y-121642758D01*
X311500037Y-121643975D01*
X311504271Y-121644623D01*
X311504276Y-121644624D01*
X311769465Y-121685203D01*
X311769467Y-121685203D01*
X311773707Y-121685852D01*
X311914617Y-121688066D01*
X312046237Y-121690134D01*
X312046243Y-121690134D01*
X312050528Y-121690201D01*
X312325379Y-121656940D01*
X312593172Y-121586686D01*
X312597132Y-121585046D01*
X312597137Y-121585044D01*
X312721063Y-121533712D01*
X312848954Y-121480738D01*
X313087989Y-121341057D01*
X313305857Y-121170227D01*
X313498524Y-120971410D01*
X313501057Y-120967962D01*
X313501061Y-120967957D01*
X313659888Y-120751739D01*
X313662426Y-120748284D01*
X313794530Y-120504978D01*
X313892392Y-120245996D01*
X313954200Y-119976127D01*
X313959850Y-119912829D01*
X313978591Y-119702833D01*
X313978811Y-119700368D01*
X313979257Y-119657745D01*
X313960427Y-119381531D01*
X313904284Y-119110427D01*
X313811868Y-118849452D01*
X313684888Y-118603433D01*
X313674785Y-118589057D01*
X313528161Y-118380434D01*
X313528160Y-118380433D01*
X313525694Y-118376924D01*
X313337233Y-118174115D01*
X313323303Y-118162713D01*
X313126309Y-118001476D01*
X313122991Y-117998760D01*
X312910344Y-117868450D01*
X312890595Y-117856348D01*
X312890594Y-117856348D01*
X312886933Y-117854104D01*
X312882997Y-117852376D01*
X312637355Y-117744546D01*
X312637351Y-117744545D01*
X312633427Y-117742822D01*
X312367163Y-117666975D01*
X312164120Y-117638078D01*
X312097322Y-117628571D01*
X312097320Y-117628571D01*
X312093070Y-117627966D01*
X312088781Y-117627944D01*
X312088774Y-117627943D01*
X311820504Y-117626538D01*
X311820497Y-117626538D01*
X311816218Y-117626516D01*
X311811974Y-117627075D01*
X311811970Y-117627075D01*
X311691268Y-117642966D01*
X311541731Y-117662653D01*
X311537591Y-117663786D01*
X311537589Y-117663786D01*
X311453702Y-117686735D01*
X311274688Y-117735708D01*
X311020030Y-117844328D01*
X310876752Y-117930078D01*
X310786152Y-117984301D01*
X310786148Y-117984304D01*
X310782470Y-117986505D01*
X310779127Y-117989183D01*
X310779123Y-117989186D01*
X310767173Y-117998760D01*
X310566404Y-118159607D01*
X310375829Y-118360431D01*
X310214272Y-118585261D01*
X310084723Y-118829936D01*
X309989579Y-119089930D01*
X309930600Y-119360430D01*
X309908879Y-119636432D01*
X308462944Y-119636432D01*
X306644575Y-116724886D01*
X306610172Y-116669801D01*
X306606940Y-116661999D01*
X306599868Y-116659070D01*
X306593638Y-116654624D01*
X306585308Y-116656016D01*
X306582089Y-116656016D01*
X306581813Y-116655920D01*
X306578526Y-116656016D01*
X288285594Y-116656021D01*
X238723869Y-116656035D01*
X238715546Y-116654638D01*
X238709305Y-116659085D01*
X238702224Y-116662018D01*
X238698995Y-116669815D01*
X238697280Y-116672557D01*
X238697050Y-116672742D01*
X238695419Y-116675531D01*
X237865928Y-118001476D01*
X235726561Y-121421264D01*
X235723773Y-121425098D01*
X235720642Y-121426952D01*
X235719670Y-121430742D01*
X235716252Y-121435443D01*
X235519941Y-121669334D01*
X235510547Y-121679361D01*
X235288087Y-121892257D01*
X235277658Y-121901201D01*
X235033337Y-122088612D01*
X235021996Y-122096367D01*
X234758728Y-122256059D01*
X234746609Y-122262534D01*
X234467511Y-122392614D01*
X234454760Y-122397730D01*
X234353121Y-122432209D01*
X234163160Y-122496649D01*
X234149941Y-122500343D01*
X233976026Y-122538859D01*
X233849300Y-122566924D01*
X233835744Y-122569159D01*
X233529650Y-122602609D01*
X233515931Y-122603355D01*
X233362035Y-122603317D01*
X233208001Y-122603279D01*
X233194310Y-122602528D01*
X232888195Y-122568922D01*
X232874668Y-122566685D01*
X232713470Y-122530901D01*
X232574048Y-122499951D01*
X232560818Y-122496246D01*
X232269284Y-122397189D01*
X232256535Y-122392067D01*
X232124206Y-122330312D01*
X231977493Y-122261844D01*
X231965380Y-122255364D01*
X231702190Y-122095541D01*
X231690853Y-122087780D01*
X231495923Y-121938102D01*
X231446625Y-121900248D01*
X231436201Y-121891299D01*
X231213852Y-121678297D01*
X231204463Y-121668266D01*
X231176957Y-121635461D01*
X231030177Y-121460408D01*
X231008234Y-121434238D01*
X231004842Y-121429568D01*
X231003874Y-121425785D01*
X231000749Y-121423933D01*
X230997939Y-121420065D01*
X229883101Y-119636432D01*
X231327563Y-119636432D01*
X231343500Y-119912829D01*
X231344327Y-119917043D01*
X231344327Y-119917045D01*
X231355918Y-119976127D01*
X231396800Y-120184505D01*
X231486479Y-120446434D01*
X231610875Y-120693769D01*
X231613301Y-120697298D01*
X231613304Y-120697304D01*
X231693882Y-120814545D01*
X231767688Y-120921933D01*
X231954015Y-121126704D01*
X232006068Y-121170227D01*
X232163117Y-121301541D01*
X232163122Y-121301545D01*
X232166409Y-121304293D01*
X232220793Y-121338408D01*
X232397299Y-121449130D01*
X232397303Y-121449132D01*
X232400939Y-121451413D01*
X232404849Y-121453178D01*
X232404850Y-121453179D01*
X232649354Y-121563577D01*
X232649358Y-121563579D01*
X232653266Y-121565343D01*
X232657385Y-121566563D01*
X232914608Y-121642757D01*
X232914613Y-121642758D01*
X232918721Y-121643975D01*
X232922955Y-121644623D01*
X232922960Y-121644624D01*
X233188149Y-121685203D01*
X233188151Y-121685203D01*
X233192391Y-121685852D01*
X233333301Y-121688066D01*
X233464921Y-121690134D01*
X233464927Y-121690134D01*
X233469212Y-121690201D01*
X233744063Y-121656940D01*
X234011856Y-121586686D01*
X234015816Y-121585046D01*
X234015821Y-121585044D01*
X234139747Y-121533712D01*
X234267638Y-121480738D01*
X234506673Y-121341057D01*
X234724541Y-121170227D01*
X234917208Y-120971410D01*
X234919741Y-120967962D01*
X234919745Y-120967957D01*
X235078572Y-120751739D01*
X235081110Y-120748284D01*
X235213214Y-120504978D01*
X235311076Y-120245996D01*
X235372884Y-119976127D01*
X235378534Y-119912829D01*
X235397275Y-119702833D01*
X235397495Y-119700368D01*
X235397941Y-119657745D01*
X235379111Y-119381531D01*
X235322968Y-119110427D01*
X235230552Y-118849452D01*
X235103572Y-118603433D01*
X235093469Y-118589057D01*
X234946845Y-118380434D01*
X234946844Y-118380433D01*
X234944378Y-118376924D01*
X234755917Y-118174115D01*
X234741987Y-118162713D01*
X234544993Y-118001476D01*
X234541675Y-117998760D01*
X234329028Y-117868450D01*
X234309279Y-117856348D01*
X234309278Y-117856348D01*
X234305617Y-117854104D01*
X234301681Y-117852376D01*
X234056039Y-117744546D01*
X234056035Y-117744545D01*
X234052111Y-117742822D01*
X233785847Y-117666975D01*
X233582804Y-117638078D01*
X233516006Y-117628571D01*
X233516004Y-117628571D01*
X233511754Y-117627966D01*
X233507465Y-117627944D01*
X233507458Y-117627943D01*
X233239188Y-117626538D01*
X233239181Y-117626538D01*
X233234902Y-117626516D01*
X233230658Y-117627075D01*
X233230654Y-117627075D01*
X233109952Y-117642966D01*
X232960415Y-117662653D01*
X232956275Y-117663786D01*
X232956273Y-117663786D01*
X232872386Y-117686735D01*
X232693372Y-117735708D01*
X232438714Y-117844328D01*
X232295436Y-117930078D01*
X232204836Y-117984301D01*
X232204832Y-117984304D01*
X232201154Y-117986505D01*
X232197811Y-117989183D01*
X232197807Y-117989186D01*
X232185857Y-117998760D01*
X231985088Y-118159607D01*
X231794513Y-118360431D01*
X231632956Y-118585261D01*
X231503407Y-118829936D01*
X231408263Y-119089930D01*
X231349284Y-119360430D01*
X231327563Y-119636432D01*
X229883101Y-119636432D01*
X228038594Y-116685399D01*
X228038593Y-116685398D01*
X228028855Y-116669818D01*
X228025623Y-116662017D01*
X228018550Y-116659088D01*
X228012313Y-116654640D01*
X228003982Y-116656036D01*
X228000766Y-116656036D01*
X228000486Y-116655939D01*
X227997208Y-116656036D01*
X226562668Y-116656137D01*
X225635530Y-116656202D01*
X225629979Y-116655715D01*
X225626084Y-116654102D01*
X225626084Y-116652397D01*
X225610078Y-116653657D01*
X225610077Y-116653657D01*
X225440149Y-116667035D01*
X225440143Y-116667036D01*
X225435214Y-116667424D01*
X225430407Y-116668578D01*
X225430403Y-116668579D01*
X225360415Y-116685386D01*
X225249046Y-116712130D01*
X225072166Y-116785414D01*
X225067948Y-116788000D01*
X225067945Y-116788001D01*
X224913158Y-116882879D01*
X224913155Y-116882881D01*
X224908930Y-116885471D01*
X224905165Y-116888688D01*
X224905161Y-116888691D01*
X224767134Y-117006613D01*
X224763361Y-117009836D01*
X224639042Y-117155445D01*
X224539038Y-117318713D01*
X224465810Y-117495616D01*
X224421163Y-117681798D01*
X224420776Y-117686735D01*
X224407538Y-117855574D01*
X224406197Y-117872673D01*
X224407857Y-117872672D01*
X224409801Y-117877362D01*
X224409958Y-117878867D01*
X224409958Y-121438212D01*
X224409938Y-121438662D01*
X224407857Y-121443691D01*
X224409542Y-121447756D01*
X224409481Y-121449162D01*
X224393263Y-121635067D01*
X224389454Y-121656701D01*
X224342625Y-121831628D01*
X224335116Y-121852271D01*
X224258624Y-122016394D01*
X224247645Y-122035420D01*
X224143801Y-122183779D01*
X224129687Y-122200605D01*
X224001667Y-122328662D01*
X223984842Y-122342783D01*
X223836516Y-122446669D01*
X223817498Y-122457653D01*
X223735441Y-122495926D01*
X223653387Y-122534198D01*
X223632746Y-122541712D01*
X223457836Y-122588592D01*
X223436206Y-122592407D01*
X223268982Y-122607044D01*
X223250462Y-122608665D01*
X223248909Y-122608733D01*
X223244831Y-122607044D01*
X223239792Y-122609131D01*
X223239476Y-122609145D01*
X223223350Y-122609145D01*
X223222451Y-122609097D01*
X223222117Y-122609145D01*
X166101502Y-122609145D01*
X166101034Y-122609125D01*
X166096011Y-122607044D01*
X166091948Y-122608727D01*
X166090520Y-122608665D01*
X165904635Y-122592401D01*
X165883001Y-122588586D01*
X165708091Y-122541712D01*
X165687449Y-122534198D01*
X165523337Y-122457657D01*
X165504314Y-122446672D01*
X165355990Y-122342793D01*
X165339164Y-122328671D01*
X165211136Y-122200610D01*
X165197018Y-122183780D01*
X165093177Y-122035430D01*
X165082197Y-122016405D01*
X165005697Y-121852271D01*
X164998188Y-121831626D01*
X164951360Y-121656704D01*
X164947551Y-121635070D01*
X164931362Y-121449497D01*
X164931288Y-121447789D01*
X164932986Y-121443691D01*
X164930888Y-121438623D01*
X164930885Y-121438547D01*
X164930885Y-121422297D01*
X164930936Y-121421344D01*
X164930885Y-121420989D01*
X164930885Y-117881932D01*
X164931353Y-117876612D01*
X164932986Y-117872672D01*
X164934657Y-117872673D01*
X164919690Y-117681800D01*
X164875043Y-117495619D01*
X164866121Y-117474065D01*
X164803708Y-117323296D01*
X164801813Y-117318718D01*
X164701807Y-117155453D01*
X164674534Y-117123510D01*
X164580704Y-117013617D01*
X164577486Y-117009848D01*
X164542396Y-116979871D01*
X164435686Y-116888710D01*
X164435683Y-116888708D01*
X164431914Y-116885488D01*
X164268677Y-116785437D01*
X164264098Y-116783540D01*
X164264096Y-116783539D01*
X164096368Y-116714054D01*
X164096367Y-116714054D01*
X164091796Y-116712160D01*
X163905627Y-116667461D01*
X163900700Y-116667073D01*
X163900698Y-116667073D01*
X163785968Y-116658046D01*
X163714758Y-116652443D01*
X163714758Y-116654102D01*
X163710056Y-116656049D01*
X163708588Y-116656202D01*
X163113705Y-116656160D01*
X161351535Y-116656037D01*
X161351534Y-116656037D01*
X161333962Y-116656036D01*
X161324856Y-116654507D01*
X161318176Y-116659267D01*
X161311535Y-116662017D01*
X161308465Y-116669427D01*
X161306425Y-116672689D01*
X161306284Y-116672802D01*
X161305276Y-116674524D01*
X158335875Y-121421259D01*
X158333083Y-121425099D01*
X158329952Y-121426952D01*
X158328979Y-121430744D01*
X158325565Y-121435440D01*
X158129251Y-121669336D01*
X158119857Y-121679363D01*
X158083512Y-121714146D01*
X157898387Y-121891313D01*
X157897397Y-121892260D01*
X157886971Y-121901201D01*
X157761273Y-121997621D01*
X157642643Y-122088619D01*
X157631301Y-122096374D01*
X157368040Y-122256061D01*
X157355922Y-122262536D01*
X157076810Y-122392624D01*
X157064077Y-122397732D01*
X156772477Y-122496652D01*
X156759246Y-122500350D01*
X156458598Y-122566933D01*
X156445055Y-122569166D01*
X156267387Y-122588582D01*
X156138956Y-122602617D01*
X156125237Y-122603363D01*
X155970748Y-122603325D01*
X155817315Y-122603287D01*
X155803605Y-122602535D01*
X155695578Y-122590676D01*
X155497513Y-122568932D01*
X155483958Y-122566690D01*
X155288944Y-122523400D01*
X155183357Y-122499962D01*
X155170131Y-122496258D01*
X154878578Y-122397195D01*
X154865830Y-122392073D01*
X154586797Y-122261855D01*
X154574681Y-122255374D01*
X154456783Y-122183780D01*
X154315961Y-122098266D01*
X154311490Y-122095551D01*
X154300153Y-122087790D01*
X154055930Y-121900262D01*
X154045505Y-121891313D01*
X153823146Y-121678303D01*
X153813757Y-121668271D01*
X153617601Y-121434330D01*
X153614158Y-121429590D01*
X153613184Y-121425785D01*
X153610041Y-121423922D01*
X153607305Y-121420155D01*
X152492441Y-119636432D01*
X153936873Y-119636432D01*
X153952810Y-119912829D01*
X153953637Y-119917043D01*
X153953637Y-119917045D01*
X153965228Y-119976127D01*
X154006110Y-120184505D01*
X154095789Y-120446434D01*
X154220185Y-120693769D01*
X154222611Y-120697298D01*
X154222614Y-120697304D01*
X154303192Y-120814545D01*
X154376998Y-120921933D01*
X154563325Y-121126704D01*
X154615378Y-121170227D01*
X154772427Y-121301541D01*
X154772432Y-121301545D01*
X154775719Y-121304293D01*
X154830103Y-121338408D01*
X155006609Y-121449130D01*
X155006613Y-121449132D01*
X155010249Y-121451413D01*
X155014159Y-121453178D01*
X155014160Y-121453179D01*
X155258664Y-121563577D01*
X155258668Y-121563579D01*
X155262576Y-121565343D01*
X155266695Y-121566563D01*
X155523918Y-121642757D01*
X155523923Y-121642758D01*
X155528031Y-121643975D01*
X155532265Y-121644623D01*
X155532270Y-121644624D01*
X155797459Y-121685203D01*
X155797461Y-121685203D01*
X155801701Y-121685852D01*
X155942611Y-121688066D01*
X156074231Y-121690134D01*
X156074237Y-121690134D01*
X156078522Y-121690201D01*
X156353373Y-121656940D01*
X156621166Y-121586686D01*
X156625126Y-121585046D01*
X156625131Y-121585044D01*
X156749057Y-121533712D01*
X156876948Y-121480738D01*
X157115983Y-121341057D01*
X157333851Y-121170227D01*
X157526518Y-120971410D01*
X157529051Y-120967962D01*
X157529055Y-120967957D01*
X157687882Y-120751739D01*
X157690420Y-120748284D01*
X157822524Y-120504978D01*
X157920386Y-120245996D01*
X157982194Y-119976127D01*
X157987844Y-119912829D01*
X158006585Y-119702833D01*
X158006805Y-119700368D01*
X158007251Y-119657745D01*
X157988421Y-119381531D01*
X157932278Y-119110427D01*
X157839862Y-118849452D01*
X157712882Y-118603433D01*
X157702779Y-118589057D01*
X157556155Y-118380434D01*
X157556154Y-118380433D01*
X157553688Y-118376924D01*
X157365227Y-118174115D01*
X157351297Y-118162713D01*
X157154303Y-118001476D01*
X157150985Y-117998760D01*
X156938338Y-117868450D01*
X156918589Y-117856348D01*
X156918588Y-117856348D01*
X156914927Y-117854104D01*
X156910991Y-117852376D01*
X156665349Y-117744546D01*
X156665345Y-117744545D01*
X156661421Y-117742822D01*
X156395157Y-117666975D01*
X156192114Y-117638078D01*
X156125316Y-117628571D01*
X156125314Y-117628571D01*
X156121064Y-117627966D01*
X156116775Y-117627944D01*
X156116768Y-117627943D01*
X155848498Y-117626538D01*
X155848491Y-117626538D01*
X155844212Y-117626516D01*
X155839968Y-117627075D01*
X155839964Y-117627075D01*
X155719262Y-117642966D01*
X155569725Y-117662653D01*
X155565585Y-117663786D01*
X155565583Y-117663786D01*
X155481696Y-117686735D01*
X155302682Y-117735708D01*
X155048024Y-117844328D01*
X154904746Y-117930078D01*
X154814146Y-117984301D01*
X154814142Y-117984304D01*
X154810464Y-117986505D01*
X154807121Y-117989183D01*
X154807117Y-117989186D01*
X154795167Y-117998760D01*
X154594398Y-118159607D01*
X154403823Y-118360431D01*
X154242266Y-118585261D01*
X154112717Y-118829936D01*
X154017573Y-119089930D01*
X153958594Y-119360430D01*
X153936873Y-119636432D01*
X152492441Y-119636432D01*
X151154387Y-117495616D01*
X150638164Y-116669686D01*
X150634934Y-116661887D01*
X150627858Y-116658956D01*
X150621623Y-116654510D01*
X150613299Y-116655904D01*
X150610066Y-116655904D01*
X150609789Y-116655808D01*
X150606532Y-116655904D01*
X148834885Y-116655904D01*
X148834885Y-116655867D01*
X148834821Y-116655877D01*
X148829842Y-116653815D01*
X148825416Y-116655648D01*
X148553488Y-116639204D01*
X148538388Y-116637370D01*
X148405976Y-116613107D01*
X148273567Y-116588844D01*
X148258793Y-116585203D01*
X148001752Y-116505108D01*
X147987525Y-116499713D01*
X147742009Y-116389218D01*
X147728536Y-116382147D01*
X147498126Y-116242861D01*
X147485604Y-116234217D01*
X147273672Y-116068180D01*
X147262283Y-116058090D01*
X147071913Y-115867720D01*
X147061822Y-115856331D01*
X146895777Y-115644388D01*
X146887134Y-115631866D01*
X146747852Y-115401462D01*
X146740781Y-115387989D01*
X146630286Y-115142473D01*
X146624891Y-115128246D01*
X146544797Y-114871206D01*
X146541156Y-114856433D01*
X146492629Y-114591611D01*
X146490795Y-114576506D01*
X146474351Y-114304579D01*
X146476847Y-114304428D01*
X146476073Y-114300424D01*
X146476183Y-114300157D01*
X146475879Y-114299423D01*
X146475040Y-114295084D01*
X146474082Y-114295084D01*
X146474082Y-114278733D01*
X146474132Y-114277799D01*
X146474082Y-114277450D01*
X146474082Y-113856700D01*
X148942943Y-113856700D01*
X148959075Y-113958545D01*
X149005891Y-114050419D01*
X149078807Y-114123329D01*
X149087643Y-114127830D01*
X149087644Y-114127831D01*
X149161850Y-114165634D01*
X149161852Y-114165635D01*
X149170686Y-114170135D01*
X149272533Y-114186257D01*
X149272533Y-114184301D01*
X149272536Y-114184300D01*
X149277604Y-114185102D01*
X149277604Y-114182200D01*
X162667459Y-114182200D01*
X162667459Y-114185020D01*
X162672481Y-114184280D01*
X162672533Y-114184301D01*
X162672533Y-114186288D01*
X162690878Y-114183381D01*
X162690880Y-114183381D01*
X162753638Y-114173435D01*
X162774373Y-114170149D01*
X162819707Y-114147046D01*
X162857410Y-114127833D01*
X162857413Y-114127831D01*
X162866243Y-114123331D01*
X162939150Y-114050416D01*
X162943654Y-114041577D01*
X162955649Y-114018032D01*
X162985959Y-113958542D01*
X162987512Y-113948740D01*
X162999254Y-113874595D01*
X162999254Y-113874594D01*
X163002088Y-113856700D01*
X167993043Y-113856700D01*
X167995949Y-113875046D01*
X168007622Y-113948747D01*
X168009173Y-113958541D01*
X168035287Y-114009791D01*
X168051477Y-114041564D01*
X168055985Y-114050412D01*
X168128897Y-114123321D01*
X168137733Y-114127823D01*
X168149698Y-114133919D01*
X168220770Y-114170130D01*
X168251429Y-114174985D01*
X168304718Y-114183424D01*
X168304720Y-114183424D01*
X168322611Y-114186257D01*
X168322611Y-114184301D01*
X168322617Y-114184299D01*
X168327683Y-114185101D01*
X168327683Y-114182200D01*
X181717538Y-114182200D01*
X181717538Y-114185002D01*
X181722527Y-114184266D01*
X181722611Y-114184301D01*
X181722611Y-114186268D01*
X181793835Y-114174985D01*
X181814660Y-114171686D01*
X181814661Y-114171686D01*
X181824450Y-114170135D01*
X181895524Y-114133919D01*
X181907490Y-114127822D01*
X181907491Y-114127821D01*
X181916321Y-114123322D01*
X181989229Y-114050412D01*
X181993729Y-114041580D01*
X181993731Y-114041577D01*
X182031539Y-113967371D01*
X182031540Y-113967369D01*
X182036038Y-113958540D01*
X182052168Y-113856700D01*
X182050211Y-113856700D01*
X182050209Y-113856694D01*
X182051011Y-113851628D01*
X182048110Y-113851628D01*
X182048110Y-100461772D01*
X182050893Y-100461772D01*
X182050163Y-100456817D01*
X182050211Y-100456700D01*
X182052157Y-100456700D01*
X187043132Y-100456700D01*
X187045089Y-100456700D01*
X187045091Y-100456706D01*
X187044289Y-100461772D01*
X187047190Y-100461772D01*
X187047190Y-113851628D01*
X187044407Y-113851628D01*
X187045137Y-113856583D01*
X187045089Y-113856700D01*
X187043143Y-113856700D01*
X187059272Y-113958537D01*
X187063773Y-113967371D01*
X187063774Y-113967373D01*
X187065460Y-113970682D01*
X187106080Y-114050405D01*
X187178986Y-114123313D01*
X187270853Y-114170125D01*
X187280644Y-114171676D01*
X187280647Y-114171677D01*
X187316855Y-114177412D01*
X187372689Y-114186257D01*
X187372689Y-114184301D01*
X187372699Y-114184297D01*
X187377762Y-114185099D01*
X187377762Y-114182200D01*
X200767617Y-114182200D01*
X200767617Y-114184983D01*
X200772572Y-114184253D01*
X200772689Y-114184301D01*
X200772689Y-114186247D01*
X200791035Y-114183342D01*
X200791036Y-114183342D01*
X200864675Y-114171681D01*
X200874527Y-114170121D01*
X200945540Y-114133940D01*
X200957562Y-114127815D01*
X200966398Y-114123313D01*
X201039307Y-114050406D01*
X201043812Y-114041565D01*
X201081616Y-113967372D01*
X201081617Y-113967369D01*
X201086117Y-113958538D01*
X201088289Y-113944829D01*
X201099413Y-113874594D01*
X201099413Y-113874593D01*
X201102247Y-113856700D01*
X201100291Y-113856700D01*
X201100288Y-113856692D01*
X201101090Y-113851628D01*
X201098190Y-113851628D01*
X201098190Y-100461772D01*
X201100993Y-100461772D01*
X201100257Y-100456781D01*
X201100291Y-100456700D01*
X201102257Y-100456700D01*
X206093212Y-100456700D01*
X206095169Y-100456700D01*
X206095171Y-100456706D01*
X206094369Y-100461772D01*
X206097270Y-100461772D01*
X206097270Y-113851628D01*
X206094507Y-113851628D01*
X206095232Y-113856548D01*
X206095169Y-113856700D01*
X206093243Y-113856700D01*
X206096149Y-113875046D01*
X206106679Y-113941532D01*
X206109371Y-113958532D01*
X206113870Y-113967363D01*
X206113871Y-113967365D01*
X206151671Y-114041558D01*
X206156175Y-114050398D01*
X206163185Y-114057409D01*
X206163186Y-114057410D01*
X206192612Y-114086839D01*
X206229075Y-114123306D01*
X206320936Y-114170119D01*
X206352170Y-114175069D01*
X206404876Y-114183422D01*
X206404877Y-114183422D01*
X206422767Y-114186257D01*
X206422767Y-114184301D01*
X206422781Y-114184295D01*
X206427841Y-114185097D01*
X206427841Y-114182200D01*
X219817696Y-114182200D01*
X219817696Y-114184967D01*
X219822622Y-114184241D01*
X219822767Y-114184301D01*
X219822767Y-114186227D01*
X219841108Y-114183324D01*
X219841110Y-114183324D01*
X219914808Y-114171658D01*
X219914810Y-114171657D01*
X219924604Y-114170107D01*
X220016475Y-114123305D01*
X220089385Y-114050402D01*
X220136197Y-113958536D01*
X220152327Y-113856700D01*
X220150371Y-113856700D01*
X220150368Y-113856692D01*
X220151170Y-113851628D01*
X220148270Y-113851628D01*
X220148270Y-100461772D01*
X220151092Y-100461772D01*
X220150351Y-100456747D01*
X220150371Y-100456700D01*
X220152357Y-100456700D01*
X225143292Y-100456700D01*
X225145249Y-100456700D01*
X225145251Y-100456706D01*
X225144449Y-100461772D01*
X225147350Y-100461772D01*
X225147350Y-113851628D01*
X225144607Y-113851628D01*
X225145327Y-113856512D01*
X225145249Y-113856700D01*
X225143343Y-113856700D01*
X225159469Y-113958528D01*
X225163970Y-113967362D01*
X225163970Y-113967363D01*
X225165661Y-113970682D01*
X225206270Y-114050391D01*
X225213277Y-114057399D01*
X225213279Y-114057402D01*
X225272154Y-114116286D01*
X225279165Y-114123298D01*
X225371019Y-114170114D01*
X225380813Y-114171667D01*
X225380814Y-114171667D01*
X225391967Y-114173435D01*
X225472845Y-114186257D01*
X225472845Y-114184301D01*
X225472863Y-114184293D01*
X225477920Y-114185095D01*
X225477920Y-114182200D01*
X238867780Y-114182200D01*
X238867780Y-114185038D01*
X238872835Y-114184293D01*
X238872855Y-114184301D01*
X238872855Y-114186308D01*
X238974696Y-114170162D01*
X239066565Y-114123339D01*
X239073617Y-114116286D01*
X239132462Y-114057432D01*
X239132464Y-114057429D01*
X239139471Y-114050421D01*
X239186279Y-113958544D01*
X239202408Y-113856700D01*
X244193343Y-113856700D01*
X244209475Y-113958545D01*
X244256291Y-114050419D01*
X244329207Y-114123329D01*
X244338043Y-114127830D01*
X244338044Y-114127831D01*
X244412250Y-114165634D01*
X244412252Y-114165635D01*
X244421086Y-114170135D01*
X244522933Y-114186257D01*
X244522933Y-114184301D01*
X244522936Y-114184300D01*
X244528004Y-114185102D01*
X244528004Y-114182200D01*
X257917859Y-114182200D01*
X257917859Y-114185020D01*
X257922881Y-114184280D01*
X257922933Y-114184301D01*
X257922933Y-114186288D01*
X257941278Y-114183381D01*
X257941280Y-114183381D01*
X258004038Y-114173435D01*
X258024773Y-114170149D01*
X258070107Y-114147046D01*
X258107810Y-114127833D01*
X258107813Y-114127831D01*
X258116643Y-114123331D01*
X258189550Y-114050416D01*
X258194054Y-114041577D01*
X258206049Y-114018032D01*
X258236359Y-113958542D01*
X258237912Y-113948740D01*
X258249654Y-113874595D01*
X258249654Y-113874594D01*
X258252488Y-113856700D01*
X263243443Y-113856700D01*
X263246349Y-113875046D01*
X263258022Y-113948747D01*
X263259573Y-113958541D01*
X263285687Y-114009791D01*
X263301877Y-114041564D01*
X263306385Y-114050412D01*
X263379297Y-114123321D01*
X263388133Y-114127823D01*
X263400098Y-114133919D01*
X263471170Y-114170130D01*
X263501829Y-114174985D01*
X263555118Y-114183424D01*
X263555120Y-114183424D01*
X263573011Y-114186257D01*
X263573011Y-114184301D01*
X263573017Y-114184299D01*
X263578083Y-114185101D01*
X263578083Y-114182200D01*
X276967938Y-114182200D01*
X276967938Y-114185002D01*
X276972927Y-114184266D01*
X276973011Y-114184301D01*
X276973011Y-114186268D01*
X277044235Y-114174985D01*
X277065060Y-114171686D01*
X277065061Y-114171686D01*
X277074850Y-114170135D01*
X277145924Y-114133919D01*
X277157890Y-114127822D01*
X277157891Y-114127821D01*
X277166721Y-114123322D01*
X277239629Y-114050412D01*
X277244129Y-114041580D01*
X277244131Y-114041577D01*
X277281939Y-113967371D01*
X277281940Y-113967369D01*
X277286438Y-113958540D01*
X277302568Y-113856700D01*
X277300611Y-113856700D01*
X277300609Y-113856694D01*
X277301411Y-113851628D01*
X277298510Y-113851628D01*
X277298510Y-100461772D01*
X277301293Y-100461772D01*
X277300563Y-100456817D01*
X277300611Y-100456700D01*
X277302557Y-100456700D01*
X282293532Y-100456700D01*
X282295489Y-100456700D01*
X282295491Y-100456706D01*
X282294689Y-100461772D01*
X282297590Y-100461772D01*
X282297590Y-113851628D01*
X282294807Y-113851628D01*
X282295537Y-113856583D01*
X282295489Y-113856700D01*
X282293543Y-113856700D01*
X282309672Y-113958537D01*
X282314173Y-113967371D01*
X282314174Y-113967373D01*
X282315860Y-113970682D01*
X282356480Y-114050405D01*
X282429386Y-114123313D01*
X282521253Y-114170125D01*
X282531044Y-114171676D01*
X282531047Y-114171677D01*
X282567255Y-114177412D01*
X282623089Y-114186257D01*
X282623089Y-114184301D01*
X282623099Y-114184297D01*
X282628162Y-114185099D01*
X282628162Y-114182200D01*
X296018017Y-114182200D01*
X296018017Y-114184983D01*
X296022972Y-114184253D01*
X296023089Y-114184301D01*
X296023089Y-114186247D01*
X296041435Y-114183342D01*
X296041436Y-114183342D01*
X296115075Y-114171681D01*
X296124927Y-114170121D01*
X296195940Y-114133940D01*
X296207962Y-114127815D01*
X296216798Y-114123313D01*
X296289707Y-114050406D01*
X296294212Y-114041565D01*
X296332016Y-113967372D01*
X296332017Y-113967369D01*
X296336517Y-113958538D01*
X296338689Y-113944829D01*
X296349813Y-113874594D01*
X296349813Y-113874593D01*
X296352647Y-113856700D01*
X296350691Y-113856700D01*
X296350688Y-113856692D01*
X296351490Y-113851628D01*
X296348590Y-113851628D01*
X296348590Y-100461772D01*
X296351393Y-100461772D01*
X296350657Y-100456781D01*
X296350691Y-100456700D01*
X296352657Y-100456700D01*
X301343612Y-100456700D01*
X301345569Y-100456700D01*
X301345571Y-100456706D01*
X301344769Y-100461772D01*
X301347670Y-100461772D01*
X301347670Y-113851628D01*
X301344907Y-113851628D01*
X301345632Y-113856548D01*
X301345569Y-113856700D01*
X301343643Y-113856700D01*
X301346549Y-113875046D01*
X301357079Y-113941532D01*
X301359771Y-113958532D01*
X301364270Y-113967363D01*
X301364271Y-113967365D01*
X301402071Y-114041558D01*
X301406575Y-114050398D01*
X301413585Y-114057409D01*
X301413586Y-114057410D01*
X301443012Y-114086839D01*
X301479475Y-114123306D01*
X301571336Y-114170119D01*
X301602570Y-114175069D01*
X301655276Y-114183422D01*
X301655277Y-114183422D01*
X301673167Y-114186257D01*
X301673167Y-114184301D01*
X301673181Y-114184295D01*
X301678241Y-114185097D01*
X301678241Y-114182200D01*
X315068096Y-114182200D01*
X315068096Y-114184967D01*
X315073022Y-114184241D01*
X315073167Y-114184301D01*
X315073167Y-114186227D01*
X315091508Y-114183324D01*
X315091510Y-114183324D01*
X315165208Y-114171658D01*
X315165210Y-114171657D01*
X315175004Y-114170107D01*
X315266875Y-114123305D01*
X315339785Y-114050402D01*
X315386597Y-113958536D01*
X315402727Y-113856700D01*
X315400771Y-113856700D01*
X315400768Y-113856692D01*
X315401570Y-113851628D01*
X315398670Y-113851628D01*
X315398670Y-100461772D01*
X315401492Y-100461772D01*
X315400751Y-100456747D01*
X315400771Y-100456700D01*
X315402757Y-100456700D01*
X320393692Y-100456700D01*
X320395649Y-100456700D01*
X320395651Y-100456706D01*
X320394849Y-100461772D01*
X320397750Y-100461772D01*
X320397750Y-113851628D01*
X320395007Y-113851628D01*
X320395727Y-113856512D01*
X320395649Y-113856700D01*
X320393743Y-113856700D01*
X320409869Y-113958528D01*
X320414370Y-113967362D01*
X320414370Y-113967363D01*
X320416061Y-113970682D01*
X320456670Y-114050391D01*
X320463677Y-114057399D01*
X320463679Y-114057402D01*
X320522554Y-114116286D01*
X320529565Y-114123298D01*
X320621419Y-114170114D01*
X320631213Y-114171667D01*
X320631214Y-114171667D01*
X320642367Y-114173435D01*
X320723245Y-114186257D01*
X320723245Y-114184301D01*
X320723263Y-114184293D01*
X320728320Y-114185095D01*
X320728320Y-114182200D01*
X334118180Y-114182200D01*
X334118180Y-114185038D01*
X334123235Y-114184293D01*
X334123255Y-114184301D01*
X334123255Y-114186308D01*
X334225096Y-114170162D01*
X334316965Y-114123339D01*
X334324017Y-114116286D01*
X334382862Y-114057432D01*
X334382864Y-114057429D01*
X334389871Y-114050421D01*
X334436679Y-113958544D01*
X334452285Y-113860000D01*
X339443743Y-113860000D01*
X339459875Y-113961845D01*
X339506691Y-114053719D01*
X339579607Y-114126629D01*
X339588443Y-114131130D01*
X339588444Y-114131131D01*
X339662650Y-114168934D01*
X339662652Y-114168935D01*
X339671486Y-114173435D01*
X339773333Y-114189557D01*
X339773333Y-114187601D01*
X339773336Y-114187600D01*
X339778404Y-114188402D01*
X339778404Y-114185500D01*
X353168259Y-114185500D01*
X353168259Y-114188320D01*
X353173281Y-114187580D01*
X353173333Y-114187601D01*
X353173333Y-114189588D01*
X353191678Y-114186681D01*
X353191680Y-114186681D01*
X353254055Y-114176796D01*
X353275173Y-114173449D01*
X353320507Y-114150346D01*
X353358210Y-114131133D01*
X353358213Y-114131131D01*
X353367043Y-114126631D01*
X353439950Y-114053716D01*
X353446145Y-114041558D01*
X353458118Y-114018056D01*
X353486759Y-113961842D01*
X353488833Y-113948751D01*
X353500054Y-113877895D01*
X353502888Y-113860000D01*
X353500931Y-113860000D01*
X353500929Y-113859994D01*
X353501450Y-113856700D01*
X358493843Y-113856700D01*
X358496749Y-113875046D01*
X358508422Y-113948747D01*
X358509973Y-113958541D01*
X358536087Y-114009791D01*
X358552277Y-114041564D01*
X358556785Y-114050412D01*
X358629697Y-114123321D01*
X358638533Y-114127823D01*
X358650498Y-114133919D01*
X358721570Y-114170130D01*
X358752229Y-114174985D01*
X358805518Y-114183424D01*
X358805520Y-114183424D01*
X358823411Y-114186257D01*
X358823411Y-114184301D01*
X358823417Y-114184299D01*
X358828483Y-114185101D01*
X358828483Y-114182200D01*
X372218338Y-114182200D01*
X372218338Y-114185002D01*
X372223327Y-114184266D01*
X372223411Y-114184301D01*
X372223411Y-114186268D01*
X372294635Y-114174985D01*
X372315460Y-114171686D01*
X372315461Y-114171686D01*
X372325250Y-114170135D01*
X372396324Y-114133919D01*
X372408290Y-114127822D01*
X372408291Y-114127821D01*
X372417121Y-114123322D01*
X372490029Y-114050412D01*
X372494529Y-114041580D01*
X372494531Y-114041577D01*
X372532339Y-113967371D01*
X372532340Y-113967369D01*
X372536838Y-113958540D01*
X372552968Y-113856700D01*
X382306443Y-113856700D01*
X382309349Y-113875046D01*
X382321022Y-113948747D01*
X382322573Y-113958541D01*
X382348687Y-114009791D01*
X382364877Y-114041564D01*
X382369385Y-114050412D01*
X382442297Y-114123321D01*
X382451133Y-114127823D01*
X382463098Y-114133919D01*
X382534170Y-114170130D01*
X382564829Y-114174985D01*
X382618118Y-114183424D01*
X382618120Y-114183424D01*
X382636011Y-114186257D01*
X382636011Y-114184301D01*
X382636017Y-114184299D01*
X382641083Y-114185101D01*
X382641083Y-114182200D01*
X396030938Y-114182200D01*
X396030938Y-114185002D01*
X396035927Y-114184266D01*
X396036011Y-114184301D01*
X396036011Y-114186268D01*
X396107235Y-114174985D01*
X396128060Y-114171686D01*
X396128061Y-114171686D01*
X396137850Y-114170135D01*
X396208924Y-114133919D01*
X396220890Y-114127822D01*
X396220891Y-114127821D01*
X396229721Y-114123322D01*
X396302629Y-114050412D01*
X396307129Y-114041580D01*
X396307131Y-114041577D01*
X396344939Y-113967371D01*
X396344940Y-113967369D01*
X396349438Y-113958540D01*
X396365568Y-113856700D01*
X396363611Y-113856700D01*
X396363609Y-113856694D01*
X396364411Y-113851628D01*
X396361510Y-113851628D01*
X396361510Y-100461772D01*
X396364293Y-100461772D01*
X396363563Y-100456817D01*
X396363611Y-100456700D01*
X396365557Y-100456700D01*
X396349428Y-100354863D01*
X396302620Y-100262995D01*
X396229714Y-100190087D01*
X396137847Y-100143275D01*
X396128056Y-100141724D01*
X396128053Y-100141723D01*
X396091845Y-100135988D01*
X396036011Y-100127143D01*
X396036011Y-100129099D01*
X396036001Y-100129103D01*
X396030938Y-100128301D01*
X396030938Y-100131200D01*
X382641083Y-100131200D01*
X382641083Y-100128417D01*
X382636128Y-100129147D01*
X382636011Y-100129099D01*
X382636011Y-100127153D01*
X382617665Y-100130058D01*
X382617664Y-100130058D01*
X382553078Y-100140285D01*
X382534173Y-100143279D01*
X382488237Y-100166683D01*
X382451170Y-100185569D01*
X382442302Y-100190087D01*
X382369393Y-100262994D01*
X382364890Y-100271832D01*
X382364889Y-100271833D01*
X382352910Y-100295344D01*
X382322583Y-100354862D01*
X382321033Y-100364649D01*
X382321032Y-100364653D01*
X382319887Y-100371884D01*
X382306453Y-100456700D01*
X382308409Y-100456700D01*
X382308412Y-100456708D01*
X382307610Y-100461772D01*
X382310510Y-100461772D01*
X382310510Y-113851628D01*
X382307707Y-113851628D01*
X382308443Y-113856619D01*
X382308409Y-113856700D01*
X382306443Y-113856700D01*
X372552968Y-113856700D01*
X372551011Y-113856700D01*
X372551009Y-113856694D01*
X372551811Y-113851628D01*
X372548910Y-113851628D01*
X372548910Y-100461772D01*
X372551693Y-100461772D01*
X372550963Y-100456817D01*
X372551011Y-100456700D01*
X372552957Y-100456700D01*
X372536828Y-100354863D01*
X372490020Y-100262995D01*
X372417114Y-100190087D01*
X372325247Y-100143275D01*
X372315456Y-100141724D01*
X372315453Y-100141723D01*
X372279245Y-100135988D01*
X372223411Y-100127143D01*
X372223411Y-100129099D01*
X372223401Y-100129103D01*
X372218338Y-100128301D01*
X372218338Y-100131200D01*
X358828483Y-100131200D01*
X358828483Y-100128417D01*
X358823528Y-100129147D01*
X358823411Y-100129099D01*
X358823411Y-100127153D01*
X358805065Y-100130058D01*
X358805064Y-100130058D01*
X358740478Y-100140285D01*
X358721573Y-100143279D01*
X358675637Y-100166683D01*
X358638570Y-100185569D01*
X358629702Y-100190087D01*
X358556793Y-100262994D01*
X358552290Y-100271832D01*
X358552289Y-100271833D01*
X358540310Y-100295344D01*
X358509983Y-100354862D01*
X358508433Y-100364649D01*
X358508432Y-100364653D01*
X358507287Y-100371884D01*
X358493853Y-100456700D01*
X358495809Y-100456700D01*
X358495812Y-100456708D01*
X358495010Y-100461772D01*
X358497910Y-100461772D01*
X358497910Y-113851628D01*
X358495107Y-113851628D01*
X358495843Y-113856619D01*
X358495809Y-113856700D01*
X358493843Y-113856700D01*
X353501450Y-113856700D01*
X353501731Y-113854928D01*
X353498830Y-113854928D01*
X353498830Y-100465072D01*
X353501593Y-100465072D01*
X353500868Y-100460152D01*
X353500931Y-100460000D01*
X353502857Y-100460000D01*
X353486729Y-100358168D01*
X353480549Y-100346037D01*
X353444426Y-100275136D01*
X353444425Y-100275135D01*
X353439925Y-100266302D01*
X353408268Y-100234641D01*
X353374034Y-100200404D01*
X353367025Y-100193394D01*
X353275164Y-100146581D01*
X353243930Y-100141631D01*
X353191224Y-100133278D01*
X353191223Y-100133278D01*
X353173333Y-100130443D01*
X353173333Y-100132399D01*
X353173319Y-100132405D01*
X353168259Y-100131603D01*
X353168259Y-100134500D01*
X339778404Y-100134500D01*
X339778404Y-100131733D01*
X339773478Y-100132459D01*
X339773333Y-100132399D01*
X339773333Y-100130473D01*
X339754992Y-100133376D01*
X339754990Y-100133376D01*
X339681292Y-100145042D01*
X339681290Y-100145043D01*
X339671496Y-100146593D01*
X339579625Y-100193395D01*
X339506715Y-100266298D01*
X339459903Y-100358164D01*
X339458352Y-100367954D01*
X339458352Y-100367955D01*
X339447202Y-100438354D01*
X339443773Y-100460000D01*
X339445729Y-100460000D01*
X339445732Y-100460008D01*
X339444930Y-100465072D01*
X339447830Y-100465072D01*
X339447830Y-113854928D01*
X339445008Y-113854928D01*
X339445749Y-113859953D01*
X339445729Y-113860000D01*
X339443743Y-113860000D01*
X334452285Y-113860000D01*
X334452808Y-113856700D01*
X334450851Y-113856700D01*
X334450849Y-113856694D01*
X334451651Y-113851628D01*
X334448750Y-113851628D01*
X334448750Y-100461772D01*
X334451493Y-100461772D01*
X334450773Y-100456888D01*
X334450851Y-100456700D01*
X334452757Y-100456700D01*
X334436631Y-100354872D01*
X334389830Y-100263009D01*
X334382823Y-100256001D01*
X334382821Y-100255998D01*
X334323946Y-100197114D01*
X334323945Y-100197114D01*
X334316935Y-100190102D01*
X334225081Y-100143286D01*
X334215287Y-100141733D01*
X334215286Y-100141733D01*
X334192336Y-100138095D01*
X334123255Y-100127143D01*
X334123255Y-100129099D01*
X334123237Y-100129107D01*
X334118180Y-100128305D01*
X334118180Y-100131200D01*
X320728320Y-100131200D01*
X320728320Y-100128362D01*
X320723265Y-100129107D01*
X320723245Y-100129099D01*
X320723245Y-100127092D01*
X320621404Y-100143238D01*
X320529535Y-100190061D01*
X320522525Y-100197073D01*
X320522524Y-100197073D01*
X320463638Y-100255968D01*
X320463636Y-100255971D01*
X320456629Y-100262979D01*
X320409821Y-100354856D01*
X320393692Y-100456700D01*
X315402757Y-100456700D01*
X315386625Y-100354855D01*
X315339809Y-100262981D01*
X315266893Y-100190071D01*
X315258034Y-100185558D01*
X315183850Y-100147766D01*
X315183848Y-100147765D01*
X315175014Y-100143265D01*
X315073167Y-100127143D01*
X315073167Y-100129099D01*
X315073164Y-100129100D01*
X315068096Y-100128298D01*
X315068096Y-100131200D01*
X301678241Y-100131200D01*
X301678241Y-100128380D01*
X301673219Y-100129120D01*
X301673167Y-100129099D01*
X301673167Y-100127112D01*
X301654822Y-100130019D01*
X301654820Y-100130019D01*
X301592445Y-100139904D01*
X301571327Y-100143251D01*
X301525993Y-100166354D01*
X301488290Y-100185567D01*
X301488287Y-100185569D01*
X301479457Y-100190069D01*
X301406550Y-100262984D01*
X301402051Y-100271814D01*
X301402050Y-100271816D01*
X301402040Y-100271835D01*
X301359741Y-100354858D01*
X301358190Y-100364652D01*
X301358189Y-100364656D01*
X301346446Y-100438805D01*
X301343612Y-100456700D01*
X296352657Y-100456700D01*
X296339746Y-100375180D01*
X296338078Y-100364649D01*
X296338077Y-100364646D01*
X296336527Y-100354859D01*
X296295905Y-100275136D01*
X296294219Y-100271827D01*
X296294218Y-100271826D01*
X296289715Y-100262988D01*
X296216803Y-100190079D01*
X296205463Y-100184301D01*
X296133766Y-100147772D01*
X296124930Y-100143270D01*
X296088802Y-100137549D01*
X296040982Y-100129976D01*
X296040980Y-100129976D01*
X296023089Y-100127143D01*
X296023089Y-100129099D01*
X296023083Y-100129101D01*
X296018017Y-100128299D01*
X296018017Y-100131200D01*
X282628162Y-100131200D01*
X282628162Y-100128398D01*
X282623173Y-100129134D01*
X282623089Y-100129099D01*
X282623089Y-100127132D01*
X282576579Y-100134500D01*
X282531040Y-100141714D01*
X282531039Y-100141714D01*
X282521250Y-100143265D01*
X282512370Y-100147790D01*
X282438250Y-100185558D01*
X282429379Y-100190078D01*
X282356471Y-100262988D01*
X282351971Y-100271820D01*
X282351969Y-100271823D01*
X282314163Y-100346026D01*
X282309662Y-100354860D01*
X282293532Y-100456700D01*
X277302557Y-100456700D01*
X277286428Y-100354863D01*
X277239620Y-100262995D01*
X277166714Y-100190087D01*
X277074847Y-100143275D01*
X277065056Y-100141724D01*
X277065053Y-100141723D01*
X277028845Y-100135988D01*
X276973011Y-100127143D01*
X276973011Y-100129099D01*
X276973001Y-100129103D01*
X276967938Y-100128301D01*
X276967938Y-100131200D01*
X263578083Y-100131200D01*
X263578083Y-100128417D01*
X263573128Y-100129147D01*
X263573011Y-100129099D01*
X263573011Y-100127153D01*
X263554665Y-100130058D01*
X263554664Y-100130058D01*
X263490078Y-100140285D01*
X263471173Y-100143279D01*
X263425237Y-100166683D01*
X263388170Y-100185569D01*
X263379302Y-100190087D01*
X263306393Y-100262994D01*
X263301890Y-100271832D01*
X263301889Y-100271833D01*
X263289910Y-100295344D01*
X263259583Y-100354862D01*
X263258033Y-100364649D01*
X263258032Y-100364653D01*
X263256887Y-100371884D01*
X263243453Y-100456700D01*
X263245409Y-100456700D01*
X263245412Y-100456708D01*
X263244610Y-100461772D01*
X263247510Y-100461772D01*
X263247510Y-113851628D01*
X263244707Y-113851628D01*
X263245443Y-113856619D01*
X263245409Y-113856700D01*
X263243443Y-113856700D01*
X258252488Y-113856700D01*
X258250531Y-113856700D01*
X258250529Y-113856694D01*
X258251331Y-113851628D01*
X258248430Y-113851628D01*
X258248430Y-100461772D01*
X258251193Y-100461772D01*
X258250468Y-100456852D01*
X258250531Y-100456700D01*
X258252457Y-100456700D01*
X258239022Y-100371870D01*
X258237880Y-100364660D01*
X258237879Y-100364656D01*
X258236329Y-100354868D01*
X258189525Y-100263002D01*
X258116625Y-100190094D01*
X258024764Y-100143281D01*
X257993530Y-100138331D01*
X257940824Y-100129978D01*
X257940823Y-100129978D01*
X257922933Y-100127143D01*
X257922933Y-100129099D01*
X257922919Y-100129105D01*
X257917859Y-100128303D01*
X257917859Y-100131200D01*
X244528004Y-100131200D01*
X244528004Y-100128433D01*
X244523078Y-100129159D01*
X244522933Y-100129099D01*
X244522933Y-100127173D01*
X244504592Y-100130076D01*
X244504590Y-100130076D01*
X244430892Y-100141742D01*
X244430890Y-100141743D01*
X244421096Y-100143293D01*
X244329225Y-100190095D01*
X244256315Y-100262998D01*
X244209503Y-100354864D01*
X244193373Y-100456700D01*
X244195329Y-100456700D01*
X244195332Y-100456708D01*
X244194530Y-100461772D01*
X244197430Y-100461772D01*
X244197430Y-113851628D01*
X244194608Y-113851628D01*
X244195349Y-113856653D01*
X244195329Y-113856700D01*
X244193343Y-113856700D01*
X239202408Y-113856700D01*
X239200451Y-113856700D01*
X239200449Y-113856694D01*
X239201251Y-113851628D01*
X239198350Y-113851628D01*
X239198350Y-100461772D01*
X239201093Y-100461772D01*
X239200373Y-100456888D01*
X239200451Y-100456700D01*
X239202357Y-100456700D01*
X239186231Y-100354872D01*
X239139430Y-100263009D01*
X239132423Y-100256001D01*
X239132421Y-100255998D01*
X239073546Y-100197114D01*
X239073545Y-100197114D01*
X239066535Y-100190102D01*
X238974681Y-100143286D01*
X238964887Y-100141733D01*
X238964886Y-100141733D01*
X238941936Y-100138095D01*
X238872855Y-100127143D01*
X238872855Y-100129099D01*
X238872837Y-100129107D01*
X238867780Y-100128305D01*
X238867780Y-100131200D01*
X225477920Y-100131200D01*
X225477920Y-100128362D01*
X225472865Y-100129107D01*
X225472845Y-100129099D01*
X225472845Y-100127092D01*
X225371004Y-100143238D01*
X225279135Y-100190061D01*
X225272125Y-100197073D01*
X225272124Y-100197073D01*
X225213238Y-100255968D01*
X225213236Y-100255971D01*
X225206229Y-100262979D01*
X225159421Y-100354856D01*
X225143292Y-100456700D01*
X220152357Y-100456700D01*
X220136225Y-100354855D01*
X220089409Y-100262981D01*
X220016493Y-100190071D01*
X220007634Y-100185558D01*
X219933450Y-100147766D01*
X219933448Y-100147765D01*
X219924614Y-100143265D01*
X219822767Y-100127143D01*
X219822767Y-100129099D01*
X219822764Y-100129100D01*
X219817696Y-100128298D01*
X219817696Y-100131200D01*
X206427841Y-100131200D01*
X206427841Y-100128380D01*
X206422819Y-100129120D01*
X206422767Y-100129099D01*
X206422767Y-100127112D01*
X206404422Y-100130019D01*
X206404420Y-100130019D01*
X206342045Y-100139904D01*
X206320927Y-100143251D01*
X206275593Y-100166354D01*
X206237890Y-100185567D01*
X206237887Y-100185569D01*
X206229057Y-100190069D01*
X206156150Y-100262984D01*
X206151651Y-100271814D01*
X206151650Y-100271816D01*
X206151640Y-100271835D01*
X206109341Y-100354858D01*
X206107790Y-100364652D01*
X206107789Y-100364656D01*
X206096046Y-100438805D01*
X206093212Y-100456700D01*
X201102257Y-100456700D01*
X201089346Y-100375180D01*
X201087678Y-100364649D01*
X201087677Y-100364646D01*
X201086127Y-100354859D01*
X201045505Y-100275136D01*
X201043819Y-100271827D01*
X201043818Y-100271826D01*
X201039315Y-100262988D01*
X200966403Y-100190079D01*
X200955063Y-100184301D01*
X200883366Y-100147772D01*
X200874530Y-100143270D01*
X200838402Y-100137549D01*
X200790582Y-100129976D01*
X200790580Y-100129976D01*
X200772689Y-100127143D01*
X200772689Y-100129099D01*
X200772683Y-100129101D01*
X200767617Y-100128299D01*
X200767617Y-100131200D01*
X187377762Y-100131200D01*
X187377762Y-100128398D01*
X187372773Y-100129134D01*
X187372689Y-100129099D01*
X187372689Y-100127132D01*
X187326179Y-100134500D01*
X187280640Y-100141714D01*
X187280639Y-100141714D01*
X187270850Y-100143265D01*
X187261970Y-100147790D01*
X187187850Y-100185558D01*
X187178979Y-100190078D01*
X187106071Y-100262988D01*
X187101571Y-100271820D01*
X187101569Y-100271823D01*
X187063763Y-100346026D01*
X187059262Y-100354860D01*
X187043132Y-100456700D01*
X182052157Y-100456700D01*
X182036028Y-100354863D01*
X181989220Y-100262995D01*
X181916314Y-100190087D01*
X181824447Y-100143275D01*
X181814656Y-100141724D01*
X181814653Y-100141723D01*
X181778445Y-100135988D01*
X181722611Y-100127143D01*
X181722611Y-100129099D01*
X181722601Y-100129103D01*
X181717538Y-100128301D01*
X181717538Y-100131200D01*
X168327683Y-100131200D01*
X168327683Y-100128417D01*
X168322728Y-100129147D01*
X168322611Y-100129099D01*
X168322611Y-100127153D01*
X168304265Y-100130058D01*
X168304264Y-100130058D01*
X168239678Y-100140285D01*
X168220773Y-100143279D01*
X168174837Y-100166683D01*
X168137770Y-100185569D01*
X168128902Y-100190087D01*
X168055993Y-100262994D01*
X168051490Y-100271832D01*
X168051489Y-100271833D01*
X168039510Y-100295344D01*
X168009183Y-100354862D01*
X168007633Y-100364649D01*
X168007632Y-100364653D01*
X168006487Y-100371884D01*
X167993053Y-100456700D01*
X167995009Y-100456700D01*
X167995012Y-100456708D01*
X167994210Y-100461772D01*
X167997110Y-100461772D01*
X167997110Y-113851628D01*
X167994307Y-113851628D01*
X167995043Y-113856619D01*
X167995009Y-113856700D01*
X167993043Y-113856700D01*
X163002088Y-113856700D01*
X163000131Y-113856700D01*
X163000129Y-113856694D01*
X163000931Y-113851628D01*
X162998030Y-113851628D01*
X162998030Y-100461772D01*
X163000793Y-100461772D01*
X163000068Y-100456852D01*
X163000131Y-100456700D01*
X163002057Y-100456700D01*
X162988622Y-100371870D01*
X162987480Y-100364660D01*
X162987479Y-100364656D01*
X162985929Y-100354868D01*
X162939125Y-100263002D01*
X162866225Y-100190094D01*
X162774364Y-100143281D01*
X162743130Y-100138331D01*
X162690424Y-100129978D01*
X162690423Y-100129978D01*
X162672533Y-100127143D01*
X162672533Y-100129099D01*
X162672519Y-100129105D01*
X162667459Y-100128303D01*
X162667459Y-100131200D01*
X149277604Y-100131200D01*
X149277604Y-100128433D01*
X149272678Y-100129159D01*
X149272533Y-100129099D01*
X149272533Y-100127173D01*
X149254192Y-100130076D01*
X149254190Y-100130076D01*
X149180492Y-100141742D01*
X149180490Y-100141743D01*
X149170696Y-100143293D01*
X149078825Y-100190095D01*
X149005915Y-100262998D01*
X148959103Y-100354864D01*
X148942973Y-100456700D01*
X148944929Y-100456700D01*
X148944932Y-100456708D01*
X148944130Y-100461772D01*
X148947030Y-100461772D01*
X148947030Y-113851628D01*
X148944208Y-113851628D01*
X148944949Y-113856653D01*
X148944929Y-113856700D01*
X148942943Y-113856700D01*
X146474082Y-113856700D01*
X146474082Y-97631332D01*
X164141355Y-97631332D01*
X164161951Y-97866740D01*
X164223111Y-98094995D01*
X164322979Y-98309161D01*
X164458519Y-98502733D01*
X164625613Y-98669827D01*
X164819185Y-98805367D01*
X164824163Y-98807688D01*
X164824166Y-98807690D01*
X165028369Y-98902912D01*
X165033351Y-98905235D01*
X165038659Y-98906657D01*
X165038661Y-98906658D01*
X165256291Y-98964971D01*
X165261606Y-98966395D01*
X165364696Y-98975414D01*
X165435324Y-98981594D01*
X165435331Y-98981594D01*
X165438048Y-98981832D01*
X165555980Y-98981832D01*
X165558697Y-98981594D01*
X165558704Y-98981594D01*
X165629332Y-98975414D01*
X165732422Y-98966395D01*
X165737737Y-98964971D01*
X165955367Y-98906658D01*
X165955369Y-98906657D01*
X165960677Y-98905235D01*
X165965659Y-98902912D01*
X166169862Y-98807690D01*
X166169865Y-98807688D01*
X166174843Y-98805367D01*
X166368415Y-98669827D01*
X166535509Y-98502733D01*
X166538669Y-98498221D01*
X166667892Y-98313671D01*
X166667895Y-98313666D01*
X166671049Y-98309162D01*
X166673372Y-98304180D01*
X166673375Y-98304175D01*
X166768594Y-98099977D01*
X166768595Y-98099976D01*
X166770917Y-98094995D01*
X166832077Y-97866740D01*
X166852673Y-97631332D01*
X354641515Y-97631332D01*
X354662111Y-97866740D01*
X354723271Y-98094995D01*
X354823139Y-98309161D01*
X354958679Y-98502733D01*
X355125773Y-98669827D01*
X355319345Y-98805367D01*
X355324323Y-98807688D01*
X355324326Y-98807690D01*
X355528529Y-98902912D01*
X355533511Y-98905235D01*
X355538819Y-98906657D01*
X355538821Y-98906658D01*
X355756451Y-98964971D01*
X355761766Y-98966395D01*
X355864856Y-98975414D01*
X355935484Y-98981594D01*
X355935491Y-98981594D01*
X355938208Y-98981832D01*
X356056140Y-98981832D01*
X356058857Y-98981594D01*
X356058864Y-98981594D01*
X356129492Y-98975414D01*
X356232582Y-98966395D01*
X356237897Y-98964971D01*
X356455527Y-98906658D01*
X356455529Y-98906657D01*
X356460837Y-98905235D01*
X356465819Y-98902912D01*
X356670022Y-98807690D01*
X356670025Y-98807688D01*
X356675003Y-98805367D01*
X356868575Y-98669827D01*
X357035669Y-98502733D01*
X357038829Y-98498221D01*
X357168052Y-98313671D01*
X357168055Y-98313666D01*
X357171209Y-98309162D01*
X357173532Y-98304180D01*
X357173535Y-98304175D01*
X357268754Y-98099977D01*
X357268755Y-98099976D01*
X357271077Y-98094995D01*
X357332237Y-97866740D01*
X357352833Y-97631332D01*
X357332237Y-97395924D01*
X357271077Y-97167669D01*
X357171209Y-96953503D01*
X357035669Y-96759931D01*
X356868575Y-96592837D01*
X356675003Y-96457297D01*
X356670025Y-96454976D01*
X356670022Y-96454974D01*
X356465819Y-96359752D01*
X356465817Y-96359751D01*
X356460837Y-96357429D01*
X356455529Y-96356007D01*
X356455527Y-96356006D01*
X356237897Y-96297693D01*
X356237896Y-96297693D01*
X356232582Y-96296269D01*
X356129492Y-96287250D01*
X356058864Y-96281070D01*
X356058857Y-96281070D01*
X356056140Y-96280832D01*
X355938208Y-96280832D01*
X355935491Y-96281070D01*
X355935484Y-96281070D01*
X355864856Y-96287250D01*
X355761766Y-96296269D01*
X355756452Y-96297693D01*
X355756451Y-96297693D01*
X355538821Y-96356006D01*
X355538819Y-96356007D01*
X355533511Y-96357429D01*
X355528531Y-96359751D01*
X355528529Y-96359752D01*
X355324326Y-96454974D01*
X355324323Y-96454976D01*
X355319345Y-96457297D01*
X355125773Y-96592837D01*
X354958679Y-96759931D01*
X354955522Y-96764439D01*
X354955520Y-96764442D01*
X354826296Y-96948993D01*
X354823139Y-96953502D01*
X354820816Y-96958484D01*
X354820813Y-96958489D01*
X354725594Y-97162687D01*
X354723271Y-97167669D01*
X354662111Y-97395924D01*
X354641515Y-97631332D01*
X166852673Y-97631332D01*
X166832077Y-97395924D01*
X166770917Y-97167669D01*
X166671049Y-96953503D01*
X166535509Y-96759931D01*
X166368415Y-96592837D01*
X166174843Y-96457297D01*
X166169865Y-96454976D01*
X166169862Y-96454974D01*
X165965659Y-96359752D01*
X165965657Y-96359751D01*
X165960677Y-96357429D01*
X165955369Y-96356007D01*
X165955367Y-96356006D01*
X165737737Y-96297693D01*
X165737736Y-96297693D01*
X165732422Y-96296269D01*
X165629332Y-96287250D01*
X165558704Y-96281070D01*
X165558697Y-96281070D01*
X165555980Y-96280832D01*
X165438048Y-96280832D01*
X165435331Y-96281070D01*
X165435324Y-96281070D01*
X165364696Y-96287250D01*
X165261606Y-96296269D01*
X165256292Y-96297693D01*
X165256291Y-96297693D01*
X165038661Y-96356006D01*
X165038659Y-96356007D01*
X165033351Y-96357429D01*
X165028371Y-96359751D01*
X165028369Y-96359752D01*
X164824166Y-96454974D01*
X164824163Y-96454976D01*
X164819185Y-96457297D01*
X164625613Y-96592837D01*
X164458519Y-96759931D01*
X164455362Y-96764439D01*
X164455360Y-96764442D01*
X164326136Y-96948993D01*
X164322979Y-96953502D01*
X164320656Y-96958484D01*
X164320653Y-96958489D01*
X164225434Y-97162687D01*
X164223111Y-97167669D01*
X164161951Y-97395924D01*
X164141355Y-97631332D01*
X146474082Y-97631332D01*
X146474082Y-94806622D01*
X148942922Y-94806622D01*
X148959060Y-94908468D01*
X149005881Y-95000342D01*
X149078802Y-95073251D01*
X149170684Y-95120057D01*
X149220873Y-95128001D01*
X149254639Y-95133346D01*
X149254640Y-95133346D01*
X149272533Y-95136178D01*
X149272533Y-95134221D01*
X149277604Y-95135024D01*
X149277604Y-95132120D01*
X162667459Y-95132120D01*
X162667459Y-95134920D01*
X162672446Y-95134185D01*
X162672533Y-95134221D01*
X162672533Y-95136188D01*
X162690878Y-95133281D01*
X162690880Y-95133281D01*
X162731306Y-95126874D01*
X162774369Y-95120050D01*
X162783203Y-95115548D01*
X162783207Y-95115547D01*
X162842418Y-95085373D01*
X162866236Y-95073236D01*
X162939142Y-95000327D01*
X162985953Y-94908459D01*
X162987504Y-94898668D01*
X162987505Y-94898666D01*
X162993709Y-94859506D01*
X163002088Y-94806622D01*
X167993022Y-94806622D01*
X167995929Y-94824969D01*
X167995929Y-94824971D01*
X168007607Y-94898667D01*
X168009159Y-94908464D01*
X168055976Y-95000335D01*
X168128891Y-95073243D01*
X168137723Y-95077743D01*
X168137725Y-95077744D01*
X168143975Y-95080928D01*
X168220767Y-95120051D01*
X168230564Y-95121602D01*
X168230566Y-95121603D01*
X168304718Y-95133345D01*
X168304719Y-95133345D01*
X168322611Y-95136178D01*
X168322611Y-95134221D01*
X168322615Y-95134219D01*
X168327683Y-95135022D01*
X168327683Y-95132120D01*
X181717538Y-95132120D01*
X181717538Y-95134902D01*
X181722492Y-95134172D01*
X181722611Y-95134221D01*
X181722611Y-95136168D01*
X181824446Y-95120036D01*
X181916313Y-95073227D01*
X181989221Y-95000322D01*
X181993723Y-94991488D01*
X182031533Y-94917289D01*
X182031534Y-94917286D01*
X182036033Y-94908457D01*
X182052168Y-94806622D01*
X187043122Y-94806622D01*
X187046029Y-94824969D01*
X187057674Y-94898466D01*
X187059257Y-94908460D01*
X187106071Y-95000328D01*
X187178981Y-95073235D01*
X187193357Y-95080560D01*
X187262006Y-95115539D01*
X187270851Y-95120046D01*
X187372689Y-95136178D01*
X187372689Y-95134221D01*
X187372697Y-95134217D01*
X187377762Y-95135020D01*
X187377762Y-95132120D01*
X200767617Y-95132120D01*
X200767617Y-95134884D01*
X200772538Y-95134159D01*
X200772689Y-95134221D01*
X200772689Y-95136147D01*
X200874523Y-95120022D01*
X200951257Y-95080928D01*
X200957556Y-95077719D01*
X200957557Y-95077718D01*
X200966390Y-95073218D01*
X201011137Y-95028476D01*
X201032287Y-95007329D01*
X201032289Y-95007326D01*
X201039299Y-95000317D01*
X201086112Y-94908454D01*
X201088807Y-94891450D01*
X201099412Y-94824514D01*
X201099412Y-94824513D01*
X201102247Y-94806622D01*
X201100291Y-94806622D01*
X201100287Y-94806612D01*
X201101089Y-94801549D01*
X201098190Y-94801549D01*
X201098190Y-81411694D01*
X201100975Y-81411694D01*
X201100244Y-81406735D01*
X201100291Y-81406622D01*
X201102237Y-81406622D01*
X206093212Y-81406622D01*
X206095169Y-81406622D01*
X206095170Y-81406624D01*
X206094367Y-81411694D01*
X206097270Y-81411694D01*
X206097270Y-94801549D01*
X206094488Y-94801549D01*
X206095218Y-94806503D01*
X206095169Y-94806622D01*
X206093222Y-94806622D01*
X206109356Y-94908456D01*
X206113856Y-94917287D01*
X206113857Y-94917290D01*
X206151663Y-94991485D01*
X206151665Y-94991488D01*
X206156166Y-95000321D01*
X206229070Y-95073228D01*
X206237901Y-95077728D01*
X206237902Y-95077729D01*
X206276231Y-95097261D01*
X206320934Y-95120041D01*
X206330728Y-95121593D01*
X206404875Y-95133343D01*
X206404876Y-95133343D01*
X206422767Y-95136178D01*
X206422767Y-95134221D01*
X206422779Y-95134216D01*
X206427841Y-95135018D01*
X206427841Y-95132120D01*
X219817696Y-95132120D01*
X219817696Y-95134867D01*
X219822586Y-95134146D01*
X219822767Y-95134221D01*
X219822767Y-95136127D01*
X219841108Y-95133224D01*
X219841110Y-95133224D01*
X219914441Y-95121616D01*
X219924600Y-95120008D01*
X220016468Y-95073210D01*
X220089377Y-95000312D01*
X220093969Y-94991303D01*
X220131679Y-94917305D01*
X220136191Y-94908452D01*
X220138918Y-94891243D01*
X220149492Y-94824515D01*
X220149492Y-94824513D01*
X220152327Y-94806622D01*
X220150371Y-94806622D01*
X220150365Y-94806608D01*
X220151167Y-94801549D01*
X220148270Y-94801549D01*
X220148270Y-81411694D01*
X220151075Y-81411694D01*
X220150339Y-81406700D01*
X220150371Y-81406622D01*
X220152337Y-81406622D01*
X225143292Y-81406622D01*
X225145249Y-81406622D01*
X225145250Y-81406624D01*
X225144447Y-81411694D01*
X225147350Y-81411694D01*
X225147350Y-94801549D01*
X225144588Y-94801549D01*
X225145313Y-94806467D01*
X225145249Y-94806622D01*
X225143322Y-94806622D01*
X225159455Y-94908451D01*
X225182858Y-94954383D01*
X225201670Y-94991303D01*
X225206261Y-95000314D01*
X225279159Y-95073220D01*
X225294660Y-95081120D01*
X225362156Y-95115519D01*
X225371017Y-95120035D01*
X225380811Y-95121588D01*
X225380812Y-95121588D01*
X225404263Y-95125306D01*
X225472845Y-95136178D01*
X225472845Y-95134221D01*
X225472861Y-95134214D01*
X225477920Y-95135016D01*
X225477920Y-95132120D01*
X238867780Y-95132120D01*
X238867780Y-95134938D01*
X238872800Y-95134198D01*
X238872855Y-95134221D01*
X238872855Y-95136208D01*
X238974692Y-95120064D01*
X239066558Y-95073244D01*
X239139464Y-95000332D01*
X239186274Y-94908461D01*
X239202408Y-94806622D01*
X244193322Y-94806622D01*
X244209460Y-94908468D01*
X244256281Y-95000342D01*
X244329202Y-95073251D01*
X244421084Y-95120057D01*
X244471273Y-95128001D01*
X244505039Y-95133346D01*
X244505040Y-95133346D01*
X244522933Y-95136178D01*
X244522933Y-95134221D01*
X244528004Y-95135024D01*
X244528004Y-95132120D01*
X257917859Y-95132120D01*
X257917859Y-95134920D01*
X257922846Y-95134185D01*
X257922933Y-95134221D01*
X257922933Y-95136188D01*
X257941278Y-95133281D01*
X257941280Y-95133281D01*
X257981706Y-95126874D01*
X258024769Y-95120050D01*
X258033603Y-95115548D01*
X258033607Y-95115547D01*
X258092818Y-95085373D01*
X258116636Y-95073236D01*
X258189542Y-95000327D01*
X258236353Y-94908459D01*
X258237904Y-94898668D01*
X258237905Y-94898666D01*
X258244109Y-94859506D01*
X258252488Y-94806622D01*
X263243422Y-94806622D01*
X263246329Y-94824969D01*
X263246329Y-94824971D01*
X263258007Y-94898667D01*
X263259559Y-94908464D01*
X263306376Y-95000335D01*
X263379291Y-95073243D01*
X263388123Y-95077743D01*
X263388125Y-95077744D01*
X263394375Y-95080928D01*
X263471167Y-95120051D01*
X263480964Y-95121602D01*
X263480966Y-95121603D01*
X263555118Y-95133345D01*
X263555119Y-95133345D01*
X263573011Y-95136178D01*
X263573011Y-95134221D01*
X263573015Y-95134219D01*
X263578083Y-95135022D01*
X263578083Y-95132120D01*
X276967938Y-95132120D01*
X276967938Y-95134902D01*
X276972892Y-95134172D01*
X276973011Y-95134221D01*
X276973011Y-95136168D01*
X277074846Y-95120036D01*
X277166713Y-95073227D01*
X277239621Y-95000322D01*
X277244123Y-94991488D01*
X277281933Y-94917289D01*
X277281934Y-94917286D01*
X277286433Y-94908457D01*
X277302568Y-94806622D01*
X282293522Y-94806622D01*
X282296429Y-94824969D01*
X282308074Y-94898466D01*
X282309657Y-94908460D01*
X282356471Y-95000328D01*
X282429381Y-95073235D01*
X282443757Y-95080560D01*
X282512406Y-95115539D01*
X282521251Y-95120046D01*
X282623089Y-95136178D01*
X282623089Y-95134221D01*
X282623097Y-95134217D01*
X282628162Y-95135020D01*
X282628162Y-95132120D01*
X296018017Y-95132120D01*
X296018017Y-95134884D01*
X296022938Y-95134159D01*
X296023089Y-95134221D01*
X296023089Y-95136147D01*
X296124923Y-95120022D01*
X296201657Y-95080928D01*
X296207956Y-95077719D01*
X296207957Y-95077718D01*
X296216790Y-95073218D01*
X296261537Y-95028476D01*
X296282687Y-95007329D01*
X296282689Y-95007326D01*
X296289699Y-95000317D01*
X296336512Y-94908454D01*
X296339207Y-94891450D01*
X296349812Y-94824514D01*
X296349812Y-94824513D01*
X296352647Y-94806622D01*
X296350691Y-94806622D01*
X296350687Y-94806612D01*
X296351489Y-94801549D01*
X296348590Y-94801549D01*
X296348590Y-81411694D01*
X296351375Y-81411694D01*
X296350644Y-81406735D01*
X296350691Y-81406622D01*
X296352637Y-81406622D01*
X301343612Y-81406622D01*
X301345569Y-81406622D01*
X301345570Y-81406624D01*
X301344767Y-81411694D01*
X301347670Y-81411694D01*
X301347670Y-94801549D01*
X301344888Y-94801549D01*
X301345618Y-94806503D01*
X301345569Y-94806622D01*
X301343622Y-94806622D01*
X301359756Y-94908456D01*
X301364256Y-94917287D01*
X301364257Y-94917290D01*
X301402063Y-94991485D01*
X301402065Y-94991488D01*
X301406566Y-95000321D01*
X301479470Y-95073228D01*
X301488301Y-95077728D01*
X301488302Y-95077729D01*
X301526631Y-95097261D01*
X301571334Y-95120041D01*
X301581128Y-95121593D01*
X301655275Y-95133343D01*
X301655276Y-95133343D01*
X301673167Y-95136178D01*
X301673167Y-95134221D01*
X301673179Y-95134216D01*
X301678241Y-95135018D01*
X301678241Y-95132120D01*
X315068096Y-95132120D01*
X315068096Y-95134867D01*
X315072986Y-95134146D01*
X315073167Y-95134221D01*
X315073167Y-95136127D01*
X315091508Y-95133224D01*
X315091510Y-95133224D01*
X315164841Y-95121616D01*
X315175000Y-95120008D01*
X315266868Y-95073210D01*
X315339777Y-95000312D01*
X315344369Y-94991303D01*
X315382079Y-94917305D01*
X315386591Y-94908452D01*
X315389318Y-94891243D01*
X315399892Y-94824515D01*
X315399892Y-94824513D01*
X315402727Y-94806622D01*
X315400771Y-94806622D01*
X315400765Y-94806608D01*
X315401567Y-94801549D01*
X315398670Y-94801549D01*
X315398670Y-81411694D01*
X315401475Y-81411694D01*
X315400739Y-81406700D01*
X315400771Y-81406622D01*
X315402737Y-81406622D01*
X320393692Y-81406622D01*
X320395649Y-81406622D01*
X320395650Y-81406624D01*
X320394847Y-81411694D01*
X320397750Y-81411694D01*
X320397750Y-94801549D01*
X320394988Y-94801549D01*
X320395713Y-94806467D01*
X320395649Y-94806622D01*
X320393722Y-94806622D01*
X320409855Y-94908451D01*
X320433258Y-94954383D01*
X320452070Y-94991303D01*
X320456661Y-95000314D01*
X320529559Y-95073220D01*
X320545060Y-95081120D01*
X320612556Y-95115519D01*
X320621417Y-95120035D01*
X320631211Y-95121588D01*
X320631212Y-95121588D01*
X320654663Y-95125306D01*
X320723245Y-95136178D01*
X320723245Y-95134221D01*
X320723261Y-95134214D01*
X320728320Y-95135016D01*
X320728320Y-95132120D01*
X334118180Y-95132120D01*
X334118180Y-95134938D01*
X334123200Y-95134198D01*
X334123255Y-95134221D01*
X334123255Y-95136208D01*
X334225092Y-95120064D01*
X334316958Y-95073244D01*
X334389864Y-95000332D01*
X334436674Y-94908461D01*
X334452808Y-94806622D01*
X339443722Y-94806622D01*
X339459860Y-94908468D01*
X339506681Y-95000342D01*
X339579602Y-95073251D01*
X339671484Y-95120057D01*
X339721673Y-95128001D01*
X339755439Y-95133346D01*
X339755440Y-95133346D01*
X339773333Y-95136178D01*
X339773333Y-95134221D01*
X339778404Y-95135024D01*
X339778404Y-95132120D01*
X353168259Y-95132120D01*
X353168259Y-95134920D01*
X353173246Y-95134185D01*
X353173333Y-95134221D01*
X353173333Y-95136188D01*
X353191678Y-95133281D01*
X353191680Y-95133281D01*
X353232106Y-95126874D01*
X353275169Y-95120050D01*
X353284003Y-95115548D01*
X353284007Y-95115547D01*
X353343218Y-95085373D01*
X353367036Y-95073236D01*
X353439942Y-95000327D01*
X353486753Y-94908459D01*
X353488304Y-94898668D01*
X353488305Y-94898666D01*
X353494509Y-94859506D01*
X353502888Y-94806622D01*
X358493822Y-94806622D01*
X358496729Y-94824969D01*
X358496729Y-94824971D01*
X358508407Y-94898667D01*
X358509959Y-94908464D01*
X358556776Y-95000335D01*
X358629691Y-95073243D01*
X358638523Y-95077743D01*
X358638525Y-95077744D01*
X358644775Y-95080928D01*
X358721567Y-95120051D01*
X358731364Y-95121602D01*
X358731366Y-95121603D01*
X358805518Y-95133345D01*
X358805519Y-95133345D01*
X358823411Y-95136178D01*
X358823411Y-95134221D01*
X358823415Y-95134219D01*
X358828483Y-95135022D01*
X358828483Y-95132120D01*
X372218338Y-95132120D01*
X372218338Y-95134902D01*
X372223292Y-95134172D01*
X372223411Y-95134221D01*
X372223411Y-95136168D01*
X372325246Y-95120036D01*
X372417113Y-95073227D01*
X372490021Y-95000322D01*
X372494523Y-94991488D01*
X372532333Y-94917289D01*
X372532334Y-94917286D01*
X372536833Y-94908457D01*
X372552968Y-94806622D01*
X372551011Y-94806622D01*
X372551008Y-94806614D01*
X372551037Y-94806431D01*
X382306314Y-94806431D01*
X382309221Y-94824777D01*
X382309221Y-94824778D01*
X382320900Y-94898476D01*
X382322452Y-94908269D01*
X382326953Y-94917102D01*
X382326954Y-94917104D01*
X382364766Y-94991303D01*
X382369268Y-95000137D01*
X382397609Y-95028476D01*
X382435168Y-95066034D01*
X382435170Y-95066036D01*
X382442179Y-95073044D01*
X382534050Y-95119854D01*
X382543843Y-95121405D01*
X382543845Y-95121406D01*
X382585904Y-95128068D01*
X382635889Y-95135986D01*
X382635889Y-95134029D01*
X382635897Y-95134026D01*
X382640962Y-95134828D01*
X382640962Y-95131928D01*
X396030817Y-95131928D01*
X396030817Y-95134684D01*
X396035724Y-95133961D01*
X396035889Y-95134029D01*
X396035889Y-95135947D01*
X396137721Y-95119822D01*
X396213689Y-95081120D01*
X396220752Y-95077522D01*
X396220754Y-95077520D01*
X396229588Y-95073020D01*
X396302496Y-95000121D01*
X396325560Y-94954863D01*
X396344807Y-94917098D01*
X396344808Y-94917095D01*
X396349310Y-94908261D01*
X396362509Y-94824970D01*
X396362612Y-94824323D01*
X396362612Y-94824322D01*
X396365447Y-94806431D01*
X396363491Y-94806431D01*
X396363485Y-94806417D01*
X396364287Y-94801357D01*
X396361390Y-94801357D01*
X396361390Y-81411502D01*
X396364168Y-81411502D01*
X396363439Y-81406557D01*
X396363491Y-81406431D01*
X396365429Y-81406431D01*
X396349308Y-81304591D01*
X396302503Y-81212719D01*
X396229597Y-81139809D01*
X396220715Y-81135283D01*
X396181875Y-81115492D01*
X396137728Y-81092998D01*
X396114014Y-81089243D01*
X396053782Y-81079704D01*
X396053780Y-81079704D01*
X396035889Y-81076871D01*
X396035889Y-81078827D01*
X396035883Y-81078829D01*
X396030817Y-81078027D01*
X396030817Y-81080928D01*
X382640962Y-81080928D01*
X382640962Y-81078098D01*
X382635923Y-81078841D01*
X382635889Y-81078827D01*
X382635889Y-81076832D01*
X382534044Y-81092967D01*
X382525210Y-81097469D01*
X382525209Y-81097469D01*
X382488107Y-81116376D01*
X382442170Y-81139785D01*
X382435162Y-81146794D01*
X382435159Y-81146796D01*
X382376275Y-81205687D01*
X382369260Y-81212703D01*
X382364757Y-81221543D01*
X382364756Y-81221544D01*
X382352776Y-81245062D01*
X382322454Y-81304583D01*
X382306332Y-81406431D01*
X382308289Y-81406431D01*
X382308290Y-81406432D01*
X382307487Y-81411502D01*
X382310390Y-81411502D01*
X382310390Y-94801357D01*
X382307582Y-94801357D01*
X382308319Y-94806358D01*
X382308289Y-94806431D01*
X382306314Y-94806431D01*
X372551037Y-94806431D01*
X372551810Y-94801549D01*
X372548910Y-94801549D01*
X372548910Y-81411694D01*
X372551675Y-81411694D01*
X372550949Y-81406771D01*
X372551011Y-81406622D01*
X372552937Y-81406622D01*
X372550002Y-81388085D01*
X372538365Y-81314580D01*
X372538364Y-81314576D01*
X372536814Y-81304786D01*
X372490011Y-81212917D01*
X372417109Y-81140008D01*
X372371177Y-81116602D01*
X372334080Y-81097698D01*
X372334079Y-81097698D01*
X372325245Y-81093196D01*
X372223411Y-81077063D01*
X372223411Y-81079019D01*
X372223401Y-81079023D01*
X372218338Y-81078221D01*
X372218338Y-81081120D01*
X358828483Y-81081120D01*
X358828483Y-81078317D01*
X358823492Y-81079053D01*
X358823411Y-81079019D01*
X358823411Y-81077053D01*
X358757972Y-81087416D01*
X358731368Y-81091629D01*
X358731367Y-81091629D01*
X358721569Y-81093181D01*
X358712730Y-81097685D01*
X358712729Y-81097685D01*
X358712688Y-81097706D01*
X358629695Y-81139992D01*
X358556786Y-81212904D01*
X358552287Y-81221735D01*
X358552283Y-81221741D01*
X358514481Y-81295938D01*
X358509977Y-81304779D01*
X358508427Y-81314571D01*
X358508426Y-81314573D01*
X358501773Y-81356599D01*
X358493853Y-81406622D01*
X358495809Y-81406622D01*
X358495811Y-81406626D01*
X358495008Y-81411694D01*
X358497910Y-81411694D01*
X358497910Y-94801549D01*
X358495089Y-94801549D01*
X358495830Y-94806572D01*
X358495809Y-94806622D01*
X358493822Y-94806622D01*
X353502888Y-94806622D01*
X353500931Y-94806622D01*
X353500927Y-94806613D01*
X353501730Y-94801549D01*
X353498830Y-94801549D01*
X353498830Y-81411694D01*
X353501575Y-81411694D01*
X353500855Y-81406806D01*
X353500931Y-81406622D01*
X353502837Y-81406622D01*
X353499933Y-81388278D01*
X353488267Y-81314586D01*
X353488267Y-81314585D01*
X353486716Y-81304790D01*
X353439917Y-81212924D01*
X353367020Y-81140016D01*
X353358184Y-81135513D01*
X353358183Y-81135512D01*
X353284001Y-81097706D01*
X353284002Y-81097706D01*
X353275162Y-81093201D01*
X353215249Y-81083706D01*
X353191223Y-81079898D01*
X353191222Y-81079898D01*
X353173333Y-81077063D01*
X353173333Y-81079019D01*
X353173319Y-81079025D01*
X353168259Y-81078223D01*
X353168259Y-81081120D01*
X339778404Y-81081120D01*
X339778404Y-81078334D01*
X339773444Y-81079065D01*
X339773333Y-81079019D01*
X339773333Y-81077073D01*
X339754987Y-81079977D01*
X339729588Y-81083998D01*
X339671491Y-81093194D01*
X339579618Y-81140001D01*
X339506707Y-81212909D01*
X339459898Y-81304781D01*
X339443773Y-81406622D01*
X339445729Y-81406622D01*
X339445731Y-81406626D01*
X339444928Y-81411694D01*
X339447830Y-81411694D01*
X339447830Y-94801549D01*
X339444989Y-94801549D01*
X339445735Y-94806608D01*
X339445729Y-94806622D01*
X339443722Y-94806622D01*
X334452808Y-94806622D01*
X334450851Y-94806622D01*
X334450848Y-94806614D01*
X334451650Y-94801549D01*
X334448750Y-94801549D01*
X334448750Y-81411694D01*
X334451475Y-81411694D01*
X334450760Y-81406842D01*
X334450851Y-81406622D01*
X334452737Y-81406622D01*
X334439310Y-81321804D01*
X334438168Y-81314589D01*
X334438167Y-81314586D01*
X334436617Y-81304795D01*
X334432113Y-81295952D01*
X334406290Y-81245259D01*
X334389822Y-81212931D01*
X334353364Y-81176465D01*
X334323940Y-81147034D01*
X334323938Y-81147033D01*
X334316931Y-81140024D01*
X334225079Y-81093207D01*
X334215288Y-81091655D01*
X334215286Y-81091654D01*
X334182028Y-81086381D01*
X334123255Y-81077063D01*
X334123255Y-81079019D01*
X334123237Y-81079027D01*
X334118180Y-81078225D01*
X334118180Y-81081120D01*
X320728320Y-81081120D01*
X320728320Y-81078262D01*
X320723245Y-81079010D01*
X320723245Y-81076992D01*
X320673845Y-81084824D01*
X320631192Y-81091586D01*
X320631189Y-81091587D01*
X320621400Y-81093139D01*
X320574325Y-81117133D01*
X320538364Y-81135462D01*
X320538363Y-81135463D01*
X320529528Y-81139966D01*
X320456621Y-81212890D01*
X320452120Y-81221725D01*
X320452119Y-81221727D01*
X320414315Y-81295938D01*
X320414314Y-81295941D01*
X320409815Y-81304773D01*
X320393692Y-81406622D01*
X315402737Y-81406622D01*
X315386612Y-81304778D01*
X315382011Y-81295747D01*
X315344303Y-81221738D01*
X315344301Y-81221735D01*
X315339801Y-81212903D01*
X315266888Y-81139993D01*
X315175012Y-81093185D01*
X315073167Y-81077063D01*
X315073167Y-81079019D01*
X315073164Y-81079020D01*
X315068096Y-81078218D01*
X315068096Y-81081120D01*
X301678241Y-81081120D01*
X301678241Y-81078280D01*
X301673184Y-81079026D01*
X301673167Y-81079019D01*
X301673167Y-81077012D01*
X301654818Y-81079920D01*
X301581113Y-81091601D01*
X301581111Y-81091602D01*
X301571322Y-81093153D01*
X301479450Y-81139974D01*
X301406542Y-81212894D01*
X301359736Y-81304775D01*
X301343612Y-81406622D01*
X296352637Y-81406622D01*
X296339208Y-81321804D01*
X296338064Y-81314577D01*
X296338063Y-81314573D01*
X296336513Y-81304782D01*
X296289706Y-81212910D01*
X296216799Y-81140000D01*
X296133799Y-81097710D01*
X296133768Y-81097694D01*
X296133767Y-81097694D01*
X296124928Y-81093190D01*
X296115131Y-81091638D01*
X296115129Y-81091638D01*
X296040982Y-81079896D01*
X296040980Y-81079896D01*
X296023089Y-81077063D01*
X296023089Y-81079019D01*
X296023083Y-81079021D01*
X296018017Y-81078219D01*
X296018017Y-81081120D01*
X282628162Y-81081120D01*
X282628162Y-81078298D01*
X282623137Y-81079039D01*
X282623089Y-81079019D01*
X282623089Y-81077032D01*
X282521245Y-81093166D01*
X282512415Y-81097666D01*
X282512411Y-81097667D01*
X282453586Y-81127644D01*
X282429372Y-81139983D01*
X282422364Y-81146992D01*
X282422361Y-81146994D01*
X282363675Y-81205687D01*
X282356464Y-81212899D01*
X282351963Y-81221733D01*
X282351962Y-81221735D01*
X282339984Y-81245247D01*
X282309656Y-81304777D01*
X282293532Y-81406622D01*
X282295489Y-81406622D01*
X282295490Y-81406624D01*
X282294687Y-81411694D01*
X282297590Y-81411694D01*
X282297590Y-94801549D01*
X282294788Y-94801549D01*
X282295524Y-94806538D01*
X282295489Y-94806622D01*
X282293522Y-94806622D01*
X277302568Y-94806622D01*
X277300611Y-94806622D01*
X277300608Y-94806614D01*
X277301410Y-94801549D01*
X277298510Y-94801549D01*
X277298510Y-81411694D01*
X277301275Y-81411694D01*
X277300549Y-81406771D01*
X277300611Y-81406622D01*
X277302537Y-81406622D01*
X277299602Y-81388085D01*
X277287965Y-81314580D01*
X277287964Y-81314576D01*
X277286414Y-81304786D01*
X277239611Y-81212917D01*
X277166709Y-81140008D01*
X277120777Y-81116602D01*
X277083680Y-81097698D01*
X277083679Y-81097698D01*
X277074845Y-81093196D01*
X276973011Y-81077063D01*
X276973011Y-81079019D01*
X276973001Y-81079023D01*
X276967938Y-81078221D01*
X276967938Y-81081120D01*
X263578083Y-81081120D01*
X263578083Y-81078317D01*
X263573092Y-81079053D01*
X263573011Y-81079019D01*
X263573011Y-81077053D01*
X263507572Y-81087416D01*
X263480968Y-81091629D01*
X263480967Y-81091629D01*
X263471169Y-81093181D01*
X263462330Y-81097685D01*
X263462329Y-81097685D01*
X263462288Y-81097706D01*
X263379295Y-81139992D01*
X263306386Y-81212904D01*
X263301887Y-81221735D01*
X263301883Y-81221741D01*
X263264081Y-81295938D01*
X263259577Y-81304779D01*
X263258027Y-81314571D01*
X263258026Y-81314573D01*
X263251373Y-81356599D01*
X263243453Y-81406622D01*
X263245409Y-81406622D01*
X263245411Y-81406626D01*
X263244608Y-81411694D01*
X263247510Y-81411694D01*
X263247510Y-94801549D01*
X263244689Y-94801549D01*
X263245430Y-94806572D01*
X263245409Y-94806622D01*
X263243422Y-94806622D01*
X258252488Y-94806622D01*
X258250531Y-94806622D01*
X258250527Y-94806613D01*
X258251330Y-94801549D01*
X258248430Y-94801549D01*
X258248430Y-81411694D01*
X258251175Y-81411694D01*
X258250455Y-81406806D01*
X258250531Y-81406622D01*
X258252437Y-81406622D01*
X258249533Y-81388278D01*
X258237867Y-81314586D01*
X258237867Y-81314585D01*
X258236316Y-81304790D01*
X258189517Y-81212924D01*
X258116620Y-81140016D01*
X258107784Y-81135513D01*
X258107783Y-81135512D01*
X258033601Y-81097706D01*
X258033602Y-81097706D01*
X258024762Y-81093201D01*
X257964849Y-81083706D01*
X257940823Y-81079898D01*
X257940822Y-81079898D01*
X257922933Y-81077063D01*
X257922933Y-81079019D01*
X257922919Y-81079025D01*
X257917859Y-81078223D01*
X257917859Y-81081120D01*
X244528004Y-81081120D01*
X244528004Y-81078334D01*
X244523044Y-81079065D01*
X244522933Y-81079019D01*
X244522933Y-81077073D01*
X244504587Y-81079977D01*
X244479188Y-81083998D01*
X244421091Y-81093194D01*
X244329218Y-81140001D01*
X244256307Y-81212909D01*
X244209498Y-81304781D01*
X244193373Y-81406622D01*
X244195329Y-81406622D01*
X244195331Y-81406626D01*
X244194528Y-81411694D01*
X244197430Y-81411694D01*
X244197430Y-94801549D01*
X244194589Y-94801549D01*
X244195335Y-94806608D01*
X244195329Y-94806622D01*
X244193322Y-94806622D01*
X239202408Y-94806622D01*
X239200451Y-94806622D01*
X239200448Y-94806614D01*
X239201250Y-94801549D01*
X239198350Y-94801549D01*
X239198350Y-81411694D01*
X239201075Y-81411694D01*
X239200360Y-81406842D01*
X239200451Y-81406622D01*
X239202337Y-81406622D01*
X239188910Y-81321804D01*
X239187768Y-81314589D01*
X239187767Y-81314586D01*
X239186217Y-81304795D01*
X239181713Y-81295952D01*
X239155890Y-81245259D01*
X239139422Y-81212931D01*
X239102964Y-81176465D01*
X239073540Y-81147034D01*
X239073538Y-81147033D01*
X239066531Y-81140024D01*
X238974679Y-81093207D01*
X238964888Y-81091655D01*
X238964886Y-81091654D01*
X238931628Y-81086381D01*
X238872855Y-81077063D01*
X238872855Y-81079019D01*
X238872837Y-81079027D01*
X238867780Y-81078225D01*
X238867780Y-81081120D01*
X225477920Y-81081120D01*
X225477920Y-81078262D01*
X225472845Y-81079010D01*
X225472845Y-81076992D01*
X225423445Y-81084824D01*
X225380792Y-81091586D01*
X225380789Y-81091587D01*
X225371000Y-81093139D01*
X225323925Y-81117133D01*
X225287964Y-81135462D01*
X225287963Y-81135463D01*
X225279128Y-81139966D01*
X225206221Y-81212890D01*
X225201720Y-81221725D01*
X225201719Y-81221727D01*
X225163915Y-81295938D01*
X225163914Y-81295941D01*
X225159415Y-81304773D01*
X225143292Y-81406622D01*
X220152337Y-81406622D01*
X220136212Y-81304778D01*
X220131611Y-81295747D01*
X220093903Y-81221738D01*
X220093901Y-81221735D01*
X220089401Y-81212903D01*
X220016488Y-81139993D01*
X219924612Y-81093185D01*
X219822767Y-81077063D01*
X219822767Y-81079019D01*
X219822764Y-81079020D01*
X219817696Y-81078218D01*
X219817696Y-81081120D01*
X206427841Y-81081120D01*
X206427841Y-81078280D01*
X206422784Y-81079026D01*
X206422767Y-81079019D01*
X206422767Y-81077012D01*
X206404418Y-81079920D01*
X206330713Y-81091601D01*
X206330711Y-81091602D01*
X206320922Y-81093153D01*
X206229050Y-81139974D01*
X206156142Y-81212894D01*
X206109336Y-81304775D01*
X206093212Y-81406622D01*
X201102237Y-81406622D01*
X201088808Y-81321804D01*
X201087664Y-81314577D01*
X201087663Y-81314573D01*
X201086113Y-81304782D01*
X201039306Y-81212910D01*
X200966399Y-81140000D01*
X200883399Y-81097710D01*
X200883368Y-81097694D01*
X200883367Y-81097694D01*
X200874528Y-81093190D01*
X200864731Y-81091638D01*
X200864729Y-81091638D01*
X200790582Y-81079896D01*
X200790580Y-81079896D01*
X200772689Y-81077063D01*
X200772689Y-81079019D01*
X200772683Y-81079021D01*
X200767617Y-81078219D01*
X200767617Y-81081120D01*
X187377762Y-81081120D01*
X187377762Y-81078298D01*
X187372737Y-81079039D01*
X187372689Y-81079019D01*
X187372689Y-81077032D01*
X187270845Y-81093166D01*
X187262015Y-81097666D01*
X187262011Y-81097667D01*
X187203186Y-81127644D01*
X187178972Y-81139983D01*
X187171964Y-81146992D01*
X187171961Y-81146994D01*
X187113275Y-81205687D01*
X187106064Y-81212899D01*
X187101563Y-81221733D01*
X187101562Y-81221735D01*
X187089584Y-81245247D01*
X187059256Y-81304777D01*
X187043132Y-81406622D01*
X187045089Y-81406622D01*
X187045090Y-81406624D01*
X187044287Y-81411694D01*
X187047190Y-81411694D01*
X187047190Y-94801549D01*
X187044388Y-94801549D01*
X187045124Y-94806538D01*
X187045089Y-94806622D01*
X187043122Y-94806622D01*
X182052168Y-94806622D01*
X182050211Y-94806622D01*
X182050208Y-94806614D01*
X182051010Y-94801549D01*
X182048110Y-94801549D01*
X182048110Y-81411694D01*
X182050875Y-81411694D01*
X182050149Y-81406771D01*
X182050211Y-81406622D01*
X182052137Y-81406622D01*
X182049202Y-81388085D01*
X182037565Y-81314580D01*
X182037564Y-81314576D01*
X182036014Y-81304786D01*
X181989211Y-81212917D01*
X181916309Y-81140008D01*
X181870377Y-81116602D01*
X181833280Y-81097698D01*
X181833279Y-81097698D01*
X181824445Y-81093196D01*
X181722611Y-81077063D01*
X181722611Y-81079019D01*
X181722601Y-81079023D01*
X181717538Y-81078221D01*
X181717538Y-81081120D01*
X168327683Y-81081120D01*
X168327683Y-81078317D01*
X168322692Y-81079053D01*
X168322611Y-81079019D01*
X168322611Y-81077053D01*
X168257172Y-81087416D01*
X168230568Y-81091629D01*
X168230567Y-81091629D01*
X168220769Y-81093181D01*
X168211930Y-81097685D01*
X168211929Y-81097685D01*
X168211888Y-81097706D01*
X168128895Y-81139992D01*
X168055986Y-81212904D01*
X168051487Y-81221735D01*
X168051483Y-81221741D01*
X168013681Y-81295938D01*
X168009177Y-81304779D01*
X168007627Y-81314571D01*
X168007626Y-81314573D01*
X168000973Y-81356599D01*
X167993053Y-81406622D01*
X167995009Y-81406622D01*
X167995011Y-81406626D01*
X167994208Y-81411694D01*
X167997110Y-81411694D01*
X167997110Y-94801549D01*
X167994289Y-94801549D01*
X167995030Y-94806572D01*
X167995009Y-94806622D01*
X167993022Y-94806622D01*
X163002088Y-94806622D01*
X163000131Y-94806622D01*
X163000127Y-94806613D01*
X163000930Y-94801549D01*
X162998030Y-94801549D01*
X162998030Y-81411694D01*
X163000775Y-81411694D01*
X163000055Y-81406806D01*
X163000131Y-81406622D01*
X163002037Y-81406622D01*
X162999133Y-81388278D01*
X162987467Y-81314586D01*
X162987467Y-81314585D01*
X162985916Y-81304790D01*
X162939117Y-81212924D01*
X162866220Y-81140016D01*
X162857384Y-81135513D01*
X162857383Y-81135512D01*
X162783201Y-81097706D01*
X162783202Y-81097706D01*
X162774362Y-81093201D01*
X162714449Y-81083706D01*
X162690423Y-81079898D01*
X162690422Y-81079898D01*
X162672533Y-81077063D01*
X162672533Y-81079019D01*
X162672519Y-81079025D01*
X162667459Y-81078223D01*
X162667459Y-81081120D01*
X149277604Y-81081120D01*
X149277604Y-81078334D01*
X149272644Y-81079065D01*
X149272533Y-81079019D01*
X149272533Y-81077073D01*
X149254187Y-81079977D01*
X149228788Y-81083998D01*
X149170691Y-81093194D01*
X149078818Y-81140001D01*
X149005907Y-81212909D01*
X148959098Y-81304781D01*
X148942973Y-81406622D01*
X148944929Y-81406622D01*
X148944931Y-81406626D01*
X148944128Y-81411694D01*
X148947030Y-81411694D01*
X148947030Y-94801549D01*
X148944189Y-94801549D01*
X148944935Y-94806608D01*
X148944929Y-94806622D01*
X148942922Y-94806622D01*
X146474082Y-94806622D01*
X146474082Y-75756544D01*
X148942902Y-75756544D01*
X148959047Y-75858391D01*
X148963547Y-75867220D01*
X148963549Y-75867225D01*
X149001367Y-75941424D01*
X149005873Y-75950265D01*
X149078797Y-76023172D01*
X149170682Y-76069977D01*
X149222833Y-76078231D01*
X149254639Y-76083266D01*
X149254640Y-76083266D01*
X149272533Y-76086098D01*
X149272533Y-76084141D01*
X149277604Y-76084944D01*
X149277604Y-76082040D01*
X162667459Y-76082040D01*
X162667459Y-76084820D01*
X162672410Y-76084090D01*
X162672533Y-76084141D01*
X162672533Y-76086088D01*
X162690879Y-76083181D01*
X162690880Y-76083181D01*
X162764508Y-76071513D01*
X162774365Y-76069951D01*
X162783199Y-76065450D01*
X162783201Y-76065449D01*
X162857395Y-76027643D01*
X162857398Y-76027641D01*
X162866229Y-76023141D01*
X162939135Y-75950238D01*
X162943641Y-75941397D01*
X162981438Y-75867225D01*
X162985948Y-75858375D01*
X163002088Y-75756544D01*
X167993002Y-75756544D01*
X168009145Y-75858387D01*
X168055968Y-75950258D01*
X168128887Y-76023165D01*
X168137721Y-76027665D01*
X168137723Y-76027667D01*
X168211635Y-76065321D01*
X168220765Y-76069972D01*
X168322611Y-76086098D01*
X168322611Y-76084141D01*
X168322613Y-76084140D01*
X168327683Y-76084943D01*
X168327683Y-76082040D01*
X181717538Y-76082040D01*
X181717538Y-76084802D01*
X181722456Y-76084077D01*
X181722611Y-76084141D01*
X181722611Y-76086068D01*
X181763335Y-76079617D01*
X181814647Y-76071490D01*
X181814650Y-76071489D01*
X181824442Y-76069938D01*
X181901943Y-76030451D01*
X181907474Y-76027633D01*
X181916306Y-76023133D01*
X181989213Y-75950233D01*
X182036028Y-75858373D01*
X182038723Y-75841371D01*
X182049332Y-75774439D01*
X182049332Y-75774436D01*
X182052168Y-75756544D01*
X187043102Y-75756544D01*
X187059244Y-75858383D01*
X187106063Y-75950251D01*
X187178976Y-76023157D01*
X187187807Y-76027657D01*
X187187808Y-76027657D01*
X187262016Y-76065466D01*
X187262018Y-76065467D01*
X187270849Y-76069966D01*
X187372689Y-76086098D01*
X187372689Y-76084141D01*
X187372697Y-76084138D01*
X187377762Y-76084940D01*
X187377762Y-76082040D01*
X200767617Y-76082040D01*
X200767617Y-76084785D01*
X200772504Y-76084064D01*
X200772689Y-76084141D01*
X200772689Y-76086047D01*
X200874519Y-76069923D01*
X200886188Y-76063978D01*
X200957547Y-76027625D01*
X200957549Y-76027623D01*
X200966383Y-76023123D01*
X200973393Y-76016114D01*
X200973396Y-76016112D01*
X201011034Y-75978480D01*
X201039291Y-75950228D01*
X201055780Y-75917874D01*
X201081603Y-75867207D01*
X201081605Y-75867202D01*
X201086106Y-75858371D01*
X201088803Y-75841360D01*
X201099410Y-75774439D01*
X201102247Y-75756544D01*
X206093202Y-75756544D01*
X206096111Y-75774894D01*
X206107774Y-75848478D01*
X206109343Y-75858379D01*
X206113845Y-75867212D01*
X206113845Y-75867214D01*
X206151656Y-75941412D01*
X206156157Y-75950244D01*
X206229065Y-76023149D01*
X206237897Y-76027649D01*
X206237899Y-76027651D01*
X206274999Y-76046555D01*
X206320932Y-76069961D01*
X206330724Y-76071513D01*
X206330725Y-76071513D01*
X206404875Y-76083263D01*
X206404876Y-76083263D01*
X206422767Y-76086098D01*
X206422767Y-76084141D01*
X206422779Y-76084136D01*
X206427841Y-76084938D01*
X206427841Y-76082040D01*
X219817696Y-76082040D01*
X219817696Y-76084767D01*
X219822551Y-76084051D01*
X219822767Y-76084141D01*
X219822767Y-76086027D01*
X219841110Y-76083124D01*
X219841111Y-76083124D01*
X219914804Y-76071460D01*
X219914805Y-76071460D01*
X219924596Y-76069910D01*
X220002046Y-76030458D01*
X220007627Y-76027615D01*
X220016461Y-76023115D01*
X220089370Y-75950223D01*
X220093921Y-75941295D01*
X220131684Y-75867202D01*
X220136186Y-75858369D01*
X220142614Y-75817817D01*
X220149491Y-75774438D01*
X220149491Y-75774436D01*
X220152327Y-75756544D01*
X220150371Y-75756544D01*
X220150364Y-75756526D01*
X220151165Y-75751469D01*
X220148270Y-75751469D01*
X220148270Y-62361614D01*
X220151057Y-62361614D01*
X220150326Y-62356653D01*
X220150371Y-62356544D01*
X220152317Y-62356544D01*
X225143292Y-62356544D01*
X225145247Y-62356544D01*
X225144445Y-62361614D01*
X225147350Y-62361614D01*
X225147350Y-75751469D01*
X225144570Y-75751469D01*
X225145300Y-75756421D01*
X225145249Y-75756544D01*
X225143302Y-75756544D01*
X225159441Y-75858374D01*
X225181879Y-75902406D01*
X225201748Y-75941397D01*
X225206252Y-75950236D01*
X225279155Y-76023141D01*
X225371015Y-76069955D01*
X225380809Y-76071508D01*
X225380810Y-76071508D01*
X225404629Y-76075284D01*
X225472845Y-76086098D01*
X225472845Y-76084141D01*
X225472861Y-76084134D01*
X225477920Y-76084936D01*
X225477920Y-76082040D01*
X238867780Y-76082040D01*
X238867780Y-76084838D01*
X238872764Y-76084103D01*
X238872855Y-76084141D01*
X238872855Y-76086108D01*
X238908804Y-76080409D01*
X238964893Y-76071518D01*
X238964895Y-76071518D01*
X238974688Y-76069965D01*
X238983544Y-76065452D01*
X239051067Y-76031040D01*
X239066551Y-76023149D01*
X239139456Y-75950242D01*
X239186268Y-75858377D01*
X239202408Y-75756544D01*
X244193302Y-75756544D01*
X244209447Y-75858391D01*
X244213947Y-75867220D01*
X244213949Y-75867225D01*
X244251767Y-75941424D01*
X244256273Y-75950265D01*
X244329197Y-76023172D01*
X244421082Y-76069977D01*
X244473233Y-76078231D01*
X244505039Y-76083266D01*
X244505040Y-76083266D01*
X244522933Y-76086098D01*
X244522933Y-76084141D01*
X244528004Y-76084944D01*
X244528004Y-76082040D01*
X257917859Y-76082040D01*
X257917859Y-76084820D01*
X257922810Y-76084090D01*
X257922933Y-76084141D01*
X257922933Y-76086088D01*
X257941279Y-76083181D01*
X257941280Y-76083181D01*
X258014908Y-76071513D01*
X258024765Y-76069951D01*
X258033599Y-76065450D01*
X258033601Y-76065449D01*
X258107795Y-76027643D01*
X258107798Y-76027641D01*
X258116629Y-76023141D01*
X258189535Y-75950238D01*
X258194041Y-75941397D01*
X258231838Y-75867225D01*
X258236348Y-75858375D01*
X258252488Y-75756544D01*
X263243402Y-75756544D01*
X263259545Y-75858387D01*
X263306368Y-75950258D01*
X263379287Y-76023165D01*
X263388121Y-76027665D01*
X263388123Y-76027667D01*
X263462035Y-76065321D01*
X263471165Y-76069972D01*
X263573011Y-76086098D01*
X263573011Y-76084141D01*
X263573013Y-76084140D01*
X263578083Y-76084943D01*
X263578083Y-76082040D01*
X276967938Y-76082040D01*
X276967938Y-76084802D01*
X276972856Y-76084077D01*
X276973011Y-76084141D01*
X276973011Y-76086068D01*
X277013735Y-76079617D01*
X277065047Y-76071490D01*
X277065050Y-76071489D01*
X277074842Y-76069938D01*
X277152343Y-76030451D01*
X277157874Y-76027633D01*
X277166706Y-76023133D01*
X277239613Y-75950233D01*
X277286428Y-75858373D01*
X277289123Y-75841371D01*
X277299732Y-75774439D01*
X277299732Y-75774436D01*
X277302568Y-75756544D01*
X282293502Y-75756544D01*
X282309644Y-75858383D01*
X282356463Y-75950251D01*
X282429376Y-76023157D01*
X282438207Y-76027657D01*
X282438208Y-76027657D01*
X282512416Y-76065466D01*
X282512418Y-76065467D01*
X282521249Y-76069966D01*
X282623089Y-76086098D01*
X282623089Y-76084141D01*
X282623097Y-76084138D01*
X282628162Y-76084940D01*
X282628162Y-76082040D01*
X296018017Y-76082040D01*
X296018017Y-76084785D01*
X296022904Y-76084064D01*
X296023089Y-76084141D01*
X296023089Y-76086047D01*
X296124919Y-76069923D01*
X296136588Y-76063978D01*
X296207947Y-76027625D01*
X296207949Y-76027623D01*
X296216783Y-76023123D01*
X296223793Y-76016114D01*
X296223796Y-76016112D01*
X296261434Y-75978480D01*
X296289691Y-75950228D01*
X296306180Y-75917874D01*
X296332003Y-75867207D01*
X296332005Y-75867202D01*
X296336506Y-75858371D01*
X296339203Y-75841360D01*
X296349810Y-75774439D01*
X296352647Y-75756544D01*
X301343602Y-75756544D01*
X301346511Y-75774894D01*
X301358174Y-75848478D01*
X301359743Y-75858379D01*
X301364245Y-75867212D01*
X301364245Y-75867214D01*
X301402056Y-75941412D01*
X301406557Y-75950244D01*
X301479465Y-76023149D01*
X301488297Y-76027649D01*
X301488299Y-76027651D01*
X301525399Y-76046555D01*
X301571332Y-76069961D01*
X301581124Y-76071513D01*
X301581125Y-76071513D01*
X301655275Y-76083263D01*
X301655276Y-76083263D01*
X301673167Y-76086098D01*
X301673167Y-76084141D01*
X301673179Y-76084136D01*
X301678241Y-76084938D01*
X301678241Y-76082040D01*
X315068096Y-76082040D01*
X315068096Y-76084767D01*
X315072951Y-76084051D01*
X315073167Y-76084141D01*
X315073167Y-76086027D01*
X315091510Y-76083124D01*
X315091511Y-76083124D01*
X315165204Y-76071460D01*
X315165205Y-76071460D01*
X315174996Y-76069910D01*
X315252446Y-76030458D01*
X315258027Y-76027615D01*
X315266861Y-76023115D01*
X315339770Y-75950223D01*
X315344321Y-75941295D01*
X315382084Y-75867202D01*
X315386586Y-75858369D01*
X315393014Y-75817817D01*
X315399891Y-75774438D01*
X315399891Y-75774436D01*
X315402727Y-75756544D01*
X315400771Y-75756544D01*
X315400764Y-75756526D01*
X315401565Y-75751469D01*
X315398670Y-75751469D01*
X315398670Y-62361614D01*
X315401457Y-62361614D01*
X315400726Y-62356653D01*
X315400771Y-62356544D01*
X315402717Y-62356544D01*
X320393692Y-62356544D01*
X320395647Y-62356544D01*
X320394845Y-62361614D01*
X320397750Y-62361614D01*
X320397750Y-75751469D01*
X320394970Y-75751469D01*
X320395700Y-75756421D01*
X320395649Y-75756544D01*
X320393702Y-75756544D01*
X320409841Y-75858374D01*
X320432279Y-75902406D01*
X320452148Y-75941397D01*
X320456652Y-75950236D01*
X320529555Y-76023141D01*
X320621415Y-76069955D01*
X320631209Y-76071508D01*
X320631210Y-76071508D01*
X320655029Y-76075284D01*
X320723245Y-76086098D01*
X320723245Y-76084141D01*
X320723261Y-76084134D01*
X320728320Y-76084936D01*
X320728320Y-76082040D01*
X334118180Y-76082040D01*
X334118180Y-76084838D01*
X334123164Y-76084103D01*
X334123255Y-76084141D01*
X334123255Y-76086108D01*
X334159204Y-76080409D01*
X334215293Y-76071518D01*
X334215295Y-76071518D01*
X334225088Y-76069965D01*
X334233944Y-76065452D01*
X334301467Y-76031040D01*
X334316951Y-76023149D01*
X334389856Y-75950242D01*
X334436668Y-75858377D01*
X334452808Y-75756544D01*
X339443702Y-75756544D01*
X339459847Y-75858391D01*
X339464347Y-75867220D01*
X339464349Y-75867225D01*
X339502167Y-75941424D01*
X339506673Y-75950265D01*
X339579597Y-76023172D01*
X339671482Y-76069977D01*
X339723633Y-76078231D01*
X339755439Y-76083266D01*
X339755440Y-76083266D01*
X339773333Y-76086098D01*
X339773333Y-76084141D01*
X339778404Y-76084944D01*
X339778404Y-76082040D01*
X353168259Y-76082040D01*
X353168259Y-76084820D01*
X353173210Y-76084090D01*
X353173333Y-76084141D01*
X353173333Y-76086088D01*
X353191679Y-76083181D01*
X353191680Y-76083181D01*
X353265308Y-76071513D01*
X353275165Y-76069951D01*
X353283999Y-76065450D01*
X353284001Y-76065449D01*
X353358195Y-76027643D01*
X353358198Y-76027641D01*
X353367029Y-76023141D01*
X353439935Y-75950238D01*
X353444441Y-75941397D01*
X353482238Y-75867225D01*
X353486748Y-75858375D01*
X353502888Y-75756544D01*
X358493802Y-75756544D01*
X358509945Y-75858387D01*
X358556768Y-75950258D01*
X358629687Y-76023165D01*
X358638521Y-76027665D01*
X358638523Y-76027667D01*
X358712435Y-76065321D01*
X358721565Y-76069972D01*
X358823411Y-76086098D01*
X358823411Y-76084141D01*
X358823413Y-76084140D01*
X358828483Y-76084943D01*
X358828483Y-76082040D01*
X372218338Y-76082040D01*
X372218338Y-76084802D01*
X372223256Y-76084077D01*
X372223411Y-76084141D01*
X372223411Y-76086068D01*
X372264135Y-76079617D01*
X372315447Y-76071490D01*
X372315450Y-76071489D01*
X372325242Y-76069938D01*
X372402743Y-76030451D01*
X372408274Y-76027633D01*
X372417106Y-76023133D01*
X372490013Y-75950233D01*
X372536828Y-75858373D01*
X372539523Y-75841371D01*
X372550132Y-75774439D01*
X372550132Y-75774436D01*
X372552968Y-75756544D01*
X372551011Y-75756544D01*
X372551004Y-75756528D01*
X372551017Y-75756448D01*
X382306298Y-75756448D01*
X382322441Y-75858287D01*
X382326987Y-75867207D01*
X382364746Y-75941295D01*
X382369261Y-75950155D01*
X382442175Y-76023061D01*
X382451006Y-76027561D01*
X382451007Y-76027561D01*
X382525215Y-76065370D01*
X382525217Y-76065371D01*
X382534048Y-76069870D01*
X382635889Y-76086002D01*
X382635889Y-76084045D01*
X382635897Y-76084042D01*
X382640962Y-76084844D01*
X382640962Y-76081944D01*
X396030817Y-76081944D01*
X396030817Y-76084685D01*
X396035697Y-76083966D01*
X396035889Y-76084045D01*
X396035889Y-76085947D01*
X396054236Y-76083042D01*
X396058386Y-76082385D01*
X396137718Y-76069824D01*
X396146557Y-76065321D01*
X396220746Y-76027526D01*
X396220748Y-76027524D01*
X396229582Y-76023024D01*
X396236592Y-76016015D01*
X396236595Y-76016013D01*
X396295478Y-75957140D01*
X396295479Y-75957139D01*
X396302489Y-75950130D01*
X396349305Y-75858274D01*
X396362595Y-75774439D01*
X396362611Y-75774341D01*
X396362611Y-75774339D01*
X396365447Y-75756448D01*
X396363491Y-75756448D01*
X396363483Y-75756430D01*
X396364285Y-75751373D01*
X396361390Y-75751373D01*
X396361390Y-62361518D01*
X396364154Y-62361518D01*
X396363429Y-62356598D01*
X396363491Y-62356448D01*
X396365413Y-62356448D01*
X396350863Y-62264506D01*
X396350847Y-62264404D01*
X396350847Y-62264403D01*
X396349297Y-62254610D01*
X396319038Y-62195209D01*
X396306999Y-62171576D01*
X396306998Y-62171574D01*
X396302496Y-62162737D01*
X396229593Y-62089826D01*
X396220762Y-62085326D01*
X396220759Y-62085324D01*
X396183660Y-62066421D01*
X396137726Y-62043015D01*
X396060029Y-62030710D01*
X396053784Y-62029721D01*
X396035889Y-62026887D01*
X396035889Y-62028843D01*
X396035881Y-62028846D01*
X396030817Y-62028044D01*
X396030817Y-62030944D01*
X382640962Y-62030944D01*
X382640962Y-62028098D01*
X382635894Y-62028845D01*
X382635889Y-62028843D01*
X382635889Y-62026832D01*
X382534040Y-62042968D01*
X382525205Y-62047470D01*
X382525203Y-62047471D01*
X382453435Y-62084045D01*
X382442164Y-62089789D01*
X382405700Y-62126260D01*
X382376268Y-62155696D01*
X382376266Y-62155699D01*
X382369254Y-62162712D01*
X382364751Y-62171551D01*
X382364751Y-62171552D01*
X382364695Y-62171662D01*
X382322450Y-62254597D01*
X382320900Y-62264388D01*
X382320900Y-62264390D01*
X382309219Y-62338202D01*
X382306332Y-62356448D01*
X382308288Y-62356448D01*
X382307486Y-62361518D01*
X382310390Y-62361518D01*
X382310390Y-75751373D01*
X382307567Y-75751373D01*
X382308308Y-75756401D01*
X382308289Y-75756448D01*
X382306298Y-75756448D01*
X372551017Y-75756448D01*
X372551806Y-75751469D01*
X372548910Y-75751469D01*
X372548910Y-62361614D01*
X372551658Y-62361614D01*
X372550937Y-62356723D01*
X372551011Y-62356544D01*
X372552917Y-62356544D01*
X372538353Y-62264513D01*
X372538351Y-62264502D01*
X372538350Y-62264498D01*
X372536801Y-62254709D01*
X372532303Y-62245879D01*
X372532302Y-62245876D01*
X372494503Y-62171674D01*
X372490003Y-62162840D01*
X372482994Y-62155830D01*
X372482992Y-62155827D01*
X372453554Y-62126385D01*
X372417105Y-62089929D01*
X372408210Y-62085396D01*
X372334080Y-62047619D01*
X372334078Y-62047618D01*
X372325243Y-62043116D01*
X372315449Y-62041564D01*
X372315448Y-62041564D01*
X372291138Y-62037713D01*
X372223411Y-62026983D01*
X372223411Y-62028939D01*
X372223401Y-62028943D01*
X372218338Y-62028141D01*
X372218338Y-62031040D01*
X358828483Y-62031040D01*
X358828483Y-62028217D01*
X358823456Y-62028958D01*
X358823411Y-62028939D01*
X358823411Y-62026953D01*
X358758078Y-62037300D01*
X358731363Y-62041530D01*
X358731362Y-62041530D01*
X358721564Y-62043082D01*
X358629688Y-62089897D01*
X358556778Y-62162815D01*
X358552277Y-62171651D01*
X358514523Y-62245763D01*
X358509972Y-62254696D01*
X358508423Y-62264485D01*
X358508422Y-62264489D01*
X358496701Y-62338551D01*
X358493853Y-62356544D01*
X358495809Y-62356544D01*
X358495007Y-62361614D01*
X358497910Y-62361614D01*
X358497910Y-75751469D01*
X358495071Y-75751469D01*
X358495817Y-75756525D01*
X358495809Y-75756544D01*
X358493802Y-75756544D01*
X353502888Y-75756544D01*
X353500931Y-75756544D01*
X353500925Y-75756529D01*
X353501727Y-75751469D01*
X353498830Y-75751469D01*
X353498830Y-62361614D01*
X353501558Y-62361614D01*
X353500842Y-62356758D01*
X353500931Y-62356544D01*
X353502817Y-62356544D01*
X353489394Y-62271724D01*
X353488252Y-62264506D01*
X353488251Y-62264502D01*
X353486702Y-62254713D01*
X353439908Y-62162847D01*
X353367015Y-62089937D01*
X353275160Y-62043122D01*
X353265116Y-62041530D01*
X353196791Y-62030701D01*
X353173333Y-62026983D01*
X353173333Y-62028939D01*
X353173317Y-62028946D01*
X353168259Y-62028144D01*
X353168259Y-62031040D01*
X339778404Y-62031040D01*
X339778404Y-62028235D01*
X339773410Y-62028971D01*
X339773333Y-62028939D01*
X339773333Y-62026973D01*
X339754989Y-62029877D01*
X339754988Y-62029877D01*
X339681556Y-62041502D01*
X339671487Y-62043096D01*
X339662610Y-62047619D01*
X339588485Y-62085385D01*
X339579611Y-62089906D01*
X339506699Y-62162820D01*
X339502196Y-62171659D01*
X339464397Y-62245856D01*
X339459892Y-62254698D01*
X339443773Y-62356544D01*
X339445729Y-62356544D01*
X339444926Y-62361614D01*
X339447830Y-62361614D01*
X339447830Y-75751469D01*
X339444971Y-75751469D01*
X339445719Y-75756544D01*
X339443702Y-75756544D01*
X334452808Y-75756544D01*
X334450851Y-75756544D01*
X334450846Y-75756531D01*
X334451648Y-75751469D01*
X334448750Y-75751469D01*
X334448750Y-62361614D01*
X334451458Y-62361614D01*
X334450748Y-62356794D01*
X334450851Y-62356544D01*
X334452717Y-62356544D01*
X334436604Y-62254718D01*
X334389813Y-62162854D01*
X334316926Y-62089945D01*
X334308061Y-62085426D01*
X334233910Y-62047630D01*
X334233911Y-62047630D01*
X334225076Y-62043127D01*
X334215283Y-62041574D01*
X334215282Y-62041574D01*
X334141148Y-62029820D01*
X334123255Y-62026983D01*
X334123255Y-62028939D01*
X334123235Y-62028947D01*
X334118180Y-62028146D01*
X334118180Y-62031040D01*
X320728320Y-62031040D01*
X320728320Y-62028162D01*
X320723245Y-62028910D01*
X320723245Y-62026892D01*
X320674981Y-62034544D01*
X320631187Y-62041487D01*
X320631184Y-62041488D01*
X320621395Y-62043040D01*
X320612564Y-62047541D01*
X320612562Y-62047542D01*
X320540761Y-62084141D01*
X320529520Y-62089871D01*
X320456613Y-62162800D01*
X320409810Y-62254689D01*
X320393692Y-62356544D01*
X315402717Y-62356544D01*
X315397216Y-62321785D01*
X315388149Y-62264498D01*
X315388148Y-62264496D01*
X315386598Y-62254701D01*
X315382051Y-62245774D01*
X315344295Y-62171662D01*
X315344293Y-62171659D01*
X315339793Y-62162825D01*
X315266883Y-62089914D01*
X315175010Y-62043105D01*
X315165214Y-62041554D01*
X315165213Y-62041554D01*
X315146828Y-62038644D01*
X315073167Y-62026983D01*
X315073167Y-62028939D01*
X315073164Y-62028940D01*
X315068096Y-62028138D01*
X315068096Y-62031040D01*
X301678241Y-62031040D01*
X301678241Y-62028180D01*
X301673167Y-62028928D01*
X301673167Y-62026912D01*
X301654818Y-62029820D01*
X301654817Y-62029820D01*
X301581109Y-62041502D01*
X301581108Y-62041502D01*
X301571318Y-62043054D01*
X301562486Y-62047555D01*
X301562484Y-62047556D01*
X301488277Y-62085377D01*
X301488274Y-62085379D01*
X301479443Y-62089880D01*
X301406534Y-62162805D01*
X301359730Y-62254691D01*
X301358180Y-62264485D01*
X301358179Y-62264489D01*
X301346443Y-62338652D01*
X301343612Y-62356544D01*
X301345567Y-62356544D01*
X301344765Y-62361614D01*
X301347670Y-62361614D01*
X301347670Y-75751469D01*
X301344872Y-75751469D01*
X301345607Y-75756453D01*
X301345569Y-75756544D01*
X301343602Y-75756544D01*
X296352647Y-75756544D01*
X296350691Y-75756544D01*
X296350684Y-75756526D01*
X296351485Y-75751469D01*
X296348590Y-75751469D01*
X296348590Y-62361614D01*
X296351357Y-62361614D01*
X296350631Y-62356688D01*
X296350691Y-62356544D01*
X296352617Y-62356544D01*
X296336499Y-62254705D01*
X296289698Y-62162833D01*
X296216794Y-62089922D01*
X296124926Y-62043111D01*
X296046856Y-62030747D01*
X296040984Y-62029817D01*
X296023089Y-62026983D01*
X296023089Y-62028939D01*
X296023081Y-62028942D01*
X296018017Y-62028140D01*
X296018017Y-62031040D01*
X282628162Y-62031040D01*
X282628162Y-62028198D01*
X282623101Y-62028944D01*
X282623089Y-62028939D01*
X282623089Y-62026932D01*
X282521241Y-62043068D01*
X282512301Y-62047624D01*
X282438235Y-62085368D01*
X282429365Y-62089888D01*
X282392911Y-62126349D01*
X282363466Y-62155798D01*
X282363464Y-62155801D01*
X282356456Y-62162810D01*
X282309651Y-62254693D01*
X282306956Y-62271724D01*
X282296380Y-62338551D01*
X282293532Y-62356544D01*
X282295488Y-62356544D01*
X282294686Y-62361614D01*
X282297590Y-62361614D01*
X282297590Y-75751469D01*
X282294772Y-75751469D01*
X282295512Y-75756488D01*
X282295489Y-75756544D01*
X282293502Y-75756544D01*
X277302568Y-75756544D01*
X277300611Y-75756544D01*
X277300604Y-75756528D01*
X277301406Y-75751469D01*
X277298510Y-75751469D01*
X277298510Y-62361614D01*
X277301258Y-62361614D01*
X277300537Y-62356723D01*
X277300611Y-62356544D01*
X277302517Y-62356544D01*
X277287953Y-62264513D01*
X277287951Y-62264502D01*
X277287950Y-62264498D01*
X277286401Y-62254709D01*
X277281903Y-62245879D01*
X277281902Y-62245876D01*
X277244103Y-62171674D01*
X277239603Y-62162840D01*
X277232594Y-62155830D01*
X277232592Y-62155827D01*
X277203154Y-62126385D01*
X277166705Y-62089929D01*
X277157810Y-62085396D01*
X277083680Y-62047619D01*
X277083678Y-62047618D01*
X277074843Y-62043116D01*
X277065049Y-62041564D01*
X277065048Y-62041564D01*
X277040738Y-62037713D01*
X276973011Y-62026983D01*
X276973011Y-62028939D01*
X276973001Y-62028943D01*
X276967938Y-62028141D01*
X276967938Y-62031040D01*
X263578083Y-62031040D01*
X263578083Y-62028217D01*
X263573056Y-62028958D01*
X263573011Y-62028939D01*
X263573011Y-62026953D01*
X263507678Y-62037300D01*
X263480963Y-62041530D01*
X263480962Y-62041530D01*
X263471164Y-62043082D01*
X263379288Y-62089897D01*
X263306378Y-62162815D01*
X263301877Y-62171651D01*
X263264123Y-62245763D01*
X263259572Y-62254696D01*
X263258023Y-62264485D01*
X263258022Y-62264489D01*
X263246301Y-62338551D01*
X263243453Y-62356544D01*
X263245409Y-62356544D01*
X263244607Y-62361614D01*
X263247510Y-62361614D01*
X263247510Y-75751469D01*
X263244671Y-75751469D01*
X263245417Y-75756525D01*
X263245409Y-75756544D01*
X263243402Y-75756544D01*
X258252488Y-75756544D01*
X258250531Y-75756544D01*
X258250525Y-75756529D01*
X258251327Y-75751469D01*
X258248430Y-75751469D01*
X258248430Y-62361614D01*
X258251158Y-62361614D01*
X258250442Y-62356758D01*
X258250531Y-62356544D01*
X258252417Y-62356544D01*
X258238994Y-62271724D01*
X258237852Y-62264506D01*
X258237851Y-62264502D01*
X258236302Y-62254713D01*
X258189508Y-62162847D01*
X258116615Y-62089937D01*
X258024760Y-62043122D01*
X258014716Y-62041530D01*
X257946391Y-62030701D01*
X257922933Y-62026983D01*
X257922933Y-62028939D01*
X257922917Y-62028946D01*
X257917859Y-62028144D01*
X257917859Y-62031040D01*
X244528004Y-62031040D01*
X244528004Y-62028235D01*
X244523010Y-62028971D01*
X244522933Y-62028939D01*
X244522933Y-62026973D01*
X244504589Y-62029877D01*
X244504588Y-62029877D01*
X244431156Y-62041502D01*
X244421087Y-62043096D01*
X244412210Y-62047619D01*
X244338085Y-62085385D01*
X244329211Y-62089906D01*
X244256299Y-62162820D01*
X244251796Y-62171659D01*
X244213997Y-62245856D01*
X244209492Y-62254698D01*
X244193373Y-62356544D01*
X244195329Y-62356544D01*
X244194526Y-62361614D01*
X244197430Y-62361614D01*
X244197430Y-75751469D01*
X244194571Y-75751469D01*
X244195319Y-75756544D01*
X244193302Y-75756544D01*
X239202408Y-75756544D01*
X239200451Y-75756544D01*
X239200446Y-75756531D01*
X239201248Y-75751469D01*
X239198350Y-75751469D01*
X239198350Y-62361614D01*
X239201058Y-62361614D01*
X239200348Y-62356794D01*
X239200451Y-62356544D01*
X239202317Y-62356544D01*
X239186204Y-62254718D01*
X239139413Y-62162854D01*
X239066526Y-62089945D01*
X239057661Y-62085426D01*
X238983510Y-62047630D01*
X238983511Y-62047630D01*
X238974676Y-62043127D01*
X238964883Y-62041574D01*
X238964882Y-62041574D01*
X238890748Y-62029820D01*
X238872855Y-62026983D01*
X238872855Y-62028939D01*
X238872835Y-62028947D01*
X238867780Y-62028146D01*
X238867780Y-62031040D01*
X225477920Y-62031040D01*
X225477920Y-62028162D01*
X225472845Y-62028910D01*
X225472845Y-62026892D01*
X225424581Y-62034544D01*
X225380787Y-62041487D01*
X225380784Y-62041488D01*
X225370995Y-62043040D01*
X225362164Y-62047541D01*
X225362162Y-62047542D01*
X225290361Y-62084141D01*
X225279120Y-62089871D01*
X225206213Y-62162800D01*
X225159410Y-62254689D01*
X225143292Y-62356544D01*
X220152317Y-62356544D01*
X220146816Y-62321785D01*
X220137749Y-62264498D01*
X220137748Y-62264496D01*
X220136198Y-62254701D01*
X220131651Y-62245774D01*
X220093895Y-62171662D01*
X220093893Y-62171659D01*
X220089393Y-62162825D01*
X220016483Y-62089914D01*
X219924610Y-62043105D01*
X219914814Y-62041554D01*
X219914813Y-62041554D01*
X219896428Y-62038644D01*
X219822767Y-62026983D01*
X219822767Y-62028939D01*
X219822764Y-62028940D01*
X219817696Y-62028138D01*
X219817696Y-62031040D01*
X206427841Y-62031040D01*
X206427841Y-62028180D01*
X206422767Y-62028928D01*
X206422767Y-62026912D01*
X206404418Y-62029820D01*
X206404417Y-62029820D01*
X206330709Y-62041502D01*
X206330708Y-62041502D01*
X206320918Y-62043054D01*
X206312086Y-62047555D01*
X206312084Y-62047556D01*
X206237877Y-62085377D01*
X206237874Y-62085379D01*
X206229043Y-62089880D01*
X206156134Y-62162805D01*
X206109330Y-62254691D01*
X206107780Y-62264485D01*
X206107779Y-62264489D01*
X206096043Y-62338652D01*
X206093212Y-62356544D01*
X206095167Y-62356544D01*
X206094365Y-62361614D01*
X206097270Y-62361614D01*
X206097270Y-75751469D01*
X206094472Y-75751469D01*
X206095207Y-75756453D01*
X206095169Y-75756544D01*
X206093202Y-75756544D01*
X201102247Y-75756544D01*
X201100291Y-75756544D01*
X201100284Y-75756526D01*
X201101085Y-75751469D01*
X201098190Y-75751469D01*
X201098190Y-62361614D01*
X201100957Y-62361614D01*
X201100231Y-62356688D01*
X201100291Y-62356544D01*
X201102217Y-62356544D01*
X201086099Y-62254705D01*
X201039298Y-62162833D01*
X200966394Y-62089922D01*
X200874526Y-62043111D01*
X200796456Y-62030747D01*
X200790584Y-62029817D01*
X200772689Y-62026983D01*
X200772689Y-62028939D01*
X200772681Y-62028942D01*
X200767617Y-62028140D01*
X200767617Y-62031040D01*
X187377762Y-62031040D01*
X187377762Y-62028198D01*
X187372701Y-62028944D01*
X187372689Y-62028939D01*
X187372689Y-62026932D01*
X187270841Y-62043068D01*
X187261901Y-62047624D01*
X187187835Y-62085368D01*
X187178965Y-62089888D01*
X187142511Y-62126349D01*
X187113066Y-62155798D01*
X187113064Y-62155801D01*
X187106056Y-62162810D01*
X187059251Y-62254693D01*
X187056556Y-62271724D01*
X187045980Y-62338551D01*
X187043132Y-62356544D01*
X187045088Y-62356544D01*
X187044286Y-62361614D01*
X187047190Y-62361614D01*
X187047190Y-75751469D01*
X187044372Y-75751469D01*
X187045112Y-75756488D01*
X187045089Y-75756544D01*
X187043102Y-75756544D01*
X182052168Y-75756544D01*
X182050211Y-75756544D01*
X182050204Y-75756528D01*
X182051006Y-75751469D01*
X182048110Y-75751469D01*
X182048110Y-62361614D01*
X182050858Y-62361614D01*
X182050137Y-62356723D01*
X182050211Y-62356544D01*
X182052117Y-62356544D01*
X182037553Y-62264513D01*
X182037551Y-62264502D01*
X182037550Y-62264498D01*
X182036001Y-62254709D01*
X182031503Y-62245879D01*
X182031502Y-62245876D01*
X181993703Y-62171674D01*
X181989203Y-62162840D01*
X181982194Y-62155830D01*
X181982192Y-62155827D01*
X181952754Y-62126384D01*
X181916305Y-62089929D01*
X181907410Y-62085396D01*
X181833280Y-62047619D01*
X181833278Y-62047618D01*
X181824443Y-62043116D01*
X181814649Y-62041564D01*
X181814648Y-62041564D01*
X181790338Y-62037713D01*
X181722611Y-62026983D01*
X181722611Y-62028939D01*
X181722601Y-62028943D01*
X181717538Y-62028141D01*
X181717538Y-62031040D01*
X168327683Y-62031040D01*
X168327683Y-62028217D01*
X168322656Y-62028958D01*
X168322611Y-62028939D01*
X168322611Y-62026953D01*
X168257278Y-62037300D01*
X168230563Y-62041530D01*
X168230562Y-62041530D01*
X168220764Y-62043082D01*
X168128888Y-62089897D01*
X168055978Y-62162815D01*
X168051477Y-62171651D01*
X168013723Y-62245763D01*
X168009172Y-62254696D01*
X168007623Y-62264485D01*
X168007622Y-62264489D01*
X167995901Y-62338551D01*
X167993053Y-62356544D01*
X167995009Y-62356544D01*
X167994207Y-62361614D01*
X167997110Y-62361614D01*
X167997110Y-75751469D01*
X167994271Y-75751469D01*
X167995017Y-75756525D01*
X167995009Y-75756544D01*
X167993002Y-75756544D01*
X163002088Y-75756544D01*
X163000131Y-75756544D01*
X163000125Y-75756529D01*
X163000927Y-75751469D01*
X162998030Y-75751469D01*
X162998030Y-62361614D01*
X163000758Y-62361614D01*
X163000042Y-62356758D01*
X163000131Y-62356544D01*
X163002017Y-62356544D01*
X162988594Y-62271724D01*
X162987452Y-62264506D01*
X162987451Y-62264502D01*
X162985902Y-62254713D01*
X162939108Y-62162847D01*
X162866215Y-62089937D01*
X162774360Y-62043122D01*
X162764316Y-62041530D01*
X162695991Y-62030701D01*
X162672533Y-62026983D01*
X162672533Y-62028939D01*
X162672517Y-62028946D01*
X162667459Y-62028144D01*
X162667459Y-62031040D01*
X149277604Y-62031040D01*
X149277604Y-62028235D01*
X149272610Y-62028971D01*
X149272533Y-62028939D01*
X149272533Y-62026973D01*
X149254189Y-62029877D01*
X149254188Y-62029877D01*
X149180756Y-62041502D01*
X149170687Y-62043096D01*
X149161810Y-62047619D01*
X149087685Y-62085385D01*
X149078811Y-62089906D01*
X149005899Y-62162820D01*
X149001396Y-62171659D01*
X148963597Y-62245856D01*
X148959092Y-62254698D01*
X148942973Y-62356544D01*
X148944929Y-62356544D01*
X148944126Y-62361614D01*
X148947030Y-62361614D01*
X148947030Y-75751469D01*
X148944171Y-75751469D01*
X148944919Y-75756544D01*
X148942902Y-75756544D01*
X146474082Y-75756544D01*
X146474082Y-59531300D01*
X170094485Y-59531300D01*
X170115081Y-59766708D01*
X170116505Y-59772022D01*
X170116505Y-59772023D01*
X170128315Y-59816097D01*
X170176241Y-59994963D01*
X170178563Y-59999943D01*
X170178564Y-59999945D01*
X170236062Y-60123248D01*
X170276109Y-60209129D01*
X170411649Y-60402701D01*
X170578743Y-60569795D01*
X170772315Y-60705335D01*
X170777293Y-60707656D01*
X170777296Y-60707658D01*
X170981499Y-60802880D01*
X170986481Y-60805203D01*
X170991789Y-60806625D01*
X170991791Y-60806626D01*
X171209421Y-60864939D01*
X171214736Y-60866363D01*
X171317826Y-60875382D01*
X171388454Y-60881562D01*
X171388461Y-60881562D01*
X171391178Y-60881800D01*
X171509110Y-60881800D01*
X171511827Y-60881562D01*
X171511834Y-60881562D01*
X171582462Y-60875382D01*
X171685552Y-60866363D01*
X171690867Y-60864939D01*
X171908497Y-60806626D01*
X171908499Y-60806625D01*
X171913807Y-60805203D01*
X171918789Y-60802880D01*
X172122992Y-60707658D01*
X172122995Y-60707656D01*
X172127973Y-60705335D01*
X172321545Y-60569795D01*
X172488639Y-60402701D01*
X172491799Y-60398189D01*
X172621022Y-60213639D01*
X172621025Y-60213634D01*
X172624179Y-60209130D01*
X172626502Y-60204148D01*
X172626505Y-60204143D01*
X172721724Y-59999945D01*
X172721725Y-59999944D01*
X172724047Y-59994963D01*
X172771974Y-59816097D01*
X172783783Y-59772023D01*
X172783783Y-59772022D01*
X172785207Y-59766708D01*
X172805803Y-59531300D01*
X354641515Y-59531300D01*
X354662111Y-59766708D01*
X354663535Y-59772022D01*
X354663535Y-59772023D01*
X354675345Y-59816097D01*
X354723271Y-59994963D01*
X354725593Y-59999943D01*
X354725594Y-59999945D01*
X354783092Y-60123248D01*
X354823139Y-60209129D01*
X354958679Y-60402701D01*
X355125773Y-60569795D01*
X355319345Y-60705335D01*
X355324323Y-60707656D01*
X355324326Y-60707658D01*
X355528529Y-60802880D01*
X355533511Y-60805203D01*
X355538819Y-60806625D01*
X355538821Y-60806626D01*
X355756451Y-60864939D01*
X355761766Y-60866363D01*
X355864856Y-60875382D01*
X355935484Y-60881562D01*
X355935491Y-60881562D01*
X355938208Y-60881800D01*
X356056140Y-60881800D01*
X356058857Y-60881562D01*
X356058864Y-60881562D01*
X356129492Y-60875382D01*
X356232582Y-60866363D01*
X356237897Y-60864939D01*
X356455527Y-60806626D01*
X356455529Y-60806625D01*
X356460837Y-60805203D01*
X356465819Y-60802880D01*
X356670022Y-60707658D01*
X356670025Y-60707656D01*
X356675003Y-60705335D01*
X356868575Y-60569795D01*
X357035669Y-60402701D01*
X357038829Y-60398189D01*
X357168052Y-60213639D01*
X357168055Y-60213634D01*
X357171209Y-60209130D01*
X357173532Y-60204148D01*
X357173535Y-60204143D01*
X357206690Y-60133041D01*
X387130813Y-60133041D01*
X387150411Y-60256781D01*
X387207288Y-60368408D01*
X387295876Y-60456996D01*
X387407503Y-60513873D01*
X387531243Y-60533471D01*
X387654983Y-60513873D01*
X387766610Y-60456996D01*
X387855198Y-60368408D01*
X387912075Y-60256781D01*
X387931673Y-60133041D01*
X387912075Y-60009301D01*
X387904770Y-59994963D01*
X387859698Y-59906506D01*
X387855198Y-59897674D01*
X387766610Y-59809086D01*
X387654983Y-59752209D01*
X387531243Y-59732611D01*
X387407503Y-59752209D01*
X387295876Y-59809086D01*
X387207288Y-59897674D01*
X387202788Y-59906506D01*
X387157717Y-59994963D01*
X387150411Y-60009301D01*
X387130813Y-60133041D01*
X357206690Y-60133041D01*
X357268754Y-59999945D01*
X357268755Y-59999944D01*
X357271077Y-59994963D01*
X357319004Y-59816097D01*
X357330813Y-59772023D01*
X357330813Y-59772022D01*
X357332237Y-59766708D01*
X357352833Y-59531300D01*
X357332237Y-59295892D01*
X357271077Y-59067637D01*
X357171209Y-58853471D01*
X357035669Y-58659899D01*
X356868575Y-58492805D01*
X356675003Y-58357265D01*
X356670025Y-58354944D01*
X356670022Y-58354942D01*
X356465819Y-58259720D01*
X356465817Y-58259719D01*
X356460837Y-58257397D01*
X356455529Y-58255975D01*
X356455527Y-58255974D01*
X356237897Y-58197661D01*
X356237896Y-58197661D01*
X356232582Y-58196237D01*
X356129492Y-58187218D01*
X356058864Y-58181038D01*
X356058857Y-58181038D01*
X356056140Y-58180800D01*
X355938208Y-58180800D01*
X355935491Y-58181038D01*
X355935484Y-58181038D01*
X355864856Y-58187218D01*
X355761766Y-58196237D01*
X355756452Y-58197661D01*
X355756451Y-58197661D01*
X355538821Y-58255974D01*
X355538819Y-58255975D01*
X355533511Y-58257397D01*
X355528531Y-58259719D01*
X355528529Y-58259720D01*
X355324326Y-58354942D01*
X355324323Y-58354944D01*
X355319345Y-58357265D01*
X355125773Y-58492805D01*
X354958679Y-58659899D01*
X354955522Y-58664407D01*
X354955520Y-58664410D01*
X354826296Y-58848961D01*
X354823139Y-58853470D01*
X354820816Y-58858452D01*
X354820813Y-58858457D01*
X354725594Y-59062655D01*
X354723271Y-59067637D01*
X354662111Y-59295892D01*
X354641515Y-59531300D01*
X172805803Y-59531300D01*
X172785207Y-59295892D01*
X172724047Y-59067637D01*
X172624179Y-58853471D01*
X172488639Y-58659899D01*
X172321545Y-58492805D01*
X172127973Y-58357265D01*
X172122995Y-58354944D01*
X172122992Y-58354942D01*
X171918789Y-58259720D01*
X171918787Y-58259719D01*
X171913807Y-58257397D01*
X171908499Y-58255975D01*
X171908497Y-58255974D01*
X171690867Y-58197661D01*
X171690866Y-58197661D01*
X171685552Y-58196237D01*
X171582462Y-58187218D01*
X171511834Y-58181038D01*
X171511827Y-58181038D01*
X171509110Y-58180800D01*
X171391178Y-58180800D01*
X171388461Y-58181038D01*
X171388454Y-58181038D01*
X171317826Y-58187218D01*
X171214736Y-58196237D01*
X171209422Y-58197661D01*
X171209421Y-58197661D01*
X170991791Y-58255974D01*
X170991789Y-58255975D01*
X170986481Y-58257397D01*
X170981501Y-58259719D01*
X170981499Y-58259720D01*
X170777296Y-58354942D01*
X170777293Y-58354944D01*
X170772315Y-58357265D01*
X170578743Y-58492805D01*
X170411649Y-58659899D01*
X170408492Y-58664407D01*
X170408490Y-58664410D01*
X170279266Y-58848961D01*
X170276109Y-58853470D01*
X170273786Y-58858452D01*
X170273783Y-58858457D01*
X170178564Y-59062655D01*
X170176241Y-59067637D01*
X170115081Y-59295892D01*
X170094485Y-59531300D01*
X146474082Y-59531300D01*
X146474082Y-43306456D01*
X148942973Y-43306456D01*
X148944929Y-43306456D01*
X148944936Y-43306474D01*
X148944135Y-43311531D01*
X148947030Y-43311531D01*
X148947030Y-56701386D01*
X148944243Y-56701386D01*
X148944974Y-56706347D01*
X148944929Y-56706456D01*
X148942983Y-56706456D01*
X148945886Y-56724797D01*
X148957551Y-56798498D01*
X148959102Y-56808299D01*
X148963603Y-56817135D01*
X148963604Y-56817137D01*
X148989427Y-56867826D01*
X149005907Y-56900175D01*
X149078817Y-56973086D01*
X149170690Y-57019895D01*
X149180486Y-57021446D01*
X149180487Y-57021446D01*
X149188586Y-57022728D01*
X149272533Y-57036017D01*
X149272533Y-57034061D01*
X149272536Y-57034060D01*
X149277604Y-57034862D01*
X149277604Y-57031960D01*
X162667459Y-57031960D01*
X162667459Y-57034820D01*
X162672533Y-57034072D01*
X162672533Y-57036088D01*
X162690882Y-57033180D01*
X162690883Y-57033180D01*
X162764591Y-57021498D01*
X162764592Y-57021498D01*
X162774382Y-57019946D01*
X162783214Y-57015445D01*
X162783216Y-57015444D01*
X162857423Y-56977623D01*
X162857426Y-56977621D01*
X162866257Y-56973120D01*
X162939166Y-56900195D01*
X162985970Y-56808309D01*
X162987522Y-56798507D01*
X162999257Y-56724348D01*
X162999257Y-56724347D01*
X163002088Y-56706456D01*
X163000133Y-56706456D01*
X163000935Y-56701386D01*
X162998030Y-56701386D01*
X162998030Y-43311531D01*
X163000828Y-43311531D01*
X163000093Y-43306547D01*
X163000131Y-43306456D01*
X163002098Y-43306456D01*
X167993053Y-43306456D01*
X167995009Y-43306456D01*
X167995016Y-43306474D01*
X167994215Y-43311531D01*
X167997110Y-43311531D01*
X167997110Y-56701386D01*
X167994343Y-56701386D01*
X167995069Y-56706312D01*
X167995009Y-56706456D01*
X167993083Y-56706456D01*
X168009201Y-56808295D01*
X168032601Y-56854231D01*
X168051492Y-56891313D01*
X168056002Y-56900167D01*
X168128906Y-56973078D01*
X168220774Y-57019889D01*
X168247667Y-57024148D01*
X168304704Y-57033181D01*
X168322611Y-57036017D01*
X168322611Y-57034061D01*
X168322619Y-57034058D01*
X168327683Y-57034860D01*
X168327683Y-57031960D01*
X181717538Y-57031960D01*
X181717538Y-57034802D01*
X181722599Y-57034056D01*
X181722611Y-57034061D01*
X181722611Y-57036068D01*
X181824459Y-57019932D01*
X181901977Y-56980429D01*
X181907499Y-56977615D01*
X181907500Y-56977614D01*
X181916335Y-56973112D01*
X181960921Y-56928518D01*
X181982234Y-56907202D01*
X181982238Y-56907197D01*
X181989244Y-56900190D01*
X182036049Y-56808307D01*
X182049265Y-56724798D01*
X182049336Y-56724352D01*
X182049336Y-56724350D01*
X182052168Y-56706456D01*
X182050212Y-56706456D01*
X182051014Y-56701386D01*
X182048110Y-56701386D01*
X182048110Y-43311531D01*
X182050928Y-43311531D01*
X182050188Y-43306512D01*
X182050211Y-43306456D01*
X182052198Y-43306456D01*
X187043132Y-43306456D01*
X187045089Y-43306456D01*
X187045096Y-43306472D01*
X187044294Y-43311531D01*
X187047190Y-43311531D01*
X187047190Y-56701386D01*
X187044442Y-56701386D01*
X187045163Y-56706277D01*
X187045089Y-56706456D01*
X187043183Y-56706456D01*
X187046086Y-56724797D01*
X187046086Y-56724799D01*
X187057749Y-56798494D01*
X187059299Y-56808291D01*
X187063797Y-56817121D01*
X187063798Y-56817124D01*
X187089626Y-56867826D01*
X187106097Y-56900160D01*
X187113106Y-56907170D01*
X187113108Y-56907173D01*
X187134450Y-56928518D01*
X187178995Y-56973071D01*
X187187830Y-56977573D01*
X187187831Y-56977574D01*
X187262020Y-57015381D01*
X187262022Y-57015382D01*
X187270857Y-57019884D01*
X187280651Y-57021436D01*
X187280652Y-57021436D01*
X187304962Y-57025287D01*
X187372689Y-57036017D01*
X187372689Y-57034061D01*
X187372699Y-57034057D01*
X187377762Y-57034859D01*
X187377762Y-57031960D01*
X200767617Y-57031960D01*
X200767617Y-57034783D01*
X200772644Y-57034042D01*
X200772689Y-57034061D01*
X200772689Y-57036047D01*
X200847826Y-57024148D01*
X200864737Y-57021470D01*
X200864738Y-57021470D01*
X200874536Y-57019918D01*
X200966412Y-56973103D01*
X201039322Y-56900185D01*
X201086128Y-56808304D01*
X201087679Y-56798502D01*
X201099415Y-56724352D01*
X201099415Y-56724350D01*
X201102247Y-56706456D01*
X201100291Y-56706456D01*
X201101093Y-56701386D01*
X201098190Y-56701386D01*
X201098190Y-43311531D01*
X201101029Y-43311531D01*
X201100283Y-43306475D01*
X201100291Y-43306456D01*
X201102298Y-43306456D01*
X206093212Y-43306456D01*
X206095169Y-43306456D01*
X206095175Y-43306471D01*
X206094373Y-43311531D01*
X206097270Y-43311531D01*
X206097270Y-56701386D01*
X206094542Y-56701386D01*
X206095258Y-56706242D01*
X206095169Y-56706456D01*
X206093283Y-56706456D01*
X206096186Y-56724797D01*
X206096186Y-56724799D01*
X206106710Y-56791299D01*
X206109398Y-56808287D01*
X206156192Y-56900153D01*
X206229085Y-56973063D01*
X206320940Y-57019878D01*
X206330732Y-57021430D01*
X206331085Y-57021486D01*
X206422767Y-57036017D01*
X206422767Y-57034061D01*
X206422783Y-57034054D01*
X206427841Y-57034856D01*
X206427841Y-57031960D01*
X219817696Y-57031960D01*
X219817696Y-57034765D01*
X219822690Y-57034029D01*
X219822767Y-57034061D01*
X219822767Y-57036027D01*
X219841111Y-57033123D01*
X219841112Y-57033123D01*
X219914816Y-57021455D01*
X219924613Y-57019904D01*
X220002177Y-56980386D01*
X220007651Y-56977597D01*
X220007652Y-56977597D01*
X220016489Y-56973094D01*
X220089401Y-56900180D01*
X220094265Y-56890632D01*
X220131706Y-56817140D01*
X220131707Y-56817137D01*
X220136208Y-56808302D01*
X220152327Y-56706456D01*
X220150371Y-56706456D01*
X220151174Y-56701386D01*
X220148270Y-56701386D01*
X220148270Y-43311531D01*
X220151129Y-43311531D01*
X220150381Y-43306456D01*
X220152398Y-43306456D01*
X225143292Y-43306456D01*
X225145249Y-43306456D01*
X225145254Y-43306469D01*
X225144452Y-43311531D01*
X225147350Y-43311531D01*
X225147350Y-56701386D01*
X225144642Y-56701386D01*
X225145352Y-56706206D01*
X225145249Y-56706456D01*
X225143383Y-56706456D01*
X225159496Y-56808282D01*
X225206287Y-56900146D01*
X225279174Y-56973055D01*
X225288007Y-56977558D01*
X225288008Y-56977558D01*
X225293556Y-56980386D01*
X225371024Y-57019873D01*
X225380817Y-57021426D01*
X225380818Y-57021426D01*
X225454952Y-57033180D01*
X225472845Y-57036017D01*
X225472845Y-57034061D01*
X225472865Y-57034053D01*
X225477920Y-57034854D01*
X225477920Y-57031960D01*
X238867780Y-57031960D01*
X238867780Y-57034838D01*
X238872855Y-57034090D01*
X238872855Y-57036108D01*
X238921119Y-57028456D01*
X238964913Y-57021513D01*
X238964916Y-57021512D01*
X238974705Y-57019960D01*
X238983536Y-57015459D01*
X238983538Y-57015458D01*
X239057746Y-56977632D01*
X239066580Y-56973129D01*
X239139487Y-56900200D01*
X239186290Y-56808311D01*
X239202408Y-56706456D01*
X239200453Y-56706456D01*
X239201255Y-56701386D01*
X239198350Y-56701386D01*
X239198350Y-43311531D01*
X239201130Y-43311531D01*
X239200400Y-43306579D01*
X239200451Y-43306456D01*
X239202398Y-43306456D01*
X244193757Y-43306456D01*
X244195713Y-43306456D01*
X244195720Y-43306474D01*
X244194919Y-43311531D01*
X244197814Y-43311531D01*
X244197814Y-56701386D01*
X244195043Y-56701386D01*
X244195770Y-56706319D01*
X244195713Y-56706456D01*
X244193783Y-56706456D01*
X244209901Y-56808296D01*
X244214410Y-56817147D01*
X244252192Y-56891313D01*
X244256703Y-56900169D01*
X244263716Y-56907182D01*
X244263717Y-56907184D01*
X244322598Y-56966070D01*
X244329608Y-56973080D01*
X244338438Y-56977579D01*
X244338441Y-56977581D01*
X244412639Y-57015387D01*
X244421477Y-57019890D01*
X244463963Y-57026618D01*
X244505423Y-57033184D01*
X244505424Y-57033184D01*
X244523315Y-57036017D01*
X244523315Y-57034061D01*
X244523321Y-57034059D01*
X244528387Y-57034861D01*
X244528387Y-57031960D01*
X257918242Y-57031960D01*
X257918242Y-57034806D01*
X257923310Y-57034059D01*
X257923315Y-57034061D01*
X257923315Y-57036072D01*
X258025163Y-57019935D01*
X258102685Y-56980429D01*
X258108199Y-56977619D01*
X258117039Y-56973114D01*
X258189948Y-56900191D01*
X258236753Y-56808307D01*
X258249969Y-56724798D01*
X258250040Y-56724352D01*
X258250040Y-56724350D01*
X258252872Y-56706456D01*
X258250916Y-56706456D01*
X258251718Y-56701386D01*
X258248814Y-56701386D01*
X258248814Y-43311531D01*
X258251629Y-43311531D01*
X258250890Y-43306517D01*
X258250915Y-43306456D01*
X258252898Y-43306456D01*
X263243773Y-43306456D01*
X263245729Y-43306456D01*
X263245736Y-43306474D01*
X263244935Y-43311531D01*
X263247830Y-43311531D01*
X263247830Y-56701386D01*
X263245043Y-56701386D01*
X263245774Y-56706347D01*
X263245729Y-56706456D01*
X263243783Y-56706456D01*
X263246686Y-56724797D01*
X263258351Y-56798498D01*
X263259902Y-56808299D01*
X263264403Y-56817135D01*
X263264404Y-56817137D01*
X263290227Y-56867826D01*
X263306707Y-56900175D01*
X263379617Y-56973086D01*
X263471490Y-57019895D01*
X263481286Y-57021446D01*
X263481287Y-57021446D01*
X263489386Y-57022728D01*
X263573333Y-57036017D01*
X263573333Y-57034061D01*
X263573336Y-57034060D01*
X263578404Y-57034862D01*
X263578404Y-57031960D01*
X276968259Y-57031960D01*
X276968259Y-57034820D01*
X276973333Y-57034072D01*
X276973333Y-57036088D01*
X276991682Y-57033180D01*
X276991683Y-57033180D01*
X277065391Y-57021498D01*
X277065392Y-57021498D01*
X277075182Y-57019946D01*
X277084014Y-57015445D01*
X277084016Y-57015444D01*
X277158223Y-56977623D01*
X277158226Y-56977621D01*
X277167057Y-56973120D01*
X277239966Y-56900195D01*
X277286770Y-56808309D01*
X277288322Y-56798507D01*
X277300057Y-56724348D01*
X277300057Y-56724347D01*
X277302888Y-56706456D01*
X282293783Y-56706456D01*
X282309903Y-56808303D01*
X282356712Y-56900180D01*
X282429625Y-56973092D01*
X282438462Y-56977594D01*
X282445069Y-56980960D01*
X282521504Y-57019899D01*
X282531684Y-57021510D01*
X282605454Y-57033185D01*
X282605455Y-57033185D01*
X282623351Y-57036017D01*
X282623351Y-57034061D01*
X282628421Y-57034863D01*
X282628421Y-57031960D01*
X296012782Y-57031960D01*
X296019989Y-57032670D01*
X296023350Y-57034061D01*
X296023351Y-57034061D01*
X296023351Y-57036104D01*
X296065906Y-57029357D01*
X296115406Y-57021510D01*
X296115408Y-57021509D01*
X296125200Y-57019957D01*
X296134033Y-57015455D01*
X296134035Y-57015454D01*
X296208241Y-56977630D01*
X296208242Y-56977629D01*
X296217075Y-56973127D01*
X296289983Y-56900199D01*
X296294487Y-56891358D01*
X296313771Y-56853496D01*
X296336786Y-56808310D01*
X296350001Y-56724800D01*
X296350073Y-56724348D01*
X296350073Y-56724347D01*
X296352904Y-56706456D01*
X296350949Y-56706456D01*
X296351751Y-56701386D01*
X296348846Y-56701386D01*
X296348846Y-43311531D01*
X296351630Y-43311531D01*
X296350899Y-43306572D01*
X296350947Y-43306456D01*
X296352898Y-43306456D01*
X301343804Y-43306456D01*
X301345761Y-43306456D01*
X301345766Y-43306469D01*
X301344964Y-43311531D01*
X301347862Y-43311531D01*
X301347862Y-56701386D01*
X301345142Y-56701386D01*
X301345856Y-56706228D01*
X301345761Y-56706456D01*
X301343883Y-56706456D01*
X301346786Y-56724798D01*
X301346786Y-56724800D01*
X301358446Y-56798487D01*
X301358447Y-56798490D01*
X301359997Y-56808285D01*
X301406790Y-56900150D01*
X301479680Y-56973060D01*
X301571534Y-57019876D01*
X301673358Y-57036017D01*
X301673358Y-57034061D01*
X301673359Y-57034061D01*
X301676720Y-57032669D01*
X301683925Y-57031960D01*
X315068287Y-57031960D01*
X315068287Y-57034759D01*
X315073270Y-57034024D01*
X315073358Y-57034061D01*
X315073358Y-57036019D01*
X315091700Y-57033116D01*
X315091702Y-57033116D01*
X315165026Y-57021510D01*
X315175204Y-57019899D01*
X315267080Y-56973091D01*
X315339992Y-56900179D01*
X315386799Y-56808301D01*
X315388351Y-56798498D01*
X315400087Y-56724351D01*
X315400087Y-56724348D01*
X315402919Y-56706456D01*
X315400963Y-56706456D01*
X315400963Y-56706455D01*
X315401765Y-56701386D01*
X315398862Y-56701386D01*
X315398862Y-43311531D01*
X315401729Y-43311531D01*
X315400981Y-43306456D01*
X315402998Y-43306456D01*
X320393692Y-43306456D01*
X320395649Y-43306456D01*
X320395654Y-43306469D01*
X320394852Y-43311531D01*
X320397750Y-43311531D01*
X320397750Y-56701386D01*
X320395042Y-56701386D01*
X320395752Y-56706206D01*
X320395649Y-56706456D01*
X320393783Y-56706456D01*
X320409896Y-56808282D01*
X320456687Y-56900146D01*
X320529574Y-56973055D01*
X320538407Y-56977558D01*
X320538408Y-56977558D01*
X320543956Y-56980386D01*
X320621424Y-57019873D01*
X320631217Y-57021426D01*
X320631218Y-57021426D01*
X320705352Y-57033180D01*
X320723245Y-57036017D01*
X320723245Y-57034061D01*
X320723265Y-57034053D01*
X320728320Y-57034854D01*
X320728320Y-57031960D01*
X334118180Y-57031960D01*
X334118180Y-57034838D01*
X334123255Y-57034090D01*
X334123255Y-57036108D01*
X334171519Y-57028456D01*
X334215313Y-57021513D01*
X334215316Y-57021512D01*
X334225105Y-57019960D01*
X334233936Y-57015459D01*
X334233938Y-57015458D01*
X334308146Y-56977632D01*
X334316980Y-56973129D01*
X334389887Y-56900200D01*
X334436690Y-56808311D01*
X334452808Y-56706456D01*
X334450853Y-56706456D01*
X334451655Y-56701386D01*
X334448750Y-56701386D01*
X334448750Y-43311531D01*
X334451530Y-43311531D01*
X334450800Y-43306579D01*
X334450851Y-43306456D01*
X334452798Y-43306456D01*
X339443773Y-43306456D01*
X339445729Y-43306456D01*
X339445736Y-43306474D01*
X339444935Y-43311531D01*
X339447830Y-43311531D01*
X339447830Y-56701386D01*
X339445043Y-56701386D01*
X339445774Y-56706347D01*
X339445729Y-56706456D01*
X339443783Y-56706456D01*
X339446686Y-56724797D01*
X339458351Y-56798498D01*
X339459902Y-56808299D01*
X339464403Y-56817135D01*
X339464404Y-56817137D01*
X339490227Y-56867826D01*
X339506707Y-56900175D01*
X339579617Y-56973086D01*
X339671490Y-57019895D01*
X339681286Y-57021446D01*
X339681287Y-57021446D01*
X339689386Y-57022728D01*
X339773333Y-57036017D01*
X339773333Y-57034061D01*
X339773336Y-57034060D01*
X339778404Y-57034862D01*
X339778404Y-57031960D01*
X353168259Y-57031960D01*
X353168259Y-57034820D01*
X353173333Y-57034072D01*
X353173333Y-57036088D01*
X353191682Y-57033180D01*
X353191683Y-57033180D01*
X353265391Y-57021498D01*
X353265392Y-57021498D01*
X353275182Y-57019946D01*
X353284014Y-57015445D01*
X353284016Y-57015444D01*
X353358223Y-56977623D01*
X353358226Y-56977621D01*
X353367057Y-56973120D01*
X353439966Y-56900195D01*
X353486770Y-56808309D01*
X353488322Y-56798507D01*
X353500057Y-56724348D01*
X353500057Y-56724347D01*
X353502888Y-56706456D01*
X353500933Y-56706456D01*
X353501735Y-56701386D01*
X353498830Y-56701386D01*
X353498830Y-43311531D01*
X353501628Y-43311531D01*
X353500893Y-43306547D01*
X353500931Y-43306456D01*
X353502898Y-43306456D01*
X358493853Y-43306456D01*
X358495809Y-43306456D01*
X358495816Y-43306474D01*
X358495015Y-43311531D01*
X358497910Y-43311531D01*
X358497910Y-56701386D01*
X358495143Y-56701386D01*
X358495869Y-56706312D01*
X358495809Y-56706456D01*
X358493883Y-56706456D01*
X358510001Y-56808295D01*
X358533401Y-56854231D01*
X358552292Y-56891313D01*
X358556802Y-56900167D01*
X358629706Y-56973078D01*
X358721574Y-57019889D01*
X358748467Y-57024148D01*
X358805504Y-57033181D01*
X358823411Y-57036017D01*
X358823411Y-57034061D01*
X358823419Y-57034058D01*
X358828483Y-57034860D01*
X358828483Y-57031960D01*
X372218338Y-57031960D01*
X372218338Y-57034802D01*
X372223399Y-57034056D01*
X372223411Y-57034061D01*
X372223411Y-57036068D01*
X372325259Y-57019932D01*
X372402777Y-56980429D01*
X372408299Y-56977615D01*
X372408300Y-56977614D01*
X372417135Y-56973112D01*
X372461721Y-56928518D01*
X372483034Y-56907202D01*
X372483038Y-56907197D01*
X372490044Y-56900190D01*
X372536849Y-56808307D01*
X372550065Y-56724798D01*
X372550136Y-56724352D01*
X372550136Y-56724350D01*
X372552968Y-56706456D01*
X372551012Y-56706456D01*
X372551814Y-56701386D01*
X372548910Y-56701386D01*
X372548910Y-50006460D01*
X376074011Y-50006460D01*
X376094607Y-50241868D01*
X376155767Y-50470123D01*
X376255635Y-50684289D01*
X376391175Y-50877861D01*
X376558269Y-51044955D01*
X376751841Y-51180495D01*
X376756819Y-51182816D01*
X376756822Y-51182818D01*
X376961025Y-51278040D01*
X376966007Y-51280363D01*
X376971315Y-51281785D01*
X376971317Y-51281786D01*
X377188947Y-51340099D01*
X377194262Y-51341523D01*
X377297352Y-51350542D01*
X377367980Y-51356722D01*
X377367987Y-51356722D01*
X377370704Y-51356960D01*
X377488636Y-51356960D01*
X377491353Y-51356722D01*
X377491360Y-51356722D01*
X377561988Y-51350542D01*
X377665078Y-51341523D01*
X377670393Y-51340099D01*
X377888023Y-51281786D01*
X377888025Y-51281785D01*
X377893333Y-51280363D01*
X377898315Y-51278040D01*
X378102518Y-51182818D01*
X378102521Y-51182816D01*
X378107499Y-51180495D01*
X378301071Y-51044955D01*
X378468165Y-50877861D01*
X378471325Y-50873349D01*
X378600548Y-50688799D01*
X378600551Y-50688794D01*
X378603705Y-50684290D01*
X378606028Y-50679308D01*
X378606031Y-50679303D01*
X378701250Y-50475105D01*
X378701251Y-50475104D01*
X378703573Y-50470123D01*
X378764733Y-50241868D01*
X378785329Y-50006460D01*
X378764733Y-49771052D01*
X378703573Y-49542797D01*
X378603705Y-49328631D01*
X378468165Y-49135059D01*
X378301071Y-48967965D01*
X378107499Y-48832425D01*
X378102521Y-48830104D01*
X378102518Y-48830102D01*
X377898315Y-48734880D01*
X377898313Y-48734879D01*
X377893333Y-48732557D01*
X377888025Y-48731135D01*
X377888023Y-48731134D01*
X377670393Y-48672821D01*
X377670392Y-48672821D01*
X377665078Y-48671397D01*
X377561988Y-48662378D01*
X377491360Y-48656198D01*
X377491353Y-48656198D01*
X377488636Y-48655960D01*
X377370704Y-48655960D01*
X377367987Y-48656198D01*
X377367980Y-48656198D01*
X377297352Y-48662378D01*
X377194262Y-48671397D01*
X377188948Y-48672821D01*
X377188947Y-48672821D01*
X376971317Y-48731134D01*
X376971315Y-48731135D01*
X376966007Y-48732557D01*
X376961027Y-48734879D01*
X376961025Y-48734880D01*
X376756822Y-48830102D01*
X376756819Y-48830104D01*
X376751841Y-48832425D01*
X376558269Y-48967965D01*
X376391175Y-49135059D01*
X376388018Y-49139567D01*
X376388016Y-49139570D01*
X376258792Y-49324121D01*
X376255635Y-49328630D01*
X376253312Y-49333612D01*
X376253309Y-49333617D01*
X376158090Y-49537815D01*
X376155767Y-49542797D01*
X376094607Y-49771052D01*
X376074011Y-50006460D01*
X372548910Y-50006460D01*
X372548910Y-43311531D01*
X372551728Y-43311531D01*
X372550988Y-43306512D01*
X372551011Y-43306456D01*
X372552998Y-43306456D01*
X372536856Y-43204617D01*
X372490037Y-43112749D01*
X372417124Y-43039843D01*
X372408272Y-43035333D01*
X372351601Y-43006459D01*
X382306593Y-43006459D01*
X382308409Y-43006459D01*
X382310373Y-43011202D01*
X382310510Y-43012577D01*
X382310510Y-56997651D01*
X382310107Y-57002359D01*
X382308409Y-57006459D01*
X382306623Y-57006459D01*
X382322255Y-57185215D01*
X382368692Y-57358540D01*
X382371015Y-57363521D01*
X382371016Y-57363525D01*
X382431718Y-57493710D01*
X382444521Y-57521168D01*
X382547440Y-57668157D01*
X382674320Y-57795040D01*
X382821306Y-57897963D01*
X382983931Y-57973798D01*
X383157255Y-58020239D01*
X383241662Y-58027623D01*
X383318323Y-58034330D01*
X383318325Y-58034330D01*
X383336010Y-58035877D01*
X383336010Y-58034061D01*
X383340749Y-58032098D01*
X383342134Y-58031960D01*
X395326746Y-58031960D01*
X395332028Y-58032412D01*
X395336010Y-58034061D01*
X395336010Y-58035927D01*
X395514772Y-58020285D01*
X395520086Y-58018861D01*
X395520092Y-58018860D01*
X395682787Y-57975263D01*
X395688101Y-57973839D01*
X395704476Y-57966203D01*
X395845748Y-57900324D01*
X395845751Y-57900323D01*
X395850731Y-57898000D01*
X395929603Y-57842770D01*
X395993212Y-57798229D01*
X395993216Y-57798225D01*
X395997721Y-57795071D01*
X396124604Y-57668182D01*
X396227525Y-57521187D01*
X396303357Y-57358553D01*
X396308393Y-57339758D01*
X396348370Y-57190536D01*
X396349794Y-57185221D01*
X396365427Y-57006459D01*
X396363611Y-57006459D01*
X396361648Y-57001721D01*
X396361510Y-57000332D01*
X396361510Y-56536530D01*
X396361562Y-56536530D01*
X396361547Y-56536440D01*
X396363610Y-56531460D01*
X396361510Y-56526390D01*
X396361510Y-56509999D01*
X396361559Y-56509091D01*
X396361510Y-56508753D01*
X396361510Y-43015605D01*
X396361949Y-43010473D01*
X396363611Y-43006459D01*
X396365457Y-43006459D01*
X396363909Y-42988767D01*
X396352876Y-42862716D01*
X396349811Y-42827702D01*
X396326587Y-42741040D01*
X396304788Y-42659693D01*
X396304786Y-42659689D01*
X396303363Y-42654377D01*
X396227524Y-42491751D01*
X396149317Y-42380064D01*
X396127754Y-42349271D01*
X396124598Y-42344764D01*
X395997713Y-42217882D01*
X395850723Y-42114961D01*
X395688094Y-42039126D01*
X395682786Y-42037704D01*
X395682784Y-42037703D01*
X395520076Y-41994106D01*
X395520073Y-41994106D01*
X395514768Y-41992684D01*
X395336010Y-41977043D01*
X395336010Y-41978859D01*
X395331269Y-41980823D01*
X395329890Y-41980960D01*
X383344699Y-41980960D01*
X383340141Y-41980570D01*
X383336010Y-41978859D01*
X383336010Y-41977093D01*
X383319742Y-41978516D01*
X383319741Y-41978516D01*
X383162742Y-41992250D01*
X383162738Y-41992251D01*
X383157259Y-41992730D01*
X383151943Y-41994154D01*
X383151939Y-41994155D01*
X383062378Y-42018151D01*
X382983938Y-42039168D01*
X382978957Y-42041490D01*
X382978953Y-42041492D01*
X382826299Y-42112672D01*
X382826294Y-42112675D01*
X382821314Y-42114997D01*
X382816807Y-42118153D01*
X382678832Y-42214759D01*
X382678829Y-42214761D01*
X382674328Y-42217913D01*
X382670441Y-42221800D01*
X382600555Y-42291683D01*
X382547446Y-42344789D01*
X382544292Y-42349294D01*
X382544288Y-42349298D01*
X382447678Y-42487264D01*
X382444523Y-42491770D01*
X382442199Y-42496753D01*
X382442198Y-42496755D01*
X382371020Y-42649385D01*
X382368686Y-42654390D01*
X382322239Y-42827708D01*
X382306593Y-43006459D01*
X372351601Y-43006459D01*
X372334084Y-42997534D01*
X372334082Y-42997533D01*
X372325251Y-42993034D01*
X372223411Y-42976902D01*
X372223411Y-42978859D01*
X372223403Y-42978862D01*
X372218338Y-42978060D01*
X372218338Y-42980960D01*
X358828483Y-42980960D01*
X358828483Y-42978215D01*
X358823596Y-42978936D01*
X358823411Y-42978859D01*
X358823411Y-42976953D01*
X358721581Y-42993077D01*
X358712746Y-42997578D01*
X358638553Y-43035375D01*
X358638551Y-43035377D01*
X358629717Y-43039877D01*
X358622707Y-43046886D01*
X358622704Y-43046888D01*
X358593260Y-43076328D01*
X358556809Y-43112772D01*
X358552306Y-43121608D01*
X358552305Y-43121609D01*
X358540311Y-43145144D01*
X358509994Y-43204629D01*
X358508441Y-43214424D01*
X358508441Y-43214425D01*
X358507296Y-43221648D01*
X358493853Y-43306456D01*
X353502898Y-43306456D01*
X353489457Y-43221653D01*
X353488310Y-43214417D01*
X353488309Y-43214415D01*
X353486757Y-43204621D01*
X353456451Y-43145149D01*
X353444444Y-43121588D01*
X353444442Y-43121585D01*
X353439943Y-43112756D01*
X353367035Y-43039851D01*
X353358203Y-43035351D01*
X353358201Y-43035349D01*
X353319453Y-43015605D01*
X353275168Y-42993039D01*
X353265376Y-42991487D01*
X353265375Y-42991487D01*
X353191225Y-42979737D01*
X353191224Y-42979737D01*
X353173333Y-42976902D01*
X353173333Y-42978859D01*
X353173321Y-42978864D01*
X353168259Y-42978062D01*
X353168259Y-42980960D01*
X339778404Y-42980960D01*
X339778404Y-42978233D01*
X339773549Y-42978949D01*
X339773333Y-42978859D01*
X339773333Y-42976973D01*
X339754990Y-42979876D01*
X339754989Y-42979876D01*
X339681296Y-42991540D01*
X339681295Y-42991540D01*
X339671504Y-42993090D01*
X339662670Y-42997590D01*
X339588556Y-43035343D01*
X339579639Y-43039885D01*
X339506730Y-43112777D01*
X339502227Y-43121613D01*
X339502225Y-43121615D01*
X339465269Y-43194125D01*
X339459914Y-43204631D01*
X339457216Y-43221651D01*
X339446609Y-43288562D01*
X339446609Y-43288564D01*
X339443773Y-43306456D01*
X334452798Y-43306456D01*
X334436659Y-43204626D01*
X334406338Y-43145124D01*
X334394349Y-43121596D01*
X334394348Y-43121594D01*
X334389848Y-43112764D01*
X334316945Y-43039859D01*
X334251406Y-43006459D01*
X334233921Y-42997548D01*
X334225085Y-42993045D01*
X334215291Y-42991492D01*
X334215290Y-42991492D01*
X334191471Y-42987716D01*
X334123255Y-42976902D01*
X334123255Y-42978859D01*
X334123239Y-42978866D01*
X334118180Y-42978064D01*
X334118180Y-42980960D01*
X320728320Y-42980960D01*
X320728320Y-42978162D01*
X320723336Y-42978897D01*
X320723245Y-42978859D01*
X320723245Y-42976892D01*
X320687296Y-42982591D01*
X320631207Y-42991482D01*
X320631205Y-42991482D01*
X320621412Y-42993035D01*
X320612576Y-42997538D01*
X320603403Y-43002213D01*
X320529549Y-43039851D01*
X320456644Y-43112758D01*
X320409832Y-43204623D01*
X320393692Y-43306456D01*
X315402998Y-43306456D01*
X315389555Y-43221651D01*
X315388406Y-43214402D01*
X315388405Y-43214400D01*
X315386853Y-43204607D01*
X315340025Y-43112732D01*
X315267098Y-43039825D01*
X315184181Y-42997590D01*
X315184048Y-42997522D01*
X315184047Y-42997522D01*
X315175211Y-42993021D01*
X315119244Y-42984164D01*
X315091254Y-42979734D01*
X315091253Y-42979734D01*
X315073358Y-42976902D01*
X315073358Y-42978858D01*
X315068287Y-42978056D01*
X315068287Y-42980960D01*
X301683925Y-42980960D01*
X301676720Y-42980251D01*
X301673359Y-42978859D01*
X301673358Y-42978859D01*
X301673358Y-42976904D01*
X301627545Y-42984165D01*
X301581316Y-42991491D01*
X301581313Y-42991492D01*
X301571526Y-42993043D01*
X301562696Y-42997543D01*
X301562695Y-42997543D01*
X301553531Y-43002213D01*
X301479662Y-43039856D01*
X301406757Y-43112761D01*
X301359944Y-43204624D01*
X301358393Y-43214411D01*
X301358392Y-43214415D01*
X301357245Y-43221651D01*
X301343804Y-43306456D01*
X296352898Y-43306456D01*
X296336759Y-43204625D01*
X296289947Y-43112762D01*
X296217043Y-43039857D01*
X296125181Y-42993043D01*
X296023351Y-42976902D01*
X296023351Y-42978859D01*
X296023350Y-42978859D01*
X296019989Y-42980250D01*
X296012782Y-42980960D01*
X282628421Y-42980960D01*
X282628421Y-42978247D01*
X282623592Y-42978959D01*
X282623351Y-42978859D01*
X282623351Y-42976989D01*
X282605010Y-42979891D01*
X282605009Y-42979891D01*
X282531317Y-42991551D01*
X282531316Y-42991551D01*
X282521522Y-42993101D01*
X282512685Y-42997602D01*
X282438491Y-43035392D01*
X282438489Y-43035393D01*
X282429657Y-43039892D01*
X282356747Y-43112781D01*
X282352247Y-43121610D01*
X282352245Y-43121613D01*
X282340254Y-43145138D01*
X282309930Y-43204632D01*
X282307232Y-43221651D01*
X282296625Y-43288562D01*
X282296625Y-43288564D01*
X282293789Y-43306456D01*
X282295745Y-43306456D01*
X282295752Y-43306474D01*
X282294951Y-43311531D01*
X282297846Y-43311531D01*
X282297846Y-56701386D01*
X282295043Y-56701386D01*
X282295778Y-56706375D01*
X282295745Y-56706456D01*
X282293783Y-56706456D01*
X277302888Y-56706456D01*
X277300933Y-56706456D01*
X277301735Y-56701386D01*
X277298830Y-56701386D01*
X277298830Y-43311531D01*
X277301628Y-43311531D01*
X277300893Y-43306547D01*
X277300931Y-43306456D01*
X277302898Y-43306456D01*
X277289457Y-43221653D01*
X277288310Y-43214417D01*
X277288309Y-43214415D01*
X277286757Y-43204621D01*
X277256451Y-43145149D01*
X277244444Y-43121588D01*
X277244442Y-43121585D01*
X277239943Y-43112756D01*
X277167035Y-43039851D01*
X277158203Y-43035351D01*
X277158201Y-43035349D01*
X277119453Y-43015605D01*
X277075168Y-42993039D01*
X277065376Y-42991487D01*
X277065375Y-42991487D01*
X276991225Y-42979737D01*
X276991224Y-42979737D01*
X276973333Y-42976902D01*
X276973333Y-42978859D01*
X276973321Y-42978864D01*
X276968259Y-42978062D01*
X276968259Y-42980960D01*
X263578404Y-42980960D01*
X263578404Y-42978233D01*
X263573549Y-42978949D01*
X263573333Y-42978859D01*
X263573333Y-42976973D01*
X263554990Y-42979876D01*
X263554989Y-42979876D01*
X263481296Y-42991540D01*
X263481295Y-42991540D01*
X263471504Y-42993090D01*
X263462670Y-42997590D01*
X263388556Y-43035343D01*
X263379639Y-43039885D01*
X263306730Y-43112777D01*
X263302227Y-43121613D01*
X263302225Y-43121615D01*
X263265269Y-43194125D01*
X263259914Y-43204631D01*
X263257216Y-43221651D01*
X263246609Y-43288562D01*
X263246609Y-43288564D01*
X263243773Y-43306456D01*
X258252898Y-43306456D01*
X258236756Y-43204618D01*
X258206447Y-43145144D01*
X258194441Y-43121584D01*
X258194439Y-43121581D01*
X258189939Y-43112751D01*
X258182928Y-43105740D01*
X258153482Y-43076298D01*
X258117026Y-43039845D01*
X258108193Y-43035344D01*
X258108191Y-43035343D01*
X258033992Y-42997537D01*
X258033989Y-42997536D01*
X258025155Y-42993035D01*
X258015360Y-42991483D01*
X258015359Y-42991483D01*
X257996310Y-42988466D01*
X257923315Y-42976902D01*
X257923315Y-42978859D01*
X257923307Y-42978863D01*
X257918242Y-42978060D01*
X257918242Y-42980960D01*
X244528387Y-42980960D01*
X244528387Y-42978219D01*
X244523507Y-42978938D01*
X244523315Y-42978859D01*
X244523315Y-42976957D01*
X244504972Y-42979861D01*
X244431281Y-42991528D01*
X244431280Y-42991528D01*
X244421486Y-42993079D01*
X244353400Y-43027764D01*
X244338496Y-43035357D01*
X244329621Y-43039878D01*
X244256713Y-43112773D01*
X244252210Y-43121609D01*
X244252209Y-43121610D01*
X244240237Y-43145100D01*
X244209898Y-43204629D01*
X244208345Y-43214424D01*
X244208345Y-43214425D01*
X244207200Y-43221648D01*
X244193757Y-43306456D01*
X239202398Y-43306456D01*
X239186259Y-43204626D01*
X239155938Y-43145124D01*
X239143949Y-43121596D01*
X239143948Y-43121594D01*
X239139448Y-43112764D01*
X239066545Y-43039859D01*
X239001006Y-43006459D01*
X238983521Y-42997548D01*
X238974685Y-42993045D01*
X238964891Y-42991492D01*
X238964890Y-42991492D01*
X238941071Y-42987716D01*
X238872855Y-42976902D01*
X238872855Y-42978859D01*
X238872839Y-42978866D01*
X238867780Y-42978064D01*
X238867780Y-42980960D01*
X225477920Y-42980960D01*
X225477920Y-42978162D01*
X225472936Y-42978897D01*
X225472845Y-42978859D01*
X225472845Y-42976892D01*
X225436896Y-42982591D01*
X225380807Y-42991482D01*
X225380805Y-42991482D01*
X225371012Y-42993035D01*
X225362176Y-42997538D01*
X225353003Y-43002213D01*
X225279149Y-43039851D01*
X225206244Y-43112758D01*
X225159432Y-43204623D01*
X225143292Y-43306456D01*
X220152398Y-43306456D01*
X220136253Y-43204609D01*
X220131751Y-43195775D01*
X220093932Y-43121573D01*
X220093928Y-43121567D01*
X220089427Y-43112735D01*
X220016503Y-43039828D01*
X219924618Y-42993023D01*
X219872467Y-42984769D01*
X219840661Y-42979734D01*
X219840660Y-42979734D01*
X219822767Y-42976902D01*
X219822767Y-42978859D01*
X219817696Y-42978056D01*
X219817696Y-42980960D01*
X206427841Y-42980960D01*
X206427841Y-42978180D01*
X206422890Y-42978910D01*
X206422767Y-42978859D01*
X206422767Y-42976912D01*
X206404421Y-42979819D01*
X206404420Y-42979819D01*
X206335095Y-42990805D01*
X206320935Y-42993049D01*
X206312101Y-42997550D01*
X206312099Y-42997551D01*
X206237905Y-43035357D01*
X206237902Y-43035359D01*
X206229071Y-43039859D01*
X206156165Y-43112762D01*
X206151665Y-43121592D01*
X206151664Y-43121594D01*
X206139675Y-43145121D01*
X206109352Y-43204625D01*
X206093212Y-43306456D01*
X201102298Y-43306456D01*
X201086155Y-43204613D01*
X201039332Y-43112742D01*
X200966413Y-43039835D01*
X200957579Y-43035335D01*
X200957577Y-43035333D01*
X200883374Y-42997531D01*
X200874535Y-42993028D01*
X200772689Y-42976902D01*
X200772689Y-42978859D01*
X200772687Y-42978860D01*
X200767617Y-42978057D01*
X200767617Y-42980960D01*
X187377762Y-42980960D01*
X187377762Y-42978198D01*
X187372844Y-42978923D01*
X187372689Y-42978859D01*
X187372689Y-42976932D01*
X187331965Y-42983383D01*
X187280653Y-42991510D01*
X187280650Y-42991511D01*
X187270858Y-42993062D01*
X187226613Y-43015605D01*
X187187911Y-43035324D01*
X187178994Y-43039867D01*
X187106087Y-43112767D01*
X187059272Y-43204627D01*
X187057719Y-43214424D01*
X187057719Y-43214425D01*
X187046041Y-43288105D01*
X187043132Y-43306456D01*
X182052198Y-43306456D01*
X182036056Y-43204617D01*
X181989237Y-43112749D01*
X181916324Y-43039843D01*
X181907472Y-43035333D01*
X181833284Y-42997534D01*
X181833282Y-42997533D01*
X181824451Y-42993034D01*
X181722611Y-42976902D01*
X181722611Y-42978859D01*
X181722603Y-42978862D01*
X181717538Y-42978060D01*
X181717538Y-42980960D01*
X168327683Y-42980960D01*
X168327683Y-42978215D01*
X168322796Y-42978936D01*
X168322611Y-42978859D01*
X168322611Y-42976953D01*
X168220781Y-42993077D01*
X168211946Y-42997578D01*
X168137753Y-43035375D01*
X168137751Y-43035377D01*
X168128917Y-43039877D01*
X168121907Y-43046886D01*
X168121904Y-43046888D01*
X168092460Y-43076328D01*
X168056009Y-43112772D01*
X168051506Y-43121608D01*
X168051505Y-43121609D01*
X168039511Y-43145144D01*
X168009194Y-43204629D01*
X168007641Y-43214424D01*
X168007641Y-43214425D01*
X168006496Y-43221648D01*
X167993053Y-43306456D01*
X163002098Y-43306456D01*
X162988657Y-43221653D01*
X162987510Y-43214417D01*
X162987509Y-43214415D01*
X162985957Y-43204621D01*
X162955651Y-43145149D01*
X162943644Y-43121588D01*
X162943642Y-43121585D01*
X162939143Y-43112756D01*
X162866235Y-43039851D01*
X162857403Y-43035351D01*
X162857401Y-43035349D01*
X162818653Y-43015605D01*
X162774368Y-42993039D01*
X162764576Y-42991487D01*
X162764575Y-42991487D01*
X162690425Y-42979737D01*
X162690424Y-42979737D01*
X162672533Y-42976902D01*
X162672533Y-42978859D01*
X162672521Y-42978864D01*
X162667459Y-42978062D01*
X162667459Y-42980960D01*
X149277604Y-42980960D01*
X149277604Y-42978233D01*
X149272749Y-42978949D01*
X149272533Y-42978859D01*
X149272533Y-42976973D01*
X149254190Y-42979876D01*
X149254189Y-42979876D01*
X149180496Y-42991540D01*
X149180495Y-42991540D01*
X149170704Y-42993090D01*
X149161870Y-42997590D01*
X149087756Y-43035343D01*
X149078839Y-43039885D01*
X149005930Y-43112777D01*
X149001427Y-43121613D01*
X149001425Y-43121615D01*
X148964469Y-43194125D01*
X148959114Y-43204631D01*
X148956416Y-43221651D01*
X148945809Y-43288562D01*
X148945809Y-43288564D01*
X148942973Y-43306456D01*
X146474082Y-43306456D01*
X146474082Y-42867800D01*
X146474138Y-42867800D01*
X146474122Y-42867703D01*
X146476183Y-42862728D01*
X146474350Y-42858302D01*
X146490795Y-42586379D01*
X146492629Y-42571274D01*
X146541157Y-42306456D01*
X146544798Y-42291683D01*
X146621100Y-42046812D01*
X146624893Y-42034640D01*
X146630284Y-42020423D01*
X146740788Y-41774890D01*
X146747857Y-41761423D01*
X146887139Y-41531023D01*
X146895782Y-41518501D01*
X147061827Y-41306561D01*
X147071917Y-41295173D01*
X147262282Y-41104808D01*
X147273671Y-41094717D01*
X147485613Y-40928674D01*
X147498135Y-40920031D01*
X147728539Y-40780749D01*
X147742012Y-40773678D01*
X147987528Y-40663183D01*
X148001755Y-40657788D01*
X148258795Y-40577694D01*
X148273569Y-40574053D01*
X148538388Y-40525527D01*
X148553493Y-40523693D01*
X148825445Y-40507248D01*
X148825595Y-40509735D01*
X148829589Y-40508964D01*
X148829842Y-40509069D01*
X148830537Y-40508781D01*
X148834916Y-40507936D01*
X148834916Y-40506968D01*
X148851308Y-40506968D01*
X148852216Y-40507017D01*
X148852554Y-40506968D01*
X149705982Y-40506960D01*
X150613297Y-40506952D01*
X150621623Y-40508346D01*
X150627858Y-40503900D01*
X150634934Y-40500969D01*
X150638165Y-40493169D01*
X150639877Y-40490430D01*
X150640104Y-40490247D01*
X150641754Y-40487426D01*
X150641756Y-40487424D01*
X152519266Y-37483406D01*
X153936873Y-37483406D01*
X153952810Y-37759803D01*
X153953637Y-37764017D01*
X153953637Y-37764019D01*
X153965228Y-37823101D01*
X154006110Y-38031479D01*
X154095789Y-38293408D01*
X154220185Y-38540743D01*
X154222611Y-38544272D01*
X154222614Y-38544278D01*
X154303192Y-38661519D01*
X154376998Y-38768907D01*
X154563325Y-38973678D01*
X154615378Y-39017201D01*
X154772427Y-39148515D01*
X154772432Y-39148519D01*
X154775719Y-39151267D01*
X154830103Y-39185382D01*
X155006609Y-39296104D01*
X155006613Y-39296106D01*
X155010249Y-39298387D01*
X155014159Y-39300152D01*
X155014160Y-39300153D01*
X155258664Y-39410551D01*
X155258668Y-39410553D01*
X155262576Y-39412317D01*
X155266695Y-39413537D01*
X155523918Y-39489731D01*
X155523923Y-39489732D01*
X155528031Y-39490949D01*
X155532265Y-39491597D01*
X155532270Y-39491598D01*
X155797459Y-39532177D01*
X155797461Y-39532177D01*
X155801701Y-39532826D01*
X155942611Y-39535040D01*
X156074231Y-39537108D01*
X156074237Y-39537108D01*
X156078522Y-39537175D01*
X156353373Y-39503914D01*
X156621166Y-39433660D01*
X156625126Y-39432020D01*
X156625131Y-39432018D01*
X156749057Y-39380686D01*
X156876948Y-39327712D01*
X157115983Y-39188031D01*
X157333851Y-39017201D01*
X157526518Y-38818384D01*
X157529051Y-38814936D01*
X157529055Y-38814931D01*
X157687882Y-38598713D01*
X157690420Y-38595258D01*
X157822524Y-38351952D01*
X157920386Y-38092970D01*
X157982194Y-37823101D01*
X157987844Y-37759803D01*
X158006585Y-37549807D01*
X158006805Y-37547342D01*
X158007251Y-37504719D01*
X157988421Y-37228505D01*
X157932278Y-36957401D01*
X157839862Y-36696426D01*
X157712882Y-36450407D01*
X157702779Y-36436031D01*
X157556155Y-36227408D01*
X157556154Y-36227407D01*
X157553688Y-36223898D01*
X157365227Y-36021089D01*
X157351297Y-36009687D01*
X157154303Y-35848450D01*
X157150985Y-35845734D01*
X156943827Y-35718788D01*
X156918589Y-35703322D01*
X156918588Y-35703322D01*
X156914927Y-35701078D01*
X156910991Y-35699350D01*
X156665349Y-35591520D01*
X156665345Y-35591519D01*
X156661421Y-35589796D01*
X156395157Y-35513949D01*
X156192114Y-35485052D01*
X156125316Y-35475545D01*
X156125314Y-35475545D01*
X156121064Y-35474940D01*
X156116775Y-35474918D01*
X156116768Y-35474917D01*
X155848498Y-35473512D01*
X155848491Y-35473512D01*
X155844212Y-35473490D01*
X155839968Y-35474049D01*
X155839964Y-35474049D01*
X155768953Y-35483398D01*
X155569725Y-35509627D01*
X155565585Y-35510760D01*
X155565583Y-35510760D01*
X155502872Y-35527916D01*
X155302682Y-35582682D01*
X155048024Y-35691302D01*
X154964644Y-35741204D01*
X154814146Y-35831275D01*
X154814142Y-35831278D01*
X154810464Y-35833479D01*
X154807121Y-35836157D01*
X154807117Y-35836160D01*
X154795167Y-35845734D01*
X154594398Y-36006581D01*
X154403823Y-36207405D01*
X154242266Y-36432235D01*
X154112717Y-36676910D01*
X154017573Y-36936904D01*
X153958594Y-37207404D01*
X153936873Y-37483406D01*
X152519266Y-37483406D01*
X153608129Y-35741225D01*
X153610938Y-35737360D01*
X153614059Y-35735513D01*
X153615029Y-35731731D01*
X153618464Y-35727004D01*
X153814807Y-35493060D01*
X153824198Y-35483035D01*
X154046708Y-35270067D01*
X154057134Y-35261124D01*
X154301509Y-35073639D01*
X154312846Y-35065885D01*
X154418799Y-35001600D01*
X154576176Y-34906115D01*
X154588280Y-34899646D01*
X154867445Y-34769487D01*
X154880191Y-34764371D01*
X155171857Y-34665377D01*
X155185086Y-34661678D01*
X155485790Y-34595021D01*
X155499340Y-34592784D01*
X155805513Y-34559257D01*
X155819229Y-34558508D01*
X156127239Y-34558508D01*
X156140955Y-34559257D01*
X156447128Y-34592784D01*
X156460678Y-34595021D01*
X156761382Y-34661678D01*
X156774611Y-34665377D01*
X157066277Y-34764371D01*
X157079023Y-34769487D01*
X157358188Y-34899646D01*
X157370292Y-34906115D01*
X157527669Y-35001600D01*
X157633622Y-35065885D01*
X157644959Y-35073639D01*
X157889334Y-35261124D01*
X157899760Y-35270067D01*
X158122270Y-35483035D01*
X158131661Y-35493060D01*
X158328004Y-35727004D01*
X158331439Y-35731731D01*
X158332409Y-35735513D01*
X158335530Y-35737360D01*
X158338339Y-35741225D01*
X161293296Y-40469158D01*
X161308303Y-40493170D01*
X161311535Y-40500970D01*
X161318608Y-40503899D01*
X161324845Y-40508347D01*
X161333178Y-40506951D01*
X161336392Y-40506951D01*
X161336672Y-40507048D01*
X161339959Y-40506951D01*
X162796316Y-40506849D01*
X163701790Y-40506785D01*
X163707135Y-40507254D01*
X163711073Y-40508885D01*
X163711073Y-40510560D01*
X163841419Y-40500302D01*
X163897015Y-40495927D01*
X163897017Y-40495927D01*
X163901943Y-40495539D01*
X163906746Y-40494386D01*
X163906751Y-40494385D01*
X164047479Y-40460595D01*
X164088111Y-40450839D01*
X164092685Y-40448944D01*
X164260420Y-40379453D01*
X164260423Y-40379452D01*
X164264991Y-40377559D01*
X164269210Y-40374973D01*
X164269214Y-40374971D01*
X164392131Y-40299631D01*
X164428228Y-40277506D01*
X164432020Y-40274267D01*
X164538733Y-40183100D01*
X164573798Y-40153144D01*
X164698117Y-40007537D01*
X164798122Y-39844271D01*
X164818634Y-39794719D01*
X164869456Y-39671945D01*
X164869457Y-39671943D01*
X164871350Y-39667369D01*
X164915995Y-39481187D01*
X164930960Y-39290314D01*
X164929301Y-39290315D01*
X164929301Y-39290314D01*
X164927910Y-39286957D01*
X164927200Y-39279760D01*
X164927200Y-35724255D01*
X164927220Y-35723800D01*
X164929301Y-35718771D01*
X164927615Y-35714705D01*
X164927676Y-35713310D01*
X164943887Y-35527386D01*
X164947696Y-35505753D01*
X164994509Y-35330855D01*
X164994516Y-35330830D01*
X165002022Y-35310190D01*
X165078515Y-35146053D01*
X165089495Y-35127027D01*
X165193335Y-34978669D01*
X165207450Y-34961842D01*
X165335479Y-34833774D01*
X165352304Y-34819653D01*
X165500625Y-34715773D01*
X165519649Y-34704787D01*
X165618875Y-34658508D01*
X165683760Y-34628247D01*
X165704400Y-34620733D01*
X165879315Y-34573858D01*
X165900947Y-34570043D01*
X166068096Y-34555420D01*
X166086636Y-34553798D01*
X166088239Y-34553728D01*
X166092325Y-34555420D01*
X166097372Y-34553330D01*
X166097617Y-34553319D01*
X166113805Y-34553319D01*
X166114704Y-34553367D01*
G37*
G04 #@! TD.AperFunction*
M02*
