G04 #@! TF.GenerationSoftware,KiCad,Pcbnew,(6.0.1-0)*
G04 #@! TF.CreationDate,2022-04-26T12:30:30-05:00*
G04 #@! TF.ProjectId,plate,706c6174-652e-46b6-9963-61645f706362,rev?*
G04 #@! TF.SameCoordinates,Original*
G04 #@! TF.FileFunction,Legend,Bot*
G04 #@! TF.FilePolarity,Positive*
%FSLAX46Y46*%
G04 Gerber Fmt 4.6, Leading zero omitted, Abs format (unit mm)*
G04 Created by KiCad (PCBNEW (6.0.1-0)) date 2022-04-26 12:30:30*
%MOMM*%
%LPD*%
G01*
G04 APERTURE LIST*
%ADD10C,0.200000*%
%ADD11C,0.150000*%
G04 APERTURE END LIST*
D10*
X396804940Y-79146792D02*
X396923987Y-79087268D01*
X396983511Y-78968220D01*
X396983511Y-77896792D01*
X395793035Y-78313458D02*
X395793035Y-79146792D01*
X396328749Y-78313458D02*
X396328749Y-78968220D01*
X396269225Y-79087268D01*
X396150178Y-79146792D01*
X395971606Y-79146792D01*
X395852559Y-79087268D01*
X395793035Y-79027744D01*
X394662082Y-79087268D02*
X394781130Y-79146792D01*
X395019225Y-79146792D01*
X395138273Y-79087268D01*
X395197797Y-79027744D01*
X395257321Y-78908696D01*
X395257321Y-78551554D01*
X395197797Y-78432506D01*
X395138273Y-78372982D01*
X395019225Y-78313458D01*
X394781130Y-78313458D01*
X394662082Y-78372982D01*
X394245416Y-78313458D02*
X393947797Y-79146792D01*
X393650178Y-78313458D02*
X393947797Y-79146792D01*
X394066844Y-79444411D01*
X394126368Y-79503935D01*
X394245416Y-79563458D01*
X392400178Y-78313458D02*
X391923987Y-78313458D01*
X392221606Y-79146792D02*
X392221606Y-78075363D01*
X392162082Y-77956316D01*
X392043035Y-77896792D01*
X391923987Y-77896792D01*
X391328749Y-79146792D02*
X391447797Y-79087268D01*
X391507321Y-78968220D01*
X391507321Y-77896792D01*
X390376368Y-79087268D02*
X390495416Y-79146792D01*
X390733511Y-79146792D01*
X390852559Y-79087268D01*
X390912082Y-78968220D01*
X390912082Y-78492030D01*
X390852559Y-78372982D01*
X390733511Y-78313458D01*
X390495416Y-78313458D01*
X390376368Y-78372982D01*
X390316844Y-78492030D01*
X390316844Y-78611077D01*
X390912082Y-78730125D01*
X389900178Y-79146792D02*
X389245416Y-78313458D01*
X389900178Y-78313458D02*
X389245416Y-79146792D01*
X387816844Y-79146792D02*
X387816844Y-78313458D01*
X387816844Y-78551554D02*
X387757321Y-78432506D01*
X387697797Y-78372982D01*
X387578749Y-78313458D01*
X387459702Y-78313458D01*
X386566844Y-79087268D02*
X386685892Y-79146792D01*
X386923987Y-79146792D01*
X387043035Y-79087268D01*
X387102559Y-78968220D01*
X387102559Y-78492030D01*
X387043035Y-78372982D01*
X386923987Y-78313458D01*
X386685892Y-78313458D01*
X386566844Y-78372982D01*
X386507321Y-78492030D01*
X386507321Y-78611077D01*
X387102559Y-78730125D01*
X386090654Y-78313458D02*
X385793035Y-79146792D01*
X385495416Y-78313458D01*
X383412082Y-79146792D02*
X384126368Y-79146792D01*
X383769225Y-79146792D02*
X383769225Y-77896792D01*
X383888273Y-78075363D01*
X384007321Y-78194411D01*
X384126368Y-78253935D01*
X382876368Y-79027744D02*
X382816844Y-79087268D01*
X382876368Y-79146792D01*
X382935892Y-79087268D01*
X382876368Y-79027744D01*
X382876368Y-79146792D01*
X382400178Y-77896792D02*
X381626368Y-77896792D01*
X382043035Y-78372982D01*
X381864463Y-78372982D01*
X381745416Y-78432506D01*
X381685892Y-78492030D01*
X381626368Y-78611077D01*
X381626368Y-78908696D01*
X381685892Y-79027744D01*
X381745416Y-79087268D01*
X381864463Y-79146792D01*
X382221606Y-79146792D01*
X382340654Y-79087268D01*
X382400178Y-79027744D01*
D11*
X393953749Y-97083712D02*
X393953749Y-97797998D01*
X394001368Y-97940855D01*
X394096606Y-98036093D01*
X394239463Y-98083712D01*
X394334702Y-98083712D01*
X393001368Y-98083712D02*
X393477559Y-98083712D01*
X393477559Y-97083712D01*
X392096606Y-97988474D02*
X392144225Y-98036093D01*
X392287082Y-98083712D01*
X392382321Y-98083712D01*
X392525178Y-98036093D01*
X392620416Y-97940855D01*
X392668035Y-97845617D01*
X392715654Y-97655141D01*
X392715654Y-97512284D01*
X392668035Y-97321808D01*
X392620416Y-97226570D01*
X392525178Y-97131332D01*
X392382321Y-97083712D01*
X392287082Y-97083712D01*
X392144225Y-97131332D01*
X392096606Y-97178951D01*
X391382321Y-97083712D02*
X391382321Y-97797998D01*
X391429940Y-97940855D01*
X391525178Y-98036093D01*
X391668035Y-98083712D01*
X391763273Y-98083712D01*
X390429940Y-98083712D02*
X390906130Y-98083712D01*
X390906130Y-97083712D01*
X389525178Y-97988474D02*
X389572797Y-98036093D01*
X389715654Y-98083712D01*
X389810892Y-98083712D01*
X389953749Y-98036093D01*
X390048987Y-97940855D01*
X390096606Y-97845617D01*
X390144225Y-97655141D01*
X390144225Y-97512284D01*
X390096606Y-97321808D01*
X390048987Y-97226570D01*
X389953749Y-97131332D01*
X389810892Y-97083712D01*
X389715654Y-97083712D01*
X389572797Y-97131332D01*
X389525178Y-97178951D01*
X388810892Y-97083712D02*
X388810892Y-97797998D01*
X388858511Y-97940855D01*
X388953749Y-98036093D01*
X389096606Y-98083712D01*
X389191844Y-98083712D01*
X387858511Y-98083712D02*
X388334702Y-98083712D01*
X388334702Y-97083712D01*
X386953749Y-97988474D02*
X387001368Y-98036093D01*
X387144225Y-98083712D01*
X387239463Y-98083712D01*
X387382321Y-98036093D01*
X387477559Y-97940855D01*
X387525178Y-97845617D01*
X387572797Y-97655141D01*
X387572797Y-97512284D01*
X387525178Y-97321808D01*
X387477559Y-97226570D01*
X387382321Y-97131332D01*
X387239463Y-97083712D01*
X387144225Y-97083712D01*
X387001368Y-97131332D01*
X386953749Y-97178951D01*
X386239463Y-97083712D02*
X386239463Y-97797998D01*
X386287082Y-97940855D01*
X386382321Y-98036093D01*
X386525178Y-98083712D01*
X386620416Y-98083712D01*
X385287082Y-98083712D02*
X385763273Y-98083712D01*
X385763273Y-97083712D01*
X384382321Y-97988474D02*
X384429940Y-98036093D01*
X384572797Y-98083712D01*
X384668035Y-98083712D01*
X384810892Y-98036093D01*
X384906130Y-97940855D01*
X384953749Y-97845617D01*
X385001368Y-97655141D01*
X385001368Y-97512284D01*
X384953749Y-97321808D01*
X384906130Y-97226570D01*
X384810892Y-97131332D01*
X384668035Y-97083712D01*
X384572797Y-97083712D01*
X384429940Y-97131332D01*
X384382321Y-97178951D01*
M02*
