G04 #@! TF.GenerationSoftware,KiCad,Pcbnew,(5.1.4-0)*
G04 #@! TF.CreationDate,2021-10-30T11:01:04-05:00*
G04 #@! TF.ProjectId,bottom_plate,626f7474-6f6d-45f7-906c-6174652e6b69,rev?*
G04 #@! TF.SameCoordinates,Original*
G04 #@! TF.FileFunction,Copper,L1,Top*
G04 #@! TF.FilePolarity,Positive*
%FSLAX46Y46*%
G04 Gerber Fmt 4.6, Leading zero omitted, Abs format (unit mm)*
G04 Created by KiCad (PCBNEW (5.1.4-0)) date 2021-10-30 11:01:04*
%MOMM*%
%LPD*%
G04 APERTURE LIST*
%ADD10C,3.500000*%
%ADD11C,0.500000*%
%ADD12C,0.254000*%
G04 APERTURE END LIST*
D10*
X389360818Y-38683016D03*
X383407698Y-118454824D03*
X383407698Y-38683016D03*
X316732754Y-118454824D03*
X316732754Y-38683016D03*
X228626578Y-118454824D03*
X228626578Y-38683016D03*
X161951634Y-118454824D03*
X161951634Y-38683016D03*
X310779634Y-118454824D03*
X310779701Y-38682951D03*
X234579607Y-118454824D03*
X234579608Y-38683016D03*
X155998315Y-118454824D03*
X155998514Y-38683016D03*
X389360818Y-118454824D03*
D11*
X385789477Y-59519032D03*
D12*
G36*
X308927151Y-37162602D02*
G01*
X308666141Y-37553230D01*
X308486355Y-37987272D01*
X308394701Y-38448049D01*
X308394701Y-38917853D01*
X308486355Y-39378630D01*
X308666141Y-39812672D01*
X308927151Y-40203300D01*
X309259352Y-40535501D01*
X309649980Y-40796511D01*
X310084022Y-40976297D01*
X310544799Y-41067951D01*
X311014603Y-41067951D01*
X311475380Y-40976297D01*
X311909422Y-40796511D01*
X312300050Y-40535501D01*
X312632251Y-40203300D01*
X312893261Y-39812672D01*
X313073047Y-39378630D01*
X313164701Y-38917853D01*
X313164701Y-38448049D01*
X313073047Y-37987272D01*
X312893261Y-37553230D01*
X312632251Y-37162602D01*
X312431353Y-36961704D01*
X315081167Y-36961704D01*
X314880204Y-37162667D01*
X314619194Y-37553295D01*
X314439408Y-37987337D01*
X314347754Y-38448114D01*
X314347754Y-38917918D01*
X314439408Y-39378695D01*
X314619194Y-39812737D01*
X314880204Y-40203365D01*
X315212405Y-40535566D01*
X315603033Y-40796576D01*
X316037075Y-40976362D01*
X316497852Y-41068016D01*
X316967656Y-41068016D01*
X317428433Y-40976362D01*
X317862475Y-40796576D01*
X318253103Y-40535566D01*
X318585304Y-40203365D01*
X318846314Y-39812737D01*
X319026100Y-39378695D01*
X319117754Y-38917918D01*
X319117754Y-38448114D01*
X319026100Y-37987337D01*
X318846314Y-37553295D01*
X318585304Y-37162667D01*
X318384341Y-36961704D01*
X318730990Y-36961704D01*
X320917609Y-40788290D01*
X320943825Y-40837337D01*
X320970415Y-40869737D01*
X320994693Y-40903937D01*
X321011575Y-40919891D01*
X321026302Y-40937835D01*
X321058704Y-40964427D01*
X321089185Y-40993231D01*
X321108853Y-41005583D01*
X321126800Y-41020312D01*
X321163768Y-41040072D01*
X321199281Y-41062375D01*
X321220983Y-41070654D01*
X321241457Y-41081597D01*
X321281569Y-41093765D01*
X321320752Y-41108712D01*
X321343649Y-41112597D01*
X321365867Y-41119337D01*
X321407586Y-41123446D01*
X321448929Y-41130461D01*
X321504587Y-41128887D01*
X378635911Y-41128952D01*
X378691522Y-41130525D01*
X378732851Y-41123512D01*
X378774584Y-41119402D01*
X378796809Y-41112660D01*
X378819699Y-41108776D01*
X378858869Y-41093834D01*
X378898994Y-41081662D01*
X378919474Y-41070715D01*
X378941170Y-41062439D01*
X378976672Y-41040143D01*
X379013651Y-41020377D01*
X379031603Y-41005644D01*
X379051266Y-40993295D01*
X379081739Y-40964498D01*
X379114149Y-40937900D01*
X379128879Y-40919951D01*
X379145758Y-40904001D01*
X379170031Y-40869808D01*
X379196626Y-40837402D01*
X379222852Y-40788337D01*
X381409462Y-36961768D01*
X381756047Y-36961768D01*
X381555148Y-37162667D01*
X381294138Y-37553295D01*
X381114352Y-37987337D01*
X381022698Y-38448114D01*
X381022698Y-38917918D01*
X381114352Y-39378695D01*
X381294138Y-39812737D01*
X381555148Y-40203365D01*
X381887349Y-40535566D01*
X382277977Y-40796576D01*
X382712019Y-40976362D01*
X383172796Y-41068016D01*
X383642600Y-41068016D01*
X384103377Y-40976362D01*
X384537419Y-40796576D01*
X384928047Y-40535566D01*
X385260248Y-40203365D01*
X385521258Y-39812737D01*
X385701044Y-39378695D01*
X385792698Y-38917918D01*
X385792698Y-38448114D01*
X385701044Y-37987337D01*
X385521258Y-37553295D01*
X385260248Y-37162667D01*
X385059349Y-36961768D01*
X387709167Y-36961768D01*
X387508268Y-37162667D01*
X387247258Y-37553295D01*
X387067472Y-37987337D01*
X386975818Y-38448114D01*
X386975818Y-38917918D01*
X387067472Y-39378695D01*
X387247258Y-39812737D01*
X387508268Y-40203365D01*
X387840469Y-40535566D01*
X388231097Y-40796576D01*
X388665139Y-40976362D01*
X389125916Y-41068016D01*
X389595720Y-41068016D01*
X390056497Y-40976362D01*
X390490539Y-40796576D01*
X390881167Y-40535566D01*
X391213368Y-40203365D01*
X391474378Y-39812737D01*
X391654164Y-39378695D01*
X391745818Y-38917918D01*
X391745818Y-38448114D01*
X391654164Y-37987337D01*
X391474378Y-37553295D01*
X391213368Y-37162667D01*
X391012469Y-36961768D01*
X391359054Y-36961768D01*
X393545663Y-40788337D01*
X393571889Y-40837402D01*
X393598484Y-40869808D01*
X393622757Y-40904001D01*
X393639636Y-40919951D01*
X393654366Y-40937900D01*
X393686776Y-40964498D01*
X393717249Y-40993295D01*
X393736912Y-41005644D01*
X393754864Y-41020377D01*
X393791843Y-41040143D01*
X393827345Y-41062439D01*
X393849041Y-41070715D01*
X393869521Y-41081662D01*
X393909646Y-41093834D01*
X393948816Y-41108776D01*
X393971706Y-41112660D01*
X393993931Y-41119402D01*
X394035664Y-41123512D01*
X394076993Y-41130525D01*
X394132618Y-41128952D01*
X397662909Y-41128952D01*
X397797637Y-41142162D01*
X397896182Y-41171915D01*
X397987079Y-41220245D01*
X398066848Y-41285303D01*
X398132471Y-41364628D01*
X398181431Y-41455178D01*
X398211872Y-41553515D01*
X398226411Y-41691843D01*
X398226410Y-115439867D01*
X398212600Y-115580714D01*
X398182846Y-115679263D01*
X398134516Y-115770157D01*
X398069459Y-115849926D01*
X397990136Y-115915547D01*
X397899584Y-115964509D01*
X397801249Y-115994949D01*
X397666814Y-116009079D01*
X394132661Y-116008889D01*
X394076993Y-116007315D01*
X394035669Y-116014327D01*
X393993966Y-116018432D01*
X393971730Y-116025176D01*
X393948816Y-116029064D01*
X393909653Y-116044003D01*
X393869554Y-116056165D01*
X393849062Y-116067117D01*
X393827345Y-116075401D01*
X393791848Y-116097694D01*
X393754894Y-116117444D01*
X393736932Y-116132183D01*
X393717249Y-116144545D01*
X393686782Y-116173336D01*
X393654392Y-116199915D01*
X393639653Y-116217873D01*
X393622757Y-116233839D01*
X393598489Y-116268025D01*
X393571909Y-116300409D01*
X393545684Y-116349467D01*
X391359054Y-120176072D01*
X391012469Y-120176072D01*
X391213368Y-119975173D01*
X391474378Y-119584545D01*
X391654164Y-119150503D01*
X391745818Y-118689726D01*
X391745818Y-118219922D01*
X391654164Y-117759145D01*
X391474378Y-117325103D01*
X391213368Y-116934475D01*
X390881167Y-116602274D01*
X390490539Y-116341264D01*
X390056497Y-116161478D01*
X389595720Y-116069824D01*
X389125916Y-116069824D01*
X388665139Y-116161478D01*
X388231097Y-116341264D01*
X387840469Y-116602274D01*
X387508268Y-116934475D01*
X387247258Y-117325103D01*
X387067472Y-117759145D01*
X386975818Y-118219922D01*
X386975818Y-118689726D01*
X387067472Y-119150503D01*
X387247258Y-119584545D01*
X387508268Y-119975173D01*
X387709167Y-120176072D01*
X385059349Y-120176072D01*
X385260248Y-119975173D01*
X385521258Y-119584545D01*
X385701044Y-119150503D01*
X385792698Y-118689726D01*
X385792698Y-118219922D01*
X385701044Y-117759145D01*
X385521258Y-117325103D01*
X385260248Y-116934475D01*
X384928047Y-116602274D01*
X384537419Y-116341264D01*
X384103377Y-116161478D01*
X383642600Y-116069824D01*
X383172796Y-116069824D01*
X382712019Y-116161478D01*
X382277977Y-116341264D01*
X381887349Y-116602274D01*
X381555148Y-116934475D01*
X381294138Y-117325103D01*
X381114352Y-117759145D01*
X381022698Y-118219922D01*
X381022698Y-118689726D01*
X381114352Y-119150503D01*
X381294138Y-119584545D01*
X381555148Y-119975173D01*
X381756047Y-120176072D01*
X381409462Y-120176072D01*
X379222852Y-116349503D01*
X379196626Y-116300437D01*
X379170028Y-116268027D01*
X379145758Y-116233839D01*
X379128879Y-116217889D01*
X379114148Y-116199939D01*
X379081740Y-116173343D01*
X379051266Y-116144545D01*
X379031600Y-116132194D01*
X379013650Y-116117463D01*
X378976678Y-116097701D01*
X378941170Y-116075401D01*
X378919471Y-116067123D01*
X378898993Y-116056178D01*
X378858873Y-116044008D01*
X378819699Y-116029064D01*
X378796807Y-116025180D01*
X378774583Y-116018438D01*
X378732853Y-116014328D01*
X378691522Y-116007315D01*
X378635910Y-116008888D01*
X321509112Y-116009017D01*
X321448929Y-116007315D01*
X321405789Y-116014635D01*
X321365866Y-116018567D01*
X321344604Y-116025017D01*
X321320752Y-116029064D01*
X321279934Y-116044635D01*
X321241456Y-116056307D01*
X321221816Y-116066805D01*
X321199281Y-116075401D01*
X321162405Y-116098560D01*
X321126799Y-116117592D01*
X321109514Y-116131778D01*
X321089185Y-116144545D01*
X321057675Y-116174321D01*
X321026301Y-116200070D01*
X321012043Y-116217443D01*
X320994693Y-116233839D01*
X320969739Y-116268992D01*
X320943825Y-116300568D01*
X320918676Y-116347618D01*
X318730990Y-120176072D01*
X318384405Y-120176072D01*
X318585304Y-119975173D01*
X318846314Y-119584545D01*
X319026100Y-119150503D01*
X319117754Y-118689726D01*
X319117754Y-118219922D01*
X319026100Y-117759145D01*
X318846314Y-117325103D01*
X318585304Y-116934475D01*
X318253103Y-116602274D01*
X317862475Y-116341264D01*
X317428433Y-116161478D01*
X316967656Y-116069824D01*
X316497852Y-116069824D01*
X316037075Y-116161478D01*
X315603033Y-116341264D01*
X315212405Y-116602274D01*
X314880204Y-116934475D01*
X314619194Y-117325103D01*
X314439408Y-117759145D01*
X314347754Y-118219922D01*
X314347754Y-118689726D01*
X314439408Y-119150503D01*
X314619194Y-119584545D01*
X314880204Y-119975173D01*
X315081103Y-120176072D01*
X312431285Y-120176072D01*
X312632184Y-119975173D01*
X312893194Y-119584545D01*
X313072980Y-119150503D01*
X313164634Y-118689726D01*
X313164634Y-118219922D01*
X313072980Y-117759145D01*
X312893194Y-117325103D01*
X312632184Y-116934475D01*
X312299983Y-116602274D01*
X311909355Y-116341264D01*
X311475313Y-116161478D01*
X311014536Y-116069824D01*
X310544732Y-116069824D01*
X310083955Y-116161478D01*
X309649913Y-116341264D01*
X309259285Y-116602274D01*
X308927084Y-116934475D01*
X308666074Y-117325103D01*
X308486288Y-117759145D01*
X308394634Y-118219922D01*
X308394634Y-118689726D01*
X308486288Y-119150503D01*
X308666074Y-119584545D01*
X308927084Y-119975173D01*
X309127983Y-120176072D01*
X308781398Y-120176072D01*
X306593726Y-116347645D01*
X306568563Y-116300568D01*
X306542642Y-116268983D01*
X306517694Y-116233839D01*
X306500347Y-116217447D01*
X306486086Y-116200069D01*
X306454704Y-116174314D01*
X306423202Y-116144545D01*
X306402878Y-116131781D01*
X306385589Y-116117592D01*
X306349976Y-116098557D01*
X306313106Y-116075401D01*
X306290574Y-116066806D01*
X306270932Y-116056307D01*
X306232449Y-116044633D01*
X306191635Y-116029064D01*
X306167785Y-116025017D01*
X306146522Y-116018567D01*
X306106597Y-116014635D01*
X306063458Y-116007315D01*
X306003292Y-116009017D01*
X239351501Y-116008888D01*
X239295873Y-116007315D01*
X239254541Y-116014328D01*
X239212813Y-116018438D01*
X239190590Y-116025179D01*
X239167696Y-116029064D01*
X239128518Y-116044009D01*
X239088403Y-116056178D01*
X239067928Y-116067122D01*
X239046225Y-116075401D01*
X239010712Y-116097705D01*
X238973746Y-116117463D01*
X238955799Y-116132191D01*
X238936129Y-116144545D01*
X238905647Y-116173350D01*
X238873247Y-116199940D01*
X238858520Y-116217885D01*
X238841637Y-116233839D01*
X238817361Y-116268036D01*
X238790770Y-116300437D01*
X238764552Y-116349488D01*
X236577934Y-120176072D01*
X236231258Y-120176072D01*
X236432157Y-119975173D01*
X236693167Y-119584545D01*
X236872953Y-119150503D01*
X236964607Y-118689726D01*
X236964607Y-118219922D01*
X236872953Y-117759145D01*
X236693167Y-117325103D01*
X236432157Y-116934475D01*
X236099956Y-116602274D01*
X235709328Y-116341264D01*
X235275286Y-116161478D01*
X234814509Y-116069824D01*
X234344705Y-116069824D01*
X233883928Y-116161478D01*
X233449886Y-116341264D01*
X233059258Y-116602274D01*
X232727057Y-116934475D01*
X232466047Y-117325103D01*
X232286261Y-117759145D01*
X232194607Y-118219922D01*
X232194607Y-118689726D01*
X232286261Y-119150503D01*
X232466047Y-119584545D01*
X232727057Y-119975173D01*
X232927956Y-120176072D01*
X230278229Y-120176072D01*
X230479128Y-119975173D01*
X230740138Y-119584545D01*
X230919924Y-119150503D01*
X231011578Y-118689726D01*
X231011578Y-118219922D01*
X230919924Y-117759145D01*
X230740138Y-117325103D01*
X230479128Y-116934475D01*
X230146927Y-116602274D01*
X229756299Y-116341264D01*
X229322257Y-116161478D01*
X228861480Y-116069824D01*
X228391676Y-116069824D01*
X227930899Y-116161478D01*
X227496857Y-116341264D01*
X227106229Y-116602274D01*
X226774028Y-116934475D01*
X226513018Y-117325103D01*
X226333232Y-117759145D01*
X226241578Y-118219922D01*
X226241578Y-118689726D01*
X226333232Y-119150503D01*
X226513018Y-119584545D01*
X226774028Y-119975173D01*
X226974927Y-120176072D01*
X226628342Y-120176072D01*
X224441745Y-116349527D01*
X224415507Y-116300438D01*
X224388905Y-116268023D01*
X224364638Y-116233839D01*
X224347764Y-116217893D01*
X224333030Y-116199940D01*
X224300612Y-116173335D01*
X224270146Y-116144545D01*
X224250488Y-116132199D01*
X224232532Y-116117463D01*
X224195546Y-116097694D01*
X224160050Y-116075401D01*
X224138358Y-116067126D01*
X224117875Y-116056178D01*
X224077745Y-116044005D01*
X224038579Y-116029064D01*
X224015692Y-116025180D01*
X223993465Y-116018438D01*
X223951730Y-116014328D01*
X223910402Y-116007315D01*
X223854793Y-116008888D01*
X166723434Y-116008888D01*
X166667809Y-116007315D01*
X166626480Y-116014328D01*
X166584747Y-116018438D01*
X166562522Y-116025180D01*
X166539632Y-116029064D01*
X166500462Y-116044006D01*
X166460337Y-116056178D01*
X166439857Y-116067125D01*
X166418161Y-116075401D01*
X166382659Y-116097697D01*
X166345680Y-116117463D01*
X166327728Y-116132196D01*
X166308065Y-116144545D01*
X166277592Y-116173342D01*
X166245182Y-116199940D01*
X166230452Y-116217889D01*
X166213573Y-116233839D01*
X166189300Y-116268032D01*
X166162705Y-116300438D01*
X166136481Y-116349500D01*
X163949870Y-120176072D01*
X163603285Y-120176072D01*
X163804184Y-119975173D01*
X164065194Y-119584545D01*
X164244980Y-119150503D01*
X164336634Y-118689726D01*
X164336634Y-118219922D01*
X164244980Y-117759145D01*
X164065194Y-117325103D01*
X163804184Y-116934475D01*
X163471983Y-116602274D01*
X163081355Y-116341264D01*
X162647313Y-116161478D01*
X162186536Y-116069824D01*
X161716732Y-116069824D01*
X161255955Y-116161478D01*
X160821913Y-116341264D01*
X160431285Y-116602274D01*
X160099084Y-116934475D01*
X159838074Y-117325103D01*
X159658288Y-117759145D01*
X159566634Y-118219922D01*
X159566634Y-118689726D01*
X159658288Y-119150503D01*
X159838074Y-119584545D01*
X160099084Y-119975173D01*
X160299983Y-120176072D01*
X157649966Y-120176072D01*
X157850865Y-119975173D01*
X158111875Y-119584545D01*
X158291661Y-119150503D01*
X158383315Y-118689726D01*
X158383315Y-118219922D01*
X158291661Y-117759145D01*
X158111875Y-117325103D01*
X157850865Y-116934475D01*
X157518664Y-116602274D01*
X157128036Y-116341264D01*
X156693994Y-116161478D01*
X156233217Y-116069824D01*
X155763413Y-116069824D01*
X155302636Y-116161478D01*
X154868594Y-116341264D01*
X154477966Y-116602274D01*
X154145765Y-116934475D01*
X153884755Y-117325103D01*
X153704969Y-117759145D01*
X153613315Y-118219922D01*
X153613315Y-118689726D01*
X153704969Y-119150503D01*
X153884755Y-119584545D01*
X154145765Y-119975173D01*
X154346664Y-120176072D01*
X154000278Y-120176072D01*
X151813681Y-116349527D01*
X151787443Y-116300438D01*
X151760841Y-116268023D01*
X151736574Y-116233839D01*
X151719700Y-116217893D01*
X151704966Y-116199940D01*
X151672548Y-116173335D01*
X151642082Y-116144545D01*
X151622424Y-116132199D01*
X151604468Y-116117463D01*
X151567482Y-116097694D01*
X151531986Y-116075401D01*
X151510294Y-116067126D01*
X151489811Y-116056178D01*
X151449681Y-116044005D01*
X151410515Y-116029064D01*
X151387628Y-116025180D01*
X151365401Y-116018438D01*
X151323666Y-116014328D01*
X151282338Y-116007315D01*
X151226729Y-116008888D01*
X147696423Y-116008888D01*
X147561696Y-115995678D01*
X147463147Y-115965924D01*
X147372253Y-115917594D01*
X147292484Y-115852537D01*
X147226863Y-115773214D01*
X147177901Y-115682662D01*
X147147461Y-115584327D01*
X147132850Y-115445309D01*
X147133447Y-49823061D01*
X182838490Y-49823061D01*
X182838490Y-50164827D01*
X182905165Y-50500025D01*
X183035953Y-50815775D01*
X183225827Y-51099942D01*
X183467492Y-51341607D01*
X183751659Y-51531481D01*
X184067409Y-51662269D01*
X184402607Y-51728944D01*
X184744373Y-51728944D01*
X185079571Y-51662269D01*
X185395321Y-51531481D01*
X185679488Y-51341607D01*
X185921153Y-51099942D01*
X186111027Y-50815775D01*
X186241815Y-50500025D01*
X186308490Y-50164827D01*
X186308490Y-49823061D01*
X186241815Y-49487863D01*
X186111027Y-49172113D01*
X185921153Y-48887946D01*
X185679488Y-48646281D01*
X185395321Y-48456407D01*
X185079571Y-48325619D01*
X184744373Y-48258944D01*
X184402607Y-48258944D01*
X184067409Y-48325619D01*
X183751659Y-48456407D01*
X183467492Y-48646281D01*
X183225827Y-48887946D01*
X183035953Y-49172113D01*
X182905165Y-49487863D01*
X182838490Y-49823061D01*
X147133447Y-49823061D01*
X147133521Y-41691859D01*
X147146732Y-41557125D01*
X147176485Y-41458580D01*
X147224815Y-41367683D01*
X147289873Y-41287914D01*
X147369198Y-41222291D01*
X147459748Y-41173331D01*
X147558085Y-41142890D01*
X147691378Y-41128880D01*
X151226699Y-41128951D01*
X151282338Y-41130525D01*
X151323669Y-41123512D01*
X151365387Y-41119404D01*
X151387615Y-41112662D01*
X151410515Y-41108776D01*
X151449681Y-41093835D01*
X151489798Y-41081667D01*
X151510284Y-41070718D01*
X151531986Y-41062439D01*
X151567485Y-41040145D01*
X151604456Y-41020384D01*
X151622412Y-41005648D01*
X151642082Y-40993295D01*
X151672551Y-40964502D01*
X151704956Y-40937909D01*
X151719691Y-40919955D01*
X151736574Y-40904001D01*
X151760841Y-40869816D01*
X151787435Y-40837413D01*
X151813668Y-40788337D01*
X154000278Y-36961768D01*
X154346863Y-36961768D01*
X154145964Y-37162667D01*
X153884954Y-37553295D01*
X153705168Y-37987337D01*
X153613514Y-38448114D01*
X153613514Y-38917918D01*
X153705168Y-39378695D01*
X153884954Y-39812737D01*
X154145964Y-40203365D01*
X154478165Y-40535566D01*
X154868793Y-40796576D01*
X155302835Y-40976362D01*
X155763612Y-41068016D01*
X156233416Y-41068016D01*
X156694193Y-40976362D01*
X157128235Y-40796576D01*
X157518863Y-40535566D01*
X157851064Y-40203365D01*
X158112074Y-39812737D01*
X158291860Y-39378695D01*
X158383514Y-38917918D01*
X158383514Y-38448114D01*
X158291860Y-37987337D01*
X158112074Y-37553295D01*
X157851064Y-37162667D01*
X157650165Y-36961768D01*
X160299983Y-36961768D01*
X160099084Y-37162667D01*
X159838074Y-37553295D01*
X159658288Y-37987337D01*
X159566634Y-38448114D01*
X159566634Y-38917918D01*
X159658288Y-39378695D01*
X159838074Y-39812737D01*
X160099084Y-40203365D01*
X160431285Y-40535566D01*
X160821913Y-40796576D01*
X161255955Y-40976362D01*
X161716732Y-41068016D01*
X162186536Y-41068016D01*
X162647313Y-40976362D01*
X163081355Y-40796576D01*
X163471983Y-40535566D01*
X163804184Y-40203365D01*
X164065194Y-39812737D01*
X164244980Y-39378695D01*
X164336634Y-38917918D01*
X164336634Y-38448114D01*
X164244980Y-37987337D01*
X164065194Y-37553295D01*
X163804184Y-37162667D01*
X163603285Y-36961768D01*
X163949870Y-36961768D01*
X166136479Y-40788337D01*
X166162705Y-40837402D01*
X166189300Y-40869808D01*
X166213573Y-40904001D01*
X166230452Y-40919951D01*
X166245182Y-40937900D01*
X166277592Y-40964498D01*
X166308065Y-40993295D01*
X166327728Y-41005644D01*
X166345680Y-41020377D01*
X166382659Y-41040143D01*
X166418161Y-41062439D01*
X166439857Y-41070715D01*
X166460337Y-41081662D01*
X166500462Y-41093834D01*
X166539632Y-41108776D01*
X166562522Y-41112660D01*
X166584747Y-41119402D01*
X166626480Y-41123512D01*
X166667809Y-41130525D01*
X166723434Y-41128952D01*
X223854793Y-41128952D01*
X223910402Y-41130525D01*
X223951730Y-41123512D01*
X223993465Y-41119402D01*
X224015692Y-41112660D01*
X224038579Y-41108776D01*
X224077745Y-41093835D01*
X224117875Y-41081662D01*
X224138358Y-41070714D01*
X224160050Y-41062439D01*
X224195546Y-41040146D01*
X224232532Y-41020377D01*
X224250488Y-41005641D01*
X224270146Y-40993295D01*
X224300612Y-40964505D01*
X224333030Y-40937900D01*
X224347764Y-40919947D01*
X224364638Y-40904001D01*
X224388905Y-40869817D01*
X224415507Y-40837402D01*
X224441745Y-40788313D01*
X226628342Y-36961768D01*
X226974927Y-36961768D01*
X226774028Y-37162667D01*
X226513018Y-37553295D01*
X226333232Y-37987337D01*
X226241578Y-38448114D01*
X226241578Y-38917918D01*
X226333232Y-39378695D01*
X226513018Y-39812737D01*
X226774028Y-40203365D01*
X227106229Y-40535566D01*
X227496857Y-40796576D01*
X227930899Y-40976362D01*
X228391676Y-41068016D01*
X228861480Y-41068016D01*
X229322257Y-40976362D01*
X229756299Y-40796576D01*
X230146927Y-40535566D01*
X230479128Y-40203365D01*
X230740138Y-39812737D01*
X230919924Y-39378695D01*
X231011578Y-38917918D01*
X231011578Y-38448114D01*
X230919924Y-37987337D01*
X230740138Y-37553295D01*
X230479128Y-37162667D01*
X230278229Y-36961768D01*
X232927957Y-36961768D01*
X232727058Y-37162667D01*
X232466048Y-37553295D01*
X232286262Y-37987337D01*
X232194608Y-38448114D01*
X232194608Y-38917918D01*
X232286262Y-39378695D01*
X232466048Y-39812737D01*
X232727058Y-40203365D01*
X233059259Y-40535566D01*
X233449887Y-40796576D01*
X233883929Y-40976362D01*
X234344706Y-41068016D01*
X234814510Y-41068016D01*
X235275287Y-40976362D01*
X235709329Y-40796576D01*
X236099957Y-40535566D01*
X236432158Y-40203365D01*
X236693168Y-39812737D01*
X236872954Y-39378695D01*
X236964608Y-38917918D01*
X236964608Y-38448114D01*
X236872954Y-37987337D01*
X236693168Y-37553295D01*
X236432158Y-37162667D01*
X236231259Y-36961768D01*
X236577934Y-36961768D01*
X238764560Y-40788367D01*
X238790770Y-40837402D01*
X238817358Y-40869799D01*
X238841637Y-40904001D01*
X238858520Y-40919956D01*
X238873247Y-40937900D01*
X238905650Y-40964492D01*
X238936129Y-40993295D01*
X238955796Y-41005646D01*
X238973745Y-41020377D01*
X239010717Y-41040139D01*
X239046225Y-41062439D01*
X239067924Y-41070717D01*
X239088402Y-41081662D01*
X239128522Y-41093832D01*
X239167696Y-41108776D01*
X239190588Y-41112660D01*
X239212812Y-41119402D01*
X239254542Y-41123512D01*
X239295873Y-41130525D01*
X239351499Y-41128952D01*
X306007815Y-41128887D01*
X306063458Y-41130461D01*
X306104800Y-41123446D01*
X306146521Y-41119337D01*
X306168740Y-41112597D01*
X306191635Y-41108712D01*
X306230814Y-41093767D01*
X306270931Y-41081597D01*
X306291407Y-41070652D01*
X306313106Y-41062375D01*
X306348613Y-41040075D01*
X306385588Y-41020312D01*
X306403538Y-41005580D01*
X306423202Y-40993231D01*
X306453676Y-40964433D01*
X306486086Y-40937835D01*
X306500816Y-40919887D01*
X306517694Y-40903937D01*
X306541966Y-40869746D01*
X306568563Y-40837337D01*
X306594793Y-40788263D01*
X308781398Y-36961704D01*
X309128049Y-36961704D01*
X308927151Y-37162602D01*
X308927151Y-37162602D01*
G37*
X308927151Y-37162602D02*
X308666141Y-37553230D01*
X308486355Y-37987272D01*
X308394701Y-38448049D01*
X308394701Y-38917853D01*
X308486355Y-39378630D01*
X308666141Y-39812672D01*
X308927151Y-40203300D01*
X309259352Y-40535501D01*
X309649980Y-40796511D01*
X310084022Y-40976297D01*
X310544799Y-41067951D01*
X311014603Y-41067951D01*
X311475380Y-40976297D01*
X311909422Y-40796511D01*
X312300050Y-40535501D01*
X312632251Y-40203300D01*
X312893261Y-39812672D01*
X313073047Y-39378630D01*
X313164701Y-38917853D01*
X313164701Y-38448049D01*
X313073047Y-37987272D01*
X312893261Y-37553230D01*
X312632251Y-37162602D01*
X312431353Y-36961704D01*
X315081167Y-36961704D01*
X314880204Y-37162667D01*
X314619194Y-37553295D01*
X314439408Y-37987337D01*
X314347754Y-38448114D01*
X314347754Y-38917918D01*
X314439408Y-39378695D01*
X314619194Y-39812737D01*
X314880204Y-40203365D01*
X315212405Y-40535566D01*
X315603033Y-40796576D01*
X316037075Y-40976362D01*
X316497852Y-41068016D01*
X316967656Y-41068016D01*
X317428433Y-40976362D01*
X317862475Y-40796576D01*
X318253103Y-40535566D01*
X318585304Y-40203365D01*
X318846314Y-39812737D01*
X319026100Y-39378695D01*
X319117754Y-38917918D01*
X319117754Y-38448114D01*
X319026100Y-37987337D01*
X318846314Y-37553295D01*
X318585304Y-37162667D01*
X318384341Y-36961704D01*
X318730990Y-36961704D01*
X320917609Y-40788290D01*
X320943825Y-40837337D01*
X320970415Y-40869737D01*
X320994693Y-40903937D01*
X321011575Y-40919891D01*
X321026302Y-40937835D01*
X321058704Y-40964427D01*
X321089185Y-40993231D01*
X321108853Y-41005583D01*
X321126800Y-41020312D01*
X321163768Y-41040072D01*
X321199281Y-41062375D01*
X321220983Y-41070654D01*
X321241457Y-41081597D01*
X321281569Y-41093765D01*
X321320752Y-41108712D01*
X321343649Y-41112597D01*
X321365867Y-41119337D01*
X321407586Y-41123446D01*
X321448929Y-41130461D01*
X321504587Y-41128887D01*
X378635911Y-41128952D01*
X378691522Y-41130525D01*
X378732851Y-41123512D01*
X378774584Y-41119402D01*
X378796809Y-41112660D01*
X378819699Y-41108776D01*
X378858869Y-41093834D01*
X378898994Y-41081662D01*
X378919474Y-41070715D01*
X378941170Y-41062439D01*
X378976672Y-41040143D01*
X379013651Y-41020377D01*
X379031603Y-41005644D01*
X379051266Y-40993295D01*
X379081739Y-40964498D01*
X379114149Y-40937900D01*
X379128879Y-40919951D01*
X379145758Y-40904001D01*
X379170031Y-40869808D01*
X379196626Y-40837402D01*
X379222852Y-40788337D01*
X381409462Y-36961768D01*
X381756047Y-36961768D01*
X381555148Y-37162667D01*
X381294138Y-37553295D01*
X381114352Y-37987337D01*
X381022698Y-38448114D01*
X381022698Y-38917918D01*
X381114352Y-39378695D01*
X381294138Y-39812737D01*
X381555148Y-40203365D01*
X381887349Y-40535566D01*
X382277977Y-40796576D01*
X382712019Y-40976362D01*
X383172796Y-41068016D01*
X383642600Y-41068016D01*
X384103377Y-40976362D01*
X384537419Y-40796576D01*
X384928047Y-40535566D01*
X385260248Y-40203365D01*
X385521258Y-39812737D01*
X385701044Y-39378695D01*
X385792698Y-38917918D01*
X385792698Y-38448114D01*
X385701044Y-37987337D01*
X385521258Y-37553295D01*
X385260248Y-37162667D01*
X385059349Y-36961768D01*
X387709167Y-36961768D01*
X387508268Y-37162667D01*
X387247258Y-37553295D01*
X387067472Y-37987337D01*
X386975818Y-38448114D01*
X386975818Y-38917918D01*
X387067472Y-39378695D01*
X387247258Y-39812737D01*
X387508268Y-40203365D01*
X387840469Y-40535566D01*
X388231097Y-40796576D01*
X388665139Y-40976362D01*
X389125916Y-41068016D01*
X389595720Y-41068016D01*
X390056497Y-40976362D01*
X390490539Y-40796576D01*
X390881167Y-40535566D01*
X391213368Y-40203365D01*
X391474378Y-39812737D01*
X391654164Y-39378695D01*
X391745818Y-38917918D01*
X391745818Y-38448114D01*
X391654164Y-37987337D01*
X391474378Y-37553295D01*
X391213368Y-37162667D01*
X391012469Y-36961768D01*
X391359054Y-36961768D01*
X393545663Y-40788337D01*
X393571889Y-40837402D01*
X393598484Y-40869808D01*
X393622757Y-40904001D01*
X393639636Y-40919951D01*
X393654366Y-40937900D01*
X393686776Y-40964498D01*
X393717249Y-40993295D01*
X393736912Y-41005644D01*
X393754864Y-41020377D01*
X393791843Y-41040143D01*
X393827345Y-41062439D01*
X393849041Y-41070715D01*
X393869521Y-41081662D01*
X393909646Y-41093834D01*
X393948816Y-41108776D01*
X393971706Y-41112660D01*
X393993931Y-41119402D01*
X394035664Y-41123512D01*
X394076993Y-41130525D01*
X394132618Y-41128952D01*
X397662909Y-41128952D01*
X397797637Y-41142162D01*
X397896182Y-41171915D01*
X397987079Y-41220245D01*
X398066848Y-41285303D01*
X398132471Y-41364628D01*
X398181431Y-41455178D01*
X398211872Y-41553515D01*
X398226411Y-41691843D01*
X398226410Y-115439867D01*
X398212600Y-115580714D01*
X398182846Y-115679263D01*
X398134516Y-115770157D01*
X398069459Y-115849926D01*
X397990136Y-115915547D01*
X397899584Y-115964509D01*
X397801249Y-115994949D01*
X397666814Y-116009079D01*
X394132661Y-116008889D01*
X394076993Y-116007315D01*
X394035669Y-116014327D01*
X393993966Y-116018432D01*
X393971730Y-116025176D01*
X393948816Y-116029064D01*
X393909653Y-116044003D01*
X393869554Y-116056165D01*
X393849062Y-116067117D01*
X393827345Y-116075401D01*
X393791848Y-116097694D01*
X393754894Y-116117444D01*
X393736932Y-116132183D01*
X393717249Y-116144545D01*
X393686782Y-116173336D01*
X393654392Y-116199915D01*
X393639653Y-116217873D01*
X393622757Y-116233839D01*
X393598489Y-116268025D01*
X393571909Y-116300409D01*
X393545684Y-116349467D01*
X391359054Y-120176072D01*
X391012469Y-120176072D01*
X391213368Y-119975173D01*
X391474378Y-119584545D01*
X391654164Y-119150503D01*
X391745818Y-118689726D01*
X391745818Y-118219922D01*
X391654164Y-117759145D01*
X391474378Y-117325103D01*
X391213368Y-116934475D01*
X390881167Y-116602274D01*
X390490539Y-116341264D01*
X390056497Y-116161478D01*
X389595720Y-116069824D01*
X389125916Y-116069824D01*
X388665139Y-116161478D01*
X388231097Y-116341264D01*
X387840469Y-116602274D01*
X387508268Y-116934475D01*
X387247258Y-117325103D01*
X387067472Y-117759145D01*
X386975818Y-118219922D01*
X386975818Y-118689726D01*
X387067472Y-119150503D01*
X387247258Y-119584545D01*
X387508268Y-119975173D01*
X387709167Y-120176072D01*
X385059349Y-120176072D01*
X385260248Y-119975173D01*
X385521258Y-119584545D01*
X385701044Y-119150503D01*
X385792698Y-118689726D01*
X385792698Y-118219922D01*
X385701044Y-117759145D01*
X385521258Y-117325103D01*
X385260248Y-116934475D01*
X384928047Y-116602274D01*
X384537419Y-116341264D01*
X384103377Y-116161478D01*
X383642600Y-116069824D01*
X383172796Y-116069824D01*
X382712019Y-116161478D01*
X382277977Y-116341264D01*
X381887349Y-116602274D01*
X381555148Y-116934475D01*
X381294138Y-117325103D01*
X381114352Y-117759145D01*
X381022698Y-118219922D01*
X381022698Y-118689726D01*
X381114352Y-119150503D01*
X381294138Y-119584545D01*
X381555148Y-119975173D01*
X381756047Y-120176072D01*
X381409462Y-120176072D01*
X379222852Y-116349503D01*
X379196626Y-116300437D01*
X379170028Y-116268027D01*
X379145758Y-116233839D01*
X379128879Y-116217889D01*
X379114148Y-116199939D01*
X379081740Y-116173343D01*
X379051266Y-116144545D01*
X379031600Y-116132194D01*
X379013650Y-116117463D01*
X378976678Y-116097701D01*
X378941170Y-116075401D01*
X378919471Y-116067123D01*
X378898993Y-116056178D01*
X378858873Y-116044008D01*
X378819699Y-116029064D01*
X378796807Y-116025180D01*
X378774583Y-116018438D01*
X378732853Y-116014328D01*
X378691522Y-116007315D01*
X378635910Y-116008888D01*
X321509112Y-116009017D01*
X321448929Y-116007315D01*
X321405789Y-116014635D01*
X321365866Y-116018567D01*
X321344604Y-116025017D01*
X321320752Y-116029064D01*
X321279934Y-116044635D01*
X321241456Y-116056307D01*
X321221816Y-116066805D01*
X321199281Y-116075401D01*
X321162405Y-116098560D01*
X321126799Y-116117592D01*
X321109514Y-116131778D01*
X321089185Y-116144545D01*
X321057675Y-116174321D01*
X321026301Y-116200070D01*
X321012043Y-116217443D01*
X320994693Y-116233839D01*
X320969739Y-116268992D01*
X320943825Y-116300568D01*
X320918676Y-116347618D01*
X318730990Y-120176072D01*
X318384405Y-120176072D01*
X318585304Y-119975173D01*
X318846314Y-119584545D01*
X319026100Y-119150503D01*
X319117754Y-118689726D01*
X319117754Y-118219922D01*
X319026100Y-117759145D01*
X318846314Y-117325103D01*
X318585304Y-116934475D01*
X318253103Y-116602274D01*
X317862475Y-116341264D01*
X317428433Y-116161478D01*
X316967656Y-116069824D01*
X316497852Y-116069824D01*
X316037075Y-116161478D01*
X315603033Y-116341264D01*
X315212405Y-116602274D01*
X314880204Y-116934475D01*
X314619194Y-117325103D01*
X314439408Y-117759145D01*
X314347754Y-118219922D01*
X314347754Y-118689726D01*
X314439408Y-119150503D01*
X314619194Y-119584545D01*
X314880204Y-119975173D01*
X315081103Y-120176072D01*
X312431285Y-120176072D01*
X312632184Y-119975173D01*
X312893194Y-119584545D01*
X313072980Y-119150503D01*
X313164634Y-118689726D01*
X313164634Y-118219922D01*
X313072980Y-117759145D01*
X312893194Y-117325103D01*
X312632184Y-116934475D01*
X312299983Y-116602274D01*
X311909355Y-116341264D01*
X311475313Y-116161478D01*
X311014536Y-116069824D01*
X310544732Y-116069824D01*
X310083955Y-116161478D01*
X309649913Y-116341264D01*
X309259285Y-116602274D01*
X308927084Y-116934475D01*
X308666074Y-117325103D01*
X308486288Y-117759145D01*
X308394634Y-118219922D01*
X308394634Y-118689726D01*
X308486288Y-119150503D01*
X308666074Y-119584545D01*
X308927084Y-119975173D01*
X309127983Y-120176072D01*
X308781398Y-120176072D01*
X306593726Y-116347645D01*
X306568563Y-116300568D01*
X306542642Y-116268983D01*
X306517694Y-116233839D01*
X306500347Y-116217447D01*
X306486086Y-116200069D01*
X306454704Y-116174314D01*
X306423202Y-116144545D01*
X306402878Y-116131781D01*
X306385589Y-116117592D01*
X306349976Y-116098557D01*
X306313106Y-116075401D01*
X306290574Y-116066806D01*
X306270932Y-116056307D01*
X306232449Y-116044633D01*
X306191635Y-116029064D01*
X306167785Y-116025017D01*
X306146522Y-116018567D01*
X306106597Y-116014635D01*
X306063458Y-116007315D01*
X306003292Y-116009017D01*
X239351501Y-116008888D01*
X239295873Y-116007315D01*
X239254541Y-116014328D01*
X239212813Y-116018438D01*
X239190590Y-116025179D01*
X239167696Y-116029064D01*
X239128518Y-116044009D01*
X239088403Y-116056178D01*
X239067928Y-116067122D01*
X239046225Y-116075401D01*
X239010712Y-116097705D01*
X238973746Y-116117463D01*
X238955799Y-116132191D01*
X238936129Y-116144545D01*
X238905647Y-116173350D01*
X238873247Y-116199940D01*
X238858520Y-116217885D01*
X238841637Y-116233839D01*
X238817361Y-116268036D01*
X238790770Y-116300437D01*
X238764552Y-116349488D01*
X236577934Y-120176072D01*
X236231258Y-120176072D01*
X236432157Y-119975173D01*
X236693167Y-119584545D01*
X236872953Y-119150503D01*
X236964607Y-118689726D01*
X236964607Y-118219922D01*
X236872953Y-117759145D01*
X236693167Y-117325103D01*
X236432157Y-116934475D01*
X236099956Y-116602274D01*
X235709328Y-116341264D01*
X235275286Y-116161478D01*
X234814509Y-116069824D01*
X234344705Y-116069824D01*
X233883928Y-116161478D01*
X233449886Y-116341264D01*
X233059258Y-116602274D01*
X232727057Y-116934475D01*
X232466047Y-117325103D01*
X232286261Y-117759145D01*
X232194607Y-118219922D01*
X232194607Y-118689726D01*
X232286261Y-119150503D01*
X232466047Y-119584545D01*
X232727057Y-119975173D01*
X232927956Y-120176072D01*
X230278229Y-120176072D01*
X230479128Y-119975173D01*
X230740138Y-119584545D01*
X230919924Y-119150503D01*
X231011578Y-118689726D01*
X231011578Y-118219922D01*
X230919924Y-117759145D01*
X230740138Y-117325103D01*
X230479128Y-116934475D01*
X230146927Y-116602274D01*
X229756299Y-116341264D01*
X229322257Y-116161478D01*
X228861480Y-116069824D01*
X228391676Y-116069824D01*
X227930899Y-116161478D01*
X227496857Y-116341264D01*
X227106229Y-116602274D01*
X226774028Y-116934475D01*
X226513018Y-117325103D01*
X226333232Y-117759145D01*
X226241578Y-118219922D01*
X226241578Y-118689726D01*
X226333232Y-119150503D01*
X226513018Y-119584545D01*
X226774028Y-119975173D01*
X226974927Y-120176072D01*
X226628342Y-120176072D01*
X224441745Y-116349527D01*
X224415507Y-116300438D01*
X224388905Y-116268023D01*
X224364638Y-116233839D01*
X224347764Y-116217893D01*
X224333030Y-116199940D01*
X224300612Y-116173335D01*
X224270146Y-116144545D01*
X224250488Y-116132199D01*
X224232532Y-116117463D01*
X224195546Y-116097694D01*
X224160050Y-116075401D01*
X224138358Y-116067126D01*
X224117875Y-116056178D01*
X224077745Y-116044005D01*
X224038579Y-116029064D01*
X224015692Y-116025180D01*
X223993465Y-116018438D01*
X223951730Y-116014328D01*
X223910402Y-116007315D01*
X223854793Y-116008888D01*
X166723434Y-116008888D01*
X166667809Y-116007315D01*
X166626480Y-116014328D01*
X166584747Y-116018438D01*
X166562522Y-116025180D01*
X166539632Y-116029064D01*
X166500462Y-116044006D01*
X166460337Y-116056178D01*
X166439857Y-116067125D01*
X166418161Y-116075401D01*
X166382659Y-116097697D01*
X166345680Y-116117463D01*
X166327728Y-116132196D01*
X166308065Y-116144545D01*
X166277592Y-116173342D01*
X166245182Y-116199940D01*
X166230452Y-116217889D01*
X166213573Y-116233839D01*
X166189300Y-116268032D01*
X166162705Y-116300438D01*
X166136481Y-116349500D01*
X163949870Y-120176072D01*
X163603285Y-120176072D01*
X163804184Y-119975173D01*
X164065194Y-119584545D01*
X164244980Y-119150503D01*
X164336634Y-118689726D01*
X164336634Y-118219922D01*
X164244980Y-117759145D01*
X164065194Y-117325103D01*
X163804184Y-116934475D01*
X163471983Y-116602274D01*
X163081355Y-116341264D01*
X162647313Y-116161478D01*
X162186536Y-116069824D01*
X161716732Y-116069824D01*
X161255955Y-116161478D01*
X160821913Y-116341264D01*
X160431285Y-116602274D01*
X160099084Y-116934475D01*
X159838074Y-117325103D01*
X159658288Y-117759145D01*
X159566634Y-118219922D01*
X159566634Y-118689726D01*
X159658288Y-119150503D01*
X159838074Y-119584545D01*
X160099084Y-119975173D01*
X160299983Y-120176072D01*
X157649966Y-120176072D01*
X157850865Y-119975173D01*
X158111875Y-119584545D01*
X158291661Y-119150503D01*
X158383315Y-118689726D01*
X158383315Y-118219922D01*
X158291661Y-117759145D01*
X158111875Y-117325103D01*
X157850865Y-116934475D01*
X157518664Y-116602274D01*
X157128036Y-116341264D01*
X156693994Y-116161478D01*
X156233217Y-116069824D01*
X155763413Y-116069824D01*
X155302636Y-116161478D01*
X154868594Y-116341264D01*
X154477966Y-116602274D01*
X154145765Y-116934475D01*
X153884755Y-117325103D01*
X153704969Y-117759145D01*
X153613315Y-118219922D01*
X153613315Y-118689726D01*
X153704969Y-119150503D01*
X153884755Y-119584545D01*
X154145765Y-119975173D01*
X154346664Y-120176072D01*
X154000278Y-120176072D01*
X151813681Y-116349527D01*
X151787443Y-116300438D01*
X151760841Y-116268023D01*
X151736574Y-116233839D01*
X151719700Y-116217893D01*
X151704966Y-116199940D01*
X151672548Y-116173335D01*
X151642082Y-116144545D01*
X151622424Y-116132199D01*
X151604468Y-116117463D01*
X151567482Y-116097694D01*
X151531986Y-116075401D01*
X151510294Y-116067126D01*
X151489811Y-116056178D01*
X151449681Y-116044005D01*
X151410515Y-116029064D01*
X151387628Y-116025180D01*
X151365401Y-116018438D01*
X151323666Y-116014328D01*
X151282338Y-116007315D01*
X151226729Y-116008888D01*
X147696423Y-116008888D01*
X147561696Y-115995678D01*
X147463147Y-115965924D01*
X147372253Y-115917594D01*
X147292484Y-115852537D01*
X147226863Y-115773214D01*
X147177901Y-115682662D01*
X147147461Y-115584327D01*
X147132850Y-115445309D01*
X147133447Y-49823061D01*
X182838490Y-49823061D01*
X182838490Y-50164827D01*
X182905165Y-50500025D01*
X183035953Y-50815775D01*
X183225827Y-51099942D01*
X183467492Y-51341607D01*
X183751659Y-51531481D01*
X184067409Y-51662269D01*
X184402607Y-51728944D01*
X184744373Y-51728944D01*
X185079571Y-51662269D01*
X185395321Y-51531481D01*
X185679488Y-51341607D01*
X185921153Y-51099942D01*
X186111027Y-50815775D01*
X186241815Y-50500025D01*
X186308490Y-50164827D01*
X186308490Y-49823061D01*
X186241815Y-49487863D01*
X186111027Y-49172113D01*
X185921153Y-48887946D01*
X185679488Y-48646281D01*
X185395321Y-48456407D01*
X185079571Y-48325619D01*
X184744373Y-48258944D01*
X184402607Y-48258944D01*
X184067409Y-48325619D01*
X183751659Y-48456407D01*
X183467492Y-48646281D01*
X183225827Y-48887946D01*
X183035953Y-49172113D01*
X182905165Y-49487863D01*
X182838490Y-49823061D01*
X147133447Y-49823061D01*
X147133521Y-41691859D01*
X147146732Y-41557125D01*
X147176485Y-41458580D01*
X147224815Y-41367683D01*
X147289873Y-41287914D01*
X147369198Y-41222291D01*
X147459748Y-41173331D01*
X147558085Y-41142890D01*
X147691378Y-41128880D01*
X151226699Y-41128951D01*
X151282338Y-41130525D01*
X151323669Y-41123512D01*
X151365387Y-41119404D01*
X151387615Y-41112662D01*
X151410515Y-41108776D01*
X151449681Y-41093835D01*
X151489798Y-41081667D01*
X151510284Y-41070718D01*
X151531986Y-41062439D01*
X151567485Y-41040145D01*
X151604456Y-41020384D01*
X151622412Y-41005648D01*
X151642082Y-40993295D01*
X151672551Y-40964502D01*
X151704956Y-40937909D01*
X151719691Y-40919955D01*
X151736574Y-40904001D01*
X151760841Y-40869816D01*
X151787435Y-40837413D01*
X151813668Y-40788337D01*
X154000278Y-36961768D01*
X154346863Y-36961768D01*
X154145964Y-37162667D01*
X153884954Y-37553295D01*
X153705168Y-37987337D01*
X153613514Y-38448114D01*
X153613514Y-38917918D01*
X153705168Y-39378695D01*
X153884954Y-39812737D01*
X154145964Y-40203365D01*
X154478165Y-40535566D01*
X154868793Y-40796576D01*
X155302835Y-40976362D01*
X155763612Y-41068016D01*
X156233416Y-41068016D01*
X156694193Y-40976362D01*
X157128235Y-40796576D01*
X157518863Y-40535566D01*
X157851064Y-40203365D01*
X158112074Y-39812737D01*
X158291860Y-39378695D01*
X158383514Y-38917918D01*
X158383514Y-38448114D01*
X158291860Y-37987337D01*
X158112074Y-37553295D01*
X157851064Y-37162667D01*
X157650165Y-36961768D01*
X160299983Y-36961768D01*
X160099084Y-37162667D01*
X159838074Y-37553295D01*
X159658288Y-37987337D01*
X159566634Y-38448114D01*
X159566634Y-38917918D01*
X159658288Y-39378695D01*
X159838074Y-39812737D01*
X160099084Y-40203365D01*
X160431285Y-40535566D01*
X160821913Y-40796576D01*
X161255955Y-40976362D01*
X161716732Y-41068016D01*
X162186536Y-41068016D01*
X162647313Y-40976362D01*
X163081355Y-40796576D01*
X163471983Y-40535566D01*
X163804184Y-40203365D01*
X164065194Y-39812737D01*
X164244980Y-39378695D01*
X164336634Y-38917918D01*
X164336634Y-38448114D01*
X164244980Y-37987337D01*
X164065194Y-37553295D01*
X163804184Y-37162667D01*
X163603285Y-36961768D01*
X163949870Y-36961768D01*
X166136479Y-40788337D01*
X166162705Y-40837402D01*
X166189300Y-40869808D01*
X166213573Y-40904001D01*
X166230452Y-40919951D01*
X166245182Y-40937900D01*
X166277592Y-40964498D01*
X166308065Y-40993295D01*
X166327728Y-41005644D01*
X166345680Y-41020377D01*
X166382659Y-41040143D01*
X166418161Y-41062439D01*
X166439857Y-41070715D01*
X166460337Y-41081662D01*
X166500462Y-41093834D01*
X166539632Y-41108776D01*
X166562522Y-41112660D01*
X166584747Y-41119402D01*
X166626480Y-41123512D01*
X166667809Y-41130525D01*
X166723434Y-41128952D01*
X223854793Y-41128952D01*
X223910402Y-41130525D01*
X223951730Y-41123512D01*
X223993465Y-41119402D01*
X224015692Y-41112660D01*
X224038579Y-41108776D01*
X224077745Y-41093835D01*
X224117875Y-41081662D01*
X224138358Y-41070714D01*
X224160050Y-41062439D01*
X224195546Y-41040146D01*
X224232532Y-41020377D01*
X224250488Y-41005641D01*
X224270146Y-40993295D01*
X224300612Y-40964505D01*
X224333030Y-40937900D01*
X224347764Y-40919947D01*
X224364638Y-40904001D01*
X224388905Y-40869817D01*
X224415507Y-40837402D01*
X224441745Y-40788313D01*
X226628342Y-36961768D01*
X226974927Y-36961768D01*
X226774028Y-37162667D01*
X226513018Y-37553295D01*
X226333232Y-37987337D01*
X226241578Y-38448114D01*
X226241578Y-38917918D01*
X226333232Y-39378695D01*
X226513018Y-39812737D01*
X226774028Y-40203365D01*
X227106229Y-40535566D01*
X227496857Y-40796576D01*
X227930899Y-40976362D01*
X228391676Y-41068016D01*
X228861480Y-41068016D01*
X229322257Y-40976362D01*
X229756299Y-40796576D01*
X230146927Y-40535566D01*
X230479128Y-40203365D01*
X230740138Y-39812737D01*
X230919924Y-39378695D01*
X231011578Y-38917918D01*
X231011578Y-38448114D01*
X230919924Y-37987337D01*
X230740138Y-37553295D01*
X230479128Y-37162667D01*
X230278229Y-36961768D01*
X232927957Y-36961768D01*
X232727058Y-37162667D01*
X232466048Y-37553295D01*
X232286262Y-37987337D01*
X232194608Y-38448114D01*
X232194608Y-38917918D01*
X232286262Y-39378695D01*
X232466048Y-39812737D01*
X232727058Y-40203365D01*
X233059259Y-40535566D01*
X233449887Y-40796576D01*
X233883929Y-40976362D01*
X234344706Y-41068016D01*
X234814510Y-41068016D01*
X235275287Y-40976362D01*
X235709329Y-40796576D01*
X236099957Y-40535566D01*
X236432158Y-40203365D01*
X236693168Y-39812737D01*
X236872954Y-39378695D01*
X236964608Y-38917918D01*
X236964608Y-38448114D01*
X236872954Y-37987337D01*
X236693168Y-37553295D01*
X236432158Y-37162667D01*
X236231259Y-36961768D01*
X236577934Y-36961768D01*
X238764560Y-40788367D01*
X238790770Y-40837402D01*
X238817358Y-40869799D01*
X238841637Y-40904001D01*
X238858520Y-40919956D01*
X238873247Y-40937900D01*
X238905650Y-40964492D01*
X238936129Y-40993295D01*
X238955796Y-41005646D01*
X238973745Y-41020377D01*
X239010717Y-41040139D01*
X239046225Y-41062439D01*
X239067924Y-41070717D01*
X239088402Y-41081662D01*
X239128522Y-41093832D01*
X239167696Y-41108776D01*
X239190588Y-41112660D01*
X239212812Y-41119402D01*
X239254542Y-41123512D01*
X239295873Y-41130525D01*
X239351499Y-41128952D01*
X306007815Y-41128887D01*
X306063458Y-41130461D01*
X306104800Y-41123446D01*
X306146521Y-41119337D01*
X306168740Y-41112597D01*
X306191635Y-41108712D01*
X306230814Y-41093767D01*
X306270931Y-41081597D01*
X306291407Y-41070652D01*
X306313106Y-41062375D01*
X306348613Y-41040075D01*
X306385588Y-41020312D01*
X306403538Y-41005580D01*
X306423202Y-40993231D01*
X306453676Y-40964433D01*
X306486086Y-40937835D01*
X306500816Y-40919887D01*
X306517694Y-40903937D01*
X306541966Y-40869746D01*
X306568563Y-40837337D01*
X306594793Y-40788263D01*
X308781398Y-36961704D01*
X309128049Y-36961704D01*
X308927151Y-37162602D01*
M02*
