G04 #@! TF.GenerationSoftware,KiCad,Pcbnew,(5.1.4-0)*
G04 #@! TF.CreationDate,2021-11-04T10:18:31-05:00*
G04 #@! TF.ProjectId,bottom_plate,626f7474-6f6d-45f7-906c-6174652e6b69,rev?*
G04 #@! TF.SameCoordinates,Original*
G04 #@! TF.FileFunction,Profile,NP*
%FSLAX46Y46*%
G04 Gerber Fmt 4.6, Leading zero omitted, Abs format (unit mm)*
G04 Created by KiCad (PCBNEW (5.1.4-0)) date 2021-11-04 10:18:31*
%MOMM*%
%LPD*%
G04 APERTURE LIST*
%ADD10C,0.050000*%
G04 APERTURE END LIST*
D10*
X397695186Y-40468952D02*
G75*
G02X398885810Y-41659576I0J-1190624D01*
G01*
X398885810Y-115478264D02*
G75*
G02X397695186Y-116668888I-1190624J0D01*
G01*
X147664146Y-116668888D02*
G75*
G02X146473522Y-115478264I0J1190624D01*
G01*
X146473522Y-41659576D02*
G75*
G02X147664146Y-40468952I1190624J0D01*
G01*
X391742066Y-120836072D02*
X394123314Y-116668888D01*
X381026450Y-120836072D02*
X378645202Y-116668888D01*
X391742066Y-120836072D02*
X381026450Y-120836072D01*
X319114002Y-120836072D02*
X321495250Y-116668888D01*
X308398386Y-120836072D02*
X306017138Y-116668888D01*
X319114002Y-120836072D02*
X308398386Y-120836072D01*
X236960946Y-120836072D02*
X239342194Y-116668888D01*
X226245330Y-120836072D02*
X223864082Y-116668888D01*
X236960946Y-120836072D02*
X226245330Y-120836072D01*
X164332882Y-120836072D02*
X166714130Y-116668888D01*
X153617266Y-120836072D02*
X151236018Y-116668888D01*
X164332882Y-120836072D02*
X153617266Y-120836072D01*
X381026450Y-36301768D02*
X378645202Y-40468952D01*
X391742066Y-36301768D02*
X394123314Y-40468952D01*
X381026450Y-36301768D02*
X391742066Y-36301768D01*
X308398386Y-36301704D02*
X306017138Y-40468888D01*
X319114002Y-36301704D02*
X321495250Y-40468888D01*
X308398386Y-36301704D02*
X319114002Y-36301704D01*
X226245330Y-36301768D02*
X223864082Y-40468952D01*
X236960946Y-36301768D02*
X239342194Y-40468952D01*
X226245330Y-36301768D02*
X236960946Y-36301768D01*
X153617266Y-36301768D02*
X151236018Y-40468952D01*
X164332882Y-36301768D02*
X166714130Y-40468952D01*
X153617266Y-36301768D02*
X164332882Y-36301768D01*
X151236018Y-40468952D02*
X147664146Y-40468880D01*
X394123314Y-116668888D02*
X397695186Y-116669080D01*
X321495250Y-116669016D02*
X378645202Y-116668888D01*
X239342194Y-116668888D02*
X306017138Y-116669016D01*
X166714130Y-116668888D02*
X223864082Y-116668888D01*
X147664146Y-116668888D02*
X151236018Y-116668888D01*
X146473522Y-41659576D02*
X146472850Y-115478264D01*
X223864082Y-40468952D02*
X166714130Y-40468952D01*
X306017138Y-40468888D02*
X239342194Y-40468952D01*
X378645202Y-40468952D02*
X321495250Y-40468888D01*
X397695186Y-40468952D02*
X394123314Y-40468952D01*
X398886410Y-115478264D02*
X398886410Y-41659576D01*
M02*
