G04 #@! TF.GenerationSoftware,KiCad,Pcbnew,(6.0.0-0)*
G04 #@! TF.CreationDate,2022-01-19T17:11:42-06:00*
G04 #@! TF.ProjectId,pcb,7063622e-6b69-4636-9164-5f7063625858,rev?*
G04 #@! TF.SameCoordinates,Original*
G04 #@! TF.FileFunction,Legend,Bot*
G04 #@! TF.FilePolarity,Positive*
%FSLAX46Y46*%
G04 Gerber Fmt 4.6, Leading zero omitted, Abs format (unit mm)*
G04 Created by KiCad (PCBNEW (6.0.0-0)) date 2022-01-19 17:11:42*
%MOMM*%
%LPD*%
G01*
G04 APERTURE LIST*
G04 Aperture macros list*
%AMRoundRect*
0 Rectangle with rounded corners*
0 $1 Rounding radius*
0 $2 $3 $4 $5 $6 $7 $8 $9 X,Y pos of 4 corners*
0 Add a 4 corners polygon primitive as box body*
4,1,4,$2,$3,$4,$5,$6,$7,$8,$9,$2,$3,0*
0 Add four circle primitives for the rounded corners*
1,1,$1+$1,$2,$3*
1,1,$1+$1,$4,$5*
1,1,$1+$1,$6,$7*
1,1,$1+$1,$8,$9*
0 Add four rect primitives between the rounded corners*
20,1,$1+$1,$2,$3,$4,$5,0*
20,1,$1+$1,$4,$5,$6,$7,0*
20,1,$1+$1,$6,$7,$8,$9,0*
20,1,$1+$1,$8,$9,$2,$3,0*%
%AMRotRect*
0 Rectangle, with rotation*
0 The origin of the aperture is its center*
0 $1 length*
0 $2 width*
0 $3 Rotation angle, in degrees counterclockwise*
0 Add horizontal line*
21,1,$1,$2,0,0,$3*%
G04 Aperture macros list end*
%ADD10C,0.150000*%
%ADD11C,0.200000*%
%ADD12C,0.120000*%
%ADD13C,0.100000*%
%ADD14C,0.254000*%
%ADD15C,0.203200*%
%ADD16C,1.701800*%
%ADD17C,3.987800*%
%ADD18C,2.540000*%
%ADD19R,2.000000X2.000000*%
%ADD20C,2.000000*%
%ADD21R,2.000000X3.200000*%
%ADD22RoundRect,0.249999X-0.450001X0.325001X-0.450001X-0.325001X0.450001X-0.325001X0.450001X0.325001X0*%
%ADD23RoundRect,0.250000X0.350000X-0.250000X0.350000X0.250000X-0.350000X0.250000X-0.350000X-0.250000X0*%
%ADD24RoundRect,0.250000X-0.350000X0.250000X-0.350000X-0.250000X0.350000X-0.250000X0.350000X0.250000X0*%
%ADD25C,1.803400*%
%ADD26RoundRect,0.501650X0.400050X0.400050X-0.400050X0.400050X-0.400050X-0.400050X0.400050X-0.400050X0*%
%ADD27R,1.100000X1.800000*%
%ADD28RoundRect,0.200000X-0.750000X-0.250000X0.750000X-0.250000X0.750000X0.250000X-0.750000X0.250000X0*%
%ADD29RoundRect,0.200000X-0.250000X-0.750000X0.250000X-0.750000X0.250000X0.750000X-0.250000X0.750000X0*%
%ADD30RoundRect,0.249999X0.325001X0.450001X-0.325001X0.450001X-0.325001X-0.450001X0.325001X-0.450001X0*%
%ADD31RoundRect,0.249999X0.450001X-0.325001X0.450001X0.325001X-0.450001X0.325001X-0.450001X-0.325001X0*%
%ADD32RotRect,2.100000X1.800000X45.000000*%
%ADD33C,0.650000*%
%ADD34RoundRect,0.150000X-0.150000X-0.575000X0.150000X-0.575000X0.150000X0.575000X-0.150000X0.575000X0*%
%ADD35RoundRect,0.075000X-0.075000X-0.650000X0.075000X-0.650000X0.075000X0.650000X-0.075000X0.650000X0*%
%ADD36O,1.300000X2.400000*%
%ADD37O,1.300000X1.900000*%
%ADD38RoundRect,0.249999X-0.325001X-0.450001X0.325001X-0.450001X0.325001X0.450001X-0.325001X0.450001X0*%
%ADD39RoundRect,0.050000X-0.350000X0.500000X-0.350000X-0.500000X0.350000X-0.500000X0.350000X0.500000X0*%
%ADD40RoundRect,0.050000X-0.350000X0.300000X-0.350000X-0.300000X0.350000X-0.300000X0.350000X0.300000X0*%
G04 APERTURE END LIST*
D10*
X117771462Y-64948898D02*
X118054305Y-65231741D01*
X117912884Y-65090319D02*
X118478569Y-64524634D01*
X118444897Y-64652586D01*
X118438163Y-64753602D01*
X118458366Y-64827680D01*
X117912884Y-63958948D02*
X118007164Y-64053229D01*
X118027368Y-64127307D01*
X118024000Y-64177815D01*
X117990329Y-64305767D01*
X117906149Y-64437087D01*
X117690650Y-64652586D01*
X117613205Y-64682891D01*
X117562697Y-64686258D01*
X117488620Y-64666055D01*
X117394339Y-64571774D01*
X117374136Y-64497696D01*
X117377503Y-64447189D01*
X117407807Y-64369744D01*
X117542494Y-64235057D01*
X117619939Y-64204752D01*
X117670447Y-64201385D01*
X117744525Y-64221588D01*
X117838806Y-64315869D01*
X117859009Y-64389947D01*
X117855642Y-64440454D01*
X117825337Y-64517899D01*
X117087926Y-64265361D02*
X117653611Y-63699676D01*
X117084558Y-63938745D01*
X117323628Y-63369693D01*
X116757942Y-63935378D01*
X116522240Y-63699676D02*
X117087926Y-63133990D01*
X116818552Y-63403364D02*
X116535709Y-63120522D01*
X116239398Y-63416833D02*
X116805083Y-62851148D01*
X116427959Y-62851148D02*
X116168687Y-62591875D01*
X116050836Y-63228271D01*
X115791563Y-62968999D01*
X322196136Y-58283727D02*
X321962803Y-58283727D01*
X321862803Y-58702774D02*
X322196136Y-58702774D01*
X322196136Y-57902774D01*
X321862803Y-57902774D01*
X321562803Y-58169441D02*
X321562803Y-58702774D01*
X321562803Y-58245631D02*
X321529470Y-58207536D01*
X321462803Y-58169441D01*
X321362803Y-58169441D01*
X321296136Y-58207536D01*
X321262803Y-58283727D01*
X321262803Y-58702774D01*
X320629470Y-58664679D02*
X320696136Y-58702774D01*
X320829470Y-58702774D01*
X320896136Y-58664679D01*
X320929470Y-58626584D01*
X320962803Y-58550393D01*
X320962803Y-58321822D01*
X320929470Y-58245631D01*
X320896136Y-58207536D01*
X320829470Y-58169441D01*
X320696136Y-58169441D01*
X320629470Y-58207536D01*
X320229470Y-58702774D02*
X320296136Y-58664679D01*
X320329470Y-58626584D01*
X320362803Y-58550393D01*
X320362803Y-58321822D01*
X320329470Y-58245631D01*
X320296136Y-58207536D01*
X320229470Y-58169441D01*
X320129470Y-58169441D01*
X320062803Y-58207536D01*
X320029470Y-58245631D01*
X319996136Y-58321822D01*
X319996136Y-58550393D01*
X320029470Y-58626584D01*
X320062803Y-58664679D01*
X320129470Y-58702774D01*
X320229470Y-58702774D01*
X319396136Y-58702774D02*
X319396136Y-57902774D01*
X319396136Y-58664679D02*
X319462803Y-58702774D01*
X319596136Y-58702774D01*
X319662803Y-58664679D01*
X319696136Y-58626584D01*
X319729470Y-58550393D01*
X319729470Y-58321822D01*
X319696136Y-58245631D01*
X319662803Y-58207536D01*
X319596136Y-58169441D01*
X319462803Y-58169441D01*
X319396136Y-58207536D01*
X318796136Y-58664679D02*
X318862803Y-58702774D01*
X318996136Y-58702774D01*
X319062803Y-58664679D01*
X319096136Y-58588489D01*
X319096136Y-58283727D01*
X319062803Y-58207536D01*
X318996136Y-58169441D01*
X318862803Y-58169441D01*
X318796136Y-58207536D01*
X318762803Y-58283727D01*
X318762803Y-58359917D01*
X319096136Y-58436108D01*
X318462803Y-58702774D02*
X318462803Y-58169441D01*
X318462803Y-58321822D02*
X318429470Y-58245631D01*
X318396136Y-58207536D01*
X318329470Y-58169441D01*
X318262803Y-58169441D01*
D11*
X120750737Y-117065476D02*
X120869784Y-117005952D01*
X120929308Y-116886904D01*
X120929308Y-115815476D01*
X119738832Y-116232142D02*
X119738832Y-117065476D01*
X120274546Y-116232142D02*
X120274546Y-116886904D01*
X120215022Y-117005952D01*
X120095975Y-117065476D01*
X119917403Y-117065476D01*
X119798356Y-117005952D01*
X119738832Y-116946428D01*
X118607880Y-117005952D02*
X118726927Y-117065476D01*
X118965022Y-117065476D01*
X119084070Y-117005952D01*
X119143594Y-116946428D01*
X119203118Y-116827380D01*
X119203118Y-116470238D01*
X119143594Y-116351190D01*
X119084070Y-116291666D01*
X118965022Y-116232142D01*
X118726927Y-116232142D01*
X118607880Y-116291666D01*
X118191213Y-116232142D02*
X117893594Y-117065476D01*
X117595975Y-116232142D02*
X117893594Y-117065476D01*
X118012641Y-117363095D01*
X118072165Y-117422619D01*
X118191213Y-117482142D01*
X116167403Y-117065476D02*
X116167403Y-116232142D01*
X116167403Y-116470238D02*
X116107880Y-116351190D01*
X116048356Y-116291666D01*
X115929308Y-116232142D01*
X115810260Y-116232142D01*
X114917403Y-117005952D02*
X115036451Y-117065476D01*
X115274546Y-117065476D01*
X115393594Y-117005952D01*
X115453118Y-116886904D01*
X115453118Y-116410714D01*
X115393594Y-116291666D01*
X115274546Y-116232142D01*
X115036451Y-116232142D01*
X114917403Y-116291666D01*
X114857880Y-116410714D01*
X114857880Y-116529761D01*
X115453118Y-116648809D01*
X114441213Y-116232142D02*
X114143594Y-117065476D01*
X113845975Y-116232142D01*
X111762641Y-117065476D02*
X112476927Y-117065476D01*
X112119784Y-117065476D02*
X112119784Y-115815476D01*
X112238832Y-115994047D01*
X112357880Y-116113095D01*
X112476927Y-116172619D01*
X111226927Y-116946428D02*
X111167403Y-117005952D01*
X111226927Y-117065476D01*
X111286451Y-117005952D01*
X111226927Y-116946428D01*
X111226927Y-117065476D01*
X110750737Y-115815476D02*
X109976927Y-115815476D01*
X110393594Y-116291666D01*
X110215022Y-116291666D01*
X110095975Y-116351190D01*
X110036451Y-116410714D01*
X109976927Y-116529761D01*
X109976927Y-116827380D01*
X110036451Y-116946428D01*
X110095975Y-117005952D01*
X110215022Y-117065476D01*
X110572165Y-117065476D01*
X110691213Y-117005952D01*
X110750737Y-116946428D01*
X158924546Y-116016456D02*
X158924546Y-117028361D01*
X158984070Y-117147409D01*
X159043594Y-117206933D01*
X159162641Y-117266456D01*
X159341213Y-117266456D01*
X159460260Y-117206933D01*
X158924546Y-116790266D02*
X159043594Y-116849790D01*
X159281689Y-116849790D01*
X159400737Y-116790266D01*
X159460260Y-116730742D01*
X159519784Y-116611694D01*
X159519784Y-116254552D01*
X159460260Y-116135504D01*
X159400737Y-116075980D01*
X159281689Y-116016456D01*
X159043594Y-116016456D01*
X158924546Y-116075980D01*
X158329308Y-116849790D02*
X158329308Y-116016456D01*
X158329308Y-115599790D02*
X158388832Y-115659314D01*
X158329308Y-115718837D01*
X158269784Y-115659314D01*
X158329308Y-115599790D01*
X158329308Y-115718837D01*
X157912641Y-116016456D02*
X157436451Y-116016456D01*
X157734070Y-115599790D02*
X157734070Y-116671218D01*
X157674546Y-116790266D01*
X157555499Y-116849790D01*
X157436451Y-116849790D01*
X157019784Y-116849790D02*
X157019784Y-115599790D01*
X156484070Y-116849790D02*
X156484070Y-116195028D01*
X156543594Y-116075980D01*
X156662641Y-116016456D01*
X156841213Y-116016456D01*
X156960260Y-116075980D01*
X157019784Y-116135504D01*
X155353118Y-116016456D02*
X155353118Y-116849790D01*
X155888832Y-116016456D02*
X155888832Y-116671218D01*
X155829308Y-116790266D01*
X155710260Y-116849790D01*
X155531689Y-116849790D01*
X155412641Y-116790266D01*
X155353118Y-116730742D01*
X154757880Y-116849790D02*
X154757880Y-115599790D01*
X154757880Y-116075980D02*
X154638832Y-116016456D01*
X154400737Y-116016456D01*
X154281689Y-116075980D01*
X154222165Y-116135504D01*
X154162641Y-116254552D01*
X154162641Y-116611694D01*
X154222165Y-116730742D01*
X154281689Y-116790266D01*
X154400737Y-116849790D01*
X154638832Y-116849790D01*
X154757880Y-116790266D01*
X153626927Y-116730742D02*
X153567403Y-116790266D01*
X153626927Y-116849790D01*
X153686451Y-116790266D01*
X153626927Y-116730742D01*
X153626927Y-116849790D01*
X152495975Y-116790266D02*
X152615022Y-116849790D01*
X152853118Y-116849790D01*
X152972165Y-116790266D01*
X153031689Y-116730742D01*
X153091213Y-116611694D01*
X153091213Y-116254552D01*
X153031689Y-116135504D01*
X152972165Y-116075980D01*
X152853118Y-116016456D01*
X152615022Y-116016456D01*
X152495975Y-116075980D01*
X151781689Y-116849790D02*
X151900737Y-116790266D01*
X151960260Y-116730742D01*
X152019784Y-116611694D01*
X152019784Y-116254552D01*
X151960260Y-116135504D01*
X151900737Y-116075980D01*
X151781689Y-116016456D01*
X151603118Y-116016456D01*
X151484070Y-116075980D01*
X151424546Y-116135504D01*
X151365022Y-116254552D01*
X151365022Y-116611694D01*
X151424546Y-116730742D01*
X151484070Y-116790266D01*
X151603118Y-116849790D01*
X151781689Y-116849790D01*
X150829308Y-116849790D02*
X150829308Y-116016456D01*
X150829308Y-116135504D02*
X150769784Y-116075980D01*
X150650737Y-116016456D01*
X150472165Y-116016456D01*
X150353118Y-116075980D01*
X150293594Y-116195028D01*
X150293594Y-116849790D01*
X150293594Y-116195028D02*
X150234070Y-116075980D01*
X150115022Y-116016456D01*
X149936451Y-116016456D01*
X149817403Y-116075980D01*
X149757880Y-116195028D01*
X149757880Y-116849790D01*
X148269784Y-115540266D02*
X149341213Y-117147409D01*
X147853118Y-116849790D02*
X147853118Y-116016456D01*
X147853118Y-116254552D02*
X147793594Y-116135504D01*
X147734070Y-116075980D01*
X147615022Y-116016456D01*
X147495975Y-116016456D01*
X147079308Y-116849790D02*
X147079308Y-116016456D01*
X147079308Y-115599790D02*
X147138832Y-115659314D01*
X147079308Y-115718837D01*
X147019784Y-115659314D01*
X147079308Y-115599790D01*
X147079308Y-115718837D01*
X145948356Y-116790266D02*
X146067403Y-116849790D01*
X146305499Y-116849790D01*
X146424546Y-116790266D01*
X146484070Y-116730742D01*
X146543594Y-116611694D01*
X146543594Y-116254552D01*
X146484070Y-116135504D01*
X146424546Y-116075980D01*
X146305499Y-116016456D01*
X146067403Y-116016456D01*
X145948356Y-116075980D01*
X145412641Y-116849790D02*
X145412641Y-115599790D01*
X145293594Y-116373599D02*
X144936451Y-116849790D01*
X144936451Y-116016456D02*
X145412641Y-116492647D01*
X144222165Y-116849790D02*
X144341213Y-116790266D01*
X144400737Y-116671218D01*
X144400737Y-115599790D01*
X143745975Y-116849790D02*
X143745975Y-116016456D01*
X143745975Y-115599790D02*
X143805499Y-115659314D01*
X143745975Y-115718837D01*
X143686451Y-115659314D01*
X143745975Y-115599790D01*
X143745975Y-115718837D01*
X142615022Y-116790266D02*
X142734070Y-116849790D01*
X142972165Y-116849790D01*
X143091213Y-116790266D01*
X143150737Y-116730742D01*
X143210260Y-116611694D01*
X143210260Y-116254552D01*
X143150737Y-116135504D01*
X143091213Y-116075980D01*
X142972165Y-116016456D01*
X142734070Y-116016456D01*
X142615022Y-116075980D01*
X142079308Y-116849790D02*
X142079308Y-116016456D01*
X142079308Y-115599790D02*
X142138832Y-115659314D01*
X142079308Y-115718837D01*
X142019784Y-115659314D01*
X142079308Y-115599790D01*
X142079308Y-115718837D01*
X141305499Y-116849790D02*
X141424546Y-116790266D01*
X141484070Y-116730742D01*
X141543594Y-116611694D01*
X141543594Y-116254552D01*
X141484070Y-116135504D01*
X141424546Y-116075980D01*
X141305499Y-116016456D01*
X141126927Y-116016456D01*
X141007880Y-116075980D01*
X140948356Y-116135504D01*
X140888832Y-116254552D01*
X140888832Y-116611694D01*
X140948356Y-116730742D01*
X141007880Y-116790266D01*
X141126927Y-116849790D01*
X141305499Y-116849790D01*
X139817403Y-116016456D02*
X139817403Y-116849790D01*
X140353118Y-116016456D02*
X140353118Y-116671218D01*
X140293594Y-116790266D01*
X140174546Y-116849790D01*
X139995975Y-116849790D01*
X139876927Y-116790266D01*
X139817403Y-116730742D01*
X139281689Y-116790266D02*
X139162641Y-116849790D01*
X138924546Y-116849790D01*
X138805499Y-116790266D01*
X138745975Y-116671218D01*
X138745975Y-116611694D01*
X138805499Y-116492647D01*
X138924546Y-116433123D01*
X139103118Y-116433123D01*
X139222165Y-116373599D01*
X139281689Y-116254552D01*
X139281689Y-116195028D01*
X139222165Y-116075980D01*
X139103118Y-116016456D01*
X138924546Y-116016456D01*
X138805499Y-116075980D01*
D10*
X117807291Y-93116964D02*
X117840625Y-93155059D01*
X117940625Y-93193154D01*
X118007291Y-93193154D01*
X118107291Y-93155059D01*
X118173958Y-93078869D01*
X118207291Y-93002678D01*
X118240625Y-92850297D01*
X118240625Y-92736011D01*
X118207291Y-92583630D01*
X118173958Y-92507440D01*
X118107291Y-92431250D01*
X118007291Y-92393154D01*
X117940625Y-92393154D01*
X117840625Y-92431250D01*
X117807291Y-92469345D01*
X117140625Y-93193154D02*
X117540625Y-93193154D01*
X117340625Y-93193154D02*
X117340625Y-92393154D01*
X117407291Y-92507440D01*
X117473958Y-92583630D01*
X117540625Y-92621726D01*
X116476339Y-89231250D02*
X116514434Y-89264583D01*
X116552529Y-89231250D01*
X116514434Y-89197916D01*
X116476339Y-89231250D01*
X116552529Y-89231250D01*
X116552529Y-89931250D02*
X116552529Y-89531250D01*
X116552529Y-89731250D02*
X115752529Y-89731250D01*
X115866815Y-89664583D01*
X115943005Y-89597916D01*
X115981101Y-89531250D01*
X116019196Y-90531250D02*
X116552529Y-90531250D01*
X116019196Y-90231250D02*
X116438244Y-90231250D01*
X116514434Y-90264583D01*
X116552529Y-90331250D01*
X116552529Y-90431250D01*
X116514434Y-90497916D01*
X116476339Y-90531250D01*
X116133482Y-91097916D02*
X116133482Y-90864583D01*
X116552529Y-90864583D02*
X115752529Y-90864583D01*
X115752529Y-91197916D01*
X98840625Y-96720154D02*
X98840625Y-95920154D01*
X98673958Y-95920154D01*
X98573958Y-95958250D01*
X98507291Y-96034440D01*
X98473958Y-96110630D01*
X98440625Y-96263011D01*
X98440625Y-96377297D01*
X98473958Y-96529678D01*
X98507291Y-96605869D01*
X98573958Y-96682059D01*
X98673958Y-96720154D01*
X98840625Y-96720154D01*
X98173958Y-95996345D02*
X98140625Y-95958250D01*
X98073958Y-95920154D01*
X97907291Y-95920154D01*
X97840625Y-95958250D01*
X97807291Y-95996345D01*
X97773958Y-96072535D01*
X97773958Y-96148726D01*
X97807291Y-96263011D01*
X98207291Y-96720154D01*
X97773958Y-96720154D01*
X97173958Y-95920154D02*
X97307291Y-95920154D01*
X97373958Y-95958250D01*
X97407291Y-95996345D01*
X97473958Y-96110630D01*
X97507291Y-96263011D01*
X97507291Y-96567773D01*
X97473958Y-96643964D01*
X97440625Y-96682059D01*
X97373958Y-96720154D01*
X97240625Y-96720154D01*
X97173958Y-96682059D01*
X97140625Y-96643964D01*
X97107291Y-96567773D01*
X97107291Y-96377297D01*
X97140625Y-96301107D01*
X97173958Y-96263011D01*
X97240625Y-96224916D01*
X97373958Y-96224916D01*
X97440625Y-96263011D01*
X97473958Y-96301107D01*
X97507291Y-96377297D01*
X210040625Y-62566154D02*
X210040625Y-61766154D01*
X209873958Y-61766154D01*
X209773958Y-61804250D01*
X209707291Y-61880440D01*
X209673958Y-61956630D01*
X209640625Y-62109011D01*
X209640625Y-62223297D01*
X209673958Y-62375678D01*
X209707291Y-62451869D01*
X209773958Y-62528059D01*
X209873958Y-62566154D01*
X210040625Y-62566154D01*
X208973958Y-62566154D02*
X209373958Y-62566154D01*
X209173958Y-62566154D02*
X209173958Y-61766154D01*
X209240625Y-61880440D01*
X209307291Y-61956630D01*
X209373958Y-61994726D01*
X208640625Y-62566154D02*
X208507291Y-62566154D01*
X208440625Y-62528059D01*
X208407291Y-62489964D01*
X208340625Y-62375678D01*
X208307291Y-62223297D01*
X208307291Y-61918535D01*
X208340625Y-61842345D01*
X208373958Y-61804250D01*
X208440625Y-61766154D01*
X208573958Y-61766154D01*
X208640625Y-61804250D01*
X208673958Y-61842345D01*
X208707291Y-61918535D01*
X208707291Y-62109011D01*
X208673958Y-62185202D01*
X208640625Y-62223297D01*
X208573958Y-62261392D01*
X208440625Y-62261392D01*
X208373958Y-62223297D01*
X208340625Y-62185202D01*
X208307291Y-62109011D01*
X171940625Y-62566154D02*
X171940625Y-61766154D01*
X171773958Y-61766154D01*
X171673958Y-61804250D01*
X171607291Y-61880440D01*
X171573958Y-61956630D01*
X171540625Y-62109011D01*
X171540625Y-62223297D01*
X171573958Y-62375678D01*
X171607291Y-62451869D01*
X171673958Y-62528059D01*
X171773958Y-62566154D01*
X171940625Y-62566154D01*
X170873958Y-62566154D02*
X171273958Y-62566154D01*
X171073958Y-62566154D02*
X171073958Y-61766154D01*
X171140625Y-61880440D01*
X171207291Y-61956630D01*
X171273958Y-61994726D01*
X170640625Y-61766154D02*
X170173958Y-61766154D01*
X170473958Y-62566154D01*
X136940625Y-62566154D02*
X136940625Y-61766154D01*
X136773958Y-61766154D01*
X136673958Y-61804250D01*
X136607291Y-61880440D01*
X136573958Y-61956630D01*
X136540625Y-62109011D01*
X136540625Y-62223297D01*
X136573958Y-62375678D01*
X136607291Y-62451869D01*
X136673958Y-62528059D01*
X136773958Y-62566154D01*
X136940625Y-62566154D01*
X135873958Y-62566154D02*
X136273958Y-62566154D01*
X136073958Y-62566154D02*
X136073958Y-61766154D01*
X136140625Y-61880440D01*
X136207291Y-61956630D01*
X136273958Y-61994726D01*
X135273958Y-61766154D02*
X135407291Y-61766154D01*
X135473958Y-61804250D01*
X135507291Y-61842345D01*
X135573958Y-61956630D01*
X135607291Y-62109011D01*
X135607291Y-62413773D01*
X135573958Y-62489964D01*
X135540625Y-62528059D01*
X135473958Y-62566154D01*
X135340625Y-62566154D01*
X135273958Y-62528059D01*
X135240625Y-62489964D01*
X135207291Y-62413773D01*
X135207291Y-62223297D01*
X135240625Y-62147107D01*
X135273958Y-62109011D01*
X135340625Y-62070916D01*
X135473958Y-62070916D01*
X135540625Y-62109011D01*
X135573958Y-62147107D01*
X135607291Y-62223297D01*
X102990625Y-62566154D02*
X102990625Y-61766154D01*
X102823958Y-61766154D01*
X102723958Y-61804250D01*
X102657291Y-61880440D01*
X102623958Y-61956630D01*
X102590625Y-62109011D01*
X102590625Y-62223297D01*
X102623958Y-62375678D01*
X102657291Y-62451869D01*
X102723958Y-62528059D01*
X102823958Y-62566154D01*
X102990625Y-62566154D01*
X101923958Y-62566154D02*
X102323958Y-62566154D01*
X102123958Y-62566154D02*
X102123958Y-61766154D01*
X102190625Y-61880440D01*
X102257291Y-61956630D01*
X102323958Y-61994726D01*
X101323958Y-62032821D02*
X101323958Y-62566154D01*
X101490625Y-61728059D02*
X101657291Y-62299488D01*
X101223958Y-62299488D01*
X286240625Y-58720154D02*
X286240625Y-57920154D01*
X286073958Y-57920154D01*
X285973958Y-57958250D01*
X285907291Y-58034440D01*
X285873958Y-58110630D01*
X285840625Y-58263011D01*
X285840625Y-58377297D01*
X285873958Y-58529678D01*
X285907291Y-58605869D01*
X285973958Y-58682059D01*
X286073958Y-58720154D01*
X286240625Y-58720154D01*
X285173958Y-58720154D02*
X285573958Y-58720154D01*
X285373958Y-58720154D02*
X285373958Y-57920154D01*
X285440625Y-58034440D01*
X285507291Y-58110630D01*
X285573958Y-58148726D01*
X284507291Y-58720154D02*
X284907291Y-58720154D01*
X284707291Y-58720154D02*
X284707291Y-57920154D01*
X284773958Y-58034440D01*
X284840625Y-58110630D01*
X284907291Y-58148726D01*
X251240625Y-58720154D02*
X251240625Y-57920154D01*
X251073958Y-57920154D01*
X250973958Y-57958250D01*
X250907291Y-58034440D01*
X250873958Y-58110630D01*
X250840625Y-58263011D01*
X250840625Y-58377297D01*
X250873958Y-58529678D01*
X250907291Y-58605869D01*
X250973958Y-58682059D01*
X251073958Y-58720154D01*
X251240625Y-58720154D01*
X250173958Y-58720154D02*
X250573958Y-58720154D01*
X250373958Y-58720154D02*
X250373958Y-57920154D01*
X250440625Y-58034440D01*
X250507291Y-58110630D01*
X250573958Y-58148726D01*
X249740625Y-57920154D02*
X249673958Y-57920154D01*
X249607291Y-57958250D01*
X249573958Y-57996345D01*
X249540625Y-58072535D01*
X249507291Y-58224916D01*
X249507291Y-58415392D01*
X249540625Y-58567773D01*
X249573958Y-58643964D01*
X249607291Y-58682059D01*
X249673958Y-58720154D01*
X249740625Y-58720154D01*
X249807291Y-58682059D01*
X249840625Y-58643964D01*
X249873958Y-58567773D01*
X249907291Y-58415392D01*
X249907291Y-58224916D01*
X249873958Y-58072535D01*
X249840625Y-57996345D01*
X249807291Y-57958250D01*
X249740625Y-57920154D01*
X212807291Y-58720154D02*
X212807291Y-57920154D01*
X212640625Y-57920154D01*
X212540625Y-57958250D01*
X212473958Y-58034440D01*
X212440625Y-58110630D01*
X212407291Y-58263011D01*
X212407291Y-58377297D01*
X212440625Y-58529678D01*
X212473958Y-58605869D01*
X212540625Y-58682059D01*
X212640625Y-58720154D01*
X212807291Y-58720154D01*
X212007291Y-58263011D02*
X212073958Y-58224916D01*
X212107291Y-58186821D01*
X212140625Y-58110630D01*
X212140625Y-58072535D01*
X212107291Y-57996345D01*
X212073958Y-57958250D01*
X212007291Y-57920154D01*
X211873958Y-57920154D01*
X211807291Y-57958250D01*
X211773958Y-57996345D01*
X211740625Y-58072535D01*
X211740625Y-58110630D01*
X211773958Y-58186821D01*
X211807291Y-58224916D01*
X211873958Y-58263011D01*
X212007291Y-58263011D01*
X212073958Y-58301107D01*
X212107291Y-58339202D01*
X212140625Y-58415392D01*
X212140625Y-58567773D01*
X212107291Y-58643964D01*
X212073958Y-58682059D01*
X212007291Y-58720154D01*
X211873958Y-58720154D01*
X211807291Y-58682059D01*
X211773958Y-58643964D01*
X211740625Y-58567773D01*
X211740625Y-58415392D01*
X211773958Y-58339202D01*
X211807291Y-58301107D01*
X211873958Y-58263011D01*
X209707291Y-58720154D02*
X209707291Y-57920154D01*
X209540625Y-57920154D01*
X209440625Y-57958250D01*
X209373958Y-58034440D01*
X209340625Y-58110630D01*
X209307291Y-58263011D01*
X209307291Y-58377297D01*
X209340625Y-58529678D01*
X209373958Y-58605869D01*
X209440625Y-58682059D01*
X209540625Y-58720154D01*
X209707291Y-58720154D01*
X209073958Y-57920154D02*
X208607291Y-57920154D01*
X208907291Y-58720154D01*
X174677665Y-58747281D02*
X174677665Y-57947281D01*
X174510999Y-57947281D01*
X174410999Y-57985377D01*
X174344332Y-58061567D01*
X174310999Y-58137757D01*
X174277665Y-58290138D01*
X174277665Y-58404424D01*
X174310999Y-58556805D01*
X174344332Y-58632996D01*
X174410999Y-58709186D01*
X174510999Y-58747281D01*
X174677665Y-58747281D01*
X173677665Y-57947281D02*
X173810999Y-57947281D01*
X173877665Y-57985377D01*
X173910999Y-58023472D01*
X173977665Y-58137757D01*
X174010999Y-58290138D01*
X174010999Y-58594900D01*
X173977665Y-58671091D01*
X173944332Y-58709186D01*
X173877665Y-58747281D01*
X173744332Y-58747281D01*
X173677665Y-58709186D01*
X173644332Y-58671091D01*
X173610999Y-58594900D01*
X173610999Y-58404424D01*
X173644332Y-58328234D01*
X173677665Y-58290138D01*
X173744332Y-58252043D01*
X173877665Y-58252043D01*
X173944332Y-58290138D01*
X173977665Y-58328234D01*
X174010999Y-58404424D01*
X171502665Y-58747281D02*
X171502665Y-57947281D01*
X171335999Y-57947281D01*
X171235999Y-57985377D01*
X171169332Y-58061567D01*
X171135999Y-58137757D01*
X171102665Y-58290138D01*
X171102665Y-58404424D01*
X171135999Y-58556805D01*
X171169332Y-58632996D01*
X171235999Y-58709186D01*
X171335999Y-58747281D01*
X171502665Y-58747281D01*
X170469332Y-57947281D02*
X170802665Y-57947281D01*
X170835999Y-58328234D01*
X170802665Y-58290138D01*
X170735999Y-58252043D01*
X170569332Y-58252043D01*
X170502665Y-58290138D01*
X170469332Y-58328234D01*
X170435999Y-58404424D01*
X170435999Y-58594900D01*
X170469332Y-58671091D01*
X170502665Y-58709186D01*
X170569332Y-58747281D01*
X170735999Y-58747281D01*
X170802665Y-58709186D01*
X170835999Y-58671091D01*
X155777665Y-58720154D02*
X155777665Y-57920154D01*
X155610999Y-57920154D01*
X155510999Y-57958250D01*
X155444332Y-58034440D01*
X155410999Y-58110630D01*
X155377665Y-58263011D01*
X155377665Y-58377297D01*
X155410999Y-58529678D01*
X155444332Y-58605869D01*
X155510999Y-58682059D01*
X155610999Y-58720154D01*
X155777665Y-58720154D01*
X154777665Y-58186821D02*
X154777665Y-58720154D01*
X154944332Y-57882059D02*
X155110999Y-58453488D01*
X154677665Y-58453488D01*
X289340625Y-100616154D02*
X289340625Y-99816154D01*
X289173958Y-99816154D01*
X289073958Y-99854250D01*
X289007291Y-99930440D01*
X288973958Y-100006630D01*
X288940625Y-100159011D01*
X288940625Y-100273297D01*
X288973958Y-100425678D01*
X289007291Y-100501869D01*
X289073958Y-100578059D01*
X289173958Y-100616154D01*
X289340625Y-100616154D01*
X288340625Y-100082821D02*
X288340625Y-100616154D01*
X288507291Y-99778059D02*
X288673958Y-100349488D01*
X288240625Y-100349488D01*
X287873958Y-100159011D02*
X287940625Y-100120916D01*
X287973958Y-100082821D01*
X288007291Y-100006630D01*
X288007291Y-99968535D01*
X287973958Y-99892345D01*
X287940625Y-99854250D01*
X287873958Y-99816154D01*
X287740625Y-99816154D01*
X287673958Y-99854250D01*
X287640625Y-99892345D01*
X287607291Y-99968535D01*
X287607291Y-100006630D01*
X287640625Y-100082821D01*
X287673958Y-100120916D01*
X287740625Y-100159011D01*
X287873958Y-100159011D01*
X287940625Y-100197107D01*
X287973958Y-100235202D01*
X288007291Y-100311392D01*
X288007291Y-100463773D01*
X287973958Y-100539964D01*
X287940625Y-100578059D01*
X287873958Y-100616154D01*
X287740625Y-100616154D01*
X287673958Y-100578059D01*
X287640625Y-100539964D01*
X287607291Y-100463773D01*
X287607291Y-100311392D01*
X287640625Y-100235202D01*
X287673958Y-100197107D01*
X287740625Y-100159011D01*
X286240625Y-100616154D02*
X286240625Y-99816154D01*
X286073958Y-99816154D01*
X285973958Y-99854250D01*
X285907291Y-99930440D01*
X285873958Y-100006630D01*
X285840625Y-100159011D01*
X285840625Y-100273297D01*
X285873958Y-100425678D01*
X285907291Y-100501869D01*
X285973958Y-100578059D01*
X286073958Y-100616154D01*
X286240625Y-100616154D01*
X285240625Y-100082821D02*
X285240625Y-100616154D01*
X285407291Y-99778059D02*
X285573958Y-100349488D01*
X285140625Y-100349488D01*
X284940625Y-99816154D02*
X284473958Y-99816154D01*
X284773958Y-100616154D01*
X251240625Y-100616154D02*
X251240625Y-99816154D01*
X251073958Y-99816154D01*
X250973958Y-99854250D01*
X250907291Y-99930440D01*
X250873958Y-100006630D01*
X250840625Y-100159011D01*
X250840625Y-100273297D01*
X250873958Y-100425678D01*
X250907291Y-100501869D01*
X250973958Y-100578059D01*
X251073958Y-100616154D01*
X251240625Y-100616154D01*
X250240625Y-100082821D02*
X250240625Y-100616154D01*
X250407291Y-99778059D02*
X250573958Y-100349488D01*
X250140625Y-100349488D01*
X249573958Y-99816154D02*
X249707291Y-99816154D01*
X249773958Y-99854250D01*
X249807291Y-99892345D01*
X249873958Y-100006630D01*
X249907291Y-100159011D01*
X249907291Y-100463773D01*
X249873958Y-100539964D01*
X249840625Y-100578059D01*
X249773958Y-100616154D01*
X249640625Y-100616154D01*
X249573958Y-100578059D01*
X249540625Y-100539964D01*
X249507291Y-100463773D01*
X249507291Y-100273297D01*
X249540625Y-100197107D01*
X249573958Y-100159011D01*
X249640625Y-100120916D01*
X249773958Y-100120916D01*
X249840625Y-100159011D01*
X249873958Y-100197107D01*
X249907291Y-100273297D01*
X248140625Y-100609281D02*
X248140625Y-99809281D01*
X247973958Y-99809281D01*
X247873958Y-99847377D01*
X247807291Y-99923567D01*
X247773958Y-99999757D01*
X247740625Y-100152138D01*
X247740625Y-100266424D01*
X247773958Y-100418805D01*
X247807291Y-100494996D01*
X247873958Y-100571186D01*
X247973958Y-100609281D01*
X248140625Y-100609281D01*
X247140625Y-100075948D02*
X247140625Y-100609281D01*
X247307291Y-99771186D02*
X247473958Y-100342615D01*
X247040625Y-100342615D01*
X246440625Y-99809281D02*
X246773958Y-99809281D01*
X246807291Y-100190234D01*
X246773958Y-100152138D01*
X246707291Y-100114043D01*
X246540625Y-100114043D01*
X246473958Y-100152138D01*
X246440625Y-100190234D01*
X246407291Y-100266424D01*
X246407291Y-100456900D01*
X246440625Y-100533091D01*
X246473958Y-100571186D01*
X246540625Y-100609281D01*
X246707291Y-100609281D01*
X246773958Y-100571186D01*
X246807291Y-100533091D01*
X213133999Y-100609281D02*
X213133999Y-99809281D01*
X212967332Y-99809281D01*
X212867332Y-99847377D01*
X212800665Y-99923567D01*
X212767332Y-99999757D01*
X212733999Y-100152138D01*
X212733999Y-100266424D01*
X212767332Y-100418805D01*
X212800665Y-100494996D01*
X212867332Y-100571186D01*
X212967332Y-100609281D01*
X213133999Y-100609281D01*
X212133999Y-100075948D02*
X212133999Y-100609281D01*
X212300665Y-99771186D02*
X212467332Y-100342615D01*
X212033999Y-100342615D01*
X211467332Y-100075948D02*
X211467332Y-100609281D01*
X211633999Y-99771186D02*
X211800665Y-100342615D01*
X211367332Y-100342615D01*
X210050000Y-100609281D02*
X210050000Y-99809281D01*
X209883333Y-99809281D01*
X209783333Y-99847377D01*
X209716666Y-99923567D01*
X209683333Y-99999757D01*
X209650000Y-100152138D01*
X209650000Y-100266424D01*
X209683333Y-100418805D01*
X209716666Y-100494996D01*
X209783333Y-100571186D01*
X209883333Y-100609281D01*
X210050000Y-100609281D01*
X209050000Y-100075948D02*
X209050000Y-100609281D01*
X209216666Y-99771186D02*
X209383333Y-100342615D01*
X208950000Y-100342615D01*
X208750000Y-99809281D02*
X208316666Y-99809281D01*
X208550000Y-100114043D01*
X208450000Y-100114043D01*
X208383333Y-100152138D01*
X208350000Y-100190234D01*
X208316666Y-100266424D01*
X208316666Y-100456900D01*
X208350000Y-100533091D01*
X208383333Y-100571186D01*
X208450000Y-100609281D01*
X208650000Y-100609281D01*
X208716666Y-100571186D01*
X208750000Y-100533091D01*
X213140625Y-96720154D02*
X213140625Y-95920154D01*
X212973958Y-95920154D01*
X212873958Y-95958250D01*
X212807291Y-96034440D01*
X212773958Y-96110630D01*
X212740625Y-96263011D01*
X212740625Y-96377297D01*
X212773958Y-96529678D01*
X212807291Y-96605869D01*
X212873958Y-96682059D01*
X212973958Y-96720154D01*
X213140625Y-96720154D01*
X212507291Y-95920154D02*
X212073958Y-95920154D01*
X212307291Y-96224916D01*
X212207291Y-96224916D01*
X212140625Y-96263011D01*
X212107291Y-96301107D01*
X212073958Y-96377297D01*
X212073958Y-96567773D01*
X212107291Y-96643964D01*
X212140625Y-96682059D01*
X212207291Y-96720154D01*
X212407291Y-96720154D01*
X212473958Y-96682059D01*
X212507291Y-96643964D01*
X211807291Y-95996345D02*
X211773958Y-95958250D01*
X211707291Y-95920154D01*
X211540625Y-95920154D01*
X211473958Y-95958250D01*
X211440625Y-95996345D01*
X211407291Y-96072535D01*
X211407291Y-96148726D01*
X211440625Y-96263011D01*
X211840625Y-96720154D01*
X211407291Y-96720154D01*
X286240625Y-62566154D02*
X286240625Y-61766154D01*
X286073958Y-61766154D01*
X285973958Y-61804250D01*
X285907291Y-61880440D01*
X285873958Y-61956630D01*
X285840625Y-62109011D01*
X285840625Y-62223297D01*
X285873958Y-62375678D01*
X285907291Y-62451869D01*
X285973958Y-62528059D01*
X286073958Y-62566154D01*
X286240625Y-62566154D01*
X285573958Y-61842345D02*
X285540625Y-61804250D01*
X285473958Y-61766154D01*
X285307291Y-61766154D01*
X285240625Y-61804250D01*
X285207291Y-61842345D01*
X285173958Y-61918535D01*
X285173958Y-61994726D01*
X285207291Y-62109011D01*
X285607291Y-62566154D01*
X285173958Y-62566154D01*
X284940625Y-61766154D02*
X284507291Y-61766154D01*
X284740625Y-62070916D01*
X284640625Y-62070916D01*
X284573958Y-62109011D01*
X284540625Y-62147107D01*
X284507291Y-62223297D01*
X284507291Y-62413773D01*
X284540625Y-62489964D01*
X284573958Y-62528059D01*
X284640625Y-62566154D01*
X284840625Y-62566154D01*
X284907291Y-62528059D01*
X284940625Y-62489964D01*
X210040625Y-96720154D02*
X210040625Y-95920154D01*
X209873958Y-95920154D01*
X209773958Y-95958250D01*
X209707291Y-96034440D01*
X209673958Y-96110630D01*
X209640625Y-96263011D01*
X209640625Y-96377297D01*
X209673958Y-96529678D01*
X209707291Y-96605869D01*
X209773958Y-96682059D01*
X209873958Y-96720154D01*
X210040625Y-96720154D01*
X209407291Y-95920154D02*
X208973958Y-95920154D01*
X209207291Y-96224916D01*
X209107291Y-96224916D01*
X209040625Y-96263011D01*
X209007291Y-96301107D01*
X208973958Y-96377297D01*
X208973958Y-96567773D01*
X209007291Y-96643964D01*
X209040625Y-96682059D01*
X209107291Y-96720154D01*
X209307291Y-96720154D01*
X209373958Y-96682059D01*
X209407291Y-96643964D01*
X208307291Y-96720154D02*
X208707291Y-96720154D01*
X208507291Y-96720154D02*
X208507291Y-95920154D01*
X208573958Y-96034440D01*
X208640625Y-96110630D01*
X208707291Y-96148726D01*
X171935999Y-96720154D02*
X171935999Y-95920154D01*
X171769332Y-95920154D01*
X171669332Y-95958250D01*
X171602665Y-96034440D01*
X171569332Y-96110630D01*
X171535999Y-96263011D01*
X171535999Y-96377297D01*
X171569332Y-96529678D01*
X171602665Y-96605869D01*
X171669332Y-96682059D01*
X171769332Y-96720154D01*
X171935999Y-96720154D01*
X171269332Y-95996345D02*
X171235999Y-95958250D01*
X171169332Y-95920154D01*
X171002665Y-95920154D01*
X170935999Y-95958250D01*
X170902665Y-95996345D01*
X170869332Y-96072535D01*
X170869332Y-96148726D01*
X170902665Y-96263011D01*
X171302665Y-96720154D01*
X170869332Y-96720154D01*
X170535999Y-96720154D02*
X170402665Y-96720154D01*
X170335999Y-96682059D01*
X170302665Y-96643964D01*
X170235999Y-96529678D01*
X170202665Y-96377297D01*
X170202665Y-96072535D01*
X170235999Y-95996345D01*
X170269332Y-95958250D01*
X170335999Y-95920154D01*
X170469332Y-95920154D01*
X170535999Y-95958250D01*
X170569332Y-95996345D01*
X170602665Y-96072535D01*
X170602665Y-96263011D01*
X170569332Y-96339202D01*
X170535999Y-96377297D01*
X170469332Y-96415392D01*
X170335999Y-96415392D01*
X170269332Y-96377297D01*
X170235999Y-96339202D01*
X170202665Y-96263011D01*
X133840625Y-96720154D02*
X133840625Y-95920154D01*
X133673958Y-95920154D01*
X133573958Y-95958250D01*
X133507291Y-96034440D01*
X133473958Y-96110630D01*
X133440625Y-96263011D01*
X133440625Y-96377297D01*
X133473958Y-96529678D01*
X133507291Y-96605869D01*
X133573958Y-96682059D01*
X133673958Y-96720154D01*
X133840625Y-96720154D01*
X133173958Y-95996345D02*
X133140625Y-95958250D01*
X133073958Y-95920154D01*
X132907291Y-95920154D01*
X132840625Y-95958250D01*
X132807291Y-95996345D01*
X132773958Y-96072535D01*
X132773958Y-96148726D01*
X132807291Y-96263011D01*
X133207291Y-96720154D01*
X132773958Y-96720154D01*
X132540625Y-95920154D02*
X132073958Y-95920154D01*
X132373958Y-96720154D01*
X289340625Y-62566154D02*
X289340625Y-61766154D01*
X289173958Y-61766154D01*
X289073958Y-61804250D01*
X289007291Y-61880440D01*
X288973958Y-61956630D01*
X288940625Y-62109011D01*
X288940625Y-62223297D01*
X288973958Y-62375678D01*
X289007291Y-62451869D01*
X289073958Y-62528059D01*
X289173958Y-62566154D01*
X289340625Y-62566154D01*
X288673958Y-61842345D02*
X288640625Y-61804250D01*
X288573958Y-61766154D01*
X288407291Y-61766154D01*
X288340625Y-61804250D01*
X288307291Y-61842345D01*
X288273958Y-61918535D01*
X288273958Y-61994726D01*
X288307291Y-62109011D01*
X288707291Y-62566154D01*
X288273958Y-62566154D01*
X287673958Y-62032821D02*
X287673958Y-62566154D01*
X287840625Y-61728059D02*
X288007291Y-62299488D01*
X287573958Y-62299488D01*
X286240625Y-96720154D02*
X286240625Y-95920154D01*
X286073958Y-95920154D01*
X285973958Y-95958250D01*
X285907291Y-96034440D01*
X285873958Y-96110630D01*
X285840625Y-96263011D01*
X285840625Y-96377297D01*
X285873958Y-96529678D01*
X285907291Y-96605869D01*
X285973958Y-96682059D01*
X286073958Y-96720154D01*
X286240625Y-96720154D01*
X285607291Y-95920154D02*
X285173958Y-95920154D01*
X285407291Y-96224916D01*
X285307291Y-96224916D01*
X285240625Y-96263011D01*
X285207291Y-96301107D01*
X285173958Y-96377297D01*
X285173958Y-96567773D01*
X285207291Y-96643964D01*
X285240625Y-96682059D01*
X285307291Y-96720154D01*
X285507291Y-96720154D01*
X285573958Y-96682059D01*
X285607291Y-96643964D01*
X284540625Y-95920154D02*
X284873958Y-95920154D01*
X284907291Y-96301107D01*
X284873958Y-96263011D01*
X284807291Y-96224916D01*
X284640625Y-96224916D01*
X284573958Y-96263011D01*
X284540625Y-96301107D01*
X284507291Y-96377297D01*
X284507291Y-96567773D01*
X284540625Y-96643964D01*
X284573958Y-96682059D01*
X284640625Y-96720154D01*
X284807291Y-96720154D01*
X284873958Y-96682059D01*
X284907291Y-96643964D01*
X251240625Y-96720154D02*
X251240625Y-95920154D01*
X251073958Y-95920154D01*
X250973958Y-95958250D01*
X250907291Y-96034440D01*
X250873958Y-96110630D01*
X250840625Y-96263011D01*
X250840625Y-96377297D01*
X250873958Y-96529678D01*
X250907291Y-96605869D01*
X250973958Y-96682059D01*
X251073958Y-96720154D01*
X251240625Y-96720154D01*
X250607291Y-95920154D02*
X250173958Y-95920154D01*
X250407291Y-96224916D01*
X250307291Y-96224916D01*
X250240625Y-96263011D01*
X250207291Y-96301107D01*
X250173958Y-96377297D01*
X250173958Y-96567773D01*
X250207291Y-96643964D01*
X250240625Y-96682059D01*
X250307291Y-96720154D01*
X250507291Y-96720154D01*
X250573958Y-96682059D01*
X250607291Y-96643964D01*
X249573958Y-96186821D02*
X249573958Y-96720154D01*
X249740625Y-95882059D02*
X249907291Y-96453488D01*
X249473958Y-96453488D01*
X248140625Y-96720154D02*
X248140625Y-95920154D01*
X247973958Y-95920154D01*
X247873958Y-95958250D01*
X247807291Y-96034440D01*
X247773958Y-96110630D01*
X247740625Y-96263011D01*
X247740625Y-96377297D01*
X247773958Y-96529678D01*
X247807291Y-96605869D01*
X247873958Y-96682059D01*
X247973958Y-96720154D01*
X248140625Y-96720154D01*
X247507291Y-95920154D02*
X247073958Y-95920154D01*
X247307291Y-96224916D01*
X247207291Y-96224916D01*
X247140625Y-96263011D01*
X247107291Y-96301107D01*
X247073958Y-96377297D01*
X247073958Y-96567773D01*
X247107291Y-96643964D01*
X247140625Y-96682059D01*
X247207291Y-96720154D01*
X247407291Y-96720154D01*
X247473958Y-96682059D01*
X247507291Y-96643964D01*
X246840625Y-95920154D02*
X246407291Y-95920154D01*
X246640625Y-96224916D01*
X246540625Y-96224916D01*
X246473958Y-96263011D01*
X246440625Y-96301107D01*
X246407291Y-96377297D01*
X246407291Y-96567773D01*
X246440625Y-96643964D01*
X246473958Y-96682059D01*
X246540625Y-96720154D01*
X246740625Y-96720154D01*
X246807291Y-96682059D01*
X246840625Y-96643964D01*
X175040625Y-100616154D02*
X175040625Y-99816154D01*
X174873958Y-99816154D01*
X174773958Y-99854250D01*
X174707291Y-99930440D01*
X174673958Y-100006630D01*
X174640625Y-100159011D01*
X174640625Y-100273297D01*
X174673958Y-100425678D01*
X174707291Y-100501869D01*
X174773958Y-100578059D01*
X174873958Y-100616154D01*
X175040625Y-100616154D01*
X174040625Y-100082821D02*
X174040625Y-100616154D01*
X174207291Y-99778059D02*
X174373958Y-100349488D01*
X173940625Y-100349488D01*
X173707291Y-99892345D02*
X173673958Y-99854250D01*
X173607291Y-99816154D01*
X173440625Y-99816154D01*
X173373958Y-99854250D01*
X173340625Y-99892345D01*
X173307291Y-99968535D01*
X173307291Y-100044726D01*
X173340625Y-100159011D01*
X173740625Y-100616154D01*
X173307291Y-100616154D01*
X152602665Y-58720154D02*
X152602665Y-57920154D01*
X152435999Y-57920154D01*
X152335999Y-57958250D01*
X152269332Y-58034440D01*
X152235999Y-58110630D01*
X152202665Y-58263011D01*
X152202665Y-58377297D01*
X152235999Y-58529678D01*
X152269332Y-58605869D01*
X152335999Y-58682059D01*
X152435999Y-58720154D01*
X152602665Y-58720154D01*
X151969332Y-57920154D02*
X151535999Y-57920154D01*
X151769332Y-58224916D01*
X151669332Y-58224916D01*
X151602665Y-58263011D01*
X151569332Y-58301107D01*
X151535999Y-58377297D01*
X151535999Y-58567773D01*
X151569332Y-58643964D01*
X151602665Y-58682059D01*
X151669332Y-58720154D01*
X151869332Y-58720154D01*
X151935999Y-58682059D01*
X151969332Y-58643964D01*
X213140625Y-62566154D02*
X213140625Y-61766154D01*
X212973958Y-61766154D01*
X212873958Y-61804250D01*
X212807291Y-61880440D01*
X212773958Y-61956630D01*
X212740625Y-62109011D01*
X212740625Y-62223297D01*
X212773958Y-62375678D01*
X212807291Y-62451869D01*
X212873958Y-62528059D01*
X212973958Y-62566154D01*
X213140625Y-62566154D01*
X212473958Y-61842345D02*
X212440625Y-61804250D01*
X212373958Y-61766154D01*
X212207291Y-61766154D01*
X212140625Y-61804250D01*
X212107291Y-61842345D01*
X212073958Y-61918535D01*
X212073958Y-61994726D01*
X212107291Y-62109011D01*
X212507291Y-62566154D01*
X212073958Y-62566154D01*
X211640625Y-61766154D02*
X211573958Y-61766154D01*
X211507291Y-61804250D01*
X211473958Y-61842345D01*
X211440625Y-61918535D01*
X211407291Y-62070916D01*
X211407291Y-62261392D01*
X211440625Y-62413773D01*
X211473958Y-62489964D01*
X211507291Y-62528059D01*
X211573958Y-62566154D01*
X211640625Y-62566154D01*
X211707291Y-62528059D01*
X211740625Y-62489964D01*
X211773958Y-62413773D01*
X211807291Y-62261392D01*
X211807291Y-62070916D01*
X211773958Y-61918535D01*
X211740625Y-61842345D01*
X211707291Y-61804250D01*
X211640625Y-61766154D01*
X189301033Y-64081904D02*
X189301033Y-63281904D01*
X189067700Y-63853333D01*
X188834366Y-63281904D01*
X188834366Y-64081904D01*
X188501033Y-64081904D02*
X188501033Y-63281904D01*
X188201033Y-64043809D02*
X188101033Y-64081904D01*
X187934366Y-64081904D01*
X187867700Y-64043809D01*
X187834366Y-64005714D01*
X187801033Y-63929523D01*
X187801033Y-63853333D01*
X187834366Y-63777142D01*
X187867700Y-63739047D01*
X187934366Y-63700952D01*
X188067700Y-63662857D01*
X188134366Y-63624761D01*
X188167700Y-63586666D01*
X188201033Y-63510476D01*
X188201033Y-63434285D01*
X188167700Y-63358095D01*
X188134366Y-63320000D01*
X188067700Y-63281904D01*
X187901033Y-63281904D01*
X187801033Y-63320000D01*
X187367700Y-63281904D02*
X187234366Y-63281904D01*
X187167700Y-63320000D01*
X187101033Y-63396190D01*
X187067700Y-63548571D01*
X187067700Y-63815238D01*
X187101033Y-63967619D01*
X187167700Y-64043809D01*
X187234366Y-64081904D01*
X187367700Y-64081904D01*
X187434366Y-64043809D01*
X187501033Y-63967619D01*
X187534366Y-63815238D01*
X187534366Y-63548571D01*
X187501033Y-63396190D01*
X187434366Y-63320000D01*
X187367700Y-63281904D01*
X188901033Y-69161904D02*
X189134366Y-68780952D01*
X189301033Y-69161904D02*
X189301033Y-68361904D01*
X189034366Y-68361904D01*
X188967700Y-68400000D01*
X188934366Y-68438095D01*
X188901033Y-68514285D01*
X188901033Y-68628571D01*
X188934366Y-68704761D01*
X188967700Y-68742857D01*
X189034366Y-68780952D01*
X189301033Y-68780952D01*
X188601033Y-68742857D02*
X188367700Y-68742857D01*
X188267700Y-69161904D02*
X188601033Y-69161904D01*
X188601033Y-68361904D01*
X188267700Y-68361904D01*
X188001033Y-69123809D02*
X187901033Y-69161904D01*
X187734366Y-69161904D01*
X187667700Y-69123809D01*
X187634366Y-69085714D01*
X187601033Y-69009523D01*
X187601033Y-68933333D01*
X187634366Y-68857142D01*
X187667700Y-68819047D01*
X187734366Y-68780952D01*
X187867700Y-68742857D01*
X187934366Y-68704761D01*
X187967700Y-68666666D01*
X188001033Y-68590476D01*
X188001033Y-68514285D01*
X187967700Y-68438095D01*
X187934366Y-68400000D01*
X187867700Y-68361904D01*
X187701033Y-68361904D01*
X187601033Y-68400000D01*
X187301033Y-68742857D02*
X187067700Y-68742857D01*
X186967700Y-69161904D02*
X187301033Y-69161904D01*
X187301033Y-68361904D01*
X186967700Y-68361904D01*
X186767700Y-68361904D02*
X186367700Y-68361904D01*
X186567700Y-69161904D02*
X186567700Y-68361904D01*
X189301033Y-66621904D02*
X189301033Y-65821904D01*
X189067700Y-66393333D01*
X188834366Y-65821904D01*
X188834366Y-66621904D01*
X188367700Y-65821904D02*
X188234366Y-65821904D01*
X188167700Y-65860000D01*
X188101033Y-65936190D01*
X188067700Y-66088571D01*
X188067700Y-66355238D01*
X188101033Y-66507619D01*
X188167700Y-66583809D01*
X188234366Y-66621904D01*
X188367700Y-66621904D01*
X188434366Y-66583809D01*
X188501033Y-66507619D01*
X188534366Y-66355238D01*
X188534366Y-66088571D01*
X188501033Y-65936190D01*
X188434366Y-65860000D01*
X188367700Y-65821904D01*
X187801033Y-66583809D02*
X187701033Y-66621904D01*
X187534366Y-66621904D01*
X187467700Y-66583809D01*
X187434366Y-66545714D01*
X187401033Y-66469523D01*
X187401033Y-66393333D01*
X187434366Y-66317142D01*
X187467700Y-66279047D01*
X187534366Y-66240952D01*
X187667700Y-66202857D01*
X187734366Y-66164761D01*
X187767700Y-66126666D01*
X187801033Y-66050476D01*
X187801033Y-65974285D01*
X187767700Y-65898095D01*
X187734366Y-65860000D01*
X187667700Y-65821904D01*
X187501033Y-65821904D01*
X187401033Y-65860000D01*
X187101033Y-66621904D02*
X187101033Y-65821904D01*
X189334366Y-61503809D02*
X189234366Y-61541904D01*
X189067700Y-61541904D01*
X189001033Y-61503809D01*
X188967700Y-61465714D01*
X188934366Y-61389523D01*
X188934366Y-61313333D01*
X188967700Y-61237142D01*
X189001033Y-61199047D01*
X189067700Y-61160952D01*
X189201033Y-61122857D01*
X189267700Y-61084761D01*
X189301033Y-61046666D01*
X189334366Y-60970476D01*
X189334366Y-60894285D01*
X189301033Y-60818095D01*
X189267700Y-60780000D01*
X189201033Y-60741904D01*
X189034366Y-60741904D01*
X188934366Y-60780000D01*
X188234366Y-61465714D02*
X188267700Y-61503809D01*
X188367700Y-61541904D01*
X188434366Y-61541904D01*
X188534366Y-61503809D01*
X188601033Y-61427619D01*
X188634366Y-61351428D01*
X188667700Y-61199047D01*
X188667700Y-61084761D01*
X188634366Y-60932380D01*
X188601033Y-60856190D01*
X188534366Y-60780000D01*
X188434366Y-60741904D01*
X188367700Y-60741904D01*
X188267700Y-60780000D01*
X188234366Y-60818095D01*
X187601033Y-61541904D02*
X187934366Y-61541904D01*
X187934366Y-60741904D01*
X187367700Y-61541904D02*
X187367700Y-60741904D01*
X186967700Y-61541904D02*
X187267700Y-61084761D01*
X186967700Y-60741904D02*
X187367700Y-61199047D01*
X189388333Y-58189204D02*
X189155000Y-58989204D01*
X188921666Y-58189204D01*
X188288333Y-58913014D02*
X188321666Y-58951109D01*
X188421666Y-58989204D01*
X188488333Y-58989204D01*
X188588333Y-58951109D01*
X188655000Y-58874919D01*
X188688333Y-58798728D01*
X188721666Y-58646347D01*
X188721666Y-58532061D01*
X188688333Y-58379680D01*
X188655000Y-58303490D01*
X188588333Y-58227300D01*
X188488333Y-58189204D01*
X188421666Y-58189204D01*
X188321666Y-58227300D01*
X188288333Y-58265395D01*
X187588333Y-58913014D02*
X187621666Y-58951109D01*
X187721666Y-58989204D01*
X187788333Y-58989204D01*
X187888333Y-58951109D01*
X187955000Y-58874919D01*
X187988333Y-58798728D01*
X188021666Y-58646347D01*
X188021666Y-58532061D01*
X187988333Y-58379680D01*
X187955000Y-58303490D01*
X187888333Y-58227300D01*
X187788333Y-58189204D01*
X187721666Y-58189204D01*
X187621666Y-58227300D01*
X187588333Y-58265395D01*
X188921666Y-55687300D02*
X188988333Y-55649204D01*
X189088333Y-55649204D01*
X189188333Y-55687300D01*
X189255000Y-55763490D01*
X189288333Y-55839680D01*
X189321666Y-55992061D01*
X189321666Y-56106347D01*
X189288333Y-56258728D01*
X189255000Y-56334919D01*
X189188333Y-56411109D01*
X189088333Y-56449204D01*
X189021666Y-56449204D01*
X188921666Y-56411109D01*
X188888333Y-56373014D01*
X188888333Y-56106347D01*
X189021666Y-56106347D01*
X188588333Y-56449204D02*
X188588333Y-55649204D01*
X188188333Y-56449204D01*
X188188333Y-55649204D01*
X187855000Y-56449204D02*
X187855000Y-55649204D01*
X187688333Y-55649204D01*
X187588333Y-55687300D01*
X187521666Y-55763490D01*
X187488333Y-55839680D01*
X187455000Y-55992061D01*
X187455000Y-56106347D01*
X187488333Y-56258728D01*
X187521666Y-56334919D01*
X187588333Y-56411109D01*
X187688333Y-56449204D01*
X187855000Y-56449204D01*
X289340625Y-58720154D02*
X289340625Y-57920154D01*
X289173958Y-57920154D01*
X289073958Y-57958250D01*
X289007291Y-58034440D01*
X288973958Y-58110630D01*
X288940625Y-58263011D01*
X288940625Y-58377297D01*
X288973958Y-58529678D01*
X289007291Y-58605869D01*
X289073958Y-58682059D01*
X289173958Y-58720154D01*
X289340625Y-58720154D01*
X288273958Y-58720154D02*
X288673958Y-58720154D01*
X288473958Y-58720154D02*
X288473958Y-57920154D01*
X288540625Y-58034440D01*
X288607291Y-58110630D01*
X288673958Y-58148726D01*
X288007291Y-57996345D02*
X287973958Y-57958250D01*
X287907291Y-57920154D01*
X287740625Y-57920154D01*
X287673958Y-57958250D01*
X287640625Y-57996345D01*
X287607291Y-58072535D01*
X287607291Y-58148726D01*
X287640625Y-58263011D01*
X288040625Y-58720154D01*
X287607291Y-58720154D01*
X313140625Y-100616154D02*
X313140625Y-99816154D01*
X312973958Y-99816154D01*
X312873958Y-99854250D01*
X312807291Y-99930440D01*
X312773958Y-100006630D01*
X312740625Y-100159011D01*
X312740625Y-100273297D01*
X312773958Y-100425678D01*
X312807291Y-100501869D01*
X312873958Y-100578059D01*
X312973958Y-100616154D01*
X313140625Y-100616154D01*
X312107291Y-99816154D02*
X312440625Y-99816154D01*
X312473958Y-100197107D01*
X312440625Y-100159011D01*
X312373958Y-100120916D01*
X312207291Y-100120916D01*
X312140625Y-100159011D01*
X312107291Y-100197107D01*
X312073958Y-100273297D01*
X312073958Y-100463773D01*
X312107291Y-100539964D01*
X312140625Y-100578059D01*
X312207291Y-100616154D01*
X312373958Y-100616154D01*
X312440625Y-100578059D01*
X312473958Y-100539964D01*
X311807291Y-99892345D02*
X311773958Y-99854250D01*
X311707291Y-99816154D01*
X311540625Y-99816154D01*
X311473958Y-99854250D01*
X311440625Y-99892345D01*
X311407291Y-99968535D01*
X311407291Y-100044726D01*
X311440625Y-100159011D01*
X311840625Y-100616154D01*
X311407291Y-100616154D01*
X313140625Y-62566154D02*
X313140625Y-61766154D01*
X312973958Y-61766154D01*
X312873958Y-61804250D01*
X312807291Y-61880440D01*
X312773958Y-61956630D01*
X312740625Y-62109011D01*
X312740625Y-62223297D01*
X312773958Y-62375678D01*
X312807291Y-62451869D01*
X312873958Y-62528059D01*
X312973958Y-62566154D01*
X313140625Y-62566154D01*
X312107291Y-61766154D02*
X312440625Y-61766154D01*
X312473958Y-62147107D01*
X312440625Y-62109011D01*
X312373958Y-62070916D01*
X312207291Y-62070916D01*
X312140625Y-62109011D01*
X312107291Y-62147107D01*
X312073958Y-62223297D01*
X312073958Y-62413773D01*
X312107291Y-62489964D01*
X312140625Y-62528059D01*
X312207291Y-62566154D01*
X312373958Y-62566154D01*
X312440625Y-62528059D01*
X312473958Y-62489964D01*
X311640625Y-61766154D02*
X311573958Y-61766154D01*
X311507291Y-61804250D01*
X311473958Y-61842345D01*
X311440625Y-61918535D01*
X311407291Y-62070916D01*
X311407291Y-62261392D01*
X311440625Y-62413773D01*
X311473958Y-62489964D01*
X311507291Y-62528059D01*
X311573958Y-62566154D01*
X311640625Y-62566154D01*
X311707291Y-62528059D01*
X311740625Y-62489964D01*
X311773958Y-62413773D01*
X311807291Y-62261392D01*
X311807291Y-62070916D01*
X311773958Y-61918535D01*
X311740625Y-61842345D01*
X311707291Y-61804250D01*
X311640625Y-61766154D01*
X313140625Y-96720154D02*
X313140625Y-95920154D01*
X312973958Y-95920154D01*
X312873958Y-95958250D01*
X312807291Y-96034440D01*
X312773958Y-96110630D01*
X312740625Y-96263011D01*
X312740625Y-96377297D01*
X312773958Y-96529678D01*
X312807291Y-96605869D01*
X312873958Y-96682059D01*
X312973958Y-96720154D01*
X313140625Y-96720154D01*
X312107291Y-95920154D02*
X312440625Y-95920154D01*
X312473958Y-96301107D01*
X312440625Y-96263011D01*
X312373958Y-96224916D01*
X312207291Y-96224916D01*
X312140625Y-96263011D01*
X312107291Y-96301107D01*
X312073958Y-96377297D01*
X312073958Y-96567773D01*
X312107291Y-96643964D01*
X312140625Y-96682059D01*
X312207291Y-96720154D01*
X312373958Y-96720154D01*
X312440625Y-96682059D01*
X312473958Y-96643964D01*
X311407291Y-96720154D02*
X311807291Y-96720154D01*
X311607291Y-96720154D02*
X311607291Y-95920154D01*
X311673958Y-96034440D01*
X311740625Y-96110630D01*
X311807291Y-96148726D01*
X116404119Y-51735097D02*
X116304119Y-51773192D01*
X116137452Y-51773192D01*
X116070786Y-51735097D01*
X116037452Y-51697002D01*
X116004119Y-51620811D01*
X116004119Y-51544621D01*
X116037452Y-51468430D01*
X116070786Y-51430335D01*
X116137452Y-51392240D01*
X116270786Y-51354145D01*
X116337452Y-51316049D01*
X116370786Y-51277954D01*
X116404119Y-51201764D01*
X116404119Y-51125573D01*
X116370786Y-51049383D01*
X116337452Y-51011288D01*
X116270786Y-50973192D01*
X116104119Y-50973192D01*
X116004119Y-51011288D01*
X115770786Y-50973192D02*
X115604119Y-51773192D01*
X115470786Y-51201764D01*
X115337452Y-51773192D01*
X115170786Y-50973192D01*
X114537452Y-51773192D02*
X114937452Y-51773192D01*
X114737452Y-51773192D02*
X114737452Y-50973192D01*
X114804119Y-51087478D01*
X114870786Y-51163668D01*
X114937452Y-51201764D01*
X118357291Y-80369083D02*
X118023958Y-80369083D01*
X118423958Y-80597654D02*
X118190625Y-79797654D01*
X117957291Y-80597654D01*
X117823958Y-79797654D02*
X117423958Y-79797654D01*
X117623958Y-80597654D02*
X117623958Y-79797654D01*
X117190625Y-80597654D02*
X117190625Y-79797654D01*
X116957291Y-80369083D01*
X116723958Y-79797654D01*
X116723958Y-80597654D01*
X116390625Y-80178607D02*
X116157291Y-80178607D01*
X116057291Y-80597654D02*
X116390625Y-80597654D01*
X116390625Y-79797654D01*
X116057291Y-79797654D01*
X115390625Y-79835750D02*
X115457291Y-79797654D01*
X115557291Y-79797654D01*
X115657291Y-79835750D01*
X115723958Y-79911940D01*
X115757291Y-79988130D01*
X115790625Y-80140511D01*
X115790625Y-80254797D01*
X115757291Y-80407178D01*
X115723958Y-80483369D01*
X115657291Y-80559559D01*
X115557291Y-80597654D01*
X115490625Y-80597654D01*
X115390625Y-80559559D01*
X115357291Y-80521464D01*
X115357291Y-80254797D01*
X115490625Y-80254797D01*
X115090625Y-80369083D02*
X114757291Y-80369083D01*
X115157291Y-80597654D02*
X114923958Y-79797654D01*
X114690625Y-80597654D01*
X114523958Y-79797654D02*
X114090625Y-79797654D01*
X114323958Y-80102416D01*
X114223958Y-80102416D01*
X114157291Y-80140511D01*
X114123958Y-80178607D01*
X114090625Y-80254797D01*
X114090625Y-80445273D01*
X114123958Y-80521464D01*
X114157291Y-80559559D01*
X114223958Y-80597654D01*
X114423958Y-80597654D01*
X114490625Y-80559559D01*
X114523958Y-80521464D01*
X113823958Y-79873845D02*
X113790625Y-79835750D01*
X113723958Y-79797654D01*
X113557291Y-79797654D01*
X113490625Y-79835750D01*
X113457291Y-79873845D01*
X113423958Y-79950035D01*
X113423958Y-80026226D01*
X113457291Y-80140511D01*
X113857291Y-80597654D01*
X113423958Y-80597654D01*
X113123958Y-79797654D02*
X113123958Y-80445273D01*
X113090625Y-80521464D01*
X113057291Y-80559559D01*
X112990625Y-80597654D01*
X112857291Y-80597654D01*
X112790625Y-80559559D01*
X112757291Y-80521464D01*
X112723958Y-80445273D01*
X112723958Y-79797654D01*
X112090625Y-80064321D02*
X112090625Y-80597654D01*
X112257291Y-79759559D02*
X112423958Y-80330988D01*
X111990625Y-80330988D01*
X109307291Y-71941964D02*
X109340625Y-71980059D01*
X109440625Y-72018154D01*
X109507291Y-72018154D01*
X109607291Y-71980059D01*
X109673958Y-71903869D01*
X109707291Y-71827678D01*
X109740625Y-71675297D01*
X109740625Y-71561011D01*
X109707291Y-71408630D01*
X109673958Y-71332440D01*
X109607291Y-71256250D01*
X109507291Y-71218154D01*
X109440625Y-71218154D01*
X109340625Y-71256250D01*
X109307291Y-71294345D01*
X109073958Y-71218154D02*
X108640625Y-71218154D01*
X108873958Y-71522916D01*
X108773958Y-71522916D01*
X108707291Y-71561011D01*
X108673958Y-71599107D01*
X108640625Y-71675297D01*
X108640625Y-71865773D01*
X108673958Y-71941964D01*
X108707291Y-71980059D01*
X108773958Y-72018154D01*
X108973958Y-72018154D01*
X109040625Y-71980059D01*
X109073958Y-71941964D01*
X107740625Y-69741964D02*
X107707291Y-69780059D01*
X107740625Y-69818154D01*
X107773958Y-69780059D01*
X107740625Y-69741964D01*
X107740625Y-69818154D01*
X107040625Y-69818154D02*
X107440625Y-69818154D01*
X107240625Y-69818154D02*
X107240625Y-69018154D01*
X107307291Y-69132440D01*
X107373958Y-69208630D01*
X107440625Y-69246726D01*
X106440625Y-69284821D02*
X106440625Y-69818154D01*
X106740625Y-69284821D02*
X106740625Y-69703869D01*
X106707291Y-69780059D01*
X106640625Y-69818154D01*
X106540625Y-69818154D01*
X106473958Y-69780059D01*
X106440625Y-69741964D01*
X105873958Y-69399107D02*
X106107291Y-69399107D01*
X106107291Y-69818154D02*
X106107291Y-69018154D01*
X105773958Y-69018154D01*
X122076339Y-63206250D02*
X122114434Y-63172916D01*
X122152529Y-63072916D01*
X122152529Y-63006250D01*
X122114434Y-62906250D01*
X122038244Y-62839583D01*
X121962053Y-62806250D01*
X121809672Y-62772916D01*
X121695386Y-62772916D01*
X121543005Y-62806250D01*
X121466815Y-62839583D01*
X121390625Y-62906250D01*
X121352529Y-63006250D01*
X121352529Y-63072916D01*
X121390625Y-63172916D01*
X121428720Y-63206250D01*
X121352529Y-63439583D02*
X122152529Y-63906250D01*
X121352529Y-63906250D02*
X122152529Y-63439583D01*
X121428720Y-64139583D02*
X121390625Y-64172916D01*
X121352529Y-64239583D01*
X121352529Y-64406250D01*
X121390625Y-64472916D01*
X121428720Y-64506250D01*
X121504910Y-64539583D01*
X121581101Y-64539583D01*
X121695386Y-64506250D01*
X122152529Y-64106250D01*
X122152529Y-64539583D01*
X121340625Y-60694345D02*
X121307291Y-60656250D01*
X121240625Y-60618154D01*
X121073958Y-60618154D01*
X121007291Y-60656250D01*
X120973958Y-60694345D01*
X120940625Y-60770535D01*
X120940625Y-60846726D01*
X120973958Y-60961011D01*
X121373958Y-61418154D01*
X120940625Y-61418154D01*
X120673958Y-60694345D02*
X120640625Y-60656250D01*
X120573958Y-60618154D01*
X120407291Y-60618154D01*
X120340625Y-60656250D01*
X120307291Y-60694345D01*
X120273958Y-60770535D01*
X120273958Y-60846726D01*
X120307291Y-60961011D01*
X120707291Y-61418154D01*
X120273958Y-61418154D01*
X119973958Y-60884821D02*
X119973958Y-61684821D01*
X119973958Y-60922916D02*
X119907291Y-60884821D01*
X119773958Y-60884821D01*
X119707291Y-60922916D01*
X119673958Y-60961011D01*
X119640625Y-61037202D01*
X119640625Y-61265773D01*
X119673958Y-61341964D01*
X119707291Y-61380059D01*
X119773958Y-61418154D01*
X119907291Y-61418154D01*
X119973958Y-61380059D01*
X119107291Y-60999107D02*
X119340625Y-60999107D01*
X119340625Y-61418154D02*
X119340625Y-60618154D01*
X119007291Y-60618154D01*
X111776339Y-63206250D02*
X111814434Y-63172916D01*
X111852529Y-63072916D01*
X111852529Y-63006250D01*
X111814434Y-62906250D01*
X111738244Y-62839583D01*
X111662053Y-62806250D01*
X111509672Y-62772916D01*
X111395386Y-62772916D01*
X111243005Y-62806250D01*
X111166815Y-62839583D01*
X111090625Y-62906250D01*
X111052529Y-63006250D01*
X111052529Y-63072916D01*
X111090625Y-63172916D01*
X111128720Y-63206250D01*
X111052529Y-63439583D02*
X111852529Y-63906250D01*
X111052529Y-63906250D02*
X111852529Y-63439583D01*
X111852529Y-64539583D02*
X111852529Y-64139583D01*
X111852529Y-64339583D02*
X111052529Y-64339583D01*
X111166815Y-64272916D01*
X111243005Y-64206250D01*
X111281101Y-64139583D01*
X111040625Y-60694345D02*
X111007291Y-60656250D01*
X110940625Y-60618154D01*
X110773958Y-60618154D01*
X110707291Y-60656250D01*
X110673958Y-60694345D01*
X110640625Y-60770535D01*
X110640625Y-60846726D01*
X110673958Y-60961011D01*
X111073958Y-61418154D01*
X110640625Y-61418154D01*
X110373958Y-60694345D02*
X110340625Y-60656250D01*
X110273958Y-60618154D01*
X110107291Y-60618154D01*
X110040625Y-60656250D01*
X110007291Y-60694345D01*
X109973958Y-60770535D01*
X109973958Y-60846726D01*
X110007291Y-60961011D01*
X110407291Y-61418154D01*
X109973958Y-61418154D01*
X109673958Y-60884821D02*
X109673958Y-61684821D01*
X109673958Y-60922916D02*
X109607291Y-60884821D01*
X109473958Y-60884821D01*
X109407291Y-60922916D01*
X109373958Y-60961011D01*
X109340625Y-61037202D01*
X109340625Y-61265773D01*
X109373958Y-61341964D01*
X109407291Y-61380059D01*
X109473958Y-61418154D01*
X109607291Y-61418154D01*
X109673958Y-61380059D01*
X108807291Y-60999107D02*
X109040625Y-60999107D01*
X109040625Y-61418154D02*
X109040625Y-60618154D01*
X108707291Y-60618154D01*
X117212858Y-68207079D02*
X117482232Y-68476453D01*
X117081538Y-67745776D02*
X117212858Y-68207079D01*
X116751555Y-68075759D01*
X116892976Y-69065708D02*
X117175819Y-68782865D01*
X117034398Y-68924287D02*
X116468712Y-68358601D01*
X116596665Y-68392273D01*
X116697680Y-68399008D01*
X116771758Y-68378804D01*
X91911958Y-62268107D02*
X92145291Y-62268107D01*
X92145291Y-62687154D02*
X92145291Y-61887154D01*
X91811958Y-61887154D01*
X91178625Y-62687154D02*
X91578625Y-62687154D01*
X91378625Y-62687154D02*
X91378625Y-61887154D01*
X91445291Y-62001440D01*
X91511958Y-62077630D01*
X91578625Y-62115726D01*
X92323958Y-57601964D02*
X92290625Y-57640059D01*
X92323958Y-57678154D01*
X92357291Y-57640059D01*
X92323958Y-57601964D01*
X92323958Y-57678154D01*
X91657291Y-56878154D02*
X91990625Y-56878154D01*
X92023958Y-57259107D01*
X91990625Y-57221011D01*
X91923958Y-57182916D01*
X91757291Y-57182916D01*
X91690625Y-57221011D01*
X91657291Y-57259107D01*
X91623958Y-57335297D01*
X91623958Y-57525773D01*
X91657291Y-57601964D01*
X91690625Y-57640059D01*
X91757291Y-57678154D01*
X91923958Y-57678154D01*
X91990625Y-57640059D01*
X92023958Y-57601964D01*
X91357291Y-57449583D02*
X91023958Y-57449583D01*
X91423958Y-57678154D02*
X91190625Y-56878154D01*
X90957291Y-57678154D01*
X100310458Y-44115219D02*
X99910458Y-44115219D01*
X100110458Y-44915219D02*
X100110458Y-44115219D01*
X99543791Y-44534267D02*
X99543791Y-44915219D01*
X99777125Y-44115219D02*
X99543791Y-44534267D01*
X99310458Y-44115219D01*
X99077125Y-44915219D02*
X99077125Y-44115219D01*
X98810458Y-44115219D01*
X98743791Y-44153315D01*
X98710458Y-44191410D01*
X98677125Y-44267600D01*
X98677125Y-44381886D01*
X98710458Y-44458076D01*
X98743791Y-44496172D01*
X98810458Y-44534267D01*
X99077125Y-44534267D01*
X98377125Y-44496172D02*
X98143791Y-44496172D01*
X98043791Y-44915219D02*
X98377125Y-44915219D01*
X98377125Y-44115219D01*
X98043791Y-44115219D01*
X97743791Y-44610457D02*
X97210458Y-44610457D01*
X96477125Y-44839029D02*
X96510458Y-44877124D01*
X96610458Y-44915219D01*
X96677125Y-44915219D01*
X96777125Y-44877124D01*
X96843791Y-44800934D01*
X96877125Y-44724743D01*
X96910458Y-44572362D01*
X96910458Y-44458076D01*
X96877125Y-44305695D01*
X96843791Y-44229505D01*
X96777125Y-44153315D01*
X96677125Y-44115219D01*
X96610458Y-44115219D01*
X96510458Y-44153315D01*
X96477125Y-44191410D01*
X96177125Y-44610457D02*
X95643791Y-44610457D01*
X95310458Y-44915219D02*
X95310458Y-44115219D01*
X95077125Y-44686648D01*
X94843791Y-44115219D01*
X94843791Y-44915219D01*
X94510458Y-44610457D02*
X93977125Y-44610457D01*
X93277125Y-44915219D02*
X93677125Y-44915219D01*
X93477125Y-44915219D02*
X93477125Y-44115219D01*
X93543791Y-44229505D01*
X93610458Y-44305695D01*
X93677125Y-44343791D01*
X93010458Y-44191410D02*
X92977125Y-44153315D01*
X92910458Y-44115219D01*
X92743791Y-44115219D01*
X92677125Y-44153315D01*
X92643791Y-44191410D01*
X92610458Y-44267600D01*
X92610458Y-44343791D01*
X92643791Y-44458076D01*
X93043791Y-44915219D01*
X92610458Y-44915219D01*
X97502292Y-60496088D02*
X97735626Y-60115136D01*
X97902292Y-60496088D02*
X97902292Y-59696088D01*
X97635626Y-59696088D01*
X97568959Y-59734184D01*
X97535626Y-59772279D01*
X97502292Y-59848469D01*
X97502292Y-59962755D01*
X97535626Y-60038945D01*
X97568959Y-60077041D01*
X97635626Y-60115136D01*
X97902292Y-60115136D01*
X97268959Y-59696088D02*
X96835626Y-59696088D01*
X97068959Y-60000850D01*
X96968959Y-60000850D01*
X96902292Y-60038945D01*
X96868959Y-60077041D01*
X96835626Y-60153231D01*
X96835626Y-60343707D01*
X96868959Y-60419898D01*
X96902292Y-60457993D01*
X96968959Y-60496088D01*
X97168959Y-60496088D01*
X97235626Y-60457993D01*
X97268959Y-60419898D01*
X97923958Y-54731279D02*
X97890625Y-54693184D01*
X97823958Y-54655088D01*
X97657291Y-54655088D01*
X97590625Y-54693184D01*
X97557291Y-54731279D01*
X97523958Y-54807469D01*
X97523958Y-54883660D01*
X97557291Y-54997945D01*
X97957291Y-55455088D01*
X97523958Y-55455088D01*
X97257291Y-54731279D02*
X97223958Y-54693184D01*
X97157291Y-54655088D01*
X96990625Y-54655088D01*
X96923958Y-54693184D01*
X96890625Y-54731279D01*
X96857291Y-54807469D01*
X96857291Y-54883660D01*
X96890625Y-54997945D01*
X97290625Y-55455088D01*
X96857291Y-55455088D01*
X85602529Y-47233333D02*
X85221577Y-47000000D01*
X85602529Y-46833333D02*
X84802529Y-46833333D01*
X84802529Y-47100000D01*
X84840625Y-47166666D01*
X84878720Y-47200000D01*
X84954910Y-47233333D01*
X85069196Y-47233333D01*
X85145386Y-47200000D01*
X85183482Y-47166666D01*
X85221577Y-47100000D01*
X85221577Y-46833333D01*
X85526339Y-47933333D02*
X85564434Y-47900000D01*
X85602529Y-47800000D01*
X85602529Y-47733333D01*
X85564434Y-47633333D01*
X85488244Y-47566666D01*
X85412053Y-47533333D01*
X85259672Y-47500000D01*
X85145386Y-47500000D01*
X84993005Y-47533333D01*
X84916815Y-47566666D01*
X84840625Y-47633333D01*
X84802529Y-47733333D01*
X84802529Y-47800000D01*
X84840625Y-47900000D01*
X84878720Y-47933333D01*
X85526339Y-48633333D02*
X85564434Y-48600000D01*
X85602529Y-48500000D01*
X85602529Y-48433333D01*
X85564434Y-48333333D01*
X85488244Y-48266666D01*
X85412053Y-48233333D01*
X85259672Y-48200000D01*
X85145386Y-48200000D01*
X84993005Y-48233333D01*
X84916815Y-48266666D01*
X84840625Y-48333333D01*
X84802529Y-48433333D01*
X84802529Y-48500000D01*
X84840625Y-48600000D01*
X84878720Y-48633333D01*
X85602529Y-49300000D02*
X85602529Y-48900000D01*
X85602529Y-49100000D02*
X84802529Y-49100000D01*
X84916815Y-49033333D01*
X84993005Y-48966666D01*
X85031101Y-48900000D01*
X87307291Y-45136902D02*
X87640625Y-45136902D01*
X87673958Y-45517855D01*
X87640625Y-45479759D01*
X87573958Y-45441664D01*
X87407291Y-45441664D01*
X87340625Y-45479759D01*
X87307291Y-45517855D01*
X87273958Y-45594045D01*
X87273958Y-45784521D01*
X87307291Y-45860712D01*
X87340625Y-45898807D01*
X87407291Y-45936902D01*
X87573958Y-45936902D01*
X87640625Y-45898807D01*
X87673958Y-45860712D01*
X86973958Y-45860712D02*
X86940625Y-45898807D01*
X86973958Y-45936902D01*
X87007291Y-45898807D01*
X86973958Y-45860712D01*
X86973958Y-45936902D01*
X86273958Y-45936902D02*
X86673958Y-45936902D01*
X86473958Y-45936902D02*
X86473958Y-45136902D01*
X86540625Y-45251188D01*
X86607291Y-45327378D01*
X86673958Y-45365474D01*
X85973958Y-45936902D02*
X85973958Y-45136902D01*
X85907291Y-45632140D02*
X85707291Y-45936902D01*
X85707291Y-45403569D02*
X85973958Y-45708331D01*
X89204291Y-62730154D02*
X89437625Y-62349202D01*
X89604291Y-62730154D02*
X89604291Y-61930154D01*
X89337625Y-61930154D01*
X89270958Y-61968250D01*
X89237625Y-62006345D01*
X89204291Y-62082535D01*
X89204291Y-62196821D01*
X89237625Y-62273011D01*
X89270958Y-62311107D01*
X89337625Y-62349202D01*
X89604291Y-62349202D01*
X88604291Y-62196821D02*
X88604291Y-62730154D01*
X88770958Y-61892059D02*
X88937625Y-62463488D01*
X88504291Y-62463488D01*
X89173958Y-57780154D02*
X89573958Y-57780154D01*
X89373958Y-57780154D02*
X89373958Y-56980154D01*
X89440625Y-57094440D01*
X89507291Y-57170630D01*
X89573958Y-57208726D01*
X88873958Y-57780154D02*
X88873958Y-56980154D01*
X88807291Y-57475392D02*
X88607291Y-57780154D01*
X88607291Y-57246821D02*
X88873958Y-57551583D01*
X87173958Y-62761904D02*
X87507291Y-62761904D01*
X87507291Y-61961904D01*
X86940625Y-62342857D02*
X86707291Y-62342857D01*
X86607291Y-62761904D02*
X86940625Y-62761904D01*
X86940625Y-61961904D01*
X86607291Y-61961904D01*
X86307291Y-62761904D02*
X86307291Y-61961904D01*
X86140625Y-61961904D01*
X86040625Y-62000000D01*
X85973958Y-62076190D01*
X85940625Y-62152380D01*
X85907291Y-62304761D01*
X85907291Y-62419047D01*
X85940625Y-62571428D01*
X85973958Y-62647619D01*
X86040625Y-62723809D01*
X86140625Y-62761904D01*
X86307291Y-62761904D01*
X85240625Y-62761904D02*
X85640625Y-62761904D01*
X85440625Y-62761904D02*
X85440625Y-61961904D01*
X85507291Y-62076190D01*
X85573958Y-62152380D01*
X85640625Y-62190476D01*
X136940625Y-100609281D02*
X136940625Y-99809281D01*
X136773958Y-99809281D01*
X136673958Y-99847377D01*
X136607291Y-99923567D01*
X136573958Y-99999757D01*
X136540625Y-100152138D01*
X136540625Y-100266424D01*
X136573958Y-100418805D01*
X136607291Y-100494996D01*
X136673958Y-100571186D01*
X136773958Y-100609281D01*
X136940625Y-100609281D01*
X135940625Y-100075948D02*
X135940625Y-100609281D01*
X136107291Y-99771186D02*
X136273958Y-100342615D01*
X135840625Y-100342615D01*
X135440625Y-99809281D02*
X135373958Y-99809281D01*
X135307291Y-99847377D01*
X135273958Y-99885472D01*
X135240625Y-99961662D01*
X135207291Y-100114043D01*
X135207291Y-100304519D01*
X135240625Y-100456900D01*
X135273958Y-100533091D01*
X135307291Y-100571186D01*
X135373958Y-100609281D01*
X135440625Y-100609281D01*
X135507291Y-100571186D01*
X135540625Y-100533091D01*
X135573958Y-100456900D01*
X135607291Y-100304519D01*
X135607291Y-100114043D01*
X135573958Y-99961662D01*
X135540625Y-99885472D01*
X135507291Y-99847377D01*
X135440625Y-99809281D01*
X133840625Y-100616154D02*
X133840625Y-99816154D01*
X133673958Y-99816154D01*
X133573958Y-99854250D01*
X133507291Y-99930440D01*
X133473958Y-100006630D01*
X133440625Y-100159011D01*
X133440625Y-100273297D01*
X133473958Y-100425678D01*
X133507291Y-100501869D01*
X133573958Y-100578059D01*
X133673958Y-100616154D01*
X133840625Y-100616154D01*
X133207291Y-99816154D02*
X132773958Y-99816154D01*
X133007291Y-100120916D01*
X132907291Y-100120916D01*
X132840625Y-100159011D01*
X132807291Y-100197107D01*
X132773958Y-100273297D01*
X132773958Y-100463773D01*
X132807291Y-100539964D01*
X132840625Y-100578059D01*
X132907291Y-100616154D01*
X133107291Y-100616154D01*
X133173958Y-100578059D01*
X133207291Y-100539964D01*
X132440625Y-100616154D02*
X132307291Y-100616154D01*
X132240625Y-100578059D01*
X132207291Y-100539964D01*
X132140625Y-100425678D01*
X132107291Y-100273297D01*
X132107291Y-99968535D01*
X132140625Y-99892345D01*
X132173958Y-99854250D01*
X132240625Y-99816154D01*
X132373958Y-99816154D01*
X132440625Y-99854250D01*
X132473958Y-99892345D01*
X132507291Y-99968535D01*
X132507291Y-100159011D01*
X132473958Y-100235202D01*
X132440625Y-100273297D01*
X132373958Y-100311392D01*
X132240625Y-100311392D01*
X132173958Y-100273297D01*
X132140625Y-100235202D01*
X132107291Y-100159011D01*
X125707291Y-78441964D02*
X125740625Y-78480059D01*
X125840625Y-78518154D01*
X125907291Y-78518154D01*
X126007291Y-78480059D01*
X126073958Y-78403869D01*
X126107291Y-78327678D01*
X126140625Y-78175297D01*
X126140625Y-78061011D01*
X126107291Y-77908630D01*
X126073958Y-77832440D01*
X126007291Y-77756250D01*
X125907291Y-77718154D01*
X125840625Y-77718154D01*
X125740625Y-77756250D01*
X125707291Y-77794345D01*
X125440625Y-77794345D02*
X125407291Y-77756250D01*
X125340625Y-77718154D01*
X125173958Y-77718154D01*
X125107291Y-77756250D01*
X125073958Y-77794345D01*
X125040625Y-77870535D01*
X125040625Y-77946726D01*
X125073958Y-78061011D01*
X125473958Y-78518154D01*
X125040625Y-78518154D01*
X129640625Y-76841964D02*
X129607291Y-76880059D01*
X129640625Y-76918154D01*
X129673958Y-76880059D01*
X129640625Y-76841964D01*
X129640625Y-76918154D01*
X128940625Y-76918154D02*
X129340625Y-76918154D01*
X129140625Y-76918154D02*
X129140625Y-76118154D01*
X129207291Y-76232440D01*
X129273958Y-76308630D01*
X129340625Y-76346726D01*
X128340625Y-76384821D02*
X128340625Y-76918154D01*
X128640625Y-76384821D02*
X128640625Y-76803869D01*
X128607291Y-76880059D01*
X128540625Y-76918154D01*
X128440625Y-76918154D01*
X128373958Y-76880059D01*
X128340625Y-76841964D01*
X127773958Y-76499107D02*
X128007291Y-76499107D01*
X128007291Y-76918154D02*
X128007291Y-76118154D01*
X127673958Y-76118154D01*
X95511291Y-60480090D02*
X95744625Y-60099138D01*
X95911291Y-60480090D02*
X95911291Y-59680090D01*
X95644625Y-59680090D01*
X95577958Y-59718186D01*
X95544625Y-59756281D01*
X95511291Y-59832471D01*
X95511291Y-59946757D01*
X95544625Y-60022947D01*
X95577958Y-60061043D01*
X95644625Y-60099138D01*
X95911291Y-60099138D01*
X95244625Y-59756281D02*
X95211291Y-59718186D01*
X95144625Y-59680090D01*
X94977958Y-59680090D01*
X94911291Y-59718186D01*
X94877958Y-59756281D01*
X94844625Y-59832471D01*
X94844625Y-59908662D01*
X94877958Y-60022947D01*
X95277958Y-60480090D01*
X94844625Y-60480090D01*
X95923958Y-54740281D02*
X95890625Y-54702186D01*
X95823958Y-54664090D01*
X95657291Y-54664090D01*
X95590625Y-54702186D01*
X95557291Y-54740281D01*
X95523958Y-54816471D01*
X95523958Y-54892662D01*
X95557291Y-55006947D01*
X95957291Y-55464090D01*
X95523958Y-55464090D01*
X95257291Y-54740281D02*
X95223958Y-54702186D01*
X95157291Y-54664090D01*
X94990625Y-54664090D01*
X94923958Y-54702186D01*
X94890625Y-54740281D01*
X94857291Y-54816471D01*
X94857291Y-54892662D01*
X94890625Y-55006947D01*
X95290625Y-55464090D01*
X94857291Y-55464090D01*
X103707291Y-83141964D02*
X103740625Y-83180059D01*
X103840625Y-83218154D01*
X103907291Y-83218154D01*
X104007291Y-83180059D01*
X104073958Y-83103869D01*
X104107291Y-83027678D01*
X104140625Y-82875297D01*
X104140625Y-82761011D01*
X104107291Y-82608630D01*
X104073958Y-82532440D01*
X104007291Y-82456250D01*
X103907291Y-82418154D01*
X103840625Y-82418154D01*
X103740625Y-82456250D01*
X103707291Y-82494345D01*
X103073958Y-82418154D02*
X103407291Y-82418154D01*
X103440625Y-82799107D01*
X103407291Y-82761011D01*
X103340625Y-82722916D01*
X103173958Y-82722916D01*
X103107291Y-82761011D01*
X103073958Y-82799107D01*
X103040625Y-82875297D01*
X103040625Y-83065773D01*
X103073958Y-83141964D01*
X103107291Y-83180059D01*
X103173958Y-83218154D01*
X103340625Y-83218154D01*
X103407291Y-83180059D01*
X103440625Y-83141964D01*
X101140625Y-84718154D02*
X101540625Y-84718154D01*
X101340625Y-84718154D02*
X101340625Y-83918154D01*
X101407291Y-84032440D01*
X101473958Y-84108630D01*
X101540625Y-84146726D01*
X100707291Y-83918154D02*
X100640625Y-83918154D01*
X100573958Y-83956250D01*
X100540625Y-83994345D01*
X100507291Y-84070535D01*
X100473958Y-84222916D01*
X100473958Y-84413392D01*
X100507291Y-84565773D01*
X100540625Y-84641964D01*
X100573958Y-84680059D01*
X100640625Y-84718154D01*
X100707291Y-84718154D01*
X100773958Y-84680059D01*
X100807291Y-84641964D01*
X100840625Y-84565773D01*
X100873958Y-84413392D01*
X100873958Y-84222916D01*
X100840625Y-84070535D01*
X100807291Y-83994345D01*
X100773958Y-83956250D01*
X100707291Y-83918154D01*
X99873958Y-84184821D02*
X99873958Y-84718154D01*
X100173958Y-84184821D02*
X100173958Y-84603869D01*
X100140625Y-84680059D01*
X100073958Y-84718154D01*
X99973958Y-84718154D01*
X99907291Y-84680059D01*
X99873958Y-84641964D01*
X99307291Y-84299107D02*
X99540625Y-84299107D01*
X99540625Y-84718154D02*
X99540625Y-83918154D01*
X99207291Y-83918154D01*
X103707291Y-78941964D02*
X103740625Y-78980059D01*
X103840625Y-79018154D01*
X103907291Y-79018154D01*
X104007291Y-78980059D01*
X104073958Y-78903869D01*
X104107291Y-78827678D01*
X104140625Y-78675297D01*
X104140625Y-78561011D01*
X104107291Y-78408630D01*
X104073958Y-78332440D01*
X104007291Y-78256250D01*
X103907291Y-78218154D01*
X103840625Y-78218154D01*
X103740625Y-78256250D01*
X103707291Y-78294345D01*
X103107291Y-78218154D02*
X103240625Y-78218154D01*
X103307291Y-78256250D01*
X103340625Y-78294345D01*
X103407291Y-78408630D01*
X103440625Y-78561011D01*
X103440625Y-78865773D01*
X103407291Y-78941964D01*
X103373958Y-78980059D01*
X103307291Y-79018154D01*
X103173958Y-79018154D01*
X103107291Y-78980059D01*
X103073958Y-78941964D01*
X103040625Y-78865773D01*
X103040625Y-78675297D01*
X103073958Y-78599107D01*
X103107291Y-78561011D01*
X103173958Y-78522916D01*
X103307291Y-78522916D01*
X103373958Y-78561011D01*
X103407291Y-78599107D01*
X103440625Y-78675297D01*
X101107291Y-80618154D02*
X101507291Y-80618154D01*
X101307291Y-80618154D02*
X101307291Y-79818154D01*
X101373958Y-79932440D01*
X101440625Y-80008630D01*
X101507291Y-80046726D01*
X100507291Y-80084821D02*
X100507291Y-80618154D01*
X100807291Y-80084821D02*
X100807291Y-80503869D01*
X100773958Y-80580059D01*
X100707291Y-80618154D01*
X100607291Y-80618154D01*
X100540625Y-80580059D01*
X100507291Y-80541964D01*
X99940625Y-80199107D02*
X100173958Y-80199107D01*
X100173958Y-80618154D02*
X100173958Y-79818154D01*
X99840625Y-79818154D01*
X125707291Y-82318154D02*
X125940625Y-81937202D01*
X126107291Y-82318154D02*
X126107291Y-81518154D01*
X125840625Y-81518154D01*
X125773958Y-81556250D01*
X125740625Y-81594345D01*
X125707291Y-81670535D01*
X125707291Y-81784821D01*
X125740625Y-81861011D01*
X125773958Y-81899107D01*
X125840625Y-81937202D01*
X126107291Y-81937202D01*
X125040625Y-82318154D02*
X125440625Y-82318154D01*
X125240625Y-82318154D02*
X125240625Y-81518154D01*
X125307291Y-81632440D01*
X125373958Y-81708630D01*
X125440625Y-81746726D01*
X128907291Y-83818154D02*
X129307291Y-83818154D01*
X129107291Y-83818154D02*
X129107291Y-83018154D01*
X129173958Y-83132440D01*
X129240625Y-83208630D01*
X129307291Y-83246726D01*
X128473958Y-83018154D02*
X128407291Y-83018154D01*
X128340625Y-83056250D01*
X128307291Y-83094345D01*
X128273958Y-83170535D01*
X128240625Y-83322916D01*
X128240625Y-83513392D01*
X128273958Y-83665773D01*
X128307291Y-83741964D01*
X128340625Y-83780059D01*
X128407291Y-83818154D01*
X128473958Y-83818154D01*
X128540625Y-83780059D01*
X128573958Y-83741964D01*
X128607291Y-83665773D01*
X128640625Y-83513392D01*
X128640625Y-83322916D01*
X128607291Y-83170535D01*
X128573958Y-83094345D01*
X128540625Y-83056250D01*
X128473958Y-83018154D01*
X127940625Y-83818154D02*
X127940625Y-83018154D01*
X127873958Y-83513392D02*
X127673958Y-83818154D01*
X127673958Y-83284821D02*
X127940625Y-83589583D01*
X83940625Y-62516154D02*
X83940625Y-61716154D01*
X83773958Y-61716154D01*
X83673958Y-61754250D01*
X83607291Y-61830440D01*
X83573958Y-61906630D01*
X83540625Y-62059011D01*
X83540625Y-62173297D01*
X83573958Y-62325678D01*
X83607291Y-62401869D01*
X83673958Y-62478059D01*
X83773958Y-62516154D01*
X83940625Y-62516154D01*
X82873958Y-62516154D02*
X83273958Y-62516154D01*
X83073958Y-62516154D02*
X83073958Y-61716154D01*
X83140625Y-61830440D01*
X83207291Y-61906630D01*
X83273958Y-61944726D01*
X82640625Y-61716154D02*
X82207291Y-61716154D01*
X82440625Y-62020916D01*
X82340625Y-62020916D01*
X82273958Y-62059011D01*
X82240625Y-62097107D01*
X82207291Y-62173297D01*
X82207291Y-62363773D01*
X82240625Y-62439964D01*
X82273958Y-62478059D01*
X82340625Y-62516154D01*
X82540625Y-62516154D01*
X82607291Y-62478059D01*
X82640625Y-62439964D01*
X95740625Y-100616154D02*
X95740625Y-99816154D01*
X95573958Y-99816154D01*
X95473958Y-99854250D01*
X95407291Y-99930440D01*
X95373958Y-100006630D01*
X95340625Y-100159011D01*
X95340625Y-100273297D01*
X95373958Y-100425678D01*
X95407291Y-100501869D01*
X95473958Y-100578059D01*
X95573958Y-100616154D01*
X95740625Y-100616154D01*
X95107291Y-99816154D02*
X94673958Y-99816154D01*
X94907291Y-100120916D01*
X94807291Y-100120916D01*
X94740625Y-100159011D01*
X94707291Y-100197107D01*
X94673958Y-100273297D01*
X94673958Y-100463773D01*
X94707291Y-100539964D01*
X94740625Y-100578059D01*
X94807291Y-100616154D01*
X95007291Y-100616154D01*
X95073958Y-100578059D01*
X95107291Y-100539964D01*
X94440625Y-99816154D02*
X93973958Y-99816154D01*
X94273958Y-100616154D01*
X98840625Y-100616154D02*
X98840625Y-99816154D01*
X98673958Y-99816154D01*
X98573958Y-99854250D01*
X98507291Y-99930440D01*
X98473958Y-100006630D01*
X98440625Y-100159011D01*
X98440625Y-100273297D01*
X98473958Y-100425678D01*
X98507291Y-100501869D01*
X98573958Y-100578059D01*
X98673958Y-100616154D01*
X98840625Y-100616154D01*
X98207291Y-99816154D02*
X97773958Y-99816154D01*
X98007291Y-100120916D01*
X97907291Y-100120916D01*
X97840625Y-100159011D01*
X97807291Y-100197107D01*
X97773958Y-100273297D01*
X97773958Y-100463773D01*
X97807291Y-100539964D01*
X97840625Y-100578059D01*
X97907291Y-100616154D01*
X98107291Y-100616154D01*
X98173958Y-100578059D01*
X98207291Y-100539964D01*
X97373958Y-100159011D02*
X97440625Y-100120916D01*
X97473958Y-100082821D01*
X97507291Y-100006630D01*
X97507291Y-99968535D01*
X97473958Y-99892345D01*
X97440625Y-99854250D01*
X97373958Y-99816154D01*
X97240625Y-99816154D01*
X97173958Y-99854250D01*
X97140625Y-99892345D01*
X97107291Y-99968535D01*
X97107291Y-100006630D01*
X97140625Y-100082821D01*
X97173958Y-100120916D01*
X97240625Y-100159011D01*
X97373958Y-100159011D01*
X97440625Y-100197107D01*
X97473958Y-100235202D01*
X97507291Y-100311392D01*
X97507291Y-100463773D01*
X97473958Y-100539964D01*
X97440625Y-100578059D01*
X97373958Y-100616154D01*
X97240625Y-100616154D01*
X97173958Y-100578059D01*
X97140625Y-100539964D01*
X97107291Y-100463773D01*
X97107291Y-100311392D01*
X97140625Y-100235202D01*
X97173958Y-100197107D01*
X97240625Y-100159011D01*
X171940625Y-100616154D02*
X171940625Y-99816154D01*
X171773958Y-99816154D01*
X171673958Y-99854250D01*
X171607291Y-99930440D01*
X171573958Y-100006630D01*
X171540625Y-100159011D01*
X171540625Y-100273297D01*
X171573958Y-100425678D01*
X171607291Y-100501869D01*
X171673958Y-100578059D01*
X171773958Y-100616154D01*
X171940625Y-100616154D01*
X170940625Y-100082821D02*
X170940625Y-100616154D01*
X171107291Y-99778059D02*
X171273958Y-100349488D01*
X170840625Y-100349488D01*
X170207291Y-100616154D02*
X170607291Y-100616154D01*
X170407291Y-100616154D02*
X170407291Y-99816154D01*
X170473958Y-99930440D01*
X170540625Y-100006630D01*
X170607291Y-100044726D01*
X136940625Y-96720154D02*
X136940625Y-95920154D01*
X136773958Y-95920154D01*
X136673958Y-95958250D01*
X136607291Y-96034440D01*
X136573958Y-96110630D01*
X136540625Y-96263011D01*
X136540625Y-96377297D01*
X136573958Y-96529678D01*
X136607291Y-96605869D01*
X136673958Y-96682059D01*
X136773958Y-96720154D01*
X136940625Y-96720154D01*
X136273958Y-95996345D02*
X136240625Y-95958250D01*
X136173958Y-95920154D01*
X136007291Y-95920154D01*
X135940625Y-95958250D01*
X135907291Y-95996345D01*
X135873958Y-96072535D01*
X135873958Y-96148726D01*
X135907291Y-96263011D01*
X136307291Y-96720154D01*
X135873958Y-96720154D01*
X135473958Y-96263011D02*
X135540625Y-96224916D01*
X135573958Y-96186821D01*
X135607291Y-96110630D01*
X135607291Y-96072535D01*
X135573958Y-95996345D01*
X135540625Y-95958250D01*
X135473958Y-95920154D01*
X135340625Y-95920154D01*
X135273958Y-95958250D01*
X135240625Y-95996345D01*
X135207291Y-96072535D01*
X135207291Y-96110630D01*
X135240625Y-96186821D01*
X135273958Y-96224916D01*
X135340625Y-96263011D01*
X135473958Y-96263011D01*
X135540625Y-96301107D01*
X135573958Y-96339202D01*
X135607291Y-96415392D01*
X135607291Y-96567773D01*
X135573958Y-96643964D01*
X135540625Y-96682059D01*
X135473958Y-96720154D01*
X135340625Y-96720154D01*
X135273958Y-96682059D01*
X135240625Y-96643964D01*
X135207291Y-96567773D01*
X135207291Y-96415392D01*
X135240625Y-96339202D01*
X135273958Y-96301107D01*
X135340625Y-96263011D01*
X175000000Y-96720154D02*
X175000000Y-95920154D01*
X174833333Y-95920154D01*
X174733333Y-95958250D01*
X174666666Y-96034440D01*
X174633333Y-96110630D01*
X174600000Y-96263011D01*
X174600000Y-96377297D01*
X174633333Y-96529678D01*
X174666666Y-96605869D01*
X174733333Y-96682059D01*
X174833333Y-96720154D01*
X175000000Y-96720154D01*
X174366666Y-95920154D02*
X173933333Y-95920154D01*
X174166666Y-96224916D01*
X174066666Y-96224916D01*
X174000000Y-96263011D01*
X173966666Y-96301107D01*
X173933333Y-96377297D01*
X173933333Y-96567773D01*
X173966666Y-96643964D01*
X174000000Y-96682059D01*
X174066666Y-96720154D01*
X174266666Y-96720154D01*
X174333333Y-96682059D01*
X174366666Y-96643964D01*
X173500000Y-95920154D02*
X173433333Y-95920154D01*
X173366666Y-95958250D01*
X173333333Y-95996345D01*
X173300000Y-96072535D01*
X173266666Y-96224916D01*
X173266666Y-96415392D01*
X173300000Y-96567773D01*
X173333333Y-96643964D01*
X173366666Y-96682059D01*
X173433333Y-96720154D01*
X173500000Y-96720154D01*
X173566666Y-96682059D01*
X173600000Y-96643964D01*
X173633333Y-96567773D01*
X173666666Y-96415392D01*
X173666666Y-96224916D01*
X173633333Y-96072535D01*
X173600000Y-95996345D01*
X173566666Y-95958250D01*
X173500000Y-95920154D01*
X289340625Y-96720154D02*
X289340625Y-95920154D01*
X289173958Y-95920154D01*
X289073958Y-95958250D01*
X289007291Y-96034440D01*
X288973958Y-96110630D01*
X288940625Y-96263011D01*
X288940625Y-96377297D01*
X288973958Y-96529678D01*
X289007291Y-96605869D01*
X289073958Y-96682059D01*
X289173958Y-96720154D01*
X289340625Y-96720154D01*
X288707291Y-95920154D02*
X288273958Y-95920154D01*
X288507291Y-96224916D01*
X288407291Y-96224916D01*
X288340625Y-96263011D01*
X288307291Y-96301107D01*
X288273958Y-96377297D01*
X288273958Y-96567773D01*
X288307291Y-96643964D01*
X288340625Y-96682059D01*
X288407291Y-96720154D01*
X288607291Y-96720154D01*
X288673958Y-96682059D01*
X288707291Y-96643964D01*
X287673958Y-95920154D02*
X287807291Y-95920154D01*
X287873958Y-95958250D01*
X287907291Y-95996345D01*
X287973958Y-96110630D01*
X288007291Y-96263011D01*
X288007291Y-96567773D01*
X287973958Y-96643964D01*
X287940625Y-96682059D01*
X287873958Y-96720154D01*
X287740625Y-96720154D01*
X287673958Y-96682059D01*
X287640625Y-96643964D01*
X287607291Y-96567773D01*
X287607291Y-96377297D01*
X287640625Y-96301107D01*
X287673958Y-96263011D01*
X287740625Y-96224916D01*
X287873958Y-96224916D01*
X287940625Y-96263011D01*
X287973958Y-96301107D01*
X288007291Y-96377297D01*
X95740625Y-96720154D02*
X95740625Y-95920154D01*
X95573958Y-95920154D01*
X95473958Y-95958250D01*
X95407291Y-96034440D01*
X95373958Y-96110630D01*
X95340625Y-96263011D01*
X95340625Y-96377297D01*
X95373958Y-96529678D01*
X95407291Y-96605869D01*
X95473958Y-96682059D01*
X95573958Y-96720154D01*
X95740625Y-96720154D01*
X95073958Y-95996345D02*
X95040625Y-95958250D01*
X94973958Y-95920154D01*
X94807291Y-95920154D01*
X94740625Y-95958250D01*
X94707291Y-95996345D01*
X94673958Y-96072535D01*
X94673958Y-96148726D01*
X94707291Y-96263011D01*
X95107291Y-96720154D01*
X94673958Y-96720154D01*
X94040625Y-95920154D02*
X94373958Y-95920154D01*
X94407291Y-96301107D01*
X94373958Y-96263011D01*
X94307291Y-96224916D01*
X94140625Y-96224916D01*
X94073958Y-96263011D01*
X94040625Y-96301107D01*
X94007291Y-96377297D01*
X94007291Y-96567773D01*
X94040625Y-96643964D01*
X94073958Y-96682059D01*
X94140625Y-96720154D01*
X94307291Y-96720154D01*
X94373958Y-96682059D01*
X94407291Y-96643964D01*
X136607291Y-58720154D02*
X136607291Y-57920154D01*
X136440625Y-57920154D01*
X136340625Y-57958250D01*
X136273958Y-58034440D01*
X136240625Y-58110630D01*
X136207291Y-58263011D01*
X136207291Y-58377297D01*
X136240625Y-58529678D01*
X136273958Y-58605869D01*
X136340625Y-58682059D01*
X136440625Y-58720154D01*
X136607291Y-58720154D01*
X135940625Y-57996345D02*
X135907291Y-57958250D01*
X135840625Y-57920154D01*
X135673958Y-57920154D01*
X135607291Y-57958250D01*
X135573958Y-57996345D01*
X135540625Y-58072535D01*
X135540625Y-58148726D01*
X135573958Y-58263011D01*
X135973958Y-58720154D01*
X135540625Y-58720154D01*
X312840625Y-58720154D02*
X312840625Y-57920154D01*
X312673958Y-57920154D01*
X312573958Y-57958250D01*
X312507291Y-58034440D01*
X312473958Y-58110630D01*
X312440625Y-58263011D01*
X312440625Y-58377297D01*
X312473958Y-58529678D01*
X312507291Y-58605869D01*
X312573958Y-58682059D01*
X312673958Y-58720154D01*
X312840625Y-58720154D01*
X311840625Y-58186821D02*
X311840625Y-58720154D01*
X312007291Y-57882059D02*
X312173958Y-58453488D01*
X311740625Y-58453488D01*
X311440625Y-58720154D02*
X311307291Y-58720154D01*
X311240625Y-58682059D01*
X311207291Y-58643964D01*
X311140625Y-58529678D01*
X311107291Y-58377297D01*
X311107291Y-58072535D01*
X311140625Y-57996345D01*
X311173958Y-57958250D01*
X311240625Y-57920154D01*
X311373958Y-57920154D01*
X311440625Y-57958250D01*
X311473958Y-57996345D01*
X311507291Y-58072535D01*
X311507291Y-58263011D01*
X311473958Y-58339202D01*
X311440625Y-58377297D01*
X311373958Y-58415392D01*
X311240625Y-58415392D01*
X311173958Y-58377297D01*
X311140625Y-58339202D01*
X311107291Y-58263011D01*
X247807291Y-58720154D02*
X247807291Y-57920154D01*
X247640625Y-57920154D01*
X247540625Y-57958250D01*
X247473958Y-58034440D01*
X247440625Y-58110630D01*
X247407291Y-58263011D01*
X247407291Y-58377297D01*
X247440625Y-58529678D01*
X247473958Y-58605869D01*
X247540625Y-58682059D01*
X247640625Y-58720154D01*
X247807291Y-58720154D01*
X247073958Y-58720154D02*
X246940625Y-58720154D01*
X246873958Y-58682059D01*
X246840625Y-58643964D01*
X246773958Y-58529678D01*
X246740625Y-58377297D01*
X246740625Y-58072535D01*
X246773958Y-57996345D01*
X246807291Y-57958250D01*
X246873958Y-57920154D01*
X247007291Y-57920154D01*
X247073958Y-57958250D01*
X247107291Y-57996345D01*
X247140625Y-58072535D01*
X247140625Y-58263011D01*
X247107291Y-58339202D01*
X247073958Y-58377297D01*
X247007291Y-58415392D01*
X246873958Y-58415392D01*
X246807291Y-58377297D01*
X246773958Y-58339202D01*
X246740625Y-58263011D01*
X133516501Y-58713854D02*
X133516501Y-57913854D01*
X133349835Y-57913854D01*
X133249835Y-57951950D01*
X133183168Y-58028140D01*
X133149835Y-58104330D01*
X133116501Y-58256711D01*
X133116501Y-58370997D01*
X133149835Y-58523378D01*
X133183168Y-58599569D01*
X133249835Y-58675759D01*
X133349835Y-58713854D01*
X133516501Y-58713854D01*
X132449835Y-58713854D02*
X132849835Y-58713854D01*
X132649835Y-58713854D02*
X132649835Y-57913854D01*
X132716501Y-58028140D01*
X132783168Y-58104330D01*
X132849835Y-58142426D01*
X105752529Y-62806250D02*
X105371577Y-62572916D01*
X105752529Y-62406250D02*
X104952529Y-62406250D01*
X104952529Y-62672916D01*
X104990625Y-62739583D01*
X105028720Y-62772916D01*
X105104910Y-62806250D01*
X105219196Y-62806250D01*
X105295386Y-62772916D01*
X105333482Y-62739583D01*
X105371577Y-62672916D01*
X105371577Y-62406250D01*
X105714434Y-63072916D02*
X105752529Y-63172916D01*
X105752529Y-63339583D01*
X105714434Y-63406250D01*
X105676339Y-63439583D01*
X105600148Y-63472916D01*
X105523958Y-63472916D01*
X105447767Y-63439583D01*
X105409672Y-63406250D01*
X105371577Y-63339583D01*
X105333482Y-63206250D01*
X105295386Y-63139583D01*
X105257291Y-63106250D01*
X105181101Y-63072916D01*
X105104910Y-63072916D01*
X105028720Y-63106250D01*
X104990625Y-63139583D01*
X104952529Y-63206250D01*
X104952529Y-63372916D01*
X104990625Y-63472916D01*
X104952529Y-63706250D02*
X105752529Y-63872916D01*
X105181101Y-64006250D01*
X105752529Y-64139583D01*
X104952529Y-64306250D01*
X105752529Y-64939583D02*
X105752529Y-64539583D01*
X105752529Y-64739583D02*
X104952529Y-64739583D01*
X105066815Y-64672916D01*
X105143005Y-64606250D01*
X105181101Y-64539583D01*
X107507291Y-61418154D02*
X107907291Y-61418154D01*
X107707291Y-61418154D02*
X107707291Y-60618154D01*
X107773958Y-60732440D01*
X107840625Y-60808630D01*
X107907291Y-60846726D01*
X107073958Y-60618154D02*
X107007291Y-60618154D01*
X106940625Y-60656250D01*
X106907291Y-60694345D01*
X106873958Y-60770535D01*
X106840625Y-60922916D01*
X106840625Y-61113392D01*
X106873958Y-61265773D01*
X106907291Y-61341964D01*
X106940625Y-61380059D01*
X107007291Y-61418154D01*
X107073958Y-61418154D01*
X107140625Y-61380059D01*
X107173958Y-61341964D01*
X107207291Y-61265773D01*
X107240625Y-61113392D01*
X107240625Y-60922916D01*
X107207291Y-60770535D01*
X107173958Y-60694345D01*
X107140625Y-60656250D01*
X107073958Y-60618154D01*
X106540625Y-61418154D02*
X106540625Y-60618154D01*
X106473958Y-61113392D02*
X106273958Y-61418154D01*
X106273958Y-60884821D02*
X106540625Y-61189583D01*
X251240625Y-62566154D02*
X251240625Y-61766154D01*
X251073958Y-61766154D01*
X250973958Y-61804250D01*
X250907291Y-61880440D01*
X250873958Y-61956630D01*
X250840625Y-62109011D01*
X250840625Y-62223297D01*
X250873958Y-62375678D01*
X250907291Y-62451869D01*
X250973958Y-62528059D01*
X251073958Y-62566154D01*
X251240625Y-62566154D01*
X250573958Y-61842345D02*
X250540625Y-61804250D01*
X250473958Y-61766154D01*
X250307291Y-61766154D01*
X250240625Y-61804250D01*
X250207291Y-61842345D01*
X250173958Y-61918535D01*
X250173958Y-61994726D01*
X250207291Y-62109011D01*
X250607291Y-62566154D01*
X250173958Y-62566154D01*
X249907291Y-61842345D02*
X249873958Y-61804250D01*
X249807291Y-61766154D01*
X249640625Y-61766154D01*
X249573958Y-61804250D01*
X249540625Y-61842345D01*
X249507291Y-61918535D01*
X249507291Y-61994726D01*
X249540625Y-62109011D01*
X249940625Y-62566154D01*
X249507291Y-62566154D01*
X248140625Y-62566154D02*
X248140625Y-61766154D01*
X247973958Y-61766154D01*
X247873958Y-61804250D01*
X247807291Y-61880440D01*
X247773958Y-61956630D01*
X247740625Y-62109011D01*
X247740625Y-62223297D01*
X247773958Y-62375678D01*
X247807291Y-62451869D01*
X247873958Y-62528059D01*
X247973958Y-62566154D01*
X248140625Y-62566154D01*
X247473958Y-61842345D02*
X247440625Y-61804250D01*
X247373958Y-61766154D01*
X247207291Y-61766154D01*
X247140625Y-61804250D01*
X247107291Y-61842345D01*
X247073958Y-61918535D01*
X247073958Y-61994726D01*
X247107291Y-62109011D01*
X247507291Y-62566154D01*
X247073958Y-62566154D01*
X246407291Y-62566154D02*
X246807291Y-62566154D01*
X246607291Y-62566154D02*
X246607291Y-61766154D01*
X246673958Y-61880440D01*
X246740625Y-61956630D01*
X246807291Y-61994726D01*
X175040625Y-62566154D02*
X175040625Y-61766154D01*
X174873958Y-61766154D01*
X174773958Y-61804250D01*
X174707291Y-61880440D01*
X174673958Y-61956630D01*
X174640625Y-62109011D01*
X174640625Y-62223297D01*
X174673958Y-62375678D01*
X174707291Y-62451869D01*
X174773958Y-62528059D01*
X174873958Y-62566154D01*
X175040625Y-62566154D01*
X173973958Y-62566154D02*
X174373958Y-62566154D01*
X174173958Y-62566154D02*
X174173958Y-61766154D01*
X174240625Y-61880440D01*
X174307291Y-61956630D01*
X174373958Y-61994726D01*
X173573958Y-62109011D02*
X173640625Y-62070916D01*
X173673958Y-62032821D01*
X173707291Y-61956630D01*
X173707291Y-61918535D01*
X173673958Y-61842345D01*
X173640625Y-61804250D01*
X173573958Y-61766154D01*
X173440625Y-61766154D01*
X173373958Y-61804250D01*
X173340625Y-61842345D01*
X173307291Y-61918535D01*
X173307291Y-61956630D01*
X173340625Y-62032821D01*
X173373958Y-62070916D01*
X173440625Y-62109011D01*
X173573958Y-62109011D01*
X173640625Y-62147107D01*
X173673958Y-62185202D01*
X173707291Y-62261392D01*
X173707291Y-62413773D01*
X173673958Y-62489964D01*
X173640625Y-62528059D01*
X173573958Y-62566154D01*
X173440625Y-62566154D01*
X173373958Y-62528059D01*
X173340625Y-62489964D01*
X173307291Y-62413773D01*
X173307291Y-62261392D01*
X173340625Y-62185202D01*
X173373958Y-62147107D01*
X173440625Y-62109011D01*
X133790625Y-62566154D02*
X133790625Y-61766154D01*
X133623958Y-61766154D01*
X133523958Y-61804250D01*
X133457291Y-61880440D01*
X133423958Y-61956630D01*
X133390625Y-62109011D01*
X133390625Y-62223297D01*
X133423958Y-62375678D01*
X133457291Y-62451869D01*
X133523958Y-62528059D01*
X133623958Y-62566154D01*
X133790625Y-62566154D01*
X132723958Y-62566154D02*
X133123958Y-62566154D01*
X132923958Y-62566154D02*
X132923958Y-61766154D01*
X132990625Y-61880440D01*
X133057291Y-61956630D01*
X133123958Y-61994726D01*
X132090625Y-61766154D02*
X132423958Y-61766154D01*
X132457291Y-62147107D01*
X132423958Y-62109011D01*
X132357291Y-62070916D01*
X132190625Y-62070916D01*
X132123958Y-62109011D01*
X132090625Y-62147107D01*
X132057291Y-62223297D01*
X132057291Y-62413773D01*
X132090625Y-62489964D01*
X132123958Y-62528059D01*
X132190625Y-62566154D01*
X132357291Y-62566154D01*
X132423958Y-62528059D01*
X132457291Y-62489964D01*
X103652529Y-47239583D02*
X103271577Y-47006250D01*
X103652529Y-46839583D02*
X102852529Y-46839583D01*
X102852529Y-47106250D01*
X102890625Y-47172916D01*
X102928720Y-47206250D01*
X103004910Y-47239583D01*
X103119196Y-47239583D01*
X103195386Y-47206250D01*
X103233482Y-47172916D01*
X103271577Y-47106250D01*
X103271577Y-46839583D01*
X103576339Y-47939583D02*
X103614434Y-47906250D01*
X103652529Y-47806250D01*
X103652529Y-47739583D01*
X103614434Y-47639583D01*
X103538244Y-47572916D01*
X103462053Y-47539583D01*
X103309672Y-47506250D01*
X103195386Y-47506250D01*
X103043005Y-47539583D01*
X102966815Y-47572916D01*
X102890625Y-47639583D01*
X102852529Y-47739583D01*
X102852529Y-47806250D01*
X102890625Y-47906250D01*
X102928720Y-47939583D01*
X103576339Y-48639583D02*
X103614434Y-48606250D01*
X103652529Y-48506250D01*
X103652529Y-48439583D01*
X103614434Y-48339583D01*
X103538244Y-48272916D01*
X103462053Y-48239583D01*
X103309672Y-48206250D01*
X103195386Y-48206250D01*
X103043005Y-48239583D01*
X102966815Y-48272916D01*
X102890625Y-48339583D01*
X102852529Y-48439583D01*
X102852529Y-48506250D01*
X102890625Y-48606250D01*
X102928720Y-48639583D01*
X102928720Y-48906250D02*
X102890625Y-48939583D01*
X102852529Y-49006250D01*
X102852529Y-49172916D01*
X102890625Y-49239583D01*
X102928720Y-49272916D01*
X103004910Y-49306250D01*
X103081101Y-49306250D01*
X103195386Y-49272916D01*
X103652529Y-48872916D01*
X103652529Y-49306250D01*
X105378292Y-45143152D02*
X105711626Y-45143152D01*
X105744959Y-45524105D01*
X105711626Y-45486009D01*
X105644959Y-45447914D01*
X105478292Y-45447914D01*
X105411626Y-45486009D01*
X105378292Y-45524105D01*
X105344959Y-45600295D01*
X105344959Y-45790771D01*
X105378292Y-45866962D01*
X105411626Y-45905057D01*
X105478292Y-45943152D01*
X105644959Y-45943152D01*
X105711626Y-45905057D01*
X105744959Y-45866962D01*
X105044959Y-45866962D02*
X105011626Y-45905057D01*
X105044959Y-45943152D01*
X105078292Y-45905057D01*
X105044959Y-45866962D01*
X105044959Y-45943152D01*
X104344959Y-45943152D02*
X104744959Y-45943152D01*
X104544959Y-45943152D02*
X104544959Y-45143152D01*
X104611626Y-45257438D01*
X104678292Y-45333628D01*
X104744959Y-45371724D01*
X104044959Y-45943152D02*
X104044959Y-45143152D01*
X103978292Y-45638390D02*
X103778292Y-45943152D01*
X103778292Y-45409819D02*
X104044959Y-45714581D01*
X94007291Y-51708852D02*
X94573958Y-51708852D01*
X94640625Y-51742186D01*
X94673958Y-51775519D01*
X94707291Y-51842186D01*
X94707291Y-51975519D01*
X94673958Y-52042186D01*
X94640625Y-52075519D01*
X94573958Y-52108852D01*
X94007291Y-52108852D01*
X94073958Y-52408852D02*
X94040625Y-52442186D01*
X94007291Y-52508852D01*
X94007291Y-52675519D01*
X94040625Y-52742186D01*
X94073958Y-52775519D01*
X94140625Y-52808852D01*
X94207291Y-52808852D01*
X94307291Y-52775519D01*
X94707291Y-52375519D01*
X94707291Y-52808852D01*
X98440625Y-51408852D02*
X98440625Y-51642186D01*
X98807291Y-51742186D02*
X98807291Y-51408852D01*
X98107291Y-51408852D01*
X98107291Y-51742186D01*
X98773958Y-52008852D02*
X98807291Y-52108852D01*
X98807291Y-52275519D01*
X98773958Y-52342186D01*
X98740625Y-52375519D01*
X98673958Y-52408852D01*
X98607291Y-52408852D01*
X98540625Y-52375519D01*
X98507291Y-52342186D01*
X98473958Y-52275519D01*
X98440625Y-52142186D01*
X98407291Y-52075519D01*
X98373958Y-52042186D01*
X98307291Y-52008852D01*
X98240625Y-52008852D01*
X98173958Y-52042186D01*
X98140625Y-52075519D01*
X98107291Y-52142186D01*
X98107291Y-52308852D01*
X98140625Y-52408852D01*
X98807291Y-52708852D02*
X98107291Y-52708852D01*
X98107291Y-52875519D01*
X98140625Y-52975519D01*
X98207291Y-53042186D01*
X98273958Y-53075519D01*
X98407291Y-53108852D01*
X98507291Y-53108852D01*
X98640625Y-53075519D01*
X98707291Y-53042186D01*
X98773958Y-52975519D01*
X98807291Y-52875519D01*
X98807291Y-52708852D01*
D12*
X326152725Y-47093950D02*
X326152725Y-51193950D01*
X314352725Y-55193950D02*
X314352725Y-59293950D01*
X318952725Y-47093950D02*
X321552725Y-47093950D01*
X314352725Y-59293950D02*
X326152725Y-59293950D01*
X316152725Y-60393950D02*
X316452725Y-60693950D01*
X314352725Y-51193950D02*
X314352725Y-47093950D01*
X323752725Y-47093950D02*
X326152725Y-47093950D01*
X314352725Y-47093950D02*
X316752725Y-47093950D01*
X326152725Y-55193950D02*
X326152725Y-59293950D01*
X316452725Y-60693950D02*
X316152725Y-60993950D01*
X316152725Y-60993950D02*
X316152725Y-60393950D01*
X323252725Y-53193950D02*
G75*
G03*
X323252725Y-53193950I-3000000J0D01*
G01*
X116980625Y-89894998D02*
X116980625Y-90417502D01*
X118400625Y-89894998D02*
X118400625Y-90417502D01*
D11*
X98390625Y-93956250D02*
X97590625Y-93956250D01*
X98890625Y-94956212D02*
X98890625Y-94456250D01*
X98390625Y-95456250D02*
X97590625Y-95456250D01*
X97090625Y-94456288D02*
X97090625Y-94956250D01*
X98390625Y-95456250D02*
G75*
G03*
X98890625Y-94956250I-1J500001D01*
G01*
X97090625Y-94956250D02*
G75*
G03*
X97590625Y-95456250I500001J1D01*
G01*
X98890625Y-94456250D02*
G75*
G03*
X98390625Y-93956250I-500001J-1D01*
G01*
X97590625Y-93956250D02*
G75*
G03*
X97090625Y-94456250I1J-500001D01*
G01*
D13*
X97990625Y-93742050D02*
X98590625Y-92942050D01*
X98590625Y-92942050D02*
X97390625Y-92942050D01*
X97390625Y-92942050D02*
X97990625Y-93742050D01*
G36*
X97990625Y-93742050D02*
G01*
X97390625Y-92942050D01*
X98590625Y-92942050D01*
X97990625Y-93742050D01*
G37*
X97990625Y-93742050D02*
X97390625Y-92942050D01*
X98590625Y-92942050D01*
X97990625Y-93742050D01*
D11*
X208790625Y-63106250D02*
X209590625Y-63106250D01*
X208290625Y-63606288D02*
X208290625Y-64106250D01*
X210090625Y-64106212D02*
X210090625Y-63606250D01*
X208790625Y-64606250D02*
X209590625Y-64606250D01*
X208290625Y-64106250D02*
G75*
G03*
X208790625Y-64606250I500001J1D01*
G01*
X208790625Y-63106250D02*
G75*
G03*
X208290625Y-63606250I1J-500001D01*
G01*
X210090625Y-63606250D02*
G75*
G03*
X209590625Y-63106250I-500001J-1D01*
G01*
X209590625Y-64606250D02*
G75*
G03*
X210090625Y-64106250I-1J500001D01*
G01*
D13*
X209190625Y-64820450D02*
X208590625Y-65620450D01*
X208590625Y-65620450D02*
X209790625Y-65620450D01*
X209790625Y-65620450D02*
X209190625Y-64820450D01*
G36*
X209790625Y-65620450D02*
G01*
X208590625Y-65620450D01*
X209190625Y-64820450D01*
X209790625Y-65620450D01*
G37*
X209790625Y-65620450D02*
X208590625Y-65620450D01*
X209190625Y-64820450D01*
X209790625Y-65620450D01*
D11*
X170190625Y-63606288D02*
X170190625Y-64106250D01*
X170690625Y-64606250D02*
X171490625Y-64606250D01*
X171990625Y-64106212D02*
X171990625Y-63606250D01*
X170690625Y-63106250D02*
X171490625Y-63106250D01*
X170690625Y-63106250D02*
G75*
G03*
X170190625Y-63606250I1J-500001D01*
G01*
X170190625Y-64106250D02*
G75*
G03*
X170690625Y-64606250I500001J1D01*
G01*
X171490625Y-64606250D02*
G75*
G03*
X171990625Y-64106250I-1J500001D01*
G01*
X171990625Y-63606250D02*
G75*
G03*
X171490625Y-63106250I-500001J-1D01*
G01*
D13*
X171090625Y-64820450D02*
X170490625Y-65620450D01*
X170490625Y-65620450D02*
X171690625Y-65620450D01*
X171690625Y-65620450D02*
X171090625Y-64820450D01*
G36*
X171690625Y-65620450D02*
G01*
X170490625Y-65620450D01*
X171090625Y-64820450D01*
X171690625Y-65620450D01*
G37*
X171690625Y-65620450D02*
X170490625Y-65620450D01*
X171090625Y-64820450D01*
X171690625Y-65620450D01*
D11*
X136990625Y-64106212D02*
X136990625Y-63606250D01*
X135690625Y-64606250D02*
X136490625Y-64606250D01*
X135690625Y-63106250D02*
X136490625Y-63106250D01*
X135190625Y-63606288D02*
X135190625Y-64106250D01*
X136490625Y-64606250D02*
G75*
G03*
X136990625Y-64106250I-1J500001D01*
G01*
X135190625Y-64106250D02*
G75*
G03*
X135690625Y-64606250I500001J1D01*
G01*
X136990625Y-63606250D02*
G75*
G03*
X136490625Y-63106250I-500001J-1D01*
G01*
X135690625Y-63106250D02*
G75*
G03*
X135190625Y-63606250I1J-500001D01*
G01*
D13*
X136090625Y-64820450D02*
X135490625Y-65620450D01*
X135490625Y-65620450D02*
X136690625Y-65620450D01*
X136690625Y-65620450D02*
X136090625Y-64820450D01*
G36*
X136690625Y-65620450D02*
G01*
X135490625Y-65620450D01*
X136090625Y-64820450D01*
X136690625Y-65620450D01*
G37*
X136690625Y-65620450D02*
X135490625Y-65620450D01*
X136090625Y-64820450D01*
X136690625Y-65620450D01*
D11*
X103040625Y-64106212D02*
X103040625Y-63606250D01*
X101740625Y-64606250D02*
X102540625Y-64606250D01*
X101740625Y-63106250D02*
X102540625Y-63106250D01*
X101240625Y-63606288D02*
X101240625Y-64106250D01*
X103040625Y-63606250D02*
G75*
G03*
X102540625Y-63106250I-500001J-1D01*
G01*
X101740625Y-63106250D02*
G75*
G03*
X101240625Y-63606250I1J-500001D01*
G01*
X102540625Y-64606250D02*
G75*
G03*
X103040625Y-64106250I-1J500001D01*
G01*
X101240625Y-64106250D02*
G75*
G03*
X101740625Y-64606250I500001J1D01*
G01*
D13*
X102140625Y-64820450D02*
X101540625Y-65620450D01*
X101540625Y-65620450D02*
X102740625Y-65620450D01*
X102740625Y-65620450D02*
X102140625Y-64820450D01*
G36*
X102740625Y-65620450D02*
G01*
X101540625Y-65620450D01*
X102140625Y-64820450D01*
X102740625Y-65620450D01*
G37*
X102740625Y-65620450D02*
X101540625Y-65620450D01*
X102140625Y-64820450D01*
X102740625Y-65620450D01*
D11*
X285790625Y-57456250D02*
X284990625Y-57456250D01*
X284490625Y-56456288D02*
X284490625Y-56956250D01*
X286290625Y-56956212D02*
X286290625Y-56456250D01*
X285790625Y-55956250D02*
X284990625Y-55956250D01*
X284490625Y-56956250D02*
G75*
G03*
X284990625Y-57456250I500001J1D01*
G01*
X286290625Y-56456250D02*
G75*
G03*
X285790625Y-55956250I-500001J-1D01*
G01*
X284990625Y-55956250D02*
G75*
G03*
X284490625Y-56456250I1J-500001D01*
G01*
X285790625Y-57456250D02*
G75*
G03*
X286290625Y-56956250I-1J500001D01*
G01*
D13*
X285390625Y-55742050D02*
X285990625Y-54942050D01*
X285990625Y-54942050D02*
X284790625Y-54942050D01*
X284790625Y-54942050D02*
X285390625Y-55742050D01*
G36*
X285390625Y-55742050D02*
G01*
X284790625Y-54942050D01*
X285990625Y-54942050D01*
X285390625Y-55742050D01*
G37*
X285390625Y-55742050D02*
X284790625Y-54942050D01*
X285990625Y-54942050D01*
X285390625Y-55742050D01*
D11*
X250790625Y-55956250D02*
X249990625Y-55956250D01*
X249490625Y-56456288D02*
X249490625Y-56956250D01*
X251290625Y-56956212D02*
X251290625Y-56456250D01*
X250790625Y-57456250D02*
X249990625Y-57456250D01*
X249990625Y-55956250D02*
G75*
G03*
X249490625Y-56456250I1J-500001D01*
G01*
X251290625Y-56456250D02*
G75*
G03*
X250790625Y-55956250I-500001J-1D01*
G01*
X250790625Y-57456250D02*
G75*
G03*
X251290625Y-56956250I-1J500001D01*
G01*
X249490625Y-56956250D02*
G75*
G03*
X249990625Y-57456250I500001J1D01*
G01*
D13*
X250390625Y-55742050D02*
X250990625Y-54942050D01*
X250990625Y-54942050D02*
X249790625Y-54942050D01*
X249790625Y-54942050D02*
X250390625Y-55742050D01*
G36*
X250390625Y-55742050D02*
G01*
X249790625Y-54942050D01*
X250990625Y-54942050D01*
X250390625Y-55742050D01*
G37*
X250390625Y-55742050D02*
X249790625Y-54942050D01*
X250990625Y-54942050D01*
X250390625Y-55742050D01*
D11*
X212690625Y-57456250D02*
X211890625Y-57456250D01*
X212690625Y-55956250D02*
X211890625Y-55956250D01*
X213190625Y-56956212D02*
X213190625Y-56456250D01*
X211390625Y-56456288D02*
X211390625Y-56956250D01*
X212690625Y-57456250D02*
G75*
G03*
X213190625Y-56956250I-1J500001D01*
G01*
X211890625Y-55956250D02*
G75*
G03*
X211390625Y-56456250I1J-500001D01*
G01*
X213190625Y-56456250D02*
G75*
G03*
X212690625Y-55956250I-500001J-1D01*
G01*
X211390625Y-56956250D02*
G75*
G03*
X211890625Y-57456250I500001J1D01*
G01*
D13*
X212290625Y-55742050D02*
X212890625Y-54942050D01*
X212890625Y-54942050D02*
X211690625Y-54942050D01*
X211690625Y-54942050D02*
X212290625Y-55742050D01*
G36*
X212290625Y-55742050D02*
G01*
X211690625Y-54942050D01*
X212890625Y-54942050D01*
X212290625Y-55742050D01*
G37*
X212290625Y-55742050D02*
X211690625Y-54942050D01*
X212890625Y-54942050D01*
X212290625Y-55742050D01*
D11*
X209590625Y-57456250D02*
X208790625Y-57456250D01*
X209590625Y-55956250D02*
X208790625Y-55956250D01*
X208290625Y-56456288D02*
X208290625Y-56956250D01*
X210090625Y-56956212D02*
X210090625Y-56456250D01*
X208290625Y-56956250D02*
G75*
G03*
X208790625Y-57456250I500001J1D01*
G01*
X208790625Y-55956250D02*
G75*
G03*
X208290625Y-56456250I1J-500001D01*
G01*
X210090625Y-56456250D02*
G75*
G03*
X209590625Y-55956250I-500001J-1D01*
G01*
X209590625Y-57456250D02*
G75*
G03*
X210090625Y-56956250I-1J500001D01*
G01*
D13*
X209190625Y-55742050D02*
X209790625Y-54942050D01*
X209790625Y-54942050D02*
X208590625Y-54942050D01*
X208590625Y-54942050D02*
X209190625Y-55742050D01*
G36*
X209190625Y-55742050D02*
G01*
X208590625Y-54942050D01*
X209790625Y-54942050D01*
X209190625Y-55742050D01*
G37*
X209190625Y-55742050D02*
X208590625Y-54942050D01*
X209790625Y-54942050D01*
X209190625Y-55742050D01*
D11*
X174560999Y-55983377D02*
X173760999Y-55983377D01*
X173260999Y-56483415D02*
X173260999Y-56983377D01*
X174560999Y-57483377D02*
X173760999Y-57483377D01*
X175060999Y-56983339D02*
X175060999Y-56483377D01*
X173760999Y-55983377D02*
G75*
G03*
X173260999Y-56483377I1J-500001D01*
G01*
X175060999Y-56483377D02*
G75*
G03*
X174560999Y-55983377I-500001J-1D01*
G01*
X174560999Y-57483377D02*
G75*
G03*
X175060999Y-56983377I-1J500001D01*
G01*
X173260999Y-56983377D02*
G75*
G03*
X173760999Y-57483377I500001J1D01*
G01*
D13*
X174160999Y-55769177D02*
X174760999Y-54969177D01*
X174760999Y-54969177D02*
X173560999Y-54969177D01*
X173560999Y-54969177D02*
X174160999Y-55769177D01*
G36*
X174160999Y-55769177D02*
G01*
X173560999Y-54969177D01*
X174760999Y-54969177D01*
X174160999Y-55769177D01*
G37*
X174160999Y-55769177D02*
X173560999Y-54969177D01*
X174760999Y-54969177D01*
X174160999Y-55769177D01*
D11*
X171385999Y-57483377D02*
X170585999Y-57483377D01*
X171885999Y-56983339D02*
X171885999Y-56483377D01*
X171385999Y-55983377D02*
X170585999Y-55983377D01*
X170085999Y-56483415D02*
X170085999Y-56983377D01*
X170085999Y-56983377D02*
G75*
G03*
X170585999Y-57483377I500001J1D01*
G01*
X171885999Y-56483377D02*
G75*
G03*
X171385999Y-55983377I-500001J-1D01*
G01*
X171385999Y-57483377D02*
G75*
G03*
X171885999Y-56983377I-1J500001D01*
G01*
X170585999Y-55983377D02*
G75*
G03*
X170085999Y-56483377I1J-500001D01*
G01*
D13*
X170985999Y-55769177D02*
X171585999Y-54969177D01*
X171585999Y-54969177D02*
X170385999Y-54969177D01*
X170385999Y-54969177D02*
X170985999Y-55769177D01*
G36*
X170985999Y-55769177D02*
G01*
X170385999Y-54969177D01*
X171585999Y-54969177D01*
X170985999Y-55769177D01*
G37*
X170985999Y-55769177D02*
X170385999Y-54969177D01*
X171585999Y-54969177D01*
X170985999Y-55769177D01*
D11*
X154360999Y-56456288D02*
X154360999Y-56956250D01*
X156160999Y-56956212D02*
X156160999Y-56456250D01*
X155660999Y-55956250D02*
X154860999Y-55956250D01*
X155660999Y-57456250D02*
X154860999Y-57456250D01*
X156160999Y-56456250D02*
G75*
G03*
X155660999Y-55956250I-500001J-1D01*
G01*
X155660999Y-57456250D02*
G75*
G03*
X156160999Y-56956250I-1J500001D01*
G01*
X154860999Y-55956250D02*
G75*
G03*
X154360999Y-56456250I1J-500001D01*
G01*
X154360999Y-56956250D02*
G75*
G03*
X154860999Y-57456250I500001J1D01*
G01*
D13*
X155260999Y-55742050D02*
X155860999Y-54942050D01*
X155860999Y-54942050D02*
X154660999Y-54942050D01*
X154660999Y-54942050D02*
X155260999Y-55742050D01*
G36*
X155260999Y-55742050D02*
G01*
X154660999Y-54942050D01*
X155860999Y-54942050D01*
X155260999Y-55742050D01*
G37*
X155260999Y-55742050D02*
X154660999Y-54942050D01*
X155860999Y-54942050D01*
X155260999Y-55742050D01*
D11*
X288090625Y-102656250D02*
X288890625Y-102656250D01*
X288090625Y-101156250D02*
X288890625Y-101156250D01*
X287590625Y-101656288D02*
X287590625Y-102156250D01*
X289390625Y-102156212D02*
X289390625Y-101656250D01*
X288090625Y-101156250D02*
G75*
G03*
X287590625Y-101656250I1J-500001D01*
G01*
X287590625Y-102156250D02*
G75*
G03*
X288090625Y-102656250I500001J1D01*
G01*
X288890625Y-102656250D02*
G75*
G03*
X289390625Y-102156250I-1J500001D01*
G01*
X289390625Y-101656250D02*
G75*
G03*
X288890625Y-101156250I-500001J-1D01*
G01*
D13*
X288490625Y-102870450D02*
X287890625Y-103670450D01*
X287890625Y-103670450D02*
X289090625Y-103670450D01*
X289090625Y-103670450D02*
X288490625Y-102870450D01*
G36*
X289090625Y-103670450D02*
G01*
X287890625Y-103670450D01*
X288490625Y-102870450D01*
X289090625Y-103670450D01*
G37*
X289090625Y-103670450D02*
X287890625Y-103670450D01*
X288490625Y-102870450D01*
X289090625Y-103670450D01*
D11*
X286290625Y-102156212D02*
X286290625Y-101656250D01*
X284990625Y-102656250D02*
X285790625Y-102656250D01*
X284490625Y-101656288D02*
X284490625Y-102156250D01*
X284990625Y-101156250D02*
X285790625Y-101156250D01*
X284990625Y-101156250D02*
G75*
G03*
X284490625Y-101656250I1J-500001D01*
G01*
X284490625Y-102156250D02*
G75*
G03*
X284990625Y-102656250I500001J1D01*
G01*
X285790625Y-102656250D02*
G75*
G03*
X286290625Y-102156250I-1J500001D01*
G01*
X286290625Y-101656250D02*
G75*
G03*
X285790625Y-101156250I-500001J-1D01*
G01*
D13*
X285390625Y-102870450D02*
X284790625Y-103670450D01*
X284790625Y-103670450D02*
X285990625Y-103670450D01*
X285990625Y-103670450D02*
X285390625Y-102870450D01*
G36*
X285990625Y-103670450D02*
G01*
X284790625Y-103670450D01*
X285390625Y-102870450D01*
X285990625Y-103670450D01*
G37*
X285990625Y-103670450D02*
X284790625Y-103670450D01*
X285390625Y-102870450D01*
X285990625Y-103670450D01*
D11*
X249990625Y-102656250D02*
X250790625Y-102656250D01*
X251290625Y-102156212D02*
X251290625Y-101656250D01*
X249990625Y-101156250D02*
X250790625Y-101156250D01*
X249490625Y-101656288D02*
X249490625Y-102156250D01*
X251290625Y-101656250D02*
G75*
G03*
X250790625Y-101156250I-500001J-1D01*
G01*
X250790625Y-102656250D02*
G75*
G03*
X251290625Y-102156250I-1J500001D01*
G01*
X249490625Y-102156250D02*
G75*
G03*
X249990625Y-102656250I500001J1D01*
G01*
X249990625Y-101156250D02*
G75*
G03*
X249490625Y-101656250I1J-500001D01*
G01*
D13*
X250390625Y-102870450D02*
X249790625Y-103670450D01*
X249790625Y-103670450D02*
X250990625Y-103670450D01*
X250990625Y-103670450D02*
X250390625Y-102870450D01*
G36*
X250990625Y-103670450D02*
G01*
X249790625Y-103670450D01*
X250390625Y-102870450D01*
X250990625Y-103670450D01*
G37*
X250990625Y-103670450D02*
X249790625Y-103670450D01*
X250390625Y-102870450D01*
X250990625Y-103670450D01*
D11*
X246890625Y-101149377D02*
X247690625Y-101149377D01*
X246390625Y-101649415D02*
X246390625Y-102149377D01*
X246890625Y-102649377D02*
X247690625Y-102649377D01*
X248190625Y-102149339D02*
X248190625Y-101649377D01*
X246890625Y-101149377D02*
G75*
G03*
X246390625Y-101649377I1J-500001D01*
G01*
X248190625Y-101649377D02*
G75*
G03*
X247690625Y-101149377I-500001J-1D01*
G01*
X247690625Y-102649377D02*
G75*
G03*
X248190625Y-102149377I-1J500001D01*
G01*
X246390625Y-102149377D02*
G75*
G03*
X246890625Y-102649377I500001J1D01*
G01*
D13*
X247290625Y-102863577D02*
X246690625Y-103663577D01*
X246690625Y-103663577D02*
X247890625Y-103663577D01*
X247890625Y-103663577D02*
X247290625Y-102863577D01*
G36*
X247890625Y-103663577D02*
G01*
X246690625Y-103663577D01*
X247290625Y-102863577D01*
X247890625Y-103663577D01*
G37*
X247890625Y-103663577D02*
X246690625Y-103663577D01*
X247290625Y-102863577D01*
X247890625Y-103663577D01*
D11*
X213183999Y-102149339D02*
X213183999Y-101649377D01*
X211883999Y-102649377D02*
X212683999Y-102649377D01*
X211883999Y-101149377D02*
X212683999Y-101149377D01*
X211383999Y-101649415D02*
X211383999Y-102149377D01*
X211883999Y-101149377D02*
G75*
G03*
X211383999Y-101649377I1J-500001D01*
G01*
X211383999Y-102149377D02*
G75*
G03*
X211883999Y-102649377I500001J1D01*
G01*
X213183999Y-101649377D02*
G75*
G03*
X212683999Y-101149377I-500001J-1D01*
G01*
X212683999Y-102649377D02*
G75*
G03*
X213183999Y-102149377I-1J500001D01*
G01*
D13*
X212283999Y-102863577D02*
X211683999Y-103663577D01*
X211683999Y-103663577D02*
X212883999Y-103663577D01*
X212883999Y-103663577D02*
X212283999Y-102863577D01*
G36*
X212883999Y-103663577D02*
G01*
X211683999Y-103663577D01*
X212283999Y-102863577D01*
X212883999Y-103663577D01*
G37*
X212883999Y-103663577D02*
X211683999Y-103663577D01*
X212283999Y-102863577D01*
X212883999Y-103663577D01*
D11*
X208800000Y-102649377D02*
X209600000Y-102649377D01*
X210100000Y-102149339D02*
X210100000Y-101649377D01*
X208800000Y-101149377D02*
X209600000Y-101149377D01*
X208300000Y-101649415D02*
X208300000Y-102149377D01*
X208300000Y-102149377D02*
G75*
G03*
X208800000Y-102649377I500001J1D01*
G01*
X208800000Y-101149377D02*
G75*
G03*
X208300000Y-101649377I1J-500001D01*
G01*
X209600000Y-102649377D02*
G75*
G03*
X210100000Y-102149377I-1J500001D01*
G01*
X210100000Y-101649377D02*
G75*
G03*
X209600000Y-101149377I-500001J-1D01*
G01*
D13*
X209200000Y-102863577D02*
X208600000Y-103663577D01*
X208600000Y-103663577D02*
X209800000Y-103663577D01*
X209800000Y-103663577D02*
X209200000Y-102863577D01*
G36*
X209800000Y-103663577D02*
G01*
X208600000Y-103663577D01*
X209200000Y-102863577D01*
X209800000Y-103663577D01*
G37*
X209800000Y-103663577D02*
X208600000Y-103663577D01*
X209200000Y-102863577D01*
X209800000Y-103663577D01*
D11*
X213190625Y-94956212D02*
X213190625Y-94456250D01*
X212690625Y-95456250D02*
X211890625Y-95456250D01*
X212690625Y-93956250D02*
X211890625Y-93956250D01*
X211390625Y-94456288D02*
X211390625Y-94956250D01*
X213190625Y-94456250D02*
G75*
G03*
X212690625Y-93956250I-500001J-1D01*
G01*
X211390625Y-94956250D02*
G75*
G03*
X211890625Y-95456250I500001J1D01*
G01*
X212690625Y-95456250D02*
G75*
G03*
X213190625Y-94956250I-1J500001D01*
G01*
X211890625Y-93956250D02*
G75*
G03*
X211390625Y-94456250I1J-500001D01*
G01*
D13*
X212290625Y-93742050D02*
X212890625Y-92942050D01*
X212890625Y-92942050D02*
X211690625Y-92942050D01*
X211690625Y-92942050D02*
X212290625Y-93742050D01*
G36*
X212290625Y-93742050D02*
G01*
X211690625Y-92942050D01*
X212890625Y-92942050D01*
X212290625Y-93742050D01*
G37*
X212290625Y-93742050D02*
X211690625Y-92942050D01*
X212890625Y-92942050D01*
X212290625Y-93742050D01*
D11*
X284990625Y-63106250D02*
X285790625Y-63106250D01*
X286290625Y-64106212D02*
X286290625Y-63606250D01*
X284490625Y-63606288D02*
X284490625Y-64106250D01*
X284990625Y-64606250D02*
X285790625Y-64606250D01*
X284490625Y-64106250D02*
G75*
G03*
X284990625Y-64606250I500001J1D01*
G01*
X285790625Y-64606250D02*
G75*
G03*
X286290625Y-64106250I-1J500001D01*
G01*
X284990625Y-63106250D02*
G75*
G03*
X284490625Y-63606250I1J-500001D01*
G01*
X286290625Y-63606250D02*
G75*
G03*
X285790625Y-63106250I-500001J-1D01*
G01*
D13*
X285390625Y-64820450D02*
X284790625Y-65620450D01*
X284790625Y-65620450D02*
X285990625Y-65620450D01*
X285990625Y-65620450D02*
X285390625Y-64820450D01*
G36*
X285990625Y-65620450D02*
G01*
X284790625Y-65620450D01*
X285390625Y-64820450D01*
X285990625Y-65620450D01*
G37*
X285990625Y-65620450D02*
X284790625Y-65620450D01*
X285390625Y-64820450D01*
X285990625Y-65620450D01*
D11*
X208290625Y-94456288D02*
X208290625Y-94956250D01*
X209590625Y-95456250D02*
X208790625Y-95456250D01*
X210090625Y-94956212D02*
X210090625Y-94456250D01*
X209590625Y-93956250D02*
X208790625Y-93956250D01*
X209590625Y-95456250D02*
G75*
G03*
X210090625Y-94956250I-1J500001D01*
G01*
X208290625Y-94956250D02*
G75*
G03*
X208790625Y-95456250I500001J1D01*
G01*
X210090625Y-94456250D02*
G75*
G03*
X209590625Y-93956250I-500001J-1D01*
G01*
X208790625Y-93956250D02*
G75*
G03*
X208290625Y-94456250I1J-500001D01*
G01*
D13*
X209190625Y-93742050D02*
X209790625Y-92942050D01*
X209790625Y-92942050D02*
X208590625Y-92942050D01*
X208590625Y-92942050D02*
X209190625Y-93742050D01*
G36*
X209190625Y-93742050D02*
G01*
X208590625Y-92942050D01*
X209790625Y-92942050D01*
X209190625Y-93742050D01*
G37*
X209190625Y-93742050D02*
X208590625Y-92942050D01*
X209790625Y-92942050D01*
X209190625Y-93742050D01*
D11*
X171985999Y-94956212D02*
X171985999Y-94456250D01*
X171485999Y-95456250D02*
X170685999Y-95456250D01*
X171485999Y-93956250D02*
X170685999Y-93956250D01*
X170185999Y-94456288D02*
X170185999Y-94956250D01*
X170185999Y-94956250D02*
G75*
G03*
X170685999Y-95456250I500001J1D01*
G01*
X171985999Y-94456250D02*
G75*
G03*
X171485999Y-93956250I-500001J-1D01*
G01*
X171485999Y-95456250D02*
G75*
G03*
X171985999Y-94956250I-1J500001D01*
G01*
X170685999Y-93956250D02*
G75*
G03*
X170185999Y-94456250I1J-500001D01*
G01*
D13*
X171085999Y-93742050D02*
X171685999Y-92942050D01*
X171685999Y-92942050D02*
X170485999Y-92942050D01*
X170485999Y-92942050D02*
X171085999Y-93742050D01*
G36*
X171085999Y-93742050D02*
G01*
X170485999Y-92942050D01*
X171685999Y-92942050D01*
X171085999Y-93742050D01*
G37*
X171085999Y-93742050D02*
X170485999Y-92942050D01*
X171685999Y-92942050D01*
X171085999Y-93742050D01*
D11*
X133390625Y-93956250D02*
X132590625Y-93956250D01*
X132090625Y-94456288D02*
X132090625Y-94956250D01*
X133390625Y-95456250D02*
X132590625Y-95456250D01*
X133890625Y-94956212D02*
X133890625Y-94456250D01*
X133390625Y-95456250D02*
G75*
G03*
X133890625Y-94956250I-1J500001D01*
G01*
X133890625Y-94456250D02*
G75*
G03*
X133390625Y-93956250I-500001J-1D01*
G01*
X132090625Y-94956250D02*
G75*
G03*
X132590625Y-95456250I500001J1D01*
G01*
X132590625Y-93956250D02*
G75*
G03*
X132090625Y-94456250I1J-500001D01*
G01*
D13*
X132990625Y-93742050D02*
X133590625Y-92942050D01*
X133590625Y-92942050D02*
X132390625Y-92942050D01*
X132390625Y-92942050D02*
X132990625Y-93742050D01*
G36*
X132990625Y-93742050D02*
G01*
X132390625Y-92942050D01*
X133590625Y-92942050D01*
X132990625Y-93742050D01*
G37*
X132990625Y-93742050D02*
X132390625Y-92942050D01*
X133590625Y-92942050D01*
X132990625Y-93742050D01*
D11*
X288090625Y-63106250D02*
X288890625Y-63106250D01*
X289390625Y-64106212D02*
X289390625Y-63606250D01*
X287590625Y-63606288D02*
X287590625Y-64106250D01*
X288090625Y-64606250D02*
X288890625Y-64606250D01*
X289390625Y-63606250D02*
G75*
G03*
X288890625Y-63106250I-500001J-1D01*
G01*
X288090625Y-63106250D02*
G75*
G03*
X287590625Y-63606250I1J-500001D01*
G01*
X287590625Y-64106250D02*
G75*
G03*
X288090625Y-64606250I500001J1D01*
G01*
X288890625Y-64606250D02*
G75*
G03*
X289390625Y-64106250I-1J500001D01*
G01*
D13*
X288490625Y-64820450D02*
X287890625Y-65620450D01*
X287890625Y-65620450D02*
X289090625Y-65620450D01*
X289090625Y-65620450D02*
X288490625Y-64820450D01*
G36*
X289090625Y-65620450D02*
G01*
X287890625Y-65620450D01*
X288490625Y-64820450D01*
X289090625Y-65620450D01*
G37*
X289090625Y-65620450D02*
X287890625Y-65620450D01*
X288490625Y-64820450D01*
X289090625Y-65620450D01*
D11*
X286290625Y-94956212D02*
X286290625Y-94456250D01*
X285790625Y-95456250D02*
X284990625Y-95456250D01*
X285790625Y-93956250D02*
X284990625Y-93956250D01*
X284490625Y-94456288D02*
X284490625Y-94956250D01*
X285790625Y-95456250D02*
G75*
G03*
X286290625Y-94956250I-1J500001D01*
G01*
X284490625Y-94956250D02*
G75*
G03*
X284990625Y-95456250I500001J1D01*
G01*
X284990625Y-93956250D02*
G75*
G03*
X284490625Y-94456250I1J-500001D01*
G01*
X286290625Y-94456250D02*
G75*
G03*
X285790625Y-93956250I-500001J-1D01*
G01*
D13*
X285390625Y-93742050D02*
X285990625Y-92942050D01*
X285990625Y-92942050D02*
X284790625Y-92942050D01*
X284790625Y-92942050D02*
X285390625Y-93742050D01*
G36*
X285390625Y-93742050D02*
G01*
X284790625Y-92942050D01*
X285990625Y-92942050D01*
X285390625Y-93742050D01*
G37*
X285390625Y-93742050D02*
X284790625Y-92942050D01*
X285990625Y-92942050D01*
X285390625Y-93742050D01*
D11*
X250790625Y-95456250D02*
X249990625Y-95456250D01*
X251290625Y-94956212D02*
X251290625Y-94456250D01*
X249490625Y-94456288D02*
X249490625Y-94956250D01*
X250790625Y-93956250D02*
X249990625Y-93956250D01*
X250790625Y-95456250D02*
G75*
G03*
X251290625Y-94956250I-1J500001D01*
G01*
X251290625Y-94456250D02*
G75*
G03*
X250790625Y-93956250I-500001J-1D01*
G01*
X249490625Y-94956250D02*
G75*
G03*
X249990625Y-95456250I500001J1D01*
G01*
X249990625Y-93956250D02*
G75*
G03*
X249490625Y-94456250I1J-500001D01*
G01*
D13*
X250390625Y-93742050D02*
X250990625Y-92942050D01*
X250990625Y-92942050D02*
X249790625Y-92942050D01*
X249790625Y-92942050D02*
X250390625Y-93742050D01*
G36*
X250390625Y-93742050D02*
G01*
X249790625Y-92942050D01*
X250990625Y-92942050D01*
X250390625Y-93742050D01*
G37*
X250390625Y-93742050D02*
X249790625Y-92942050D01*
X250990625Y-92942050D01*
X250390625Y-93742050D01*
D11*
X247690625Y-95456250D02*
X246890625Y-95456250D01*
X246390625Y-94456288D02*
X246390625Y-94956250D01*
X247690625Y-93956250D02*
X246890625Y-93956250D01*
X248190625Y-94956212D02*
X248190625Y-94456250D01*
X246390625Y-94956250D02*
G75*
G03*
X246890625Y-95456250I500001J1D01*
G01*
X247690625Y-95456250D02*
G75*
G03*
X248190625Y-94956250I-1J500001D01*
G01*
X248190625Y-94456250D02*
G75*
G03*
X247690625Y-93956250I-500001J-1D01*
G01*
X246890625Y-93956250D02*
G75*
G03*
X246390625Y-94456250I1J-500001D01*
G01*
D13*
X247290625Y-93742050D02*
X247890625Y-92942050D01*
X247890625Y-92942050D02*
X246690625Y-92942050D01*
X246690625Y-92942050D02*
X247290625Y-93742050D01*
G36*
X247290625Y-93742050D02*
G01*
X246690625Y-92942050D01*
X247890625Y-92942050D01*
X247290625Y-93742050D01*
G37*
X247290625Y-93742050D02*
X246690625Y-92942050D01*
X247890625Y-92942050D01*
X247290625Y-93742050D01*
D11*
X175090625Y-102156212D02*
X175090625Y-101656250D01*
X173790625Y-102656250D02*
X174590625Y-102656250D01*
X173790625Y-101156250D02*
X174590625Y-101156250D01*
X173290625Y-101656288D02*
X173290625Y-102156250D01*
X174590625Y-102656250D02*
G75*
G03*
X175090625Y-102156250I-1J500001D01*
G01*
X173790625Y-101156250D02*
G75*
G03*
X173290625Y-101656250I1J-500001D01*
G01*
X173290625Y-102156250D02*
G75*
G03*
X173790625Y-102656250I500001J1D01*
G01*
X175090625Y-101656250D02*
G75*
G03*
X174590625Y-101156250I-500001J-1D01*
G01*
D13*
X174190625Y-102870450D02*
X173590625Y-103670450D01*
X173590625Y-103670450D02*
X174790625Y-103670450D01*
X174790625Y-103670450D02*
X174190625Y-102870450D01*
G36*
X174790625Y-103670450D02*
G01*
X173590625Y-103670450D01*
X174190625Y-102870450D01*
X174790625Y-103670450D01*
G37*
X174790625Y-103670450D02*
X173590625Y-103670450D01*
X174190625Y-102870450D01*
X174790625Y-103670450D01*
D11*
X152985999Y-56956212D02*
X152985999Y-56456250D01*
X151185999Y-56456288D02*
X151185999Y-56956250D01*
X152485999Y-55956250D02*
X151685999Y-55956250D01*
X152485999Y-57456250D02*
X151685999Y-57456250D01*
X151185999Y-56956250D02*
G75*
G03*
X151685999Y-57456250I500001J1D01*
G01*
X152985999Y-56456250D02*
G75*
G03*
X152485999Y-55956250I-500001J-1D01*
G01*
X152485999Y-57456250D02*
G75*
G03*
X152985999Y-56956250I-1J500001D01*
G01*
X151685999Y-55956250D02*
G75*
G03*
X151185999Y-56456250I1J-500001D01*
G01*
D13*
X152085999Y-55742050D02*
X152685999Y-54942050D01*
X152685999Y-54942050D02*
X151485999Y-54942050D01*
X151485999Y-54942050D02*
X152085999Y-55742050D01*
G36*
X152085999Y-55742050D02*
G01*
X151485999Y-54942050D01*
X152685999Y-54942050D01*
X152085999Y-55742050D01*
G37*
X152085999Y-55742050D02*
X151485999Y-54942050D01*
X152685999Y-54942050D01*
X152085999Y-55742050D01*
D11*
X211890625Y-63106250D02*
X212690625Y-63106250D01*
X211890625Y-64606250D02*
X212690625Y-64606250D01*
X213190625Y-64106212D02*
X213190625Y-63606250D01*
X211390625Y-63606288D02*
X211390625Y-64106250D01*
X211390625Y-64106250D02*
G75*
G03*
X211890625Y-64606250I500001J1D01*
G01*
X213190625Y-63606250D02*
G75*
G03*
X212690625Y-63106250I-500001J-1D01*
G01*
X211890625Y-63106250D02*
G75*
G03*
X211390625Y-63606250I1J-500001D01*
G01*
X212690625Y-64606250D02*
G75*
G03*
X213190625Y-64106250I-1J500001D01*
G01*
D13*
X212290625Y-64820450D02*
X211690625Y-65620450D01*
X211690625Y-65620450D02*
X212890625Y-65620450D01*
X212890625Y-65620450D02*
X212290625Y-64820450D01*
G36*
X212890625Y-65620450D02*
G01*
X211690625Y-65620450D01*
X212290625Y-64820450D01*
X212890625Y-65620450D01*
G37*
X212890625Y-65620450D02*
X211690625Y-65620450D01*
X212290625Y-64820450D01*
X212890625Y-65620450D01*
D14*
X192867200Y-69562000D02*
X192867200Y-55338000D01*
X190327200Y-70070000D02*
X192359200Y-70070000D01*
X192359200Y-70070000D02*
X192867200Y-69562000D01*
X192867200Y-55338000D02*
X192359200Y-54830000D01*
X190327200Y-54830000D02*
X189819200Y-55338000D01*
X189819200Y-55338000D02*
X189819200Y-69562000D01*
X189819200Y-69562000D02*
X190327200Y-70070000D01*
X192359200Y-54830000D02*
X190327200Y-54830000D01*
D11*
X288890625Y-57456250D02*
X288090625Y-57456250D01*
X287590625Y-56456288D02*
X287590625Y-56956250D01*
X288890625Y-55956250D02*
X288090625Y-55956250D01*
X289390625Y-56956212D02*
X289390625Y-56456250D01*
X289390625Y-56456250D02*
G75*
G03*
X288890625Y-55956250I-500001J-1D01*
G01*
X288890625Y-57456250D02*
G75*
G03*
X289390625Y-56956250I-1J500001D01*
G01*
X288090625Y-55956250D02*
G75*
G03*
X287590625Y-56456250I1J-500001D01*
G01*
X287590625Y-56956250D02*
G75*
G03*
X288090625Y-57456250I500001J1D01*
G01*
D13*
X288490625Y-55742050D02*
X289090625Y-54942050D01*
X289090625Y-54942050D02*
X287890625Y-54942050D01*
X287890625Y-54942050D02*
X288490625Y-55742050D01*
G36*
X288490625Y-55742050D02*
G01*
X287890625Y-54942050D01*
X289090625Y-54942050D01*
X288490625Y-55742050D01*
G37*
X288490625Y-55742050D02*
X287890625Y-54942050D01*
X289090625Y-54942050D01*
X288490625Y-55742050D01*
D11*
X313190625Y-102156212D02*
X313190625Y-101656250D01*
X311890625Y-101156250D02*
X312690625Y-101156250D01*
X311390625Y-101656288D02*
X311390625Y-102156250D01*
X311890625Y-102656250D02*
X312690625Y-102656250D01*
X313190625Y-101656250D02*
G75*
G03*
X312690625Y-101156250I-500001J-1D01*
G01*
X311390625Y-102156250D02*
G75*
G03*
X311890625Y-102656250I500001J1D01*
G01*
X311890625Y-101156250D02*
G75*
G03*
X311390625Y-101656250I1J-500001D01*
G01*
X312690625Y-102656250D02*
G75*
G03*
X313190625Y-102156250I-1J500001D01*
G01*
D13*
X312290625Y-102870450D02*
X311690625Y-103670450D01*
X311690625Y-103670450D02*
X312890625Y-103670450D01*
X312890625Y-103670450D02*
X312290625Y-102870450D01*
G36*
X312890625Y-103670450D02*
G01*
X311690625Y-103670450D01*
X312290625Y-102870450D01*
X312890625Y-103670450D01*
G37*
X312890625Y-103670450D02*
X311690625Y-103670450D01*
X312290625Y-102870450D01*
X312890625Y-103670450D01*
D11*
X311390625Y-63606288D02*
X311390625Y-64106250D01*
X311890625Y-63106250D02*
X312690625Y-63106250D01*
X313190625Y-64106212D02*
X313190625Y-63606250D01*
X311890625Y-64606250D02*
X312690625Y-64606250D01*
X312690625Y-64606250D02*
G75*
G03*
X313190625Y-64106250I-1J500001D01*
G01*
X311390625Y-64106250D02*
G75*
G03*
X311890625Y-64606250I500001J1D01*
G01*
X311890625Y-63106250D02*
G75*
G03*
X311390625Y-63606250I1J-500001D01*
G01*
X313190625Y-63606250D02*
G75*
G03*
X312690625Y-63106250I-500001J-1D01*
G01*
D13*
X312290625Y-64820450D02*
X311690625Y-65620450D01*
X311690625Y-65620450D02*
X312890625Y-65620450D01*
X312890625Y-65620450D02*
X312290625Y-64820450D01*
G36*
X312890625Y-65620450D02*
G01*
X311690625Y-65620450D01*
X312290625Y-64820450D01*
X312890625Y-65620450D01*
G37*
X312890625Y-65620450D02*
X311690625Y-65620450D01*
X312290625Y-64820450D01*
X312890625Y-65620450D01*
D11*
X312690625Y-95456250D02*
X311890625Y-95456250D01*
X313190625Y-94956212D02*
X313190625Y-94456250D01*
X312690625Y-93956250D02*
X311890625Y-93956250D01*
X311390625Y-94456288D02*
X311390625Y-94956250D01*
X311390625Y-94956250D02*
G75*
G03*
X311890625Y-95456250I500001J1D01*
G01*
X312690625Y-95456250D02*
G75*
G03*
X313190625Y-94956250I-1J500001D01*
G01*
X311890625Y-93956250D02*
G75*
G03*
X311390625Y-94456250I1J-500001D01*
G01*
X313190625Y-94456250D02*
G75*
G03*
X312690625Y-93956250I-500001J-1D01*
G01*
D13*
X312290625Y-93742050D02*
X312890625Y-92942050D01*
X312890625Y-92942050D02*
X311690625Y-92942050D01*
X311690625Y-92942050D02*
X312290625Y-93742050D01*
G36*
X312290625Y-93742050D02*
G01*
X311690625Y-92942050D01*
X312890625Y-92942050D01*
X312290625Y-93742050D01*
G37*
X312290625Y-93742050D02*
X311690625Y-92942050D01*
X312890625Y-92942050D01*
X312290625Y-93742050D01*
D10*
X112890785Y-50581290D02*
X112890785Y-55781290D01*
X118090785Y-55781290D02*
X118090785Y-50581290D01*
X116590785Y-50581290D02*
X114390785Y-50581290D01*
X114390785Y-55781290D02*
X116590785Y-55781290D01*
X116490785Y-53181290D02*
G75*
G03*
X116490785Y-53181290I-1000000J0D01*
G01*
D15*
X110390625Y-75456250D02*
X110390625Y-85056250D01*
X119990625Y-85056250D02*
X119990625Y-75456250D01*
X119990625Y-75456250D02*
X110390625Y-75456250D01*
X110390625Y-85056250D02*
X119990625Y-85056250D01*
D14*
X111473325Y-84256250D02*
G75*
G03*
X111473325Y-84256250I-282700J0D01*
G01*
D12*
X110151877Y-69246250D02*
X109629373Y-69246250D01*
X110151877Y-70666250D02*
X109629373Y-70666250D01*
X120900625Y-63917502D02*
X120900625Y-63394998D01*
X119480625Y-63917502D02*
X119480625Y-63394998D01*
X110600625Y-63917502D02*
X110600625Y-63394998D01*
X109180625Y-63917502D02*
X109180625Y-63394998D01*
D11*
X111118917Y-66715460D02*
X112914969Y-64919409D01*
X112645561Y-68242104D02*
X111118917Y-66715460D01*
D12*
X90980625Y-60117502D02*
X90980625Y-59594998D01*
X92400625Y-60117502D02*
X92400625Y-59594998D01*
X98100625Y-57903438D02*
X98100625Y-57380934D01*
X96680625Y-57903438D02*
X96680625Y-57380934D01*
X87400625Y-47788748D02*
X87400625Y-48311252D01*
X85980625Y-47788748D02*
X85980625Y-48311252D01*
X88380625Y-59594998D02*
X88380625Y-60117502D01*
X89800625Y-59594998D02*
X89800625Y-60117502D01*
X87450625Y-58850000D02*
X87450625Y-61710000D01*
X85530625Y-61710000D02*
X85530625Y-58850000D01*
X87450625Y-61710000D02*
X85530625Y-61710000D01*
D11*
X135690625Y-102649377D02*
X136490625Y-102649377D01*
X136990625Y-102149339D02*
X136990625Y-101649377D01*
X135190625Y-101649415D02*
X135190625Y-102149377D01*
X135690625Y-101149377D02*
X136490625Y-101149377D01*
X136490625Y-102649377D02*
G75*
G03*
X136990625Y-102149377I-1J500001D01*
G01*
X135190625Y-102149377D02*
G75*
G03*
X135690625Y-102649377I500001J1D01*
G01*
X135690625Y-101149377D02*
G75*
G03*
X135190625Y-101649377I1J-500001D01*
G01*
X136990625Y-101649377D02*
G75*
G03*
X136490625Y-101149377I-500001J-1D01*
G01*
D13*
X136090625Y-102863577D02*
X135490625Y-103663577D01*
X135490625Y-103663577D02*
X136690625Y-103663577D01*
X136690625Y-103663577D02*
X136090625Y-102863577D01*
G36*
X136690625Y-103663577D02*
G01*
X135490625Y-103663577D01*
X136090625Y-102863577D01*
X136690625Y-103663577D01*
G37*
X136690625Y-103663577D02*
X135490625Y-103663577D01*
X136090625Y-102863577D01*
X136690625Y-103663577D01*
D11*
X132590625Y-101156250D02*
X133390625Y-101156250D01*
X133890625Y-102156212D02*
X133890625Y-101656250D01*
X132090625Y-101656288D02*
X132090625Y-102156250D01*
X132590625Y-102656250D02*
X133390625Y-102656250D01*
X133890625Y-101656250D02*
G75*
G03*
X133390625Y-101156250I-500001J-1D01*
G01*
X132590625Y-101156250D02*
G75*
G03*
X132090625Y-101656250I1J-500001D01*
G01*
X132090625Y-102156250D02*
G75*
G03*
X132590625Y-102656250I500001J1D01*
G01*
X133390625Y-102656250D02*
G75*
G03*
X133890625Y-102156250I-1J500001D01*
G01*
D13*
X132990625Y-102870450D02*
X132390625Y-103670450D01*
X132390625Y-103670450D02*
X133590625Y-103670450D01*
X133590625Y-103670450D02*
X132990625Y-102870450D01*
G36*
X133590625Y-103670450D02*
G01*
X132390625Y-103670450D01*
X132990625Y-102870450D01*
X133590625Y-103670450D01*
G37*
X133590625Y-103670450D02*
X132390625Y-103670450D01*
X132990625Y-102870450D01*
X133590625Y-103670450D01*
D12*
X125329373Y-77266250D02*
X125851877Y-77266250D01*
X125329373Y-75846250D02*
X125851877Y-75846250D01*
X96100625Y-57903438D02*
X96100625Y-57380934D01*
X94680625Y-57903438D02*
X94680625Y-57380934D01*
X103851877Y-83646250D02*
X103329373Y-83646250D01*
X103851877Y-85066250D02*
X103329373Y-85066250D01*
X103851877Y-80966250D02*
X103329373Y-80966250D01*
X103851877Y-79546250D02*
X103329373Y-79546250D01*
X125851877Y-84166250D02*
X125329373Y-84166250D01*
X125851877Y-82746250D02*
X125329373Y-82746250D01*
D11*
X82690625Y-64556250D02*
X83490625Y-64556250D01*
X83990625Y-64056212D02*
X83990625Y-63556250D01*
X82690625Y-63056250D02*
X83490625Y-63056250D01*
X82190625Y-63556288D02*
X82190625Y-64056250D01*
X83990625Y-63556250D02*
G75*
G03*
X83490625Y-63056250I-500001J-1D01*
G01*
X82190625Y-64056250D02*
G75*
G03*
X82690625Y-64556250I500001J1D01*
G01*
X82690625Y-63056250D02*
G75*
G03*
X82190625Y-63556250I1J-500001D01*
G01*
X83490625Y-64556250D02*
G75*
G03*
X83990625Y-64056250I-1J500001D01*
G01*
D13*
X83090625Y-64770450D02*
X82490625Y-65570450D01*
X82490625Y-65570450D02*
X83690625Y-65570450D01*
X83690625Y-65570450D02*
X83090625Y-64770450D01*
G36*
X83690625Y-65570450D02*
G01*
X82490625Y-65570450D01*
X83090625Y-64770450D01*
X83690625Y-65570450D01*
G37*
X83690625Y-65570450D02*
X82490625Y-65570450D01*
X83090625Y-64770450D01*
X83690625Y-65570450D01*
D11*
X95790625Y-102156212D02*
X95790625Y-101656250D01*
X94490625Y-101156250D02*
X95290625Y-101156250D01*
X94490625Y-102656250D02*
X95290625Y-102656250D01*
X93990625Y-101656288D02*
X93990625Y-102156250D01*
X95290625Y-102656250D02*
G75*
G03*
X95790625Y-102156250I-1J500001D01*
G01*
X93990625Y-102156250D02*
G75*
G03*
X94490625Y-102656250I500001J1D01*
G01*
X94490625Y-101156250D02*
G75*
G03*
X93990625Y-101656250I1J-500001D01*
G01*
X95790625Y-101656250D02*
G75*
G03*
X95290625Y-101156250I-500001J-1D01*
G01*
D13*
X94890625Y-102870450D02*
X94290625Y-103670450D01*
X94290625Y-103670450D02*
X95490625Y-103670450D01*
X95490625Y-103670450D02*
X94890625Y-102870450D01*
G36*
X95490625Y-103670450D02*
G01*
X94290625Y-103670450D01*
X94890625Y-102870450D01*
X95490625Y-103670450D01*
G37*
X95490625Y-103670450D02*
X94290625Y-103670450D01*
X94890625Y-102870450D01*
X95490625Y-103670450D01*
D11*
X98890625Y-102156212D02*
X98890625Y-101656250D01*
X97590625Y-101156250D02*
X98390625Y-101156250D01*
X97090625Y-101656288D02*
X97090625Y-102156250D01*
X97590625Y-102656250D02*
X98390625Y-102656250D01*
X98390625Y-102656250D02*
G75*
G03*
X98890625Y-102156250I-1J500001D01*
G01*
X97090625Y-102156250D02*
G75*
G03*
X97590625Y-102656250I500001J1D01*
G01*
X97590625Y-101156250D02*
G75*
G03*
X97090625Y-101656250I1J-500001D01*
G01*
X98890625Y-101656250D02*
G75*
G03*
X98390625Y-101156250I-500001J-1D01*
G01*
D13*
X97990625Y-102870450D02*
X97390625Y-103670450D01*
X97390625Y-103670450D02*
X98590625Y-103670450D01*
X98590625Y-103670450D02*
X97990625Y-102870450D01*
G36*
X98590625Y-103670450D02*
G01*
X97390625Y-103670450D01*
X97990625Y-102870450D01*
X98590625Y-103670450D01*
G37*
X98590625Y-103670450D02*
X97390625Y-103670450D01*
X97990625Y-102870450D01*
X98590625Y-103670450D01*
D11*
X170190625Y-101656288D02*
X170190625Y-102156250D01*
X170690625Y-102656250D02*
X171490625Y-102656250D01*
X171990625Y-102156212D02*
X171990625Y-101656250D01*
X170690625Y-101156250D02*
X171490625Y-101156250D01*
X171990625Y-101656250D02*
G75*
G03*
X171490625Y-101156250I-500001J-1D01*
G01*
X171490625Y-102656250D02*
G75*
G03*
X171990625Y-102156250I-1J500001D01*
G01*
X170190625Y-102156250D02*
G75*
G03*
X170690625Y-102656250I500001J1D01*
G01*
X170690625Y-101156250D02*
G75*
G03*
X170190625Y-101656250I1J-500001D01*
G01*
D13*
X171090625Y-102870450D02*
X170490625Y-103670450D01*
X170490625Y-103670450D02*
X171690625Y-103670450D01*
X171690625Y-103670450D02*
X171090625Y-102870450D01*
G36*
X171690625Y-103670450D02*
G01*
X170490625Y-103670450D01*
X171090625Y-102870450D01*
X171690625Y-103670450D01*
G37*
X171690625Y-103670450D02*
X170490625Y-103670450D01*
X171090625Y-102870450D01*
X171690625Y-103670450D01*
D11*
X136990625Y-94956212D02*
X136990625Y-94456250D01*
X136490625Y-95456250D02*
X135690625Y-95456250D01*
X135190625Y-94456288D02*
X135190625Y-94956250D01*
X136490625Y-93956250D02*
X135690625Y-93956250D01*
X135690625Y-93956250D02*
G75*
G03*
X135190625Y-94456250I1J-500001D01*
G01*
X136990625Y-94456250D02*
G75*
G03*
X136490625Y-93956250I-500001J-1D01*
G01*
X135190625Y-94956250D02*
G75*
G03*
X135690625Y-95456250I500001J1D01*
G01*
X136490625Y-95456250D02*
G75*
G03*
X136990625Y-94956250I-1J500001D01*
G01*
D13*
X136090625Y-93742050D02*
X136690625Y-92942050D01*
X136690625Y-92942050D02*
X135490625Y-92942050D01*
X135490625Y-92942050D02*
X136090625Y-93742050D01*
G36*
X136090625Y-93742050D02*
G01*
X135490625Y-92942050D01*
X136690625Y-92942050D01*
X136090625Y-93742050D01*
G37*
X136090625Y-93742050D02*
X135490625Y-92942050D01*
X136690625Y-92942050D01*
X136090625Y-93742050D01*
D11*
X174550000Y-93956250D02*
X173750000Y-93956250D01*
X174550000Y-95456250D02*
X173750000Y-95456250D01*
X175050000Y-94956212D02*
X175050000Y-94456250D01*
X173250000Y-94456288D02*
X173250000Y-94956250D01*
X173250000Y-94956250D02*
G75*
G03*
X173750000Y-95456250I500001J1D01*
G01*
X174550000Y-95456250D02*
G75*
G03*
X175050000Y-94956250I-1J500001D01*
G01*
X173750000Y-93956250D02*
G75*
G03*
X173250000Y-94456250I1J-500001D01*
G01*
X175050000Y-94456250D02*
G75*
G03*
X174550000Y-93956250I-500001J-1D01*
G01*
D13*
X174150000Y-93742050D02*
X174750000Y-92942050D01*
X174750000Y-92942050D02*
X173550000Y-92942050D01*
X173550000Y-92942050D02*
X174150000Y-93742050D01*
G36*
X174150000Y-93742050D02*
G01*
X173550000Y-92942050D01*
X174750000Y-92942050D01*
X174150000Y-93742050D01*
G37*
X174150000Y-93742050D02*
X173550000Y-92942050D01*
X174750000Y-92942050D01*
X174150000Y-93742050D01*
D11*
X287590625Y-94456288D02*
X287590625Y-94956250D01*
X288890625Y-93956250D02*
X288090625Y-93956250D01*
X288890625Y-95456250D02*
X288090625Y-95456250D01*
X289390625Y-94956212D02*
X289390625Y-94456250D01*
X288890625Y-95456250D02*
G75*
G03*
X289390625Y-94956250I-1J500001D01*
G01*
X287590625Y-94956250D02*
G75*
G03*
X288090625Y-95456250I500001J1D01*
G01*
X289390625Y-94456250D02*
G75*
G03*
X288890625Y-93956250I-500001J-1D01*
G01*
X288090625Y-93956250D02*
G75*
G03*
X287590625Y-94456250I1J-500001D01*
G01*
D13*
X288490625Y-93742050D02*
X289090625Y-92942050D01*
X289090625Y-92942050D02*
X287890625Y-92942050D01*
X287890625Y-92942050D02*
X288490625Y-93742050D01*
G36*
X288490625Y-93742050D02*
G01*
X287890625Y-92942050D01*
X289090625Y-92942050D01*
X288490625Y-93742050D01*
G37*
X288490625Y-93742050D02*
X287890625Y-92942050D01*
X289090625Y-92942050D01*
X288490625Y-93742050D01*
D11*
X95790625Y-94956212D02*
X95790625Y-94456250D01*
X95290625Y-95456250D02*
X94490625Y-95456250D01*
X95290625Y-93956250D02*
X94490625Y-93956250D01*
X93990625Y-94456288D02*
X93990625Y-94956250D01*
X95790625Y-94456250D02*
G75*
G03*
X95290625Y-93956250I-500001J-1D01*
G01*
X93990625Y-94956250D02*
G75*
G03*
X94490625Y-95456250I500001J1D01*
G01*
X94490625Y-93956250D02*
G75*
G03*
X93990625Y-94456250I1J-500001D01*
G01*
X95290625Y-95456250D02*
G75*
G03*
X95790625Y-94956250I-1J500001D01*
G01*
D13*
X94890625Y-93742050D02*
X95490625Y-92942050D01*
X95490625Y-92942050D02*
X94290625Y-92942050D01*
X94290625Y-92942050D02*
X94890625Y-93742050D01*
G36*
X94890625Y-93742050D02*
G01*
X94290625Y-92942050D01*
X95490625Y-92942050D01*
X94890625Y-93742050D01*
G37*
X94890625Y-93742050D02*
X94290625Y-92942050D01*
X95490625Y-92942050D01*
X94890625Y-93742050D01*
D11*
X135190625Y-56456288D02*
X135190625Y-56956250D01*
X136990625Y-56956212D02*
X136990625Y-56456250D01*
X136490625Y-57456250D02*
X135690625Y-57456250D01*
X136490625Y-55956250D02*
X135690625Y-55956250D01*
X135690625Y-55956250D02*
G75*
G03*
X135190625Y-56456250I1J-500001D01*
G01*
X136990625Y-56456250D02*
G75*
G03*
X136490625Y-55956250I-500001J-1D01*
G01*
X135190625Y-56956250D02*
G75*
G03*
X135690625Y-57456250I500001J1D01*
G01*
X136490625Y-57456250D02*
G75*
G03*
X136990625Y-56956250I-1J500001D01*
G01*
D13*
X136090625Y-55742050D02*
X136690625Y-54942050D01*
X136690625Y-54942050D02*
X135490625Y-54942050D01*
X135490625Y-54942050D02*
X136090625Y-55742050D01*
G36*
X136090625Y-55742050D02*
G01*
X135490625Y-54942050D01*
X136690625Y-54942050D01*
X136090625Y-55742050D01*
G37*
X136090625Y-55742050D02*
X135490625Y-54942050D01*
X136690625Y-54942050D01*
X136090625Y-55742050D01*
D11*
X312390625Y-55956250D02*
X311590625Y-55956250D01*
X312390625Y-57456250D02*
X311590625Y-57456250D01*
X311090625Y-56456288D02*
X311090625Y-56956250D01*
X312890625Y-56956212D02*
X312890625Y-56456250D01*
X312390625Y-57456250D02*
G75*
G03*
X312890625Y-56956250I-1J500001D01*
G01*
X312890625Y-56456250D02*
G75*
G03*
X312390625Y-55956250I-500001J-1D01*
G01*
X311090625Y-56956250D02*
G75*
G03*
X311590625Y-57456250I500001J1D01*
G01*
X311590625Y-55956250D02*
G75*
G03*
X311090625Y-56456250I1J-500001D01*
G01*
D13*
X311990625Y-55742050D02*
X312590625Y-54942050D01*
X312590625Y-54942050D02*
X311390625Y-54942050D01*
X311390625Y-54942050D02*
X311990625Y-55742050D01*
G36*
X311990625Y-55742050D02*
G01*
X311390625Y-54942050D01*
X312590625Y-54942050D01*
X311990625Y-55742050D01*
G37*
X311990625Y-55742050D02*
X311390625Y-54942050D01*
X312590625Y-54942050D01*
X311990625Y-55742050D01*
D11*
X247690625Y-57456250D02*
X246890625Y-57456250D01*
X248190625Y-56956212D02*
X248190625Y-56456250D01*
X246390625Y-56456288D02*
X246390625Y-56956250D01*
X247690625Y-55956250D02*
X246890625Y-55956250D01*
X248190625Y-56456250D02*
G75*
G03*
X247690625Y-55956250I-500001J-1D01*
G01*
X247690625Y-57456250D02*
G75*
G03*
X248190625Y-56956250I-1J500001D01*
G01*
X246390625Y-56956250D02*
G75*
G03*
X246890625Y-57456250I500001J1D01*
G01*
X246890625Y-55956250D02*
G75*
G03*
X246390625Y-56456250I1J-500001D01*
G01*
D13*
X247290625Y-55742050D02*
X247890625Y-54942050D01*
X247890625Y-54942050D02*
X246690625Y-54942050D01*
X246690625Y-54942050D02*
X247290625Y-55742050D01*
G36*
X247290625Y-55742050D02*
G01*
X246690625Y-54942050D01*
X247890625Y-54942050D01*
X247290625Y-55742050D01*
G37*
X247290625Y-55742050D02*
X246690625Y-54942050D01*
X247890625Y-54942050D01*
X247290625Y-55742050D01*
D11*
X133899835Y-56949912D02*
X133899835Y-56449950D01*
X133399835Y-55949950D02*
X132599835Y-55949950D01*
X133399835Y-57449950D02*
X132599835Y-57449950D01*
X132099835Y-56449988D02*
X132099835Y-56949950D01*
X132599835Y-55949950D02*
G75*
G03*
X132099835Y-56449950I1J-500001D01*
G01*
X132099835Y-56949950D02*
G75*
G03*
X132599835Y-57449950I500001J1D01*
G01*
X133399835Y-57449950D02*
G75*
G03*
X133899835Y-56949950I-1J500001D01*
G01*
X133899835Y-56449950D02*
G75*
G03*
X133399835Y-55949950I-500001J-1D01*
G01*
D13*
X132999835Y-55735750D02*
X133599835Y-54935750D01*
X133599835Y-54935750D02*
X132399835Y-54935750D01*
X132399835Y-54935750D02*
X132999835Y-55735750D01*
G36*
X132999835Y-55735750D02*
G01*
X132399835Y-54935750D01*
X133599835Y-54935750D01*
X132999835Y-55735750D01*
G37*
X132999835Y-55735750D02*
X132399835Y-54935750D01*
X133599835Y-54935750D01*
X132999835Y-55735750D01*
D12*
X107800625Y-63394998D02*
X107800625Y-63917502D01*
X106380625Y-63394998D02*
X106380625Y-63917502D01*
D11*
X249990625Y-63106250D02*
X250790625Y-63106250D01*
X251290625Y-64106212D02*
X251290625Y-63606250D01*
X249990625Y-64606250D02*
X250790625Y-64606250D01*
X249490625Y-63606288D02*
X249490625Y-64106250D01*
X250790625Y-64606250D02*
G75*
G03*
X251290625Y-64106250I-1J500001D01*
G01*
X249490625Y-64106250D02*
G75*
G03*
X249990625Y-64606250I500001J1D01*
G01*
X249990625Y-63106250D02*
G75*
G03*
X249490625Y-63606250I1J-500001D01*
G01*
X251290625Y-63606250D02*
G75*
G03*
X250790625Y-63106250I-500001J-1D01*
G01*
D13*
X250390625Y-64820450D02*
X249790625Y-65620450D01*
X249790625Y-65620450D02*
X250990625Y-65620450D01*
X250990625Y-65620450D02*
X250390625Y-64820450D01*
G36*
X250990625Y-65620450D02*
G01*
X249790625Y-65620450D01*
X250390625Y-64820450D01*
X250990625Y-65620450D01*
G37*
X250990625Y-65620450D02*
X249790625Y-65620450D01*
X250390625Y-64820450D01*
X250990625Y-65620450D01*
D11*
X246890625Y-63106250D02*
X247690625Y-63106250D01*
X248190625Y-64106212D02*
X248190625Y-63606250D01*
X246890625Y-64606250D02*
X247690625Y-64606250D01*
X246390625Y-63606288D02*
X246390625Y-64106250D01*
X247690625Y-64606250D02*
G75*
G03*
X248190625Y-64106250I-1J500001D01*
G01*
X246390625Y-64106250D02*
G75*
G03*
X246890625Y-64606250I500001J1D01*
G01*
X248190625Y-63606250D02*
G75*
G03*
X247690625Y-63106250I-500001J-1D01*
G01*
X246890625Y-63106250D02*
G75*
G03*
X246390625Y-63606250I1J-500001D01*
G01*
D13*
X247290625Y-64820450D02*
X246690625Y-65620450D01*
X246690625Y-65620450D02*
X247890625Y-65620450D01*
X247890625Y-65620450D02*
X247290625Y-64820450D01*
G36*
X247890625Y-65620450D02*
G01*
X246690625Y-65620450D01*
X247290625Y-64820450D01*
X247890625Y-65620450D01*
G37*
X247890625Y-65620450D02*
X246690625Y-65620450D01*
X247290625Y-64820450D01*
X247890625Y-65620450D01*
D11*
X173290625Y-63606288D02*
X173290625Y-64106250D01*
X175090625Y-64106212D02*
X175090625Y-63606250D01*
X173790625Y-63106250D02*
X174590625Y-63106250D01*
X173790625Y-64606250D02*
X174590625Y-64606250D01*
X174590625Y-64606250D02*
G75*
G03*
X175090625Y-64106250I-1J500001D01*
G01*
X173290625Y-64106250D02*
G75*
G03*
X173790625Y-64606250I500001J1D01*
G01*
X173790625Y-63106250D02*
G75*
G03*
X173290625Y-63606250I1J-500001D01*
G01*
X175090625Y-63606250D02*
G75*
G03*
X174590625Y-63106250I-500001J-1D01*
G01*
D13*
X174190625Y-64820450D02*
X173590625Y-65620450D01*
X173590625Y-65620450D02*
X174790625Y-65620450D01*
X174790625Y-65620450D02*
X174190625Y-64820450D01*
G36*
X174790625Y-65620450D02*
G01*
X173590625Y-65620450D01*
X174190625Y-64820450D01*
X174790625Y-65620450D01*
G37*
X174790625Y-65620450D02*
X173590625Y-65620450D01*
X174190625Y-64820450D01*
X174790625Y-65620450D01*
D11*
X133840625Y-64106212D02*
X133840625Y-63606250D01*
X132040625Y-63606288D02*
X132040625Y-64106250D01*
X132540625Y-64606250D02*
X133340625Y-64606250D01*
X132540625Y-63106250D02*
X133340625Y-63106250D01*
X133840625Y-63606250D02*
G75*
G03*
X133340625Y-63106250I-500001J-1D01*
G01*
X133340625Y-64606250D02*
G75*
G03*
X133840625Y-64106250I-1J500001D01*
G01*
X132040625Y-64106250D02*
G75*
G03*
X132540625Y-64606250I500001J1D01*
G01*
X132540625Y-63106250D02*
G75*
G03*
X132040625Y-63606250I1J-500001D01*
G01*
D13*
X132940625Y-64820450D02*
X132340625Y-65620450D01*
X132340625Y-65620450D02*
X133540625Y-65620450D01*
X133540625Y-65620450D02*
X132940625Y-64820450D01*
G36*
X133540625Y-65620450D02*
G01*
X132340625Y-65620450D01*
X132940625Y-64820450D01*
X133540625Y-65620450D01*
G37*
X133540625Y-65620450D02*
X132340625Y-65620450D01*
X132940625Y-64820450D01*
X133540625Y-65620450D01*
D12*
X104080625Y-47794998D02*
X104080625Y-48317502D01*
X105500625Y-47794998D02*
X105500625Y-48317502D01*
D10*
X97190625Y-52742186D02*
X97190625Y-52142186D01*
X97190625Y-50642186D02*
X97190625Y-50842186D01*
X95590625Y-53642186D02*
X95590625Y-53842186D01*
X95590625Y-52742186D02*
X95590625Y-51742186D01*
X97190625Y-53642186D02*
X97190625Y-53842186D01*
X95590625Y-50642186D02*
X95590625Y-50842186D01*
X95590625Y-50642186D02*
X97190625Y-50642186D01*
X97590625Y-50642186D02*
X97890625Y-50642186D01*
X95590625Y-53842186D02*
X97190625Y-53842186D01*
%LPC*%
D16*
X119935625Y-53181250D03*
X130095625Y-53181250D03*
D17*
X125015625Y-53181250D03*
D18*
X121205625Y-50641250D03*
X127555625Y-48101250D03*
D16*
X196135625Y-53181250D03*
D17*
X201215625Y-53181250D03*
D16*
X206295625Y-53181250D03*
D18*
X197405625Y-50641250D03*
X203755625Y-48101250D03*
D16*
X187245625Y-53181250D03*
D17*
X182165625Y-53181250D03*
D16*
X177085625Y-53181250D03*
D18*
X178355625Y-50641250D03*
X184705625Y-48101250D03*
D17*
X163115625Y-53181250D03*
D16*
X168195625Y-53181250D03*
X158035625Y-53181250D03*
D18*
X159305625Y-50641250D03*
X165655625Y-48101250D03*
D17*
X86915625Y-53181250D03*
D16*
X91995625Y-53181250D03*
X81835625Y-53181250D03*
D18*
X83105625Y-50641250D03*
X89455625Y-48101250D03*
D16*
X215185625Y-53181250D03*
X225345625Y-53181250D03*
D17*
X220265625Y-53181250D03*
D18*
X216455625Y-50641250D03*
X222805625Y-48101250D03*
D16*
X234235625Y-53181250D03*
D17*
X239315625Y-53181250D03*
D16*
X244395625Y-53181250D03*
D18*
X235505625Y-50641250D03*
X241855625Y-48101250D03*
D17*
X86915625Y-72231250D03*
D16*
X81835625Y-72231250D03*
X91995625Y-72231250D03*
D18*
X83105625Y-69691250D03*
X89455625Y-67151250D03*
D16*
X100885625Y-72231250D03*
X111045625Y-72231250D03*
D17*
X105965625Y-72231250D03*
D18*
X102155625Y-69691250D03*
X108505625Y-67151250D03*
D16*
X149150799Y-72231250D03*
D17*
X144070799Y-72231250D03*
D16*
X138990799Y-72231250D03*
D18*
X140260799Y-69691250D03*
X146610799Y-67151250D03*
D16*
X282495625Y-53181250D03*
X272335625Y-53181250D03*
D17*
X277415625Y-53181250D03*
D18*
X273605625Y-50641250D03*
X279955625Y-48101250D03*
D16*
X168195625Y-72231250D03*
X158035625Y-72231250D03*
D17*
X163115625Y-72231250D03*
D18*
X159305625Y-69691250D03*
X165655625Y-67151250D03*
D16*
X187245625Y-72231250D03*
D17*
X182165625Y-72231250D03*
D16*
X177085625Y-72231250D03*
D18*
X178355625Y-69691250D03*
X184705625Y-67151250D03*
D16*
X196135625Y-72231250D03*
X206295625Y-72231250D03*
D17*
X201215625Y-72231250D03*
D18*
X197405625Y-69691250D03*
X203755625Y-67151250D03*
D16*
X111045625Y-110331250D03*
X100885625Y-110331250D03*
D17*
X105965625Y-110331250D03*
D18*
X102155625Y-107791250D03*
X108505625Y-105251250D03*
D16*
X119935625Y-110331250D03*
D17*
X125015625Y-110331250D03*
D16*
X130095625Y-110331250D03*
D18*
X121205625Y-107791250D03*
X127555625Y-105251250D03*
D16*
X149145625Y-110331250D03*
X138985625Y-110331250D03*
D17*
X144065625Y-110331250D03*
D18*
X140255625Y-107791250D03*
X146605625Y-105251250D03*
D17*
X163115625Y-110331250D03*
D16*
X168195625Y-110331250D03*
X158035625Y-110331250D03*
D18*
X159305625Y-107791250D03*
X165655625Y-105251250D03*
D16*
X177085625Y-110331250D03*
D17*
X182165625Y-110331250D03*
D16*
X187245625Y-110331250D03*
D18*
X178355625Y-107791250D03*
X184705625Y-105251250D03*
D16*
X225345625Y-110331250D03*
X215185625Y-110331250D03*
D17*
X220265625Y-110331250D03*
D18*
X216455625Y-107791250D03*
X222805625Y-105251250D03*
D16*
X234235625Y-110331250D03*
D17*
X239315625Y-110331250D03*
D16*
X244395625Y-110331250D03*
D18*
X235505625Y-107791250D03*
X241855625Y-105251250D03*
D17*
X258365625Y-110331250D03*
D16*
X263445625Y-110331250D03*
X253285625Y-110331250D03*
D18*
X254555625Y-107791250D03*
X260905625Y-105251250D03*
D17*
X277415625Y-110331250D03*
D16*
X272335625Y-110331250D03*
X282495625Y-110331250D03*
D18*
X273605625Y-107791250D03*
X279955625Y-105251250D03*
D16*
X206295625Y-110331250D03*
X196135625Y-110331250D03*
D17*
X201215625Y-110331250D03*
D18*
X197405625Y-107791250D03*
X203755625Y-105251250D03*
D16*
X272335625Y-91281250D03*
D17*
X277415625Y-91281250D03*
D16*
X282495625Y-91281250D03*
D18*
X273605625Y-88741250D03*
X279955625Y-86201250D03*
D16*
X253285625Y-91281250D03*
D17*
X258365625Y-91281250D03*
D16*
X263445625Y-91281250D03*
D18*
X254555625Y-88741250D03*
X260905625Y-86201250D03*
D17*
X220265625Y-91281250D03*
D16*
X215185625Y-91281250D03*
X225345625Y-91281250D03*
D18*
X216455625Y-88741250D03*
X222805625Y-86201250D03*
D16*
X177085625Y-91281250D03*
D17*
X182165625Y-91281250D03*
D16*
X187245625Y-91281250D03*
D18*
X178355625Y-88741250D03*
X184705625Y-86201250D03*
D16*
X138985625Y-91281250D03*
D17*
X144065625Y-91281250D03*
D16*
X149145625Y-91281250D03*
D18*
X140255625Y-88741250D03*
X146605625Y-86201250D03*
D17*
X86915625Y-91281250D03*
D16*
X81835625Y-91281250D03*
X91995625Y-91281250D03*
D18*
X83105625Y-88741250D03*
X89455625Y-86201250D03*
D16*
X168195625Y-91281250D03*
X158035625Y-91281250D03*
D17*
X163115625Y-91281250D03*
D18*
X159305625Y-88741250D03*
X165655625Y-86201250D03*
D17*
X296465625Y-72231250D03*
D16*
X291385625Y-72231250D03*
X301545625Y-72231250D03*
D18*
X292655625Y-69691250D03*
X299005625Y-67151250D03*
D17*
X125015625Y-91281250D03*
D16*
X130095625Y-91281250D03*
X119935625Y-91281250D03*
D18*
X121205625Y-88741250D03*
X127555625Y-86201250D03*
D17*
X105965625Y-91281250D03*
D16*
X100885625Y-91281250D03*
X111045625Y-91281250D03*
D18*
X102155625Y-88741250D03*
X108505625Y-86201250D03*
D16*
X263445625Y-72231250D03*
X253285625Y-72231250D03*
D17*
X258365625Y-72231250D03*
D18*
X254555625Y-69691250D03*
X260905625Y-67151250D03*
D16*
X234235625Y-72231250D03*
X244395625Y-72231250D03*
D17*
X239315625Y-72231250D03*
D18*
X235505625Y-69691250D03*
X241855625Y-67151250D03*
D16*
X282495625Y-72231250D03*
D17*
X277415625Y-72231250D03*
D16*
X272335625Y-72231250D03*
D18*
X273605625Y-69691250D03*
X279955625Y-67151250D03*
D16*
X291385625Y-110331250D03*
D17*
X296465625Y-110331250D03*
D16*
X301545625Y-110331250D03*
D18*
X292655625Y-107791250D03*
X299005625Y-105251250D03*
D16*
X301545625Y-91281250D03*
D17*
X296465625Y-91281250D03*
D16*
X291385625Y-91281250D03*
D18*
X292655625Y-88741250D03*
X299005625Y-86201250D03*
D17*
X320278125Y-53181250D03*
D16*
X325358125Y-53181250D03*
X315198125Y-53181250D03*
D18*
X316468125Y-50641250D03*
X322818125Y-48101250D03*
D16*
X301545625Y-53181250D03*
D17*
X296465625Y-53181250D03*
D16*
X291385625Y-53181250D03*
D18*
X292655625Y-50641250D03*
X299005625Y-48101250D03*
D19*
X317752725Y-60693950D03*
D20*
X322752725Y-60693950D03*
X320252725Y-60693950D03*
D21*
X325852725Y-53193950D03*
X314652725Y-53193950D03*
D20*
X322752725Y-46193950D03*
X317752725Y-46193950D03*
D16*
X111045625Y-53181250D03*
X100885625Y-53181250D03*
D17*
X105965625Y-53181250D03*
D18*
X102155625Y-50641250D03*
X108505625Y-48101250D03*
D17*
X144065625Y-53181250D03*
D16*
X149145625Y-53181250D03*
X138985625Y-53181250D03*
D18*
X140255625Y-50641250D03*
X146605625Y-48101250D03*
D16*
X325358185Y-110331530D03*
X315198185Y-110331530D03*
D17*
X320278185Y-110331530D03*
D18*
X316468185Y-107791530D03*
X322818185Y-105251530D03*
D16*
X325358185Y-72231370D03*
X315198185Y-72231370D03*
D17*
X320278185Y-72231370D03*
D18*
X316468185Y-69691370D03*
X322818185Y-67151370D03*
D16*
X325358185Y-91281450D03*
D17*
X320278185Y-91281450D03*
D16*
X315198185Y-91281450D03*
D18*
X316468185Y-88741450D03*
X322818185Y-86201450D03*
D16*
X196135625Y-91281250D03*
D17*
X201215625Y-91281250D03*
D16*
X206295625Y-91281250D03*
D18*
X197405625Y-88741250D03*
X203755625Y-86201250D03*
D17*
X239315625Y-91281250D03*
D16*
X244395625Y-91281250D03*
X234235625Y-91281250D03*
D18*
X235505625Y-88741250D03*
X241855625Y-86201250D03*
D16*
X81835625Y-110331250D03*
X91995625Y-110331250D03*
D17*
X86915625Y-110331250D03*
D18*
X83105625Y-107791250D03*
X89455625Y-105251250D03*
D16*
X253285625Y-53181250D03*
X263445625Y-53181250D03*
D17*
X258365625Y-53181250D03*
D18*
X254555625Y-50641250D03*
X260905625Y-48101250D03*
D16*
X130095625Y-72231250D03*
D17*
X125015625Y-72231250D03*
D16*
X119935625Y-72231250D03*
D18*
X121205625Y-69691250D03*
X127555625Y-67151250D03*
D16*
X215185625Y-72231250D03*
D17*
X220265625Y-72231250D03*
D16*
X225345625Y-72231250D03*
D18*
X216455625Y-69691250D03*
X222805625Y-67151250D03*
D22*
X117690625Y-89131250D03*
X117690625Y-91181250D03*
D23*
X97990625Y-94706250D03*
X97990625Y-91406250D03*
D24*
X209190625Y-63856250D03*
X209190625Y-67156250D03*
X171090625Y-63856250D03*
X171090625Y-67156250D03*
X136090625Y-63856250D03*
X136090625Y-67156250D03*
X102140625Y-63856250D03*
X102140625Y-67156250D03*
D23*
X285390625Y-56706250D03*
X285390625Y-53406250D03*
X250390625Y-56706250D03*
X250390625Y-53406250D03*
X212290625Y-56706250D03*
X212290625Y-53406250D03*
X209190625Y-56706250D03*
X209190625Y-53406250D03*
X174160999Y-56733377D03*
X174160999Y-53433377D03*
X170985999Y-56733377D03*
X170985999Y-53433377D03*
X155260999Y-56706250D03*
X155260999Y-53406250D03*
D24*
X288490625Y-101906250D03*
X288490625Y-105206250D03*
X285390625Y-101906250D03*
X285390625Y-105206250D03*
X250390625Y-101906250D03*
X250390625Y-105206250D03*
X247290625Y-101899377D03*
X247290625Y-105199377D03*
X212283999Y-101899377D03*
X212283999Y-105199377D03*
X209200000Y-101899377D03*
X209200000Y-105199377D03*
D23*
X212290625Y-94706250D03*
X212290625Y-91406250D03*
D24*
X285390625Y-63856250D03*
X285390625Y-67156250D03*
D23*
X209190625Y-94706250D03*
X209190625Y-91406250D03*
X171085999Y-94706250D03*
X171085999Y-91406250D03*
X132990625Y-94706250D03*
X132990625Y-91406250D03*
D24*
X288490625Y-63856250D03*
X288490625Y-67156250D03*
D23*
X285390625Y-94706250D03*
X285390625Y-91406250D03*
X250390625Y-94706250D03*
X250390625Y-91406250D03*
X247290625Y-94706250D03*
X247290625Y-91406250D03*
D24*
X174190625Y-101906250D03*
X174190625Y-105206250D03*
D23*
X152085999Y-56706250D03*
X152085999Y-53406250D03*
D24*
X212290625Y-63856250D03*
X212290625Y-67156250D03*
D25*
X191140000Y-68800000D03*
X191140000Y-58640000D03*
X191140000Y-63720000D03*
X191546400Y-66260000D03*
X191546400Y-61180000D03*
D26*
X191546400Y-56100000D03*
D23*
X288490625Y-56706250D03*
X288490625Y-53406250D03*
D24*
X312290625Y-101906250D03*
X312290625Y-105206250D03*
X312290625Y-63856250D03*
X312290625Y-67156250D03*
D23*
X312290625Y-94706250D03*
X312290625Y-91406250D03*
D27*
X113640785Y-50081290D03*
X117340785Y-56281290D03*
X117340785Y-50081290D03*
X113640785Y-56281290D03*
D28*
X109290625Y-84256250D03*
X109290625Y-83456250D03*
X109290625Y-82656250D03*
X109290625Y-81856250D03*
X109290625Y-81056250D03*
X109290625Y-80256250D03*
X109290625Y-79456250D03*
X109290625Y-78656250D03*
X109290625Y-77856250D03*
X109290625Y-77056250D03*
X109290625Y-76256250D03*
D29*
X111190625Y-74356250D03*
X111990625Y-74356250D03*
X112790625Y-74356250D03*
X113590625Y-74356250D03*
X114390625Y-74356250D03*
X115190625Y-74356250D03*
X115990625Y-74356250D03*
X116790625Y-74356250D03*
X117590625Y-74356250D03*
X118390625Y-74356250D03*
X119190625Y-74356250D03*
D28*
X121090625Y-76256250D03*
X121090625Y-77056250D03*
X121090625Y-77856250D03*
X121090625Y-78656250D03*
X121090625Y-79456250D03*
X121090625Y-80256250D03*
X121090625Y-81056250D03*
X121090625Y-81856250D03*
X121090625Y-82656250D03*
X121090625Y-83456250D03*
X121090625Y-84256250D03*
D29*
X119190625Y-86156250D03*
X118390625Y-86156250D03*
X117590625Y-86156250D03*
X116790625Y-86156250D03*
X115990625Y-86156250D03*
X115190625Y-86156250D03*
X114390625Y-86156250D03*
X113590625Y-86156250D03*
X112790625Y-86156250D03*
X111990625Y-86156250D03*
X111190625Y-86156250D03*
D30*
X110915625Y-69956250D03*
X108865625Y-69956250D03*
D31*
X120190625Y-64681250D03*
X120190625Y-62631250D03*
X109890625Y-64681250D03*
X109890625Y-62631250D03*
D32*
X113052147Y-66568382D03*
X115102757Y-64517772D03*
X116729103Y-66144118D03*
X114678493Y-68194728D03*
D31*
X91690625Y-60881250D03*
X91690625Y-58831250D03*
D33*
X99329825Y-46312315D03*
X93549825Y-46312315D03*
D34*
X93189825Y-47638315D03*
X93989825Y-47638315D03*
D35*
X95189825Y-47638315D03*
X96185825Y-47638315D03*
X96689825Y-47638315D03*
X97689825Y-47638315D03*
D34*
X99689825Y-47638315D03*
X98889825Y-47638315D03*
D35*
X98189825Y-47638315D03*
X97189825Y-47638315D03*
X95689825Y-47638315D03*
X94689825Y-47638315D03*
D36*
X100739825Y-46863315D03*
D37*
X100739825Y-42663315D03*
X92139825Y-42663315D03*
D36*
X92139825Y-46863315D03*
D31*
X97390625Y-58667186D03*
X97390625Y-56617186D03*
D22*
X86690625Y-47025000D03*
X86690625Y-49075000D03*
X89090625Y-58831250D03*
X89090625Y-60881250D03*
D31*
X86490625Y-60875000D03*
X86490625Y-58825000D03*
D24*
X136090625Y-101899377D03*
X136090625Y-105199377D03*
X132990625Y-101906250D03*
X132990625Y-105206250D03*
D38*
X124565625Y-76556250D03*
X126615625Y-76556250D03*
D31*
X95390625Y-58667186D03*
X95390625Y-56617186D03*
D30*
X104615625Y-84356250D03*
X102565625Y-84356250D03*
X104615625Y-80256250D03*
X102565625Y-80256250D03*
X126615625Y-83456250D03*
X124565625Y-83456250D03*
D24*
X83090625Y-63806250D03*
X83090625Y-67106250D03*
X94890625Y-101906250D03*
X94890625Y-105206250D03*
X97990625Y-101906250D03*
X97990625Y-105206250D03*
X171090625Y-101906250D03*
X171090625Y-105206250D03*
D23*
X136090625Y-94706250D03*
X136090625Y-91406250D03*
X174150000Y-94706250D03*
X174150000Y-91406250D03*
X288490625Y-94706250D03*
X288490625Y-91406250D03*
X94890625Y-94706250D03*
X94890625Y-91406250D03*
X136090625Y-56706250D03*
X136090625Y-53406250D03*
X311990625Y-56706250D03*
X311990625Y-53406250D03*
X247290625Y-56706250D03*
X247290625Y-53406250D03*
X132999835Y-56699950D03*
X132999835Y-53399950D03*
D22*
X107090625Y-62631250D03*
X107090625Y-64681250D03*
D24*
X250390625Y-63856250D03*
X250390625Y-67156250D03*
X247290625Y-63856250D03*
X247290625Y-67156250D03*
X174190625Y-63856250D03*
X174190625Y-67156250D03*
X132940625Y-63856250D03*
X132940625Y-67156250D03*
D22*
X104790625Y-47031250D03*
X104790625Y-49081250D03*
D39*
X97390625Y-51492186D03*
D40*
X97390625Y-53192186D03*
X95390625Y-53192186D03*
X95390625Y-51292186D03*
M02*
