M48
; DRILL file {KiCad 7.0.1-0} date 2023 May 26, Friday 12:53:34
; FORMAT={-:-/ absolute / inch / decimal}
; #@! TF.CreationDate,2023-05-26T12:53:34-05:00
; #@! TF.GenerationSoftware,Kicad,Pcbnew,7.0.1-0
; #@! TF.FileFunction,Plated,1,2,PTH
FMAT,2
INCH
; #@! TA.AperFunction,Plated,PTH,ViaDrill
T1C0.0160
; #@! TA.AperFunction,Plated,PTH,ComponentDrill
T2C0.0300
; #@! TA.AperFunction,Plated,PTH,ComponentDrill
T3C0.0394
; #@! TA.AperFunction,Plated,PTH,ComponentDrill
T4C0.1181
%
G90
G05
T1
X1.1764Y-3.6959
X1.1784Y-0.8907
X1.2256Y-2.2953
X1.3031Y-2.8868
X1.5829Y-2.8711
X1.5829Y-2.9508
X2.0531Y-2.876
X2.325Y-2.7628
X2.325Y-2.8435
X2.325Y-2.9754
X2.325Y-3.5108
X2.325Y-3.5906
X2.3438Y-2.0098
X2.3438Y-2.0896
X2.578Y-0.8907
X2.578Y-3.6447
X2.7054Y-1.2598
X2.7054Y-1.3396
X2.7054Y-2.0896
X2.7056Y-2.0106
X2.8031Y-2.8642
X3.079Y-2.7628
X3.079Y-2.8366
X3.079Y-2.9754
X3.0839Y-3.5108
X3.0839Y-3.5906
X3.4642Y-2.0197
X3.4642Y-2.0994
X3.4682Y-1.2591
X3.4682Y-1.3386
X3.5531Y-2.8425
X3.8201Y-2.7923
X3.8201Y-2.9754
X3.828Y-3.5108
X3.828Y-3.5906
X4.2123Y-1.2589
X4.2123Y-1.3386
X4.2142Y-2.0197
X4.2142Y-2.0994
X4.3031Y-2.1752
X4.5731Y-2.7923
X4.5731Y-2.9754
X4.5829Y-3.5118
X4.5829Y-3.5915
X4.828Y-0.8907
X4.828Y-3.6969
X4.9642Y-1.2589
X4.9642Y-1.3386
X4.9642Y-2.0098
X4.9642Y-2.0896
X5.0531Y-2.1644
X5.326Y-3.5118
X5.326Y-3.5915
X5.3506Y-2.7923
X5.3506Y-2.9754
X5.7103Y-2.0098
X5.7103Y-2.0896
X5.7113Y-1.2589
X5.7113Y-1.3386
X5.8031Y-2.1516
X6.079Y-3.5118
X6.079Y-3.5915
X6.1016Y-2.7923
X6.1016Y-2.9754
X6.4642Y-2.0098
X6.4642Y-2.0896
X6.4682Y-1.2589
X6.4682Y-1.3386
X6.5531Y-2.1388
X6.825Y-3.5118
X6.825Y-3.5915
X6.8477Y-2.7923
X6.8477Y-2.9754
X7.078Y-0.8907
X7.078Y-3.6969
X7.2162Y-1.2589
X7.2162Y-1.3386
X7.2162Y-2.0098
X7.2162Y-2.0896
X7.3031Y-2.1171
X7.5741Y-2.7923
X7.5741Y-2.9754
X7.5829Y-3.5118
X7.5829Y-3.5915
X7.9603Y-2.0098
X7.9603Y-2.0896
X7.9691Y-1.2589
X7.9691Y-1.3386
X8.0531Y-2.1014
X8.327Y-3.5118
X8.327Y-3.5915
X8.33Y-2.7923
X8.33Y-2.9754
X8.727Y-2.0187
X8.727Y-2.0886
X8.7617Y-1.6748
X8.8031Y-1.2717
X8.8414Y-1.6748
X9.0717Y-1.2515
X9.0717Y-1.3312
X9.08Y-3.5118
X9.08Y-3.5915
X9.1105Y-2.7953
X9.1105Y-2.9783
X9.1351Y-1.4365
X9.1351Y-1.5162
X9.2512Y-1.5507
X9.2512Y-1.6304
X9.327Y-0.8907
X9.4711Y-2.0089
X9.4711Y-2.0886
X9.5148Y-1.5463
X9.5148Y-1.685
X9.5262Y-1.2705
X9.5876Y-2.0522
X9.5961Y-1.5461
X9.5961Y-1.6848
X9.825Y-3.5118
X9.825Y-3.5915
X9.8287Y-1.9892
X9.8317Y-1.5315
X9.8319Y-1.2691
X9.8319Y-1.3354
X9.8319Y-1.4291
X9.8504Y-2.3435
X9.8516Y-2.7953
X9.8516Y-2.9783
X9.9131Y-1.3034
X9.9902Y-1.813
X9.9941Y-2.753
X10.0217Y-1.8494
X10.0463Y-2.0108
X10.0463Y-2.0945
X10.0463Y-2.1939
X10.0463Y-2.2746
X10.0886Y-3.0679
X10.0886Y-3.4183
X10.1043Y-2.0118
X10.1043Y-2.0955
X10.1043Y-2.1949
X10.1043Y-2.2756
X10.1112Y-3.5217
X10.1142Y-2.9163
X10.1683Y-2.0108
X10.1683Y-2.0945
X10.1683Y-2.1939
X10.1683Y-2.2746
X10.1791Y-1.8494
X10.2032Y-2.5044
X10.2313Y-2.0118
X10.2313Y-2.0955
X10.2313Y-2.1949
X10.2313Y-2.2756
X10.2347Y-2.7361
X10.262Y-2.7624
X10.2898Y-2.7345
X10.2953Y-2.0098
X10.2953Y-2.0935
X10.2953Y-2.1929
X10.2953Y-2.2736
X10.3012Y-2.9163
X10.3071Y-3.0679
X10.3071Y-3.4183
X10.3169Y-2.7612
X10.3238Y-0.8622
X10.345Y-2.7356
X10.3504Y-1.9478
X10.3563Y-1.7205
X10.3622Y-3.5197
X10.372Y-2.3996
X10.372Y-2.7622
X10.3858Y-1.4626
X10.3858Y-1.6388
X10.4026Y-2.3642
X10.4341Y-1.3022
X10.436Y-2.4006
X10.4537Y-1.999
X10.4633Y-2.3632
X10.4921Y-2.4006
X10.5384Y-2.1772
X10.6083Y-1.6033
X10.6083Y-1.6831
X10.6467Y-1.7854
X10.7469Y-1.3406
X10.747Y-1.2593
X10.7734Y-2.8415
X10.7736Y-2.7602
X10.8071Y-1.8524
X10.8996Y-2.128
X10.8996Y-2.2343
X10.9043Y-3.6969
X10.9219Y-0.8907
X10.9567Y-2.3583
T2
X10.2057Y-0.9114
X10.2057Y-1.0114
X10.2057Y-1.1114
X10.2057Y-1.2114
X10.2057Y-1.3114
X10.2057Y-1.4114
T3
X10.1112Y-3.6909
X10.2112Y-3.6909
X10.3112Y-3.6909
X10.4112Y-3.6909
X10.5112Y-3.6909
X10.6112Y-3.6909
X10.7112Y-3.6909
X10.8112Y-3.6909
T4
X1.3031Y-1.0719
X1.3031Y-1.8219
X1.3031Y-2.5719
X1.3031Y-3.3219
X1.5531Y-0.9719
X1.5531Y-1.7219
X1.5531Y-2.4719
X1.5531Y-3.2219
X2.0531Y-1.0719
X2.0531Y-1.8219
X2.0531Y-2.5719
X2.0531Y-3.3219
X2.3031Y-0.9719
X2.3031Y-1.7219
X2.3031Y-2.4719
X2.3031Y-3.2219
X2.8031Y-1.0719
X2.8031Y-1.8219
X2.8031Y-2.5719
X2.8031Y-3.3219
X3.0531Y-0.9719
X3.0531Y-1.7219
X3.0531Y-2.4719
X3.0531Y-3.2219
X3.5531Y-1.0719
X3.5531Y-1.8219
X3.5531Y-2.5719
X3.5531Y-3.3219
X3.8031Y-0.9719
X3.8031Y-1.7219
X3.8031Y-2.4719
X3.8031Y-3.2219
X4.3031Y-1.0719
X4.3031Y-1.8219
X4.3031Y-2.5719
X4.3031Y-3.3219
X4.5531Y-0.9719
X4.5531Y-1.7219
X4.5531Y-2.4719
X4.5531Y-3.2219
X5.0531Y-1.0719
X5.0531Y-1.8219
X5.0531Y-2.5719
X5.0531Y-3.3219
X5.3031Y-0.9719
X5.3031Y-1.7219
X5.3031Y-2.4719
X5.3031Y-3.2219
X5.8031Y-1.0719
X5.8031Y-1.8219
X5.8031Y-2.5719
X5.8031Y-3.3219
X6.0531Y-0.9719
X6.0531Y-1.7219
X6.0531Y-2.4719
X6.0531Y-3.2219
X6.5531Y-1.0719
X6.5531Y-1.8219
X6.5531Y-2.5719
X6.5531Y-3.3219
X6.8031Y-0.9719
X6.8031Y-1.7219
X6.8031Y-2.4719
X6.8031Y-3.2219
X7.3031Y-1.0719
X7.3031Y-1.8219
X7.3031Y-2.5719
X7.3031Y-3.3219
X7.5531Y-0.9719
X7.5531Y-1.7219
X7.5531Y-2.4719
X7.5531Y-3.2219
X8.0531Y-1.0719
X8.0531Y-1.8219
X8.0531Y-2.5719
X8.0531Y-3.3219
X8.3031Y-0.9719
X8.3031Y-1.7219
X8.3031Y-2.4719
X8.3031Y-3.2219
X8.8031Y-1.0719
X8.8031Y-1.8219
X8.8031Y-2.5719
X8.8031Y-3.3219
X9.0531Y-0.9719
X9.0531Y-1.7219
X9.0531Y-2.4719
X9.0531Y-3.2219
X9.5531Y-1.0719
X9.5531Y-1.8219
X9.5531Y-2.5719
X9.5531Y-3.3219
X9.8031Y-0.9719
X9.8031Y-1.7219
X9.8031Y-2.4719
X9.8031Y-3.2219
X10.4906Y-1.0719
X10.4906Y-1.8219
X10.4906Y-2.5719
X10.4906Y-3.3219
X10.7406Y-0.9719
X10.7406Y-1.7219
X10.7406Y-2.4719
X10.7406Y-3.2219
T0
M30
