%TF.GenerationSoftware,KiCad,Pcbnew,7.0.1-0*%
%TF.CreationDate,2023-05-19T13:41:41-05:00*%
%TF.ProjectId,pcb,7063622e-6b69-4636-9164-5f7063625858,rev?*%
%TF.SameCoordinates,Original*%
%TF.FileFunction,Legend,Bot*%
%TF.FilePolarity,Positive*%
%FSLAX46Y46*%
G04 Gerber Fmt 4.6, Leading zero omitted, Abs format (unit mm)*
G04 Created by KiCad (PCBNEW 7.0.1-0) date 2023-05-19 13:41:41*
%MOMM*%
%LPD*%
G01*
G04 APERTURE LIST*
%ADD10C,0.150000*%
%ADD11C,0.120000*%
G04 APERTURE END LIST*
D10*
X252120541Y-94837619D02*
X252120541Y-94313809D01*
X252120541Y-94313809D02*
X252168160Y-94218571D01*
X252168160Y-94218571D02*
X252263398Y-94170952D01*
X252263398Y-94170952D02*
X252453874Y-94170952D01*
X252453874Y-94170952D02*
X252549112Y-94218571D01*
X252120541Y-94790000D02*
X252215779Y-94837619D01*
X252215779Y-94837619D02*
X252453874Y-94837619D01*
X252453874Y-94837619D02*
X252549112Y-94790000D01*
X252549112Y-94790000D02*
X252596731Y-94694761D01*
X252596731Y-94694761D02*
X252596731Y-94599523D01*
X252596731Y-94599523D02*
X252549112Y-94504285D01*
X252549112Y-94504285D02*
X252453874Y-94456666D01*
X252453874Y-94456666D02*
X252215779Y-94456666D01*
X252215779Y-94456666D02*
X252120541Y-94409047D01*
X251644350Y-94170952D02*
X251644350Y-94837619D01*
X251644350Y-94266190D02*
X251596731Y-94218571D01*
X251596731Y-94218571D02*
X251501493Y-94170952D01*
X251501493Y-94170952D02*
X251358636Y-94170952D01*
X251358636Y-94170952D02*
X251263398Y-94218571D01*
X251263398Y-94218571D02*
X251215779Y-94313809D01*
X251215779Y-94313809D02*
X251215779Y-94837619D01*
X250834826Y-94170952D02*
X250596731Y-94837619D01*
X250358636Y-94170952D02*
X250596731Y-94837619D01*
X250596731Y-94837619D02*
X250691969Y-95075714D01*
X250691969Y-95075714D02*
X250739588Y-95123333D01*
X250739588Y-95123333D02*
X250834826Y-95170952D01*
X250120540Y-94170952D02*
X249739588Y-94170952D01*
X249977683Y-93837619D02*
X249977683Y-94694761D01*
X249977683Y-94694761D02*
X249930064Y-94790000D01*
X249930064Y-94790000D02*
X249834826Y-94837619D01*
X249834826Y-94837619D02*
X249739588Y-94837619D01*
X249406254Y-94837619D02*
X249406254Y-93837619D01*
X248977683Y-94837619D02*
X248977683Y-94313809D01*
X248977683Y-94313809D02*
X249025302Y-94218571D01*
X249025302Y-94218571D02*
X249120540Y-94170952D01*
X249120540Y-94170952D02*
X249263397Y-94170952D01*
X249263397Y-94170952D02*
X249358635Y-94218571D01*
X249358635Y-94218571D02*
X249406254Y-94266190D01*
X248501492Y-94837619D02*
X248501492Y-94170952D01*
X248501492Y-93837619D02*
X248549111Y-93885238D01*
X248549111Y-93885238D02*
X248501492Y-93932857D01*
X248501492Y-93932857D02*
X248453873Y-93885238D01*
X248453873Y-93885238D02*
X248501492Y-93837619D01*
X248501492Y-93837619D02*
X248501492Y-93932857D01*
X248025302Y-94170952D02*
X248025302Y-94837619D01*
X248025302Y-94266190D02*
X247977683Y-94218571D01*
X247977683Y-94218571D02*
X247882445Y-94170952D01*
X247882445Y-94170952D02*
X247739588Y-94170952D01*
X247739588Y-94170952D02*
X247644350Y-94218571D01*
X247644350Y-94218571D02*
X247596731Y-94313809D01*
X247596731Y-94313809D02*
X247596731Y-94837619D01*
X246691969Y-94170952D02*
X246691969Y-94980476D01*
X246691969Y-94980476D02*
X246739588Y-95075714D01*
X246739588Y-95075714D02*
X246787207Y-95123333D01*
X246787207Y-95123333D02*
X246882445Y-95170952D01*
X246882445Y-95170952D02*
X247025302Y-95170952D01*
X247025302Y-95170952D02*
X247120540Y-95123333D01*
X246691969Y-94790000D02*
X246787207Y-94837619D01*
X246787207Y-94837619D02*
X246977683Y-94837619D01*
X246977683Y-94837619D02*
X247072921Y-94790000D01*
X247072921Y-94790000D02*
X247120540Y-94742380D01*
X247120540Y-94742380D02*
X247168159Y-94647142D01*
X247168159Y-94647142D02*
X247168159Y-94361428D01*
X247168159Y-94361428D02*
X247120540Y-94266190D01*
X247120540Y-94266190D02*
X247072921Y-94218571D01*
X247072921Y-94218571D02*
X246977683Y-94170952D01*
X246977683Y-94170952D02*
X246787207Y-94170952D01*
X246787207Y-94170952D02*
X246691969Y-94218571D01*
X245453873Y-94837619D02*
X245453873Y-94170952D01*
X245453873Y-93837619D02*
X245501492Y-93885238D01*
X245501492Y-93885238D02*
X245453873Y-93932857D01*
X245453873Y-93932857D02*
X245406254Y-93885238D01*
X245406254Y-93885238D02*
X245453873Y-93837619D01*
X245453873Y-93837619D02*
X245453873Y-93932857D01*
X245025302Y-94790000D02*
X244930064Y-94837619D01*
X244930064Y-94837619D02*
X244739588Y-94837619D01*
X244739588Y-94837619D02*
X244644350Y-94790000D01*
X244644350Y-94790000D02*
X244596731Y-94694761D01*
X244596731Y-94694761D02*
X244596731Y-94647142D01*
X244596731Y-94647142D02*
X244644350Y-94551904D01*
X244644350Y-94551904D02*
X244739588Y-94504285D01*
X244739588Y-94504285D02*
X244882445Y-94504285D01*
X244882445Y-94504285D02*
X244977683Y-94456666D01*
X244977683Y-94456666D02*
X245025302Y-94361428D01*
X245025302Y-94361428D02*
X245025302Y-94313809D01*
X245025302Y-94313809D02*
X244977683Y-94218571D01*
X244977683Y-94218571D02*
X244882445Y-94170952D01*
X244882445Y-94170952D02*
X244739588Y-94170952D01*
X244739588Y-94170952D02*
X244644350Y-94218571D01*
X243406254Y-94170952D02*
X243406254Y-95170952D01*
X243406254Y-94218571D02*
X243311016Y-94170952D01*
X243311016Y-94170952D02*
X243120540Y-94170952D01*
X243120540Y-94170952D02*
X243025302Y-94218571D01*
X243025302Y-94218571D02*
X242977683Y-94266190D01*
X242977683Y-94266190D02*
X242930064Y-94361428D01*
X242930064Y-94361428D02*
X242930064Y-94647142D01*
X242930064Y-94647142D02*
X242977683Y-94742380D01*
X242977683Y-94742380D02*
X243025302Y-94790000D01*
X243025302Y-94790000D02*
X243120540Y-94837619D01*
X243120540Y-94837619D02*
X243311016Y-94837619D01*
X243311016Y-94837619D02*
X243406254Y-94790000D01*
X242358635Y-94837619D02*
X242453873Y-94790000D01*
X242453873Y-94790000D02*
X242501492Y-94742380D01*
X242501492Y-94742380D02*
X242549111Y-94647142D01*
X242549111Y-94647142D02*
X242549111Y-94361428D01*
X242549111Y-94361428D02*
X242501492Y-94266190D01*
X242501492Y-94266190D02*
X242453873Y-94218571D01*
X242453873Y-94218571D02*
X242358635Y-94170952D01*
X242358635Y-94170952D02*
X242215778Y-94170952D01*
X242215778Y-94170952D02*
X242120540Y-94218571D01*
X242120540Y-94218571D02*
X242072921Y-94266190D01*
X242072921Y-94266190D02*
X242025302Y-94361428D01*
X242025302Y-94361428D02*
X242025302Y-94647142D01*
X242025302Y-94647142D02*
X242072921Y-94742380D01*
X242072921Y-94742380D02*
X242120540Y-94790000D01*
X242120540Y-94790000D02*
X242215778Y-94837619D01*
X242215778Y-94837619D02*
X242358635Y-94837619D01*
X241644349Y-94790000D02*
X241549111Y-94837619D01*
X241549111Y-94837619D02*
X241358635Y-94837619D01*
X241358635Y-94837619D02*
X241263397Y-94790000D01*
X241263397Y-94790000D02*
X241215778Y-94694761D01*
X241215778Y-94694761D02*
X241215778Y-94647142D01*
X241215778Y-94647142D02*
X241263397Y-94551904D01*
X241263397Y-94551904D02*
X241358635Y-94504285D01*
X241358635Y-94504285D02*
X241501492Y-94504285D01*
X241501492Y-94504285D02*
X241596730Y-94456666D01*
X241596730Y-94456666D02*
X241644349Y-94361428D01*
X241644349Y-94361428D02*
X241644349Y-94313809D01*
X241644349Y-94313809D02*
X241596730Y-94218571D01*
X241596730Y-94218571D02*
X241501492Y-94170952D01*
X241501492Y-94170952D02*
X241358635Y-94170952D01*
X241358635Y-94170952D02*
X241263397Y-94218571D01*
X240834825Y-94790000D02*
X240739587Y-94837619D01*
X240739587Y-94837619D02*
X240549111Y-94837619D01*
X240549111Y-94837619D02*
X240453873Y-94790000D01*
X240453873Y-94790000D02*
X240406254Y-94694761D01*
X240406254Y-94694761D02*
X240406254Y-94647142D01*
X240406254Y-94647142D02*
X240453873Y-94551904D01*
X240453873Y-94551904D02*
X240549111Y-94504285D01*
X240549111Y-94504285D02*
X240691968Y-94504285D01*
X240691968Y-94504285D02*
X240787206Y-94456666D01*
X240787206Y-94456666D02*
X240834825Y-94361428D01*
X240834825Y-94361428D02*
X240834825Y-94313809D01*
X240834825Y-94313809D02*
X240787206Y-94218571D01*
X240787206Y-94218571D02*
X240691968Y-94170952D01*
X240691968Y-94170952D02*
X240549111Y-94170952D01*
X240549111Y-94170952D02*
X240453873Y-94218571D01*
X239977682Y-94837619D02*
X239977682Y-94170952D01*
X239977682Y-93837619D02*
X240025301Y-93885238D01*
X240025301Y-93885238D02*
X239977682Y-93932857D01*
X239977682Y-93932857D02*
X239930063Y-93885238D01*
X239930063Y-93885238D02*
X239977682Y-93837619D01*
X239977682Y-93837619D02*
X239977682Y-93932857D01*
X239501492Y-94837619D02*
X239501492Y-93837619D01*
X239501492Y-94218571D02*
X239406254Y-94170952D01*
X239406254Y-94170952D02*
X239215778Y-94170952D01*
X239215778Y-94170952D02*
X239120540Y-94218571D01*
X239120540Y-94218571D02*
X239072921Y-94266190D01*
X239072921Y-94266190D02*
X239025302Y-94361428D01*
X239025302Y-94361428D02*
X239025302Y-94647142D01*
X239025302Y-94647142D02*
X239072921Y-94742380D01*
X239072921Y-94742380D02*
X239120540Y-94790000D01*
X239120540Y-94790000D02*
X239215778Y-94837619D01*
X239215778Y-94837619D02*
X239406254Y-94837619D01*
X239406254Y-94837619D02*
X239501492Y-94790000D01*
X238453873Y-94837619D02*
X238549111Y-94790000D01*
X238549111Y-94790000D02*
X238596730Y-94694761D01*
X238596730Y-94694761D02*
X238596730Y-93837619D01*
X237691968Y-94790000D02*
X237787206Y-94837619D01*
X237787206Y-94837619D02*
X237977682Y-94837619D01*
X237977682Y-94837619D02*
X238072920Y-94790000D01*
X238072920Y-94790000D02*
X238120539Y-94694761D01*
X238120539Y-94694761D02*
X238120539Y-94313809D01*
X238120539Y-94313809D02*
X238072920Y-94218571D01*
X238072920Y-94218571D02*
X237977682Y-94170952D01*
X237977682Y-94170952D02*
X237787206Y-94170952D01*
X237787206Y-94170952D02*
X237691968Y-94218571D01*
X237691968Y-94218571D02*
X237644349Y-94313809D01*
X237644349Y-94313809D02*
X237644349Y-94409047D01*
X237644349Y-94409047D02*
X238120539Y-94504285D01*
X236549110Y-94170952D02*
X236358634Y-94837619D01*
X236358634Y-94837619D02*
X236168158Y-94361428D01*
X236168158Y-94361428D02*
X235977682Y-94837619D01*
X235977682Y-94837619D02*
X235787206Y-94170952D01*
X235406253Y-94837619D02*
X235406253Y-94170952D01*
X235406253Y-93837619D02*
X235453872Y-93885238D01*
X235453872Y-93885238D02*
X235406253Y-93932857D01*
X235406253Y-93932857D02*
X235358634Y-93885238D01*
X235358634Y-93885238D02*
X235406253Y-93837619D01*
X235406253Y-93837619D02*
X235406253Y-93932857D01*
X235072920Y-94170952D02*
X234691968Y-94170952D01*
X234930063Y-93837619D02*
X234930063Y-94694761D01*
X234930063Y-94694761D02*
X234882444Y-94790000D01*
X234882444Y-94790000D02*
X234787206Y-94837619D01*
X234787206Y-94837619D02*
X234691968Y-94837619D01*
X234358634Y-94837619D02*
X234358634Y-93837619D01*
X233930063Y-94837619D02*
X233930063Y-94313809D01*
X233930063Y-94313809D02*
X233977682Y-94218571D01*
X233977682Y-94218571D02*
X234072920Y-94170952D01*
X234072920Y-94170952D02*
X234215777Y-94170952D01*
X234215777Y-94170952D02*
X234311015Y-94218571D01*
X234311015Y-94218571D02*
X234358634Y-94266190D01*
X232263396Y-94837619D02*
X232263396Y-94313809D01*
X232263396Y-94313809D02*
X232311015Y-94218571D01*
X232311015Y-94218571D02*
X232406253Y-94170952D01*
X232406253Y-94170952D02*
X232596729Y-94170952D01*
X232596729Y-94170952D02*
X232691967Y-94218571D01*
X232263396Y-94790000D02*
X232358634Y-94837619D01*
X232358634Y-94837619D02*
X232596729Y-94837619D01*
X232596729Y-94837619D02*
X232691967Y-94790000D01*
X232691967Y-94790000D02*
X232739586Y-94694761D01*
X232739586Y-94694761D02*
X232739586Y-94599523D01*
X232739586Y-94599523D02*
X232691967Y-94504285D01*
X232691967Y-94504285D02*
X232596729Y-94456666D01*
X232596729Y-94456666D02*
X232358634Y-94456666D01*
X232358634Y-94456666D02*
X232263396Y-94409047D01*
X230596729Y-94837619D02*
X230596729Y-93837619D01*
X230596729Y-94790000D02*
X230691967Y-94837619D01*
X230691967Y-94837619D02*
X230882443Y-94837619D01*
X230882443Y-94837619D02*
X230977681Y-94790000D01*
X230977681Y-94790000D02*
X231025300Y-94742380D01*
X231025300Y-94742380D02*
X231072919Y-94647142D01*
X231072919Y-94647142D02*
X231072919Y-94361428D01*
X231072919Y-94361428D02*
X231025300Y-94266190D01*
X231025300Y-94266190D02*
X230977681Y-94218571D01*
X230977681Y-94218571D02*
X230882443Y-94170952D01*
X230882443Y-94170952D02*
X230691967Y-94170952D01*
X230691967Y-94170952D02*
X230596729Y-94218571D01*
X230120538Y-94837619D02*
X230120538Y-94170952D01*
X230120538Y-94361428D02*
X230072919Y-94266190D01*
X230072919Y-94266190D02*
X230025300Y-94218571D01*
X230025300Y-94218571D02*
X229930062Y-94170952D01*
X229930062Y-94170952D02*
X229834824Y-94170952D01*
X229120538Y-94790000D02*
X229215776Y-94837619D01*
X229215776Y-94837619D02*
X229406252Y-94837619D01*
X229406252Y-94837619D02*
X229501490Y-94790000D01*
X229501490Y-94790000D02*
X229549109Y-94694761D01*
X229549109Y-94694761D02*
X229549109Y-94313809D01*
X229549109Y-94313809D02*
X229501490Y-94218571D01*
X229501490Y-94218571D02*
X229406252Y-94170952D01*
X229406252Y-94170952D02*
X229215776Y-94170952D01*
X229215776Y-94170952D02*
X229120538Y-94218571D01*
X229120538Y-94218571D02*
X229072919Y-94313809D01*
X229072919Y-94313809D02*
X229072919Y-94409047D01*
X229072919Y-94409047D02*
X229549109Y-94504285D01*
X228644347Y-94837619D02*
X228644347Y-94170952D01*
X228644347Y-94266190D02*
X228596728Y-94218571D01*
X228596728Y-94218571D02*
X228501490Y-94170952D01*
X228501490Y-94170952D02*
X228358633Y-94170952D01*
X228358633Y-94170952D02*
X228263395Y-94218571D01*
X228263395Y-94218571D02*
X228215776Y-94313809D01*
X228215776Y-94313809D02*
X228215776Y-94837619D01*
X228215776Y-94313809D02*
X228168157Y-94218571D01*
X228168157Y-94218571D02*
X228072919Y-94170952D01*
X228072919Y-94170952D02*
X227930062Y-94170952D01*
X227930062Y-94170952D02*
X227834823Y-94218571D01*
X227834823Y-94218571D02*
X227787204Y-94313809D01*
X227787204Y-94313809D02*
X227787204Y-94837619D01*
X226930062Y-94790000D02*
X227025300Y-94837619D01*
X227025300Y-94837619D02*
X227215776Y-94837619D01*
X227215776Y-94837619D02*
X227311014Y-94790000D01*
X227311014Y-94790000D02*
X227358633Y-94694761D01*
X227358633Y-94694761D02*
X227358633Y-94313809D01*
X227358633Y-94313809D02*
X227311014Y-94218571D01*
X227311014Y-94218571D02*
X227215776Y-94170952D01*
X227215776Y-94170952D02*
X227025300Y-94170952D01*
X227025300Y-94170952D02*
X226930062Y-94218571D01*
X226930062Y-94218571D02*
X226882443Y-94313809D01*
X226882443Y-94313809D02*
X226882443Y-94409047D01*
X226882443Y-94409047D02*
X227358633Y-94504285D01*
X226311014Y-94837619D02*
X226406252Y-94790000D01*
X226406252Y-94790000D02*
X226453871Y-94694761D01*
X226453871Y-94694761D02*
X226453871Y-93837619D01*
X224739585Y-94837619D02*
X224739585Y-94313809D01*
X224739585Y-94313809D02*
X224787204Y-94218571D01*
X224787204Y-94218571D02*
X224882442Y-94170952D01*
X224882442Y-94170952D02*
X225072918Y-94170952D01*
X225072918Y-94170952D02*
X225168156Y-94218571D01*
X224739585Y-94790000D02*
X224834823Y-94837619D01*
X224834823Y-94837619D02*
X225072918Y-94837619D01*
X225072918Y-94837619D02*
X225168156Y-94790000D01*
X225168156Y-94790000D02*
X225215775Y-94694761D01*
X225215775Y-94694761D02*
X225215775Y-94599523D01*
X225215775Y-94599523D02*
X225168156Y-94504285D01*
X225168156Y-94504285D02*
X225072918Y-94456666D01*
X225072918Y-94456666D02*
X224834823Y-94456666D01*
X224834823Y-94456666D02*
X224739585Y-94409047D01*
X224263394Y-94170952D02*
X224263394Y-94837619D01*
X224263394Y-94266190D02*
X224215775Y-94218571D01*
X224215775Y-94218571D02*
X224120537Y-94170952D01*
X224120537Y-94170952D02*
X223977680Y-94170952D01*
X223977680Y-94170952D02*
X223882442Y-94218571D01*
X223882442Y-94218571D02*
X223834823Y-94313809D01*
X223834823Y-94313809D02*
X223834823Y-94837619D01*
X222930061Y-94837619D02*
X222930061Y-93837619D01*
X222930061Y-94790000D02*
X223025299Y-94837619D01*
X223025299Y-94837619D02*
X223215775Y-94837619D01*
X223215775Y-94837619D02*
X223311013Y-94790000D01*
X223311013Y-94790000D02*
X223358632Y-94742380D01*
X223358632Y-94742380D02*
X223406251Y-94647142D01*
X223406251Y-94647142D02*
X223406251Y-94361428D01*
X223406251Y-94361428D02*
X223358632Y-94266190D01*
X223358632Y-94266190D02*
X223311013Y-94218571D01*
X223311013Y-94218571D02*
X223215775Y-94170952D01*
X223215775Y-94170952D02*
X223025299Y-94170952D01*
X223025299Y-94170952D02*
X222930061Y-94218571D01*
X221263394Y-94837619D02*
X221263394Y-94313809D01*
X221263394Y-94313809D02*
X221311013Y-94218571D01*
X221311013Y-94218571D02*
X221406251Y-94170952D01*
X221406251Y-94170952D02*
X221596727Y-94170952D01*
X221596727Y-94170952D02*
X221691965Y-94218571D01*
X221263394Y-94790000D02*
X221358632Y-94837619D01*
X221358632Y-94837619D02*
X221596727Y-94837619D01*
X221596727Y-94837619D02*
X221691965Y-94790000D01*
X221691965Y-94790000D02*
X221739584Y-94694761D01*
X221739584Y-94694761D02*
X221739584Y-94599523D01*
X221739584Y-94599523D02*
X221691965Y-94504285D01*
X221691965Y-94504285D02*
X221596727Y-94456666D01*
X221596727Y-94456666D02*
X221358632Y-94456666D01*
X221358632Y-94456666D02*
X221263394Y-94409047D01*
X219882441Y-94837619D02*
X219977679Y-94790000D01*
X219977679Y-94790000D02*
X220025298Y-94694761D01*
X220025298Y-94694761D02*
X220025298Y-93837619D01*
X219501488Y-94837619D02*
X219501488Y-94170952D01*
X219501488Y-93837619D02*
X219549107Y-93885238D01*
X219549107Y-93885238D02*
X219501488Y-93932857D01*
X219501488Y-93932857D02*
X219453869Y-93885238D01*
X219453869Y-93885238D02*
X219501488Y-93837619D01*
X219501488Y-93837619D02*
X219501488Y-93932857D01*
X219168155Y-94170952D02*
X218787203Y-94170952D01*
X219025298Y-93837619D02*
X219025298Y-94694761D01*
X219025298Y-94694761D02*
X218977679Y-94790000D01*
X218977679Y-94790000D02*
X218882441Y-94837619D01*
X218882441Y-94837619D02*
X218787203Y-94837619D01*
X218596726Y-94170952D02*
X218215774Y-94170952D01*
X218453869Y-93837619D02*
X218453869Y-94694761D01*
X218453869Y-94694761D02*
X218406250Y-94790000D01*
X218406250Y-94790000D02*
X218311012Y-94837619D01*
X218311012Y-94837619D02*
X218215774Y-94837619D01*
X217739583Y-94837619D02*
X217834821Y-94790000D01*
X217834821Y-94790000D02*
X217882440Y-94694761D01*
X217882440Y-94694761D02*
X217882440Y-93837619D01*
X216977678Y-94790000D02*
X217072916Y-94837619D01*
X217072916Y-94837619D02*
X217263392Y-94837619D01*
X217263392Y-94837619D02*
X217358630Y-94790000D01*
X217358630Y-94790000D02*
X217406249Y-94694761D01*
X217406249Y-94694761D02*
X217406249Y-94313809D01*
X217406249Y-94313809D02*
X217358630Y-94218571D01*
X217358630Y-94218571D02*
X217263392Y-94170952D01*
X217263392Y-94170952D02*
X217072916Y-94170952D01*
X217072916Y-94170952D02*
X216977678Y-94218571D01*
X216977678Y-94218571D02*
X216930059Y-94313809D01*
X216930059Y-94313809D02*
X216930059Y-94409047D01*
X216930059Y-94409047D02*
X217406249Y-94504285D01*
X215311011Y-94790000D02*
X215406249Y-94837619D01*
X215406249Y-94837619D02*
X215596725Y-94837619D01*
X215596725Y-94837619D02*
X215691963Y-94790000D01*
X215691963Y-94790000D02*
X215739582Y-94742380D01*
X215739582Y-94742380D02*
X215787201Y-94647142D01*
X215787201Y-94647142D02*
X215787201Y-94361428D01*
X215787201Y-94361428D02*
X215739582Y-94266190D01*
X215739582Y-94266190D02*
X215691963Y-94218571D01*
X215691963Y-94218571D02*
X215596725Y-94170952D01*
X215596725Y-94170952D02*
X215406249Y-94170952D01*
X215406249Y-94170952D02*
X215311011Y-94218571D01*
X214739582Y-94837619D02*
X214834820Y-94790000D01*
X214834820Y-94790000D02*
X214882439Y-94742380D01*
X214882439Y-94742380D02*
X214930058Y-94647142D01*
X214930058Y-94647142D02*
X214930058Y-94361428D01*
X214930058Y-94361428D02*
X214882439Y-94266190D01*
X214882439Y-94266190D02*
X214834820Y-94218571D01*
X214834820Y-94218571D02*
X214739582Y-94170952D01*
X214739582Y-94170952D02*
X214596725Y-94170952D01*
X214596725Y-94170952D02*
X214501487Y-94218571D01*
X214501487Y-94218571D02*
X214453868Y-94266190D01*
X214453868Y-94266190D02*
X214406249Y-94361428D01*
X214406249Y-94361428D02*
X214406249Y-94647142D01*
X214406249Y-94647142D02*
X214453868Y-94742380D01*
X214453868Y-94742380D02*
X214501487Y-94790000D01*
X214501487Y-94790000D02*
X214596725Y-94837619D01*
X214596725Y-94837619D02*
X214739582Y-94837619D01*
X213549106Y-94170952D02*
X213549106Y-94837619D01*
X213977677Y-94170952D02*
X213977677Y-94694761D01*
X213977677Y-94694761D02*
X213930058Y-94790000D01*
X213930058Y-94790000D02*
X213834820Y-94837619D01*
X213834820Y-94837619D02*
X213691963Y-94837619D01*
X213691963Y-94837619D02*
X213596725Y-94790000D01*
X213596725Y-94790000D02*
X213549106Y-94742380D01*
X213072915Y-94837619D02*
X213072915Y-94170952D01*
X213072915Y-94361428D02*
X213025296Y-94266190D01*
X213025296Y-94266190D02*
X212977677Y-94218571D01*
X212977677Y-94218571D02*
X212882439Y-94170952D01*
X212882439Y-94170952D02*
X212787201Y-94170952D01*
X212025296Y-94837619D02*
X212025296Y-94313809D01*
X212025296Y-94313809D02*
X212072915Y-94218571D01*
X212072915Y-94218571D02*
X212168153Y-94170952D01*
X212168153Y-94170952D02*
X212358629Y-94170952D01*
X212358629Y-94170952D02*
X212453867Y-94218571D01*
X212025296Y-94790000D02*
X212120534Y-94837619D01*
X212120534Y-94837619D02*
X212358629Y-94837619D01*
X212358629Y-94837619D02*
X212453867Y-94790000D01*
X212453867Y-94790000D02*
X212501486Y-94694761D01*
X212501486Y-94694761D02*
X212501486Y-94599523D01*
X212501486Y-94599523D02*
X212453867Y-94504285D01*
X212453867Y-94504285D02*
X212358629Y-94456666D01*
X212358629Y-94456666D02*
X212120534Y-94456666D01*
X212120534Y-94456666D02*
X212025296Y-94409047D01*
X211120534Y-94170952D02*
X211120534Y-94980476D01*
X211120534Y-94980476D02*
X211168153Y-95075714D01*
X211168153Y-95075714D02*
X211215772Y-95123333D01*
X211215772Y-95123333D02*
X211311010Y-95170952D01*
X211311010Y-95170952D02*
X211453867Y-95170952D01*
X211453867Y-95170952D02*
X211549105Y-95123333D01*
X211120534Y-94790000D02*
X211215772Y-94837619D01*
X211215772Y-94837619D02*
X211406248Y-94837619D01*
X211406248Y-94837619D02*
X211501486Y-94790000D01*
X211501486Y-94790000D02*
X211549105Y-94742380D01*
X211549105Y-94742380D02*
X211596724Y-94647142D01*
X211596724Y-94647142D02*
X211596724Y-94361428D01*
X211596724Y-94361428D02*
X211549105Y-94266190D01*
X211549105Y-94266190D02*
X211501486Y-94218571D01*
X211501486Y-94218571D02*
X211406248Y-94170952D01*
X211406248Y-94170952D02*
X211215772Y-94170952D01*
X211215772Y-94170952D02*
X211120534Y-94218571D01*
X210263391Y-94790000D02*
X210358629Y-94837619D01*
X210358629Y-94837619D02*
X210549105Y-94837619D01*
X210549105Y-94837619D02*
X210644343Y-94790000D01*
X210644343Y-94790000D02*
X210691962Y-94694761D01*
X210691962Y-94694761D02*
X210691962Y-94313809D01*
X210691962Y-94313809D02*
X210644343Y-94218571D01*
X210644343Y-94218571D02*
X210549105Y-94170952D01*
X210549105Y-94170952D02*
X210358629Y-94170952D01*
X210358629Y-94170952D02*
X210263391Y-94218571D01*
X210263391Y-94218571D02*
X210215772Y-94313809D01*
X210215772Y-94313809D02*
X210215772Y-94409047D01*
X210215772Y-94409047D02*
X210691962Y-94504285D01*
%TO.C,D7*%
X159344346Y-35189619D02*
X159344346Y-34189619D01*
X159344346Y-34189619D02*
X159106251Y-34189619D01*
X159106251Y-34189619D02*
X158963394Y-34237238D01*
X158963394Y-34237238D02*
X158868156Y-34332476D01*
X158868156Y-34332476D02*
X158820537Y-34427714D01*
X158820537Y-34427714D02*
X158772918Y-34618190D01*
X158772918Y-34618190D02*
X158772918Y-34761047D01*
X158772918Y-34761047D02*
X158820537Y-34951523D01*
X158820537Y-34951523D02*
X158868156Y-35046761D01*
X158868156Y-35046761D02*
X158963394Y-35142000D01*
X158963394Y-35142000D02*
X159106251Y-35189619D01*
X159106251Y-35189619D02*
X159344346Y-35189619D01*
X158439584Y-34189619D02*
X157772918Y-34189619D01*
X157772918Y-34189619D02*
X158201489Y-35189619D01*
%TO.C,C4*%
X267316666Y-49392380D02*
X267364285Y-49440000D01*
X267364285Y-49440000D02*
X267507142Y-49487619D01*
X267507142Y-49487619D02*
X267602380Y-49487619D01*
X267602380Y-49487619D02*
X267745237Y-49440000D01*
X267745237Y-49440000D02*
X267840475Y-49344761D01*
X267840475Y-49344761D02*
X267888094Y-49249523D01*
X267888094Y-49249523D02*
X267935713Y-49059047D01*
X267935713Y-49059047D02*
X267935713Y-48916190D01*
X267935713Y-48916190D02*
X267888094Y-48725714D01*
X267888094Y-48725714D02*
X267840475Y-48630476D01*
X267840475Y-48630476D02*
X267745237Y-48535238D01*
X267745237Y-48535238D02*
X267602380Y-48487619D01*
X267602380Y-48487619D02*
X267507142Y-48487619D01*
X267507142Y-48487619D02*
X267364285Y-48535238D01*
X267364285Y-48535238D02*
X267316666Y-48582857D01*
X266459523Y-48820952D02*
X266459523Y-49487619D01*
X266697618Y-48440000D02*
X266935713Y-49154285D01*
X266935713Y-49154285D02*
X266316666Y-49154285D01*
%TO.C,RSW1*%
X267464285Y-34537619D02*
X267797618Y-34061428D01*
X268035713Y-34537619D02*
X268035713Y-33537619D01*
X268035713Y-33537619D02*
X267654761Y-33537619D01*
X267654761Y-33537619D02*
X267559523Y-33585238D01*
X267559523Y-33585238D02*
X267511904Y-33632857D01*
X267511904Y-33632857D02*
X267464285Y-33728095D01*
X267464285Y-33728095D02*
X267464285Y-33870952D01*
X267464285Y-33870952D02*
X267511904Y-33966190D01*
X267511904Y-33966190D02*
X267559523Y-34013809D01*
X267559523Y-34013809D02*
X267654761Y-34061428D01*
X267654761Y-34061428D02*
X268035713Y-34061428D01*
X267083332Y-34490000D02*
X266940475Y-34537619D01*
X266940475Y-34537619D02*
X266702380Y-34537619D01*
X266702380Y-34537619D02*
X266607142Y-34490000D01*
X266607142Y-34490000D02*
X266559523Y-34442380D01*
X266559523Y-34442380D02*
X266511904Y-34347142D01*
X266511904Y-34347142D02*
X266511904Y-34251904D01*
X266511904Y-34251904D02*
X266559523Y-34156666D01*
X266559523Y-34156666D02*
X266607142Y-34109047D01*
X266607142Y-34109047D02*
X266702380Y-34061428D01*
X266702380Y-34061428D02*
X266892856Y-34013809D01*
X266892856Y-34013809D02*
X266988094Y-33966190D01*
X266988094Y-33966190D02*
X267035713Y-33918571D01*
X267035713Y-33918571D02*
X267083332Y-33823333D01*
X267083332Y-33823333D02*
X267083332Y-33728095D01*
X267083332Y-33728095D02*
X267035713Y-33632857D01*
X267035713Y-33632857D02*
X266988094Y-33585238D01*
X266988094Y-33585238D02*
X266892856Y-33537619D01*
X266892856Y-33537619D02*
X266654761Y-33537619D01*
X266654761Y-33537619D02*
X266511904Y-33585238D01*
X266178570Y-33537619D02*
X265940475Y-34537619D01*
X265940475Y-34537619D02*
X265749999Y-33823333D01*
X265749999Y-33823333D02*
X265559523Y-34537619D01*
X265559523Y-34537619D02*
X265321428Y-33537619D01*
X264416666Y-34537619D02*
X264988094Y-34537619D01*
X264702380Y-34537619D02*
X264702380Y-33537619D01*
X264702380Y-33537619D02*
X264797618Y-33680476D01*
X264797618Y-33680476D02*
X264892856Y-33775714D01*
X264892856Y-33775714D02*
X264988094Y-33823333D01*
%TO.C,D8*%
X178394346Y-35189619D02*
X178394346Y-34189619D01*
X178394346Y-34189619D02*
X178156251Y-34189619D01*
X178156251Y-34189619D02*
X178013394Y-34237238D01*
X178013394Y-34237238D02*
X177918156Y-34332476D01*
X177918156Y-34332476D02*
X177870537Y-34427714D01*
X177870537Y-34427714D02*
X177822918Y-34618190D01*
X177822918Y-34618190D02*
X177822918Y-34761047D01*
X177822918Y-34761047D02*
X177870537Y-34951523D01*
X177870537Y-34951523D02*
X177918156Y-35046761D01*
X177918156Y-35046761D02*
X178013394Y-35142000D01*
X178013394Y-35142000D02*
X178156251Y-35189619D01*
X178156251Y-35189619D02*
X178394346Y-35189619D01*
X177251489Y-34618190D02*
X177346727Y-34570571D01*
X177346727Y-34570571D02*
X177394346Y-34522952D01*
X177394346Y-34522952D02*
X177441965Y-34427714D01*
X177441965Y-34427714D02*
X177441965Y-34380095D01*
X177441965Y-34380095D02*
X177394346Y-34284857D01*
X177394346Y-34284857D02*
X177346727Y-34237238D01*
X177346727Y-34237238D02*
X177251489Y-34189619D01*
X177251489Y-34189619D02*
X177061013Y-34189619D01*
X177061013Y-34189619D02*
X176965775Y-34237238D01*
X176965775Y-34237238D02*
X176918156Y-34284857D01*
X176918156Y-34284857D02*
X176870537Y-34380095D01*
X176870537Y-34380095D02*
X176870537Y-34427714D01*
X176870537Y-34427714D02*
X176918156Y-34522952D01*
X176918156Y-34522952D02*
X176965775Y-34570571D01*
X176965775Y-34570571D02*
X177061013Y-34618190D01*
X177061013Y-34618190D02*
X177251489Y-34618190D01*
X177251489Y-34618190D02*
X177346727Y-34665809D01*
X177346727Y-34665809D02*
X177394346Y-34713428D01*
X177394346Y-34713428D02*
X177441965Y-34808666D01*
X177441965Y-34808666D02*
X177441965Y-34999142D01*
X177441965Y-34999142D02*
X177394346Y-35094380D01*
X177394346Y-35094380D02*
X177346727Y-35142000D01*
X177346727Y-35142000D02*
X177251489Y-35189619D01*
X177251489Y-35189619D02*
X177061013Y-35189619D01*
X177061013Y-35189619D02*
X176965775Y-35142000D01*
X176965775Y-35142000D02*
X176918156Y-35094380D01*
X176918156Y-35094380D02*
X176870537Y-34999142D01*
X176870537Y-34999142D02*
X176870537Y-34808666D01*
X176870537Y-34808666D02*
X176918156Y-34713428D01*
X176918156Y-34713428D02*
X176965775Y-34665809D01*
X176965775Y-34665809D02*
X177061013Y-34618190D01*
%TO.C,D14*%
X45520537Y-54239619D02*
X45520537Y-53239619D01*
X45520537Y-53239619D02*
X45282442Y-53239619D01*
X45282442Y-53239619D02*
X45139585Y-53287238D01*
X45139585Y-53287238D02*
X45044347Y-53382476D01*
X45044347Y-53382476D02*
X44996728Y-53477714D01*
X44996728Y-53477714D02*
X44949109Y-53668190D01*
X44949109Y-53668190D02*
X44949109Y-53811047D01*
X44949109Y-53811047D02*
X44996728Y-54001523D01*
X44996728Y-54001523D02*
X45044347Y-54096761D01*
X45044347Y-54096761D02*
X45139585Y-54192000D01*
X45139585Y-54192000D02*
X45282442Y-54239619D01*
X45282442Y-54239619D02*
X45520537Y-54239619D01*
X43996728Y-54239619D02*
X44568156Y-54239619D01*
X44282442Y-54239619D02*
X44282442Y-53239619D01*
X44282442Y-53239619D02*
X44377680Y-53382476D01*
X44377680Y-53382476D02*
X44472918Y-53477714D01*
X44472918Y-53477714D02*
X44568156Y-53525333D01*
X43139585Y-53572952D02*
X43139585Y-54239619D01*
X43377680Y-53192000D02*
X43615775Y-53906285D01*
X43615775Y-53906285D02*
X42996728Y-53906285D01*
%TO.C,D35*%
X197920537Y-73314619D02*
X197920537Y-72314619D01*
X197920537Y-72314619D02*
X197682442Y-72314619D01*
X197682442Y-72314619D02*
X197539585Y-72362238D01*
X197539585Y-72362238D02*
X197444347Y-72457476D01*
X197444347Y-72457476D02*
X197396728Y-72552714D01*
X197396728Y-72552714D02*
X197349109Y-72743190D01*
X197349109Y-72743190D02*
X197349109Y-72886047D01*
X197349109Y-72886047D02*
X197396728Y-73076523D01*
X197396728Y-73076523D02*
X197444347Y-73171761D01*
X197444347Y-73171761D02*
X197539585Y-73267000D01*
X197539585Y-73267000D02*
X197682442Y-73314619D01*
X197682442Y-73314619D02*
X197920537Y-73314619D01*
X197015775Y-72314619D02*
X196396728Y-72314619D01*
X196396728Y-72314619D02*
X196730061Y-72695571D01*
X196730061Y-72695571D02*
X196587204Y-72695571D01*
X196587204Y-72695571D02*
X196491966Y-72743190D01*
X196491966Y-72743190D02*
X196444347Y-72790809D01*
X196444347Y-72790809D02*
X196396728Y-72886047D01*
X196396728Y-72886047D02*
X196396728Y-73124142D01*
X196396728Y-73124142D02*
X196444347Y-73219380D01*
X196444347Y-73219380D02*
X196491966Y-73267000D01*
X196491966Y-73267000D02*
X196587204Y-73314619D01*
X196587204Y-73314619D02*
X196872918Y-73314619D01*
X196872918Y-73314619D02*
X196968156Y-73267000D01*
X196968156Y-73267000D02*
X197015775Y-73219380D01*
X195491966Y-72314619D02*
X195968156Y-72314619D01*
X195968156Y-72314619D02*
X196015775Y-72790809D01*
X196015775Y-72790809D02*
X195968156Y-72743190D01*
X195968156Y-72743190D02*
X195872918Y-72695571D01*
X195872918Y-72695571D02*
X195634823Y-72695571D01*
X195634823Y-72695571D02*
X195539585Y-72743190D01*
X195539585Y-72743190D02*
X195491966Y-72790809D01*
X195491966Y-72790809D02*
X195444347Y-72886047D01*
X195444347Y-72886047D02*
X195444347Y-73124142D01*
X195444347Y-73124142D02*
X195491966Y-73219380D01*
X195491966Y-73219380D02*
X195539585Y-73267000D01*
X195539585Y-73267000D02*
X195634823Y-73314619D01*
X195634823Y-73314619D02*
X195872918Y-73314619D01*
X195872918Y-73314619D02*
X195968156Y-73267000D01*
X195968156Y-73267000D02*
X196015775Y-73219380D01*
%TO.C,D11*%
X236020537Y-35189619D02*
X236020537Y-34189619D01*
X236020537Y-34189619D02*
X235782442Y-34189619D01*
X235782442Y-34189619D02*
X235639585Y-34237238D01*
X235639585Y-34237238D02*
X235544347Y-34332476D01*
X235544347Y-34332476D02*
X235496728Y-34427714D01*
X235496728Y-34427714D02*
X235449109Y-34618190D01*
X235449109Y-34618190D02*
X235449109Y-34761047D01*
X235449109Y-34761047D02*
X235496728Y-34951523D01*
X235496728Y-34951523D02*
X235544347Y-35046761D01*
X235544347Y-35046761D02*
X235639585Y-35142000D01*
X235639585Y-35142000D02*
X235782442Y-35189619D01*
X235782442Y-35189619D02*
X236020537Y-35189619D01*
X234496728Y-35189619D02*
X235068156Y-35189619D01*
X234782442Y-35189619D02*
X234782442Y-34189619D01*
X234782442Y-34189619D02*
X234877680Y-34332476D01*
X234877680Y-34332476D02*
X234972918Y-34427714D01*
X234972918Y-34427714D02*
X235068156Y-34475333D01*
X233544347Y-35189619D02*
X234115775Y-35189619D01*
X233830061Y-35189619D02*
X233830061Y-34189619D01*
X233830061Y-34189619D02*
X233925299Y-34332476D01*
X233925299Y-34332476D02*
X234020537Y-34427714D01*
X234020537Y-34427714D02*
X234115775Y-34475333D01*
%TO.C,R3*%
X257606666Y-38525119D02*
X257939999Y-38048928D01*
X258178094Y-38525119D02*
X258178094Y-37525119D01*
X258178094Y-37525119D02*
X257797142Y-37525119D01*
X257797142Y-37525119D02*
X257701904Y-37572738D01*
X257701904Y-37572738D02*
X257654285Y-37620357D01*
X257654285Y-37620357D02*
X257606666Y-37715595D01*
X257606666Y-37715595D02*
X257606666Y-37858452D01*
X257606666Y-37858452D02*
X257654285Y-37953690D01*
X257654285Y-37953690D02*
X257701904Y-38001309D01*
X257701904Y-38001309D02*
X257797142Y-38048928D01*
X257797142Y-38048928D02*
X258178094Y-38048928D01*
X257273332Y-37525119D02*
X256654285Y-37525119D01*
X256654285Y-37525119D02*
X256987618Y-37906071D01*
X256987618Y-37906071D02*
X256844761Y-37906071D01*
X256844761Y-37906071D02*
X256749523Y-37953690D01*
X256749523Y-37953690D02*
X256701904Y-38001309D01*
X256701904Y-38001309D02*
X256654285Y-38096547D01*
X256654285Y-38096547D02*
X256654285Y-38334642D01*
X256654285Y-38334642D02*
X256701904Y-38429880D01*
X256701904Y-38429880D02*
X256749523Y-38477500D01*
X256749523Y-38477500D02*
X256844761Y-38525119D01*
X256844761Y-38525119D02*
X257130475Y-38525119D01*
X257130475Y-38525119D02*
X257225713Y-38477500D01*
X257225713Y-38477500D02*
X257273332Y-38429880D01*
%TO.C,D39*%
X278883033Y-73314619D02*
X278883033Y-72314619D01*
X278883033Y-72314619D02*
X278644938Y-72314619D01*
X278644938Y-72314619D02*
X278502081Y-72362238D01*
X278502081Y-72362238D02*
X278406843Y-72457476D01*
X278406843Y-72457476D02*
X278359224Y-72552714D01*
X278359224Y-72552714D02*
X278311605Y-72743190D01*
X278311605Y-72743190D02*
X278311605Y-72886047D01*
X278311605Y-72886047D02*
X278359224Y-73076523D01*
X278359224Y-73076523D02*
X278406843Y-73171761D01*
X278406843Y-73171761D02*
X278502081Y-73267000D01*
X278502081Y-73267000D02*
X278644938Y-73314619D01*
X278644938Y-73314619D02*
X278883033Y-73314619D01*
X277978271Y-72314619D02*
X277359224Y-72314619D01*
X277359224Y-72314619D02*
X277692557Y-72695571D01*
X277692557Y-72695571D02*
X277549700Y-72695571D01*
X277549700Y-72695571D02*
X277454462Y-72743190D01*
X277454462Y-72743190D02*
X277406843Y-72790809D01*
X277406843Y-72790809D02*
X277359224Y-72886047D01*
X277359224Y-72886047D02*
X277359224Y-73124142D01*
X277359224Y-73124142D02*
X277406843Y-73219380D01*
X277406843Y-73219380D02*
X277454462Y-73267000D01*
X277454462Y-73267000D02*
X277549700Y-73314619D01*
X277549700Y-73314619D02*
X277835414Y-73314619D01*
X277835414Y-73314619D02*
X277930652Y-73267000D01*
X277930652Y-73267000D02*
X277978271Y-73219380D01*
X276883033Y-73314619D02*
X276692557Y-73314619D01*
X276692557Y-73314619D02*
X276597319Y-73267000D01*
X276597319Y-73267000D02*
X276549700Y-73219380D01*
X276549700Y-73219380D02*
X276454462Y-73076523D01*
X276454462Y-73076523D02*
X276406843Y-72886047D01*
X276406843Y-72886047D02*
X276406843Y-72505095D01*
X276406843Y-72505095D02*
X276454462Y-72409857D01*
X276454462Y-72409857D02*
X276502081Y-72362238D01*
X276502081Y-72362238D02*
X276597319Y-72314619D01*
X276597319Y-72314619D02*
X276787795Y-72314619D01*
X276787795Y-72314619D02*
X276883033Y-72362238D01*
X276883033Y-72362238D02*
X276930652Y-72409857D01*
X276930652Y-72409857D02*
X276978271Y-72505095D01*
X276978271Y-72505095D02*
X276978271Y-72743190D01*
X276978271Y-72743190D02*
X276930652Y-72838428D01*
X276930652Y-72838428D02*
X276883033Y-72886047D01*
X276883033Y-72886047D02*
X276787795Y-72933666D01*
X276787795Y-72933666D02*
X276597319Y-72933666D01*
X276597319Y-72933666D02*
X276502081Y-72886047D01*
X276502081Y-72886047D02*
X276454462Y-72838428D01*
X276454462Y-72838428D02*
X276406843Y-72743190D01*
%TO.C,D46*%
X159820537Y-92314619D02*
X159820537Y-91314619D01*
X159820537Y-91314619D02*
X159582442Y-91314619D01*
X159582442Y-91314619D02*
X159439585Y-91362238D01*
X159439585Y-91362238D02*
X159344347Y-91457476D01*
X159344347Y-91457476D02*
X159296728Y-91552714D01*
X159296728Y-91552714D02*
X159249109Y-91743190D01*
X159249109Y-91743190D02*
X159249109Y-91886047D01*
X159249109Y-91886047D02*
X159296728Y-92076523D01*
X159296728Y-92076523D02*
X159344347Y-92171761D01*
X159344347Y-92171761D02*
X159439585Y-92267000D01*
X159439585Y-92267000D02*
X159582442Y-92314619D01*
X159582442Y-92314619D02*
X159820537Y-92314619D01*
X158391966Y-91647952D02*
X158391966Y-92314619D01*
X158630061Y-91267000D02*
X158868156Y-91981285D01*
X158868156Y-91981285D02*
X158249109Y-91981285D01*
X157439585Y-91314619D02*
X157630061Y-91314619D01*
X157630061Y-91314619D02*
X157725299Y-91362238D01*
X157725299Y-91362238D02*
X157772918Y-91409857D01*
X157772918Y-91409857D02*
X157868156Y-91552714D01*
X157868156Y-91552714D02*
X157915775Y-91743190D01*
X157915775Y-91743190D02*
X157915775Y-92124142D01*
X157915775Y-92124142D02*
X157868156Y-92219380D01*
X157868156Y-92219380D02*
X157820537Y-92267000D01*
X157820537Y-92267000D02*
X157725299Y-92314619D01*
X157725299Y-92314619D02*
X157534823Y-92314619D01*
X157534823Y-92314619D02*
X157439585Y-92267000D01*
X157439585Y-92267000D02*
X157391966Y-92219380D01*
X157391966Y-92219380D02*
X157344347Y-92124142D01*
X157344347Y-92124142D02*
X157344347Y-91886047D01*
X157344347Y-91886047D02*
X157391966Y-91790809D01*
X157391966Y-91790809D02*
X157439585Y-91743190D01*
X157439585Y-91743190D02*
X157534823Y-91695571D01*
X157534823Y-91695571D02*
X157725299Y-91695571D01*
X157725299Y-91695571D02*
X157820537Y-91743190D01*
X157820537Y-91743190D02*
X157868156Y-91790809D01*
X157868156Y-91790809D02*
X157915775Y-91886047D01*
%TO.C,D40*%
X45520537Y-92314619D02*
X45520537Y-91314619D01*
X45520537Y-91314619D02*
X45282442Y-91314619D01*
X45282442Y-91314619D02*
X45139585Y-91362238D01*
X45139585Y-91362238D02*
X45044347Y-91457476D01*
X45044347Y-91457476D02*
X44996728Y-91552714D01*
X44996728Y-91552714D02*
X44949109Y-91743190D01*
X44949109Y-91743190D02*
X44949109Y-91886047D01*
X44949109Y-91886047D02*
X44996728Y-92076523D01*
X44996728Y-92076523D02*
X45044347Y-92171761D01*
X45044347Y-92171761D02*
X45139585Y-92267000D01*
X45139585Y-92267000D02*
X45282442Y-92314619D01*
X45282442Y-92314619D02*
X45520537Y-92314619D01*
X44091966Y-91647952D02*
X44091966Y-92314619D01*
X44330061Y-91267000D02*
X44568156Y-91981285D01*
X44568156Y-91981285D02*
X43949109Y-91981285D01*
X43377680Y-91314619D02*
X43282442Y-91314619D01*
X43282442Y-91314619D02*
X43187204Y-91362238D01*
X43187204Y-91362238D02*
X43139585Y-91409857D01*
X43139585Y-91409857D02*
X43091966Y-91505095D01*
X43091966Y-91505095D02*
X43044347Y-91695571D01*
X43044347Y-91695571D02*
X43044347Y-91933666D01*
X43044347Y-91933666D02*
X43091966Y-92124142D01*
X43091966Y-92124142D02*
X43139585Y-92219380D01*
X43139585Y-92219380D02*
X43187204Y-92267000D01*
X43187204Y-92267000D02*
X43282442Y-92314619D01*
X43282442Y-92314619D02*
X43377680Y-92314619D01*
X43377680Y-92314619D02*
X43472918Y-92267000D01*
X43472918Y-92267000D02*
X43520537Y-92219380D01*
X43520537Y-92219380D02*
X43568156Y-92124142D01*
X43568156Y-92124142D02*
X43615775Y-91933666D01*
X43615775Y-91933666D02*
X43615775Y-91695571D01*
X43615775Y-91695571D02*
X43568156Y-91505095D01*
X43568156Y-91505095D02*
X43520537Y-91409857D01*
X43520537Y-91409857D02*
X43472918Y-91362238D01*
X43472918Y-91362238D02*
X43377680Y-91314619D01*
%TO.C,CX1*%
X275242857Y-52917380D02*
X275290476Y-52965000D01*
X275290476Y-52965000D02*
X275433333Y-53012619D01*
X275433333Y-53012619D02*
X275528571Y-53012619D01*
X275528571Y-53012619D02*
X275671428Y-52965000D01*
X275671428Y-52965000D02*
X275766666Y-52869761D01*
X275766666Y-52869761D02*
X275814285Y-52774523D01*
X275814285Y-52774523D02*
X275861904Y-52584047D01*
X275861904Y-52584047D02*
X275861904Y-52441190D01*
X275861904Y-52441190D02*
X275814285Y-52250714D01*
X275814285Y-52250714D02*
X275766666Y-52155476D01*
X275766666Y-52155476D02*
X275671428Y-52060238D01*
X275671428Y-52060238D02*
X275528571Y-52012619D01*
X275528571Y-52012619D02*
X275433333Y-52012619D01*
X275433333Y-52012619D02*
X275290476Y-52060238D01*
X275290476Y-52060238D02*
X275242857Y-52107857D01*
X274909523Y-52012619D02*
X274242857Y-53012619D01*
X274242857Y-52012619D02*
X274909523Y-53012619D01*
X273338095Y-53012619D02*
X273909523Y-53012619D01*
X273623809Y-53012619D02*
X273623809Y-52012619D01*
X273623809Y-52012619D02*
X273719047Y-52155476D01*
X273719047Y-52155476D02*
X273814285Y-52250714D01*
X273814285Y-52250714D02*
X273909523Y-52298333D01*
%TO.C,R2*%
X255316666Y-38522619D02*
X255649999Y-38046428D01*
X255888094Y-38522619D02*
X255888094Y-37522619D01*
X255888094Y-37522619D02*
X255507142Y-37522619D01*
X255507142Y-37522619D02*
X255411904Y-37570238D01*
X255411904Y-37570238D02*
X255364285Y-37617857D01*
X255364285Y-37617857D02*
X255316666Y-37713095D01*
X255316666Y-37713095D02*
X255316666Y-37855952D01*
X255316666Y-37855952D02*
X255364285Y-37951190D01*
X255364285Y-37951190D02*
X255411904Y-37998809D01*
X255411904Y-37998809D02*
X255507142Y-38046428D01*
X255507142Y-38046428D02*
X255888094Y-38046428D01*
X254935713Y-37617857D02*
X254888094Y-37570238D01*
X254888094Y-37570238D02*
X254792856Y-37522619D01*
X254792856Y-37522619D02*
X254554761Y-37522619D01*
X254554761Y-37522619D02*
X254459523Y-37570238D01*
X254459523Y-37570238D02*
X254411904Y-37617857D01*
X254411904Y-37617857D02*
X254364285Y-37713095D01*
X254364285Y-37713095D02*
X254364285Y-37808333D01*
X254364285Y-37808333D02*
X254411904Y-37951190D01*
X254411904Y-37951190D02*
X254983332Y-38522619D01*
X254983332Y-38522619D02*
X254364285Y-38522619D01*
%TO.C,C1*%
X245166666Y-52642380D02*
X245214285Y-52690000D01*
X245214285Y-52690000D02*
X245357142Y-52737619D01*
X245357142Y-52737619D02*
X245452380Y-52737619D01*
X245452380Y-52737619D02*
X245595237Y-52690000D01*
X245595237Y-52690000D02*
X245690475Y-52594761D01*
X245690475Y-52594761D02*
X245738094Y-52499523D01*
X245738094Y-52499523D02*
X245785713Y-52309047D01*
X245785713Y-52309047D02*
X245785713Y-52166190D01*
X245785713Y-52166190D02*
X245738094Y-51975714D01*
X245738094Y-51975714D02*
X245690475Y-51880476D01*
X245690475Y-51880476D02*
X245595237Y-51785238D01*
X245595237Y-51785238D02*
X245452380Y-51737619D01*
X245452380Y-51737619D02*
X245357142Y-51737619D01*
X245357142Y-51737619D02*
X245214285Y-51785238D01*
X245214285Y-51785238D02*
X245166666Y-51832857D01*
X244214285Y-52737619D02*
X244785713Y-52737619D01*
X244499999Y-52737619D02*
X244499999Y-51737619D01*
X244499999Y-51737619D02*
X244595237Y-51880476D01*
X244595237Y-51880476D02*
X244690475Y-51975714D01*
X244690475Y-51975714D02*
X244785713Y-52023333D01*
%TO.C,D4*%
X102194346Y-35189619D02*
X102194346Y-34189619D01*
X102194346Y-34189619D02*
X101956251Y-34189619D01*
X101956251Y-34189619D02*
X101813394Y-34237238D01*
X101813394Y-34237238D02*
X101718156Y-34332476D01*
X101718156Y-34332476D02*
X101670537Y-34427714D01*
X101670537Y-34427714D02*
X101622918Y-34618190D01*
X101622918Y-34618190D02*
X101622918Y-34761047D01*
X101622918Y-34761047D02*
X101670537Y-34951523D01*
X101670537Y-34951523D02*
X101718156Y-35046761D01*
X101718156Y-35046761D02*
X101813394Y-35142000D01*
X101813394Y-35142000D02*
X101956251Y-35189619D01*
X101956251Y-35189619D02*
X102194346Y-35189619D01*
X100765775Y-34522952D02*
X100765775Y-35189619D01*
X101003870Y-34142000D02*
X101241965Y-34856285D01*
X101241965Y-34856285D02*
X100622918Y-34856285D01*
%TO.C,Y1*%
X270676190Y-58111428D02*
X270676190Y-58587619D01*
X271009523Y-57587619D02*
X270676190Y-58111428D01*
X270676190Y-58111428D02*
X270342857Y-57587619D01*
X269485714Y-58587619D02*
X270057142Y-58587619D01*
X269771428Y-58587619D02*
X269771428Y-57587619D01*
X269771428Y-57587619D02*
X269866666Y-57730476D01*
X269866666Y-57730476D02*
X269961904Y-57825714D01*
X269961904Y-57825714D02*
X270057142Y-57873333D01*
%TO.C,C2*%
X245166666Y-57967380D02*
X245214285Y-58015000D01*
X245214285Y-58015000D02*
X245357142Y-58062619D01*
X245357142Y-58062619D02*
X245452380Y-58062619D01*
X245452380Y-58062619D02*
X245595237Y-58015000D01*
X245595237Y-58015000D02*
X245690475Y-57919761D01*
X245690475Y-57919761D02*
X245738094Y-57824523D01*
X245738094Y-57824523D02*
X245785713Y-57634047D01*
X245785713Y-57634047D02*
X245785713Y-57491190D01*
X245785713Y-57491190D02*
X245738094Y-57300714D01*
X245738094Y-57300714D02*
X245690475Y-57205476D01*
X245690475Y-57205476D02*
X245595237Y-57110238D01*
X245595237Y-57110238D02*
X245452380Y-57062619D01*
X245452380Y-57062619D02*
X245357142Y-57062619D01*
X245357142Y-57062619D02*
X245214285Y-57110238D01*
X245214285Y-57110238D02*
X245166666Y-57157857D01*
X244785713Y-57157857D02*
X244738094Y-57110238D01*
X244738094Y-57110238D02*
X244642856Y-57062619D01*
X244642856Y-57062619D02*
X244404761Y-57062619D01*
X244404761Y-57062619D02*
X244309523Y-57110238D01*
X244309523Y-57110238D02*
X244261904Y-57157857D01*
X244261904Y-57157857D02*
X244214285Y-57253095D01*
X244214285Y-57253095D02*
X244214285Y-57348333D01*
X244214285Y-57348333D02*
X244261904Y-57491190D01*
X244261904Y-57491190D02*
X244833332Y-58062619D01*
X244833332Y-58062619D02*
X244214285Y-58062619D01*
%TO.C,D29*%
X83620537Y-73314619D02*
X83620537Y-72314619D01*
X83620537Y-72314619D02*
X83382442Y-72314619D01*
X83382442Y-72314619D02*
X83239585Y-72362238D01*
X83239585Y-72362238D02*
X83144347Y-72457476D01*
X83144347Y-72457476D02*
X83096728Y-72552714D01*
X83096728Y-72552714D02*
X83049109Y-72743190D01*
X83049109Y-72743190D02*
X83049109Y-72886047D01*
X83049109Y-72886047D02*
X83096728Y-73076523D01*
X83096728Y-73076523D02*
X83144347Y-73171761D01*
X83144347Y-73171761D02*
X83239585Y-73267000D01*
X83239585Y-73267000D02*
X83382442Y-73314619D01*
X83382442Y-73314619D02*
X83620537Y-73314619D01*
X82668156Y-72409857D02*
X82620537Y-72362238D01*
X82620537Y-72362238D02*
X82525299Y-72314619D01*
X82525299Y-72314619D02*
X82287204Y-72314619D01*
X82287204Y-72314619D02*
X82191966Y-72362238D01*
X82191966Y-72362238D02*
X82144347Y-72409857D01*
X82144347Y-72409857D02*
X82096728Y-72505095D01*
X82096728Y-72505095D02*
X82096728Y-72600333D01*
X82096728Y-72600333D02*
X82144347Y-72743190D01*
X82144347Y-72743190D02*
X82715775Y-73314619D01*
X82715775Y-73314619D02*
X82096728Y-73314619D01*
X81620537Y-73314619D02*
X81430061Y-73314619D01*
X81430061Y-73314619D02*
X81334823Y-73267000D01*
X81334823Y-73267000D02*
X81287204Y-73219380D01*
X81287204Y-73219380D02*
X81191966Y-73076523D01*
X81191966Y-73076523D02*
X81144347Y-72886047D01*
X81144347Y-72886047D02*
X81144347Y-72505095D01*
X81144347Y-72505095D02*
X81191966Y-72409857D01*
X81191966Y-72409857D02*
X81239585Y-72362238D01*
X81239585Y-72362238D02*
X81334823Y-72314619D01*
X81334823Y-72314619D02*
X81525299Y-72314619D01*
X81525299Y-72314619D02*
X81620537Y-72362238D01*
X81620537Y-72362238D02*
X81668156Y-72409857D01*
X81668156Y-72409857D02*
X81715775Y-72505095D01*
X81715775Y-72505095D02*
X81715775Y-72743190D01*
X81715775Y-72743190D02*
X81668156Y-72838428D01*
X81668156Y-72838428D02*
X81620537Y-72886047D01*
X81620537Y-72886047D02*
X81525299Y-72933666D01*
X81525299Y-72933666D02*
X81334823Y-72933666D01*
X81334823Y-72933666D02*
X81239585Y-72886047D01*
X81239585Y-72886047D02*
X81191966Y-72838428D01*
X81191966Y-72838428D02*
X81144347Y-72743190D01*
%TO.C,D24*%
X236020537Y-54239619D02*
X236020537Y-53239619D01*
X236020537Y-53239619D02*
X235782442Y-53239619D01*
X235782442Y-53239619D02*
X235639585Y-53287238D01*
X235639585Y-53287238D02*
X235544347Y-53382476D01*
X235544347Y-53382476D02*
X235496728Y-53477714D01*
X235496728Y-53477714D02*
X235449109Y-53668190D01*
X235449109Y-53668190D02*
X235449109Y-53811047D01*
X235449109Y-53811047D02*
X235496728Y-54001523D01*
X235496728Y-54001523D02*
X235544347Y-54096761D01*
X235544347Y-54096761D02*
X235639585Y-54192000D01*
X235639585Y-54192000D02*
X235782442Y-54239619D01*
X235782442Y-54239619D02*
X236020537Y-54239619D01*
X235068156Y-53334857D02*
X235020537Y-53287238D01*
X235020537Y-53287238D02*
X234925299Y-53239619D01*
X234925299Y-53239619D02*
X234687204Y-53239619D01*
X234687204Y-53239619D02*
X234591966Y-53287238D01*
X234591966Y-53287238D02*
X234544347Y-53334857D01*
X234544347Y-53334857D02*
X234496728Y-53430095D01*
X234496728Y-53430095D02*
X234496728Y-53525333D01*
X234496728Y-53525333D02*
X234544347Y-53668190D01*
X234544347Y-53668190D02*
X235115775Y-54239619D01*
X235115775Y-54239619D02*
X234496728Y-54239619D01*
X233639585Y-53572952D02*
X233639585Y-54239619D01*
X233877680Y-53192000D02*
X234115775Y-53906285D01*
X234115775Y-53906285D02*
X233496728Y-53906285D01*
%TO.C,D31*%
X121720537Y-73314619D02*
X121720537Y-72314619D01*
X121720537Y-72314619D02*
X121482442Y-72314619D01*
X121482442Y-72314619D02*
X121339585Y-72362238D01*
X121339585Y-72362238D02*
X121244347Y-72457476D01*
X121244347Y-72457476D02*
X121196728Y-72552714D01*
X121196728Y-72552714D02*
X121149109Y-72743190D01*
X121149109Y-72743190D02*
X121149109Y-72886047D01*
X121149109Y-72886047D02*
X121196728Y-73076523D01*
X121196728Y-73076523D02*
X121244347Y-73171761D01*
X121244347Y-73171761D02*
X121339585Y-73267000D01*
X121339585Y-73267000D02*
X121482442Y-73314619D01*
X121482442Y-73314619D02*
X121720537Y-73314619D01*
X120815775Y-72314619D02*
X120196728Y-72314619D01*
X120196728Y-72314619D02*
X120530061Y-72695571D01*
X120530061Y-72695571D02*
X120387204Y-72695571D01*
X120387204Y-72695571D02*
X120291966Y-72743190D01*
X120291966Y-72743190D02*
X120244347Y-72790809D01*
X120244347Y-72790809D02*
X120196728Y-72886047D01*
X120196728Y-72886047D02*
X120196728Y-73124142D01*
X120196728Y-73124142D02*
X120244347Y-73219380D01*
X120244347Y-73219380D02*
X120291966Y-73267000D01*
X120291966Y-73267000D02*
X120387204Y-73314619D01*
X120387204Y-73314619D02*
X120672918Y-73314619D01*
X120672918Y-73314619D02*
X120768156Y-73267000D01*
X120768156Y-73267000D02*
X120815775Y-73219380D01*
X119244347Y-73314619D02*
X119815775Y-73314619D01*
X119530061Y-73314619D02*
X119530061Y-72314619D01*
X119530061Y-72314619D02*
X119625299Y-72457476D01*
X119625299Y-72457476D02*
X119720537Y-72552714D01*
X119720537Y-72552714D02*
X119815775Y-72600333D01*
%TO.C,D45*%
X140770537Y-92314619D02*
X140770537Y-91314619D01*
X140770537Y-91314619D02*
X140532442Y-91314619D01*
X140532442Y-91314619D02*
X140389585Y-91362238D01*
X140389585Y-91362238D02*
X140294347Y-91457476D01*
X140294347Y-91457476D02*
X140246728Y-91552714D01*
X140246728Y-91552714D02*
X140199109Y-91743190D01*
X140199109Y-91743190D02*
X140199109Y-91886047D01*
X140199109Y-91886047D02*
X140246728Y-92076523D01*
X140246728Y-92076523D02*
X140294347Y-92171761D01*
X140294347Y-92171761D02*
X140389585Y-92267000D01*
X140389585Y-92267000D02*
X140532442Y-92314619D01*
X140532442Y-92314619D02*
X140770537Y-92314619D01*
X139341966Y-91647952D02*
X139341966Y-92314619D01*
X139580061Y-91267000D02*
X139818156Y-91981285D01*
X139818156Y-91981285D02*
X139199109Y-91981285D01*
X138341966Y-91314619D02*
X138818156Y-91314619D01*
X138818156Y-91314619D02*
X138865775Y-91790809D01*
X138865775Y-91790809D02*
X138818156Y-91743190D01*
X138818156Y-91743190D02*
X138722918Y-91695571D01*
X138722918Y-91695571D02*
X138484823Y-91695571D01*
X138484823Y-91695571D02*
X138389585Y-91743190D01*
X138389585Y-91743190D02*
X138341966Y-91790809D01*
X138341966Y-91790809D02*
X138294347Y-91886047D01*
X138294347Y-91886047D02*
X138294347Y-92124142D01*
X138294347Y-92124142D02*
X138341966Y-92219380D01*
X138341966Y-92219380D02*
X138389585Y-92267000D01*
X138389585Y-92267000D02*
X138484823Y-92314619D01*
X138484823Y-92314619D02*
X138722918Y-92314619D01*
X138722918Y-92314619D02*
X138818156Y-92267000D01*
X138818156Y-92267000D02*
X138865775Y-92219380D01*
%TO.C,D16*%
X83620537Y-54239619D02*
X83620537Y-53239619D01*
X83620537Y-53239619D02*
X83382442Y-53239619D01*
X83382442Y-53239619D02*
X83239585Y-53287238D01*
X83239585Y-53287238D02*
X83144347Y-53382476D01*
X83144347Y-53382476D02*
X83096728Y-53477714D01*
X83096728Y-53477714D02*
X83049109Y-53668190D01*
X83049109Y-53668190D02*
X83049109Y-53811047D01*
X83049109Y-53811047D02*
X83096728Y-54001523D01*
X83096728Y-54001523D02*
X83144347Y-54096761D01*
X83144347Y-54096761D02*
X83239585Y-54192000D01*
X83239585Y-54192000D02*
X83382442Y-54239619D01*
X83382442Y-54239619D02*
X83620537Y-54239619D01*
X82096728Y-54239619D02*
X82668156Y-54239619D01*
X82382442Y-54239619D02*
X82382442Y-53239619D01*
X82382442Y-53239619D02*
X82477680Y-53382476D01*
X82477680Y-53382476D02*
X82572918Y-53477714D01*
X82572918Y-53477714D02*
X82668156Y-53525333D01*
X81239585Y-53239619D02*
X81430061Y-53239619D01*
X81430061Y-53239619D02*
X81525299Y-53287238D01*
X81525299Y-53287238D02*
X81572918Y-53334857D01*
X81572918Y-53334857D02*
X81668156Y-53477714D01*
X81668156Y-53477714D02*
X81715775Y-53668190D01*
X81715775Y-53668190D02*
X81715775Y-54049142D01*
X81715775Y-54049142D02*
X81668156Y-54144380D01*
X81668156Y-54144380D02*
X81620537Y-54192000D01*
X81620537Y-54192000D02*
X81525299Y-54239619D01*
X81525299Y-54239619D02*
X81334823Y-54239619D01*
X81334823Y-54239619D02*
X81239585Y-54192000D01*
X81239585Y-54192000D02*
X81191966Y-54144380D01*
X81191966Y-54144380D02*
X81144347Y-54049142D01*
X81144347Y-54049142D02*
X81144347Y-53811047D01*
X81144347Y-53811047D02*
X81191966Y-53715809D01*
X81191966Y-53715809D02*
X81239585Y-53668190D01*
X81239585Y-53668190D02*
X81334823Y-53620571D01*
X81334823Y-53620571D02*
X81525299Y-53620571D01*
X81525299Y-53620571D02*
X81620537Y-53668190D01*
X81620537Y-53668190D02*
X81668156Y-53715809D01*
X81668156Y-53715809D02*
X81715775Y-53811047D01*
%TO.C,D41*%
X64570537Y-92314619D02*
X64570537Y-91314619D01*
X64570537Y-91314619D02*
X64332442Y-91314619D01*
X64332442Y-91314619D02*
X64189585Y-91362238D01*
X64189585Y-91362238D02*
X64094347Y-91457476D01*
X64094347Y-91457476D02*
X64046728Y-91552714D01*
X64046728Y-91552714D02*
X63999109Y-91743190D01*
X63999109Y-91743190D02*
X63999109Y-91886047D01*
X63999109Y-91886047D02*
X64046728Y-92076523D01*
X64046728Y-92076523D02*
X64094347Y-92171761D01*
X64094347Y-92171761D02*
X64189585Y-92267000D01*
X64189585Y-92267000D02*
X64332442Y-92314619D01*
X64332442Y-92314619D02*
X64570537Y-92314619D01*
X63141966Y-91647952D02*
X63141966Y-92314619D01*
X63380061Y-91267000D02*
X63618156Y-91981285D01*
X63618156Y-91981285D02*
X62999109Y-91981285D01*
X62094347Y-92314619D02*
X62665775Y-92314619D01*
X62380061Y-92314619D02*
X62380061Y-91314619D01*
X62380061Y-91314619D02*
X62475299Y-91457476D01*
X62475299Y-91457476D02*
X62570537Y-91552714D01*
X62570537Y-91552714D02*
X62665775Y-91600333D01*
%TO.C,D13*%
X278883033Y-35189619D02*
X278883033Y-34189619D01*
X278883033Y-34189619D02*
X278644938Y-34189619D01*
X278644938Y-34189619D02*
X278502081Y-34237238D01*
X278502081Y-34237238D02*
X278406843Y-34332476D01*
X278406843Y-34332476D02*
X278359224Y-34427714D01*
X278359224Y-34427714D02*
X278311605Y-34618190D01*
X278311605Y-34618190D02*
X278311605Y-34761047D01*
X278311605Y-34761047D02*
X278359224Y-34951523D01*
X278359224Y-34951523D02*
X278406843Y-35046761D01*
X278406843Y-35046761D02*
X278502081Y-35142000D01*
X278502081Y-35142000D02*
X278644938Y-35189619D01*
X278644938Y-35189619D02*
X278883033Y-35189619D01*
X277359224Y-35189619D02*
X277930652Y-35189619D01*
X277644938Y-35189619D02*
X277644938Y-34189619D01*
X277644938Y-34189619D02*
X277740176Y-34332476D01*
X277740176Y-34332476D02*
X277835414Y-34427714D01*
X277835414Y-34427714D02*
X277930652Y-34475333D01*
X277025890Y-34189619D02*
X276406843Y-34189619D01*
X276406843Y-34189619D02*
X276740176Y-34570571D01*
X276740176Y-34570571D02*
X276597319Y-34570571D01*
X276597319Y-34570571D02*
X276502081Y-34618190D01*
X276502081Y-34618190D02*
X276454462Y-34665809D01*
X276454462Y-34665809D02*
X276406843Y-34761047D01*
X276406843Y-34761047D02*
X276406843Y-34999142D01*
X276406843Y-34999142D02*
X276454462Y-35094380D01*
X276454462Y-35094380D02*
X276502081Y-35142000D01*
X276502081Y-35142000D02*
X276597319Y-35189619D01*
X276597319Y-35189619D02*
X276883033Y-35189619D01*
X276883033Y-35189619D02*
X276978271Y-35142000D01*
X276978271Y-35142000D02*
X277025890Y-35094380D01*
%TO.C,D49*%
X216970537Y-92314619D02*
X216970537Y-91314619D01*
X216970537Y-91314619D02*
X216732442Y-91314619D01*
X216732442Y-91314619D02*
X216589585Y-91362238D01*
X216589585Y-91362238D02*
X216494347Y-91457476D01*
X216494347Y-91457476D02*
X216446728Y-91552714D01*
X216446728Y-91552714D02*
X216399109Y-91743190D01*
X216399109Y-91743190D02*
X216399109Y-91886047D01*
X216399109Y-91886047D02*
X216446728Y-92076523D01*
X216446728Y-92076523D02*
X216494347Y-92171761D01*
X216494347Y-92171761D02*
X216589585Y-92267000D01*
X216589585Y-92267000D02*
X216732442Y-92314619D01*
X216732442Y-92314619D02*
X216970537Y-92314619D01*
X215541966Y-91647952D02*
X215541966Y-92314619D01*
X215780061Y-91267000D02*
X216018156Y-91981285D01*
X216018156Y-91981285D02*
X215399109Y-91981285D01*
X214970537Y-92314619D02*
X214780061Y-92314619D01*
X214780061Y-92314619D02*
X214684823Y-92267000D01*
X214684823Y-92267000D02*
X214637204Y-92219380D01*
X214637204Y-92219380D02*
X214541966Y-92076523D01*
X214541966Y-92076523D02*
X214494347Y-91886047D01*
X214494347Y-91886047D02*
X214494347Y-91505095D01*
X214494347Y-91505095D02*
X214541966Y-91409857D01*
X214541966Y-91409857D02*
X214589585Y-91362238D01*
X214589585Y-91362238D02*
X214684823Y-91314619D01*
X214684823Y-91314619D02*
X214875299Y-91314619D01*
X214875299Y-91314619D02*
X214970537Y-91362238D01*
X214970537Y-91362238D02*
X215018156Y-91409857D01*
X215018156Y-91409857D02*
X215065775Y-91505095D01*
X215065775Y-91505095D02*
X215065775Y-91743190D01*
X215065775Y-91743190D02*
X215018156Y-91838428D01*
X215018156Y-91838428D02*
X214970537Y-91886047D01*
X214970537Y-91886047D02*
X214875299Y-91933666D01*
X214875299Y-91933666D02*
X214684823Y-91933666D01*
X214684823Y-91933666D02*
X214589585Y-91886047D01*
X214589585Y-91886047D02*
X214541966Y-91838428D01*
X214541966Y-91838428D02*
X214494347Y-91743190D01*
%TO.C,D51*%
X255070537Y-92314619D02*
X255070537Y-91314619D01*
X255070537Y-91314619D02*
X254832442Y-91314619D01*
X254832442Y-91314619D02*
X254689585Y-91362238D01*
X254689585Y-91362238D02*
X254594347Y-91457476D01*
X254594347Y-91457476D02*
X254546728Y-91552714D01*
X254546728Y-91552714D02*
X254499109Y-91743190D01*
X254499109Y-91743190D02*
X254499109Y-91886047D01*
X254499109Y-91886047D02*
X254546728Y-92076523D01*
X254546728Y-92076523D02*
X254594347Y-92171761D01*
X254594347Y-92171761D02*
X254689585Y-92267000D01*
X254689585Y-92267000D02*
X254832442Y-92314619D01*
X254832442Y-92314619D02*
X255070537Y-92314619D01*
X253594347Y-91314619D02*
X254070537Y-91314619D01*
X254070537Y-91314619D02*
X254118156Y-91790809D01*
X254118156Y-91790809D02*
X254070537Y-91743190D01*
X254070537Y-91743190D02*
X253975299Y-91695571D01*
X253975299Y-91695571D02*
X253737204Y-91695571D01*
X253737204Y-91695571D02*
X253641966Y-91743190D01*
X253641966Y-91743190D02*
X253594347Y-91790809D01*
X253594347Y-91790809D02*
X253546728Y-91886047D01*
X253546728Y-91886047D02*
X253546728Y-92124142D01*
X253546728Y-92124142D02*
X253594347Y-92219380D01*
X253594347Y-92219380D02*
X253641966Y-92267000D01*
X253641966Y-92267000D02*
X253737204Y-92314619D01*
X253737204Y-92314619D02*
X253975299Y-92314619D01*
X253975299Y-92314619D02*
X254070537Y-92267000D01*
X254070537Y-92267000D02*
X254118156Y-92219380D01*
X252594347Y-92314619D02*
X253165775Y-92314619D01*
X252880061Y-92314619D02*
X252880061Y-91314619D01*
X252880061Y-91314619D02*
X252975299Y-91457476D01*
X252975299Y-91457476D02*
X253070537Y-91552714D01*
X253070537Y-91552714D02*
X253165775Y-91600333D01*
%TO.C,D50*%
X236020537Y-92314619D02*
X236020537Y-91314619D01*
X236020537Y-91314619D02*
X235782442Y-91314619D01*
X235782442Y-91314619D02*
X235639585Y-91362238D01*
X235639585Y-91362238D02*
X235544347Y-91457476D01*
X235544347Y-91457476D02*
X235496728Y-91552714D01*
X235496728Y-91552714D02*
X235449109Y-91743190D01*
X235449109Y-91743190D02*
X235449109Y-91886047D01*
X235449109Y-91886047D02*
X235496728Y-92076523D01*
X235496728Y-92076523D02*
X235544347Y-92171761D01*
X235544347Y-92171761D02*
X235639585Y-92267000D01*
X235639585Y-92267000D02*
X235782442Y-92314619D01*
X235782442Y-92314619D02*
X236020537Y-92314619D01*
X234544347Y-91314619D02*
X235020537Y-91314619D01*
X235020537Y-91314619D02*
X235068156Y-91790809D01*
X235068156Y-91790809D02*
X235020537Y-91743190D01*
X235020537Y-91743190D02*
X234925299Y-91695571D01*
X234925299Y-91695571D02*
X234687204Y-91695571D01*
X234687204Y-91695571D02*
X234591966Y-91743190D01*
X234591966Y-91743190D02*
X234544347Y-91790809D01*
X234544347Y-91790809D02*
X234496728Y-91886047D01*
X234496728Y-91886047D02*
X234496728Y-92124142D01*
X234496728Y-92124142D02*
X234544347Y-92219380D01*
X234544347Y-92219380D02*
X234591966Y-92267000D01*
X234591966Y-92267000D02*
X234687204Y-92314619D01*
X234687204Y-92314619D02*
X234925299Y-92314619D01*
X234925299Y-92314619D02*
X235020537Y-92267000D01*
X235020537Y-92267000D02*
X235068156Y-92219380D01*
X233877680Y-91314619D02*
X233782442Y-91314619D01*
X233782442Y-91314619D02*
X233687204Y-91362238D01*
X233687204Y-91362238D02*
X233639585Y-91409857D01*
X233639585Y-91409857D02*
X233591966Y-91505095D01*
X233591966Y-91505095D02*
X233544347Y-91695571D01*
X233544347Y-91695571D02*
X233544347Y-91933666D01*
X233544347Y-91933666D02*
X233591966Y-92124142D01*
X233591966Y-92124142D02*
X233639585Y-92219380D01*
X233639585Y-92219380D02*
X233687204Y-92267000D01*
X233687204Y-92267000D02*
X233782442Y-92314619D01*
X233782442Y-92314619D02*
X233877680Y-92314619D01*
X233877680Y-92314619D02*
X233972918Y-92267000D01*
X233972918Y-92267000D02*
X234020537Y-92219380D01*
X234020537Y-92219380D02*
X234068156Y-92124142D01*
X234068156Y-92124142D02*
X234115775Y-91933666D01*
X234115775Y-91933666D02*
X234115775Y-91695571D01*
X234115775Y-91695571D02*
X234068156Y-91505095D01*
X234068156Y-91505095D02*
X234020537Y-91409857D01*
X234020537Y-91409857D02*
X233972918Y-91362238D01*
X233972918Y-91362238D02*
X233877680Y-91314619D01*
%TO.C,C5*%
X260241666Y-38392380D02*
X260289285Y-38440000D01*
X260289285Y-38440000D02*
X260432142Y-38487619D01*
X260432142Y-38487619D02*
X260527380Y-38487619D01*
X260527380Y-38487619D02*
X260670237Y-38440000D01*
X260670237Y-38440000D02*
X260765475Y-38344761D01*
X260765475Y-38344761D02*
X260813094Y-38249523D01*
X260813094Y-38249523D02*
X260860713Y-38059047D01*
X260860713Y-38059047D02*
X260860713Y-37916190D01*
X260860713Y-37916190D02*
X260813094Y-37725714D01*
X260813094Y-37725714D02*
X260765475Y-37630476D01*
X260765475Y-37630476D02*
X260670237Y-37535238D01*
X260670237Y-37535238D02*
X260527380Y-37487619D01*
X260527380Y-37487619D02*
X260432142Y-37487619D01*
X260432142Y-37487619D02*
X260289285Y-37535238D01*
X260289285Y-37535238D02*
X260241666Y-37582857D01*
X259336904Y-37487619D02*
X259813094Y-37487619D01*
X259813094Y-37487619D02*
X259860713Y-37963809D01*
X259860713Y-37963809D02*
X259813094Y-37916190D01*
X259813094Y-37916190D02*
X259717856Y-37868571D01*
X259717856Y-37868571D02*
X259479761Y-37868571D01*
X259479761Y-37868571D02*
X259384523Y-37916190D01*
X259384523Y-37916190D02*
X259336904Y-37963809D01*
X259336904Y-37963809D02*
X259289285Y-38059047D01*
X259289285Y-38059047D02*
X259289285Y-38297142D01*
X259289285Y-38297142D02*
X259336904Y-38392380D01*
X259336904Y-38392380D02*
X259384523Y-38440000D01*
X259384523Y-38440000D02*
X259479761Y-38487619D01*
X259479761Y-38487619D02*
X259717856Y-38487619D01*
X259717856Y-38487619D02*
X259813094Y-38440000D01*
X259813094Y-38440000D02*
X259860713Y-38392380D01*
%TO.C,D52*%
X278883033Y-92314619D02*
X278883033Y-91314619D01*
X278883033Y-91314619D02*
X278644938Y-91314619D01*
X278644938Y-91314619D02*
X278502081Y-91362238D01*
X278502081Y-91362238D02*
X278406843Y-91457476D01*
X278406843Y-91457476D02*
X278359224Y-91552714D01*
X278359224Y-91552714D02*
X278311605Y-91743190D01*
X278311605Y-91743190D02*
X278311605Y-91886047D01*
X278311605Y-91886047D02*
X278359224Y-92076523D01*
X278359224Y-92076523D02*
X278406843Y-92171761D01*
X278406843Y-92171761D02*
X278502081Y-92267000D01*
X278502081Y-92267000D02*
X278644938Y-92314619D01*
X278644938Y-92314619D02*
X278883033Y-92314619D01*
X277406843Y-91314619D02*
X277883033Y-91314619D01*
X277883033Y-91314619D02*
X277930652Y-91790809D01*
X277930652Y-91790809D02*
X277883033Y-91743190D01*
X277883033Y-91743190D02*
X277787795Y-91695571D01*
X277787795Y-91695571D02*
X277549700Y-91695571D01*
X277549700Y-91695571D02*
X277454462Y-91743190D01*
X277454462Y-91743190D02*
X277406843Y-91790809D01*
X277406843Y-91790809D02*
X277359224Y-91886047D01*
X277359224Y-91886047D02*
X277359224Y-92124142D01*
X277359224Y-92124142D02*
X277406843Y-92219380D01*
X277406843Y-92219380D02*
X277454462Y-92267000D01*
X277454462Y-92267000D02*
X277549700Y-92314619D01*
X277549700Y-92314619D02*
X277787795Y-92314619D01*
X277787795Y-92314619D02*
X277883033Y-92267000D01*
X277883033Y-92267000D02*
X277930652Y-92219380D01*
X276978271Y-91409857D02*
X276930652Y-91362238D01*
X276930652Y-91362238D02*
X276835414Y-91314619D01*
X276835414Y-91314619D02*
X276597319Y-91314619D01*
X276597319Y-91314619D02*
X276502081Y-91362238D01*
X276502081Y-91362238D02*
X276454462Y-91409857D01*
X276454462Y-91409857D02*
X276406843Y-91505095D01*
X276406843Y-91505095D02*
X276406843Y-91600333D01*
X276406843Y-91600333D02*
X276454462Y-91743190D01*
X276454462Y-91743190D02*
X277025890Y-92314619D01*
X277025890Y-92314619D02*
X276406843Y-92314619D01*
%TO.C,D37*%
X236020537Y-73314619D02*
X236020537Y-72314619D01*
X236020537Y-72314619D02*
X235782442Y-72314619D01*
X235782442Y-72314619D02*
X235639585Y-72362238D01*
X235639585Y-72362238D02*
X235544347Y-72457476D01*
X235544347Y-72457476D02*
X235496728Y-72552714D01*
X235496728Y-72552714D02*
X235449109Y-72743190D01*
X235449109Y-72743190D02*
X235449109Y-72886047D01*
X235449109Y-72886047D02*
X235496728Y-73076523D01*
X235496728Y-73076523D02*
X235544347Y-73171761D01*
X235544347Y-73171761D02*
X235639585Y-73267000D01*
X235639585Y-73267000D02*
X235782442Y-73314619D01*
X235782442Y-73314619D02*
X236020537Y-73314619D01*
X235115775Y-72314619D02*
X234496728Y-72314619D01*
X234496728Y-72314619D02*
X234830061Y-72695571D01*
X234830061Y-72695571D02*
X234687204Y-72695571D01*
X234687204Y-72695571D02*
X234591966Y-72743190D01*
X234591966Y-72743190D02*
X234544347Y-72790809D01*
X234544347Y-72790809D02*
X234496728Y-72886047D01*
X234496728Y-72886047D02*
X234496728Y-73124142D01*
X234496728Y-73124142D02*
X234544347Y-73219380D01*
X234544347Y-73219380D02*
X234591966Y-73267000D01*
X234591966Y-73267000D02*
X234687204Y-73314619D01*
X234687204Y-73314619D02*
X234972918Y-73314619D01*
X234972918Y-73314619D02*
X235068156Y-73267000D01*
X235068156Y-73267000D02*
X235115775Y-73219380D01*
X234163394Y-72314619D02*
X233496728Y-72314619D01*
X233496728Y-72314619D02*
X233925299Y-73314619D01*
%TO.C,D3*%
X83144346Y-35189619D02*
X83144346Y-34189619D01*
X83144346Y-34189619D02*
X82906251Y-34189619D01*
X82906251Y-34189619D02*
X82763394Y-34237238D01*
X82763394Y-34237238D02*
X82668156Y-34332476D01*
X82668156Y-34332476D02*
X82620537Y-34427714D01*
X82620537Y-34427714D02*
X82572918Y-34618190D01*
X82572918Y-34618190D02*
X82572918Y-34761047D01*
X82572918Y-34761047D02*
X82620537Y-34951523D01*
X82620537Y-34951523D02*
X82668156Y-35046761D01*
X82668156Y-35046761D02*
X82763394Y-35142000D01*
X82763394Y-35142000D02*
X82906251Y-35189619D01*
X82906251Y-35189619D02*
X83144346Y-35189619D01*
X82239584Y-34189619D02*
X81620537Y-34189619D01*
X81620537Y-34189619D02*
X81953870Y-34570571D01*
X81953870Y-34570571D02*
X81811013Y-34570571D01*
X81811013Y-34570571D02*
X81715775Y-34618190D01*
X81715775Y-34618190D02*
X81668156Y-34665809D01*
X81668156Y-34665809D02*
X81620537Y-34761047D01*
X81620537Y-34761047D02*
X81620537Y-34999142D01*
X81620537Y-34999142D02*
X81668156Y-35094380D01*
X81668156Y-35094380D02*
X81715775Y-35142000D01*
X81715775Y-35142000D02*
X81811013Y-35189619D01*
X81811013Y-35189619D02*
X82096727Y-35189619D01*
X82096727Y-35189619D02*
X82191965Y-35142000D01*
X82191965Y-35142000D02*
X82239584Y-35094380D01*
%TO.C,C3*%
X264067380Y-62833333D02*
X264115000Y-62785714D01*
X264115000Y-62785714D02*
X264162619Y-62642857D01*
X264162619Y-62642857D02*
X264162619Y-62547619D01*
X264162619Y-62547619D02*
X264115000Y-62404762D01*
X264115000Y-62404762D02*
X264019761Y-62309524D01*
X264019761Y-62309524D02*
X263924523Y-62261905D01*
X263924523Y-62261905D02*
X263734047Y-62214286D01*
X263734047Y-62214286D02*
X263591190Y-62214286D01*
X263591190Y-62214286D02*
X263400714Y-62261905D01*
X263400714Y-62261905D02*
X263305476Y-62309524D01*
X263305476Y-62309524D02*
X263210238Y-62404762D01*
X263210238Y-62404762D02*
X263162619Y-62547619D01*
X263162619Y-62547619D02*
X263162619Y-62642857D01*
X263162619Y-62642857D02*
X263210238Y-62785714D01*
X263210238Y-62785714D02*
X263257857Y-62833333D01*
X263162619Y-63166667D02*
X263162619Y-63785714D01*
X263162619Y-63785714D02*
X263543571Y-63452381D01*
X263543571Y-63452381D02*
X263543571Y-63595238D01*
X263543571Y-63595238D02*
X263591190Y-63690476D01*
X263591190Y-63690476D02*
X263638809Y-63738095D01*
X263638809Y-63738095D02*
X263734047Y-63785714D01*
X263734047Y-63785714D02*
X263972142Y-63785714D01*
X263972142Y-63785714D02*
X264067380Y-63738095D01*
X264067380Y-63738095D02*
X264115000Y-63690476D01*
X264115000Y-63690476D02*
X264162619Y-63595238D01*
X264162619Y-63595238D02*
X264162619Y-63309524D01*
X264162619Y-63309524D02*
X264115000Y-63214286D01*
X264115000Y-63214286D02*
X264067380Y-63166667D01*
%TO.C,D18*%
X121720537Y-54239619D02*
X121720537Y-53239619D01*
X121720537Y-53239619D02*
X121482442Y-53239619D01*
X121482442Y-53239619D02*
X121339585Y-53287238D01*
X121339585Y-53287238D02*
X121244347Y-53382476D01*
X121244347Y-53382476D02*
X121196728Y-53477714D01*
X121196728Y-53477714D02*
X121149109Y-53668190D01*
X121149109Y-53668190D02*
X121149109Y-53811047D01*
X121149109Y-53811047D02*
X121196728Y-54001523D01*
X121196728Y-54001523D02*
X121244347Y-54096761D01*
X121244347Y-54096761D02*
X121339585Y-54192000D01*
X121339585Y-54192000D02*
X121482442Y-54239619D01*
X121482442Y-54239619D02*
X121720537Y-54239619D01*
X120196728Y-54239619D02*
X120768156Y-54239619D01*
X120482442Y-54239619D02*
X120482442Y-53239619D01*
X120482442Y-53239619D02*
X120577680Y-53382476D01*
X120577680Y-53382476D02*
X120672918Y-53477714D01*
X120672918Y-53477714D02*
X120768156Y-53525333D01*
X119625299Y-53668190D02*
X119720537Y-53620571D01*
X119720537Y-53620571D02*
X119768156Y-53572952D01*
X119768156Y-53572952D02*
X119815775Y-53477714D01*
X119815775Y-53477714D02*
X119815775Y-53430095D01*
X119815775Y-53430095D02*
X119768156Y-53334857D01*
X119768156Y-53334857D02*
X119720537Y-53287238D01*
X119720537Y-53287238D02*
X119625299Y-53239619D01*
X119625299Y-53239619D02*
X119434823Y-53239619D01*
X119434823Y-53239619D02*
X119339585Y-53287238D01*
X119339585Y-53287238D02*
X119291966Y-53334857D01*
X119291966Y-53334857D02*
X119244347Y-53430095D01*
X119244347Y-53430095D02*
X119244347Y-53477714D01*
X119244347Y-53477714D02*
X119291966Y-53572952D01*
X119291966Y-53572952D02*
X119339585Y-53620571D01*
X119339585Y-53620571D02*
X119434823Y-53668190D01*
X119434823Y-53668190D02*
X119625299Y-53668190D01*
X119625299Y-53668190D02*
X119720537Y-53715809D01*
X119720537Y-53715809D02*
X119768156Y-53763428D01*
X119768156Y-53763428D02*
X119815775Y-53858666D01*
X119815775Y-53858666D02*
X119815775Y-54049142D01*
X119815775Y-54049142D02*
X119768156Y-54144380D01*
X119768156Y-54144380D02*
X119720537Y-54192000D01*
X119720537Y-54192000D02*
X119625299Y-54239619D01*
X119625299Y-54239619D02*
X119434823Y-54239619D01*
X119434823Y-54239619D02*
X119339585Y-54192000D01*
X119339585Y-54192000D02*
X119291966Y-54144380D01*
X119291966Y-54144380D02*
X119244347Y-54049142D01*
X119244347Y-54049142D02*
X119244347Y-53858666D01*
X119244347Y-53858666D02*
X119291966Y-53763428D01*
X119291966Y-53763428D02*
X119339585Y-53715809D01*
X119339585Y-53715809D02*
X119434823Y-53668190D01*
%TO.C,D28*%
X64570537Y-73314619D02*
X64570537Y-72314619D01*
X64570537Y-72314619D02*
X64332442Y-72314619D01*
X64332442Y-72314619D02*
X64189585Y-72362238D01*
X64189585Y-72362238D02*
X64094347Y-72457476D01*
X64094347Y-72457476D02*
X64046728Y-72552714D01*
X64046728Y-72552714D02*
X63999109Y-72743190D01*
X63999109Y-72743190D02*
X63999109Y-72886047D01*
X63999109Y-72886047D02*
X64046728Y-73076523D01*
X64046728Y-73076523D02*
X64094347Y-73171761D01*
X64094347Y-73171761D02*
X64189585Y-73267000D01*
X64189585Y-73267000D02*
X64332442Y-73314619D01*
X64332442Y-73314619D02*
X64570537Y-73314619D01*
X63618156Y-72409857D02*
X63570537Y-72362238D01*
X63570537Y-72362238D02*
X63475299Y-72314619D01*
X63475299Y-72314619D02*
X63237204Y-72314619D01*
X63237204Y-72314619D02*
X63141966Y-72362238D01*
X63141966Y-72362238D02*
X63094347Y-72409857D01*
X63094347Y-72409857D02*
X63046728Y-72505095D01*
X63046728Y-72505095D02*
X63046728Y-72600333D01*
X63046728Y-72600333D02*
X63094347Y-72743190D01*
X63094347Y-72743190D02*
X63665775Y-73314619D01*
X63665775Y-73314619D02*
X63046728Y-73314619D01*
X62475299Y-72743190D02*
X62570537Y-72695571D01*
X62570537Y-72695571D02*
X62618156Y-72647952D01*
X62618156Y-72647952D02*
X62665775Y-72552714D01*
X62665775Y-72552714D02*
X62665775Y-72505095D01*
X62665775Y-72505095D02*
X62618156Y-72409857D01*
X62618156Y-72409857D02*
X62570537Y-72362238D01*
X62570537Y-72362238D02*
X62475299Y-72314619D01*
X62475299Y-72314619D02*
X62284823Y-72314619D01*
X62284823Y-72314619D02*
X62189585Y-72362238D01*
X62189585Y-72362238D02*
X62141966Y-72409857D01*
X62141966Y-72409857D02*
X62094347Y-72505095D01*
X62094347Y-72505095D02*
X62094347Y-72552714D01*
X62094347Y-72552714D02*
X62141966Y-72647952D01*
X62141966Y-72647952D02*
X62189585Y-72695571D01*
X62189585Y-72695571D02*
X62284823Y-72743190D01*
X62284823Y-72743190D02*
X62475299Y-72743190D01*
X62475299Y-72743190D02*
X62570537Y-72790809D01*
X62570537Y-72790809D02*
X62618156Y-72838428D01*
X62618156Y-72838428D02*
X62665775Y-72933666D01*
X62665775Y-72933666D02*
X62665775Y-73124142D01*
X62665775Y-73124142D02*
X62618156Y-73219380D01*
X62618156Y-73219380D02*
X62570537Y-73267000D01*
X62570537Y-73267000D02*
X62475299Y-73314619D01*
X62475299Y-73314619D02*
X62284823Y-73314619D01*
X62284823Y-73314619D02*
X62189585Y-73267000D01*
X62189585Y-73267000D02*
X62141966Y-73219380D01*
X62141966Y-73219380D02*
X62094347Y-73124142D01*
X62094347Y-73124142D02*
X62094347Y-72933666D01*
X62094347Y-72933666D02*
X62141966Y-72838428D01*
X62141966Y-72838428D02*
X62189585Y-72790809D01*
X62189585Y-72790809D02*
X62284823Y-72743190D01*
%TO.C,D32*%
X140770537Y-73314619D02*
X140770537Y-72314619D01*
X140770537Y-72314619D02*
X140532442Y-72314619D01*
X140532442Y-72314619D02*
X140389585Y-72362238D01*
X140389585Y-72362238D02*
X140294347Y-72457476D01*
X140294347Y-72457476D02*
X140246728Y-72552714D01*
X140246728Y-72552714D02*
X140199109Y-72743190D01*
X140199109Y-72743190D02*
X140199109Y-72886047D01*
X140199109Y-72886047D02*
X140246728Y-73076523D01*
X140246728Y-73076523D02*
X140294347Y-73171761D01*
X140294347Y-73171761D02*
X140389585Y-73267000D01*
X140389585Y-73267000D02*
X140532442Y-73314619D01*
X140532442Y-73314619D02*
X140770537Y-73314619D01*
X139865775Y-72314619D02*
X139246728Y-72314619D01*
X139246728Y-72314619D02*
X139580061Y-72695571D01*
X139580061Y-72695571D02*
X139437204Y-72695571D01*
X139437204Y-72695571D02*
X139341966Y-72743190D01*
X139341966Y-72743190D02*
X139294347Y-72790809D01*
X139294347Y-72790809D02*
X139246728Y-72886047D01*
X139246728Y-72886047D02*
X139246728Y-73124142D01*
X139246728Y-73124142D02*
X139294347Y-73219380D01*
X139294347Y-73219380D02*
X139341966Y-73267000D01*
X139341966Y-73267000D02*
X139437204Y-73314619D01*
X139437204Y-73314619D02*
X139722918Y-73314619D01*
X139722918Y-73314619D02*
X139818156Y-73267000D01*
X139818156Y-73267000D02*
X139865775Y-73219380D01*
X138865775Y-72409857D02*
X138818156Y-72362238D01*
X138818156Y-72362238D02*
X138722918Y-72314619D01*
X138722918Y-72314619D02*
X138484823Y-72314619D01*
X138484823Y-72314619D02*
X138389585Y-72362238D01*
X138389585Y-72362238D02*
X138341966Y-72409857D01*
X138341966Y-72409857D02*
X138294347Y-72505095D01*
X138294347Y-72505095D02*
X138294347Y-72600333D01*
X138294347Y-72600333D02*
X138341966Y-72743190D01*
X138341966Y-72743190D02*
X138913394Y-73314619D01*
X138913394Y-73314619D02*
X138294347Y-73314619D01*
%TO.C,D5*%
X121244346Y-35189619D02*
X121244346Y-34189619D01*
X121244346Y-34189619D02*
X121006251Y-34189619D01*
X121006251Y-34189619D02*
X120863394Y-34237238D01*
X120863394Y-34237238D02*
X120768156Y-34332476D01*
X120768156Y-34332476D02*
X120720537Y-34427714D01*
X120720537Y-34427714D02*
X120672918Y-34618190D01*
X120672918Y-34618190D02*
X120672918Y-34761047D01*
X120672918Y-34761047D02*
X120720537Y-34951523D01*
X120720537Y-34951523D02*
X120768156Y-35046761D01*
X120768156Y-35046761D02*
X120863394Y-35142000D01*
X120863394Y-35142000D02*
X121006251Y-35189619D01*
X121006251Y-35189619D02*
X121244346Y-35189619D01*
X119768156Y-34189619D02*
X120244346Y-34189619D01*
X120244346Y-34189619D02*
X120291965Y-34665809D01*
X120291965Y-34665809D02*
X120244346Y-34618190D01*
X120244346Y-34618190D02*
X120149108Y-34570571D01*
X120149108Y-34570571D02*
X119911013Y-34570571D01*
X119911013Y-34570571D02*
X119815775Y-34618190D01*
X119815775Y-34618190D02*
X119768156Y-34665809D01*
X119768156Y-34665809D02*
X119720537Y-34761047D01*
X119720537Y-34761047D02*
X119720537Y-34999142D01*
X119720537Y-34999142D02*
X119768156Y-35094380D01*
X119768156Y-35094380D02*
X119815775Y-35142000D01*
X119815775Y-35142000D02*
X119911013Y-35189619D01*
X119911013Y-35189619D02*
X120149108Y-35189619D01*
X120149108Y-35189619D02*
X120244346Y-35142000D01*
X120244346Y-35142000D02*
X120291965Y-35094380D01*
%TO.C,D27*%
X45520537Y-73314619D02*
X45520537Y-72314619D01*
X45520537Y-72314619D02*
X45282442Y-72314619D01*
X45282442Y-72314619D02*
X45139585Y-72362238D01*
X45139585Y-72362238D02*
X45044347Y-72457476D01*
X45044347Y-72457476D02*
X44996728Y-72552714D01*
X44996728Y-72552714D02*
X44949109Y-72743190D01*
X44949109Y-72743190D02*
X44949109Y-72886047D01*
X44949109Y-72886047D02*
X44996728Y-73076523D01*
X44996728Y-73076523D02*
X45044347Y-73171761D01*
X45044347Y-73171761D02*
X45139585Y-73267000D01*
X45139585Y-73267000D02*
X45282442Y-73314619D01*
X45282442Y-73314619D02*
X45520537Y-73314619D01*
X44568156Y-72409857D02*
X44520537Y-72362238D01*
X44520537Y-72362238D02*
X44425299Y-72314619D01*
X44425299Y-72314619D02*
X44187204Y-72314619D01*
X44187204Y-72314619D02*
X44091966Y-72362238D01*
X44091966Y-72362238D02*
X44044347Y-72409857D01*
X44044347Y-72409857D02*
X43996728Y-72505095D01*
X43996728Y-72505095D02*
X43996728Y-72600333D01*
X43996728Y-72600333D02*
X44044347Y-72743190D01*
X44044347Y-72743190D02*
X44615775Y-73314619D01*
X44615775Y-73314619D02*
X43996728Y-73314619D01*
X43663394Y-72314619D02*
X42996728Y-72314619D01*
X42996728Y-72314619D02*
X43425299Y-73314619D01*
%TO.C,D48*%
X197920537Y-92314619D02*
X197920537Y-91314619D01*
X197920537Y-91314619D02*
X197682442Y-91314619D01*
X197682442Y-91314619D02*
X197539585Y-91362238D01*
X197539585Y-91362238D02*
X197444347Y-91457476D01*
X197444347Y-91457476D02*
X197396728Y-91552714D01*
X197396728Y-91552714D02*
X197349109Y-91743190D01*
X197349109Y-91743190D02*
X197349109Y-91886047D01*
X197349109Y-91886047D02*
X197396728Y-92076523D01*
X197396728Y-92076523D02*
X197444347Y-92171761D01*
X197444347Y-92171761D02*
X197539585Y-92267000D01*
X197539585Y-92267000D02*
X197682442Y-92314619D01*
X197682442Y-92314619D02*
X197920537Y-92314619D01*
X196491966Y-91647952D02*
X196491966Y-92314619D01*
X196730061Y-91267000D02*
X196968156Y-91981285D01*
X196968156Y-91981285D02*
X196349109Y-91981285D01*
X195825299Y-91743190D02*
X195920537Y-91695571D01*
X195920537Y-91695571D02*
X195968156Y-91647952D01*
X195968156Y-91647952D02*
X196015775Y-91552714D01*
X196015775Y-91552714D02*
X196015775Y-91505095D01*
X196015775Y-91505095D02*
X195968156Y-91409857D01*
X195968156Y-91409857D02*
X195920537Y-91362238D01*
X195920537Y-91362238D02*
X195825299Y-91314619D01*
X195825299Y-91314619D02*
X195634823Y-91314619D01*
X195634823Y-91314619D02*
X195539585Y-91362238D01*
X195539585Y-91362238D02*
X195491966Y-91409857D01*
X195491966Y-91409857D02*
X195444347Y-91505095D01*
X195444347Y-91505095D02*
X195444347Y-91552714D01*
X195444347Y-91552714D02*
X195491966Y-91647952D01*
X195491966Y-91647952D02*
X195539585Y-91695571D01*
X195539585Y-91695571D02*
X195634823Y-91743190D01*
X195634823Y-91743190D02*
X195825299Y-91743190D01*
X195825299Y-91743190D02*
X195920537Y-91790809D01*
X195920537Y-91790809D02*
X195968156Y-91838428D01*
X195968156Y-91838428D02*
X196015775Y-91933666D01*
X196015775Y-91933666D02*
X196015775Y-92124142D01*
X196015775Y-92124142D02*
X195968156Y-92219380D01*
X195968156Y-92219380D02*
X195920537Y-92267000D01*
X195920537Y-92267000D02*
X195825299Y-92314619D01*
X195825299Y-92314619D02*
X195634823Y-92314619D01*
X195634823Y-92314619D02*
X195539585Y-92267000D01*
X195539585Y-92267000D02*
X195491966Y-92219380D01*
X195491966Y-92219380D02*
X195444347Y-92124142D01*
X195444347Y-92124142D02*
X195444347Y-91933666D01*
X195444347Y-91933666D02*
X195491966Y-91838428D01*
X195491966Y-91838428D02*
X195539585Y-91790809D01*
X195539585Y-91790809D02*
X195634823Y-91743190D01*
%TO.C,D34*%
X178870537Y-73314619D02*
X178870537Y-72314619D01*
X178870537Y-72314619D02*
X178632442Y-72314619D01*
X178632442Y-72314619D02*
X178489585Y-72362238D01*
X178489585Y-72362238D02*
X178394347Y-72457476D01*
X178394347Y-72457476D02*
X178346728Y-72552714D01*
X178346728Y-72552714D02*
X178299109Y-72743190D01*
X178299109Y-72743190D02*
X178299109Y-72886047D01*
X178299109Y-72886047D02*
X178346728Y-73076523D01*
X178346728Y-73076523D02*
X178394347Y-73171761D01*
X178394347Y-73171761D02*
X178489585Y-73267000D01*
X178489585Y-73267000D02*
X178632442Y-73314619D01*
X178632442Y-73314619D02*
X178870537Y-73314619D01*
X177965775Y-72314619D02*
X177346728Y-72314619D01*
X177346728Y-72314619D02*
X177680061Y-72695571D01*
X177680061Y-72695571D02*
X177537204Y-72695571D01*
X177537204Y-72695571D02*
X177441966Y-72743190D01*
X177441966Y-72743190D02*
X177394347Y-72790809D01*
X177394347Y-72790809D02*
X177346728Y-72886047D01*
X177346728Y-72886047D02*
X177346728Y-73124142D01*
X177346728Y-73124142D02*
X177394347Y-73219380D01*
X177394347Y-73219380D02*
X177441966Y-73267000D01*
X177441966Y-73267000D02*
X177537204Y-73314619D01*
X177537204Y-73314619D02*
X177822918Y-73314619D01*
X177822918Y-73314619D02*
X177918156Y-73267000D01*
X177918156Y-73267000D02*
X177965775Y-73219380D01*
X176489585Y-72647952D02*
X176489585Y-73314619D01*
X176727680Y-72267000D02*
X176965775Y-72981285D01*
X176965775Y-72981285D02*
X176346728Y-72981285D01*
%TO.C,D20*%
X159820537Y-54239619D02*
X159820537Y-53239619D01*
X159820537Y-53239619D02*
X159582442Y-53239619D01*
X159582442Y-53239619D02*
X159439585Y-53287238D01*
X159439585Y-53287238D02*
X159344347Y-53382476D01*
X159344347Y-53382476D02*
X159296728Y-53477714D01*
X159296728Y-53477714D02*
X159249109Y-53668190D01*
X159249109Y-53668190D02*
X159249109Y-53811047D01*
X159249109Y-53811047D02*
X159296728Y-54001523D01*
X159296728Y-54001523D02*
X159344347Y-54096761D01*
X159344347Y-54096761D02*
X159439585Y-54192000D01*
X159439585Y-54192000D02*
X159582442Y-54239619D01*
X159582442Y-54239619D02*
X159820537Y-54239619D01*
X158868156Y-53334857D02*
X158820537Y-53287238D01*
X158820537Y-53287238D02*
X158725299Y-53239619D01*
X158725299Y-53239619D02*
X158487204Y-53239619D01*
X158487204Y-53239619D02*
X158391966Y-53287238D01*
X158391966Y-53287238D02*
X158344347Y-53334857D01*
X158344347Y-53334857D02*
X158296728Y-53430095D01*
X158296728Y-53430095D02*
X158296728Y-53525333D01*
X158296728Y-53525333D02*
X158344347Y-53668190D01*
X158344347Y-53668190D02*
X158915775Y-54239619D01*
X158915775Y-54239619D02*
X158296728Y-54239619D01*
X157677680Y-53239619D02*
X157582442Y-53239619D01*
X157582442Y-53239619D02*
X157487204Y-53287238D01*
X157487204Y-53287238D02*
X157439585Y-53334857D01*
X157439585Y-53334857D02*
X157391966Y-53430095D01*
X157391966Y-53430095D02*
X157344347Y-53620571D01*
X157344347Y-53620571D02*
X157344347Y-53858666D01*
X157344347Y-53858666D02*
X157391966Y-54049142D01*
X157391966Y-54049142D02*
X157439585Y-54144380D01*
X157439585Y-54144380D02*
X157487204Y-54192000D01*
X157487204Y-54192000D02*
X157582442Y-54239619D01*
X157582442Y-54239619D02*
X157677680Y-54239619D01*
X157677680Y-54239619D02*
X157772918Y-54192000D01*
X157772918Y-54192000D02*
X157820537Y-54144380D01*
X157820537Y-54144380D02*
X157868156Y-54049142D01*
X157868156Y-54049142D02*
X157915775Y-53858666D01*
X157915775Y-53858666D02*
X157915775Y-53620571D01*
X157915775Y-53620571D02*
X157868156Y-53430095D01*
X157868156Y-53430095D02*
X157820537Y-53334857D01*
X157820537Y-53334857D02*
X157772918Y-53287238D01*
X157772918Y-53287238D02*
X157677680Y-53239619D01*
%TO.C,J3*%
X223024585Y-37012619D02*
X223024585Y-37726904D01*
X223024585Y-37726904D02*
X223072204Y-37869761D01*
X223072204Y-37869761D02*
X223167442Y-37965000D01*
X223167442Y-37965000D02*
X223310299Y-38012619D01*
X223310299Y-38012619D02*
X223405537Y-38012619D01*
X222643632Y-37012619D02*
X222024585Y-37012619D01*
X222024585Y-37012619D02*
X222357918Y-37393571D01*
X222357918Y-37393571D02*
X222215061Y-37393571D01*
X222215061Y-37393571D02*
X222119823Y-37441190D01*
X222119823Y-37441190D02*
X222072204Y-37488809D01*
X222072204Y-37488809D02*
X222024585Y-37584047D01*
X222024585Y-37584047D02*
X222024585Y-37822142D01*
X222024585Y-37822142D02*
X222072204Y-37917380D01*
X222072204Y-37917380D02*
X222119823Y-37965000D01*
X222119823Y-37965000D02*
X222215061Y-38012619D01*
X222215061Y-38012619D02*
X222500775Y-38012619D01*
X222500775Y-38012619D02*
X222596013Y-37965000D01*
X222596013Y-37965000D02*
X222643632Y-37917380D01*
%TO.C,D19*%
X140770537Y-54239619D02*
X140770537Y-53239619D01*
X140770537Y-53239619D02*
X140532442Y-53239619D01*
X140532442Y-53239619D02*
X140389585Y-53287238D01*
X140389585Y-53287238D02*
X140294347Y-53382476D01*
X140294347Y-53382476D02*
X140246728Y-53477714D01*
X140246728Y-53477714D02*
X140199109Y-53668190D01*
X140199109Y-53668190D02*
X140199109Y-53811047D01*
X140199109Y-53811047D02*
X140246728Y-54001523D01*
X140246728Y-54001523D02*
X140294347Y-54096761D01*
X140294347Y-54096761D02*
X140389585Y-54192000D01*
X140389585Y-54192000D02*
X140532442Y-54239619D01*
X140532442Y-54239619D02*
X140770537Y-54239619D01*
X139246728Y-54239619D02*
X139818156Y-54239619D01*
X139532442Y-54239619D02*
X139532442Y-53239619D01*
X139532442Y-53239619D02*
X139627680Y-53382476D01*
X139627680Y-53382476D02*
X139722918Y-53477714D01*
X139722918Y-53477714D02*
X139818156Y-53525333D01*
X138770537Y-54239619D02*
X138580061Y-54239619D01*
X138580061Y-54239619D02*
X138484823Y-54192000D01*
X138484823Y-54192000D02*
X138437204Y-54144380D01*
X138437204Y-54144380D02*
X138341966Y-54001523D01*
X138341966Y-54001523D02*
X138294347Y-53811047D01*
X138294347Y-53811047D02*
X138294347Y-53430095D01*
X138294347Y-53430095D02*
X138341966Y-53334857D01*
X138341966Y-53334857D02*
X138389585Y-53287238D01*
X138389585Y-53287238D02*
X138484823Y-53239619D01*
X138484823Y-53239619D02*
X138675299Y-53239619D01*
X138675299Y-53239619D02*
X138770537Y-53287238D01*
X138770537Y-53287238D02*
X138818156Y-53334857D01*
X138818156Y-53334857D02*
X138865775Y-53430095D01*
X138865775Y-53430095D02*
X138865775Y-53668190D01*
X138865775Y-53668190D02*
X138818156Y-53763428D01*
X138818156Y-53763428D02*
X138770537Y-53811047D01*
X138770537Y-53811047D02*
X138675299Y-53858666D01*
X138675299Y-53858666D02*
X138484823Y-53858666D01*
X138484823Y-53858666D02*
X138389585Y-53811047D01*
X138389585Y-53811047D02*
X138341966Y-53763428D01*
X138341966Y-53763428D02*
X138294347Y-53668190D01*
%TO.C,R1*%
X245241666Y-60262619D02*
X245574999Y-59786428D01*
X245813094Y-60262619D02*
X245813094Y-59262619D01*
X245813094Y-59262619D02*
X245432142Y-59262619D01*
X245432142Y-59262619D02*
X245336904Y-59310238D01*
X245336904Y-59310238D02*
X245289285Y-59357857D01*
X245289285Y-59357857D02*
X245241666Y-59453095D01*
X245241666Y-59453095D02*
X245241666Y-59595952D01*
X245241666Y-59595952D02*
X245289285Y-59691190D01*
X245289285Y-59691190D02*
X245336904Y-59738809D01*
X245336904Y-59738809D02*
X245432142Y-59786428D01*
X245432142Y-59786428D02*
X245813094Y-59786428D01*
X244289285Y-60262619D02*
X244860713Y-60262619D01*
X244574999Y-60262619D02*
X244574999Y-59262619D01*
X244574999Y-59262619D02*
X244670237Y-59405476D01*
X244670237Y-59405476D02*
X244765475Y-59500714D01*
X244765475Y-59500714D02*
X244860713Y-59548333D01*
%TO.C,J5*%
X256362380Y-91987904D02*
X257362380Y-91987904D01*
X257362380Y-91987904D02*
X257362380Y-91606952D01*
X257362380Y-91606952D02*
X257314761Y-91511714D01*
X257314761Y-91511714D02*
X257267142Y-91464095D01*
X257267142Y-91464095D02*
X257171904Y-91416476D01*
X257171904Y-91416476D02*
X257029047Y-91416476D01*
X257029047Y-91416476D02*
X256933809Y-91464095D01*
X256933809Y-91464095D02*
X256886190Y-91511714D01*
X256886190Y-91511714D02*
X256838571Y-91606952D01*
X256838571Y-91606952D02*
X256838571Y-91987904D01*
X256362380Y-90987904D02*
X257362380Y-90987904D01*
X257362380Y-90987904D02*
X257362380Y-90749809D01*
X257362380Y-90749809D02*
X257314761Y-90606952D01*
X257314761Y-90606952D02*
X257219523Y-90511714D01*
X257219523Y-90511714D02*
X257124285Y-90464095D01*
X257124285Y-90464095D02*
X256933809Y-90416476D01*
X256933809Y-90416476D02*
X256790952Y-90416476D01*
X256790952Y-90416476D02*
X256600476Y-90464095D01*
X256600476Y-90464095D02*
X256505238Y-90511714D01*
X256505238Y-90511714D02*
X256410000Y-90606952D01*
X256410000Y-90606952D02*
X256362380Y-90749809D01*
X256362380Y-90749809D02*
X256362380Y-90987904D01*
X257362380Y-89559333D02*
X257362380Y-89749809D01*
X257362380Y-89749809D02*
X257314761Y-89845047D01*
X257314761Y-89845047D02*
X257267142Y-89892666D01*
X257267142Y-89892666D02*
X257124285Y-89987904D01*
X257124285Y-89987904D02*
X256933809Y-90035523D01*
X256933809Y-90035523D02*
X256552857Y-90035523D01*
X256552857Y-90035523D02*
X256457619Y-89987904D01*
X256457619Y-89987904D02*
X256410000Y-89940285D01*
X256410000Y-89940285D02*
X256362380Y-89845047D01*
X256362380Y-89845047D02*
X256362380Y-89654571D01*
X256362380Y-89654571D02*
X256410000Y-89559333D01*
X256410000Y-89559333D02*
X256457619Y-89511714D01*
X256457619Y-89511714D02*
X256552857Y-89464095D01*
X256552857Y-89464095D02*
X256790952Y-89464095D01*
X256790952Y-89464095D02*
X256886190Y-89511714D01*
X256886190Y-89511714D02*
X256933809Y-89559333D01*
X256933809Y-89559333D02*
X256981428Y-89654571D01*
X256981428Y-89654571D02*
X256981428Y-89845047D01*
X256981428Y-89845047D02*
X256933809Y-89940285D01*
X256933809Y-89940285D02*
X256886190Y-89987904D01*
X256886190Y-89987904D02*
X256790952Y-90035523D01*
X266522380Y-91987904D02*
X267522380Y-91987904D01*
X267522380Y-91987904D02*
X267522380Y-91606952D01*
X267522380Y-91606952D02*
X267474761Y-91511714D01*
X267474761Y-91511714D02*
X267427142Y-91464095D01*
X267427142Y-91464095D02*
X267331904Y-91416476D01*
X267331904Y-91416476D02*
X267189047Y-91416476D01*
X267189047Y-91416476D02*
X267093809Y-91464095D01*
X267093809Y-91464095D02*
X267046190Y-91511714D01*
X267046190Y-91511714D02*
X266998571Y-91606952D01*
X266998571Y-91606952D02*
X266998571Y-91987904D01*
X266522380Y-90987904D02*
X267522380Y-90987904D01*
X267522380Y-90987904D02*
X267522380Y-90749809D01*
X267522380Y-90749809D02*
X267474761Y-90606952D01*
X267474761Y-90606952D02*
X267379523Y-90511714D01*
X267379523Y-90511714D02*
X267284285Y-90464095D01*
X267284285Y-90464095D02*
X267093809Y-90416476D01*
X267093809Y-90416476D02*
X266950952Y-90416476D01*
X266950952Y-90416476D02*
X266760476Y-90464095D01*
X266760476Y-90464095D02*
X266665238Y-90511714D01*
X266665238Y-90511714D02*
X266570000Y-90606952D01*
X266570000Y-90606952D02*
X266522380Y-90749809D01*
X266522380Y-90749809D02*
X266522380Y-90987904D01*
X267427142Y-90035523D02*
X267474761Y-89987904D01*
X267474761Y-89987904D02*
X267522380Y-89892666D01*
X267522380Y-89892666D02*
X267522380Y-89654571D01*
X267522380Y-89654571D02*
X267474761Y-89559333D01*
X267474761Y-89559333D02*
X267427142Y-89511714D01*
X267427142Y-89511714D02*
X267331904Y-89464095D01*
X267331904Y-89464095D02*
X267236666Y-89464095D01*
X267236666Y-89464095D02*
X267093809Y-89511714D01*
X267093809Y-89511714D02*
X266522380Y-90083142D01*
X266522380Y-90083142D02*
X266522380Y-89464095D01*
X258902380Y-91987904D02*
X259902380Y-91987904D01*
X259902380Y-91987904D02*
X259902380Y-91606952D01*
X259902380Y-91606952D02*
X259854761Y-91511714D01*
X259854761Y-91511714D02*
X259807142Y-91464095D01*
X259807142Y-91464095D02*
X259711904Y-91416476D01*
X259711904Y-91416476D02*
X259569047Y-91416476D01*
X259569047Y-91416476D02*
X259473809Y-91464095D01*
X259473809Y-91464095D02*
X259426190Y-91511714D01*
X259426190Y-91511714D02*
X259378571Y-91606952D01*
X259378571Y-91606952D02*
X259378571Y-91987904D01*
X258902380Y-90987904D02*
X259902380Y-90987904D01*
X259902380Y-90987904D02*
X259902380Y-90749809D01*
X259902380Y-90749809D02*
X259854761Y-90606952D01*
X259854761Y-90606952D02*
X259759523Y-90511714D01*
X259759523Y-90511714D02*
X259664285Y-90464095D01*
X259664285Y-90464095D02*
X259473809Y-90416476D01*
X259473809Y-90416476D02*
X259330952Y-90416476D01*
X259330952Y-90416476D02*
X259140476Y-90464095D01*
X259140476Y-90464095D02*
X259045238Y-90511714D01*
X259045238Y-90511714D02*
X258950000Y-90606952D01*
X258950000Y-90606952D02*
X258902380Y-90749809D01*
X258902380Y-90749809D02*
X258902380Y-90987904D01*
X259569047Y-89559333D02*
X258902380Y-89559333D01*
X259950000Y-89797428D02*
X259235714Y-90035523D01*
X259235714Y-90035523D02*
X259235714Y-89416476D01*
X261442380Y-91987904D02*
X262442380Y-91987904D01*
X262442380Y-91987904D02*
X262442380Y-91606952D01*
X262442380Y-91606952D02*
X262394761Y-91511714D01*
X262394761Y-91511714D02*
X262347142Y-91464095D01*
X262347142Y-91464095D02*
X262251904Y-91416476D01*
X262251904Y-91416476D02*
X262109047Y-91416476D01*
X262109047Y-91416476D02*
X262013809Y-91464095D01*
X262013809Y-91464095D02*
X261966190Y-91511714D01*
X261966190Y-91511714D02*
X261918571Y-91606952D01*
X261918571Y-91606952D02*
X261918571Y-91987904D01*
X261442380Y-90987904D02*
X262442380Y-90987904D01*
X262442380Y-90987904D02*
X262442380Y-90749809D01*
X262442380Y-90749809D02*
X262394761Y-90606952D01*
X262394761Y-90606952D02*
X262299523Y-90511714D01*
X262299523Y-90511714D02*
X262204285Y-90464095D01*
X262204285Y-90464095D02*
X262013809Y-90416476D01*
X262013809Y-90416476D02*
X261870952Y-90416476D01*
X261870952Y-90416476D02*
X261680476Y-90464095D01*
X261680476Y-90464095D02*
X261585238Y-90511714D01*
X261585238Y-90511714D02*
X261490000Y-90606952D01*
X261490000Y-90606952D02*
X261442380Y-90749809D01*
X261442380Y-90749809D02*
X261442380Y-90987904D01*
X262442380Y-89511714D02*
X262442380Y-89987904D01*
X262442380Y-89987904D02*
X261966190Y-90035523D01*
X261966190Y-90035523D02*
X262013809Y-89987904D01*
X262013809Y-89987904D02*
X262061428Y-89892666D01*
X262061428Y-89892666D02*
X262061428Y-89654571D01*
X262061428Y-89654571D02*
X262013809Y-89559333D01*
X262013809Y-89559333D02*
X261966190Y-89511714D01*
X261966190Y-89511714D02*
X261870952Y-89464095D01*
X261870952Y-89464095D02*
X261632857Y-89464095D01*
X261632857Y-89464095D02*
X261537619Y-89511714D01*
X261537619Y-89511714D02*
X261490000Y-89559333D01*
X261490000Y-89559333D02*
X261442380Y-89654571D01*
X261442380Y-89654571D02*
X261442380Y-89892666D01*
X261442380Y-89892666D02*
X261490000Y-89987904D01*
X261490000Y-89987904D02*
X261537619Y-90035523D01*
X263982380Y-91987904D02*
X264982380Y-91987904D01*
X264982380Y-91987904D02*
X264982380Y-91606952D01*
X264982380Y-91606952D02*
X264934761Y-91511714D01*
X264934761Y-91511714D02*
X264887142Y-91464095D01*
X264887142Y-91464095D02*
X264791904Y-91416476D01*
X264791904Y-91416476D02*
X264649047Y-91416476D01*
X264649047Y-91416476D02*
X264553809Y-91464095D01*
X264553809Y-91464095D02*
X264506190Y-91511714D01*
X264506190Y-91511714D02*
X264458571Y-91606952D01*
X264458571Y-91606952D02*
X264458571Y-91987904D01*
X263982380Y-90987904D02*
X264982380Y-90987904D01*
X264982380Y-90987904D02*
X264982380Y-90749809D01*
X264982380Y-90749809D02*
X264934761Y-90606952D01*
X264934761Y-90606952D02*
X264839523Y-90511714D01*
X264839523Y-90511714D02*
X264744285Y-90464095D01*
X264744285Y-90464095D02*
X264553809Y-90416476D01*
X264553809Y-90416476D02*
X264410952Y-90416476D01*
X264410952Y-90416476D02*
X264220476Y-90464095D01*
X264220476Y-90464095D02*
X264125238Y-90511714D01*
X264125238Y-90511714D02*
X264030000Y-90606952D01*
X264030000Y-90606952D02*
X263982380Y-90749809D01*
X263982380Y-90749809D02*
X263982380Y-90987904D01*
X264982380Y-90083142D02*
X264982380Y-89464095D01*
X264982380Y-89464095D02*
X264601428Y-89797428D01*
X264601428Y-89797428D02*
X264601428Y-89654571D01*
X264601428Y-89654571D02*
X264553809Y-89559333D01*
X264553809Y-89559333D02*
X264506190Y-89511714D01*
X264506190Y-89511714D02*
X264410952Y-89464095D01*
X264410952Y-89464095D02*
X264172857Y-89464095D01*
X264172857Y-89464095D02*
X264077619Y-89511714D01*
X264077619Y-89511714D02*
X264030000Y-89559333D01*
X264030000Y-89559333D02*
X263982380Y-89654571D01*
X263982380Y-89654571D02*
X263982380Y-89940285D01*
X263982380Y-89940285D02*
X264030000Y-90035523D01*
X264030000Y-90035523D02*
X264077619Y-90083142D01*
X274142380Y-91987904D02*
X275142380Y-91987904D01*
X275142380Y-91987904D02*
X275142380Y-91606952D01*
X275142380Y-91606952D02*
X275094761Y-91511714D01*
X275094761Y-91511714D02*
X275047142Y-91464095D01*
X275047142Y-91464095D02*
X274951904Y-91416476D01*
X274951904Y-91416476D02*
X274809047Y-91416476D01*
X274809047Y-91416476D02*
X274713809Y-91464095D01*
X274713809Y-91464095D02*
X274666190Y-91511714D01*
X274666190Y-91511714D02*
X274618571Y-91606952D01*
X274618571Y-91606952D02*
X274618571Y-91987904D01*
X274142380Y-90987904D02*
X275142380Y-90987904D01*
X275142380Y-90987904D02*
X275142380Y-90749809D01*
X275142380Y-90749809D02*
X275094761Y-90606952D01*
X275094761Y-90606952D02*
X274999523Y-90511714D01*
X274999523Y-90511714D02*
X274904285Y-90464095D01*
X274904285Y-90464095D02*
X274713809Y-90416476D01*
X274713809Y-90416476D02*
X274570952Y-90416476D01*
X274570952Y-90416476D02*
X274380476Y-90464095D01*
X274380476Y-90464095D02*
X274285238Y-90511714D01*
X274285238Y-90511714D02*
X274190000Y-90606952D01*
X274190000Y-90606952D02*
X274142380Y-90749809D01*
X274142380Y-90749809D02*
X274142380Y-90987904D01*
X275142380Y-90083142D02*
X275142380Y-89416476D01*
X275142380Y-89416476D02*
X274142380Y-89845047D01*
X269062380Y-91987904D02*
X270062380Y-91987904D01*
X270062380Y-91987904D02*
X270062380Y-91606952D01*
X270062380Y-91606952D02*
X270014761Y-91511714D01*
X270014761Y-91511714D02*
X269967142Y-91464095D01*
X269967142Y-91464095D02*
X269871904Y-91416476D01*
X269871904Y-91416476D02*
X269729047Y-91416476D01*
X269729047Y-91416476D02*
X269633809Y-91464095D01*
X269633809Y-91464095D02*
X269586190Y-91511714D01*
X269586190Y-91511714D02*
X269538571Y-91606952D01*
X269538571Y-91606952D02*
X269538571Y-91987904D01*
X269062380Y-90987904D02*
X270062380Y-90987904D01*
X270062380Y-90987904D02*
X270062380Y-90749809D01*
X270062380Y-90749809D02*
X270014761Y-90606952D01*
X270014761Y-90606952D02*
X269919523Y-90511714D01*
X269919523Y-90511714D02*
X269824285Y-90464095D01*
X269824285Y-90464095D02*
X269633809Y-90416476D01*
X269633809Y-90416476D02*
X269490952Y-90416476D01*
X269490952Y-90416476D02*
X269300476Y-90464095D01*
X269300476Y-90464095D02*
X269205238Y-90511714D01*
X269205238Y-90511714D02*
X269110000Y-90606952D01*
X269110000Y-90606952D02*
X269062380Y-90749809D01*
X269062380Y-90749809D02*
X269062380Y-90987904D01*
X269062380Y-89464095D02*
X269062380Y-90035523D01*
X269062380Y-89749809D02*
X270062380Y-89749809D01*
X270062380Y-89749809D02*
X269919523Y-89845047D01*
X269919523Y-89845047D02*
X269824285Y-89940285D01*
X269824285Y-89940285D02*
X269776666Y-90035523D01*
X271602380Y-91987904D02*
X272602380Y-91987904D01*
X272602380Y-91987904D02*
X272602380Y-91606952D01*
X272602380Y-91606952D02*
X272554761Y-91511714D01*
X272554761Y-91511714D02*
X272507142Y-91464095D01*
X272507142Y-91464095D02*
X272411904Y-91416476D01*
X272411904Y-91416476D02*
X272269047Y-91416476D01*
X272269047Y-91416476D02*
X272173809Y-91464095D01*
X272173809Y-91464095D02*
X272126190Y-91511714D01*
X272126190Y-91511714D02*
X272078571Y-91606952D01*
X272078571Y-91606952D02*
X272078571Y-91987904D01*
X271602380Y-90987904D02*
X272602380Y-90987904D01*
X272602380Y-90987904D02*
X272602380Y-90749809D01*
X272602380Y-90749809D02*
X272554761Y-90606952D01*
X272554761Y-90606952D02*
X272459523Y-90511714D01*
X272459523Y-90511714D02*
X272364285Y-90464095D01*
X272364285Y-90464095D02*
X272173809Y-90416476D01*
X272173809Y-90416476D02*
X272030952Y-90416476D01*
X272030952Y-90416476D02*
X271840476Y-90464095D01*
X271840476Y-90464095D02*
X271745238Y-90511714D01*
X271745238Y-90511714D02*
X271650000Y-90606952D01*
X271650000Y-90606952D02*
X271602380Y-90749809D01*
X271602380Y-90749809D02*
X271602380Y-90987904D01*
X272602380Y-89797428D02*
X272602380Y-89702190D01*
X272602380Y-89702190D02*
X272554761Y-89606952D01*
X272554761Y-89606952D02*
X272507142Y-89559333D01*
X272507142Y-89559333D02*
X272411904Y-89511714D01*
X272411904Y-89511714D02*
X272221428Y-89464095D01*
X272221428Y-89464095D02*
X271983333Y-89464095D01*
X271983333Y-89464095D02*
X271792857Y-89511714D01*
X271792857Y-89511714D02*
X271697619Y-89559333D01*
X271697619Y-89559333D02*
X271650000Y-89606952D01*
X271650000Y-89606952D02*
X271602380Y-89702190D01*
X271602380Y-89702190D02*
X271602380Y-89797428D01*
X271602380Y-89797428D02*
X271650000Y-89892666D01*
X271650000Y-89892666D02*
X271697619Y-89940285D01*
X271697619Y-89940285D02*
X271792857Y-89987904D01*
X271792857Y-89987904D02*
X271983333Y-90035523D01*
X271983333Y-90035523D02*
X272221428Y-90035523D01*
X272221428Y-90035523D02*
X272411904Y-89987904D01*
X272411904Y-89987904D02*
X272507142Y-89940285D01*
X272507142Y-89940285D02*
X272554761Y-89892666D01*
X272554761Y-89892666D02*
X272602380Y-89797428D01*
%TO.C,D6*%
X140294346Y-35189619D02*
X140294346Y-34189619D01*
X140294346Y-34189619D02*
X140056251Y-34189619D01*
X140056251Y-34189619D02*
X139913394Y-34237238D01*
X139913394Y-34237238D02*
X139818156Y-34332476D01*
X139818156Y-34332476D02*
X139770537Y-34427714D01*
X139770537Y-34427714D02*
X139722918Y-34618190D01*
X139722918Y-34618190D02*
X139722918Y-34761047D01*
X139722918Y-34761047D02*
X139770537Y-34951523D01*
X139770537Y-34951523D02*
X139818156Y-35046761D01*
X139818156Y-35046761D02*
X139913394Y-35142000D01*
X139913394Y-35142000D02*
X140056251Y-35189619D01*
X140056251Y-35189619D02*
X140294346Y-35189619D01*
X138865775Y-34189619D02*
X139056251Y-34189619D01*
X139056251Y-34189619D02*
X139151489Y-34237238D01*
X139151489Y-34237238D02*
X139199108Y-34284857D01*
X139199108Y-34284857D02*
X139294346Y-34427714D01*
X139294346Y-34427714D02*
X139341965Y-34618190D01*
X139341965Y-34618190D02*
X139341965Y-34999142D01*
X139341965Y-34999142D02*
X139294346Y-35094380D01*
X139294346Y-35094380D02*
X139246727Y-35142000D01*
X139246727Y-35142000D02*
X139151489Y-35189619D01*
X139151489Y-35189619D02*
X138961013Y-35189619D01*
X138961013Y-35189619D02*
X138865775Y-35142000D01*
X138865775Y-35142000D02*
X138818156Y-35094380D01*
X138818156Y-35094380D02*
X138770537Y-34999142D01*
X138770537Y-34999142D02*
X138770537Y-34761047D01*
X138770537Y-34761047D02*
X138818156Y-34665809D01*
X138818156Y-34665809D02*
X138865775Y-34618190D01*
X138865775Y-34618190D02*
X138961013Y-34570571D01*
X138961013Y-34570571D02*
X139151489Y-34570571D01*
X139151489Y-34570571D02*
X139246727Y-34618190D01*
X139246727Y-34618190D02*
X139294346Y-34665809D01*
X139294346Y-34665809D02*
X139341965Y-34761047D01*
%TO.C,D12*%
X240264285Y-35189619D02*
X240264285Y-34189619D01*
X240264285Y-34189619D02*
X240026190Y-34189619D01*
X240026190Y-34189619D02*
X239883333Y-34237238D01*
X239883333Y-34237238D02*
X239788095Y-34332476D01*
X239788095Y-34332476D02*
X239740476Y-34427714D01*
X239740476Y-34427714D02*
X239692857Y-34618190D01*
X239692857Y-34618190D02*
X239692857Y-34761047D01*
X239692857Y-34761047D02*
X239740476Y-34951523D01*
X239740476Y-34951523D02*
X239788095Y-35046761D01*
X239788095Y-35046761D02*
X239883333Y-35142000D01*
X239883333Y-35142000D02*
X240026190Y-35189619D01*
X240026190Y-35189619D02*
X240264285Y-35189619D01*
X238740476Y-35189619D02*
X239311904Y-35189619D01*
X239026190Y-35189619D02*
X239026190Y-34189619D01*
X239026190Y-34189619D02*
X239121428Y-34332476D01*
X239121428Y-34332476D02*
X239216666Y-34427714D01*
X239216666Y-34427714D02*
X239311904Y-34475333D01*
X238359523Y-34284857D02*
X238311904Y-34237238D01*
X238311904Y-34237238D02*
X238216666Y-34189619D01*
X238216666Y-34189619D02*
X237978571Y-34189619D01*
X237978571Y-34189619D02*
X237883333Y-34237238D01*
X237883333Y-34237238D02*
X237835714Y-34284857D01*
X237835714Y-34284857D02*
X237788095Y-34380095D01*
X237788095Y-34380095D02*
X237788095Y-34475333D01*
X237788095Y-34475333D02*
X237835714Y-34618190D01*
X237835714Y-34618190D02*
X238407142Y-35189619D01*
X238407142Y-35189619D02*
X237788095Y-35189619D01*
%TO.C,D30*%
X102670537Y-73314619D02*
X102670537Y-72314619D01*
X102670537Y-72314619D02*
X102432442Y-72314619D01*
X102432442Y-72314619D02*
X102289585Y-72362238D01*
X102289585Y-72362238D02*
X102194347Y-72457476D01*
X102194347Y-72457476D02*
X102146728Y-72552714D01*
X102146728Y-72552714D02*
X102099109Y-72743190D01*
X102099109Y-72743190D02*
X102099109Y-72886047D01*
X102099109Y-72886047D02*
X102146728Y-73076523D01*
X102146728Y-73076523D02*
X102194347Y-73171761D01*
X102194347Y-73171761D02*
X102289585Y-73267000D01*
X102289585Y-73267000D02*
X102432442Y-73314619D01*
X102432442Y-73314619D02*
X102670537Y-73314619D01*
X101765775Y-72314619D02*
X101146728Y-72314619D01*
X101146728Y-72314619D02*
X101480061Y-72695571D01*
X101480061Y-72695571D02*
X101337204Y-72695571D01*
X101337204Y-72695571D02*
X101241966Y-72743190D01*
X101241966Y-72743190D02*
X101194347Y-72790809D01*
X101194347Y-72790809D02*
X101146728Y-72886047D01*
X101146728Y-72886047D02*
X101146728Y-73124142D01*
X101146728Y-73124142D02*
X101194347Y-73219380D01*
X101194347Y-73219380D02*
X101241966Y-73267000D01*
X101241966Y-73267000D02*
X101337204Y-73314619D01*
X101337204Y-73314619D02*
X101622918Y-73314619D01*
X101622918Y-73314619D02*
X101718156Y-73267000D01*
X101718156Y-73267000D02*
X101765775Y-73219380D01*
X100527680Y-72314619D02*
X100432442Y-72314619D01*
X100432442Y-72314619D02*
X100337204Y-72362238D01*
X100337204Y-72362238D02*
X100289585Y-72409857D01*
X100289585Y-72409857D02*
X100241966Y-72505095D01*
X100241966Y-72505095D02*
X100194347Y-72695571D01*
X100194347Y-72695571D02*
X100194347Y-72933666D01*
X100194347Y-72933666D02*
X100241966Y-73124142D01*
X100241966Y-73124142D02*
X100289585Y-73219380D01*
X100289585Y-73219380D02*
X100337204Y-73267000D01*
X100337204Y-73267000D02*
X100432442Y-73314619D01*
X100432442Y-73314619D02*
X100527680Y-73314619D01*
X100527680Y-73314619D02*
X100622918Y-73267000D01*
X100622918Y-73267000D02*
X100670537Y-73219380D01*
X100670537Y-73219380D02*
X100718156Y-73124142D01*
X100718156Y-73124142D02*
X100765775Y-72933666D01*
X100765775Y-72933666D02*
X100765775Y-72695571D01*
X100765775Y-72695571D02*
X100718156Y-72505095D01*
X100718156Y-72505095D02*
X100670537Y-72409857D01*
X100670537Y-72409857D02*
X100622918Y-72362238D01*
X100622918Y-72362238D02*
X100527680Y-72314619D01*
%TO.C,D2*%
X64089346Y-35189619D02*
X64089346Y-34189619D01*
X64089346Y-34189619D02*
X63851251Y-34189619D01*
X63851251Y-34189619D02*
X63708394Y-34237238D01*
X63708394Y-34237238D02*
X63613156Y-34332476D01*
X63613156Y-34332476D02*
X63565537Y-34427714D01*
X63565537Y-34427714D02*
X63517918Y-34618190D01*
X63517918Y-34618190D02*
X63517918Y-34761047D01*
X63517918Y-34761047D02*
X63565537Y-34951523D01*
X63565537Y-34951523D02*
X63613156Y-35046761D01*
X63613156Y-35046761D02*
X63708394Y-35142000D01*
X63708394Y-35142000D02*
X63851251Y-35189619D01*
X63851251Y-35189619D02*
X64089346Y-35189619D01*
X63136965Y-34284857D02*
X63089346Y-34237238D01*
X63089346Y-34237238D02*
X62994108Y-34189619D01*
X62994108Y-34189619D02*
X62756013Y-34189619D01*
X62756013Y-34189619D02*
X62660775Y-34237238D01*
X62660775Y-34237238D02*
X62613156Y-34284857D01*
X62613156Y-34284857D02*
X62565537Y-34380095D01*
X62565537Y-34380095D02*
X62565537Y-34475333D01*
X62565537Y-34475333D02*
X62613156Y-34618190D01*
X62613156Y-34618190D02*
X63184584Y-35189619D01*
X63184584Y-35189619D02*
X62565537Y-35189619D01*
%TO.C,CX2*%
X275242857Y-58692380D02*
X275290476Y-58740000D01*
X275290476Y-58740000D02*
X275433333Y-58787619D01*
X275433333Y-58787619D02*
X275528571Y-58787619D01*
X275528571Y-58787619D02*
X275671428Y-58740000D01*
X275671428Y-58740000D02*
X275766666Y-58644761D01*
X275766666Y-58644761D02*
X275814285Y-58549523D01*
X275814285Y-58549523D02*
X275861904Y-58359047D01*
X275861904Y-58359047D02*
X275861904Y-58216190D01*
X275861904Y-58216190D02*
X275814285Y-58025714D01*
X275814285Y-58025714D02*
X275766666Y-57930476D01*
X275766666Y-57930476D02*
X275671428Y-57835238D01*
X275671428Y-57835238D02*
X275528571Y-57787619D01*
X275528571Y-57787619D02*
X275433333Y-57787619D01*
X275433333Y-57787619D02*
X275290476Y-57835238D01*
X275290476Y-57835238D02*
X275242857Y-57882857D01*
X274909523Y-57787619D02*
X274242857Y-58787619D01*
X274242857Y-57787619D02*
X274909523Y-58787619D01*
X273909523Y-57882857D02*
X273861904Y-57835238D01*
X273861904Y-57835238D02*
X273766666Y-57787619D01*
X273766666Y-57787619D02*
X273528571Y-57787619D01*
X273528571Y-57787619D02*
X273433333Y-57835238D01*
X273433333Y-57835238D02*
X273385714Y-57882857D01*
X273385714Y-57882857D02*
X273338095Y-57978095D01*
X273338095Y-57978095D02*
X273338095Y-58073333D01*
X273338095Y-58073333D02*
X273385714Y-58216190D01*
X273385714Y-58216190D02*
X273957142Y-58787619D01*
X273957142Y-58787619D02*
X273338095Y-58787619D01*
%TO.C,D33*%
X159820537Y-73314619D02*
X159820537Y-72314619D01*
X159820537Y-72314619D02*
X159582442Y-72314619D01*
X159582442Y-72314619D02*
X159439585Y-72362238D01*
X159439585Y-72362238D02*
X159344347Y-72457476D01*
X159344347Y-72457476D02*
X159296728Y-72552714D01*
X159296728Y-72552714D02*
X159249109Y-72743190D01*
X159249109Y-72743190D02*
X159249109Y-72886047D01*
X159249109Y-72886047D02*
X159296728Y-73076523D01*
X159296728Y-73076523D02*
X159344347Y-73171761D01*
X159344347Y-73171761D02*
X159439585Y-73267000D01*
X159439585Y-73267000D02*
X159582442Y-73314619D01*
X159582442Y-73314619D02*
X159820537Y-73314619D01*
X158915775Y-72314619D02*
X158296728Y-72314619D01*
X158296728Y-72314619D02*
X158630061Y-72695571D01*
X158630061Y-72695571D02*
X158487204Y-72695571D01*
X158487204Y-72695571D02*
X158391966Y-72743190D01*
X158391966Y-72743190D02*
X158344347Y-72790809D01*
X158344347Y-72790809D02*
X158296728Y-72886047D01*
X158296728Y-72886047D02*
X158296728Y-73124142D01*
X158296728Y-73124142D02*
X158344347Y-73219380D01*
X158344347Y-73219380D02*
X158391966Y-73267000D01*
X158391966Y-73267000D02*
X158487204Y-73314619D01*
X158487204Y-73314619D02*
X158772918Y-73314619D01*
X158772918Y-73314619D02*
X158868156Y-73267000D01*
X158868156Y-73267000D02*
X158915775Y-73219380D01*
X157963394Y-72314619D02*
X157344347Y-72314619D01*
X157344347Y-72314619D02*
X157677680Y-72695571D01*
X157677680Y-72695571D02*
X157534823Y-72695571D01*
X157534823Y-72695571D02*
X157439585Y-72743190D01*
X157439585Y-72743190D02*
X157391966Y-72790809D01*
X157391966Y-72790809D02*
X157344347Y-72886047D01*
X157344347Y-72886047D02*
X157344347Y-73124142D01*
X157344347Y-73124142D02*
X157391966Y-73219380D01*
X157391966Y-73219380D02*
X157439585Y-73267000D01*
X157439585Y-73267000D02*
X157534823Y-73314619D01*
X157534823Y-73314619D02*
X157820537Y-73314619D01*
X157820537Y-73314619D02*
X157915775Y-73267000D01*
X157915775Y-73267000D02*
X157963394Y-73219380D01*
%TO.C,D22*%
X197920537Y-54239619D02*
X197920537Y-53239619D01*
X197920537Y-53239619D02*
X197682442Y-53239619D01*
X197682442Y-53239619D02*
X197539585Y-53287238D01*
X197539585Y-53287238D02*
X197444347Y-53382476D01*
X197444347Y-53382476D02*
X197396728Y-53477714D01*
X197396728Y-53477714D02*
X197349109Y-53668190D01*
X197349109Y-53668190D02*
X197349109Y-53811047D01*
X197349109Y-53811047D02*
X197396728Y-54001523D01*
X197396728Y-54001523D02*
X197444347Y-54096761D01*
X197444347Y-54096761D02*
X197539585Y-54192000D01*
X197539585Y-54192000D02*
X197682442Y-54239619D01*
X197682442Y-54239619D02*
X197920537Y-54239619D01*
X196968156Y-53334857D02*
X196920537Y-53287238D01*
X196920537Y-53287238D02*
X196825299Y-53239619D01*
X196825299Y-53239619D02*
X196587204Y-53239619D01*
X196587204Y-53239619D02*
X196491966Y-53287238D01*
X196491966Y-53287238D02*
X196444347Y-53334857D01*
X196444347Y-53334857D02*
X196396728Y-53430095D01*
X196396728Y-53430095D02*
X196396728Y-53525333D01*
X196396728Y-53525333D02*
X196444347Y-53668190D01*
X196444347Y-53668190D02*
X197015775Y-54239619D01*
X197015775Y-54239619D02*
X196396728Y-54239619D01*
X196015775Y-53334857D02*
X195968156Y-53287238D01*
X195968156Y-53287238D02*
X195872918Y-53239619D01*
X195872918Y-53239619D02*
X195634823Y-53239619D01*
X195634823Y-53239619D02*
X195539585Y-53287238D01*
X195539585Y-53287238D02*
X195491966Y-53334857D01*
X195491966Y-53334857D02*
X195444347Y-53430095D01*
X195444347Y-53430095D02*
X195444347Y-53525333D01*
X195444347Y-53525333D02*
X195491966Y-53668190D01*
X195491966Y-53668190D02*
X196063394Y-54239619D01*
X196063394Y-54239619D02*
X195444347Y-54239619D01*
%TO.C,D36*%
X216970537Y-73314619D02*
X216970537Y-72314619D01*
X216970537Y-72314619D02*
X216732442Y-72314619D01*
X216732442Y-72314619D02*
X216589585Y-72362238D01*
X216589585Y-72362238D02*
X216494347Y-72457476D01*
X216494347Y-72457476D02*
X216446728Y-72552714D01*
X216446728Y-72552714D02*
X216399109Y-72743190D01*
X216399109Y-72743190D02*
X216399109Y-72886047D01*
X216399109Y-72886047D02*
X216446728Y-73076523D01*
X216446728Y-73076523D02*
X216494347Y-73171761D01*
X216494347Y-73171761D02*
X216589585Y-73267000D01*
X216589585Y-73267000D02*
X216732442Y-73314619D01*
X216732442Y-73314619D02*
X216970537Y-73314619D01*
X216065775Y-72314619D02*
X215446728Y-72314619D01*
X215446728Y-72314619D02*
X215780061Y-72695571D01*
X215780061Y-72695571D02*
X215637204Y-72695571D01*
X215637204Y-72695571D02*
X215541966Y-72743190D01*
X215541966Y-72743190D02*
X215494347Y-72790809D01*
X215494347Y-72790809D02*
X215446728Y-72886047D01*
X215446728Y-72886047D02*
X215446728Y-73124142D01*
X215446728Y-73124142D02*
X215494347Y-73219380D01*
X215494347Y-73219380D02*
X215541966Y-73267000D01*
X215541966Y-73267000D02*
X215637204Y-73314619D01*
X215637204Y-73314619D02*
X215922918Y-73314619D01*
X215922918Y-73314619D02*
X216018156Y-73267000D01*
X216018156Y-73267000D02*
X216065775Y-73219380D01*
X214589585Y-72314619D02*
X214780061Y-72314619D01*
X214780061Y-72314619D02*
X214875299Y-72362238D01*
X214875299Y-72362238D02*
X214922918Y-72409857D01*
X214922918Y-72409857D02*
X215018156Y-72552714D01*
X215018156Y-72552714D02*
X215065775Y-72743190D01*
X215065775Y-72743190D02*
X215065775Y-73124142D01*
X215065775Y-73124142D02*
X215018156Y-73219380D01*
X215018156Y-73219380D02*
X214970537Y-73267000D01*
X214970537Y-73267000D02*
X214875299Y-73314619D01*
X214875299Y-73314619D02*
X214684823Y-73314619D01*
X214684823Y-73314619D02*
X214589585Y-73267000D01*
X214589585Y-73267000D02*
X214541966Y-73219380D01*
X214541966Y-73219380D02*
X214494347Y-73124142D01*
X214494347Y-73124142D02*
X214494347Y-72886047D01*
X214494347Y-72886047D02*
X214541966Y-72790809D01*
X214541966Y-72790809D02*
X214589585Y-72743190D01*
X214589585Y-72743190D02*
X214684823Y-72695571D01*
X214684823Y-72695571D02*
X214875299Y-72695571D01*
X214875299Y-72695571D02*
X214970537Y-72743190D01*
X214970537Y-72743190D02*
X215018156Y-72790809D01*
X215018156Y-72790809D02*
X215065775Y-72886047D01*
%TO.C,U1*%
X258136904Y-51587619D02*
X258136904Y-52397142D01*
X258136904Y-52397142D02*
X258089285Y-52492380D01*
X258089285Y-52492380D02*
X258041666Y-52540000D01*
X258041666Y-52540000D02*
X257946428Y-52587619D01*
X257946428Y-52587619D02*
X257755952Y-52587619D01*
X257755952Y-52587619D02*
X257660714Y-52540000D01*
X257660714Y-52540000D02*
X257613095Y-52492380D01*
X257613095Y-52492380D02*
X257565476Y-52397142D01*
X257565476Y-52397142D02*
X257565476Y-51587619D01*
X256565476Y-52587619D02*
X257136904Y-52587619D01*
X256851190Y-52587619D02*
X256851190Y-51587619D01*
X256851190Y-51587619D02*
X256946428Y-51730476D01*
X256946428Y-51730476D02*
X257041666Y-51825714D01*
X257041666Y-51825714D02*
X257136904Y-51873333D01*
X261595238Y-54750370D02*
X261190476Y-54750370D01*
X261676190Y-54993227D02*
X261392857Y-54143227D01*
X261392857Y-54143227D02*
X261109523Y-54993227D01*
X260947619Y-54143227D02*
X260461905Y-54143227D01*
X260704762Y-54993227D02*
X260704762Y-54143227D01*
X260178572Y-54993227D02*
X260178572Y-54143227D01*
X260178572Y-54143227D02*
X259895238Y-54750370D01*
X259895238Y-54750370D02*
X259611905Y-54143227D01*
X259611905Y-54143227D02*
X259611905Y-54993227D01*
X259207143Y-54547989D02*
X258923809Y-54547989D01*
X258802381Y-54993227D02*
X259207143Y-54993227D01*
X259207143Y-54993227D02*
X259207143Y-54143227D01*
X259207143Y-54143227D02*
X258802381Y-54143227D01*
X257992856Y-54183703D02*
X258073809Y-54143227D01*
X258073809Y-54143227D02*
X258195237Y-54143227D01*
X258195237Y-54143227D02*
X258316666Y-54183703D01*
X258316666Y-54183703D02*
X258397618Y-54264655D01*
X258397618Y-54264655D02*
X258438095Y-54345608D01*
X258438095Y-54345608D02*
X258478571Y-54507512D01*
X258478571Y-54507512D02*
X258478571Y-54628941D01*
X258478571Y-54628941D02*
X258438095Y-54790846D01*
X258438095Y-54790846D02*
X258397618Y-54871798D01*
X258397618Y-54871798D02*
X258316666Y-54952751D01*
X258316666Y-54952751D02*
X258195237Y-54993227D01*
X258195237Y-54993227D02*
X258114285Y-54993227D01*
X258114285Y-54993227D02*
X257992856Y-54952751D01*
X257992856Y-54952751D02*
X257952380Y-54912274D01*
X257952380Y-54912274D02*
X257952380Y-54628941D01*
X257952380Y-54628941D02*
X258114285Y-54628941D01*
X257628571Y-54750370D02*
X257223809Y-54750370D01*
X257709523Y-54993227D02*
X257426190Y-54143227D01*
X257426190Y-54143227D02*
X257142856Y-54993227D01*
X256940476Y-54143227D02*
X256414285Y-54143227D01*
X256414285Y-54143227D02*
X256697619Y-54467036D01*
X256697619Y-54467036D02*
X256576190Y-54467036D01*
X256576190Y-54467036D02*
X256495238Y-54507512D01*
X256495238Y-54507512D02*
X256454762Y-54547989D01*
X256454762Y-54547989D02*
X256414285Y-54628941D01*
X256414285Y-54628941D02*
X256414285Y-54831322D01*
X256414285Y-54831322D02*
X256454762Y-54912274D01*
X256454762Y-54912274D02*
X256495238Y-54952751D01*
X256495238Y-54952751D02*
X256576190Y-54993227D01*
X256576190Y-54993227D02*
X256819047Y-54993227D01*
X256819047Y-54993227D02*
X256900000Y-54952751D01*
X256900000Y-54952751D02*
X256940476Y-54912274D01*
X256090476Y-54224179D02*
X256050000Y-54183703D01*
X256050000Y-54183703D02*
X255969047Y-54143227D01*
X255969047Y-54143227D02*
X255766666Y-54143227D01*
X255766666Y-54143227D02*
X255685714Y-54183703D01*
X255685714Y-54183703D02*
X255645238Y-54224179D01*
X255645238Y-54224179D02*
X255604761Y-54305131D01*
X255604761Y-54305131D02*
X255604761Y-54386084D01*
X255604761Y-54386084D02*
X255645238Y-54507512D01*
X255645238Y-54507512D02*
X256130952Y-54993227D01*
X256130952Y-54993227D02*
X255604761Y-54993227D01*
X255240476Y-54143227D02*
X255240476Y-54831322D01*
X255240476Y-54831322D02*
X255199999Y-54912274D01*
X255199999Y-54912274D02*
X255159523Y-54952751D01*
X255159523Y-54952751D02*
X255078571Y-54993227D01*
X255078571Y-54993227D02*
X254916666Y-54993227D01*
X254916666Y-54993227D02*
X254835714Y-54952751D01*
X254835714Y-54952751D02*
X254795237Y-54912274D01*
X254795237Y-54912274D02*
X254754761Y-54831322D01*
X254754761Y-54831322D02*
X254754761Y-54143227D01*
X253985714Y-54426560D02*
X253985714Y-54993227D01*
X254188095Y-54102751D02*
X254390476Y-54709893D01*
X254390476Y-54709893D02*
X253864285Y-54709893D01*
%TO.C,D43*%
X102670537Y-92314619D02*
X102670537Y-91314619D01*
X102670537Y-91314619D02*
X102432442Y-91314619D01*
X102432442Y-91314619D02*
X102289585Y-91362238D01*
X102289585Y-91362238D02*
X102194347Y-91457476D01*
X102194347Y-91457476D02*
X102146728Y-91552714D01*
X102146728Y-91552714D02*
X102099109Y-91743190D01*
X102099109Y-91743190D02*
X102099109Y-91886047D01*
X102099109Y-91886047D02*
X102146728Y-92076523D01*
X102146728Y-92076523D02*
X102194347Y-92171761D01*
X102194347Y-92171761D02*
X102289585Y-92267000D01*
X102289585Y-92267000D02*
X102432442Y-92314619D01*
X102432442Y-92314619D02*
X102670537Y-92314619D01*
X101241966Y-91647952D02*
X101241966Y-92314619D01*
X101480061Y-91267000D02*
X101718156Y-91981285D01*
X101718156Y-91981285D02*
X101099109Y-91981285D01*
X100813394Y-91314619D02*
X100194347Y-91314619D01*
X100194347Y-91314619D02*
X100527680Y-91695571D01*
X100527680Y-91695571D02*
X100384823Y-91695571D01*
X100384823Y-91695571D02*
X100289585Y-91743190D01*
X100289585Y-91743190D02*
X100241966Y-91790809D01*
X100241966Y-91790809D02*
X100194347Y-91886047D01*
X100194347Y-91886047D02*
X100194347Y-92124142D01*
X100194347Y-92124142D02*
X100241966Y-92219380D01*
X100241966Y-92219380D02*
X100289585Y-92267000D01*
X100289585Y-92267000D02*
X100384823Y-92314619D01*
X100384823Y-92314619D02*
X100670537Y-92314619D01*
X100670537Y-92314619D02*
X100765775Y-92267000D01*
X100765775Y-92267000D02*
X100813394Y-92219380D01*
%TO.C,D47*%
X178870537Y-92314619D02*
X178870537Y-91314619D01*
X178870537Y-91314619D02*
X178632442Y-91314619D01*
X178632442Y-91314619D02*
X178489585Y-91362238D01*
X178489585Y-91362238D02*
X178394347Y-91457476D01*
X178394347Y-91457476D02*
X178346728Y-91552714D01*
X178346728Y-91552714D02*
X178299109Y-91743190D01*
X178299109Y-91743190D02*
X178299109Y-91886047D01*
X178299109Y-91886047D02*
X178346728Y-92076523D01*
X178346728Y-92076523D02*
X178394347Y-92171761D01*
X178394347Y-92171761D02*
X178489585Y-92267000D01*
X178489585Y-92267000D02*
X178632442Y-92314619D01*
X178632442Y-92314619D02*
X178870537Y-92314619D01*
X177441966Y-91647952D02*
X177441966Y-92314619D01*
X177680061Y-91267000D02*
X177918156Y-91981285D01*
X177918156Y-91981285D02*
X177299109Y-91981285D01*
X177013394Y-91314619D02*
X176346728Y-91314619D01*
X176346728Y-91314619D02*
X176775299Y-92314619D01*
%TO.C,D9*%
X197444346Y-35189619D02*
X197444346Y-34189619D01*
X197444346Y-34189619D02*
X197206251Y-34189619D01*
X197206251Y-34189619D02*
X197063394Y-34237238D01*
X197063394Y-34237238D02*
X196968156Y-34332476D01*
X196968156Y-34332476D02*
X196920537Y-34427714D01*
X196920537Y-34427714D02*
X196872918Y-34618190D01*
X196872918Y-34618190D02*
X196872918Y-34761047D01*
X196872918Y-34761047D02*
X196920537Y-34951523D01*
X196920537Y-34951523D02*
X196968156Y-35046761D01*
X196968156Y-35046761D02*
X197063394Y-35142000D01*
X197063394Y-35142000D02*
X197206251Y-35189619D01*
X197206251Y-35189619D02*
X197444346Y-35189619D01*
X196396727Y-35189619D02*
X196206251Y-35189619D01*
X196206251Y-35189619D02*
X196111013Y-35142000D01*
X196111013Y-35142000D02*
X196063394Y-35094380D01*
X196063394Y-35094380D02*
X195968156Y-34951523D01*
X195968156Y-34951523D02*
X195920537Y-34761047D01*
X195920537Y-34761047D02*
X195920537Y-34380095D01*
X195920537Y-34380095D02*
X195968156Y-34284857D01*
X195968156Y-34284857D02*
X196015775Y-34237238D01*
X196015775Y-34237238D02*
X196111013Y-34189619D01*
X196111013Y-34189619D02*
X196301489Y-34189619D01*
X196301489Y-34189619D02*
X196396727Y-34237238D01*
X196396727Y-34237238D02*
X196444346Y-34284857D01*
X196444346Y-34284857D02*
X196491965Y-34380095D01*
X196491965Y-34380095D02*
X196491965Y-34618190D01*
X196491965Y-34618190D02*
X196444346Y-34713428D01*
X196444346Y-34713428D02*
X196396727Y-34761047D01*
X196396727Y-34761047D02*
X196301489Y-34808666D01*
X196301489Y-34808666D02*
X196111013Y-34808666D01*
X196111013Y-34808666D02*
X196015775Y-34761047D01*
X196015775Y-34761047D02*
X195968156Y-34713428D01*
X195968156Y-34713428D02*
X195920537Y-34618190D01*
%TO.C,D1*%
X45049346Y-35167119D02*
X45049346Y-34167119D01*
X45049346Y-34167119D02*
X44811251Y-34167119D01*
X44811251Y-34167119D02*
X44668394Y-34214738D01*
X44668394Y-34214738D02*
X44573156Y-34309976D01*
X44573156Y-34309976D02*
X44525537Y-34405214D01*
X44525537Y-34405214D02*
X44477918Y-34595690D01*
X44477918Y-34595690D02*
X44477918Y-34738547D01*
X44477918Y-34738547D02*
X44525537Y-34929023D01*
X44525537Y-34929023D02*
X44573156Y-35024261D01*
X44573156Y-35024261D02*
X44668394Y-35119500D01*
X44668394Y-35119500D02*
X44811251Y-35167119D01*
X44811251Y-35167119D02*
X45049346Y-35167119D01*
X43525537Y-35167119D02*
X44096965Y-35167119D01*
X43811251Y-35167119D02*
X43811251Y-34167119D01*
X43811251Y-34167119D02*
X43906489Y-34309976D01*
X43906489Y-34309976D02*
X44001727Y-34405214D01*
X44001727Y-34405214D02*
X44096965Y-34452833D01*
%TO.C,D21*%
X178870537Y-54239619D02*
X178870537Y-53239619D01*
X178870537Y-53239619D02*
X178632442Y-53239619D01*
X178632442Y-53239619D02*
X178489585Y-53287238D01*
X178489585Y-53287238D02*
X178394347Y-53382476D01*
X178394347Y-53382476D02*
X178346728Y-53477714D01*
X178346728Y-53477714D02*
X178299109Y-53668190D01*
X178299109Y-53668190D02*
X178299109Y-53811047D01*
X178299109Y-53811047D02*
X178346728Y-54001523D01*
X178346728Y-54001523D02*
X178394347Y-54096761D01*
X178394347Y-54096761D02*
X178489585Y-54192000D01*
X178489585Y-54192000D02*
X178632442Y-54239619D01*
X178632442Y-54239619D02*
X178870537Y-54239619D01*
X177918156Y-53334857D02*
X177870537Y-53287238D01*
X177870537Y-53287238D02*
X177775299Y-53239619D01*
X177775299Y-53239619D02*
X177537204Y-53239619D01*
X177537204Y-53239619D02*
X177441966Y-53287238D01*
X177441966Y-53287238D02*
X177394347Y-53334857D01*
X177394347Y-53334857D02*
X177346728Y-53430095D01*
X177346728Y-53430095D02*
X177346728Y-53525333D01*
X177346728Y-53525333D02*
X177394347Y-53668190D01*
X177394347Y-53668190D02*
X177965775Y-54239619D01*
X177965775Y-54239619D02*
X177346728Y-54239619D01*
X176394347Y-54239619D02*
X176965775Y-54239619D01*
X176680061Y-54239619D02*
X176680061Y-53239619D01*
X176680061Y-53239619D02*
X176775299Y-53382476D01*
X176775299Y-53382476D02*
X176870537Y-53477714D01*
X176870537Y-53477714D02*
X176965775Y-53525333D01*
%TO.C,D38*%
X255070537Y-73314619D02*
X255070537Y-72314619D01*
X255070537Y-72314619D02*
X254832442Y-72314619D01*
X254832442Y-72314619D02*
X254689585Y-72362238D01*
X254689585Y-72362238D02*
X254594347Y-72457476D01*
X254594347Y-72457476D02*
X254546728Y-72552714D01*
X254546728Y-72552714D02*
X254499109Y-72743190D01*
X254499109Y-72743190D02*
X254499109Y-72886047D01*
X254499109Y-72886047D02*
X254546728Y-73076523D01*
X254546728Y-73076523D02*
X254594347Y-73171761D01*
X254594347Y-73171761D02*
X254689585Y-73267000D01*
X254689585Y-73267000D02*
X254832442Y-73314619D01*
X254832442Y-73314619D02*
X255070537Y-73314619D01*
X254165775Y-72314619D02*
X253546728Y-72314619D01*
X253546728Y-72314619D02*
X253880061Y-72695571D01*
X253880061Y-72695571D02*
X253737204Y-72695571D01*
X253737204Y-72695571D02*
X253641966Y-72743190D01*
X253641966Y-72743190D02*
X253594347Y-72790809D01*
X253594347Y-72790809D02*
X253546728Y-72886047D01*
X253546728Y-72886047D02*
X253546728Y-73124142D01*
X253546728Y-73124142D02*
X253594347Y-73219380D01*
X253594347Y-73219380D02*
X253641966Y-73267000D01*
X253641966Y-73267000D02*
X253737204Y-73314619D01*
X253737204Y-73314619D02*
X254022918Y-73314619D01*
X254022918Y-73314619D02*
X254118156Y-73267000D01*
X254118156Y-73267000D02*
X254165775Y-73219380D01*
X252975299Y-72743190D02*
X253070537Y-72695571D01*
X253070537Y-72695571D02*
X253118156Y-72647952D01*
X253118156Y-72647952D02*
X253165775Y-72552714D01*
X253165775Y-72552714D02*
X253165775Y-72505095D01*
X253165775Y-72505095D02*
X253118156Y-72409857D01*
X253118156Y-72409857D02*
X253070537Y-72362238D01*
X253070537Y-72362238D02*
X252975299Y-72314619D01*
X252975299Y-72314619D02*
X252784823Y-72314619D01*
X252784823Y-72314619D02*
X252689585Y-72362238D01*
X252689585Y-72362238D02*
X252641966Y-72409857D01*
X252641966Y-72409857D02*
X252594347Y-72505095D01*
X252594347Y-72505095D02*
X252594347Y-72552714D01*
X252594347Y-72552714D02*
X252641966Y-72647952D01*
X252641966Y-72647952D02*
X252689585Y-72695571D01*
X252689585Y-72695571D02*
X252784823Y-72743190D01*
X252784823Y-72743190D02*
X252975299Y-72743190D01*
X252975299Y-72743190D02*
X253070537Y-72790809D01*
X253070537Y-72790809D02*
X253118156Y-72838428D01*
X253118156Y-72838428D02*
X253165775Y-72933666D01*
X253165775Y-72933666D02*
X253165775Y-73124142D01*
X253165775Y-73124142D02*
X253118156Y-73219380D01*
X253118156Y-73219380D02*
X253070537Y-73267000D01*
X253070537Y-73267000D02*
X252975299Y-73314619D01*
X252975299Y-73314619D02*
X252784823Y-73314619D01*
X252784823Y-73314619D02*
X252689585Y-73267000D01*
X252689585Y-73267000D02*
X252641966Y-73219380D01*
X252641966Y-73219380D02*
X252594347Y-73124142D01*
X252594347Y-73124142D02*
X252594347Y-72933666D01*
X252594347Y-72933666D02*
X252641966Y-72838428D01*
X252641966Y-72838428D02*
X252689585Y-72790809D01*
X252689585Y-72790809D02*
X252784823Y-72743190D01*
%TO.C,D15*%
X64570537Y-54239619D02*
X64570537Y-53239619D01*
X64570537Y-53239619D02*
X64332442Y-53239619D01*
X64332442Y-53239619D02*
X64189585Y-53287238D01*
X64189585Y-53287238D02*
X64094347Y-53382476D01*
X64094347Y-53382476D02*
X64046728Y-53477714D01*
X64046728Y-53477714D02*
X63999109Y-53668190D01*
X63999109Y-53668190D02*
X63999109Y-53811047D01*
X63999109Y-53811047D02*
X64046728Y-54001523D01*
X64046728Y-54001523D02*
X64094347Y-54096761D01*
X64094347Y-54096761D02*
X64189585Y-54192000D01*
X64189585Y-54192000D02*
X64332442Y-54239619D01*
X64332442Y-54239619D02*
X64570537Y-54239619D01*
X63046728Y-54239619D02*
X63618156Y-54239619D01*
X63332442Y-54239619D02*
X63332442Y-53239619D01*
X63332442Y-53239619D02*
X63427680Y-53382476D01*
X63427680Y-53382476D02*
X63522918Y-53477714D01*
X63522918Y-53477714D02*
X63618156Y-53525333D01*
X62141966Y-53239619D02*
X62618156Y-53239619D01*
X62618156Y-53239619D02*
X62665775Y-53715809D01*
X62665775Y-53715809D02*
X62618156Y-53668190D01*
X62618156Y-53668190D02*
X62522918Y-53620571D01*
X62522918Y-53620571D02*
X62284823Y-53620571D01*
X62284823Y-53620571D02*
X62189585Y-53668190D01*
X62189585Y-53668190D02*
X62141966Y-53715809D01*
X62141966Y-53715809D02*
X62094347Y-53811047D01*
X62094347Y-53811047D02*
X62094347Y-54049142D01*
X62094347Y-54049142D02*
X62141966Y-54144380D01*
X62141966Y-54144380D02*
X62189585Y-54192000D01*
X62189585Y-54192000D02*
X62284823Y-54239619D01*
X62284823Y-54239619D02*
X62522918Y-54239619D01*
X62522918Y-54239619D02*
X62618156Y-54192000D01*
X62618156Y-54192000D02*
X62665775Y-54144380D01*
%TO.C,J2*%
X257434523Y-28645000D02*
X257291666Y-28692619D01*
X257291666Y-28692619D02*
X257053571Y-28692619D01*
X257053571Y-28692619D02*
X256958333Y-28645000D01*
X256958333Y-28645000D02*
X256910714Y-28597380D01*
X256910714Y-28597380D02*
X256863095Y-28502142D01*
X256863095Y-28502142D02*
X256863095Y-28406904D01*
X256863095Y-28406904D02*
X256910714Y-28311666D01*
X256910714Y-28311666D02*
X256958333Y-28264047D01*
X256958333Y-28264047D02*
X257053571Y-28216428D01*
X257053571Y-28216428D02*
X257244047Y-28168809D01*
X257244047Y-28168809D02*
X257339285Y-28121190D01*
X257339285Y-28121190D02*
X257386904Y-28073571D01*
X257386904Y-28073571D02*
X257434523Y-27978333D01*
X257434523Y-27978333D02*
X257434523Y-27883095D01*
X257434523Y-27883095D02*
X257386904Y-27787857D01*
X257386904Y-27787857D02*
X257339285Y-27740238D01*
X257339285Y-27740238D02*
X257244047Y-27692619D01*
X257244047Y-27692619D02*
X257005952Y-27692619D01*
X257005952Y-27692619D02*
X256863095Y-27740238D01*
X255863095Y-28597380D02*
X255910714Y-28645000D01*
X255910714Y-28645000D02*
X256053571Y-28692619D01*
X256053571Y-28692619D02*
X256148809Y-28692619D01*
X256148809Y-28692619D02*
X256291666Y-28645000D01*
X256291666Y-28645000D02*
X256386904Y-28549761D01*
X256386904Y-28549761D02*
X256434523Y-28454523D01*
X256434523Y-28454523D02*
X256482142Y-28264047D01*
X256482142Y-28264047D02*
X256482142Y-28121190D01*
X256482142Y-28121190D02*
X256434523Y-27930714D01*
X256434523Y-27930714D02*
X256386904Y-27835476D01*
X256386904Y-27835476D02*
X256291666Y-27740238D01*
X256291666Y-27740238D02*
X256148809Y-27692619D01*
X256148809Y-27692619D02*
X256053571Y-27692619D01*
X256053571Y-27692619D02*
X255910714Y-27740238D01*
X255910714Y-27740238D02*
X255863095Y-27787857D01*
X255434523Y-28692619D02*
X255434523Y-27692619D01*
X254863095Y-28692619D02*
X255291666Y-28121190D01*
X254863095Y-27692619D02*
X255434523Y-28264047D01*
X257399761Y-25152619D02*
X257066428Y-26152619D01*
X257066428Y-26152619D02*
X256733095Y-25152619D01*
X255828333Y-26057380D02*
X255875952Y-26105000D01*
X255875952Y-26105000D02*
X256018809Y-26152619D01*
X256018809Y-26152619D02*
X256114047Y-26152619D01*
X256114047Y-26152619D02*
X256256904Y-26105000D01*
X256256904Y-26105000D02*
X256352142Y-26009761D01*
X256352142Y-26009761D02*
X256399761Y-25914523D01*
X256399761Y-25914523D02*
X256447380Y-25724047D01*
X256447380Y-25724047D02*
X256447380Y-25581190D01*
X256447380Y-25581190D02*
X256399761Y-25390714D01*
X256399761Y-25390714D02*
X256352142Y-25295476D01*
X256352142Y-25295476D02*
X256256904Y-25200238D01*
X256256904Y-25200238D02*
X256114047Y-25152619D01*
X256114047Y-25152619D02*
X256018809Y-25152619D01*
X256018809Y-25152619D02*
X255875952Y-25200238D01*
X255875952Y-25200238D02*
X255828333Y-25247857D01*
X254828333Y-26057380D02*
X254875952Y-26105000D01*
X254875952Y-26105000D02*
X255018809Y-26152619D01*
X255018809Y-26152619D02*
X255114047Y-26152619D01*
X255114047Y-26152619D02*
X255256904Y-26105000D01*
X255256904Y-26105000D02*
X255352142Y-26009761D01*
X255352142Y-26009761D02*
X255399761Y-25914523D01*
X255399761Y-25914523D02*
X255447380Y-25724047D01*
X255447380Y-25724047D02*
X255447380Y-25581190D01*
X255447380Y-25581190D02*
X255399761Y-25390714D01*
X255399761Y-25390714D02*
X255352142Y-25295476D01*
X255352142Y-25295476D02*
X255256904Y-25200238D01*
X255256904Y-25200238D02*
X255114047Y-25152619D01*
X255114047Y-25152619D02*
X255018809Y-25152619D01*
X255018809Y-25152619D02*
X254875952Y-25200238D01*
X254875952Y-25200238D02*
X254828333Y-25247857D01*
X256815476Y-36312619D02*
X257148809Y-35836428D01*
X257386904Y-36312619D02*
X257386904Y-35312619D01*
X257386904Y-35312619D02*
X257005952Y-35312619D01*
X257005952Y-35312619D02*
X256910714Y-35360238D01*
X256910714Y-35360238D02*
X256863095Y-35407857D01*
X256863095Y-35407857D02*
X256815476Y-35503095D01*
X256815476Y-35503095D02*
X256815476Y-35645952D01*
X256815476Y-35645952D02*
X256863095Y-35741190D01*
X256863095Y-35741190D02*
X256910714Y-35788809D01*
X256910714Y-35788809D02*
X257005952Y-35836428D01*
X257005952Y-35836428D02*
X257386904Y-35836428D01*
X256434523Y-36265000D02*
X256291666Y-36312619D01*
X256291666Y-36312619D02*
X256053571Y-36312619D01*
X256053571Y-36312619D02*
X255958333Y-36265000D01*
X255958333Y-36265000D02*
X255910714Y-36217380D01*
X255910714Y-36217380D02*
X255863095Y-36122142D01*
X255863095Y-36122142D02*
X255863095Y-36026904D01*
X255863095Y-36026904D02*
X255910714Y-35931666D01*
X255910714Y-35931666D02*
X255958333Y-35884047D01*
X255958333Y-35884047D02*
X256053571Y-35836428D01*
X256053571Y-35836428D02*
X256244047Y-35788809D01*
X256244047Y-35788809D02*
X256339285Y-35741190D01*
X256339285Y-35741190D02*
X256386904Y-35693571D01*
X256386904Y-35693571D02*
X256434523Y-35598333D01*
X256434523Y-35598333D02*
X256434523Y-35503095D01*
X256434523Y-35503095D02*
X256386904Y-35407857D01*
X256386904Y-35407857D02*
X256339285Y-35360238D01*
X256339285Y-35360238D02*
X256244047Y-35312619D01*
X256244047Y-35312619D02*
X256005952Y-35312619D01*
X256005952Y-35312619D02*
X255863095Y-35360238D01*
X255577380Y-35312619D02*
X255005952Y-35312619D01*
X255291666Y-36312619D02*
X255291666Y-35312619D01*
X257386904Y-33772619D02*
X257386904Y-32772619D01*
X257386904Y-32772619D02*
X257053571Y-33486904D01*
X257053571Y-33486904D02*
X256720238Y-32772619D01*
X256720238Y-32772619D02*
X256720238Y-33772619D01*
X256053571Y-32772619D02*
X255863095Y-32772619D01*
X255863095Y-32772619D02*
X255767857Y-32820238D01*
X255767857Y-32820238D02*
X255672619Y-32915476D01*
X255672619Y-32915476D02*
X255625000Y-33105952D01*
X255625000Y-33105952D02*
X255625000Y-33439285D01*
X255625000Y-33439285D02*
X255672619Y-33629761D01*
X255672619Y-33629761D02*
X255767857Y-33725000D01*
X255767857Y-33725000D02*
X255863095Y-33772619D01*
X255863095Y-33772619D02*
X256053571Y-33772619D01*
X256053571Y-33772619D02*
X256148809Y-33725000D01*
X256148809Y-33725000D02*
X256244047Y-33629761D01*
X256244047Y-33629761D02*
X256291666Y-33439285D01*
X256291666Y-33439285D02*
X256291666Y-33105952D01*
X256291666Y-33105952D02*
X256244047Y-32915476D01*
X256244047Y-32915476D02*
X256148809Y-32820238D01*
X256148809Y-32820238D02*
X256053571Y-32772619D01*
X255244047Y-33725000D02*
X255101190Y-33772619D01*
X255101190Y-33772619D02*
X254863095Y-33772619D01*
X254863095Y-33772619D02*
X254767857Y-33725000D01*
X254767857Y-33725000D02*
X254720238Y-33677380D01*
X254720238Y-33677380D02*
X254672619Y-33582142D01*
X254672619Y-33582142D02*
X254672619Y-33486904D01*
X254672619Y-33486904D02*
X254720238Y-33391666D01*
X254720238Y-33391666D02*
X254767857Y-33344047D01*
X254767857Y-33344047D02*
X254863095Y-33296428D01*
X254863095Y-33296428D02*
X255053571Y-33248809D01*
X255053571Y-33248809D02*
X255148809Y-33201190D01*
X255148809Y-33201190D02*
X255196428Y-33153571D01*
X255196428Y-33153571D02*
X255244047Y-33058333D01*
X255244047Y-33058333D02*
X255244047Y-32963095D01*
X255244047Y-32963095D02*
X255196428Y-32867857D01*
X255196428Y-32867857D02*
X255148809Y-32820238D01*
X255148809Y-32820238D02*
X255053571Y-32772619D01*
X255053571Y-32772619D02*
X254815476Y-32772619D01*
X254815476Y-32772619D02*
X254672619Y-32820238D01*
X254244047Y-33772619D02*
X254244047Y-32772619D01*
X256833095Y-22660238D02*
X256928333Y-22612619D01*
X256928333Y-22612619D02*
X257071190Y-22612619D01*
X257071190Y-22612619D02*
X257214047Y-22660238D01*
X257214047Y-22660238D02*
X257309285Y-22755476D01*
X257309285Y-22755476D02*
X257356904Y-22850714D01*
X257356904Y-22850714D02*
X257404523Y-23041190D01*
X257404523Y-23041190D02*
X257404523Y-23184047D01*
X257404523Y-23184047D02*
X257356904Y-23374523D01*
X257356904Y-23374523D02*
X257309285Y-23469761D01*
X257309285Y-23469761D02*
X257214047Y-23565000D01*
X257214047Y-23565000D02*
X257071190Y-23612619D01*
X257071190Y-23612619D02*
X256975952Y-23612619D01*
X256975952Y-23612619D02*
X256833095Y-23565000D01*
X256833095Y-23565000D02*
X256785476Y-23517380D01*
X256785476Y-23517380D02*
X256785476Y-23184047D01*
X256785476Y-23184047D02*
X256975952Y-23184047D01*
X256356904Y-23612619D02*
X256356904Y-22612619D01*
X256356904Y-22612619D02*
X255785476Y-23612619D01*
X255785476Y-23612619D02*
X255785476Y-22612619D01*
X255309285Y-23612619D02*
X255309285Y-22612619D01*
X255309285Y-22612619D02*
X255071190Y-22612619D01*
X255071190Y-22612619D02*
X254928333Y-22660238D01*
X254928333Y-22660238D02*
X254833095Y-22755476D01*
X254833095Y-22755476D02*
X254785476Y-22850714D01*
X254785476Y-22850714D02*
X254737857Y-23041190D01*
X254737857Y-23041190D02*
X254737857Y-23184047D01*
X254737857Y-23184047D02*
X254785476Y-23374523D01*
X254785476Y-23374523D02*
X254833095Y-23469761D01*
X254833095Y-23469761D02*
X254928333Y-23565000D01*
X254928333Y-23565000D02*
X255071190Y-23612619D01*
X255071190Y-23612619D02*
X255309285Y-23612619D01*
X257386904Y-31232619D02*
X257386904Y-30232619D01*
X257386904Y-30232619D02*
X257053571Y-30946904D01*
X257053571Y-30946904D02*
X256720238Y-30232619D01*
X256720238Y-30232619D02*
X256720238Y-31232619D01*
X256244047Y-31232619D02*
X256244047Y-30232619D01*
X255815476Y-31185000D02*
X255672619Y-31232619D01*
X255672619Y-31232619D02*
X255434524Y-31232619D01*
X255434524Y-31232619D02*
X255339286Y-31185000D01*
X255339286Y-31185000D02*
X255291667Y-31137380D01*
X255291667Y-31137380D02*
X255244048Y-31042142D01*
X255244048Y-31042142D02*
X255244048Y-30946904D01*
X255244048Y-30946904D02*
X255291667Y-30851666D01*
X255291667Y-30851666D02*
X255339286Y-30804047D01*
X255339286Y-30804047D02*
X255434524Y-30756428D01*
X255434524Y-30756428D02*
X255625000Y-30708809D01*
X255625000Y-30708809D02*
X255720238Y-30661190D01*
X255720238Y-30661190D02*
X255767857Y-30613571D01*
X255767857Y-30613571D02*
X255815476Y-30518333D01*
X255815476Y-30518333D02*
X255815476Y-30423095D01*
X255815476Y-30423095D02*
X255767857Y-30327857D01*
X255767857Y-30327857D02*
X255720238Y-30280238D01*
X255720238Y-30280238D02*
X255625000Y-30232619D01*
X255625000Y-30232619D02*
X255386905Y-30232619D01*
X255386905Y-30232619D02*
X255244048Y-30280238D01*
X254625000Y-30232619D02*
X254434524Y-30232619D01*
X254434524Y-30232619D02*
X254339286Y-30280238D01*
X254339286Y-30280238D02*
X254244048Y-30375476D01*
X254244048Y-30375476D02*
X254196429Y-30565952D01*
X254196429Y-30565952D02*
X254196429Y-30899285D01*
X254196429Y-30899285D02*
X254244048Y-31089761D01*
X254244048Y-31089761D02*
X254339286Y-31185000D01*
X254339286Y-31185000D02*
X254434524Y-31232619D01*
X254434524Y-31232619D02*
X254625000Y-31232619D01*
X254625000Y-31232619D02*
X254720238Y-31185000D01*
X254720238Y-31185000D02*
X254815476Y-31089761D01*
X254815476Y-31089761D02*
X254863095Y-30899285D01*
X254863095Y-30899285D02*
X254863095Y-30565952D01*
X254863095Y-30565952D02*
X254815476Y-30375476D01*
X254815476Y-30375476D02*
X254720238Y-30280238D01*
X254720238Y-30280238D02*
X254625000Y-30232619D01*
%TO.C,SW1*%
X272983332Y-35990000D02*
X272840475Y-36037619D01*
X272840475Y-36037619D02*
X272602380Y-36037619D01*
X272602380Y-36037619D02*
X272507142Y-35990000D01*
X272507142Y-35990000D02*
X272459523Y-35942380D01*
X272459523Y-35942380D02*
X272411904Y-35847142D01*
X272411904Y-35847142D02*
X272411904Y-35751904D01*
X272411904Y-35751904D02*
X272459523Y-35656666D01*
X272459523Y-35656666D02*
X272507142Y-35609047D01*
X272507142Y-35609047D02*
X272602380Y-35561428D01*
X272602380Y-35561428D02*
X272792856Y-35513809D01*
X272792856Y-35513809D02*
X272888094Y-35466190D01*
X272888094Y-35466190D02*
X272935713Y-35418571D01*
X272935713Y-35418571D02*
X272983332Y-35323333D01*
X272983332Y-35323333D02*
X272983332Y-35228095D01*
X272983332Y-35228095D02*
X272935713Y-35132857D01*
X272935713Y-35132857D02*
X272888094Y-35085238D01*
X272888094Y-35085238D02*
X272792856Y-35037619D01*
X272792856Y-35037619D02*
X272554761Y-35037619D01*
X272554761Y-35037619D02*
X272411904Y-35085238D01*
X272078570Y-35037619D02*
X271840475Y-36037619D01*
X271840475Y-36037619D02*
X271649999Y-35323333D01*
X271649999Y-35323333D02*
X271459523Y-36037619D01*
X271459523Y-36037619D02*
X271221428Y-35037619D01*
X270316666Y-36037619D02*
X270888094Y-36037619D01*
X270602380Y-36037619D02*
X270602380Y-35037619D01*
X270602380Y-35037619D02*
X270697618Y-35180476D01*
X270697618Y-35180476D02*
X270792856Y-35275714D01*
X270792856Y-35275714D02*
X270888094Y-35323333D01*
%TO.C,D23*%
X216970537Y-54239619D02*
X216970537Y-53239619D01*
X216970537Y-53239619D02*
X216732442Y-53239619D01*
X216732442Y-53239619D02*
X216589585Y-53287238D01*
X216589585Y-53287238D02*
X216494347Y-53382476D01*
X216494347Y-53382476D02*
X216446728Y-53477714D01*
X216446728Y-53477714D02*
X216399109Y-53668190D01*
X216399109Y-53668190D02*
X216399109Y-53811047D01*
X216399109Y-53811047D02*
X216446728Y-54001523D01*
X216446728Y-54001523D02*
X216494347Y-54096761D01*
X216494347Y-54096761D02*
X216589585Y-54192000D01*
X216589585Y-54192000D02*
X216732442Y-54239619D01*
X216732442Y-54239619D02*
X216970537Y-54239619D01*
X216018156Y-53334857D02*
X215970537Y-53287238D01*
X215970537Y-53287238D02*
X215875299Y-53239619D01*
X215875299Y-53239619D02*
X215637204Y-53239619D01*
X215637204Y-53239619D02*
X215541966Y-53287238D01*
X215541966Y-53287238D02*
X215494347Y-53334857D01*
X215494347Y-53334857D02*
X215446728Y-53430095D01*
X215446728Y-53430095D02*
X215446728Y-53525333D01*
X215446728Y-53525333D02*
X215494347Y-53668190D01*
X215494347Y-53668190D02*
X216065775Y-54239619D01*
X216065775Y-54239619D02*
X215446728Y-54239619D01*
X215113394Y-53239619D02*
X214494347Y-53239619D01*
X214494347Y-53239619D02*
X214827680Y-53620571D01*
X214827680Y-53620571D02*
X214684823Y-53620571D01*
X214684823Y-53620571D02*
X214589585Y-53668190D01*
X214589585Y-53668190D02*
X214541966Y-53715809D01*
X214541966Y-53715809D02*
X214494347Y-53811047D01*
X214494347Y-53811047D02*
X214494347Y-54049142D01*
X214494347Y-54049142D02*
X214541966Y-54144380D01*
X214541966Y-54144380D02*
X214589585Y-54192000D01*
X214589585Y-54192000D02*
X214684823Y-54239619D01*
X214684823Y-54239619D02*
X214970537Y-54239619D01*
X214970537Y-54239619D02*
X215065775Y-54192000D01*
X215065775Y-54192000D02*
X215113394Y-54144380D01*
%TO.C,D25*%
X240270537Y-54239619D02*
X240270537Y-53239619D01*
X240270537Y-53239619D02*
X240032442Y-53239619D01*
X240032442Y-53239619D02*
X239889585Y-53287238D01*
X239889585Y-53287238D02*
X239794347Y-53382476D01*
X239794347Y-53382476D02*
X239746728Y-53477714D01*
X239746728Y-53477714D02*
X239699109Y-53668190D01*
X239699109Y-53668190D02*
X239699109Y-53811047D01*
X239699109Y-53811047D02*
X239746728Y-54001523D01*
X239746728Y-54001523D02*
X239794347Y-54096761D01*
X239794347Y-54096761D02*
X239889585Y-54192000D01*
X239889585Y-54192000D02*
X240032442Y-54239619D01*
X240032442Y-54239619D02*
X240270537Y-54239619D01*
X239318156Y-53334857D02*
X239270537Y-53287238D01*
X239270537Y-53287238D02*
X239175299Y-53239619D01*
X239175299Y-53239619D02*
X238937204Y-53239619D01*
X238937204Y-53239619D02*
X238841966Y-53287238D01*
X238841966Y-53287238D02*
X238794347Y-53334857D01*
X238794347Y-53334857D02*
X238746728Y-53430095D01*
X238746728Y-53430095D02*
X238746728Y-53525333D01*
X238746728Y-53525333D02*
X238794347Y-53668190D01*
X238794347Y-53668190D02*
X239365775Y-54239619D01*
X239365775Y-54239619D02*
X238746728Y-54239619D01*
X237841966Y-53239619D02*
X238318156Y-53239619D01*
X238318156Y-53239619D02*
X238365775Y-53715809D01*
X238365775Y-53715809D02*
X238318156Y-53668190D01*
X238318156Y-53668190D02*
X238222918Y-53620571D01*
X238222918Y-53620571D02*
X237984823Y-53620571D01*
X237984823Y-53620571D02*
X237889585Y-53668190D01*
X237889585Y-53668190D02*
X237841966Y-53715809D01*
X237841966Y-53715809D02*
X237794347Y-53811047D01*
X237794347Y-53811047D02*
X237794347Y-54049142D01*
X237794347Y-54049142D02*
X237841966Y-54144380D01*
X237841966Y-54144380D02*
X237889585Y-54192000D01*
X237889585Y-54192000D02*
X237984823Y-54239619D01*
X237984823Y-54239619D02*
X238222918Y-54239619D01*
X238222918Y-54239619D02*
X238318156Y-54192000D01*
X238318156Y-54192000D02*
X238365775Y-54144380D01*
%TO.C,D42*%
X83620537Y-92314619D02*
X83620537Y-91314619D01*
X83620537Y-91314619D02*
X83382442Y-91314619D01*
X83382442Y-91314619D02*
X83239585Y-91362238D01*
X83239585Y-91362238D02*
X83144347Y-91457476D01*
X83144347Y-91457476D02*
X83096728Y-91552714D01*
X83096728Y-91552714D02*
X83049109Y-91743190D01*
X83049109Y-91743190D02*
X83049109Y-91886047D01*
X83049109Y-91886047D02*
X83096728Y-92076523D01*
X83096728Y-92076523D02*
X83144347Y-92171761D01*
X83144347Y-92171761D02*
X83239585Y-92267000D01*
X83239585Y-92267000D02*
X83382442Y-92314619D01*
X83382442Y-92314619D02*
X83620537Y-92314619D01*
X82191966Y-91647952D02*
X82191966Y-92314619D01*
X82430061Y-91267000D02*
X82668156Y-91981285D01*
X82668156Y-91981285D02*
X82049109Y-91981285D01*
X81715775Y-91409857D02*
X81668156Y-91362238D01*
X81668156Y-91362238D02*
X81572918Y-91314619D01*
X81572918Y-91314619D02*
X81334823Y-91314619D01*
X81334823Y-91314619D02*
X81239585Y-91362238D01*
X81239585Y-91362238D02*
X81191966Y-91409857D01*
X81191966Y-91409857D02*
X81144347Y-91505095D01*
X81144347Y-91505095D02*
X81144347Y-91600333D01*
X81144347Y-91600333D02*
X81191966Y-91743190D01*
X81191966Y-91743190D02*
X81763394Y-92314619D01*
X81763394Y-92314619D02*
X81144347Y-92314619D01*
%TO.C,D26*%
X278883033Y-52739619D02*
X278883033Y-51739619D01*
X278883033Y-51739619D02*
X278644938Y-51739619D01*
X278644938Y-51739619D02*
X278502081Y-51787238D01*
X278502081Y-51787238D02*
X278406843Y-51882476D01*
X278406843Y-51882476D02*
X278359224Y-51977714D01*
X278359224Y-51977714D02*
X278311605Y-52168190D01*
X278311605Y-52168190D02*
X278311605Y-52311047D01*
X278311605Y-52311047D02*
X278359224Y-52501523D01*
X278359224Y-52501523D02*
X278406843Y-52596761D01*
X278406843Y-52596761D02*
X278502081Y-52692000D01*
X278502081Y-52692000D02*
X278644938Y-52739619D01*
X278644938Y-52739619D02*
X278883033Y-52739619D01*
X277930652Y-51834857D02*
X277883033Y-51787238D01*
X277883033Y-51787238D02*
X277787795Y-51739619D01*
X277787795Y-51739619D02*
X277549700Y-51739619D01*
X277549700Y-51739619D02*
X277454462Y-51787238D01*
X277454462Y-51787238D02*
X277406843Y-51834857D01*
X277406843Y-51834857D02*
X277359224Y-51930095D01*
X277359224Y-51930095D02*
X277359224Y-52025333D01*
X277359224Y-52025333D02*
X277406843Y-52168190D01*
X277406843Y-52168190D02*
X277978271Y-52739619D01*
X277978271Y-52739619D02*
X277359224Y-52739619D01*
X276502081Y-51739619D02*
X276692557Y-51739619D01*
X276692557Y-51739619D02*
X276787795Y-51787238D01*
X276787795Y-51787238D02*
X276835414Y-51834857D01*
X276835414Y-51834857D02*
X276930652Y-51977714D01*
X276930652Y-51977714D02*
X276978271Y-52168190D01*
X276978271Y-52168190D02*
X276978271Y-52549142D01*
X276978271Y-52549142D02*
X276930652Y-52644380D01*
X276930652Y-52644380D02*
X276883033Y-52692000D01*
X276883033Y-52692000D02*
X276787795Y-52739619D01*
X276787795Y-52739619D02*
X276597319Y-52739619D01*
X276597319Y-52739619D02*
X276502081Y-52692000D01*
X276502081Y-52692000D02*
X276454462Y-52644380D01*
X276454462Y-52644380D02*
X276406843Y-52549142D01*
X276406843Y-52549142D02*
X276406843Y-52311047D01*
X276406843Y-52311047D02*
X276454462Y-52215809D01*
X276454462Y-52215809D02*
X276502081Y-52168190D01*
X276502081Y-52168190D02*
X276597319Y-52120571D01*
X276597319Y-52120571D02*
X276787795Y-52120571D01*
X276787795Y-52120571D02*
X276883033Y-52168190D01*
X276883033Y-52168190D02*
X276930652Y-52215809D01*
X276930652Y-52215809D02*
X276978271Y-52311047D01*
%TO.C,D10*%
X216970537Y-35189619D02*
X216970537Y-34189619D01*
X216970537Y-34189619D02*
X216732442Y-34189619D01*
X216732442Y-34189619D02*
X216589585Y-34237238D01*
X216589585Y-34237238D02*
X216494347Y-34332476D01*
X216494347Y-34332476D02*
X216446728Y-34427714D01*
X216446728Y-34427714D02*
X216399109Y-34618190D01*
X216399109Y-34618190D02*
X216399109Y-34761047D01*
X216399109Y-34761047D02*
X216446728Y-34951523D01*
X216446728Y-34951523D02*
X216494347Y-35046761D01*
X216494347Y-35046761D02*
X216589585Y-35142000D01*
X216589585Y-35142000D02*
X216732442Y-35189619D01*
X216732442Y-35189619D02*
X216970537Y-35189619D01*
X215446728Y-35189619D02*
X216018156Y-35189619D01*
X215732442Y-35189619D02*
X215732442Y-34189619D01*
X215732442Y-34189619D02*
X215827680Y-34332476D01*
X215827680Y-34332476D02*
X215922918Y-34427714D01*
X215922918Y-34427714D02*
X216018156Y-34475333D01*
X214827680Y-34189619D02*
X214732442Y-34189619D01*
X214732442Y-34189619D02*
X214637204Y-34237238D01*
X214637204Y-34237238D02*
X214589585Y-34284857D01*
X214589585Y-34284857D02*
X214541966Y-34380095D01*
X214541966Y-34380095D02*
X214494347Y-34570571D01*
X214494347Y-34570571D02*
X214494347Y-34808666D01*
X214494347Y-34808666D02*
X214541966Y-34999142D01*
X214541966Y-34999142D02*
X214589585Y-35094380D01*
X214589585Y-35094380D02*
X214637204Y-35142000D01*
X214637204Y-35142000D02*
X214732442Y-35189619D01*
X214732442Y-35189619D02*
X214827680Y-35189619D01*
X214827680Y-35189619D02*
X214922918Y-35142000D01*
X214922918Y-35142000D02*
X214970537Y-35094380D01*
X214970537Y-35094380D02*
X215018156Y-34999142D01*
X215018156Y-34999142D02*
X215065775Y-34808666D01*
X215065775Y-34808666D02*
X215065775Y-34570571D01*
X215065775Y-34570571D02*
X215018156Y-34380095D01*
X215018156Y-34380095D02*
X214970537Y-34284857D01*
X214970537Y-34284857D02*
X214922918Y-34237238D01*
X214922918Y-34237238D02*
X214827680Y-34189619D01*
%TO.C,D44*%
X121720537Y-92314619D02*
X121720537Y-91314619D01*
X121720537Y-91314619D02*
X121482442Y-91314619D01*
X121482442Y-91314619D02*
X121339585Y-91362238D01*
X121339585Y-91362238D02*
X121244347Y-91457476D01*
X121244347Y-91457476D02*
X121196728Y-91552714D01*
X121196728Y-91552714D02*
X121149109Y-91743190D01*
X121149109Y-91743190D02*
X121149109Y-91886047D01*
X121149109Y-91886047D02*
X121196728Y-92076523D01*
X121196728Y-92076523D02*
X121244347Y-92171761D01*
X121244347Y-92171761D02*
X121339585Y-92267000D01*
X121339585Y-92267000D02*
X121482442Y-92314619D01*
X121482442Y-92314619D02*
X121720537Y-92314619D01*
X120291966Y-91647952D02*
X120291966Y-92314619D01*
X120530061Y-91267000D02*
X120768156Y-91981285D01*
X120768156Y-91981285D02*
X120149109Y-91981285D01*
X119339585Y-91647952D02*
X119339585Y-92314619D01*
X119577680Y-91267000D02*
X119815775Y-91981285D01*
X119815775Y-91981285D02*
X119196728Y-91981285D01*
%TO.C,D17*%
X102670537Y-54239619D02*
X102670537Y-53239619D01*
X102670537Y-53239619D02*
X102432442Y-53239619D01*
X102432442Y-53239619D02*
X102289585Y-53287238D01*
X102289585Y-53287238D02*
X102194347Y-53382476D01*
X102194347Y-53382476D02*
X102146728Y-53477714D01*
X102146728Y-53477714D02*
X102099109Y-53668190D01*
X102099109Y-53668190D02*
X102099109Y-53811047D01*
X102099109Y-53811047D02*
X102146728Y-54001523D01*
X102146728Y-54001523D02*
X102194347Y-54096761D01*
X102194347Y-54096761D02*
X102289585Y-54192000D01*
X102289585Y-54192000D02*
X102432442Y-54239619D01*
X102432442Y-54239619D02*
X102670537Y-54239619D01*
X101146728Y-54239619D02*
X101718156Y-54239619D01*
X101432442Y-54239619D02*
X101432442Y-53239619D01*
X101432442Y-53239619D02*
X101527680Y-53382476D01*
X101527680Y-53382476D02*
X101622918Y-53477714D01*
X101622918Y-53477714D02*
X101718156Y-53525333D01*
X100813394Y-53239619D02*
X100146728Y-53239619D01*
X100146728Y-53239619D02*
X100575299Y-54239619D01*
D11*
%TO.C,MX39*%
X270772102Y-62265682D02*
X267729209Y-62265682D01*
X267729209Y-62265682D02*
G75*
G03*
X266729209Y-63265682I6J-1000006D01*
G01*
%TO.C,MX37*%
X227909566Y-62265682D02*
X224866673Y-62265682D01*
X224866673Y-62265682D02*
G75*
G03*
X223866673Y-63265682I6J-1000006D01*
G01*
%TO.C,D7*%
X157606252Y-33785000D02*
X157606252Y-29775000D01*
X159606252Y-33785000D02*
X157606252Y-33785000D01*
X159606252Y-33785000D02*
X159606252Y-29775000D01*
%TO.C,C4*%
X267835000Y-50988748D02*
X267835000Y-51511252D01*
X266365000Y-50988748D02*
X266365000Y-51511252D01*
%TO.C,RSW1*%
X265515000Y-36477064D02*
X265515000Y-36022936D01*
X266985000Y-36477064D02*
X266985000Y-36022936D01*
%TO.C,D8*%
X176656252Y-33785000D02*
X176656252Y-29775000D01*
X178656252Y-33785000D02*
X176656252Y-33785000D01*
X178656252Y-33785000D02*
X178656252Y-29775000D01*
%TO.C,D14*%
X43306252Y-52835000D02*
X43306252Y-48825000D01*
X45306252Y-52835000D02*
X43306252Y-52835000D01*
X45306252Y-52835000D02*
X45306252Y-48825000D01*
%TO.C,MX42*%
X75509438Y-81315698D02*
X72466545Y-81315698D01*
X72466545Y-81315698D02*
G75*
G03*
X71466545Y-82315698I6J-1000006D01*
G01*
%TO.C,D35*%
X195706252Y-71910000D02*
X195706252Y-67900000D01*
X197706252Y-71910000D02*
X195706252Y-71910000D01*
X197706252Y-71910000D02*
X197706252Y-67900000D01*
%TO.C,D11*%
X233806252Y-33785000D02*
X233806252Y-29775000D01*
X235806252Y-33785000D02*
X233806252Y-33785000D01*
X235806252Y-33785000D02*
X235806252Y-29775000D01*
%TO.C,R3*%
X258185000Y-40022936D02*
X258185000Y-40477064D01*
X256715000Y-40022936D02*
X256715000Y-40477064D01*
%TO.C,MX9*%
X189809534Y-24165650D02*
X186766641Y-24165650D01*
X186766641Y-24165650D02*
G75*
G03*
X185766641Y-25165650I6J-1000006D01*
G01*
%TO.C,MX3*%
X75509438Y-24165650D02*
X72466545Y-24165650D01*
X72466545Y-24165650D02*
G75*
G03*
X71466545Y-25165650I6J-1000006D01*
G01*
%TO.C,D39*%
X276668748Y-71910000D02*
X276668748Y-67900000D01*
X278668748Y-71910000D02*
X276668748Y-71910000D01*
X278668748Y-71910000D02*
X278668748Y-67900000D01*
%TO.C,MX41*%
X56459422Y-81315698D02*
X53416529Y-81315698D01*
X53416529Y-81315698D02*
G75*
G03*
X52416529Y-82315698I6J-1000006D01*
G01*
%TO.C,MX25*%
X246959582Y-43215666D02*
X243916689Y-43215666D01*
X243916689Y-43215666D02*
G75*
G03*
X242916689Y-44215666I6J-1000006D01*
G01*
%TO.C,MX22*%
X189809534Y-43215666D02*
X186766641Y-43215666D01*
X186766641Y-43215666D02*
G75*
G03*
X185766641Y-44215666I6J-1000006D01*
G01*
%TO.C,MX49*%
X208859550Y-81315698D02*
X205816657Y-81315698D01*
X205816657Y-81315698D02*
G75*
G03*
X204816657Y-82315698I6J-1000006D01*
G01*
%TO.C,D46*%
X157606252Y-90910000D02*
X157606252Y-86900000D01*
X159606252Y-90910000D02*
X157606252Y-90910000D01*
X159606252Y-90910000D02*
X159606252Y-86900000D01*
%TO.C,D40*%
X43306252Y-90910000D02*
X43306252Y-86900000D01*
X45306252Y-90910000D02*
X43306252Y-90910000D01*
X45306252Y-90910000D02*
X45306252Y-86900000D01*
%TO.C,MX10*%
X208859550Y-24165650D02*
X205816657Y-24165650D01*
X205816657Y-24165650D02*
G75*
G03*
X204816657Y-25165650I6J-1000006D01*
G01*
%TO.C,CX1*%
X274338748Y-53315000D02*
X274861252Y-53315000D01*
X274338748Y-54785000D02*
X274861252Y-54785000D01*
%TO.C,R2*%
X254415000Y-40477064D02*
X254415000Y-40022936D01*
X255885000Y-40477064D02*
X255885000Y-40022936D01*
%TO.C,C1*%
X247802086Y-53010000D02*
X247279582Y-53010000D01*
X247802086Y-51540000D02*
X247279582Y-51540000D01*
%TO.C,D4*%
X100456252Y-33785000D02*
X100456252Y-29775000D01*
X102456252Y-33785000D02*
X100456252Y-33785000D01*
X102456252Y-33785000D02*
X102456252Y-29775000D01*
%TO.C,Y1*%
X271850000Y-53425000D02*
X271850000Y-57425000D01*
X268550000Y-53425000D02*
X271850000Y-53425000D01*
%TO.C,C2*%
X247811252Y-58335000D02*
X247288748Y-58335000D01*
X247811252Y-56865000D02*
X247288748Y-56865000D01*
%TO.C,MX19*%
X132659486Y-43215666D02*
X129616593Y-43215666D01*
X129616593Y-43215666D02*
G75*
G03*
X128616593Y-44215666I6J-1000006D01*
G01*
%TO.C,D29*%
X81406252Y-71910000D02*
X81406252Y-67900000D01*
X83406252Y-71910000D02*
X81406252Y-71910000D01*
X83406252Y-71910000D02*
X83406252Y-67900000D01*
%TO.C,MX21*%
X170759518Y-43215666D02*
X167716625Y-43215666D01*
X167716625Y-43215666D02*
G75*
G03*
X166716625Y-44215666I6J-1000006D01*
G01*
%TO.C,D24*%
X233806252Y-52835000D02*
X233806252Y-48825000D01*
X235806252Y-52835000D02*
X233806252Y-52835000D01*
X235806252Y-52835000D02*
X235806252Y-48825000D01*
%TO.C,D31*%
X119506252Y-71910000D02*
X119506252Y-67900000D01*
X121506252Y-71910000D02*
X119506252Y-71910000D01*
X121506252Y-71910000D02*
X121506252Y-67900000D01*
%TO.C,D45*%
X138556252Y-90910000D02*
X138556252Y-86900000D01*
X140556252Y-90910000D02*
X138556252Y-90910000D01*
X140556252Y-90910000D02*
X140556252Y-86900000D01*
%TO.C,D16*%
X81406252Y-52835000D02*
X81406252Y-48825000D01*
X83406252Y-52835000D02*
X81406252Y-52835000D01*
X83406252Y-52835000D02*
X83406252Y-48825000D01*
%TO.C,D41*%
X62356252Y-90910000D02*
X62356252Y-86900000D01*
X64356252Y-90910000D02*
X62356252Y-90910000D01*
X64356252Y-90910000D02*
X64356252Y-86900000D01*
%TO.C,MX16*%
X75509438Y-43215666D02*
X72466545Y-43215666D01*
X72466545Y-43215666D02*
G75*
G03*
X71466545Y-44215666I6J-1000006D01*
G01*
%TO.C,D13*%
X276668748Y-33785000D02*
X276668748Y-29775000D01*
X278668748Y-33785000D02*
X276668748Y-33785000D01*
X278668748Y-33785000D02*
X278668748Y-29775000D01*
%TO.C,MX32*%
X132659486Y-62265682D02*
X129616593Y-62265682D01*
X129616593Y-62265682D02*
G75*
G03*
X128616593Y-63265682I6J-1000006D01*
G01*
%TO.C,D49*%
X214756252Y-90910000D02*
X214756252Y-86900000D01*
X216756252Y-90910000D02*
X214756252Y-90910000D01*
X216756252Y-90910000D02*
X216756252Y-86900000D01*
%TO.C,MX8*%
X170759518Y-24165650D02*
X167716625Y-24165650D01*
X167716625Y-24165650D02*
G75*
G03*
X166716625Y-25165650I6J-1000006D01*
G01*
%TO.C,D51*%
X252856252Y-90910000D02*
X252856252Y-86900000D01*
X254856252Y-90910000D02*
X252856252Y-90910000D01*
X254856252Y-90910000D02*
X254856252Y-86900000D01*
%TO.C,D50*%
X233806252Y-90910000D02*
X233806252Y-86900000D01*
X235806252Y-90910000D02*
X233806252Y-90910000D01*
X235806252Y-90910000D02*
X235806252Y-86900000D01*
%TO.C,C5*%
X259340000Y-40511252D02*
X259340000Y-39988748D01*
X260810000Y-40511252D02*
X260810000Y-39988748D01*
%TO.C,D52*%
X276668748Y-90910000D02*
X276668748Y-86900000D01*
X278668748Y-90910000D02*
X276668748Y-90910000D01*
X278668748Y-90910000D02*
X278668748Y-86900000D01*
%TO.C,MX33*%
X151709502Y-62265682D02*
X148666609Y-62265682D01*
X148666609Y-62265682D02*
G75*
G03*
X147666609Y-63265682I6J-1000006D01*
G01*
%TO.C,D37*%
X233806252Y-71910000D02*
X233806252Y-67900000D01*
X235806252Y-71910000D02*
X233806252Y-71910000D01*
X235806252Y-71910000D02*
X235806252Y-67900000D01*
%TO.C,D3*%
X81406252Y-33785000D02*
X81406252Y-29775000D01*
X83406252Y-33785000D02*
X81406252Y-33785000D01*
X83406252Y-33785000D02*
X83406252Y-29775000D01*
%TO.C,C3*%
X261138748Y-62265000D02*
X261661252Y-62265000D01*
X261138748Y-63735000D02*
X261661252Y-63735000D01*
%TO.C,D18*%
X119506252Y-52835000D02*
X119506252Y-48825000D01*
X121506252Y-52835000D02*
X119506252Y-52835000D01*
X121506252Y-52835000D02*
X121506252Y-48825000D01*
%TO.C,D28*%
X62356252Y-71910000D02*
X62356252Y-67900000D01*
X64356252Y-71910000D02*
X62356252Y-71910000D01*
X64356252Y-71910000D02*
X64356252Y-67900000D01*
%TO.C,MX34*%
X170759518Y-62265682D02*
X167716625Y-62265682D01*
X167716625Y-62265682D02*
G75*
G03*
X166716625Y-63265682I6J-1000006D01*
G01*
%TO.C,MX28*%
X56459422Y-62265682D02*
X53416529Y-62265682D01*
X53416529Y-62265682D02*
G75*
G03*
X52416529Y-63265682I6J-1000006D01*
G01*
%TO.C,MX47*%
X170759518Y-81315698D02*
X167716625Y-81315698D01*
X167716625Y-81315698D02*
G75*
G03*
X166716625Y-82315698I6J-1000006D01*
G01*
%TO.C,D32*%
X138556252Y-71910000D02*
X138556252Y-67900000D01*
X140556252Y-71910000D02*
X138556252Y-71910000D01*
X140556252Y-71910000D02*
X140556252Y-67900000D01*
%TO.C,MX45*%
X132659486Y-81315698D02*
X129616593Y-81315698D01*
X129616593Y-81315698D02*
G75*
G03*
X128616593Y-82315698I6J-1000006D01*
G01*
%TO.C,D5*%
X119506252Y-33785000D02*
X119506252Y-29775000D01*
X121506252Y-33785000D02*
X119506252Y-33785000D01*
X121506252Y-33785000D02*
X121506252Y-29775000D01*
%TO.C,MX4*%
X94559454Y-24165650D02*
X91516561Y-24165650D01*
X91516561Y-24165650D02*
G75*
G03*
X90516561Y-25165650I6J-1000006D01*
G01*
%TO.C,D27*%
X43306252Y-71910000D02*
X43306252Y-67900000D01*
X45306252Y-71910000D02*
X43306252Y-71910000D01*
X45306252Y-71910000D02*
X45306252Y-67900000D01*
%TO.C,MX29*%
X75509438Y-62265682D02*
X72466545Y-62265682D01*
X72466545Y-62265682D02*
G75*
G03*
X71466545Y-63265682I6J-1000006D01*
G01*
%TO.C,MX7*%
X151709502Y-24165650D02*
X148666609Y-24165650D01*
X148666609Y-24165650D02*
G75*
G03*
X147666609Y-25165650I6J-1000006D01*
G01*
%TO.C,D48*%
X195706252Y-90910000D02*
X195706252Y-86900000D01*
X197706252Y-90910000D02*
X195706252Y-90910000D01*
X197706252Y-90910000D02*
X197706252Y-86900000D01*
%TO.C,D34*%
X176656252Y-71910000D02*
X176656252Y-67900000D01*
X178656252Y-71910000D02*
X176656252Y-71910000D01*
X178656252Y-71910000D02*
X178656252Y-67900000D01*
%TO.C,MX18*%
X113609470Y-43215666D02*
X110566577Y-43215666D01*
X110566577Y-43215666D02*
G75*
G03*
X109566577Y-44215666I6J-1000006D01*
G01*
%TO.C,D20*%
X157606252Y-52835000D02*
X157606252Y-48825000D01*
X159606252Y-52835000D02*
X157606252Y-52835000D01*
X159606252Y-52835000D02*
X159606252Y-48825000D01*
%TO.C,J3*%
X222666252Y-40660000D02*
X225166252Y-40660000D01*
X225166252Y-40660000D02*
X225166252Y-39610000D01*
X225166252Y-39610000D02*
X226156252Y-39610000D01*
X220696252Y-39490000D02*
X220696252Y-35610000D01*
X222666252Y-34440000D02*
X225166252Y-34440000D01*
X225166252Y-34440000D02*
X225166252Y-35490000D01*
%TO.C,MX24*%
X227909566Y-43215666D02*
X224866673Y-43215666D01*
X224866673Y-43215666D02*
G75*
G03*
X223866673Y-44215666I6J-1000006D01*
G01*
%TO.C,D19*%
X138556252Y-52835000D02*
X138556252Y-48825000D01*
X140556252Y-52835000D02*
X138556252Y-52835000D01*
X140556252Y-52835000D02*
X140556252Y-48825000D01*
%TO.C,MX43*%
X94559454Y-81315698D02*
X91516561Y-81315698D01*
X91516561Y-81315698D02*
G75*
G03*
X90516561Y-82315698I6J-1000006D01*
G01*
%TO.C,MX13*%
X270772102Y-24165650D02*
X267729209Y-24165650D01*
X267729209Y-24165650D02*
G75*
G03*
X266729209Y-25165650I6J-1000006D01*
G01*
%TO.C,MX6*%
X132659486Y-24165650D02*
X129616593Y-24165650D01*
X129616593Y-24165650D02*
G75*
G03*
X128616593Y-25165650I6J-1000006D01*
G01*
%TO.C,MX36*%
X208859550Y-62265682D02*
X205816657Y-62265682D01*
X205816657Y-62265682D02*
G75*
G03*
X204816657Y-63265682I6J-1000006D01*
G01*
%TO.C,R1*%
X247322936Y-59065000D02*
X247777064Y-59065000D01*
X247322936Y-60535000D02*
X247777064Y-60535000D01*
D10*
%TO.C,J5*%
X273843000Y-92480000D02*
X275367000Y-92480000D01*
X273843000Y-92480000D02*
X273335000Y-92988000D01*
X271303000Y-92480000D02*
X272827000Y-92480000D01*
X271303000Y-92480000D02*
X270795000Y-92988000D01*
X268763000Y-92480000D02*
X270287000Y-92480000D01*
X268763000Y-92480000D02*
X268255000Y-92988000D01*
X266223000Y-92480000D02*
X267747000Y-92480000D01*
X266223000Y-92480000D02*
X265715000Y-92988000D01*
X263683000Y-92480000D02*
X265207000Y-92480000D01*
X263683000Y-92480000D02*
X263175000Y-92988000D01*
X261143000Y-92480000D02*
X262667000Y-92480000D01*
X261143000Y-92480000D02*
X260635000Y-92988000D01*
X258603000Y-92480000D02*
X260127000Y-92480000D01*
X258603000Y-92480000D02*
X258095000Y-92988000D01*
X256063000Y-92480000D02*
X257587000Y-92480000D01*
X256063000Y-92480000D02*
X255555000Y-92988000D01*
X275875000Y-92988000D02*
X275367000Y-92480000D01*
X273335000Y-92988000D02*
X272827000Y-92480000D01*
X270795000Y-92988000D02*
X270287000Y-92480000D01*
X268255000Y-92988000D02*
X267747000Y-92480000D01*
X265715000Y-92988000D02*
X265207000Y-92480000D01*
X263175000Y-92988000D02*
X262667000Y-92480000D01*
X260635000Y-92988000D02*
X260127000Y-92480000D01*
X258095000Y-92988000D02*
X257587000Y-92480000D01*
X255555000Y-92988000D02*
X255555000Y-94512000D01*
X275875000Y-94512000D02*
X275875000Y-92988000D01*
X273335000Y-94512000D02*
X273843000Y-95020000D01*
X270795000Y-94512000D02*
X271303000Y-95020000D01*
X268255000Y-94512000D02*
X268763000Y-95020000D01*
X265715000Y-94512000D02*
X266223000Y-95020000D01*
X263175000Y-94512000D02*
X263683000Y-95020000D01*
X260635000Y-94512000D02*
X261143000Y-95020000D01*
X258095000Y-94512000D02*
X258603000Y-95020000D01*
X255555000Y-94512000D02*
X256063000Y-95020000D01*
X275367000Y-95020000D02*
X275875000Y-94512000D01*
X273843000Y-95020000D02*
X275367000Y-95020000D01*
X272827000Y-95020000D02*
X273335000Y-94512000D01*
X271303000Y-95020000D02*
X272827000Y-95020000D01*
X270287000Y-95020000D02*
X270795000Y-94512000D01*
X268763000Y-95020000D02*
X270287000Y-95020000D01*
X267747000Y-95020000D02*
X268255000Y-94512000D01*
X266223000Y-95020000D02*
X267747000Y-95020000D01*
X265207000Y-95020000D02*
X265715000Y-94512000D01*
X263683000Y-95020000D02*
X265207000Y-95020000D01*
X262667000Y-95020000D02*
X263175000Y-94512000D01*
X261143000Y-95020000D02*
X262667000Y-95020000D01*
X260127000Y-95020000D02*
X260635000Y-94512000D01*
X258603000Y-95020000D02*
X260127000Y-95020000D01*
X257587000Y-95020000D02*
X258095000Y-94512000D01*
X256063000Y-95020000D02*
X257587000Y-95020000D01*
D11*
%TO.C,D6*%
X138556252Y-33785000D02*
X138556252Y-29775000D01*
X140556252Y-33785000D02*
X138556252Y-33785000D01*
X140556252Y-33785000D02*
X140556252Y-29775000D01*
%TO.C,MX30*%
X94559454Y-62265682D02*
X91516561Y-62265682D01*
X91516561Y-62265682D02*
G75*
G03*
X90516561Y-63265682I6J-1000006D01*
G01*
%TO.C,D12*%
X238050000Y-33785000D02*
X238050000Y-29775000D01*
X240050000Y-33785000D02*
X238050000Y-33785000D01*
X240050000Y-33785000D02*
X240050000Y-29775000D01*
%TO.C,D30*%
X100456252Y-71910000D02*
X100456252Y-67900000D01*
X102456252Y-71910000D02*
X100456252Y-71910000D01*
X102456252Y-71910000D02*
X102456252Y-67900000D01*
%TO.C,D2*%
X62351252Y-33785000D02*
X62351252Y-29775000D01*
X64351252Y-33785000D02*
X62351252Y-33785000D01*
X64351252Y-33785000D02*
X64351252Y-29775000D01*
%TO.C,CX2*%
X274338748Y-56015000D02*
X274861252Y-56015000D01*
X274338748Y-57485000D02*
X274861252Y-57485000D01*
%TO.C,MX35*%
X189809534Y-62265682D02*
X186766641Y-62265682D01*
X186766641Y-62265682D02*
G75*
G03*
X185766641Y-63265682I6J-1000006D01*
G01*
%TO.C,MX15*%
X56459422Y-43215666D02*
X53416529Y-43215666D01*
X53416529Y-43215666D02*
G75*
G03*
X52416529Y-44215666I6J-1000006D01*
G01*
%TO.C,MX48*%
X189809534Y-81315698D02*
X186766641Y-81315698D01*
X186766641Y-81315698D02*
G75*
G03*
X185766641Y-82315698I6J-1000006D01*
G01*
%TO.C,D33*%
X157606252Y-71910000D02*
X157606252Y-67900000D01*
X159606252Y-71910000D02*
X157606252Y-71910000D01*
X159606252Y-71910000D02*
X159606252Y-67900000D01*
%TO.C,MX31*%
X113609470Y-62265682D02*
X110566577Y-62265682D01*
X110566577Y-62265682D02*
G75*
G03*
X109566577Y-63265682I6J-1000006D01*
G01*
%TO.C,D22*%
X195706252Y-52835000D02*
X195706252Y-48825000D01*
X197706252Y-52835000D02*
X195706252Y-52835000D01*
X197706252Y-52835000D02*
X197706252Y-48825000D01*
%TO.C,MX17*%
X94559454Y-43215666D02*
X91516561Y-43215666D01*
X91516561Y-43215666D02*
G75*
G03*
X90516561Y-44215666I6J-1000006D01*
G01*
%TO.C,D36*%
X214756252Y-71910000D02*
X214756252Y-67900000D01*
X216756252Y-71910000D02*
X214756252Y-71910000D01*
X216756252Y-71910000D02*
X216756252Y-67900000D01*
%TO.C,MX51*%
X246959582Y-81315698D02*
X243916689Y-81315698D01*
X243916689Y-81315698D02*
G75*
G03*
X242916689Y-82315698I6J-1000006D01*
G01*
D10*
%TO.C,U1*%
X262925000Y-49425000D02*
X262250000Y-49425000D01*
X262925000Y-49425000D02*
X262925000Y-50100000D01*
X253150000Y-49425000D02*
X253150000Y-48150000D01*
X252575000Y-49425000D02*
X253150000Y-49425000D01*
X252575000Y-49425000D02*
X252575000Y-50100000D01*
X262925000Y-59775000D02*
X262925000Y-59100000D01*
X262925000Y-59775000D02*
X262250000Y-59775000D01*
X252575000Y-59775000D02*
X252575000Y-59100000D01*
X252575000Y-59775000D02*
X253250000Y-59775000D01*
D11*
%TO.C,MX44*%
X113609470Y-81315698D02*
X110566577Y-81315698D01*
X110566577Y-81315698D02*
G75*
G03*
X109566577Y-82315698I6J-1000006D01*
G01*
%TO.C,MX27*%
X37409406Y-62265682D02*
X34366513Y-62265682D01*
X34366513Y-62265682D02*
G75*
G03*
X33366513Y-63265682I6J-1000006D01*
G01*
%TO.C,MX40*%
X37409406Y-81315698D02*
X34366513Y-81315698D01*
X34366513Y-81315698D02*
G75*
G03*
X33366513Y-82315698I6J-1000006D01*
G01*
%TO.C,MX12*%
X246959582Y-24165650D02*
X243916689Y-24165650D01*
X243916689Y-24165650D02*
G75*
G03*
X242916689Y-25165650I6J-1000006D01*
G01*
%TO.C,D43*%
X100456252Y-90910000D02*
X100456252Y-86900000D01*
X102456252Y-90910000D02*
X100456252Y-90910000D01*
X102456252Y-90910000D02*
X102456252Y-86900000D01*
%TO.C,D47*%
X176656252Y-90910000D02*
X176656252Y-86900000D01*
X178656252Y-90910000D02*
X176656252Y-90910000D01*
X178656252Y-90910000D02*
X178656252Y-86900000D01*
%TO.C,MX11*%
X227909566Y-24165650D02*
X224866673Y-24165650D01*
X224866673Y-24165650D02*
G75*
G03*
X223866673Y-25165650I6J-1000006D01*
G01*
%TO.C,D9*%
X195706252Y-33785000D02*
X195706252Y-29775000D01*
X197706252Y-33785000D02*
X195706252Y-33785000D01*
X197706252Y-33785000D02*
X197706252Y-29775000D01*
%TO.C,MX23*%
X208859550Y-43215666D02*
X205816657Y-43215666D01*
X205816657Y-43215666D02*
G75*
G03*
X204816657Y-44215666I6J-1000006D01*
G01*
%TO.C,MX52*%
X270772102Y-81315698D02*
X267729209Y-81315698D01*
X267729209Y-81315698D02*
G75*
G03*
X266729209Y-82315698I6J-1000006D01*
G01*
%TO.C,D1*%
X43311252Y-33762500D02*
X43311252Y-29752500D01*
X45311252Y-33762500D02*
X43311252Y-33762500D01*
X45311252Y-33762500D02*
X45311252Y-29752500D01*
%TO.C,D21*%
X176656252Y-52835000D02*
X176656252Y-48825000D01*
X178656252Y-52835000D02*
X176656252Y-52835000D01*
X178656252Y-52835000D02*
X178656252Y-48825000D01*
%TO.C,MX2*%
X56459422Y-24165650D02*
X53416529Y-24165650D01*
X53416529Y-24165650D02*
G75*
G03*
X52416529Y-25165650I6J-1000006D01*
G01*
%TO.C,MX50*%
X227909566Y-81315698D02*
X224866673Y-81315698D01*
X224866673Y-81315698D02*
G75*
G03*
X223866673Y-82315698I6J-1000006D01*
G01*
%TO.C,D38*%
X252856252Y-71910000D02*
X252856252Y-67900000D01*
X254856252Y-71910000D02*
X252856252Y-71910000D01*
X254856252Y-71910000D02*
X254856252Y-67900000D01*
%TO.C,MX20*%
X151709502Y-43215666D02*
X148666609Y-43215666D01*
X148666609Y-43215666D02*
G75*
G03*
X147666609Y-44215666I6J-1000006D01*
G01*
%TO.C,MX26*%
X270772102Y-43215666D02*
X267729209Y-43215666D01*
X267729209Y-43215666D02*
G75*
G03*
X266729209Y-44215666I6J-1000006D01*
G01*
%TO.C,D15*%
X62356252Y-52835000D02*
X62356252Y-48825000D01*
X64356252Y-52835000D02*
X62356252Y-52835000D01*
X64356252Y-52835000D02*
X64356252Y-48825000D01*
%TO.C,MX1*%
X37409406Y-24165650D02*
X34366513Y-24165650D01*
X34366513Y-24165650D02*
G75*
G03*
X33366513Y-25165650I6J-1000006D01*
G01*
%TO.C,J2*%
X260495000Y-36866000D02*
X260495000Y-34834000D01*
X260495000Y-34834000D02*
X260241000Y-34580000D01*
X260495000Y-34326000D02*
X260495000Y-32294000D01*
X260495000Y-32294000D02*
X260241000Y-32040000D01*
X260495000Y-31786000D02*
X260495000Y-29754000D01*
X260495000Y-29754000D02*
X260241000Y-29500000D01*
X260495000Y-29246000D02*
X260495000Y-27214000D01*
X260495000Y-27214000D02*
X260241000Y-26960000D01*
X260495000Y-26706000D02*
X260495000Y-24674000D01*
X260495000Y-24674000D02*
X260241000Y-24420000D01*
X260495000Y-24166000D02*
X260495000Y-22134000D01*
X260495000Y-22134000D02*
X260241000Y-21880000D01*
X260241000Y-37120000D02*
X260495000Y-36866000D01*
X260241000Y-34580000D02*
X260495000Y-34326000D01*
X260241000Y-32040000D02*
X260495000Y-31786000D01*
X260241000Y-32040000D02*
X260495000Y-31786000D01*
X260241000Y-29500000D02*
X260495000Y-29246000D01*
X260241000Y-26960000D02*
X260495000Y-26706000D01*
X260241000Y-24420000D02*
X260495000Y-24166000D01*
X258209000Y-37120000D02*
X260241000Y-37120000D01*
X258209000Y-34580000D02*
X257955000Y-34834000D01*
X258209000Y-32040000D02*
X257955000Y-32294000D01*
X258209000Y-32040000D02*
X257955000Y-32294000D01*
X258209000Y-29500000D02*
X257955000Y-29754000D01*
X258209000Y-26960000D02*
X257955000Y-27214000D01*
X258209000Y-24420000D02*
X260241000Y-24420000D01*
X258209000Y-24420000D02*
X257955000Y-24674000D01*
X258209000Y-21880000D02*
X260241000Y-21880000D01*
X257955000Y-36866000D02*
X258209000Y-37120000D01*
X257955000Y-34834000D02*
X257955000Y-36866000D01*
X257955000Y-34326000D02*
X258209000Y-34580000D01*
X257955000Y-32294000D02*
X257955000Y-34326000D01*
X257955000Y-31786000D02*
X258209000Y-32040000D01*
X257955000Y-29754000D02*
X257955000Y-31786000D01*
X257955000Y-29246000D02*
X258209000Y-29500000D01*
X257955000Y-27214000D02*
X257955000Y-29246000D01*
X257955000Y-26706000D02*
X258209000Y-26960000D01*
X257955000Y-24674000D02*
X257955000Y-26706000D01*
X257955000Y-24166000D02*
X258209000Y-24420000D01*
X257955000Y-23912000D02*
X257955000Y-24166000D01*
X257955000Y-22134000D02*
X258209000Y-21880000D01*
X257955000Y-22134000D02*
X257955000Y-23912000D01*
D10*
%TO.C,SW1*%
X269050000Y-36225000D02*
X269050000Y-38425000D01*
X269050000Y-39925000D02*
X274250000Y-39925000D01*
X274250000Y-34725000D02*
X269050000Y-34725000D01*
X274250000Y-38425000D02*
X274250000Y-36225000D01*
X272650000Y-37325000D02*
G75*
G03*
X272650000Y-37325000I-1000000J0D01*
G01*
D11*
%TO.C,D23*%
X214756252Y-52835000D02*
X214756252Y-48825000D01*
X216756252Y-52835000D02*
X214756252Y-52835000D01*
X216756252Y-52835000D02*
X216756252Y-48825000D01*
%TO.C,D25*%
X238056252Y-52835000D02*
X238056252Y-48825000D01*
X240056252Y-52835000D02*
X238056252Y-52835000D01*
X240056252Y-52835000D02*
X240056252Y-48825000D01*
%TO.C,D42*%
X81406252Y-90910000D02*
X81406252Y-86900000D01*
X83406252Y-90910000D02*
X81406252Y-90910000D01*
X83406252Y-90910000D02*
X83406252Y-86900000D01*
%TO.C,D26*%
X276668748Y-51335000D02*
X276668748Y-47325000D01*
X278668748Y-51335000D02*
X276668748Y-51335000D01*
X278668748Y-51335000D02*
X278668748Y-47325000D01*
%TO.C,MX38*%
X246959582Y-62265682D02*
X243916689Y-62265682D01*
X243916689Y-62265682D02*
G75*
G03*
X242916689Y-63265682I6J-1000006D01*
G01*
%TO.C,D10*%
X214756252Y-33785000D02*
X214756252Y-29775000D01*
X216756252Y-33785000D02*
X214756252Y-33785000D01*
X216756252Y-33785000D02*
X216756252Y-29775000D01*
%TO.C,MX5*%
X113609470Y-24165650D02*
X110566577Y-24165650D01*
X110566577Y-24165650D02*
G75*
G03*
X109566577Y-25165650I6J-1000006D01*
G01*
%TO.C,D44*%
X119506252Y-90910000D02*
X119506252Y-86900000D01*
X121506252Y-90910000D02*
X119506252Y-90910000D01*
X121506252Y-90910000D02*
X121506252Y-86900000D01*
%TO.C,D17*%
X100456252Y-52835000D02*
X100456252Y-48825000D01*
X102456252Y-52835000D02*
X100456252Y-52835000D01*
X102456252Y-52835000D02*
X102456252Y-48825000D01*
%TO.C,MX46*%
X151709502Y-81315698D02*
X148666609Y-81315698D01*
X148666609Y-81315698D02*
G75*
G03*
X147666609Y-82315698I6J-1000006D01*
G01*
%TO.C,MX14*%
X37409406Y-43215666D02*
X34366513Y-43215666D01*
X34366513Y-43215666D02*
G75*
G03*
X33366513Y-44215666I6J-1000006D01*
G01*
%TD*%
M02*
