M48
; DRILL file {KiCad 7.0.1-0} date 2023 July 08, Saturday 10:52:28
; FORMAT={-:-/ absolute / inch / decimal}
; #@! TF.CreationDate,2023-07-08T10:52:28-05:00
; #@! TF.GenerationSoftware,Kicad,Pcbnew,7.0.1-0
; #@! TF.FileFunction,NonPlated,1,2,NPTH
FMAT,2
INCH
; #@! TA.AperFunction,NonPlated,NPTH,ComponentDrill
T1C0.0689
; #@! TA.AperFunction,NonPlated,NPTH,ComponentDrill
T2C0.1570
%
G90
G05
T1
X1.2531Y-1.1719
X1.2531Y-1.9219
X1.2531Y-2.6719
X1.2531Y-3.4219
X1.6531Y-1.1719
X1.6531Y-1.9219
X1.6531Y-2.6719
X1.6531Y-3.4219
X2.0031Y-1.1719
X2.0031Y-1.9219
X2.0031Y-2.6719
X2.0031Y-3.4219
X2.4031Y-1.1719
X2.4031Y-1.9219
X2.4031Y-2.6719
X2.4031Y-3.4219
X2.7531Y-1.1719
X2.7531Y-1.9219
X2.7531Y-2.6719
X2.7531Y-3.4219
X3.1531Y-1.1719
X3.1531Y-1.9219
X3.1531Y-2.6719
X3.1531Y-3.4219
X3.5031Y-1.1719
X3.5031Y-1.9219
X3.5031Y-2.6719
X3.5031Y-3.4219
X3.9031Y-1.1719
X3.9031Y-1.9219
X3.9031Y-2.6719
X3.9031Y-3.4219
X4.2531Y-1.1719
X4.2531Y-1.9219
X4.2531Y-2.6719
X4.2531Y-3.4219
X4.6531Y-1.1719
X4.6531Y-1.9219
X4.6531Y-2.6719
X4.6531Y-3.4219
X5.0031Y-1.1719
X5.0031Y-1.9219
X5.0031Y-2.6719
X5.0031Y-3.4219
X5.4031Y-1.1719
X5.4031Y-1.9219
X5.4031Y-2.6719
X5.4031Y-3.4219
X5.7531Y-1.1719
X5.7531Y-1.9219
X5.7531Y-2.6719
X5.7531Y-3.4219
X6.1531Y-1.1719
X6.1531Y-1.9219
X6.1531Y-2.6719
X6.1531Y-3.4219
X6.5031Y-1.1719
X6.5031Y-1.9219
X6.5031Y-2.6719
X6.5031Y-3.4219
X6.9031Y-1.1719
X6.9031Y-1.9219
X6.9031Y-2.6719
X6.9031Y-3.4219
X7.2531Y-1.1719
X7.2531Y-1.9219
X7.2531Y-2.6719
X7.2531Y-3.4219
X7.6531Y-1.1719
X7.6531Y-1.9219
X7.6531Y-2.6719
X7.6531Y-3.4219
X8.0031Y-1.1719
X8.0031Y-1.9219
X8.0031Y-2.6719
X8.0031Y-3.4219
X8.4031Y-1.1719
X8.4031Y-1.9219
X8.4031Y-2.6719
X8.4031Y-3.4219
X8.7531Y-1.1719
X8.7531Y-1.9219
X8.7531Y-2.6719
X8.7531Y-3.4219
X9.1531Y-1.1719
X9.1531Y-1.9219
X9.1531Y-2.6719
X9.1531Y-3.4219
X9.5031Y-1.1719
X9.5031Y-1.9219
X9.5031Y-2.6719
X9.5031Y-3.4219
X9.9031Y-1.1719
X9.9031Y-1.9219
X9.9031Y-2.6719
X9.9031Y-3.4219
X10.4406Y-1.1719
X10.4406Y-1.9219
X10.4406Y-2.6719
X10.4406Y-3.4219
X10.8406Y-1.1719
X10.8406Y-1.9219
X10.8406Y-2.6719
X10.8406Y-3.4219
T2
X1.4531Y-1.1719
X1.4531Y-1.9219
X1.4531Y-2.6719
X1.4531Y-3.4219
X2.2031Y-1.1719
X2.2031Y-1.9219
X2.2031Y-2.6719
X2.2031Y-3.4219
X2.9531Y-1.1719
X2.9531Y-1.9219
X2.9531Y-2.6719
X2.9531Y-3.4219
X3.7031Y-1.1719
X3.7031Y-1.9219
X3.7031Y-2.6719
X3.7031Y-3.4219
X4.4531Y-1.1719
X4.4531Y-1.9219
X4.4531Y-2.6719
X4.4531Y-3.4219
X5.2031Y-1.1719
X5.2031Y-1.9219
X5.2031Y-2.6719
X5.2031Y-3.4219
X5.9531Y-1.1719
X5.9531Y-1.9219
X5.9531Y-2.6719
X5.9531Y-3.4219
X6.7031Y-1.1719
X6.7031Y-1.9219
X6.7031Y-2.6719
X6.7031Y-3.4219
X7.4531Y-1.1719
X7.4531Y-1.9219
X7.4531Y-2.6719
X7.4531Y-3.4219
X8.2031Y-1.1719
X8.2031Y-1.9219
X8.2031Y-2.6719
X8.2031Y-3.4219
X8.9531Y-1.1719
X8.9531Y-1.9219
X8.9531Y-2.6719
X8.9531Y-3.4219
X9.7031Y-1.1719
X9.7031Y-1.9219
X9.7031Y-2.6719
X9.7031Y-3.4219
X10.6406Y-1.1719
X10.6406Y-1.9219
X10.6406Y-2.6719
X10.6406Y-3.4219
T0
M30
