%TF.GenerationSoftware,KiCad,Pcbnew,7.0.1-0*%
%TF.CreationDate,2023-04-28T12:46:07-05:00*%
%TF.ProjectId,pcb,7063622e-6b69-4636-9164-5f7063625858,rev?*%
%TF.SameCoordinates,Original*%
%TF.FileFunction,Legend,Bot*%
%TF.FilePolarity,Positive*%
%FSLAX46Y46*%
G04 Gerber Fmt 4.6, Leading zero omitted, Abs format (unit mm)*
G04 Created by KiCad (PCBNEW 7.0.1-0) date 2023-04-28 12:46:07*
%MOMM*%
%LPD*%
G01*
G04 APERTURE LIST*
%ADD10C,0.150000*%
%ADD11C,0.120000*%
G04 APERTURE END LIST*
D10*
X249739289Y-94837619D02*
X249739289Y-94313809D01*
X249739289Y-94313809D02*
X249786908Y-94218571D01*
X249786908Y-94218571D02*
X249882146Y-94170952D01*
X249882146Y-94170952D02*
X250072622Y-94170952D01*
X250072622Y-94170952D02*
X250167860Y-94218571D01*
X249739289Y-94790000D02*
X249834527Y-94837619D01*
X249834527Y-94837619D02*
X250072622Y-94837619D01*
X250072622Y-94837619D02*
X250167860Y-94790000D01*
X250167860Y-94790000D02*
X250215479Y-94694761D01*
X250215479Y-94694761D02*
X250215479Y-94599523D01*
X250215479Y-94599523D02*
X250167860Y-94504285D01*
X250167860Y-94504285D02*
X250072622Y-94456666D01*
X250072622Y-94456666D02*
X249834527Y-94456666D01*
X249834527Y-94456666D02*
X249739289Y-94409047D01*
X249263098Y-94170952D02*
X249263098Y-94837619D01*
X249263098Y-94266190D02*
X249215479Y-94218571D01*
X249215479Y-94218571D02*
X249120241Y-94170952D01*
X249120241Y-94170952D02*
X248977384Y-94170952D01*
X248977384Y-94170952D02*
X248882146Y-94218571D01*
X248882146Y-94218571D02*
X248834527Y-94313809D01*
X248834527Y-94313809D02*
X248834527Y-94837619D01*
X248453574Y-94170952D02*
X248215479Y-94837619D01*
X247977384Y-94170952D02*
X248215479Y-94837619D01*
X248215479Y-94837619D02*
X248310717Y-95075714D01*
X248310717Y-95075714D02*
X248358336Y-95123333D01*
X248358336Y-95123333D02*
X248453574Y-95170952D01*
X247739288Y-94170952D02*
X247358336Y-94170952D01*
X247596431Y-93837619D02*
X247596431Y-94694761D01*
X247596431Y-94694761D02*
X247548812Y-94790000D01*
X247548812Y-94790000D02*
X247453574Y-94837619D01*
X247453574Y-94837619D02*
X247358336Y-94837619D01*
X247025002Y-94837619D02*
X247025002Y-93837619D01*
X246596431Y-94837619D02*
X246596431Y-94313809D01*
X246596431Y-94313809D02*
X246644050Y-94218571D01*
X246644050Y-94218571D02*
X246739288Y-94170952D01*
X246739288Y-94170952D02*
X246882145Y-94170952D01*
X246882145Y-94170952D02*
X246977383Y-94218571D01*
X246977383Y-94218571D02*
X247025002Y-94266190D01*
X246120240Y-94837619D02*
X246120240Y-94170952D01*
X246120240Y-93837619D02*
X246167859Y-93885238D01*
X246167859Y-93885238D02*
X246120240Y-93932857D01*
X246120240Y-93932857D02*
X246072621Y-93885238D01*
X246072621Y-93885238D02*
X246120240Y-93837619D01*
X246120240Y-93837619D02*
X246120240Y-93932857D01*
X245644050Y-94170952D02*
X245644050Y-94837619D01*
X245644050Y-94266190D02*
X245596431Y-94218571D01*
X245596431Y-94218571D02*
X245501193Y-94170952D01*
X245501193Y-94170952D02*
X245358336Y-94170952D01*
X245358336Y-94170952D02*
X245263098Y-94218571D01*
X245263098Y-94218571D02*
X245215479Y-94313809D01*
X245215479Y-94313809D02*
X245215479Y-94837619D01*
X244310717Y-94170952D02*
X244310717Y-94980476D01*
X244310717Y-94980476D02*
X244358336Y-95075714D01*
X244358336Y-95075714D02*
X244405955Y-95123333D01*
X244405955Y-95123333D02*
X244501193Y-95170952D01*
X244501193Y-95170952D02*
X244644050Y-95170952D01*
X244644050Y-95170952D02*
X244739288Y-95123333D01*
X244310717Y-94790000D02*
X244405955Y-94837619D01*
X244405955Y-94837619D02*
X244596431Y-94837619D01*
X244596431Y-94837619D02*
X244691669Y-94790000D01*
X244691669Y-94790000D02*
X244739288Y-94742380D01*
X244739288Y-94742380D02*
X244786907Y-94647142D01*
X244786907Y-94647142D02*
X244786907Y-94361428D01*
X244786907Y-94361428D02*
X244739288Y-94266190D01*
X244739288Y-94266190D02*
X244691669Y-94218571D01*
X244691669Y-94218571D02*
X244596431Y-94170952D01*
X244596431Y-94170952D02*
X244405955Y-94170952D01*
X244405955Y-94170952D02*
X244310717Y-94218571D01*
X243072621Y-94837619D02*
X243072621Y-94170952D01*
X243072621Y-93837619D02*
X243120240Y-93885238D01*
X243120240Y-93885238D02*
X243072621Y-93932857D01*
X243072621Y-93932857D02*
X243025002Y-93885238D01*
X243025002Y-93885238D02*
X243072621Y-93837619D01*
X243072621Y-93837619D02*
X243072621Y-93932857D01*
X242644050Y-94790000D02*
X242548812Y-94837619D01*
X242548812Y-94837619D02*
X242358336Y-94837619D01*
X242358336Y-94837619D02*
X242263098Y-94790000D01*
X242263098Y-94790000D02*
X242215479Y-94694761D01*
X242215479Y-94694761D02*
X242215479Y-94647142D01*
X242215479Y-94647142D02*
X242263098Y-94551904D01*
X242263098Y-94551904D02*
X242358336Y-94504285D01*
X242358336Y-94504285D02*
X242501193Y-94504285D01*
X242501193Y-94504285D02*
X242596431Y-94456666D01*
X242596431Y-94456666D02*
X242644050Y-94361428D01*
X242644050Y-94361428D02*
X242644050Y-94313809D01*
X242644050Y-94313809D02*
X242596431Y-94218571D01*
X242596431Y-94218571D02*
X242501193Y-94170952D01*
X242501193Y-94170952D02*
X242358336Y-94170952D01*
X242358336Y-94170952D02*
X242263098Y-94218571D01*
X241025002Y-94170952D02*
X241025002Y-95170952D01*
X241025002Y-94218571D02*
X240929764Y-94170952D01*
X240929764Y-94170952D02*
X240739288Y-94170952D01*
X240739288Y-94170952D02*
X240644050Y-94218571D01*
X240644050Y-94218571D02*
X240596431Y-94266190D01*
X240596431Y-94266190D02*
X240548812Y-94361428D01*
X240548812Y-94361428D02*
X240548812Y-94647142D01*
X240548812Y-94647142D02*
X240596431Y-94742380D01*
X240596431Y-94742380D02*
X240644050Y-94790000D01*
X240644050Y-94790000D02*
X240739288Y-94837619D01*
X240739288Y-94837619D02*
X240929764Y-94837619D01*
X240929764Y-94837619D02*
X241025002Y-94790000D01*
X239977383Y-94837619D02*
X240072621Y-94790000D01*
X240072621Y-94790000D02*
X240120240Y-94742380D01*
X240120240Y-94742380D02*
X240167859Y-94647142D01*
X240167859Y-94647142D02*
X240167859Y-94361428D01*
X240167859Y-94361428D02*
X240120240Y-94266190D01*
X240120240Y-94266190D02*
X240072621Y-94218571D01*
X240072621Y-94218571D02*
X239977383Y-94170952D01*
X239977383Y-94170952D02*
X239834526Y-94170952D01*
X239834526Y-94170952D02*
X239739288Y-94218571D01*
X239739288Y-94218571D02*
X239691669Y-94266190D01*
X239691669Y-94266190D02*
X239644050Y-94361428D01*
X239644050Y-94361428D02*
X239644050Y-94647142D01*
X239644050Y-94647142D02*
X239691669Y-94742380D01*
X239691669Y-94742380D02*
X239739288Y-94790000D01*
X239739288Y-94790000D02*
X239834526Y-94837619D01*
X239834526Y-94837619D02*
X239977383Y-94837619D01*
X239263097Y-94790000D02*
X239167859Y-94837619D01*
X239167859Y-94837619D02*
X238977383Y-94837619D01*
X238977383Y-94837619D02*
X238882145Y-94790000D01*
X238882145Y-94790000D02*
X238834526Y-94694761D01*
X238834526Y-94694761D02*
X238834526Y-94647142D01*
X238834526Y-94647142D02*
X238882145Y-94551904D01*
X238882145Y-94551904D02*
X238977383Y-94504285D01*
X238977383Y-94504285D02*
X239120240Y-94504285D01*
X239120240Y-94504285D02*
X239215478Y-94456666D01*
X239215478Y-94456666D02*
X239263097Y-94361428D01*
X239263097Y-94361428D02*
X239263097Y-94313809D01*
X239263097Y-94313809D02*
X239215478Y-94218571D01*
X239215478Y-94218571D02*
X239120240Y-94170952D01*
X239120240Y-94170952D02*
X238977383Y-94170952D01*
X238977383Y-94170952D02*
X238882145Y-94218571D01*
X238453573Y-94790000D02*
X238358335Y-94837619D01*
X238358335Y-94837619D02*
X238167859Y-94837619D01*
X238167859Y-94837619D02*
X238072621Y-94790000D01*
X238072621Y-94790000D02*
X238025002Y-94694761D01*
X238025002Y-94694761D02*
X238025002Y-94647142D01*
X238025002Y-94647142D02*
X238072621Y-94551904D01*
X238072621Y-94551904D02*
X238167859Y-94504285D01*
X238167859Y-94504285D02*
X238310716Y-94504285D01*
X238310716Y-94504285D02*
X238405954Y-94456666D01*
X238405954Y-94456666D02*
X238453573Y-94361428D01*
X238453573Y-94361428D02*
X238453573Y-94313809D01*
X238453573Y-94313809D02*
X238405954Y-94218571D01*
X238405954Y-94218571D02*
X238310716Y-94170952D01*
X238310716Y-94170952D02*
X238167859Y-94170952D01*
X238167859Y-94170952D02*
X238072621Y-94218571D01*
X237596430Y-94837619D02*
X237596430Y-94170952D01*
X237596430Y-93837619D02*
X237644049Y-93885238D01*
X237644049Y-93885238D02*
X237596430Y-93932857D01*
X237596430Y-93932857D02*
X237548811Y-93885238D01*
X237548811Y-93885238D02*
X237596430Y-93837619D01*
X237596430Y-93837619D02*
X237596430Y-93932857D01*
X237120240Y-94837619D02*
X237120240Y-93837619D01*
X237120240Y-94218571D02*
X237025002Y-94170952D01*
X237025002Y-94170952D02*
X236834526Y-94170952D01*
X236834526Y-94170952D02*
X236739288Y-94218571D01*
X236739288Y-94218571D02*
X236691669Y-94266190D01*
X236691669Y-94266190D02*
X236644050Y-94361428D01*
X236644050Y-94361428D02*
X236644050Y-94647142D01*
X236644050Y-94647142D02*
X236691669Y-94742380D01*
X236691669Y-94742380D02*
X236739288Y-94790000D01*
X236739288Y-94790000D02*
X236834526Y-94837619D01*
X236834526Y-94837619D02*
X237025002Y-94837619D01*
X237025002Y-94837619D02*
X237120240Y-94790000D01*
X236072621Y-94837619D02*
X236167859Y-94790000D01*
X236167859Y-94790000D02*
X236215478Y-94694761D01*
X236215478Y-94694761D02*
X236215478Y-93837619D01*
X235310716Y-94790000D02*
X235405954Y-94837619D01*
X235405954Y-94837619D02*
X235596430Y-94837619D01*
X235596430Y-94837619D02*
X235691668Y-94790000D01*
X235691668Y-94790000D02*
X235739287Y-94694761D01*
X235739287Y-94694761D02*
X235739287Y-94313809D01*
X235739287Y-94313809D02*
X235691668Y-94218571D01*
X235691668Y-94218571D02*
X235596430Y-94170952D01*
X235596430Y-94170952D02*
X235405954Y-94170952D01*
X235405954Y-94170952D02*
X235310716Y-94218571D01*
X235310716Y-94218571D02*
X235263097Y-94313809D01*
X235263097Y-94313809D02*
X235263097Y-94409047D01*
X235263097Y-94409047D02*
X235739287Y-94504285D01*
X234167858Y-94170952D02*
X233977382Y-94837619D01*
X233977382Y-94837619D02*
X233786906Y-94361428D01*
X233786906Y-94361428D02*
X233596430Y-94837619D01*
X233596430Y-94837619D02*
X233405954Y-94170952D01*
X233025001Y-94837619D02*
X233025001Y-94170952D01*
X233025001Y-93837619D02*
X233072620Y-93885238D01*
X233072620Y-93885238D02*
X233025001Y-93932857D01*
X233025001Y-93932857D02*
X232977382Y-93885238D01*
X232977382Y-93885238D02*
X233025001Y-93837619D01*
X233025001Y-93837619D02*
X233025001Y-93932857D01*
X232691668Y-94170952D02*
X232310716Y-94170952D01*
X232548811Y-93837619D02*
X232548811Y-94694761D01*
X232548811Y-94694761D02*
X232501192Y-94790000D01*
X232501192Y-94790000D02*
X232405954Y-94837619D01*
X232405954Y-94837619D02*
X232310716Y-94837619D01*
X231977382Y-94837619D02*
X231977382Y-93837619D01*
X231548811Y-94837619D02*
X231548811Y-94313809D01*
X231548811Y-94313809D02*
X231596430Y-94218571D01*
X231596430Y-94218571D02*
X231691668Y-94170952D01*
X231691668Y-94170952D02*
X231834525Y-94170952D01*
X231834525Y-94170952D02*
X231929763Y-94218571D01*
X231929763Y-94218571D02*
X231977382Y-94266190D01*
X229882144Y-94837619D02*
X229882144Y-94313809D01*
X229882144Y-94313809D02*
X229929763Y-94218571D01*
X229929763Y-94218571D02*
X230025001Y-94170952D01*
X230025001Y-94170952D02*
X230215477Y-94170952D01*
X230215477Y-94170952D02*
X230310715Y-94218571D01*
X229882144Y-94790000D02*
X229977382Y-94837619D01*
X229977382Y-94837619D02*
X230215477Y-94837619D01*
X230215477Y-94837619D02*
X230310715Y-94790000D01*
X230310715Y-94790000D02*
X230358334Y-94694761D01*
X230358334Y-94694761D02*
X230358334Y-94599523D01*
X230358334Y-94599523D02*
X230310715Y-94504285D01*
X230310715Y-94504285D02*
X230215477Y-94456666D01*
X230215477Y-94456666D02*
X229977382Y-94456666D01*
X229977382Y-94456666D02*
X229882144Y-94409047D01*
X228215477Y-94837619D02*
X228215477Y-93837619D01*
X228215477Y-94790000D02*
X228310715Y-94837619D01*
X228310715Y-94837619D02*
X228501191Y-94837619D01*
X228501191Y-94837619D02*
X228596429Y-94790000D01*
X228596429Y-94790000D02*
X228644048Y-94742380D01*
X228644048Y-94742380D02*
X228691667Y-94647142D01*
X228691667Y-94647142D02*
X228691667Y-94361428D01*
X228691667Y-94361428D02*
X228644048Y-94266190D01*
X228644048Y-94266190D02*
X228596429Y-94218571D01*
X228596429Y-94218571D02*
X228501191Y-94170952D01*
X228501191Y-94170952D02*
X228310715Y-94170952D01*
X228310715Y-94170952D02*
X228215477Y-94218571D01*
X227739286Y-94837619D02*
X227739286Y-94170952D01*
X227739286Y-94361428D02*
X227691667Y-94266190D01*
X227691667Y-94266190D02*
X227644048Y-94218571D01*
X227644048Y-94218571D02*
X227548810Y-94170952D01*
X227548810Y-94170952D02*
X227453572Y-94170952D01*
X226739286Y-94790000D02*
X226834524Y-94837619D01*
X226834524Y-94837619D02*
X227025000Y-94837619D01*
X227025000Y-94837619D02*
X227120238Y-94790000D01*
X227120238Y-94790000D02*
X227167857Y-94694761D01*
X227167857Y-94694761D02*
X227167857Y-94313809D01*
X227167857Y-94313809D02*
X227120238Y-94218571D01*
X227120238Y-94218571D02*
X227025000Y-94170952D01*
X227025000Y-94170952D02*
X226834524Y-94170952D01*
X226834524Y-94170952D02*
X226739286Y-94218571D01*
X226739286Y-94218571D02*
X226691667Y-94313809D01*
X226691667Y-94313809D02*
X226691667Y-94409047D01*
X226691667Y-94409047D02*
X227167857Y-94504285D01*
X226263095Y-94837619D02*
X226263095Y-94170952D01*
X226263095Y-94266190D02*
X226215476Y-94218571D01*
X226215476Y-94218571D02*
X226120238Y-94170952D01*
X226120238Y-94170952D02*
X225977381Y-94170952D01*
X225977381Y-94170952D02*
X225882143Y-94218571D01*
X225882143Y-94218571D02*
X225834524Y-94313809D01*
X225834524Y-94313809D02*
X225834524Y-94837619D01*
X225834524Y-94313809D02*
X225786905Y-94218571D01*
X225786905Y-94218571D02*
X225691667Y-94170952D01*
X225691667Y-94170952D02*
X225548810Y-94170952D01*
X225548810Y-94170952D02*
X225453571Y-94218571D01*
X225453571Y-94218571D02*
X225405952Y-94313809D01*
X225405952Y-94313809D02*
X225405952Y-94837619D01*
X224548810Y-94790000D02*
X224644048Y-94837619D01*
X224644048Y-94837619D02*
X224834524Y-94837619D01*
X224834524Y-94837619D02*
X224929762Y-94790000D01*
X224929762Y-94790000D02*
X224977381Y-94694761D01*
X224977381Y-94694761D02*
X224977381Y-94313809D01*
X224977381Y-94313809D02*
X224929762Y-94218571D01*
X224929762Y-94218571D02*
X224834524Y-94170952D01*
X224834524Y-94170952D02*
X224644048Y-94170952D01*
X224644048Y-94170952D02*
X224548810Y-94218571D01*
X224548810Y-94218571D02*
X224501191Y-94313809D01*
X224501191Y-94313809D02*
X224501191Y-94409047D01*
X224501191Y-94409047D02*
X224977381Y-94504285D01*
X223929762Y-94837619D02*
X224025000Y-94790000D01*
X224025000Y-94790000D02*
X224072619Y-94694761D01*
X224072619Y-94694761D02*
X224072619Y-93837619D01*
X222358333Y-94837619D02*
X222358333Y-94313809D01*
X222358333Y-94313809D02*
X222405952Y-94218571D01*
X222405952Y-94218571D02*
X222501190Y-94170952D01*
X222501190Y-94170952D02*
X222691666Y-94170952D01*
X222691666Y-94170952D02*
X222786904Y-94218571D01*
X222358333Y-94790000D02*
X222453571Y-94837619D01*
X222453571Y-94837619D02*
X222691666Y-94837619D01*
X222691666Y-94837619D02*
X222786904Y-94790000D01*
X222786904Y-94790000D02*
X222834523Y-94694761D01*
X222834523Y-94694761D02*
X222834523Y-94599523D01*
X222834523Y-94599523D02*
X222786904Y-94504285D01*
X222786904Y-94504285D02*
X222691666Y-94456666D01*
X222691666Y-94456666D02*
X222453571Y-94456666D01*
X222453571Y-94456666D02*
X222358333Y-94409047D01*
X221882142Y-94170952D02*
X221882142Y-94837619D01*
X221882142Y-94266190D02*
X221834523Y-94218571D01*
X221834523Y-94218571D02*
X221739285Y-94170952D01*
X221739285Y-94170952D02*
X221596428Y-94170952D01*
X221596428Y-94170952D02*
X221501190Y-94218571D01*
X221501190Y-94218571D02*
X221453571Y-94313809D01*
X221453571Y-94313809D02*
X221453571Y-94837619D01*
X220548809Y-94837619D02*
X220548809Y-93837619D01*
X220548809Y-94790000D02*
X220644047Y-94837619D01*
X220644047Y-94837619D02*
X220834523Y-94837619D01*
X220834523Y-94837619D02*
X220929761Y-94790000D01*
X220929761Y-94790000D02*
X220977380Y-94742380D01*
X220977380Y-94742380D02*
X221024999Y-94647142D01*
X221024999Y-94647142D02*
X221024999Y-94361428D01*
X221024999Y-94361428D02*
X220977380Y-94266190D01*
X220977380Y-94266190D02*
X220929761Y-94218571D01*
X220929761Y-94218571D02*
X220834523Y-94170952D01*
X220834523Y-94170952D02*
X220644047Y-94170952D01*
X220644047Y-94170952D02*
X220548809Y-94218571D01*
X218882142Y-94837619D02*
X218882142Y-94313809D01*
X218882142Y-94313809D02*
X218929761Y-94218571D01*
X218929761Y-94218571D02*
X219024999Y-94170952D01*
X219024999Y-94170952D02*
X219215475Y-94170952D01*
X219215475Y-94170952D02*
X219310713Y-94218571D01*
X218882142Y-94790000D02*
X218977380Y-94837619D01*
X218977380Y-94837619D02*
X219215475Y-94837619D01*
X219215475Y-94837619D02*
X219310713Y-94790000D01*
X219310713Y-94790000D02*
X219358332Y-94694761D01*
X219358332Y-94694761D02*
X219358332Y-94599523D01*
X219358332Y-94599523D02*
X219310713Y-94504285D01*
X219310713Y-94504285D02*
X219215475Y-94456666D01*
X219215475Y-94456666D02*
X218977380Y-94456666D01*
X218977380Y-94456666D02*
X218882142Y-94409047D01*
X217501189Y-94837619D02*
X217596427Y-94790000D01*
X217596427Y-94790000D02*
X217644046Y-94694761D01*
X217644046Y-94694761D02*
X217644046Y-93837619D01*
X217120236Y-94837619D02*
X217120236Y-94170952D01*
X217120236Y-93837619D02*
X217167855Y-93885238D01*
X217167855Y-93885238D02*
X217120236Y-93932857D01*
X217120236Y-93932857D02*
X217072617Y-93885238D01*
X217072617Y-93885238D02*
X217120236Y-93837619D01*
X217120236Y-93837619D02*
X217120236Y-93932857D01*
X216786903Y-94170952D02*
X216405951Y-94170952D01*
X216644046Y-93837619D02*
X216644046Y-94694761D01*
X216644046Y-94694761D02*
X216596427Y-94790000D01*
X216596427Y-94790000D02*
X216501189Y-94837619D01*
X216501189Y-94837619D02*
X216405951Y-94837619D01*
X216215474Y-94170952D02*
X215834522Y-94170952D01*
X216072617Y-93837619D02*
X216072617Y-94694761D01*
X216072617Y-94694761D02*
X216024998Y-94790000D01*
X216024998Y-94790000D02*
X215929760Y-94837619D01*
X215929760Y-94837619D02*
X215834522Y-94837619D01*
X215358331Y-94837619D02*
X215453569Y-94790000D01*
X215453569Y-94790000D02*
X215501188Y-94694761D01*
X215501188Y-94694761D02*
X215501188Y-93837619D01*
X214596426Y-94790000D02*
X214691664Y-94837619D01*
X214691664Y-94837619D02*
X214882140Y-94837619D01*
X214882140Y-94837619D02*
X214977378Y-94790000D01*
X214977378Y-94790000D02*
X215024997Y-94694761D01*
X215024997Y-94694761D02*
X215024997Y-94313809D01*
X215024997Y-94313809D02*
X214977378Y-94218571D01*
X214977378Y-94218571D02*
X214882140Y-94170952D01*
X214882140Y-94170952D02*
X214691664Y-94170952D01*
X214691664Y-94170952D02*
X214596426Y-94218571D01*
X214596426Y-94218571D02*
X214548807Y-94313809D01*
X214548807Y-94313809D02*
X214548807Y-94409047D01*
X214548807Y-94409047D02*
X215024997Y-94504285D01*
X212929759Y-94790000D02*
X213024997Y-94837619D01*
X213024997Y-94837619D02*
X213215473Y-94837619D01*
X213215473Y-94837619D02*
X213310711Y-94790000D01*
X213310711Y-94790000D02*
X213358330Y-94742380D01*
X213358330Y-94742380D02*
X213405949Y-94647142D01*
X213405949Y-94647142D02*
X213405949Y-94361428D01*
X213405949Y-94361428D02*
X213358330Y-94266190D01*
X213358330Y-94266190D02*
X213310711Y-94218571D01*
X213310711Y-94218571D02*
X213215473Y-94170952D01*
X213215473Y-94170952D02*
X213024997Y-94170952D01*
X213024997Y-94170952D02*
X212929759Y-94218571D01*
X212358330Y-94837619D02*
X212453568Y-94790000D01*
X212453568Y-94790000D02*
X212501187Y-94742380D01*
X212501187Y-94742380D02*
X212548806Y-94647142D01*
X212548806Y-94647142D02*
X212548806Y-94361428D01*
X212548806Y-94361428D02*
X212501187Y-94266190D01*
X212501187Y-94266190D02*
X212453568Y-94218571D01*
X212453568Y-94218571D02*
X212358330Y-94170952D01*
X212358330Y-94170952D02*
X212215473Y-94170952D01*
X212215473Y-94170952D02*
X212120235Y-94218571D01*
X212120235Y-94218571D02*
X212072616Y-94266190D01*
X212072616Y-94266190D02*
X212024997Y-94361428D01*
X212024997Y-94361428D02*
X212024997Y-94647142D01*
X212024997Y-94647142D02*
X212072616Y-94742380D01*
X212072616Y-94742380D02*
X212120235Y-94790000D01*
X212120235Y-94790000D02*
X212215473Y-94837619D01*
X212215473Y-94837619D02*
X212358330Y-94837619D01*
X211167854Y-94170952D02*
X211167854Y-94837619D01*
X211596425Y-94170952D02*
X211596425Y-94694761D01*
X211596425Y-94694761D02*
X211548806Y-94790000D01*
X211548806Y-94790000D02*
X211453568Y-94837619D01*
X211453568Y-94837619D02*
X211310711Y-94837619D01*
X211310711Y-94837619D02*
X211215473Y-94790000D01*
X211215473Y-94790000D02*
X211167854Y-94742380D01*
X210691663Y-94837619D02*
X210691663Y-94170952D01*
X210691663Y-94361428D02*
X210644044Y-94266190D01*
X210644044Y-94266190D02*
X210596425Y-94218571D01*
X210596425Y-94218571D02*
X210501187Y-94170952D01*
X210501187Y-94170952D02*
X210405949Y-94170952D01*
X209644044Y-94837619D02*
X209644044Y-94313809D01*
X209644044Y-94313809D02*
X209691663Y-94218571D01*
X209691663Y-94218571D02*
X209786901Y-94170952D01*
X209786901Y-94170952D02*
X209977377Y-94170952D01*
X209977377Y-94170952D02*
X210072615Y-94218571D01*
X209644044Y-94790000D02*
X209739282Y-94837619D01*
X209739282Y-94837619D02*
X209977377Y-94837619D01*
X209977377Y-94837619D02*
X210072615Y-94790000D01*
X210072615Y-94790000D02*
X210120234Y-94694761D01*
X210120234Y-94694761D02*
X210120234Y-94599523D01*
X210120234Y-94599523D02*
X210072615Y-94504285D01*
X210072615Y-94504285D02*
X209977377Y-94456666D01*
X209977377Y-94456666D02*
X209739282Y-94456666D01*
X209739282Y-94456666D02*
X209644044Y-94409047D01*
X208739282Y-94170952D02*
X208739282Y-94980476D01*
X208739282Y-94980476D02*
X208786901Y-95075714D01*
X208786901Y-95075714D02*
X208834520Y-95123333D01*
X208834520Y-95123333D02*
X208929758Y-95170952D01*
X208929758Y-95170952D02*
X209072615Y-95170952D01*
X209072615Y-95170952D02*
X209167853Y-95123333D01*
X208739282Y-94790000D02*
X208834520Y-94837619D01*
X208834520Y-94837619D02*
X209024996Y-94837619D01*
X209024996Y-94837619D02*
X209120234Y-94790000D01*
X209120234Y-94790000D02*
X209167853Y-94742380D01*
X209167853Y-94742380D02*
X209215472Y-94647142D01*
X209215472Y-94647142D02*
X209215472Y-94361428D01*
X209215472Y-94361428D02*
X209167853Y-94266190D01*
X209167853Y-94266190D02*
X209120234Y-94218571D01*
X209120234Y-94218571D02*
X209024996Y-94170952D01*
X209024996Y-94170952D02*
X208834520Y-94170952D01*
X208834520Y-94170952D02*
X208739282Y-94218571D01*
X207882139Y-94790000D02*
X207977377Y-94837619D01*
X207977377Y-94837619D02*
X208167853Y-94837619D01*
X208167853Y-94837619D02*
X208263091Y-94790000D01*
X208263091Y-94790000D02*
X208310710Y-94694761D01*
X208310710Y-94694761D02*
X208310710Y-94313809D01*
X208310710Y-94313809D02*
X208263091Y-94218571D01*
X208263091Y-94218571D02*
X208167853Y-94170952D01*
X208167853Y-94170952D02*
X207977377Y-94170952D01*
X207977377Y-94170952D02*
X207882139Y-94218571D01*
X207882139Y-94218571D02*
X207834520Y-94313809D01*
X207834520Y-94313809D02*
X207834520Y-94409047D01*
X207834520Y-94409047D02*
X208310710Y-94504285D01*
%TO.C,D7*%
X156963094Y-35189619D02*
X156963094Y-34189619D01*
X156963094Y-34189619D02*
X156724999Y-34189619D01*
X156724999Y-34189619D02*
X156582142Y-34237238D01*
X156582142Y-34237238D02*
X156486904Y-34332476D01*
X156486904Y-34332476D02*
X156439285Y-34427714D01*
X156439285Y-34427714D02*
X156391666Y-34618190D01*
X156391666Y-34618190D02*
X156391666Y-34761047D01*
X156391666Y-34761047D02*
X156439285Y-34951523D01*
X156439285Y-34951523D02*
X156486904Y-35046761D01*
X156486904Y-35046761D02*
X156582142Y-35142000D01*
X156582142Y-35142000D02*
X156724999Y-35189619D01*
X156724999Y-35189619D02*
X156963094Y-35189619D01*
X156058332Y-34189619D02*
X155391666Y-34189619D01*
X155391666Y-34189619D02*
X155820237Y-35189619D01*
%TO.C,C4*%
X267816666Y-51717380D02*
X267864285Y-51765000D01*
X267864285Y-51765000D02*
X268007142Y-51812619D01*
X268007142Y-51812619D02*
X268102380Y-51812619D01*
X268102380Y-51812619D02*
X268245237Y-51765000D01*
X268245237Y-51765000D02*
X268340475Y-51669761D01*
X268340475Y-51669761D02*
X268388094Y-51574523D01*
X268388094Y-51574523D02*
X268435713Y-51384047D01*
X268435713Y-51384047D02*
X268435713Y-51241190D01*
X268435713Y-51241190D02*
X268388094Y-51050714D01*
X268388094Y-51050714D02*
X268340475Y-50955476D01*
X268340475Y-50955476D02*
X268245237Y-50860238D01*
X268245237Y-50860238D02*
X268102380Y-50812619D01*
X268102380Y-50812619D02*
X268007142Y-50812619D01*
X268007142Y-50812619D02*
X267864285Y-50860238D01*
X267864285Y-50860238D02*
X267816666Y-50907857D01*
X266959523Y-51145952D02*
X266959523Y-51812619D01*
X267197618Y-50765000D02*
X267435713Y-51479285D01*
X267435713Y-51479285D02*
X266816666Y-51479285D01*
%TO.C,RSW1*%
X269664285Y-34837619D02*
X269997618Y-34361428D01*
X270235713Y-34837619D02*
X270235713Y-33837619D01*
X270235713Y-33837619D02*
X269854761Y-33837619D01*
X269854761Y-33837619D02*
X269759523Y-33885238D01*
X269759523Y-33885238D02*
X269711904Y-33932857D01*
X269711904Y-33932857D02*
X269664285Y-34028095D01*
X269664285Y-34028095D02*
X269664285Y-34170952D01*
X269664285Y-34170952D02*
X269711904Y-34266190D01*
X269711904Y-34266190D02*
X269759523Y-34313809D01*
X269759523Y-34313809D02*
X269854761Y-34361428D01*
X269854761Y-34361428D02*
X270235713Y-34361428D01*
X269283332Y-34790000D02*
X269140475Y-34837619D01*
X269140475Y-34837619D02*
X268902380Y-34837619D01*
X268902380Y-34837619D02*
X268807142Y-34790000D01*
X268807142Y-34790000D02*
X268759523Y-34742380D01*
X268759523Y-34742380D02*
X268711904Y-34647142D01*
X268711904Y-34647142D02*
X268711904Y-34551904D01*
X268711904Y-34551904D02*
X268759523Y-34456666D01*
X268759523Y-34456666D02*
X268807142Y-34409047D01*
X268807142Y-34409047D02*
X268902380Y-34361428D01*
X268902380Y-34361428D02*
X269092856Y-34313809D01*
X269092856Y-34313809D02*
X269188094Y-34266190D01*
X269188094Y-34266190D02*
X269235713Y-34218571D01*
X269235713Y-34218571D02*
X269283332Y-34123333D01*
X269283332Y-34123333D02*
X269283332Y-34028095D01*
X269283332Y-34028095D02*
X269235713Y-33932857D01*
X269235713Y-33932857D02*
X269188094Y-33885238D01*
X269188094Y-33885238D02*
X269092856Y-33837619D01*
X269092856Y-33837619D02*
X268854761Y-33837619D01*
X268854761Y-33837619D02*
X268711904Y-33885238D01*
X268378570Y-33837619D02*
X268140475Y-34837619D01*
X268140475Y-34837619D02*
X267949999Y-34123333D01*
X267949999Y-34123333D02*
X267759523Y-34837619D01*
X267759523Y-34837619D02*
X267521428Y-33837619D01*
X266616666Y-34837619D02*
X267188094Y-34837619D01*
X266902380Y-34837619D02*
X266902380Y-33837619D01*
X266902380Y-33837619D02*
X266997618Y-33980476D01*
X266997618Y-33980476D02*
X267092856Y-34075714D01*
X267092856Y-34075714D02*
X267188094Y-34123333D01*
%TO.C,D8*%
X176013094Y-35189619D02*
X176013094Y-34189619D01*
X176013094Y-34189619D02*
X175774999Y-34189619D01*
X175774999Y-34189619D02*
X175632142Y-34237238D01*
X175632142Y-34237238D02*
X175536904Y-34332476D01*
X175536904Y-34332476D02*
X175489285Y-34427714D01*
X175489285Y-34427714D02*
X175441666Y-34618190D01*
X175441666Y-34618190D02*
X175441666Y-34761047D01*
X175441666Y-34761047D02*
X175489285Y-34951523D01*
X175489285Y-34951523D02*
X175536904Y-35046761D01*
X175536904Y-35046761D02*
X175632142Y-35142000D01*
X175632142Y-35142000D02*
X175774999Y-35189619D01*
X175774999Y-35189619D02*
X176013094Y-35189619D01*
X174870237Y-34618190D02*
X174965475Y-34570571D01*
X174965475Y-34570571D02*
X175013094Y-34522952D01*
X175013094Y-34522952D02*
X175060713Y-34427714D01*
X175060713Y-34427714D02*
X175060713Y-34380095D01*
X175060713Y-34380095D02*
X175013094Y-34284857D01*
X175013094Y-34284857D02*
X174965475Y-34237238D01*
X174965475Y-34237238D02*
X174870237Y-34189619D01*
X174870237Y-34189619D02*
X174679761Y-34189619D01*
X174679761Y-34189619D02*
X174584523Y-34237238D01*
X174584523Y-34237238D02*
X174536904Y-34284857D01*
X174536904Y-34284857D02*
X174489285Y-34380095D01*
X174489285Y-34380095D02*
X174489285Y-34427714D01*
X174489285Y-34427714D02*
X174536904Y-34522952D01*
X174536904Y-34522952D02*
X174584523Y-34570571D01*
X174584523Y-34570571D02*
X174679761Y-34618190D01*
X174679761Y-34618190D02*
X174870237Y-34618190D01*
X174870237Y-34618190D02*
X174965475Y-34665809D01*
X174965475Y-34665809D02*
X175013094Y-34713428D01*
X175013094Y-34713428D02*
X175060713Y-34808666D01*
X175060713Y-34808666D02*
X175060713Y-34999142D01*
X175060713Y-34999142D02*
X175013094Y-35094380D01*
X175013094Y-35094380D02*
X174965475Y-35142000D01*
X174965475Y-35142000D02*
X174870237Y-35189619D01*
X174870237Y-35189619D02*
X174679761Y-35189619D01*
X174679761Y-35189619D02*
X174584523Y-35142000D01*
X174584523Y-35142000D02*
X174536904Y-35094380D01*
X174536904Y-35094380D02*
X174489285Y-34999142D01*
X174489285Y-34999142D02*
X174489285Y-34808666D01*
X174489285Y-34808666D02*
X174536904Y-34713428D01*
X174536904Y-34713428D02*
X174584523Y-34665809D01*
X174584523Y-34665809D02*
X174679761Y-34618190D01*
%TO.C,D14*%
X43139285Y-54239619D02*
X43139285Y-53239619D01*
X43139285Y-53239619D02*
X42901190Y-53239619D01*
X42901190Y-53239619D02*
X42758333Y-53287238D01*
X42758333Y-53287238D02*
X42663095Y-53382476D01*
X42663095Y-53382476D02*
X42615476Y-53477714D01*
X42615476Y-53477714D02*
X42567857Y-53668190D01*
X42567857Y-53668190D02*
X42567857Y-53811047D01*
X42567857Y-53811047D02*
X42615476Y-54001523D01*
X42615476Y-54001523D02*
X42663095Y-54096761D01*
X42663095Y-54096761D02*
X42758333Y-54192000D01*
X42758333Y-54192000D02*
X42901190Y-54239619D01*
X42901190Y-54239619D02*
X43139285Y-54239619D01*
X41615476Y-54239619D02*
X42186904Y-54239619D01*
X41901190Y-54239619D02*
X41901190Y-53239619D01*
X41901190Y-53239619D02*
X41996428Y-53382476D01*
X41996428Y-53382476D02*
X42091666Y-53477714D01*
X42091666Y-53477714D02*
X42186904Y-53525333D01*
X40758333Y-53572952D02*
X40758333Y-54239619D01*
X40996428Y-53192000D02*
X41234523Y-53906285D01*
X41234523Y-53906285D02*
X40615476Y-53906285D01*
%TO.C,D35*%
X195539285Y-73314619D02*
X195539285Y-72314619D01*
X195539285Y-72314619D02*
X195301190Y-72314619D01*
X195301190Y-72314619D02*
X195158333Y-72362238D01*
X195158333Y-72362238D02*
X195063095Y-72457476D01*
X195063095Y-72457476D02*
X195015476Y-72552714D01*
X195015476Y-72552714D02*
X194967857Y-72743190D01*
X194967857Y-72743190D02*
X194967857Y-72886047D01*
X194967857Y-72886047D02*
X195015476Y-73076523D01*
X195015476Y-73076523D02*
X195063095Y-73171761D01*
X195063095Y-73171761D02*
X195158333Y-73267000D01*
X195158333Y-73267000D02*
X195301190Y-73314619D01*
X195301190Y-73314619D02*
X195539285Y-73314619D01*
X194634523Y-72314619D02*
X194015476Y-72314619D01*
X194015476Y-72314619D02*
X194348809Y-72695571D01*
X194348809Y-72695571D02*
X194205952Y-72695571D01*
X194205952Y-72695571D02*
X194110714Y-72743190D01*
X194110714Y-72743190D02*
X194063095Y-72790809D01*
X194063095Y-72790809D02*
X194015476Y-72886047D01*
X194015476Y-72886047D02*
X194015476Y-73124142D01*
X194015476Y-73124142D02*
X194063095Y-73219380D01*
X194063095Y-73219380D02*
X194110714Y-73267000D01*
X194110714Y-73267000D02*
X194205952Y-73314619D01*
X194205952Y-73314619D02*
X194491666Y-73314619D01*
X194491666Y-73314619D02*
X194586904Y-73267000D01*
X194586904Y-73267000D02*
X194634523Y-73219380D01*
X193110714Y-72314619D02*
X193586904Y-72314619D01*
X193586904Y-72314619D02*
X193634523Y-72790809D01*
X193634523Y-72790809D02*
X193586904Y-72743190D01*
X193586904Y-72743190D02*
X193491666Y-72695571D01*
X193491666Y-72695571D02*
X193253571Y-72695571D01*
X193253571Y-72695571D02*
X193158333Y-72743190D01*
X193158333Y-72743190D02*
X193110714Y-72790809D01*
X193110714Y-72790809D02*
X193063095Y-72886047D01*
X193063095Y-72886047D02*
X193063095Y-73124142D01*
X193063095Y-73124142D02*
X193110714Y-73219380D01*
X193110714Y-73219380D02*
X193158333Y-73267000D01*
X193158333Y-73267000D02*
X193253571Y-73314619D01*
X193253571Y-73314619D02*
X193491666Y-73314619D01*
X193491666Y-73314619D02*
X193586904Y-73267000D01*
X193586904Y-73267000D02*
X193634523Y-73219380D01*
%TO.C,D11*%
X233639285Y-35189619D02*
X233639285Y-34189619D01*
X233639285Y-34189619D02*
X233401190Y-34189619D01*
X233401190Y-34189619D02*
X233258333Y-34237238D01*
X233258333Y-34237238D02*
X233163095Y-34332476D01*
X233163095Y-34332476D02*
X233115476Y-34427714D01*
X233115476Y-34427714D02*
X233067857Y-34618190D01*
X233067857Y-34618190D02*
X233067857Y-34761047D01*
X233067857Y-34761047D02*
X233115476Y-34951523D01*
X233115476Y-34951523D02*
X233163095Y-35046761D01*
X233163095Y-35046761D02*
X233258333Y-35142000D01*
X233258333Y-35142000D02*
X233401190Y-35189619D01*
X233401190Y-35189619D02*
X233639285Y-35189619D01*
X232115476Y-35189619D02*
X232686904Y-35189619D01*
X232401190Y-35189619D02*
X232401190Y-34189619D01*
X232401190Y-34189619D02*
X232496428Y-34332476D01*
X232496428Y-34332476D02*
X232591666Y-34427714D01*
X232591666Y-34427714D02*
X232686904Y-34475333D01*
X231163095Y-35189619D02*
X231734523Y-35189619D01*
X231448809Y-35189619D02*
X231448809Y-34189619D01*
X231448809Y-34189619D02*
X231544047Y-34332476D01*
X231544047Y-34332476D02*
X231639285Y-34427714D01*
X231639285Y-34427714D02*
X231734523Y-34475333D01*
%TO.C,R3*%
X258256666Y-42895119D02*
X258589999Y-42418928D01*
X258828094Y-42895119D02*
X258828094Y-41895119D01*
X258828094Y-41895119D02*
X258447142Y-41895119D01*
X258447142Y-41895119D02*
X258351904Y-41942738D01*
X258351904Y-41942738D02*
X258304285Y-41990357D01*
X258304285Y-41990357D02*
X258256666Y-42085595D01*
X258256666Y-42085595D02*
X258256666Y-42228452D01*
X258256666Y-42228452D02*
X258304285Y-42323690D01*
X258304285Y-42323690D02*
X258351904Y-42371309D01*
X258351904Y-42371309D02*
X258447142Y-42418928D01*
X258447142Y-42418928D02*
X258828094Y-42418928D01*
X257923332Y-41895119D02*
X257304285Y-41895119D01*
X257304285Y-41895119D02*
X257637618Y-42276071D01*
X257637618Y-42276071D02*
X257494761Y-42276071D01*
X257494761Y-42276071D02*
X257399523Y-42323690D01*
X257399523Y-42323690D02*
X257351904Y-42371309D01*
X257351904Y-42371309D02*
X257304285Y-42466547D01*
X257304285Y-42466547D02*
X257304285Y-42704642D01*
X257304285Y-42704642D02*
X257351904Y-42799880D01*
X257351904Y-42799880D02*
X257399523Y-42847500D01*
X257399523Y-42847500D02*
X257494761Y-42895119D01*
X257494761Y-42895119D02*
X257780475Y-42895119D01*
X257780475Y-42895119D02*
X257875713Y-42847500D01*
X257875713Y-42847500D02*
X257923332Y-42799880D01*
%TO.C,D39*%
X281264285Y-73314619D02*
X281264285Y-72314619D01*
X281264285Y-72314619D02*
X281026190Y-72314619D01*
X281026190Y-72314619D02*
X280883333Y-72362238D01*
X280883333Y-72362238D02*
X280788095Y-72457476D01*
X280788095Y-72457476D02*
X280740476Y-72552714D01*
X280740476Y-72552714D02*
X280692857Y-72743190D01*
X280692857Y-72743190D02*
X280692857Y-72886047D01*
X280692857Y-72886047D02*
X280740476Y-73076523D01*
X280740476Y-73076523D02*
X280788095Y-73171761D01*
X280788095Y-73171761D02*
X280883333Y-73267000D01*
X280883333Y-73267000D02*
X281026190Y-73314619D01*
X281026190Y-73314619D02*
X281264285Y-73314619D01*
X280359523Y-72314619D02*
X279740476Y-72314619D01*
X279740476Y-72314619D02*
X280073809Y-72695571D01*
X280073809Y-72695571D02*
X279930952Y-72695571D01*
X279930952Y-72695571D02*
X279835714Y-72743190D01*
X279835714Y-72743190D02*
X279788095Y-72790809D01*
X279788095Y-72790809D02*
X279740476Y-72886047D01*
X279740476Y-72886047D02*
X279740476Y-73124142D01*
X279740476Y-73124142D02*
X279788095Y-73219380D01*
X279788095Y-73219380D02*
X279835714Y-73267000D01*
X279835714Y-73267000D02*
X279930952Y-73314619D01*
X279930952Y-73314619D02*
X280216666Y-73314619D01*
X280216666Y-73314619D02*
X280311904Y-73267000D01*
X280311904Y-73267000D02*
X280359523Y-73219380D01*
X279264285Y-73314619D02*
X279073809Y-73314619D01*
X279073809Y-73314619D02*
X278978571Y-73267000D01*
X278978571Y-73267000D02*
X278930952Y-73219380D01*
X278930952Y-73219380D02*
X278835714Y-73076523D01*
X278835714Y-73076523D02*
X278788095Y-72886047D01*
X278788095Y-72886047D02*
X278788095Y-72505095D01*
X278788095Y-72505095D02*
X278835714Y-72409857D01*
X278835714Y-72409857D02*
X278883333Y-72362238D01*
X278883333Y-72362238D02*
X278978571Y-72314619D01*
X278978571Y-72314619D02*
X279169047Y-72314619D01*
X279169047Y-72314619D02*
X279264285Y-72362238D01*
X279264285Y-72362238D02*
X279311904Y-72409857D01*
X279311904Y-72409857D02*
X279359523Y-72505095D01*
X279359523Y-72505095D02*
X279359523Y-72743190D01*
X279359523Y-72743190D02*
X279311904Y-72838428D01*
X279311904Y-72838428D02*
X279264285Y-72886047D01*
X279264285Y-72886047D02*
X279169047Y-72933666D01*
X279169047Y-72933666D02*
X278978571Y-72933666D01*
X278978571Y-72933666D02*
X278883333Y-72886047D01*
X278883333Y-72886047D02*
X278835714Y-72838428D01*
X278835714Y-72838428D02*
X278788095Y-72743190D01*
%TO.C,D46*%
X157439285Y-92314619D02*
X157439285Y-91314619D01*
X157439285Y-91314619D02*
X157201190Y-91314619D01*
X157201190Y-91314619D02*
X157058333Y-91362238D01*
X157058333Y-91362238D02*
X156963095Y-91457476D01*
X156963095Y-91457476D02*
X156915476Y-91552714D01*
X156915476Y-91552714D02*
X156867857Y-91743190D01*
X156867857Y-91743190D02*
X156867857Y-91886047D01*
X156867857Y-91886047D02*
X156915476Y-92076523D01*
X156915476Y-92076523D02*
X156963095Y-92171761D01*
X156963095Y-92171761D02*
X157058333Y-92267000D01*
X157058333Y-92267000D02*
X157201190Y-92314619D01*
X157201190Y-92314619D02*
X157439285Y-92314619D01*
X156010714Y-91647952D02*
X156010714Y-92314619D01*
X156248809Y-91267000D02*
X156486904Y-91981285D01*
X156486904Y-91981285D02*
X155867857Y-91981285D01*
X155058333Y-91314619D02*
X155248809Y-91314619D01*
X155248809Y-91314619D02*
X155344047Y-91362238D01*
X155344047Y-91362238D02*
X155391666Y-91409857D01*
X155391666Y-91409857D02*
X155486904Y-91552714D01*
X155486904Y-91552714D02*
X155534523Y-91743190D01*
X155534523Y-91743190D02*
X155534523Y-92124142D01*
X155534523Y-92124142D02*
X155486904Y-92219380D01*
X155486904Y-92219380D02*
X155439285Y-92267000D01*
X155439285Y-92267000D02*
X155344047Y-92314619D01*
X155344047Y-92314619D02*
X155153571Y-92314619D01*
X155153571Y-92314619D02*
X155058333Y-92267000D01*
X155058333Y-92267000D02*
X155010714Y-92219380D01*
X155010714Y-92219380D02*
X154963095Y-92124142D01*
X154963095Y-92124142D02*
X154963095Y-91886047D01*
X154963095Y-91886047D02*
X155010714Y-91790809D01*
X155010714Y-91790809D02*
X155058333Y-91743190D01*
X155058333Y-91743190D02*
X155153571Y-91695571D01*
X155153571Y-91695571D02*
X155344047Y-91695571D01*
X155344047Y-91695571D02*
X155439285Y-91743190D01*
X155439285Y-91743190D02*
X155486904Y-91790809D01*
X155486904Y-91790809D02*
X155534523Y-91886047D01*
%TO.C,D40*%
X43139285Y-92314619D02*
X43139285Y-91314619D01*
X43139285Y-91314619D02*
X42901190Y-91314619D01*
X42901190Y-91314619D02*
X42758333Y-91362238D01*
X42758333Y-91362238D02*
X42663095Y-91457476D01*
X42663095Y-91457476D02*
X42615476Y-91552714D01*
X42615476Y-91552714D02*
X42567857Y-91743190D01*
X42567857Y-91743190D02*
X42567857Y-91886047D01*
X42567857Y-91886047D02*
X42615476Y-92076523D01*
X42615476Y-92076523D02*
X42663095Y-92171761D01*
X42663095Y-92171761D02*
X42758333Y-92267000D01*
X42758333Y-92267000D02*
X42901190Y-92314619D01*
X42901190Y-92314619D02*
X43139285Y-92314619D01*
X41710714Y-91647952D02*
X41710714Y-92314619D01*
X41948809Y-91267000D02*
X42186904Y-91981285D01*
X42186904Y-91981285D02*
X41567857Y-91981285D01*
X40996428Y-91314619D02*
X40901190Y-91314619D01*
X40901190Y-91314619D02*
X40805952Y-91362238D01*
X40805952Y-91362238D02*
X40758333Y-91409857D01*
X40758333Y-91409857D02*
X40710714Y-91505095D01*
X40710714Y-91505095D02*
X40663095Y-91695571D01*
X40663095Y-91695571D02*
X40663095Y-91933666D01*
X40663095Y-91933666D02*
X40710714Y-92124142D01*
X40710714Y-92124142D02*
X40758333Y-92219380D01*
X40758333Y-92219380D02*
X40805952Y-92267000D01*
X40805952Y-92267000D02*
X40901190Y-92314619D01*
X40901190Y-92314619D02*
X40996428Y-92314619D01*
X40996428Y-92314619D02*
X41091666Y-92267000D01*
X41091666Y-92267000D02*
X41139285Y-92219380D01*
X41139285Y-92219380D02*
X41186904Y-92124142D01*
X41186904Y-92124142D02*
X41234523Y-91933666D01*
X41234523Y-91933666D02*
X41234523Y-91695571D01*
X41234523Y-91695571D02*
X41186904Y-91505095D01*
X41186904Y-91505095D02*
X41139285Y-91409857D01*
X41139285Y-91409857D02*
X41091666Y-91362238D01*
X41091666Y-91362238D02*
X40996428Y-91314619D01*
%TO.C,CX1*%
X275892857Y-53517380D02*
X275940476Y-53565000D01*
X275940476Y-53565000D02*
X276083333Y-53612619D01*
X276083333Y-53612619D02*
X276178571Y-53612619D01*
X276178571Y-53612619D02*
X276321428Y-53565000D01*
X276321428Y-53565000D02*
X276416666Y-53469761D01*
X276416666Y-53469761D02*
X276464285Y-53374523D01*
X276464285Y-53374523D02*
X276511904Y-53184047D01*
X276511904Y-53184047D02*
X276511904Y-53041190D01*
X276511904Y-53041190D02*
X276464285Y-52850714D01*
X276464285Y-52850714D02*
X276416666Y-52755476D01*
X276416666Y-52755476D02*
X276321428Y-52660238D01*
X276321428Y-52660238D02*
X276178571Y-52612619D01*
X276178571Y-52612619D02*
X276083333Y-52612619D01*
X276083333Y-52612619D02*
X275940476Y-52660238D01*
X275940476Y-52660238D02*
X275892857Y-52707857D01*
X275559523Y-52612619D02*
X274892857Y-53612619D01*
X274892857Y-52612619D02*
X275559523Y-53612619D01*
X273988095Y-53612619D02*
X274559523Y-53612619D01*
X274273809Y-53612619D02*
X274273809Y-52612619D01*
X274273809Y-52612619D02*
X274369047Y-52755476D01*
X274369047Y-52755476D02*
X274464285Y-52850714D01*
X274464285Y-52850714D02*
X274559523Y-52898333D01*
%TO.C,R2*%
X255576666Y-42892619D02*
X255909999Y-42416428D01*
X256148094Y-42892619D02*
X256148094Y-41892619D01*
X256148094Y-41892619D02*
X255767142Y-41892619D01*
X255767142Y-41892619D02*
X255671904Y-41940238D01*
X255671904Y-41940238D02*
X255624285Y-41987857D01*
X255624285Y-41987857D02*
X255576666Y-42083095D01*
X255576666Y-42083095D02*
X255576666Y-42225952D01*
X255576666Y-42225952D02*
X255624285Y-42321190D01*
X255624285Y-42321190D02*
X255671904Y-42368809D01*
X255671904Y-42368809D02*
X255767142Y-42416428D01*
X255767142Y-42416428D02*
X256148094Y-42416428D01*
X255195713Y-41987857D02*
X255148094Y-41940238D01*
X255148094Y-41940238D02*
X255052856Y-41892619D01*
X255052856Y-41892619D02*
X254814761Y-41892619D01*
X254814761Y-41892619D02*
X254719523Y-41940238D01*
X254719523Y-41940238D02*
X254671904Y-41987857D01*
X254671904Y-41987857D02*
X254624285Y-42083095D01*
X254624285Y-42083095D02*
X254624285Y-42178333D01*
X254624285Y-42178333D02*
X254671904Y-42321190D01*
X254671904Y-42321190D02*
X255243332Y-42892619D01*
X255243332Y-42892619D02*
X254624285Y-42892619D01*
%TO.C,C1*%
X249191666Y-52192380D02*
X249239285Y-52240000D01*
X249239285Y-52240000D02*
X249382142Y-52287619D01*
X249382142Y-52287619D02*
X249477380Y-52287619D01*
X249477380Y-52287619D02*
X249620237Y-52240000D01*
X249620237Y-52240000D02*
X249715475Y-52144761D01*
X249715475Y-52144761D02*
X249763094Y-52049523D01*
X249763094Y-52049523D02*
X249810713Y-51859047D01*
X249810713Y-51859047D02*
X249810713Y-51716190D01*
X249810713Y-51716190D02*
X249763094Y-51525714D01*
X249763094Y-51525714D02*
X249715475Y-51430476D01*
X249715475Y-51430476D02*
X249620237Y-51335238D01*
X249620237Y-51335238D02*
X249477380Y-51287619D01*
X249477380Y-51287619D02*
X249382142Y-51287619D01*
X249382142Y-51287619D02*
X249239285Y-51335238D01*
X249239285Y-51335238D02*
X249191666Y-51382857D01*
X248239285Y-52287619D02*
X248810713Y-52287619D01*
X248524999Y-52287619D02*
X248524999Y-51287619D01*
X248524999Y-51287619D02*
X248620237Y-51430476D01*
X248620237Y-51430476D02*
X248715475Y-51525714D01*
X248715475Y-51525714D02*
X248810713Y-51573333D01*
%TO.C,D4*%
X99813094Y-35189619D02*
X99813094Y-34189619D01*
X99813094Y-34189619D02*
X99574999Y-34189619D01*
X99574999Y-34189619D02*
X99432142Y-34237238D01*
X99432142Y-34237238D02*
X99336904Y-34332476D01*
X99336904Y-34332476D02*
X99289285Y-34427714D01*
X99289285Y-34427714D02*
X99241666Y-34618190D01*
X99241666Y-34618190D02*
X99241666Y-34761047D01*
X99241666Y-34761047D02*
X99289285Y-34951523D01*
X99289285Y-34951523D02*
X99336904Y-35046761D01*
X99336904Y-35046761D02*
X99432142Y-35142000D01*
X99432142Y-35142000D02*
X99574999Y-35189619D01*
X99574999Y-35189619D02*
X99813094Y-35189619D01*
X98384523Y-34522952D02*
X98384523Y-35189619D01*
X98622618Y-34142000D02*
X98860713Y-34856285D01*
X98860713Y-34856285D02*
X98241666Y-34856285D01*
%TO.C,Y1*%
X271326190Y-58711428D02*
X271326190Y-59187619D01*
X271659523Y-58187619D02*
X271326190Y-58711428D01*
X271326190Y-58711428D02*
X270992857Y-58187619D01*
X270135714Y-59187619D02*
X270707142Y-59187619D01*
X270421428Y-59187619D02*
X270421428Y-58187619D01*
X270421428Y-58187619D02*
X270516666Y-58330476D01*
X270516666Y-58330476D02*
X270611904Y-58425714D01*
X270611904Y-58425714D02*
X270707142Y-58473333D01*
%TO.C,C2*%
X249191666Y-58267380D02*
X249239285Y-58315000D01*
X249239285Y-58315000D02*
X249382142Y-58362619D01*
X249382142Y-58362619D02*
X249477380Y-58362619D01*
X249477380Y-58362619D02*
X249620237Y-58315000D01*
X249620237Y-58315000D02*
X249715475Y-58219761D01*
X249715475Y-58219761D02*
X249763094Y-58124523D01*
X249763094Y-58124523D02*
X249810713Y-57934047D01*
X249810713Y-57934047D02*
X249810713Y-57791190D01*
X249810713Y-57791190D02*
X249763094Y-57600714D01*
X249763094Y-57600714D02*
X249715475Y-57505476D01*
X249715475Y-57505476D02*
X249620237Y-57410238D01*
X249620237Y-57410238D02*
X249477380Y-57362619D01*
X249477380Y-57362619D02*
X249382142Y-57362619D01*
X249382142Y-57362619D02*
X249239285Y-57410238D01*
X249239285Y-57410238D02*
X249191666Y-57457857D01*
X248810713Y-57457857D02*
X248763094Y-57410238D01*
X248763094Y-57410238D02*
X248667856Y-57362619D01*
X248667856Y-57362619D02*
X248429761Y-57362619D01*
X248429761Y-57362619D02*
X248334523Y-57410238D01*
X248334523Y-57410238D02*
X248286904Y-57457857D01*
X248286904Y-57457857D02*
X248239285Y-57553095D01*
X248239285Y-57553095D02*
X248239285Y-57648333D01*
X248239285Y-57648333D02*
X248286904Y-57791190D01*
X248286904Y-57791190D02*
X248858332Y-58362619D01*
X248858332Y-58362619D02*
X248239285Y-58362619D01*
%TO.C,D29*%
X81239285Y-73314619D02*
X81239285Y-72314619D01*
X81239285Y-72314619D02*
X81001190Y-72314619D01*
X81001190Y-72314619D02*
X80858333Y-72362238D01*
X80858333Y-72362238D02*
X80763095Y-72457476D01*
X80763095Y-72457476D02*
X80715476Y-72552714D01*
X80715476Y-72552714D02*
X80667857Y-72743190D01*
X80667857Y-72743190D02*
X80667857Y-72886047D01*
X80667857Y-72886047D02*
X80715476Y-73076523D01*
X80715476Y-73076523D02*
X80763095Y-73171761D01*
X80763095Y-73171761D02*
X80858333Y-73267000D01*
X80858333Y-73267000D02*
X81001190Y-73314619D01*
X81001190Y-73314619D02*
X81239285Y-73314619D01*
X80286904Y-72409857D02*
X80239285Y-72362238D01*
X80239285Y-72362238D02*
X80144047Y-72314619D01*
X80144047Y-72314619D02*
X79905952Y-72314619D01*
X79905952Y-72314619D02*
X79810714Y-72362238D01*
X79810714Y-72362238D02*
X79763095Y-72409857D01*
X79763095Y-72409857D02*
X79715476Y-72505095D01*
X79715476Y-72505095D02*
X79715476Y-72600333D01*
X79715476Y-72600333D02*
X79763095Y-72743190D01*
X79763095Y-72743190D02*
X80334523Y-73314619D01*
X80334523Y-73314619D02*
X79715476Y-73314619D01*
X79239285Y-73314619D02*
X79048809Y-73314619D01*
X79048809Y-73314619D02*
X78953571Y-73267000D01*
X78953571Y-73267000D02*
X78905952Y-73219380D01*
X78905952Y-73219380D02*
X78810714Y-73076523D01*
X78810714Y-73076523D02*
X78763095Y-72886047D01*
X78763095Y-72886047D02*
X78763095Y-72505095D01*
X78763095Y-72505095D02*
X78810714Y-72409857D01*
X78810714Y-72409857D02*
X78858333Y-72362238D01*
X78858333Y-72362238D02*
X78953571Y-72314619D01*
X78953571Y-72314619D02*
X79144047Y-72314619D01*
X79144047Y-72314619D02*
X79239285Y-72362238D01*
X79239285Y-72362238D02*
X79286904Y-72409857D01*
X79286904Y-72409857D02*
X79334523Y-72505095D01*
X79334523Y-72505095D02*
X79334523Y-72743190D01*
X79334523Y-72743190D02*
X79286904Y-72838428D01*
X79286904Y-72838428D02*
X79239285Y-72886047D01*
X79239285Y-72886047D02*
X79144047Y-72933666D01*
X79144047Y-72933666D02*
X78953571Y-72933666D01*
X78953571Y-72933666D02*
X78858333Y-72886047D01*
X78858333Y-72886047D02*
X78810714Y-72838428D01*
X78810714Y-72838428D02*
X78763095Y-72743190D01*
%TO.C,D24*%
X233639285Y-54239619D02*
X233639285Y-53239619D01*
X233639285Y-53239619D02*
X233401190Y-53239619D01*
X233401190Y-53239619D02*
X233258333Y-53287238D01*
X233258333Y-53287238D02*
X233163095Y-53382476D01*
X233163095Y-53382476D02*
X233115476Y-53477714D01*
X233115476Y-53477714D02*
X233067857Y-53668190D01*
X233067857Y-53668190D02*
X233067857Y-53811047D01*
X233067857Y-53811047D02*
X233115476Y-54001523D01*
X233115476Y-54001523D02*
X233163095Y-54096761D01*
X233163095Y-54096761D02*
X233258333Y-54192000D01*
X233258333Y-54192000D02*
X233401190Y-54239619D01*
X233401190Y-54239619D02*
X233639285Y-54239619D01*
X232686904Y-53334857D02*
X232639285Y-53287238D01*
X232639285Y-53287238D02*
X232544047Y-53239619D01*
X232544047Y-53239619D02*
X232305952Y-53239619D01*
X232305952Y-53239619D02*
X232210714Y-53287238D01*
X232210714Y-53287238D02*
X232163095Y-53334857D01*
X232163095Y-53334857D02*
X232115476Y-53430095D01*
X232115476Y-53430095D02*
X232115476Y-53525333D01*
X232115476Y-53525333D02*
X232163095Y-53668190D01*
X232163095Y-53668190D02*
X232734523Y-54239619D01*
X232734523Y-54239619D02*
X232115476Y-54239619D01*
X231258333Y-53572952D02*
X231258333Y-54239619D01*
X231496428Y-53192000D02*
X231734523Y-53906285D01*
X231734523Y-53906285D02*
X231115476Y-53906285D01*
%TO.C,D31*%
X119339285Y-73314619D02*
X119339285Y-72314619D01*
X119339285Y-72314619D02*
X119101190Y-72314619D01*
X119101190Y-72314619D02*
X118958333Y-72362238D01*
X118958333Y-72362238D02*
X118863095Y-72457476D01*
X118863095Y-72457476D02*
X118815476Y-72552714D01*
X118815476Y-72552714D02*
X118767857Y-72743190D01*
X118767857Y-72743190D02*
X118767857Y-72886047D01*
X118767857Y-72886047D02*
X118815476Y-73076523D01*
X118815476Y-73076523D02*
X118863095Y-73171761D01*
X118863095Y-73171761D02*
X118958333Y-73267000D01*
X118958333Y-73267000D02*
X119101190Y-73314619D01*
X119101190Y-73314619D02*
X119339285Y-73314619D01*
X118434523Y-72314619D02*
X117815476Y-72314619D01*
X117815476Y-72314619D02*
X118148809Y-72695571D01*
X118148809Y-72695571D02*
X118005952Y-72695571D01*
X118005952Y-72695571D02*
X117910714Y-72743190D01*
X117910714Y-72743190D02*
X117863095Y-72790809D01*
X117863095Y-72790809D02*
X117815476Y-72886047D01*
X117815476Y-72886047D02*
X117815476Y-73124142D01*
X117815476Y-73124142D02*
X117863095Y-73219380D01*
X117863095Y-73219380D02*
X117910714Y-73267000D01*
X117910714Y-73267000D02*
X118005952Y-73314619D01*
X118005952Y-73314619D02*
X118291666Y-73314619D01*
X118291666Y-73314619D02*
X118386904Y-73267000D01*
X118386904Y-73267000D02*
X118434523Y-73219380D01*
X116863095Y-73314619D02*
X117434523Y-73314619D01*
X117148809Y-73314619D02*
X117148809Y-72314619D01*
X117148809Y-72314619D02*
X117244047Y-72457476D01*
X117244047Y-72457476D02*
X117339285Y-72552714D01*
X117339285Y-72552714D02*
X117434523Y-72600333D01*
%TO.C,D45*%
X138389285Y-92314619D02*
X138389285Y-91314619D01*
X138389285Y-91314619D02*
X138151190Y-91314619D01*
X138151190Y-91314619D02*
X138008333Y-91362238D01*
X138008333Y-91362238D02*
X137913095Y-91457476D01*
X137913095Y-91457476D02*
X137865476Y-91552714D01*
X137865476Y-91552714D02*
X137817857Y-91743190D01*
X137817857Y-91743190D02*
X137817857Y-91886047D01*
X137817857Y-91886047D02*
X137865476Y-92076523D01*
X137865476Y-92076523D02*
X137913095Y-92171761D01*
X137913095Y-92171761D02*
X138008333Y-92267000D01*
X138008333Y-92267000D02*
X138151190Y-92314619D01*
X138151190Y-92314619D02*
X138389285Y-92314619D01*
X136960714Y-91647952D02*
X136960714Y-92314619D01*
X137198809Y-91267000D02*
X137436904Y-91981285D01*
X137436904Y-91981285D02*
X136817857Y-91981285D01*
X135960714Y-91314619D02*
X136436904Y-91314619D01*
X136436904Y-91314619D02*
X136484523Y-91790809D01*
X136484523Y-91790809D02*
X136436904Y-91743190D01*
X136436904Y-91743190D02*
X136341666Y-91695571D01*
X136341666Y-91695571D02*
X136103571Y-91695571D01*
X136103571Y-91695571D02*
X136008333Y-91743190D01*
X136008333Y-91743190D02*
X135960714Y-91790809D01*
X135960714Y-91790809D02*
X135913095Y-91886047D01*
X135913095Y-91886047D02*
X135913095Y-92124142D01*
X135913095Y-92124142D02*
X135960714Y-92219380D01*
X135960714Y-92219380D02*
X136008333Y-92267000D01*
X136008333Y-92267000D02*
X136103571Y-92314619D01*
X136103571Y-92314619D02*
X136341666Y-92314619D01*
X136341666Y-92314619D02*
X136436904Y-92267000D01*
X136436904Y-92267000D02*
X136484523Y-92219380D01*
%TO.C,D16*%
X81239285Y-54239619D02*
X81239285Y-53239619D01*
X81239285Y-53239619D02*
X81001190Y-53239619D01*
X81001190Y-53239619D02*
X80858333Y-53287238D01*
X80858333Y-53287238D02*
X80763095Y-53382476D01*
X80763095Y-53382476D02*
X80715476Y-53477714D01*
X80715476Y-53477714D02*
X80667857Y-53668190D01*
X80667857Y-53668190D02*
X80667857Y-53811047D01*
X80667857Y-53811047D02*
X80715476Y-54001523D01*
X80715476Y-54001523D02*
X80763095Y-54096761D01*
X80763095Y-54096761D02*
X80858333Y-54192000D01*
X80858333Y-54192000D02*
X81001190Y-54239619D01*
X81001190Y-54239619D02*
X81239285Y-54239619D01*
X79715476Y-54239619D02*
X80286904Y-54239619D01*
X80001190Y-54239619D02*
X80001190Y-53239619D01*
X80001190Y-53239619D02*
X80096428Y-53382476D01*
X80096428Y-53382476D02*
X80191666Y-53477714D01*
X80191666Y-53477714D02*
X80286904Y-53525333D01*
X78858333Y-53239619D02*
X79048809Y-53239619D01*
X79048809Y-53239619D02*
X79144047Y-53287238D01*
X79144047Y-53287238D02*
X79191666Y-53334857D01*
X79191666Y-53334857D02*
X79286904Y-53477714D01*
X79286904Y-53477714D02*
X79334523Y-53668190D01*
X79334523Y-53668190D02*
X79334523Y-54049142D01*
X79334523Y-54049142D02*
X79286904Y-54144380D01*
X79286904Y-54144380D02*
X79239285Y-54192000D01*
X79239285Y-54192000D02*
X79144047Y-54239619D01*
X79144047Y-54239619D02*
X78953571Y-54239619D01*
X78953571Y-54239619D02*
X78858333Y-54192000D01*
X78858333Y-54192000D02*
X78810714Y-54144380D01*
X78810714Y-54144380D02*
X78763095Y-54049142D01*
X78763095Y-54049142D02*
X78763095Y-53811047D01*
X78763095Y-53811047D02*
X78810714Y-53715809D01*
X78810714Y-53715809D02*
X78858333Y-53668190D01*
X78858333Y-53668190D02*
X78953571Y-53620571D01*
X78953571Y-53620571D02*
X79144047Y-53620571D01*
X79144047Y-53620571D02*
X79239285Y-53668190D01*
X79239285Y-53668190D02*
X79286904Y-53715809D01*
X79286904Y-53715809D02*
X79334523Y-53811047D01*
%TO.C,D41*%
X62189285Y-92314619D02*
X62189285Y-91314619D01*
X62189285Y-91314619D02*
X61951190Y-91314619D01*
X61951190Y-91314619D02*
X61808333Y-91362238D01*
X61808333Y-91362238D02*
X61713095Y-91457476D01*
X61713095Y-91457476D02*
X61665476Y-91552714D01*
X61665476Y-91552714D02*
X61617857Y-91743190D01*
X61617857Y-91743190D02*
X61617857Y-91886047D01*
X61617857Y-91886047D02*
X61665476Y-92076523D01*
X61665476Y-92076523D02*
X61713095Y-92171761D01*
X61713095Y-92171761D02*
X61808333Y-92267000D01*
X61808333Y-92267000D02*
X61951190Y-92314619D01*
X61951190Y-92314619D02*
X62189285Y-92314619D01*
X60760714Y-91647952D02*
X60760714Y-92314619D01*
X60998809Y-91267000D02*
X61236904Y-91981285D01*
X61236904Y-91981285D02*
X60617857Y-91981285D01*
X59713095Y-92314619D02*
X60284523Y-92314619D01*
X59998809Y-92314619D02*
X59998809Y-91314619D01*
X59998809Y-91314619D02*
X60094047Y-91457476D01*
X60094047Y-91457476D02*
X60189285Y-91552714D01*
X60189285Y-91552714D02*
X60284523Y-91600333D01*
%TO.C,D13*%
X281264285Y-35189619D02*
X281264285Y-34189619D01*
X281264285Y-34189619D02*
X281026190Y-34189619D01*
X281026190Y-34189619D02*
X280883333Y-34237238D01*
X280883333Y-34237238D02*
X280788095Y-34332476D01*
X280788095Y-34332476D02*
X280740476Y-34427714D01*
X280740476Y-34427714D02*
X280692857Y-34618190D01*
X280692857Y-34618190D02*
X280692857Y-34761047D01*
X280692857Y-34761047D02*
X280740476Y-34951523D01*
X280740476Y-34951523D02*
X280788095Y-35046761D01*
X280788095Y-35046761D02*
X280883333Y-35142000D01*
X280883333Y-35142000D02*
X281026190Y-35189619D01*
X281026190Y-35189619D02*
X281264285Y-35189619D01*
X279740476Y-35189619D02*
X280311904Y-35189619D01*
X280026190Y-35189619D02*
X280026190Y-34189619D01*
X280026190Y-34189619D02*
X280121428Y-34332476D01*
X280121428Y-34332476D02*
X280216666Y-34427714D01*
X280216666Y-34427714D02*
X280311904Y-34475333D01*
X279407142Y-34189619D02*
X278788095Y-34189619D01*
X278788095Y-34189619D02*
X279121428Y-34570571D01*
X279121428Y-34570571D02*
X278978571Y-34570571D01*
X278978571Y-34570571D02*
X278883333Y-34618190D01*
X278883333Y-34618190D02*
X278835714Y-34665809D01*
X278835714Y-34665809D02*
X278788095Y-34761047D01*
X278788095Y-34761047D02*
X278788095Y-34999142D01*
X278788095Y-34999142D02*
X278835714Y-35094380D01*
X278835714Y-35094380D02*
X278883333Y-35142000D01*
X278883333Y-35142000D02*
X278978571Y-35189619D01*
X278978571Y-35189619D02*
X279264285Y-35189619D01*
X279264285Y-35189619D02*
X279359523Y-35142000D01*
X279359523Y-35142000D02*
X279407142Y-35094380D01*
%TO.C,D49*%
X214589285Y-92314619D02*
X214589285Y-91314619D01*
X214589285Y-91314619D02*
X214351190Y-91314619D01*
X214351190Y-91314619D02*
X214208333Y-91362238D01*
X214208333Y-91362238D02*
X214113095Y-91457476D01*
X214113095Y-91457476D02*
X214065476Y-91552714D01*
X214065476Y-91552714D02*
X214017857Y-91743190D01*
X214017857Y-91743190D02*
X214017857Y-91886047D01*
X214017857Y-91886047D02*
X214065476Y-92076523D01*
X214065476Y-92076523D02*
X214113095Y-92171761D01*
X214113095Y-92171761D02*
X214208333Y-92267000D01*
X214208333Y-92267000D02*
X214351190Y-92314619D01*
X214351190Y-92314619D02*
X214589285Y-92314619D01*
X213160714Y-91647952D02*
X213160714Y-92314619D01*
X213398809Y-91267000D02*
X213636904Y-91981285D01*
X213636904Y-91981285D02*
X213017857Y-91981285D01*
X212589285Y-92314619D02*
X212398809Y-92314619D01*
X212398809Y-92314619D02*
X212303571Y-92267000D01*
X212303571Y-92267000D02*
X212255952Y-92219380D01*
X212255952Y-92219380D02*
X212160714Y-92076523D01*
X212160714Y-92076523D02*
X212113095Y-91886047D01*
X212113095Y-91886047D02*
X212113095Y-91505095D01*
X212113095Y-91505095D02*
X212160714Y-91409857D01*
X212160714Y-91409857D02*
X212208333Y-91362238D01*
X212208333Y-91362238D02*
X212303571Y-91314619D01*
X212303571Y-91314619D02*
X212494047Y-91314619D01*
X212494047Y-91314619D02*
X212589285Y-91362238D01*
X212589285Y-91362238D02*
X212636904Y-91409857D01*
X212636904Y-91409857D02*
X212684523Y-91505095D01*
X212684523Y-91505095D02*
X212684523Y-91743190D01*
X212684523Y-91743190D02*
X212636904Y-91838428D01*
X212636904Y-91838428D02*
X212589285Y-91886047D01*
X212589285Y-91886047D02*
X212494047Y-91933666D01*
X212494047Y-91933666D02*
X212303571Y-91933666D01*
X212303571Y-91933666D02*
X212208333Y-91886047D01*
X212208333Y-91886047D02*
X212160714Y-91838428D01*
X212160714Y-91838428D02*
X212113095Y-91743190D01*
%TO.C,D51*%
X252689285Y-92314619D02*
X252689285Y-91314619D01*
X252689285Y-91314619D02*
X252451190Y-91314619D01*
X252451190Y-91314619D02*
X252308333Y-91362238D01*
X252308333Y-91362238D02*
X252213095Y-91457476D01*
X252213095Y-91457476D02*
X252165476Y-91552714D01*
X252165476Y-91552714D02*
X252117857Y-91743190D01*
X252117857Y-91743190D02*
X252117857Y-91886047D01*
X252117857Y-91886047D02*
X252165476Y-92076523D01*
X252165476Y-92076523D02*
X252213095Y-92171761D01*
X252213095Y-92171761D02*
X252308333Y-92267000D01*
X252308333Y-92267000D02*
X252451190Y-92314619D01*
X252451190Y-92314619D02*
X252689285Y-92314619D01*
X251213095Y-91314619D02*
X251689285Y-91314619D01*
X251689285Y-91314619D02*
X251736904Y-91790809D01*
X251736904Y-91790809D02*
X251689285Y-91743190D01*
X251689285Y-91743190D02*
X251594047Y-91695571D01*
X251594047Y-91695571D02*
X251355952Y-91695571D01*
X251355952Y-91695571D02*
X251260714Y-91743190D01*
X251260714Y-91743190D02*
X251213095Y-91790809D01*
X251213095Y-91790809D02*
X251165476Y-91886047D01*
X251165476Y-91886047D02*
X251165476Y-92124142D01*
X251165476Y-92124142D02*
X251213095Y-92219380D01*
X251213095Y-92219380D02*
X251260714Y-92267000D01*
X251260714Y-92267000D02*
X251355952Y-92314619D01*
X251355952Y-92314619D02*
X251594047Y-92314619D01*
X251594047Y-92314619D02*
X251689285Y-92267000D01*
X251689285Y-92267000D02*
X251736904Y-92219380D01*
X250213095Y-92314619D02*
X250784523Y-92314619D01*
X250498809Y-92314619D02*
X250498809Y-91314619D01*
X250498809Y-91314619D02*
X250594047Y-91457476D01*
X250594047Y-91457476D02*
X250689285Y-91552714D01*
X250689285Y-91552714D02*
X250784523Y-91600333D01*
%TO.C,D50*%
X233639285Y-92314619D02*
X233639285Y-91314619D01*
X233639285Y-91314619D02*
X233401190Y-91314619D01*
X233401190Y-91314619D02*
X233258333Y-91362238D01*
X233258333Y-91362238D02*
X233163095Y-91457476D01*
X233163095Y-91457476D02*
X233115476Y-91552714D01*
X233115476Y-91552714D02*
X233067857Y-91743190D01*
X233067857Y-91743190D02*
X233067857Y-91886047D01*
X233067857Y-91886047D02*
X233115476Y-92076523D01*
X233115476Y-92076523D02*
X233163095Y-92171761D01*
X233163095Y-92171761D02*
X233258333Y-92267000D01*
X233258333Y-92267000D02*
X233401190Y-92314619D01*
X233401190Y-92314619D02*
X233639285Y-92314619D01*
X232163095Y-91314619D02*
X232639285Y-91314619D01*
X232639285Y-91314619D02*
X232686904Y-91790809D01*
X232686904Y-91790809D02*
X232639285Y-91743190D01*
X232639285Y-91743190D02*
X232544047Y-91695571D01*
X232544047Y-91695571D02*
X232305952Y-91695571D01*
X232305952Y-91695571D02*
X232210714Y-91743190D01*
X232210714Y-91743190D02*
X232163095Y-91790809D01*
X232163095Y-91790809D02*
X232115476Y-91886047D01*
X232115476Y-91886047D02*
X232115476Y-92124142D01*
X232115476Y-92124142D02*
X232163095Y-92219380D01*
X232163095Y-92219380D02*
X232210714Y-92267000D01*
X232210714Y-92267000D02*
X232305952Y-92314619D01*
X232305952Y-92314619D02*
X232544047Y-92314619D01*
X232544047Y-92314619D02*
X232639285Y-92267000D01*
X232639285Y-92267000D02*
X232686904Y-92219380D01*
X231496428Y-91314619D02*
X231401190Y-91314619D01*
X231401190Y-91314619D02*
X231305952Y-91362238D01*
X231305952Y-91362238D02*
X231258333Y-91409857D01*
X231258333Y-91409857D02*
X231210714Y-91505095D01*
X231210714Y-91505095D02*
X231163095Y-91695571D01*
X231163095Y-91695571D02*
X231163095Y-91933666D01*
X231163095Y-91933666D02*
X231210714Y-92124142D01*
X231210714Y-92124142D02*
X231258333Y-92219380D01*
X231258333Y-92219380D02*
X231305952Y-92267000D01*
X231305952Y-92267000D02*
X231401190Y-92314619D01*
X231401190Y-92314619D02*
X231496428Y-92314619D01*
X231496428Y-92314619D02*
X231591666Y-92267000D01*
X231591666Y-92267000D02*
X231639285Y-92219380D01*
X231639285Y-92219380D02*
X231686904Y-92124142D01*
X231686904Y-92124142D02*
X231734523Y-91933666D01*
X231734523Y-91933666D02*
X231734523Y-91695571D01*
X231734523Y-91695571D02*
X231686904Y-91505095D01*
X231686904Y-91505095D02*
X231639285Y-91409857D01*
X231639285Y-91409857D02*
X231591666Y-91362238D01*
X231591666Y-91362238D02*
X231496428Y-91314619D01*
%TO.C,C5*%
X261041666Y-42717380D02*
X261089285Y-42765000D01*
X261089285Y-42765000D02*
X261232142Y-42812619D01*
X261232142Y-42812619D02*
X261327380Y-42812619D01*
X261327380Y-42812619D02*
X261470237Y-42765000D01*
X261470237Y-42765000D02*
X261565475Y-42669761D01*
X261565475Y-42669761D02*
X261613094Y-42574523D01*
X261613094Y-42574523D02*
X261660713Y-42384047D01*
X261660713Y-42384047D02*
X261660713Y-42241190D01*
X261660713Y-42241190D02*
X261613094Y-42050714D01*
X261613094Y-42050714D02*
X261565475Y-41955476D01*
X261565475Y-41955476D02*
X261470237Y-41860238D01*
X261470237Y-41860238D02*
X261327380Y-41812619D01*
X261327380Y-41812619D02*
X261232142Y-41812619D01*
X261232142Y-41812619D02*
X261089285Y-41860238D01*
X261089285Y-41860238D02*
X261041666Y-41907857D01*
X260136904Y-41812619D02*
X260613094Y-41812619D01*
X260613094Y-41812619D02*
X260660713Y-42288809D01*
X260660713Y-42288809D02*
X260613094Y-42241190D01*
X260613094Y-42241190D02*
X260517856Y-42193571D01*
X260517856Y-42193571D02*
X260279761Y-42193571D01*
X260279761Y-42193571D02*
X260184523Y-42241190D01*
X260184523Y-42241190D02*
X260136904Y-42288809D01*
X260136904Y-42288809D02*
X260089285Y-42384047D01*
X260089285Y-42384047D02*
X260089285Y-42622142D01*
X260089285Y-42622142D02*
X260136904Y-42717380D01*
X260136904Y-42717380D02*
X260184523Y-42765000D01*
X260184523Y-42765000D02*
X260279761Y-42812619D01*
X260279761Y-42812619D02*
X260517856Y-42812619D01*
X260517856Y-42812619D02*
X260613094Y-42765000D01*
X260613094Y-42765000D02*
X260660713Y-42717380D01*
%TO.C,D52*%
X281264285Y-92314619D02*
X281264285Y-91314619D01*
X281264285Y-91314619D02*
X281026190Y-91314619D01*
X281026190Y-91314619D02*
X280883333Y-91362238D01*
X280883333Y-91362238D02*
X280788095Y-91457476D01*
X280788095Y-91457476D02*
X280740476Y-91552714D01*
X280740476Y-91552714D02*
X280692857Y-91743190D01*
X280692857Y-91743190D02*
X280692857Y-91886047D01*
X280692857Y-91886047D02*
X280740476Y-92076523D01*
X280740476Y-92076523D02*
X280788095Y-92171761D01*
X280788095Y-92171761D02*
X280883333Y-92267000D01*
X280883333Y-92267000D02*
X281026190Y-92314619D01*
X281026190Y-92314619D02*
X281264285Y-92314619D01*
X279788095Y-91314619D02*
X280264285Y-91314619D01*
X280264285Y-91314619D02*
X280311904Y-91790809D01*
X280311904Y-91790809D02*
X280264285Y-91743190D01*
X280264285Y-91743190D02*
X280169047Y-91695571D01*
X280169047Y-91695571D02*
X279930952Y-91695571D01*
X279930952Y-91695571D02*
X279835714Y-91743190D01*
X279835714Y-91743190D02*
X279788095Y-91790809D01*
X279788095Y-91790809D02*
X279740476Y-91886047D01*
X279740476Y-91886047D02*
X279740476Y-92124142D01*
X279740476Y-92124142D02*
X279788095Y-92219380D01*
X279788095Y-92219380D02*
X279835714Y-92267000D01*
X279835714Y-92267000D02*
X279930952Y-92314619D01*
X279930952Y-92314619D02*
X280169047Y-92314619D01*
X280169047Y-92314619D02*
X280264285Y-92267000D01*
X280264285Y-92267000D02*
X280311904Y-92219380D01*
X279359523Y-91409857D02*
X279311904Y-91362238D01*
X279311904Y-91362238D02*
X279216666Y-91314619D01*
X279216666Y-91314619D02*
X278978571Y-91314619D01*
X278978571Y-91314619D02*
X278883333Y-91362238D01*
X278883333Y-91362238D02*
X278835714Y-91409857D01*
X278835714Y-91409857D02*
X278788095Y-91505095D01*
X278788095Y-91505095D02*
X278788095Y-91600333D01*
X278788095Y-91600333D02*
X278835714Y-91743190D01*
X278835714Y-91743190D02*
X279407142Y-92314619D01*
X279407142Y-92314619D02*
X278788095Y-92314619D01*
%TO.C,D37*%
X233639285Y-73314619D02*
X233639285Y-72314619D01*
X233639285Y-72314619D02*
X233401190Y-72314619D01*
X233401190Y-72314619D02*
X233258333Y-72362238D01*
X233258333Y-72362238D02*
X233163095Y-72457476D01*
X233163095Y-72457476D02*
X233115476Y-72552714D01*
X233115476Y-72552714D02*
X233067857Y-72743190D01*
X233067857Y-72743190D02*
X233067857Y-72886047D01*
X233067857Y-72886047D02*
X233115476Y-73076523D01*
X233115476Y-73076523D02*
X233163095Y-73171761D01*
X233163095Y-73171761D02*
X233258333Y-73267000D01*
X233258333Y-73267000D02*
X233401190Y-73314619D01*
X233401190Y-73314619D02*
X233639285Y-73314619D01*
X232734523Y-72314619D02*
X232115476Y-72314619D01*
X232115476Y-72314619D02*
X232448809Y-72695571D01*
X232448809Y-72695571D02*
X232305952Y-72695571D01*
X232305952Y-72695571D02*
X232210714Y-72743190D01*
X232210714Y-72743190D02*
X232163095Y-72790809D01*
X232163095Y-72790809D02*
X232115476Y-72886047D01*
X232115476Y-72886047D02*
X232115476Y-73124142D01*
X232115476Y-73124142D02*
X232163095Y-73219380D01*
X232163095Y-73219380D02*
X232210714Y-73267000D01*
X232210714Y-73267000D02*
X232305952Y-73314619D01*
X232305952Y-73314619D02*
X232591666Y-73314619D01*
X232591666Y-73314619D02*
X232686904Y-73267000D01*
X232686904Y-73267000D02*
X232734523Y-73219380D01*
X231782142Y-72314619D02*
X231115476Y-72314619D01*
X231115476Y-72314619D02*
X231544047Y-73314619D01*
%TO.C,D3*%
X80763094Y-35189619D02*
X80763094Y-34189619D01*
X80763094Y-34189619D02*
X80524999Y-34189619D01*
X80524999Y-34189619D02*
X80382142Y-34237238D01*
X80382142Y-34237238D02*
X80286904Y-34332476D01*
X80286904Y-34332476D02*
X80239285Y-34427714D01*
X80239285Y-34427714D02*
X80191666Y-34618190D01*
X80191666Y-34618190D02*
X80191666Y-34761047D01*
X80191666Y-34761047D02*
X80239285Y-34951523D01*
X80239285Y-34951523D02*
X80286904Y-35046761D01*
X80286904Y-35046761D02*
X80382142Y-35142000D01*
X80382142Y-35142000D02*
X80524999Y-35189619D01*
X80524999Y-35189619D02*
X80763094Y-35189619D01*
X79858332Y-34189619D02*
X79239285Y-34189619D01*
X79239285Y-34189619D02*
X79572618Y-34570571D01*
X79572618Y-34570571D02*
X79429761Y-34570571D01*
X79429761Y-34570571D02*
X79334523Y-34618190D01*
X79334523Y-34618190D02*
X79286904Y-34665809D01*
X79286904Y-34665809D02*
X79239285Y-34761047D01*
X79239285Y-34761047D02*
X79239285Y-34999142D01*
X79239285Y-34999142D02*
X79286904Y-35094380D01*
X79286904Y-35094380D02*
X79334523Y-35142000D01*
X79334523Y-35142000D02*
X79429761Y-35189619D01*
X79429761Y-35189619D02*
X79715475Y-35189619D01*
X79715475Y-35189619D02*
X79810713Y-35142000D01*
X79810713Y-35142000D02*
X79858332Y-35094380D01*
%TO.C,C3*%
X262116666Y-68542380D02*
X262164285Y-68590000D01*
X262164285Y-68590000D02*
X262307142Y-68637619D01*
X262307142Y-68637619D02*
X262402380Y-68637619D01*
X262402380Y-68637619D02*
X262545237Y-68590000D01*
X262545237Y-68590000D02*
X262640475Y-68494761D01*
X262640475Y-68494761D02*
X262688094Y-68399523D01*
X262688094Y-68399523D02*
X262735713Y-68209047D01*
X262735713Y-68209047D02*
X262735713Y-68066190D01*
X262735713Y-68066190D02*
X262688094Y-67875714D01*
X262688094Y-67875714D02*
X262640475Y-67780476D01*
X262640475Y-67780476D02*
X262545237Y-67685238D01*
X262545237Y-67685238D02*
X262402380Y-67637619D01*
X262402380Y-67637619D02*
X262307142Y-67637619D01*
X262307142Y-67637619D02*
X262164285Y-67685238D01*
X262164285Y-67685238D02*
X262116666Y-67732857D01*
X261783332Y-67637619D02*
X261164285Y-67637619D01*
X261164285Y-67637619D02*
X261497618Y-68018571D01*
X261497618Y-68018571D02*
X261354761Y-68018571D01*
X261354761Y-68018571D02*
X261259523Y-68066190D01*
X261259523Y-68066190D02*
X261211904Y-68113809D01*
X261211904Y-68113809D02*
X261164285Y-68209047D01*
X261164285Y-68209047D02*
X261164285Y-68447142D01*
X261164285Y-68447142D02*
X261211904Y-68542380D01*
X261211904Y-68542380D02*
X261259523Y-68590000D01*
X261259523Y-68590000D02*
X261354761Y-68637619D01*
X261354761Y-68637619D02*
X261640475Y-68637619D01*
X261640475Y-68637619D02*
X261735713Y-68590000D01*
X261735713Y-68590000D02*
X261783332Y-68542380D01*
%TO.C,D18*%
X119339285Y-54239619D02*
X119339285Y-53239619D01*
X119339285Y-53239619D02*
X119101190Y-53239619D01*
X119101190Y-53239619D02*
X118958333Y-53287238D01*
X118958333Y-53287238D02*
X118863095Y-53382476D01*
X118863095Y-53382476D02*
X118815476Y-53477714D01*
X118815476Y-53477714D02*
X118767857Y-53668190D01*
X118767857Y-53668190D02*
X118767857Y-53811047D01*
X118767857Y-53811047D02*
X118815476Y-54001523D01*
X118815476Y-54001523D02*
X118863095Y-54096761D01*
X118863095Y-54096761D02*
X118958333Y-54192000D01*
X118958333Y-54192000D02*
X119101190Y-54239619D01*
X119101190Y-54239619D02*
X119339285Y-54239619D01*
X117815476Y-54239619D02*
X118386904Y-54239619D01*
X118101190Y-54239619D02*
X118101190Y-53239619D01*
X118101190Y-53239619D02*
X118196428Y-53382476D01*
X118196428Y-53382476D02*
X118291666Y-53477714D01*
X118291666Y-53477714D02*
X118386904Y-53525333D01*
X117244047Y-53668190D02*
X117339285Y-53620571D01*
X117339285Y-53620571D02*
X117386904Y-53572952D01*
X117386904Y-53572952D02*
X117434523Y-53477714D01*
X117434523Y-53477714D02*
X117434523Y-53430095D01*
X117434523Y-53430095D02*
X117386904Y-53334857D01*
X117386904Y-53334857D02*
X117339285Y-53287238D01*
X117339285Y-53287238D02*
X117244047Y-53239619D01*
X117244047Y-53239619D02*
X117053571Y-53239619D01*
X117053571Y-53239619D02*
X116958333Y-53287238D01*
X116958333Y-53287238D02*
X116910714Y-53334857D01*
X116910714Y-53334857D02*
X116863095Y-53430095D01*
X116863095Y-53430095D02*
X116863095Y-53477714D01*
X116863095Y-53477714D02*
X116910714Y-53572952D01*
X116910714Y-53572952D02*
X116958333Y-53620571D01*
X116958333Y-53620571D02*
X117053571Y-53668190D01*
X117053571Y-53668190D02*
X117244047Y-53668190D01*
X117244047Y-53668190D02*
X117339285Y-53715809D01*
X117339285Y-53715809D02*
X117386904Y-53763428D01*
X117386904Y-53763428D02*
X117434523Y-53858666D01*
X117434523Y-53858666D02*
X117434523Y-54049142D01*
X117434523Y-54049142D02*
X117386904Y-54144380D01*
X117386904Y-54144380D02*
X117339285Y-54192000D01*
X117339285Y-54192000D02*
X117244047Y-54239619D01*
X117244047Y-54239619D02*
X117053571Y-54239619D01*
X117053571Y-54239619D02*
X116958333Y-54192000D01*
X116958333Y-54192000D02*
X116910714Y-54144380D01*
X116910714Y-54144380D02*
X116863095Y-54049142D01*
X116863095Y-54049142D02*
X116863095Y-53858666D01*
X116863095Y-53858666D02*
X116910714Y-53763428D01*
X116910714Y-53763428D02*
X116958333Y-53715809D01*
X116958333Y-53715809D02*
X117053571Y-53668190D01*
%TO.C,D28*%
X62189285Y-73314619D02*
X62189285Y-72314619D01*
X62189285Y-72314619D02*
X61951190Y-72314619D01*
X61951190Y-72314619D02*
X61808333Y-72362238D01*
X61808333Y-72362238D02*
X61713095Y-72457476D01*
X61713095Y-72457476D02*
X61665476Y-72552714D01*
X61665476Y-72552714D02*
X61617857Y-72743190D01*
X61617857Y-72743190D02*
X61617857Y-72886047D01*
X61617857Y-72886047D02*
X61665476Y-73076523D01*
X61665476Y-73076523D02*
X61713095Y-73171761D01*
X61713095Y-73171761D02*
X61808333Y-73267000D01*
X61808333Y-73267000D02*
X61951190Y-73314619D01*
X61951190Y-73314619D02*
X62189285Y-73314619D01*
X61236904Y-72409857D02*
X61189285Y-72362238D01*
X61189285Y-72362238D02*
X61094047Y-72314619D01*
X61094047Y-72314619D02*
X60855952Y-72314619D01*
X60855952Y-72314619D02*
X60760714Y-72362238D01*
X60760714Y-72362238D02*
X60713095Y-72409857D01*
X60713095Y-72409857D02*
X60665476Y-72505095D01*
X60665476Y-72505095D02*
X60665476Y-72600333D01*
X60665476Y-72600333D02*
X60713095Y-72743190D01*
X60713095Y-72743190D02*
X61284523Y-73314619D01*
X61284523Y-73314619D02*
X60665476Y-73314619D01*
X60094047Y-72743190D02*
X60189285Y-72695571D01*
X60189285Y-72695571D02*
X60236904Y-72647952D01*
X60236904Y-72647952D02*
X60284523Y-72552714D01*
X60284523Y-72552714D02*
X60284523Y-72505095D01*
X60284523Y-72505095D02*
X60236904Y-72409857D01*
X60236904Y-72409857D02*
X60189285Y-72362238D01*
X60189285Y-72362238D02*
X60094047Y-72314619D01*
X60094047Y-72314619D02*
X59903571Y-72314619D01*
X59903571Y-72314619D02*
X59808333Y-72362238D01*
X59808333Y-72362238D02*
X59760714Y-72409857D01*
X59760714Y-72409857D02*
X59713095Y-72505095D01*
X59713095Y-72505095D02*
X59713095Y-72552714D01*
X59713095Y-72552714D02*
X59760714Y-72647952D01*
X59760714Y-72647952D02*
X59808333Y-72695571D01*
X59808333Y-72695571D02*
X59903571Y-72743190D01*
X59903571Y-72743190D02*
X60094047Y-72743190D01*
X60094047Y-72743190D02*
X60189285Y-72790809D01*
X60189285Y-72790809D02*
X60236904Y-72838428D01*
X60236904Y-72838428D02*
X60284523Y-72933666D01*
X60284523Y-72933666D02*
X60284523Y-73124142D01*
X60284523Y-73124142D02*
X60236904Y-73219380D01*
X60236904Y-73219380D02*
X60189285Y-73267000D01*
X60189285Y-73267000D02*
X60094047Y-73314619D01*
X60094047Y-73314619D02*
X59903571Y-73314619D01*
X59903571Y-73314619D02*
X59808333Y-73267000D01*
X59808333Y-73267000D02*
X59760714Y-73219380D01*
X59760714Y-73219380D02*
X59713095Y-73124142D01*
X59713095Y-73124142D02*
X59713095Y-72933666D01*
X59713095Y-72933666D02*
X59760714Y-72838428D01*
X59760714Y-72838428D02*
X59808333Y-72790809D01*
X59808333Y-72790809D02*
X59903571Y-72743190D01*
%TO.C,D32*%
X138389285Y-73314619D02*
X138389285Y-72314619D01*
X138389285Y-72314619D02*
X138151190Y-72314619D01*
X138151190Y-72314619D02*
X138008333Y-72362238D01*
X138008333Y-72362238D02*
X137913095Y-72457476D01*
X137913095Y-72457476D02*
X137865476Y-72552714D01*
X137865476Y-72552714D02*
X137817857Y-72743190D01*
X137817857Y-72743190D02*
X137817857Y-72886047D01*
X137817857Y-72886047D02*
X137865476Y-73076523D01*
X137865476Y-73076523D02*
X137913095Y-73171761D01*
X137913095Y-73171761D02*
X138008333Y-73267000D01*
X138008333Y-73267000D02*
X138151190Y-73314619D01*
X138151190Y-73314619D02*
X138389285Y-73314619D01*
X137484523Y-72314619D02*
X136865476Y-72314619D01*
X136865476Y-72314619D02*
X137198809Y-72695571D01*
X137198809Y-72695571D02*
X137055952Y-72695571D01*
X137055952Y-72695571D02*
X136960714Y-72743190D01*
X136960714Y-72743190D02*
X136913095Y-72790809D01*
X136913095Y-72790809D02*
X136865476Y-72886047D01*
X136865476Y-72886047D02*
X136865476Y-73124142D01*
X136865476Y-73124142D02*
X136913095Y-73219380D01*
X136913095Y-73219380D02*
X136960714Y-73267000D01*
X136960714Y-73267000D02*
X137055952Y-73314619D01*
X137055952Y-73314619D02*
X137341666Y-73314619D01*
X137341666Y-73314619D02*
X137436904Y-73267000D01*
X137436904Y-73267000D02*
X137484523Y-73219380D01*
X136484523Y-72409857D02*
X136436904Y-72362238D01*
X136436904Y-72362238D02*
X136341666Y-72314619D01*
X136341666Y-72314619D02*
X136103571Y-72314619D01*
X136103571Y-72314619D02*
X136008333Y-72362238D01*
X136008333Y-72362238D02*
X135960714Y-72409857D01*
X135960714Y-72409857D02*
X135913095Y-72505095D01*
X135913095Y-72505095D02*
X135913095Y-72600333D01*
X135913095Y-72600333D02*
X135960714Y-72743190D01*
X135960714Y-72743190D02*
X136532142Y-73314619D01*
X136532142Y-73314619D02*
X135913095Y-73314619D01*
%TO.C,D5*%
X118863094Y-35189619D02*
X118863094Y-34189619D01*
X118863094Y-34189619D02*
X118624999Y-34189619D01*
X118624999Y-34189619D02*
X118482142Y-34237238D01*
X118482142Y-34237238D02*
X118386904Y-34332476D01*
X118386904Y-34332476D02*
X118339285Y-34427714D01*
X118339285Y-34427714D02*
X118291666Y-34618190D01*
X118291666Y-34618190D02*
X118291666Y-34761047D01*
X118291666Y-34761047D02*
X118339285Y-34951523D01*
X118339285Y-34951523D02*
X118386904Y-35046761D01*
X118386904Y-35046761D02*
X118482142Y-35142000D01*
X118482142Y-35142000D02*
X118624999Y-35189619D01*
X118624999Y-35189619D02*
X118863094Y-35189619D01*
X117386904Y-34189619D02*
X117863094Y-34189619D01*
X117863094Y-34189619D02*
X117910713Y-34665809D01*
X117910713Y-34665809D02*
X117863094Y-34618190D01*
X117863094Y-34618190D02*
X117767856Y-34570571D01*
X117767856Y-34570571D02*
X117529761Y-34570571D01*
X117529761Y-34570571D02*
X117434523Y-34618190D01*
X117434523Y-34618190D02*
X117386904Y-34665809D01*
X117386904Y-34665809D02*
X117339285Y-34761047D01*
X117339285Y-34761047D02*
X117339285Y-34999142D01*
X117339285Y-34999142D02*
X117386904Y-35094380D01*
X117386904Y-35094380D02*
X117434523Y-35142000D01*
X117434523Y-35142000D02*
X117529761Y-35189619D01*
X117529761Y-35189619D02*
X117767856Y-35189619D01*
X117767856Y-35189619D02*
X117863094Y-35142000D01*
X117863094Y-35142000D02*
X117910713Y-35094380D01*
%TO.C,D27*%
X43139285Y-73314619D02*
X43139285Y-72314619D01*
X43139285Y-72314619D02*
X42901190Y-72314619D01*
X42901190Y-72314619D02*
X42758333Y-72362238D01*
X42758333Y-72362238D02*
X42663095Y-72457476D01*
X42663095Y-72457476D02*
X42615476Y-72552714D01*
X42615476Y-72552714D02*
X42567857Y-72743190D01*
X42567857Y-72743190D02*
X42567857Y-72886047D01*
X42567857Y-72886047D02*
X42615476Y-73076523D01*
X42615476Y-73076523D02*
X42663095Y-73171761D01*
X42663095Y-73171761D02*
X42758333Y-73267000D01*
X42758333Y-73267000D02*
X42901190Y-73314619D01*
X42901190Y-73314619D02*
X43139285Y-73314619D01*
X42186904Y-72409857D02*
X42139285Y-72362238D01*
X42139285Y-72362238D02*
X42044047Y-72314619D01*
X42044047Y-72314619D02*
X41805952Y-72314619D01*
X41805952Y-72314619D02*
X41710714Y-72362238D01*
X41710714Y-72362238D02*
X41663095Y-72409857D01*
X41663095Y-72409857D02*
X41615476Y-72505095D01*
X41615476Y-72505095D02*
X41615476Y-72600333D01*
X41615476Y-72600333D02*
X41663095Y-72743190D01*
X41663095Y-72743190D02*
X42234523Y-73314619D01*
X42234523Y-73314619D02*
X41615476Y-73314619D01*
X41282142Y-72314619D02*
X40615476Y-72314619D01*
X40615476Y-72314619D02*
X41044047Y-73314619D01*
%TO.C,D48*%
X195539285Y-92314619D02*
X195539285Y-91314619D01*
X195539285Y-91314619D02*
X195301190Y-91314619D01*
X195301190Y-91314619D02*
X195158333Y-91362238D01*
X195158333Y-91362238D02*
X195063095Y-91457476D01*
X195063095Y-91457476D02*
X195015476Y-91552714D01*
X195015476Y-91552714D02*
X194967857Y-91743190D01*
X194967857Y-91743190D02*
X194967857Y-91886047D01*
X194967857Y-91886047D02*
X195015476Y-92076523D01*
X195015476Y-92076523D02*
X195063095Y-92171761D01*
X195063095Y-92171761D02*
X195158333Y-92267000D01*
X195158333Y-92267000D02*
X195301190Y-92314619D01*
X195301190Y-92314619D02*
X195539285Y-92314619D01*
X194110714Y-91647952D02*
X194110714Y-92314619D01*
X194348809Y-91267000D02*
X194586904Y-91981285D01*
X194586904Y-91981285D02*
X193967857Y-91981285D01*
X193444047Y-91743190D02*
X193539285Y-91695571D01*
X193539285Y-91695571D02*
X193586904Y-91647952D01*
X193586904Y-91647952D02*
X193634523Y-91552714D01*
X193634523Y-91552714D02*
X193634523Y-91505095D01*
X193634523Y-91505095D02*
X193586904Y-91409857D01*
X193586904Y-91409857D02*
X193539285Y-91362238D01*
X193539285Y-91362238D02*
X193444047Y-91314619D01*
X193444047Y-91314619D02*
X193253571Y-91314619D01*
X193253571Y-91314619D02*
X193158333Y-91362238D01*
X193158333Y-91362238D02*
X193110714Y-91409857D01*
X193110714Y-91409857D02*
X193063095Y-91505095D01*
X193063095Y-91505095D02*
X193063095Y-91552714D01*
X193063095Y-91552714D02*
X193110714Y-91647952D01*
X193110714Y-91647952D02*
X193158333Y-91695571D01*
X193158333Y-91695571D02*
X193253571Y-91743190D01*
X193253571Y-91743190D02*
X193444047Y-91743190D01*
X193444047Y-91743190D02*
X193539285Y-91790809D01*
X193539285Y-91790809D02*
X193586904Y-91838428D01*
X193586904Y-91838428D02*
X193634523Y-91933666D01*
X193634523Y-91933666D02*
X193634523Y-92124142D01*
X193634523Y-92124142D02*
X193586904Y-92219380D01*
X193586904Y-92219380D02*
X193539285Y-92267000D01*
X193539285Y-92267000D02*
X193444047Y-92314619D01*
X193444047Y-92314619D02*
X193253571Y-92314619D01*
X193253571Y-92314619D02*
X193158333Y-92267000D01*
X193158333Y-92267000D02*
X193110714Y-92219380D01*
X193110714Y-92219380D02*
X193063095Y-92124142D01*
X193063095Y-92124142D02*
X193063095Y-91933666D01*
X193063095Y-91933666D02*
X193110714Y-91838428D01*
X193110714Y-91838428D02*
X193158333Y-91790809D01*
X193158333Y-91790809D02*
X193253571Y-91743190D01*
%TO.C,D34*%
X176489285Y-73314619D02*
X176489285Y-72314619D01*
X176489285Y-72314619D02*
X176251190Y-72314619D01*
X176251190Y-72314619D02*
X176108333Y-72362238D01*
X176108333Y-72362238D02*
X176013095Y-72457476D01*
X176013095Y-72457476D02*
X175965476Y-72552714D01*
X175965476Y-72552714D02*
X175917857Y-72743190D01*
X175917857Y-72743190D02*
X175917857Y-72886047D01*
X175917857Y-72886047D02*
X175965476Y-73076523D01*
X175965476Y-73076523D02*
X176013095Y-73171761D01*
X176013095Y-73171761D02*
X176108333Y-73267000D01*
X176108333Y-73267000D02*
X176251190Y-73314619D01*
X176251190Y-73314619D02*
X176489285Y-73314619D01*
X175584523Y-72314619D02*
X174965476Y-72314619D01*
X174965476Y-72314619D02*
X175298809Y-72695571D01*
X175298809Y-72695571D02*
X175155952Y-72695571D01*
X175155952Y-72695571D02*
X175060714Y-72743190D01*
X175060714Y-72743190D02*
X175013095Y-72790809D01*
X175013095Y-72790809D02*
X174965476Y-72886047D01*
X174965476Y-72886047D02*
X174965476Y-73124142D01*
X174965476Y-73124142D02*
X175013095Y-73219380D01*
X175013095Y-73219380D02*
X175060714Y-73267000D01*
X175060714Y-73267000D02*
X175155952Y-73314619D01*
X175155952Y-73314619D02*
X175441666Y-73314619D01*
X175441666Y-73314619D02*
X175536904Y-73267000D01*
X175536904Y-73267000D02*
X175584523Y-73219380D01*
X174108333Y-72647952D02*
X174108333Y-73314619D01*
X174346428Y-72267000D02*
X174584523Y-72981285D01*
X174584523Y-72981285D02*
X173965476Y-72981285D01*
%TO.C,D20*%
X157439285Y-54239619D02*
X157439285Y-53239619D01*
X157439285Y-53239619D02*
X157201190Y-53239619D01*
X157201190Y-53239619D02*
X157058333Y-53287238D01*
X157058333Y-53287238D02*
X156963095Y-53382476D01*
X156963095Y-53382476D02*
X156915476Y-53477714D01*
X156915476Y-53477714D02*
X156867857Y-53668190D01*
X156867857Y-53668190D02*
X156867857Y-53811047D01*
X156867857Y-53811047D02*
X156915476Y-54001523D01*
X156915476Y-54001523D02*
X156963095Y-54096761D01*
X156963095Y-54096761D02*
X157058333Y-54192000D01*
X157058333Y-54192000D02*
X157201190Y-54239619D01*
X157201190Y-54239619D02*
X157439285Y-54239619D01*
X156486904Y-53334857D02*
X156439285Y-53287238D01*
X156439285Y-53287238D02*
X156344047Y-53239619D01*
X156344047Y-53239619D02*
X156105952Y-53239619D01*
X156105952Y-53239619D02*
X156010714Y-53287238D01*
X156010714Y-53287238D02*
X155963095Y-53334857D01*
X155963095Y-53334857D02*
X155915476Y-53430095D01*
X155915476Y-53430095D02*
X155915476Y-53525333D01*
X155915476Y-53525333D02*
X155963095Y-53668190D01*
X155963095Y-53668190D02*
X156534523Y-54239619D01*
X156534523Y-54239619D02*
X155915476Y-54239619D01*
X155296428Y-53239619D02*
X155201190Y-53239619D01*
X155201190Y-53239619D02*
X155105952Y-53287238D01*
X155105952Y-53287238D02*
X155058333Y-53334857D01*
X155058333Y-53334857D02*
X155010714Y-53430095D01*
X155010714Y-53430095D02*
X154963095Y-53620571D01*
X154963095Y-53620571D02*
X154963095Y-53858666D01*
X154963095Y-53858666D02*
X155010714Y-54049142D01*
X155010714Y-54049142D02*
X155058333Y-54144380D01*
X155058333Y-54144380D02*
X155105952Y-54192000D01*
X155105952Y-54192000D02*
X155201190Y-54239619D01*
X155201190Y-54239619D02*
X155296428Y-54239619D01*
X155296428Y-54239619D02*
X155391666Y-54192000D01*
X155391666Y-54192000D02*
X155439285Y-54144380D01*
X155439285Y-54144380D02*
X155486904Y-54049142D01*
X155486904Y-54049142D02*
X155534523Y-53858666D01*
X155534523Y-53858666D02*
X155534523Y-53620571D01*
X155534523Y-53620571D02*
X155486904Y-53430095D01*
X155486904Y-53430095D02*
X155439285Y-53334857D01*
X155439285Y-53334857D02*
X155391666Y-53287238D01*
X155391666Y-53287238D02*
X155296428Y-53239619D01*
%TO.C,J3*%
X220643333Y-37012619D02*
X220643333Y-37726904D01*
X220643333Y-37726904D02*
X220690952Y-37869761D01*
X220690952Y-37869761D02*
X220786190Y-37965000D01*
X220786190Y-37965000D02*
X220929047Y-38012619D01*
X220929047Y-38012619D02*
X221024285Y-38012619D01*
X220262380Y-37012619D02*
X219643333Y-37012619D01*
X219643333Y-37012619D02*
X219976666Y-37393571D01*
X219976666Y-37393571D02*
X219833809Y-37393571D01*
X219833809Y-37393571D02*
X219738571Y-37441190D01*
X219738571Y-37441190D02*
X219690952Y-37488809D01*
X219690952Y-37488809D02*
X219643333Y-37584047D01*
X219643333Y-37584047D02*
X219643333Y-37822142D01*
X219643333Y-37822142D02*
X219690952Y-37917380D01*
X219690952Y-37917380D02*
X219738571Y-37965000D01*
X219738571Y-37965000D02*
X219833809Y-38012619D01*
X219833809Y-38012619D02*
X220119523Y-38012619D01*
X220119523Y-38012619D02*
X220214761Y-37965000D01*
X220214761Y-37965000D02*
X220262380Y-37917380D01*
%TO.C,D19*%
X138389285Y-54239619D02*
X138389285Y-53239619D01*
X138389285Y-53239619D02*
X138151190Y-53239619D01*
X138151190Y-53239619D02*
X138008333Y-53287238D01*
X138008333Y-53287238D02*
X137913095Y-53382476D01*
X137913095Y-53382476D02*
X137865476Y-53477714D01*
X137865476Y-53477714D02*
X137817857Y-53668190D01*
X137817857Y-53668190D02*
X137817857Y-53811047D01*
X137817857Y-53811047D02*
X137865476Y-54001523D01*
X137865476Y-54001523D02*
X137913095Y-54096761D01*
X137913095Y-54096761D02*
X138008333Y-54192000D01*
X138008333Y-54192000D02*
X138151190Y-54239619D01*
X138151190Y-54239619D02*
X138389285Y-54239619D01*
X136865476Y-54239619D02*
X137436904Y-54239619D01*
X137151190Y-54239619D02*
X137151190Y-53239619D01*
X137151190Y-53239619D02*
X137246428Y-53382476D01*
X137246428Y-53382476D02*
X137341666Y-53477714D01*
X137341666Y-53477714D02*
X137436904Y-53525333D01*
X136389285Y-54239619D02*
X136198809Y-54239619D01*
X136198809Y-54239619D02*
X136103571Y-54192000D01*
X136103571Y-54192000D02*
X136055952Y-54144380D01*
X136055952Y-54144380D02*
X135960714Y-54001523D01*
X135960714Y-54001523D02*
X135913095Y-53811047D01*
X135913095Y-53811047D02*
X135913095Y-53430095D01*
X135913095Y-53430095D02*
X135960714Y-53334857D01*
X135960714Y-53334857D02*
X136008333Y-53287238D01*
X136008333Y-53287238D02*
X136103571Y-53239619D01*
X136103571Y-53239619D02*
X136294047Y-53239619D01*
X136294047Y-53239619D02*
X136389285Y-53287238D01*
X136389285Y-53287238D02*
X136436904Y-53334857D01*
X136436904Y-53334857D02*
X136484523Y-53430095D01*
X136484523Y-53430095D02*
X136484523Y-53668190D01*
X136484523Y-53668190D02*
X136436904Y-53763428D01*
X136436904Y-53763428D02*
X136389285Y-53811047D01*
X136389285Y-53811047D02*
X136294047Y-53858666D01*
X136294047Y-53858666D02*
X136103571Y-53858666D01*
X136103571Y-53858666D02*
X136008333Y-53811047D01*
X136008333Y-53811047D02*
X135960714Y-53763428D01*
X135960714Y-53763428D02*
X135913095Y-53668190D01*
%TO.C,R1*%
X254266666Y-68587619D02*
X254599999Y-68111428D01*
X254838094Y-68587619D02*
X254838094Y-67587619D01*
X254838094Y-67587619D02*
X254457142Y-67587619D01*
X254457142Y-67587619D02*
X254361904Y-67635238D01*
X254361904Y-67635238D02*
X254314285Y-67682857D01*
X254314285Y-67682857D02*
X254266666Y-67778095D01*
X254266666Y-67778095D02*
X254266666Y-67920952D01*
X254266666Y-67920952D02*
X254314285Y-68016190D01*
X254314285Y-68016190D02*
X254361904Y-68063809D01*
X254361904Y-68063809D02*
X254457142Y-68111428D01*
X254457142Y-68111428D02*
X254838094Y-68111428D01*
X253314285Y-68587619D02*
X253885713Y-68587619D01*
X253599999Y-68587619D02*
X253599999Y-67587619D01*
X253599999Y-67587619D02*
X253695237Y-67730476D01*
X253695237Y-67730476D02*
X253790475Y-67825714D01*
X253790475Y-67825714D02*
X253885713Y-67873333D01*
%TO.C,J5*%
X254612380Y-91987904D02*
X255612380Y-91987904D01*
X255612380Y-91987904D02*
X255612380Y-91606952D01*
X255612380Y-91606952D02*
X255564761Y-91511714D01*
X255564761Y-91511714D02*
X255517142Y-91464095D01*
X255517142Y-91464095D02*
X255421904Y-91416476D01*
X255421904Y-91416476D02*
X255279047Y-91416476D01*
X255279047Y-91416476D02*
X255183809Y-91464095D01*
X255183809Y-91464095D02*
X255136190Y-91511714D01*
X255136190Y-91511714D02*
X255088571Y-91606952D01*
X255088571Y-91606952D02*
X255088571Y-91987904D01*
X254612380Y-90987904D02*
X255612380Y-90987904D01*
X255612380Y-90987904D02*
X255612380Y-90749809D01*
X255612380Y-90749809D02*
X255564761Y-90606952D01*
X255564761Y-90606952D02*
X255469523Y-90511714D01*
X255469523Y-90511714D02*
X255374285Y-90464095D01*
X255374285Y-90464095D02*
X255183809Y-90416476D01*
X255183809Y-90416476D02*
X255040952Y-90416476D01*
X255040952Y-90416476D02*
X254850476Y-90464095D01*
X254850476Y-90464095D02*
X254755238Y-90511714D01*
X254755238Y-90511714D02*
X254660000Y-90606952D01*
X254660000Y-90606952D02*
X254612380Y-90749809D01*
X254612380Y-90749809D02*
X254612380Y-90987904D01*
X255612380Y-89559333D02*
X255612380Y-89749809D01*
X255612380Y-89749809D02*
X255564761Y-89845047D01*
X255564761Y-89845047D02*
X255517142Y-89892666D01*
X255517142Y-89892666D02*
X255374285Y-89987904D01*
X255374285Y-89987904D02*
X255183809Y-90035523D01*
X255183809Y-90035523D02*
X254802857Y-90035523D01*
X254802857Y-90035523D02*
X254707619Y-89987904D01*
X254707619Y-89987904D02*
X254660000Y-89940285D01*
X254660000Y-89940285D02*
X254612380Y-89845047D01*
X254612380Y-89845047D02*
X254612380Y-89654571D01*
X254612380Y-89654571D02*
X254660000Y-89559333D01*
X254660000Y-89559333D02*
X254707619Y-89511714D01*
X254707619Y-89511714D02*
X254802857Y-89464095D01*
X254802857Y-89464095D02*
X255040952Y-89464095D01*
X255040952Y-89464095D02*
X255136190Y-89511714D01*
X255136190Y-89511714D02*
X255183809Y-89559333D01*
X255183809Y-89559333D02*
X255231428Y-89654571D01*
X255231428Y-89654571D02*
X255231428Y-89845047D01*
X255231428Y-89845047D02*
X255183809Y-89940285D01*
X255183809Y-89940285D02*
X255136190Y-89987904D01*
X255136190Y-89987904D02*
X255040952Y-90035523D01*
X264772380Y-91987904D02*
X265772380Y-91987904D01*
X265772380Y-91987904D02*
X265772380Y-91606952D01*
X265772380Y-91606952D02*
X265724761Y-91511714D01*
X265724761Y-91511714D02*
X265677142Y-91464095D01*
X265677142Y-91464095D02*
X265581904Y-91416476D01*
X265581904Y-91416476D02*
X265439047Y-91416476D01*
X265439047Y-91416476D02*
X265343809Y-91464095D01*
X265343809Y-91464095D02*
X265296190Y-91511714D01*
X265296190Y-91511714D02*
X265248571Y-91606952D01*
X265248571Y-91606952D02*
X265248571Y-91987904D01*
X264772380Y-90987904D02*
X265772380Y-90987904D01*
X265772380Y-90987904D02*
X265772380Y-90749809D01*
X265772380Y-90749809D02*
X265724761Y-90606952D01*
X265724761Y-90606952D02*
X265629523Y-90511714D01*
X265629523Y-90511714D02*
X265534285Y-90464095D01*
X265534285Y-90464095D02*
X265343809Y-90416476D01*
X265343809Y-90416476D02*
X265200952Y-90416476D01*
X265200952Y-90416476D02*
X265010476Y-90464095D01*
X265010476Y-90464095D02*
X264915238Y-90511714D01*
X264915238Y-90511714D02*
X264820000Y-90606952D01*
X264820000Y-90606952D02*
X264772380Y-90749809D01*
X264772380Y-90749809D02*
X264772380Y-90987904D01*
X265677142Y-90035523D02*
X265724761Y-89987904D01*
X265724761Y-89987904D02*
X265772380Y-89892666D01*
X265772380Y-89892666D02*
X265772380Y-89654571D01*
X265772380Y-89654571D02*
X265724761Y-89559333D01*
X265724761Y-89559333D02*
X265677142Y-89511714D01*
X265677142Y-89511714D02*
X265581904Y-89464095D01*
X265581904Y-89464095D02*
X265486666Y-89464095D01*
X265486666Y-89464095D02*
X265343809Y-89511714D01*
X265343809Y-89511714D02*
X264772380Y-90083142D01*
X264772380Y-90083142D02*
X264772380Y-89464095D01*
X257152380Y-91987904D02*
X258152380Y-91987904D01*
X258152380Y-91987904D02*
X258152380Y-91606952D01*
X258152380Y-91606952D02*
X258104761Y-91511714D01*
X258104761Y-91511714D02*
X258057142Y-91464095D01*
X258057142Y-91464095D02*
X257961904Y-91416476D01*
X257961904Y-91416476D02*
X257819047Y-91416476D01*
X257819047Y-91416476D02*
X257723809Y-91464095D01*
X257723809Y-91464095D02*
X257676190Y-91511714D01*
X257676190Y-91511714D02*
X257628571Y-91606952D01*
X257628571Y-91606952D02*
X257628571Y-91987904D01*
X257152380Y-90987904D02*
X258152380Y-90987904D01*
X258152380Y-90987904D02*
X258152380Y-90749809D01*
X258152380Y-90749809D02*
X258104761Y-90606952D01*
X258104761Y-90606952D02*
X258009523Y-90511714D01*
X258009523Y-90511714D02*
X257914285Y-90464095D01*
X257914285Y-90464095D02*
X257723809Y-90416476D01*
X257723809Y-90416476D02*
X257580952Y-90416476D01*
X257580952Y-90416476D02*
X257390476Y-90464095D01*
X257390476Y-90464095D02*
X257295238Y-90511714D01*
X257295238Y-90511714D02*
X257200000Y-90606952D01*
X257200000Y-90606952D02*
X257152380Y-90749809D01*
X257152380Y-90749809D02*
X257152380Y-90987904D01*
X257819047Y-89559333D02*
X257152380Y-89559333D01*
X258200000Y-89797428D02*
X257485714Y-90035523D01*
X257485714Y-90035523D02*
X257485714Y-89416476D01*
X259692380Y-91987904D02*
X260692380Y-91987904D01*
X260692380Y-91987904D02*
X260692380Y-91606952D01*
X260692380Y-91606952D02*
X260644761Y-91511714D01*
X260644761Y-91511714D02*
X260597142Y-91464095D01*
X260597142Y-91464095D02*
X260501904Y-91416476D01*
X260501904Y-91416476D02*
X260359047Y-91416476D01*
X260359047Y-91416476D02*
X260263809Y-91464095D01*
X260263809Y-91464095D02*
X260216190Y-91511714D01*
X260216190Y-91511714D02*
X260168571Y-91606952D01*
X260168571Y-91606952D02*
X260168571Y-91987904D01*
X259692380Y-90987904D02*
X260692380Y-90987904D01*
X260692380Y-90987904D02*
X260692380Y-90749809D01*
X260692380Y-90749809D02*
X260644761Y-90606952D01*
X260644761Y-90606952D02*
X260549523Y-90511714D01*
X260549523Y-90511714D02*
X260454285Y-90464095D01*
X260454285Y-90464095D02*
X260263809Y-90416476D01*
X260263809Y-90416476D02*
X260120952Y-90416476D01*
X260120952Y-90416476D02*
X259930476Y-90464095D01*
X259930476Y-90464095D02*
X259835238Y-90511714D01*
X259835238Y-90511714D02*
X259740000Y-90606952D01*
X259740000Y-90606952D02*
X259692380Y-90749809D01*
X259692380Y-90749809D02*
X259692380Y-90987904D01*
X260692380Y-89511714D02*
X260692380Y-89987904D01*
X260692380Y-89987904D02*
X260216190Y-90035523D01*
X260216190Y-90035523D02*
X260263809Y-89987904D01*
X260263809Y-89987904D02*
X260311428Y-89892666D01*
X260311428Y-89892666D02*
X260311428Y-89654571D01*
X260311428Y-89654571D02*
X260263809Y-89559333D01*
X260263809Y-89559333D02*
X260216190Y-89511714D01*
X260216190Y-89511714D02*
X260120952Y-89464095D01*
X260120952Y-89464095D02*
X259882857Y-89464095D01*
X259882857Y-89464095D02*
X259787619Y-89511714D01*
X259787619Y-89511714D02*
X259740000Y-89559333D01*
X259740000Y-89559333D02*
X259692380Y-89654571D01*
X259692380Y-89654571D02*
X259692380Y-89892666D01*
X259692380Y-89892666D02*
X259740000Y-89987904D01*
X259740000Y-89987904D02*
X259787619Y-90035523D01*
X262232380Y-91987904D02*
X263232380Y-91987904D01*
X263232380Y-91987904D02*
X263232380Y-91606952D01*
X263232380Y-91606952D02*
X263184761Y-91511714D01*
X263184761Y-91511714D02*
X263137142Y-91464095D01*
X263137142Y-91464095D02*
X263041904Y-91416476D01*
X263041904Y-91416476D02*
X262899047Y-91416476D01*
X262899047Y-91416476D02*
X262803809Y-91464095D01*
X262803809Y-91464095D02*
X262756190Y-91511714D01*
X262756190Y-91511714D02*
X262708571Y-91606952D01*
X262708571Y-91606952D02*
X262708571Y-91987904D01*
X262232380Y-90987904D02*
X263232380Y-90987904D01*
X263232380Y-90987904D02*
X263232380Y-90749809D01*
X263232380Y-90749809D02*
X263184761Y-90606952D01*
X263184761Y-90606952D02*
X263089523Y-90511714D01*
X263089523Y-90511714D02*
X262994285Y-90464095D01*
X262994285Y-90464095D02*
X262803809Y-90416476D01*
X262803809Y-90416476D02*
X262660952Y-90416476D01*
X262660952Y-90416476D02*
X262470476Y-90464095D01*
X262470476Y-90464095D02*
X262375238Y-90511714D01*
X262375238Y-90511714D02*
X262280000Y-90606952D01*
X262280000Y-90606952D02*
X262232380Y-90749809D01*
X262232380Y-90749809D02*
X262232380Y-90987904D01*
X263232380Y-90083142D02*
X263232380Y-89464095D01*
X263232380Y-89464095D02*
X262851428Y-89797428D01*
X262851428Y-89797428D02*
X262851428Y-89654571D01*
X262851428Y-89654571D02*
X262803809Y-89559333D01*
X262803809Y-89559333D02*
X262756190Y-89511714D01*
X262756190Y-89511714D02*
X262660952Y-89464095D01*
X262660952Y-89464095D02*
X262422857Y-89464095D01*
X262422857Y-89464095D02*
X262327619Y-89511714D01*
X262327619Y-89511714D02*
X262280000Y-89559333D01*
X262280000Y-89559333D02*
X262232380Y-89654571D01*
X262232380Y-89654571D02*
X262232380Y-89940285D01*
X262232380Y-89940285D02*
X262280000Y-90035523D01*
X262280000Y-90035523D02*
X262327619Y-90083142D01*
X272392380Y-91987904D02*
X273392380Y-91987904D01*
X273392380Y-91987904D02*
X273392380Y-91606952D01*
X273392380Y-91606952D02*
X273344761Y-91511714D01*
X273344761Y-91511714D02*
X273297142Y-91464095D01*
X273297142Y-91464095D02*
X273201904Y-91416476D01*
X273201904Y-91416476D02*
X273059047Y-91416476D01*
X273059047Y-91416476D02*
X272963809Y-91464095D01*
X272963809Y-91464095D02*
X272916190Y-91511714D01*
X272916190Y-91511714D02*
X272868571Y-91606952D01*
X272868571Y-91606952D02*
X272868571Y-91987904D01*
X272392380Y-90987904D02*
X273392380Y-90987904D01*
X273392380Y-90987904D02*
X273392380Y-90749809D01*
X273392380Y-90749809D02*
X273344761Y-90606952D01*
X273344761Y-90606952D02*
X273249523Y-90511714D01*
X273249523Y-90511714D02*
X273154285Y-90464095D01*
X273154285Y-90464095D02*
X272963809Y-90416476D01*
X272963809Y-90416476D02*
X272820952Y-90416476D01*
X272820952Y-90416476D02*
X272630476Y-90464095D01*
X272630476Y-90464095D02*
X272535238Y-90511714D01*
X272535238Y-90511714D02*
X272440000Y-90606952D01*
X272440000Y-90606952D02*
X272392380Y-90749809D01*
X272392380Y-90749809D02*
X272392380Y-90987904D01*
X273392380Y-90083142D02*
X273392380Y-89416476D01*
X273392380Y-89416476D02*
X272392380Y-89845047D01*
X267312380Y-91987904D02*
X268312380Y-91987904D01*
X268312380Y-91987904D02*
X268312380Y-91606952D01*
X268312380Y-91606952D02*
X268264761Y-91511714D01*
X268264761Y-91511714D02*
X268217142Y-91464095D01*
X268217142Y-91464095D02*
X268121904Y-91416476D01*
X268121904Y-91416476D02*
X267979047Y-91416476D01*
X267979047Y-91416476D02*
X267883809Y-91464095D01*
X267883809Y-91464095D02*
X267836190Y-91511714D01*
X267836190Y-91511714D02*
X267788571Y-91606952D01*
X267788571Y-91606952D02*
X267788571Y-91987904D01*
X267312380Y-90987904D02*
X268312380Y-90987904D01*
X268312380Y-90987904D02*
X268312380Y-90749809D01*
X268312380Y-90749809D02*
X268264761Y-90606952D01*
X268264761Y-90606952D02*
X268169523Y-90511714D01*
X268169523Y-90511714D02*
X268074285Y-90464095D01*
X268074285Y-90464095D02*
X267883809Y-90416476D01*
X267883809Y-90416476D02*
X267740952Y-90416476D01*
X267740952Y-90416476D02*
X267550476Y-90464095D01*
X267550476Y-90464095D02*
X267455238Y-90511714D01*
X267455238Y-90511714D02*
X267360000Y-90606952D01*
X267360000Y-90606952D02*
X267312380Y-90749809D01*
X267312380Y-90749809D02*
X267312380Y-90987904D01*
X267312380Y-89464095D02*
X267312380Y-90035523D01*
X267312380Y-89749809D02*
X268312380Y-89749809D01*
X268312380Y-89749809D02*
X268169523Y-89845047D01*
X268169523Y-89845047D02*
X268074285Y-89940285D01*
X268074285Y-89940285D02*
X268026666Y-90035523D01*
X269852380Y-91987904D02*
X270852380Y-91987904D01*
X270852380Y-91987904D02*
X270852380Y-91606952D01*
X270852380Y-91606952D02*
X270804761Y-91511714D01*
X270804761Y-91511714D02*
X270757142Y-91464095D01*
X270757142Y-91464095D02*
X270661904Y-91416476D01*
X270661904Y-91416476D02*
X270519047Y-91416476D01*
X270519047Y-91416476D02*
X270423809Y-91464095D01*
X270423809Y-91464095D02*
X270376190Y-91511714D01*
X270376190Y-91511714D02*
X270328571Y-91606952D01*
X270328571Y-91606952D02*
X270328571Y-91987904D01*
X269852380Y-90987904D02*
X270852380Y-90987904D01*
X270852380Y-90987904D02*
X270852380Y-90749809D01*
X270852380Y-90749809D02*
X270804761Y-90606952D01*
X270804761Y-90606952D02*
X270709523Y-90511714D01*
X270709523Y-90511714D02*
X270614285Y-90464095D01*
X270614285Y-90464095D02*
X270423809Y-90416476D01*
X270423809Y-90416476D02*
X270280952Y-90416476D01*
X270280952Y-90416476D02*
X270090476Y-90464095D01*
X270090476Y-90464095D02*
X269995238Y-90511714D01*
X269995238Y-90511714D02*
X269900000Y-90606952D01*
X269900000Y-90606952D02*
X269852380Y-90749809D01*
X269852380Y-90749809D02*
X269852380Y-90987904D01*
X270852380Y-89797428D02*
X270852380Y-89702190D01*
X270852380Y-89702190D02*
X270804761Y-89606952D01*
X270804761Y-89606952D02*
X270757142Y-89559333D01*
X270757142Y-89559333D02*
X270661904Y-89511714D01*
X270661904Y-89511714D02*
X270471428Y-89464095D01*
X270471428Y-89464095D02*
X270233333Y-89464095D01*
X270233333Y-89464095D02*
X270042857Y-89511714D01*
X270042857Y-89511714D02*
X269947619Y-89559333D01*
X269947619Y-89559333D02*
X269900000Y-89606952D01*
X269900000Y-89606952D02*
X269852380Y-89702190D01*
X269852380Y-89702190D02*
X269852380Y-89797428D01*
X269852380Y-89797428D02*
X269900000Y-89892666D01*
X269900000Y-89892666D02*
X269947619Y-89940285D01*
X269947619Y-89940285D02*
X270042857Y-89987904D01*
X270042857Y-89987904D02*
X270233333Y-90035523D01*
X270233333Y-90035523D02*
X270471428Y-90035523D01*
X270471428Y-90035523D02*
X270661904Y-89987904D01*
X270661904Y-89987904D02*
X270757142Y-89940285D01*
X270757142Y-89940285D02*
X270804761Y-89892666D01*
X270804761Y-89892666D02*
X270852380Y-89797428D01*
%TO.C,D6*%
X137913094Y-35189619D02*
X137913094Y-34189619D01*
X137913094Y-34189619D02*
X137674999Y-34189619D01*
X137674999Y-34189619D02*
X137532142Y-34237238D01*
X137532142Y-34237238D02*
X137436904Y-34332476D01*
X137436904Y-34332476D02*
X137389285Y-34427714D01*
X137389285Y-34427714D02*
X137341666Y-34618190D01*
X137341666Y-34618190D02*
X137341666Y-34761047D01*
X137341666Y-34761047D02*
X137389285Y-34951523D01*
X137389285Y-34951523D02*
X137436904Y-35046761D01*
X137436904Y-35046761D02*
X137532142Y-35142000D01*
X137532142Y-35142000D02*
X137674999Y-35189619D01*
X137674999Y-35189619D02*
X137913094Y-35189619D01*
X136484523Y-34189619D02*
X136674999Y-34189619D01*
X136674999Y-34189619D02*
X136770237Y-34237238D01*
X136770237Y-34237238D02*
X136817856Y-34284857D01*
X136817856Y-34284857D02*
X136913094Y-34427714D01*
X136913094Y-34427714D02*
X136960713Y-34618190D01*
X136960713Y-34618190D02*
X136960713Y-34999142D01*
X136960713Y-34999142D02*
X136913094Y-35094380D01*
X136913094Y-35094380D02*
X136865475Y-35142000D01*
X136865475Y-35142000D02*
X136770237Y-35189619D01*
X136770237Y-35189619D02*
X136579761Y-35189619D01*
X136579761Y-35189619D02*
X136484523Y-35142000D01*
X136484523Y-35142000D02*
X136436904Y-35094380D01*
X136436904Y-35094380D02*
X136389285Y-34999142D01*
X136389285Y-34999142D02*
X136389285Y-34761047D01*
X136389285Y-34761047D02*
X136436904Y-34665809D01*
X136436904Y-34665809D02*
X136484523Y-34618190D01*
X136484523Y-34618190D02*
X136579761Y-34570571D01*
X136579761Y-34570571D02*
X136770237Y-34570571D01*
X136770237Y-34570571D02*
X136865475Y-34618190D01*
X136865475Y-34618190D02*
X136913094Y-34665809D01*
X136913094Y-34665809D02*
X136960713Y-34761047D01*
%TO.C,D12*%
X252689285Y-35189619D02*
X252689285Y-34189619D01*
X252689285Y-34189619D02*
X252451190Y-34189619D01*
X252451190Y-34189619D02*
X252308333Y-34237238D01*
X252308333Y-34237238D02*
X252213095Y-34332476D01*
X252213095Y-34332476D02*
X252165476Y-34427714D01*
X252165476Y-34427714D02*
X252117857Y-34618190D01*
X252117857Y-34618190D02*
X252117857Y-34761047D01*
X252117857Y-34761047D02*
X252165476Y-34951523D01*
X252165476Y-34951523D02*
X252213095Y-35046761D01*
X252213095Y-35046761D02*
X252308333Y-35142000D01*
X252308333Y-35142000D02*
X252451190Y-35189619D01*
X252451190Y-35189619D02*
X252689285Y-35189619D01*
X251165476Y-35189619D02*
X251736904Y-35189619D01*
X251451190Y-35189619D02*
X251451190Y-34189619D01*
X251451190Y-34189619D02*
X251546428Y-34332476D01*
X251546428Y-34332476D02*
X251641666Y-34427714D01*
X251641666Y-34427714D02*
X251736904Y-34475333D01*
X250784523Y-34284857D02*
X250736904Y-34237238D01*
X250736904Y-34237238D02*
X250641666Y-34189619D01*
X250641666Y-34189619D02*
X250403571Y-34189619D01*
X250403571Y-34189619D02*
X250308333Y-34237238D01*
X250308333Y-34237238D02*
X250260714Y-34284857D01*
X250260714Y-34284857D02*
X250213095Y-34380095D01*
X250213095Y-34380095D02*
X250213095Y-34475333D01*
X250213095Y-34475333D02*
X250260714Y-34618190D01*
X250260714Y-34618190D02*
X250832142Y-35189619D01*
X250832142Y-35189619D02*
X250213095Y-35189619D01*
%TO.C,D30*%
X100289285Y-73314619D02*
X100289285Y-72314619D01*
X100289285Y-72314619D02*
X100051190Y-72314619D01*
X100051190Y-72314619D02*
X99908333Y-72362238D01*
X99908333Y-72362238D02*
X99813095Y-72457476D01*
X99813095Y-72457476D02*
X99765476Y-72552714D01*
X99765476Y-72552714D02*
X99717857Y-72743190D01*
X99717857Y-72743190D02*
X99717857Y-72886047D01*
X99717857Y-72886047D02*
X99765476Y-73076523D01*
X99765476Y-73076523D02*
X99813095Y-73171761D01*
X99813095Y-73171761D02*
X99908333Y-73267000D01*
X99908333Y-73267000D02*
X100051190Y-73314619D01*
X100051190Y-73314619D02*
X100289285Y-73314619D01*
X99384523Y-72314619D02*
X98765476Y-72314619D01*
X98765476Y-72314619D02*
X99098809Y-72695571D01*
X99098809Y-72695571D02*
X98955952Y-72695571D01*
X98955952Y-72695571D02*
X98860714Y-72743190D01*
X98860714Y-72743190D02*
X98813095Y-72790809D01*
X98813095Y-72790809D02*
X98765476Y-72886047D01*
X98765476Y-72886047D02*
X98765476Y-73124142D01*
X98765476Y-73124142D02*
X98813095Y-73219380D01*
X98813095Y-73219380D02*
X98860714Y-73267000D01*
X98860714Y-73267000D02*
X98955952Y-73314619D01*
X98955952Y-73314619D02*
X99241666Y-73314619D01*
X99241666Y-73314619D02*
X99336904Y-73267000D01*
X99336904Y-73267000D02*
X99384523Y-73219380D01*
X98146428Y-72314619D02*
X98051190Y-72314619D01*
X98051190Y-72314619D02*
X97955952Y-72362238D01*
X97955952Y-72362238D02*
X97908333Y-72409857D01*
X97908333Y-72409857D02*
X97860714Y-72505095D01*
X97860714Y-72505095D02*
X97813095Y-72695571D01*
X97813095Y-72695571D02*
X97813095Y-72933666D01*
X97813095Y-72933666D02*
X97860714Y-73124142D01*
X97860714Y-73124142D02*
X97908333Y-73219380D01*
X97908333Y-73219380D02*
X97955952Y-73267000D01*
X97955952Y-73267000D02*
X98051190Y-73314619D01*
X98051190Y-73314619D02*
X98146428Y-73314619D01*
X98146428Y-73314619D02*
X98241666Y-73267000D01*
X98241666Y-73267000D02*
X98289285Y-73219380D01*
X98289285Y-73219380D02*
X98336904Y-73124142D01*
X98336904Y-73124142D02*
X98384523Y-72933666D01*
X98384523Y-72933666D02*
X98384523Y-72695571D01*
X98384523Y-72695571D02*
X98336904Y-72505095D01*
X98336904Y-72505095D02*
X98289285Y-72409857D01*
X98289285Y-72409857D02*
X98241666Y-72362238D01*
X98241666Y-72362238D02*
X98146428Y-72314619D01*
%TO.C,D2*%
X61708094Y-35189619D02*
X61708094Y-34189619D01*
X61708094Y-34189619D02*
X61469999Y-34189619D01*
X61469999Y-34189619D02*
X61327142Y-34237238D01*
X61327142Y-34237238D02*
X61231904Y-34332476D01*
X61231904Y-34332476D02*
X61184285Y-34427714D01*
X61184285Y-34427714D02*
X61136666Y-34618190D01*
X61136666Y-34618190D02*
X61136666Y-34761047D01*
X61136666Y-34761047D02*
X61184285Y-34951523D01*
X61184285Y-34951523D02*
X61231904Y-35046761D01*
X61231904Y-35046761D02*
X61327142Y-35142000D01*
X61327142Y-35142000D02*
X61469999Y-35189619D01*
X61469999Y-35189619D02*
X61708094Y-35189619D01*
X60755713Y-34284857D02*
X60708094Y-34237238D01*
X60708094Y-34237238D02*
X60612856Y-34189619D01*
X60612856Y-34189619D02*
X60374761Y-34189619D01*
X60374761Y-34189619D02*
X60279523Y-34237238D01*
X60279523Y-34237238D02*
X60231904Y-34284857D01*
X60231904Y-34284857D02*
X60184285Y-34380095D01*
X60184285Y-34380095D02*
X60184285Y-34475333D01*
X60184285Y-34475333D02*
X60231904Y-34618190D01*
X60231904Y-34618190D02*
X60803332Y-35189619D01*
X60803332Y-35189619D02*
X60184285Y-35189619D01*
%TO.C,CX2*%
X275892857Y-59292380D02*
X275940476Y-59340000D01*
X275940476Y-59340000D02*
X276083333Y-59387619D01*
X276083333Y-59387619D02*
X276178571Y-59387619D01*
X276178571Y-59387619D02*
X276321428Y-59340000D01*
X276321428Y-59340000D02*
X276416666Y-59244761D01*
X276416666Y-59244761D02*
X276464285Y-59149523D01*
X276464285Y-59149523D02*
X276511904Y-58959047D01*
X276511904Y-58959047D02*
X276511904Y-58816190D01*
X276511904Y-58816190D02*
X276464285Y-58625714D01*
X276464285Y-58625714D02*
X276416666Y-58530476D01*
X276416666Y-58530476D02*
X276321428Y-58435238D01*
X276321428Y-58435238D02*
X276178571Y-58387619D01*
X276178571Y-58387619D02*
X276083333Y-58387619D01*
X276083333Y-58387619D02*
X275940476Y-58435238D01*
X275940476Y-58435238D02*
X275892857Y-58482857D01*
X275559523Y-58387619D02*
X274892857Y-59387619D01*
X274892857Y-58387619D02*
X275559523Y-59387619D01*
X274559523Y-58482857D02*
X274511904Y-58435238D01*
X274511904Y-58435238D02*
X274416666Y-58387619D01*
X274416666Y-58387619D02*
X274178571Y-58387619D01*
X274178571Y-58387619D02*
X274083333Y-58435238D01*
X274083333Y-58435238D02*
X274035714Y-58482857D01*
X274035714Y-58482857D02*
X273988095Y-58578095D01*
X273988095Y-58578095D02*
X273988095Y-58673333D01*
X273988095Y-58673333D02*
X274035714Y-58816190D01*
X274035714Y-58816190D02*
X274607142Y-59387619D01*
X274607142Y-59387619D02*
X273988095Y-59387619D01*
%TO.C,D33*%
X157439285Y-73314619D02*
X157439285Y-72314619D01*
X157439285Y-72314619D02*
X157201190Y-72314619D01*
X157201190Y-72314619D02*
X157058333Y-72362238D01*
X157058333Y-72362238D02*
X156963095Y-72457476D01*
X156963095Y-72457476D02*
X156915476Y-72552714D01*
X156915476Y-72552714D02*
X156867857Y-72743190D01*
X156867857Y-72743190D02*
X156867857Y-72886047D01*
X156867857Y-72886047D02*
X156915476Y-73076523D01*
X156915476Y-73076523D02*
X156963095Y-73171761D01*
X156963095Y-73171761D02*
X157058333Y-73267000D01*
X157058333Y-73267000D02*
X157201190Y-73314619D01*
X157201190Y-73314619D02*
X157439285Y-73314619D01*
X156534523Y-72314619D02*
X155915476Y-72314619D01*
X155915476Y-72314619D02*
X156248809Y-72695571D01*
X156248809Y-72695571D02*
X156105952Y-72695571D01*
X156105952Y-72695571D02*
X156010714Y-72743190D01*
X156010714Y-72743190D02*
X155963095Y-72790809D01*
X155963095Y-72790809D02*
X155915476Y-72886047D01*
X155915476Y-72886047D02*
X155915476Y-73124142D01*
X155915476Y-73124142D02*
X155963095Y-73219380D01*
X155963095Y-73219380D02*
X156010714Y-73267000D01*
X156010714Y-73267000D02*
X156105952Y-73314619D01*
X156105952Y-73314619D02*
X156391666Y-73314619D01*
X156391666Y-73314619D02*
X156486904Y-73267000D01*
X156486904Y-73267000D02*
X156534523Y-73219380D01*
X155582142Y-72314619D02*
X154963095Y-72314619D01*
X154963095Y-72314619D02*
X155296428Y-72695571D01*
X155296428Y-72695571D02*
X155153571Y-72695571D01*
X155153571Y-72695571D02*
X155058333Y-72743190D01*
X155058333Y-72743190D02*
X155010714Y-72790809D01*
X155010714Y-72790809D02*
X154963095Y-72886047D01*
X154963095Y-72886047D02*
X154963095Y-73124142D01*
X154963095Y-73124142D02*
X155010714Y-73219380D01*
X155010714Y-73219380D02*
X155058333Y-73267000D01*
X155058333Y-73267000D02*
X155153571Y-73314619D01*
X155153571Y-73314619D02*
X155439285Y-73314619D01*
X155439285Y-73314619D02*
X155534523Y-73267000D01*
X155534523Y-73267000D02*
X155582142Y-73219380D01*
%TO.C,D22*%
X195539285Y-54239619D02*
X195539285Y-53239619D01*
X195539285Y-53239619D02*
X195301190Y-53239619D01*
X195301190Y-53239619D02*
X195158333Y-53287238D01*
X195158333Y-53287238D02*
X195063095Y-53382476D01*
X195063095Y-53382476D02*
X195015476Y-53477714D01*
X195015476Y-53477714D02*
X194967857Y-53668190D01*
X194967857Y-53668190D02*
X194967857Y-53811047D01*
X194967857Y-53811047D02*
X195015476Y-54001523D01*
X195015476Y-54001523D02*
X195063095Y-54096761D01*
X195063095Y-54096761D02*
X195158333Y-54192000D01*
X195158333Y-54192000D02*
X195301190Y-54239619D01*
X195301190Y-54239619D02*
X195539285Y-54239619D01*
X194586904Y-53334857D02*
X194539285Y-53287238D01*
X194539285Y-53287238D02*
X194444047Y-53239619D01*
X194444047Y-53239619D02*
X194205952Y-53239619D01*
X194205952Y-53239619D02*
X194110714Y-53287238D01*
X194110714Y-53287238D02*
X194063095Y-53334857D01*
X194063095Y-53334857D02*
X194015476Y-53430095D01*
X194015476Y-53430095D02*
X194015476Y-53525333D01*
X194015476Y-53525333D02*
X194063095Y-53668190D01*
X194063095Y-53668190D02*
X194634523Y-54239619D01*
X194634523Y-54239619D02*
X194015476Y-54239619D01*
X193634523Y-53334857D02*
X193586904Y-53287238D01*
X193586904Y-53287238D02*
X193491666Y-53239619D01*
X193491666Y-53239619D02*
X193253571Y-53239619D01*
X193253571Y-53239619D02*
X193158333Y-53287238D01*
X193158333Y-53287238D02*
X193110714Y-53334857D01*
X193110714Y-53334857D02*
X193063095Y-53430095D01*
X193063095Y-53430095D02*
X193063095Y-53525333D01*
X193063095Y-53525333D02*
X193110714Y-53668190D01*
X193110714Y-53668190D02*
X193682142Y-54239619D01*
X193682142Y-54239619D02*
X193063095Y-54239619D01*
%TO.C,D36*%
X214589285Y-73314619D02*
X214589285Y-72314619D01*
X214589285Y-72314619D02*
X214351190Y-72314619D01*
X214351190Y-72314619D02*
X214208333Y-72362238D01*
X214208333Y-72362238D02*
X214113095Y-72457476D01*
X214113095Y-72457476D02*
X214065476Y-72552714D01*
X214065476Y-72552714D02*
X214017857Y-72743190D01*
X214017857Y-72743190D02*
X214017857Y-72886047D01*
X214017857Y-72886047D02*
X214065476Y-73076523D01*
X214065476Y-73076523D02*
X214113095Y-73171761D01*
X214113095Y-73171761D02*
X214208333Y-73267000D01*
X214208333Y-73267000D02*
X214351190Y-73314619D01*
X214351190Y-73314619D02*
X214589285Y-73314619D01*
X213684523Y-72314619D02*
X213065476Y-72314619D01*
X213065476Y-72314619D02*
X213398809Y-72695571D01*
X213398809Y-72695571D02*
X213255952Y-72695571D01*
X213255952Y-72695571D02*
X213160714Y-72743190D01*
X213160714Y-72743190D02*
X213113095Y-72790809D01*
X213113095Y-72790809D02*
X213065476Y-72886047D01*
X213065476Y-72886047D02*
X213065476Y-73124142D01*
X213065476Y-73124142D02*
X213113095Y-73219380D01*
X213113095Y-73219380D02*
X213160714Y-73267000D01*
X213160714Y-73267000D02*
X213255952Y-73314619D01*
X213255952Y-73314619D02*
X213541666Y-73314619D01*
X213541666Y-73314619D02*
X213636904Y-73267000D01*
X213636904Y-73267000D02*
X213684523Y-73219380D01*
X212208333Y-72314619D02*
X212398809Y-72314619D01*
X212398809Y-72314619D02*
X212494047Y-72362238D01*
X212494047Y-72362238D02*
X212541666Y-72409857D01*
X212541666Y-72409857D02*
X212636904Y-72552714D01*
X212636904Y-72552714D02*
X212684523Y-72743190D01*
X212684523Y-72743190D02*
X212684523Y-73124142D01*
X212684523Y-73124142D02*
X212636904Y-73219380D01*
X212636904Y-73219380D02*
X212589285Y-73267000D01*
X212589285Y-73267000D02*
X212494047Y-73314619D01*
X212494047Y-73314619D02*
X212303571Y-73314619D01*
X212303571Y-73314619D02*
X212208333Y-73267000D01*
X212208333Y-73267000D02*
X212160714Y-73219380D01*
X212160714Y-73219380D02*
X212113095Y-73124142D01*
X212113095Y-73124142D02*
X212113095Y-72886047D01*
X212113095Y-72886047D02*
X212160714Y-72790809D01*
X212160714Y-72790809D02*
X212208333Y-72743190D01*
X212208333Y-72743190D02*
X212303571Y-72695571D01*
X212303571Y-72695571D02*
X212494047Y-72695571D01*
X212494047Y-72695571D02*
X212589285Y-72743190D01*
X212589285Y-72743190D02*
X212636904Y-72790809D01*
X212636904Y-72790809D02*
X212684523Y-72886047D01*
%TO.C,U1*%
X259511904Y-53412619D02*
X259511904Y-54222142D01*
X259511904Y-54222142D02*
X259464285Y-54317380D01*
X259464285Y-54317380D02*
X259416666Y-54365000D01*
X259416666Y-54365000D02*
X259321428Y-54412619D01*
X259321428Y-54412619D02*
X259130952Y-54412619D01*
X259130952Y-54412619D02*
X259035714Y-54365000D01*
X259035714Y-54365000D02*
X258988095Y-54317380D01*
X258988095Y-54317380D02*
X258940476Y-54222142D01*
X258940476Y-54222142D02*
X258940476Y-53412619D01*
X257940476Y-54412619D02*
X258511904Y-54412619D01*
X258226190Y-54412619D02*
X258226190Y-53412619D01*
X258226190Y-53412619D02*
X258321428Y-53555476D01*
X258321428Y-53555476D02*
X258416666Y-53650714D01*
X258416666Y-53650714D02*
X258511904Y-53698333D01*
X262595238Y-56575370D02*
X262190476Y-56575370D01*
X262676190Y-56818227D02*
X262392857Y-55968227D01*
X262392857Y-55968227D02*
X262109523Y-56818227D01*
X261947619Y-55968227D02*
X261461905Y-55968227D01*
X261704762Y-56818227D02*
X261704762Y-55968227D01*
X261178572Y-56818227D02*
X261178572Y-55968227D01*
X261178572Y-55968227D02*
X260895238Y-56575370D01*
X260895238Y-56575370D02*
X260611905Y-55968227D01*
X260611905Y-55968227D02*
X260611905Y-56818227D01*
X260207143Y-56372989D02*
X259923809Y-56372989D01*
X259802381Y-56818227D02*
X260207143Y-56818227D01*
X260207143Y-56818227D02*
X260207143Y-55968227D01*
X260207143Y-55968227D02*
X259802381Y-55968227D01*
X258992856Y-56008703D02*
X259073809Y-55968227D01*
X259073809Y-55968227D02*
X259195237Y-55968227D01*
X259195237Y-55968227D02*
X259316666Y-56008703D01*
X259316666Y-56008703D02*
X259397618Y-56089655D01*
X259397618Y-56089655D02*
X259438095Y-56170608D01*
X259438095Y-56170608D02*
X259478571Y-56332512D01*
X259478571Y-56332512D02*
X259478571Y-56453941D01*
X259478571Y-56453941D02*
X259438095Y-56615846D01*
X259438095Y-56615846D02*
X259397618Y-56696798D01*
X259397618Y-56696798D02*
X259316666Y-56777751D01*
X259316666Y-56777751D02*
X259195237Y-56818227D01*
X259195237Y-56818227D02*
X259114285Y-56818227D01*
X259114285Y-56818227D02*
X258992856Y-56777751D01*
X258992856Y-56777751D02*
X258952380Y-56737274D01*
X258952380Y-56737274D02*
X258952380Y-56453941D01*
X258952380Y-56453941D02*
X259114285Y-56453941D01*
X258628571Y-56575370D02*
X258223809Y-56575370D01*
X258709523Y-56818227D02*
X258426190Y-55968227D01*
X258426190Y-55968227D02*
X258142856Y-56818227D01*
X257940476Y-55968227D02*
X257414285Y-55968227D01*
X257414285Y-55968227D02*
X257697619Y-56292036D01*
X257697619Y-56292036D02*
X257576190Y-56292036D01*
X257576190Y-56292036D02*
X257495238Y-56332512D01*
X257495238Y-56332512D02*
X257454762Y-56372989D01*
X257454762Y-56372989D02*
X257414285Y-56453941D01*
X257414285Y-56453941D02*
X257414285Y-56656322D01*
X257414285Y-56656322D02*
X257454762Y-56737274D01*
X257454762Y-56737274D02*
X257495238Y-56777751D01*
X257495238Y-56777751D02*
X257576190Y-56818227D01*
X257576190Y-56818227D02*
X257819047Y-56818227D01*
X257819047Y-56818227D02*
X257900000Y-56777751D01*
X257900000Y-56777751D02*
X257940476Y-56737274D01*
X257090476Y-56049179D02*
X257050000Y-56008703D01*
X257050000Y-56008703D02*
X256969047Y-55968227D01*
X256969047Y-55968227D02*
X256766666Y-55968227D01*
X256766666Y-55968227D02*
X256685714Y-56008703D01*
X256685714Y-56008703D02*
X256645238Y-56049179D01*
X256645238Y-56049179D02*
X256604761Y-56130131D01*
X256604761Y-56130131D02*
X256604761Y-56211084D01*
X256604761Y-56211084D02*
X256645238Y-56332512D01*
X256645238Y-56332512D02*
X257130952Y-56818227D01*
X257130952Y-56818227D02*
X256604761Y-56818227D01*
X256240476Y-55968227D02*
X256240476Y-56656322D01*
X256240476Y-56656322D02*
X256199999Y-56737274D01*
X256199999Y-56737274D02*
X256159523Y-56777751D01*
X256159523Y-56777751D02*
X256078571Y-56818227D01*
X256078571Y-56818227D02*
X255916666Y-56818227D01*
X255916666Y-56818227D02*
X255835714Y-56777751D01*
X255835714Y-56777751D02*
X255795237Y-56737274D01*
X255795237Y-56737274D02*
X255754761Y-56656322D01*
X255754761Y-56656322D02*
X255754761Y-55968227D01*
X254985714Y-56251560D02*
X254985714Y-56818227D01*
X255188095Y-55927751D02*
X255390476Y-56534893D01*
X255390476Y-56534893D02*
X254864285Y-56534893D01*
%TO.C,D43*%
X100289285Y-92314619D02*
X100289285Y-91314619D01*
X100289285Y-91314619D02*
X100051190Y-91314619D01*
X100051190Y-91314619D02*
X99908333Y-91362238D01*
X99908333Y-91362238D02*
X99813095Y-91457476D01*
X99813095Y-91457476D02*
X99765476Y-91552714D01*
X99765476Y-91552714D02*
X99717857Y-91743190D01*
X99717857Y-91743190D02*
X99717857Y-91886047D01*
X99717857Y-91886047D02*
X99765476Y-92076523D01*
X99765476Y-92076523D02*
X99813095Y-92171761D01*
X99813095Y-92171761D02*
X99908333Y-92267000D01*
X99908333Y-92267000D02*
X100051190Y-92314619D01*
X100051190Y-92314619D02*
X100289285Y-92314619D01*
X98860714Y-91647952D02*
X98860714Y-92314619D01*
X99098809Y-91267000D02*
X99336904Y-91981285D01*
X99336904Y-91981285D02*
X98717857Y-91981285D01*
X98432142Y-91314619D02*
X97813095Y-91314619D01*
X97813095Y-91314619D02*
X98146428Y-91695571D01*
X98146428Y-91695571D02*
X98003571Y-91695571D01*
X98003571Y-91695571D02*
X97908333Y-91743190D01*
X97908333Y-91743190D02*
X97860714Y-91790809D01*
X97860714Y-91790809D02*
X97813095Y-91886047D01*
X97813095Y-91886047D02*
X97813095Y-92124142D01*
X97813095Y-92124142D02*
X97860714Y-92219380D01*
X97860714Y-92219380D02*
X97908333Y-92267000D01*
X97908333Y-92267000D02*
X98003571Y-92314619D01*
X98003571Y-92314619D02*
X98289285Y-92314619D01*
X98289285Y-92314619D02*
X98384523Y-92267000D01*
X98384523Y-92267000D02*
X98432142Y-92219380D01*
%TO.C,D47*%
X176489285Y-92314619D02*
X176489285Y-91314619D01*
X176489285Y-91314619D02*
X176251190Y-91314619D01*
X176251190Y-91314619D02*
X176108333Y-91362238D01*
X176108333Y-91362238D02*
X176013095Y-91457476D01*
X176013095Y-91457476D02*
X175965476Y-91552714D01*
X175965476Y-91552714D02*
X175917857Y-91743190D01*
X175917857Y-91743190D02*
X175917857Y-91886047D01*
X175917857Y-91886047D02*
X175965476Y-92076523D01*
X175965476Y-92076523D02*
X176013095Y-92171761D01*
X176013095Y-92171761D02*
X176108333Y-92267000D01*
X176108333Y-92267000D02*
X176251190Y-92314619D01*
X176251190Y-92314619D02*
X176489285Y-92314619D01*
X175060714Y-91647952D02*
X175060714Y-92314619D01*
X175298809Y-91267000D02*
X175536904Y-91981285D01*
X175536904Y-91981285D02*
X174917857Y-91981285D01*
X174632142Y-91314619D02*
X173965476Y-91314619D01*
X173965476Y-91314619D02*
X174394047Y-92314619D01*
%TO.C,D9*%
X195063094Y-35189619D02*
X195063094Y-34189619D01*
X195063094Y-34189619D02*
X194824999Y-34189619D01*
X194824999Y-34189619D02*
X194682142Y-34237238D01*
X194682142Y-34237238D02*
X194586904Y-34332476D01*
X194586904Y-34332476D02*
X194539285Y-34427714D01*
X194539285Y-34427714D02*
X194491666Y-34618190D01*
X194491666Y-34618190D02*
X194491666Y-34761047D01*
X194491666Y-34761047D02*
X194539285Y-34951523D01*
X194539285Y-34951523D02*
X194586904Y-35046761D01*
X194586904Y-35046761D02*
X194682142Y-35142000D01*
X194682142Y-35142000D02*
X194824999Y-35189619D01*
X194824999Y-35189619D02*
X195063094Y-35189619D01*
X194015475Y-35189619D02*
X193824999Y-35189619D01*
X193824999Y-35189619D02*
X193729761Y-35142000D01*
X193729761Y-35142000D02*
X193682142Y-35094380D01*
X193682142Y-35094380D02*
X193586904Y-34951523D01*
X193586904Y-34951523D02*
X193539285Y-34761047D01*
X193539285Y-34761047D02*
X193539285Y-34380095D01*
X193539285Y-34380095D02*
X193586904Y-34284857D01*
X193586904Y-34284857D02*
X193634523Y-34237238D01*
X193634523Y-34237238D02*
X193729761Y-34189619D01*
X193729761Y-34189619D02*
X193920237Y-34189619D01*
X193920237Y-34189619D02*
X194015475Y-34237238D01*
X194015475Y-34237238D02*
X194063094Y-34284857D01*
X194063094Y-34284857D02*
X194110713Y-34380095D01*
X194110713Y-34380095D02*
X194110713Y-34618190D01*
X194110713Y-34618190D02*
X194063094Y-34713428D01*
X194063094Y-34713428D02*
X194015475Y-34761047D01*
X194015475Y-34761047D02*
X193920237Y-34808666D01*
X193920237Y-34808666D02*
X193729761Y-34808666D01*
X193729761Y-34808666D02*
X193634523Y-34761047D01*
X193634523Y-34761047D02*
X193586904Y-34713428D01*
X193586904Y-34713428D02*
X193539285Y-34618190D01*
%TO.C,D1*%
X42668094Y-35167119D02*
X42668094Y-34167119D01*
X42668094Y-34167119D02*
X42429999Y-34167119D01*
X42429999Y-34167119D02*
X42287142Y-34214738D01*
X42287142Y-34214738D02*
X42191904Y-34309976D01*
X42191904Y-34309976D02*
X42144285Y-34405214D01*
X42144285Y-34405214D02*
X42096666Y-34595690D01*
X42096666Y-34595690D02*
X42096666Y-34738547D01*
X42096666Y-34738547D02*
X42144285Y-34929023D01*
X42144285Y-34929023D02*
X42191904Y-35024261D01*
X42191904Y-35024261D02*
X42287142Y-35119500D01*
X42287142Y-35119500D02*
X42429999Y-35167119D01*
X42429999Y-35167119D02*
X42668094Y-35167119D01*
X41144285Y-35167119D02*
X41715713Y-35167119D01*
X41429999Y-35167119D02*
X41429999Y-34167119D01*
X41429999Y-34167119D02*
X41525237Y-34309976D01*
X41525237Y-34309976D02*
X41620475Y-34405214D01*
X41620475Y-34405214D02*
X41715713Y-34452833D01*
%TO.C,D21*%
X176489285Y-54239619D02*
X176489285Y-53239619D01*
X176489285Y-53239619D02*
X176251190Y-53239619D01*
X176251190Y-53239619D02*
X176108333Y-53287238D01*
X176108333Y-53287238D02*
X176013095Y-53382476D01*
X176013095Y-53382476D02*
X175965476Y-53477714D01*
X175965476Y-53477714D02*
X175917857Y-53668190D01*
X175917857Y-53668190D02*
X175917857Y-53811047D01*
X175917857Y-53811047D02*
X175965476Y-54001523D01*
X175965476Y-54001523D02*
X176013095Y-54096761D01*
X176013095Y-54096761D02*
X176108333Y-54192000D01*
X176108333Y-54192000D02*
X176251190Y-54239619D01*
X176251190Y-54239619D02*
X176489285Y-54239619D01*
X175536904Y-53334857D02*
X175489285Y-53287238D01*
X175489285Y-53287238D02*
X175394047Y-53239619D01*
X175394047Y-53239619D02*
X175155952Y-53239619D01*
X175155952Y-53239619D02*
X175060714Y-53287238D01*
X175060714Y-53287238D02*
X175013095Y-53334857D01*
X175013095Y-53334857D02*
X174965476Y-53430095D01*
X174965476Y-53430095D02*
X174965476Y-53525333D01*
X174965476Y-53525333D02*
X175013095Y-53668190D01*
X175013095Y-53668190D02*
X175584523Y-54239619D01*
X175584523Y-54239619D02*
X174965476Y-54239619D01*
X174013095Y-54239619D02*
X174584523Y-54239619D01*
X174298809Y-54239619D02*
X174298809Y-53239619D01*
X174298809Y-53239619D02*
X174394047Y-53382476D01*
X174394047Y-53382476D02*
X174489285Y-53477714D01*
X174489285Y-53477714D02*
X174584523Y-53525333D01*
%TO.C,D38*%
X252689285Y-73314619D02*
X252689285Y-72314619D01*
X252689285Y-72314619D02*
X252451190Y-72314619D01*
X252451190Y-72314619D02*
X252308333Y-72362238D01*
X252308333Y-72362238D02*
X252213095Y-72457476D01*
X252213095Y-72457476D02*
X252165476Y-72552714D01*
X252165476Y-72552714D02*
X252117857Y-72743190D01*
X252117857Y-72743190D02*
X252117857Y-72886047D01*
X252117857Y-72886047D02*
X252165476Y-73076523D01*
X252165476Y-73076523D02*
X252213095Y-73171761D01*
X252213095Y-73171761D02*
X252308333Y-73267000D01*
X252308333Y-73267000D02*
X252451190Y-73314619D01*
X252451190Y-73314619D02*
X252689285Y-73314619D01*
X251784523Y-72314619D02*
X251165476Y-72314619D01*
X251165476Y-72314619D02*
X251498809Y-72695571D01*
X251498809Y-72695571D02*
X251355952Y-72695571D01*
X251355952Y-72695571D02*
X251260714Y-72743190D01*
X251260714Y-72743190D02*
X251213095Y-72790809D01*
X251213095Y-72790809D02*
X251165476Y-72886047D01*
X251165476Y-72886047D02*
X251165476Y-73124142D01*
X251165476Y-73124142D02*
X251213095Y-73219380D01*
X251213095Y-73219380D02*
X251260714Y-73267000D01*
X251260714Y-73267000D02*
X251355952Y-73314619D01*
X251355952Y-73314619D02*
X251641666Y-73314619D01*
X251641666Y-73314619D02*
X251736904Y-73267000D01*
X251736904Y-73267000D02*
X251784523Y-73219380D01*
X250594047Y-72743190D02*
X250689285Y-72695571D01*
X250689285Y-72695571D02*
X250736904Y-72647952D01*
X250736904Y-72647952D02*
X250784523Y-72552714D01*
X250784523Y-72552714D02*
X250784523Y-72505095D01*
X250784523Y-72505095D02*
X250736904Y-72409857D01*
X250736904Y-72409857D02*
X250689285Y-72362238D01*
X250689285Y-72362238D02*
X250594047Y-72314619D01*
X250594047Y-72314619D02*
X250403571Y-72314619D01*
X250403571Y-72314619D02*
X250308333Y-72362238D01*
X250308333Y-72362238D02*
X250260714Y-72409857D01*
X250260714Y-72409857D02*
X250213095Y-72505095D01*
X250213095Y-72505095D02*
X250213095Y-72552714D01*
X250213095Y-72552714D02*
X250260714Y-72647952D01*
X250260714Y-72647952D02*
X250308333Y-72695571D01*
X250308333Y-72695571D02*
X250403571Y-72743190D01*
X250403571Y-72743190D02*
X250594047Y-72743190D01*
X250594047Y-72743190D02*
X250689285Y-72790809D01*
X250689285Y-72790809D02*
X250736904Y-72838428D01*
X250736904Y-72838428D02*
X250784523Y-72933666D01*
X250784523Y-72933666D02*
X250784523Y-73124142D01*
X250784523Y-73124142D02*
X250736904Y-73219380D01*
X250736904Y-73219380D02*
X250689285Y-73267000D01*
X250689285Y-73267000D02*
X250594047Y-73314619D01*
X250594047Y-73314619D02*
X250403571Y-73314619D01*
X250403571Y-73314619D02*
X250308333Y-73267000D01*
X250308333Y-73267000D02*
X250260714Y-73219380D01*
X250260714Y-73219380D02*
X250213095Y-73124142D01*
X250213095Y-73124142D02*
X250213095Y-72933666D01*
X250213095Y-72933666D02*
X250260714Y-72838428D01*
X250260714Y-72838428D02*
X250308333Y-72790809D01*
X250308333Y-72790809D02*
X250403571Y-72743190D01*
%TO.C,D15*%
X62189285Y-54239619D02*
X62189285Y-53239619D01*
X62189285Y-53239619D02*
X61951190Y-53239619D01*
X61951190Y-53239619D02*
X61808333Y-53287238D01*
X61808333Y-53287238D02*
X61713095Y-53382476D01*
X61713095Y-53382476D02*
X61665476Y-53477714D01*
X61665476Y-53477714D02*
X61617857Y-53668190D01*
X61617857Y-53668190D02*
X61617857Y-53811047D01*
X61617857Y-53811047D02*
X61665476Y-54001523D01*
X61665476Y-54001523D02*
X61713095Y-54096761D01*
X61713095Y-54096761D02*
X61808333Y-54192000D01*
X61808333Y-54192000D02*
X61951190Y-54239619D01*
X61951190Y-54239619D02*
X62189285Y-54239619D01*
X60665476Y-54239619D02*
X61236904Y-54239619D01*
X60951190Y-54239619D02*
X60951190Y-53239619D01*
X60951190Y-53239619D02*
X61046428Y-53382476D01*
X61046428Y-53382476D02*
X61141666Y-53477714D01*
X61141666Y-53477714D02*
X61236904Y-53525333D01*
X59760714Y-53239619D02*
X60236904Y-53239619D01*
X60236904Y-53239619D02*
X60284523Y-53715809D01*
X60284523Y-53715809D02*
X60236904Y-53668190D01*
X60236904Y-53668190D02*
X60141666Y-53620571D01*
X60141666Y-53620571D02*
X59903571Y-53620571D01*
X59903571Y-53620571D02*
X59808333Y-53668190D01*
X59808333Y-53668190D02*
X59760714Y-53715809D01*
X59760714Y-53715809D02*
X59713095Y-53811047D01*
X59713095Y-53811047D02*
X59713095Y-54049142D01*
X59713095Y-54049142D02*
X59760714Y-54144380D01*
X59760714Y-54144380D02*
X59808333Y-54192000D01*
X59808333Y-54192000D02*
X59903571Y-54239619D01*
X59903571Y-54239619D02*
X60141666Y-54239619D01*
X60141666Y-54239619D02*
X60236904Y-54192000D01*
X60236904Y-54192000D02*
X60284523Y-54144380D01*
%TO.C,J2*%
X258584523Y-28845000D02*
X258441666Y-28892619D01*
X258441666Y-28892619D02*
X258203571Y-28892619D01*
X258203571Y-28892619D02*
X258108333Y-28845000D01*
X258108333Y-28845000D02*
X258060714Y-28797380D01*
X258060714Y-28797380D02*
X258013095Y-28702142D01*
X258013095Y-28702142D02*
X258013095Y-28606904D01*
X258013095Y-28606904D02*
X258060714Y-28511666D01*
X258060714Y-28511666D02*
X258108333Y-28464047D01*
X258108333Y-28464047D02*
X258203571Y-28416428D01*
X258203571Y-28416428D02*
X258394047Y-28368809D01*
X258394047Y-28368809D02*
X258489285Y-28321190D01*
X258489285Y-28321190D02*
X258536904Y-28273571D01*
X258536904Y-28273571D02*
X258584523Y-28178333D01*
X258584523Y-28178333D02*
X258584523Y-28083095D01*
X258584523Y-28083095D02*
X258536904Y-27987857D01*
X258536904Y-27987857D02*
X258489285Y-27940238D01*
X258489285Y-27940238D02*
X258394047Y-27892619D01*
X258394047Y-27892619D02*
X258155952Y-27892619D01*
X258155952Y-27892619D02*
X258013095Y-27940238D01*
X257013095Y-28797380D02*
X257060714Y-28845000D01*
X257060714Y-28845000D02*
X257203571Y-28892619D01*
X257203571Y-28892619D02*
X257298809Y-28892619D01*
X257298809Y-28892619D02*
X257441666Y-28845000D01*
X257441666Y-28845000D02*
X257536904Y-28749761D01*
X257536904Y-28749761D02*
X257584523Y-28654523D01*
X257584523Y-28654523D02*
X257632142Y-28464047D01*
X257632142Y-28464047D02*
X257632142Y-28321190D01*
X257632142Y-28321190D02*
X257584523Y-28130714D01*
X257584523Y-28130714D02*
X257536904Y-28035476D01*
X257536904Y-28035476D02*
X257441666Y-27940238D01*
X257441666Y-27940238D02*
X257298809Y-27892619D01*
X257298809Y-27892619D02*
X257203571Y-27892619D01*
X257203571Y-27892619D02*
X257060714Y-27940238D01*
X257060714Y-27940238D02*
X257013095Y-27987857D01*
X256584523Y-28892619D02*
X256584523Y-27892619D01*
X256013095Y-28892619D02*
X256441666Y-28321190D01*
X256013095Y-27892619D02*
X256584523Y-28464047D01*
X258549761Y-25352619D02*
X258216428Y-26352619D01*
X258216428Y-26352619D02*
X257883095Y-25352619D01*
X256978333Y-26257380D02*
X257025952Y-26305000D01*
X257025952Y-26305000D02*
X257168809Y-26352619D01*
X257168809Y-26352619D02*
X257264047Y-26352619D01*
X257264047Y-26352619D02*
X257406904Y-26305000D01*
X257406904Y-26305000D02*
X257502142Y-26209761D01*
X257502142Y-26209761D02*
X257549761Y-26114523D01*
X257549761Y-26114523D02*
X257597380Y-25924047D01*
X257597380Y-25924047D02*
X257597380Y-25781190D01*
X257597380Y-25781190D02*
X257549761Y-25590714D01*
X257549761Y-25590714D02*
X257502142Y-25495476D01*
X257502142Y-25495476D02*
X257406904Y-25400238D01*
X257406904Y-25400238D02*
X257264047Y-25352619D01*
X257264047Y-25352619D02*
X257168809Y-25352619D01*
X257168809Y-25352619D02*
X257025952Y-25400238D01*
X257025952Y-25400238D02*
X256978333Y-25447857D01*
X255978333Y-26257380D02*
X256025952Y-26305000D01*
X256025952Y-26305000D02*
X256168809Y-26352619D01*
X256168809Y-26352619D02*
X256264047Y-26352619D01*
X256264047Y-26352619D02*
X256406904Y-26305000D01*
X256406904Y-26305000D02*
X256502142Y-26209761D01*
X256502142Y-26209761D02*
X256549761Y-26114523D01*
X256549761Y-26114523D02*
X256597380Y-25924047D01*
X256597380Y-25924047D02*
X256597380Y-25781190D01*
X256597380Y-25781190D02*
X256549761Y-25590714D01*
X256549761Y-25590714D02*
X256502142Y-25495476D01*
X256502142Y-25495476D02*
X256406904Y-25400238D01*
X256406904Y-25400238D02*
X256264047Y-25352619D01*
X256264047Y-25352619D02*
X256168809Y-25352619D01*
X256168809Y-25352619D02*
X256025952Y-25400238D01*
X256025952Y-25400238D02*
X255978333Y-25447857D01*
X257965476Y-36512619D02*
X258298809Y-36036428D01*
X258536904Y-36512619D02*
X258536904Y-35512619D01*
X258536904Y-35512619D02*
X258155952Y-35512619D01*
X258155952Y-35512619D02*
X258060714Y-35560238D01*
X258060714Y-35560238D02*
X258013095Y-35607857D01*
X258013095Y-35607857D02*
X257965476Y-35703095D01*
X257965476Y-35703095D02*
X257965476Y-35845952D01*
X257965476Y-35845952D02*
X258013095Y-35941190D01*
X258013095Y-35941190D02*
X258060714Y-35988809D01*
X258060714Y-35988809D02*
X258155952Y-36036428D01*
X258155952Y-36036428D02*
X258536904Y-36036428D01*
X257584523Y-36465000D02*
X257441666Y-36512619D01*
X257441666Y-36512619D02*
X257203571Y-36512619D01*
X257203571Y-36512619D02*
X257108333Y-36465000D01*
X257108333Y-36465000D02*
X257060714Y-36417380D01*
X257060714Y-36417380D02*
X257013095Y-36322142D01*
X257013095Y-36322142D02*
X257013095Y-36226904D01*
X257013095Y-36226904D02*
X257060714Y-36131666D01*
X257060714Y-36131666D02*
X257108333Y-36084047D01*
X257108333Y-36084047D02*
X257203571Y-36036428D01*
X257203571Y-36036428D02*
X257394047Y-35988809D01*
X257394047Y-35988809D02*
X257489285Y-35941190D01*
X257489285Y-35941190D02*
X257536904Y-35893571D01*
X257536904Y-35893571D02*
X257584523Y-35798333D01*
X257584523Y-35798333D02*
X257584523Y-35703095D01*
X257584523Y-35703095D02*
X257536904Y-35607857D01*
X257536904Y-35607857D02*
X257489285Y-35560238D01*
X257489285Y-35560238D02*
X257394047Y-35512619D01*
X257394047Y-35512619D02*
X257155952Y-35512619D01*
X257155952Y-35512619D02*
X257013095Y-35560238D01*
X256727380Y-35512619D02*
X256155952Y-35512619D01*
X256441666Y-36512619D02*
X256441666Y-35512619D01*
X258536904Y-33972619D02*
X258536904Y-32972619D01*
X258536904Y-32972619D02*
X258203571Y-33686904D01*
X258203571Y-33686904D02*
X257870238Y-32972619D01*
X257870238Y-32972619D02*
X257870238Y-33972619D01*
X257203571Y-32972619D02*
X257013095Y-32972619D01*
X257013095Y-32972619D02*
X256917857Y-33020238D01*
X256917857Y-33020238D02*
X256822619Y-33115476D01*
X256822619Y-33115476D02*
X256775000Y-33305952D01*
X256775000Y-33305952D02*
X256775000Y-33639285D01*
X256775000Y-33639285D02*
X256822619Y-33829761D01*
X256822619Y-33829761D02*
X256917857Y-33925000D01*
X256917857Y-33925000D02*
X257013095Y-33972619D01*
X257013095Y-33972619D02*
X257203571Y-33972619D01*
X257203571Y-33972619D02*
X257298809Y-33925000D01*
X257298809Y-33925000D02*
X257394047Y-33829761D01*
X257394047Y-33829761D02*
X257441666Y-33639285D01*
X257441666Y-33639285D02*
X257441666Y-33305952D01*
X257441666Y-33305952D02*
X257394047Y-33115476D01*
X257394047Y-33115476D02*
X257298809Y-33020238D01*
X257298809Y-33020238D02*
X257203571Y-32972619D01*
X256394047Y-33925000D02*
X256251190Y-33972619D01*
X256251190Y-33972619D02*
X256013095Y-33972619D01*
X256013095Y-33972619D02*
X255917857Y-33925000D01*
X255917857Y-33925000D02*
X255870238Y-33877380D01*
X255870238Y-33877380D02*
X255822619Y-33782142D01*
X255822619Y-33782142D02*
X255822619Y-33686904D01*
X255822619Y-33686904D02*
X255870238Y-33591666D01*
X255870238Y-33591666D02*
X255917857Y-33544047D01*
X255917857Y-33544047D02*
X256013095Y-33496428D01*
X256013095Y-33496428D02*
X256203571Y-33448809D01*
X256203571Y-33448809D02*
X256298809Y-33401190D01*
X256298809Y-33401190D02*
X256346428Y-33353571D01*
X256346428Y-33353571D02*
X256394047Y-33258333D01*
X256394047Y-33258333D02*
X256394047Y-33163095D01*
X256394047Y-33163095D02*
X256346428Y-33067857D01*
X256346428Y-33067857D02*
X256298809Y-33020238D01*
X256298809Y-33020238D02*
X256203571Y-32972619D01*
X256203571Y-32972619D02*
X255965476Y-32972619D01*
X255965476Y-32972619D02*
X255822619Y-33020238D01*
X255394047Y-33972619D02*
X255394047Y-32972619D01*
X257983095Y-22860238D02*
X258078333Y-22812619D01*
X258078333Y-22812619D02*
X258221190Y-22812619D01*
X258221190Y-22812619D02*
X258364047Y-22860238D01*
X258364047Y-22860238D02*
X258459285Y-22955476D01*
X258459285Y-22955476D02*
X258506904Y-23050714D01*
X258506904Y-23050714D02*
X258554523Y-23241190D01*
X258554523Y-23241190D02*
X258554523Y-23384047D01*
X258554523Y-23384047D02*
X258506904Y-23574523D01*
X258506904Y-23574523D02*
X258459285Y-23669761D01*
X258459285Y-23669761D02*
X258364047Y-23765000D01*
X258364047Y-23765000D02*
X258221190Y-23812619D01*
X258221190Y-23812619D02*
X258125952Y-23812619D01*
X258125952Y-23812619D02*
X257983095Y-23765000D01*
X257983095Y-23765000D02*
X257935476Y-23717380D01*
X257935476Y-23717380D02*
X257935476Y-23384047D01*
X257935476Y-23384047D02*
X258125952Y-23384047D01*
X257506904Y-23812619D02*
X257506904Y-22812619D01*
X257506904Y-22812619D02*
X256935476Y-23812619D01*
X256935476Y-23812619D02*
X256935476Y-22812619D01*
X256459285Y-23812619D02*
X256459285Y-22812619D01*
X256459285Y-22812619D02*
X256221190Y-22812619D01*
X256221190Y-22812619D02*
X256078333Y-22860238D01*
X256078333Y-22860238D02*
X255983095Y-22955476D01*
X255983095Y-22955476D02*
X255935476Y-23050714D01*
X255935476Y-23050714D02*
X255887857Y-23241190D01*
X255887857Y-23241190D02*
X255887857Y-23384047D01*
X255887857Y-23384047D02*
X255935476Y-23574523D01*
X255935476Y-23574523D02*
X255983095Y-23669761D01*
X255983095Y-23669761D02*
X256078333Y-23765000D01*
X256078333Y-23765000D02*
X256221190Y-23812619D01*
X256221190Y-23812619D02*
X256459285Y-23812619D01*
X258536904Y-31432619D02*
X258536904Y-30432619D01*
X258536904Y-30432619D02*
X258203571Y-31146904D01*
X258203571Y-31146904D02*
X257870238Y-30432619D01*
X257870238Y-30432619D02*
X257870238Y-31432619D01*
X257394047Y-31432619D02*
X257394047Y-30432619D01*
X256965476Y-31385000D02*
X256822619Y-31432619D01*
X256822619Y-31432619D02*
X256584524Y-31432619D01*
X256584524Y-31432619D02*
X256489286Y-31385000D01*
X256489286Y-31385000D02*
X256441667Y-31337380D01*
X256441667Y-31337380D02*
X256394048Y-31242142D01*
X256394048Y-31242142D02*
X256394048Y-31146904D01*
X256394048Y-31146904D02*
X256441667Y-31051666D01*
X256441667Y-31051666D02*
X256489286Y-31004047D01*
X256489286Y-31004047D02*
X256584524Y-30956428D01*
X256584524Y-30956428D02*
X256775000Y-30908809D01*
X256775000Y-30908809D02*
X256870238Y-30861190D01*
X256870238Y-30861190D02*
X256917857Y-30813571D01*
X256917857Y-30813571D02*
X256965476Y-30718333D01*
X256965476Y-30718333D02*
X256965476Y-30623095D01*
X256965476Y-30623095D02*
X256917857Y-30527857D01*
X256917857Y-30527857D02*
X256870238Y-30480238D01*
X256870238Y-30480238D02*
X256775000Y-30432619D01*
X256775000Y-30432619D02*
X256536905Y-30432619D01*
X256536905Y-30432619D02*
X256394048Y-30480238D01*
X255775000Y-30432619D02*
X255584524Y-30432619D01*
X255584524Y-30432619D02*
X255489286Y-30480238D01*
X255489286Y-30480238D02*
X255394048Y-30575476D01*
X255394048Y-30575476D02*
X255346429Y-30765952D01*
X255346429Y-30765952D02*
X255346429Y-31099285D01*
X255346429Y-31099285D02*
X255394048Y-31289761D01*
X255394048Y-31289761D02*
X255489286Y-31385000D01*
X255489286Y-31385000D02*
X255584524Y-31432619D01*
X255584524Y-31432619D02*
X255775000Y-31432619D01*
X255775000Y-31432619D02*
X255870238Y-31385000D01*
X255870238Y-31385000D02*
X255965476Y-31289761D01*
X255965476Y-31289761D02*
X256013095Y-31099285D01*
X256013095Y-31099285D02*
X256013095Y-30765952D01*
X256013095Y-30765952D02*
X255965476Y-30575476D01*
X255965476Y-30575476D02*
X255870238Y-30480238D01*
X255870238Y-30480238D02*
X255775000Y-30432619D01*
%TO.C,SW1*%
X275183332Y-38040000D02*
X275040475Y-38087619D01*
X275040475Y-38087619D02*
X274802380Y-38087619D01*
X274802380Y-38087619D02*
X274707142Y-38040000D01*
X274707142Y-38040000D02*
X274659523Y-37992380D01*
X274659523Y-37992380D02*
X274611904Y-37897142D01*
X274611904Y-37897142D02*
X274611904Y-37801904D01*
X274611904Y-37801904D02*
X274659523Y-37706666D01*
X274659523Y-37706666D02*
X274707142Y-37659047D01*
X274707142Y-37659047D02*
X274802380Y-37611428D01*
X274802380Y-37611428D02*
X274992856Y-37563809D01*
X274992856Y-37563809D02*
X275088094Y-37516190D01*
X275088094Y-37516190D02*
X275135713Y-37468571D01*
X275135713Y-37468571D02*
X275183332Y-37373333D01*
X275183332Y-37373333D02*
X275183332Y-37278095D01*
X275183332Y-37278095D02*
X275135713Y-37182857D01*
X275135713Y-37182857D02*
X275088094Y-37135238D01*
X275088094Y-37135238D02*
X274992856Y-37087619D01*
X274992856Y-37087619D02*
X274754761Y-37087619D01*
X274754761Y-37087619D02*
X274611904Y-37135238D01*
X274278570Y-37087619D02*
X274040475Y-38087619D01*
X274040475Y-38087619D02*
X273849999Y-37373333D01*
X273849999Y-37373333D02*
X273659523Y-38087619D01*
X273659523Y-38087619D02*
X273421428Y-37087619D01*
X272516666Y-38087619D02*
X273088094Y-38087619D01*
X272802380Y-38087619D02*
X272802380Y-37087619D01*
X272802380Y-37087619D02*
X272897618Y-37230476D01*
X272897618Y-37230476D02*
X272992856Y-37325714D01*
X272992856Y-37325714D02*
X273088094Y-37373333D01*
%TO.C,D23*%
X214589285Y-54239619D02*
X214589285Y-53239619D01*
X214589285Y-53239619D02*
X214351190Y-53239619D01*
X214351190Y-53239619D02*
X214208333Y-53287238D01*
X214208333Y-53287238D02*
X214113095Y-53382476D01*
X214113095Y-53382476D02*
X214065476Y-53477714D01*
X214065476Y-53477714D02*
X214017857Y-53668190D01*
X214017857Y-53668190D02*
X214017857Y-53811047D01*
X214017857Y-53811047D02*
X214065476Y-54001523D01*
X214065476Y-54001523D02*
X214113095Y-54096761D01*
X214113095Y-54096761D02*
X214208333Y-54192000D01*
X214208333Y-54192000D02*
X214351190Y-54239619D01*
X214351190Y-54239619D02*
X214589285Y-54239619D01*
X213636904Y-53334857D02*
X213589285Y-53287238D01*
X213589285Y-53287238D02*
X213494047Y-53239619D01*
X213494047Y-53239619D02*
X213255952Y-53239619D01*
X213255952Y-53239619D02*
X213160714Y-53287238D01*
X213160714Y-53287238D02*
X213113095Y-53334857D01*
X213113095Y-53334857D02*
X213065476Y-53430095D01*
X213065476Y-53430095D02*
X213065476Y-53525333D01*
X213065476Y-53525333D02*
X213113095Y-53668190D01*
X213113095Y-53668190D02*
X213684523Y-54239619D01*
X213684523Y-54239619D02*
X213065476Y-54239619D01*
X212732142Y-53239619D02*
X212113095Y-53239619D01*
X212113095Y-53239619D02*
X212446428Y-53620571D01*
X212446428Y-53620571D02*
X212303571Y-53620571D01*
X212303571Y-53620571D02*
X212208333Y-53668190D01*
X212208333Y-53668190D02*
X212160714Y-53715809D01*
X212160714Y-53715809D02*
X212113095Y-53811047D01*
X212113095Y-53811047D02*
X212113095Y-54049142D01*
X212113095Y-54049142D02*
X212160714Y-54144380D01*
X212160714Y-54144380D02*
X212208333Y-54192000D01*
X212208333Y-54192000D02*
X212303571Y-54239619D01*
X212303571Y-54239619D02*
X212589285Y-54239619D01*
X212589285Y-54239619D02*
X212684523Y-54192000D01*
X212684523Y-54192000D02*
X212732142Y-54144380D01*
%TO.C,D25*%
X237889285Y-54239619D02*
X237889285Y-53239619D01*
X237889285Y-53239619D02*
X237651190Y-53239619D01*
X237651190Y-53239619D02*
X237508333Y-53287238D01*
X237508333Y-53287238D02*
X237413095Y-53382476D01*
X237413095Y-53382476D02*
X237365476Y-53477714D01*
X237365476Y-53477714D02*
X237317857Y-53668190D01*
X237317857Y-53668190D02*
X237317857Y-53811047D01*
X237317857Y-53811047D02*
X237365476Y-54001523D01*
X237365476Y-54001523D02*
X237413095Y-54096761D01*
X237413095Y-54096761D02*
X237508333Y-54192000D01*
X237508333Y-54192000D02*
X237651190Y-54239619D01*
X237651190Y-54239619D02*
X237889285Y-54239619D01*
X236936904Y-53334857D02*
X236889285Y-53287238D01*
X236889285Y-53287238D02*
X236794047Y-53239619D01*
X236794047Y-53239619D02*
X236555952Y-53239619D01*
X236555952Y-53239619D02*
X236460714Y-53287238D01*
X236460714Y-53287238D02*
X236413095Y-53334857D01*
X236413095Y-53334857D02*
X236365476Y-53430095D01*
X236365476Y-53430095D02*
X236365476Y-53525333D01*
X236365476Y-53525333D02*
X236413095Y-53668190D01*
X236413095Y-53668190D02*
X236984523Y-54239619D01*
X236984523Y-54239619D02*
X236365476Y-54239619D01*
X235460714Y-53239619D02*
X235936904Y-53239619D01*
X235936904Y-53239619D02*
X235984523Y-53715809D01*
X235984523Y-53715809D02*
X235936904Y-53668190D01*
X235936904Y-53668190D02*
X235841666Y-53620571D01*
X235841666Y-53620571D02*
X235603571Y-53620571D01*
X235603571Y-53620571D02*
X235508333Y-53668190D01*
X235508333Y-53668190D02*
X235460714Y-53715809D01*
X235460714Y-53715809D02*
X235413095Y-53811047D01*
X235413095Y-53811047D02*
X235413095Y-54049142D01*
X235413095Y-54049142D02*
X235460714Y-54144380D01*
X235460714Y-54144380D02*
X235508333Y-54192000D01*
X235508333Y-54192000D02*
X235603571Y-54239619D01*
X235603571Y-54239619D02*
X235841666Y-54239619D01*
X235841666Y-54239619D02*
X235936904Y-54192000D01*
X235936904Y-54192000D02*
X235984523Y-54144380D01*
%TO.C,D42*%
X81239285Y-92314619D02*
X81239285Y-91314619D01*
X81239285Y-91314619D02*
X81001190Y-91314619D01*
X81001190Y-91314619D02*
X80858333Y-91362238D01*
X80858333Y-91362238D02*
X80763095Y-91457476D01*
X80763095Y-91457476D02*
X80715476Y-91552714D01*
X80715476Y-91552714D02*
X80667857Y-91743190D01*
X80667857Y-91743190D02*
X80667857Y-91886047D01*
X80667857Y-91886047D02*
X80715476Y-92076523D01*
X80715476Y-92076523D02*
X80763095Y-92171761D01*
X80763095Y-92171761D02*
X80858333Y-92267000D01*
X80858333Y-92267000D02*
X81001190Y-92314619D01*
X81001190Y-92314619D02*
X81239285Y-92314619D01*
X79810714Y-91647952D02*
X79810714Y-92314619D01*
X80048809Y-91267000D02*
X80286904Y-91981285D01*
X80286904Y-91981285D02*
X79667857Y-91981285D01*
X79334523Y-91409857D02*
X79286904Y-91362238D01*
X79286904Y-91362238D02*
X79191666Y-91314619D01*
X79191666Y-91314619D02*
X78953571Y-91314619D01*
X78953571Y-91314619D02*
X78858333Y-91362238D01*
X78858333Y-91362238D02*
X78810714Y-91409857D01*
X78810714Y-91409857D02*
X78763095Y-91505095D01*
X78763095Y-91505095D02*
X78763095Y-91600333D01*
X78763095Y-91600333D02*
X78810714Y-91743190D01*
X78810714Y-91743190D02*
X79382142Y-92314619D01*
X79382142Y-92314619D02*
X78763095Y-92314619D01*
%TO.C,D26*%
X281264285Y-54764619D02*
X281264285Y-53764619D01*
X281264285Y-53764619D02*
X281026190Y-53764619D01*
X281026190Y-53764619D02*
X280883333Y-53812238D01*
X280883333Y-53812238D02*
X280788095Y-53907476D01*
X280788095Y-53907476D02*
X280740476Y-54002714D01*
X280740476Y-54002714D02*
X280692857Y-54193190D01*
X280692857Y-54193190D02*
X280692857Y-54336047D01*
X280692857Y-54336047D02*
X280740476Y-54526523D01*
X280740476Y-54526523D02*
X280788095Y-54621761D01*
X280788095Y-54621761D02*
X280883333Y-54717000D01*
X280883333Y-54717000D02*
X281026190Y-54764619D01*
X281026190Y-54764619D02*
X281264285Y-54764619D01*
X280311904Y-53859857D02*
X280264285Y-53812238D01*
X280264285Y-53812238D02*
X280169047Y-53764619D01*
X280169047Y-53764619D02*
X279930952Y-53764619D01*
X279930952Y-53764619D02*
X279835714Y-53812238D01*
X279835714Y-53812238D02*
X279788095Y-53859857D01*
X279788095Y-53859857D02*
X279740476Y-53955095D01*
X279740476Y-53955095D02*
X279740476Y-54050333D01*
X279740476Y-54050333D02*
X279788095Y-54193190D01*
X279788095Y-54193190D02*
X280359523Y-54764619D01*
X280359523Y-54764619D02*
X279740476Y-54764619D01*
X278883333Y-53764619D02*
X279073809Y-53764619D01*
X279073809Y-53764619D02*
X279169047Y-53812238D01*
X279169047Y-53812238D02*
X279216666Y-53859857D01*
X279216666Y-53859857D02*
X279311904Y-54002714D01*
X279311904Y-54002714D02*
X279359523Y-54193190D01*
X279359523Y-54193190D02*
X279359523Y-54574142D01*
X279359523Y-54574142D02*
X279311904Y-54669380D01*
X279311904Y-54669380D02*
X279264285Y-54717000D01*
X279264285Y-54717000D02*
X279169047Y-54764619D01*
X279169047Y-54764619D02*
X278978571Y-54764619D01*
X278978571Y-54764619D02*
X278883333Y-54717000D01*
X278883333Y-54717000D02*
X278835714Y-54669380D01*
X278835714Y-54669380D02*
X278788095Y-54574142D01*
X278788095Y-54574142D02*
X278788095Y-54336047D01*
X278788095Y-54336047D02*
X278835714Y-54240809D01*
X278835714Y-54240809D02*
X278883333Y-54193190D01*
X278883333Y-54193190D02*
X278978571Y-54145571D01*
X278978571Y-54145571D02*
X279169047Y-54145571D01*
X279169047Y-54145571D02*
X279264285Y-54193190D01*
X279264285Y-54193190D02*
X279311904Y-54240809D01*
X279311904Y-54240809D02*
X279359523Y-54336047D01*
%TO.C,D10*%
X214589285Y-35189619D02*
X214589285Y-34189619D01*
X214589285Y-34189619D02*
X214351190Y-34189619D01*
X214351190Y-34189619D02*
X214208333Y-34237238D01*
X214208333Y-34237238D02*
X214113095Y-34332476D01*
X214113095Y-34332476D02*
X214065476Y-34427714D01*
X214065476Y-34427714D02*
X214017857Y-34618190D01*
X214017857Y-34618190D02*
X214017857Y-34761047D01*
X214017857Y-34761047D02*
X214065476Y-34951523D01*
X214065476Y-34951523D02*
X214113095Y-35046761D01*
X214113095Y-35046761D02*
X214208333Y-35142000D01*
X214208333Y-35142000D02*
X214351190Y-35189619D01*
X214351190Y-35189619D02*
X214589285Y-35189619D01*
X213065476Y-35189619D02*
X213636904Y-35189619D01*
X213351190Y-35189619D02*
X213351190Y-34189619D01*
X213351190Y-34189619D02*
X213446428Y-34332476D01*
X213446428Y-34332476D02*
X213541666Y-34427714D01*
X213541666Y-34427714D02*
X213636904Y-34475333D01*
X212446428Y-34189619D02*
X212351190Y-34189619D01*
X212351190Y-34189619D02*
X212255952Y-34237238D01*
X212255952Y-34237238D02*
X212208333Y-34284857D01*
X212208333Y-34284857D02*
X212160714Y-34380095D01*
X212160714Y-34380095D02*
X212113095Y-34570571D01*
X212113095Y-34570571D02*
X212113095Y-34808666D01*
X212113095Y-34808666D02*
X212160714Y-34999142D01*
X212160714Y-34999142D02*
X212208333Y-35094380D01*
X212208333Y-35094380D02*
X212255952Y-35142000D01*
X212255952Y-35142000D02*
X212351190Y-35189619D01*
X212351190Y-35189619D02*
X212446428Y-35189619D01*
X212446428Y-35189619D02*
X212541666Y-35142000D01*
X212541666Y-35142000D02*
X212589285Y-35094380D01*
X212589285Y-35094380D02*
X212636904Y-34999142D01*
X212636904Y-34999142D02*
X212684523Y-34808666D01*
X212684523Y-34808666D02*
X212684523Y-34570571D01*
X212684523Y-34570571D02*
X212636904Y-34380095D01*
X212636904Y-34380095D02*
X212589285Y-34284857D01*
X212589285Y-34284857D02*
X212541666Y-34237238D01*
X212541666Y-34237238D02*
X212446428Y-34189619D01*
%TO.C,D44*%
X119339285Y-92314619D02*
X119339285Y-91314619D01*
X119339285Y-91314619D02*
X119101190Y-91314619D01*
X119101190Y-91314619D02*
X118958333Y-91362238D01*
X118958333Y-91362238D02*
X118863095Y-91457476D01*
X118863095Y-91457476D02*
X118815476Y-91552714D01*
X118815476Y-91552714D02*
X118767857Y-91743190D01*
X118767857Y-91743190D02*
X118767857Y-91886047D01*
X118767857Y-91886047D02*
X118815476Y-92076523D01*
X118815476Y-92076523D02*
X118863095Y-92171761D01*
X118863095Y-92171761D02*
X118958333Y-92267000D01*
X118958333Y-92267000D02*
X119101190Y-92314619D01*
X119101190Y-92314619D02*
X119339285Y-92314619D01*
X117910714Y-91647952D02*
X117910714Y-92314619D01*
X118148809Y-91267000D02*
X118386904Y-91981285D01*
X118386904Y-91981285D02*
X117767857Y-91981285D01*
X116958333Y-91647952D02*
X116958333Y-92314619D01*
X117196428Y-91267000D02*
X117434523Y-91981285D01*
X117434523Y-91981285D02*
X116815476Y-91981285D01*
%TO.C,D17*%
X100289285Y-54239619D02*
X100289285Y-53239619D01*
X100289285Y-53239619D02*
X100051190Y-53239619D01*
X100051190Y-53239619D02*
X99908333Y-53287238D01*
X99908333Y-53287238D02*
X99813095Y-53382476D01*
X99813095Y-53382476D02*
X99765476Y-53477714D01*
X99765476Y-53477714D02*
X99717857Y-53668190D01*
X99717857Y-53668190D02*
X99717857Y-53811047D01*
X99717857Y-53811047D02*
X99765476Y-54001523D01*
X99765476Y-54001523D02*
X99813095Y-54096761D01*
X99813095Y-54096761D02*
X99908333Y-54192000D01*
X99908333Y-54192000D02*
X100051190Y-54239619D01*
X100051190Y-54239619D02*
X100289285Y-54239619D01*
X98765476Y-54239619D02*
X99336904Y-54239619D01*
X99051190Y-54239619D02*
X99051190Y-53239619D01*
X99051190Y-53239619D02*
X99146428Y-53382476D01*
X99146428Y-53382476D02*
X99241666Y-53477714D01*
X99241666Y-53477714D02*
X99336904Y-53525333D01*
X98432142Y-53239619D02*
X97765476Y-53239619D01*
X97765476Y-53239619D02*
X98194047Y-54239619D01*
D11*
%TO.C,D7*%
X155225000Y-33785000D02*
X155225000Y-29775000D01*
X157225000Y-33785000D02*
X155225000Y-33785000D01*
X157225000Y-33785000D02*
X157225000Y-29775000D01*
%TO.C,C4*%
X268715000Y-51611252D02*
X268715000Y-51088748D01*
X270185000Y-51611252D02*
X270185000Y-51088748D01*
%TO.C,RSW1*%
X267715000Y-36777064D02*
X267715000Y-36322936D01*
X269185000Y-36777064D02*
X269185000Y-36322936D01*
%TO.C,D8*%
X174275000Y-33785000D02*
X174275000Y-29775000D01*
X176275000Y-33785000D02*
X174275000Y-33785000D01*
X176275000Y-33785000D02*
X176275000Y-29775000D01*
%TO.C,D14*%
X40925000Y-52835000D02*
X40925000Y-48825000D01*
X42925000Y-52835000D02*
X40925000Y-52835000D01*
X42925000Y-52835000D02*
X42925000Y-48825000D01*
%TO.C,MX42*%
X73128186Y-81315698D02*
X70085293Y-81315698D01*
X70085293Y-81315698D02*
G75*
G03*
X69085293Y-82315698I6J-1000006D01*
G01*
%TO.C,D35*%
X193325000Y-71910000D02*
X193325000Y-67900000D01*
X195325000Y-71910000D02*
X193325000Y-71910000D01*
X195325000Y-71910000D02*
X195325000Y-67900000D01*
%TO.C,D11*%
X231425000Y-33785000D02*
X231425000Y-29775000D01*
X233425000Y-33785000D02*
X231425000Y-33785000D01*
X233425000Y-33785000D02*
X233425000Y-29775000D01*
%TO.C,R3*%
X258835000Y-44392936D02*
X258835000Y-44847064D01*
X257365000Y-44392936D02*
X257365000Y-44847064D01*
%TO.C,MX9*%
X187428282Y-24165650D02*
X184385389Y-24165650D01*
X184385389Y-24165650D02*
G75*
G03*
X183385389Y-25165650I6J-1000006D01*
G01*
%TO.C,MX3*%
X73128186Y-24165650D02*
X70085293Y-24165650D01*
X70085293Y-24165650D02*
G75*
G03*
X69085293Y-25165650I6J-1000006D01*
G01*
%TO.C,D39*%
X279050000Y-71910000D02*
X279050000Y-67900000D01*
X281050000Y-71910000D02*
X279050000Y-71910000D01*
X281050000Y-71910000D02*
X281050000Y-67900000D01*
%TO.C,MX41*%
X54078170Y-81315698D02*
X51035277Y-81315698D01*
X51035277Y-81315698D02*
G75*
G03*
X50035277Y-82315698I6J-1000006D01*
G01*
%TO.C,MX25*%
X244578330Y-43215666D02*
X241535437Y-43215666D01*
X241535437Y-43215666D02*
G75*
G03*
X240535437Y-44215666I6J-1000006D01*
G01*
%TO.C,MX22*%
X187428282Y-43215666D02*
X184385389Y-43215666D01*
X184385389Y-43215666D02*
G75*
G03*
X183385389Y-44215666I6J-1000006D01*
G01*
%TO.C,MX49*%
X206478298Y-81315698D02*
X203435405Y-81315698D01*
X203435405Y-81315698D02*
G75*
G03*
X202435405Y-82315698I6J-1000006D01*
G01*
%TO.C,D46*%
X155225000Y-90910000D02*
X155225000Y-86900000D01*
X157225000Y-90910000D02*
X155225000Y-90910000D01*
X157225000Y-90910000D02*
X157225000Y-86900000D01*
%TO.C,D40*%
X40925000Y-90910000D02*
X40925000Y-86900000D01*
X42925000Y-90910000D02*
X40925000Y-90910000D01*
X42925000Y-90910000D02*
X42925000Y-86900000D01*
%TO.C,MX10*%
X206478298Y-24165650D02*
X203435405Y-24165650D01*
X203435405Y-24165650D02*
G75*
G03*
X202435405Y-25165650I6J-1000006D01*
G01*
%TO.C,CX1*%
X274988748Y-53915000D02*
X275511252Y-53915000D01*
X274988748Y-55385000D02*
X275511252Y-55385000D01*
%TO.C,R2*%
X254675000Y-44847064D02*
X254675000Y-44392936D01*
X256145000Y-44847064D02*
X256145000Y-44392936D01*
%TO.C,C1*%
X249286252Y-54060000D02*
X248763748Y-54060000D01*
X249286252Y-52590000D02*
X248763748Y-52590000D01*
%TO.C,D4*%
X98075000Y-33785000D02*
X98075000Y-29775000D01*
X100075000Y-33785000D02*
X98075000Y-33785000D01*
X100075000Y-33785000D02*
X100075000Y-29775000D01*
%TO.C,Y1*%
X272500000Y-54025000D02*
X272500000Y-58025000D01*
X269200000Y-54025000D02*
X272500000Y-54025000D01*
%TO.C,C2*%
X249286252Y-60110000D02*
X248763748Y-60110000D01*
X249286252Y-58640000D02*
X248763748Y-58640000D01*
%TO.C,MX19*%
X130278234Y-43215666D02*
X127235341Y-43215666D01*
X127235341Y-43215666D02*
G75*
G03*
X126235341Y-44215666I6J-1000006D01*
G01*
%TO.C,D29*%
X79025000Y-71910000D02*
X79025000Y-67900000D01*
X81025000Y-71910000D02*
X79025000Y-71910000D01*
X81025000Y-71910000D02*
X81025000Y-67900000D01*
%TO.C,MX21*%
X168378266Y-43215666D02*
X165335373Y-43215666D01*
X165335373Y-43215666D02*
G75*
G03*
X164335373Y-44215666I6J-1000006D01*
G01*
%TO.C,D24*%
X231425000Y-52835000D02*
X231425000Y-48825000D01*
X233425000Y-52835000D02*
X231425000Y-52835000D01*
X233425000Y-52835000D02*
X233425000Y-48825000D01*
%TO.C,D31*%
X117125000Y-71910000D02*
X117125000Y-67900000D01*
X119125000Y-71910000D02*
X117125000Y-71910000D01*
X119125000Y-71910000D02*
X119125000Y-67900000D01*
%TO.C,D45*%
X136175000Y-90910000D02*
X136175000Y-86900000D01*
X138175000Y-90910000D02*
X136175000Y-90910000D01*
X138175000Y-90910000D02*
X138175000Y-86900000D01*
%TO.C,D16*%
X79025000Y-52835000D02*
X79025000Y-48825000D01*
X81025000Y-52835000D02*
X79025000Y-52835000D01*
X81025000Y-52835000D02*
X81025000Y-48825000D01*
%TO.C,D41*%
X59975000Y-90910000D02*
X59975000Y-86900000D01*
X61975000Y-90910000D02*
X59975000Y-90910000D01*
X61975000Y-90910000D02*
X61975000Y-86900000D01*
%TO.C,MX16*%
X73128186Y-43215666D02*
X70085293Y-43215666D01*
X70085293Y-43215666D02*
G75*
G03*
X69085293Y-44215666I6J-1000006D01*
G01*
%TO.C,D13*%
X279050000Y-33785000D02*
X279050000Y-29775000D01*
X281050000Y-33785000D02*
X279050000Y-33785000D01*
X281050000Y-33785000D02*
X281050000Y-29775000D01*
%TO.C,MX32*%
X130278234Y-62265682D02*
X127235341Y-62265682D01*
X127235341Y-62265682D02*
G75*
G03*
X126235341Y-63265682I6J-1000006D01*
G01*
%TO.C,D49*%
X212375000Y-90910000D02*
X212375000Y-86900000D01*
X214375000Y-90910000D02*
X212375000Y-90910000D01*
X214375000Y-90910000D02*
X214375000Y-86900000D01*
%TO.C,MX8*%
X168378266Y-24165650D02*
X165335373Y-24165650D01*
X165335373Y-24165650D02*
G75*
G03*
X164335373Y-25165650I6J-1000006D01*
G01*
%TO.C,D51*%
X250475000Y-90910000D02*
X250475000Y-86900000D01*
X252475000Y-90910000D02*
X250475000Y-90910000D01*
X252475000Y-90910000D02*
X252475000Y-86900000D01*
%TO.C,D50*%
X231425000Y-90910000D02*
X231425000Y-86900000D01*
X233425000Y-90910000D02*
X231425000Y-90910000D01*
X233425000Y-90910000D02*
X233425000Y-86900000D01*
%TO.C,C5*%
X260140000Y-44836252D02*
X260140000Y-44313748D01*
X261610000Y-44836252D02*
X261610000Y-44313748D01*
%TO.C,D52*%
X279050000Y-90910000D02*
X279050000Y-86900000D01*
X281050000Y-90910000D02*
X279050000Y-90910000D01*
X281050000Y-90910000D02*
X281050000Y-86900000D01*
%TO.C,MX33*%
X149328250Y-62265682D02*
X146285357Y-62265682D01*
X146285357Y-62265682D02*
G75*
G03*
X145285357Y-63265682I6J-1000006D01*
G01*
%TO.C,D37*%
X231425000Y-71910000D02*
X231425000Y-67900000D01*
X233425000Y-71910000D02*
X231425000Y-71910000D01*
X233425000Y-71910000D02*
X233425000Y-67900000D01*
%TO.C,D3*%
X79025000Y-33785000D02*
X79025000Y-29775000D01*
X81025000Y-33785000D02*
X79025000Y-33785000D01*
X81025000Y-33785000D02*
X81025000Y-29775000D01*
%TO.C,C3*%
X262685000Y-65613748D02*
X262685000Y-66136252D01*
X261215000Y-65613748D02*
X261215000Y-66136252D01*
%TO.C,MX37*%
X225528314Y-62265682D02*
X222485421Y-62265682D01*
X222485421Y-62265682D02*
G75*
G03*
X221485421Y-63265682I6J-1000006D01*
G01*
%TO.C,D18*%
X117125000Y-52835000D02*
X117125000Y-48825000D01*
X119125000Y-52835000D02*
X117125000Y-52835000D01*
X119125000Y-52835000D02*
X119125000Y-48825000D01*
%TO.C,D28*%
X59975000Y-71910000D02*
X59975000Y-67900000D01*
X61975000Y-71910000D02*
X59975000Y-71910000D01*
X61975000Y-71910000D02*
X61975000Y-67900000D01*
%TO.C,MX34*%
X168378266Y-62265682D02*
X165335373Y-62265682D01*
X165335373Y-62265682D02*
G75*
G03*
X164335373Y-63265682I6J-1000006D01*
G01*
%TO.C,MX28*%
X54078170Y-62265682D02*
X51035277Y-62265682D01*
X51035277Y-62265682D02*
G75*
G03*
X50035277Y-63265682I6J-1000006D01*
G01*
%TO.C,MX47*%
X168378266Y-81315698D02*
X165335373Y-81315698D01*
X165335373Y-81315698D02*
G75*
G03*
X164335373Y-82315698I6J-1000006D01*
G01*
%TO.C,D32*%
X136175000Y-71910000D02*
X136175000Y-67900000D01*
X138175000Y-71910000D02*
X136175000Y-71910000D01*
X138175000Y-71910000D02*
X138175000Y-67900000D01*
%TO.C,MX45*%
X130278234Y-81315698D02*
X127235341Y-81315698D01*
X127235341Y-81315698D02*
G75*
G03*
X126235341Y-82315698I6J-1000006D01*
G01*
%TO.C,D5*%
X117125000Y-33785000D02*
X117125000Y-29775000D01*
X119125000Y-33785000D02*
X117125000Y-33785000D01*
X119125000Y-33785000D02*
X119125000Y-29775000D01*
%TO.C,MX4*%
X92178202Y-24165650D02*
X89135309Y-24165650D01*
X89135309Y-24165650D02*
G75*
G03*
X88135309Y-25165650I6J-1000006D01*
G01*
%TO.C,D27*%
X40925000Y-71910000D02*
X40925000Y-67900000D01*
X42925000Y-71910000D02*
X40925000Y-71910000D01*
X42925000Y-71910000D02*
X42925000Y-67900000D01*
%TO.C,MX29*%
X73128186Y-62265682D02*
X70085293Y-62265682D01*
X70085293Y-62265682D02*
G75*
G03*
X69085293Y-63265682I6J-1000006D01*
G01*
%TO.C,MX7*%
X149328250Y-24165650D02*
X146285357Y-24165650D01*
X146285357Y-24165650D02*
G75*
G03*
X145285357Y-25165650I6J-1000006D01*
G01*
%TO.C,D48*%
X193325000Y-90910000D02*
X193325000Y-86900000D01*
X195325000Y-90910000D02*
X193325000Y-90910000D01*
X195325000Y-90910000D02*
X195325000Y-86900000D01*
%TO.C,D34*%
X174275000Y-71910000D02*
X174275000Y-67900000D01*
X176275000Y-71910000D02*
X174275000Y-71910000D01*
X176275000Y-71910000D02*
X176275000Y-67900000D01*
%TO.C,MX18*%
X111228218Y-43215666D02*
X108185325Y-43215666D01*
X108185325Y-43215666D02*
G75*
G03*
X107185325Y-44215666I6J-1000006D01*
G01*
%TO.C,D20*%
X155225000Y-52835000D02*
X155225000Y-48825000D01*
X157225000Y-52835000D02*
X155225000Y-52835000D01*
X157225000Y-52835000D02*
X157225000Y-48825000D01*
%TO.C,MX39*%
X273153354Y-62265682D02*
X270110461Y-62265682D01*
X270110461Y-62265682D02*
G75*
G03*
X269110461Y-63265682I6J-1000006D01*
G01*
%TO.C,J3*%
X220285000Y-40660000D02*
X222785000Y-40660000D01*
X222785000Y-40660000D02*
X222785000Y-39610000D01*
X222785000Y-39610000D02*
X223775000Y-39610000D01*
X218315000Y-39490000D02*
X218315000Y-35610000D01*
X220285000Y-34440000D02*
X222785000Y-34440000D01*
X222785000Y-34440000D02*
X222785000Y-35490000D01*
%TO.C,MX24*%
X225528314Y-43215666D02*
X222485421Y-43215666D01*
X222485421Y-43215666D02*
G75*
G03*
X221485421Y-44215666I6J-1000006D01*
G01*
%TO.C,D19*%
X136175000Y-52835000D02*
X136175000Y-48825000D01*
X138175000Y-52835000D02*
X136175000Y-52835000D01*
X138175000Y-52835000D02*
X138175000Y-48825000D01*
%TO.C,MX43*%
X92178202Y-81315698D02*
X89135309Y-81315698D01*
X89135309Y-81315698D02*
G75*
G03*
X88135309Y-82315698I6J-1000006D01*
G01*
%TO.C,MX13*%
X273153354Y-24165650D02*
X270110461Y-24165650D01*
X270110461Y-24165650D02*
G75*
G03*
X269110461Y-25165650I6J-1000006D01*
G01*
%TO.C,MX6*%
X130278234Y-24165650D02*
X127235341Y-24165650D01*
X127235341Y-24165650D02*
G75*
G03*
X126235341Y-25165650I6J-1000006D01*
G01*
%TO.C,MX36*%
X206478298Y-62265682D02*
X203435405Y-62265682D01*
X203435405Y-62265682D02*
G75*
G03*
X202435405Y-63265682I6J-1000006D01*
G01*
%TO.C,R1*%
X253390000Y-66089564D02*
X253390000Y-65635436D01*
X254860000Y-66089564D02*
X254860000Y-65635436D01*
D10*
%TO.C,J5*%
X272093000Y-92480000D02*
X273617000Y-92480000D01*
X272093000Y-92480000D02*
X271585000Y-92988000D01*
X269553000Y-92480000D02*
X271077000Y-92480000D01*
X269553000Y-92480000D02*
X269045000Y-92988000D01*
X267013000Y-92480000D02*
X268537000Y-92480000D01*
X267013000Y-92480000D02*
X266505000Y-92988000D01*
X264473000Y-92480000D02*
X265997000Y-92480000D01*
X264473000Y-92480000D02*
X263965000Y-92988000D01*
X261933000Y-92480000D02*
X263457000Y-92480000D01*
X261933000Y-92480000D02*
X261425000Y-92988000D01*
X259393000Y-92480000D02*
X260917000Y-92480000D01*
X259393000Y-92480000D02*
X258885000Y-92988000D01*
X256853000Y-92480000D02*
X258377000Y-92480000D01*
X256853000Y-92480000D02*
X256345000Y-92988000D01*
X254313000Y-92480000D02*
X255837000Y-92480000D01*
X254313000Y-92480000D02*
X253805000Y-92988000D01*
X274125000Y-92988000D02*
X273617000Y-92480000D01*
X271585000Y-92988000D02*
X271077000Y-92480000D01*
X269045000Y-92988000D02*
X268537000Y-92480000D01*
X266505000Y-92988000D02*
X265997000Y-92480000D01*
X263965000Y-92988000D02*
X263457000Y-92480000D01*
X261425000Y-92988000D02*
X260917000Y-92480000D01*
X258885000Y-92988000D02*
X258377000Y-92480000D01*
X256345000Y-92988000D02*
X255837000Y-92480000D01*
X253805000Y-92988000D02*
X253805000Y-94512000D01*
X274125000Y-94512000D02*
X274125000Y-92988000D01*
X271585000Y-94512000D02*
X272093000Y-95020000D01*
X269045000Y-94512000D02*
X269553000Y-95020000D01*
X266505000Y-94512000D02*
X267013000Y-95020000D01*
X263965000Y-94512000D02*
X264473000Y-95020000D01*
X261425000Y-94512000D02*
X261933000Y-95020000D01*
X258885000Y-94512000D02*
X259393000Y-95020000D01*
X256345000Y-94512000D02*
X256853000Y-95020000D01*
X253805000Y-94512000D02*
X254313000Y-95020000D01*
X273617000Y-95020000D02*
X274125000Y-94512000D01*
X272093000Y-95020000D02*
X273617000Y-95020000D01*
X271077000Y-95020000D02*
X271585000Y-94512000D01*
X269553000Y-95020000D02*
X271077000Y-95020000D01*
X268537000Y-95020000D02*
X269045000Y-94512000D01*
X267013000Y-95020000D02*
X268537000Y-95020000D01*
X265997000Y-95020000D02*
X266505000Y-94512000D01*
X264473000Y-95020000D02*
X265997000Y-95020000D01*
X263457000Y-95020000D02*
X263965000Y-94512000D01*
X261933000Y-95020000D02*
X263457000Y-95020000D01*
X260917000Y-95020000D02*
X261425000Y-94512000D01*
X259393000Y-95020000D02*
X260917000Y-95020000D01*
X258377000Y-95020000D02*
X258885000Y-94512000D01*
X256853000Y-95020000D02*
X258377000Y-95020000D01*
X255837000Y-95020000D02*
X256345000Y-94512000D01*
X254313000Y-95020000D02*
X255837000Y-95020000D01*
D11*
%TO.C,D6*%
X136175000Y-33785000D02*
X136175000Y-29775000D01*
X138175000Y-33785000D02*
X136175000Y-33785000D01*
X138175000Y-33785000D02*
X138175000Y-29775000D01*
%TO.C,MX30*%
X92178202Y-62265682D02*
X89135309Y-62265682D01*
X89135309Y-62265682D02*
G75*
G03*
X88135309Y-63265682I6J-1000006D01*
G01*
%TO.C,D12*%
X250475000Y-33785000D02*
X250475000Y-29775000D01*
X252475000Y-33785000D02*
X250475000Y-33785000D01*
X252475000Y-33785000D02*
X252475000Y-29775000D01*
%TO.C,D30*%
X98075000Y-71910000D02*
X98075000Y-67900000D01*
X100075000Y-71910000D02*
X98075000Y-71910000D01*
X100075000Y-71910000D02*
X100075000Y-67900000D01*
%TO.C,D2*%
X59970000Y-33785000D02*
X59970000Y-29775000D01*
X61970000Y-33785000D02*
X59970000Y-33785000D01*
X61970000Y-33785000D02*
X61970000Y-29775000D01*
%TO.C,CX2*%
X274988748Y-56615000D02*
X275511252Y-56615000D01*
X274988748Y-58085000D02*
X275511252Y-58085000D01*
%TO.C,MX35*%
X187428282Y-62265682D02*
X184385389Y-62265682D01*
X184385389Y-62265682D02*
G75*
G03*
X183385389Y-63265682I6J-1000006D01*
G01*
%TO.C,MX15*%
X54078170Y-43215666D02*
X51035277Y-43215666D01*
X51035277Y-43215666D02*
G75*
G03*
X50035277Y-44215666I6J-1000006D01*
G01*
%TO.C,MX48*%
X187428282Y-81315698D02*
X184385389Y-81315698D01*
X184385389Y-81315698D02*
G75*
G03*
X183385389Y-82315698I6J-1000006D01*
G01*
%TO.C,D33*%
X155225000Y-71910000D02*
X155225000Y-67900000D01*
X157225000Y-71910000D02*
X155225000Y-71910000D01*
X157225000Y-71910000D02*
X157225000Y-67900000D01*
%TO.C,MX31*%
X111228218Y-62265682D02*
X108185325Y-62265682D01*
X108185325Y-62265682D02*
G75*
G03*
X107185325Y-63265682I6J-1000006D01*
G01*
%TO.C,D22*%
X193325000Y-52835000D02*
X193325000Y-48825000D01*
X195325000Y-52835000D02*
X193325000Y-52835000D01*
X195325000Y-52835000D02*
X195325000Y-48825000D01*
%TO.C,MX17*%
X92178202Y-43215666D02*
X89135309Y-43215666D01*
X89135309Y-43215666D02*
G75*
G03*
X88135309Y-44215666I6J-1000006D01*
G01*
%TO.C,D36*%
X212375000Y-71910000D02*
X212375000Y-67900000D01*
X214375000Y-71910000D02*
X212375000Y-71910000D01*
X214375000Y-71910000D02*
X214375000Y-67900000D01*
%TO.C,MX51*%
X244578330Y-81315698D02*
X241535437Y-81315698D01*
X241535437Y-81315698D02*
G75*
G03*
X240535437Y-82315698I6J-1000006D01*
G01*
D10*
%TO.C,U1*%
X263925000Y-51250000D02*
X263250000Y-51250000D01*
X263925000Y-51250000D02*
X263925000Y-51925000D01*
X254150000Y-51250000D02*
X254150000Y-49975000D01*
X253575000Y-51250000D02*
X254150000Y-51250000D01*
X253575000Y-51250000D02*
X253575000Y-51925000D01*
X263925000Y-61600000D02*
X263925000Y-60925000D01*
X263925000Y-61600000D02*
X263250000Y-61600000D01*
X253575000Y-61600000D02*
X253575000Y-60925000D01*
X253575000Y-61600000D02*
X254250000Y-61600000D01*
D11*
%TO.C,MX44*%
X111228218Y-81315698D02*
X108185325Y-81315698D01*
X108185325Y-81315698D02*
G75*
G03*
X107185325Y-82315698I6J-1000006D01*
G01*
%TO.C,MX27*%
X35028154Y-62265682D02*
X31985261Y-62265682D01*
X31985261Y-62265682D02*
G75*
G03*
X30985261Y-63265682I6J-1000006D01*
G01*
%TO.C,MX40*%
X35028154Y-81315698D02*
X31985261Y-81315698D01*
X31985261Y-81315698D02*
G75*
G03*
X30985261Y-82315698I6J-1000006D01*
G01*
%TO.C,MX12*%
X244578330Y-24165650D02*
X241535437Y-24165650D01*
X241535437Y-24165650D02*
G75*
G03*
X240535437Y-25165650I6J-1000006D01*
G01*
%TO.C,D43*%
X98075000Y-90910000D02*
X98075000Y-86900000D01*
X100075000Y-90910000D02*
X98075000Y-90910000D01*
X100075000Y-90910000D02*
X100075000Y-86900000D01*
%TO.C,D47*%
X174275000Y-90910000D02*
X174275000Y-86900000D01*
X176275000Y-90910000D02*
X174275000Y-90910000D01*
X176275000Y-90910000D02*
X176275000Y-86900000D01*
%TO.C,MX11*%
X225528314Y-24165650D02*
X222485421Y-24165650D01*
X222485421Y-24165650D02*
G75*
G03*
X221485421Y-25165650I6J-1000006D01*
G01*
%TO.C,D9*%
X193325000Y-33785000D02*
X193325000Y-29775000D01*
X195325000Y-33785000D02*
X193325000Y-33785000D01*
X195325000Y-33785000D02*
X195325000Y-29775000D01*
%TO.C,MX23*%
X206478298Y-43215666D02*
X203435405Y-43215666D01*
X203435405Y-43215666D02*
G75*
G03*
X202435405Y-44215666I6J-1000006D01*
G01*
%TO.C,MX52*%
X273153354Y-81315698D02*
X270110461Y-81315698D01*
X270110461Y-81315698D02*
G75*
G03*
X269110461Y-82315698I6J-1000006D01*
G01*
%TO.C,D1*%
X40930000Y-33762500D02*
X40930000Y-29752500D01*
X42930000Y-33762500D02*
X40930000Y-33762500D01*
X42930000Y-33762500D02*
X42930000Y-29752500D01*
%TO.C,D21*%
X174275000Y-52835000D02*
X174275000Y-48825000D01*
X176275000Y-52835000D02*
X174275000Y-52835000D01*
X176275000Y-52835000D02*
X176275000Y-48825000D01*
%TO.C,MX2*%
X54078170Y-24165650D02*
X51035277Y-24165650D01*
X51035277Y-24165650D02*
G75*
G03*
X50035277Y-25165650I6J-1000006D01*
G01*
%TO.C,MX50*%
X225528314Y-81315698D02*
X222485421Y-81315698D01*
X222485421Y-81315698D02*
G75*
G03*
X221485421Y-82315698I6J-1000006D01*
G01*
%TO.C,D38*%
X250475000Y-71910000D02*
X250475000Y-67900000D01*
X252475000Y-71910000D02*
X250475000Y-71910000D01*
X252475000Y-71910000D02*
X252475000Y-67900000D01*
%TO.C,MX20*%
X149328250Y-43215666D02*
X146285357Y-43215666D01*
X146285357Y-43215666D02*
G75*
G03*
X145285357Y-44215666I6J-1000006D01*
G01*
%TO.C,MX26*%
X273153354Y-43215666D02*
X270110461Y-43215666D01*
X270110461Y-43215666D02*
G75*
G03*
X269110461Y-44215666I6J-1000006D01*
G01*
%TO.C,D15*%
X59975000Y-52835000D02*
X59975000Y-48825000D01*
X61975000Y-52835000D02*
X59975000Y-52835000D01*
X61975000Y-52835000D02*
X61975000Y-48825000D01*
%TO.C,MX1*%
X35028154Y-24165650D02*
X31985261Y-24165650D01*
X31985261Y-24165650D02*
G75*
G03*
X30985261Y-25165650I6J-1000006D01*
G01*
%TO.C,J2*%
X261645000Y-37066000D02*
X261645000Y-35034000D01*
X261645000Y-35034000D02*
X261391000Y-34780000D01*
X261645000Y-34526000D02*
X261645000Y-32494000D01*
X261645000Y-32494000D02*
X261391000Y-32240000D01*
X261645000Y-31986000D02*
X261645000Y-29954000D01*
X261645000Y-29954000D02*
X261391000Y-29700000D01*
X261645000Y-29446000D02*
X261645000Y-27414000D01*
X261645000Y-27414000D02*
X261391000Y-27160000D01*
X261645000Y-26906000D02*
X261645000Y-24874000D01*
X261645000Y-24874000D02*
X261391000Y-24620000D01*
X261645000Y-24366000D02*
X261645000Y-22334000D01*
X261645000Y-22334000D02*
X261391000Y-22080000D01*
X261391000Y-37320000D02*
X261645000Y-37066000D01*
X261391000Y-34780000D02*
X261645000Y-34526000D01*
X261391000Y-32240000D02*
X261645000Y-31986000D01*
X261391000Y-32240000D02*
X261645000Y-31986000D01*
X261391000Y-29700000D02*
X261645000Y-29446000D01*
X261391000Y-27160000D02*
X261645000Y-26906000D01*
X261391000Y-24620000D02*
X261645000Y-24366000D01*
X259359000Y-37320000D02*
X261391000Y-37320000D01*
X259359000Y-34780000D02*
X259105000Y-35034000D01*
X259359000Y-32240000D02*
X259105000Y-32494000D01*
X259359000Y-32240000D02*
X259105000Y-32494000D01*
X259359000Y-29700000D02*
X259105000Y-29954000D01*
X259359000Y-27160000D02*
X259105000Y-27414000D01*
X259359000Y-24620000D02*
X261391000Y-24620000D01*
X259359000Y-24620000D02*
X259105000Y-24874000D01*
X259359000Y-22080000D02*
X261391000Y-22080000D01*
X259105000Y-37066000D02*
X259359000Y-37320000D01*
X259105000Y-35034000D02*
X259105000Y-37066000D01*
X259105000Y-34526000D02*
X259359000Y-34780000D01*
X259105000Y-32494000D02*
X259105000Y-34526000D01*
X259105000Y-31986000D02*
X259359000Y-32240000D01*
X259105000Y-29954000D02*
X259105000Y-31986000D01*
X259105000Y-29446000D02*
X259359000Y-29700000D01*
X259105000Y-27414000D02*
X259105000Y-29446000D01*
X259105000Y-26906000D02*
X259359000Y-27160000D01*
X259105000Y-24874000D02*
X259105000Y-26906000D01*
X259105000Y-24366000D02*
X259359000Y-24620000D01*
X259105000Y-24112000D02*
X259105000Y-24366000D01*
X259105000Y-22334000D02*
X259359000Y-22080000D01*
X259105000Y-22334000D02*
X259105000Y-24112000D01*
D10*
%TO.C,SW1*%
X271250000Y-36525000D02*
X271250000Y-38725000D01*
X271250000Y-40225000D02*
X276450000Y-40225000D01*
X276450000Y-35025000D02*
X271250000Y-35025000D01*
X276450000Y-38725000D02*
X276450000Y-36525000D01*
X274850000Y-37625000D02*
G75*
G03*
X274850000Y-37625000I-1000000J0D01*
G01*
D11*
%TO.C,D23*%
X212375000Y-52835000D02*
X212375000Y-48825000D01*
X214375000Y-52835000D02*
X212375000Y-52835000D01*
X214375000Y-52835000D02*
X214375000Y-48825000D01*
%TO.C,D25*%
X235675000Y-52835000D02*
X235675000Y-48825000D01*
X237675000Y-52835000D02*
X235675000Y-52835000D01*
X237675000Y-52835000D02*
X237675000Y-48825000D01*
%TO.C,D42*%
X79025000Y-90910000D02*
X79025000Y-86900000D01*
X81025000Y-90910000D02*
X79025000Y-90910000D01*
X81025000Y-90910000D02*
X81025000Y-86900000D01*
%TO.C,D26*%
X279050000Y-53360000D02*
X279050000Y-49350000D01*
X281050000Y-53360000D02*
X279050000Y-53360000D01*
X281050000Y-53360000D02*
X281050000Y-49350000D01*
%TO.C,MX38*%
X244578330Y-62265682D02*
X241535437Y-62265682D01*
X241535437Y-62265682D02*
G75*
G03*
X240535437Y-63265682I6J-1000006D01*
G01*
%TO.C,D10*%
X212375000Y-33785000D02*
X212375000Y-29775000D01*
X214375000Y-33785000D02*
X212375000Y-33785000D01*
X214375000Y-33785000D02*
X214375000Y-29775000D01*
%TO.C,MX5*%
X111228218Y-24165650D02*
X108185325Y-24165650D01*
X108185325Y-24165650D02*
G75*
G03*
X107185325Y-25165650I6J-1000006D01*
G01*
%TO.C,D44*%
X117125000Y-90910000D02*
X117125000Y-86900000D01*
X119125000Y-90910000D02*
X117125000Y-90910000D01*
X119125000Y-90910000D02*
X119125000Y-86900000D01*
%TO.C,D17*%
X98075000Y-52835000D02*
X98075000Y-48825000D01*
X100075000Y-52835000D02*
X98075000Y-52835000D01*
X100075000Y-52835000D02*
X100075000Y-48825000D01*
%TO.C,MX46*%
X149328250Y-81315698D02*
X146285357Y-81315698D01*
X146285357Y-81315698D02*
G75*
G03*
X145285357Y-82315698I6J-1000006D01*
G01*
%TO.C,MX14*%
X35028154Y-43215666D02*
X31985261Y-43215666D01*
X31985261Y-43215666D02*
G75*
G03*
X30985261Y-44215666I6J-1000006D01*
G01*
%TD*%
M02*
