M48
; DRILL file {KiCad 7.0.1-0} date 2023 April 23, Sunday 09:38:47
; FORMAT={-:-/ absolute / inch / decimal}
; #@! TF.CreationDate,2023-04-23T09:38:47-05:00
; #@! TF.GenerationSoftware,Kicad,Pcbnew,7.0.1-0
; #@! TF.FileFunction,NonPlated,1,2,NPTH
FMAT,2
INCH
; #@! TA.AperFunction,NonPlated,NPTH,ComponentDrill
T1C0.0256
; #@! TA.AperFunction,NonPlated,NPTH,ComponentDrill
T2C0.0689
; #@! TA.AperFunction,NonPlated,NPTH,ComponentDrill
T3C0.1570
%
G90
G05
T1
X1.5972Y-1.0241
X1.8247Y-1.0241
T2
X1.1594Y-1.1719
X1.1594Y-1.9219
X1.1594Y-2.6719
X1.1594Y-3.4219
X1.5594Y-1.1719
X1.5594Y-1.9219
X1.5594Y-2.6719
X1.5594Y-3.4219
X1.9094Y-1.1719
X1.9094Y-1.9219
X1.9094Y-2.6719
X1.9094Y-3.4219
X2.3094Y-1.1719
X2.3094Y-1.9219
X2.3094Y-2.6719
X2.3094Y-3.4219
X2.6594Y-1.1719
X2.6594Y-1.9219
X2.6594Y-2.6719
X2.6594Y-3.4219
X3.0594Y-1.1719
X3.0594Y-1.9219
X3.0594Y-2.6719
X3.0594Y-3.4219
X3.4094Y-1.1719
X3.4094Y-1.9219
X3.4094Y-2.6719
X3.4094Y-3.4219
X3.8094Y-1.1719
X3.8094Y-1.9219
X3.8094Y-2.6719
X3.8094Y-3.4219
X4.1594Y-1.1719
X4.1594Y-1.9219
X4.1594Y-2.6719
X4.1594Y-3.4219
X4.5594Y-1.1719
X4.5594Y-1.9219
X4.5594Y-2.6719
X4.5594Y-3.4219
X4.9094Y-1.1719
X4.9094Y-1.9219
X4.9094Y-2.6719
X4.9094Y-3.4219
X5.3094Y-1.1719
X5.3094Y-1.9219
X5.3094Y-2.6719
X5.3094Y-3.4219
X5.6594Y-1.1719
X5.6594Y-1.9219
X5.6594Y-2.6719
X5.6594Y-3.4219
X6.0594Y-1.1719
X6.0594Y-1.9219
X6.0594Y-2.6719
X6.0594Y-3.4219
X6.4094Y-1.1719
X6.4094Y-1.9219
X6.4094Y-2.6719
X6.4094Y-3.4219
X6.8094Y-1.1719
X6.8094Y-1.9219
X6.8094Y-2.6719
X6.8094Y-3.4219
X7.1594Y-1.1719
X7.1594Y-1.9219
X7.1594Y-2.6719
X7.1594Y-3.4219
X7.5594Y-1.1719
X7.5594Y-1.9219
X7.5594Y-2.6719
X7.5594Y-3.4219
X7.9094Y-1.1719
X7.9094Y-1.9219
X7.9094Y-2.6719
X7.9094Y-3.4219
X8.3094Y-1.1719
X8.3094Y-1.9219
X8.3094Y-2.6719
X8.3094Y-3.4219
X8.6594Y-1.1719
X8.6594Y-1.9219
X8.6594Y-2.6719
X8.6594Y-3.4219
X9.0594Y-1.1719
X9.0594Y-1.9219
X9.0594Y-2.6719
X9.0594Y-3.4219
X9.4094Y-1.1719
X9.4094Y-1.9219
X9.4094Y-2.6719
X9.4094Y-3.4219
X9.8094Y-1.1719
X9.8094Y-1.9219
X9.8094Y-2.6719
X9.8094Y-3.4219
X10.5344Y-1.1719
X10.5344Y-1.9219
X10.5344Y-2.6719
X10.5344Y-3.4219
X10.9344Y-1.1719
X10.9344Y-1.9219
X10.9344Y-2.6719
X10.9344Y-3.4219
T3
X1.3594Y-1.1719
X1.3594Y-1.9219
X1.3594Y-2.6719
X1.3594Y-3.4219
X2.1094Y-1.1719
X2.1094Y-1.9219
X2.1094Y-2.6719
X2.1094Y-3.4219
X2.8594Y-1.1719
X2.8594Y-1.9219
X2.8594Y-2.6719
X2.8594Y-3.4219
X3.6094Y-1.1719
X3.6094Y-1.9219
X3.6094Y-2.6719
X3.6094Y-3.4219
X4.3594Y-1.1719
X4.3594Y-1.9219
X4.3594Y-2.6719
X4.3594Y-3.4219
X5.1094Y-1.1719
X5.1094Y-1.9219
X5.1094Y-2.6719
X5.1094Y-3.4219
X5.8594Y-1.1719
X5.8594Y-1.9219
X5.8594Y-2.6719
X5.8594Y-3.4219
X6.6094Y-1.1719
X6.6094Y-1.9219
X6.6094Y-2.6719
X6.6094Y-3.4219
X7.3594Y-1.1719
X7.3594Y-1.9219
X7.3594Y-2.6719
X7.3594Y-3.4219
X8.1094Y-1.1719
X8.1094Y-1.9219
X8.1094Y-2.6719
X8.1094Y-3.4219
X8.8594Y-1.1719
X8.8594Y-1.9219
X8.8594Y-2.6719
X8.8594Y-3.4219
X9.6094Y-1.1719
X9.6094Y-1.9219
X9.6094Y-2.6719
X9.6094Y-3.4219
X10.7344Y-1.1719
X10.7344Y-1.9219
X10.7344Y-2.6719
X10.7344Y-3.4219
T0
M30
