%TF.GenerationSoftware,KiCad,Pcbnew,7.0.1-0*%
%TF.CreationDate,2023-04-28T12:46:07-05:00*%
%TF.ProjectId,pcb,7063622e-6b69-4636-9164-5f7063625858,rev?*%
%TF.SameCoordinates,Original*%
%TF.FileFunction,Paste,Bot*%
%TF.FilePolarity,Positive*%
%FSLAX46Y46*%
G04 Gerber Fmt 4.6, Leading zero omitted, Abs format (unit mm)*
G04 Created by KiCad (PCBNEW 7.0.1-0) date 2023-04-28 12:46:07*
%MOMM*%
%LPD*%
G01*
G04 APERTURE LIST*
G04 Aperture macros list*
%AMRoundRect*
0 Rectangle with rounded corners*
0 $1 Rounding radius*
0 $2 $3 $4 $5 $6 $7 $8 $9 X,Y pos of 4 corners*
0 Add a 4 corners polygon primitive as box body*
4,1,4,$2,$3,$4,$5,$6,$7,$8,$9,$2,$3,0*
0 Add four circle primitives for the rounded corners*
1,1,$1+$1,$2,$3*
1,1,$1+$1,$4,$5*
1,1,$1+$1,$6,$7*
1,1,$1+$1,$8,$9*
0 Add four rect primitives between the rounded corners*
20,1,$1+$1,$2,$3,$4,$5,0*
20,1,$1+$1,$4,$5,$6,$7,0*
20,1,$1+$1,$6,$7,$8,$9,0*
20,1,$1+$1,$8,$9,$2,$3,0*%
G04 Aperture macros list end*
%ADD10RoundRect,0.225000X0.375000X-0.225000X0.375000X0.225000X-0.375000X0.225000X-0.375000X-0.225000X0*%
%ADD11RoundRect,0.250000X0.475000X-0.250000X0.475000X0.250000X-0.475000X0.250000X-0.475000X-0.250000X0*%
%ADD12RoundRect,0.250000X0.450000X-0.262500X0.450000X0.262500X-0.450000X0.262500X-0.450000X-0.262500X0*%
%ADD13RoundRect,0.250000X1.025000X1.000000X-1.025000X1.000000X-1.025000X-1.000000X1.025000X-1.000000X0*%
%ADD14RoundRect,0.250000X-0.450000X0.262500X-0.450000X-0.262500X0.450000X-0.262500X0.450000X0.262500X0*%
%ADD15RoundRect,0.250000X-0.250000X-0.475000X0.250000X-0.475000X0.250000X0.475000X-0.250000X0.475000X0*%
%ADD16RoundRect,0.250000X0.250000X0.475000X-0.250000X0.475000X-0.250000X-0.475000X0.250000X-0.475000X0*%
%ADD17R,1.200000X1.400000*%
%ADD18RoundRect,0.250000X-0.475000X0.250000X-0.475000X-0.250000X0.475000X-0.250000X0.475000X0.250000X0*%
%ADD19RoundRect,0.150000X0.625000X-0.150000X0.625000X0.150000X-0.625000X0.150000X-0.625000X-0.150000X0*%
%ADD20RoundRect,0.250000X0.650000X-0.350000X0.650000X0.350000X-0.650000X0.350000X-0.650000X-0.350000X0*%
%ADD21R,0.550000X1.500000*%
%ADD22R,1.500000X0.550000*%
%ADD23R,1.800000X1.100000*%
G04 APERTURE END LIST*
D10*
%TO.C,D7*%
X156225000Y-33075000D03*
X156225000Y-29775000D03*
%TD*%
D11*
%TO.C,C4*%
X269450000Y-52300000D03*
X269450000Y-50400000D03*
%TD*%
D12*
%TO.C,RSW1*%
X268450000Y-37462500D03*
X268450000Y-35637500D03*
%TD*%
D10*
%TO.C,D8*%
X175275000Y-33075000D03*
X175275000Y-29775000D03*
%TD*%
%TO.C,D14*%
X41925000Y-52125000D03*
X41925000Y-48825000D03*
%TD*%
D13*
%TO.C,MX42*%
X65268186Y-84375698D03*
X78718186Y-81835698D03*
%TD*%
D10*
%TO.C,D35*%
X194325000Y-71200000D03*
X194325000Y-67900000D03*
%TD*%
%TO.C,D11*%
X232425000Y-33075000D03*
X232425000Y-29775000D03*
%TD*%
D14*
%TO.C,R3*%
X258100000Y-43707500D03*
X258100000Y-45532500D03*
%TD*%
D13*
%TO.C,MX9*%
X179568282Y-27225650D03*
X193018282Y-24685650D03*
%TD*%
%TO.C,MX3*%
X65268186Y-27225650D03*
X78718186Y-24685650D03*
%TD*%
D10*
%TO.C,D39*%
X280050000Y-71200000D03*
X280050000Y-67900000D03*
%TD*%
D13*
%TO.C,MX41*%
X46218170Y-84375698D03*
X59668170Y-81835698D03*
%TD*%
%TO.C,MX25*%
X236718330Y-46275666D03*
X250168330Y-43735666D03*
%TD*%
%TO.C,MX22*%
X179568282Y-46275666D03*
X193018282Y-43735666D03*
%TD*%
%TO.C,MX49*%
X198618298Y-84375698D03*
X212068298Y-81835698D03*
%TD*%
D10*
%TO.C,D46*%
X156225000Y-90200000D03*
X156225000Y-86900000D03*
%TD*%
%TO.C,D40*%
X41925000Y-90200000D03*
X41925000Y-86900000D03*
%TD*%
D13*
%TO.C,MX10*%
X198618298Y-27225650D03*
X212068298Y-24685650D03*
%TD*%
D15*
%TO.C,CX1*%
X274300000Y-54650000D03*
X276200000Y-54650000D03*
%TD*%
D12*
%TO.C,R2*%
X255410000Y-45532500D03*
X255410000Y-43707500D03*
%TD*%
D16*
%TO.C,C1*%
X249975000Y-53325000D03*
X248075000Y-53325000D03*
%TD*%
D10*
%TO.C,D4*%
X99075000Y-33075000D03*
X99075000Y-29775000D03*
%TD*%
D17*
%TO.C,Y1*%
X271700000Y-54925000D03*
X271700000Y-57125000D03*
X270000000Y-57125000D03*
X270000000Y-54925000D03*
%TD*%
D16*
%TO.C,C2*%
X249975000Y-59375000D03*
X248075000Y-59375000D03*
%TD*%
D13*
%TO.C,MX19*%
X122418234Y-46275666D03*
X135868234Y-43735666D03*
%TD*%
D10*
%TO.C,D29*%
X80025000Y-71200000D03*
X80025000Y-67900000D03*
%TD*%
D13*
%TO.C,MX21*%
X160518266Y-46275666D03*
X173968266Y-43735666D03*
%TD*%
D10*
%TO.C,D24*%
X232425000Y-52125000D03*
X232425000Y-48825000D03*
%TD*%
%TO.C,D31*%
X118125000Y-71200000D03*
X118125000Y-67900000D03*
%TD*%
%TO.C,D45*%
X137175000Y-90200000D03*
X137175000Y-86900000D03*
%TD*%
%TO.C,D16*%
X80025000Y-52125000D03*
X80025000Y-48825000D03*
%TD*%
%TO.C,D41*%
X60975000Y-90200000D03*
X60975000Y-86900000D03*
%TD*%
D13*
%TO.C,MX16*%
X65268186Y-46275666D03*
X78718186Y-43735666D03*
%TD*%
D10*
%TO.C,D13*%
X280050000Y-33075000D03*
X280050000Y-29775000D03*
%TD*%
D13*
%TO.C,MX32*%
X122418234Y-65325682D03*
X135868234Y-62785682D03*
%TD*%
D10*
%TO.C,D49*%
X213375000Y-90200000D03*
X213375000Y-86900000D03*
%TD*%
D13*
%TO.C,MX8*%
X160518266Y-27225650D03*
X173968266Y-24685650D03*
%TD*%
D10*
%TO.C,D51*%
X251475000Y-90200000D03*
X251475000Y-86900000D03*
%TD*%
%TO.C,D50*%
X232425000Y-90200000D03*
X232425000Y-86900000D03*
%TD*%
D11*
%TO.C,C5*%
X260875000Y-45525000D03*
X260875000Y-43625000D03*
%TD*%
D10*
%TO.C,D52*%
X280050000Y-90200000D03*
X280050000Y-86900000D03*
%TD*%
D13*
%TO.C,MX33*%
X141468250Y-65325682D03*
X154918250Y-62785682D03*
%TD*%
D10*
%TO.C,D37*%
X232425000Y-71200000D03*
X232425000Y-67900000D03*
%TD*%
%TO.C,D3*%
X80025000Y-33075000D03*
X80025000Y-29775000D03*
%TD*%
D18*
%TO.C,C3*%
X261950000Y-64925000D03*
X261950000Y-66825000D03*
%TD*%
D13*
%TO.C,MX37*%
X217668314Y-65325682D03*
X231118314Y-62785682D03*
%TD*%
D10*
%TO.C,D18*%
X118125000Y-52125000D03*
X118125000Y-48825000D03*
%TD*%
%TO.C,D28*%
X60975000Y-71200000D03*
X60975000Y-67900000D03*
%TD*%
D13*
%TO.C,MX34*%
X160518266Y-65325682D03*
X173968266Y-62785682D03*
%TD*%
%TO.C,MX28*%
X46218170Y-65325682D03*
X59668170Y-62785682D03*
%TD*%
%TO.C,MX47*%
X160518266Y-84375698D03*
X173968266Y-81835698D03*
%TD*%
D10*
%TO.C,D32*%
X137175000Y-71200000D03*
X137175000Y-67900000D03*
%TD*%
D13*
%TO.C,MX45*%
X122418234Y-84375698D03*
X135868234Y-81835698D03*
%TD*%
D10*
%TO.C,D5*%
X118125000Y-33075000D03*
X118125000Y-29775000D03*
%TD*%
D13*
%TO.C,MX4*%
X84318202Y-27225650D03*
X97768202Y-24685650D03*
%TD*%
D10*
%TO.C,D27*%
X41925000Y-71200000D03*
X41925000Y-67900000D03*
%TD*%
D13*
%TO.C,MX29*%
X65268186Y-65325682D03*
X78718186Y-62785682D03*
%TD*%
%TO.C,MX7*%
X141468250Y-27225650D03*
X154918250Y-24685650D03*
%TD*%
D10*
%TO.C,D48*%
X194325000Y-90200000D03*
X194325000Y-86900000D03*
%TD*%
%TO.C,D34*%
X175275000Y-71200000D03*
X175275000Y-67900000D03*
%TD*%
D13*
%TO.C,MX18*%
X103368218Y-46275666D03*
X116818218Y-43735666D03*
%TD*%
D10*
%TO.C,D20*%
X156225000Y-52125000D03*
X156225000Y-48825000D03*
%TD*%
D13*
%TO.C,MX39*%
X265293354Y-65325682D03*
X278743354Y-62785682D03*
%TD*%
D19*
%TO.C,J3*%
X223000000Y-39050000D03*
X223000000Y-38050000D03*
X223000000Y-37050000D03*
X223000000Y-36050000D03*
D20*
X219125000Y-40350000D03*
X219125000Y-34750000D03*
%TD*%
D13*
%TO.C,MX24*%
X217668314Y-46275666D03*
X231118314Y-43735666D03*
%TD*%
D10*
%TO.C,D19*%
X137175000Y-52125000D03*
X137175000Y-48825000D03*
%TD*%
D13*
%TO.C,MX43*%
X84318202Y-84375698D03*
X97768202Y-81835698D03*
%TD*%
%TO.C,MX13*%
X265293354Y-27225650D03*
X278743354Y-24685650D03*
%TD*%
%TO.C,MX6*%
X122418234Y-27225650D03*
X135868234Y-24685650D03*
%TD*%
%TO.C,MX36*%
X198618298Y-65325682D03*
X212068298Y-62785682D03*
%TD*%
D12*
%TO.C,R1*%
X254125000Y-66775000D03*
X254125000Y-64950000D03*
%TD*%
D10*
%TO.C,D6*%
X137175000Y-33075000D03*
X137175000Y-29775000D03*
%TD*%
D13*
%TO.C,MX30*%
X84318202Y-65325682D03*
X97768202Y-62785682D03*
%TD*%
D10*
%TO.C,D12*%
X251475000Y-33075000D03*
X251475000Y-29775000D03*
%TD*%
%TO.C,D30*%
X99075000Y-71200000D03*
X99075000Y-67900000D03*
%TD*%
%TO.C,D2*%
X60970000Y-33075000D03*
X60970000Y-29775000D03*
%TD*%
D15*
%TO.C,CX2*%
X274300000Y-57350000D03*
X276200000Y-57350000D03*
%TD*%
D13*
%TO.C,MX35*%
X179568282Y-65325682D03*
X193018282Y-62785682D03*
%TD*%
%TO.C,MX15*%
X46218170Y-46275666D03*
X59668170Y-43735666D03*
%TD*%
%TO.C,MX48*%
X179568282Y-84375698D03*
X193018282Y-81835698D03*
%TD*%
D10*
%TO.C,D33*%
X156225000Y-71200000D03*
X156225000Y-67900000D03*
%TD*%
D13*
%TO.C,MX31*%
X103368218Y-65325682D03*
X116818218Y-62785682D03*
%TD*%
D10*
%TO.C,D22*%
X194325000Y-52125000D03*
X194325000Y-48825000D03*
%TD*%
D13*
%TO.C,MX17*%
X84318202Y-46275666D03*
X97768202Y-43735666D03*
%TD*%
D10*
%TO.C,D36*%
X213375000Y-71200000D03*
X213375000Y-67900000D03*
%TD*%
D13*
%TO.C,MX51*%
X236718330Y-84375698D03*
X250168330Y-81835698D03*
%TD*%
D21*
%TO.C,U1*%
X254750000Y-50725000D03*
X255550000Y-50725000D03*
X256350000Y-50725000D03*
X257150000Y-50725000D03*
X257950000Y-50725000D03*
X258750000Y-50725000D03*
X259550000Y-50725000D03*
X260350000Y-50725000D03*
X261150000Y-50725000D03*
X261950000Y-50725000D03*
X262750000Y-50725000D03*
D22*
X264450000Y-52425000D03*
X264450000Y-53225000D03*
X264450000Y-54025000D03*
X264450000Y-54825000D03*
X264450000Y-55625000D03*
X264450000Y-56425000D03*
X264450000Y-57225000D03*
X264450000Y-58025000D03*
X264450000Y-58825000D03*
X264450000Y-59625000D03*
X264450000Y-60425000D03*
D21*
X262750000Y-62125000D03*
X261950000Y-62125000D03*
X261150000Y-62125000D03*
X260350000Y-62125000D03*
X259550000Y-62125000D03*
X258750000Y-62125000D03*
X257950000Y-62125000D03*
X257150000Y-62125000D03*
X256350000Y-62125000D03*
X255550000Y-62125000D03*
X254750000Y-62125000D03*
D22*
X253050000Y-60425000D03*
X253050000Y-59625000D03*
X253050000Y-58825000D03*
X253050000Y-58025000D03*
X253050000Y-57225000D03*
X253050000Y-56425000D03*
X253050000Y-55625000D03*
X253050000Y-54825000D03*
X253050000Y-54025000D03*
X253050000Y-53225000D03*
X253050000Y-52425000D03*
%TD*%
D13*
%TO.C,MX44*%
X103368218Y-84375698D03*
X116818218Y-81835698D03*
%TD*%
%TO.C,MX27*%
X27168154Y-65325682D03*
X40618154Y-62785682D03*
%TD*%
%TO.C,MX40*%
X27168154Y-84375698D03*
X40618154Y-81835698D03*
%TD*%
%TO.C,MX12*%
X236718330Y-27225650D03*
X250168330Y-24685650D03*
%TD*%
D10*
%TO.C,D43*%
X99075000Y-90200000D03*
X99075000Y-86900000D03*
%TD*%
%TO.C,D47*%
X175275000Y-90200000D03*
X175275000Y-86900000D03*
%TD*%
D13*
%TO.C,MX11*%
X217668314Y-27225650D03*
X231118314Y-24685650D03*
%TD*%
D10*
%TO.C,D9*%
X194325000Y-33075000D03*
X194325000Y-29775000D03*
%TD*%
D13*
%TO.C,MX23*%
X198618298Y-46275666D03*
X212068298Y-43735666D03*
%TD*%
%TO.C,MX52*%
X265293354Y-84375698D03*
X278743354Y-81835698D03*
%TD*%
D10*
%TO.C,D1*%
X41930000Y-33052500D03*
X41930000Y-29752500D03*
%TD*%
%TO.C,D21*%
X175275000Y-52125000D03*
X175275000Y-48825000D03*
%TD*%
D13*
%TO.C,MX2*%
X46218170Y-27225650D03*
X59668170Y-24685650D03*
%TD*%
%TO.C,MX50*%
X217668314Y-84375698D03*
X231118314Y-81835698D03*
%TD*%
D10*
%TO.C,D38*%
X251475000Y-71200000D03*
X251475000Y-67900000D03*
%TD*%
D13*
%TO.C,MX20*%
X141468250Y-46275666D03*
X154918250Y-43735666D03*
%TD*%
%TO.C,MX26*%
X265293354Y-46275666D03*
X278743354Y-43735666D03*
%TD*%
D10*
%TO.C,D15*%
X60975000Y-52125000D03*
X60975000Y-48825000D03*
%TD*%
D13*
%TO.C,MX1*%
X27168154Y-27225650D03*
X40618154Y-24685650D03*
%TD*%
D23*
%TO.C,SW1*%
X276950000Y-35775000D03*
X270750000Y-39475000D03*
X276950000Y-39475000D03*
X270750000Y-35775000D03*
%TD*%
D10*
%TO.C,D23*%
X213375000Y-52125000D03*
X213375000Y-48825000D03*
%TD*%
%TO.C,D25*%
X236675000Y-52125000D03*
X236675000Y-48825000D03*
%TD*%
%TO.C,D42*%
X80025000Y-90200000D03*
X80025000Y-86900000D03*
%TD*%
%TO.C,D26*%
X280050000Y-52650000D03*
X280050000Y-49350000D03*
%TD*%
D13*
%TO.C,MX38*%
X236718330Y-65325682D03*
X250168330Y-62785682D03*
%TD*%
D10*
%TO.C,D10*%
X213375000Y-33075000D03*
X213375000Y-29775000D03*
%TD*%
D13*
%TO.C,MX5*%
X103368218Y-27225650D03*
X116818218Y-24685650D03*
%TD*%
D10*
%TO.C,D44*%
X118125000Y-90200000D03*
X118125000Y-86900000D03*
%TD*%
%TO.C,D17*%
X99075000Y-52125000D03*
X99075000Y-48825000D03*
%TD*%
D13*
%TO.C,MX46*%
X141468250Y-84375698D03*
X154918250Y-81835698D03*
%TD*%
%TO.C,MX14*%
X27168154Y-46275666D03*
X40618154Y-43735666D03*
%TD*%
M02*
