G04 #@! TF.GenerationSoftware,KiCad,Pcbnew,(6.0.5-0)*
G04 #@! TF.CreationDate,2022-08-31T07:54:58-05:00*
G04 #@! TF.ProjectId,pcb,7063622e-6b69-4636-9164-5f7063625858,rev?*
G04 #@! TF.SameCoordinates,Original*
G04 #@! TF.FileFunction,Soldermask,Top*
G04 #@! TF.FilePolarity,Negative*
%FSLAX46Y46*%
G04 Gerber Fmt 4.6, Leading zero omitted, Abs format (unit mm)*
G04 Created by KiCad (PCBNEW (6.0.5-0)) date 2022-08-31 07:54:58*
%MOMM*%
%LPD*%
G01*
G04 APERTURE LIST*
%ADD10C,3.000000*%
%ADD11C,1.750000*%
%ADD12C,3.987800*%
%ADD13R,2.000000X2.000000*%
%ADD14C,2.000000*%
%ADD15R,2.000000X3.200000*%
%ADD16C,3.800000*%
%ADD17O,1.700000X1.700000*%
%ADD18R,1.700000X1.700000*%
%ADD19C,0.650000*%
%ADD20O,1.300000X2.400000*%
%ADD21O,1.300000X1.900000*%
%ADD22C,1.700000*%
G04 APERTURE END LIST*
D10*
X121180225Y-50653950D03*
D11*
X119910225Y-53193950D03*
D12*
X124990225Y-53193950D03*
D10*
X127530225Y-48113950D03*
D11*
X130070225Y-53193950D03*
X206270225Y-53193950D03*
D10*
X203730225Y-48113950D03*
X197380225Y-50653950D03*
D11*
X196110225Y-53193950D03*
D12*
X201190225Y-53193950D03*
D11*
X187220225Y-53193950D03*
D10*
X178330225Y-50653950D03*
X184680225Y-48113950D03*
D11*
X177060225Y-53193950D03*
D12*
X182140225Y-53193950D03*
D11*
X168170225Y-53193950D03*
D12*
X163090225Y-53193950D03*
D10*
X165630225Y-48113950D03*
X159280225Y-50653950D03*
D11*
X158010225Y-53193950D03*
X81810225Y-53193950D03*
D12*
X86890225Y-53193950D03*
D10*
X83080225Y-50653950D03*
X89430225Y-48113950D03*
D11*
X91970225Y-53193950D03*
X225320225Y-53193950D03*
D10*
X222780225Y-48113950D03*
D12*
X220240225Y-53193950D03*
D11*
X215160225Y-53193950D03*
D10*
X216430225Y-50653950D03*
D11*
X244370225Y-53193950D03*
D10*
X235480225Y-50653950D03*
X241830225Y-48113950D03*
D11*
X234210225Y-53193950D03*
D12*
X239290225Y-53193950D03*
D11*
X91970225Y-72243950D03*
D12*
X86890225Y-72243950D03*
D10*
X83080225Y-69703950D03*
D11*
X81810225Y-72243950D03*
D10*
X89430225Y-67163950D03*
D11*
X111020225Y-72243950D03*
D10*
X102130225Y-69703950D03*
D11*
X100860225Y-72243950D03*
D10*
X108480225Y-67163950D03*
D12*
X105940225Y-72243950D03*
X144045399Y-72243950D03*
D10*
X146585399Y-67163950D03*
D11*
X138965399Y-72243950D03*
X149125399Y-72243950D03*
D10*
X140235399Y-69703950D03*
X273580225Y-50653950D03*
D12*
X277390225Y-53193950D03*
D10*
X279930225Y-48113950D03*
D11*
X272310225Y-53193950D03*
X282470225Y-53193950D03*
D10*
X165630225Y-67163950D03*
X159280225Y-69703950D03*
D11*
X168170225Y-72243950D03*
X158010225Y-72243950D03*
D12*
X163090225Y-72243950D03*
D11*
X187220225Y-72243950D03*
D12*
X182140225Y-72243950D03*
D11*
X177060225Y-72243950D03*
D10*
X184680225Y-67163950D03*
X178330225Y-69703950D03*
D11*
X196110225Y-72243950D03*
D12*
X201190225Y-72243950D03*
D10*
X203730225Y-67163950D03*
D11*
X206270225Y-72243950D03*
D10*
X197380225Y-69703950D03*
D11*
X111020225Y-110343950D03*
D12*
X105940225Y-110343950D03*
D11*
X100860225Y-110343950D03*
D10*
X108480225Y-105263950D03*
X102130225Y-107803950D03*
D11*
X119910225Y-110343950D03*
D10*
X127530225Y-105263950D03*
D11*
X130070225Y-110343950D03*
D12*
X124990225Y-110343950D03*
D10*
X121180225Y-107803950D03*
X140230225Y-107803950D03*
X146580225Y-105263950D03*
D12*
X144040225Y-110343950D03*
D11*
X149120225Y-110343950D03*
X138960225Y-110343950D03*
D10*
X159280225Y-107803950D03*
D11*
X168170225Y-110343950D03*
D10*
X165630225Y-105263950D03*
D11*
X158010225Y-110343950D03*
D12*
X163090225Y-110343950D03*
X182140225Y-110343950D03*
D11*
X187220225Y-110343950D03*
D10*
X178330225Y-107803950D03*
X184680225Y-105263950D03*
D11*
X177060225Y-110343950D03*
D12*
X220240225Y-110343950D03*
D11*
X225320225Y-110343950D03*
D10*
X222780225Y-105263950D03*
D11*
X215160225Y-110343950D03*
D10*
X216430225Y-107803950D03*
X241830225Y-105263950D03*
X235480225Y-107803950D03*
D11*
X244370225Y-110343950D03*
X234210225Y-110343950D03*
D12*
X239290225Y-110343950D03*
D11*
X253260225Y-110343950D03*
D10*
X254530225Y-107803950D03*
X260880225Y-105263950D03*
D11*
X263420225Y-110343950D03*
D12*
X258340225Y-110343950D03*
D10*
X279930225Y-105263950D03*
D12*
X277390225Y-110343950D03*
D11*
X282470225Y-110343950D03*
X272310225Y-110343950D03*
D10*
X273580225Y-107803950D03*
D11*
X196110225Y-110343950D03*
X206270225Y-110343950D03*
D10*
X203730225Y-105263950D03*
D12*
X201190225Y-110343950D03*
D10*
X197380225Y-107803950D03*
X279930225Y-86213950D03*
D12*
X277390225Y-91293950D03*
D10*
X273580225Y-88753950D03*
D11*
X272310225Y-91293950D03*
X282470225Y-91293950D03*
X253260225Y-91293950D03*
D10*
X260880225Y-86213950D03*
D12*
X258340225Y-91293950D03*
D10*
X254530225Y-88753950D03*
D11*
X263420225Y-91293950D03*
D10*
X216430225Y-88753950D03*
D11*
X215160225Y-91293950D03*
D10*
X222780225Y-86213950D03*
D11*
X225320225Y-91293950D03*
D12*
X220240225Y-91293950D03*
D11*
X187220225Y-91293950D03*
X177060225Y-91293950D03*
D12*
X182140225Y-91293950D03*
D10*
X184680225Y-86213950D03*
X178330225Y-88753950D03*
D11*
X138960225Y-91293950D03*
D10*
X146580225Y-86213950D03*
D11*
X149120225Y-91293950D03*
D12*
X144040225Y-91293950D03*
D10*
X140230225Y-88753950D03*
X83080225Y-88753950D03*
X89430225Y-86213950D03*
D11*
X91970225Y-91293950D03*
X81810225Y-91293950D03*
D12*
X86890225Y-91293950D03*
D11*
X158010225Y-91293950D03*
D10*
X159280225Y-88753950D03*
X165630225Y-86213950D03*
D11*
X168170225Y-91293950D03*
D12*
X163090225Y-91293950D03*
D10*
X298980225Y-67163950D03*
D11*
X301520225Y-72243950D03*
D10*
X292630225Y-69703950D03*
D11*
X291360225Y-72243950D03*
D12*
X296440225Y-72243950D03*
D10*
X127530225Y-86213950D03*
D11*
X130070225Y-91293950D03*
D10*
X121180225Y-88753950D03*
D11*
X119910225Y-91293950D03*
D12*
X124990225Y-91293950D03*
X105940225Y-91293950D03*
D11*
X111020225Y-91293950D03*
D10*
X108480225Y-86213950D03*
X102130225Y-88753950D03*
D11*
X100860225Y-91293950D03*
X263420225Y-72243950D03*
D10*
X260880225Y-67163950D03*
D12*
X258340225Y-72243950D03*
D10*
X254530225Y-69703950D03*
D11*
X253260225Y-72243950D03*
X234210225Y-72243950D03*
D10*
X241830225Y-67163950D03*
D12*
X239290225Y-72243950D03*
D10*
X235480225Y-69703950D03*
D11*
X244370225Y-72243950D03*
D10*
X273580225Y-69703950D03*
D12*
X277390225Y-72243950D03*
D11*
X282470225Y-72243950D03*
D10*
X279930225Y-67163950D03*
D11*
X272310225Y-72243950D03*
D10*
X298980225Y-105263950D03*
D11*
X291360225Y-110343950D03*
D12*
X296440225Y-110343950D03*
D11*
X301520225Y-110343950D03*
D10*
X292630225Y-107803950D03*
X298980225Y-86213950D03*
X292630225Y-88753950D03*
D12*
X296440225Y-91293950D03*
D11*
X301520225Y-91293950D03*
X291360225Y-91293950D03*
D10*
X292630225Y-50653950D03*
D12*
X296440225Y-53193950D03*
D11*
X301520225Y-53193950D03*
X291360225Y-53193950D03*
D10*
X298980225Y-48113950D03*
D13*
X317752725Y-60693950D03*
D14*
X322752725Y-60693950D03*
X320252725Y-60693950D03*
D15*
X314652725Y-53193950D03*
X325852725Y-53193950D03*
D14*
X322752725Y-46193950D03*
X317752725Y-46193950D03*
D10*
X108480225Y-48113950D03*
X102130225Y-50653950D03*
D11*
X111020225Y-53193950D03*
X100860225Y-53193950D03*
D12*
X105940225Y-53193950D03*
X144040225Y-53193950D03*
D11*
X149120225Y-53193950D03*
D10*
X140230225Y-50653950D03*
D11*
X138960225Y-53193950D03*
D10*
X146580225Y-48113950D03*
D12*
X320252785Y-110344230D03*
D10*
X322792785Y-105264230D03*
D11*
X315172785Y-110344230D03*
X325332785Y-110344230D03*
D10*
X316442785Y-107804230D03*
D11*
X315172785Y-72244070D03*
D10*
X316442785Y-69704070D03*
X322792785Y-67164070D03*
D11*
X325332785Y-72244070D03*
D12*
X320252785Y-72244070D03*
D10*
X316442785Y-88754150D03*
X322792785Y-86214150D03*
D11*
X325332785Y-91294150D03*
D12*
X320252785Y-91294150D03*
D11*
X315172785Y-91294150D03*
D12*
X201190225Y-91293950D03*
D10*
X203730225Y-86213950D03*
D11*
X206270225Y-91293950D03*
X196110225Y-91293950D03*
D10*
X197380225Y-88753950D03*
X241830225Y-86213950D03*
D11*
X244370225Y-91293950D03*
D12*
X239290225Y-91293950D03*
D11*
X234210225Y-91293950D03*
D10*
X235480225Y-88753950D03*
D11*
X91970225Y-110343950D03*
D10*
X89430225Y-105263950D03*
D11*
X81810225Y-110343950D03*
D10*
X83080225Y-107803950D03*
D12*
X86890225Y-110343950D03*
D10*
X254530225Y-50653950D03*
X260880225Y-48113950D03*
D11*
X253260225Y-53193950D03*
D12*
X258340225Y-53193950D03*
D11*
X263420225Y-53193950D03*
D10*
X121180225Y-69703950D03*
X127530225Y-67163950D03*
D11*
X119910225Y-72243950D03*
D12*
X124990225Y-72243950D03*
D11*
X130070225Y-72243950D03*
X215160225Y-72243950D03*
D12*
X220240225Y-72243950D03*
D10*
X222780225Y-67163950D03*
D11*
X225320225Y-72243950D03*
D10*
X216430225Y-69703950D03*
D16*
X308346661Y-53193950D03*
X286915393Y-62718958D03*
X280962271Y-100818990D03*
X96415233Y-100818990D03*
X102368363Y-62718958D03*
D11*
X325332725Y-53193950D03*
D12*
X320252725Y-53193950D03*
D11*
X315172725Y-53193950D03*
D17*
X191665313Y-60143950D03*
X191665313Y-49983950D03*
X191665313Y-55063950D03*
X191665313Y-57603950D03*
X191665313Y-52523950D03*
D18*
X191665313Y-47443950D03*
D19*
X93525217Y-42765450D03*
X99305217Y-42765450D03*
D20*
X92115217Y-43316450D03*
X100715217Y-43316450D03*
D21*
X100715217Y-39116450D03*
X92115217Y-39116450D03*
D22*
X308390225Y-67843950D03*
X308390225Y-70383950D03*
X308390225Y-72923950D03*
X308390225Y-65303950D03*
X308390225Y-62763950D03*
M02*
