M48
; DRILL file {KiCad (6.0.5-0)} date Wednesday, August 31, 2022 at 07:55:00 AM
; FORMAT={-:-/ absolute / inch / decimal}
; #@! TF.CreationDate,2022-08-31T07:55:00-05:00
; #@! TF.GenerationSoftware,Kicad,Pcbnew,(6.0.5-0)
; #@! TF.FileFunction,Plated,1,2,PTH
FMAT,2
INCH
; #@! TA.AperFunction,Plated,PTH,ViaDrill
T1C0.0138
; #@! TA.AperFunction,Plated,PTH,ViaDrill
T2C0.0197
; #@! TA.AperFunction,Plated,PTH,ComponentDrill
T3C0.0236
; #@! TA.AperFunction,Plated,PTH,ComponentDrill
T4C0.0320
; #@! TA.AperFunction,Plated,PTH,ComponentDrill
T5C0.0394
; #@! TA.AperFunction,Plated,PTH,ComponentDrill
T6C0.0579
; #@! TA.AperFunction,Plated,PTH,ComponentDrill
T7C0.0591
; #@! TA.AperFunction,Plated,PTH,ComponentDrill
T8C0.0866
%
G90
G05
T1
X3.1419Y-3.7996
X3.535Y-2.2813
X3.6116Y-2.2399
X3.6925Y-3.7202
X3.7004Y-2.736
X3.7459Y-1.7878
X3.8618Y-2.9958
X3.8658Y-1.7872
X3.8691Y-3.799
X3.8776Y-2.8502
X3.8815Y-3.7202
X3.8933Y-4.173
X3.9287Y-2.3108
X3.9602Y-3.7517
X4.0685Y-2.1809
X4.5634Y-2.1917
X4.5862Y-1.8487
X4.6419Y-2.6276
X4.6433Y-3.6553
X4.6433Y-4.1238
X5.3343Y-1.8526
X5.3343Y-2.6021
X5.3343Y-3.3565
X5.3343Y-4.1125
X6.0862Y-1.8526
X6.0862Y-2.5785
X6.0862Y-3.3565
X6.0862Y-4.1125
X6.8382Y-1.8526
X6.8382Y-2.608
X6.8382Y-3.3565
X6.8382Y-4.1125
X7.602Y-3.3541
X7.602Y-4.11
X7.6024Y-2.6458
X7.6413Y-2.11
X8.3382Y-1.8487
X8.3382Y-2.5982
X8.3382Y-3.3565
X8.3382Y-4.1125
X9.0902Y-1.8526
X9.0902Y-2.5982
X9.0902Y-3.3565
X9.0902Y-4.1125
X9.8382Y-1.8526
X9.8382Y-2.608
X9.8382Y-3.3565
X9.8382Y-4.1125
X10.5941Y-1.8526
X10.6413Y-4.4407
X11.1561Y-3.7192
X11.2734Y-3.0368
X11.3333Y-3.3767
X11.3422Y-1.8565
X11.3923Y-2.6326
X11.3933Y-4.1257
X11.4032Y-3.7202
X11.5744Y-3.9683
X11.7693Y-4.0588
X11.7739Y-3.2976
X11.7791Y-3.736
X11.8717Y-4.4368
X11.9051Y-4.4446
X11.9721Y-4.2202
X11.9858Y-4.4446
X11.9996Y-2.3147
X12.002Y-4.3935
X12.0218Y-2.2168
X12.0327Y-4.3935
X12.0634Y-4.3935
X12.1933Y-3.5706
X12.224Y-3.5706
X12.2555Y-3.5706
X12.287Y-3.5706
X12.3185Y-3.5706
X12.3303Y-2.608
X12.3303Y-4.3935
X12.3953Y-3.4072
X12.6728Y-2.9407
X12.6728Y-2.9761
X12.6728Y-3.0116
X12.6728Y-3.047
X12.6728Y-3.0824
X12.7004Y-3.862
X12.7004Y-3.8935
X12.7004Y-3.925
X12.7004Y-3.9565
X12.7004Y-3.9871
X12.8067Y-2.5234
X12.8776Y-4.4407
T2
X7.6217Y-2.2754
X11.8106Y-3.8305
X11.8106Y-4.0116
X12.0036Y-4.1691
X12.0075Y-3.5234
X12.0626Y-2.3403
X12.2516Y-4.2675
X12.5193Y-3.8009
T4
X7.5459Y-1.8679
X7.5459Y-1.9679
X7.5459Y-2.0679
X7.5459Y-2.1679
X7.5459Y-2.2679
X7.5459Y-2.3679
X12.1413Y-2.471
X12.1413Y-2.571
X12.1413Y-2.671
X12.1413Y-2.771
X12.1413Y-2.871
T5
X12.5099Y-1.8187
X12.5099Y-2.3895
X12.6084Y-2.3895
X12.7068Y-1.8187
X12.7068Y-2.3895
T6
X12.4584Y-1.9942
X12.7084Y-1.8942
T8
X3.7959Y-3.9693
X4.0303Y-2.4693
X11.0615Y-3.9693
X11.2959Y-2.4693
X12.1396Y-2.0943
T3
G00X3.6266Y-1.5282
M15
G01X3.6266Y-1.5518
M16
G05
G00X3.6266Y-1.6837
M15
G01X3.6266Y-1.727
M16
G05
G00X3.9652Y-1.5282
M15
G01X3.9652Y-1.5518
M16
G05
G00X3.9652Y-1.6837
M15
G01X3.9652Y-1.727
M16
G05
T7
G00X12.3879Y-2.1198
M15
G01X12.3879Y-2.0687
M16
G05
G00X12.8288Y-2.1198
M15
G01X12.8288Y-2.0687
M16
G05
T0
M30
