G04 #@! TF.GenerationSoftware,KiCad,Pcbnew,(5.1.4-0)*
G04 #@! TF.CreationDate,2021-10-23T17:41:14-05:00*
G04 #@! TF.ProjectId,bottom_plate,626f7474-6f6d-45f7-906c-6174652e6b69,rev?*
G04 #@! TF.SameCoordinates,Original*
G04 #@! TF.FileFunction,Paste,Top*
G04 #@! TF.FilePolarity,Positive*
%FSLAX46Y46*%
G04 Gerber Fmt 4.6, Leading zero omitted, Abs format (unit mm)*
G04 Created by KiCad (PCBNEW (5.1.4-0)) date 2021-10-23 17:41:14*
%MOMM*%
%LPD*%
G04 APERTURE LIST*
%ADD10C,0.100000*%
%ADD11C,0.950000*%
G04 APERTURE END LIST*
D10*
G36*
X389951468Y-59045048D02*
G01*
X389974523Y-59048467D01*
X389997132Y-59054131D01*
X390019076Y-59061983D01*
X390040146Y-59071948D01*
X390060137Y-59083930D01*
X390078857Y-59097814D01*
X390096127Y-59113466D01*
X390111779Y-59130736D01*
X390125663Y-59149456D01*
X390137645Y-59169447D01*
X390147610Y-59190517D01*
X390155462Y-59212461D01*
X390161126Y-59235070D01*
X390164545Y-59258125D01*
X390165689Y-59281404D01*
X390165689Y-59756404D01*
X390164545Y-59779683D01*
X390161126Y-59802738D01*
X390155462Y-59825347D01*
X390147610Y-59847291D01*
X390137645Y-59868361D01*
X390125663Y-59888352D01*
X390111779Y-59907072D01*
X390096127Y-59924342D01*
X390078857Y-59939994D01*
X390060137Y-59953878D01*
X390040146Y-59965860D01*
X390019076Y-59975825D01*
X389997132Y-59983677D01*
X389974523Y-59989341D01*
X389951468Y-59992760D01*
X389928189Y-59993904D01*
X389353189Y-59993904D01*
X389329910Y-59992760D01*
X389306855Y-59989341D01*
X389284246Y-59983677D01*
X389262302Y-59975825D01*
X389241232Y-59965860D01*
X389221241Y-59953878D01*
X389202521Y-59939994D01*
X389185251Y-59924342D01*
X389169599Y-59907072D01*
X389155715Y-59888352D01*
X389143733Y-59868361D01*
X389133768Y-59847291D01*
X389125916Y-59825347D01*
X389120252Y-59802738D01*
X389116833Y-59779683D01*
X389115689Y-59756404D01*
X389115689Y-59281404D01*
X389116833Y-59258125D01*
X389120252Y-59235070D01*
X389125916Y-59212461D01*
X389133768Y-59190517D01*
X389143733Y-59169447D01*
X389155715Y-59149456D01*
X389169599Y-59130736D01*
X389185251Y-59113466D01*
X389202521Y-59097814D01*
X389221241Y-59083930D01*
X389241232Y-59071948D01*
X389262302Y-59061983D01*
X389284246Y-59054131D01*
X389306855Y-59048467D01*
X389329910Y-59045048D01*
X389353189Y-59043904D01*
X389928189Y-59043904D01*
X389951468Y-59045048D01*
X389951468Y-59045048D01*
G37*
D11*
X389640689Y-59518904D03*
D10*
G36*
X388201468Y-59045048D02*
G01*
X388224523Y-59048467D01*
X388247132Y-59054131D01*
X388269076Y-59061983D01*
X388290146Y-59071948D01*
X388310137Y-59083930D01*
X388328857Y-59097814D01*
X388346127Y-59113466D01*
X388361779Y-59130736D01*
X388375663Y-59149456D01*
X388387645Y-59169447D01*
X388397610Y-59190517D01*
X388405462Y-59212461D01*
X388411126Y-59235070D01*
X388414545Y-59258125D01*
X388415689Y-59281404D01*
X388415689Y-59756404D01*
X388414545Y-59779683D01*
X388411126Y-59802738D01*
X388405462Y-59825347D01*
X388397610Y-59847291D01*
X388387645Y-59868361D01*
X388375663Y-59888352D01*
X388361779Y-59907072D01*
X388346127Y-59924342D01*
X388328857Y-59939994D01*
X388310137Y-59953878D01*
X388290146Y-59965860D01*
X388269076Y-59975825D01*
X388247132Y-59983677D01*
X388224523Y-59989341D01*
X388201468Y-59992760D01*
X388178189Y-59993904D01*
X387603189Y-59993904D01*
X387579910Y-59992760D01*
X387556855Y-59989341D01*
X387534246Y-59983677D01*
X387512302Y-59975825D01*
X387491232Y-59965860D01*
X387471241Y-59953878D01*
X387452521Y-59939994D01*
X387435251Y-59924342D01*
X387419599Y-59907072D01*
X387405715Y-59888352D01*
X387393733Y-59868361D01*
X387383768Y-59847291D01*
X387375916Y-59825347D01*
X387370252Y-59802738D01*
X387366833Y-59779683D01*
X387365689Y-59756404D01*
X387365689Y-59281404D01*
X387366833Y-59258125D01*
X387370252Y-59235070D01*
X387375916Y-59212461D01*
X387383768Y-59190517D01*
X387393733Y-59169447D01*
X387405715Y-59149456D01*
X387419599Y-59130736D01*
X387435251Y-59113466D01*
X387452521Y-59097814D01*
X387471241Y-59083930D01*
X387491232Y-59071948D01*
X387512302Y-59061983D01*
X387534246Y-59054131D01*
X387556855Y-59048467D01*
X387579910Y-59045048D01*
X387603189Y-59043904D01*
X388178189Y-59043904D01*
X388201468Y-59045048D01*
X388201468Y-59045048D01*
G37*
D11*
X387890689Y-59518904D03*
M02*
