G04 #@! TF.GenerationSoftware,KiCad,Pcbnew,(5.1.4-0)*
G04 #@! TF.CreationDate,2021-10-23T17:41:14-05:00*
G04 #@! TF.ProjectId,bottom_plate,626f7474-6f6d-45f7-906c-6174652e6b69,rev?*
G04 #@! TF.SameCoordinates,Original*
G04 #@! TF.FileFunction,Profile,NP*
%FSLAX46Y46*%
G04 Gerber Fmt 4.6, Leading zero omitted, Abs format (unit mm)*
G04 Created by KiCad (PCBNEW (5.1.4-0)) date 2021-10-23 17:41:14*
%MOMM*%
%LPD*%
G04 APERTURE LIST*
%ADD10C,0.050000*%
G04 APERTURE END LIST*
D10*
X165523314Y-116668952D02*
X163737375Y-121431456D01*
X157188932Y-116668952D02*
X158974871Y-121431456D01*
X163737375Y-121431456D02*
X158974871Y-121431456D01*
X229817118Y-116668952D02*
X228031179Y-121431456D01*
X221482736Y-116668952D02*
X223268675Y-121431456D01*
X228031179Y-121431456D02*
X223268675Y-121431456D01*
X323876572Y-116669016D02*
X322090633Y-121431520D01*
X315542190Y-116669016D02*
X317328129Y-121431520D01*
X322090633Y-121431520D02*
X317328129Y-121431520D01*
X388170376Y-116668952D02*
X386384437Y-121431456D01*
X379835994Y-116668952D02*
X381621933Y-121431456D01*
X386384437Y-121431456D02*
X381621933Y-121431456D01*
X379835994Y-40468888D02*
X381621933Y-35706384D01*
X388170376Y-40468888D02*
X386384437Y-35706384D01*
X381621933Y-35706384D02*
X386384437Y-35706384D01*
X222078049Y-40468888D02*
X223863988Y-35706384D01*
X230412431Y-40468888D02*
X228626492Y-35706384D01*
X223863988Y-35706384D02*
X228626492Y-35706384D01*
X315542190Y-40468888D02*
X317923442Y-36301697D01*
X323876572Y-40468888D02*
X321495320Y-36301697D01*
X317923442Y-36301697D02*
X321495320Y-36301697D01*
X146473290Y-42850140D02*
G75*
G02X148854550Y-40468880I2381260J0D01*
G01*
X165523314Y-40468888D02*
X163737375Y-35706384D01*
X157188932Y-40468888D02*
X148854550Y-40468880D01*
X158974871Y-35706384D02*
X163737375Y-35706384D01*
X157188932Y-40468888D02*
X158974871Y-35706384D01*
X388170376Y-116668952D02*
X396505150Y-116669080D01*
X323876572Y-116669016D02*
X379835994Y-116668952D01*
X229817118Y-116668952D02*
X315542190Y-116669016D01*
X165523314Y-116669016D02*
X221482736Y-116668952D01*
X148854110Y-116669080D02*
X157188932Y-116669016D01*
X146472850Y-42850140D02*
X146472850Y-114287820D01*
X222078049Y-40468888D02*
X165523314Y-40468888D01*
X315542190Y-40468888D02*
X230412325Y-40468888D01*
X379835994Y-40468888D02*
X323876572Y-40468888D01*
X396505150Y-40468760D02*
X388170376Y-40468888D01*
X398886410Y-114287820D02*
X398886410Y-42850020D01*
X396505150Y-40468760D02*
G75*
G02X398886410Y-42850020I0J-2381260D01*
G01*
X398886410Y-114287820D02*
G75*
G02X396505150Y-116669080I-2381260J0D01*
G01*
X148854110Y-116669080D02*
G75*
G02X146472850Y-114287820I0J2381260D01*
G01*
M02*
