G04 #@! TF.GenerationSoftware,KiCad,Pcbnew,(5.1.4-0)*
G04 #@! TF.CreationDate,2021-10-23T17:41:13-05:00*
G04 #@! TF.ProjectId,bottom_plate,626f7474-6f6d-45f7-906c-6174652e6b69,rev?*
G04 #@! TF.SameCoordinates,Original*
G04 #@! TF.FileFunction,Copper,L1,Top*
G04 #@! TF.FilePolarity,Positive*
%FSLAX46Y46*%
G04 Gerber Fmt 4.6, Leading zero omitted, Abs format (unit mm)*
G04 Created by KiCad (PCBNEW (5.1.4-0)) date 2021-10-23 17:41:13*
%MOMM*%
%LPD*%
G04 APERTURE LIST*
%ADD10C,0.100000*%
%ADD11C,0.950000*%
%ADD12C,3.500000*%
%ADD13C,0.500000*%
%ADD14C,0.250000*%
%ADD15C,0.254000*%
G04 APERTURE END LIST*
D10*
G36*
X389951468Y-59045048D02*
G01*
X389974523Y-59048467D01*
X389997132Y-59054131D01*
X390019076Y-59061983D01*
X390040146Y-59071948D01*
X390060137Y-59083930D01*
X390078857Y-59097814D01*
X390096127Y-59113466D01*
X390111779Y-59130736D01*
X390125663Y-59149456D01*
X390137645Y-59169447D01*
X390147610Y-59190517D01*
X390155462Y-59212461D01*
X390161126Y-59235070D01*
X390164545Y-59258125D01*
X390165689Y-59281404D01*
X390165689Y-59756404D01*
X390164545Y-59779683D01*
X390161126Y-59802738D01*
X390155462Y-59825347D01*
X390147610Y-59847291D01*
X390137645Y-59868361D01*
X390125663Y-59888352D01*
X390111779Y-59907072D01*
X390096127Y-59924342D01*
X390078857Y-59939994D01*
X390060137Y-59953878D01*
X390040146Y-59965860D01*
X390019076Y-59975825D01*
X389997132Y-59983677D01*
X389974523Y-59989341D01*
X389951468Y-59992760D01*
X389928189Y-59993904D01*
X389353189Y-59993904D01*
X389329910Y-59992760D01*
X389306855Y-59989341D01*
X389284246Y-59983677D01*
X389262302Y-59975825D01*
X389241232Y-59965860D01*
X389221241Y-59953878D01*
X389202521Y-59939994D01*
X389185251Y-59924342D01*
X389169599Y-59907072D01*
X389155715Y-59888352D01*
X389143733Y-59868361D01*
X389133768Y-59847291D01*
X389125916Y-59825347D01*
X389120252Y-59802738D01*
X389116833Y-59779683D01*
X389115689Y-59756404D01*
X389115689Y-59281404D01*
X389116833Y-59258125D01*
X389120252Y-59235070D01*
X389125916Y-59212461D01*
X389133768Y-59190517D01*
X389143733Y-59169447D01*
X389155715Y-59149456D01*
X389169599Y-59130736D01*
X389185251Y-59113466D01*
X389202521Y-59097814D01*
X389221241Y-59083930D01*
X389241232Y-59071948D01*
X389262302Y-59061983D01*
X389284246Y-59054131D01*
X389306855Y-59048467D01*
X389329910Y-59045048D01*
X389353189Y-59043904D01*
X389928189Y-59043904D01*
X389951468Y-59045048D01*
X389951468Y-59045048D01*
G37*
D11*
X389640689Y-59518904D03*
D10*
G36*
X388201468Y-59045048D02*
G01*
X388224523Y-59048467D01*
X388247132Y-59054131D01*
X388269076Y-59061983D01*
X388290146Y-59071948D01*
X388310137Y-59083930D01*
X388328857Y-59097814D01*
X388346127Y-59113466D01*
X388361779Y-59130736D01*
X388375663Y-59149456D01*
X388387645Y-59169447D01*
X388397610Y-59190517D01*
X388405462Y-59212461D01*
X388411126Y-59235070D01*
X388414545Y-59258125D01*
X388415689Y-59281404D01*
X388415689Y-59756404D01*
X388414545Y-59779683D01*
X388411126Y-59802738D01*
X388405462Y-59825347D01*
X388397610Y-59847291D01*
X388387645Y-59868361D01*
X388375663Y-59888352D01*
X388361779Y-59907072D01*
X388346127Y-59924342D01*
X388328857Y-59939994D01*
X388310137Y-59953878D01*
X388290146Y-59965860D01*
X388269076Y-59975825D01*
X388247132Y-59983677D01*
X388224523Y-59989341D01*
X388201468Y-59992760D01*
X388178189Y-59993904D01*
X387603189Y-59993904D01*
X387579910Y-59992760D01*
X387556855Y-59989341D01*
X387534246Y-59983677D01*
X387512302Y-59975825D01*
X387491232Y-59965860D01*
X387471241Y-59953878D01*
X387452521Y-59939994D01*
X387435251Y-59924342D01*
X387419599Y-59907072D01*
X387405715Y-59888352D01*
X387393733Y-59868361D01*
X387383768Y-59847291D01*
X387375916Y-59825347D01*
X387370252Y-59802738D01*
X387366833Y-59779683D01*
X387365689Y-59756404D01*
X387365689Y-59281404D01*
X387366833Y-59258125D01*
X387370252Y-59235070D01*
X387375916Y-59212461D01*
X387383768Y-59190517D01*
X387393733Y-59169447D01*
X387405715Y-59149456D01*
X387419599Y-59130736D01*
X387435251Y-59113466D01*
X387452521Y-59097814D01*
X387471241Y-59083930D01*
X387491232Y-59071948D01*
X387512302Y-59061983D01*
X387534246Y-59054131D01*
X387556855Y-59048467D01*
X387579910Y-59045048D01*
X387603189Y-59043904D01*
X388178189Y-59043904D01*
X388201468Y-59045048D01*
X388201468Y-59045048D01*
G37*
D11*
X387890689Y-59518904D03*
D12*
X319709381Y-119050204D03*
X319709381Y-38682951D03*
X225649927Y-119050204D03*
X226245240Y-38087636D03*
X161356123Y-119050204D03*
X161356123Y-38087636D03*
X384003185Y-38087636D03*
X384003185Y-119050204D03*
D13*
X385194165Y-59518840D03*
D14*
X387711370Y-59518840D02*
X385194165Y-59518840D01*
D15*
G36*
X159503573Y-36567287D02*
G01*
X159242563Y-36957915D01*
X159062777Y-37391957D01*
X158971123Y-37852734D01*
X158971123Y-38322538D01*
X159062777Y-38783315D01*
X159242563Y-39217357D01*
X159503573Y-39607985D01*
X159835774Y-39940186D01*
X160226402Y-40201196D01*
X160660444Y-40380982D01*
X161121221Y-40472636D01*
X161591025Y-40472636D01*
X162051802Y-40380982D01*
X162485844Y-40201196D01*
X162876472Y-39940186D01*
X163208673Y-39607985D01*
X163469683Y-39217357D01*
X163649469Y-38783315D01*
X163741123Y-38322538D01*
X163741123Y-37852734D01*
X163649469Y-37391957D01*
X163469683Y-36957915D01*
X163208673Y-36567287D01*
X163007770Y-36366384D01*
X163279995Y-36366384D01*
X164897896Y-40680790D01*
X164910604Y-40722681D01*
X164935960Y-40770120D01*
X164959708Y-40818421D01*
X164966569Y-40827384D01*
X164971889Y-40837338D01*
X165006018Y-40878925D01*
X165038728Y-40921659D01*
X165047208Y-40929113D01*
X165054366Y-40937836D01*
X165095948Y-40971962D01*
X165136370Y-41007497D01*
X165146140Y-41013153D01*
X165154864Y-41020313D01*
X165202321Y-41045679D01*
X165248883Y-41072636D01*
X165259565Y-41076277D01*
X165269521Y-41081598D01*
X165321008Y-41097217D01*
X165371941Y-41114575D01*
X165383131Y-41116062D01*
X165393931Y-41119338D01*
X165447481Y-41124612D01*
X165500817Y-41131699D01*
X165544514Y-41128888D01*
X222056863Y-41128888D01*
X222100545Y-41131698D01*
X222153849Y-41124615D01*
X222207432Y-41119338D01*
X222218238Y-41116060D01*
X222229421Y-41114574D01*
X222280334Y-41097223D01*
X222331842Y-41081598D01*
X222341798Y-41076276D01*
X222352480Y-41072636D01*
X222399027Y-41045687D01*
X222446499Y-41020313D01*
X222455229Y-41013148D01*
X222464992Y-41007496D01*
X222505383Y-40971988D01*
X222546997Y-40937836D01*
X222554161Y-40929107D01*
X222562634Y-40921658D01*
X222595323Y-40878951D01*
X222629474Y-40837338D01*
X222634797Y-40827380D01*
X222641654Y-40818421D01*
X222665390Y-40770143D01*
X222690759Y-40722681D01*
X222703471Y-40680777D01*
X224321368Y-36366384D01*
X224593593Y-36366384D01*
X224392690Y-36567287D01*
X224131680Y-36957915D01*
X223951894Y-37391957D01*
X223860240Y-37852734D01*
X223860240Y-38322538D01*
X223951894Y-38783315D01*
X224131680Y-39217357D01*
X224392690Y-39607985D01*
X224724891Y-39940186D01*
X225115519Y-40201196D01*
X225549561Y-40380982D01*
X226010338Y-40472636D01*
X226480142Y-40472636D01*
X226940919Y-40380982D01*
X227374961Y-40201196D01*
X227765589Y-39940186D01*
X228097790Y-39607985D01*
X228358800Y-39217357D01*
X228538586Y-38783315D01*
X228630240Y-38322538D01*
X228630240Y-37852734D01*
X228538586Y-37391957D01*
X228358800Y-36957915D01*
X228097790Y-36567287D01*
X227896887Y-36366384D01*
X228169112Y-36366384D01*
X229786459Y-40679311D01*
X229799615Y-40722681D01*
X229826294Y-40772594D01*
X229848825Y-40818421D01*
X229855334Y-40826925D01*
X229860900Y-40837338D01*
X229896603Y-40880843D01*
X229927845Y-40921659D01*
X229935944Y-40928779D01*
X229943377Y-40937836D01*
X229986554Y-40973271D01*
X230025487Y-41007497D01*
X230034897Y-41012945D01*
X230043875Y-41020313D01*
X230092713Y-41046417D01*
X230138000Y-41072636D01*
X230148390Y-41076177D01*
X230158532Y-41081598D01*
X230210983Y-41097509D01*
X230261058Y-41114575D01*
X230272060Y-41116037D01*
X230282942Y-41119338D01*
X230336902Y-41124653D01*
X230389934Y-41131699D01*
X230433631Y-41128888D01*
X315532901Y-41128888D01*
X315588510Y-41130461D01*
X315629838Y-41123448D01*
X315671573Y-41119338D01*
X315693800Y-41112596D01*
X315716687Y-41108712D01*
X315755853Y-41093771D01*
X315795983Y-41081598D01*
X315816466Y-41070650D01*
X315838158Y-41062375D01*
X315873654Y-41040082D01*
X315910640Y-41020313D01*
X315928596Y-41005577D01*
X315948254Y-40993231D01*
X315978720Y-40964441D01*
X316011138Y-40937836D01*
X316025872Y-40919883D01*
X316042746Y-40903937D01*
X316067013Y-40869753D01*
X316093615Y-40837338D01*
X316119853Y-40788249D01*
X317324381Y-38680325D01*
X317324381Y-38917853D01*
X317416035Y-39378630D01*
X317595821Y-39812672D01*
X317856831Y-40203300D01*
X318189032Y-40535501D01*
X318579660Y-40796511D01*
X319013702Y-40976297D01*
X319474479Y-41067951D01*
X319944283Y-41067951D01*
X320405060Y-40976297D01*
X320839102Y-40796511D01*
X321229730Y-40535501D01*
X321561931Y-40203300D01*
X321822941Y-39812672D01*
X322002727Y-39378630D01*
X322094381Y-38917853D01*
X322094381Y-38680326D01*
X323298923Y-40788276D01*
X323325147Y-40837338D01*
X323351742Y-40869744D01*
X323376015Y-40903937D01*
X323392894Y-40919887D01*
X323407624Y-40937836D01*
X323440034Y-40964434D01*
X323470507Y-40993231D01*
X323490170Y-41005580D01*
X323508122Y-41020313D01*
X323545101Y-41040079D01*
X323580603Y-41062375D01*
X323602299Y-41070651D01*
X323622779Y-41081598D01*
X323662904Y-41093770D01*
X323702074Y-41108712D01*
X323724964Y-41112596D01*
X323747189Y-41119338D01*
X323788922Y-41123448D01*
X323830251Y-41130461D01*
X323885861Y-41128888D01*
X379814808Y-41128888D01*
X379858490Y-41131698D01*
X379911794Y-41124615D01*
X379965377Y-41119338D01*
X379976183Y-41116060D01*
X379987366Y-41114574D01*
X380038279Y-41097223D01*
X380089787Y-41081598D01*
X380099743Y-41076276D01*
X380110425Y-41072636D01*
X380156972Y-41045687D01*
X380204444Y-41020313D01*
X380213174Y-41013148D01*
X380222937Y-41007496D01*
X380263328Y-40971988D01*
X380304942Y-40937836D01*
X380312106Y-40929107D01*
X380320579Y-40921658D01*
X380353268Y-40878951D01*
X380387419Y-40837338D01*
X380392742Y-40827380D01*
X380399599Y-40818421D01*
X380423335Y-40770143D01*
X380448704Y-40722681D01*
X380461416Y-40680777D01*
X382079313Y-36366384D01*
X382351538Y-36366384D01*
X382150635Y-36567287D01*
X381889625Y-36957915D01*
X381709839Y-37391957D01*
X381618185Y-37852734D01*
X381618185Y-38322538D01*
X381709839Y-38783315D01*
X381889625Y-39217357D01*
X382150635Y-39607985D01*
X382482836Y-39940186D01*
X382873464Y-40201196D01*
X383307506Y-40380982D01*
X383768283Y-40472636D01*
X384238087Y-40472636D01*
X384698864Y-40380982D01*
X385132906Y-40201196D01*
X385523534Y-39940186D01*
X385855735Y-39607985D01*
X386116745Y-39217357D01*
X386296531Y-38783315D01*
X386388185Y-38322538D01*
X386388185Y-37852734D01*
X386296531Y-37391957D01*
X386116745Y-36957915D01*
X385855735Y-36567287D01*
X385654832Y-36366384D01*
X385927057Y-36366384D01*
X387544962Y-40680799D01*
X387557670Y-40722690D01*
X387583020Y-40770114D01*
X387606770Y-40818421D01*
X387613636Y-40827391D01*
X387618957Y-40837346D01*
X387653072Y-40878914D01*
X387685790Y-40921659D01*
X387694277Y-40929120D01*
X387701436Y-40937843D01*
X387742997Y-40971951D01*
X387783432Y-41007497D01*
X387793211Y-41013158D01*
X387801935Y-41020318D01*
X387849364Y-41045668D01*
X387895945Y-41072636D01*
X387906638Y-41076280D01*
X387916593Y-41081601D01*
X387968047Y-41097209D01*
X388019003Y-41114575D01*
X388030204Y-41116063D01*
X388041003Y-41119339D01*
X388094526Y-41124610D01*
X388147879Y-41131699D01*
X388191589Y-41128887D01*
X396472871Y-41128760D01*
X396838861Y-41164646D01*
X397159864Y-41261562D01*
X397455930Y-41418983D01*
X397715777Y-41630909D01*
X397929515Y-41889272D01*
X398088998Y-42184230D01*
X398188154Y-42504552D01*
X398226411Y-42868543D01*
X398226410Y-114255541D01*
X398190524Y-114621531D01*
X398093607Y-114942538D01*
X397936187Y-115238599D01*
X397724259Y-115498448D01*
X397465896Y-115712186D01*
X397170940Y-115871668D01*
X396850618Y-115970824D01*
X396486635Y-116009080D01*
X388191589Y-116008953D01*
X388147879Y-116006141D01*
X388094526Y-116013230D01*
X388041003Y-116018501D01*
X388030204Y-116021777D01*
X388019003Y-116023265D01*
X387968047Y-116040631D01*
X387916593Y-116056239D01*
X387906638Y-116061560D01*
X387895945Y-116065204D01*
X387849364Y-116092172D01*
X387801935Y-116117522D01*
X387793211Y-116124682D01*
X387783432Y-116130343D01*
X387742997Y-116165889D01*
X387701436Y-116199997D01*
X387694277Y-116208720D01*
X387685790Y-116216181D01*
X387653072Y-116258926D01*
X387618957Y-116300494D01*
X387613636Y-116310449D01*
X387606770Y-116319419D01*
X387583020Y-116367726D01*
X387557670Y-116415150D01*
X387544962Y-116457041D01*
X385927057Y-120771456D01*
X385654832Y-120771456D01*
X385855735Y-120570553D01*
X386116745Y-120179925D01*
X386296531Y-119745883D01*
X386388185Y-119285106D01*
X386388185Y-118815302D01*
X386296531Y-118354525D01*
X386116745Y-117920483D01*
X385855735Y-117529855D01*
X385523534Y-117197654D01*
X385132906Y-116936644D01*
X384698864Y-116756858D01*
X384238087Y-116665204D01*
X383768283Y-116665204D01*
X383307506Y-116756858D01*
X382873464Y-116936644D01*
X382482836Y-117197654D01*
X382150635Y-117529855D01*
X381889625Y-117920483D01*
X381709839Y-118354525D01*
X381618185Y-118815302D01*
X381618185Y-119285106D01*
X381709839Y-119745883D01*
X381889625Y-120179925D01*
X382150635Y-120570553D01*
X382351538Y-120771456D01*
X382079313Y-120771456D01*
X380461411Y-116457049D01*
X380448703Y-116415159D01*
X380423347Y-116367720D01*
X380399599Y-116319419D01*
X380392738Y-116310456D01*
X380387418Y-116300502D01*
X380353282Y-116258907D01*
X380320579Y-116216182D01*
X380312102Y-116208730D01*
X380304941Y-116200004D01*
X380263342Y-116165864D01*
X380222937Y-116130344D01*
X380213171Y-116124690D01*
X380204443Y-116117527D01*
X380156984Y-116092160D01*
X380110425Y-116065204D01*
X380099741Y-116061563D01*
X380089786Y-116056242D01*
X380038287Y-116040620D01*
X379987366Y-116023266D01*
X379976182Y-116021780D01*
X379965376Y-116018502D01*
X379911797Y-116013225D01*
X379858490Y-116006142D01*
X379814807Y-116008952D01*
X323897787Y-116009017D01*
X323854075Y-116006205D01*
X323800710Y-116013296D01*
X323747189Y-116018567D01*
X323736395Y-116021841D01*
X323725199Y-116023329D01*
X323674239Y-116040697D01*
X323622779Y-116056307D01*
X323612828Y-116061626D01*
X323602141Y-116065268D01*
X323555557Y-116092238D01*
X323508122Y-116117592D01*
X323499402Y-116124748D01*
X323489628Y-116130407D01*
X323449189Y-116165957D01*
X323407624Y-116200069D01*
X323400469Y-116208788D01*
X323391986Y-116216245D01*
X323359265Y-116258994D01*
X323325147Y-116300567D01*
X323319829Y-116310517D01*
X323312966Y-116319483D01*
X323289212Y-116367797D01*
X323263862Y-116415224D01*
X323251156Y-116457109D01*
X321633253Y-120771520D01*
X321360964Y-120771520D01*
X321561931Y-120570553D01*
X321822941Y-120179925D01*
X322002727Y-119745883D01*
X322094381Y-119285106D01*
X322094381Y-118815302D01*
X322002727Y-118354525D01*
X321822941Y-117920483D01*
X321561931Y-117529855D01*
X321229730Y-117197654D01*
X320839102Y-116936644D01*
X320405060Y-116756858D01*
X319944283Y-116665204D01*
X319474479Y-116665204D01*
X319013702Y-116756858D01*
X318579660Y-116936644D01*
X318189032Y-117197654D01*
X317856831Y-117529855D01*
X317595821Y-117920483D01*
X317416035Y-118354525D01*
X317324381Y-118815302D01*
X317324381Y-119285106D01*
X317416035Y-119745883D01*
X317595821Y-120179925D01*
X317856831Y-120570553D01*
X318057798Y-120771520D01*
X317785509Y-120771520D01*
X316167610Y-116457123D01*
X316154900Y-116415224D01*
X316129537Y-116367773D01*
X316105795Y-116319483D01*
X316098936Y-116310522D01*
X316093615Y-116300567D01*
X316059475Y-116258968D01*
X316026775Y-116216246D01*
X316018299Y-116208795D01*
X316011138Y-116200069D01*
X315969541Y-116165931D01*
X315929133Y-116130408D01*
X315919366Y-116124753D01*
X315910640Y-116117592D01*
X315863190Y-116092230D01*
X315816621Y-116065268D01*
X315805934Y-116061626D01*
X315795983Y-116056307D01*
X315744502Y-116040690D01*
X315693562Y-116023330D01*
X315682374Y-116021843D01*
X315671573Y-116018567D01*
X315618019Y-116013292D01*
X315564686Y-116006206D01*
X315520989Y-116009017D01*
X229838319Y-116008952D01*
X229794621Y-116006141D01*
X229741282Y-116013228D01*
X229687736Y-116018502D01*
X229676937Y-116021778D01*
X229665745Y-116023265D01*
X229614804Y-116040626D01*
X229563326Y-116056242D01*
X229553372Y-116061562D01*
X229542687Y-116065204D01*
X229496113Y-116092168D01*
X229448669Y-116117527D01*
X229439947Y-116124685D01*
X229430174Y-116130343D01*
X229389738Y-116165891D01*
X229348171Y-116200004D01*
X229341015Y-116208723D01*
X229332532Y-116216181D01*
X229299809Y-116258934D01*
X229265694Y-116300502D01*
X229260376Y-116310451D01*
X229253512Y-116319419D01*
X229229753Y-116367744D01*
X229204409Y-116415159D01*
X229191706Y-116457036D01*
X227573799Y-120771456D01*
X227301574Y-120771456D01*
X227502477Y-120570553D01*
X227763487Y-120179925D01*
X227943273Y-119745883D01*
X228034927Y-119285106D01*
X228034927Y-118815302D01*
X227943273Y-118354525D01*
X227763487Y-117920483D01*
X227502477Y-117529855D01*
X227170276Y-117197654D01*
X226779648Y-116936644D01*
X226345606Y-116756858D01*
X225884829Y-116665204D01*
X225415025Y-116665204D01*
X224954248Y-116756858D01*
X224520206Y-116936644D01*
X224129578Y-117197654D01*
X223797377Y-117529855D01*
X223536367Y-117920483D01*
X223356581Y-118354525D01*
X223264927Y-118815302D01*
X223264927Y-119285106D01*
X223356581Y-119745883D01*
X223536367Y-120179925D01*
X223797377Y-120570553D01*
X223998280Y-120771456D01*
X223726055Y-120771456D01*
X222108153Y-116457049D01*
X222095445Y-116415159D01*
X222070089Y-116367720D01*
X222046341Y-116319419D01*
X222039480Y-116310456D01*
X222034160Y-116300502D01*
X222000024Y-116258907D01*
X221967321Y-116216182D01*
X221958844Y-116208730D01*
X221951683Y-116200004D01*
X221910084Y-116165864D01*
X221869679Y-116130344D01*
X221859913Y-116124690D01*
X221851185Y-116117527D01*
X221803726Y-116092160D01*
X221757167Y-116065204D01*
X221746483Y-116061563D01*
X221736528Y-116056242D01*
X221685029Y-116040620D01*
X221634108Y-116023266D01*
X221622924Y-116021780D01*
X221612118Y-116018502D01*
X221558539Y-116013225D01*
X221505232Y-116006142D01*
X221461549Y-116008952D01*
X165545524Y-116009017D01*
X165500817Y-116006141D01*
X165445591Y-116013479D01*
X165393931Y-116018567D01*
X165383512Y-116021727D01*
X165371941Y-116023265D01*
X165319272Y-116041215D01*
X165269521Y-116056307D01*
X165259901Y-116061449D01*
X165248883Y-116065204D01*
X165200859Y-116093008D01*
X165154864Y-116117592D01*
X165146409Y-116124531D01*
X165136370Y-116130343D01*
X165094835Y-116166856D01*
X165054366Y-116200069D01*
X165047399Y-116208558D01*
X165038728Y-116216181D01*
X165005280Y-116259881D01*
X164971889Y-116300567D01*
X164966684Y-116310305D01*
X164959708Y-116319419D01*
X164935562Y-116368531D01*
X164910604Y-116415224D01*
X164898000Y-116456774D01*
X163279995Y-120771456D01*
X163007770Y-120771456D01*
X163208673Y-120570553D01*
X163469683Y-120179925D01*
X163649469Y-119745883D01*
X163741123Y-119285106D01*
X163741123Y-118815302D01*
X163649469Y-118354525D01*
X163469683Y-117920483D01*
X163208673Y-117529855D01*
X162876472Y-117197654D01*
X162485844Y-116936644D01*
X162051802Y-116756858D01*
X161591025Y-116665204D01*
X161121221Y-116665204D01*
X160660444Y-116756858D01*
X160226402Y-116936644D01*
X159835774Y-117197654D01*
X159503573Y-117529855D01*
X159242563Y-117920483D01*
X159062777Y-118354525D01*
X158971123Y-118815302D01*
X158971123Y-119285106D01*
X159062777Y-119745883D01*
X159242563Y-120179925D01*
X159503573Y-120570553D01*
X159704476Y-120771456D01*
X159432251Y-120771456D01*
X157814250Y-116456786D01*
X157801640Y-116415219D01*
X157776669Y-116368501D01*
X157752537Y-116319419D01*
X157745564Y-116310309D01*
X157740354Y-116300562D01*
X157706940Y-116259848D01*
X157673517Y-116216182D01*
X157664850Y-116208563D01*
X157657876Y-116200065D01*
X157617379Y-116166830D01*
X157575875Y-116130344D01*
X157565839Y-116124534D01*
X157557377Y-116117589D01*
X157511374Y-116093000D01*
X157463363Y-116065204D01*
X157452343Y-116061448D01*
X157442720Y-116056305D01*
X157392951Y-116041208D01*
X157340304Y-116023266D01*
X157328738Y-116021729D01*
X157318310Y-116018566D01*
X157266609Y-116013474D01*
X157211428Y-116006142D01*
X157166745Y-116009016D01*
X148886394Y-116009080D01*
X148520399Y-115973194D01*
X148199392Y-115876277D01*
X147903331Y-115718857D01*
X147643482Y-115506929D01*
X147429744Y-115248566D01*
X147270262Y-114953610D01*
X147171106Y-114633288D01*
X147132850Y-114269307D01*
X147132850Y-59993904D01*
X386727617Y-59993904D01*
X386739877Y-60118386D01*
X386776187Y-60238084D01*
X386835152Y-60348398D01*
X386914504Y-60445089D01*
X387011195Y-60524441D01*
X387121509Y-60583406D01*
X387241207Y-60619716D01*
X387365689Y-60631976D01*
X387604939Y-60628904D01*
X387763689Y-60470154D01*
X387763689Y-59645904D01*
X386889439Y-59645904D01*
X386730689Y-59804654D01*
X386727617Y-59993904D01*
X147132850Y-59993904D01*
X147132850Y-59043904D01*
X386727617Y-59043904D01*
X386730689Y-59233154D01*
X386889439Y-59391904D01*
X387763689Y-59391904D01*
X387763689Y-58567654D01*
X388017689Y-58567654D01*
X388017689Y-59391904D01*
X388037689Y-59391904D01*
X388037689Y-59645904D01*
X388017689Y-59645904D01*
X388017689Y-60470154D01*
X388176439Y-60628904D01*
X388415689Y-60631976D01*
X388540171Y-60619716D01*
X388659869Y-60583406D01*
X388770183Y-60524441D01*
X388842850Y-60464805D01*
X388866747Y-60484416D01*
X389018122Y-60565327D01*
X389182373Y-60615152D01*
X389353189Y-60631976D01*
X389928189Y-60631976D01*
X390099005Y-60615152D01*
X390263256Y-60565327D01*
X390414631Y-60484416D01*
X390547312Y-60375527D01*
X390656201Y-60242846D01*
X390737112Y-60091471D01*
X390786937Y-59927220D01*
X390803761Y-59756404D01*
X390803761Y-59281404D01*
X390786937Y-59110588D01*
X390737112Y-58946337D01*
X390656201Y-58794962D01*
X390547312Y-58662281D01*
X390414631Y-58553392D01*
X390263256Y-58472481D01*
X390099005Y-58422656D01*
X389928189Y-58405832D01*
X389353189Y-58405832D01*
X389182373Y-58422656D01*
X389018122Y-58472481D01*
X388866747Y-58553392D01*
X388842850Y-58573003D01*
X388770183Y-58513367D01*
X388659869Y-58454402D01*
X388540171Y-58418092D01*
X388415689Y-58405832D01*
X388176439Y-58408904D01*
X388017689Y-58567654D01*
X387763689Y-58567654D01*
X387604939Y-58408904D01*
X387365689Y-58405832D01*
X387241207Y-58418092D01*
X387121509Y-58454402D01*
X387011195Y-58513367D01*
X386914504Y-58592719D01*
X386835152Y-58689410D01*
X386776187Y-58799724D01*
X386739877Y-58919422D01*
X386727617Y-59043904D01*
X147132850Y-59043904D01*
X147132850Y-49823061D01*
X201888474Y-49823061D01*
X201888474Y-50164827D01*
X201955149Y-50500025D01*
X202085937Y-50815775D01*
X202275811Y-51099942D01*
X202517476Y-51341607D01*
X202801643Y-51531481D01*
X203117393Y-51662269D01*
X203452591Y-51728944D01*
X203794357Y-51728944D01*
X204129555Y-51662269D01*
X204445305Y-51531481D01*
X204729472Y-51341607D01*
X204971137Y-51099942D01*
X205161011Y-50815775D01*
X205291799Y-50500025D01*
X205358474Y-50164827D01*
X205358474Y-49823061D01*
X205291799Y-49487863D01*
X205161011Y-49172113D01*
X204971137Y-48887946D01*
X204729472Y-48646281D01*
X204445305Y-48456407D01*
X204129555Y-48325619D01*
X203794357Y-48258944D01*
X203452591Y-48258944D01*
X203117393Y-48325619D01*
X202801643Y-48456407D01*
X202517476Y-48646281D01*
X202275811Y-48887946D01*
X202085937Y-49172113D01*
X201955149Y-49487863D01*
X201888474Y-49823061D01*
X147132850Y-49823061D01*
X147132850Y-42886906D01*
X147169176Y-42516429D01*
X147266092Y-42195426D01*
X147423513Y-41899360D01*
X147635439Y-41639513D01*
X147893802Y-41425775D01*
X148188760Y-41266292D01*
X148509082Y-41167136D01*
X148873072Y-41128879D01*
X157167746Y-41128888D01*
X157211428Y-41131698D01*
X157264735Y-41124615D01*
X157318314Y-41119338D01*
X157329120Y-41116060D01*
X157340304Y-41114574D01*
X157391225Y-41097220D01*
X157442724Y-41081598D01*
X157452679Y-41076277D01*
X157463363Y-41072636D01*
X157509922Y-41045680D01*
X157557381Y-41020313D01*
X157566109Y-41013150D01*
X157575875Y-41007496D01*
X157616280Y-40971976D01*
X157657879Y-40937836D01*
X157665040Y-40929110D01*
X157673517Y-40921658D01*
X157706220Y-40878933D01*
X157740356Y-40837338D01*
X157745676Y-40827384D01*
X157752537Y-40818421D01*
X157776285Y-40770120D01*
X157801641Y-40722681D01*
X157814349Y-40680791D01*
X159432251Y-36366384D01*
X159704476Y-36366384D01*
X159503573Y-36567287D01*
X159503573Y-36567287D01*
G37*
X159503573Y-36567287D02*
X159242563Y-36957915D01*
X159062777Y-37391957D01*
X158971123Y-37852734D01*
X158971123Y-38322538D01*
X159062777Y-38783315D01*
X159242563Y-39217357D01*
X159503573Y-39607985D01*
X159835774Y-39940186D01*
X160226402Y-40201196D01*
X160660444Y-40380982D01*
X161121221Y-40472636D01*
X161591025Y-40472636D01*
X162051802Y-40380982D01*
X162485844Y-40201196D01*
X162876472Y-39940186D01*
X163208673Y-39607985D01*
X163469683Y-39217357D01*
X163649469Y-38783315D01*
X163741123Y-38322538D01*
X163741123Y-37852734D01*
X163649469Y-37391957D01*
X163469683Y-36957915D01*
X163208673Y-36567287D01*
X163007770Y-36366384D01*
X163279995Y-36366384D01*
X164897896Y-40680790D01*
X164910604Y-40722681D01*
X164935960Y-40770120D01*
X164959708Y-40818421D01*
X164966569Y-40827384D01*
X164971889Y-40837338D01*
X165006018Y-40878925D01*
X165038728Y-40921659D01*
X165047208Y-40929113D01*
X165054366Y-40937836D01*
X165095948Y-40971962D01*
X165136370Y-41007497D01*
X165146140Y-41013153D01*
X165154864Y-41020313D01*
X165202321Y-41045679D01*
X165248883Y-41072636D01*
X165259565Y-41076277D01*
X165269521Y-41081598D01*
X165321008Y-41097217D01*
X165371941Y-41114575D01*
X165383131Y-41116062D01*
X165393931Y-41119338D01*
X165447481Y-41124612D01*
X165500817Y-41131699D01*
X165544514Y-41128888D01*
X222056863Y-41128888D01*
X222100545Y-41131698D01*
X222153849Y-41124615D01*
X222207432Y-41119338D01*
X222218238Y-41116060D01*
X222229421Y-41114574D01*
X222280334Y-41097223D01*
X222331842Y-41081598D01*
X222341798Y-41076276D01*
X222352480Y-41072636D01*
X222399027Y-41045687D01*
X222446499Y-41020313D01*
X222455229Y-41013148D01*
X222464992Y-41007496D01*
X222505383Y-40971988D01*
X222546997Y-40937836D01*
X222554161Y-40929107D01*
X222562634Y-40921658D01*
X222595323Y-40878951D01*
X222629474Y-40837338D01*
X222634797Y-40827380D01*
X222641654Y-40818421D01*
X222665390Y-40770143D01*
X222690759Y-40722681D01*
X222703471Y-40680777D01*
X224321368Y-36366384D01*
X224593593Y-36366384D01*
X224392690Y-36567287D01*
X224131680Y-36957915D01*
X223951894Y-37391957D01*
X223860240Y-37852734D01*
X223860240Y-38322538D01*
X223951894Y-38783315D01*
X224131680Y-39217357D01*
X224392690Y-39607985D01*
X224724891Y-39940186D01*
X225115519Y-40201196D01*
X225549561Y-40380982D01*
X226010338Y-40472636D01*
X226480142Y-40472636D01*
X226940919Y-40380982D01*
X227374961Y-40201196D01*
X227765589Y-39940186D01*
X228097790Y-39607985D01*
X228358800Y-39217357D01*
X228538586Y-38783315D01*
X228630240Y-38322538D01*
X228630240Y-37852734D01*
X228538586Y-37391957D01*
X228358800Y-36957915D01*
X228097790Y-36567287D01*
X227896887Y-36366384D01*
X228169112Y-36366384D01*
X229786459Y-40679311D01*
X229799615Y-40722681D01*
X229826294Y-40772594D01*
X229848825Y-40818421D01*
X229855334Y-40826925D01*
X229860900Y-40837338D01*
X229896603Y-40880843D01*
X229927845Y-40921659D01*
X229935944Y-40928779D01*
X229943377Y-40937836D01*
X229986554Y-40973271D01*
X230025487Y-41007497D01*
X230034897Y-41012945D01*
X230043875Y-41020313D01*
X230092713Y-41046417D01*
X230138000Y-41072636D01*
X230148390Y-41076177D01*
X230158532Y-41081598D01*
X230210983Y-41097509D01*
X230261058Y-41114575D01*
X230272060Y-41116037D01*
X230282942Y-41119338D01*
X230336902Y-41124653D01*
X230389934Y-41131699D01*
X230433631Y-41128888D01*
X315532901Y-41128888D01*
X315588510Y-41130461D01*
X315629838Y-41123448D01*
X315671573Y-41119338D01*
X315693800Y-41112596D01*
X315716687Y-41108712D01*
X315755853Y-41093771D01*
X315795983Y-41081598D01*
X315816466Y-41070650D01*
X315838158Y-41062375D01*
X315873654Y-41040082D01*
X315910640Y-41020313D01*
X315928596Y-41005577D01*
X315948254Y-40993231D01*
X315978720Y-40964441D01*
X316011138Y-40937836D01*
X316025872Y-40919883D01*
X316042746Y-40903937D01*
X316067013Y-40869753D01*
X316093615Y-40837338D01*
X316119853Y-40788249D01*
X317324381Y-38680325D01*
X317324381Y-38917853D01*
X317416035Y-39378630D01*
X317595821Y-39812672D01*
X317856831Y-40203300D01*
X318189032Y-40535501D01*
X318579660Y-40796511D01*
X319013702Y-40976297D01*
X319474479Y-41067951D01*
X319944283Y-41067951D01*
X320405060Y-40976297D01*
X320839102Y-40796511D01*
X321229730Y-40535501D01*
X321561931Y-40203300D01*
X321822941Y-39812672D01*
X322002727Y-39378630D01*
X322094381Y-38917853D01*
X322094381Y-38680326D01*
X323298923Y-40788276D01*
X323325147Y-40837338D01*
X323351742Y-40869744D01*
X323376015Y-40903937D01*
X323392894Y-40919887D01*
X323407624Y-40937836D01*
X323440034Y-40964434D01*
X323470507Y-40993231D01*
X323490170Y-41005580D01*
X323508122Y-41020313D01*
X323545101Y-41040079D01*
X323580603Y-41062375D01*
X323602299Y-41070651D01*
X323622779Y-41081598D01*
X323662904Y-41093770D01*
X323702074Y-41108712D01*
X323724964Y-41112596D01*
X323747189Y-41119338D01*
X323788922Y-41123448D01*
X323830251Y-41130461D01*
X323885861Y-41128888D01*
X379814808Y-41128888D01*
X379858490Y-41131698D01*
X379911794Y-41124615D01*
X379965377Y-41119338D01*
X379976183Y-41116060D01*
X379987366Y-41114574D01*
X380038279Y-41097223D01*
X380089787Y-41081598D01*
X380099743Y-41076276D01*
X380110425Y-41072636D01*
X380156972Y-41045687D01*
X380204444Y-41020313D01*
X380213174Y-41013148D01*
X380222937Y-41007496D01*
X380263328Y-40971988D01*
X380304942Y-40937836D01*
X380312106Y-40929107D01*
X380320579Y-40921658D01*
X380353268Y-40878951D01*
X380387419Y-40837338D01*
X380392742Y-40827380D01*
X380399599Y-40818421D01*
X380423335Y-40770143D01*
X380448704Y-40722681D01*
X380461416Y-40680777D01*
X382079313Y-36366384D01*
X382351538Y-36366384D01*
X382150635Y-36567287D01*
X381889625Y-36957915D01*
X381709839Y-37391957D01*
X381618185Y-37852734D01*
X381618185Y-38322538D01*
X381709839Y-38783315D01*
X381889625Y-39217357D01*
X382150635Y-39607985D01*
X382482836Y-39940186D01*
X382873464Y-40201196D01*
X383307506Y-40380982D01*
X383768283Y-40472636D01*
X384238087Y-40472636D01*
X384698864Y-40380982D01*
X385132906Y-40201196D01*
X385523534Y-39940186D01*
X385855735Y-39607985D01*
X386116745Y-39217357D01*
X386296531Y-38783315D01*
X386388185Y-38322538D01*
X386388185Y-37852734D01*
X386296531Y-37391957D01*
X386116745Y-36957915D01*
X385855735Y-36567287D01*
X385654832Y-36366384D01*
X385927057Y-36366384D01*
X387544962Y-40680799D01*
X387557670Y-40722690D01*
X387583020Y-40770114D01*
X387606770Y-40818421D01*
X387613636Y-40827391D01*
X387618957Y-40837346D01*
X387653072Y-40878914D01*
X387685790Y-40921659D01*
X387694277Y-40929120D01*
X387701436Y-40937843D01*
X387742997Y-40971951D01*
X387783432Y-41007497D01*
X387793211Y-41013158D01*
X387801935Y-41020318D01*
X387849364Y-41045668D01*
X387895945Y-41072636D01*
X387906638Y-41076280D01*
X387916593Y-41081601D01*
X387968047Y-41097209D01*
X388019003Y-41114575D01*
X388030204Y-41116063D01*
X388041003Y-41119339D01*
X388094526Y-41124610D01*
X388147879Y-41131699D01*
X388191589Y-41128887D01*
X396472871Y-41128760D01*
X396838861Y-41164646D01*
X397159864Y-41261562D01*
X397455930Y-41418983D01*
X397715777Y-41630909D01*
X397929515Y-41889272D01*
X398088998Y-42184230D01*
X398188154Y-42504552D01*
X398226411Y-42868543D01*
X398226410Y-114255541D01*
X398190524Y-114621531D01*
X398093607Y-114942538D01*
X397936187Y-115238599D01*
X397724259Y-115498448D01*
X397465896Y-115712186D01*
X397170940Y-115871668D01*
X396850618Y-115970824D01*
X396486635Y-116009080D01*
X388191589Y-116008953D01*
X388147879Y-116006141D01*
X388094526Y-116013230D01*
X388041003Y-116018501D01*
X388030204Y-116021777D01*
X388019003Y-116023265D01*
X387968047Y-116040631D01*
X387916593Y-116056239D01*
X387906638Y-116061560D01*
X387895945Y-116065204D01*
X387849364Y-116092172D01*
X387801935Y-116117522D01*
X387793211Y-116124682D01*
X387783432Y-116130343D01*
X387742997Y-116165889D01*
X387701436Y-116199997D01*
X387694277Y-116208720D01*
X387685790Y-116216181D01*
X387653072Y-116258926D01*
X387618957Y-116300494D01*
X387613636Y-116310449D01*
X387606770Y-116319419D01*
X387583020Y-116367726D01*
X387557670Y-116415150D01*
X387544962Y-116457041D01*
X385927057Y-120771456D01*
X385654832Y-120771456D01*
X385855735Y-120570553D01*
X386116745Y-120179925D01*
X386296531Y-119745883D01*
X386388185Y-119285106D01*
X386388185Y-118815302D01*
X386296531Y-118354525D01*
X386116745Y-117920483D01*
X385855735Y-117529855D01*
X385523534Y-117197654D01*
X385132906Y-116936644D01*
X384698864Y-116756858D01*
X384238087Y-116665204D01*
X383768283Y-116665204D01*
X383307506Y-116756858D01*
X382873464Y-116936644D01*
X382482836Y-117197654D01*
X382150635Y-117529855D01*
X381889625Y-117920483D01*
X381709839Y-118354525D01*
X381618185Y-118815302D01*
X381618185Y-119285106D01*
X381709839Y-119745883D01*
X381889625Y-120179925D01*
X382150635Y-120570553D01*
X382351538Y-120771456D01*
X382079313Y-120771456D01*
X380461411Y-116457049D01*
X380448703Y-116415159D01*
X380423347Y-116367720D01*
X380399599Y-116319419D01*
X380392738Y-116310456D01*
X380387418Y-116300502D01*
X380353282Y-116258907D01*
X380320579Y-116216182D01*
X380312102Y-116208730D01*
X380304941Y-116200004D01*
X380263342Y-116165864D01*
X380222937Y-116130344D01*
X380213171Y-116124690D01*
X380204443Y-116117527D01*
X380156984Y-116092160D01*
X380110425Y-116065204D01*
X380099741Y-116061563D01*
X380089786Y-116056242D01*
X380038287Y-116040620D01*
X379987366Y-116023266D01*
X379976182Y-116021780D01*
X379965376Y-116018502D01*
X379911797Y-116013225D01*
X379858490Y-116006142D01*
X379814807Y-116008952D01*
X323897787Y-116009017D01*
X323854075Y-116006205D01*
X323800710Y-116013296D01*
X323747189Y-116018567D01*
X323736395Y-116021841D01*
X323725199Y-116023329D01*
X323674239Y-116040697D01*
X323622779Y-116056307D01*
X323612828Y-116061626D01*
X323602141Y-116065268D01*
X323555557Y-116092238D01*
X323508122Y-116117592D01*
X323499402Y-116124748D01*
X323489628Y-116130407D01*
X323449189Y-116165957D01*
X323407624Y-116200069D01*
X323400469Y-116208788D01*
X323391986Y-116216245D01*
X323359265Y-116258994D01*
X323325147Y-116300567D01*
X323319829Y-116310517D01*
X323312966Y-116319483D01*
X323289212Y-116367797D01*
X323263862Y-116415224D01*
X323251156Y-116457109D01*
X321633253Y-120771520D01*
X321360964Y-120771520D01*
X321561931Y-120570553D01*
X321822941Y-120179925D01*
X322002727Y-119745883D01*
X322094381Y-119285106D01*
X322094381Y-118815302D01*
X322002727Y-118354525D01*
X321822941Y-117920483D01*
X321561931Y-117529855D01*
X321229730Y-117197654D01*
X320839102Y-116936644D01*
X320405060Y-116756858D01*
X319944283Y-116665204D01*
X319474479Y-116665204D01*
X319013702Y-116756858D01*
X318579660Y-116936644D01*
X318189032Y-117197654D01*
X317856831Y-117529855D01*
X317595821Y-117920483D01*
X317416035Y-118354525D01*
X317324381Y-118815302D01*
X317324381Y-119285106D01*
X317416035Y-119745883D01*
X317595821Y-120179925D01*
X317856831Y-120570553D01*
X318057798Y-120771520D01*
X317785509Y-120771520D01*
X316167610Y-116457123D01*
X316154900Y-116415224D01*
X316129537Y-116367773D01*
X316105795Y-116319483D01*
X316098936Y-116310522D01*
X316093615Y-116300567D01*
X316059475Y-116258968D01*
X316026775Y-116216246D01*
X316018299Y-116208795D01*
X316011138Y-116200069D01*
X315969541Y-116165931D01*
X315929133Y-116130408D01*
X315919366Y-116124753D01*
X315910640Y-116117592D01*
X315863190Y-116092230D01*
X315816621Y-116065268D01*
X315805934Y-116061626D01*
X315795983Y-116056307D01*
X315744502Y-116040690D01*
X315693562Y-116023330D01*
X315682374Y-116021843D01*
X315671573Y-116018567D01*
X315618019Y-116013292D01*
X315564686Y-116006206D01*
X315520989Y-116009017D01*
X229838319Y-116008952D01*
X229794621Y-116006141D01*
X229741282Y-116013228D01*
X229687736Y-116018502D01*
X229676937Y-116021778D01*
X229665745Y-116023265D01*
X229614804Y-116040626D01*
X229563326Y-116056242D01*
X229553372Y-116061562D01*
X229542687Y-116065204D01*
X229496113Y-116092168D01*
X229448669Y-116117527D01*
X229439947Y-116124685D01*
X229430174Y-116130343D01*
X229389738Y-116165891D01*
X229348171Y-116200004D01*
X229341015Y-116208723D01*
X229332532Y-116216181D01*
X229299809Y-116258934D01*
X229265694Y-116300502D01*
X229260376Y-116310451D01*
X229253512Y-116319419D01*
X229229753Y-116367744D01*
X229204409Y-116415159D01*
X229191706Y-116457036D01*
X227573799Y-120771456D01*
X227301574Y-120771456D01*
X227502477Y-120570553D01*
X227763487Y-120179925D01*
X227943273Y-119745883D01*
X228034927Y-119285106D01*
X228034927Y-118815302D01*
X227943273Y-118354525D01*
X227763487Y-117920483D01*
X227502477Y-117529855D01*
X227170276Y-117197654D01*
X226779648Y-116936644D01*
X226345606Y-116756858D01*
X225884829Y-116665204D01*
X225415025Y-116665204D01*
X224954248Y-116756858D01*
X224520206Y-116936644D01*
X224129578Y-117197654D01*
X223797377Y-117529855D01*
X223536367Y-117920483D01*
X223356581Y-118354525D01*
X223264927Y-118815302D01*
X223264927Y-119285106D01*
X223356581Y-119745883D01*
X223536367Y-120179925D01*
X223797377Y-120570553D01*
X223998280Y-120771456D01*
X223726055Y-120771456D01*
X222108153Y-116457049D01*
X222095445Y-116415159D01*
X222070089Y-116367720D01*
X222046341Y-116319419D01*
X222039480Y-116310456D01*
X222034160Y-116300502D01*
X222000024Y-116258907D01*
X221967321Y-116216182D01*
X221958844Y-116208730D01*
X221951683Y-116200004D01*
X221910084Y-116165864D01*
X221869679Y-116130344D01*
X221859913Y-116124690D01*
X221851185Y-116117527D01*
X221803726Y-116092160D01*
X221757167Y-116065204D01*
X221746483Y-116061563D01*
X221736528Y-116056242D01*
X221685029Y-116040620D01*
X221634108Y-116023266D01*
X221622924Y-116021780D01*
X221612118Y-116018502D01*
X221558539Y-116013225D01*
X221505232Y-116006142D01*
X221461549Y-116008952D01*
X165545524Y-116009017D01*
X165500817Y-116006141D01*
X165445591Y-116013479D01*
X165393931Y-116018567D01*
X165383512Y-116021727D01*
X165371941Y-116023265D01*
X165319272Y-116041215D01*
X165269521Y-116056307D01*
X165259901Y-116061449D01*
X165248883Y-116065204D01*
X165200859Y-116093008D01*
X165154864Y-116117592D01*
X165146409Y-116124531D01*
X165136370Y-116130343D01*
X165094835Y-116166856D01*
X165054366Y-116200069D01*
X165047399Y-116208558D01*
X165038728Y-116216181D01*
X165005280Y-116259881D01*
X164971889Y-116300567D01*
X164966684Y-116310305D01*
X164959708Y-116319419D01*
X164935562Y-116368531D01*
X164910604Y-116415224D01*
X164898000Y-116456774D01*
X163279995Y-120771456D01*
X163007770Y-120771456D01*
X163208673Y-120570553D01*
X163469683Y-120179925D01*
X163649469Y-119745883D01*
X163741123Y-119285106D01*
X163741123Y-118815302D01*
X163649469Y-118354525D01*
X163469683Y-117920483D01*
X163208673Y-117529855D01*
X162876472Y-117197654D01*
X162485844Y-116936644D01*
X162051802Y-116756858D01*
X161591025Y-116665204D01*
X161121221Y-116665204D01*
X160660444Y-116756858D01*
X160226402Y-116936644D01*
X159835774Y-117197654D01*
X159503573Y-117529855D01*
X159242563Y-117920483D01*
X159062777Y-118354525D01*
X158971123Y-118815302D01*
X158971123Y-119285106D01*
X159062777Y-119745883D01*
X159242563Y-120179925D01*
X159503573Y-120570553D01*
X159704476Y-120771456D01*
X159432251Y-120771456D01*
X157814250Y-116456786D01*
X157801640Y-116415219D01*
X157776669Y-116368501D01*
X157752537Y-116319419D01*
X157745564Y-116310309D01*
X157740354Y-116300562D01*
X157706940Y-116259848D01*
X157673517Y-116216182D01*
X157664850Y-116208563D01*
X157657876Y-116200065D01*
X157617379Y-116166830D01*
X157575875Y-116130344D01*
X157565839Y-116124534D01*
X157557377Y-116117589D01*
X157511374Y-116093000D01*
X157463363Y-116065204D01*
X157452343Y-116061448D01*
X157442720Y-116056305D01*
X157392951Y-116041208D01*
X157340304Y-116023266D01*
X157328738Y-116021729D01*
X157318310Y-116018566D01*
X157266609Y-116013474D01*
X157211428Y-116006142D01*
X157166745Y-116009016D01*
X148886394Y-116009080D01*
X148520399Y-115973194D01*
X148199392Y-115876277D01*
X147903331Y-115718857D01*
X147643482Y-115506929D01*
X147429744Y-115248566D01*
X147270262Y-114953610D01*
X147171106Y-114633288D01*
X147132850Y-114269307D01*
X147132850Y-59993904D01*
X386727617Y-59993904D01*
X386739877Y-60118386D01*
X386776187Y-60238084D01*
X386835152Y-60348398D01*
X386914504Y-60445089D01*
X387011195Y-60524441D01*
X387121509Y-60583406D01*
X387241207Y-60619716D01*
X387365689Y-60631976D01*
X387604939Y-60628904D01*
X387763689Y-60470154D01*
X387763689Y-59645904D01*
X386889439Y-59645904D01*
X386730689Y-59804654D01*
X386727617Y-59993904D01*
X147132850Y-59993904D01*
X147132850Y-59043904D01*
X386727617Y-59043904D01*
X386730689Y-59233154D01*
X386889439Y-59391904D01*
X387763689Y-59391904D01*
X387763689Y-58567654D01*
X388017689Y-58567654D01*
X388017689Y-59391904D01*
X388037689Y-59391904D01*
X388037689Y-59645904D01*
X388017689Y-59645904D01*
X388017689Y-60470154D01*
X388176439Y-60628904D01*
X388415689Y-60631976D01*
X388540171Y-60619716D01*
X388659869Y-60583406D01*
X388770183Y-60524441D01*
X388842850Y-60464805D01*
X388866747Y-60484416D01*
X389018122Y-60565327D01*
X389182373Y-60615152D01*
X389353189Y-60631976D01*
X389928189Y-60631976D01*
X390099005Y-60615152D01*
X390263256Y-60565327D01*
X390414631Y-60484416D01*
X390547312Y-60375527D01*
X390656201Y-60242846D01*
X390737112Y-60091471D01*
X390786937Y-59927220D01*
X390803761Y-59756404D01*
X390803761Y-59281404D01*
X390786937Y-59110588D01*
X390737112Y-58946337D01*
X390656201Y-58794962D01*
X390547312Y-58662281D01*
X390414631Y-58553392D01*
X390263256Y-58472481D01*
X390099005Y-58422656D01*
X389928189Y-58405832D01*
X389353189Y-58405832D01*
X389182373Y-58422656D01*
X389018122Y-58472481D01*
X388866747Y-58553392D01*
X388842850Y-58573003D01*
X388770183Y-58513367D01*
X388659869Y-58454402D01*
X388540171Y-58418092D01*
X388415689Y-58405832D01*
X388176439Y-58408904D01*
X388017689Y-58567654D01*
X387763689Y-58567654D01*
X387604939Y-58408904D01*
X387365689Y-58405832D01*
X387241207Y-58418092D01*
X387121509Y-58454402D01*
X387011195Y-58513367D01*
X386914504Y-58592719D01*
X386835152Y-58689410D01*
X386776187Y-58799724D01*
X386739877Y-58919422D01*
X386727617Y-59043904D01*
X147132850Y-59043904D01*
X147132850Y-49823061D01*
X201888474Y-49823061D01*
X201888474Y-50164827D01*
X201955149Y-50500025D01*
X202085937Y-50815775D01*
X202275811Y-51099942D01*
X202517476Y-51341607D01*
X202801643Y-51531481D01*
X203117393Y-51662269D01*
X203452591Y-51728944D01*
X203794357Y-51728944D01*
X204129555Y-51662269D01*
X204445305Y-51531481D01*
X204729472Y-51341607D01*
X204971137Y-51099942D01*
X205161011Y-50815775D01*
X205291799Y-50500025D01*
X205358474Y-50164827D01*
X205358474Y-49823061D01*
X205291799Y-49487863D01*
X205161011Y-49172113D01*
X204971137Y-48887946D01*
X204729472Y-48646281D01*
X204445305Y-48456407D01*
X204129555Y-48325619D01*
X203794357Y-48258944D01*
X203452591Y-48258944D01*
X203117393Y-48325619D01*
X202801643Y-48456407D01*
X202517476Y-48646281D01*
X202275811Y-48887946D01*
X202085937Y-49172113D01*
X201955149Y-49487863D01*
X201888474Y-49823061D01*
X147132850Y-49823061D01*
X147132850Y-42886906D01*
X147169176Y-42516429D01*
X147266092Y-42195426D01*
X147423513Y-41899360D01*
X147635439Y-41639513D01*
X147893802Y-41425775D01*
X148188760Y-41266292D01*
X148509082Y-41167136D01*
X148873072Y-41128879D01*
X157167746Y-41128888D01*
X157211428Y-41131698D01*
X157264735Y-41124615D01*
X157318314Y-41119338D01*
X157329120Y-41116060D01*
X157340304Y-41114574D01*
X157391225Y-41097220D01*
X157442724Y-41081598D01*
X157452679Y-41076277D01*
X157463363Y-41072636D01*
X157509922Y-41045680D01*
X157557381Y-41020313D01*
X157566109Y-41013150D01*
X157575875Y-41007496D01*
X157616280Y-40971976D01*
X157657879Y-40937836D01*
X157665040Y-40929110D01*
X157673517Y-40921658D01*
X157706220Y-40878933D01*
X157740356Y-40837338D01*
X157745676Y-40827384D01*
X157752537Y-40818421D01*
X157776285Y-40770120D01*
X157801641Y-40722681D01*
X157814349Y-40680791D01*
X159432251Y-36366384D01*
X159704476Y-36366384D01*
X159503573Y-36567287D01*
M02*
