G04 #@! TF.GenerationSoftware,KiCad,Pcbnew,(5.1.4-0-10_14)*
G04 #@! TF.CreationDate,2021-10-03T11:39:58-05:00*
G04 #@! TF.ProjectId,lucy_bottom_plate,6c756379-5f62-46f7-9474-6f6d5f706c61,rev?*
G04 #@! TF.SameCoordinates,Original*
G04 #@! TF.FileFunction,Profile,NP*
%FSLAX46Y46*%
G04 Gerber Fmt 4.6, Leading zero omitted, Abs format (unit mm)*
G04 Created by KiCad (PCBNEW (5.1.4-0-10_14)) date 2021-10-03 11:39:58*
%MOMM*%
%LPD*%
G04 APERTURE LIST*
%ADD10C,0.050000*%
G04 APERTURE END LIST*
D10*
X235770510Y-117264265D02*
X235770510Y-118454889D01*
X231008006Y-117264265D02*
X231008006Y-118454889D01*
X158379763Y-117264329D02*
X158379763Y-118454953D01*
X153617259Y-117264329D02*
X153617259Y-118454953D01*
X314351795Y-117264329D02*
X314351795Y-118454953D01*
X309589291Y-117264329D02*
X309589291Y-118454953D01*
X391742254Y-117264265D02*
X391742254Y-118454889D01*
X386979750Y-117264265D02*
X386979750Y-118454889D01*
X391741886Y-38682951D02*
X391741886Y-39873575D01*
X386979382Y-38682951D02*
X386979382Y-39873575D01*
X314351326Y-38682951D02*
X314351326Y-39873575D01*
X309588822Y-38682951D02*
X309588822Y-39873575D01*
X231007638Y-38682951D02*
X231007638Y-39873575D01*
X235770142Y-38682951D02*
X235770142Y-39873575D01*
X153617078Y-38683016D02*
X153617078Y-39873575D01*
X158379582Y-38683016D02*
X158379582Y-39873575D01*
X392337567Y-116668952D02*
X396505150Y-116669080D01*
X314947108Y-116669016D02*
X386384437Y-116668952D01*
X236365823Y-116668952D02*
X308993978Y-116669016D01*
X158975076Y-116669016D02*
X230412693Y-116668952D01*
X148854110Y-116669080D02*
X153021946Y-116669016D01*
X146472850Y-42850020D02*
X146472850Y-114287820D01*
X153021765Y-40468888D02*
X148854110Y-40468760D01*
X230412325Y-40468888D02*
X158974895Y-40468888D01*
X308993509Y-40468888D02*
X236365455Y-40468888D01*
X386384069Y-40468888D02*
X314946639Y-40468888D01*
X396505150Y-40468760D02*
X392337199Y-40468888D01*
X398886410Y-114287820D02*
X398886410Y-42850020D01*
X386979382Y-38682951D02*
G75*
G02X391741886Y-38682951I2381252J0D01*
G01*
X392337199Y-40468888D02*
G75*
G02X391741886Y-39873575I0J595313D01*
G01*
X386979382Y-39873575D02*
G75*
G02X386384069Y-40468888I-595313J0D01*
G01*
X309588822Y-38682951D02*
G75*
G02X314351326Y-38682951I2381252J0D01*
G01*
X314946639Y-40468888D02*
G75*
G02X314351326Y-39873575I0J595313D01*
G01*
X309588822Y-39873575D02*
G75*
G02X308993509Y-40468888I-595313J0D01*
G01*
X231007638Y-38682951D02*
G75*
G02X235770142Y-38682951I2381252J0D01*
G01*
X236365455Y-40468888D02*
G75*
G02X235770142Y-39873575I0J595313D01*
G01*
X231007638Y-39873575D02*
G75*
G02X230412325Y-40468888I-595313J0D01*
G01*
X153617078Y-38683016D02*
G75*
G02X158379582Y-38683016I2381252J0D01*
G01*
X158974895Y-40468888D02*
G75*
G02X158379582Y-39873575I0J595313D01*
G01*
X153617078Y-39873575D02*
G75*
G02X153021765Y-40468888I-595313J0D01*
G01*
X158379763Y-118454953D02*
G75*
G02X153617259Y-118454953I-2381252J0D01*
G01*
X153021946Y-116669016D02*
G75*
G02X153617259Y-117264329I0J-595313D01*
G01*
X158379763Y-117264329D02*
G75*
G02X158975076Y-116669016I595313J0D01*
G01*
X235770510Y-118454889D02*
G75*
G02X231008006Y-118454889I-2381252J0D01*
G01*
X230412693Y-116668952D02*
G75*
G02X231008006Y-117264265I0J-595313D01*
G01*
X235770510Y-117264265D02*
G75*
G02X236365823Y-116668952I595313J0D01*
G01*
X314351795Y-118454953D02*
G75*
G02X309589291Y-118454953I-2381252J0D01*
G01*
X308993978Y-116669016D02*
G75*
G02X309589291Y-117264329I0J-595313D01*
G01*
X314351795Y-117264329D02*
G75*
G02X314947108Y-116669016I595313J0D01*
G01*
X391742254Y-118454889D02*
G75*
G02X386979750Y-118454889I-2381252J0D01*
G01*
X391742254Y-117264265D02*
G75*
G02X392337567Y-116668952I595313J0D01*
G01*
X386384437Y-116668952D02*
G75*
G02X386979750Y-117264265I0J-595313D01*
G01*
X396505150Y-40468760D02*
G75*
G02X398886410Y-42850020I0J-2381260D01*
G01*
X398886410Y-114287820D02*
G75*
G02X396505150Y-116669080I-2381260J0D01*
G01*
X148854110Y-116669080D02*
G75*
G02X146472850Y-114287820I0J2381260D01*
G01*
X146472850Y-42850020D02*
G75*
G02X148854110Y-40468760I2381260J0D01*
G01*
M02*
