G04 #@! TF.GenerationSoftware,KiCad,Pcbnew,(5.1.4-0-10_14)*
G04 #@! TF.CreationDate,2021-10-03T11:39:58-05:00*
G04 #@! TF.ProjectId,lucy_bottom_plate,6c756379-5f62-46f7-9474-6f6d5f706c61,rev?*
G04 #@! TF.SameCoordinates,Original*
G04 #@! TF.FileFunction,Paste,Top*
G04 #@! TF.FilePolarity,Positive*
%FSLAX46Y46*%
G04 Gerber Fmt 4.6, Leading zero omitted, Abs format (unit mm)*
G04 Created by KiCad (PCBNEW (5.1.4-0-10_14)) date 2021-10-03 11:39:58*
%MOMM*%
%LPD*%
G04 APERTURE LIST*
%ADD10C,0.100000*%
%ADD11C,1.000000*%
G04 APERTURE END LIST*
D10*
G36*
X387985874Y-58920044D02*
G01*
X388010143Y-58923644D01*
X388033941Y-58929605D01*
X388057041Y-58937870D01*
X388079219Y-58948360D01*
X388100263Y-58960973D01*
X388119968Y-58975587D01*
X388138147Y-58992063D01*
X388154623Y-59010242D01*
X388169237Y-59029947D01*
X388181850Y-59050991D01*
X388192340Y-59073169D01*
X388200605Y-59096269D01*
X388206566Y-59120067D01*
X388210166Y-59144336D01*
X388211370Y-59168840D01*
X388211370Y-59868840D01*
X388210166Y-59893344D01*
X388206566Y-59917613D01*
X388200605Y-59941411D01*
X388192340Y-59964511D01*
X388181850Y-59986689D01*
X388169237Y-60007733D01*
X388154623Y-60027438D01*
X388138147Y-60045617D01*
X388119968Y-60062093D01*
X388100263Y-60076707D01*
X388079219Y-60089320D01*
X388057041Y-60099810D01*
X388033941Y-60108075D01*
X388010143Y-60114036D01*
X387985874Y-60117636D01*
X387961370Y-60118840D01*
X387461370Y-60118840D01*
X387436866Y-60117636D01*
X387412597Y-60114036D01*
X387388799Y-60108075D01*
X387365699Y-60099810D01*
X387343521Y-60089320D01*
X387322477Y-60076707D01*
X387302772Y-60062093D01*
X387284593Y-60045617D01*
X387268117Y-60027438D01*
X387253503Y-60007733D01*
X387240890Y-59986689D01*
X387230400Y-59964511D01*
X387222135Y-59941411D01*
X387216174Y-59917613D01*
X387212574Y-59893344D01*
X387211370Y-59868840D01*
X387211370Y-59168840D01*
X387212574Y-59144336D01*
X387216174Y-59120067D01*
X387222135Y-59096269D01*
X387230400Y-59073169D01*
X387240890Y-59050991D01*
X387253503Y-59029947D01*
X387268117Y-59010242D01*
X387284593Y-58992063D01*
X387302772Y-58975587D01*
X387322477Y-58960973D01*
X387343521Y-58948360D01*
X387365699Y-58937870D01*
X387388799Y-58929605D01*
X387412597Y-58923644D01*
X387436866Y-58920044D01*
X387461370Y-58918840D01*
X387961370Y-58918840D01*
X387985874Y-58920044D01*
X387985874Y-58920044D01*
G37*
D11*
X387711370Y-59518840D03*
D10*
G36*
X391285874Y-58920044D02*
G01*
X391310143Y-58923644D01*
X391333941Y-58929605D01*
X391357041Y-58937870D01*
X391379219Y-58948360D01*
X391400263Y-58960973D01*
X391419968Y-58975587D01*
X391438147Y-58992063D01*
X391454623Y-59010242D01*
X391469237Y-59029947D01*
X391481850Y-59050991D01*
X391492340Y-59073169D01*
X391500605Y-59096269D01*
X391506566Y-59120067D01*
X391510166Y-59144336D01*
X391511370Y-59168840D01*
X391511370Y-59868840D01*
X391510166Y-59893344D01*
X391506566Y-59917613D01*
X391500605Y-59941411D01*
X391492340Y-59964511D01*
X391481850Y-59986689D01*
X391469237Y-60007733D01*
X391454623Y-60027438D01*
X391438147Y-60045617D01*
X391419968Y-60062093D01*
X391400263Y-60076707D01*
X391379219Y-60089320D01*
X391357041Y-60099810D01*
X391333941Y-60108075D01*
X391310143Y-60114036D01*
X391285874Y-60117636D01*
X391261370Y-60118840D01*
X390761370Y-60118840D01*
X390736866Y-60117636D01*
X390712597Y-60114036D01*
X390688799Y-60108075D01*
X390665699Y-60099810D01*
X390643521Y-60089320D01*
X390622477Y-60076707D01*
X390602772Y-60062093D01*
X390584593Y-60045617D01*
X390568117Y-60027438D01*
X390553503Y-60007733D01*
X390540890Y-59986689D01*
X390530400Y-59964511D01*
X390522135Y-59941411D01*
X390516174Y-59917613D01*
X390512574Y-59893344D01*
X390511370Y-59868840D01*
X390511370Y-59168840D01*
X390512574Y-59144336D01*
X390516174Y-59120067D01*
X390522135Y-59096269D01*
X390530400Y-59073169D01*
X390540890Y-59050991D01*
X390553503Y-59029947D01*
X390568117Y-59010242D01*
X390584593Y-58992063D01*
X390602772Y-58975587D01*
X390622477Y-58960973D01*
X390643521Y-58948360D01*
X390665699Y-58937870D01*
X390688799Y-58929605D01*
X390712597Y-58923644D01*
X390736866Y-58920044D01*
X390761370Y-58918840D01*
X391261370Y-58918840D01*
X391285874Y-58920044D01*
X391285874Y-58920044D01*
G37*
D11*
X391011370Y-59518840D03*
M02*
