M48
; DRILL file {KiCad (5.1.2-1)-1} date Wednesday, July 22, 2020 at 10:20:21 PM
; FORMAT={-:-/ absolute / inch / decimal}
; #@! TF.CreationDate,2020-07-22T22:20:21-05:00
; #@! TF.GenerationSoftware,Kicad,Pcbnew,(5.1.2-1)-1
; #@! TF.FileFunction,NonPlated,1,2,NPTH
FMAT,2
INCH
T1C0.0315
%
G90
G05
T1
X14.7063Y-2.9984
X14.7063Y-3.0476
X14.7063Y-3.0969
X14.7063Y-3.1461
X14.7063Y-3.1953
X14.7063Y-1.8764
X14.7063Y-1.9256
X14.7063Y-1.9748
X14.7063Y-2.024
X14.7063Y-2.0732
X5.7598Y-2.9984
X5.7598Y-3.0476
X5.7598Y-3.0969
X5.7598Y-3.1461
X5.7598Y-3.1953
X14.7063Y-4.0906
X14.7063Y-4.1398
X14.7063Y-4.189
X14.7063Y-4.2382
X14.7063Y-4.2874
X5.7598Y-4.0906
X5.7598Y-4.1398
X5.7598Y-4.189
X5.7598Y-4.2382
X5.7598Y-4.2874
X5.7598Y-1.8764
X5.7598Y-1.9256
X5.7598Y-1.9748
X5.7598Y-2.024
X5.7598Y-2.0732
T0
M30
