G04 #@! TF.GenerationSoftware,KiCad,Pcbnew,(5.1.4-0)*
G04 #@! TF.CreationDate,2021-04-25T18:58:13-05:00*
G04 #@! TF.ProjectId,ori_top_plate,6f72695f-746f-4705-9f70-6c6174652e6b,rev?*
G04 #@! TF.SameCoordinates,Original*
G04 #@! TF.FileFunction,Legend,Bot*
G04 #@! TF.FilePolarity,Positive*
%FSLAX46Y46*%
G04 Gerber Fmt 4.6, Leading zero omitted, Abs format (unit mm)*
G04 Created by KiCad (PCBNEW (5.1.4-0)) date 2021-04-25 18:58:13*
%MOMM*%
%LPD*%
G04 APERTURE LIST*
%ADD10C,0.200000*%
%ADD11C,0.150000*%
G04 APERTURE END LIST*
D10*
X256492212Y-60858410D02*
X256492212Y-62072696D01*
X256563640Y-62215553D01*
X256635069Y-62286981D01*
X256777926Y-62358410D01*
X256992212Y-62358410D01*
X257135069Y-62286981D01*
X256492212Y-61786981D02*
X256635069Y-61858410D01*
X256920783Y-61858410D01*
X257063640Y-61786981D01*
X257135069Y-61715553D01*
X257206497Y-61572696D01*
X257206497Y-61144124D01*
X257135069Y-61001267D01*
X257063640Y-60929839D01*
X256920783Y-60858410D01*
X256635069Y-60858410D01*
X256492212Y-60929839D01*
X255777926Y-61858410D02*
X255777926Y-60858410D01*
X255777926Y-60358410D02*
X255849355Y-60429839D01*
X255777926Y-60501267D01*
X255706497Y-60429839D01*
X255777926Y-60358410D01*
X255777926Y-60501267D01*
X255277926Y-60858410D02*
X254706497Y-60858410D01*
X255063640Y-60358410D02*
X255063640Y-61644124D01*
X254992212Y-61786981D01*
X254849355Y-61858410D01*
X254706497Y-61858410D01*
X254206497Y-61858410D02*
X254206497Y-60358410D01*
X253563640Y-61858410D02*
X253563640Y-61072696D01*
X253635069Y-60929839D01*
X253777926Y-60858410D01*
X253992212Y-60858410D01*
X254135069Y-60929839D01*
X254206497Y-61001267D01*
X252206497Y-60858410D02*
X252206497Y-61858410D01*
X252849355Y-60858410D02*
X252849355Y-61644124D01*
X252777926Y-61786981D01*
X252635069Y-61858410D01*
X252420783Y-61858410D01*
X252277926Y-61786981D01*
X252206497Y-61715553D01*
X251492212Y-61858410D02*
X251492212Y-60358410D01*
X251492212Y-60929839D02*
X251349355Y-60858410D01*
X251063640Y-60858410D01*
X250920783Y-60929839D01*
X250849355Y-61001267D01*
X250777926Y-61144124D01*
X250777926Y-61572696D01*
X250849355Y-61715553D01*
X250920783Y-61786981D01*
X251063640Y-61858410D01*
X251349355Y-61858410D01*
X251492212Y-61786981D01*
X250135069Y-61715553D02*
X250063640Y-61786981D01*
X250135069Y-61858410D01*
X250206497Y-61786981D01*
X250135069Y-61715553D01*
X250135069Y-61858410D01*
X248777926Y-61786981D02*
X248920783Y-61858410D01*
X249206497Y-61858410D01*
X249349355Y-61786981D01*
X249420783Y-61715553D01*
X249492212Y-61572696D01*
X249492212Y-61144124D01*
X249420783Y-61001267D01*
X249349355Y-60929839D01*
X249206497Y-60858410D01*
X248920783Y-60858410D01*
X248777926Y-60929839D01*
X247920783Y-61858410D02*
X248063640Y-61786981D01*
X248135069Y-61715553D01*
X248206497Y-61572696D01*
X248206497Y-61144124D01*
X248135069Y-61001267D01*
X248063640Y-60929839D01*
X247920783Y-60858410D01*
X247706497Y-60858410D01*
X247563640Y-60929839D01*
X247492212Y-61001267D01*
X247420783Y-61144124D01*
X247420783Y-61572696D01*
X247492212Y-61715553D01*
X247563640Y-61786981D01*
X247706497Y-61858410D01*
X247920783Y-61858410D01*
X246777926Y-61858410D02*
X246777926Y-60858410D01*
X246777926Y-61001267D02*
X246706497Y-60929839D01*
X246563640Y-60858410D01*
X246349355Y-60858410D01*
X246206497Y-60929839D01*
X246135069Y-61072696D01*
X246135069Y-61858410D01*
X246135069Y-61072696D02*
X246063640Y-60929839D01*
X245920783Y-60858410D01*
X245706497Y-60858410D01*
X245563640Y-60929839D01*
X245492212Y-61072696D01*
X245492212Y-61858410D01*
X243706497Y-60286981D02*
X244992212Y-62215553D01*
X242563640Y-61858410D02*
X242563640Y-60358410D01*
X242563640Y-61786981D02*
X242706497Y-61858410D01*
X242992212Y-61858410D01*
X243135069Y-61786981D01*
X243206497Y-61715553D01*
X243277926Y-61572696D01*
X243277926Y-61144124D01*
X243206497Y-61001267D01*
X243135069Y-60929839D01*
X242992212Y-60858410D01*
X242706497Y-60858410D01*
X242563640Y-60929839D01*
X241849355Y-61858410D02*
X241849355Y-60858410D01*
X241849355Y-60358410D02*
X241920783Y-60429839D01*
X241849355Y-60501267D01*
X241777926Y-60429839D01*
X241849355Y-60358410D01*
X241849355Y-60501267D01*
X240563640Y-61786981D02*
X240706497Y-61858410D01*
X240992212Y-61858410D01*
X241135069Y-61786981D01*
X241206497Y-61644124D01*
X241206497Y-61072696D01*
X241135069Y-60929839D01*
X240992212Y-60858410D01*
X240706497Y-60858410D01*
X240563640Y-60929839D01*
X240492212Y-61072696D01*
X240492212Y-61215553D01*
X241206497Y-61358410D01*
X239849355Y-61858410D02*
X239849355Y-60858410D01*
X239849355Y-61144124D02*
X239777926Y-61001267D01*
X239706497Y-60929839D01*
X239563640Y-60858410D01*
X239420783Y-60858410D01*
X238920783Y-61858410D02*
X238920783Y-60858410D01*
X238920783Y-60358410D02*
X238992212Y-60429839D01*
X238920783Y-60501267D01*
X238849355Y-60429839D01*
X238920783Y-60358410D01*
X238920783Y-60501267D01*
X237563640Y-61786981D02*
X237706497Y-61858410D01*
X237992212Y-61858410D01*
X238135069Y-61786981D01*
X238206497Y-61715553D01*
X238277926Y-61572696D01*
X238277926Y-61144124D01*
X238206497Y-61001267D01*
X238135069Y-60929839D01*
X237992212Y-60858410D01*
X237706497Y-60858410D01*
X237563640Y-60929839D01*
X236920783Y-61858410D02*
X236920783Y-60358410D01*
X236777926Y-61286981D02*
X236349355Y-61858410D01*
X236349355Y-60858410D02*
X236920783Y-61429839D01*
X235063640Y-61858410D02*
X235063640Y-60358410D01*
X235063640Y-61786981D02*
X235206497Y-61858410D01*
X235492212Y-61858410D01*
X235635069Y-61786981D01*
X235706497Y-61715553D01*
X235777926Y-61572696D01*
X235777926Y-61144124D01*
X235706497Y-61001267D01*
X235635069Y-60929839D01*
X235492212Y-60858410D01*
X235206497Y-60858410D01*
X235063640Y-60929839D01*
X234349355Y-61858410D02*
X234349355Y-60858410D01*
X234349355Y-60358410D02*
X234420783Y-60429839D01*
X234349355Y-60501267D01*
X234277926Y-60429839D01*
X234349355Y-60358410D01*
X234349355Y-60501267D01*
X233063640Y-61786981D02*
X233206497Y-61858410D01*
X233492212Y-61858410D01*
X233635069Y-61786981D01*
X233706497Y-61644124D01*
X233706497Y-61072696D01*
X233635069Y-60929839D01*
X233492212Y-60858410D01*
X233206497Y-60858410D01*
X233063640Y-60929839D01*
X232992212Y-61072696D01*
X232992212Y-61215553D01*
X233706497Y-61358410D01*
X250956497Y-98358310D02*
X250670783Y-98358310D01*
X250527926Y-98429739D01*
X250385069Y-98572596D01*
X250313640Y-98858310D01*
X250313640Y-99358310D01*
X250385069Y-99644024D01*
X250527926Y-99786881D01*
X250670783Y-99858310D01*
X250956497Y-99858310D01*
X251099355Y-99786881D01*
X251242212Y-99644024D01*
X251313640Y-99358310D01*
X251313640Y-98858310D01*
X251242212Y-98572596D01*
X251099355Y-98429739D01*
X250956497Y-98358310D01*
X249670783Y-99858310D02*
X249670783Y-98858310D01*
X249670783Y-99144024D02*
X249599355Y-99001167D01*
X249527926Y-98929739D01*
X249385069Y-98858310D01*
X249242212Y-98858310D01*
X248742212Y-99858310D02*
X248742212Y-98858310D01*
X248742212Y-98358310D02*
X248813640Y-98429739D01*
X248742212Y-98501167D01*
X248670783Y-98429739D01*
X248742212Y-98358310D01*
X248742212Y-98501167D01*
X246027926Y-99858310D02*
X246527926Y-99144024D01*
X246885069Y-99858310D02*
X246885069Y-98358310D01*
X246313640Y-98358310D01*
X246170783Y-98429739D01*
X246099355Y-98501167D01*
X246027926Y-98644024D01*
X246027926Y-98858310D01*
X246099355Y-99001167D01*
X246170783Y-99072596D01*
X246313640Y-99144024D01*
X246885069Y-99144024D01*
X244813640Y-99786881D02*
X244956497Y-99858310D01*
X245242212Y-99858310D01*
X245385069Y-99786881D01*
X245456497Y-99644024D01*
X245456497Y-99072596D01*
X245385069Y-98929739D01*
X245242212Y-98858310D01*
X244956497Y-98858310D01*
X244813640Y-98929739D01*
X244742212Y-99072596D01*
X244742212Y-99215453D01*
X245456497Y-99358310D01*
X244242212Y-98858310D02*
X243885069Y-99858310D01*
X243527926Y-98858310D01*
X241027926Y-99858310D02*
X241885069Y-99858310D01*
X241456497Y-99858310D02*
X241456497Y-98358310D01*
X241599355Y-98572596D01*
X241742212Y-98715453D01*
X241885069Y-98786881D01*
X240385069Y-99715453D02*
X240313640Y-99786881D01*
X240385069Y-99858310D01*
X240456497Y-99786881D01*
X240385069Y-99715453D01*
X240385069Y-99858310D01*
X239385069Y-98358310D02*
X239242212Y-98358310D01*
X239099355Y-98429739D01*
X239027926Y-98501167D01*
X238956497Y-98644024D01*
X238885069Y-98929739D01*
X238885069Y-99286881D01*
X238956497Y-99572596D01*
X239027926Y-99715453D01*
X239099355Y-99786881D01*
X239242212Y-99858310D01*
X239385069Y-99858310D01*
X239527926Y-99786881D01*
X239599355Y-99715453D01*
X239670783Y-99572596D01*
X239742212Y-99286881D01*
X239742212Y-98929739D01*
X239670783Y-98644024D01*
X239599355Y-98501167D01*
X239527926Y-98429739D01*
X239385069Y-98358310D01*
D11*
X173719047Y-98632380D02*
X173719047Y-99346666D01*
X173766666Y-99489523D01*
X173861904Y-99584761D01*
X174004761Y-99632380D01*
X174100000Y-99632380D01*
X172766666Y-99632380D02*
X173242857Y-99632380D01*
X173242857Y-98632380D01*
X171861904Y-99537142D02*
X171909523Y-99584761D01*
X172052380Y-99632380D01*
X172147619Y-99632380D01*
X172290476Y-99584761D01*
X172385714Y-99489523D01*
X172433333Y-99394285D01*
X172480952Y-99203809D01*
X172480952Y-99060952D01*
X172433333Y-98870476D01*
X172385714Y-98775238D01*
X172290476Y-98680000D01*
X172147619Y-98632380D01*
X172052380Y-98632380D01*
X171909523Y-98680000D01*
X171861904Y-98727619D01*
X171147619Y-98632380D02*
X171147619Y-99346666D01*
X171195238Y-99489523D01*
X171290476Y-99584761D01*
X171433333Y-99632380D01*
X171528571Y-99632380D01*
X170195238Y-99632380D02*
X170671428Y-99632380D01*
X170671428Y-98632380D01*
X169290476Y-99537142D02*
X169338095Y-99584761D01*
X169480952Y-99632380D01*
X169576190Y-99632380D01*
X169719047Y-99584761D01*
X169814285Y-99489523D01*
X169861904Y-99394285D01*
X169909523Y-99203809D01*
X169909523Y-99060952D01*
X169861904Y-98870476D01*
X169814285Y-98775238D01*
X169719047Y-98680000D01*
X169576190Y-98632380D01*
X169480952Y-98632380D01*
X169338095Y-98680000D01*
X169290476Y-98727619D01*
X168576190Y-98632380D02*
X168576190Y-99346666D01*
X168623809Y-99489523D01*
X168719047Y-99584761D01*
X168861904Y-99632380D01*
X168957142Y-99632380D01*
X167623809Y-99632380D02*
X168100000Y-99632380D01*
X168100000Y-98632380D01*
X166719047Y-99537142D02*
X166766666Y-99584761D01*
X166909523Y-99632380D01*
X167004761Y-99632380D01*
X167147619Y-99584761D01*
X167242857Y-99489523D01*
X167290476Y-99394285D01*
X167338095Y-99203809D01*
X167338095Y-99060952D01*
X167290476Y-98870476D01*
X167242857Y-98775238D01*
X167147619Y-98680000D01*
X167004761Y-98632380D01*
X166909523Y-98632380D01*
X166766666Y-98680000D01*
X166719047Y-98727619D01*
X166004761Y-98632380D02*
X166004761Y-99346666D01*
X166052380Y-99489523D01*
X166147619Y-99584761D01*
X166290476Y-99632380D01*
X166385714Y-99632380D01*
X165052380Y-99632380D02*
X165528571Y-99632380D01*
X165528571Y-98632380D01*
X164147619Y-99537142D02*
X164195238Y-99584761D01*
X164338095Y-99632380D01*
X164433333Y-99632380D01*
X164576190Y-99584761D01*
X164671428Y-99489523D01*
X164719047Y-99394285D01*
X164766666Y-99203809D01*
X164766666Y-99060952D01*
X164719047Y-98870476D01*
X164671428Y-98775238D01*
X164576190Y-98680000D01*
X164433333Y-98632380D01*
X164338095Y-98632380D01*
X164195238Y-98680000D01*
X164147619Y-98727619D01*
M02*
