M48
; DRILL file {KiCad (5.1.4-0)} date Saturday, July 31, 2021 at 12:51:03 PM
; FORMAT={-:-/ absolute / inch / decimal}
; #@! TF.CreationDate,2021-07-31T12:51:03-05:00
; #@! TF.GenerationSoftware,Kicad,Pcbnew,(5.1.4-0)
; #@! TF.FileFunction,NonPlated,1,2,NPTH
FMAT,2
INCH
T1C0.0200
T2C0.0315
T3C0.0500
%
G90
G05
T2
X14.1428Y-3.7906
X14.1428Y-3.8406
X14.1428Y-3.8906
X14.1428Y-3.9406
X14.1428Y-3.9906
X14.1428Y-2.3406
X14.1428Y-2.3906
X14.1428Y-3.0406
X14.1428Y-3.0906
X14.1428Y-3.1406
X14.1428Y-3.1906
X14.1428Y-3.2406
X14.1428Y-2.2906
X14.1428Y-2.4406
X14.1428Y-2.4906
T1
G00X8.2338Y-3.2506
M15
G01X8.2338Y-3.4106
M16
G05
G00X8.2338Y-3.6206
M15
G01X8.2338Y-3.7806
M16
G05
G00X8.2338Y-3.4106
M15
G01X8.2663Y-3.4106
M16
G05
G00X8.2338Y-3.6206
M15
G01X8.2663Y-3.6206
M16
G05
G00X8.2663Y-3.4106
M15
G01X8.2663Y-3.6206
M16
G05
G00X8.2343Y-3.2506
M15
G01X8.8283Y-3.2506
M16
G05
G00X9.7338Y-1.7506
M15
G01X9.7338Y-1.9106
M16
G05
G00X9.7338Y-2.1206
M15
G01X9.7338Y-2.2806
M16
G05
G00X9.7338Y-1.9106
M15
G01X9.7663Y-1.9106
M16
G05
G00X9.7338Y-2.1206
M15
G01X9.7663Y-2.1206
M16
G05
G00X9.7663Y-1.9106
M15
G01X9.7663Y-2.1206
M16
G05
G00X9.7338Y-4.0006
M15
G01X9.7338Y-4.1606
M16
G05
G00X9.7343Y-1.7506
M15
G01X10.3283Y-1.7506
M16
G05
G00X9.7343Y-2.2806
M15
G01X10.3283Y-2.2806
M16
G05
G00X10.2963Y-1.9106
M15
G01X10.2963Y-2.1206
M16
G05
G00X9.7338Y-4.3706
M15
G01X9.7338Y-4.5306
M16
G05
G00X9.7338Y-4.1606
M15
G01X9.7663Y-4.1606
M16
G05
G00X9.7338Y-4.3706
M15
G01X9.7663Y-4.3706
M16
G05
G00X9.7663Y-4.1606
M15
G01X9.7663Y-4.3706
M16
G05
G00X9.7343Y-4.0006
M15
G01X10.3283Y-4.0006
M16
G05
G00X9.7343Y-4.5306
M15
G01X10.3283Y-4.5306
M16
G05
G00X10.2963Y-4.1606
M15
G01X10.2963Y-4.3706
M16
G05
G00X10.2963Y-4.1606
M15
G01X10.3288Y-4.1606
M16
G05
G00X10.2963Y-4.3706
M15
G01X10.3288Y-4.3706
M16
G05
G00X7.4838Y-2.5006
M15
G01X7.4838Y-2.6606
M16
G05
G00X7.4838Y-2.8706
M15
G01X7.4838Y-3.0306
M16
G05
G00X7.4838Y-2.6606
M15
G01X7.5163Y-2.6606
M16
G05
G00X7.4838Y-2.8706
M15
G01X7.5163Y-2.8706
M16
G05
G00X7.5163Y-2.6606
M15
G01X7.5163Y-2.8706
M16
G05
G00X7.4843Y-2.5006
M15
G01X8.0783Y-2.5006
M16
G05
G00X7.4843Y-3.0306
M15
G01X8.0783Y-3.0306
M16
G05
G00X8.0463Y-2.6606
M15
G01X8.0463Y-2.8706
M16
G05
G00X8.0463Y-2.6606
M15
G01X8.0788Y-2.6606
M16
G05
G00X8.0463Y-2.8706
M15
G01X8.0788Y-2.8706
M16
G05
G00X8.0788Y-2.5006
M15
G01X8.0788Y-2.6606
M16
G05
G00X8.0788Y-2.8706
M15
G01X8.0788Y-3.0306
M16
G05
G00X5.2338Y-3.2506
M15
G01X5.2338Y-3.4106
M16
G05
G00X5.2338Y-3.6206
M15
G01X5.2338Y-3.7806
M16
G05
G00X5.2338Y-3.4106
M15
G01X5.2663Y-3.4106
M16
G05
G00X5.2338Y-3.6206
M15
G01X5.2663Y-3.6206
M16
G05
G00X5.2663Y-3.4106
M15
G01X5.2663Y-3.6206
M16
G05
G00X5.7963Y-3.4106
M15
G01X5.8288Y-3.4106
M16
G05
G00X5.7963Y-3.6206
M15
G01X5.8288Y-3.6206
M16
G05
G00X5.8288Y-3.2506
M15
G01X5.8288Y-3.4106
M16
G05
G00X5.8288Y-3.6206
M15
G01X5.8288Y-3.7806
M16
G05
G00X10.3288Y-4.0006
M15
G01X10.3288Y-4.1606
M16
G05
G00X10.3288Y-4.3706
M15
G01X10.3288Y-4.5306
M16
G05
G00X5.2343Y-3.2506
M15
G01X5.8283Y-3.2506
M16
G05
G00X5.2343Y-3.7806
M15
G01X5.8283Y-3.7806
M16
G05
G00X5.7963Y-3.4106
M15
G01X5.7963Y-3.6206
M16
G05
G00X13.4838Y-3.2506
M15
G01X13.4838Y-3.4106
M16
G05
G00X13.4838Y-3.6206
M15
G01X13.4838Y-3.7806
M16
G05
G00X13.4838Y-3.4106
M15
G01X13.5163Y-3.4106
M16
G05
G00X13.4838Y-3.6206
M15
G01X13.5163Y-3.6206
M16
G05
G00X13.5163Y-3.4106
M15
G01X13.5163Y-3.6206
M16
G05
G00X13.4843Y-3.2506
M15
G01X14.0783Y-3.2506
M16
G05
G00X13.4843Y-3.7806
M15
G01X14.0783Y-3.7806
M16
G05
G00X14.0463Y-3.4106
M15
G01X14.0463Y-3.6206
M16
G05
G00X14.0463Y-3.4106
M15
G01X14.0788Y-3.4106
M16
G05
G00X14.0463Y-3.6206
M15
G01X14.0788Y-3.6206
M16
G05
G00X14.0788Y-3.2506
M15
G01X14.0788Y-3.4106
M16
G05
G00X14.0788Y-3.6206
M15
G01X14.0788Y-3.7806
M16
G05
G00X5.2338Y-2.5006
M15
G01X5.2338Y-2.6606
M16
G05
G00X11.9838Y-2.5006
M15
G01X11.9838Y-2.6606
M16
G05
G00X5.2338Y-2.8706
M15
G01X5.2338Y-3.0306
M16
G05
G00X5.2338Y-2.6606
M15
G01X5.2663Y-2.6606
M16
G05
G00X5.2338Y-2.8706
M15
G01X5.2663Y-2.8706
M16
G05
G00X5.2663Y-2.6606
M15
G01X5.2663Y-2.8706
M16
G05
G00X14.9838Y-2.8706
M15
G01X15.0163Y-2.8706
M16
G05
G00X14.4218Y-2.5006
M15
G01X15.0158Y-2.5006
M16
G05
G00X14.4218Y-3.0306
M15
G01X15.0158Y-3.0306
M16
G05
G00X14.4213Y-2.5006
M15
G01X14.4213Y-2.6606
M16
G05
G00X14.4213Y-2.8706
M15
G01X14.4213Y-3.0306
M16
G05
G00X14.9838Y-2.6606
M15
G01X14.9838Y-2.8706
M16
G05
G00X14.4538Y-2.6606
M15
G01X14.4538Y-2.8706
M16
G05
G00X14.4213Y-2.6606
M15
G01X14.4538Y-2.6606
M16
G05
G00X14.9838Y-2.6606
M15
G01X15.0163Y-2.6606
M16
G05
G00X14.4213Y-2.8706
M15
G01X14.4538Y-2.8706
M16
G05
G00X5.2343Y-2.5006
M15
G01X5.8283Y-2.5006
M16
G05
G00X5.7963Y-2.6606
M15
G01X5.8288Y-2.6606
M16
G05
G00X5.8288Y-2.8706
M15
G01X5.8288Y-3.0306
M16
G05
G00X5.7963Y-2.6606
M15
G01X5.7963Y-2.8706
M16
G05
G00X5.7963Y-2.8706
M15
G01X5.8288Y-2.8706
M16
G05
G00X5.2343Y-3.0306
M15
G01X5.8283Y-3.0306
M16
G05
G00X5.8288Y-2.5006
M15
G01X5.8288Y-2.6606
M16
G05
G00X15.0163Y-2.5006
M15
G01X15.0163Y-2.6606
M16
G05
G00X15.0163Y-2.8706
M15
G01X15.0163Y-3.0306
M16
G05
G00X11.9838Y-2.8706
M15
G01X11.9838Y-3.0306
M16
G05
G00X11.9838Y-2.6606
M15
G01X12.0163Y-2.6606
M16
G05
G00X11.9838Y-2.8706
M15
G01X12.0163Y-2.8706
M16
G05
G00X12.0163Y-2.6606
M15
G01X12.0163Y-2.8706
M16
G05
G00X11.9843Y-2.5006
M15
G01X12.5783Y-2.5006
M16
G05
G00X11.9843Y-3.0306
M15
G01X12.5783Y-3.0306
M16
G05
G00X12.5463Y-2.6606
M15
G01X12.5463Y-2.8706
M16
G05
G00X12.5463Y-2.6606
M15
G01X12.5788Y-2.6606
M16
G05
G00X12.5463Y-2.8706
M15
G01X12.5788Y-2.8706
M16
G05
G00X12.5788Y-2.5006
M15
G01X12.5788Y-2.6606
M16
G05
G00X12.5788Y-2.8706
M15
G01X12.5788Y-3.0306
M16
G05
G00X12.7338Y-2.5006
M15
G01X12.7338Y-2.6606
M16
G05
G00X12.7338Y-2.8706
M15
G01X12.7338Y-3.0306
M16
G05
G00X12.7338Y-2.6606
M15
G01X12.7663Y-2.6606
M16
G05
G00X12.7338Y-2.8706
M15
G01X12.7663Y-2.8706
M16
G05
G00X12.7663Y-2.6606
M15
G01X12.7663Y-2.8706
M16
G05
G00X12.7343Y-2.5006
M15
G01X13.3283Y-2.5006
M16
G05
G00X12.7343Y-3.0306
M15
G01X13.3283Y-3.0306
M16
G05
G00X13.2963Y-2.6606
M15
G01X13.2963Y-2.8706
M16
G05
G00X13.2963Y-2.6606
M15
G01X13.3288Y-2.6606
M16
G05
G00X13.2963Y-2.8706
M15
G01X13.3288Y-2.8706
M16
G05
G00X13.3288Y-2.5006
M15
G01X13.3288Y-2.6606
M16
G05
G00X13.3288Y-2.8706
M15
G01X13.3288Y-3.0306
M16
G05
G00X12.7338Y-3.2506
M15
G01X12.7338Y-3.4106
M16
G05
G00X12.7338Y-3.6206
M15
G01X12.7338Y-3.7806
M16
G05
G00X12.7338Y-3.4106
M15
G01X12.7663Y-3.4106
M16
G05
G00X12.7338Y-3.6206
M15
G01X12.7663Y-3.6206
M16
G05
G00X12.7663Y-3.4106
M15
G01X12.7663Y-3.6206
M16
G05
G00X12.7343Y-3.2506
M15
G01X13.3283Y-3.2506
M16
G05
G00X12.7343Y-3.7806
M15
G01X13.3283Y-3.7806
M16
G05
G00X13.2963Y-3.4106
M15
G01X13.2963Y-3.6206
M16
G05
G00X13.2963Y-3.4106
M15
G01X13.3288Y-3.4106
M16
G05
G00X13.2963Y-3.6206
M15
G01X13.3288Y-3.6206
M16
G05
G00X13.3288Y-3.2506
M15
G01X13.3288Y-3.4106
M16
G05
G00X13.3288Y-3.6206
M15
G01X13.3288Y-3.7806
M16
G05
G00X6.7338Y-2.5006
M15
G01X6.7338Y-2.6606
M16
G05
G00X6.7338Y-2.8706
M15
G01X6.7338Y-3.0306
M16
G05
G00X6.7338Y-2.6606
M15
G01X6.7663Y-2.6606
M16
G05
G00X6.7338Y-2.8706
M15
G01X6.7663Y-2.8706
M16
G05
G00X6.7663Y-2.6606
M15
G01X6.7663Y-2.8706
M16
G05
G00X6.7343Y-2.5006
M15
G01X7.3283Y-2.5006
M16
G05
G00X10.2963Y-1.9106
M15
G01X10.3288Y-1.9106
M16
G05
G00X10.2963Y-2.1206
M15
G01X10.3288Y-2.1206
M16
G05
G00X10.3288Y-1.7506
M15
G01X10.3288Y-1.9106
M16
G05
G00X10.3288Y-2.1206
M15
G01X10.3288Y-2.2806
M16
G05
G00X5.9838Y-1.7506
M15
G01X5.9838Y-1.9106
M16
G05
G00X5.9838Y-2.1206
M15
G01X5.9838Y-2.2806
M16
G05
G00X5.9838Y-1.9106
M15
G01X6.0163Y-1.9106
M16
G05
G00X5.9838Y-2.1206
M15
G01X6.0163Y-2.1206
M16
G05
G00X6.0163Y-1.9106
M15
G01X6.0163Y-2.1206
M16
G05
G00X5.9843Y-1.7506
M15
G01X6.5783Y-1.7506
M16
G05
G00X5.9843Y-2.2806
M15
G01X6.5783Y-2.2806
M16
G05
G00X6.5463Y-1.9106
M15
G01X6.5463Y-2.1206
M16
G05
G00X6.5463Y-1.9106
M15
G01X6.5788Y-1.9106
M16
G05
G00X6.5463Y-2.1206
M15
G01X6.5788Y-2.1206
M16
G05
G00X6.5788Y-1.7506
M15
G01X6.5788Y-1.9106
M16
G05
G00X6.5788Y-2.1206
M15
G01X6.5788Y-2.2806
M16
G05
G00X5.2338Y-2.1206
M15
G01X5.2338Y-2.2806
M16
G05
G00X5.2338Y-1.9106
M15
G01X5.2663Y-1.9106
M16
G05
G00X5.2338Y-2.1206
M15
G01X5.2663Y-2.1206
M16
G05
G00X5.2663Y-1.9106
M15
G01X5.2663Y-2.1206
M16
G05
G00X5.2343Y-1.7506
M15
G01X5.8283Y-1.7506
M16
G05
G00X5.2343Y-2.2806
M15
G01X5.8283Y-2.2806
M16
G05
G00X5.7963Y-1.9106
M15
G01X5.7963Y-2.1206
M16
G05
G00X5.7963Y-1.9106
M15
G01X5.8288Y-1.9106
M16
G05
G00X6.7343Y-3.0306
M15
G01X7.3283Y-3.0306
M16
G05
G00X8.2343Y-3.7806
M15
G01X8.8283Y-3.7806
M16
G05
G00X8.7963Y-3.4106
M15
G01X8.7963Y-3.6206
M16
G05
G00X8.7963Y-3.4106
M15
G01X8.8288Y-3.4106
M16
G05
G00X8.7963Y-3.6206
M15
G01X8.8288Y-3.6206
M16
G05
G00X8.8288Y-3.2506
M15
G01X8.8288Y-3.4106
M16
G05
G00X8.8288Y-3.6206
M15
G01X8.8288Y-3.7806
M16
G05
G00X5.9838Y-4.0006
M15
G01X5.9838Y-4.1606
M16
G05
G00X5.9838Y-4.3706
M15
G01X5.9838Y-4.5306
M16
G05
G00X5.9838Y-4.1606
M15
G01X6.0163Y-4.1606
M16
G05
G00X5.9838Y-4.3706
M15
G01X6.0163Y-4.3706
M16
G05
G00X7.5163Y-1.9106
M15
G01X7.5163Y-2.1206
M16
G05
G00X8.9838Y-2.5006
M15
G01X8.9838Y-2.6606
M16
G05
G00X8.9838Y-2.8706
M15
G01X8.9838Y-3.0306
M16
G05
G00X8.9838Y-2.6606
M15
G01X9.0163Y-2.6606
M16
G05
G00X8.9838Y-2.8706
M15
G01X9.0163Y-2.8706
M16
G05
G00X9.0163Y-2.6606
M15
G01X9.0163Y-2.8706
M16
G05
G00X8.9843Y-2.5006
M15
G01X9.5783Y-2.5006
M16
G05
G00X8.9843Y-3.0306
M15
G01X9.5783Y-3.0306
M16
G05
G00X9.5463Y-2.6606
M15
G01X9.5463Y-2.8706
M16
G05
G00X9.5463Y-2.6606
M15
G01X9.5788Y-2.6606
M16
G05
G00X9.5463Y-2.8706
M15
G01X9.5788Y-2.8706
M16
G05
G00X9.5788Y-2.5006
M15
G01X9.5788Y-2.6606
M16
G05
G00X9.5788Y-2.8706
M15
G01X9.5788Y-3.0306
M16
G05
G00X7.4838Y-1.7506
M15
G01X7.4838Y-1.9106
M16
G05
G00X7.4838Y-2.1206
M15
G01X7.4838Y-2.2806
M16
G05
G00X7.4838Y-1.9106
M15
G01X7.5163Y-1.9106
M16
G05
G00X7.4838Y-2.1206
M15
G01X7.5163Y-2.1206
M16
G05
G00X7.4843Y-1.7506
M15
G01X8.0783Y-1.7506
M16
G05
G00X7.4843Y-2.2806
M15
G01X8.0783Y-2.2806
M16
G05
G00X5.9843Y-4.0006
M15
G01X6.5783Y-4.0006
M16
G05
G00X5.9843Y-4.5306
M15
G01X6.5783Y-4.5306
M16
G05
G00X8.0463Y-1.9106
M15
G01X8.0463Y-2.1206
M16
G05
G00X6.0163Y-4.1606
M15
G01X6.0163Y-4.3706
M16
G05
G00X6.5463Y-4.1606
M15
G01X6.5463Y-4.3706
M16
G05
G00X6.5788Y-4.0006
M15
G01X6.5788Y-4.1606
M16
G05
G00X6.5788Y-4.3706
M15
G01X6.5788Y-4.5306
M16
G05
G00X8.0463Y-1.9106
M15
G01X8.0788Y-1.9106
M16
G05
G00X6.5463Y-4.1606
M15
G01X6.5788Y-4.1606
M16
G05
G00X6.5463Y-4.3706
M15
G01X6.5788Y-4.3706
M16
G05
G00X8.0463Y-2.1206
M15
G01X8.0788Y-2.1206
M16
G05
G00X8.0788Y-1.7506
M15
G01X8.0788Y-1.9106
M16
G05
G00X8.0788Y-2.1206
M15
G01X8.0788Y-2.2806
M16
G05
G00X11.9838Y-1.7506
M15
G01X11.9838Y-1.9106
M16
G05
G00X11.9838Y-2.1206
M15
G01X11.9838Y-2.2806
M16
G05
G00X11.9838Y-1.9106
M15
G01X12.0163Y-1.9106
M16
G05
G00X11.9838Y-2.1206
M15
G01X12.0163Y-2.1206
M16
G05
G00X12.0163Y-1.9106
M15
G01X12.0163Y-2.1206
M16
G05
G00X11.9843Y-1.7506
M15
G01X12.5783Y-1.7506
M16
G05
G00X11.9843Y-2.2806
M15
G01X12.5783Y-2.2806
M16
G05
G00X12.5463Y-1.9106
M15
G01X12.5463Y-2.1206
M16
G05
G00X12.5463Y-1.9106
M15
G01X12.5788Y-1.9106
M16
G05
G00X12.5463Y-2.1206
M15
G01X12.5788Y-2.1206
M16
G05
G00X12.5788Y-1.7506
M15
G01X12.5788Y-1.9106
M16
G05
G00X12.5788Y-2.1206
M15
G01X12.5788Y-2.2806
M16
G05
G00X9.7338Y-2.5006
M15
G01X9.7338Y-2.6606
M16
G05
G00X9.7338Y-2.8706
M15
G01X9.7338Y-3.0306
M16
G05
G00X9.7338Y-2.6606
M15
G01X9.7663Y-2.6606
M16
G05
G00X9.7338Y-2.8706
M15
G01X9.7663Y-2.8706
M16
G05
G00X9.7663Y-2.6606
M15
G01X9.7663Y-2.8706
M16
G05
G00X9.7343Y-2.5006
M15
G01X10.3283Y-2.5006
M16
G05
G00X9.7343Y-3.0306
M15
G01X10.3283Y-3.0306
M16
G05
G00X10.2963Y-2.6606
M15
G01X10.2963Y-2.8706
M16
G05
G00X10.2963Y-2.6606
M15
G01X10.3288Y-2.6606
M16
G05
G00X10.2963Y-2.8706
M15
G01X10.3288Y-2.8706
M16
G05
G00X10.3288Y-2.5006
M15
G01X10.3288Y-2.6606
M16
G05
G00X10.3288Y-2.8706
M15
G01X10.3288Y-3.0306
M16
G05
G00X13.4838Y-4.0006
M15
G01X13.4838Y-4.1606
M16
G05
G00X13.4838Y-4.3706
M15
G01X13.4838Y-4.5306
M16
G05
G00X13.4838Y-4.1606
M15
G01X13.5163Y-4.1606
M16
G05
G00X13.4838Y-4.3706
M15
G01X13.5163Y-4.3706
M16
G05
G00X13.5163Y-4.1606
M15
G01X13.5163Y-4.3706
M16
G05
G00X13.4843Y-4.0006
M15
G01X14.0783Y-4.0006
M16
G05
G00X13.4843Y-4.5306
M15
G01X14.0783Y-4.5306
M16
G05
G00X14.0463Y-4.1606
M15
G01X14.0463Y-4.3706
M16
G05
G00X14.0463Y-4.1606
M15
G01X14.0788Y-4.1606
M16
G05
G00X14.0463Y-4.3706
M15
G01X14.0788Y-4.3706
M16
G05
G00X14.0788Y-4.0006
M15
G01X14.0788Y-4.1606
M16
G05
G00X14.0788Y-4.3706
M15
G01X14.0788Y-4.5306
M16
G05
G00X5.9838Y-3.2506
M15
G01X5.9838Y-3.4106
M16
G05
G00X5.9838Y-3.6206
M15
G01X5.9838Y-3.7806
M16
G05
G00X5.9838Y-3.4106
M15
G01X6.0163Y-3.4106
M16
G05
G00X5.9838Y-3.6206
M15
G01X6.0163Y-3.6206
M16
G05
G00X11.2343Y-3.0306
M15
G01X11.8283Y-3.0306
M16
G05
G00X14.4213Y-3.2506
M15
G01X14.4213Y-3.4106
M16
G05
G00X14.4213Y-3.6206
M15
G01X14.4213Y-3.7806
M16
G05
G00X14.4213Y-3.4106
M15
G01X14.4538Y-3.4106
M16
G05
G00X14.4213Y-3.6206
M15
G01X14.4538Y-3.6206
M16
G05
G00X14.4538Y-3.4106
M15
G01X14.4538Y-3.6206
M16
G05
G00X14.4218Y-3.2506
M15
G01X15.0158Y-3.2506
M16
G05
G00X14.4218Y-3.7806
M15
G01X15.0158Y-3.7806
M16
G05
G00X14.9838Y-3.4106
M15
G01X14.9838Y-3.6206
M16
G05
G00X14.9838Y-3.4106
M15
G01X15.0163Y-3.4106
M16
G05
G00X14.9838Y-3.6206
M15
G01X15.0163Y-3.6206
M16
G05
G00X15.0163Y-3.2506
M15
G01X15.0163Y-3.4106
M16
G05
G00X15.0163Y-3.6206
M15
G01X15.0163Y-3.7806
M16
G05
G00X12.7338Y-1.7506
M15
G01X12.7338Y-1.9106
M16
G05
G00X12.7338Y-2.1206
M15
G01X12.7338Y-2.2806
M16
G05
G00X12.7338Y-1.9106
M15
G01X12.7663Y-1.9106
M16
G05
G00X12.7338Y-2.1206
M15
G01X12.7663Y-2.1206
M16
G05
G00X6.5463Y-3.4106
M15
G01X6.5463Y-3.6206
M16
G05
G00X6.0163Y-3.4106
M15
G01X6.0163Y-3.6206
M16
G05
G00X5.9843Y-3.2506
M15
G01X6.5783Y-3.2506
M16
G05
G00X5.9843Y-3.7806
M15
G01X6.5783Y-3.7806
M16
G05
G00X6.5463Y-3.4106
M15
G01X6.5788Y-3.4106
M16
G05
G00X6.5463Y-3.6206
M15
G01X6.5788Y-3.6206
M16
G05
G00X11.7963Y-2.6606
M15
G01X11.8288Y-2.6606
M16
G05
G00X6.734Y-1.7506
M15
G01X6.734Y-1.9106
M16
G05
G00X6.734Y-2.1206
M15
G01X6.734Y-2.2806
M16
G05
G00X6.734Y-1.9106
M15
G01X6.7665Y-1.9106
M16
G05
G00X6.734Y-2.1206
M15
G01X6.7665Y-2.1206
M16
G05
G00X6.7665Y-1.9106
M15
G01X6.7665Y-2.1206
M16
G05
G00X6.7345Y-1.7506
M15
G01X7.3285Y-1.7506
M16
G05
G00X6.7345Y-2.2806
M15
G01X7.3285Y-2.2806
M16
G05
G00X7.2965Y-1.9106
M15
G01X7.2965Y-2.1206
M16
G05
G00X7.329Y-2.1206
M15
G01X7.329Y-2.2806
M16
G05
G00X7.2963Y-2.6606
M15
G01X7.3288Y-2.6606
M16
G05
G00X7.2965Y-1.9106
M15
G01X7.329Y-1.9106
M16
G05
G00X7.2965Y-2.1206
M15
G01X7.329Y-2.1206
M16
G05
G00X7.329Y-1.7506
M15
G01X7.329Y-1.9106
M16
G05
G00X7.2963Y-2.6606
M15
G01X7.2963Y-2.8706
M16
G05
G00X7.2963Y-2.8706
M15
G01X7.3288Y-2.8706
M16
G05
G00X7.3288Y-2.5006
M15
G01X7.3288Y-2.6606
M16
G05
G00X7.3288Y-2.8706
M15
G01X7.3288Y-3.0306
M16
G05
G00X11.2338Y-2.5006
M15
G01X11.2338Y-2.6606
M16
G05
G00X11.2338Y-2.8706
M15
G01X11.2338Y-3.0306
M16
G05
G00X11.2338Y-2.6606
M15
G01X11.2663Y-2.6606
M16
G05
G00X12.7343Y-1.7506
M15
G01X13.3283Y-1.7506
M16
G05
G00X13.3288Y-2.1206
M15
G01X13.3288Y-2.2806
M16
G05
G00X11.2663Y-2.6606
M15
G01X11.2663Y-2.8706
M16
G05
G00X6.5788Y-3.2506
M15
G01X6.5788Y-3.4106
M16
G05
G00X13.2963Y-1.9106
M15
G01X13.2963Y-2.1206
M16
G05
G00X11.7963Y-2.6606
M15
G01X11.7963Y-2.8706
M16
G05
G00X13.3288Y-1.7506
M15
G01X13.3288Y-1.9106
M16
G05
G00X6.5788Y-3.6206
M15
G01X6.5788Y-3.7806
M16
G05
G00X11.7963Y-2.8706
M15
G01X11.8288Y-2.8706
M16
G05
G00X13.2963Y-1.9106
M15
G01X13.3288Y-1.9106
M16
G05
G00X11.8288Y-2.5006
M15
G01X11.8288Y-2.6606
M16
G05
G00X12.7343Y-2.2806
M15
G01X13.3283Y-2.2806
M16
G05
G00X11.2343Y-2.5006
M15
G01X11.8283Y-2.5006
M16
G05
G00X13.2963Y-2.1206
M15
G01X13.3288Y-2.1206
M16
G05
G00X11.2338Y-2.8706
M15
G01X11.2663Y-2.8706
M16
G05
G00X12.7663Y-1.9106
M15
G01X12.7663Y-2.1206
M16
G05
G00X11.8288Y-2.8706
M15
G01X11.8288Y-3.0306
M16
G05
G00X8.2338Y-4.0006
M15
G01X8.2338Y-4.1606
M16
G05
G00X8.2338Y-4.3706
M15
G01X8.2338Y-4.5306
M16
G05
G00X8.2338Y-4.1606
M15
G01X8.2663Y-4.1606
M16
G05
G00X8.2338Y-4.3706
M15
G01X8.2663Y-4.3706
M16
G05
G00X8.2663Y-4.1606
M15
G01X8.2663Y-4.3706
M16
G05
G00X8.2343Y-4.0006
M15
G01X8.8283Y-4.0006
M16
G05
G00X8.2343Y-4.5306
M15
G01X8.8283Y-4.5306
M16
G05
G00X8.7963Y-4.1606
M15
G01X8.7963Y-4.3706
M16
G05
G00X8.7963Y-4.1606
M15
G01X8.8288Y-4.1606
M16
G05
G00X8.7963Y-4.3706
M15
G01X8.8288Y-4.3706
M16
G05
G00X8.8288Y-4.0006
M15
G01X8.8288Y-4.1606
M16
G05
G00X8.8288Y-4.3706
M15
G01X8.8288Y-4.5306
M16
G05
G00X11.2338Y-1.7506
M15
G01X11.2338Y-1.9106
M16
G05
G00X11.2338Y-2.1206
M15
G01X11.2338Y-2.2806
M16
G05
G00X11.2338Y-1.9106
M15
G01X11.2663Y-1.9106
M16
G05
G00X11.2338Y-2.1206
M15
G01X11.2663Y-2.1206
M16
G05
G00X11.2663Y-1.9106
M15
G01X11.2663Y-2.1206
M16
G05
G00X11.2343Y-1.7506
M15
G01X11.8283Y-1.7506
M16
G05
G00X11.2343Y-2.2806
M15
G01X11.8283Y-2.2806
M16
G05
G00X11.7963Y-1.9106
M15
G01X11.7963Y-2.1206
M16
G05
G00X11.7963Y-1.9106
M15
G01X11.8288Y-1.9106
M16
G05
G00X11.7963Y-2.1206
M15
G01X11.8288Y-2.1206
M16
G05
G00X11.8288Y-1.7506
M15
G01X11.8288Y-1.9106
M16
G05
G00X11.8288Y-2.1206
M15
G01X11.8288Y-2.2806
M16
G05
G00X5.2338Y-1.7506
M15
G01X5.2338Y-1.9106
M16
G05
G00X5.7963Y-2.1206
M15
G01X5.8288Y-2.1206
M16
G05
G00X11.2338Y-4.0006
M15
G01X11.2338Y-4.1606
M16
G05
G00X11.2338Y-4.3706
M15
G01X11.2338Y-4.5306
M16
G05
G00X11.2338Y-4.1606
M15
G01X11.2663Y-4.1606
M16
G05
G00X11.2338Y-4.3706
M15
G01X11.2663Y-4.3706
M16
G05
G00X11.2663Y-4.1606
M15
G01X11.2663Y-4.3706
M16
G05
G00X11.2343Y-4.0006
M15
G01X11.8283Y-4.0006
M16
G05
G00X11.2343Y-4.5306
M15
G01X11.8283Y-4.5306
M16
G05
G00X11.7963Y-4.1606
M15
G01X11.7963Y-4.3706
M16
G05
G00X14.9838Y-4.1606
M15
G01X14.9838Y-4.3706
M16
G05
G00X14.4213Y-4.0006
M15
G01X14.4213Y-4.1606
M16
G05
G00X14.4213Y-4.3706
M15
G01X14.4213Y-4.5306
M16
G05
G00X14.4213Y-4.1606
M15
G01X14.4538Y-4.1606
M16
G05
G00X14.4213Y-4.3706
M15
G01X14.4538Y-4.3706
M16
G05
G00X14.4538Y-4.1606
M15
G01X14.4538Y-4.3706
M16
G05
G00X14.4218Y-4.0006
M15
G01X15.0158Y-4.0006
M16
G05
G00X14.4218Y-4.5306
M15
G01X15.0158Y-4.5306
M16
G05
G00X14.9838Y-4.1606
M15
G01X15.0163Y-4.1606
M16
G05
G00X14.9838Y-4.3706
M15
G01X15.0163Y-4.3706
M16
G05
G00X15.0163Y-4.0006
M15
G01X15.0163Y-4.1606
M16
G05
G00X15.0163Y-4.3706
M15
G01X15.0163Y-4.5306
M16
G05
G00X7.4838Y-4.0006
M15
G01X7.4838Y-4.1606
M16
G05
G00X7.4838Y-4.3706
M15
G01X7.4838Y-4.5306
M16
G05
G00X7.4838Y-4.1606
M15
G01X7.5163Y-4.1606
M16
G05
G00X7.4838Y-4.3706
M15
G01X7.5163Y-4.3706
M16
G05
G00X7.5163Y-4.1606
M15
G01X7.5163Y-4.3706
M16
G05
G00X11.7963Y-4.3706
M15
G01X11.8288Y-4.3706
M16
G05
G00X7.4843Y-4.0006
M15
G01X8.0783Y-4.0006
M16
G05
G00X7.4843Y-4.5306
M15
G01X8.0783Y-4.5306
M16
G05
G00X5.8288Y-2.1206
M15
G01X5.8288Y-2.2806
M16
G05
G00X8.0788Y-4.0006
M15
G01X8.0788Y-4.1606
M16
G05
G00X8.0788Y-4.3706
M15
G01X8.0788Y-4.5306
M16
G05
G00X11.7963Y-4.1606
M15
G01X11.8288Y-4.1606
M16
G05
G00X8.0463Y-4.1606
M15
G01X8.0463Y-4.3706
M16
G05
G00X5.8288Y-1.7506
M15
G01X5.8288Y-1.9106
M16
G05
G00X11.8288Y-4.3706
M15
G01X11.8288Y-4.5306
M16
G05
G00X8.0463Y-4.1606
M15
G01X8.0788Y-4.1606
M16
G05
G00X11.8288Y-4.0006
M15
G01X11.8288Y-4.1606
M16
G05
G00X8.0463Y-4.3706
M15
G01X8.0788Y-4.3706
M16
G05
G00X11.2338Y-3.2506
M15
G01X11.2338Y-3.4106
M16
G05
G00X11.2338Y-3.6206
M15
G01X11.2338Y-3.7806
M16
G05
G00X11.2338Y-3.4106
M15
G01X11.2663Y-3.4106
M16
G05
G00X11.2338Y-3.6206
M15
G01X11.2663Y-3.6206
M16
G05
G00X11.2663Y-3.4106
M15
G01X11.2663Y-3.6206
M16
G05
G00X11.2343Y-3.2506
M15
G01X11.8283Y-3.2506
M16
G05
G00X11.2343Y-3.7806
M15
G01X11.8283Y-3.7806
M16
G05
G00X11.7963Y-3.4106
M15
G01X11.7963Y-3.6206
M16
G05
G00X11.7963Y-3.4106
M15
G01X11.8288Y-3.4106
M16
G05
G00X11.7963Y-3.6206
M15
G01X11.8288Y-3.6206
M16
G05
G00X11.8288Y-3.2506
M15
G01X11.8288Y-3.4106
M16
G05
G00X11.8288Y-3.6206
M15
G01X11.8288Y-3.7806
M16
G05
G00X8.9838Y-4.0006
M15
G01X8.9838Y-4.1606
M16
G05
G00X8.9838Y-4.3706
M15
G01X8.9838Y-4.5306
M16
G05
G00X8.9838Y-4.1606
M15
G01X9.0163Y-4.1606
M16
G05
G00X6.7338Y-3.2506
M15
G01X6.7338Y-3.4106
M16
G05
G00X6.7338Y-3.6206
M15
G01X6.7338Y-3.7806
M16
G05
G00X6.7338Y-3.4106
M15
G01X6.7663Y-3.4106
M16
G05
G00X6.7338Y-3.6206
M15
G01X6.7663Y-3.6206
M16
G05
G00X6.7663Y-3.4106
M15
G01X6.7663Y-3.6206
M16
G05
G00X6.7343Y-3.2506
M15
G01X7.3283Y-3.2506
M16
G05
G00X6.7343Y-3.7806
M15
G01X7.3283Y-3.7806
M16
G05
G00X7.2963Y-3.4106
M15
G01X7.2963Y-3.6206
M16
G05
G00X7.2963Y-3.4106
M15
G01X7.3288Y-3.4106
M16
G05
G00X7.2963Y-3.6206
M15
G01X7.3288Y-3.6206
M16
G05
G00X7.3288Y-3.2506
M15
G01X7.3288Y-3.4106
M16
G05
G00X7.3288Y-3.6206
M15
G01X7.3288Y-3.7806
M16
G05
G00X13.4838Y-2.5006
M15
G01X13.4838Y-2.6606
M16
G05
G00X13.4838Y-2.8706
M15
G01X13.4838Y-3.0306
M16
G05
G00X13.4838Y-2.6606
M15
G01X13.5163Y-2.6606
M16
G05
G00X13.4838Y-2.8706
M15
G01X13.5163Y-2.8706
M16
G05
G00X13.5163Y-2.6606
M15
G01X13.5163Y-2.8706
M16
G05
G00X13.4843Y-2.5006
M15
G01X14.0783Y-2.5006
M16
G05
G00X13.4843Y-3.0306
M15
G01X14.0783Y-3.0306
M16
G05
G00X14.0463Y-2.6606
M15
G01X14.0463Y-2.8706
M16
G05
G00X14.0463Y-2.6606
M15
G01X14.0788Y-2.6606
M16
G05
G00X14.0463Y-2.8706
M15
G01X14.0788Y-2.8706
M16
G05
G00X8.9838Y-4.3706
M15
G01X9.0163Y-4.3706
M16
G05
G00X9.0163Y-4.1606
M15
G01X9.0163Y-4.3706
M16
G05
G00X9.5463Y-4.1606
M15
G01X9.5463Y-4.3706
M16
G05
G00X9.5463Y-4.1606
M15
G01X9.5788Y-4.1606
M16
G05
G00X9.5463Y-4.3706
M15
G01X9.5788Y-4.3706
M16
G05
G00X14.0788Y-2.8706
M15
G01X14.0788Y-3.0306
M16
G05
G00X8.9843Y-4.0006
M15
G01X9.5783Y-4.0006
M16
G05
G00X8.9843Y-4.5306
M15
G01X9.5783Y-4.5306
M16
G05
G00X9.5788Y-4.0006
M15
G01X9.5788Y-4.1606
M16
G05
G00X9.5788Y-4.3706
M15
G01X9.5788Y-4.5306
M16
G05
G00X14.0788Y-2.5006
M15
G01X14.0788Y-2.6606
M16
G05
G00X5.9838Y-2.5006
M15
G01X5.9838Y-2.6606
M16
G05
G00X5.9838Y-2.8706
M15
G01X5.9838Y-3.0306
M16
G05
G00X5.9838Y-2.6606
M15
G01X6.0163Y-2.6606
M16
G05
G00X5.9838Y-2.8706
M15
G01X6.0163Y-2.8706
M16
G05
G00X6.0163Y-2.6606
M15
G01X6.0163Y-2.8706
M16
G05
G00X5.9843Y-2.5006
M15
G01X6.5783Y-2.5006
M16
G05
G00X5.9843Y-3.0306
M15
G01X6.5783Y-3.0306
M16
G05
G00X6.5463Y-2.6606
M15
G01X6.5463Y-2.8706
M16
G05
G00X6.5463Y-2.6606
M15
G01X6.5788Y-2.6606
M16
G05
G00X6.5463Y-2.8706
M15
G01X6.5788Y-2.8706
M16
G05
G00X6.5788Y-2.5006
M15
G01X6.5788Y-2.6606
M16
G05
G00X6.5788Y-2.8706
M15
G01X6.5788Y-3.0306
M16
G05
G00X10.4838Y-2.5006
M15
G01X10.4838Y-2.6606
M16
G05
G00X10.4838Y-2.8706
M15
G01X10.4838Y-3.0306
M16
G05
G00X10.4838Y-2.6606
M15
G01X10.5163Y-2.6606
M16
G05
G00X10.4838Y-2.8706
M15
G01X10.5163Y-2.8706
M16
G05
G00X6.734Y-4.0006
M15
G01X6.734Y-4.1606
M16
G05
G00X6.734Y-4.3706
M15
G01X6.734Y-4.5306
M16
G05
G00X6.734Y-4.1606
M15
G01X6.7665Y-4.1606
M16
G05
G00X6.734Y-4.3706
M15
G01X6.7665Y-4.3706
M16
G05
G00X6.7665Y-4.1606
M15
G01X6.7665Y-4.3706
M16
G05
G00X6.7345Y-4.0006
M15
G01X7.3285Y-4.0006
M16
G05
G00X6.7345Y-4.5306
M15
G01X7.3285Y-4.5306
M16
G05
G00X7.2965Y-4.1606
M15
G01X7.2965Y-4.3706
M16
G05
G00X7.2965Y-4.1606
M15
G01X7.329Y-4.1606
M16
G05
G00X7.2965Y-4.3706
M15
G01X7.329Y-4.3706
M16
G05
G00X7.329Y-4.0006
M15
G01X7.329Y-4.1606
M16
G05
G00X7.329Y-4.3706
M15
G01X7.329Y-4.5306
M16
G05
G00X9.7338Y-3.2506
M15
G01X9.7338Y-3.4106
M16
G05
G00X9.7338Y-3.6206
M15
G01X9.7338Y-3.7806
M16
G05
G00X9.7338Y-3.4106
M15
G01X9.7663Y-3.4106
M16
G05
G00X9.7338Y-3.6206
M15
G01X9.7663Y-3.6206
M16
G05
G00X9.7663Y-3.4106
M15
G01X9.7663Y-3.6206
M16
G05
G00X9.7343Y-3.2506
M15
G01X10.3283Y-3.2506
M16
G05
G00X10.4838Y-4.0006
M15
G01X10.4838Y-4.1606
M16
G05
G00X10.4838Y-3.2506
M15
G01X10.4838Y-3.4106
M16
G05
G00X10.4838Y-3.6206
M15
G01X10.4838Y-3.7806
M16
G05
G00X10.4838Y-3.4106
M15
G01X10.5163Y-3.4106
M16
G05
G00X10.4838Y-3.6206
M15
G01X10.5163Y-3.6206
M16
G05
G00X10.5163Y-3.4106
M15
G01X10.5163Y-3.6206
M16
G05
G00X10.4843Y-3.2506
M15
G01X11.0783Y-3.2506
M16
G05
G00X10.4843Y-3.7806
M15
G01X11.0783Y-3.7806
M16
G05
G00X11.0463Y-3.4106
M15
G01X11.0463Y-3.6206
M16
G05
G00X11.0463Y-3.4106
M15
G01X11.0788Y-3.4106
M16
G05
G00X11.0463Y-3.6206
M15
G01X11.0788Y-3.6206
M16
G05
G00X11.0788Y-3.2506
M15
G01X11.0788Y-3.4106
M16
G05
G00X11.0788Y-3.6206
M15
G01X11.0788Y-3.7806
M16
G05
G00X11.9838Y-4.0006
M15
G01X11.9838Y-4.1606
M16
G05
G00X11.9838Y-4.3706
M15
G01X11.9838Y-4.5306
M16
G05
G00X11.9838Y-4.1606
M15
G01X12.0163Y-4.1606
M16
G05
G00X11.9838Y-4.3706
M15
G01X12.0163Y-4.3706
M16
G05
G00X12.0163Y-4.1606
M15
G01X12.0163Y-4.3706
M16
G05
G00X11.9843Y-4.0006
M15
G01X12.5783Y-4.0006
M16
G05
G00X11.9843Y-4.5306
M15
G01X12.5783Y-4.5306
M16
G05
G00X12.5463Y-4.1606
M15
G01X12.5463Y-4.3706
M16
G05
G00X12.5463Y-4.1606
M15
G01X12.5788Y-4.1606
M16
G05
G00X12.5463Y-4.3706
M15
G01X12.5788Y-4.3706
M16
G05
G00X12.5788Y-4.0006
M15
G01X12.5788Y-4.1606
M16
G05
G00X12.5788Y-4.3706
M15
G01X12.5788Y-4.5306
M16
G05
G00X10.4838Y-4.3706
M15
G01X10.4838Y-4.5306
M16
G05
G00X10.4838Y-4.1606
M15
G01X10.5163Y-4.1606
M16
G05
G00X10.4838Y-4.3706
M15
G01X10.5163Y-4.3706
M16
G05
G00X10.5163Y-4.1606
M15
G01X10.5163Y-4.3706
M16
G05
G00X10.4843Y-4.0006
M15
G01X11.0783Y-4.0006
M16
G05
G00X10.4843Y-4.5306
M15
G01X11.0783Y-4.5306
M16
G05
G00X11.0463Y-4.1606
M15
G01X11.0463Y-4.3706
M16
G05
G00X11.0463Y-4.1606
M15
G01X11.0788Y-4.1606
M16
G05
G00X11.0463Y-4.3706
M15
G01X11.0788Y-4.3706
M16
G05
G00X11.0463Y-2.8706
M15
G01X11.0788Y-2.8706
M16
G05
G00X9.7343Y-3.7806
M15
G01X10.3283Y-3.7806
M16
G05
G00X10.2963Y-3.4106
M15
G01X10.2963Y-3.6206
M16
G05
G00X10.2963Y-3.4106
M15
G01X10.3288Y-3.4106
M16
G05
G00X10.2963Y-3.6206
M15
G01X10.3288Y-3.6206
M16
G05
G00X10.3288Y-3.2506
M15
G01X10.3288Y-3.4106
M16
G05
G00X10.3288Y-3.6206
M15
G01X10.3288Y-3.7806
M16
G05
G00X5.2338Y-4.0006
M15
G01X5.2338Y-4.1606
M16
G05
G00X5.2338Y-4.3706
M15
G01X5.2338Y-4.5306
M16
G05
G00X5.2338Y-4.1606
M15
G01X5.2663Y-4.1606
M16
G05
G00X5.2338Y-4.3706
M15
G01X5.2663Y-4.3706
M16
G05
G00X5.2663Y-4.1606
M15
G01X5.2663Y-4.3706
M16
G05
G00X5.2343Y-4.0006
M15
G01X5.8283Y-4.0006
M16
G05
G00X11.0463Y-2.6606
M15
G01X11.0788Y-2.6606
M16
G05
G00X5.2343Y-4.5306
M15
G01X5.8283Y-4.5306
M16
G05
G00X10.5163Y-2.6606
M15
G01X10.5163Y-2.8706
M16
G05
G00X8.2338Y-2.5006
M15
G01X8.2338Y-2.6606
M16
G05
G00X5.7963Y-4.1606
M15
G01X5.8288Y-4.1606
M16
G05
G00X11.0463Y-2.6606
M15
G01X11.0463Y-2.8706
M16
G05
G00X11.0788Y-2.8706
M15
G01X11.0788Y-3.0306
M16
G05
G00X5.8288Y-4.0006
M15
G01X5.8288Y-4.1606
M16
G05
G00X11.0788Y-2.5006
M15
G01X11.0788Y-2.6606
M16
G05
G00X5.7963Y-4.3706
M15
G01X5.8288Y-4.3706
M16
G05
G00X10.4843Y-3.0306
M15
G01X11.0783Y-3.0306
M16
G05
G00X5.7963Y-4.1606
M15
G01X5.7963Y-4.3706
M16
G05
G00X8.2343Y-2.5006
M15
G01X8.8283Y-2.5006
M16
G05
G00X8.2343Y-3.0306
M15
G01X8.8283Y-3.0306
M16
G05
G00X8.7963Y-2.8706
M15
G01X8.8288Y-2.8706
M16
G05
G00X5.8288Y-4.3706
M15
G01X5.8288Y-4.5306
M16
G05
G00X10.4843Y-2.5006
M15
G01X11.0783Y-2.5006
M16
G05
G00X8.2338Y-2.8706
M15
G01X8.2338Y-3.0306
M16
G05
G00X8.2338Y-2.6606
M15
G01X8.2663Y-2.6606
M16
G05
G00X8.2338Y-2.8706
M15
G01X8.2663Y-2.8706
M16
G05
G00X8.2663Y-2.6606
M15
G01X8.2663Y-2.8706
M16
G05
G00X8.7963Y-2.6606
M15
G01X8.7963Y-2.8706
M16
G05
G00X8.7963Y-2.6606
M15
G01X8.8288Y-2.6606
M16
G05
G00X8.8288Y-2.5006
M15
G01X8.8288Y-2.6606
M16
G05
G00X8.8288Y-2.8706
M15
G01X8.8288Y-3.0306
M16
G05
G00X14.4213Y-1.7506
M15
G01X14.4213Y-1.9106
M16
G05
G00X14.4213Y-2.1206
M15
G01X14.4213Y-2.2806
M16
G05
G00X14.4213Y-1.9106
M15
G01X14.4538Y-1.9106
M16
G05
G00X14.4213Y-2.1206
M15
G01X14.4538Y-2.1206
M16
G05
G00X14.4538Y-1.9106
M15
G01X14.4538Y-2.1206
M16
G05
G00X14.4218Y-1.7506
M15
G01X15.0158Y-1.7506
M16
G05
G00X14.4218Y-2.2806
M15
G01X15.0158Y-2.2806
M16
G05
G00X14.9838Y-1.9106
M15
G01X14.9838Y-2.1206
M16
G05
G00X14.9838Y-1.9106
M15
G01X15.0163Y-1.9106
M16
G05
G00X14.9838Y-2.1206
M15
G01X15.0163Y-2.1206
M16
G05
G00X15.0163Y-1.7506
M15
G01X15.0163Y-1.9106
M16
G05
G00X15.0163Y-2.1206
M15
G01X15.0163Y-2.2806
M16
G05
G00X11.0788Y-4.0006
M15
G01X11.0788Y-4.1606
M16
G05
G00X11.0788Y-4.3706
M15
G01X11.0788Y-4.5306
M16
G05
G00X7.4838Y-3.2506
M15
G01X7.4838Y-3.4106
M16
G05
G00X7.4838Y-3.6206
M15
G01X7.4838Y-3.7806
M16
G05
G00X7.4838Y-3.4106
M15
G01X7.5163Y-3.4106
M16
G05
G00X7.4838Y-3.6206
M15
G01X7.5163Y-3.6206
M16
G05
G00X7.5163Y-3.4106
M15
G01X7.5163Y-3.6206
M16
G05
G00X7.4843Y-3.2506
M15
G01X8.0783Y-3.2506
M16
G05
G00X7.4843Y-3.7806
M15
G01X8.0783Y-3.7806
M16
G05
G00X8.0463Y-3.4106
M15
G01X8.0463Y-3.6206
M16
G05
G00X8.0463Y-3.4106
M15
G01X8.0788Y-3.4106
M16
G05
G00X8.0463Y-3.6206
M15
G01X8.0788Y-3.6206
M16
G05
G00X9.0163Y-1.9106
M15
G01X9.0163Y-2.1206
M16
G05
G00X8.9838Y-1.7506
M15
G01X8.9838Y-1.9106
M16
G05
G00X8.9838Y-2.1206
M15
G01X8.9838Y-2.2806
M16
G05
G00X8.9838Y-1.9106
M15
G01X9.0163Y-1.9106
M16
G05
G00X8.9838Y-2.1206
M15
G01X9.0163Y-2.1206
M16
G05
G00X8.9843Y-1.7506
M15
G01X9.5783Y-1.7506
M16
G05
G00X8.9843Y-2.2806
M15
G01X9.5783Y-2.2806
M16
G05
G00X9.5463Y-1.9106
M15
G01X9.5463Y-2.1206
M16
G05
G00X9.5463Y-1.9106
M15
G01X9.5788Y-1.9106
M16
G05
G00X9.5463Y-2.1206
M15
G01X9.5788Y-2.1206
M16
G05
G00X9.5788Y-1.7506
M15
G01X9.5788Y-1.9106
M16
G05
G00X9.5788Y-2.1206
M15
G01X9.5788Y-2.2806
M16
G05
G00X10.4838Y-1.7506
M15
G01X10.4838Y-1.9106
M16
G05
G00X10.4838Y-2.1206
M15
G01X10.4838Y-2.2806
M16
G05
G00X10.4838Y-1.9106
M15
G01X10.5163Y-1.9106
M16
G05
G00X10.4838Y-2.1206
M15
G01X10.5163Y-2.1206
M16
G05
G00X10.5163Y-1.9106
M15
G01X10.5163Y-2.1206
M16
G05
G00X10.4843Y-1.7506
M15
G01X11.0783Y-1.7506
M16
G05
G00X11.0463Y-1.9106
M15
G01X11.0463Y-2.1206
M16
G05
G00X11.0463Y-1.9106
M15
G01X11.0788Y-1.9106
M16
G05
G00X11.0788Y-1.7506
M15
G01X11.0788Y-1.9106
M16
G05
G00X11.0788Y-2.1206
M15
G01X11.0788Y-2.2806
M16
G05
G00X13.4838Y-1.7506
M15
G01X13.4838Y-1.9106
M16
G05
G00X10.4843Y-2.2806
M15
G01X11.0783Y-2.2806
M16
G05
G00X11.0463Y-2.1206
M15
G01X11.0788Y-2.1206
M16
G05
G00X13.4838Y-2.1206
M15
G01X13.4838Y-2.2806
M16
G05
G00X13.4838Y-1.9106
M15
G01X13.5163Y-1.9106
M16
G05
G00X13.4838Y-2.1206
M15
G01X13.5163Y-2.1206
M16
G05
G00X13.5163Y-1.9106
M15
G01X13.5163Y-2.1206
M16
G05
G00X13.4843Y-1.7506
M15
G01X14.0783Y-1.7506
M16
G05
G00X13.4843Y-2.2806
M15
G01X14.0783Y-2.2806
M16
G05
G00X14.0463Y-1.9106
M15
G01X14.0463Y-2.1206
M16
G05
G00X14.0463Y-1.9106
M15
G01X14.0788Y-1.9106
M16
G05
G00X14.0463Y-2.1206
M15
G01X14.0788Y-2.1206
M16
G05
G00X14.0788Y-1.7506
M15
G01X14.0788Y-1.9106
M16
G05
G00X14.0788Y-2.1206
M15
G01X14.0788Y-2.2806
M16
G05
G00X11.9838Y-3.2506
M15
G01X11.9838Y-3.4106
M16
G05
G00X11.9838Y-3.6206
M15
G01X11.9838Y-3.7806
M16
G05
G00X11.9838Y-3.4106
M15
G01X12.0163Y-3.4106
M16
G05
G00X11.9838Y-3.6206
M15
G01X12.0163Y-3.6206
M16
G05
G00X12.0163Y-3.4106
M15
G01X12.0163Y-3.6206
M16
G05
G00X11.9843Y-3.2506
M15
G01X12.5783Y-3.2506
M16
G05
G00X11.9843Y-3.7806
M15
G01X12.5783Y-3.7806
M16
G05
G00X12.5463Y-3.4106
M15
G01X12.5463Y-3.6206
M16
G05
G00X12.5463Y-3.4106
M15
G01X12.5788Y-3.4106
M16
G05
G00X12.5463Y-3.6206
M15
G01X12.5788Y-3.6206
M16
G05
G00X12.5788Y-3.2506
M15
G01X12.5788Y-3.4106
M16
G05
G00X12.5788Y-3.6206
M15
G01X12.5788Y-3.7806
M16
G05
G00X8.9838Y-3.2506
M15
G01X8.9838Y-3.4106
M16
G05
G00X8.9838Y-3.6206
M15
G01X8.9838Y-3.7806
M16
G05
G00X8.9838Y-3.4106
M15
G01X9.0163Y-3.4106
M16
G05
G00X8.9838Y-3.6206
M15
G01X9.0163Y-3.6206
M16
G05
G00X9.0163Y-3.4106
M15
G01X9.0163Y-3.6206
M16
G05
G00X8.9843Y-3.2506
M15
G01X9.5783Y-3.2506
M16
G05
G00X8.9843Y-3.7806
M15
G01X9.5783Y-3.7806
M16
G05
G00X9.5463Y-3.4106
M15
G01X9.5463Y-3.6206
M16
G05
G00X9.5463Y-3.4106
M15
G01X9.5788Y-3.4106
M16
G05
G00X9.5463Y-3.6206
M15
G01X9.5788Y-3.6206
M16
G05
G00X9.5788Y-3.2506
M15
G01X9.5788Y-3.4106
M16
G05
G00X9.5788Y-3.6206
M15
G01X9.5788Y-3.7806
M16
G05
G00X12.7338Y-4.0006
M15
G01X12.7338Y-4.1606
M16
G05
G00X12.7338Y-4.3706
M15
G01X12.7338Y-4.5306
M16
G05
G00X12.7663Y-4.1606
M15
G01X12.7663Y-4.3706
M16
G05
G00X12.7343Y-4.0006
M15
G01X13.3283Y-4.0006
M16
G05
G00X12.7343Y-4.5306
M15
G01X13.3283Y-4.5306
M16
G05
G00X13.2963Y-4.1606
M15
G01X13.2963Y-4.3706
M16
G05
G00X13.3288Y-4.0006
M15
G01X13.3288Y-4.1606
M16
G05
G00X13.3288Y-4.3706
M15
G01X13.3288Y-4.5306
M16
G05
G00X8.0788Y-3.2506
M15
G01X8.0788Y-3.4106
M16
G05
G00X8.0788Y-3.6206
M15
G01X8.0788Y-3.7806
M16
G05
G00X8.2338Y-1.7506
M15
G01X8.2338Y-1.9106
M16
G05
G00X8.2338Y-2.1206
M15
G01X8.2338Y-2.2806
M16
G05
G00X8.2338Y-1.9106
M15
G01X8.2663Y-1.9106
M16
G05
G00X8.2338Y-2.1206
M15
G01X8.2663Y-2.1206
M16
G05
G00X8.2663Y-1.9106
M15
G01X8.2663Y-2.1206
M16
G05
G00X8.2343Y-2.2806
M15
G01X8.8283Y-2.2806
M16
G05
G00X8.7963Y-1.9106
M15
G01X8.7963Y-2.1206
M16
G05
G00X8.7963Y-1.9106
M15
G01X8.8288Y-1.9106
M16
G05
G00X8.7963Y-2.1206
M15
G01X8.8288Y-2.1206
M16
G05
G00X8.8288Y-1.7506
M15
G01X8.8288Y-1.9106
M16
G05
G00X8.8288Y-2.1206
M15
G01X8.8288Y-2.2806
M16
G05
G00X12.7338Y-4.3706
M15
G01X12.7663Y-4.3706
M16
G05
G00X13.2963Y-4.3706
M15
G01X13.3288Y-4.3706
M16
G05
G00X8.2343Y-1.7506
M15
G01X8.8283Y-1.7506
M16
G05
G00X12.7338Y-4.1606
M15
G01X12.7663Y-4.1606
M16
G05
G00X13.2963Y-4.1606
M15
G01X13.3288Y-4.1606
M16
G05
T3
G00X8.4563Y-3.9906
M15
G01X8.6063Y-3.9906
M16
G05
G00X8.4563Y-4.5406
M15
G01X8.6063Y-4.5406
M16
G05
G00X11.4563Y-1.7406
M15
G01X11.6063Y-1.7406
M16
G05
G00X6.2063Y-2.2906
M15
G01X6.3563Y-2.2906
M16
G05
G00X7.7063Y-3.9906
M15
G01X7.8563Y-3.9906
M16
G05
G00X7.7063Y-4.5406
M15
G01X7.8563Y-4.5406
M16
G05
G00X5.4563Y-2.2906
M15
G01X5.6063Y-2.2906
M16
G05
G00X14.6438Y-3.9906
M15
G01X14.7938Y-3.9906
M16
G05
G00X14.6438Y-4.5406
M15
G01X14.7938Y-4.5406
M16
G05
G00X5.4563Y-1.7406
M15
G01X5.6063Y-1.7406
M16
G05
G00X11.4563Y-3.9906
M15
G01X11.6063Y-3.9906
M16
G05
G00X11.4563Y-4.5406
M15
G01X11.6063Y-4.5406
M16
G05
G00X11.4563Y-2.2906
M15
G01X11.6063Y-2.2906
M16
G05
G00X9.9563Y-1.7406
M15
G01X10.1063Y-1.7406
M16
G05
G00X9.9563Y-2.2906
M15
G01X10.1063Y-2.2906
M16
G05
G00X6.2063Y-1.7406
M15
G01X6.3563Y-1.7406
M16
G05
G00X10.7063Y-4.5406
M15
G01X10.8563Y-4.5406
M16
G05
G00X11.4563Y-3.2406
M15
G01X11.6063Y-3.2406
M16
G05
G00X6.9563Y-3.2406
M15
G01X7.1063Y-3.2406
M16
G05
G00X13.7063Y-3.0406
M15
G01X13.8563Y-3.0406
M16
G05
G00X10.7063Y-3.9906
M15
G01X10.8563Y-3.9906
M16
G05
G00X6.2063Y-2.4906
M15
G01X6.3563Y-2.4906
M16
G05
G00X6.2063Y-3.0406
M15
G01X6.3563Y-3.0406
M16
G05
G00X10.7063Y-3.2406
M15
G01X10.8563Y-3.2406
M16
G05
G00X10.7063Y-3.7906
M15
G01X10.8563Y-3.7906
M16
G05
G00X9.9563Y-3.2406
M15
G01X10.1063Y-3.2406
M16
G05
G00X9.9563Y-3.7906
M15
G01X10.1063Y-3.7906
M16
G05
G00X9.2063Y-3.9906
M15
G01X9.3563Y-3.9906
M16
G05
G00X9.2063Y-4.5406
M15
G01X9.3563Y-4.5406
M16
G05
G00X6.9563Y-3.7906
M15
G01X7.1063Y-3.7906
M16
G05
G00X5.4563Y-3.9906
M15
G01X5.6063Y-3.9906
M16
G05
G00X5.4563Y-4.5406
M15
G01X5.6063Y-4.5406
M16
G05
G00X10.7063Y-2.4906
M15
G01X10.8563Y-2.4906
M16
G05
G00X10.7063Y-3.0406
M15
G01X10.8563Y-3.0406
M16
G05
G00X6.9565Y-3.9906
M15
G01X7.1065Y-3.9906
M16
G05
G00X6.9565Y-4.5406
M15
G01X7.1065Y-4.5406
M16
G05
G00X13.7063Y-2.4906
M15
G01X13.8563Y-2.4906
M16
G05
G00X12.2063Y-4.5406
M15
G01X12.3563Y-4.5406
M16
G05
G00X8.4563Y-2.4906
M15
G01X8.6063Y-2.4906
M16
G05
G00X8.4563Y-3.0406
M15
G01X8.6063Y-3.0406
M16
G05
G00X12.2063Y-3.9906
M15
G01X12.3563Y-3.9906
M16
G05
G00X11.4563Y-3.7906
M15
G01X11.6063Y-3.7906
M16
G05
G00X14.6438Y-1.7406
M15
G01X14.7938Y-1.7406
M16
G05
G00X14.6438Y-2.2906
M15
G01X14.7938Y-2.2906
M16
G05
G00X7.7063Y-3.2406
M15
G01X7.8563Y-3.2406
M16
G05
G00X7.7063Y-3.7906
M15
G01X7.8563Y-3.7906
M16
G05
G00X5.4563Y-3.2406
M15
G01X5.6063Y-3.2406
M16
G05
G00X12.9563Y-3.9906
M15
G01X13.1063Y-3.9906
M16
G05
G00X12.9563Y-4.5406
M15
G01X13.1063Y-4.5406
M16
G05
G00X8.4563Y-1.7406
M15
G01X8.6063Y-1.7406
M16
G05
G00X8.4563Y-2.2906
M15
G01X8.6063Y-2.2906
M16
G05
G00X10.7063Y-1.7406
M15
G01X10.8563Y-1.7406
M16
G05
G00X10.7063Y-2.2906
M15
G01X10.8563Y-2.2906
M16
G05
G00X7.7063Y-2.4906
M15
G01X7.8563Y-2.4906
M16
G05
G00X7.7063Y-3.0406
M15
G01X7.8563Y-3.0406
M16
G05
G00X13.7063Y-1.7406
M15
G01X13.8563Y-1.7406
M16
G05
G00X13.7063Y-2.2906
M15
G01X13.8563Y-2.2906
M16
G05
G00X9.2063Y-1.7406
M15
G01X9.3563Y-1.7406
M16
G05
G00X9.2063Y-2.2906
M15
G01X9.3563Y-2.2906
M16
G05
G00X5.4563Y-3.7906
M15
G01X5.6063Y-3.7906
M16
G05
G00X12.2063Y-3.2406
M15
G01X12.3563Y-3.2406
M16
G05
G00X12.2063Y-3.7906
M15
G01X12.3563Y-3.7906
M16
G05
G00X9.2063Y-3.2406
M15
G01X9.3563Y-3.2406
M16
G05
G00X9.2063Y-3.7906
M15
G01X9.3563Y-3.7906
M16
G05
G00X14.6438Y-2.4906
M15
G01X14.7938Y-2.4906
M16
G05
G00X14.6438Y-3.0406
M15
G01X14.7938Y-3.0406
M16
G05
G00X12.2063Y-2.4906
M15
G01X12.3563Y-2.4906
M16
G05
G00X12.2063Y-3.0406
M15
G01X12.3563Y-3.0406
M16
G05
G00X9.2063Y-2.4906
M15
G01X9.3563Y-2.4906
M16
G05
G00X13.7063Y-3.2406
M15
G01X13.8563Y-3.2406
M16
G05
G00X9.9563Y-3.9906
M15
G01X10.1063Y-3.9906
M16
G05
G00X9.9563Y-4.5406
M15
G01X10.1063Y-4.5406
M16
G05
G00X13.7063Y-3.7906
M15
G01X13.8563Y-3.7906
M16
G05
G00X5.4563Y-2.4906
M15
G01X5.6063Y-2.4906
M16
G05
G00X9.2063Y-3.0406
M15
G01X9.3563Y-3.0406
M16
G05
G00X6.2063Y-3.2406
M15
G01X6.3563Y-3.2406
M16
G05
G00X14.6438Y-3.2406
M15
G01X14.7938Y-3.2406
M16
G05
G00X14.6438Y-3.7906
M15
G01X14.7938Y-3.7906
M16
G05
G00X5.4563Y-3.0406
M15
G01X5.6063Y-3.0406
M16
G05
G00X12.9563Y-3.2406
M15
G01X13.1063Y-3.2406
M16
G05
G00X12.9563Y-3.7906
M15
G01X13.1063Y-3.7906
M16
G05
G00X6.9563Y-2.4906
M15
G01X7.1063Y-2.4906
M16
G05
G00X6.9565Y-2.2906
M15
G01X7.1065Y-2.2906
M16
G05
G00X11.4563Y-2.4906
M15
G01X11.6063Y-2.4906
M16
G05
G00X11.4563Y-3.0406
M15
G01X11.6063Y-3.0406
M16
G05
G00X13.7063Y-3.9906
M15
G01X13.8563Y-3.9906
M16
G05
G00X13.7063Y-4.5406
M15
G01X13.8563Y-4.5406
M16
G05
G00X6.2063Y-3.7906
M15
G01X6.3563Y-3.7906
M16
G05
G00X6.9563Y-3.0406
M15
G01X7.1063Y-3.0406
M16
G05
G00X8.4563Y-3.2406
M15
G01X8.6063Y-3.2406
M16
G05
G00X8.4563Y-3.7906
M15
G01X8.6063Y-3.7906
M16
G05
G00X7.7063Y-1.7406
M15
G01X7.8563Y-1.7406
M16
G05
G00X7.7063Y-2.2906
M15
G01X7.8563Y-2.2906
M16
G05
G00X12.9563Y-2.4906
M15
G01X13.1063Y-2.4906
M16
G05
G00X12.9563Y-3.0406
M15
G01X13.1063Y-3.0406
M16
G05
G00X12.9563Y-1.7406
M15
G01X13.1063Y-1.7406
M16
G05
G00X6.2063Y-3.9906
M15
G01X6.3563Y-3.9906
M16
G05
G00X6.2063Y-4.5406
M15
G01X6.3563Y-4.5406
M16
G05
G00X12.9563Y-2.2906
M15
G01X13.1063Y-2.2906
M16
G05
G00X12.2063Y-1.7406
M15
G01X12.3563Y-1.7406
M16
G05
G00X12.2063Y-2.2906
M15
G01X12.3563Y-2.2906
M16
G05
G00X9.9563Y-2.4906
M15
G01X10.1063Y-2.4906
M16
G05
G00X9.9563Y-3.0406
M15
G01X10.1063Y-3.0406
M16
G05
G00X6.9565Y-1.7406
M15
G01X7.1065Y-1.7406
M16
G05
T0
M30
