G04 #@! TF.GenerationSoftware,KiCad,Pcbnew,(5.1.4-0)*
G04 #@! TF.CreationDate,2021-07-31T12:50:46-05:00*
G04 #@! TF.ProjectId,ori_top_plate,6f72695f-746f-4705-9f70-6c6174652e6b,rev?*
G04 #@! TF.SameCoordinates,Original*
G04 #@! TF.FileFunction,Legend,Bot*
G04 #@! TF.FilePolarity,Positive*
%FSLAX46Y46*%
G04 Gerber Fmt 4.6, Leading zero omitted, Abs format (unit mm)*
G04 Created by KiCad (PCBNEW (5.1.4-0)) date 2021-07-31 12:50:46*
%MOMM*%
%LPD*%
G04 APERTURE LIST*
%ADD10C,0.200000*%
%ADD11C,0.150000*%
%ADD12C,0.902000*%
%ADD13O,15.697600X0.610000*%
%ADD14O,0.610000X4.674000*%
%ADD15O,0.610000X5.944000*%
%ADD16O,5.182000X1.372000*%
%ADD17O,1.435500X0.610000*%
%ADD18C,0.100000*%
%ADD19C,1.052000*%
%ADD20C,4.602000*%
G04 APERTURE END LIST*
D10*
X256662637Y-60400701D02*
X256662637Y-61614987D01*
X256734065Y-61757844D01*
X256805494Y-61829272D01*
X256948351Y-61900701D01*
X257162637Y-61900701D01*
X257305494Y-61829272D01*
X256662637Y-61329272D02*
X256805494Y-61400701D01*
X257091208Y-61400701D01*
X257234065Y-61329272D01*
X257305494Y-61257844D01*
X257376922Y-61114987D01*
X257376922Y-60686415D01*
X257305494Y-60543558D01*
X257234065Y-60472130D01*
X257091208Y-60400701D01*
X256805494Y-60400701D01*
X256662637Y-60472130D01*
X255948351Y-61400701D02*
X255948351Y-60400701D01*
X255948351Y-59900701D02*
X256019780Y-59972130D01*
X255948351Y-60043558D01*
X255876922Y-59972130D01*
X255948351Y-59900701D01*
X255948351Y-60043558D01*
X255448351Y-60400701D02*
X254876922Y-60400701D01*
X255234065Y-59900701D02*
X255234065Y-61186415D01*
X255162637Y-61329272D01*
X255019780Y-61400701D01*
X254876922Y-61400701D01*
X254376922Y-61400701D02*
X254376922Y-59900701D01*
X253734065Y-61400701D02*
X253734065Y-60614987D01*
X253805494Y-60472130D01*
X253948351Y-60400701D01*
X254162637Y-60400701D01*
X254305494Y-60472130D01*
X254376922Y-60543558D01*
X252376922Y-60400701D02*
X252376922Y-61400701D01*
X253019780Y-60400701D02*
X253019780Y-61186415D01*
X252948351Y-61329272D01*
X252805494Y-61400701D01*
X252591208Y-61400701D01*
X252448351Y-61329272D01*
X252376922Y-61257844D01*
X251662637Y-61400701D02*
X251662637Y-59900701D01*
X251662637Y-60472130D02*
X251519780Y-60400701D01*
X251234065Y-60400701D01*
X251091208Y-60472130D01*
X251019780Y-60543558D01*
X250948351Y-60686415D01*
X250948351Y-61114987D01*
X251019780Y-61257844D01*
X251091208Y-61329272D01*
X251234065Y-61400701D01*
X251519780Y-61400701D01*
X251662637Y-61329272D01*
X250305494Y-61257844D02*
X250234065Y-61329272D01*
X250305494Y-61400701D01*
X250376922Y-61329272D01*
X250305494Y-61257844D01*
X250305494Y-61400701D01*
X248948351Y-61329272D02*
X249091208Y-61400701D01*
X249376922Y-61400701D01*
X249519780Y-61329272D01*
X249591208Y-61257844D01*
X249662637Y-61114987D01*
X249662637Y-60686415D01*
X249591208Y-60543558D01*
X249519780Y-60472130D01*
X249376922Y-60400701D01*
X249091208Y-60400701D01*
X248948351Y-60472130D01*
X248091208Y-61400701D02*
X248234065Y-61329272D01*
X248305494Y-61257844D01*
X248376922Y-61114987D01*
X248376922Y-60686415D01*
X248305494Y-60543558D01*
X248234065Y-60472130D01*
X248091208Y-60400701D01*
X247876922Y-60400701D01*
X247734065Y-60472130D01*
X247662637Y-60543558D01*
X247591208Y-60686415D01*
X247591208Y-61114987D01*
X247662637Y-61257844D01*
X247734065Y-61329272D01*
X247876922Y-61400701D01*
X248091208Y-61400701D01*
X246948351Y-61400701D02*
X246948351Y-60400701D01*
X246948351Y-60543558D02*
X246876922Y-60472130D01*
X246734065Y-60400701D01*
X246519780Y-60400701D01*
X246376922Y-60472130D01*
X246305494Y-60614987D01*
X246305494Y-61400701D01*
X246305494Y-60614987D02*
X246234065Y-60472130D01*
X246091208Y-60400701D01*
X245876922Y-60400701D01*
X245734065Y-60472130D01*
X245662637Y-60614987D01*
X245662637Y-61400701D01*
X243876922Y-59829272D02*
X245162637Y-61757844D01*
X242734065Y-61400701D02*
X242734065Y-59900701D01*
X242734065Y-61329272D02*
X242876922Y-61400701D01*
X243162637Y-61400701D01*
X243305494Y-61329272D01*
X243376922Y-61257844D01*
X243448351Y-61114987D01*
X243448351Y-60686415D01*
X243376922Y-60543558D01*
X243305494Y-60472130D01*
X243162637Y-60400701D01*
X242876922Y-60400701D01*
X242734065Y-60472130D01*
X242019780Y-61400701D02*
X242019780Y-60400701D01*
X242019780Y-59900701D02*
X242091208Y-59972130D01*
X242019780Y-60043558D01*
X241948351Y-59972130D01*
X242019780Y-59900701D01*
X242019780Y-60043558D01*
X240734065Y-61329272D02*
X240876922Y-61400701D01*
X241162637Y-61400701D01*
X241305494Y-61329272D01*
X241376922Y-61186415D01*
X241376922Y-60614987D01*
X241305494Y-60472130D01*
X241162637Y-60400701D01*
X240876922Y-60400701D01*
X240734065Y-60472130D01*
X240662637Y-60614987D01*
X240662637Y-60757844D01*
X241376922Y-60900701D01*
X240019780Y-61400701D02*
X240019780Y-60400701D01*
X240019780Y-60686415D02*
X239948351Y-60543558D01*
X239876922Y-60472130D01*
X239734065Y-60400701D01*
X239591208Y-60400701D01*
X239091208Y-61400701D02*
X239091208Y-60400701D01*
X239091208Y-59900701D02*
X239162637Y-59972130D01*
X239091208Y-60043558D01*
X239019780Y-59972130D01*
X239091208Y-59900701D01*
X239091208Y-60043558D01*
X237734065Y-61329272D02*
X237876922Y-61400701D01*
X238162637Y-61400701D01*
X238305494Y-61329272D01*
X238376922Y-61257844D01*
X238448351Y-61114987D01*
X238448351Y-60686415D01*
X238376922Y-60543558D01*
X238305494Y-60472130D01*
X238162637Y-60400701D01*
X237876922Y-60400701D01*
X237734065Y-60472130D01*
X237091208Y-61400701D02*
X237091208Y-59900701D01*
X236948351Y-60829272D02*
X236519780Y-61400701D01*
X236519780Y-60400701D02*
X237091208Y-60972130D01*
X235234065Y-61400701D02*
X235234065Y-59900701D01*
X235234065Y-61329272D02*
X235376922Y-61400701D01*
X235662637Y-61400701D01*
X235805494Y-61329272D01*
X235876922Y-61257844D01*
X235948351Y-61114987D01*
X235948351Y-60686415D01*
X235876922Y-60543558D01*
X235805494Y-60472130D01*
X235662637Y-60400701D01*
X235376922Y-60400701D01*
X235234065Y-60472130D01*
X234519780Y-61400701D02*
X234519780Y-60400701D01*
X234519780Y-59900701D02*
X234591208Y-59972130D01*
X234519780Y-60043558D01*
X234448351Y-59972130D01*
X234519780Y-59900701D01*
X234519780Y-60043558D01*
X233234065Y-61329272D02*
X233376922Y-61400701D01*
X233662637Y-61400701D01*
X233805494Y-61329272D01*
X233876922Y-61186415D01*
X233876922Y-60614987D01*
X233805494Y-60472130D01*
X233662637Y-60400701D01*
X233376922Y-60400701D01*
X233234065Y-60472130D01*
X233162637Y-60614987D01*
X233162637Y-60757844D01*
X233876922Y-60900701D01*
X251126922Y-98000861D02*
X250841208Y-98000861D01*
X250698351Y-98072290D01*
X250555494Y-98215147D01*
X250484065Y-98500861D01*
X250484065Y-99000861D01*
X250555494Y-99286575D01*
X250698351Y-99429432D01*
X250841208Y-99500861D01*
X251126922Y-99500861D01*
X251269780Y-99429432D01*
X251412637Y-99286575D01*
X251484065Y-99000861D01*
X251484065Y-98500861D01*
X251412637Y-98215147D01*
X251269780Y-98072290D01*
X251126922Y-98000861D01*
X249841208Y-99500861D02*
X249841208Y-98500861D01*
X249841208Y-98786575D02*
X249769780Y-98643718D01*
X249698351Y-98572290D01*
X249555494Y-98500861D01*
X249412637Y-98500861D01*
X248912637Y-99500861D02*
X248912637Y-98500861D01*
X248912637Y-98000861D02*
X248984065Y-98072290D01*
X248912637Y-98143718D01*
X248841208Y-98072290D01*
X248912637Y-98000861D01*
X248912637Y-98143718D01*
X246198351Y-99500861D02*
X246698351Y-98786575D01*
X247055494Y-99500861D02*
X247055494Y-98000861D01*
X246484065Y-98000861D01*
X246341208Y-98072290D01*
X246269780Y-98143718D01*
X246198351Y-98286575D01*
X246198351Y-98500861D01*
X246269780Y-98643718D01*
X246341208Y-98715147D01*
X246484065Y-98786575D01*
X247055494Y-98786575D01*
X244984065Y-99429432D02*
X245126922Y-99500861D01*
X245412637Y-99500861D01*
X245555494Y-99429432D01*
X245626922Y-99286575D01*
X245626922Y-98715147D01*
X245555494Y-98572290D01*
X245412637Y-98500861D01*
X245126922Y-98500861D01*
X244984065Y-98572290D01*
X244912637Y-98715147D01*
X244912637Y-98858004D01*
X245626922Y-99000861D01*
X244412637Y-98500861D02*
X244055494Y-99500861D01*
X243698351Y-98500861D01*
X241198351Y-99500861D02*
X242055494Y-99500861D01*
X241626922Y-99500861D02*
X241626922Y-98000861D01*
X241769780Y-98215147D01*
X241912637Y-98358004D01*
X242055494Y-98429432D01*
X240555494Y-99358004D02*
X240484065Y-99429432D01*
X240555494Y-99500861D01*
X240626922Y-99429432D01*
X240555494Y-99358004D01*
X240555494Y-99500861D01*
X239555494Y-98000861D02*
X239412637Y-98000861D01*
X239269780Y-98072290D01*
X239198351Y-98143718D01*
X239126922Y-98286575D01*
X239055494Y-98572290D01*
X239055494Y-98929432D01*
X239126922Y-99215147D01*
X239198351Y-99358004D01*
X239269780Y-99429432D01*
X239412637Y-99500861D01*
X239555494Y-99500861D01*
X239698351Y-99429432D01*
X239769780Y-99358004D01*
X239841208Y-99215147D01*
X239912637Y-98929432D01*
X239912637Y-98572290D01*
X239841208Y-98286575D01*
X239769780Y-98143718D01*
X239698351Y-98072290D01*
X239555494Y-98000861D01*
D11*
X173688507Y-98274670D02*
X173688507Y-98988956D01*
X173736126Y-99131813D01*
X173831364Y-99227051D01*
X173974221Y-99274670D01*
X174069460Y-99274670D01*
X172736126Y-99274670D02*
X173212317Y-99274670D01*
X173212317Y-98274670D01*
X171831364Y-99179432D02*
X171878983Y-99227051D01*
X172021840Y-99274670D01*
X172117079Y-99274670D01*
X172259936Y-99227051D01*
X172355174Y-99131813D01*
X172402793Y-99036575D01*
X172450412Y-98846099D01*
X172450412Y-98703242D01*
X172402793Y-98512766D01*
X172355174Y-98417528D01*
X172259936Y-98322290D01*
X172117079Y-98274670D01*
X172021840Y-98274670D01*
X171878983Y-98322290D01*
X171831364Y-98369909D01*
X171117079Y-98274670D02*
X171117079Y-98988956D01*
X171164698Y-99131813D01*
X171259936Y-99227051D01*
X171402793Y-99274670D01*
X171498031Y-99274670D01*
X170164698Y-99274670D02*
X170640888Y-99274670D01*
X170640888Y-98274670D01*
X169259936Y-99179432D02*
X169307555Y-99227051D01*
X169450412Y-99274670D01*
X169545650Y-99274670D01*
X169688507Y-99227051D01*
X169783745Y-99131813D01*
X169831364Y-99036575D01*
X169878983Y-98846099D01*
X169878983Y-98703242D01*
X169831364Y-98512766D01*
X169783745Y-98417528D01*
X169688507Y-98322290D01*
X169545650Y-98274670D01*
X169450412Y-98274670D01*
X169307555Y-98322290D01*
X169259936Y-98369909D01*
X168545650Y-98274670D02*
X168545650Y-98988956D01*
X168593269Y-99131813D01*
X168688507Y-99227051D01*
X168831364Y-99274670D01*
X168926602Y-99274670D01*
X167593269Y-99274670D02*
X168069460Y-99274670D01*
X168069460Y-98274670D01*
X166688507Y-99179432D02*
X166736126Y-99227051D01*
X166878983Y-99274670D01*
X166974221Y-99274670D01*
X167117079Y-99227051D01*
X167212317Y-99131813D01*
X167259936Y-99036575D01*
X167307555Y-98846099D01*
X167307555Y-98703242D01*
X167259936Y-98512766D01*
X167212317Y-98417528D01*
X167117079Y-98322290D01*
X166974221Y-98274670D01*
X166878983Y-98274670D01*
X166736126Y-98322290D01*
X166688507Y-98369909D01*
X165974221Y-98274670D02*
X165974221Y-98988956D01*
X166021840Y-99131813D01*
X166117079Y-99227051D01*
X166259936Y-99274670D01*
X166355174Y-99274670D01*
X165021840Y-99274670D02*
X165498031Y-99274670D01*
X165498031Y-98274670D01*
X164117079Y-99179432D02*
X164164698Y-99227051D01*
X164307555Y-99274670D01*
X164402793Y-99274670D01*
X164545650Y-99227051D01*
X164640888Y-99131813D01*
X164688507Y-99036575D01*
X164736126Y-98846099D01*
X164736126Y-98703242D01*
X164688507Y-98512766D01*
X164640888Y-98417528D01*
X164545650Y-98322290D01*
X164402793Y-98274670D01*
X164307555Y-98274670D01*
X164164698Y-98322290D01*
X164117079Y-98369909D01*
%LPC*%
D12*
X359227739Y-101361958D03*
X359227739Y-100091958D03*
X359227739Y-96281958D03*
X359227739Y-97551958D03*
X359227739Y-98821958D03*
X359227739Y-82311942D03*
X359227739Y-81041942D03*
X359227739Y-77231942D03*
X359227739Y-78501942D03*
X359227739Y-79771942D03*
X359227739Y-63261926D03*
X359227739Y-61991926D03*
X359227739Y-58181926D03*
X359227739Y-59451926D03*
X359227739Y-60721926D03*
D13*
X373857820Y-101616330D03*
X373857820Y-115078330D03*
D14*
X366301320Y-103648330D03*
X381414320Y-103648330D03*
X381414320Y-113046330D03*
X366301320Y-113046330D03*
D15*
X380588820Y-108347330D03*
X367126820Y-108347330D03*
D16*
X373857820Y-101362330D03*
X373857820Y-115332330D03*
D17*
X366714070Y-105680330D03*
X381001570Y-105680330D03*
X366714070Y-111014330D03*
X381001570Y-111014330D03*
D13*
X373857820Y-82566250D03*
X373857820Y-96028250D03*
D14*
X366301320Y-84598250D03*
X381414320Y-84598250D03*
X381414320Y-93996250D03*
X366301320Y-93996250D03*
D15*
X380588820Y-89297250D03*
X367126820Y-89297250D03*
D16*
X373857820Y-82312250D03*
X373857820Y-96282250D03*
D17*
X366714070Y-86630250D03*
X381001570Y-86630250D03*
X366714070Y-91964250D03*
X381001570Y-91964250D03*
D13*
X373857820Y-63516170D03*
X373857820Y-76978170D03*
D14*
X366301320Y-65548170D03*
X381414320Y-65548170D03*
X381414320Y-74946170D03*
X366301320Y-74946170D03*
D15*
X380588820Y-70247170D03*
X367126820Y-70247170D03*
D16*
X373857820Y-63262170D03*
X373857820Y-77232170D03*
D17*
X366714070Y-67580170D03*
X381001570Y-67580170D03*
X366714070Y-72914170D03*
X381001570Y-72914170D03*
D13*
X373857820Y-44466090D03*
X373857820Y-57928090D03*
D14*
X366301320Y-46498090D03*
X381414320Y-46498090D03*
X381414320Y-55896090D03*
X366301320Y-55896090D03*
D15*
X380588820Y-51197090D03*
X367126820Y-51197090D03*
D16*
X373857820Y-44212090D03*
X373857820Y-58182090D03*
D17*
X366714070Y-48530090D03*
X381001570Y-48530090D03*
X366714070Y-53864090D03*
X381001570Y-53864090D03*
D13*
X350045220Y-101616330D03*
X350045220Y-115078330D03*
D14*
X342488720Y-103648330D03*
X357601720Y-103648330D03*
X357601720Y-113046330D03*
X342488720Y-113046330D03*
D15*
X356776220Y-108347330D03*
X343314220Y-108347330D03*
D16*
X350045220Y-101362330D03*
X350045220Y-115332330D03*
D17*
X342901470Y-105680330D03*
X357188970Y-105680330D03*
X342901470Y-111014330D03*
X357188970Y-111014330D03*
D13*
X330995140Y-101616330D03*
X330995140Y-115078330D03*
D14*
X323438640Y-103648330D03*
X338551640Y-103648330D03*
X338551640Y-113046330D03*
X323438640Y-113046330D03*
D15*
X337726140Y-108347330D03*
X324264140Y-108347330D03*
D16*
X330995140Y-101362330D03*
X330995140Y-115332330D03*
D17*
X323851390Y-105680330D03*
X338138890Y-105680330D03*
X323851390Y-111014330D03*
X338138890Y-111014330D03*
D13*
X311945060Y-101616330D03*
X311945060Y-115078330D03*
D14*
X304388560Y-103648330D03*
X319501560Y-103648330D03*
X319501560Y-113046330D03*
X304388560Y-113046330D03*
D15*
X318676060Y-108347330D03*
X305214060Y-108347330D03*
D16*
X311945060Y-101362330D03*
X311945060Y-115332330D03*
D17*
X304801310Y-105680330D03*
X319088810Y-105680330D03*
X304801310Y-111014330D03*
X319088810Y-111014330D03*
D13*
X292894980Y-101616330D03*
X292894980Y-115078330D03*
D14*
X285338480Y-103648330D03*
X300451480Y-103648330D03*
X300451480Y-113046330D03*
X285338480Y-113046330D03*
D15*
X299625980Y-108347330D03*
X286163980Y-108347330D03*
D16*
X292894980Y-101362330D03*
X292894980Y-115332330D03*
D17*
X285751230Y-105680330D03*
X300038730Y-105680330D03*
X285751230Y-111014330D03*
X300038730Y-111014330D03*
D13*
X273844900Y-101616330D03*
X273844900Y-115078330D03*
D14*
X266288400Y-103648330D03*
X281401400Y-103648330D03*
X281401400Y-113046330D03*
X266288400Y-113046330D03*
D15*
X280575900Y-108347330D03*
X267113900Y-108347330D03*
D16*
X273844900Y-101362330D03*
X273844900Y-115332330D03*
D17*
X266701150Y-105680330D03*
X280988650Y-105680330D03*
X266701150Y-111014330D03*
X280988650Y-111014330D03*
D13*
X254794820Y-101616330D03*
X254794820Y-115078330D03*
D14*
X247238320Y-103648330D03*
X262351320Y-103648330D03*
X262351320Y-113046330D03*
X247238320Y-113046330D03*
D15*
X261525820Y-108347330D03*
X248063820Y-108347330D03*
D16*
X254794820Y-101362330D03*
X254794820Y-115332330D03*
D17*
X247651070Y-105680330D03*
X261938570Y-105680330D03*
X247651070Y-111014330D03*
X261938570Y-111014330D03*
D13*
X235744740Y-101616330D03*
X235744740Y-115078330D03*
D14*
X228188240Y-103648330D03*
X243301240Y-103648330D03*
X243301240Y-113046330D03*
X228188240Y-113046330D03*
D15*
X242475740Y-108347330D03*
X229013740Y-108347330D03*
D16*
X235744740Y-101362330D03*
X235744740Y-115332330D03*
D17*
X228600990Y-105680330D03*
X242888490Y-105680330D03*
X228600990Y-111014330D03*
X242888490Y-111014330D03*
D13*
X216694660Y-101616330D03*
X216694660Y-115078330D03*
D14*
X209138160Y-103648330D03*
X224251160Y-103648330D03*
X224251160Y-113046330D03*
X209138160Y-113046330D03*
D15*
X223425660Y-108347330D03*
X209963660Y-108347330D03*
D16*
X216694660Y-101362330D03*
X216694660Y-115332330D03*
D17*
X209550910Y-105680330D03*
X223838410Y-105680330D03*
X209550910Y-111014330D03*
X223838410Y-111014330D03*
D13*
X197644580Y-101616330D03*
X197644580Y-115078330D03*
D14*
X190088080Y-103648330D03*
X205201080Y-103648330D03*
X205201080Y-113046330D03*
X190088080Y-113046330D03*
D15*
X204375580Y-108347330D03*
X190913580Y-108347330D03*
D16*
X197644580Y-101362330D03*
X197644580Y-115332330D03*
D17*
X190500830Y-105680330D03*
X204788330Y-105680330D03*
X190500830Y-111014330D03*
X204788330Y-111014330D03*
D13*
X178599530Y-101616330D03*
X178599530Y-115078330D03*
D14*
X171043030Y-103648330D03*
X186156030Y-103648330D03*
X186156030Y-113046330D03*
X171043030Y-113046330D03*
D15*
X185330530Y-108347330D03*
X171868530Y-108347330D03*
D16*
X178599530Y-101362330D03*
X178599530Y-115332330D03*
D17*
X171455780Y-105680330D03*
X185743280Y-105680330D03*
X171455780Y-111014330D03*
X185743280Y-111014330D03*
D13*
X159544420Y-101616330D03*
X159544420Y-115078330D03*
D14*
X151987920Y-103648330D03*
X167100920Y-103648330D03*
X167100920Y-113046330D03*
X151987920Y-113046330D03*
D15*
X166275420Y-108347330D03*
X152813420Y-108347330D03*
D16*
X159544420Y-101362330D03*
X159544420Y-115332330D03*
D17*
X152400670Y-105680330D03*
X166688170Y-105680330D03*
X152400670Y-111014330D03*
X166688170Y-111014330D03*
D13*
X140494340Y-101616330D03*
X140494340Y-115078330D03*
D14*
X132937840Y-103648330D03*
X148050840Y-103648330D03*
X148050840Y-113046330D03*
X132937840Y-113046330D03*
D15*
X147225340Y-108347330D03*
X133763340Y-108347330D03*
D16*
X140494340Y-101362330D03*
X140494340Y-115332330D03*
D17*
X133350590Y-105680330D03*
X147638090Y-105680330D03*
X133350590Y-111014330D03*
X147638090Y-111014330D03*
D13*
X350045220Y-82566250D03*
X350045220Y-96028250D03*
D14*
X342488720Y-84598250D03*
X357601720Y-84598250D03*
X357601720Y-93996250D03*
X342488720Y-93996250D03*
D15*
X356776220Y-89297250D03*
X343314220Y-89297250D03*
D16*
X350045220Y-82312250D03*
X350045220Y-96282250D03*
D17*
X342901470Y-86630250D03*
X357188970Y-86630250D03*
X342901470Y-91964250D03*
X357188970Y-91964250D03*
D13*
X330995140Y-82566250D03*
X330995140Y-96028250D03*
D14*
X323438640Y-84598250D03*
X338551640Y-84598250D03*
X338551640Y-93996250D03*
X323438640Y-93996250D03*
D15*
X337726140Y-89297250D03*
X324264140Y-89297250D03*
D16*
X330995140Y-82312250D03*
X330995140Y-96282250D03*
D17*
X323851390Y-86630250D03*
X338138890Y-86630250D03*
X323851390Y-91964250D03*
X338138890Y-91964250D03*
D13*
X311945060Y-82566250D03*
X311945060Y-96028250D03*
D14*
X304388560Y-84598250D03*
X319501560Y-84598250D03*
X319501560Y-93996250D03*
X304388560Y-93996250D03*
D15*
X318676060Y-89297250D03*
X305214060Y-89297250D03*
D16*
X311945060Y-82312250D03*
X311945060Y-96282250D03*
D17*
X304801310Y-86630250D03*
X319088810Y-86630250D03*
X304801310Y-91964250D03*
X319088810Y-91964250D03*
D13*
X292894980Y-82566250D03*
X292894980Y-96028250D03*
D14*
X285338480Y-84598250D03*
X300451480Y-84598250D03*
X300451480Y-93996250D03*
X285338480Y-93996250D03*
D15*
X299625980Y-89297250D03*
X286163980Y-89297250D03*
D16*
X292894980Y-82312250D03*
X292894980Y-96282250D03*
D17*
X285751230Y-86630250D03*
X300038730Y-86630250D03*
X285751230Y-91964250D03*
X300038730Y-91964250D03*
D13*
X273844900Y-82566250D03*
X273844900Y-96028250D03*
D14*
X266288400Y-84598250D03*
X281401400Y-84598250D03*
X281401400Y-93996250D03*
X266288400Y-93996250D03*
D15*
X280575900Y-89297250D03*
X267113900Y-89297250D03*
D16*
X273844900Y-82312250D03*
X273844900Y-96282250D03*
D17*
X266701150Y-86630250D03*
X280988650Y-86630250D03*
X266701150Y-91964250D03*
X280988650Y-91964250D03*
D13*
X254794820Y-82566250D03*
X254794820Y-96028250D03*
D14*
X247238320Y-84598250D03*
X262351320Y-84598250D03*
X262351320Y-93996250D03*
X247238320Y-93996250D03*
D15*
X261525820Y-89297250D03*
X248063820Y-89297250D03*
D16*
X254794820Y-82312250D03*
X254794820Y-96282250D03*
D17*
X247651070Y-86630250D03*
X261938570Y-86630250D03*
X247651070Y-91964250D03*
X261938570Y-91964250D03*
D13*
X235744740Y-82566250D03*
X235744740Y-96028250D03*
D14*
X228188240Y-84598250D03*
X243301240Y-84598250D03*
X243301240Y-93996250D03*
X228188240Y-93996250D03*
D15*
X242475740Y-89297250D03*
X229013740Y-89297250D03*
D16*
X235744740Y-82312250D03*
X235744740Y-96282250D03*
D17*
X228600990Y-86630250D03*
X242888490Y-86630250D03*
X228600990Y-91964250D03*
X242888490Y-91964250D03*
D13*
X216694660Y-82566250D03*
X216694660Y-96028250D03*
D14*
X209138160Y-84598250D03*
X224251160Y-84598250D03*
X224251160Y-93996250D03*
X209138160Y-93996250D03*
D15*
X223425660Y-89297250D03*
X209963660Y-89297250D03*
D16*
X216694660Y-82312250D03*
X216694660Y-96282250D03*
D17*
X209550910Y-86630250D03*
X223838410Y-86630250D03*
X209550910Y-91964250D03*
X223838410Y-91964250D03*
D13*
X197644580Y-82566250D03*
X197644580Y-96028250D03*
D14*
X190088080Y-84598250D03*
X205201080Y-84598250D03*
X205201080Y-93996250D03*
X190088080Y-93996250D03*
D15*
X204375580Y-89297250D03*
X190913580Y-89297250D03*
D16*
X197644580Y-82312250D03*
X197644580Y-96282250D03*
D17*
X190500830Y-86630250D03*
X204788330Y-86630250D03*
X190500830Y-91964250D03*
X204788330Y-91964250D03*
D13*
X178594500Y-82566250D03*
X178594500Y-96028250D03*
D14*
X171038000Y-84598250D03*
X186151000Y-84598250D03*
X186151000Y-93996250D03*
X171038000Y-93996250D03*
D15*
X185325500Y-89297250D03*
X171863500Y-89297250D03*
D16*
X178594500Y-82312250D03*
X178594500Y-96282250D03*
D17*
X171450750Y-86630250D03*
X185738250Y-86630250D03*
X171450750Y-91964250D03*
X185738250Y-91964250D03*
D13*
X159544420Y-82566250D03*
X159544420Y-96028250D03*
D14*
X151987920Y-84598250D03*
X167100920Y-84598250D03*
X167100920Y-93996250D03*
X151987920Y-93996250D03*
D15*
X166275420Y-89297250D03*
X152813420Y-89297250D03*
D16*
X159544420Y-82312250D03*
X159544420Y-96282250D03*
D17*
X152400670Y-86630250D03*
X166688170Y-86630250D03*
X152400670Y-91964250D03*
X166688170Y-91964250D03*
D13*
X140494340Y-82566250D03*
X140494340Y-96028250D03*
D14*
X132937840Y-84598250D03*
X148050840Y-84598250D03*
X148050840Y-93996250D03*
X132937840Y-93996250D03*
D15*
X147225340Y-89297250D03*
X133763340Y-89297250D03*
D16*
X140494340Y-82312250D03*
X140494340Y-96282250D03*
D17*
X133350590Y-86630250D03*
X147638090Y-86630250D03*
X133350590Y-91964250D03*
X147638090Y-91964250D03*
D13*
X350045220Y-63516170D03*
X350045220Y-76978170D03*
D14*
X342488720Y-65548170D03*
X357601720Y-65548170D03*
X357601720Y-74946170D03*
X342488720Y-74946170D03*
D15*
X356776220Y-70247170D03*
X343314220Y-70247170D03*
D16*
X350045220Y-63262170D03*
X350045220Y-77232170D03*
D17*
X342901470Y-67580170D03*
X357188970Y-67580170D03*
X342901470Y-72914170D03*
X357188970Y-72914170D03*
D13*
X330995140Y-63516170D03*
X330995140Y-76978170D03*
D14*
X323438640Y-65548170D03*
X338551640Y-65548170D03*
X338551640Y-74946170D03*
X323438640Y-74946170D03*
D15*
X337726140Y-70247170D03*
X324264140Y-70247170D03*
D16*
X330995140Y-63262170D03*
X330995140Y-77232170D03*
D17*
X323851390Y-67580170D03*
X338138890Y-67580170D03*
X323851390Y-72914170D03*
X338138890Y-72914170D03*
D13*
X311945060Y-63516170D03*
X311945060Y-76978170D03*
D14*
X304388560Y-65548170D03*
X319501560Y-65548170D03*
X319501560Y-74946170D03*
X304388560Y-74946170D03*
D15*
X318676060Y-70247170D03*
X305214060Y-70247170D03*
D16*
X311945060Y-63262170D03*
X311945060Y-77232170D03*
D17*
X304801310Y-67580170D03*
X319088810Y-67580170D03*
X304801310Y-72914170D03*
X319088810Y-72914170D03*
D13*
X292894980Y-63516170D03*
X292894980Y-76978170D03*
D14*
X285338480Y-65548170D03*
X300451480Y-65548170D03*
X300451480Y-74946170D03*
X285338480Y-74946170D03*
D15*
X299625980Y-70247170D03*
X286163980Y-70247170D03*
D16*
X292894980Y-63262170D03*
X292894980Y-77232170D03*
D17*
X285751230Y-67580170D03*
X300038730Y-67580170D03*
X285751230Y-72914170D03*
X300038730Y-72914170D03*
D13*
X273844900Y-63516170D03*
X273844900Y-76978170D03*
D14*
X266288400Y-65548170D03*
X281401400Y-65548170D03*
X281401400Y-74946170D03*
X266288400Y-74946170D03*
D15*
X280575900Y-70247170D03*
X267113900Y-70247170D03*
D16*
X273844900Y-63262170D03*
X273844900Y-77232170D03*
D17*
X266701150Y-67580170D03*
X280988650Y-67580170D03*
X266701150Y-72914170D03*
X280988650Y-72914170D03*
D13*
X254794820Y-63516170D03*
X254794820Y-76978170D03*
D14*
X247238320Y-65548170D03*
X262351320Y-65548170D03*
X262351320Y-74946170D03*
X247238320Y-74946170D03*
D15*
X261525820Y-70247170D03*
X248063820Y-70247170D03*
D16*
X254794820Y-63262170D03*
X254794820Y-77232170D03*
D17*
X247651070Y-67580170D03*
X261938570Y-67580170D03*
X247651070Y-72914170D03*
X261938570Y-72914170D03*
D13*
X235744740Y-63516170D03*
X235744740Y-76978170D03*
D14*
X228188240Y-65548170D03*
X243301240Y-65548170D03*
X243301240Y-74946170D03*
X228188240Y-74946170D03*
D15*
X242475740Y-70247170D03*
X229013740Y-70247170D03*
D16*
X235744740Y-63262170D03*
X235744740Y-77232170D03*
D17*
X228600990Y-67580170D03*
X242888490Y-67580170D03*
X228600990Y-72914170D03*
X242888490Y-72914170D03*
D13*
X216694660Y-63516170D03*
X216694660Y-76978170D03*
D14*
X209138160Y-65548170D03*
X224251160Y-65548170D03*
X224251160Y-74946170D03*
X209138160Y-74946170D03*
D15*
X223425660Y-70247170D03*
X209963660Y-70247170D03*
D16*
X216694660Y-63262170D03*
X216694660Y-77232170D03*
D17*
X209550910Y-67580170D03*
X223838410Y-67580170D03*
X209550910Y-72914170D03*
X223838410Y-72914170D03*
D13*
X197644580Y-63516170D03*
X197644580Y-76978170D03*
D14*
X190088080Y-65548170D03*
X205201080Y-65548170D03*
X205201080Y-74946170D03*
X190088080Y-74946170D03*
D15*
X204375580Y-70247170D03*
X190913580Y-70247170D03*
D16*
X197644580Y-63262170D03*
X197644580Y-77232170D03*
D17*
X190500830Y-67580170D03*
X204788330Y-67580170D03*
X190500830Y-72914170D03*
X204788330Y-72914170D03*
D13*
X178594500Y-63516170D03*
X178594500Y-76978170D03*
D14*
X171038000Y-65548170D03*
X186151000Y-65548170D03*
X186151000Y-74946170D03*
X171038000Y-74946170D03*
D15*
X185325500Y-70247170D03*
X171863500Y-70247170D03*
D16*
X178594500Y-63262170D03*
X178594500Y-77232170D03*
D17*
X171450750Y-67580170D03*
X185738250Y-67580170D03*
X171450750Y-72914170D03*
X185738250Y-72914170D03*
D13*
X159544420Y-63516170D03*
X159544420Y-76978170D03*
D14*
X151987920Y-65548170D03*
X167100920Y-65548170D03*
X167100920Y-74946170D03*
X151987920Y-74946170D03*
D15*
X166275420Y-70247170D03*
X152813420Y-70247170D03*
D16*
X159544420Y-63262170D03*
X159544420Y-77232170D03*
D17*
X152400670Y-67580170D03*
X166688170Y-67580170D03*
X152400670Y-72914170D03*
X166688170Y-72914170D03*
D13*
X140494340Y-63516170D03*
X140494340Y-76978170D03*
D14*
X132937840Y-65548170D03*
X148050840Y-65548170D03*
X148050840Y-74946170D03*
X132937840Y-74946170D03*
D15*
X147225340Y-70247170D03*
X133763340Y-70247170D03*
D16*
X140494340Y-63262170D03*
X140494340Y-77232170D03*
D17*
X133350590Y-67580170D03*
X147638090Y-67580170D03*
X133350590Y-72914170D03*
X147638090Y-72914170D03*
D13*
X350045220Y-44466090D03*
X350045220Y-57928090D03*
D14*
X342488720Y-46498090D03*
X357601720Y-46498090D03*
X357601720Y-55896090D03*
X342488720Y-55896090D03*
D15*
X356776220Y-51197090D03*
X343314220Y-51197090D03*
D16*
X350045220Y-44212090D03*
X350045220Y-58182090D03*
D17*
X342901470Y-48530090D03*
X357188970Y-48530090D03*
X342901470Y-53864090D03*
X357188970Y-53864090D03*
D13*
X330995140Y-44466090D03*
X330995140Y-57928090D03*
D14*
X323438640Y-46498090D03*
X338551640Y-46498090D03*
X338551640Y-55896090D03*
X323438640Y-55896090D03*
D15*
X337726140Y-51197090D03*
X324264140Y-51197090D03*
D16*
X330995140Y-44212090D03*
X330995140Y-58182090D03*
D17*
X323851390Y-48530090D03*
X338138890Y-48530090D03*
X323851390Y-53864090D03*
X338138890Y-53864090D03*
D13*
X311945060Y-44466090D03*
X311945060Y-57928090D03*
D14*
X304388560Y-46498090D03*
X319501560Y-46498090D03*
X319501560Y-55896090D03*
X304388560Y-55896090D03*
D15*
X318676060Y-51197090D03*
X305214060Y-51197090D03*
D16*
X311945060Y-44212090D03*
X311945060Y-58182090D03*
D17*
X304801310Y-48530090D03*
X319088810Y-48530090D03*
X304801310Y-53864090D03*
X319088810Y-53864090D03*
D13*
X292894980Y-44466090D03*
X292894980Y-57928090D03*
D14*
X285338480Y-46498090D03*
X300451480Y-46498090D03*
X300451480Y-55896090D03*
X285338480Y-55896090D03*
D15*
X299625980Y-51197090D03*
X286163980Y-51197090D03*
D16*
X292894980Y-44212090D03*
X292894980Y-58182090D03*
D17*
X285751230Y-48530090D03*
X300038730Y-48530090D03*
X285751230Y-53864090D03*
X300038730Y-53864090D03*
D13*
X273844900Y-44466090D03*
X273844900Y-57928090D03*
D14*
X266288400Y-46498090D03*
X281401400Y-46498090D03*
X281401400Y-55896090D03*
X266288400Y-55896090D03*
D15*
X280575900Y-51197090D03*
X267113900Y-51197090D03*
D16*
X273844900Y-44212090D03*
X273844900Y-58182090D03*
D17*
X266701150Y-48530090D03*
X280988650Y-48530090D03*
X266701150Y-53864090D03*
X280988650Y-53864090D03*
D13*
X254794820Y-44466090D03*
X254794820Y-57928090D03*
D14*
X247238320Y-46498090D03*
X262351320Y-46498090D03*
X262351320Y-55896090D03*
X247238320Y-55896090D03*
D15*
X261525820Y-51197090D03*
X248063820Y-51197090D03*
D16*
X254794820Y-44212090D03*
X254794820Y-58182090D03*
D17*
X247651070Y-48530090D03*
X261938570Y-48530090D03*
X247651070Y-53864090D03*
X261938570Y-53864090D03*
D13*
X235744740Y-44466090D03*
X235744740Y-57928090D03*
D14*
X228188240Y-46498090D03*
X243301240Y-46498090D03*
X243301240Y-55896090D03*
X228188240Y-55896090D03*
D15*
X242475740Y-51197090D03*
X229013740Y-51197090D03*
D16*
X235744740Y-44212090D03*
X235744740Y-58182090D03*
D17*
X228600990Y-48530090D03*
X242888490Y-48530090D03*
X228600990Y-53864090D03*
X242888490Y-53864090D03*
D13*
X216694660Y-44466090D03*
X216694660Y-57928090D03*
D14*
X209138160Y-46498090D03*
X224251160Y-46498090D03*
X224251160Y-55896090D03*
X209138160Y-55896090D03*
D15*
X223425660Y-51197090D03*
X209963660Y-51197090D03*
D16*
X216694660Y-44212090D03*
X216694660Y-58182090D03*
D17*
X209550910Y-48530090D03*
X223838410Y-48530090D03*
X209550910Y-53864090D03*
X223838410Y-53864090D03*
D13*
X197644580Y-44466090D03*
X197644580Y-57928090D03*
D14*
X190088080Y-46498090D03*
X205201080Y-46498090D03*
X205201080Y-55896090D03*
X190088080Y-55896090D03*
D15*
X204375580Y-51197090D03*
X190913580Y-51197090D03*
D16*
X197644580Y-44212090D03*
X197644580Y-58182090D03*
D17*
X190500830Y-48530090D03*
X204788330Y-48530090D03*
X190500830Y-53864090D03*
X204788330Y-53864090D03*
D13*
X178599530Y-44466090D03*
X178599530Y-57928090D03*
D14*
X171043030Y-46498090D03*
X186156030Y-46498090D03*
X186156030Y-55896090D03*
X171043030Y-55896090D03*
D15*
X185330530Y-51197090D03*
X171868530Y-51197090D03*
D16*
X178599530Y-44212090D03*
X178599530Y-58182090D03*
D17*
X171455780Y-48530090D03*
X185743280Y-48530090D03*
X171455780Y-53864090D03*
X185743280Y-53864090D03*
D13*
X159544420Y-44466090D03*
X159544420Y-57928090D03*
D14*
X151987920Y-46498090D03*
X167100920Y-46498090D03*
X167100920Y-55896090D03*
X151987920Y-55896090D03*
D15*
X166275420Y-51197090D03*
X152813420Y-51197090D03*
D16*
X159544420Y-44212090D03*
X159544420Y-58182090D03*
D17*
X152400670Y-48530090D03*
X166688170Y-48530090D03*
X152400670Y-53864090D03*
X166688170Y-53864090D03*
D13*
X140494340Y-44466090D03*
X140494340Y-57928090D03*
D14*
X132937840Y-46498090D03*
X148050840Y-46498090D03*
X148050840Y-55896090D03*
X132937840Y-55896090D03*
D15*
X147225340Y-51197090D03*
X133763340Y-51197090D03*
D16*
X140494340Y-44212090D03*
X140494340Y-58182090D03*
D17*
X133350590Y-48530090D03*
X147638090Y-48530090D03*
X133350590Y-53864090D03*
X147638090Y-53864090D03*
D18*
G36*
X373916914Y-60197396D02*
G01*
X373942444Y-60201183D01*
X373967480Y-60207455D01*
X373991781Y-60216150D01*
X374015112Y-60227185D01*
X374037250Y-60240453D01*
X374057980Y-60255828D01*
X374077104Y-60273161D01*
X374094437Y-60292285D01*
X374109812Y-60313015D01*
X374123080Y-60335153D01*
X374134115Y-60358484D01*
X374142810Y-60382785D01*
X374149082Y-60407821D01*
X374152869Y-60433351D01*
X374154135Y-60459130D01*
X374154135Y-60985130D01*
X374152869Y-61010909D01*
X374149082Y-61036439D01*
X374142810Y-61061475D01*
X374134115Y-61085776D01*
X374123080Y-61109107D01*
X374109812Y-61131245D01*
X374094437Y-61151975D01*
X374077104Y-61171099D01*
X374057980Y-61188432D01*
X374037250Y-61203807D01*
X374015112Y-61217075D01*
X373991781Y-61228110D01*
X373967480Y-61236805D01*
X373942444Y-61243077D01*
X373916914Y-61246864D01*
X373891135Y-61248130D01*
X373265135Y-61248130D01*
X373239356Y-61246864D01*
X373213826Y-61243077D01*
X373188790Y-61236805D01*
X373164489Y-61228110D01*
X373141158Y-61217075D01*
X373119020Y-61203807D01*
X373098290Y-61188432D01*
X373079166Y-61171099D01*
X373061833Y-61151975D01*
X373046458Y-61131245D01*
X373033190Y-61109107D01*
X373022155Y-61085776D01*
X373013460Y-61061475D01*
X373007188Y-61036439D01*
X373003401Y-61010909D01*
X373002135Y-60985130D01*
X373002135Y-60459130D01*
X373003401Y-60433351D01*
X373007188Y-60407821D01*
X373013460Y-60382785D01*
X373022155Y-60358484D01*
X373033190Y-60335153D01*
X373046458Y-60313015D01*
X373061833Y-60292285D01*
X373079166Y-60273161D01*
X373098290Y-60255828D01*
X373119020Y-60240453D01*
X373141158Y-60227185D01*
X373164489Y-60216150D01*
X373188790Y-60207455D01*
X373213826Y-60201183D01*
X373239356Y-60197396D01*
X373265135Y-60196130D01*
X373891135Y-60196130D01*
X373916914Y-60197396D01*
X373916914Y-60197396D01*
G37*
D19*
X373578135Y-60722130D03*
D18*
G36*
X375666914Y-60197396D02*
G01*
X375692444Y-60201183D01*
X375717480Y-60207455D01*
X375741781Y-60216150D01*
X375765112Y-60227185D01*
X375787250Y-60240453D01*
X375807980Y-60255828D01*
X375827104Y-60273161D01*
X375844437Y-60292285D01*
X375859812Y-60313015D01*
X375873080Y-60335153D01*
X375884115Y-60358484D01*
X375892810Y-60382785D01*
X375899082Y-60407821D01*
X375902869Y-60433351D01*
X375904135Y-60459130D01*
X375904135Y-60985130D01*
X375902869Y-61010909D01*
X375899082Y-61036439D01*
X375892810Y-61061475D01*
X375884115Y-61085776D01*
X375873080Y-61109107D01*
X375859812Y-61131245D01*
X375844437Y-61151975D01*
X375827104Y-61171099D01*
X375807980Y-61188432D01*
X375787250Y-61203807D01*
X375765112Y-61217075D01*
X375741781Y-61228110D01*
X375717480Y-61236805D01*
X375692444Y-61243077D01*
X375666914Y-61246864D01*
X375641135Y-61248130D01*
X375015135Y-61248130D01*
X374989356Y-61246864D01*
X374963826Y-61243077D01*
X374938790Y-61236805D01*
X374914489Y-61228110D01*
X374891158Y-61217075D01*
X374869020Y-61203807D01*
X374848290Y-61188432D01*
X374829166Y-61171099D01*
X374811833Y-61151975D01*
X374796458Y-61131245D01*
X374783190Y-61109107D01*
X374772155Y-61085776D01*
X374763460Y-61061475D01*
X374757188Y-61036439D01*
X374753401Y-61010909D01*
X374752135Y-60985130D01*
X374752135Y-60459130D01*
X374753401Y-60433351D01*
X374757188Y-60407821D01*
X374763460Y-60382785D01*
X374772155Y-60358484D01*
X374783190Y-60335153D01*
X374796458Y-60313015D01*
X374811833Y-60292285D01*
X374829166Y-60273161D01*
X374848290Y-60255828D01*
X374869020Y-60240453D01*
X374891158Y-60227185D01*
X374914489Y-60216150D01*
X374938790Y-60207455D01*
X374963826Y-60201183D01*
X374989356Y-60197396D01*
X375015135Y-60196130D01*
X375641135Y-60196130D01*
X375666914Y-60197396D01*
X375666914Y-60197396D01*
G37*
D19*
X375328135Y-60722130D03*
D18*
G36*
X351258999Y-60197396D02*
G01*
X351284529Y-60201183D01*
X351309565Y-60207455D01*
X351333866Y-60216150D01*
X351357197Y-60227185D01*
X351379335Y-60240453D01*
X351400065Y-60255828D01*
X351419189Y-60273161D01*
X351436522Y-60292285D01*
X351451897Y-60313015D01*
X351465165Y-60335153D01*
X351476200Y-60358484D01*
X351484895Y-60382785D01*
X351491167Y-60407821D01*
X351494954Y-60433351D01*
X351496220Y-60459130D01*
X351496220Y-60985130D01*
X351494954Y-61010909D01*
X351491167Y-61036439D01*
X351484895Y-61061475D01*
X351476200Y-61085776D01*
X351465165Y-61109107D01*
X351451897Y-61131245D01*
X351436522Y-61151975D01*
X351419189Y-61171099D01*
X351400065Y-61188432D01*
X351379335Y-61203807D01*
X351357197Y-61217075D01*
X351333866Y-61228110D01*
X351309565Y-61236805D01*
X351284529Y-61243077D01*
X351258999Y-61246864D01*
X351233220Y-61248130D01*
X350607220Y-61248130D01*
X350581441Y-61246864D01*
X350555911Y-61243077D01*
X350530875Y-61236805D01*
X350506574Y-61228110D01*
X350483243Y-61217075D01*
X350461105Y-61203807D01*
X350440375Y-61188432D01*
X350421251Y-61171099D01*
X350403918Y-61151975D01*
X350388543Y-61131245D01*
X350375275Y-61109107D01*
X350364240Y-61085776D01*
X350355545Y-61061475D01*
X350349273Y-61036439D01*
X350345486Y-61010909D01*
X350344220Y-60985130D01*
X350344220Y-60459130D01*
X350345486Y-60433351D01*
X350349273Y-60407821D01*
X350355545Y-60382785D01*
X350364240Y-60358484D01*
X350375275Y-60335153D01*
X350388543Y-60313015D01*
X350403918Y-60292285D01*
X350421251Y-60273161D01*
X350440375Y-60255828D01*
X350461105Y-60240453D01*
X350483243Y-60227185D01*
X350506574Y-60216150D01*
X350530875Y-60207455D01*
X350555911Y-60201183D01*
X350581441Y-60197396D01*
X350607220Y-60196130D01*
X351233220Y-60196130D01*
X351258999Y-60197396D01*
X351258999Y-60197396D01*
G37*
D19*
X350920220Y-60722130D03*
D18*
G36*
X349508999Y-60197396D02*
G01*
X349534529Y-60201183D01*
X349559565Y-60207455D01*
X349583866Y-60216150D01*
X349607197Y-60227185D01*
X349629335Y-60240453D01*
X349650065Y-60255828D01*
X349669189Y-60273161D01*
X349686522Y-60292285D01*
X349701897Y-60313015D01*
X349715165Y-60335153D01*
X349726200Y-60358484D01*
X349734895Y-60382785D01*
X349741167Y-60407821D01*
X349744954Y-60433351D01*
X349746220Y-60459130D01*
X349746220Y-60985130D01*
X349744954Y-61010909D01*
X349741167Y-61036439D01*
X349734895Y-61061475D01*
X349726200Y-61085776D01*
X349715165Y-61109107D01*
X349701897Y-61131245D01*
X349686522Y-61151975D01*
X349669189Y-61171099D01*
X349650065Y-61188432D01*
X349629335Y-61203807D01*
X349607197Y-61217075D01*
X349583866Y-61228110D01*
X349559565Y-61236805D01*
X349534529Y-61243077D01*
X349508999Y-61246864D01*
X349483220Y-61248130D01*
X348857220Y-61248130D01*
X348831441Y-61246864D01*
X348805911Y-61243077D01*
X348780875Y-61236805D01*
X348756574Y-61228110D01*
X348733243Y-61217075D01*
X348711105Y-61203807D01*
X348690375Y-61188432D01*
X348671251Y-61171099D01*
X348653918Y-61151975D01*
X348638543Y-61131245D01*
X348625275Y-61109107D01*
X348614240Y-61085776D01*
X348605545Y-61061475D01*
X348599273Y-61036439D01*
X348595486Y-61010909D01*
X348594220Y-60985130D01*
X348594220Y-60459130D01*
X348595486Y-60433351D01*
X348599273Y-60407821D01*
X348605545Y-60382785D01*
X348614240Y-60358484D01*
X348625275Y-60335153D01*
X348638543Y-60313015D01*
X348653918Y-60292285D01*
X348671251Y-60273161D01*
X348690375Y-60255828D01*
X348711105Y-60240453D01*
X348733243Y-60227185D01*
X348756574Y-60216150D01*
X348780875Y-60207455D01*
X348805911Y-60201183D01*
X348831441Y-60197396D01*
X348857220Y-60196130D01*
X349483220Y-60196130D01*
X349508999Y-60197396D01*
X349508999Y-60197396D01*
G37*
D19*
X349170220Y-60722130D03*
D20*
X364331556Y-98821958D03*
X364331556Y-60721926D03*
X150019380Y-60722130D03*
X150019380Y-98822290D03*
X283369940Y-60721926D03*
X207168924Y-60721926D03*
X283368988Y-98821958D03*
X207168924Y-98821958D03*
X340519036Y-60721926D03*
X340519036Y-98821958D03*
M02*
