G04 #@! TF.GenerationSoftware,KiCad,Pcbnew,(5.1.2-1)-1*
G04 #@! TF.CreationDate,2020-07-22T22:24:39-05:00*
G04 #@! TF.ProjectId,Ori_top_plate,4f72695f-746f-4705-9f70-6c6174652e6b,rev?*
G04 #@! TF.SameCoordinates,Original*
G04 #@! TF.FileFunction,Soldermask,Top*
G04 #@! TF.FilePolarity,Negative*
%FSLAX46Y46*%
G04 Gerber Fmt 4.6, Leading zero omitted, Abs format (unit mm)*
G04 Created by KiCad (PCBNEW (5.1.2-1)-1) date 2020-07-22 22:24:39*
%MOMM*%
%LPD*%
G04 APERTURE LIST*
%ADD10C,0.100000*%
G04 APERTURE END LIST*
D10*
G36*
X340548903Y-96923213D02*
G01*
X340771177Y-96967426D01*
X341189932Y-97140880D01*
X341566802Y-97392696D01*
X341887304Y-97713198D01*
X342139120Y-98090068D01*
X342312574Y-98508823D01*
X342401000Y-98953371D01*
X342401000Y-99406629D01*
X342312574Y-99851177D01*
X342139120Y-100269932D01*
X341887304Y-100646802D01*
X341566802Y-100967304D01*
X341189932Y-101219120D01*
X340771177Y-101392574D01*
X340548903Y-101436787D01*
X340326630Y-101481000D01*
X339873370Y-101481000D01*
X339651097Y-101436787D01*
X339428823Y-101392574D01*
X339010068Y-101219120D01*
X338633198Y-100967304D01*
X338312696Y-100646802D01*
X338060880Y-100269932D01*
X337887426Y-99851177D01*
X337799000Y-99406629D01*
X337799000Y-98953371D01*
X337887426Y-98508823D01*
X338060880Y-98090068D01*
X338312696Y-97713198D01*
X338633198Y-97392696D01*
X339010068Y-97140880D01*
X339428823Y-96967426D01*
X339651097Y-96923213D01*
X339873370Y-96879000D01*
X340326630Y-96879000D01*
X340548903Y-96923213D01*
X340548903Y-96923213D01*
G37*
G36*
X302548903Y-96923213D02*
G01*
X302771177Y-96967426D01*
X303189932Y-97140880D01*
X303566802Y-97392696D01*
X303887304Y-97713198D01*
X304139120Y-98090068D01*
X304312574Y-98508823D01*
X304401000Y-98953371D01*
X304401000Y-99406629D01*
X304312574Y-99851177D01*
X304139120Y-100269932D01*
X303887304Y-100646802D01*
X303566802Y-100967304D01*
X303189932Y-101219120D01*
X302771177Y-101392574D01*
X302548903Y-101436787D01*
X302326630Y-101481000D01*
X301873370Y-101481000D01*
X301651097Y-101436787D01*
X301428823Y-101392574D01*
X301010068Y-101219120D01*
X300633198Y-100967304D01*
X300312696Y-100646802D01*
X300060880Y-100269932D01*
X299887426Y-99851177D01*
X299799000Y-99406629D01*
X299799000Y-98953371D01*
X299887426Y-98508823D01*
X300060880Y-98090068D01*
X300312696Y-97713198D01*
X300633198Y-97392696D01*
X301010068Y-97140880D01*
X301428823Y-96967426D01*
X301651097Y-96923213D01*
X301873370Y-96879000D01*
X302326630Y-96879000D01*
X302548903Y-96923213D01*
X302548903Y-96923213D01*
G37*
G36*
X283548903Y-96923213D02*
G01*
X283771177Y-96967426D01*
X284189932Y-97140880D01*
X284566802Y-97392696D01*
X284887304Y-97713198D01*
X285139120Y-98090068D01*
X285312574Y-98508823D01*
X285401000Y-98953371D01*
X285401000Y-99406629D01*
X285312574Y-99851177D01*
X285139120Y-100269932D01*
X284887304Y-100646802D01*
X284566802Y-100967304D01*
X284189932Y-101219120D01*
X283771177Y-101392574D01*
X283548903Y-101436787D01*
X283326630Y-101481000D01*
X282873370Y-101481000D01*
X282651097Y-101436787D01*
X282428823Y-101392574D01*
X282010068Y-101219120D01*
X281633198Y-100967304D01*
X281312696Y-100646802D01*
X281060880Y-100269932D01*
X280887426Y-99851177D01*
X280799000Y-99406629D01*
X280799000Y-98953371D01*
X280887426Y-98508823D01*
X281060880Y-98090068D01*
X281312696Y-97713198D01*
X281633198Y-97392696D01*
X282010068Y-97140880D01*
X282428823Y-96967426D01*
X282651097Y-96923213D01*
X282873370Y-96879000D01*
X283326630Y-96879000D01*
X283548903Y-96923213D01*
X283548903Y-96923213D01*
G37*
G36*
X207548903Y-96923213D02*
G01*
X207771177Y-96967426D01*
X208189932Y-97140880D01*
X208566802Y-97392696D01*
X208887304Y-97713198D01*
X209139120Y-98090068D01*
X209312574Y-98508823D01*
X209401000Y-98953371D01*
X209401000Y-99406629D01*
X209312574Y-99851177D01*
X209139120Y-100269932D01*
X208887304Y-100646802D01*
X208566802Y-100967304D01*
X208189932Y-101219120D01*
X207771177Y-101392574D01*
X207548903Y-101436787D01*
X207326630Y-101481000D01*
X206873370Y-101481000D01*
X206651097Y-101436787D01*
X206428823Y-101392574D01*
X206010068Y-101219120D01*
X205633198Y-100967304D01*
X205312696Y-100646802D01*
X205060880Y-100269932D01*
X204887426Y-99851177D01*
X204799000Y-99406629D01*
X204799000Y-98953371D01*
X204887426Y-98508823D01*
X205060880Y-98090068D01*
X205312696Y-97713198D01*
X205633198Y-97392696D01*
X206010068Y-97140880D01*
X206428823Y-96967426D01*
X206651097Y-96923213D01*
X206873370Y-96879000D01*
X207326630Y-96879000D01*
X207548903Y-96923213D01*
X207548903Y-96923213D01*
G37*
G36*
X188548903Y-96923213D02*
G01*
X188771177Y-96967426D01*
X189189932Y-97140880D01*
X189566802Y-97392696D01*
X189887304Y-97713198D01*
X190139120Y-98090068D01*
X190312574Y-98508823D01*
X190401000Y-98953371D01*
X190401000Y-99406629D01*
X190312574Y-99851177D01*
X190139120Y-100269932D01*
X189887304Y-100646802D01*
X189566802Y-100967304D01*
X189189932Y-101219120D01*
X188771177Y-101392574D01*
X188548903Y-101436787D01*
X188326630Y-101481000D01*
X187873370Y-101481000D01*
X187651097Y-101436787D01*
X187428823Y-101392574D01*
X187010068Y-101219120D01*
X186633198Y-100967304D01*
X186312696Y-100646802D01*
X186060880Y-100269932D01*
X185887426Y-99851177D01*
X185799000Y-99406629D01*
X185799000Y-98953371D01*
X185887426Y-98508823D01*
X186060880Y-98090068D01*
X186312696Y-97713198D01*
X186633198Y-97392696D01*
X187010068Y-97140880D01*
X187428823Y-96967426D01*
X187651097Y-96923213D01*
X187873370Y-96879000D01*
X188326630Y-96879000D01*
X188548903Y-96923213D01*
X188548903Y-96923213D01*
G37*
G36*
X150548903Y-96923213D02*
G01*
X150771177Y-96967426D01*
X151189932Y-97140880D01*
X151566802Y-97392696D01*
X151887304Y-97713198D01*
X152139120Y-98090068D01*
X152312574Y-98508823D01*
X152401000Y-98953371D01*
X152401000Y-99406629D01*
X152312574Y-99851177D01*
X152139120Y-100269932D01*
X151887304Y-100646802D01*
X151566802Y-100967304D01*
X151189932Y-101219120D01*
X150771177Y-101392574D01*
X150548903Y-101436787D01*
X150326630Y-101481000D01*
X149873370Y-101481000D01*
X149651097Y-101436787D01*
X149428823Y-101392574D01*
X149010068Y-101219120D01*
X148633198Y-100967304D01*
X148312696Y-100646802D01*
X148060880Y-100269932D01*
X147887426Y-99851177D01*
X147799000Y-99406629D01*
X147799000Y-98953371D01*
X147887426Y-98508823D01*
X148060880Y-98090068D01*
X148312696Y-97713198D01*
X148633198Y-97392696D01*
X149010068Y-97140880D01*
X149428823Y-96967426D01*
X149651097Y-96923213D01*
X149873370Y-96879000D01*
X150326630Y-96879000D01*
X150548903Y-96923213D01*
X150548903Y-96923213D01*
G37*
G36*
X340548903Y-77923213D02*
G01*
X340771177Y-77967426D01*
X341189932Y-78140880D01*
X341566802Y-78392696D01*
X341887304Y-78713198D01*
X342139120Y-79090068D01*
X342312574Y-79508823D01*
X342401000Y-79953371D01*
X342401000Y-80406629D01*
X342312574Y-80851177D01*
X342139120Y-81269932D01*
X341887304Y-81646802D01*
X341566802Y-81967304D01*
X341189932Y-82219120D01*
X340771177Y-82392574D01*
X340548903Y-82436787D01*
X340326630Y-82481000D01*
X339873370Y-82481000D01*
X339651097Y-82436787D01*
X339428823Y-82392574D01*
X339010068Y-82219120D01*
X338633198Y-81967304D01*
X338312696Y-81646802D01*
X338060880Y-81269932D01*
X337887426Y-80851177D01*
X337799000Y-80406629D01*
X337799000Y-79953371D01*
X337887426Y-79508823D01*
X338060880Y-79090068D01*
X338312696Y-78713198D01*
X338633198Y-78392696D01*
X339010068Y-78140880D01*
X339428823Y-77967426D01*
X339651097Y-77923213D01*
X339873370Y-77879000D01*
X340326630Y-77879000D01*
X340548903Y-77923213D01*
X340548903Y-77923213D01*
G37*
G36*
X150548903Y-77923213D02*
G01*
X150771177Y-77967426D01*
X151189932Y-78140880D01*
X151566802Y-78392696D01*
X151887304Y-78713198D01*
X152139120Y-79090068D01*
X152312574Y-79508823D01*
X152401000Y-79953371D01*
X152401000Y-80406629D01*
X152312574Y-80851177D01*
X152139120Y-81269932D01*
X151887304Y-81646802D01*
X151566802Y-81967304D01*
X151189932Y-82219120D01*
X150771177Y-82392574D01*
X150548903Y-82436787D01*
X150326630Y-82481000D01*
X149873370Y-82481000D01*
X149651097Y-82436787D01*
X149428823Y-82392574D01*
X149010068Y-82219120D01*
X148633198Y-81967304D01*
X148312696Y-81646802D01*
X148060880Y-81269932D01*
X147887426Y-80851177D01*
X147799000Y-80406629D01*
X147799000Y-79953371D01*
X147887426Y-79508823D01*
X148060880Y-79090068D01*
X148312696Y-78713198D01*
X148633198Y-78392696D01*
X149010068Y-78140880D01*
X149428823Y-77967426D01*
X149651097Y-77923213D01*
X149873370Y-77879000D01*
X150326630Y-77879000D01*
X150548903Y-77923213D01*
X150548903Y-77923213D01*
G37*
G36*
X340548903Y-58923213D02*
G01*
X340771177Y-58967426D01*
X341189932Y-59140880D01*
X341566802Y-59392696D01*
X341887304Y-59713198D01*
X342139120Y-60090068D01*
X342312574Y-60508823D01*
X342401000Y-60953371D01*
X342401000Y-61406629D01*
X342312574Y-61851177D01*
X342139120Y-62269932D01*
X341887304Y-62646802D01*
X341566802Y-62967304D01*
X341189932Y-63219120D01*
X340771177Y-63392574D01*
X340548903Y-63436787D01*
X340326630Y-63481000D01*
X339873370Y-63481000D01*
X339651097Y-63436787D01*
X339428823Y-63392574D01*
X339010068Y-63219120D01*
X338633198Y-62967304D01*
X338312696Y-62646802D01*
X338060880Y-62269932D01*
X337887426Y-61851177D01*
X337799000Y-61406629D01*
X337799000Y-60953371D01*
X337887426Y-60508823D01*
X338060880Y-60090068D01*
X338312696Y-59713198D01*
X338633198Y-59392696D01*
X339010068Y-59140880D01*
X339428823Y-58967426D01*
X339651097Y-58923213D01*
X339873370Y-58879000D01*
X340326630Y-58879000D01*
X340548903Y-58923213D01*
X340548903Y-58923213D01*
G37*
G36*
X302548903Y-58923213D02*
G01*
X302771177Y-58967426D01*
X303189932Y-59140880D01*
X303566802Y-59392696D01*
X303887304Y-59713198D01*
X304139120Y-60090068D01*
X304312574Y-60508823D01*
X304401000Y-60953371D01*
X304401000Y-61406629D01*
X304312574Y-61851177D01*
X304139120Y-62269932D01*
X303887304Y-62646802D01*
X303566802Y-62967304D01*
X303189932Y-63219120D01*
X302771177Y-63392574D01*
X302548903Y-63436787D01*
X302326630Y-63481000D01*
X301873370Y-63481000D01*
X301651097Y-63436787D01*
X301428823Y-63392574D01*
X301010068Y-63219120D01*
X300633198Y-62967304D01*
X300312696Y-62646802D01*
X300060880Y-62269932D01*
X299887426Y-61851177D01*
X299799000Y-61406629D01*
X299799000Y-60953371D01*
X299887426Y-60508823D01*
X300060880Y-60090068D01*
X300312696Y-59713198D01*
X300633198Y-59392696D01*
X301010068Y-59140880D01*
X301428823Y-58967426D01*
X301651097Y-58923213D01*
X301873370Y-58879000D01*
X302326630Y-58879000D01*
X302548903Y-58923213D01*
X302548903Y-58923213D01*
G37*
G36*
X283548903Y-58923213D02*
G01*
X283771177Y-58967426D01*
X284189932Y-59140880D01*
X284566802Y-59392696D01*
X284887304Y-59713198D01*
X285139120Y-60090068D01*
X285312574Y-60508823D01*
X285401000Y-60953371D01*
X285401000Y-61406629D01*
X285312574Y-61851177D01*
X285139120Y-62269932D01*
X284887304Y-62646802D01*
X284566802Y-62967304D01*
X284189932Y-63219120D01*
X283771177Y-63392574D01*
X283548903Y-63436787D01*
X283326630Y-63481000D01*
X282873370Y-63481000D01*
X282651097Y-63436787D01*
X282428823Y-63392574D01*
X282010068Y-63219120D01*
X281633198Y-62967304D01*
X281312696Y-62646802D01*
X281060880Y-62269932D01*
X280887426Y-61851177D01*
X280799000Y-61406629D01*
X280799000Y-60953371D01*
X280887426Y-60508823D01*
X281060880Y-60090068D01*
X281312696Y-59713198D01*
X281633198Y-59392696D01*
X282010068Y-59140880D01*
X282428823Y-58967426D01*
X282651097Y-58923213D01*
X282873370Y-58879000D01*
X283326630Y-58879000D01*
X283548903Y-58923213D01*
X283548903Y-58923213D01*
G37*
G36*
X207548903Y-58923213D02*
G01*
X207771177Y-58967426D01*
X208189932Y-59140880D01*
X208566802Y-59392696D01*
X208887304Y-59713198D01*
X209139120Y-60090068D01*
X209312574Y-60508823D01*
X209401000Y-60953371D01*
X209401000Y-61406629D01*
X209312574Y-61851177D01*
X209139120Y-62269932D01*
X208887304Y-62646802D01*
X208566802Y-62967304D01*
X208189932Y-63219120D01*
X207771177Y-63392574D01*
X207548903Y-63436787D01*
X207326630Y-63481000D01*
X206873370Y-63481000D01*
X206651097Y-63436787D01*
X206428823Y-63392574D01*
X206010068Y-63219120D01*
X205633198Y-62967304D01*
X205312696Y-62646802D01*
X205060880Y-62269932D01*
X204887426Y-61851177D01*
X204799000Y-61406629D01*
X204799000Y-60953371D01*
X204887426Y-60508823D01*
X205060880Y-60090068D01*
X205312696Y-59713198D01*
X205633198Y-59392696D01*
X206010068Y-59140880D01*
X206428823Y-58967426D01*
X206651097Y-58923213D01*
X206873370Y-58879000D01*
X207326630Y-58879000D01*
X207548903Y-58923213D01*
X207548903Y-58923213D01*
G37*
G36*
X188548903Y-58923213D02*
G01*
X188771177Y-58967426D01*
X189189932Y-59140880D01*
X189566802Y-59392696D01*
X189887304Y-59713198D01*
X190139120Y-60090068D01*
X190312574Y-60508823D01*
X190401000Y-60953371D01*
X190401000Y-61406629D01*
X190312574Y-61851177D01*
X190139120Y-62269932D01*
X189887304Y-62646802D01*
X189566802Y-62967304D01*
X189189932Y-63219120D01*
X188771177Y-63392574D01*
X188548903Y-63436787D01*
X188326630Y-63481000D01*
X187873370Y-63481000D01*
X187651097Y-63436787D01*
X187428823Y-63392574D01*
X187010068Y-63219120D01*
X186633198Y-62967304D01*
X186312696Y-62646802D01*
X186060880Y-62269932D01*
X185887426Y-61851177D01*
X185799000Y-61406629D01*
X185799000Y-60953371D01*
X185887426Y-60508823D01*
X186060880Y-60090068D01*
X186312696Y-59713198D01*
X186633198Y-59392696D01*
X187010068Y-59140880D01*
X187428823Y-58967426D01*
X187651097Y-58923213D01*
X187873370Y-58879000D01*
X188326630Y-58879000D01*
X188548903Y-58923213D01*
X188548903Y-58923213D01*
G37*
G36*
X150548903Y-58923213D02*
G01*
X150771177Y-58967426D01*
X151189932Y-59140880D01*
X151566802Y-59392696D01*
X151887304Y-59713198D01*
X152139120Y-60090068D01*
X152312574Y-60508823D01*
X152401000Y-60953371D01*
X152401000Y-61406629D01*
X152312574Y-61851177D01*
X152139120Y-62269932D01*
X151887304Y-62646802D01*
X151566802Y-62967304D01*
X151189932Y-63219120D01*
X150771177Y-63392574D01*
X150548903Y-63436787D01*
X150326630Y-63481000D01*
X149873370Y-63481000D01*
X149651097Y-63436787D01*
X149428823Y-63392574D01*
X149010068Y-63219120D01*
X148633198Y-62967304D01*
X148312696Y-62646802D01*
X148060880Y-62269932D01*
X147887426Y-61851177D01*
X147799000Y-61406629D01*
X147799000Y-60953371D01*
X147887426Y-60508823D01*
X148060880Y-60090068D01*
X148312696Y-59713198D01*
X148633198Y-59392696D01*
X149010068Y-59140880D01*
X149428823Y-58967426D01*
X149651097Y-58923213D01*
X149873370Y-58879000D01*
X150326630Y-58879000D01*
X150548903Y-58923213D01*
X150548903Y-58923213D01*
G37*
M02*
