G04 #@! TF.GenerationSoftware,KiCad,Pcbnew,(5.1.4-0)*
G04 #@! TF.CreationDate,2021-10-24T14:49:57-05:00*
G04 #@! TF.ProjectId,top_plate,746f705f-706c-4617-9465-2e6b69636164,rev?*
G04 #@! TF.SameCoordinates,Original*
G04 #@! TF.FileFunction,Soldermask,Top*
G04 #@! TF.FilePolarity,Negative*
%FSLAX46Y46*%
G04 Gerber Fmt 4.6, Leading zero omitted, Abs format (unit mm)*
G04 Created by KiCad (PCBNEW (5.1.4-0)) date 2021-10-24 14:49:57*
%MOMM*%
%LPD*%
G04 APERTURE LIST*
%ADD10C,2.000000*%
%ADD11C,3.500000*%
G04 APERTURE END LIST*
D10*
X381336010Y-101156700D02*
X381336010Y-113156700D01*
X396336010Y-100156700D02*
G75*
G02X397336010Y-101156700I0J-1000000D01*
G01*
X397336010Y-101156700D02*
X397336010Y-113156700D01*
X396336010Y-114156700D02*
X382336010Y-114156700D01*
X382336010Y-100156700D02*
X396336010Y-100156700D01*
X397336010Y-113156700D02*
G75*
G02X396336010Y-114156700I-1000000J0D01*
G01*
X381336010Y-101156700D02*
G75*
G02X382336010Y-100156700I1000000J0D01*
G01*
X382336010Y-114156700D02*
G75*
G02X381336010Y-113156700I0J1000000D01*
G01*
X381335890Y-82106428D02*
X381335890Y-94106428D01*
X396335890Y-81106428D02*
G75*
G02X397335890Y-82106428I0J-1000000D01*
G01*
X397335890Y-82106428D02*
X397335890Y-94106428D01*
X396335890Y-95106428D02*
X382335890Y-95106428D01*
X382335890Y-81106428D02*
X396335890Y-81106428D01*
X397335890Y-94106428D02*
G75*
G02X396335890Y-95106428I-1000000J0D01*
G01*
X381335890Y-82106428D02*
G75*
G02X382335890Y-81106428I1000000J0D01*
G01*
X382335890Y-95106428D02*
G75*
G02X381335890Y-94106428I0J1000000D01*
G01*
X381335890Y-63056444D02*
X381335890Y-75056444D01*
X396335890Y-62056444D02*
G75*
G02X397335890Y-63056444I0J-1000000D01*
G01*
X397335890Y-63056444D02*
X397335890Y-75056444D01*
X396335890Y-76056444D02*
X382335890Y-76056444D01*
X382335890Y-62056444D02*
X396335890Y-62056444D01*
X397335890Y-75056444D02*
G75*
G02X396335890Y-76056444I-1000000J0D01*
G01*
X381335890Y-63056444D02*
G75*
G02X382335890Y-62056444I1000000J0D01*
G01*
X382335890Y-76056444D02*
G75*
G02X381335890Y-75056444I0J1000000D01*
G01*
X381336010Y-44006460D02*
X381336010Y-56006460D01*
X396336010Y-43006460D02*
G75*
G02X397336010Y-44006460I0J-1000000D01*
G01*
X397336010Y-44006460D02*
X397336010Y-56006460D01*
X396336010Y-57006460D02*
X382336010Y-57006460D01*
X382336010Y-43006460D02*
X396336010Y-43006460D01*
X397336010Y-56006460D02*
G75*
G02X396336010Y-57006460I-1000000J0D01*
G01*
X381336010Y-44006460D02*
G75*
G02X382336010Y-43006460I1000000J0D01*
G01*
X382336010Y-57006460D02*
G75*
G02X381336010Y-56006460I0J1000000D01*
G01*
X357523410Y-101156700D02*
X357523410Y-113156700D01*
X372523410Y-100156700D02*
G75*
G02X373523410Y-101156700I0J-1000000D01*
G01*
X373523410Y-101156700D02*
X373523410Y-113156700D01*
X372523410Y-114156700D02*
X358523410Y-114156700D01*
X358523410Y-100156700D02*
X372523410Y-100156700D01*
X373523410Y-113156700D02*
G75*
G02X372523410Y-114156700I-1000000J0D01*
G01*
X357523410Y-101156700D02*
G75*
G02X358523410Y-100156700I1000000J0D01*
G01*
X358523410Y-114156700D02*
G75*
G02X357523410Y-113156700I0J1000000D01*
G01*
X338473330Y-101160000D02*
X338473330Y-113160000D01*
X353473330Y-100160000D02*
G75*
G02X354473330Y-101160000I0J-1000000D01*
G01*
X354473330Y-101160000D02*
X354473330Y-113160000D01*
X353473330Y-114160000D02*
X339473330Y-114160000D01*
X339473330Y-100160000D02*
X353473330Y-100160000D01*
X354473330Y-113160000D02*
G75*
G02X353473330Y-114160000I-1000000J0D01*
G01*
X338473330Y-101160000D02*
G75*
G02X339473330Y-100160000I1000000J0D01*
G01*
X339473330Y-114160000D02*
G75*
G02X338473330Y-113160000I0J1000000D01*
G01*
X319423250Y-101156700D02*
X319423250Y-113156700D01*
X334423250Y-100156700D02*
G75*
G02X335423250Y-101156700I0J-1000000D01*
G01*
X335423250Y-101156700D02*
X335423250Y-113156700D01*
X334423250Y-114156700D02*
X320423250Y-114156700D01*
X320423250Y-100156700D02*
X334423250Y-100156700D01*
X335423250Y-113156700D02*
G75*
G02X334423250Y-114156700I-1000000J0D01*
G01*
X319423250Y-101156700D02*
G75*
G02X320423250Y-100156700I1000000J0D01*
G01*
X320423250Y-114156700D02*
G75*
G02X319423250Y-113156700I0J1000000D01*
G01*
X300373170Y-101156700D02*
X300373170Y-113156700D01*
X315373170Y-100156700D02*
G75*
G02X316373170Y-101156700I0J-1000000D01*
G01*
X316373170Y-101156700D02*
X316373170Y-113156700D01*
X315373170Y-114156700D02*
X301373170Y-114156700D01*
X301373170Y-100156700D02*
X315373170Y-100156700D01*
X316373170Y-113156700D02*
G75*
G02X315373170Y-114156700I-1000000J0D01*
G01*
X300373170Y-101156700D02*
G75*
G02X301373170Y-100156700I1000000J0D01*
G01*
X301373170Y-114156700D02*
G75*
G02X300373170Y-113156700I0J1000000D01*
G01*
X281323090Y-101156700D02*
X281323090Y-113156700D01*
X296323090Y-100156700D02*
G75*
G02X297323090Y-101156700I0J-1000000D01*
G01*
X297323090Y-101156700D02*
X297323090Y-113156700D01*
X296323090Y-114156700D02*
X282323090Y-114156700D01*
X282323090Y-100156700D02*
X296323090Y-100156700D01*
X297323090Y-113156700D02*
G75*
G02X296323090Y-114156700I-1000000J0D01*
G01*
X281323090Y-101156700D02*
G75*
G02X282323090Y-100156700I1000000J0D01*
G01*
X282323090Y-114156700D02*
G75*
G02X281323090Y-113156700I0J1000000D01*
G01*
X262273010Y-101156700D02*
X262273010Y-113156700D01*
X277273010Y-100156700D02*
G75*
G02X278273010Y-101156700I0J-1000000D01*
G01*
X278273010Y-101156700D02*
X278273010Y-113156700D01*
X277273010Y-114156700D02*
X263273010Y-114156700D01*
X263273010Y-100156700D02*
X277273010Y-100156700D01*
X278273010Y-113156700D02*
G75*
G02X277273010Y-114156700I-1000000J0D01*
G01*
X262273010Y-101156700D02*
G75*
G02X263273010Y-100156700I1000000J0D01*
G01*
X263273010Y-114156700D02*
G75*
G02X262273010Y-113156700I0J1000000D01*
G01*
X243222930Y-101156700D02*
X243222930Y-113156700D01*
X258222930Y-100156700D02*
G75*
G02X259222930Y-101156700I0J-1000000D01*
G01*
X259222930Y-101156700D02*
X259222930Y-113156700D01*
X258222930Y-114156700D02*
X244222930Y-114156700D01*
X244222930Y-100156700D02*
X258222930Y-100156700D01*
X259222930Y-113156700D02*
G75*
G02X258222930Y-114156700I-1000000J0D01*
G01*
X243222930Y-101156700D02*
G75*
G02X244222930Y-100156700I1000000J0D01*
G01*
X244222930Y-114156700D02*
G75*
G02X243222930Y-113156700I0J1000000D01*
G01*
X224172850Y-101156700D02*
X224172850Y-113156700D01*
X239172850Y-100156700D02*
G75*
G02X240172850Y-101156700I0J-1000000D01*
G01*
X240172850Y-101156700D02*
X240172850Y-113156700D01*
X239172850Y-114156700D02*
X225172850Y-114156700D01*
X225172850Y-100156700D02*
X239172850Y-100156700D01*
X240172850Y-113156700D02*
G75*
G02X239172850Y-114156700I-1000000J0D01*
G01*
X224172850Y-101156700D02*
G75*
G02X225172850Y-100156700I1000000J0D01*
G01*
X225172850Y-114156700D02*
G75*
G02X224172850Y-113156700I0J1000000D01*
G01*
X205122770Y-101156700D02*
X205122770Y-113156700D01*
X220122770Y-100156700D02*
G75*
G02X221122770Y-101156700I0J-1000000D01*
G01*
X221122770Y-101156700D02*
X221122770Y-113156700D01*
X220122770Y-114156700D02*
X206122770Y-114156700D01*
X206122770Y-100156700D02*
X220122770Y-100156700D01*
X221122770Y-113156700D02*
G75*
G02X220122770Y-114156700I-1000000J0D01*
G01*
X205122770Y-101156700D02*
G75*
G02X206122770Y-100156700I1000000J0D01*
G01*
X206122770Y-114156700D02*
G75*
G02X205122770Y-113156700I0J1000000D01*
G01*
X186072690Y-101156700D02*
X186072690Y-113156700D01*
X201072690Y-100156700D02*
G75*
G02X202072690Y-101156700I0J-1000000D01*
G01*
X202072690Y-101156700D02*
X202072690Y-113156700D01*
X201072690Y-114156700D02*
X187072690Y-114156700D01*
X187072690Y-100156700D02*
X201072690Y-100156700D01*
X202072690Y-113156700D02*
G75*
G02X201072690Y-114156700I-1000000J0D01*
G01*
X186072690Y-101156700D02*
G75*
G02X187072690Y-100156700I1000000J0D01*
G01*
X187072690Y-114156700D02*
G75*
G02X186072690Y-113156700I0J1000000D01*
G01*
X167022610Y-101156700D02*
X167022610Y-113156700D01*
X182022610Y-100156700D02*
G75*
G02X183022610Y-101156700I0J-1000000D01*
G01*
X183022610Y-101156700D02*
X183022610Y-113156700D01*
X182022610Y-114156700D02*
X168022610Y-114156700D01*
X168022610Y-100156700D02*
X182022610Y-100156700D01*
X183022610Y-113156700D02*
G75*
G02X182022610Y-114156700I-1000000J0D01*
G01*
X167022610Y-101156700D02*
G75*
G02X168022610Y-100156700I1000000J0D01*
G01*
X168022610Y-114156700D02*
G75*
G02X167022610Y-113156700I0J1000000D01*
G01*
X147972530Y-101156700D02*
X147972530Y-113156700D01*
X162972530Y-100156700D02*
G75*
G02X163972530Y-101156700I0J-1000000D01*
G01*
X163972530Y-101156700D02*
X163972530Y-113156700D01*
X162972530Y-114156700D02*
X148972530Y-114156700D01*
X148972530Y-100156700D02*
X162972530Y-100156700D01*
X163972530Y-113156700D02*
G75*
G02X162972530Y-114156700I-1000000J0D01*
G01*
X147972530Y-101156700D02*
G75*
G02X148972530Y-100156700I1000000J0D01*
G01*
X148972530Y-114156700D02*
G75*
G02X147972530Y-113156700I0J1000000D01*
G01*
X357523410Y-82106620D02*
X357523410Y-94106620D01*
X372523410Y-81106620D02*
G75*
G02X373523410Y-82106620I0J-1000000D01*
G01*
X373523410Y-82106620D02*
X373523410Y-94106620D01*
X372523410Y-95106620D02*
X358523410Y-95106620D01*
X358523410Y-81106620D02*
X372523410Y-81106620D01*
X373523410Y-94106620D02*
G75*
G02X372523410Y-95106620I-1000000J0D01*
G01*
X357523410Y-82106620D02*
G75*
G02X358523410Y-81106620I1000000J0D01*
G01*
X358523410Y-95106620D02*
G75*
G02X357523410Y-94106620I0J1000000D01*
G01*
X338473330Y-82106620D02*
X338473330Y-94106620D01*
X353473330Y-81106620D02*
G75*
G02X354473330Y-82106620I0J-1000000D01*
G01*
X354473330Y-82106620D02*
X354473330Y-94106620D01*
X353473330Y-95106620D02*
X339473330Y-95106620D01*
X339473330Y-81106620D02*
X353473330Y-81106620D01*
X354473330Y-94106620D02*
G75*
G02X353473330Y-95106620I-1000000J0D01*
G01*
X338473330Y-82106620D02*
G75*
G02X339473330Y-81106620I1000000J0D01*
G01*
X339473330Y-95106620D02*
G75*
G02X338473330Y-94106620I0J1000000D01*
G01*
X319423250Y-82106620D02*
X319423250Y-94106620D01*
X334423250Y-81106620D02*
G75*
G02X335423250Y-82106620I0J-1000000D01*
G01*
X335423250Y-82106620D02*
X335423250Y-94106620D01*
X334423250Y-95106620D02*
X320423250Y-95106620D01*
X320423250Y-81106620D02*
X334423250Y-81106620D01*
X335423250Y-94106620D02*
G75*
G02X334423250Y-95106620I-1000000J0D01*
G01*
X319423250Y-82106620D02*
G75*
G02X320423250Y-81106620I1000000J0D01*
G01*
X320423250Y-95106620D02*
G75*
G02X319423250Y-94106620I0J1000000D01*
G01*
X300373170Y-82106620D02*
X300373170Y-94106620D01*
X315373170Y-81106620D02*
G75*
G02X316373170Y-82106620I0J-1000000D01*
G01*
X316373170Y-82106620D02*
X316373170Y-94106620D01*
X315373170Y-95106620D02*
X301373170Y-95106620D01*
X301373170Y-81106620D02*
X315373170Y-81106620D01*
X316373170Y-94106620D02*
G75*
G02X315373170Y-95106620I-1000000J0D01*
G01*
X300373170Y-82106620D02*
G75*
G02X301373170Y-81106620I1000000J0D01*
G01*
X301373170Y-95106620D02*
G75*
G02X300373170Y-94106620I0J1000000D01*
G01*
X281323090Y-82106620D02*
X281323090Y-94106620D01*
X296323090Y-81106620D02*
G75*
G02X297323090Y-82106620I0J-1000000D01*
G01*
X297323090Y-82106620D02*
X297323090Y-94106620D01*
X296323090Y-95106620D02*
X282323090Y-95106620D01*
X282323090Y-81106620D02*
X296323090Y-81106620D01*
X297323090Y-94106620D02*
G75*
G02X296323090Y-95106620I-1000000J0D01*
G01*
X281323090Y-82106620D02*
G75*
G02X282323090Y-81106620I1000000J0D01*
G01*
X282323090Y-95106620D02*
G75*
G02X281323090Y-94106620I0J1000000D01*
G01*
X262273010Y-82106620D02*
X262273010Y-94106620D01*
X277273010Y-81106620D02*
G75*
G02X278273010Y-82106620I0J-1000000D01*
G01*
X278273010Y-82106620D02*
X278273010Y-94106620D01*
X277273010Y-95106620D02*
X263273010Y-95106620D01*
X263273010Y-81106620D02*
X277273010Y-81106620D01*
X278273010Y-94106620D02*
G75*
G02X277273010Y-95106620I-1000000J0D01*
G01*
X262273010Y-82106620D02*
G75*
G02X263273010Y-81106620I1000000J0D01*
G01*
X263273010Y-95106620D02*
G75*
G02X262273010Y-94106620I0J1000000D01*
G01*
X243222930Y-82106620D02*
X243222930Y-94106620D01*
X258222930Y-81106620D02*
G75*
G02X259222930Y-82106620I0J-1000000D01*
G01*
X259222930Y-82106620D02*
X259222930Y-94106620D01*
X258222930Y-95106620D02*
X244222930Y-95106620D01*
X244222930Y-81106620D02*
X258222930Y-81106620D01*
X259222930Y-94106620D02*
G75*
G02X258222930Y-95106620I-1000000J0D01*
G01*
X243222930Y-82106620D02*
G75*
G02X244222930Y-81106620I1000000J0D01*
G01*
X244222930Y-95106620D02*
G75*
G02X243222930Y-94106620I0J1000000D01*
G01*
X224172850Y-82106620D02*
X224172850Y-94106620D01*
X239172850Y-81106620D02*
G75*
G02X240172850Y-82106620I0J-1000000D01*
G01*
X240172850Y-82106620D02*
X240172850Y-94106620D01*
X239172850Y-95106620D02*
X225172850Y-95106620D01*
X225172850Y-81106620D02*
X239172850Y-81106620D01*
X240172850Y-94106620D02*
G75*
G02X239172850Y-95106620I-1000000J0D01*
G01*
X224172850Y-82106620D02*
G75*
G02X225172850Y-81106620I1000000J0D01*
G01*
X225172850Y-95106620D02*
G75*
G02X224172850Y-94106620I0J1000000D01*
G01*
X205122770Y-82106620D02*
X205122770Y-94106620D01*
X220122770Y-81106620D02*
G75*
G02X221122770Y-82106620I0J-1000000D01*
G01*
X221122770Y-82106620D02*
X221122770Y-94106620D01*
X220122770Y-95106620D02*
X206122770Y-95106620D01*
X206122770Y-81106620D02*
X220122770Y-81106620D01*
X221122770Y-94106620D02*
G75*
G02X220122770Y-95106620I-1000000J0D01*
G01*
X205122770Y-82106620D02*
G75*
G02X206122770Y-81106620I1000000J0D01*
G01*
X206122770Y-95106620D02*
G75*
G02X205122770Y-94106620I0J1000000D01*
G01*
X186072690Y-82106620D02*
X186072690Y-94106620D01*
X201072690Y-81106620D02*
G75*
G02X202072690Y-82106620I0J-1000000D01*
G01*
X202072690Y-82106620D02*
X202072690Y-94106620D01*
X201072690Y-95106620D02*
X187072690Y-95106620D01*
X187072690Y-81106620D02*
X201072690Y-81106620D01*
X202072690Y-94106620D02*
G75*
G02X201072690Y-95106620I-1000000J0D01*
G01*
X186072690Y-82106620D02*
G75*
G02X187072690Y-81106620I1000000J0D01*
G01*
X187072690Y-95106620D02*
G75*
G02X186072690Y-94106620I0J1000000D01*
G01*
X167022610Y-82106620D02*
X167022610Y-94106620D01*
X182022610Y-81106620D02*
G75*
G02X183022610Y-82106620I0J-1000000D01*
G01*
X183022610Y-82106620D02*
X183022610Y-94106620D01*
X182022610Y-95106620D02*
X168022610Y-95106620D01*
X168022610Y-81106620D02*
X182022610Y-81106620D01*
X183022610Y-94106620D02*
G75*
G02X182022610Y-95106620I-1000000J0D01*
G01*
X167022610Y-82106620D02*
G75*
G02X168022610Y-81106620I1000000J0D01*
G01*
X168022610Y-95106620D02*
G75*
G02X167022610Y-94106620I0J1000000D01*
G01*
X147972530Y-82106620D02*
X147972530Y-94106620D01*
X162972530Y-81106620D02*
G75*
G02X163972530Y-82106620I0J-1000000D01*
G01*
X163972530Y-82106620D02*
X163972530Y-94106620D01*
X162972530Y-95106620D02*
X148972530Y-95106620D01*
X148972530Y-81106620D02*
X162972530Y-81106620D01*
X163972530Y-94106620D02*
G75*
G02X162972530Y-95106620I-1000000J0D01*
G01*
X147972530Y-82106620D02*
G75*
G02X148972530Y-81106620I1000000J0D01*
G01*
X148972530Y-95106620D02*
G75*
G02X147972530Y-94106620I0J1000000D01*
G01*
X357523410Y-63056540D02*
X357523410Y-75056540D01*
X372523410Y-62056540D02*
G75*
G02X373523410Y-63056540I0J-1000000D01*
G01*
X373523410Y-63056540D02*
X373523410Y-75056540D01*
X372523410Y-76056540D02*
X358523410Y-76056540D01*
X358523410Y-62056540D02*
X372523410Y-62056540D01*
X373523410Y-75056540D02*
G75*
G02X372523410Y-76056540I-1000000J0D01*
G01*
X357523410Y-63056540D02*
G75*
G02X358523410Y-62056540I1000000J0D01*
G01*
X358523410Y-76056540D02*
G75*
G02X357523410Y-75056540I0J1000000D01*
G01*
X338473330Y-63056540D02*
X338473330Y-75056540D01*
X353473330Y-62056540D02*
G75*
G02X354473330Y-63056540I0J-1000000D01*
G01*
X354473330Y-63056540D02*
X354473330Y-75056540D01*
X353473330Y-76056540D02*
X339473330Y-76056540D01*
X339473330Y-62056540D02*
X353473330Y-62056540D01*
X354473330Y-75056540D02*
G75*
G02X353473330Y-76056540I-1000000J0D01*
G01*
X338473330Y-63056540D02*
G75*
G02X339473330Y-62056540I1000000J0D01*
G01*
X339473330Y-76056540D02*
G75*
G02X338473330Y-75056540I0J1000000D01*
G01*
X319423250Y-63056540D02*
X319423250Y-75056540D01*
X334423250Y-62056540D02*
G75*
G02X335423250Y-63056540I0J-1000000D01*
G01*
X335423250Y-63056540D02*
X335423250Y-75056540D01*
X334423250Y-76056540D02*
X320423250Y-76056540D01*
X320423250Y-62056540D02*
X334423250Y-62056540D01*
X335423250Y-75056540D02*
G75*
G02X334423250Y-76056540I-1000000J0D01*
G01*
X319423250Y-63056540D02*
G75*
G02X320423250Y-62056540I1000000J0D01*
G01*
X320423250Y-76056540D02*
G75*
G02X319423250Y-75056540I0J1000000D01*
G01*
X300373170Y-63056540D02*
X300373170Y-75056540D01*
X315373170Y-62056540D02*
G75*
G02X316373170Y-63056540I0J-1000000D01*
G01*
X316373170Y-63056540D02*
X316373170Y-75056540D01*
X315373170Y-76056540D02*
X301373170Y-76056540D01*
X301373170Y-62056540D02*
X315373170Y-62056540D01*
X316373170Y-75056540D02*
G75*
G02X315373170Y-76056540I-1000000J0D01*
G01*
X300373170Y-63056540D02*
G75*
G02X301373170Y-62056540I1000000J0D01*
G01*
X301373170Y-76056540D02*
G75*
G02X300373170Y-75056540I0J1000000D01*
G01*
X281323090Y-63056540D02*
X281323090Y-75056540D01*
X296323090Y-62056540D02*
G75*
G02X297323090Y-63056540I0J-1000000D01*
G01*
X297323090Y-63056540D02*
X297323090Y-75056540D01*
X296323090Y-76056540D02*
X282323090Y-76056540D01*
X282323090Y-62056540D02*
X296323090Y-62056540D01*
X297323090Y-75056540D02*
G75*
G02X296323090Y-76056540I-1000000J0D01*
G01*
X281323090Y-63056540D02*
G75*
G02X282323090Y-62056540I1000000J0D01*
G01*
X282323090Y-76056540D02*
G75*
G02X281323090Y-75056540I0J1000000D01*
G01*
X262273010Y-63056540D02*
X262273010Y-75056540D01*
X277273010Y-62056540D02*
G75*
G02X278273010Y-63056540I0J-1000000D01*
G01*
X278273010Y-63056540D02*
X278273010Y-75056540D01*
X277273010Y-76056540D02*
X263273010Y-76056540D01*
X263273010Y-62056540D02*
X277273010Y-62056540D01*
X278273010Y-75056540D02*
G75*
G02X277273010Y-76056540I-1000000J0D01*
G01*
X262273010Y-63056540D02*
G75*
G02X263273010Y-62056540I1000000J0D01*
G01*
X263273010Y-76056540D02*
G75*
G02X262273010Y-75056540I0J1000000D01*
G01*
X243222930Y-63056540D02*
X243222930Y-75056540D01*
X258222930Y-62056540D02*
G75*
G02X259222930Y-63056540I0J-1000000D01*
G01*
X259222930Y-63056540D02*
X259222930Y-75056540D01*
X258222930Y-76056540D02*
X244222930Y-76056540D01*
X244222930Y-62056540D02*
X258222930Y-62056540D01*
X259222930Y-75056540D02*
G75*
G02X258222930Y-76056540I-1000000J0D01*
G01*
X243222930Y-63056540D02*
G75*
G02X244222930Y-62056540I1000000J0D01*
G01*
X244222930Y-76056540D02*
G75*
G02X243222930Y-75056540I0J1000000D01*
G01*
X224172850Y-63056540D02*
X224172850Y-75056540D01*
X239172850Y-62056540D02*
G75*
G02X240172850Y-63056540I0J-1000000D01*
G01*
X240172850Y-63056540D02*
X240172850Y-75056540D01*
X239172850Y-76056540D02*
X225172850Y-76056540D01*
X225172850Y-62056540D02*
X239172850Y-62056540D01*
X240172850Y-75056540D02*
G75*
G02X239172850Y-76056540I-1000000J0D01*
G01*
X224172850Y-63056540D02*
G75*
G02X225172850Y-62056540I1000000J0D01*
G01*
X225172850Y-76056540D02*
G75*
G02X224172850Y-75056540I0J1000000D01*
G01*
X205122770Y-63056540D02*
X205122770Y-75056540D01*
X220122770Y-62056540D02*
G75*
G02X221122770Y-63056540I0J-1000000D01*
G01*
X221122770Y-63056540D02*
X221122770Y-75056540D01*
X220122770Y-76056540D02*
X206122770Y-76056540D01*
X206122770Y-62056540D02*
X220122770Y-62056540D01*
X221122770Y-75056540D02*
G75*
G02X220122770Y-76056540I-1000000J0D01*
G01*
X205122770Y-63056540D02*
G75*
G02X206122770Y-62056540I1000000J0D01*
G01*
X206122770Y-76056540D02*
G75*
G02X205122770Y-75056540I0J1000000D01*
G01*
X186072690Y-63056540D02*
X186072690Y-75056540D01*
X201072690Y-62056540D02*
G75*
G02X202072690Y-63056540I0J-1000000D01*
G01*
X202072690Y-63056540D02*
X202072690Y-75056540D01*
X201072690Y-76056540D02*
X187072690Y-76056540D01*
X187072690Y-62056540D02*
X201072690Y-62056540D01*
X202072690Y-75056540D02*
G75*
G02X201072690Y-76056540I-1000000J0D01*
G01*
X186072690Y-63056540D02*
G75*
G02X187072690Y-62056540I1000000J0D01*
G01*
X187072690Y-76056540D02*
G75*
G02X186072690Y-75056540I0J1000000D01*
G01*
X167022610Y-63056540D02*
X167022610Y-75056540D01*
X182022610Y-62056540D02*
G75*
G02X183022610Y-63056540I0J-1000000D01*
G01*
X183022610Y-63056540D02*
X183022610Y-75056540D01*
X182022610Y-76056540D02*
X168022610Y-76056540D01*
X168022610Y-62056540D02*
X182022610Y-62056540D01*
X183022610Y-75056540D02*
G75*
G02X182022610Y-76056540I-1000000J0D01*
G01*
X167022610Y-63056540D02*
G75*
G02X168022610Y-62056540I1000000J0D01*
G01*
X168022610Y-76056540D02*
G75*
G02X167022610Y-75056540I0J1000000D01*
G01*
X147972530Y-63056540D02*
X147972530Y-75056540D01*
X162972530Y-62056540D02*
G75*
G02X163972530Y-63056540I0J-1000000D01*
G01*
X163972530Y-63056540D02*
X163972530Y-75056540D01*
X162972530Y-76056540D02*
X148972530Y-76056540D01*
X148972530Y-62056540D02*
X162972530Y-62056540D01*
X163972530Y-75056540D02*
G75*
G02X162972530Y-76056540I-1000000J0D01*
G01*
X147972530Y-63056540D02*
G75*
G02X148972530Y-62056540I1000000J0D01*
G01*
X148972530Y-76056540D02*
G75*
G02X147972530Y-75056540I0J1000000D01*
G01*
X357523410Y-44006460D02*
X357523410Y-56006460D01*
X372523410Y-43006460D02*
G75*
G02X373523410Y-44006460I0J-1000000D01*
G01*
X373523410Y-44006460D02*
X373523410Y-56006460D01*
X372523410Y-57006460D02*
X358523410Y-57006460D01*
X358523410Y-43006460D02*
X372523410Y-43006460D01*
X373523410Y-56006460D02*
G75*
G02X372523410Y-57006460I-1000000J0D01*
G01*
X357523410Y-44006460D02*
G75*
G02X358523410Y-43006460I1000000J0D01*
G01*
X358523410Y-57006460D02*
G75*
G02X357523410Y-56006460I0J1000000D01*
G01*
X338473330Y-44006460D02*
X338473330Y-56006460D01*
X353473330Y-43006460D02*
G75*
G02X354473330Y-44006460I0J-1000000D01*
G01*
X354473330Y-44006460D02*
X354473330Y-56006460D01*
X353473330Y-57006460D02*
X339473330Y-57006460D01*
X339473330Y-43006460D02*
X353473330Y-43006460D01*
X354473330Y-56006460D02*
G75*
G02X353473330Y-57006460I-1000000J0D01*
G01*
X338473330Y-44006460D02*
G75*
G02X339473330Y-43006460I1000000J0D01*
G01*
X339473330Y-57006460D02*
G75*
G02X338473330Y-56006460I0J1000000D01*
G01*
X319423250Y-44006460D02*
X319423250Y-56006460D01*
X334423250Y-43006460D02*
G75*
G02X335423250Y-44006460I0J-1000000D01*
G01*
X335423250Y-44006460D02*
X335423250Y-56006460D01*
X334423250Y-57006460D02*
X320423250Y-57006460D01*
X320423250Y-43006460D02*
X334423250Y-43006460D01*
X335423250Y-56006460D02*
G75*
G02X334423250Y-57006460I-1000000J0D01*
G01*
X319423250Y-44006460D02*
G75*
G02X320423250Y-43006460I1000000J0D01*
G01*
X320423250Y-57006460D02*
G75*
G02X319423250Y-56006460I0J1000000D01*
G01*
X300373362Y-44006460D02*
X300373362Y-56006460D01*
X315373362Y-43006460D02*
G75*
G02X316373362Y-44006460I0J-1000000D01*
G01*
X316373362Y-44006460D02*
X316373362Y-56006460D01*
X315373362Y-57006460D02*
X301373362Y-57006460D01*
X301373362Y-43006460D02*
X315373362Y-43006460D01*
X316373362Y-56006460D02*
G75*
G02X315373362Y-57006460I-1000000J0D01*
G01*
X300373362Y-44006460D02*
G75*
G02X301373362Y-43006460I1000000J0D01*
G01*
X301373362Y-57006460D02*
G75*
G02X300373362Y-56006460I0J1000000D01*
G01*
X281323346Y-44006460D02*
X281323346Y-56006460D01*
X296323346Y-43006460D02*
G75*
G02X297323346Y-44006460I0J-1000000D01*
G01*
X297323346Y-44006460D02*
X297323346Y-56006460D01*
X296323346Y-57006460D02*
X282323346Y-57006460D01*
X282323346Y-43006460D02*
X296323346Y-43006460D01*
X297323346Y-56006460D02*
G75*
G02X296323346Y-57006460I-1000000J0D01*
G01*
X281323346Y-44006460D02*
G75*
G02X282323346Y-43006460I1000000J0D01*
G01*
X282323346Y-57006460D02*
G75*
G02X281323346Y-56006460I0J1000000D01*
G01*
X262273330Y-44006460D02*
X262273330Y-56006460D01*
X277273330Y-43006460D02*
G75*
G02X278273330Y-44006460I0J-1000000D01*
G01*
X278273330Y-44006460D02*
X278273330Y-56006460D01*
X277273330Y-57006460D02*
X263273330Y-57006460D01*
X263273330Y-43006460D02*
X277273330Y-43006460D01*
X278273330Y-56006460D02*
G75*
G02X277273330Y-57006460I-1000000J0D01*
G01*
X262273330Y-44006460D02*
G75*
G02X263273330Y-43006460I1000000J0D01*
G01*
X263273330Y-57006460D02*
G75*
G02X262273330Y-56006460I0J1000000D01*
G01*
X243223314Y-44006460D02*
X243223314Y-56006460D01*
X258223314Y-43006460D02*
G75*
G02X259223314Y-44006460I0J-1000000D01*
G01*
X259223314Y-44006460D02*
X259223314Y-56006460D01*
X258223314Y-57006460D02*
X244223314Y-57006460D01*
X244223314Y-43006460D02*
X258223314Y-43006460D01*
X259223314Y-56006460D02*
G75*
G02X258223314Y-57006460I-1000000J0D01*
G01*
X243223314Y-44006460D02*
G75*
G02X244223314Y-43006460I1000000J0D01*
G01*
X244223314Y-57006460D02*
G75*
G02X243223314Y-56006460I0J1000000D01*
G01*
X224172850Y-44006460D02*
X224172850Y-56006460D01*
X239172850Y-43006460D02*
G75*
G02X240172850Y-44006460I0J-1000000D01*
G01*
X240172850Y-44006460D02*
X240172850Y-56006460D01*
X239172850Y-57006460D02*
X225172850Y-57006460D01*
X225172850Y-43006460D02*
X239172850Y-43006460D01*
X240172850Y-56006460D02*
G75*
G02X239172850Y-57006460I-1000000J0D01*
G01*
X224172850Y-44006460D02*
G75*
G02X225172850Y-43006460I1000000J0D01*
G01*
X225172850Y-57006460D02*
G75*
G02X224172850Y-56006460I0J1000000D01*
G01*
X205122770Y-44006460D02*
X205122770Y-56006460D01*
X220122770Y-43006460D02*
G75*
G02X221122770Y-44006460I0J-1000000D01*
G01*
X221122770Y-44006460D02*
X221122770Y-56006460D01*
X220122770Y-57006460D02*
X206122770Y-57006460D01*
X206122770Y-43006460D02*
X220122770Y-43006460D01*
X221122770Y-56006460D02*
G75*
G02X220122770Y-57006460I-1000000J0D01*
G01*
X205122770Y-44006460D02*
G75*
G02X206122770Y-43006460I1000000J0D01*
G01*
X206122770Y-57006460D02*
G75*
G02X205122770Y-56006460I0J1000000D01*
G01*
X186072690Y-44006460D02*
X186072690Y-56006460D01*
X201072690Y-43006460D02*
G75*
G02X202072690Y-44006460I0J-1000000D01*
G01*
X202072690Y-44006460D02*
X202072690Y-56006460D01*
X201072690Y-57006460D02*
X187072690Y-57006460D01*
X187072690Y-43006460D02*
X201072690Y-43006460D01*
X202072690Y-56006460D02*
G75*
G02X201072690Y-57006460I-1000000J0D01*
G01*
X186072690Y-44006460D02*
G75*
G02X187072690Y-43006460I1000000J0D01*
G01*
X187072690Y-57006460D02*
G75*
G02X186072690Y-56006460I0J1000000D01*
G01*
X167022610Y-44006460D02*
X167022610Y-56006460D01*
X182022610Y-43006460D02*
G75*
G02X183022610Y-44006460I0J-1000000D01*
G01*
X183022610Y-44006460D02*
X183022610Y-56006460D01*
X182022610Y-57006460D02*
X168022610Y-57006460D01*
X168022610Y-43006460D02*
X182022610Y-43006460D01*
X183022610Y-56006460D02*
G75*
G02X182022610Y-57006460I-1000000J0D01*
G01*
X167022610Y-44006460D02*
G75*
G02X168022610Y-43006460I1000000J0D01*
G01*
X168022610Y-57006460D02*
G75*
G02X167022610Y-56006460I0J1000000D01*
G01*
X147972530Y-44006460D02*
X147972530Y-56006460D01*
X162972530Y-43006460D02*
G75*
G02X163972530Y-44006460I0J-1000000D01*
G01*
X163972530Y-44006460D02*
X163972530Y-56006460D01*
X162972530Y-57006460D02*
X148972530Y-57006460D01*
X148972530Y-43006460D02*
X162972530Y-43006460D01*
X163972530Y-56006460D02*
G75*
G02X162972530Y-57006460I-1000000J0D01*
G01*
X147972530Y-44006460D02*
G75*
G02X148972530Y-43006460I1000000J0D01*
G01*
X148972530Y-57006460D02*
G75*
G02X147972530Y-56006460I0J1000000D01*
G01*
D11*
X389335890Y-118467340D03*
X155973586Y-38695532D03*
X155973586Y-118467340D03*
X233364146Y-38695532D03*
X233364146Y-118454889D03*
X311945330Y-38695532D03*
X311945330Y-118467340D03*
X389335890Y-38695532D03*
M02*
