G04 #@! TF.GenerationSoftware,KiCad,Pcbnew,(5.1.4-0)*
G04 #@! TF.CreationDate,2021-10-31T10:27:05-05:00*
G04 #@! TF.ProjectId,top_plate,746f705f-706c-4617-9465-2e6b69636164,rev?*
G04 #@! TF.SameCoordinates,Original*
G04 #@! TF.FileFunction,Soldermask,Bot*
G04 #@! TF.FilePolarity,Negative*
%FSLAX46Y46*%
G04 Gerber Fmt 4.6, Leading zero omitted, Abs format (unit mm)*
G04 Created by KiCad (PCBNEW (5.1.4-0)) date 2021-10-31 10:27:05*
%MOMM*%
%LPD*%
G04 APERTURE LIST*
%ADD10C,2.000000*%
%ADD11C,0.120000*%
%ADD12C,3.500000*%
%ADD13C,0.100000*%
%ADD14C,0.950000*%
G04 APERTURE END LIST*
D10*
X383436010Y-58106460D02*
G75*
G02X382436010Y-57106460I0J1000000D01*
G01*
X382436010Y-43106460D02*
G75*
G02X383436010Y-42106460I1000000J0D01*
G01*
X395436010Y-42106460D02*
G75*
G02X396436010Y-43106460I0J-1000000D01*
G01*
X396436010Y-57106460D02*
G75*
G02X395436010Y-58106460I-1000000J0D01*
G01*
X383436010Y-58106460D02*
X395436010Y-58106460D01*
X382436010Y-57106460D02*
X382436010Y-43106460D01*
X383436010Y-42106460D02*
X395436010Y-42106460D01*
X396436010Y-57106460D02*
X396436010Y-43106460D01*
X182522610Y-56006460D02*
G75*
G02X181522610Y-57006460I-1000000J0D01*
G01*
X181522610Y-57006460D02*
X168522610Y-57006460D01*
X182522610Y-44006460D02*
X182522610Y-56006460D01*
X181522610Y-43006460D02*
G75*
G02X182522610Y-44006460I0J-1000000D01*
G01*
X168522610Y-57006460D02*
G75*
G02X167522610Y-56006460I0J1000000D01*
G01*
X167522610Y-44006460D02*
G75*
G02X168522610Y-43006460I1000000J0D01*
G01*
X168522610Y-43006460D02*
X181522610Y-43006460D01*
X167522610Y-44006460D02*
X167522610Y-56006460D01*
D11*
X182322610Y-52906460D02*
X182722610Y-52906460D01*
X182822610Y-47106460D02*
X182322610Y-47106460D01*
D10*
X315873362Y-56006460D02*
G75*
G02X314873362Y-57006460I-1000000J0D01*
G01*
X314873362Y-57006460D02*
X301873362Y-57006460D01*
X315873362Y-44006460D02*
X315873362Y-56006460D01*
X314873362Y-43006460D02*
G75*
G02X315873362Y-44006460I0J-1000000D01*
G01*
X301873362Y-57006460D02*
G75*
G02X300873362Y-56006460I0J1000000D01*
G01*
X300873362Y-44006460D02*
G75*
G02X301873362Y-43006460I1000000J0D01*
G01*
X301873362Y-43006460D02*
X314873362Y-43006460D01*
X300873362Y-44006460D02*
X300873362Y-56006460D01*
D11*
X315673362Y-52906460D02*
X316073362Y-52906460D01*
X316173362Y-47106460D02*
X315673362Y-47106460D01*
D10*
X396836010Y-113156700D02*
G75*
G02X395836010Y-114156700I-1000000J0D01*
G01*
X395836010Y-114156700D02*
X382836010Y-114156700D01*
X396836010Y-101156700D02*
X396836010Y-113156700D01*
X395836010Y-100156700D02*
G75*
G02X396836010Y-101156700I0J-1000000D01*
G01*
X382836010Y-114156700D02*
G75*
G02X381836010Y-113156700I0J1000000D01*
G01*
X381836010Y-101156700D02*
G75*
G02X382836010Y-100156700I1000000J0D01*
G01*
X382836010Y-100156700D02*
X395836010Y-100156700D01*
X381836010Y-101156700D02*
X381836010Y-113156700D01*
D11*
X396636010Y-110056700D02*
X397036010Y-110056700D01*
X397136010Y-104256700D02*
X396636010Y-104256700D01*
D10*
X396835890Y-94106428D02*
G75*
G02X395835890Y-95106428I-1000000J0D01*
G01*
X395835890Y-95106428D02*
X382835890Y-95106428D01*
X396835890Y-82106428D02*
X396835890Y-94106428D01*
X395835890Y-81106428D02*
G75*
G02X396835890Y-82106428I0J-1000000D01*
G01*
X382835890Y-95106428D02*
G75*
G02X381835890Y-94106428I0J1000000D01*
G01*
X381835890Y-82106428D02*
G75*
G02X382835890Y-81106428I1000000J0D01*
G01*
X382835890Y-81106428D02*
X395835890Y-81106428D01*
X381835890Y-82106428D02*
X381835890Y-94106428D01*
D11*
X396635890Y-91006428D02*
X397035890Y-91006428D01*
X397135890Y-85206428D02*
X396635890Y-85206428D01*
D10*
X396835890Y-75056444D02*
G75*
G02X395835890Y-76056444I-1000000J0D01*
G01*
X395835890Y-76056444D02*
X382835890Y-76056444D01*
X396835890Y-63056444D02*
X396835890Y-75056444D01*
X395835890Y-62056444D02*
G75*
G02X396835890Y-63056444I0J-1000000D01*
G01*
X382835890Y-76056444D02*
G75*
G02X381835890Y-75056444I0J1000000D01*
G01*
X381835890Y-63056444D02*
G75*
G02X382835890Y-62056444I1000000J0D01*
G01*
X382835890Y-62056444D02*
X395835890Y-62056444D01*
X381835890Y-63056444D02*
X381835890Y-75056444D01*
D11*
X396635890Y-71956444D02*
X397035890Y-71956444D01*
X397135890Y-66156444D02*
X396635890Y-66156444D01*
D10*
X373023410Y-113156700D02*
G75*
G02X372023410Y-114156700I-1000000J0D01*
G01*
X372023410Y-114156700D02*
X359023410Y-114156700D01*
X373023410Y-101156700D02*
X373023410Y-113156700D01*
X372023410Y-100156700D02*
G75*
G02X373023410Y-101156700I0J-1000000D01*
G01*
X359023410Y-114156700D02*
G75*
G02X358023410Y-113156700I0J1000000D01*
G01*
X358023410Y-101156700D02*
G75*
G02X359023410Y-100156700I1000000J0D01*
G01*
X359023410Y-100156700D02*
X372023410Y-100156700D01*
X358023410Y-101156700D02*
X358023410Y-113156700D01*
D11*
X372823410Y-110056700D02*
X373223410Y-110056700D01*
X373323410Y-104256700D02*
X372823410Y-104256700D01*
D10*
X353973330Y-113160000D02*
G75*
G02X352973330Y-114160000I-1000000J0D01*
G01*
X352973330Y-114160000D02*
X339973330Y-114160000D01*
X353973330Y-101160000D02*
X353973330Y-113160000D01*
X352973330Y-100160000D02*
G75*
G02X353973330Y-101160000I0J-1000000D01*
G01*
X339973330Y-114160000D02*
G75*
G02X338973330Y-113160000I0J1000000D01*
G01*
X338973330Y-101160000D02*
G75*
G02X339973330Y-100160000I1000000J0D01*
G01*
X339973330Y-100160000D02*
X352973330Y-100160000D01*
X338973330Y-101160000D02*
X338973330Y-113160000D01*
D11*
X353773330Y-110060000D02*
X354173330Y-110060000D01*
X354273330Y-104260000D02*
X353773330Y-104260000D01*
D10*
X334923250Y-113156700D02*
G75*
G02X333923250Y-114156700I-1000000J0D01*
G01*
X333923250Y-114156700D02*
X320923250Y-114156700D01*
X334923250Y-101156700D02*
X334923250Y-113156700D01*
X333923250Y-100156700D02*
G75*
G02X334923250Y-101156700I0J-1000000D01*
G01*
X320923250Y-114156700D02*
G75*
G02X319923250Y-113156700I0J1000000D01*
G01*
X319923250Y-101156700D02*
G75*
G02X320923250Y-100156700I1000000J0D01*
G01*
X320923250Y-100156700D02*
X333923250Y-100156700D01*
X319923250Y-101156700D02*
X319923250Y-113156700D01*
D11*
X334723250Y-110056700D02*
X335123250Y-110056700D01*
X335223250Y-104256700D02*
X334723250Y-104256700D01*
D10*
X315873170Y-113156700D02*
G75*
G02X314873170Y-114156700I-1000000J0D01*
G01*
X314873170Y-114156700D02*
X301873170Y-114156700D01*
X315873170Y-101156700D02*
X315873170Y-113156700D01*
X314873170Y-100156700D02*
G75*
G02X315873170Y-101156700I0J-1000000D01*
G01*
X301873170Y-114156700D02*
G75*
G02X300873170Y-113156700I0J1000000D01*
G01*
X300873170Y-101156700D02*
G75*
G02X301873170Y-100156700I1000000J0D01*
G01*
X301873170Y-100156700D02*
X314873170Y-100156700D01*
X300873170Y-101156700D02*
X300873170Y-113156700D01*
D11*
X315673170Y-110056700D02*
X316073170Y-110056700D01*
X316173170Y-104256700D02*
X315673170Y-104256700D01*
D10*
X296823090Y-113156700D02*
G75*
G02X295823090Y-114156700I-1000000J0D01*
G01*
X295823090Y-114156700D02*
X282823090Y-114156700D01*
X296823090Y-101156700D02*
X296823090Y-113156700D01*
X295823090Y-100156700D02*
G75*
G02X296823090Y-101156700I0J-1000000D01*
G01*
X282823090Y-114156700D02*
G75*
G02X281823090Y-113156700I0J1000000D01*
G01*
X281823090Y-101156700D02*
G75*
G02X282823090Y-100156700I1000000J0D01*
G01*
X282823090Y-100156700D02*
X295823090Y-100156700D01*
X281823090Y-101156700D02*
X281823090Y-113156700D01*
D11*
X296623090Y-110056700D02*
X297023090Y-110056700D01*
X297123090Y-104256700D02*
X296623090Y-104256700D01*
D10*
X277773010Y-113156700D02*
G75*
G02X276773010Y-114156700I-1000000J0D01*
G01*
X276773010Y-114156700D02*
X263773010Y-114156700D01*
X277773010Y-101156700D02*
X277773010Y-113156700D01*
X276773010Y-100156700D02*
G75*
G02X277773010Y-101156700I0J-1000000D01*
G01*
X263773010Y-114156700D02*
G75*
G02X262773010Y-113156700I0J1000000D01*
G01*
X262773010Y-101156700D02*
G75*
G02X263773010Y-100156700I1000000J0D01*
G01*
X263773010Y-100156700D02*
X276773010Y-100156700D01*
X262773010Y-101156700D02*
X262773010Y-113156700D01*
D11*
X277573010Y-110056700D02*
X277973010Y-110056700D01*
X278073010Y-104256700D02*
X277573010Y-104256700D01*
D10*
X258722930Y-113156700D02*
G75*
G02X257722930Y-114156700I-1000000J0D01*
G01*
X257722930Y-114156700D02*
X244722930Y-114156700D01*
X258722930Y-101156700D02*
X258722930Y-113156700D01*
X257722930Y-100156700D02*
G75*
G02X258722930Y-101156700I0J-1000000D01*
G01*
X244722930Y-114156700D02*
G75*
G02X243722930Y-113156700I0J1000000D01*
G01*
X243722930Y-101156700D02*
G75*
G02X244722930Y-100156700I1000000J0D01*
G01*
X244722930Y-100156700D02*
X257722930Y-100156700D01*
X243722930Y-101156700D02*
X243722930Y-113156700D01*
D11*
X258522930Y-110056700D02*
X258922930Y-110056700D01*
X259022930Y-104256700D02*
X258522930Y-104256700D01*
D10*
X239672850Y-113156700D02*
G75*
G02X238672850Y-114156700I-1000000J0D01*
G01*
X238672850Y-114156700D02*
X225672850Y-114156700D01*
X239672850Y-101156700D02*
X239672850Y-113156700D01*
X238672850Y-100156700D02*
G75*
G02X239672850Y-101156700I0J-1000000D01*
G01*
X225672850Y-114156700D02*
G75*
G02X224672850Y-113156700I0J1000000D01*
G01*
X224672850Y-101156700D02*
G75*
G02X225672850Y-100156700I1000000J0D01*
G01*
X225672850Y-100156700D02*
X238672850Y-100156700D01*
X224672850Y-101156700D02*
X224672850Y-113156700D01*
D11*
X239472850Y-110056700D02*
X239872850Y-110056700D01*
X239972850Y-104256700D02*
X239472850Y-104256700D01*
D10*
X220622770Y-113156700D02*
G75*
G02X219622770Y-114156700I-1000000J0D01*
G01*
X219622770Y-114156700D02*
X206622770Y-114156700D01*
X220622770Y-101156700D02*
X220622770Y-113156700D01*
X219622770Y-100156700D02*
G75*
G02X220622770Y-101156700I0J-1000000D01*
G01*
X206622770Y-114156700D02*
G75*
G02X205622770Y-113156700I0J1000000D01*
G01*
X205622770Y-101156700D02*
G75*
G02X206622770Y-100156700I1000000J0D01*
G01*
X206622770Y-100156700D02*
X219622770Y-100156700D01*
X205622770Y-101156700D02*
X205622770Y-113156700D01*
D11*
X220422770Y-110056700D02*
X220822770Y-110056700D01*
X220922770Y-104256700D02*
X220422770Y-104256700D01*
D10*
X201572690Y-113156700D02*
G75*
G02X200572690Y-114156700I-1000000J0D01*
G01*
X200572690Y-114156700D02*
X187572690Y-114156700D01*
X201572690Y-101156700D02*
X201572690Y-113156700D01*
X200572690Y-100156700D02*
G75*
G02X201572690Y-101156700I0J-1000000D01*
G01*
X187572690Y-114156700D02*
G75*
G02X186572690Y-113156700I0J1000000D01*
G01*
X186572690Y-101156700D02*
G75*
G02X187572690Y-100156700I1000000J0D01*
G01*
X187572690Y-100156700D02*
X200572690Y-100156700D01*
X186572690Y-101156700D02*
X186572690Y-113156700D01*
D11*
X201372690Y-110056700D02*
X201772690Y-110056700D01*
X201872690Y-104256700D02*
X201372690Y-104256700D01*
D10*
X182522610Y-113156700D02*
G75*
G02X181522610Y-114156700I-1000000J0D01*
G01*
X181522610Y-114156700D02*
X168522610Y-114156700D01*
X182522610Y-101156700D02*
X182522610Y-113156700D01*
X181522610Y-100156700D02*
G75*
G02X182522610Y-101156700I0J-1000000D01*
G01*
X168522610Y-114156700D02*
G75*
G02X167522610Y-113156700I0J1000000D01*
G01*
X167522610Y-101156700D02*
G75*
G02X168522610Y-100156700I1000000J0D01*
G01*
X168522610Y-100156700D02*
X181522610Y-100156700D01*
X167522610Y-101156700D02*
X167522610Y-113156700D01*
D11*
X182322610Y-110056700D02*
X182722610Y-110056700D01*
X182822610Y-104256700D02*
X182322610Y-104256700D01*
D10*
X163472530Y-113156700D02*
G75*
G02X162472530Y-114156700I-1000000J0D01*
G01*
X162472530Y-114156700D02*
X149472530Y-114156700D01*
X163472530Y-101156700D02*
X163472530Y-113156700D01*
X162472530Y-100156700D02*
G75*
G02X163472530Y-101156700I0J-1000000D01*
G01*
X149472530Y-114156700D02*
G75*
G02X148472530Y-113156700I0J1000000D01*
G01*
X148472530Y-101156700D02*
G75*
G02X149472530Y-100156700I1000000J0D01*
G01*
X149472530Y-100156700D02*
X162472530Y-100156700D01*
X148472530Y-101156700D02*
X148472530Y-113156700D01*
D11*
X163272530Y-110056700D02*
X163672530Y-110056700D01*
X163772530Y-104256700D02*
X163272530Y-104256700D01*
D10*
X373023410Y-94106620D02*
G75*
G02X372023410Y-95106620I-1000000J0D01*
G01*
X372023410Y-95106620D02*
X359023410Y-95106620D01*
X373023410Y-82106620D02*
X373023410Y-94106620D01*
X372023410Y-81106620D02*
G75*
G02X373023410Y-82106620I0J-1000000D01*
G01*
X359023410Y-95106620D02*
G75*
G02X358023410Y-94106620I0J1000000D01*
G01*
X358023410Y-82106620D02*
G75*
G02X359023410Y-81106620I1000000J0D01*
G01*
X359023410Y-81106620D02*
X372023410Y-81106620D01*
X358023410Y-82106620D02*
X358023410Y-94106620D01*
D11*
X372823410Y-91006620D02*
X373223410Y-91006620D01*
X373323410Y-85206620D02*
X372823410Y-85206620D01*
D10*
X353973330Y-94106620D02*
G75*
G02X352973330Y-95106620I-1000000J0D01*
G01*
X352973330Y-95106620D02*
X339973330Y-95106620D01*
X353973330Y-82106620D02*
X353973330Y-94106620D01*
X352973330Y-81106620D02*
G75*
G02X353973330Y-82106620I0J-1000000D01*
G01*
X339973330Y-95106620D02*
G75*
G02X338973330Y-94106620I0J1000000D01*
G01*
X338973330Y-82106620D02*
G75*
G02X339973330Y-81106620I1000000J0D01*
G01*
X339973330Y-81106620D02*
X352973330Y-81106620D01*
X338973330Y-82106620D02*
X338973330Y-94106620D01*
D11*
X353773330Y-91006620D02*
X354173330Y-91006620D01*
X354273330Y-85206620D02*
X353773330Y-85206620D01*
D10*
X334923250Y-94106620D02*
G75*
G02X333923250Y-95106620I-1000000J0D01*
G01*
X333923250Y-95106620D02*
X320923250Y-95106620D01*
X334923250Y-82106620D02*
X334923250Y-94106620D01*
X333923250Y-81106620D02*
G75*
G02X334923250Y-82106620I0J-1000000D01*
G01*
X320923250Y-95106620D02*
G75*
G02X319923250Y-94106620I0J1000000D01*
G01*
X319923250Y-82106620D02*
G75*
G02X320923250Y-81106620I1000000J0D01*
G01*
X320923250Y-81106620D02*
X333923250Y-81106620D01*
X319923250Y-82106620D02*
X319923250Y-94106620D01*
D11*
X334723250Y-91006620D02*
X335123250Y-91006620D01*
X335223250Y-85206620D02*
X334723250Y-85206620D01*
D10*
X315873170Y-94106620D02*
G75*
G02X314873170Y-95106620I-1000000J0D01*
G01*
X314873170Y-95106620D02*
X301873170Y-95106620D01*
X315873170Y-82106620D02*
X315873170Y-94106620D01*
X314873170Y-81106620D02*
G75*
G02X315873170Y-82106620I0J-1000000D01*
G01*
X301873170Y-95106620D02*
G75*
G02X300873170Y-94106620I0J1000000D01*
G01*
X300873170Y-82106620D02*
G75*
G02X301873170Y-81106620I1000000J0D01*
G01*
X301873170Y-81106620D02*
X314873170Y-81106620D01*
X300873170Y-82106620D02*
X300873170Y-94106620D01*
D11*
X315673170Y-91006620D02*
X316073170Y-91006620D01*
X316173170Y-85206620D02*
X315673170Y-85206620D01*
D10*
X296823090Y-94106620D02*
G75*
G02X295823090Y-95106620I-1000000J0D01*
G01*
X295823090Y-95106620D02*
X282823090Y-95106620D01*
X296823090Y-82106620D02*
X296823090Y-94106620D01*
X295823090Y-81106620D02*
G75*
G02X296823090Y-82106620I0J-1000000D01*
G01*
X282823090Y-95106620D02*
G75*
G02X281823090Y-94106620I0J1000000D01*
G01*
X281823090Y-82106620D02*
G75*
G02X282823090Y-81106620I1000000J0D01*
G01*
X282823090Y-81106620D02*
X295823090Y-81106620D01*
X281823090Y-82106620D02*
X281823090Y-94106620D01*
D11*
X296623090Y-91006620D02*
X297023090Y-91006620D01*
X297123090Y-85206620D02*
X296623090Y-85206620D01*
D10*
X277773010Y-94106620D02*
G75*
G02X276773010Y-95106620I-1000000J0D01*
G01*
X276773010Y-95106620D02*
X263773010Y-95106620D01*
X277773010Y-82106620D02*
X277773010Y-94106620D01*
X276773010Y-81106620D02*
G75*
G02X277773010Y-82106620I0J-1000000D01*
G01*
X263773010Y-95106620D02*
G75*
G02X262773010Y-94106620I0J1000000D01*
G01*
X262773010Y-82106620D02*
G75*
G02X263773010Y-81106620I1000000J0D01*
G01*
X263773010Y-81106620D02*
X276773010Y-81106620D01*
X262773010Y-82106620D02*
X262773010Y-94106620D01*
D11*
X277573010Y-91006620D02*
X277973010Y-91006620D01*
X278073010Y-85206620D02*
X277573010Y-85206620D01*
D10*
X258722930Y-94106620D02*
G75*
G02X257722930Y-95106620I-1000000J0D01*
G01*
X257722930Y-95106620D02*
X244722930Y-95106620D01*
X258722930Y-82106620D02*
X258722930Y-94106620D01*
X257722930Y-81106620D02*
G75*
G02X258722930Y-82106620I0J-1000000D01*
G01*
X244722930Y-95106620D02*
G75*
G02X243722930Y-94106620I0J1000000D01*
G01*
X243722930Y-82106620D02*
G75*
G02X244722930Y-81106620I1000000J0D01*
G01*
X244722930Y-81106620D02*
X257722930Y-81106620D01*
X243722930Y-82106620D02*
X243722930Y-94106620D01*
D11*
X258522930Y-91006620D02*
X258922930Y-91006620D01*
X259022930Y-85206620D02*
X258522930Y-85206620D01*
D10*
X239672850Y-94106620D02*
G75*
G02X238672850Y-95106620I-1000000J0D01*
G01*
X238672850Y-95106620D02*
X225672850Y-95106620D01*
X239672850Y-82106620D02*
X239672850Y-94106620D01*
X238672850Y-81106620D02*
G75*
G02X239672850Y-82106620I0J-1000000D01*
G01*
X225672850Y-95106620D02*
G75*
G02X224672850Y-94106620I0J1000000D01*
G01*
X224672850Y-82106620D02*
G75*
G02X225672850Y-81106620I1000000J0D01*
G01*
X225672850Y-81106620D02*
X238672850Y-81106620D01*
X224672850Y-82106620D02*
X224672850Y-94106620D01*
D11*
X239472850Y-91006620D02*
X239872850Y-91006620D01*
X239972850Y-85206620D02*
X239472850Y-85206620D01*
D10*
X220622770Y-94106620D02*
G75*
G02X219622770Y-95106620I-1000000J0D01*
G01*
X219622770Y-95106620D02*
X206622770Y-95106620D01*
X220622770Y-82106620D02*
X220622770Y-94106620D01*
X219622770Y-81106620D02*
G75*
G02X220622770Y-82106620I0J-1000000D01*
G01*
X206622770Y-95106620D02*
G75*
G02X205622770Y-94106620I0J1000000D01*
G01*
X205622770Y-82106620D02*
G75*
G02X206622770Y-81106620I1000000J0D01*
G01*
X206622770Y-81106620D02*
X219622770Y-81106620D01*
X205622770Y-82106620D02*
X205622770Y-94106620D01*
D11*
X220422770Y-91006620D02*
X220822770Y-91006620D01*
X220922770Y-85206620D02*
X220422770Y-85206620D01*
D10*
X201572690Y-94106620D02*
G75*
G02X200572690Y-95106620I-1000000J0D01*
G01*
X200572690Y-95106620D02*
X187572690Y-95106620D01*
X201572690Y-82106620D02*
X201572690Y-94106620D01*
X200572690Y-81106620D02*
G75*
G02X201572690Y-82106620I0J-1000000D01*
G01*
X187572690Y-95106620D02*
G75*
G02X186572690Y-94106620I0J1000000D01*
G01*
X186572690Y-82106620D02*
G75*
G02X187572690Y-81106620I1000000J0D01*
G01*
X187572690Y-81106620D02*
X200572690Y-81106620D01*
X186572690Y-82106620D02*
X186572690Y-94106620D01*
D11*
X201372690Y-91006620D02*
X201772690Y-91006620D01*
X201872690Y-85206620D02*
X201372690Y-85206620D01*
D10*
X182522610Y-94106620D02*
G75*
G02X181522610Y-95106620I-1000000J0D01*
G01*
X181522610Y-95106620D02*
X168522610Y-95106620D01*
X182522610Y-82106620D02*
X182522610Y-94106620D01*
X181522610Y-81106620D02*
G75*
G02X182522610Y-82106620I0J-1000000D01*
G01*
X168522610Y-95106620D02*
G75*
G02X167522610Y-94106620I0J1000000D01*
G01*
X167522610Y-82106620D02*
G75*
G02X168522610Y-81106620I1000000J0D01*
G01*
X168522610Y-81106620D02*
X181522610Y-81106620D01*
X167522610Y-82106620D02*
X167522610Y-94106620D01*
D11*
X182322610Y-91006620D02*
X182722610Y-91006620D01*
X182822610Y-85206620D02*
X182322610Y-85206620D01*
D10*
X163472530Y-94106620D02*
G75*
G02X162472530Y-95106620I-1000000J0D01*
G01*
X162472530Y-95106620D02*
X149472530Y-95106620D01*
X163472530Y-82106620D02*
X163472530Y-94106620D01*
X162472530Y-81106620D02*
G75*
G02X163472530Y-82106620I0J-1000000D01*
G01*
X149472530Y-95106620D02*
G75*
G02X148472530Y-94106620I0J1000000D01*
G01*
X148472530Y-82106620D02*
G75*
G02X149472530Y-81106620I1000000J0D01*
G01*
X149472530Y-81106620D02*
X162472530Y-81106620D01*
X148472530Y-82106620D02*
X148472530Y-94106620D01*
D11*
X163272530Y-91006620D02*
X163672530Y-91006620D01*
X163772530Y-85206620D02*
X163272530Y-85206620D01*
D10*
X373023410Y-75056540D02*
G75*
G02X372023410Y-76056540I-1000000J0D01*
G01*
X372023410Y-76056540D02*
X359023410Y-76056540D01*
X373023410Y-63056540D02*
X373023410Y-75056540D01*
X372023410Y-62056540D02*
G75*
G02X373023410Y-63056540I0J-1000000D01*
G01*
X359023410Y-76056540D02*
G75*
G02X358023410Y-75056540I0J1000000D01*
G01*
X358023410Y-63056540D02*
G75*
G02X359023410Y-62056540I1000000J0D01*
G01*
X359023410Y-62056540D02*
X372023410Y-62056540D01*
X358023410Y-63056540D02*
X358023410Y-75056540D01*
D11*
X372823410Y-71956540D02*
X373223410Y-71956540D01*
X373323410Y-66156540D02*
X372823410Y-66156540D01*
D10*
X353973330Y-75056540D02*
G75*
G02X352973330Y-76056540I-1000000J0D01*
G01*
X352973330Y-76056540D02*
X339973330Y-76056540D01*
X353973330Y-63056540D02*
X353973330Y-75056540D01*
X352973330Y-62056540D02*
G75*
G02X353973330Y-63056540I0J-1000000D01*
G01*
X339973330Y-76056540D02*
G75*
G02X338973330Y-75056540I0J1000000D01*
G01*
X338973330Y-63056540D02*
G75*
G02X339973330Y-62056540I1000000J0D01*
G01*
X339973330Y-62056540D02*
X352973330Y-62056540D01*
X338973330Y-63056540D02*
X338973330Y-75056540D01*
D11*
X353773330Y-71956540D02*
X354173330Y-71956540D01*
X354273330Y-66156540D02*
X353773330Y-66156540D01*
D10*
X334923250Y-75056540D02*
G75*
G02X333923250Y-76056540I-1000000J0D01*
G01*
X333923250Y-76056540D02*
X320923250Y-76056540D01*
X334923250Y-63056540D02*
X334923250Y-75056540D01*
X333923250Y-62056540D02*
G75*
G02X334923250Y-63056540I0J-1000000D01*
G01*
X320923250Y-76056540D02*
G75*
G02X319923250Y-75056540I0J1000000D01*
G01*
X319923250Y-63056540D02*
G75*
G02X320923250Y-62056540I1000000J0D01*
G01*
X320923250Y-62056540D02*
X333923250Y-62056540D01*
X319923250Y-63056540D02*
X319923250Y-75056540D01*
D11*
X334723250Y-71956540D02*
X335123250Y-71956540D01*
X335223250Y-66156540D02*
X334723250Y-66156540D01*
D10*
X315873170Y-75056540D02*
G75*
G02X314873170Y-76056540I-1000000J0D01*
G01*
X314873170Y-76056540D02*
X301873170Y-76056540D01*
X315873170Y-63056540D02*
X315873170Y-75056540D01*
X314873170Y-62056540D02*
G75*
G02X315873170Y-63056540I0J-1000000D01*
G01*
X301873170Y-76056540D02*
G75*
G02X300873170Y-75056540I0J1000000D01*
G01*
X300873170Y-63056540D02*
G75*
G02X301873170Y-62056540I1000000J0D01*
G01*
X301873170Y-62056540D02*
X314873170Y-62056540D01*
X300873170Y-63056540D02*
X300873170Y-75056540D01*
D11*
X315673170Y-71956540D02*
X316073170Y-71956540D01*
X316173170Y-66156540D02*
X315673170Y-66156540D01*
D10*
X296823090Y-75056540D02*
G75*
G02X295823090Y-76056540I-1000000J0D01*
G01*
X295823090Y-76056540D02*
X282823090Y-76056540D01*
X296823090Y-63056540D02*
X296823090Y-75056540D01*
X295823090Y-62056540D02*
G75*
G02X296823090Y-63056540I0J-1000000D01*
G01*
X282823090Y-76056540D02*
G75*
G02X281823090Y-75056540I0J1000000D01*
G01*
X281823090Y-63056540D02*
G75*
G02X282823090Y-62056540I1000000J0D01*
G01*
X282823090Y-62056540D02*
X295823090Y-62056540D01*
X281823090Y-63056540D02*
X281823090Y-75056540D01*
D11*
X296623090Y-71956540D02*
X297023090Y-71956540D01*
X297123090Y-66156540D02*
X296623090Y-66156540D01*
D10*
X277773010Y-75056540D02*
G75*
G02X276773010Y-76056540I-1000000J0D01*
G01*
X276773010Y-76056540D02*
X263773010Y-76056540D01*
X277773010Y-63056540D02*
X277773010Y-75056540D01*
X276773010Y-62056540D02*
G75*
G02X277773010Y-63056540I0J-1000000D01*
G01*
X263773010Y-76056540D02*
G75*
G02X262773010Y-75056540I0J1000000D01*
G01*
X262773010Y-63056540D02*
G75*
G02X263773010Y-62056540I1000000J0D01*
G01*
X263773010Y-62056540D02*
X276773010Y-62056540D01*
X262773010Y-63056540D02*
X262773010Y-75056540D01*
D11*
X277573010Y-71956540D02*
X277973010Y-71956540D01*
X278073010Y-66156540D02*
X277573010Y-66156540D01*
D10*
X258722930Y-75056540D02*
G75*
G02X257722930Y-76056540I-1000000J0D01*
G01*
X257722930Y-76056540D02*
X244722930Y-76056540D01*
X258722930Y-63056540D02*
X258722930Y-75056540D01*
X257722930Y-62056540D02*
G75*
G02X258722930Y-63056540I0J-1000000D01*
G01*
X244722930Y-76056540D02*
G75*
G02X243722930Y-75056540I0J1000000D01*
G01*
X243722930Y-63056540D02*
G75*
G02X244722930Y-62056540I1000000J0D01*
G01*
X244722930Y-62056540D02*
X257722930Y-62056540D01*
X243722930Y-63056540D02*
X243722930Y-75056540D01*
D11*
X258522930Y-71956540D02*
X258922930Y-71956540D01*
X259022930Y-66156540D02*
X258522930Y-66156540D01*
D10*
X239672850Y-75056540D02*
G75*
G02X238672850Y-76056540I-1000000J0D01*
G01*
X238672850Y-76056540D02*
X225672850Y-76056540D01*
X239672850Y-63056540D02*
X239672850Y-75056540D01*
X238672850Y-62056540D02*
G75*
G02X239672850Y-63056540I0J-1000000D01*
G01*
X225672850Y-76056540D02*
G75*
G02X224672850Y-75056540I0J1000000D01*
G01*
X224672850Y-63056540D02*
G75*
G02X225672850Y-62056540I1000000J0D01*
G01*
X225672850Y-62056540D02*
X238672850Y-62056540D01*
X224672850Y-63056540D02*
X224672850Y-75056540D01*
D11*
X239472850Y-71956540D02*
X239872850Y-71956540D01*
X239972850Y-66156540D02*
X239472850Y-66156540D01*
D10*
X220622770Y-75056540D02*
G75*
G02X219622770Y-76056540I-1000000J0D01*
G01*
X219622770Y-76056540D02*
X206622770Y-76056540D01*
X220622770Y-63056540D02*
X220622770Y-75056540D01*
X219622770Y-62056540D02*
G75*
G02X220622770Y-63056540I0J-1000000D01*
G01*
X206622770Y-76056540D02*
G75*
G02X205622770Y-75056540I0J1000000D01*
G01*
X205622770Y-63056540D02*
G75*
G02X206622770Y-62056540I1000000J0D01*
G01*
X206622770Y-62056540D02*
X219622770Y-62056540D01*
X205622770Y-63056540D02*
X205622770Y-75056540D01*
D11*
X220422770Y-71956540D02*
X220822770Y-71956540D01*
X220922770Y-66156540D02*
X220422770Y-66156540D01*
D10*
X201572690Y-75056540D02*
G75*
G02X200572690Y-76056540I-1000000J0D01*
G01*
X200572690Y-76056540D02*
X187572690Y-76056540D01*
X201572690Y-63056540D02*
X201572690Y-75056540D01*
X200572690Y-62056540D02*
G75*
G02X201572690Y-63056540I0J-1000000D01*
G01*
X187572690Y-76056540D02*
G75*
G02X186572690Y-75056540I0J1000000D01*
G01*
X186572690Y-63056540D02*
G75*
G02X187572690Y-62056540I1000000J0D01*
G01*
X187572690Y-62056540D02*
X200572690Y-62056540D01*
X186572690Y-63056540D02*
X186572690Y-75056540D01*
D11*
X201372690Y-71956540D02*
X201772690Y-71956540D01*
X201872690Y-66156540D02*
X201372690Y-66156540D01*
D10*
X182522610Y-75056540D02*
G75*
G02X181522610Y-76056540I-1000000J0D01*
G01*
X181522610Y-76056540D02*
X168522610Y-76056540D01*
X182522610Y-63056540D02*
X182522610Y-75056540D01*
X181522610Y-62056540D02*
G75*
G02X182522610Y-63056540I0J-1000000D01*
G01*
X168522610Y-76056540D02*
G75*
G02X167522610Y-75056540I0J1000000D01*
G01*
X167522610Y-63056540D02*
G75*
G02X168522610Y-62056540I1000000J0D01*
G01*
X168522610Y-62056540D02*
X181522610Y-62056540D01*
X167522610Y-63056540D02*
X167522610Y-75056540D01*
D11*
X182322610Y-71956540D02*
X182722610Y-71956540D01*
X182822610Y-66156540D02*
X182322610Y-66156540D01*
D10*
X163472530Y-75056540D02*
G75*
G02X162472530Y-76056540I-1000000J0D01*
G01*
X162472530Y-76056540D02*
X149472530Y-76056540D01*
X163472530Y-63056540D02*
X163472530Y-75056540D01*
X162472530Y-62056540D02*
G75*
G02X163472530Y-63056540I0J-1000000D01*
G01*
X149472530Y-76056540D02*
G75*
G02X148472530Y-75056540I0J1000000D01*
G01*
X148472530Y-63056540D02*
G75*
G02X149472530Y-62056540I1000000J0D01*
G01*
X149472530Y-62056540D02*
X162472530Y-62056540D01*
X148472530Y-63056540D02*
X148472530Y-75056540D01*
D11*
X163272530Y-71956540D02*
X163672530Y-71956540D01*
X163772530Y-66156540D02*
X163272530Y-66156540D01*
D10*
X373023410Y-56006460D02*
G75*
G02X372023410Y-57006460I-1000000J0D01*
G01*
X372023410Y-57006460D02*
X359023410Y-57006460D01*
X373023410Y-44006460D02*
X373023410Y-56006460D01*
X372023410Y-43006460D02*
G75*
G02X373023410Y-44006460I0J-1000000D01*
G01*
X359023410Y-57006460D02*
G75*
G02X358023410Y-56006460I0J1000000D01*
G01*
X358023410Y-44006460D02*
G75*
G02X359023410Y-43006460I1000000J0D01*
G01*
X359023410Y-43006460D02*
X372023410Y-43006460D01*
X358023410Y-44006460D02*
X358023410Y-56006460D01*
D11*
X372823410Y-52906460D02*
X373223410Y-52906460D01*
X373323410Y-47106460D02*
X372823410Y-47106460D01*
D10*
X353973330Y-56006460D02*
G75*
G02X352973330Y-57006460I-1000000J0D01*
G01*
X352973330Y-57006460D02*
X339973330Y-57006460D01*
X353973330Y-44006460D02*
X353973330Y-56006460D01*
X352973330Y-43006460D02*
G75*
G02X353973330Y-44006460I0J-1000000D01*
G01*
X339973330Y-57006460D02*
G75*
G02X338973330Y-56006460I0J1000000D01*
G01*
X338973330Y-44006460D02*
G75*
G02X339973330Y-43006460I1000000J0D01*
G01*
X339973330Y-43006460D02*
X352973330Y-43006460D01*
X338973330Y-44006460D02*
X338973330Y-56006460D01*
D11*
X353773330Y-52906460D02*
X354173330Y-52906460D01*
X354273330Y-47106460D02*
X353773330Y-47106460D01*
D10*
X334923250Y-56006460D02*
G75*
G02X333923250Y-57006460I-1000000J0D01*
G01*
X333923250Y-57006460D02*
X320923250Y-57006460D01*
X334923250Y-44006460D02*
X334923250Y-56006460D01*
X333923250Y-43006460D02*
G75*
G02X334923250Y-44006460I0J-1000000D01*
G01*
X320923250Y-57006460D02*
G75*
G02X319923250Y-56006460I0J1000000D01*
G01*
X319923250Y-44006460D02*
G75*
G02X320923250Y-43006460I1000000J0D01*
G01*
X320923250Y-43006460D02*
X333923250Y-43006460D01*
X319923250Y-44006460D02*
X319923250Y-56006460D01*
D11*
X334723250Y-52906460D02*
X335123250Y-52906460D01*
X335223250Y-47106460D02*
X334723250Y-47106460D01*
D10*
X296823346Y-56006460D02*
G75*
G02X295823346Y-57006460I-1000000J0D01*
G01*
X295823346Y-57006460D02*
X282823346Y-57006460D01*
X296823346Y-44006460D02*
X296823346Y-56006460D01*
X295823346Y-43006460D02*
G75*
G02X296823346Y-44006460I0J-1000000D01*
G01*
X282823346Y-57006460D02*
G75*
G02X281823346Y-56006460I0J1000000D01*
G01*
X281823346Y-44006460D02*
G75*
G02X282823346Y-43006460I1000000J0D01*
G01*
X282823346Y-43006460D02*
X295823346Y-43006460D01*
X281823346Y-44006460D02*
X281823346Y-56006460D01*
D11*
X296623346Y-52906460D02*
X297023346Y-52906460D01*
X297123346Y-47106460D02*
X296623346Y-47106460D01*
D10*
X277773330Y-56006460D02*
G75*
G02X276773330Y-57006460I-1000000J0D01*
G01*
X276773330Y-57006460D02*
X263773330Y-57006460D01*
X277773330Y-44006460D02*
X277773330Y-56006460D01*
X276773330Y-43006460D02*
G75*
G02X277773330Y-44006460I0J-1000000D01*
G01*
X263773330Y-57006460D02*
G75*
G02X262773330Y-56006460I0J1000000D01*
G01*
X262773330Y-44006460D02*
G75*
G02X263773330Y-43006460I1000000J0D01*
G01*
X263773330Y-43006460D02*
X276773330Y-43006460D01*
X262773330Y-44006460D02*
X262773330Y-56006460D01*
D11*
X277573330Y-52906460D02*
X277973330Y-52906460D01*
X278073330Y-47106460D02*
X277573330Y-47106460D01*
D10*
X258723314Y-56006460D02*
G75*
G02X257723314Y-57006460I-1000000J0D01*
G01*
X257723314Y-57006460D02*
X244723314Y-57006460D01*
X258723314Y-44006460D02*
X258723314Y-56006460D01*
X257723314Y-43006460D02*
G75*
G02X258723314Y-44006460I0J-1000000D01*
G01*
X244723314Y-57006460D02*
G75*
G02X243723314Y-56006460I0J1000000D01*
G01*
X243723314Y-44006460D02*
G75*
G02X244723314Y-43006460I1000000J0D01*
G01*
X244723314Y-43006460D02*
X257723314Y-43006460D01*
X243723314Y-44006460D02*
X243723314Y-56006460D01*
D11*
X258523314Y-52906460D02*
X258923314Y-52906460D01*
X259023314Y-47106460D02*
X258523314Y-47106460D01*
D10*
X239672850Y-56006460D02*
G75*
G02X238672850Y-57006460I-1000000J0D01*
G01*
X238672850Y-57006460D02*
X225672850Y-57006460D01*
X239672850Y-44006460D02*
X239672850Y-56006460D01*
X238672850Y-43006460D02*
G75*
G02X239672850Y-44006460I0J-1000000D01*
G01*
X225672850Y-57006460D02*
G75*
G02X224672850Y-56006460I0J1000000D01*
G01*
X224672850Y-44006460D02*
G75*
G02X225672850Y-43006460I1000000J0D01*
G01*
X225672850Y-43006460D02*
X238672850Y-43006460D01*
X224672850Y-44006460D02*
X224672850Y-56006460D01*
D11*
X239472850Y-52906460D02*
X239872850Y-52906460D01*
X239972850Y-47106460D02*
X239472850Y-47106460D01*
D10*
X220622770Y-56006460D02*
G75*
G02X219622770Y-57006460I-1000000J0D01*
G01*
X219622770Y-57006460D02*
X206622770Y-57006460D01*
X220622770Y-44006460D02*
X220622770Y-56006460D01*
X219622770Y-43006460D02*
G75*
G02X220622770Y-44006460I0J-1000000D01*
G01*
X206622770Y-57006460D02*
G75*
G02X205622770Y-56006460I0J1000000D01*
G01*
X205622770Y-44006460D02*
G75*
G02X206622770Y-43006460I1000000J0D01*
G01*
X206622770Y-43006460D02*
X219622770Y-43006460D01*
X205622770Y-44006460D02*
X205622770Y-56006460D01*
D11*
X220422770Y-52906460D02*
X220822770Y-52906460D01*
X220922770Y-47106460D02*
X220422770Y-47106460D01*
D10*
X201572690Y-56006460D02*
G75*
G02X200572690Y-57006460I-1000000J0D01*
G01*
X200572690Y-57006460D02*
X187572690Y-57006460D01*
X201572690Y-44006460D02*
X201572690Y-56006460D01*
X200572690Y-43006460D02*
G75*
G02X201572690Y-44006460I0J-1000000D01*
G01*
X187572690Y-57006460D02*
G75*
G02X186572690Y-56006460I0J1000000D01*
G01*
X186572690Y-44006460D02*
G75*
G02X187572690Y-43006460I1000000J0D01*
G01*
X187572690Y-43006460D02*
X200572690Y-43006460D01*
X186572690Y-44006460D02*
X186572690Y-56006460D01*
D11*
X201372690Y-52906460D02*
X201772690Y-52906460D01*
X201872690Y-47106460D02*
X201372690Y-47106460D01*
D10*
X163472530Y-56006460D02*
G75*
G02X162472530Y-57006460I-1000000J0D01*
G01*
X162472530Y-57006460D02*
X149472530Y-57006460D01*
X163472530Y-44006460D02*
X163472530Y-56006460D01*
X162472530Y-43006460D02*
G75*
G02X163472530Y-44006460I0J-1000000D01*
G01*
X149472530Y-57006460D02*
G75*
G02X148472530Y-56006460I0J1000000D01*
G01*
X148472530Y-44006460D02*
G75*
G02X149472530Y-43006460I1000000J0D01*
G01*
X149472530Y-43006460D02*
X162472530Y-43006460D01*
X148472530Y-44006460D02*
X148472530Y-56006460D01*
D11*
X163272530Y-52906460D02*
X163672530Y-52906460D01*
X163772530Y-47106460D02*
X163272530Y-47106460D01*
D12*
X389335890Y-118467340D03*
D13*
G36*
X377690449Y-50357604D02*
G01*
X377713504Y-50361023D01*
X377736113Y-50366687D01*
X377758057Y-50374539D01*
X377779127Y-50384504D01*
X377799118Y-50396486D01*
X377817838Y-50410370D01*
X377835108Y-50426022D01*
X377850760Y-50443292D01*
X377864644Y-50462012D01*
X377876626Y-50482003D01*
X377886591Y-50503073D01*
X377894443Y-50525017D01*
X377900107Y-50547626D01*
X377903526Y-50570681D01*
X377904670Y-50593960D01*
X377904670Y-51168960D01*
X377903526Y-51192239D01*
X377900107Y-51215294D01*
X377894443Y-51237903D01*
X377886591Y-51259847D01*
X377876626Y-51280917D01*
X377864644Y-51300908D01*
X377850760Y-51319628D01*
X377835108Y-51336898D01*
X377817838Y-51352550D01*
X377799118Y-51366434D01*
X377779127Y-51378416D01*
X377758057Y-51388381D01*
X377736113Y-51396233D01*
X377713504Y-51401897D01*
X377690449Y-51405316D01*
X377667170Y-51406460D01*
X377192170Y-51406460D01*
X377168891Y-51405316D01*
X377145836Y-51401897D01*
X377123227Y-51396233D01*
X377101283Y-51388381D01*
X377080213Y-51378416D01*
X377060222Y-51366434D01*
X377041502Y-51352550D01*
X377024232Y-51336898D01*
X377008580Y-51319628D01*
X376994696Y-51300908D01*
X376982714Y-51280917D01*
X376972749Y-51259847D01*
X376964897Y-51237903D01*
X376959233Y-51215294D01*
X376955814Y-51192239D01*
X376954670Y-51168960D01*
X376954670Y-50593960D01*
X376955814Y-50570681D01*
X376959233Y-50547626D01*
X376964897Y-50525017D01*
X376972749Y-50503073D01*
X376982714Y-50482003D01*
X376994696Y-50462012D01*
X377008580Y-50443292D01*
X377024232Y-50426022D01*
X377041502Y-50410370D01*
X377060222Y-50396486D01*
X377080213Y-50384504D01*
X377101283Y-50374539D01*
X377123227Y-50366687D01*
X377145836Y-50361023D01*
X377168891Y-50357604D01*
X377192170Y-50356460D01*
X377667170Y-50356460D01*
X377690449Y-50357604D01*
X377690449Y-50357604D01*
G37*
D14*
X377429670Y-50881460D03*
D13*
G36*
X377690449Y-48607604D02*
G01*
X377713504Y-48611023D01*
X377736113Y-48616687D01*
X377758057Y-48624539D01*
X377779127Y-48634504D01*
X377799118Y-48646486D01*
X377817838Y-48660370D01*
X377835108Y-48676022D01*
X377850760Y-48693292D01*
X377864644Y-48712012D01*
X377876626Y-48732003D01*
X377886591Y-48753073D01*
X377894443Y-48775017D01*
X377900107Y-48797626D01*
X377903526Y-48820681D01*
X377904670Y-48843960D01*
X377904670Y-49418960D01*
X377903526Y-49442239D01*
X377900107Y-49465294D01*
X377894443Y-49487903D01*
X377886591Y-49509847D01*
X377876626Y-49530917D01*
X377864644Y-49550908D01*
X377850760Y-49569628D01*
X377835108Y-49586898D01*
X377817838Y-49602550D01*
X377799118Y-49616434D01*
X377779127Y-49628416D01*
X377758057Y-49638381D01*
X377736113Y-49646233D01*
X377713504Y-49651897D01*
X377690449Y-49655316D01*
X377667170Y-49656460D01*
X377192170Y-49656460D01*
X377168891Y-49655316D01*
X377145836Y-49651897D01*
X377123227Y-49646233D01*
X377101283Y-49638381D01*
X377080213Y-49628416D01*
X377060222Y-49616434D01*
X377041502Y-49602550D01*
X377024232Y-49586898D01*
X377008580Y-49569628D01*
X376994696Y-49550908D01*
X376982714Y-49530917D01*
X376972749Y-49509847D01*
X376964897Y-49487903D01*
X376959233Y-49465294D01*
X376955814Y-49442239D01*
X376954670Y-49418960D01*
X376954670Y-48843960D01*
X376955814Y-48820681D01*
X376959233Y-48797626D01*
X376964897Y-48775017D01*
X376972749Y-48753073D01*
X376982714Y-48732003D01*
X376994696Y-48712012D01*
X377008580Y-48693292D01*
X377024232Y-48676022D01*
X377041502Y-48660370D01*
X377060222Y-48646486D01*
X377080213Y-48634504D01*
X377101283Y-48624539D01*
X377123227Y-48616687D01*
X377145836Y-48611023D01*
X377168891Y-48607604D01*
X377192170Y-48606460D01*
X377667170Y-48606460D01*
X377690449Y-48607604D01*
X377690449Y-48607604D01*
G37*
D14*
X377429670Y-49131460D03*
D12*
X155973586Y-38695532D03*
X155973586Y-118467340D03*
X233364146Y-38695532D03*
X233364146Y-118454889D03*
X311945330Y-38695532D03*
X311945330Y-118467340D03*
X389335890Y-38695532D03*
M02*
