M48
; DRILL file {KiCad (5.1.4-0)} date Friday, October 08, 2021 at 11:39:28 AM
; FORMAT={-:-/ absolute / inch / decimal}
; #@! TF.CreationDate,2021-10-08T11:39:28-05:00
; #@! TF.GenerationSoftware,Kicad,Pcbnew,(5.1.4-0)
; #@! TF.FileFunction,NonPlated,1,2,NPTH
FMAT,2
INCH
T1C0.0256
T2C0.0670
T3C0.1570
%
G90
G05
T1
X3.6831Y-1.8468
X3.9106Y-1.8468
T2
X7.7219Y-4.3438
X8.1219Y-4.3438
X4.7219Y-4.3438
X5.1219Y-4.3438
X7.7219Y-2.0938
X8.1219Y-2.0938
X4.7219Y-2.8438
X5.1219Y-2.8438
X11.4719Y-2.8438
X11.8719Y-2.8438
X6.9719Y-3.5938
X7.3719Y-3.5938
X8.4719Y-3.5938
X5.4719Y-4.3438
X5.8719Y-4.3438
X5.8721Y-2.8438
X11.8719Y-4.3438
X12.4094Y-2.0938
X12.8094Y-2.0938
X8.8719Y-3.5938
X11.4719Y-4.3438
X6.6219Y-4.3438
X11.4719Y-3.5938
X5.4721Y-2.8438
X6.2219Y-4.3438
X11.8719Y-3.5938
X6.2219Y-2.8438
X6.6219Y-2.8438
X9.2219Y-3.5938
X9.6219Y-3.5938
X12.4094Y-3.5938
X12.8094Y-3.5938
X8.4719Y-2.0938
X8.8719Y-2.0938
X9.2219Y-2.0938
X9.6219Y-2.0938
X12.4094Y-4.3438
X12.8094Y-4.3438
X6.9719Y-4.3438
X7.3719Y-4.3438
X3.2219Y-3.5938
X3.6219Y-3.5938
X8.4719Y-4.3438
X8.8719Y-4.3438
X9.2219Y-4.3438
X9.6219Y-4.3438
X7.7219Y-2.8438
X8.1219Y-2.8438
X10.3719Y-2.0938
X10.3719Y-3.5938
X12.4094Y-2.8438
X12.8094Y-2.8438
X9.9719Y-3.5938
X6.9719Y-2.8438
X7.3719Y-2.8438
X10.7219Y-3.5938
X11.1219Y-3.5938
X3.2219Y-2.0938
X3.6219Y-2.0938
X9.9719Y-2.0938
X10.7219Y-2.0938
X11.1219Y-2.0938
X4.3719Y-2.0938
X10.3719Y-4.3438
X4.7219Y-2.0938
X3.2219Y-4.3438
X4.7219Y-3.5938
X8.4719Y-2.8438
X8.8719Y-2.8438
X3.6219Y-4.3438
X11.4719Y-2.0938
X11.8719Y-2.0938
X5.1219Y-2.0938
X3.9719Y-2.0938
X9.9719Y-4.3438
X5.1219Y-3.5938
X10.7219Y-4.3438
X5.4719Y-3.5938
X5.8719Y-3.5938
X11.1219Y-4.3438
X3.9719Y-3.5938
X4.3719Y-3.5938
X7.7219Y-3.5938
X8.1219Y-3.5938
X6.2219Y-2.0938
X6.6219Y-2.0938
X3.2219Y-2.8438
X3.6219Y-2.8438
X9.2219Y-2.8438
X9.6219Y-2.8438
X3.9719Y-4.3438
X4.3719Y-4.3438
X6.2219Y-3.5938
X6.6219Y-3.5938
X6.9719Y-2.0938
X7.3719Y-2.0938
X3.9719Y-2.8438
X4.3719Y-2.8438
X10.3719Y-2.8438
X5.4719Y-2.0938
X5.8719Y-2.0938
X9.9719Y-2.8438
X10.7219Y-2.8438
X11.1219Y-2.8438
T3
X8.6719Y-3.5938
X7.1719Y-4.3438
X8.6719Y-4.3438
X10.1719Y-4.3438
X10.9219Y-4.3438
X9.4219Y-3.5938
X10.1719Y-3.5938
X6.4219Y-2.8438
X9.4219Y-2.0938
X4.1719Y-2.0938
X8.6719Y-2.8438
X10.9219Y-3.5938
X7.9219Y-2.8438
X7.1719Y-2.8438
X12.6094Y-3.5938
X3.4219Y-2.0938
X9.4219Y-4.3438
X10.1719Y-2.0938
X12.6094Y-4.3438
X3.4219Y-4.3438
X11.6719Y-2.0938
X4.9219Y-2.0938
X10.9219Y-2.0938
X12.6094Y-2.8438
X3.4219Y-3.5938
X4.9219Y-3.5938
X4.1719Y-3.5938
X5.6719Y-3.5938
X7.9219Y-3.5938
X6.4219Y-2.0938
X3.4219Y-2.8438
X10.1719Y-2.8438
X5.6719Y-2.0938
X9.4219Y-2.8438
X4.1719Y-4.3438
X5.6719Y-4.3438
X4.9219Y-4.3438
X6.4219Y-3.5938
X4.1719Y-2.8438
X10.9219Y-2.8438
X7.1719Y-3.5938
X7.9219Y-4.3438
X7.1719Y-2.0938
X11.6719Y-2.8438
X6.4219Y-4.3438
X5.6721Y-2.8438
X7.9219Y-2.0938
X4.9219Y-2.8438
X11.6719Y-3.5938
X11.6719Y-4.3438
X12.6094Y-2.0938
X8.6719Y-2.0938
T0
M30
