M48
; DRILL file {KiCad (5.1.4-0)} date Friday, October 08, 2021 at 11:39:28 AM
; FORMAT={-:-/ absolute / inch / decimal}
; #@! TF.CreationDate,2021-10-08T11:39:28-05:00
; #@! TF.GenerationSoftware,Kicad,Pcbnew,(5.1.4-0)
; #@! TF.FileFunction,Plated,1,2,PTH
FMAT,2
INCH
T1C0.0098
T2C0.0157
T3C0.0236
T4C0.0394
T5C0.0420
T6C0.0591
T7C0.0600
%
G90
G05
T1
X3.413Y-1.9865
X3.5233Y-2.0101
X3.6532Y-2.516
X3.7477Y-1.9628
X3.8658Y-1.953
X3.913Y-3.0967
X3.9642Y-2.514
X4.0219Y-2.3038
X4.0666Y-1.9215
X4.1335Y-2.4668
X4.2949Y-2.2188
X4.4327Y-2.8487
X4.4622Y-3.7286
X4.5469Y-2.2699
X4.6925Y-3.7266
X4.7719Y-2.3638
X5.9406Y-3.7306
X6.1492Y-3.7306
X6.4721Y-2.2936
T2
X4.161Y-2.3201
X4.161Y-2.5455
X4.1807Y-3.1282
X4.1807Y-3.3211
X4.3028Y-2.829
X4.3677Y-2.703
X4.3776Y-3.5062
X4.6925Y-3.5062
X4.9051Y-3.081
T4
X12.5099Y-1.8187
X12.5099Y-2.3895
X12.6084Y-2.3895
X12.7068Y-1.8187
X12.7068Y-2.3895
T5
X7.5252Y-2.3087
X7.5252Y-2.5087
X7.5252Y-2.7087
X7.5412Y-2.2087
X7.5412Y-2.4087
X7.5412Y-2.6087
T7
X10.7719Y-3.4937
X11.0219Y-3.3937
X3.2719Y-4.2437
X3.5219Y-4.1437
X5.0219Y-3.3937
X10.0219Y-4.2437
X10.2719Y-4.1437
X10.7719Y-1.9937
X5.5219Y-3.4937
X5.7719Y-3.3937
X10.7719Y-4.2437
X11.0219Y-4.1437
X11.5219Y-1.9937
X11.7719Y-1.8938
X4.7719Y-3.4937
X4.7719Y-1.9937
X5.0219Y-1.8938
X7.7719Y-3.4937
X8.0219Y-3.3937
X6.2719Y-1.9937
X6.5219Y-1.8938
X3.2719Y-2.7437
X3.5219Y-2.6437
X10.0219Y-2.7437
X4.0219Y-4.2437
X4.2719Y-4.1437
X4.7719Y-4.2437
X5.0219Y-4.1437
X7.2719Y-1.8938
X10.2719Y-2.6437
X5.5219Y-1.9937
X5.7719Y-1.8938
X9.2719Y-2.7437
X9.5219Y-2.6437
X6.2719Y-3.4937
X6.5219Y-3.3937
X4.0219Y-2.7437
X4.2719Y-2.6437
X5.5219Y-4.2437
X5.7719Y-4.1437
X7.0219Y-3.4937
X7.2719Y-3.3937
X7.7719Y-4.2437
X8.0219Y-4.1437
X7.0219Y-1.9937
X10.7719Y-2.7437
X11.0219Y-2.6437
X11.5219Y-3.4937
X11.7719Y-3.3937
X5.5221Y-2.7437
X5.7721Y-2.6437
X11.5219Y-4.2437
X11.7719Y-4.1437
X11.5219Y-2.7437
X11.7719Y-2.6437
X12.4594Y-1.9937
X12.7094Y-1.8938
X7.7719Y-1.9937
X8.0219Y-1.8938
X4.7719Y-2.7437
X5.0219Y-2.6437
X6.2719Y-4.2437
X6.5219Y-4.1437
X8.5219Y-3.4937
X8.7719Y-3.3937
X6.2719Y-2.7437
X6.5219Y-2.6437
X9.2719Y-3.4937
X9.5219Y-3.3937
X12.4594Y-3.4938
X12.7094Y-3.3938
X8.5219Y-1.9937
X8.7719Y-1.8938
X9.2719Y-1.9937
X9.5219Y-1.8938
X7.0219Y-4.2437
X7.2719Y-4.1437
X10.0219Y-1.9937
X10.2719Y-1.8938
X12.4594Y-2.7438
X12.7094Y-2.6438
X10.0219Y-3.4937
X10.2719Y-3.3937
X7.0219Y-2.7437
X7.2719Y-2.6437
X8.5219Y-4.2437
X8.7719Y-4.1437
X9.2719Y-4.2437
X9.5219Y-4.1437
X7.7719Y-2.7437
X8.0219Y-2.6437
X3.2719Y-1.9937
X3.5219Y-1.8938
X12.4594Y-4.2438
X12.7094Y-4.1438
X3.2719Y-3.4937
X3.5219Y-3.3937
X4.0219Y-3.4937
X4.2719Y-3.3937
X4.0219Y-1.9937
X4.2719Y-1.8938
X8.5219Y-2.7437
X8.7719Y-2.6437
X11.0219Y-1.8938
T3
G00X3.6276Y-1.6913
M15
G01X3.6276Y-1.7149
M16
G05
G00X3.6276Y-1.8468
M15
G01X3.6276Y-1.8901
M16
G05
G00X3.9661Y-1.6913
M15
G01X3.9661Y-1.7149
M16
G05
G00X3.9661Y-1.8468
M15
G01X3.9661Y-1.8901
M16
G05
T6
G00X12.3879Y-2.1198
M15
G01X12.3879Y-2.0687
M16
G05
G00X12.8288Y-2.1198
M15
G01X12.8288Y-2.0687
M16
G05
T0
M30
